# SSTK version 0.8.0
# 38
mtllib original-38.mtl
o mesh30/mesh30-geometry#mesh30-geometry
v 0.023197 0.623812 0.357618
v 0.030055 0.662916 0.355386
v 0.023185 0.662916 0.355421
v 0.030066 0.623812 0.357576
v 0.030049 0.662916 0.354226
v 0.023191 0.623812 0.356458
v 0.030060 0.623812 0.356416
v 0.023180 0.662916 0.354261
vn 0.0055849237951724 0.05599999655129652 0.9984151486292948
vn 0.0050290438745112355 0.05609700321764027 0.9984126576459799
vn 0.006140157209883797 0.055902017896894335 0.9984173790877706
vn 0 1 0
vn -0.9999872031018442 0.000001999999481224325 0.005059014583020578
vn 0 -1 0
vn 0.9999872568171209 -9.9999992158763e-7 -0.005048386115345923
vn -0.0050290438745112355 -0.05609700321764027 -0.9984126576459799
vn -0.0055849237951724 -0.05599999655129652 -0.9984151486292948
vn -0.006140157209883797 -0.055902017896894335 -0.9984173790877706
vn 0.9999872031018442 -0.000001999999481224325 -0.005059014583020578
vn -0.9999872568171209 9.9999992158763e-7 0.005048386115345923
usemtl material_0_0
f 1//1 2//1 3//2
f 1//1 4//3 2//1
f 5//4 3//4 2//4
f 3//5 6//5 1//5
f 1//6 7//6 4//6
f 4//7 5//7 2//7
f 3//4 5//4 8//4
f 6//5 3//5 8//5
f 7//6 1//6 6//6
f 5//7 4//7 7//7
usemtl material_1_0
f 3//8 2//9 1//9
f 2//9 4//10 1//9
f 2//6 3//6 5//6
f 1//11 6//11 3//11
f 4//4 7//4 1//4
f 2//12 5//12 4//12
f 8//6 5//6 3//6
f 8//11 3//11 6//11
f 6//4 1//4 7//4
f 7//12 4//12 5//12
