# SSTK version 0.8.0
# 50
mtllib original-50.mtl
o coffe2_1/coffe2/mesh40/mesh40-geometry#mesh40-geometry
v 0.400630 0.068753 0.338367
v 0.399813 -0.024497 0.333443
v 0.401080 0.068721 0.333437
v 0.399386 -0.024467 0.338118
v 0.400581 0.068689 0.328512
v 0.399266 0.068783 0.343113
v 0.398546 -0.096955 0.333450
v 0.399339 -0.024527 0.328773
v 0.398093 -0.024439 0.342619
v 0.398142 -0.096926 0.337869
v 0.399169 0.068659 0.323779
v 0.397022 0.068811 0.347490
v 0.397278 -0.127890 0.333456
v 0.398098 -0.096983 0.329035
v 0.398000 -0.024556 0.324286
v 0.395965 -0.024412 0.346768
v 0.396919 -0.096899 0.342124
v 0.396898 -0.127864 0.337620
v 0.396881 0.068631 0.319426
v 0.394002 0.068835 0.351336
v 0.396011 -0.138065 0.333462
v 0.396856 -0.127917 0.329296
v 0.396832 -0.097010 0.324792
v 0.395831 -0.024582 0.320158
v 0.393101 -0.024389 0.350415
v 0.394908 -0.096874 0.346047
v 0.395746 -0.127838 0.341629
v 0.395654 -0.138040 0.337371
v 0.393822 0.068607 0.315610
v 0.390306 0.068856 0.354492
v 0.395615 -0.138090 0.329557
v 0.395663 -0.127943 0.325298
v 0.394781 -0.097035 0.320890
v 0.392930 -0.024606 0.316540
v 0.389596 -0.024370 0.353408
v 0.392200 -0.096852 0.349495
v 0.393851 -0.127814 0.345326
v 0.394572 -0.138016 0.341135
v 0.390094 0.068586 0.312491
v 0.385597 -0.024355 0.355646
v 0.394495 -0.138114 0.325805
v 0.393731 -0.127966 0.321621
v 0.392039 -0.097057 0.317469
v 0.389396 -0.024625 0.313582
v 0.386089 0.068871 0.356852
v 0.385106 -0.096821 0.354440
v 0.388887 -0.096834 0.352324
v 0.391299 -0.127794 0.348574
v 0.392793 -0.137994 0.344605
v 0.385853 0.068572 0.310174
v 0.381250 -0.024347 0.357026
v 0.380996 -0.096812 0.355745
v 0.392681 -0.138136 0.322353
v 0.391147 -0.127987 0.318399
v 0.388697 -0.097075 0.314673
v 0.385374 -0.024639 0.311385
v 0.381503 0.068880 0.358308
v 0.384615 -0.127764 0.353234
v 0.380742 -0.127756 0.354463
v 0.388177 -0.127777 0.351240
v 0.390398 -0.137974 0.347654
v 0.381254 0.068562 0.308765
v 0.376725 -0.024344 0.357514
v 0.376718 -0.096810 0.356206
v 0.376712 -0.127754 0.354898
v 0.390256 -0.138156 0.319328
v 0.387999 -0.128004 0.315764
v 0.384896 -0.097089 0.312596
v 0.381013 -0.024648 0.310049
v 0.376732 0.068883 0.358822
v 0.384124 -0.137946 0.352028
v 0.380489 -0.137939 0.353182
v 0.376705 -0.137937 0.353590
v 0.387468 -0.137958 0.350157
v 0.376477 0.068559 0.308299
v 0.371955 0.068880 0.358356
v 0.372196 -0.024347 0.357072
v 0.372436 -0.096812 0.355788
v 0.372677 -0.127756 0.354504
v 0.387300 -0.138172 0.316855
v 0.384417 -0.128017 0.313807
v 0.380772 -0.097097 0.311332
v 0.376484 -0.024651 0.309607
v 0.372918 -0.137939 0.353220
v 0.371705 0.068562 0.308813
v 0.367355 0.068871 0.356946
v 0.367834 -0.024355 0.355735
v 0.368313 -0.096821 0.354524
v 0.368792 -0.127764 0.353313
v 0.383938 -0.138184 0.315018
v 0.380531 -0.128024 0.312616
v 0.376490 -0.097100 0.310915
v 0.371959 -0.024648 0.310094
v 0.369271 -0.137946 0.352102
v 0.367120 0.068571 0.310269
v 0.363115 0.068856 0.354629
v 0.363813 -0.024370 0.353538
v 0.364512 -0.096834 0.352447
v 0.365210 -0.127777 0.351356
v 0.380291 -0.138191 0.313900
v 0.376497 -0.128027 0.312223
v 0.372213 -0.097097 0.311376
v 0.367611 -0.024639 0.311475
v 0.365909 -0.137958 0.350265
v 0.362903 0.068586 0.312628
v 0.359387 0.068835 0.351510
v 0.360279 -0.024389 0.350581
v 0.361170 -0.096852 0.349651
v 0.362062 -0.127794 0.348722
v 0.376503 -0.138193 0.313531
v 0.372466 -0.128024 0.312657
v 0.368102 -0.097089 0.312681
v 0.363612 -0.024625 0.313712
v 0.362953 -0.137974 0.347792
v 0.359207 0.068607 0.315785
v 0.356328 0.068811 0.347695
v 0.357378 -0.024412 0.346963
v 0.358428 -0.096874 0.346231
v 0.359478 -0.127814 0.345499
v 0.372720 -0.138191 0.313938
v 0.368593 -0.128017 0.313887
v 0.364322 -0.097075 0.314796
v 0.360108 -0.024606 0.316705
v 0.360527 -0.137994 0.344767
v 0.357244 -0.024582 0.320352
v 0.354040 0.068783 0.343341
v 0.355208 -0.024439 0.342835
v 0.356377 -0.096899 0.342328
v 0.357545 -0.127838 0.341822
v 0.369085 -0.138184 0.315093
v 0.365031 -0.128004 0.315880
v 0.361009 -0.097057 0.317626
v 0.356186 0.068631 0.319631
v 0.358301 -0.097035 0.321073
v 0.358714 -0.138016 0.341315
v 0.355116 -0.024556 0.324502
v 0.356290 -0.097010 0.324996
v 0.352628 0.068753 0.338608
v 0.353869 -0.024467 0.338347
v 0.355111 -0.096926 0.338086
v 0.356352 -0.127864 0.337824
v 0.365741 -0.138172 0.316964
v 0.361910 -0.127987 0.318546
v 0.359358 -0.127966 0.321795
v 0.353943 0.068659 0.324007
v 0.357463 -0.127943 0.325491
v 0.357594 -0.138040 0.337563
v 0.353822 -0.024527 0.329003
v 0.355066 -0.096983 0.329252
v 0.356310 -0.127917 0.329500
v 0.352128 0.068721 0.333684
v 0.353396 -0.024497 0.333677
v 0.354663 -0.096955 0.333671
v 0.355930 -0.127890 0.333664
v 0.362810 -0.138156 0.319466
v 0.360415 -0.138136 0.322516
v 0.358636 -0.138114 0.325986
v 0.352578 0.068689 0.328754
v 0.357555 -0.138090 0.329749
v 0.357198 -0.138065 0.333658
vn 0.9827444108274436 -0.013607993011637351 0.1844674646478771
vn 0.9998670186746847 -0.015542005943699384 -0.00493872633820931
vn 0.9998953244986265 -0.013595000421349849 -0.004951364390718859
vn 0.9827144482825197 -0.01555700720133248 0.18447301337518332
vn 0.9808689545675436 -0.01360799783389953 -0.19419298741336274
vn 0.9297205553457926 -0.01365600159316378 0.36801250330389407
vn 0.9995614176128552 -0.02921399202960607 -0.004849235968006776
vn 0.9808437740429005 -0.015557004682581367 -0.19417381524444963
vn 0.9296899162104714 -0.015610999120585525 0.3680121688246515
vn 0.9823977335078096 -0.029240998862788296 0.18449839344619023
vn 0.9260264220327749 -0.013656004931559893 -0.37721158416263695
vn 0.8419027006297393 -0.01372199658725056 0.5394548632480861
vn 0.9965939062947977 -0.08234300161252302 -0.0044962230278451625
vn 0.9805596250763127 -0.02924299464113404 -0.19403007224298974
vn 0.9260041867827303 -0.015611993466030911 -0.37719028582516656
vn 0.8418724684289643 -0.015687004515394967 0.5394484820542704
vn 0.9293733934160006 -0.02934298523675549 0.36797294034728045
vn 0.9794134660644463 -0.08241204994072841 0.18427565361760254
vn 0.8365040599046143 -0.013723001169515501 -0.5477888616994684
vn 0.7213544892168408 -0.013806999160492899 0.6924283844997206
vn 0.9923223047024322 -0.12360700856417368 -0.004213196395810271
vn 0.9777049654855157 -0.0824330224477928 -0.19312637643545288
vn 0.9257484734828465 -0.0293480033939648 -0.3769992818838881
vn 0.8364852134073121 -0.015689002631124528 -0.5477648610009264
vn 0.7213263427980104 -0.01578399736418299 0.6924154624305082
vn 0.8415701828439772 -0.02948500978239062 0.5393424344014544
vn 0.926473762455307 -0.0826920217052527 0.3671626302174631
vn 0.9751595664219711 -0.1237079969300623 0.18373935754558687
vn 0.7144282506211008 -0.013808006456832604 -0.6995724506240665
vn 0.5715264390578061 -0.013888000866583322 0.8204661192821029
vn 0.9735538208542344 -0.12374492449099388 -0.19204205675538782
vn 0.9230912406827144 -0.08273197794907662 -0.375576864568999
vn 0.8362649265476475 -0.02949101204983842 -0.5475319651258127
vn 0.714413682639311 -0.015785998089413028 -0.6995454898161083
vn 0.5715030157814099 -0.015876997162351997 0.8204463565120271
vn 0.7210535951113657 -0.02966700661712257 0.6922438744368593
vn 0.8388720510275962 -0.08308000420513592 0.5379511082859004
vn 0.9223780027969902 -0.12412201632074284 0.36580397075579824
vn 0.5633131853982567 -0.013890001138771972 -0.8261266991356921
vn 0.39742075308868374 -0.015962996906770367 0.9174976445442123
vn 0.9191887414031095 -0.1241940551780649 -0.3737216803132987
vn 0.8338902086869585 -0.08313901430398563 -0.5456326824490838
vn 0.7142325662419147 -0.029676003336755317 -0.699279040258927
vn 0.563302601863378 -0.015880007100969262 -0.8260980596202984
vn 0.3974372257553314 -0.013962998378239513 0.9175231257359102
vn 0.39726089335630177 -0.030001006948938834 0.9172151994988977
vn 0.5712789526698477 -0.02984100283003113 0.8202133093205327
vn 0.718679287910158 -0.08358201013812216 0.6903000280386921
vn 0.8350916050883808 -0.12469905259245988 0.5357911509099931
vn 0.38823710753704366 -0.013965001902997175 -0.9214537031523176
vn 0.20587057525847002 -0.01601600106112395 0.9784481559861804
vn 0.2057861549926396 -0.030100010862614053 0.9781339620723819
vn 0.8303686405661335 -0.12480500145903296 -0.5430576694745801
vn 0.7122161678645701 -0.08365899156169457 -0.6969571746981209
vn 0.5631646663670625 -0.029851013758290804 -0.8258053496637554
vn 0.38823038285312866 -0.015965995389843647 -0.9214240374664232
vn 0.20587826448610247 -0.014010003609887826 0.978477317065164
vn 0.395896667276141 -0.08450603268001003 0.9143984685465792
vn 0.20506978769724865 -0.08478100689858818 0.9750684914625571
vn 0.5693536750430909 -0.08406201185959537 0.8177835721491621
vn 0.7153753047209451 -0.12544398414425756 0.6873877946526471
vn 0.19604413230984313 -0.01401199401704819 -0.9804949577690582
vn 0.005037988039916854 -0.016039008660697893 0.9998586744523906
vn 0.005036606133298079 -0.030142992082069796 0.9995329072256692
vn 0.005019734799266538 -0.08489999383604818 0.9963768329849826
vn 0.7091996547559939 -0.12558298203422558 -0.6937324875752687
vn 0.5615811913285054 -0.08415495246247989 -0.8231309188228169
vn 0.38813788516113057 -0.03001300222165275 -0.9211124805366
vn 0.1960396913647173 -0.016018998016223647 -0.9804651095843151
vn 0.0050377158716122675 -0.014030003805119713 0.9998888840326334
vn 0.3940143180689508 -0.12682001557977624 0.9103128038235015
vn 0.20408548542100668 -0.12722902250662502 0.9706502410613624
vn 0.004996089463694074 -0.12740703071216894 0.9918379341481042
vn 0.566687642278915 -0.1261579527850794 0.8142169778612102
vn -0.005034897210230085 -0.014032006724742828 -0.9998888701237549
vn -0.19600999047780465 -0.014010002750969166 0.9805018120614613
vn -0.19600125816339628 -0.016015993884053444 0.9804728424277093
vn -0.19591979294789086 -0.030101006383144613 0.9801578261412688
vn -0.19523534925515276 -0.08478201022911948 0.9770850368021853
vn 0.5591945511907718 -0.12632594894935742 -0.8193553615743266
vn 0.38704874213554596 -0.08461102034984144 -0.918168963996633
vn 0.19599170572539928 -0.030113010458340906 -0.9801430803142899
vn -0.005035814880128051 -0.016041999428471915 -0.9998586374197255
vn -0.194295974620424 -0.12723098563829416 0.9726568513817233
vn -0.20591066957511786 -0.014012001033994853 -0.9784704696525849
vn -0.388173237870463 -0.013963000777047789 0.9214806411479631
vn -0.38815704122690037 -0.01596300130362633 0.9214549874710967
vn -0.38799996067833736 -0.0300010059914263 0.9211709776980119
vn -0.3866623032133829 -0.08450702998736694 0.918341344575336
vn 0.38539531744725497 -0.12701001855787988 -0.913968765590847
vn 0.19544200695063876 -0.08489301581039205 -0.9770340822027259
vn -0.005034549143774455 -0.030157005927284923 -0.9995324948736889
vn -0.20590649069044945 -0.01601899268828485 -0.9784405495301166
vn -0.3848206485936057 -0.12682303485160867 0.9142368326899898
vn -0.3975013723527569 -0.013965005771326311 -0.917495306577359
vn -0.5632302277675862 -0.013887996438638849 0.826183293273226
vn -0.5632086404607227 -0.015876993841680266 0.8261621804324715
vn -0.5629876560906126 -0.029841014192837148 0.82592639681847
vn -0.5610854029850839 -0.08406300789460942 0.8234783429215226
vn 0.1946053817138984 -0.12743198744227935 -0.9725686782867824
vn -0.005019748593387707 -0.08501395139770812 -0.996367116173455
vn -0.20585612861695832 -0.030113008934862535 -0.9781188378738686
vn -0.39749359441737375 -0.015966001452427415 -0.917466037079726
vn -0.5584541732421594 -0.12616000837033814 0.8198857168388851
vn -0.5716088840155656 -0.013889998676700066 -0.8204086491811509
vn -0.7143413199754296 -0.013807000352499467 0.6996612361114676
vn -0.7143141042501135 -0.015784003553760747 0.6996472151743138
vn -0.7140441215400934 -0.029667001015367803 0.6994718447119874
vn -0.7116881178932911 -0.08358196206345138 0.6975056117818184
vn -0.004997436148600529 -0.12761200242022563 -0.9918115760920725
vn -0.2052767969765732 -0.0848939916890486 -0.9750151008051815
vn -0.3973980378762257 -0.030012994167125412 -0.9171553955973054
vn -0.5715977781799011 -0.015880001934748273 -0.8203802810394414
vn -0.7084120933219626 -0.12544493468221923 0.6945616418992403
vn -0.7214428792933161 -0.013808004162499577 -0.6923362701303595
vn -0.8364244906016207 -0.013721993024234387 0.547910374449382
vn -0.8363946501513184 -0.01568700221280072 0.5479031914123416
vn -0.8360938421231914 -0.02948400599221192 0.5477935565104167
vn -0.8334096368146446 -0.0830790169503642 0.5463755615023822
vn -0.20439623301217338 -0.12743298527722222 -0.9705580941879618
vn -0.3962792879110649 -0.08461302621874651 -0.914222818445703
vn -0.5714568490548128 -0.02985100336747713 -0.8200890117946342
vn -0.7214279490690785 -0.015786004557159856 -0.6923095524128673
vn -0.8296514984114053 -0.12469796945068451 0.5441771840114084
vn -0.8419625532418743 -0.015688996938308348 -0.5393078103583273
vn -0.9259652109058172 -0.013656005273567801 0.3773618180368994
vn -0.9259342795183969 -0.015610998389772344 0.3773619042007574
vn -0.925618193163059 -0.029342998777878705 0.3773194255644349
vn -0.9227271258107447 -0.08269101023392267 0.37647954541984835
vn -0.39458408735990835 -0.12701299969955088 -0.9100390628482219
vn -0.5698457102334966 -0.08415597333156552 -0.8174311216739296
vn -0.7212426960480622 -0.029674998619192813 -0.6920465070024364
vn -0.841981692554867 -0.013723004106712632 -0.5393315386297451
vn -0.8417396651556771 -0.0294909992677681 -0.5390775612709149
vn -0.9186458441504423 -0.12412096174058819 0.3750783916486167
vn -0.9297573775856838 -0.015613001272350442 -0.36784161403552734
vn -0.9295000112136088 -0.029348006231917797 -0.3676525855806162
vn -0.980835985753859 -0.013607998330543608 0.1943594387512257
vn -0.9808056721996834 -0.015557003965830804 0.19436618278017026
vn -0.9804881777903974 -0.029240999188021276 0.1943910933652874
vn -0.9775064030987819 -0.08241201203808825 0.1941378174718052
vn -0.567419572490252 -0.12632900839544733 -0.813680533374618
vn -0.7192025433865413 -0.0836590243888681 -0.6897455104780552
vn -0.8393461663970342 -0.08313902470015076 -0.5372019317970758
vn -0.9297796478175362 -0.013655998999691362 -0.36786318135363705
vn -0.9268286357366857 -0.08273101208191387 -0.3662570949734303
vn -0.9732582727485638 -0.12370802762419116 0.19355789425341074
vn -0.982749870471919 -0.015556996041826261 -0.1842842151720573
vn -0.9824640282443943 -0.02924300351579883 -0.1841447255589283
vn -0.9796004534024305 -0.08243299097894614 -0.18326962021027246
vn -0.9998944595487621 -0.013594997806515253 0.0051230653255386754
vn -0.9998660326835678 -0.015541993667151754 0.005134502748374085
vn -0.9995595737439351 -0.029212995009296177 0.0052210592248857594
vn -0.9965886306112491 -0.08234295930171423 0.005544221300745083
vn -0.7161533857441966 -0.12558600131965783 -0.686551152034328
vn -0.8357981989942398 -0.12480595682357398 -0.534663299375726
vn -0.9229073084022867 -0.12419402724469517 -0.36444196203838847
vn -0.982775744150115 -0.013607999252145245 -0.18430045867154363
vn -0.9754386127629242 -0.12374595587380871 -0.18222637332729755
vn -0.9923142703593784 -0.12360794519292906 0.005784870466692824
vn -0.9998953244986265 0.013595000421349849 0.004951364390718859
vn -0.9998670186746847 0.015542005943699384 0.00493872633820931
vn -0.9827444108274436 0.013607993011637351 -0.1844674646478771
vn -0.9827144482825197 0.01555700720133248 -0.18447301337518332
vn -0.9808689545675436 0.01360799783389953 0.19419298741336274
vn -0.9297205553457926 0.01365600159316378 -0.36801250330389407
vn -0.9995614176128552 0.02921399202960607 0.004849235968006776
vn -0.9808437740429005 0.015557004682581367 0.19417381524444963
vn -0.9296899162104714 0.015610999120585525 -0.3680121688246515
vn -0.9823977335078096 0.029240998862788296 -0.18449839344619023
vn -0.9260264220327749 0.013656004931559893 0.37721158416263695
vn -0.8419027006297393 0.01372199658725056 -0.5394548632480861
vn -0.9965939062947977 0.08234300161252302 0.0044962230278451625
vn -0.9805596250763127 0.02924299464113404 0.19403007224298974
vn -0.9260041867827303 0.015611993466030911 0.37719028582516656
vn -0.8418724684289643 0.015687004515394967 -0.5394484820542704
vn -0.9293733934160006 0.02934298523675549 -0.36797294034728045
vn -0.9794134660644463 0.08241204994072841 -0.18427565361760254
vn -0.8365040599046143 0.013723001169515501 0.5477888616994684
vn -0.7213544892168408 0.013806999160492899 -0.6924283844997206
vn -0.9923223047024322 0.12360700856417368 0.004213196395810271
vn -0.9777049654855157 0.0824330224477928 0.19312637643545288
vn -0.9257484734828465 0.0293480033939648 0.3769992818838881
vn -0.8364852134073121 0.015689002631124528 0.5477648610009264
vn -0.7213263427980104 0.01578399736418299 -0.6924154624305082
vn -0.8415701828439772 0.02948500978239062 -0.5393424344014544
vn -0.926473762455307 0.0826920217052527 -0.3671626302174631
vn -0.9751595664219711 0.1237079969300623 -0.18373935754558687
vn -0.7144282506211008 0.013808006456832604 0.6995724506240665
vn -0.5715264390578061 0.013888000866583322 -0.8204661192821029
vn -0.9735538208542344 0.12374492449099388 0.19204205675538782
vn -0.9230912406827144 0.08273197794907662 0.375576864568999
vn -0.8362649265476475 0.02949101204983842 0.5475319651258127
vn -0.714413682639311 0.015785998089413028 0.6995454898161083
vn -0.5715030157814099 0.015876997162351997 -0.8204463565120271
vn -0.7210535951113657 0.02966700661712257 -0.6922438744368593
vn -0.8388720510275962 0.08308000420513592 -0.5379511082859004
vn -0.9223780027969902 0.12412201632074284 -0.36580397075579824
vn -0.5633131853982567 0.013890001138771972 0.8261266991356921
vn -0.39742075308868374 0.015962996906770367 -0.9174976445442123
vn -0.9191887414031095 0.1241940551780649 0.3737216803132987
vn -0.8338902086869585 0.08313901430398563 0.5456326824490838
vn -0.7142325662419147 0.029676003336755317 0.699279040258927
vn -0.563302601863378 0.015880007100969262 0.8260980596202984
vn -0.3974372257553314 0.013962998378239513 -0.9175231257359102
vn -0.39726089335630177 0.030001006948938834 -0.9172151994988977
vn -0.5712789526698477 0.02984100283003113 -0.8202133093205327
vn -0.718679287910158 0.08358201013812216 -0.6903000280386921
vn -0.8350916050883808 0.12469905259245988 -0.5357911509099931
vn -0.38823710753704366 0.013965001902997175 0.9214537031523176
vn -0.20587057525847002 0.01601600106112395 -0.9784481559861804
vn -0.2057861549926396 0.030100010862614053 -0.9781339620723819
vn -0.8303686405661335 0.12480500145903296 0.5430576694745801
vn -0.7122161678645701 0.08365899156169457 0.6969571746981209
vn -0.5631646663670625 0.029851013758290804 0.8258053496637554
vn -0.38823038285312866 0.015965995389843647 0.9214240374664232
vn -0.20587826448610247 0.014010003609887826 -0.978477317065164
vn -0.395896667276141 0.08450603268001003 -0.9143984685465792
vn -0.20506978769724865 0.08478100689858818 -0.9750684914625571
vn -0.5693536750430909 0.08406201185959537 -0.8177835721491621
vn -0.7153753047209451 0.12544398414425756 -0.6873877946526471
vn -0.19604413230984313 0.01401199401704819 0.9804949577690582
vn -0.005037988039916854 0.016039008660697893 -0.9998586744523906
vn -0.005036606133298079 0.030142992082069796 -0.9995329072256692
vn -0.005019734799266538 0.08489999383604818 -0.9963768329849826
vn -0.7091996547559939 0.12558298203422558 0.6937324875752687
vn -0.5615811913285054 0.08415495246247989 0.8231309188228169
vn -0.38813788516113057 0.03001300222165275 0.9211124805366
vn -0.1960396913647173 0.016018998016223647 0.9804651095843151
vn -0.0050377158716122675 0.014030003805119713 -0.9998888840326334
vn -0.3940143180689508 0.12682001557977624 -0.9103128038235015
vn -0.20408548542100668 0.12722902250662502 -0.9706502410613624
vn -0.004996089463694074 0.12740703071216894 -0.9918379341481042
vn -0.566687642278915 0.1261579527850794 -0.8142169778612102
vn 0.005034897210230085 0.014032006724742828 0.9998888701237549
vn 0.19600999047780465 0.014010002750969166 -0.9805018120614613
vn 0.19600125816339628 0.016015993884053444 -0.9804728424277093
vn 0.19591979294789086 0.030101006383144613 -0.9801578261412688
vn 0.19523534925515276 0.08478201022911948 -0.9770850368021853
vn -0.5591945511907718 0.12632594894935742 0.8193553615743266
vn -0.38704874213554596 0.08461102034984144 0.918168963996633
vn -0.19599170572539928 0.030113010458340906 0.9801430803142899
vn 0.005035814880128051 0.016041999428471915 0.9998586374197255
vn 0.194295974620424 0.12723098563829416 -0.9726568513817233
vn 0.20591066957511786 0.014012001033994853 0.9784704696525849
vn 0.388173237870463 0.013963000777047789 -0.9214806411479631
vn 0.38815704122690037 0.01596300130362633 -0.9214549874710967
vn 0.38799996067833736 0.0300010059914263 -0.9211709776980119
vn 0.3866623032133829 0.08450702998736694 -0.918341344575336
vn -0.38539531744725497 0.12701001855787988 0.913968765590847
vn -0.19544200695063876 0.08489301581039205 0.9770340822027259
vn 0.005034549143774455 0.030157005927284923 0.9995324948736889
vn 0.20590649069044945 0.01601899268828485 0.9784405495301166
vn 0.3848206485936057 0.12682303485160867 -0.9142368326899898
vn 0.3975013723527569 0.013965005771326311 0.917495306577359
vn 0.5632302277675862 0.013887996438638849 -0.826183293273226
vn 0.5632086404607227 0.015876993841680266 -0.8261621804324715
vn 0.5629876560906126 0.029841014192837148 -0.82592639681847
vn 0.5610854029850839 0.08406300789460942 -0.8234783429215226
vn -0.1946053817138984 0.12743198744227935 0.9725686782867824
vn 0.005019748593387707 0.08501395139770812 0.996367116173455
vn 0.20585612861695832 0.030113008934862535 0.9781188378738686
vn 0.39749359441737375 0.015966001452427415 0.917466037079726
vn 0.5584541732421594 0.12616000837033814 -0.8198857168388851
vn 0.5716088840155656 0.013889998676700066 0.8204086491811509
vn 0.7143413199754296 0.013807000352499467 -0.6996612361114676
vn 0.7143141042501135 0.015784003553760747 -0.6996472151743138
vn 0.7140441215400934 0.029667001015367803 -0.6994718447119874
vn 0.7116881178932911 0.08358196206345138 -0.6975056117818184
vn 0.004997436148600529 0.12761200242022563 0.9918115760920725
vn 0.2052767969765732 0.0848939916890486 0.9750151008051815
vn 0.3973980378762257 0.030012994167125412 0.9171553955973054
vn 0.5715977781799011 0.015880001934748273 0.8203802810394414
vn 0.7084120933219626 0.12544493468221923 -0.6945616418992403
vn 0.7214428792933161 0.013808004162499577 0.6923362701303595
vn 0.8364244906016207 0.013721993024234387 -0.547910374449382
vn 0.8363946501513184 0.01568700221280072 -0.5479031914123416
vn 0.8360938421231914 0.02948400599221192 -0.5477935565104167
vn 0.8334096368146446 0.0830790169503642 -0.5463755615023822
vn 0.20439623301217338 0.12743298527722222 0.9705580941879618
vn 0.3962792879110649 0.08461302621874651 0.914222818445703
vn 0.5714568490548128 0.02985100336747713 0.8200890117946342
vn 0.7214279490690785 0.015786004557159856 0.6923095524128673
vn 0.8296514984114053 0.12469796945068451 -0.5441771840114084
vn 0.8419625532418743 0.015688996938308348 0.5393078103583273
vn 0.9259652109058172 0.013656005273567801 -0.3773618180368994
vn 0.9259342795183969 0.015610998389772344 -0.3773619042007574
vn 0.925618193163059 0.029342998777878705 -0.3773194255644349
vn 0.9227271258107447 0.08269101023392267 -0.37647954541984835
vn 0.39458408735990835 0.12701299969955088 0.9100390628482219
vn 0.5698457102334966 0.08415597333156552 0.8174311216739296
vn 0.7212426960480622 0.029674998619192813 0.6920465070024364
vn 0.841981692554867 0.013723004106712632 0.5393315386297451
vn 0.8417396651556771 0.0294909992677681 0.5390775612709149
vn 0.9186458441504423 0.12412096174058819 -0.3750783916486167
vn 0.9297573775856838 0.015613001272350442 0.36784161403552734
vn 0.9295000112136088 0.029348006231917797 0.3676525855806162
vn 0.980835985753859 0.013607998330543608 -0.1943594387512257
vn 0.9808056721996834 0.015557003965830804 -0.19436618278017026
vn 0.9804881777903974 0.029240999188021276 -0.1943910933652874
vn 0.9775064030987819 0.08241201203808825 -0.1941378174718052
vn 0.567419572490252 0.12632900839544733 0.813680533374618
vn 0.7192025433865413 0.0836590243888681 0.6897455104780552
vn 0.8393461663970342 0.08313902470015076 0.5372019317970758
vn 0.9297796478175362 0.013655998999691362 0.36786318135363705
vn 0.9268286357366857 0.08273101208191387 0.3662570949734303
vn 0.9732582727485638 0.12370802762419116 -0.19355789425341074
vn 0.982749870471919 0.015556996041826261 0.1842842151720573
vn 0.9824640282443943 0.02924300351579883 0.1841447255589283
vn 0.9796004534024305 0.08243299097894614 0.18326962021027246
vn 0.9998944595487621 0.013594997806515253 -0.0051230653255386754
vn 0.9998660326835678 0.015541993667151754 -0.005134502748374085
vn 0.9995595737439351 0.029212995009296177 -0.0052210592248857594
vn 0.9965886306112491 0.08234295930171423 -0.005544221300745083
vn 0.7161533857441966 0.12558600131965783 0.686551152034328
vn 0.8357981989942398 0.12480595682357398 0.534663299375726
vn 0.9229073084022867 0.12419402724469517 0.36444196203838847
vn 0.982775744150115 0.013607999252145245 0.18430045867154363
vn 0.9754386127629242 0.12374595587380871 0.18222637332729755
vn 0.9923142703593784 0.12360794519292906 -0.005784870466692824
usemtl material_0_0
f 1//1 2//2 3//3
f 2//2 1//1 4//4
f 2//2 5//5 3//3
f 6//6 4//4 1//1
f 4//4 7//7 2//2
f 5//5 2//2 8//8
f 4//4 6//6 9//9
f 7//7 4//4 10//10
f 7//7 8//8 2//2
f 8//8 11//11 5//5
f 12//12 9//9 6//6
f 9//9 10//10 4//4
f 10//10 13//13 7//7
f 8//8 7//7 14//14
f 11//11 8//8 15//15
f 9//9 12//12 16//16
f 10//10 9//9 17//17
f 13//13 10//10 18//18
f 13//13 14//14 7//7
f 14//14 15//15 8//8
f 15//15 19//19 11//11
f 20//20 16//16 12//12
f 16//16 17//17 9//9
f 17//17 18//18 10//10
f 18//18 21//21 13//13
f 14//14 13//13 22//22
f 15//15 14//14 23//23
f 19//19 15//15 24//24
f 16//16 20//20 25//25
f 17//17 16//16 26//26
f 18//18 17//17 27//27
f 21//21 18//18 28//28
f 21//21 22//22 13//13
f 22//22 23//23 14//14
f 23//23 24//24 15//15
f 24//24 29//29 19//19
f 30//30 25//25 20//20
f 25//25 26//26 16//16
f 26//26 27//27 17//17
f 27//27 28//28 18//18
f 22//22 21//21 31//31
f 23//23 22//22 32//32
f 24//24 23//23 33//33
f 29//29 24//24 34//34
f 25//25 30//30 35//35
f 26//26 25//25 36//36
f 27//27 26//26 37//37
f 28//28 27//27 38//38
f 31//31 32//32 22//22
f 32//32 33//33 23//23
f 33//33 34//34 24//24
f 34//34 39//39 29//29
f 30//30 40//40 35//35
f 35//35 36//36 25//25
f 36//36 37//37 26//26
f 37//37 38//38 27//27
f 32//32 31//31 41//41
f 33//33 32//32 42//42
f 34//34 33//33 43//43
f 39//39 34//34 44//44
f 40//40 30//30 45//45
f 46//46 35//35 40//40
f 36//36 35//35 47//47
f 37//37 36//36 48//48
f 38//38 37//37 49//49
f 41//41 42//42 32//32
f 42//42 43//43 33//33
f 43//43 44//44 34//34
f 44//44 50//50 39//39
f 45//45 51//51 40//40
f 35//35 46//46 47//47
f 40//40 52//52 46//46
f 47//47 48//48 36//36
f 48//48 49//49 37//37
f 42//42 41//41 53//53
f 43//43 42//42 54//54
f 44//44 43//43 55//55
f 50//50 44//44 56//56
f 51//51 45//45 57//57
f 52//52 40//40 51//51
f 58//58 47//47 46//46
f 59//59 46//46 52//52
f 48//48 47//47 60//60
f 49//49 48//48 61//61
f 53//53 54//54 42//42
f 54//54 55//55 43//43
f 55//55 56//56 44//44
f 56//56 62//62 50//50
f 57//57 63//63 51//51
f 51//51 64//64 52//52
f 47//47 58//58 60//60
f 46//46 59//59 58//58
f 52//52 65//65 59//59
f 60//60 61//61 48//48
f 54//54 53//53 66//66
f 55//55 54//54 67//67
f 56//56 55//55 68//68
f 62//62 56//56 69//69
f 63//63 57//57 70//70
f 64//64 51//51 63//63
f 65//65 52//52 64//64
f 71//71 60//60 58//58
f 72//72 58//58 59//59
f 73//73 59//59 65//65
f 61//61 60//60 74//74
f 66//66 67//67 54//54
f 67//67 68//68 55//55
f 68//68 69//69 56//56
f 69//69 75//75 62//62
f 76//76 63//63 70//70
f 77//77 64//64 63//63
f 78//78 65//65 64//64
f 60//60 71//71 74//74
f 58//58 72//72 71//71
f 59//59 73//73 72//72
f 79//79 73//73 65//65
f 67//67 66//66 80//80
f 68//68 67//67 81//81
f 69//69 68//68 82//82
f 75//75 69//69 83//83
f 63//63 76//76 77//77
f 64//64 77//77 78//78
f 65//65 78//78 79//79
f 73//73 79//79 84//84
f 80//80 81//81 67//67
f 81//81 82//82 68//68
f 82//82 83//83 69//69
f 83//83 85//85 75//75
f 86//86 77//77 76//76
f 87//87 78//78 77//77
f 88//88 79//79 78//78
f 89//89 84//84 79//79
f 81//81 80//80 90//90
f 82//82 81//81 91//91
f 83//83 82//82 92//92
f 85//85 83//83 93//93
f 77//77 86//86 87//87
f 78//78 87//87 88//88
f 79//79 88//88 89//89
f 84//84 89//89 94//94
f 90//90 91//91 81//81
f 91//91 92//92 82//82
f 92//92 93//93 83//83
f 93//93 95//95 85//85
f 96//96 87//87 86//86
f 97//97 88//88 87//87
f 98//98 89//89 88//88
f 99//99 94//94 89//89
f 91//91 90//90 100//100
f 92//92 91//91 101//101
f 93//93 92//92 102//102
f 95//95 93//93 103//103
f 87//87 96//96 97//97
f 88//88 97//97 98//98
f 89//89 98//98 99//99
f 94//94 99//99 104//104
f 100//100 101//101 91//91
f 101//101 102//102 92//92
f 102//102 103//103 93//93
f 103//103 105//105 95//95
f 106//106 97//97 96//96
f 107//107 98//98 97//97
f 108//108 99//99 98//98
f 109//109 104//104 99//99
f 101//101 100//100 110//110
f 102//102 101//101 111//111
f 103//103 102//102 112//112
f 105//105 103//103 113//113
f 97//97 106//106 107//107
f 98//98 107//107 108//108
f 99//99 108//108 109//109
f 104//104 109//109 114//114
f 110//110 111//111 101//101
f 111//111 112//112 102//102
f 112//112 113//113 103//103
f 113//113 115//115 105//105
f 116//116 107//107 106//106
f 117//117 108//108 107//107
f 118//118 109//109 108//108
f 119//119 114//114 109//109
f 111//111 110//110 120//120
f 112//112 111//111 121//121
f 113//113 112//112 122//122
f 115//115 113//113 123//123
f 107//107 116//116 117//117
f 108//108 117//117 118//118
f 109//109 118//118 119//119
f 114//114 119//119 124//124
f 120//120 121//121 111//111
f 121//121 122//122 112//112
f 122//122 123//123 113//113
f 125//125 115//115 123//123
f 126//126 117//117 116//116
f 127//127 118//118 117//117
f 128//128 119//119 118//118
f 129//129 124//124 119//119
f 121//121 120//120 130//130
f 122//122 121//121 131//131
f 123//123 122//122 132//132
f 115//115 125//125 133//133
f 123//123 134//134 125//125
f 117//117 126//126 127//127
f 118//118 127//127 128//128
f 119//119 128//128 129//129
f 124//124 129//129 135//135
f 130//130 131//131 121//121
f 131//131 132//132 122//122
f 134//134 123//123 132//132
f 136//136 133//133 125//125
f 137//137 125//125 134//134
f 138//138 127//127 126//126
f 139//139 128//128 127//127
f 140//140 129//129 128//128
f 141//141 135//135 129//129
f 131//131 130//130 142//142
f 132//132 131//131 143//143
f 132//132 144//144 134//134
f 133//133 136//136 145//145
f 125//125 137//137 136//136
f 134//134 146//146 137//137
f 127//127 138//138 139//139
f 128//128 139//139 140//140
f 129//129 140//140 141//141
f 135//135 141//141 147//147
f 142//142 143//143 131//131
f 144//144 132//132 143//143
f 146//146 134//134 144//144
f 148//148 145//145 136//136
f 149//149 136//136 137//137
f 150//150 137//137 146//146
f 151//151 139//139 138//138
f 152//152 140//140 139//139
f 153//153 141//141 140//140
f 154//154 147//147 141//141
f 143//143 142//142 155//155
f 143//143 156//156 144//144
f 144//144 157//157 146//146
f 145//145 148//148 158//158
f 136//136 149//149 148//148
f 137//137 150//150 149//149
f 146//146 159//159 150//150
f 139//139 151//151 152//152
f 140//140 152//152 153//153
f 141//141 153//153 154//154
f 147//147 154//154 160//160
f 156//156 143//143 155//155
f 157//157 144//144 156//156
f 159//159 146//146 157//157
f 152//152 158//158 148//148
f 153//153 148//148 149//149
f 154//154 149//149 150//150
f 160//160 150//150 159//159
f 158//158 152//152 151//151
f 148//148 153//153 152//152
f 149//149 154//154 153//153
f 150//150 160//160 154//154
usemtl material_1_0
f 3//161 2//162 1//163
f 4//164 1//163 2//162
f 3//161 5//165 2//162
f 1//163 4//164 6//166
f 2//162 7//167 4//164
f 8//168 2//162 5//165
f 9//169 6//166 4//164
f 10//170 4//164 7//167
f 2//162 8//168 7//167
f 5//165 11//171 8//168
f 6//166 9//169 12//172
f 4//164 10//170 9//169
f 7//167 13//173 10//170
f 14//174 7//167 8//168
f 15//175 8//168 11//171
f 16//176 12//172 9//169
f 17//177 9//169 10//170
f 18//178 10//170 13//173
f 7//167 14//174 13//173
f 8//168 15//175 14//174
f 11//171 19//179 15//175
f 12//172 16//176 20//180
f 9//169 17//177 16//176
f 10//170 18//178 17//177
f 13//173 21//181 18//178
f 22//182 13//173 14//174
f 23//183 14//174 15//175
f 24//184 15//175 19//179
f 25//185 20//180 16//176
f 26//186 16//176 17//177
f 27//187 17//177 18//178
f 28//188 18//178 21//181
f 13//173 22//182 21//181
f 14//174 23//183 22//182
f 15//175 24//184 23//183
f 19//179 29//189 24//184
f 20//180 25//185 30//190
f 16//176 26//186 25//185
f 17//177 27//187 26//186
f 18//178 28//188 27//187
f 31//191 21//181 22//182
f 32//192 22//182 23//183
f 33//193 23//183 24//184
f 34//194 24//184 29//189
f 35//195 30//190 25//185
f 36//196 25//185 26//186
f 37//197 26//186 27//187
f 38//198 27//187 28//188
f 22//182 32//192 31//191
f 23//183 33//193 32//192
f 24//184 34//194 33//193
f 29//189 39//199 34//194
f 35//195 40//200 30//190
f 25//185 36//196 35//195
f 26//186 37//197 36//196
f 27//187 38//198 37//197
f 41//201 31//191 32//192
f 42//202 32//192 33//193
f 43//203 33//193 34//194
f 44//204 34//194 39//199
f 45//205 30//190 40//200
f 40//200 35//195 46//206
f 47//207 35//195 36//196
f 48//208 36//196 37//197
f 49//209 37//197 38//198
f 32//192 42//202 41//201
f 33//193 43//203 42//202
f 34//194 44//204 43//203
f 39//199 50//210 44//204
f 40//200 51//211 45//205
f 47//207 46//206 35//195
f 46//206 52//212 40//200
f 36//196 48//208 47//207
f 37//197 49//209 48//208
f 53//213 41//201 42//202
f 54//214 42//202 43//203
f 55//215 43//203 44//204
f 56//216 44//204 50//210
f 57//217 45//205 51//211
f 51//211 40//200 52//212
f 46//206 47//207 58//218
f 52//212 46//206 59//219
f 60//220 47//207 48//208
f 61//221 48//208 49//209
f 42//202 54//214 53//213
f 43//203 55//215 54//214
f 44//204 56//216 55//215
f 50//210 62//222 56//216
f 51//211 63//223 57//217
f 52//212 64//224 51//211
f 60//220 58//218 47//207
f 58//218 59//219 46//206
f 59//219 65//225 52//212
f 48//208 61//221 60//220
f 66//226 53//213 54//214
f 67//227 54//214 55//215
f 68//228 55//215 56//216
f 69//229 56//216 62//222
f 70//230 57//217 63//223
f 63//223 51//211 64//224
f 64//224 52//212 65//225
f 58//218 60//220 71//231
f 59//219 58//218 72//232
f 65//225 59//219 73//233
f 74//234 60//220 61//221
f 54//214 67//227 66//226
f 55//215 68//228 67//227
f 56//216 69//229 68//228
f 62//222 75//235 69//229
f 70//230 63//223 76//236
f 63//223 64//224 77//237
f 64//224 65//225 78//238
f 74//234 71//231 60//220
f 71//231 72//232 58//218
f 72//232 73//233 59//219
f 65//225 73//233 79//239
f 80//240 66//226 67//227
f 81//241 67//227 68//228
f 82//242 68//228 69//229
f 83//243 69//229 75//235
f 77//237 76//236 63//223
f 78//238 77//237 64//224
f 79//239 78//238 65//225
f 84//244 79//239 73//233
f 67//227 81//241 80//240
f 68//228 82//242 81//241
f 69//229 83//243 82//242
f 75//235 85//245 83//243
f 76//236 77//237 86//246
f 77//237 78//238 87//247
f 78//238 79//239 88//248
f 79//239 84//244 89//249
f 90//250 80//240 81//241
f 91//251 81//241 82//242
f 92//252 82//242 83//243
f 93//253 83//243 85//245
f 87//247 86//246 77//237
f 88//248 87//247 78//238
f 89//249 88//248 79//239
f 94//254 89//249 84//244
f 81//241 91//251 90//250
f 82//242 92//252 91//251
f 83//243 93//253 92//252
f 85//245 95//255 93//253
f 86//246 87//247 96//256
f 87//247 88//248 97//257
f 88//248 89//249 98//258
f 89//249 94//254 99//259
f 100//260 90//250 91//251
f 101//261 91//251 92//252
f 102//262 92//252 93//253
f 103//263 93//253 95//255
f 97//257 96//256 87//247
f 98//258 97//257 88//248
f 99//259 98//258 89//249
f 104//264 99//259 94//254
f 91//251 101//261 100//260
f 92//252 102//262 101//261
f 93//253 103//263 102//262
f 95//255 105//265 103//263
f 96//256 97//257 106//266
f 97//257 98//258 107//267
f 98//258 99//259 108//268
f 99//259 104//264 109//269
f 110//270 100//260 101//261
f 111//271 101//261 102//262
f 112//272 102//262 103//263
f 113//273 103//263 105//265
f 107//267 106//266 97//257
f 108//268 107//267 98//258
f 109//269 108//268 99//259
f 114//274 109//269 104//264
f 101//261 111//271 110//270
f 102//262 112//272 111//271
f 103//263 113//273 112//272
f 105//265 115//275 113//273
f 106//266 107//267 116//276
f 107//267 108//268 117//277
f 108//268 109//269 118//278
f 109//269 114//274 119//279
f 120//280 110//270 111//271
f 121//281 111//271 112//272
f 122//282 112//272 113//273
f 123//283 113//273 115//275
f 117//277 116//276 107//267
f 118//278 117//277 108//268
f 119//279 118//278 109//269
f 124//284 119//279 114//274
f 111//271 121//281 120//280
f 112//272 122//282 121//281
f 113//273 123//283 122//282
f 123//283 115//275 125//285
f 116//276 117//277 126//286
f 117//277 118//278 127//287
f 118//278 119//279 128//288
f 119//279 124//284 129//289
f 130//290 120//280 121//281
f 131//291 121//281 122//282
f 132//292 122//282 123//283
f 133//293 125//285 115//275
f 125//285 134//294 123//283
f 127//287 126//286 117//277
f 128//288 127//287 118//278
f 129//289 128//288 119//279
f 135//295 129//289 124//284
f 121//281 131//291 130//290
f 122//282 132//292 131//291
f 132//292 123//283 134//294
f 125//285 133//293 136//296
f 134//294 125//285 137//297
f 126//286 127//287 138//298
f 127//287 128//288 139//299
f 128//288 129//289 140//300
f 129//289 135//295 141//301
f 142//302 130//290 131//291
f 143//303 131//291 132//292
f 134//294 144//304 132//292
f 145//305 136//296 133//293
f 136//296 137//297 125//285
f 137//297 146//306 134//294
f 139//299 138//298 127//287
f 140//300 139//299 128//288
f 141//301 140//300 129//289
f 147//307 141//301 135//295
f 131//291 143//303 142//302
f 143//303 132//292 144//304
f 144//304 134//294 146//306
f 136//296 145//305 148//308
f 137//297 136//296 149//309
f 146//306 137//297 150//310
f 138//298 139//299 151//311
f 139//299 140//300 152//312
f 140//300 141//301 153//313
f 141//301 147//307 154//314
f 155//315 142//302 143//303
f 144//304 156//316 143//303
f 146//306 157//317 144//304
f 158//318 148//308 145//305
f 148//308 149//309 136//296
f 149//309 150//310 137//297
f 150//310 159//319 146//306
f 152//312 151//311 139//299
f 153//313 152//312 140//300
f 154//314 153//313 141//301
f 160//320 154//314 147//307
f 155//315 143//303 156//316
f 156//316 144//304 157//317
f 157//317 146//306 159//319
f 148//308 158//318 152//312
f 149//309 148//308 153//313
f 150//310 149//309 154//314
f 159//319 150//310 160//320
f 151//311 152//312 158//318
f 152//312 153//313 148//308
f 153//313 154//314 149//309
f 154//314 160//320 150//310
