# SSTK version 0.8.0
# 29
mtllib original-29.mtl
o mesh22/mesh22-geometry#mesh22-geometry
v 0.014770 0.549746 0.362803
v 0.013529 0.551342 0.360967
v 0.014761 0.549704 0.360999
v 0.013538 0.551384 0.362771
v 0.013988 0.552105 0.360947
v 0.015972 0.548136 0.362834
v 0.013997 0.552147 0.362751
v 0.014911 0.552652 0.360930
v 0.015963 0.548095 0.361030
v 0.014921 0.552694 0.362734
v 0.017118 0.546577 0.362865
v 0.016034 0.552799 0.362726
v 0.016025 0.552757 0.360922
v 0.017109 0.546535 0.361060
v 0.018183 0.545089 0.362894
v 0.017269 0.551158 0.362758
v 0.017260 0.551116 0.360954
v 0.018174 0.545048 0.361090
v 0.019139 0.543699 0.362921
v 0.018479 0.549536 0.362789
v 0.018470 0.549495 0.360985
v 0.019130 0.543657 0.361117
v 0.019960 0.542434 0.362946
v 0.019641 0.547956 0.362820
v 0.019632 0.547914 0.361016
v 0.019951 0.542392 0.361142
v 0.020590 0.541376 0.362968
v 0.020728 0.546436 0.362850
v 0.020581 0.541335 0.361163
v 0.020719 0.546394 0.361046
v 0.021136 0.540194 0.362992
v 0.021718 0.544998 0.362878
v 0.021127 0.540152 0.361188
v 0.021409 0.539137 0.363015
v 0.021709 0.544956 0.361074
v 0.021400 0.539095 0.361211
v 0.022585 0.543661 0.362905
v 0.021454 0.538198 0.363037
v 0.022576 0.543619 0.361100
v 0.022551 0.534326 0.363121
v 0.021445 0.538156 0.361233
v 0.023305 0.542446 0.362929
v 0.022541 0.534284 0.361317
v 0.021181 0.533422 0.363149
v 0.023296 0.542404 0.361125
v 0.023537 0.535418 0.363091
v 0.021172 0.533381 0.361345
v 0.021301 0.537403 0.363056
v 0.023986 0.540953 0.362960
v 0.023528 0.535376 0.361287
v 0.021292 0.537361 0.361252
v 0.020975 0.536742 0.363073
v 0.023977 0.540911 0.361156
v 0.024158 0.536663 0.363059
v 0.024149 0.536622 0.361255
v 0.015956 0.530766 0.363237
v 0.020966 0.536700 0.361269
v 0.024366 0.539467 0.362993
v 0.015946 0.530724 0.361432
v 0.020459 0.536170 0.363089
v 0.024357 0.539426 0.361189
v 0.024428 0.538025 0.363026
v 0.024419 0.537984 0.361222
v 0.014512 0.529871 0.363265
v 0.020450 0.536128 0.361285
v 0.019523 0.535574 0.363107
v 0.014503 0.529829 0.361460
v 0.014335 0.532938 0.363194
v 0.019514 0.535532 0.361303
v 0.013366 0.528835 0.363294
v 0.014326 0.532896 0.361390
v 0.013357 0.528793 0.361490
v 0.012562 0.531829 0.363229
v 0.012528 0.527705 0.363325
v 0.012553 0.531788 0.361425
v 0.012519 0.527663 0.361521
v 0.011027 0.530440 0.363269
v 0.012006 0.526529 0.363355
v 0.011018 0.530398 0.361465
v 0.011997 0.526487 0.361550
v 0.011810 0.525353 0.363383
v 0.011801 0.525311 0.361579
v 0.009870 0.528877 0.363311
v 0.009783 0.522008 0.363470
v 0.009774 0.521966 0.361666
v 0.009861 0.528836 0.361507
v 0.011949 0.524226 0.363408
v 0.011939 0.524185 0.361604
v 0.009122 0.527184 0.363354
v 0.012431 0.523196 0.363430
v 0.012422 0.523154 0.361625
v 0.009113 0.527142 0.361550
v 0.009057 0.523595 0.363437
v 0.012747 0.517949 0.363550
v 0.012738 0.517907 0.361745
v 0.009048 0.523554 0.361633
v 0.008829 0.525402 0.363397
v 0.013959 0.518021 0.363542
v 0.013950 0.517980 0.361738
v 0.015261 0.519340 0.363505
v 0.008820 0.525360 0.361593
v 0.014861 0.518570 0.363524
v 0.014852 0.518528 0.361720
v 0.015252 0.519298 0.361700
vn -0.8002479241185024 -0.5994018283481242 0.017908325353124317
vn -0.7991567201946275 -0.6008550854316851 0.017936077571424975
vn -0.005036818212074148 -0.023146991979557312 -0.9997193842396959
vn -0.8036229698961972 -0.5948718925917253 0.017820035341004733
vn -0.8571257762449798 0.5150512337686741 -0.007591461638404797
vn -0.7049185589123317 0.7091720141859225 -0.012840545021280382
vn -0.3095568904804241 0.9506616320303253 -0.02042040502853087
vn -0.8095494003307306 -0.5867861754018564 0.017656522347740036
vn -0.0943639066837271 0.9952824239361598 -0.022546612143441253
vn -0.8185343121876436 -0.574194003501148 0.0174018997475832
vn 0.8002579074226468 0.5993880557808532 -0.01792317479620061
vn 0.7991627448926827 0.6008467911399837 -0.017945493929615874
vn -0.8314568158792426 -0.5553280263042233 0.017039557770301614
vn 0.8036285263273616 0.5948638891697294 -0.017836620609775727
vn -0.8491768115484215 -0.5278508799250233 0.016498220838475217
vn 0.8095557881503884 0.5867769940365855 -0.0176687617447491
vn -0.8848253338062477 -0.465673974459413 0.01522754628416823
vn 0.81856633339652 0.5741480853950606 -0.01741073998896721
vn -0.9419122860677044 -0.33562602996989543 0.012506532747240912
vn 0.8315236936399033 0.5552281512216822 -0.017030766465575407
vn -0.9887034089518665 -0.149647034872926 0.00844595055037661
vn 0.8498612883357908 0.5267491548932456 -0.01646567361153829
vn -0.9974528397959218 0.07124900284301339 0.0033781617674996864
vn 0.8863940119858842 0.4626829407687216 -0.015170755985633793
vn -0.9480059647521729 0.3182420927258938 -0.002580932340373836
vn 0.5028500631273688 -0.8641971770420444 0.01746577239525177
vn 0.6516796648881621 -0.7583599884588985 0.014273831856661832
vn 0.9430620497042937 0.33238408082966914 -0.01244159228362234
vn 0.8263008076219704 -0.5631591319411604 0.008875101946355895
vn 0.9463155422958831 -0.3232328853793765 0.0027195989725601268
vn 0.4906102287612617 -0.87119958893025 0.017688405314957915
vn -0.8275792192517656 0.561279786495945 -0.00881119365945105
vn 0.9892121416544642 0.1462509308840201 -0.008366840439825423
vn 0.9970785312062515 -0.07631402059349386 -0.0032515947533581268
vn 0.6013719567096626 -0.7988196763303148 0.015456208808196028
vn -0.6456679640672031 0.763482038806266 -0.014424167135069244
vn -0.49591294756090126 0.8681935196685951 -0.01761706124514794
vn 0.7406382373282734 -0.6718001963692414 0.01181090875068483
vn -0.4923075470095697 0.8702416998797966 -0.017682277787164684
vn 0.8639014333740079 -0.5036078947409247 0.007307651397559012
vn -0.6032453462817331 0.797406183543388 -0.015441199312247467
vn 0.9578215591176045 -0.28735778949426055 0.0018334957032457024
vn -0.7410752518274106 0.6713177428366831 -0.011830438774654046
vn 0.9997566100579474 -0.021590998173887425 -0.004533149379481557
vn -0.8645283726155881 0.5025310760945175 -0.007294552894393684
vn 0.9609847266450726 0.27637304330848833 -0.011238153197898934
vn -0.9584255860814879 0.28533701826998714 -0.0017838018806926369
vn 0.8600028530022027 0.5100340743068696 -0.01613492714597995
vn -0.999814342679223 0.018708996413055422 0.004610165520829902
vn -0.9618498416741735 -0.2733491290280631 0.01118640831396123
vn -0.8629980719002135 -0.5049522589229213 0.016048180742781568
vn -0.807618305365772 -0.5894391862787272 0.017723388987168257
vn 0.8062418574081311 0.5913200724198606 -0.017738075331256414
vn 0.05957256121355219 -0.9979630365084825 0.022822964602061506
vn 0.29852780432209963 -0.9541788694902855 0.020587254913334546
vn 0.7307431541403517 -0.6825451789357262 0.012104601959907457
vn 0.8876065328783569 -0.4605610449355616 0.0061779187050282364
vn 0.8002479241185024 0.5994018283481242 -0.017908325353124317
vn 0.7991567201946275 0.6008550854316851 -0.017936077571424975
vn 0.005036818212074148 0.023146991979557312 0.9997193842396959
vn 0.8036229698961972 0.5948718925917253 -0.017820035341004733
vn 0.8571257762449798 -0.5150512337686741 0.007591461638404797
vn 0.7049185589123317 -0.7091720141859225 0.012840545021280382
vn 0.3095568904804241 -0.9506616320303253 0.02042040502853087
vn 0.8095494003307306 0.5867861754018564 -0.017656522347740036
vn 0.0943639066837271 -0.9952824239361598 0.022546612143441253
vn 0.8185343121876436 0.574194003501148 -0.0174018997475832
vn -0.7991627448926827 -0.6008467911399837 0.017945493929615874
vn -0.8002579074226468 -0.5993880557808532 0.01792317479620061
vn 0.8314568158792426 0.5553280263042233 -0.017039557770301614
vn -0.8036285263273616 -0.5948638891697294 0.017836620609775727
vn 0.8491768115484215 0.5278508799250233 -0.016498220838475217
vn -0.8095557881503884 -0.5867769940365855 0.0176687617447491
vn 0.8848253338062477 0.465673974459413 -0.01522754628416823
vn -0.81856633339652 -0.5741480853950606 0.01741073998896721
vn 0.9419122860677044 0.33562602996989543 -0.012506532747240912
vn -0.8315236936399033 -0.5552281512216822 0.017030766465575407
vn 0.9887034089518665 0.149647034872926 -0.00844595055037661
vn -0.8498612883357908 -0.5267491548932456 0.01646567361153829
vn 0.9974528397959218 -0.07124900284301339 -0.0033781617674996864
vn -0.8863940119858842 -0.4626829407687216 0.015170755985633793
vn 0.9480059647521729 -0.3182420927258938 0.002580932340373836
vn -0.6516796648881621 0.7583599884588985 -0.014273831856661832
vn -0.5028500631273688 0.8641971770420444 -0.01746577239525177
vn -0.9430620497042937 -0.33238408082966914 0.01244159228362234
vn -0.8263008076219704 0.5631591319411604 -0.008875101946355895
vn -0.9463155422958831 0.3232328853793765 -0.0027195989725601268
vn -0.4906102287612617 0.87119958893025 -0.017688405314957915
vn 0.8275792192517656 -0.561279786495945 0.00881119365945105
vn -0.9892121416544642 -0.1462509308840201 0.008366840439825423
vn -0.9970785312062515 0.07631402059349386 0.0032515947533581268
vn -0.6013719567096626 0.7988196763303148 -0.015456208808196028
vn 0.6456679640672031 -0.763482038806266 0.014424167135069244
vn 0.49591294756090126 -0.8681935196685951 0.01761706124514794
vn -0.7406382373282734 0.6718001963692414 -0.01181090875068483
vn 0.4923075470095697 -0.8702416998797966 0.017682277787164684
vn -0.8639014333740079 0.5036078947409247 -0.007307651397559012
vn 0.6032453462817331 -0.797406183543388 0.015441199312247467
vn -0.9578215591176045 0.28735778949426055 -0.0018334957032457024
vn 0.7410752518274106 -0.6713177428366831 0.011830438774654046
vn -0.9997566100579474 0.021590998173887425 0.004533149379481557
vn 0.8645283726155881 -0.5025310760945175 0.007294552894393684
vn -0.9609847266450726 -0.27637304330848833 0.011238153197898934
vn 0.9584255860814879 -0.28533701826998714 0.0017838018806926369
vn -0.8600028530022027 -0.5100340743068696 0.01613492714597995
vn 0.999814342679223 -0.018708996413055422 -0.004610165520829902
vn 0.9618498416741735 0.2733491290280631 -0.01118640831396123
vn 0.8629980719002135 0.5049522589229213 -0.016048180742781568
vn 0.807618305365772 0.5894391862787272 -0.017723388987168257
vn -0.8062418574081311 -0.5913200724198606 0.017738075331256414
vn -0.29852780432209963 0.9541788694902855 -0.020587254913334546
vn -0.05957256121355219 0.9979630365084825 -0.022822964602061506
vn -0.7307431541403517 0.6825451789357262 -0.012104601959907457
vn -0.8876065328783569 0.4605610449355616 -0.0061779187050282364
usemtl material_0_0
f 1//1 2//2 3//1
f 2//2 1//1 4//2
f 5//3 3//3 2//3
f 3//1 6//4 1//1
f 4//5 5//6 2//5
f 8//3 3//3 5//3
f 6//4 3//1 9//4
f 5//6 4//5 7//6
f 8//3 9//3 3//3
f 7//6 8//7 5//6
f 9//4 11//8 6//4
f 8//7 7//6 10//7
f 13//3 9//3 8//3
f 11//8 9//4 14//8
f 13//9 10//7 12//9
f 10//7 13//9 8//7
f 13//3 14//3 9//3
f 14//8 15//10 11//8
f 16//11 13//12 12//12
f 17//3 14//3 13//3
f 15//10 14//8 18//10
f 13//12 16//11 17//11
f 17//3 18//3 14//3
f 18//10 19//13 15//10
f 20//14 17//11 16//11
f 21//3 18//3 17//3
f 19//13 18//10 22//13
f 17//11 20//14 21//14
f 21//3 22//3 18//3
f 22//13 23//15 19//13
f 24//16 21//14 20//14
f 25//3 22//3 21//3
f 23//15 22//13 26//15
f 21//14 24//16 25//16
f 25//3 26//3 22//3
f 26//15 27//17 23//15
f 28//18 25//16 24//16
f 25//3 29//3 26//3
f 27//17 26//15 29//17
f 25//16 28//18 30//18
f 30//3 29//3 25//3
f 29//17 31//19 27//17
f 32//20 30//18 28//18
f 30//3 33//3 29//3
f 31//19 29//17 33//19
f 30//18 32//20 35//20
f 30//3 36//3 33//3
f 33//19 34//21 31//19
f 37//22 35//20 32//20
f 35//3 36//3 30//3
f 34//21 33//19 36//21
f 35//20 37//22 39//22
f 36//3 35//3 41//3
f 36//21 38//23 34//21
f 42//24 39//22 37//22
f 39//3 43//3 35//3
f 35//3 43//3 41//3
f 38//23 36//21 41//23
f 39//22 42//24 45//24
f 45//3 43//3 39//3
f 41//3 43//3 47//3
f 41//23 48//25 38//23
f 44//26 43//27 40//27
f 49//28 45//24 42//24
f 45//3 50//3 43//3
f 40//27 50//29 46//29
f 43//27 44//26 47//26
f 41//3 47//3 51//3
f 48//25 41//23 51//25
f 50//29 40//27 43//27
f 45//24 49//28 53//28
f 53//3 50//3 45//3
f 55//30 46//29 50//29
f 56//31 47//26 44//26
f 51//3 47//3 57//3
f 51//25 52//32 48//25
f 58//33 53//28 49//28
f 53//3 55//3 50//3
f 46//29 55//30 54//30
f 47//26 56//31 59//31
f 57//3 47//3 59//3
f 52//32 51//25 57//32
f 53//28 58//33 61//33
f 61//3 55//3 53//3
f 63//34 54//30 55//30
f 64//35 59//31 56//31
f 57//3 59//3 65//3
f 57//32 60//36 52//32
f 62//34 61//33 58//33
f 55//3 61//3 63//3
f 54//30 63//34 62//34
f 59//31 64//35 67//35
f 65//3 59//3 69//3
f 60//36 57//32 65//36
f 65//36 66//37 60//36
f 61//33 62//34 63//34
f 70//38 67//35 64//35
f 71//3 59//3 67//3
f 69//3 59//3 71//3
f 66//37 65//36 69//37
f 69//37 68//39 66//37
f 67//35 70//38 72//38
f 71//3 67//3 72//3
f 68//39 69//37 71//39
f 74//40 72//38 70//38
f 71//3 72//3 75//3
f 71//39 73//41 68//39
f 72//38 74//40 76//40
f 75//3 72//3 76//3
f 73//41 71//39 75//41
f 78//42 76//40 74//40
f 75//3 76//3 79//3
f 75//41 77//43 73//41
f 76//40 78//42 80//42
f 79//3 76//3 80//3
f 77//43 75//41 79//43
f 81//44 80//42 78//42
f 79//3 80//3 82//3
f 79//43 83//45 77//43
f 80//42 81//44 82//44
f 82//3 85//3 79//3
f 83//45 79//43 86//45
f 87//46 82//44 81//44
f 88//3 85//3 82//3
f 79//3 85//3 86//3
f 86//45 89//47 83//45
f 82//44 87//46 88//46
f 91//3 85//3 88//3
f 86//3 85//3 92//3
f 89//47 86//45 92//47
f 90//48 88//46 87//46
f 91//3 95//3 85//3
f 88//46 90//48 91//48
f 92//3 85//3 96//3
f 92//47 97//49 89//47
f 96//50 84//51 93//50
f 85//51 94//52 84//51
f 91//3 99//3 95//3
f 94//52 85//51 95//52
f 100//53 91//48 90//48
f 84//51 96//50 85//51
f 92//3 96//3 101//3
f 97//49 92//47 101//49
f 101//49 93//50 97//49
f 93//50 101//49 96//50
f 94//54 99//55 98//55
f 91//3 103//3 99//3
f 99//55 94//54 95//54
f 91//48 100//53 104//53
f 98//55 103//56 102//56
f 103//56 98//55 99//55
f 103//3 91//3 104//3
f 102//56 104//57 100//57
f 104//57 102//56 103//56
usemtl material_1_0
f 3//58 2//59 1//58
f 4//59 1//58 2//59
f 2//60 3//60 5//60
f 1//58 6//61 3//58
f 4//3 7//3 1//3
f 2//62 5//63 4//62
f 5//60 3//60 8//60
f 9//61 3//58 6//61
f 1//3 10//3 6//3
f 7//3 10//3 1//3
f 7//63 4//62 5//63
f 3//60 9//60 8//60
f 5//63 8//64 7//63
f 6//61 11//65 9//61
f 10//3 12//3 6//3
f 10//64 7//63 8//64
f 8//60 9//60 13//60
f 14//65 9//61 11//65
f 6//3 12//3 11//3
f 12//66 10//64 13//66
f 8//64 13//66 10//64
f 9//60 14//60 13//60
f 11//65 15//67 14//65
f 12//3 16//3 11//3
f 12//68 13//68 16//69
f 13//60 14//60 17//60
f 18//67 14//65 15//67
f 11//3 16//3 15//3
f 17//69 16//69 13//68
f 14//60 18//60 17//60
f 15//67 19//70 18//67
f 16//3 20//3 15//3
f 16//69 17//69 20//71
f 17//60 18//60 21//60
f 22//70 18//67 19//70
f 15//3 20//3 19//3
f 21//71 20//71 17//69
f 18//60 22//60 21//60
f 19//70 23//72 22//70
f 20//3 24//3 19//3
f 20//71 21//71 24//73
f 21//60 22//60 25//60
f 26//72 22//70 23//72
f 19//3 24//3 23//3
f 25//73 24//73 21//71
f 22//60 26//60 25//60
f 23//72 27//74 26//72
f 23//3 24//3 27//3
f 24//73 25//73 28//75
f 26//60 29//60 25//60
f 29//74 26//72 27//74
f 24//3 28//3 27//3
f 30//75 28//75 25//73
f 25//60 29//60 30//60
f 27//74 31//76 29//74
f 27//3 28//3 31//3
f 28//75 30//75 32//77
f 29//60 33//60 30//60
f 33//76 29//74 31//76
f 31//3 28//3 34//3
f 35//77 32//77 30//75
f 28//3 32//3 34//3
f 33//60 36//60 30//60
f 31//76 34//78 33//76
f 32//77 35//77 37//79
f 30//60 36//60 35//60
f 38//3 34//3 32//3
f 36//78 33//76 34//78
f 39//79 37//79 35//77
f 32//3 37//3 40//3
f 41//60 35//60 36//60
f 34//78 38//80 36//78
f 38//3 32//3 40//3
f 37//79 39//79 42//81
f 35//60 43//60 39//60
f 37//3 42//3 40//3
f 41//60 43//60 35//60
f 41//80 36//78 38//80
f 44//3 38//3 40//3
f 45//81 42//81 39//79
f 39//60 43//60 45//60
f 40//3 42//3 46//3
f 47//60 43//60 41//60
f 38//80 48//82 41//80
f 48//3 38//3 44//3
f 40//83 43//83 44//84
f 42//81 45//81 49//85
f 43//60 50//60 45//60
f 42//3 49//3 46//3
f 46//86 50//86 40//83
f 47//84 44//84 43//83
f 51//60 47//60 41//60
f 51//82 41//80 48//82
f 52//3 48//3 44//3
f 43//83 40//83 50//86
f 53//85 49//85 45//81
f 45//60 50//60 53//60
f 46//3 49//3 54//3
f 50//86 46//86 55//87
f 44//84 47//84 56//88
f 57//60 47//60 51//60
f 48//82 52//89 51//82
f 56//3 52//3 44//3
f 49//85 53//85 58//90
f 50//60 55//60 53//60
f 49//3 58//3 54//3
f 54//87 55//87 46//86
f 59//88 56//88 47//84
f 59//60 47//60 57//60
f 57//89 51//82 52//89
f 60//3 52//3 56//3
f 61//90 58//90 53//85
f 53//60 55//60 61//60
f 62//3 54//3 58//3
f 55//87 54//87 63//91
f 56//88 59//88 64//92
f 65//60 59//60 57//60
f 52//89 60//93 57//89
f 66//3 60//3 56//3
f 58//90 61//90 62//91
f 63//60 61//60 55//60
f 62//91 63//91 54//87
f 67//92 64//92 59//88
f 64//3 68//3 56//3
f 69//60 59//60 65//60
f 65//93 57//89 60//93
f 60//93 66//94 65//93
f 68//3 66//3 56//3
f 63//91 62//91 61//90
f 64//92 67//92 70//95
f 67//60 59//60 71//60
f 70//3 68//3 64//3
f 71//60 59//60 69//60
f 69//94 65//93 66//94
f 66//94 68//96 69//94
f 72//95 70//95 67//92
f 72//60 67//60 71//60
f 73//3 68//3 70//3
f 71//96 69//94 68//96
f 70//95 72//95 74//97
f 75//60 72//60 71//60
f 68//96 73//98 71//96
f 74//3 73//3 70//3
f 76//97 74//97 72//95
f 76//60 72//60 75//60
f 75//98 71//96 73//98
f 77//3 73//3 74//3
f 74//97 76//97 78//99
f 79//60 76//60 75//60
f 73//98 77//100 75//98
f 78//3 77//3 74//3
f 80//99 78//99 76//97
f 80//60 76//60 79//60
f 79//100 75//98 77//100
f 81//3 77//3 78//3
f 78//99 80//99 81//101
f 82//60 80//60 79//60
f 77//100 83//102 79//100
f 77//3 81//3 84//3
f 82//101 81//101 80//99
f 79//60 85//60 82//60
f 86//102 79//100 83//102
f 83//3 77//3 84//3
f 81//3 87//3 84//3
f 81//101 82//101 87//103
f 82//60 85//60 88//60
f 86//60 85//60 79//60
f 83//102 89//104 86//102
f 89//3 83//3 84//3
f 87//3 90//3 84//3
f 88//103 87//103 82//101
f 88//60 85//60 91//60
f 92//60 85//60 86//60
f 92//104 86//102 89//104
f 93//3 89//3 84//3
f 84//3 90//3 94//3
f 87//103 88//103 90//105
f 85//60 95//60 91//60
f 91//105 90//105 88//103
f 96//60 85//60 92//60
f 89//104 97//106 92//104
f 97//3 89//3 93//3
f 93//107 84//108 96//107
f 94//3 90//3 98//3
f 84//108 94//109 85//108
f 95//60 99//60 91//60
f 95//109 85//108 94//109
f 90//105 91//105 100//110
f 85//108 96//107 84//108
f 101//60 96//60 92//60
f 101//106 92//104 97//106
f 97//106 93//107 101//106
f 96//107 101//106 93//107
f 98//3 90//3 102//3
f 98//111 99//111 94//112
f 99//60 103//60 91//60
f 95//112 94//112 99//111
f 104//110 100//110 91//105
f 100//3 102//3 90//3
f 102//113 103//113 98//111
f 99//111 98//111 103//113
f 104//60 91//60 103//60
f 100//114 104//114 102//113
f 103//113 102//113 104//114
usemtl material_2_0
f 1//60 7//60 4//60
f 6//60 10//60 1//60
f 1//60 10//60 7//60
f 6//60 12//60 10//60
f 11//60 12//60 6//60
f 11//60 16//60 12//60
f 15//60 16//60 11//60
f 15//60 20//60 16//60
f 19//60 20//60 15//60
f 19//60 24//60 20//60
f 23//60 24//60 19//60
f 27//60 24//60 23//60
f 27//60 28//60 24//60
f 31//60 28//60 27//60
f 34//60 28//60 31//60
f 34//60 32//60 28//60
f 32//60 34//60 38//60
f 40//60 37//60 32//60
f 40//60 32//60 38//60
f 40//60 42//60 37//60
f 40//60 38//60 44//60
f 46//60 42//60 40//60
f 44//60 38//60 48//60
f 46//60 49//60 42//60
f 44//60 48//60 52//60
f 54//60 49//60 46//60
f 44//60 52//60 56//60
f 54//60 58//60 49//60
f 56//60 52//60 60//60
f 58//60 54//60 62//60
f 56//60 60//60 66//60
f 56//60 68//60 64//60
f 56//60 66//60 68//60
f 64//60 68//60 70//60
f 70//60 68//60 73//60
f 70//60 73//60 74//60
f 74//60 73//60 77//60
f 74//60 77//60 78//60
f 78//60 77//60 81//60
f 84//60 81//60 77//60
f 84//60 77//60 83//60
f 84//60 87//60 81//60
f 84//60 83//60 89//60
f 84//60 90//60 87//60
f 84//60 89//60 93//60
f 94//60 90//60 84//60
f 93//60 89//60 97//60
f 98//60 90//60 94//60
f 102//60 90//60 98//60
f 90//60 102//60 100//60
