# SSTK version 0.8.0
# 39
mtllib original-39.mtl
o mesh31/mesh31-geometry#mesh31-geometry
v 0.023242 0.355808 0.366725
v 0.030106 0.394899 0.365549
v 0.023238 0.394903 0.365813
v 0.030111 0.355804 0.366419
v 0.030100 0.394879 0.364390
v 0.023232 0.394883 0.364653
v 0.030105 0.355784 0.365259
v 0.023237 0.355789 0.365565
vn 0.041408606061962096 0.022765007739523654 0.9988829169460375
vn 0.038323629640028924 0.023309993969600665 0.998993465240064
vn 0.04449278718032947 0.02221999344438097 0.9987625662690094
vn -0.00009391939142709585 0.9998565097139815 -0.016939632868587323
vn -0.9999872497020604 0 0.0050497953729974855
vn 0.00008546027252009737 -0.9998565217482429 0.016938967325287362
vn 0.9999872710427886 0 -0.005045567599022159
vn -0.038323629640028924 -0.023309993969600665 -0.998993465240064
vn -0.041408606061962096 -0.022765007739523654 -0.9988829169460375
vn -0.04449278718032947 -0.02221999344438097 -0.9987625662690094
vn 0.00009391939142709585 -0.9998565097139815 0.016939632868587323
vn 0.9999872497020604 0 -0.0050497953729974855
vn -0.00008546027252009737 0.9998565217482429 -0.016938967325287362
vn -0.9999872710427886 0 0.005045567599022159
usemtl material_0_0
f 1//1 2//1 3//2
f 1//1 4//3 2//1
f 5//4 3//4 2//4
f 6//5 1//5 3//5
f 1//6 7//6 4//6
f 4//7 5//7 2//7
f 3//4 5//4 6//4
f 1//5 6//5 8//5
f 7//6 1//6 8//6
f 5//7 4//7 7//7
usemtl material_1_0
f 3//8 2//9 1//9
f 2//9 4//10 1//9
f 2//11 3//11 5//11
f 3//12 1//12 6//12
f 4//13 7//13 1//13
f 2//14 5//14 4//14
f 6//11 5//11 3//11
f 8//12 6//12 1//12
f 8//13 1//13 7//13
f 7//14 4//14 5//14
