# SSTK version 0.8.0
# 24
mtllib original-24.mtl
o mesh17/mesh17-geometry#mesh17-geometry
v 0.007402 0.471545 0.365858
v 0.020108 0.470540 0.362697
v 0.020173 0.470685 0.365613
v 0.007337 0.471400 0.362941
v 0.024258 0.474666 0.362398
v 0.008972 0.474811 0.365660
v 0.008906 0.474666 0.362744
v 0.024324 0.474811 0.365314
v 0.009334 0.503881 0.361281
v 0.010182 0.477953 0.365476
v 0.010117 0.477808 0.362560
v 0.027555 0.478792 0.362119
v 0.009400 0.504026 0.364197
v 0.010482 0.499536 0.361471
v 0.011278 0.482299 0.365235
v 0.011212 0.482154 0.362319
v 0.027621 0.478937 0.365035
v 0.010547 0.499681 0.364387
v 0.030067 0.482918 0.361857
v 0.011308 0.495190 0.361668
v 0.011799 0.486644 0.365007
v 0.011733 0.486499 0.362091
v 0.030132 0.483063 0.364773
v 0.011374 0.495335 0.364585
v 0.031860 0.487044 0.361611
v 0.011744 0.490845 0.361875
v 0.011809 0.490990 0.364791
v 0.031925 0.487189 0.364528
v -0.020584 0.504360 0.364855
v 0.031319 0.511799 0.360392
v 0.031384 0.511945 0.363308
v -0.020649 0.504215 0.361938
v -0.018845 0.511945 0.364438
v 0.033002 0.491170 0.361380
v -0.018911 0.511800 0.361522
v 0.033068 0.491315 0.364297
v -0.019999 0.507674 0.361752
v -0.019934 0.507819 0.364668
v 0.032417 0.507674 0.360573
v 0.032482 0.507819 0.363489
v 0.033201 0.503548 0.360760
v 0.033267 0.503693 0.363676
v 0.033562 0.495296 0.361163
v 0.033627 0.495441 0.364079
v 0.033606 0.499422 0.360956
v 0.033671 0.499567 0.363873
vn -0.06610641861335009 -0.9965062891198994 0.05104074022390348
vn 0.3509291648600683 -0.9356046292222977 0.038635463351971475
vn 0.7447835377048043 -0.6671038997753181 0.01642768603542367
vn -0.9014012262787017 0.43298295936476755 -0.0012594296251866907
vn -0.917977710519532 0.3966309121569716 0.0009178838962545952
vn -0.022459788141146332 -0.04967297980324393 -0.9985129708692428
vn 0.8196273179338849 -0.572808817346763 0.010055767813012881
vn -0.9530248804853327 0.30282502374602516 0.006370413576569001
vn -0.9750123788919016 -0.21970703299670316 0.032858494477690105
vn -0.9666583929348659 -0.25375302763129554 0.03436498707308906
vn -0.9830698441982565 0.1827680352128241 0.013020243179740702
vn 0.8878067501658802 -0.4602071506375603 0.0029245276467055326
vn -0.9894276029444321 -0.14203291614812302 0.029320117020494602
vn -0.9978974980018605 0.06185002867330883 0.019368981251930786
vn -0.010016248943011502 -0.9987045994291531 0.04988785259124975
vn 0.9426401485510729 -0.33377901012718897 -0.004595948011550961
vn -0.9985645836651024 -0.047462003095709235 0.024821976389560428
vn 0.9793784192032065 -0.20167791555122236 -0.01199709873020467
vn -0.9825813259834048 0.18538596044781686 0.012883458290957366
vn -0.9753004254698202 0.220610044497271 0.01096760435554265
vn -0.0011159459916508286 0.9987653285134465 -0.0496646073574633
vn -0.9667543547484154 0.2555471293720447 0.009037823005699218
vn 0.9661821961918226 0.2555491239508104 -0.0344471916115039
vn 0.9748065702375706 0.22061205398112882 -0.032900946185359436
vn 0.9971138465454846 -0.07356396100003963 -0.018770206958173132
vn 0.989585844658539 0.14093700584641944 -0.02926801042934386
vn 0.9988024584269591 0.04230801287566296 -0.024569922400673558
vn -0.3509291648600683 0.9356046292222977 -0.038635463351971475
vn 0.06610641861335009 0.9965062891198994 -0.05104074022390348
vn -0.7447835377048043 0.6671038997753181 -0.01642768603542367
vn 0.9014012262787017 -0.43298295936476755 0.0012594296251866907
vn 0.917977710519532 -0.3966309121569716 -0.0009178838962545952
vn 0.022459788141146332 0.04967297980324393 0.9985129708692428
vn -0.8196273179338849 0.572808817346763 -0.010055767813012881
vn 0.9530248804853327 -0.30282502374602516 -0.006370413576569001
vn 0.9750123788919016 0.21970703299670316 -0.032858494477690105
vn 0.9666583929348659 0.25375302763129554 -0.03436498707308906
vn 0.9830698441982565 -0.1827680352128241 -0.013020243179740702
vn -0.8878067501658802 0.4602071506375603 -0.0029245276467055326
vn 0.9894276029444321 0.14203291614812302 -0.029320117020494602
vn 0.9978974980018605 -0.06185002867330883 -0.019368981251930786
vn 0.010016248943011502 0.9987045994291531 -0.04988785259124975
vn -0.9426401485510729 0.33377901012718897 0.004595948011550961
vn 0.9985645836651024 0.047462003095709235 -0.024821976389560428
vn -0.9793784192032065 0.20167791555122236 0.01199709873020467
vn 0.9825813259834048 -0.18538596044781686 -0.012883458290957366
vn 0.9753004254698202 -0.220610044497271 -0.01096760435554265
vn 0.0011159459916508286 -0.9987653285134465 0.0496646073574633
vn 0.9667543547484154 -0.2555471293720447 -0.009037823005699218
vn -0.9748065702375706 -0.22061205398112882 0.032900946185359436
vn -0.9661821961918226 -0.2555491239508104 0.0344471916115039
vn -0.9971138465454846 0.07356396100003963 0.018770206958173132
vn -0.989585844658539 -0.14093700584641944 0.02926801042934386
vn -0.9988024584269591 -0.04230801287566296 0.024569922400673558
usemtl material_0_0
f 1//1 2//2 3//2
f 2//2 1//1 4//1
f 5//3 3//2 2//2
f 1//4 7//5 4//4
f 7//6 2//6 4//6
f 3//2 5//3 8//3
f 9//6 5//6 2//6
f 7//5 1//4 6//5
f 11//6 2//6 7//6
f 12//7 8//3 5//3
f 9//6 12//6 5//6
f 9//6 2//6 14//6
f 11//8 6//5 10//8
f 6//5 11//8 7//5
f 16//6 2//6 11//6
f 8//3 12//7 17//7
f 9//6 19//6 12//6
f 14//6 2//6 20//6
f 18//9 9//10 14//9
f 16//11 10//8 15//11
f 10//8 16//11 11//8
f 22//6 2//6 16//6
f 19//12 17//7 12//7
f 9//10 18//9 13//10
f 9//6 25//6 19//6
f 20//6 2//6 26//6
f 24//13 14//9 20//13
f 14//9 24//13 18//9
f 22//14 15//11 21//14
f 15//11 22//14 16//11
f 2//6 22//6 26//6
f 17//7 19//12 23//12
f 29//15 9//15 13//15
f 30//6 25//6 9//6
f 25//16 23//12 19//12
f 27//17 20//13 26//17
f 20//13 27//17 24//13
f 26//17 21//14 27//17
f 21//14 26//17 22//14
f 23//12 25//16 28//16
f 9//15 29//15 32//15
f 30//6 34//6 25//6
f 30//6 9//6 35//6
f 34//18 28//16 25//16
f 29//19 37//20 32//19
f 35//6 9//6 32//6
f 39//6 34//6 30//6
f 33//21 30//21 35//21
f 28//16 34//18 36//18
f 30//21 33//21 31//21
f 37//20 29//19 38//20
f 35//6 32//6 37//6
f 35//22 38//20 33//22
f 41//6 34//6 39//6
f 30//23 40//24 39//24
f 40//24 30//23 31//23
f 43//25 36//18 34//18
f 38//20 35//22 37//20
f 41//6 43//6 34//6
f 39//24 42//26 41//26
f 42//26 39//24 40//24
f 36//18 43//25 44//25
f 43//6 41//6 45//6
f 46//27 41//26 42//26
f 45//27 44//25 43//25
f 41//26 46//27 45//27
f 44//25 45//27 46//27
usemtl material_1_0
f 3//28 2//28 1//29
f 4//29 1//29 2//28
f 2//28 3//28 5//30
f 1//6 6//6 3//6
f 4//31 7//32 1//31
f 4//33 2//33 7//33
f 8//30 5//30 3//28
f 2//33 5//33 9//33
f 10//6 3//6 6//6
f 6//32 1//31 7//32
f 7//33 2//33 11//33
f 5//30 8//30 12//34
f 3//6 13//6 8//6
f 5//33 12//33 9//33
f 14//33 2//33 9//33
f 15//6 3//6 10//6
f 10//35 6//32 11//35
f 7//32 11//35 6//32
f 11//33 2//33 16//33
f 17//34 12//34 8//30
f 8//6 13//6 17//6
f 18//6 13//6 3//6
f 12//33 19//33 9//33
f 20//33 2//33 14//33
f 14//36 9//37 18//36
f 21//6 3//6 15//6
f 15//38 10//35 16//38
f 11//35 16//38 10//35
f 16//33 2//33 22//33
f 12//34 17//34 19//39
f 17//6 13//6 23//6
f 13//37 18//36 9//37
f 24//6 18//6 3//6
f 19//33 25//33 9//33
f 26//33 2//33 20//33
f 20//40 14//36 24//40
f 18//36 24//40 14//36
f 27//6 3//6 21//6
f 21//41 15//38 22//41
f 16//38 22//41 15//38
f 26//33 22//33 2//33
f 23//39 19//39 17//34
f 23//6 13//6 28//6
f 13//42 9//42 29//42
f 27//6 24//6 3//6
f 9//33 25//33 30//33
f 19//39 23//39 25//43
f 26//44 20//40 27//44
f 24//40 27//44 20//40
f 27//44 21//41 26//44
f 22//41 26//44 21//41
f 13//6 31//6 28//6
f 28//43 25//43 23//39
f 32//42 29//42 9//42
f 29//6 33//6 13//6
f 25//33 34//33 30//33
f 35//33 9//33 30//33
f 28//6 31//6 36//6
f 33//6 31//6 13//6
f 25//43 28//43 34//45
f 32//46 37//47 29//46
f 32//33 9//33 35//33
f 38//6 33//6 29//6
f 30//33 34//33 39//33
f 35//48 30//48 33//48
f 31//6 40//6 36//6
f 36//45 34//45 28//43
f 31//48 33//48 30//48
f 38//47 29//46 37//47
f 37//33 32//33 35//33
f 33//49 38//47 35//49
f 39//33 34//33 41//33
f 39//50 40//50 30//51
f 40//6 42//6 36//6
f 31//51 30//51 40//50
f 34//45 36//45 43//52
f 37//47 35//49 38//47
f 34//33 43//33 41//33
f 41//53 42//53 39//50
f 40//50 39//50 42//53
f 36//6 42//6 44//6
f 44//52 43//52 36//45
f 45//33 41//33 43//33
f 42//53 41//53 46//54
f 46//6 44//6 42//6
f 43//52 44//52 45//54
f 45//54 46//54 41//53
f 46//54 45//54 44//52
usemtl material_2_0
f 3//33 6//33 1//33
f 6//33 3//33 10//33
f 8//33 13//33 3//33
f 10//33 3//33 15//33
f 17//33 13//33 8//33
f 3//33 13//33 18//33
f 15//33 3//33 21//33
f 23//33 13//33 17//33
f 3//33 18//33 24//33
f 21//33 3//33 27//33
f 28//33 13//33 23//33
f 3//33 24//33 27//33
f 28//33 31//33 13//33
f 13//33 33//33 29//33
f 36//33 31//33 28//33
f 13//33 31//33 33//33
f 29//33 33//33 38//33
f 36//33 40//33 31//33
f 36//33 42//33 40//33
f 44//33 42//33 36//33
f 42//33 44//33 46//33
