# SSTK version 0.8.0
# 54
mtllib original-54.mtl
o mesh43/mesh43-geometry#mesh43-geometry
v -0.224953 0.198982 0.564597
v -0.226354 0.196874 0.565955
v -0.226361 0.196874 0.564604
v -0.224946 0.198982 0.565948
v -0.228074 0.195012 0.565963
v -0.223892 0.201285 0.564591
v -0.225178 0.199114 0.566669
v -0.228081 0.195012 0.564613
v -0.226562 0.197041 0.566676
v -0.223886 0.201285 0.565942
v -0.224135 0.201378 0.566664
v -0.230064 0.193442 0.565973
v -0.228254 0.195210 0.566685
v -0.223205 0.203725 0.564588
v -0.225551 0.199324 0.567146
v -0.224536 0.201527 0.567141
v -0.230071 0.193442 0.564623
v -0.230211 0.193666 0.566695
v -0.226897 0.197307 0.567153
v -0.223198 0.203725 0.565939
v -0.223459 0.203777 0.566661
v -0.223878 0.203861 0.567138
v -0.232276 0.192202 0.565985
v -0.232385 0.192447 0.566706
v -0.228543 0.195525 0.567161
v -0.222908 0.206242 0.564586
v -0.226118 0.199642 0.567448
v -0.225146 0.201752 0.567443
v -0.224516 0.203988 0.567440
v -0.232283 0.192202 0.564634
v -0.230447 0.194023 0.567171
v -0.227408 0.197710 0.567454
v -0.222901 0.206242 0.565937
v -0.223167 0.206253 0.566659
v -0.223594 0.206270 0.567137
v -0.224244 0.206295 0.567438
v -0.234654 0.191324 0.565997
v -0.234723 0.191584 0.566717
v -0.232563 0.192837 0.567182
v -0.228984 0.196004 0.567462
v -0.223008 0.208775 0.564587
v -0.226730 0.215100 0.567451
v -0.225594 0.213074 0.567445
v -0.224790 0.210894 0.567441
v -0.224336 0.208616 0.567439
v -0.234661 0.191324 0.564646
v -0.234838 0.191997 0.567193
v -0.230808 0.194565 0.567471
v -0.227933 0.204666 0.567457
v -0.223002 0.208775 0.565938
v -0.223266 0.208744 0.566660
v -0.223690 0.208693 0.567137
v -0.227725 0.206431 0.567456
v -0.237140 0.190829 0.566009
v -0.237168 0.191097 0.566730
v -0.237216 0.191523 0.567205
v -0.232834 0.193429 0.567482
v -0.243779 0.217150 0.567537
v -0.223504 0.211262 0.564589
v -0.226190 0.215462 0.567150
v -0.227795 0.208206 0.567456
v -0.225004 0.213347 0.567144
v -0.224164 0.211071 0.567139
v -0.237147 0.190829 0.564658
v -0.235013 0.192624 0.567493
v -0.234294 0.196592 0.567489
v -0.227958 0.204666 0.562440
v -0.223497 0.211262 0.565940
v -0.223753 0.211188 0.566662
v -0.227692 0.217366 0.567157
v -0.228169 0.216924 0.567458
v -0.227750 0.206431 0.562439
v -0.239673 0.190728 0.566022
v -0.239659 0.190998 0.566742
v -0.239640 0.191427 0.567217
v -0.237292 0.192170 0.567504
v -0.243805 0.217150 0.562520
v -0.250140 0.209076 0.567569
v -0.224382 0.213640 0.564594
v -0.225835 0.215701 0.566673
v -0.227379 0.217658 0.566680
v -0.228142 0.209948 0.567458
v -0.227820 0.208206 0.562439
v -0.224617 0.213527 0.566667
v -0.239680 0.190728 0.564671
v -0.235960 0.195977 0.567497
v -0.242138 0.217766 0.562511
v -0.245239 0.220314 0.567544
v -0.234319 0.196592 0.562472
v -0.224375 0.213640 0.565945
v -0.229474 0.219012 0.567166
v -0.229210 0.219350 0.566690
v -0.228758 0.211614 0.567461
v -0.242191 0.191025 0.566035
v -0.242134 0.191290 0.566755
v -0.242048 0.191712 0.567229
v -0.239613 0.192078 0.567516
v -0.237702 0.195630 0.567506
v -0.242113 0.217766 0.567528
v -0.243060 0.221118 0.567533
v -0.247265 0.219178 0.567554
v -0.250165 0.209076 0.562552
v -0.225621 0.215851 0.564600
v -0.225615 0.215851 0.565951
v -0.227185 0.217841 0.565959
v -0.229875 0.218500 0.567467
v -0.228167 0.209948 0.562441
v -0.242197 0.191025 0.564684
v -0.235985 0.195977 0.562480
v -0.240396 0.218113 0.562502
v -0.245513 0.220905 0.567247
v -0.247629 0.219719 0.567258
v -0.249089 0.217739 0.567563
v -0.250348 0.207312 0.567570
v -0.231491 0.220359 0.567176
v -0.231283 0.220734 0.566700
v -0.229047 0.219562 0.565968
v -0.229626 0.213164 0.567465
v -0.228783 0.211614 0.562444
v -0.244631 0.191713 0.566047
v -0.244534 0.191966 0.566767
v -0.244383 0.192369 0.567241
v -0.241920 0.192351 0.567527
v -0.239477 0.195559 0.567515
v -0.237727 0.195630 0.562489
v -0.240371 0.218113 0.567520
v -0.240781 0.221572 0.567522
v -0.243238 0.221745 0.567236
v -0.249533 0.218217 0.567267
v -0.250665 0.216033 0.567571
v -0.250374 0.207312 0.562553
v -0.231807 0.219790 0.567476
v -0.227191 0.217841 0.564608
v -0.230726 0.214558 0.567471
v -0.244637 0.191713 0.564696
v -0.241241 0.195768 0.567524
v -0.238621 0.218183 0.562493
v -0.243357 0.222159 0.566761
v -0.247870 0.220077 0.566784
v -0.249827 0.218533 0.566794
v -0.251179 0.216436 0.567275
v -0.250278 0.205537 0.567569
v -0.251343 0.198642 0.567575
v -0.233693 0.221373 0.567187
v -0.233547 0.221777 0.566712
v -0.231155 0.220969 0.565979
v -0.229053 0.219562 0.564617
v -0.229651 0.213164 0.562448
v -0.246933 0.192773 0.566058
v -0.246798 0.193009 0.566778
v -0.246585 0.193384 0.567252
v -0.244156 0.192980 0.567539
v -0.242951 0.196249 0.567532
v -0.239502 0.195559 0.562498
v -0.238596 0.218183 0.567511
v -0.240860 0.222219 0.567224
v -0.245696 0.221295 0.566773
v -0.240913 0.222646 0.566749
v -0.251518 0.216702 0.566802
v -0.252525 0.214419 0.567282
v -0.250303 0.205537 0.562552
v -0.251955 0.214101 0.567578
v -0.233917 0.220762 0.567487
v -0.232031 0.215764 0.567477
v -0.230752 0.214558 0.562454
v -0.246940 0.192773 0.564707
v -0.241267 0.195768 0.562507
v -0.236857 0.217975 0.562485
v -0.238460 0.221664 0.567510
v -0.243434 0.222419 0.566041
v -0.240948 0.222914 0.566028
v -0.245812 0.221540 0.566053
v -0.248024 0.220301 0.566064
v -0.251734 0.216869 0.566083
v -0.252903 0.214629 0.566809
v -0.249931 0.203795 0.567568
v -0.252479 0.200669 0.567580
v -0.236028 0.222031 0.567199
v -0.233457 0.222030 0.565991
v -0.231162 0.220969 0.564628
v -0.249041 0.194181 0.566069
v -0.248871 0.194393 0.566789
v -0.246266 0.193952 0.567549
v -0.244565 0.196992 0.567541
v -0.242976 0.196249 0.562515
v -0.236832 0.217975 0.567502
v -0.238436 0.222315 0.567211
v -0.238422 0.222745 0.566736
v -0.238415 0.223014 0.566016
v -0.250014 0.218731 0.566074
v -0.253142 0.214760 0.566090
v -0.253540 0.212216 0.567287
v -0.253946 0.212365 0.566814
v -0.249956 0.203795 0.562550
v -0.249904 0.196819 0.567568
v -0.252927 0.211991 0.567583
v -0.253072 0.200396 0.567285
v -0.236153 0.221392 0.567498
v -0.233508 0.216750 0.567485
v -0.235946 0.222452 0.566724
v -0.232056 0.215764 0.562460
v -0.249048 0.194181 0.564718
v -0.248602 0.194730 0.567263
v -0.235147 0.217493 0.562476
v -0.243441 0.222419 0.564690
v -0.240955 0.222914 0.564677
v -0.238422 0.223014 0.564665
v -0.245819 0.221540 0.564702
v -0.248030 0.220301 0.564713
v -0.250021 0.218731 0.564723
v -0.253149 0.214760 0.564739
v -0.254202 0.212458 0.566095
v -0.249315 0.202128 0.567565
v -0.251886 0.198280 0.567279
v -0.253283 0.202848 0.567585
v -0.253912 0.202671 0.567289
v -0.235122 0.217493 0.567493
v -0.233464 0.222030 0.564640
v -0.235898 0.222717 0.566003
v -0.250903 0.195901 0.566078
v -0.250702 0.196084 0.566798
v -0.246042 0.197979 0.567548
v -0.248198 0.195242 0.567559
v -0.244590 0.196992 0.562523
v -0.235904 0.222717 0.564652
v -0.251741 0.216869 0.564732
v -0.254209 0.212458 0.564744
v -0.254198 0.209882 0.567291
v -0.254621 0.209965 0.566818
v -0.254890 0.210018 0.566098
v -0.249341 0.202128 0.562547
v -0.248447 0.200579 0.567560
v -0.250384 0.196376 0.567272
v -0.253557 0.209755 0.567586
v -0.253464 0.200216 0.566812
v -0.254328 0.202554 0.566816
v -0.233534 0.216750 0.562468
v -0.250910 0.195901 0.564728
v -0.247347 0.199184 0.567555
v -0.254896 0.210018 0.564748
v -0.252246 0.198042 0.566806
v -0.253737 0.205126 0.567587
v -0.254386 0.205050 0.567292
v -0.254815 0.204999 0.566819
v -0.252474 0.197891 0.566086
v -0.246067 0.197979 0.562531
v -0.254482 0.207473 0.567292
v -0.254914 0.207490 0.566819
v -0.255187 0.207500 0.566100
v -0.255194 0.207500 0.564749
v -0.248472 0.200579 0.562543
v -0.253829 0.207448 0.567587
v -0.253713 0.200103 0.566093
v -0.254591 0.202481 0.566097
v -0.255086 0.204967 0.566099
v -0.252480 0.197891 0.564735
v -0.247372 0.199184 0.562537
v -0.255093 0.204967 0.564749
v -0.253720 0.200103 0.564742
v -0.254598 0.202481 0.564746
vn 0.872643412083874 -0.48833808406325746 -0.0044035213229047234
vn 0.7738244271591013 -0.6089311196933392 0.1743520788545544
vn 0.7855049243519987 -0.6188427138041857 -0.003963507314455634
vn 0.8595655670664503 -0.4805137955726568 0.17393541381240002
vn 0.6690603970109346 -0.7223412114574747 0.1748752680676099
vn 0.938294469710104 -0.3458049551916342 -0.004735089898490279
vn 0.7480026367605217 -0.4171158948296628 0.5162425647694666
vn 0.6790371995476309 -0.7340958973579845 -0.003419811791092503
vn 0.6735773190093056 -0.5285950607963643 0.5166051267824622
vn 0.9241627929633881 -0.3402658991491154 0.173615235444226
vn 0.8040753311179172 -0.2953739833289451 0.515962277555253
vn 0.5478348447639299 -0.8179731956960206 0.1754902674945842
vn 0.582632169441541 -0.627047186319888 0.5170605199202073
vn 0.9808360411285183 -0.19477203558933381 -0.004951219619710822
vn 0.5199311757751134 -0.2886798825601399 0.8039499349226741
vn 0.5587495045143022 -0.20442805835266858 0.8037463282424249
vn 0.5558392128683658 -0.8312851271014274 -0.0027940826472186687
vn 0.4773971244631208 -0.7100597891087236 0.5175974125178937
vn 0.46841346200067696 -0.36582576693302665 0.8042141113313066
vn 0.9660235766713232 -0.19165290795737144 0.17340015048040683
vn 0.8404136858905209 -0.1663690240061367 0.5157772624100007
vn 0.583893208236191 -0.11514194894946764 0.8036237010988203
vn 0.41315357608449377 -0.8934561146978828 0.176182557813077
vn 0.36048012851241695 -0.7755839151743918 0.5181926933780845
vn 0.4054731002243936 -0.4339599826969307 0.8045311046889974
vn 0.9992293075534898 -0.038928006246816575 -0.005039965855129467
vn 0.2521195914323903 -0.13838393832256896 0.9577502791596043
vn 0.27073512346064155 -0.09799803219128064 0.9576527964828316
vn 0.2827841032184514 -0.05519499581207963 0.957594206020609
vn 0.4189695786476358 -0.9079978207258358 -0.0021094371181153092
vn 0.33264240810432444 -0.4914121754319663 0.8048994360588024
vn 0.22741908406109418 -0.17536091358470554 0.9578773983091731
vn 0.9841238150620647 -0.038304999104869585 0.17330044336718445
vn 0.8561268786452604 -0.0332530085262885 0.515694682040715
vn 0.5947498535646921 -0.02301300454383746 0.8035813669483896
vn 0.2879791720804974 -0.011029998146667958 0.9575731489493196
vn 0.2683008205812398 -0.9469477546586522 0.17693111547257637
vn 0.23474216323380606 -0.8220146700885884 0.5188333055611046
vn 0.2517312614833137 -0.5367652174473908 0.8053039633148931
vn 0.19725474079772343 -0.20802603724529686 0.9580270012170019
vn 0.9930175962092018 0.11786002522558388 -0.005006802644730867
vn 0.24039397840391213 0.15751202080348048 0.957810366643389
vn 0.2621368718924727 0.11872003710351983 0.9577002731463369
vn 0.27753891545207754 0.07700803305335673 0.9576230538447463
vn 0.28621716562866023 0.03339998529889971 0.9575824638544345
vn 0.2717571313177092 -0.9623648927680166 -0.001369213487148509
vn 0.1647145417935312 -0.5689112641765668 0.8057351259655792
vn 0.16234457380310752 -0.23557213054987036 0.9582014457643455
vn 0.005037757643250157 0 0.9999873104184511
vn 0.9780111235752371 0.11597396365712875 0.17333286450283278
vn 0.8508195675357693 0.10067699452810491 0.5157229937389204
vn 0.5910762142470916 0.06967700218973934 0.8036006622179809
vn 0.11686370944867448 -0.9771227666171864 0.17769066484278573
vn 0.10328818277013274 -0.848204079195122 0.5195010984943137
vn 0.07373436006728828 -0.5870436719548042 0.8061904063949705
vn 0.12355538091680393 -0.25730498330939794 0.9583987757768964
vn 0.9623545233910444 0.2717539172345036 -0.004855901203521312
vn 0.4954784829965077 0.3285911197552198 0.8040702387885589
vn 0.5408346875275496 0.24766908909785643 0.8038394510550074
vn 0.5729624092516908 0.16065005269226212 0.8036825481211292
vn 0.11785110242903306 -0.993031100032993 -0.000593315704874796
vn 0.08184235968602352 -0.27271196060825975 0.9586083739996341
vn -0.9992289920517848 0.038937015572609396 0.005032917789174513
vn -0.9930938612618734 0.11721596412131238 0.0050000479091597645
vn 0.6188271037638766 0.7855210380298236 -0.003116802810648868
vn 0.9478368800978887 0.26740210741892434 0.17349743996445213
vn 0.8246243328073354 0.23212397189245818 0.5158615816427177
vn 0.4380190541384751 0.40141485802661464 0.8043664711853101
vn 0.212854081291064 0.1924270616977064 0.9579483107162537
vn -0.9930171517964917 -0.11786392173290129 0.005003218136762845
vn -0.037407556830393734 -0.9832331514793692 0.17847477279416524
vn -0.03063721902041682 -0.8535073800562522 0.5201793085083329
vn -0.018954989436763516 -0.5907181944688918 0.8066552690578948
vn 0.03822881833945894 -0.281421019443238 0.9588225942602194
vn 0.907993086582036 0.41896009316395677 -0.0045820361495787065
vn 0.7126650578120286 0.4747799513528617 0.5164228046544345
vn 0.6296534547996346 0.5800091192063865 0.5168422859019146
vn 0.7781929588813252 0.3578600200428456 0.5160929420196154
vn -0.03892511098003537 -0.9992421115149263 0.0001957303850119341
vn 0.27175642731065575 -0.9623650924919509 -0.0013685643231968346
vn 0.34642499186317266 -0.9380760520683815 -0.0017451499647822674
vn -0.11389431352110442 0.25731505397608406 0.9595921260331606
vn -0.618828591525896 -0.7855198552310605 0.003119510834947661
vn 0.8943453959562582 0.412248982965254 0.17377309566200844
vn 0.3698801807902821 0.46435810803989186 0.8047112521620164
vn 0.5311973563247308 0.6709607748937042 0.5173403204735322
vn -0.9623550898953745 -0.2717520504760457 0.004848093906901156
vn -0.19074630823216662 -0.9651311762107709 0.1792697927756185
vn -0.16374415326887165 -0.8377967625960785 0.5208497257883415
vn -0.11108012380819102 -0.5798510060704601 0.807114624358791
vn -0.006203995653768913 -0.2831829983946354 0.9590458278195845
vn -0.34642342616618965 0.9380766300629872 0.0017452601375787205
vn -0.27175642731065575 0.9623650924919509 0.0013685643231968346
vn -0.07217594198105418 0.2727049105185797 0.959386608817426
vn -0.1526913733229897 0.23558695910941077 0.9597833761898151
vn 0.8312759375637013 0.5558441537859793 -0.004194321105755844
vn 0.8188588022826802 0.5469388465349975 0.17414982077263527
vn 0.723231301494622 0.6681649921948308 0.17461966597058057
vn 0.18019821299793803 0.2226050687059522 0.9581104254827666
vn -0.9079935160760505 -0.4189592476609196 0.004574228158618665
vn -0.1947630335615717 -0.9808498380219806 0.0009777577144981478
vn -0.11784264371118483 0.9930321034635238 0.0005939814544973925
vn 0.11786170121314192 -0.9930298422075706 -0.0005931882934769638
vn -0.24360537877170288 0.5367738838633468 0.807793424729215
vn -0.3245236094811049 0.4914258302888217 0.8081986638285772
vn -0.18760472219853952 0.20803906554053367 0.9599605280519768
vn 0.9992291407516611 -0.03893301704154981 -0.005034327833904018
vn 0.9930939430388651 -0.11721499804268534 -0.005006449178047834
vn 0.2927400901700828 0.5158781175077628 0.8050919248656384
vn 0.41972329364958183 0.7453842365741862 0.51791379266695
vn 0.6098180042251818 0.7729361272094518 0.1751905961439433
vn -0.3393644204004432 -0.9232693910919189 0.18001505947844595
vn -0.2927472856649039 -0.8014570531506299 0.5215032297991449
vn -0.20036233681925475 -0.5546888713238451 0.8075736437092325
vn -0.05036272500275954 -0.27795000383223545 0.9592744087590144
vn -0.028566182058182246 0.2813958667544458 0.959166481595418
vn -0.15658870640522038 0.5689119470431182 0.8073531900834651
vn -0.39735854164669787 0.433970984063284 0.8085637726064374
vn -0.2177717691058484 0.17536800102239564 0.9601153684833496
vn 0.14322315116482548 0.2473079636155606 0.9582932224025912
vn 0.7340898187807995 0.679042276912139 -0.00370460906859709
vn -0.8312701207945905 -0.5558528977058448 0.0041883631841678395
vn -0.3458060918715532 -0.9383043878664957 0.0017385439319641492
vn 0.03892868566595857 0.9992419721741091 -0.00019615788991990366
vn -0.03892727794757323 -0.9992420269935244 0.0001962688586015907
vn -0.229505854338386 0.8220157460547147 0.5211690474908485
vn -0.47215673665424346 0.7100619550509493 0.522379207110351
vn -0.5773903003926745 0.6270438882103121 0.5229114679088143
vn -0.4602994671038496 0.3658310356966968 0.808883214008669
vn 0.9930170511273043 0.11786494929344891 -0.004998989746479645
vn -0.23071369001684947 -0.15750501763465632 0.9601892327342126
vn 0.20849526612818187 0.5547008988353234 0.8055039645050935
vn 0.29798844916116085 0.8014567569558709 0.5185267118445338
vn 0.48140259104986216 0.8586763982645099 0.1758590014584632
vn 0.6188337535933024 0.7855158126882783 -0.003113427419720811
vn -0.7340939234225661 -0.6790378685257192 0.00369928399985574
vn -0.4796103911128209 -0.8586748348897253 0.18069698576265733
vn -0.4144870661624798 -0.7453857706425975 0.5221116019660559
vn -0.2846052941985382 -0.5158687922653535 0.8080094155892299
vn -0.0931595674265369 -0.26588306693700087 0.9594933505309324
vn 0.19474004855647542 0.9808543978316819 -0.0009817038607975773
vn -0.06560896795340888 0.587043950204586 0.8068921017411708
vn -0.35524069051573226 0.7755850516683145 0.5217967798200406
vn -0.09804820812747182 0.8482135041778326 0.5205001442971501
vn -0.6683340206359768 0.5285898146444638 0.5233760070109073
vn -0.5118023070430552 0.2886861285443116 0.809146907360773
vn -0.24245251177319732 0.13838404861764622 0.9602430081094351
vn 0.1028318473325192 0.26590880664368394 0.9584978444021214
vn -0.4883338239292855 -0.8726534365515358 0.0024609106843492884
vn 0.34580200946443 0.9383058839386067 -0.0017431054334874996
vn -0.19475836134218272 -0.9808507618440694 0.0009816706253558067
vn 0.015862610161554998 0.2831630357967655 0.9589405991807951
vn -0.26650731246562187 0.9469461180875025 0.17962990241427265
vn -0.11506667645726919 0.9771223007343509 0.17886215188431245
vn -0.41135677435324847 0.893456173649925 0.1803376554148513
vn -0.5460352232804944 0.8179753098405171 0.18100256193858344
vn -0.7720274752401642 0.6089258605614741 0.18216166944164083
vn -0.7427605143414374 0.4171232455868058 0.523750910573311
vn 0.9623548235073145 0.2717530692507075 -0.004843864678719588
vn -0.2524633472404939 -0.11871700582502787 0.9602960641531684
vn 0.11920763008993251 0.5798559406152166 0.8059507609411286
vn -0.6188334828849884 -0.785516011752498 0.003117008322767875
vn 0.3411598011851352 0.9232700826174421 0.17658523324134595
vn 0.488330657099524 0.8726552419375909 -0.002449092810011386
vn -0.6080230775420545 -0.7729352096722304 0.18132594636519558
vn -0.5259636555257736 -0.6709618155361836 0.5226590429317699
vn -0.13354354268782795 -0.24728403661077503 0.9596961641289733
vn 0.02708019893281131 0.5907208604023396 0.8064214331919006
vn 0.03587592495041255 0.8535162733382035 0.5198296732159654
vn 0.0392037620895187 0.9832330593622062 0.17808934840485238
vn -0.6672573478749109 0.7223439786254807 0.18162270852085455
vn -0.8577676109735873 0.48051500637114847 0.1825925908047742
vn -0.5506161528575366 0.2044299344131637 0.8093393936589245
vn -0.7988468256216456 0.29537884348898297 0.524018213436643
vn -0.20318138933888594 -0.19240996216325784 0.9600498578129438
vn -0.2610429002439766 0.09799199317049748 0.9603406549275556
vn -0.5326984984999833 -0.24766391838558857 0.8092557650247294
vn 0.060025254590379794 0.2779550978286766 0.9587168155416962
vn 0.16898350660050643 0.8377998299459212 0.5191685847964823
vn -0.6188336801190771 -0.7855158395784368 0.0031212372007415013
vn -0.36175062321609247 -0.46435089087151665 0.8084025833392651
vn 0.4883272459198972 0.8726571181324747 -0.0024607041699886982
vn -0.3458034784242688 -0.9383053453911996 0.001741585478244826
vn -0.27176000439595577 0.9623640817653429 0.001368991840192909
vn -0.11785046194775063 0.9930311755892776 0.0005940761561181834
vn 0.038924462510106 0.9992421366263866 -0.00019649079600030979
vn -0.4189685966423619 0.9079982670278016 0.002112368821759461
vn -0.5558349002729701 0.8312879785440417 0.002803634551448126
vn -0.6790305780087296 0.7341019999067689 0.0034245966204471483
vn -0.8726446746504436 0.48833588657619004 0.004397008763661869
vn -0.9223679349809564 0.3402648602399802 0.18291314169526693
vn 0.9079922031648517 0.41896214632150763 -0.004569348040381758
vn -0.48733664809134014 -0.32858493167701347 0.8090333331216396
vn -0.26788758261717355 -0.0770110047760299 0.9603674027282023
vn -0.564844480611048 -0.16064999204268457 0.8094086068111216
vn -0.4883291585361831 -0.8726560542853169 0.0024584227719150063
vn 0.34580442922981214 0.9383050030279103 -0.001737244322812377
vn 0.19254207566517603 0.965131958271073 0.1773354229204912
vn -0.7214304937223398 -0.6681692241190291 0.18190088143743405
vn -0.6244120868909218 -0.5800110777255496 0.5231602961427502
vn -0.17052242150699526 -0.222587000598091 0.9598839153398372
vn 0.19476262156378807 0.9808499162550376 -0.0009813379061723562
vn -0.7855074251375929 0.618839549967666 0.003961874496454735
vn -0.9382948931271733 0.34580400057524485 0.004720881021845698
vn -0.5757732407853953 0.1151359979076337 0.8094620912564693
vn -0.8351876707028373 0.16636394957268233 0.5241989994158204
vn -0.9642277605277803 0.19164899876175584 0.18312696989028718
vn -0.4298877517321324 -0.40140409284558004 0.8087467311572331
vn -0.273105500410203 0.055187986213463505 0.9603997458472151
vn -0.7729554212974376 -0.35785211484406615 0.5239100882675672
vn -0.8193911959391579 -0.2321199884430941 0.5241358402003955
vn -0.7340864942421036 -0.679045927651395 0.003694199696039483
vn 0.6188298163006172 0.78551890199042 -0.0031165803550617195
vn -0.9808364982770572 0.19477002267317958 0.004939829500026012
vn 0.8312756765086422 0.5558446300574517 -0.004182927371331422
vn -0.7074184802300428 -0.4747798363735671 0.52358686079972
vn -0.27658259074552227 -0.03340200467911994 0.960409483803607
vn -0.5829726328891641 -0.0696790041968012 0.8094984531649322
vn -0.8455811732665856 -0.10067903573970473 0.5242673088984549
vn -0.8170603006563886 -0.5469419344260416 0.18239239418789274
vn 0.7340957776232626 0.679035884079757 -0.0036955930133089703
vn -0.5866426890696284 0.023013000784064628 0.8095188429901233
vn -0.8508893228862546 0.03325401279759325 0.524291455996594
vn -0.9823248257582795 0.03830999082290029 0.18322194547082762
vn -0.999229023481085 0.038935016161344524 0.0050421373992565795
vn -0.27833250804788506 0.011029993838073817 0.960421446136906
vn -0.8925537546370967 -0.4122419565313552 0.18276860878832962
vn -0.9460428662400879 -0.26739807026032286 0.18303324085338832
vn -0.9762124054852465 -0.11597906092596226 0.18318896474253224
vn -0.8312749499469839 -0.555845811973513 0.004170240058483458
vn -0.9930167586391062 -0.11786698972753867 0.005008971396557498
vn -0.9079961155393323 -0.4189538102212986 0.004556211862869985
vn -0.9623551365507046 -0.27175197425571374 0.004843102579585326
vn -0.7855049243519987 0.6188427138041857 0.003963507314455634
vn -0.7738244271591013 0.6089311196933392 -0.1743520788545544
vn -0.872643412083874 0.48833808406325746 0.0044035213229047234
vn -0.8595655670664503 0.4805137955726568 -0.17393541381240002
vn -0.6690603970109346 0.7223412114574747 -0.1748752680676099
vn -0.938294469710104 0.3458049551916342 0.004735089898490279
vn -0.7480026367605217 0.4171158948296628 -0.5162425647694666
vn -0.6790371995476309 0.7340958973579845 0.003419811791092503
vn -0.6735773190093056 0.5285950607963643 -0.5166051267824622
vn -0.9241627929633881 0.3402658991491154 -0.173615235444226
vn -0.8040753311179172 0.2953739833289451 -0.515962277555253
vn -0.5478348447639299 0.8179731956960206 -0.1754902674945842
vn -0.582632169441541 0.627047186319888 -0.5170605199202073
vn -0.9808360411285183 0.19477203558933381 0.004951219619710822
vn -0.5199311757751134 0.2886798825601399 -0.8039499349226741
vn -0.5587495045143022 0.20442805835266858 -0.8037463282424249
vn -0.5558392128683658 0.8312851271014274 0.0027940826472186687
vn -0.4773971244631208 0.7100597891087236 -0.5175974125178937
vn -0.46841346200067696 0.36582576693302665 -0.8042141113313066
vn -0.9660235766713232 0.19165290795737144 -0.17340015048040683
vn -0.8404136858905209 0.1663690240061367 -0.5157772624100007
vn -0.583893208236191 0.11514194894946764 -0.8036237010988203
vn -0.41315357608449377 0.8934561146978828 -0.176182557813077
vn -0.36048012851241695 0.7755839151743918 -0.5181926933780845
vn -0.4054731002243936 0.4339599826969307 -0.8045311046889974
vn -0.9992293075534898 0.038928006246816575 0.005039965855129467
vn -0.2521195914323903 0.13838393832256896 -0.9577502791596043
vn -0.27073512346064155 0.09799803219128064 -0.9576527964828316
vn -0.2827841032184514 0.05519499581207963 -0.957594206020609
vn -0.4189695786476358 0.9079978207258358 0.0021094371181153092
vn -0.33264240810432444 0.4914121754319663 -0.8048994360588024
vn -0.22741908406109418 0.17536091358470554 -0.9578773983091731
vn -0.9841238150620647 0.038304999104869585 -0.17330044336718445
vn -0.8561268786452604 0.0332530085262885 -0.515694682040715
vn -0.5947498535646921 0.02301300454383746 -0.8035813669483896
vn -0.2879791720804974 0.011029998146667958 -0.9575731489493196
vn -0.2683008205812398 0.9469477546586522 -0.17693111547257637
vn -0.23474216323380606 0.8220146700885884 -0.5188333055611046
vn -0.2517312614833137 0.5367652174473908 -0.8053039633148931
vn -0.19725474079772343 0.20802603724529686 -0.9580270012170019
vn -0.9930175962092018 -0.11786002522558388 0.005006802644730867
vn -0.24039397840391213 -0.15751202080348048 -0.957810366643389
vn -0.2621368718924727 -0.11872003710351983 -0.9577002731463369
vn -0.27753891545207754 -0.07700803305335673 -0.9576230538447463
vn -0.28621716562866023 -0.03339998529889971 -0.9575824638544345
vn -0.2717571313177092 0.9623648927680166 0.001369213487148509
vn -0.1647145417935312 0.5689112641765668 -0.8057351259655792
vn -0.16234457380310752 0.23557213054987036 -0.9582014457643455
vn -0.005037757643250157 0 -0.9999873104184511
vn -0.9780111235752371 -0.11597396365712875 -0.17333286450283278
vn -0.8508195675357693 -0.10067699452810491 -0.5157229937389204
vn -0.5910762142470916 -0.06967700218973934 -0.8036006622179809
vn -0.11686370944867448 0.9771227666171864 -0.17769066484278573
vn -0.10328818277013274 0.848204079195122 -0.5195010984943137
vn -0.07373436006728828 0.5870436719548042 -0.8061904063949705
vn -0.12355538091680393 0.25730498330939794 -0.9583987757768964
vn -0.9623545233910444 -0.2717539172345036 0.004855901203521312
vn -0.4954784829965077 -0.3285911197552198 -0.8040702387885589
vn -0.5408346875275496 -0.24766908909785643 -0.8038394510550074
vn -0.5729624092516908 -0.16065005269226212 -0.8036825481211292
vn -0.11785110242903306 0.993031100032993 0.000593315704874796
vn -0.08184235968602352 0.27271196060825975 -0.9586083739996341
vn 0.9930938612618734 -0.11721596412131238 -0.0050000479091597645
vn 0.9992289920517848 -0.038937015572609396 -0.005032917789174513
vn -0.6188271037638766 -0.7855210380298236 0.003116802810648868
vn -0.9478368800978887 -0.26740210741892434 -0.17349743996445213
vn -0.8246243328073354 -0.23212397189245818 -0.5158615816427177
vn -0.4380190541384751 -0.40141485802661464 -0.8043664711853101
vn -0.212854081291064 -0.1924270616977064 -0.9579483107162537
vn 0.9930171517964917 0.11786392173290129 -0.005003218136762845
vn 0.037407556830393734 0.9832331514793692 -0.17847477279416524
vn 0.03063721902041682 0.8535073800562522 -0.5201793085083329
vn 0.018954989436763516 0.5907181944688918 -0.8066552690578948
vn -0.03822881833945894 0.281421019443238 -0.9588225942602194
vn -0.907993086582036 -0.41896009316395677 0.0045820361495787065
vn -0.7126650578120286 -0.4747799513528617 -0.5164228046544345
vn -0.6296534547996346 -0.5800091192063865 -0.5168422859019146
vn -0.7781929588813252 -0.3578600200428456 -0.5160929420196154
vn 0.03892511098003537 0.9992421115149263 -0.0001957303850119341
vn -0.34642499186317266 0.9380760520683815 0.0017451499647822674
vn 0.11389431352110442 -0.25731505397608406 -0.9595921260331606
vn 0.618828591525896 0.7855198552310605 -0.003119510834947661
vn -0.8943453959562582 -0.412248982965254 -0.17377309566200844
vn -0.3698801807902821 -0.46435810803989186 -0.8047112521620164
vn -0.5311973563247308 -0.6709607748937042 -0.5173403204735322
vn 0.9623550898953745 0.2717520504760457 -0.004848093906901156
vn 0.19074630823216662 0.9651311762107709 -0.1792697927756185
vn 0.16374415326887165 0.8377967625960785 -0.5208497257883415
vn 0.11108012380819102 0.5798510060704601 -0.807114624358791
vn 0.006203995653768913 0.2831829983946354 -0.9590458278195845
vn 0.34642342616618965 -0.9380766300629872 -0.0017452601375787205
vn 0.07217594198105418 -0.2727049105185797 -0.959386608817426
vn 0.1526913733229897 -0.23558695910941077 -0.9597833761898151
vn -0.8312759375637013 -0.5558441537859793 0.004194321105755844
vn -0.8188588022826802 -0.5469388465349975 -0.17414982077263527
vn -0.723231301494622 -0.6681649921948308 -0.17461966597058057
vn -0.18019821299793803 -0.2226050687059522 -0.9581104254827666
vn 0.9079935160760505 0.4189592476609196 -0.004574228158618665
vn 0.1947630335615717 0.9808498380219806 -0.0009777577144981478
vn 0.11784264371118483 -0.9930321034635238 -0.0005939814544973925
vn -0.11786170121314192 0.9930298422075706 0.0005931882934769638
vn 0.24360537877170288 -0.5367738838633468 -0.807793424729215
vn 0.3245236094811049 -0.4914258302888217 -0.8081986638285772
vn 0.18760472219853952 -0.20803906554053367 -0.9599605280519768
vn -0.9930939430388651 0.11721499804268534 0.005006449178047834
vn -0.9992291407516611 0.03893301704154981 0.005034327833904018
vn -0.2927400901700828 -0.5158781175077628 -0.8050919248656384
vn -0.41972329364958183 -0.7453842365741862 -0.51791379266695
vn -0.6098180042251818 -0.7729361272094518 -0.1751905961439433
vn 0.3393644204004432 0.9232693910919189 -0.18001505947844595
vn 0.2927472856649039 0.8014570531506299 -0.5215032297991449
vn 0.20036233681925475 0.5546888713238451 -0.8075736437092325
vn 0.05036272500275954 0.27795000383223545 -0.9592744087590144
vn 0.028566182058182246 -0.2813958667544458 -0.959166481595418
vn 0.15658870640522038 -0.5689119470431182 -0.8073531900834651
vn 0.39735854164669787 -0.433970984063284 -0.8085637726064374
vn 0.2177717691058484 -0.17536800102239564 -0.9601153684833496
vn -0.14322315116482548 -0.2473079636155606 -0.9582932224025912
vn -0.7340898187807995 -0.679042276912139 0.00370460906859709
vn 0.8312701207945905 0.5558528977058448 -0.0041883631841678395
vn 0.3458060918715532 0.9383043878664957 -0.0017385439319641492
vn -0.03892868566595857 -0.9992419721741091 0.00019615788991990366
vn 0.03892727794757323 0.9992420269935244 -0.0001962688586015907
vn 0.229505854338386 -0.8220157460547147 -0.5211690474908485
vn 0.47215673665424346 -0.7100619550509493 -0.522379207110351
vn 0.5773903003926745 -0.6270438882103121 -0.5229114679088143
vn 0.4602994671038496 -0.3658310356966968 -0.808883214008669
vn -0.9930170511273043 -0.11786494929344891 0.004998989746479645
vn 0.23071369001684947 0.15750501763465632 -0.9601892327342126
vn -0.20849526612818187 -0.5547008988353234 -0.8055039645050935
vn -0.29798844916116085 -0.8014567569558709 -0.5185267118445338
vn -0.48140259104986216 -0.8586763982645099 -0.1758590014584632
vn -0.6188337535933024 -0.7855158126882783 0.003113427419720811
vn 0.7340939234225661 0.6790378685257192 -0.00369928399985574
vn 0.4796103911128209 0.8586748348897253 -0.18069698576265733
vn 0.4144870661624798 0.7453857706425975 -0.5221116019660559
vn 0.2846052941985382 0.5158687922653535 -0.8080094155892299
vn 0.0931595674265369 0.26588306693700087 -0.9594933505309324
vn -0.19474004855647542 -0.9808543978316819 0.0009817038607975773
vn 0.06560896795340888 -0.587043950204586 -0.8068921017411708
vn 0.35524069051573226 -0.7755850516683145 -0.5217967798200406
vn 0.09804820812747182 -0.8482135041778326 -0.5205001442971501
vn 0.6683340206359768 -0.5285898146444638 -0.5233760070109073
vn 0.5118023070430552 -0.2886861285443116 -0.809146907360773
vn 0.24245251177319732 -0.13838404861764622 -0.9602430081094351
vn -0.1028318473325192 -0.26590880664368394 -0.9584978444021214
vn 0.4883338239292855 0.8726534365515358 -0.0024609106843492884
vn -0.34580200946443 -0.9383058839386067 0.0017431054334874996
vn 0.19475836134218272 0.9808507618440694 -0.0009816706253558067
vn -0.015862610161554998 -0.2831630357967655 -0.9589405991807951
vn 0.26650731246562187 -0.9469461180875025 -0.17962990241427265
vn 0.11506667645726919 -0.9771223007343509 -0.17886215188431245
vn 0.41135677435324847 -0.893456173649925 -0.1803376554148513
vn 0.5460352232804944 -0.8179753098405171 -0.18100256193858344
vn 0.7720274752401642 -0.6089258605614741 -0.18216166944164083
vn 0.7427605143414374 -0.4171232455868058 -0.523750910573311
vn -0.9623548235073145 -0.2717530692507075 0.004843864678719588
vn 0.2524633472404939 0.11871700582502787 -0.9602960641531684
vn -0.11920763008993251 -0.5798559406152166 -0.8059507609411286
vn 0.6188334828849884 0.785516011752498 -0.003117008322767875
vn -0.3411598011851352 -0.9232700826174421 -0.17658523324134595
vn -0.488330657099524 -0.8726552419375909 0.002449092810011386
vn 0.6080230775420545 0.7729352096722304 -0.18132594636519558
vn 0.5259636555257736 0.6709618155361836 -0.5226590429317699
vn 0.13354354268782795 0.24728403661077503 -0.9596961641289733
vn -0.02708019893281131 -0.5907208604023396 -0.8064214331919006
vn -0.03587592495041255 -0.8535162733382035 -0.5198296732159654
vn -0.0392037620895187 -0.9832330593622062 -0.17808934840485238
vn 0.6672573478749109 -0.7223439786254807 -0.18162270852085455
vn 0.8577676109735873 -0.48051500637114847 -0.1825925908047742
vn 0.5506161528575366 -0.2044299344131637 -0.8093393936589245
vn 0.7988468256216456 -0.29537884348898297 -0.524018213436643
vn 0.20318138933888594 0.19240996216325784 -0.9600498578129438
vn 0.2610429002439766 -0.09799199317049748 -0.9603406549275556
vn 0.5326984984999833 0.24766391838558857 -0.8092557650247294
vn -0.060025254590379794 -0.2779550978286766 -0.9587168155416962
vn -0.16898350660050643 -0.8377998299459212 -0.5191685847964823
vn 0.6188336801190771 0.7855158395784368 -0.0031212372007415013
vn 0.36175062321609247 0.46435089087151665 -0.8084025833392651
vn -0.4883272459198972 -0.8726571181324747 0.0024607041699886982
vn 0.3458034784242688 0.9383053453911996 -0.001741585478244826
vn 0.27176000439595577 -0.9623640817653429 -0.001368991840192909
vn 0.11785046194775063 -0.9930311755892776 -0.0005940761561181834
vn -0.038924462510106 -0.9992421366263866 0.00019649079600030979
vn 0.4189685966423619 -0.9079982670278016 -0.002112368821759461
vn 0.5558349002729701 -0.8312879785440417 -0.002803634551448126
vn 0.6790305780087296 -0.7341019999067689 -0.0034245966204471483
vn 0.8726446746504436 -0.48833588657619004 -0.004397008763661869
vn 0.9223679349809564 -0.3402648602399802 -0.18291314169526693
vn -0.9079922031648517 -0.41896214632150763 0.004569348040381758
vn 0.48733664809134014 0.32858493167701347 -0.8090333331216396
vn 0.26788758261717355 0.0770110047760299 -0.9603674027282023
vn 0.564844480611048 0.16064999204268457 -0.8094086068111216
vn 0.4883291585361831 0.8726560542853169 -0.0024584227719150063
vn -0.34580442922981214 -0.9383050030279103 0.001737244322812377
vn -0.19254207566517603 -0.965131958271073 -0.1773354229204912
vn 0.7214304937223398 0.6681692241190291 -0.18190088143743405
vn 0.6244120868909218 0.5800110777255496 -0.5231602961427502
vn 0.17052242150699526 0.222587000598091 -0.9598839153398372
vn -0.19476262156378807 -0.9808499162550376 0.0009813379061723562
vn 0.7855074251375929 -0.618839549967666 -0.003961874496454735
vn 0.9382948931271733 -0.34580400057524485 -0.004720881021845698
vn 0.5757732407853953 -0.1151359979076337 -0.8094620912564693
vn 0.8351876707028373 -0.16636394957268233 -0.5241989994158204
vn 0.9642277605277803 -0.19164899876175584 -0.18312696989028718
vn 0.4298877517321324 0.40140409284558004 -0.8087467311572331
vn 0.273105500410203 -0.055187986213463505 -0.9603997458472151
vn 0.7729554212974376 0.35785211484406615 -0.5239100882675672
vn 0.8193911959391579 0.2321199884430941 -0.5241358402003955
vn 0.7340864942421036 0.679045927651395 -0.003694199696039483
vn -0.6188298163006172 -0.78551890199042 0.0031165803550617195
vn 0.9808364982770572 -0.19477002267317958 -0.004939829500026012
vn -0.8312756765086422 -0.5558446300574517 0.004182927371331422
vn 0.7074184802300428 0.4747798363735671 -0.52358686079972
vn 0.27658259074552227 0.03340200467911994 -0.960409483803607
vn 0.5829726328891641 0.0696790041968012 -0.8094984531649322
vn 0.8455811732665856 0.10067903573970473 -0.5242673088984549
vn 0.8170603006563886 0.5469419344260416 -0.18239239418789274
vn -0.7340957776232626 -0.679035884079757 0.0036955930133089703
vn 0.5866426890696284 -0.023013000784064628 -0.8095188429901233
vn 0.8508893228862546 -0.03325401279759325 -0.524291455996594
vn 0.9823248257582795 -0.03830999082290029 -0.18322194547082762
vn 0.999229023481085 -0.038935016161344524 -0.0050421373992565795
vn 0.27833250804788506 -0.011029993838073817 -0.960421446136906
vn 0.8925537546370967 0.4122419565313552 -0.18276860878832962
vn 0.9460428662400879 0.26739807026032286 -0.18303324085338832
vn 0.9762124054852465 0.11597906092596226 -0.18318896474253224
vn 0.8312749499469839 0.555845811973513 -0.004170240058483458
vn 0.9930167586391062 0.11786698972753867 -0.005008971396557498
vn 0.9079961155393323 0.4189538102212986 -0.004556211862869985
vn 0.9623551365507046 0.27175197425571374 -0.004843102579585326
usemtl material_0_0
f 1//1 2//2 3//3
f 2//2 1//1 4//4
f 5//5 3//3 2//2
f 6//6 4//4 1//1
f 7//7 2//2 4//4
f 3//3 5//5 8//8
f 9//9 5//5 2//2
f 4//4 6//6 10//10
f 2//2 7//7 9//9
f 4//4 11//11 7//7
f 12//12 8//8 5//5
f 5//5 9//9 13//13
f 14//14 10//10 6//6
f 11//11 4//4 10//10
f 15//15 9//9 7//7
f 16//16 7//7 11//11
f 8//8 12//12 17//17
f 5//5 18//18 12//12
f 19//19 13//13 9//9
f 18//18 5//5 13//13
f 10//10 14//14 20//20
f 10//10 21//21 11//11
f 9//9 15//15 19//19
f 7//7 16//16 15//15
f 11//11 22//22 16//16
f 23//23 17//17 12//12
f 24//24 12//12 18//18
f 13//13 19//19 25//25
f 25//25 18//18 13//13
f 26//26 20//20 14//14
f 21//21 10//10 20//20
f 22//22 11//11 21//21
f 27//27 19//19 15//15
f 28//28 15//15 16//16
f 29//29 16//16 22//22
f 17//17 23//23 30//30
f 12//12 24//24 23//23
f 31//31 24//24 18//18
f 32//32 25//25 19//19
f 18//18 25//25 31//31
f 20//20 26//26 33//33
f 20//20 34//34 21//21
f 21//21 35//35 22//22
f 19//19 27//27 32//32
f 15//15 28//28 27//27
f 16//16 29//29 28//28
f 22//22 36//36 29//29
f 37//37 30//30 23//23
f 38//38 23//23 24//24
f 24//24 31//31 39//39
f 25//25 32//32 40//40
f 40//40 31//31 25//25
f 41//41 33//33 26//26
f 34//34 20//20 33//33
f 35//35 21//21 34//34
f 36//36 22//22 35//35
f 27//27 42//42 32//32
f 28//28 43//43 27//27
f 29//29 44//44 28//28
f 45//45 29//29 36//36
f 30//30 37//37 46//46
f 23//23 38//38 37//37
f 24//24 47//47 38//38
f 48//48 39//39 31//31
f 47//47 24//24 39//39
f 32//32 49//49 40//40
f 31//31 40//40 48//48
f 33//33 41//41 50//50
f 50//50 34//34 33//33
f 51//51 35//35 34//34
f 52//52 36//36 35//35
f 27//27 43//43 42//42
f 32//32 42//42 53//49
f 28//28 44//44 43//43
f 29//29 45//45 44//44
f 36//36 52//52 45//45
f 54//53 46//46 37//37
f 55//54 37//37 38//38
f 56//55 38//38 47//47
f 39//39 48//48 57//56
f 57//56 47//47 39//39
f 49//49 32//32 53//49
f 40//40 49//49 58//49
f 40//40 58//49 48//48
f 59//57 50//50 41//41
f 34//34 50//50 51//51
f 35//35 51//51 52//52
f 43//43 60//58 42//42
f 53//49 42//42 61//49
f 44//44 62//59 43//43
f 45//45 63//60 44//44
f 63//60 45//45 52//52
f 46//46 54//53 64//61
f 37//37 55//54 54//53
f 38//38 56//55 55//54
f 65//62 56//55 47//47
f 48//48 66//49 57//56
f 47//47 57//56 65//62
f 53//63 67//64 49//64
f 67//65 58//65 49//65
f 48//48 58//49 66//49
f 50//50 59//57 68//66
f 68//66 51//51 50//50
f 69//67 52//52 51//51
f 60//58 43//43 62//59
f 70//68 42//42 60//58
f 61//49 42//42 71//69
f 61//70 72//63 53//63
f 62//59 44//44 63//60
f 52//52 69//67 63//60
f 73//71 64//61 54//53
f 74//72 54//53 55//54
f 75//73 55//54 56//55
f 56//55 65//62 76//74
f 66//49 65//62 57//56
f 67//64 53//63 72//63
f 58//65 67//65 77//65
f 66//49 58//49 78//49
f 79//75 68//66 59//57
f 51//51 68//66 69//67
f 62//59 80//76 60//58
f 42//42 70//68 71//69
f 60//58 81//77 70//68
f 61//49 71//69 82//49
f 72//63 61//70 83//70
f 63//60 84//78 62//59
f 84//78 63//60 69//67
f 64//61 73//71 85//79
f 54//53 74//72 73//71
f 55//54 75//73 74//72
f 76//74 75//73 56//55
f 65//62 86//49 76//74
f 65//62 66//49 86//49
f 87//80 58//81 77//81
f 78//49 58//49 88//82
f 78//83 89//83 66//83
f 68//66 79//75 90//84
f 90//84 69//67 68//66
f 80//76 62//59 84//78
f 81//77 60//58 80//76
f 91//85 71//69 70//68
f 92//86 70//68 81//77
f 82//49 71//69 93//49
f 82//87 83//70 61//70
f 69//67 90//84 84//78
f 94//88 85//79 73//71
f 95//89 73//71 74//72
f 96//90 74//72 75//73
f 75//73 76//74 97//91
f 76//74 86//49 98//49
f 89//92 86//93 66//92
f 58//81 87//80 99//80
f 58//49 100//94 88//82
f 78//49 88//82 101//95
f 89//83 78//83 102//83
f 103//96 90//84 79//75
f 84//78 104//97 80//76
f 80//76 105//98 81//77
f 71//69 91//85 106//99
f 70//68 92//86 91//85
f 105//98 92//86 81//77
f 93//49 71//69 106//99
f 93//100 107//87 82//87
f 83//70 82//87 107//87
f 104//97 84//78 90//84
f 85//79 94//88 108//101
f 73//71 95//89 94//88
f 74//72 96//90 95//89
f 97//91 96//90 75//73
f 76//74 98//49 97//91
f 109//93 98//102 86//93
f 86//93 89//92 109//93
f 110//103 99//80 87//80
f 99//49 100//94 58//49
f 100//94 111//104 88//82
f 88//82 112//105 101//95
f 78//49 101//95 113//106
f 114//107 102//108 78//108
f 90//84 103//96 104//97
f 105//98 80//76 104//97
f 115//109 106//99 91//85
f 116//110 91//85 92//86
f 92//86 105//98 117//111
f 93//49 106//99 118//49
f 107//87 93//100 119//100
f 120//112 108//101 94//88
f 121//113 94//88 95//89
f 122//114 95//89 96//90
f 96//90 97//91 123//115
f 97//91 98//49 124//49
f 98//102 109//93 125//102
f 99//80 110//103 126//103
f 99//49 127//116 100//94
f 111//104 100//94 128//117
f 112//105 88//82 111//104
f 129//118 101//95 112//105
f 101//95 129//118 113//106
f 78//49 113//106 130//119
f 102//108 114//107 131//107
f 78//49 130//119 114//49
f 103//96 105//98 104//97
f 106//99 115//109 132//120
f 91//85 116//110 115//109
f 117//111 116//110 92//86
f 133//121 117//111 105//98
f 118//49 106//99 134//49
f 118//122 119//100 93//100
f 108//101 120//112 135//123
f 94//88 121//113 120//112
f 95//89 122//114 121//113
f 123//115 122//114 96//90
f 97//91 136//49 123//115
f 125//102 124//124 98//102
f 97//91 124//49 136//49
f 137//125 126//103 110//103
f 126//49 127//116 99//49
f 127//116 128//117 100//94
f 138//126 111//104 128//117
f 111//104 139//127 112//105
f 112//105 140//128 129//118
f 141//129 113//106 129//118
f 113//106 141//129 130//119
f 142//130 131//107 114//107
f 143//131 114//49 130//119
f 105//98 103//96 133//121
f 144//132 132//120 115//109
f 134//49 106//99 132//120
f 145//133 115//109 116//110
f 116//110 117//111 146//134
f 117//111 133//121 147//135
f 134//136 148//122 118//122
f 119//100 118//122 148//122
f 149//137 135//123 120//112
f 150//138 120//112 121//113
f 151//139 121//113 122//114
f 122//114 123//115 152//140
f 123//115 136//49 153//49
f 124//124 125//102 154//124
f 154//124 136//141 124//124
f 126//103 137//125 155//125
f 155//49 127//116 126//49
f 128//117 127//116 156//142
f 111//104 138//126 157//143
f 128//117 158//144 138//126
f 139//127 111//104 157//143
f 140//128 112//105 139//127
f 159//145 129//118 140//128
f 129//118 159//145 141//129
f 160//146 130//119 141//129
f 131//107 142//130 161//130
f 143//131 142//49 114//49
f 143//131 130//119 162//147
f 132//120 144//132 163//148
f 115//109 145//133 144//132
f 134//49 132//120 164//49
f 146//134 145//133 116//110
f 147//135 146//134 117//111
f 148//122 134//136 165//136
f 135//123 149//137 166//149
f 120//112 150//138 149//137
f 121//113 151//139 150//138
f 152//140 151//139 122//114
f 123//115 153//49 152//140
f 167//141 153//150 136//141
f 136//141 154//124 167//141
f 168//151 155//125 137//125
f 155//49 169//152 127//116
f 169//152 156//142 127//116
f 158//144 128//117 156//142
f 170//153 157//143 138//126
f 171//154 138//126 158//144
f 172//155 139//127 157//143
f 173//156 140//128 139//127
f 140//128 174//157 159//145
f 175//158 141//129 159//145
f 130//119 160//146 162//147
f 141//129 175//158 160//146
f 176//159 161//130 142//130
f 143//131 176//49 142//49
f 143//131 162//147 177//160
f 178//161 163//148 144//132
f 164//49 132//120 163//148
f 145//133 178//161 144//132
f 164//162 165//136 134//136
f 145//133 146//134 179//163
f 146//134 147//135 180//164
f 181//165 166//149 149//137
f 182//166 149//137 150//138
f 151//139 182//166 150//138
f 151//139 152//140 183//167
f 152//140 153//49 184//49
f 153//150 167//141 185//150
f 155//125 168//151 186//151
f 186//49 169//152 155//49
f 156//142 169//152 187//168
f 156//142 188//169 158//144
f 157//143 170//153 172//155
f 138//126 171//154 170//153
f 158//144 189//170 171//154
f 139//127 172//155 173//156
f 140//128 173//156 190//171
f 174//157 140//128 190//171
f 191//172 159//145 174//157
f 159//145 191//172 175//158
f 192//173 162//147 160//146
f 193//174 160//146 175//158
f 161//130 176//159 194//159
f 195//175 176//49 143//131
f 177//160 162//147 196//176
f 197//177 143//131 177//160
f 163//148 178//161 198//178
f 164//49 163//148 199//49
f 178//161 145//133 200//179
f 165//136 164//162 201//162
f 180//164 179//163 146//134
f 179//163 200//179 145//133
f 166//149 181//165 202//180
f 149//137 182//166 181//165
f 182//166 151//139 203//181
f 152//140 184//49 183//167
f 183//167 203//181 151//139
f 185//150 184//182 153//150
f 204//183 186//151 168//151
f 186//49 198//178 169//152
f 198//178 187//168 169//152
f 188//169 156//142 187//168
f 189//170 158//144 188//169
f 205//184 172//155 170//153
f 206//185 170//153 171//154
f 207//186 171//154 189//170
f 208//187 173//156 172//155
f 209//188 190//171 173//156
f 210//189 174//157 190//171
f 174//157 211//190 191//172
f 212//191 175//158 191//172
f 162//147 192//173 196//176
f 160//146 193//174 192//173
f 175//158 212//191 193//174
f 213//192 194//159 176//159
f 195//175 213//49 176//49
f 214//193 195//175 143//131
f 177//160 196//176 215//194
f 143//131 197//177 214//193
f 177//160 216//195 197//177
f 187//168 198//178 178//161
f 217//49 163//148 198//178
f 199//49 163//148 217//49
f 199//196 201//162 164//162
f 200//179 187//168 178//161
f 179//163 180//164 218//197
f 200//179 179//163 219//198
f 220//199 202//180 181//165
f 182//166 220//199 181//165
f 203//181 221//200 182//166
f 183//167 184//49 222//49
f 203//181 183//167 223//201
f 184//182 185//150 224//182
f 186//151 204//183 217//183
f 217//49 198//178 186//49
f 187//168 200//179 188//169
f 188//169 219//198 189//170
f 172//155 205//184 208//187
f 170//153 206//185 205//184
f 171//154 207//186 206//185
f 189//170 225//202 207//186
f 173//156 208//187 209//188
f 190//171 209//188 210//189
f 174//157 210//189 226//203
f 211//190 174//157 226//203
f 227//204 191//172 211//190
f 191//172 227//204 212//191
f 228//205 196//176 192//173
f 229//206 192//173 193//174
f 230//207 193//174 212//191
f 194//159 213//192 231//192
f 195//175 232//49 213//49
f 195//175 214//193 233//208
f 215//194 196//176 234//209
f 216//195 177//160 215//194
f 235//210 214//193 197//177
f 236//211 197//177 216//195
f 217//183 237//196 199//196
f 201//162 199//196 237//196
f 218//197 219//198 179//163
f 219//198 188//169 200//179
f 202//180 220//199 238//212
f 220//199 182//166 221//200
f 221//200 203//181 233//208
f 224//182 222//213 184//182
f 183//167 222//49 239//49
f 183//167 239//49 223//201
f 223//201 233//208 203//181
f 237//196 217//183 204//183
f 225//202 189//170 219//198
f 240//214 212//191 227//204
f 196//176 228//205 234//209
f 192//173 229//206 228//205
f 193//174 230//207 229//206
f 212//191 240//214 230//207
f 232//215 231//192 213//192
f 223//201 232//49 195//175
f 241//216 233//208 214//193
f 233//208 223//201 195//175
f 215//194 234//209 242//217
f 215//194 243//218 216//195
f 214//193 235//210 241//216
f 197//177 236//211 235//210
f 216//195 244//219 236//211
f 219//198 218//197 225//202
f 245//220 238//212 220//199
f 221//200 245//220 220//199
f 233//208 241//216 221//200
f 222//213 224//182 246//213
f 246//213 239//221 222//213
f 223//201 239//49 232//49
f 247//222 234//209 228//205
f 248//223 228//205 229//206
f 249//224 229//206 230//207
f 250//225 230//207 240//214
f 231//192 232//215 251//215
f 242//217 234//209 252//226
f 243//218 215//194 242//217
f 244//219 216//195 243//218
f 253//227 241//216 235//210
f 254//228 235//210 236//211
f 255//229 236//211 244//219
f 238//212 245//220 256//230
f 245//220 221//200 241//216
f 239//221 246//213 257//221
f 257//221 232//215 239//221
f 234//209 247//222 252//226
f 228//205 248//223 247//222
f 229//206 249//224 248//223
f 230//207 250//225 249//224
f 232//215 257//221 251//215
f 247//222 242//217 252//226
f 242//217 247//222 243//218
f 243//218 248//223 244//219
f 241//216 253//227 245//220
f 235//210 254//228 253//227
f 236//211 255//229 254//228
f 244//219 249//224 255//229
f 253//227 256//230 245//220
f 248//223 243//218 247//222
f 249//224 244//219 248//223
f 258//231 249//224 250//225
f 254//228 259//232 253//227
f 255//229 260//233 254//228
f 249//224 258//231 255//229
f 256//230 253//227 259//232
f 259//232 254//228 260//233
f 260//233 255//229 258//231
usemtl material_1_0
f 3//234 2//235 1//236
f 4//237 1//236 2//235
f 2//235 3//234 5//238
f 1//236 4//237 6//239
f 4//237 2//235 7//240
f 8//241 5//238 3//234
f 2//235 5//238 9//242
f 10//243 6//239 4//237
f 9//242 7//240 2//235
f 7//240 11//244 4//237
f 5//238 8//241 12//245
f 13//246 9//242 5//238
f 6//239 10//243 14//247
f 10//243 4//237 11//244
f 7//240 9//242 15//248
f 11//244 7//240 16//249
f 17//250 12//245 8//241
f 12//245 18//251 5//238
f 9//242 13//246 19//252
f 13//246 5//238 18//251
f 20//253 14//247 10//243
f 11//244 21//254 10//243
f 19//252 15//248 9//242
f 15//248 16//249 7//240
f 16//249 22//255 11//244
f 12//245 17//250 23//256
f 18//251 12//245 24//257
f 25//258 19//252 13//246
f 13//246 18//251 25//258
f 14//247 20//253 26//259
f 20//253 10//243 21//254
f 21//254 11//244 22//255
f 15//248 19//252 27//260
f 16//249 15//248 28//261
f 22//255 16//249 29//262
f 30//263 23//256 17//250
f 23//256 24//257 12//245
f 18//251 24//257 31//264
f 19//252 25//258 32//265
f 31//264 25//258 18//251
f 33//266 26//259 20//253
f 21//254 34//267 20//253
f 22//255 35//268 21//254
f 32//265 27//260 19//252
f 27//260 28//261 15//248
f 28//261 29//262 16//249
f 29//262 36//269 22//255
f 23//256 30//263 37//270
f 24//257 23//256 38//271
f 39//272 31//264 24//257
f 40//273 32//265 25//258
f 25//258 31//264 40//273
f 26//259 33//266 41//274
f 33//266 20//253 34//267
f 34//267 21//254 35//268
f 35//268 22//255 36//269
f 32//265 42//275 27//260
f 27//260 43//276 28//261
f 28//261 44//277 29//262
f 36//269 29//262 45//278
f 46//279 37//270 30//263
f 37//270 38//271 23//256
f 38//271 47//280 24//257
f 31//264 39//272 48//281
f 39//272 24//257 47//280
f 40//273 49//282 32//265
f 48//281 40//273 31//264
f 50//283 41//274 33//266
f 33//266 34//267 50//283
f 34//267 35//268 51//284
f 35//268 36//269 52//285
f 42//275 43//276 27//260
f 53//282 42//275 32//265
f 43//276 44//277 28//261
f 44//277 45//278 29//262
f 45//278 52//285 36//269
f 37//270 46//279 54//286
f 38//271 37//270 55//287
f 47//280 38//271 56//288
f 57//289 48//281 39//272
f 39//272 47//280 57//289
f 53//282 32//265 49//282
f 58//282 49//282 40//273
f 48//281 58//282 40//273
f 41//274 50//283 59//290
f 51//284 50//283 34//267
f 52//285 51//284 35//268
f 42//275 60//291 43//276
f 61//282 42//275 53//282
f 43//276 62//292 44//277
f 44//277 63//293 45//278
f 52//285 45//278 63//293
f 64//294 54//286 46//279
f 54//286 55//287 37//270
f 55//287 56//288 38//271
f 47//280 56//288 65//295
f 57//289 66//282 48//281
f 65//295 57//289 47//280
f 49//296 67//296 53//297
f 49//298 58//298 67//298
f 66//282 58//282 48//281
f 68//299 59//290 50//283
f 50//283 51//284 68//299
f 51//284 52//285 69//300
f 62//292 43//276 60//291
f 60//291 42//275 70//301
f 71//302 42//275 61//282
f 53//297 72//297 61//303
f 63//293 44//277 62//292
f 63//293 69//300 52//285
f 54//286 64//294 73//304
f 55//287 54//286 74//305
f 56//288 55//287 75//306
f 76//307 65//295 56//288
f 57//289 65//295 66//282
f 72//297 53//297 67//296
f 77//298 67//298 58//298
f 78//282 58//282 66//282
f 59//290 68//299 79//308
f 69//300 68//299 51//284
f 60//291 80//309 62//292
f 71//302 70//301 42//275
f 70//301 81//310 60//291
f 82//282 71//302 61//282
f 83//303 61//303 72//297
f 62//292 84//311 63//293
f 69//300 63//293 84//311
f 85//312 73//304 64//294
f 73//304 74//305 54//286
f 74//305 75//306 55//287
f 56//288 75//306 76//307
f 76//307 86//282 65//295
f 86//282 66//282 65//295
f 77//313 58//313 87//93
f 88//314 58//282 78//282
f 66//315 89//315 78//315
f 90//316 79//308 68//299
f 68//299 69//300 90//316
f 84//311 62//292 80//309
f 80//309 60//291 81//310
f 70//301 71//302 91//317
f 81//310 70//301 92//318
f 93//282 71//302 82//282
f 61//303 83//303 82//319
f 84//311 90//316 69//300
f 73//304 85//312 94//320
f 74//305 73//304 95//321
f 75//306 74//305 96//322
f 97//323 76//307 75//306
f 98//282 86//282 76//307
f 66//324 86//80 89//324
f 99//93 87//93 58//313
f 88//314 100//325 58//282
f 101//326 88//314 78//282
f 102//315 78//315 89//315
f 79//308 90//316 103//327
f 80//309 104//328 84//311
f 81//310 105//329 80//309
f 106//330 91//317 71//302
f 91//317 92//318 70//301
f 81//310 92//318 105//329
f 106//330 71//302 93//282
f 82//319 107//319 93//331
f 107//319 82//319 83//303
f 90//316 84//311 104//328
f 108//332 94//320 85//312
f 94//320 95//321 73//304
f 95//321 96//322 74//305
f 75//306 96//322 97//323
f 97//323 98//282 76//307
f 86//80 98//333 109//80
f 109//80 89//324 86//80
f 87//93 99//93 110//334
f 58//282 100//325 99//282
f 88//314 111//335 100//325
f 101//326 112//336 88//314
f 113//337 101//326 78//282
f 78//338 102//338 114//339
f 104//328 103//327 90//316
f 104//328 80//309 105//329
f 91//317 106//330 115//340
f 92//318 91//317 116//341
f 117//342 105//329 92//318
f 118//282 106//330 93//282
f 119//331 93//331 107//319
f 94//320 108//332 120//343
f 95//321 94//320 121//344
f 96//322 95//321 122//345
f 123//346 97//323 96//322
f 124//282 98//282 97//323
f 125//333 109//80 98//333
f 126//334 110//334 99//93
f 100//325 127//347 99//282
f 128//348 100//325 111//335
f 111//335 88//314 112//336
f 112//336 101//326 129//349
f 113//337 129//349 101//326
f 130//350 113//337 78//282
f 131//339 114//339 102//338
f 114//282 130//350 78//282
f 104//328 105//329 103//327
f 132//351 115//340 106//330
f 115//340 116//341 91//317
f 92//318 116//341 117//342
f 105//329 117//342 133//352
f 134//282 106//330 118//282
f 93//331 119//331 118//353
f 135//354 120//343 108//332
f 120//343 121//344 94//320
f 121//344 122//345 95//321
f 96//322 122//345 123//346
f 123//346 136//282 97//323
f 98//333 124//355 125//333
f 136//282 124//282 97//323
f 110//334 126//334 137//356
f 99//282 127//347 126//282
f 100//325 128//348 127//347
f 128//348 111//335 138//357
f 112//336 139//358 111//335
f 129//349 140//359 112//336
f 129//349 113//337 141//360
f 130//350 141//360 113//337
f 114//339 131//339 142//361
f 130//350 114//282 143//362
f 133//352 103//327 105//329
f 115//340 132//351 144//363
f 132//351 106//330 134//282
f 116//341 115//340 145//364
f 146//365 117//342 116//341
f 147//366 133//352 117//342
f 118//353 148//353 134//367
f 148//353 118//353 119//331
f 120//343 135//354 149//368
f 121//344 120//343 150//369
f 122//345 121//344 151//370
f 152//371 123//346 122//345
f 153//282 136//282 123//346
f 154//355 125//333 124//355
f 124//355 136//372 154//355
f 155//356 137//356 126//334
f 126//282 127//347 155//282
f 156//373 127//347 128//348
f 157//374 138//357 111//335
f 138//357 158//375 128//348
f 157//374 111//335 139//358
f 139//358 112//336 140//359
f 140//359 129//349 159//376
f 141//360 159//376 129//349
f 141//360 130//350 160//377
f 161//361 142//361 131//339
f 114//282 142//282 143//362
f 162//378 130//350 143//362
f 163//379 144//363 132//351
f 144//363 145//364 115//340
f 164//282 132//351 134//282
f 116//341 145//364 146//365
f 117//342 146//365 147//366
f 165//367 134//367 148//353
f 166//380 149//368 135//354
f 149//368 150//369 120//343
f 150//369 151//370 121//344
f 122//345 151//370 152//371
f 152//371 153//282 123//346
f 136//372 153//381 167//372
f 167//372 154//355 136//372
f 137//356 155//356 168//382
f 127//347 169//383 155//282
f 127//347 156//373 169//383
f 156//373 128//348 158//375
f 138//357 157//374 170//384
f 158//375 138//357 171//385
f 157//374 139//358 172//386
f 139//358 140//359 173//387
f 159//376 174//388 140//359
f 159//376 141//360 175//389
f 162//378 160//377 130//350
f 160//377 175//389 141//360
f 142//361 161//361 176//390
f 142//282 176//282 143//362
f 177//391 162//378 143//362
f 144//363 163//379 178//392
f 163//379 132//351 164//282
f 144//363 178//392 145//364
f 134//367 165//367 164//393
f 179//394 146//365 145//364
f 180//395 147//366 146//365
f 149//368 166//380 181//396
f 150//369 149//368 182//397
f 150//369 182//397 151//370
f 183//398 152//371 151//370
f 184//282 153//282 152//371
f 185//381 167//372 153//381
f 186//382 168//382 155//356
f 155//282 169//383 186//282
f 187//399 169//383 156//373
f 158//375 188//400 156//373
f 172//386 170//384 157//374
f 170//384 171//385 138//357
f 171//385 189//401 158//375
f 173//387 172//386 139//358
f 190//402 173//387 140//359
f 190//402 140//359 174//388
f 174//388 159//376 191//403
f 175//389 191//403 159//376
f 160//377 162//378 192//404
f 175//389 160//377 193//405
f 194//390 176//390 161//361
f 143//362 176//282 195//406
f 196//407 162//378 177//391
f 177//391 143//362 197//408
f 198//409 178//392 163//379
f 199//282 163//379 164//282
f 200//410 145//364 178//392
f 201//393 164//393 165//367
f 146//365 179//394 180//395
f 145//364 200//410 179//394
f 202//411 181//396 166//380
f 181//396 182//397 149//368
f 203//412 151//370 182//397
f 183//398 184//282 152//371
f 151//370 203//412 183//398
f 153//381 184//413 185//381
f 168//382 186//382 204//414
f 169//383 198//409 186//282
f 169//383 187//399 198//409
f 187//399 156//373 188//400
f 188//400 158//375 189//401
f 170//384 172//386 205//415
f 171//385 170//384 206//416
f 189//401 171//385 207//417
f 172//386 173//387 208//418
f 173//387 190//402 209//419
f 190//402 174//388 210//420
f 191//403 211//421 174//388
f 191//403 175//389 212//422
f 196//407 192//404 162//378
f 192//404 193//405 160//377
f 193//405 212//422 175//389
f 176//390 194//390 213//423
f 176//282 213//282 195//406
f 143//362 195//406 214//424
f 215//425 196//407 177//391
f 214//424 197//408 143//362
f 197//408 216//426 177//391
f 178//392 198//409 187//399
f 198//409 163//379 217//282
f 217//282 163//379 199//282
f 164//393 201//393 199//427
f 178//392 187//399 200//410
f 218//428 180//395 179//394
f 219//429 179//394 200//410
f 181//396 202//411 220//430
f 181//396 220//430 182//397
f 182//397 221//431 203//412
f 222//282 184//282 183//398
f 223//432 183//398 203//412
f 224//413 185//381 184//413
f 217//414 204//414 186//382
f 186//282 198//409 217//282
f 188//400 200//410 187//399
f 189//401 219//429 188//400
f 208//418 205//415 172//386
f 205//415 206//416 170//384
f 206//416 207//417 171//385
f 207//417 225//433 189//401
f 209//419 208//418 173//387
f 210//420 209//419 190//402
f 226//434 210//420 174//388
f 226//434 174//388 211//421
f 211//421 191//403 227//435
f 212//422 227//435 191//403
f 192//404 196//407 228//436
f 193//405 192//404 229//437
f 212//422 193//405 230//438
f 231//423 213//423 194//390
f 213//282 232//282 195//406
f 233//439 214//424 195//406
f 234//440 196//407 215//425
f 215//425 177//391 216//426
f 197//408 214//424 235//441
f 216//426 197//408 236//442
f 199//427 237//427 217//414
f 237//427 199//427 201//393
f 179//394 219//429 218//428
f 200//410 188//400 219//429
f 238//443 220//430 202//411
f 221//431 182//397 220//430
f 233//439 203//412 221//431
f 184//413 222//444 224//413
f 239//282 222//282 183//398
f 223//432 239//282 183//398
f 203//412 233//439 223//432
f 204//414 217//414 237//427
f 219//429 189//401 225//433
f 227//435 212//422 240//445
f 234//440 228//436 196//407
f 228//436 229//437 192//404
f 229//437 230//438 193//405
f 230//438 240//445 212//422
f 213//423 231//423 232//446
f 195//406 232//282 223//432
f 214//424 233//439 241//447
f 195//406 223//432 233//439
f 242//448 234//440 215//425
f 216//426 243//449 215//425
f 241//447 235//441 214//424
f 235//441 236//442 197//408
f 236//442 244//450 216//426
f 225//433 218//428 219//429
f 220//430 238//443 245//451
f 220//430 245//451 221//431
f 221//431 241//447 233//439
f 246//444 224//413 222//444
f 222//444 239//452 246//444
f 232//282 239//282 223//432
f 228//436 234//440 247//453
f 229//437 228//436 248//454
f 230//438 229//437 249//455
f 240//445 230//438 250//456
f 251//446 232//446 231//423
f 252//457 234//440 242//448
f 242//448 215//425 243//449
f 243//449 216//426 244//450
f 235//441 241//447 253//458
f 236//442 235//441 254//459
f 244//450 236//442 255//460
f 256//461 245//451 238//443
f 241//447 221//431 245//451
f 257//452 246//444 239//452
f 239//452 232//446 257//452
f 252//457 247//453 234//440
f 247//453 248//454 228//436
f 248//454 249//455 229//437
f 249//455 250//456 230//438
f 251//446 257//452 232//446
f 252//457 242//448 247//453
f 243//449 247//453 242//448
f 244//450 248//454 243//449
f 245//451 253//458 241//447
f 253//458 254//459 235//441
f 254//459 255//460 236//442
f 255//460 249//455 244//450
f 245//451 256//461 253//458
f 247//453 243//449 248//454
f 248//454 244//450 249//455
f 250//456 249//455 258//462
f 253//458 259//463 254//459
f 254//459 260//464 255//460
f 255//460 258//462 249//455
f 259//463 253//458 256//461
f 260//464 254//459 259//463
f 258//462 255//460 260//464
