# SSTK version 0.8.0
# 59
mtllib original-59.mtl
o mesh47/mesh47-geometry#mesh47-geometry
v 0.080980 0.429524 0.362944
v 0.082542 0.429555 0.362797
v 0.080682 0.441927 0.362464
v 0.082524 0.429546 0.362609
v 0.082308 0.439303 0.362414
v 0.080664 0.441918 0.362275
v 0.080962 0.429515 0.362756
v 0.082290 0.439295 0.362225
v 0.082355 0.441960 0.362318
v 0.082337 0.441951 0.362130
v 0.089066 0.429684 0.362184
v 0.089113 0.432340 0.362061
v 0.089049 0.429675 0.361995
v 0.090721 0.429708 0.361838
v 0.090739 0.429717 0.362026
v 0.089095 0.432331 0.361873
v 0.090441 0.442120 0.361624
v 0.088862 0.442080 0.361569
v 0.090424 0.442111 0.361436
v 0.088879 0.442089 0.361757
vn 0.09274859817693254 0.04075800386375727 0.9948550058462067
vn 0.09511011651332617 0.04110701395433342 0.9946176547500953
vn 0.09224365373574722 0.03881998927712485 0.9949794554552389
vn 0.09352328289382691 0.039925985430192316 0.9948162198336884
vn 0.08650779226338397 0.03424599768640918 0.9956623993704782
vn 0.08722479791978109 0.037940009140413476 0.9954659162092286
vn 0.09462788984405167 0.04411600240121223 0.9945347358417393
vn 0.08459116286335698 0.03914001313347296 0.9956467217529199
vn 0.08017361684316897 0.03360799190879312 0.9962141808075928
vn 0.0838397561689563 0.033097010860570986 0.9959294569183227
vn -0.09224365373574722 -0.03881998927712485 -0.9949794554552389
vn -0.09511011651332617 -0.04110701395433342 -0.9946176547500953
vn -0.09274859817693254 -0.04075800386375727 -0.9948550058462067
vn -0.02401655423772541 0.9986892735040779 -0.04519889501352167
vn -0.09352328289382691 -0.039925985430192316 -0.9948162198336884
vn 0.9953966571885914 0.02025799896540374 -0.09367554822735667
vn -0.9954054259071117 -0.020207005978344614 0.09359334903759252
vn -0.08650779226338397 -0.03424599768640918 -0.9956623993704782
vn 0.023678193301615844 -0.9987127854430599 0.04485660881671732
vn 0.8127731577059152 0.5734579785294469 -0.10269245821225458
vn -0.08722479791978109 -0.037940009140413476 -0.9954659162092286
vn -0.09462788984405167 -0.04411600240121223 -0.9945347358417393
vn -0.8126424416619576 -0.5736238327941265 0.10280058589457529
vn -0.0239861765186339 0.998706736366424 -0.044827648525690864
vn -0.08459116286335698 -0.03914001313347296 -0.9956467217529199
vn -0.08017361684316897 -0.03360799190879312 -0.9962141808075928
vn 0.9953812032200752 0.020922001722487524 -0.09369381046835294
vn -0.9953898154216043 -0.02081999835994631 0.09362501280767069
vn -0.0838397561689563 -0.033097010860570986 -0.9959294569183227
vn 0.023602151978526782 -0.9986974179739321 0.045237216472541815
vn 0.02401655423772541 -0.9986892735040779 0.04519889501352167
vn -0.9953966571885914 -0.02025799896540374 0.09367554822735667
vn 0.9954054259071117 0.020207005978344614 -0.09359334903759252
vn -0.023678193301615844 0.9987127854430599 -0.04485660881671732
vn -0.8127731577059152 -0.5734579785294469 0.10269245821225458
vn 0.8126424416619576 0.5736238327941265 -0.10280058589457529
vn 0.0239861765186339 -0.998706736366424 0.044827648525690864
vn -0.9953812032200752 -0.020922001722487524 0.09369381046835294
vn 0.9953898154216043 0.02081999835994631 -0.09362501280767069
vn -0.023602151978526782 0.9986974179739321 -0.045237216472541815
usemtl material_0_0
f 1//1 2//2 3//3
f 3//3 2//2 5//4
f 5//4 9//5 3//3
f 9//5 5//4 12//6
f 5//4 11//7 12//6
f 11//7 15//8 12//6
f 12//6 15//8 17//9
f 12//6 17//9 20//10
usemtl material_1_0
f 3//11 2//12 1//13
f 2//14 4//14 1//14
f 5//15 2//12 3//11
f 3//16 1//16 6//16
f 7//14 1//14 4//14
f 4//17 2//17 8//17
f 5//17 8//17 2//17
f 3//11 9//18 5//15
f 7//16 6//16 1//16
f 6//19 10//19 3//19
f 5//20 11//20 8//20
f 12//21 5//15 9//18
f 9//19 3//19 10//19
f 13//20 8//20 11//20
f 12//21 11//22 5//15
f 9//23 10//23 12//23
f 13//24 11//24 14//24
f 12//21 15//25 11//22
f 16//23 12//23 10//23
f 15//24 14//24 11//24
f 17//26 15//25 12//21
f 16//27 18//27 12//27
f 14//28 15//28 19//28
f 17//28 19//28 15//28
f 20//29 17//26 12//21
f 20//27 12//27 18//27
f 17//30 20//30 19//30
f 18//30 19//30 20//30
usemtl material_2_0
f 1//31 4//31 2//31
f 6//32 1//32 3//32
f 4//31 1//31 7//31
f 8//33 2//33 4//33
f 2//33 8//33 5//33
f 1//32 6//32 7//32
f 3//34 10//34 6//34
f 8//35 11//35 5//35
f 10//34 3//34 9//34
f 11//35 8//35 13//35
f 12//36 10//36 9//36
f 14//37 11//37 13//37
f 10//36 12//36 16//36
f 11//37 14//37 15//37
f 12//38 18//38 16//38
f 19//39 15//39 14//39
f 15//39 19//39 17//39
f 18//38 12//38 20//38
f 19//40 20//40 17//40
f 20//40 19//40 18//40
