# SSTK version 0.8.0
# 57
mtllib original-57.mtl
o mesh45/mesh45-geometry#mesh45-geometry
v 0.067372 0.429405 0.364217
v 0.068954 0.429436 0.364068
v 0.067123 0.439796 0.363758
v 0.068936 0.429427 0.363880
v 0.068656 0.441840 0.363528
v 0.067105 0.439787 0.363570
v 0.067355 0.429396 0.364028
v 0.068638 0.441831 0.363340
v 0.066445 0.441796 0.363729
v 0.063766 0.429334 0.364556
v 0.063687 0.433112 0.364385
v 0.063749 0.429325 0.364368
v 0.063076 0.431112 0.364536
v 0.066428 0.441787 0.363541
v 0.062294 0.429304 0.364694
v 0.063670 0.433103 0.364197
v 0.062276 0.429295 0.364506
v 0.062438 0.432935 0.364509
v 0.063059 0.431103 0.364348
v 0.058441 0.439790 0.364366
v 0.062421 0.432926 0.364321
v 0.059283 0.441654 0.364390
v 0.058459 0.439799 0.364554
v 0.059266 0.441645 0.364202
v 0.058712 0.429234 0.365031
v 0.056833 0.441606 0.364620
v 0.058695 0.429225 0.364843
v 0.056815 0.441597 0.364431
v 0.057131 0.429202 0.365180
v 0.057113 0.429193 0.364992
vn 0.09262568324872403 0.04611101280590636 0.9946327248289796
vn 0.09101759458854887 0.045788004425227895 0.9947960877114815
vn 0.09048804446904093 0.04651900623843196 0.9948104823868502
vn 0.08940973456721538 0.045464999284062876 0.9949566991606823
vn 0.09087700595296813 0.04562501351949215 0.9948164292623892
vn 0.08955337200509511 0.047235983227143216 0.9948612744755331
vn 0.0902079383812639 0.047443020755116534 0.9947922836625904
vn 0.0919294664807547 0.04682099796361458 0.9946641480129135
vn 0.09256279678343247 0.047093989316306095 0.9945925220018019
vn -0.09048804446904093 -0.04651900623843196 -0.9948104823868502
vn -0.09101759458854887 -0.045788004425227895 -0.9947960877114815
vn -0.09262568324872403 -0.04611101280590636 -0.9946327248289796
vn -0.024003535382743458 0.9986979944801962 -0.045012732758224976
vn -0.08940973456721538 -0.045464999284062876 -0.9949566991606823
vn 0.9954118152296352 0.019781998380803915 -0.09361618792337573
vn -0.9954123041161912 -0.019834991404647156 0.09359977526721286
vn -0.09087700595296813 -0.04562501351949215 -0.9948164292623892
vn -0.9479710856610001 0.3097250282707727 0.0736289862307915
vn 0.023860773552090483 -0.9986923423552889 0.04521359094787714
vn -0.08955337200509511 -0.047235983227143216 -0.9948612744755331
vn -0.0919294664807547 -0.04682099796361458 -0.9946641480129135
vn -0.0902079383812639 -0.047443020755116534 -0.9947922836625904
vn 0.9488738044102222 -0.3069100295054109 -0.07378846178813665
vn 0.9505097065352262 -0.3016959935429515 -0.07423493289853156
vn -0.023988346108298277 0.9987067084830473 -0.044827108784152164
vn -0.09256279678343247 -0.047093989316306095 -0.9945925220018019
vn 0.952117003128862 -0.2964729353924767 -0.07467938760249022
vn 0.9346849496189489 0.34020507524503585 -0.1030754662048279
vn -0.9375669639851064 -0.3322009930852363 0.10300819499890641
vn -0.939340848096003 -0.32718492180919306 0.10290188549775864
vn -0.9357664061424716 -0.3372079936481816 0.10311160048690327
vn -0.9954100466929279 -0.0196920028505259 0.09365395862705375
vn 0.024008189157480958 -0.9986895700098041 0.04519678757402135
vn -0.02403813820835067 0.9986803456932615 -0.04538430386668884
vn 0.99541328871917 0.01969100810440707 -0.09361970327403556
vn 0.024003535382743458 -0.9986979944801962 0.045012732758224976
vn -0.9954118152296352 -0.019781998380803915 0.09361618792337573
vn 0.9954123041161912 0.019834991404647156 -0.09359977526721286
vn 0.9479710856610001 -0.3097250282707727 -0.0736289862307915
vn -0.023860773552090483 0.9986923423552889 -0.04521359094787714
vn -0.9488738044102222 0.3069100295054109 0.07378846178813665
vn -0.9505097065352262 0.3016959935429515 0.07423493289853156
vn 0.023988346108298277 -0.9987067084830473 0.044827108784152164
vn -0.952117003128862 0.2964729353924767 0.07467938760249022
vn -0.9346849496189489 -0.34020507524503585 0.1030754662048279
vn 0.939340848096003 0.32718492180919306 -0.10290188549775864
vn 0.9375669639851064 0.3322009930852363 -0.10300819499890641
vn 0.9357664061424716 0.3372079936481816 -0.10311160048690327
vn 0.9954100466929279 0.0196920028505259 -0.09365395862705375
vn -0.024008189157480958 0.9986895700098041 -0.04519678757402135
vn 0.02403813820835067 -0.9986803456932615 0.04538430386668884
vn -0.99541328871917 -0.01969100810440707 0.09361970327403556
usemtl material_0_0
f 1//1 2//2 3//3
f 5//4 3//3 2//2
f 3//3 5//4 9//5
f 11//6 3//3 9//5
f 13//7 10//8 3//3
f 13//7 3//3 11//6
f 13//7 15//9 10//8
f 15//9 13//7 18//9
f 15//9 18//9 22//9
f 15//9 22//9 23//9
f 23//9 22//9 26//9
f 23//9 26//9 25//9
f 25//9 26//9 29//9
usemtl material_1_0
f 3//10 2//11 1//12
f 2//13 4//13 1//13
f 2//11 3//10 5//14
f 3//15 1//15 6//15
f 7//13 1//13 4//13
f 4//16 2//16 8//16
f 9//17 5//14 3//10
f 5//16 8//16 2//16
f 7//15 6//15 1//15
f 3//18 6//18 10//18
f 5//19 9//19 8//19
f 9//17 3//10 11//20
f 12//18 10//18 6//18
f 3//10 10//21 13//22
f 14//19 8//19 9//19
f 11//20 3//10 13//22
f 9//23 11//24 14//23
f 10//25 12//25 15//25
f 10//21 15//26 13//22
f 11//24 13//27 16//24
f 16//24 14//23 11//24
f 17//25 15//25 12//25
f 18//26 13//22 15//26
f 19//27 16//24 13//27
f 17//28 20//28 15//28
f 18//29 21//29 13//30
f 22//26 18//26 15//26
f 19//30 13//30 21//29
f 23//28 15//28 20//28
f 21//29 18//29 24//31
f 22//31 24//31 18//29
f 23//26 22//26 15//26
f 23//32 20//32 25//32
f 22//33 26//33 24//33
f 26//26 22//26 23//26
f 27//32 25//32 20//32
f 25//26 26//26 23//26
f 28//33 24//33 26//33
f 25//34 27//34 29//34
f 29//26 26//26 25//26
f 26//35 29//35 28//35
f 30//34 29//34 27//34
f 30//35 28//35 29//35
usemtl material_2_0
f 1//36 4//36 2//36
f 6//37 1//37 3//37
f 4//36 1//36 7//36
f 8//38 2//38 4//38
f 2//38 8//38 5//38
f 1//37 6//37 7//37
f 10//39 6//39 3//39
f 8//40 9//40 5//40
f 6//39 10//39 12//39
f 9//40 8//40 14//40
f 14//41 11//42 9//41
f 15//43 12//43 10//43
f 16//42 13//44 11//42
f 11//42 14//41 16//42
f 12//43 15//43 17//43
f 13//44 16//42 19//44
f 15//45 20//45 17//45
f 13//46 21//47 18//47
f 21//47 13//46 19//46
f 20//45 15//45 23//45
f 24//48 18//47 21//47
f 18//47 24//48 22//48
f 25//49 20//49 23//49
f 24//50 26//50 22//50
f 20//49 25//49 27//49
f 26//50 24//50 28//50
f 29//51 27//51 25//51
f 28//52 29//52 26//52
f 27//51 29//51 30//51
f 29//52 28//52 30//52
