# SSTK version 0.8.0
# 45
mtllib original-45.mtl
o coffe17_1/coffe17/mesh36/mesh36-geometry#mesh36-geometry
v -0.179654 0.478256 0.351548
v -0.177294 0.452904 0.351858
v -0.172136 0.452928 0.352884
v -0.179681 0.478238 0.346235
v -0.168390 0.432126 0.353455
v -0.174487 0.478179 0.352534
v -0.177321 0.452886 0.346545
v -0.180488 0.509304 0.346153
v -0.173504 0.431863 0.352419
v -0.172163 0.452911 0.347571
v -0.174514 0.478162 0.347221
v -0.175297 0.509325 0.352384
v -0.180461 0.509322 0.351466
v -0.163359 0.414030 0.354242
v -0.168416 0.432108 0.348142
v -0.175324 0.509308 0.347071
v -0.173531 0.431846 0.347106
v -0.179681 0.540371 0.346219
v -0.168404 0.413518 0.353224
v -0.179654 0.540388 0.351532
v -0.174515 0.540454 0.347064
v -0.157107 0.396875 0.355243
v -0.163386 0.414013 0.348929
v -0.174488 0.540471 0.352377
v -0.168431 0.413501 0.347911
v -0.177321 0.565725 0.346373
v -0.162111 0.396251 0.354258
v -0.172138 0.565724 0.352469
v -0.172165 0.565706 0.347156
v -0.177295 0.565742 0.351686
v -0.149690 0.378951 0.356463
v -0.157133 0.396858 0.349930
v -0.162138 0.396234 0.348945
v -0.173534 0.586768 0.346590
v -0.154744 0.378446 0.355511
v -0.168394 0.586529 0.352631
v -0.168421 0.586511 0.347319
v -0.173507 0.586785 0.351903
v -0.142415 0.361504 0.357711
v -0.149717 0.378934 0.351150
v -0.154770 0.378429 0.350198
v -0.168436 0.605117 0.346850
v -0.146420 0.358487 0.356997
v -0.163366 0.604628 0.352842
v -0.163393 0.604610 0.347529
v -0.168409 0.605134 0.352163
v -0.126425 0.355677 0.359807
v -0.142442 0.361487 0.352398
v -0.146447 0.358470 0.351684
v -0.162147 0.622388 0.347120
v -0.127511 0.351596 0.359621
v -0.126452 0.355659 0.354494
v -0.157118 0.621787 0.353068
v -0.157144 0.621770 0.347755
v -0.127537 0.351579 0.354308
v -0.162120 0.622405 0.352433
v -0.107996 0.349468 0.361945
v -0.108022 0.349451 0.356632
v -0.154785 0.640198 0.347348
v -0.109111 0.345372 0.356554
v -0.109085 0.345389 0.361867
v -0.149706 0.639716 0.353257
v -0.149733 0.639698 0.347944
v -0.154758 0.640215 0.352661
v -0.089665 0.344117 0.363749
v -0.089692 0.344100 0.358436
v -0.146468 0.660163 0.347460
v -0.090658 0.339986 0.358465
v -0.090631 0.340003 0.363778
v -0.142437 0.657167 0.353332
v -0.142464 0.657150 0.348019
v -0.146441 0.660180 0.352773
v -0.070894 0.339740 0.365233
v -0.070920 0.339723 0.359920
v -0.127567 0.667066 0.348481
v -0.071666 0.335558 0.360047
v -0.071639 0.335575 0.365360
v -0.126453 0.663005 0.354157
v -0.126480 0.662987 0.348844
v -0.127540 0.667083 0.353794
v -0.051123 0.336452 0.366376
v -0.051150 0.336435 0.361063
v -0.109148 0.673284 0.349285
v -0.051626 0.332225 0.361268
v -0.051599 0.332242 0.366581
v -0.108031 0.669224 0.354936
v -0.108058 0.669206 0.349623
v -0.109121 0.673301 0.354598
v -0.029788 0.334378 0.367108
v -0.029815 0.334360 0.361795
v -0.090701 0.678679 0.349922
v -0.030026 0.330125 0.362051
v -0.029999 0.330142 0.367364
v -0.089733 0.674566 0.350233
v -0.089706 0.674583 0.355546
v -0.090674 0.678696 0.355235
v -0.006300 0.333655 0.367307
v -0.006327 0.333638 0.361994
v -0.071715 0.683114 0.350419
v -0.006341 0.329395 0.362267
v -0.006314 0.329413 0.367580
v -0.070967 0.678950 0.350705
v -0.070940 0.678967 0.356018
v -0.071688 0.683132 0.355732
v -0.006300 0.336104 0.367317
v 0.017157 0.334360 0.361559
v -0.051678 0.686453 0.350779
v -0.006326 0.329396 0.362267
v -0.006295 0.329395 0.362266
v -0.006327 0.336086 0.362004
v -0.006268 0.329412 0.367579
v -0.006299 0.329413 0.367579
v 0.017184 0.334378 0.366871
v -0.051201 0.682243 0.351046
v -0.051174 0.682260 0.356359
v -0.051652 0.686470 0.356092
v 0.017398 0.330142 0.367125
v 0.038484 0.336435 0.360611
v -0.030082 0.688557 0.350984
v 0.017371 0.330125 0.361812
v 0.038988 0.332242 0.366125
v 0.038511 0.336452 0.365924
v -0.029868 0.684321 0.351238
v -0.029841 0.684339 0.356551
v -0.030055 0.688574 0.356297
v 0.038962 0.332225 0.360812
v 0.058242 0.339723 0.359270
v -0.006398 0.689288 0.350985
v 0.058989 0.335558 0.359389
v 0.059016 0.335575 0.364702
v 0.058269 0.339740 0.364583
v -0.006381 0.685045 0.351234
v -0.006355 0.685063 0.356547
v -0.006371 0.689305 0.356298
v 0.076997 0.344100 0.357596
v -0.006383 0.689287 0.350985
v -0.006355 0.682614 0.356537
v -0.006352 0.689288 0.350984
v 0.077964 0.339986 0.357615
v 0.077990 0.340003 0.362928
v 0.077024 0.344117 0.362909
v 0.017104 0.684321 0.351001
v -0.006356 0.689304 0.356298
v -0.006381 0.682597 0.351224
v -0.006325 0.689306 0.356297
v 0.095309 0.349451 0.355608
v 0.017131 0.684339 0.356314
v 0.017315 0.688557 0.350745
v 0.096397 0.345372 0.355519
v 0.096424 0.345389 0.360832
v 0.095336 0.349468 0.360920
v 0.038434 0.682243 0.350594
v 0.017342 0.688574 0.356058
v 0.113716 0.355659 0.353284
v 0.038460 0.682260 0.355907
v 0.038936 0.686470 0.355636
v 0.038909 0.686453 0.350323
v 0.114799 0.351579 0.353087
v 0.114826 0.351596 0.358400
v 0.113742 0.355677 0.358597
v 0.058195 0.678950 0.350054
v 0.129684 0.361487 0.351027
v 0.058222 0.678967 0.355367
v 0.058967 0.683132 0.355074
v 0.058940 0.683114 0.349761
v 0.133681 0.358470 0.350273
v 0.133708 0.358487 0.355586
v 0.129710 0.361504 0.356340
v 0.076956 0.674566 0.349394
v 0.136946 0.378934 0.349706
v 0.076983 0.674583 0.354707
v 0.077947 0.678696 0.354386
v 0.077921 0.678679 0.349073
v 0.141990 0.378429 0.348703
v 0.142016 0.378446 0.354016
v 0.136973 0.378951 0.355019
v 0.095273 0.669206 0.348599
v 0.144350 0.396858 0.348411
v 0.095300 0.669224 0.353912
v 0.096387 0.673301 0.353563
v 0.096360 0.673284 0.348250
v 0.149344 0.396234 0.347375
v 0.149371 0.396251 0.352688
v 0.144377 0.396875 0.353724
v 0.113687 0.662987 0.347634
v 0.150592 0.414013 0.347347
v 0.113714 0.663005 0.352947
v 0.114797 0.667083 0.352573
v 0.114770 0.667066 0.347260
v 0.155626 0.413501 0.346279
v 0.155653 0.413518 0.351592
v 0.150618 0.414030 0.352660
v 0.129661 0.657150 0.346648
v 0.155614 0.432108 0.346510
v 0.129688 0.657167 0.351961
v 0.133687 0.660180 0.351362
v 0.133660 0.660163 0.346049
v 0.160718 0.431846 0.345422
v 0.160745 0.431863 0.350735
v 0.155641 0.432126 0.351823
v 0.136957 0.639716 0.351813
v 0.159355 0.452911 0.345901
v 0.136930 0.639698 0.346500
v 0.142002 0.640215 0.351166
v 0.164502 0.452886 0.344823
v 0.164529 0.452904 0.350136
v 0.159382 0.452928 0.351214
v 0.144366 0.621787 0.351549
v 0.149361 0.622405 0.350864
v 0.141975 0.640198 0.345853
v 0.161702 0.478162 0.345527
v 0.144339 0.621770 0.346236
v 0.166859 0.478238 0.344489
v 0.166886 0.478256 0.349802
v 0.161729 0.478179 0.350840
v 0.150611 0.604628 0.351260
v 0.155648 0.605134 0.350531
v 0.149335 0.622388 0.345551
v 0.162511 0.509308 0.345369
v 0.150584 0.604610 0.345947
v 0.167665 0.509304 0.344399
v 0.167692 0.509322 0.349712
v 0.162537 0.509325 0.350682
v 0.155637 0.586529 0.350999
v 0.160742 0.586785 0.350219
v 0.155621 0.605117 0.345218
v 0.161702 0.540454 0.345370
v 0.155610 0.586511 0.345686
v 0.166859 0.540371 0.344473
v 0.161728 0.540471 0.350683
v 0.159380 0.565724 0.350798
v 0.164528 0.565742 0.349964
v 0.160716 0.586768 0.344906
v 0.166886 0.540389 0.349786
v 0.159353 0.565707 0.345486
v 0.164501 0.565725 0.344651
vn -0.18629093667552732 -0.0030279997106774513 0.9824899582847181
vn -0.1961317939846945 -0.007986998300354743 0.98054501541056
vn -0.1926177976267986 -0.006088998795187977 0.9812549659140961
vn -0.9982246445823947 -0.0593319805419615 0.005222550461232044
vn -0.9908316642701508 -0.13499304116842903 0.005430645978334091
vn -0.19703743685198716 -0.010053002734587797 0.9803444219328314
vn -0.18747216708118092 -0.0019859998213332874 0.982267907637522
vn -0.9999873033178615 0 0.00503916690248443
vn -0.1975258917772593 -0.011184997625453 0.9802338587835645
vn 0.9748919683476733 0.22260694764941893 -0.0056388748352882235
vn 0.9908315193884908 0.1349939911950847 -0.0054334636757990265
vn 0.9982246383139374 0.05933201877096273 -0.005223314232451263
vn -0.17475106813710783 0.0012000000646412235 0.9846119155204169
vn -0.9748919683476733 -0.22260694764941893 0.0056388748352882235
vn -0.19696445685414066 -0.012805006633347073 0.9803270038825176
vn 0.9999873071658231 0 -0.0050384032436958815
vn -0.1750161707820031 0.00025899983201544254 0.9845655249316277
vn -0.9982266503296635 0.05933101145308155 0.004835871335545255
vn -0.1949312614146432 -0.012399993863244333 0.9807385194206902
vn 0.9523024113222537 0.30510086965697 -0.0057945426378543914
vn -0.16205214142703836 0.00657399969780332 0.9867602981407818
vn 0.9982265911033613 -0.0593320079330163 -0.004835871048625669
vn -0.9523023517486564 -0.3051009875444049 0.005798124990645727
vn -0.193266030300312 -0.012676001125768168 0.981064503754681
vn -0.16154367846583811 0.007934999713066665 0.9868336616306111
vn -0.9908360976943469 0.13499302957738096 0.0045507660189178945
vn -0.18927651380484545 -0.010243997358267837 0.9818703895321459
vn 0.932109368231133 0.36212918905574865 -0.005880143670344122
vn -0.1538986845319893 0.012889996720914369 0.9880025520634338
vn 0.9908360976943469 -0.13499302957738096 -0.0045507660189178945
vn -0.932109726248279 -0.362128198823464 0.005884373393322186
vn -0.18682287046651416 -0.00873099600770911 0.9823548161328296
vn -0.14678470532966084 0.014080007663806796 0.9890682502565088
vn -0.9748992711067962 0.22260707268456018 0.004183585334176771
vn -0.1814247403684374 -0.004531000143700453 0.9833943937301772
vn 0.9236270170450389 0.38324698996908496 -0.005905765328868668
vn -0.14329794133476229 0.020517998504935794 0.9894668825921211
vn 0.9748997406867599 -0.22260505694917027 -0.004181414777927172
vn -0.9236273882398394 -0.3832460519102979 0.00590858599178327
vn -0.16826309748368867 -0.016032997380512847 0.9856117252854651
vn -0.1370060534433022 0.021560991301586566 0.9903355315114085
vn -0.9523124220540082 0.3051010026783292 0.003798547920831305
vn -0.15351135685695255 -0.01638899445860308 0.9880109635912818
vn 0.691145302517819 0.7226921800020477 -0.005846688929660897
vn -0.1335620149719454 0.027983000724116334 0.9906453148463924
vn 0.9523127705872835 -0.305099941820345 -0.003796376903573309
vn -0.6911444084822947 -0.722693040273155 0.005846038351148042
vn -0.13489297942529238 -0.020861999595464746 0.9906405307045772
vn -0.12778455671026692 0.028571986189605457 0.9913903109631147
vn -0.9321217499215918 0.3621280540114032 0.0035093904062932276
vn -0.12559869121497524 -0.002905001514072437 0.9920768769260214
vn 0.3313814393075671 0.9434848913063011 -0.004754109715015163
vn -0.12439116305091777 0.03428599581812042 0.9916407157058447
vn 0.9321214223131062 -0.36212888362863443 -0.00351079860867426
vn -0.33138124618146514 -0.9434849268676557 0.004760509715729918
vn -0.11086236146588356 0.0018839998506781663 0.9938339837994927
vn 0.3002506371180135 0.953849116174537 -0.004628010726149514
vn -0.1190063951782011 0.034299002297158834 0.9923008900268656
vn -0.9236400077711205 0.3832461078151934 0.0033995424794494885
vn -0.3002506391241861 -0.9538490707670191 0.004637230036568535
vn -0.10247473365395486 0.01606200607917352 0.9946059224251902
vn -0.11588076928724077 0.03887399965369119 0.9925021206326574
vn 0.923639677529069 -0.38324687870793905 -0.0034023601543170384
vn -0.08790907115341676 0.020050006572824526 0.9959267003376169
vn 0.2541112090718948 0.9671648100517515 -0.004441128412831661
vn -0.11178735839850192 0.03891900168992169 0.9929697366031579
vn -0.6911685300807666 0.7226927513727781 0.0011180962554260443
vn -0.2541115156755444 -0.9671647100663082 0.004445357514481922
vn -0.08020789801030787 0.03227698683418769 0.9962554337205262
vn -0.100499968081005 0.0535240015767638 0.9934963199080948
vn 0.6911682471560264 -0.7226930185945302 -0.001120266928886964
vn -0.06574581056722557 0.035694981602133226 0.9971977520438369
vn 0.1959427481668622 0.980606360288081 -0.004195903166133178
vn -0.08899344194789338 0.061795015716637515 0.9941134459018484
vn -0.33141211817899213 0.9434850279446116 -0.0014177335677496498
vn -0.19594389290452532 -0.9806061440878259 0.00419297157466112
vn -0.058580555407143166 0.04574298409466422 0.997234123931941
vn -0.07476021367925814 0.0722029846108382 0.9945841540382184
vn 0.33141221761205236 -0.9434849951349196 0.0014163236644413053
vn -0.04401389761688249 0.048594008299323 0.9978483848631393
vn 0.13066111823009038 0.991419407591935 -0.003902618725818733
vn -0.06995184172574676 0.06783602347988357 0.9952411837125776
vn -0.30028035283076826 0.9538496345316286 -0.0016076093144115392
vn -0.13066174565203484 -0.9914193641379894 0.003892638615086516
vn -0.03702623687171673 0.05600596992995498 0.9977436489977396
vn -0.06153522098584326 0.06808401803048884 0.9957800877036292
vn 0.3002830206113825 -0.953848805078155 0.001601431696924398
vn -0.021980183664642716 0.058068986645934954 0.9980705708094907
vn 0.06387546015478857 0.9979514302478909 -0.0035872630518403873
vn -0.057131102703702565 0.06543200916362288 0.9962202012008543
vn -0.2541425766334227 0.9671649297673868 -0.0018839772213637132
vn -0.0638980859762258 -0.9979500162027166 0.003577676560635333
vn -0.01461595098305278 0.06217401186612911 0.9979582988408541
vn 0.2541421980691462 -0.9671650540906415 0.0018711778187791878
vn -0.0488138369216607 0.06573398584901932 0.9966424897772453
vn -0.006846911158527437 0.06239398481605148 0.9980281110601853
vn -0.000016232861703431896 0.9999946451044636 -0.0032725370727409915
vn -0.04456435617103501 0.06339999723408028 0.9969927073503496
vn -0.1959735786408911 0.9806066745901417 -0.002214999762159799
vn -0.030828976844159067 -0.9995188265765019 0.0034189919383946408
vn -0.007116456068991092 0.06421196923062722 0.9979109073762764
vn 0.1959751264737196 -0.980606365001369 0.0022151122796239204
vn -0.03621883501951343 0.06361098172246862 0.997317321114064
vn -0.9988608496441703 0.00023499993328657273 -0.047717374436966165
vn -0.06390762861425514 0.9979514768682333 -0.002943606871589751
vn -0.03204794333153593 0.061628976359807325 0.9975844819367735
vn -0.13069532656732208 0.9914192590841587 -0.002565995026994828
vn 0.03672984119570406 -0.9993204697426892 0.003085047647876331
vn 0.008592884642770686 -0.9999578669911131 0.003229020919614103
vn -0.0137260227897887 -0.9999002128162842 0.0033407646316039536
vn -0.9999846851426034 0.002308000466730826 0.005030170384159991
vn 0.9938286385674756 0.00042499976675910474 -0.11092545487090005
vn 0.004503727668175405 0.039224998929981485 0.9992202539460627
vn 0.004688876195269417 0.039224978226907285 0.9992194030957987
vn 0.13069933598116132 -0.9914186780928517 0.0025861753045821547
vn -0.02356615370751737 0.061672990727651755 0.9978181590921967
vn 0.017177518098096207 0.06425600221284845 0.9977855977371151
vn 0.024672514344687972 0.06218798034101459 0.9977594510386844
vn 0.01690548105074451 0.062415975213123386 0.9979070351233313
vn 0.9999873032773621 -0.000008999999859124123 -0.0050391669022803445
vn 0.032034747559389676 0.05807097898728158 0.9977983445307299
vn -0.1306937930450677 0.9914194099584549 -0.002585733381845046
vn -0.01937234200200464 0.06014600257118173 0.9980015885458625
vn -0.06393257652918648 0.9979499377818151 -0.0029235833511410164
vn 0.06395546563929877 -0.9979484241910411 0.002939569607650171
vn 0.04707681456365918 0.05601098432854906 0.9973196795236149
vn 0.06390616076306793 -0.997951571201758 0.0029434932423229544
vn -0.010623328305025548 0.06006199037164349 0.9981381178014995
vn 0.1306943407375216 -0.9914193561193837 0.0025786839688249226
vn 0.05406500051729286 0.048600021141986 0.9973540061904116
vn -0.19597532141098248 0.9806063115656412 -0.0022215119829715447
vn -0.006250492289757927 0.059170033093779384 0.9982283498928574
vn -0.030860511041128937 0.9995188878210028 -0.0031018941544921803
vn 0.19597626751460312 -0.9806061303392336 0.0022180424158753506
vn 0.06862565002223894 0.045744011900397945 0.9965931996227354
vn 0.000013413154686579433 -0.9999946458724588 0.003272315159498346
vn -0.001773821761783765 0.059241020912232385 0.9982421324496547
vn 0.07579096060344662 0.03569200983354289 0.9964847267895524
vn -0.25414339270238895 0.9671647193380272 -0.0018819175099956912
vn -0.0018433968759308198 0.05877200521575142 0.9982697297278313
vn 0.04584963985690239 0.9989422229694233 -0.003499384788709471
vn -0.9999846264357224 -0.002300999271450822 0.00504502671567733
vn -0.012240826035484594 0.9999199245010488 -0.0032104148930584913
vn 0.009318164963537101 0.9999510773632179 -0.00331883742475068
vn 0.25414318377027856 -0.9671647687485135 0.0018847373134927244
vn 0.09024326339539752 0.032272996299998226 0.9953967084140721
vn -0.06387258815676998 -0.9979516132833463 0.003587482030907599
vn 0.9980444808639672 0.0002380000581375764 -0.06250726016189083
vn 0.0059731117233424585 0.03580899685559444 0.9993408015689825
vn 0.005663005742612897 0.03580899568927776 0.9993426070140733
vn 0.09793918707334041 0.020049001749766895 0.9949904286797191
vn -0.3002816363053669 0.9538492386903094 -0.001602731321344325
vn -0.9939811284371349 0.000475999921777963 -0.10955039815041634
vn 0.9999873104184511 0 -0.005037757643250157
vn 0.0639217671721418 0.9979484884914138 -0.00358078193873905
vn 0.3002825124497627 -0.9538489531917714 0.001608481215318387
vn 0.11248946511345176 0.01606499829542366 0.9935230425451931
vn -0.1306638899119048 -0.9914190431817531 0.0039023953755119916
vn 0.011833607649674564 0.0592289992197766 0.9981742790622374
vn 0.020679508323352674 0.06006096708461725 0.9979804798533711
vn 0.016308875258313916 0.05916096448938143 0.998115224244423
vn 0.011905261378912159 0.058751027306602775 0.9982016737823667
vn 0.12086904895825275 0.0018899995900026536 0.9926666615261527
vn -0.33141289480405867 0.943484758236779 -0.0014156738609369384
vn 0.029425803797319943 0.06014799079047138 0.9977556520886018
vn 0.1306635535459991 0.9914191403581919 -0.0038889466640201235
vn 0.3314116398521633 -0.9434851992216382 0.0014155635646823424
vn 0.1355879366396075 -0.0029009998210646655 0.9907610688949441
vn -0.19594472912084532 -0.9806059681911042 0.004195030124540177
vn 0.03361991306165242 0.061676998235606344 0.9975297736580958
vn 0.14486751422542807 -0.02085900508857555 0.9892311687511975
vn -0.6911683594878381 0.7226929210551976 0.0011138669563662482
vn 0.04209911555662646 0.061633007767577845 0.9972106281136757
vn 0.19594140318833297 0.9806066559399962 -0.004189611290411758
vn 0.6911670112186343 -0.722694200444323 -0.001120378168725081
vn 0.16345758124249046 -0.016386990285639138 0.9864142566304145
vn -0.25411009453312305 -0.9671650894153839 0.004444060361858849
vn 0.04626710436295886 0.06361598684497888 0.9969013799125802
vn 0.1781839148256195 -0.016031004317742972 0.9838666065061773
vn -0.9236392641833873 0.3832479373972209 0.0033953114064275533
vn 0.0546087522086244 0.0634060389161977 0.9964926283777391
vn 0.2541108051045952 0.9671648997412738 -0.0044447089382997265
vn 0.9236400936817697 -0.3832459200263575 -0.0033973705541624766
vn 0.19132185881635355 -0.004530999534598189 0.981516895617326
vn -0.3002503421453454 -0.9538491847997128 0.0046330010280883184
vn 0.058854196594706594 0.06573899014132181 0.9960996781037482
vn 0.19670920719865634 -0.00873099908162969 0.9804229992499731
vn -0.9321213924896911 0.36212900136359677 0.00350657018804382
vn 0.06716724842166495 0.06543301053595899 0.9955938337854768
vn 0.30025122907447743 0.953848933532947 -0.004627249434072376
vn 0.9321214024326848 -0.3621289621193208 -0.003507979661899693
vn 0.19915726839825484 -0.010242997152226745 0.9799140081933134
vn -0.3313822117383876 -0.94348460963238 0.004756167596903538
vn 0.07156759334187345 0.06808703168342263 0.9951091576805998
vn 0.20313720512282665 -0.012675005675551718 0.9790682407912185
vn -0.9523127653532115 0.3050999756919231 0.003794967471137668
vn 0.079977758153919 0.0678429920974454 0.9944852370065325
vn 0.33137784379868007 0.9434862097955039 -0.004743054401108254
vn 0.9523124115896469 -0.30510107042297957 -0.0037957290555824807
vn 0.2048003114951834 -0.01239799553610229 0.9787252536427997
vn -0.6911439616706525 -0.7226934842055195 0.0058439826387819745
vn 0.0847777403885543 0.07220799982893944 0.993780025707558
vn 0.20683102228088882 -0.012803996446142227 0.9782928937170349
vn -0.9748997762246441 0.2226049421069176 0.004179242361314502
vn 0.09900401399629823 0.061795970269687965 0.9931663824712597
vn 0.6911444894578275 0.7226930259656382 -0.0058382285590951955
vn 0.9748997757327764 -0.2226048913232055 -0.004182061114539311
vn 0.20739296961709094 -0.011185004298738902 0.9781937700845582
vn -0.9236266372265901 -0.38324797048990733 0.005901535466983253
vn 0.11050328124423044 0.053521971497042437 0.9924335863932298
vn 0.2069042605461604 -0.010052999791374903 0.9783095441438977
vn -0.9908361173019602 0.1349929588840533 0.004548593376448181
vn 0.12587282550137485 0.03887302293248601 0.9912844797979996
vn 0.12178537159957892 0.038918985681980454 0.9917931416469054
vn 0.9236279327277502 0.3832447849205958 -0.005905651211237043
vn 0.9908360933605385 -0.1349930138698579 -0.004552175343558547
vn 0.20599672224015927 -0.007985997144630972 0.9785200939561317
vn -0.9321097746387047 -0.36212822395573435 0.005875154265956147
vn 0.1289927612487004 0.03429600714228163 0.9910522950074492
vn 0.20248949143965672 -0.0060879982067071165 0.9792655115617747
vn -0.998226544697248 0.059333018365174 0.004833052189975666
vn 0.13436931138972044 0.03428199662060114 0.9903381406693157
vn 0.9321094507588703 0.3621290119120529 -0.0058779705338876794
vn 0.9982266627119583 -0.05933098018312959 -0.004833698527582023
vn 0.1999336941513167 -0.004098999826507569 0.9798008553494072
vn -0.9523027614311873 -0.3050998448524969 0.005790962054579807
vn 0.13776309571681075 0.028571007239765796 0.9900530425203622
vn 0.1932317762517319 -0.0019720004355585235 0.9811511564794095
vn -0.9999873175165563 -0.0000010000002205039542 0.005036348383670607
vn 0.14353318163020712 0.027981994036282407 0.9892498338543523
vn 0.9523024087686895 0.3051009043877986 -0.005793133443897676
vn 0.9999873246131773 -0.0000010000003385622896 -0.005034939123750829
vn 0.1846647791829318 0.001199999719963516 0.9828008340096132
vn -0.97489244549783 -0.22260498431547596 0.005633885796419777
vn 0.14697132246671746 0.02155900234878897 0.9889057790255394
vn 0.18493275869982237 0.002483999110331256 0.9827480371428342
vn -0.998224599263944 -0.059332991038316046 0.005219731677558951
vn 0.1532531472795381 0.02051600623126619 0.987973970475556
vn 0.9982247699890389 0.05932999459106262 -0.005221141843967846
vn 0.17595741064504952 0.006109998035865289 0.9843788181198796
vn -0.9908316809441544 -0.13499308879159833 0.0054264183293466816
vn 0.1567385867104485 0.014079994894130353 0.9875397557464674
vn 0.16765463723147803 0.007172001331736994 0.985819702081308
vn 0.16384520659188725 0.012890996775382232 0.9864018301275596
vn 0.9908316587082163 0.1349930252935105 -0.0054320551939788415
vn 0.1926177976267986 0.006088998795187977 -0.9812549659140961
vn 0.1961317939846945 0.007986998300354743 -0.98054501541056
vn 0.18629093667552732 0.0030279997106774513 -0.9824899582847181
vn 0.9982246445823947 0.0593319805419615 -0.005222550461232044
vn 0.9908316642701508 0.13499304116842903 -0.005430645978334091
vn 0.19703743685198716 0.010053002734587797 -0.9803444219328314
vn 0.18747216708118092 0.0019859998213332874 -0.982267907637522
vn 0.9999873033178615 0 -0.00503916690248443
vn 0.1975258917772593 0.011184997625453 -0.9802338587835645
vn -0.9908315193884908 -0.1349939911950847 0.0054334636757990265
vn -0.9982246383139374 -0.05933201877096273 0.005223314232451263
vn 0.17475106813710783 -0.0012000000646412235 -0.9846119155204169
vn 0.19696445685414066 0.012805006633347073 -0.9803270038825176
vn -0.9999873071658231 0 0.0050384032436958815
vn 0.1750161707820031 -0.00025899983201544254 -0.9845655249316277
vn 0.9982266503296635 -0.05933101145308155 -0.004835871335545255
vn 0.1949312614146432 0.012399993863244333 -0.9807385194206902
vn -0.9523024113222537 -0.30510086965697 0.0057945426378543914
vn 0.16205214142703836 -0.00657399969780332 -0.9867602981407818
vn -0.9982265911033613 0.0593320079330163 0.004835871048625669
vn 0.9523023517486564 0.3051009875444049 -0.005798124990645727
vn 0.193266030300312 0.012676001125768168 -0.981064503754681
vn 0.16154367846583811 -0.007934999713066665 -0.9868336616306111
vn 0.18927651380484545 0.010243997358267837 -0.9818703895321459
vn -0.932109368231133 -0.36212918905574865 0.005880143670344122
vn 0.1538986845319893 -0.012889996720914369 -0.9880025520634338
vn 0.932109726248279 0.362128198823464 -0.005884373393322186
vn 0.18682287046651416 0.00873099600770911 -0.9823548161328296
vn 0.14678470532966084 -0.014080007663806796 -0.9890682502565088
vn 0.9748992711067962 -0.22260707268456018 -0.004183585334176771
vn 0.1814247403684374 0.004531000143700453 -0.9833943937301772
vn -0.9236270170450389 -0.38324698996908496 0.005905765328868668
vn 0.14329794133476229 -0.020517998504935794 -0.9894668825921211
vn -0.9748997406867599 0.22260505694917027 0.004181414777927172
vn 0.9236273882398394 0.3832460519102979 -0.00590858599178327
vn 0.16826309748368867 0.016032997380512847 -0.9856117252854651
vn 0.1370060534433022 -0.021560991301586566 -0.9903355315114085
vn 0.9523124220540082 -0.3051010026783292 -0.003798547920831305
vn 0.15351135685695255 0.01638899445860308 -0.9880109635912818
vn -0.691145302517819 -0.7226921800020477 0.005846688929660897
vn 0.1335620149719454 -0.027983000724116334 -0.9906453148463924
vn -0.9523127705872835 0.305099941820345 0.003796376903573309
vn 0.6911444084822947 0.722693040273155 -0.005846038351148042
vn 0.13489297942529238 0.020861999595464746 -0.9906405307045772
vn 0.12778455671026692 -0.028571986189605457 -0.9913903109631147
vn 0.9321217499215918 -0.3621280540114032 -0.0035093904062932276
vn 0.12559869121497524 0.002905001514072437 -0.9920768769260214
vn -0.3313814393075671 -0.9434848913063011 0.004754109715015163
vn 0.12439116305091777 -0.03428599581812042 -0.9916407157058447
vn -0.9321214223131062 0.36212888362863443 0.00351079860867426
vn 0.33138124618146514 0.9434849268676557 -0.004760509715729918
vn 0.11086236146588356 -0.0018839998506781663 -0.9938339837994927
vn -0.3002506371180135 -0.953849116174537 0.004628010726149514
vn 0.1190063951782011 -0.034299002297158834 -0.9923008900268656
vn 0.9236400077711205 -0.3832461078151934 -0.0033995424794494885
vn 0.3002506391241861 0.9538490707670191 -0.004637230036568535
vn 0.10247473365395486 -0.01606200607917352 -0.9946059224251902
vn 0.11588076928724077 -0.03887399965369119 -0.9925021206326574
vn -0.923639677529069 0.38324687870793905 0.0034023601543170384
vn 0.08790907115341676 -0.020050006572824526 -0.9959267003376169
vn -0.2541112090718948 -0.9671648100517515 0.004441128412831661
vn 0.11178735839850192 -0.03891900168992169 -0.9929697366031579
vn 0.6911685300807666 -0.7226927513727781 -0.0011180962554260443
vn 0.2541115156755444 0.9671647100663082 -0.004445357514481922
vn 0.08020789801030787 -0.03227698683418769 -0.9962554337205262
vn 0.100499968081005 -0.0535240015767638 -0.9934963199080948
vn -0.6911682471560264 0.7226930185945302 0.001120266928886964
vn 0.06574581056722557 -0.035694981602133226 -0.9971977520438369
vn -0.1959427481668622 -0.980606360288081 0.004195903166133178
vn 0.08899344194789338 -0.061795015716637515 -0.9941134459018484
vn 0.33141211817899213 -0.9434850279446116 0.0014177335677496498
vn 0.19594389290452532 0.9806061440878259 -0.00419297157466112
vn 0.058580555407143166 -0.04574298409466422 -0.997234123931941
vn 0.07476021367925814 -0.0722029846108382 -0.9945841540382184
vn -0.33141221761205236 0.9434849951349196 -0.0014163236644413053
vn 0.04401389761688249 -0.048594008299323 -0.9978483848631393
vn -0.13066111823009038 -0.991419407591935 0.003902618725818733
vn 0.06995184172574676 -0.06783602347988357 -0.9952411837125776
vn 0.30028035283076826 -0.9538496345316286 0.0016076093144115392
vn 0.13066174565203484 0.9914193641379894 -0.003892638615086516
vn 0.03702623687171673 -0.05600596992995498 -0.9977436489977396
vn 0.06153522098584326 -0.06808401803048884 -0.9957800877036292
vn -0.3002830206113825 0.953848805078155 -0.001601431696924398
vn 0.021980183664642716 -0.058068986645934954 -0.9980705708094907
vn -0.06387546015478857 -0.9979514302478909 0.0035872630518403873
vn 0.057131102703702565 -0.06543200916362288 -0.9962202012008543
vn 0.2541425766334227 -0.9671649297673868 0.0018839772213637132
vn 0.0638980859762258 0.9979500162027166 -0.003577676560635333
vn 0.01461595098305278 -0.06217401186612911 -0.9979582988408541
vn -0.2541421980691462 0.9671650540906415 -0.0018711778187791878
vn 0.0488138369216607 -0.06573398584901932 -0.9966424897772453
vn 0.006846911158527437 -0.06239398481605148 -0.9980281110601853
vn 0.000016232861703431896 -0.9999946451044636 0.0032725370727409915
vn 0.04456435617103501 -0.06339999723408028 -0.9969927073503496
vn 0.1959735786408911 -0.9806066745901417 0.002214999762159799
vn 0.030828976844159067 0.9995188265765019 -0.0034189919383946408
vn 0.007116456068991092 -0.06421196923062722 -0.9979109073762764
vn -0.1959751264737196 0.980606365001369 -0.0022151122796239204
vn 0.03621883501951343 -0.06361098172246862 -0.997317321114064
vn 0.9988608496441703 -0.00023499993328657273 0.047717374436966165
vn 0.06390762861425514 -0.9979514768682333 0.002943606871589751
vn 0.03204794333153593 -0.061628976359807325 -0.9975844819367735
vn 0.13069532656732208 -0.9914192590841587 0.002565995026994828
vn -0.03672984119570406 0.9993204697426892 -0.003085047647876331
vn 0.0137260227897887 0.9999002128162842 -0.0033407646316039536
vn -0.008592884642770686 0.9999578669911131 -0.003229020919614103
vn 0.9999846851426034 -0.002308000466730826 -0.005030170384159991
vn -0.9938286385674756 -0.00042499976675910474 0.11092545487090005
vn -0.004503727668175405 -0.039224998929981485 -0.9992202539460627
vn -0.004688876195269417 -0.039224978226907285 -0.9992194030957987
vn -0.13069933598116132 0.9914186780928517 -0.0025861753045821547
vn 0.02356615370751737 -0.061672990727651755 -0.9978181590921967
vn -0.01690548105074451 -0.062415975213123386 -0.9979070351233313
vn -0.024672514344687972 -0.06218798034101459 -0.9977594510386844
vn -0.017177518098096207 -0.06425600221284845 -0.9977855977371151
vn -0.9999873032773621 0.000008999999859124123 0.0050391669022803445
vn -0.032034747559389676 -0.05807097898728158 -0.9977983445307299
vn 0.1306937930450677 -0.9914194099584549 0.002585733381845046
vn 0.01937234200200464 -0.06014600257118173 -0.9980015885458625
vn 0.06393257652918648 -0.9979499377818151 0.0029235833511410164
vn -0.06395546563929877 0.9979484241910411 -0.002939569607650171
vn -0.04707681456365918 -0.05601098432854906 -0.9973196795236149
vn -0.06390616076306793 0.997951571201758 -0.0029434932423229544
vn 0.010623328305025548 -0.06006199037164349 -0.9981381178014995
vn -0.1306943407375216 0.9914193561193837 -0.0025786839688249226
vn -0.05406500051729286 -0.048600021141986 -0.9973540061904116
vn 0.19597532141098248 -0.9806063115656412 0.0022215119829715447
vn 0.006250492289757927 -0.059170033093779384 -0.9982283498928574
vn 0.030860511041128937 -0.9995188878210028 0.0031018941544921803
vn -0.19597626751460312 0.9806061303392336 -0.0022180424158753506
vn -0.06862565002223894 -0.045744011900397945 -0.9965931996227354
vn -0.000013413154686579433 0.9999946458724588 -0.003272315159498346
vn 0.001773821761783765 -0.059241020912232385 -0.9982421324496547
vn -0.07579096060344662 -0.03569200983354289 -0.9964847267895524
vn 0.25414339270238895 -0.9671647193380272 0.0018819175099956912
vn 0.0018433968759308198 -0.05877200521575142 -0.9982697297278313
vn -0.04584963985690239 -0.9989422229694233 0.003499384788709471
vn 0.9999846264357224 0.002300999271450822 -0.00504502671567733
vn 0.012240826035484594 -0.9999199245010488 0.0032104148930584913
vn -0.009318164963537101 -0.9999510773632179 0.00331883742475068
vn -0.25414318377027856 0.9671647687485135 -0.0018847373134927244
vn -0.09024326339539752 -0.032272996299998226 -0.9953967084140721
vn 0.06387258815676998 0.9979516132833463 -0.003587482030907599
vn -0.9980444808639672 -0.0002380000581375764 0.06250726016189083
vn -0.0059731117233424585 -0.03580899685559444 -0.9993408015689825
vn -0.005663005742612897 -0.03580899568927776 -0.9993426070140733
vn -0.09793918707334041 -0.020049001749766895 -0.9949904286797191
vn 0.3002816363053669 -0.9538492386903094 0.001602731321344325
vn 0.9939811284371349 -0.000475999921777963 0.10955039815041634
vn -0.9999873104184511 0 0.005037757643250157
vn -0.0639217671721418 -0.9979484884914138 0.00358078193873905
vn -0.3002825124497627 0.9538489531917714 -0.001608481215318387
vn -0.11248946511345176 -0.01606499829542366 -0.9935230425451931
vn 0.1306638899119048 0.9914190431817531 -0.0039023953755119916
vn -0.016308875258313916 -0.05916096448938143 -0.998115224244423
vn -0.020679508323352674 -0.06006096708461725 -0.9979804798533711
vn -0.011833607649674564 -0.0592289992197766 -0.9981742790622374
vn -0.011905261378912159 -0.058751027306602775 -0.9982016737823667
vn -0.12086904895825275 -0.0018899995900026536 -0.9926666615261527
vn 0.33141289480405867 -0.943484758236779 0.0014156738609369384
vn -0.029425803797319943 -0.06014799079047138 -0.9977556520886018
vn -0.1306635535459991 -0.9914191403581919 0.0038889466640201235
vn -0.3314116398521633 0.9434851992216382 -0.0014155635646823424
vn -0.1355879366396075 0.0029009998210646655 -0.9907610688949441
vn 0.19594472912084532 0.9806059681911042 -0.004195030124540177
vn -0.03361991306165242 -0.061676998235606344 -0.9975297736580958
vn -0.14486751422542807 0.02085900508857555 -0.9892311687511975
vn 0.6911683594878381 -0.7226929210551976 -0.0011138669563662482
vn -0.04209911555662646 -0.061633007767577845 -0.9972106281136757
vn -0.19594140318833297 -0.9806066559399962 0.004189611290411758
vn -0.6911670112186343 0.722694200444323 0.001120378168725081
vn -0.16345758124249046 0.016386990285639138 -0.9864142566304145
vn 0.25411009453312305 0.9671650894153839 -0.004444060361858849
vn -0.04626710436295886 -0.06361598684497888 -0.9969013799125802
vn -0.1781839148256195 0.016031004317742972 -0.9838666065061773
vn 0.9236392641833873 -0.3832479373972209 -0.0033953114064275533
vn -0.0546087522086244 -0.0634060389161977 -0.9964926283777391
vn -0.2541108051045952 -0.9671648997412738 0.0044447089382997265
vn -0.9236400936817697 0.3832459200263575 0.0033973705541624766
vn -0.19132185881635355 0.004530999534598189 -0.981516895617326
vn 0.3002503421453454 0.9538491847997128 -0.0046330010280883184
vn -0.058854196594706594 -0.06573899014132181 -0.9960996781037482
vn -0.19670920719865634 0.00873099908162969 -0.9804229992499731
vn 0.9321213924896911 -0.36212900136359677 -0.00350657018804382
vn -0.06716724842166495 -0.06543301053595899 -0.9955938337854768
vn -0.30025122907447743 -0.953848933532947 0.004627249434072376
vn -0.9321214024326848 0.3621289621193208 0.003507979661899693
vn -0.19915726839825484 0.010242997152226745 -0.9799140081933134
vn 0.3313822117383876 0.94348460963238 -0.004756167596903538
vn -0.07156759334187345 -0.06808703168342263 -0.9951091576805998
vn -0.20313720512282665 0.012675005675551718 -0.9790682407912185
vn 0.9523127653532115 -0.3050999756919231 -0.003794967471137668
vn -0.079977758153919 -0.0678429920974454 -0.9944852370065325
vn -0.33137784379868007 -0.9434862097955039 0.004743054401108254
vn -0.9523124115896469 0.30510107042297957 0.0037957290555824807
vn -0.2048003114951834 0.01239799553610229 -0.9787252536427997
vn 0.6911439616706525 0.7226934842055195 -0.0058439826387819745
vn -0.0847777403885543 -0.07220799982893944 -0.993780025707558
vn -0.20683102228088882 0.012803996446142227 -0.9782928937170349
vn 0.9748997762246441 -0.2226049421069176 -0.004179242361314502
vn -0.09900401399629823 -0.061795970269687965 -0.9931663824712597
vn -0.6911444894578275 -0.7226930259656382 0.0058382285590951955
vn -0.9748997757327764 0.2226048913232055 0.004182061114539311
vn -0.20739296961709094 0.011185004298738902 -0.9781937700845582
vn 0.9236266372265901 0.38324797048990733 -0.005901535466983253
vn -0.11050328124423044 -0.053521971497042437 -0.9924335863932298
vn -0.2069042605461604 0.010052999791374903 -0.9783095441438977
vn 0.9908361173019602 -0.1349929588840533 -0.004548593376448181
vn -0.12178537159957892 -0.038918985681980454 -0.9917931416469054
vn -0.12587282550137485 -0.03887302293248601 -0.9912844797979996
vn -0.9236279327277502 -0.3832447849205958 0.005905651211237043
vn -0.9908360933605385 0.1349930138698579 0.004552175343558547
vn -0.20599672224015927 0.007985997144630972 -0.9785200939561317
vn 0.9321097746387047 0.36212822395573435 -0.005875154265956147
vn -0.1289927612487004 -0.03429600714228163 -0.9910522950074492
vn -0.20248949143965672 0.0060879982067071165 -0.9792655115617747
vn 0.998226544697248 -0.059333018365174 -0.004833052189975666
vn -0.13436931138972044 -0.03428199662060114 -0.9903381406693157
vn -0.9321094507588703 -0.3621290119120529 0.0058779705338876794
vn -0.9982266627119583 0.05933098018312959 0.004833698527582023
vn -0.1999336941513167 0.004098999826507569 -0.9798008553494072
vn 0.9523027614311873 0.3050998448524969 -0.005790962054579807
vn -0.13776309571681075 -0.028571007239765796 -0.9900530425203622
vn -0.1932317762517319 0.0019720004355585235 -0.9811511564794095
vn 0.9999873175165563 0.0000010000002205039542 -0.005036348383670607
vn -0.14353318163020712 -0.027981994036282407 -0.9892498338543523
vn -0.9523024087686895 -0.3051009043877986 0.005793133443897676
vn -0.9999873246131773 0.0000010000003385622896 0.005034939123750829
vn -0.1846647791829318 -0.001199999719963516 -0.9828008340096132
vn 0.97489244549783 0.22260498431547596 -0.005633885796419777
vn -0.14697132246671746 -0.02155900234878897 -0.9889057790255394
vn -0.18493275869982237 -0.002483999110331256 -0.9827480371428342
vn 0.998224599263944 0.059332991038316046 -0.005219731677558951
vn -0.1532531472795381 -0.02051600623126619 -0.987973970475556
vn -0.9982247699890389 -0.05932999459106262 0.005221141843967846
vn -0.17595741064504952 -0.006109998035865289 -0.9843788181198796
vn 0.9908316809441544 0.13499308879159833 -0.0054264183293466816
vn -0.1567385867104485 -0.014079994894130353 -0.9875397557464674
vn -0.16765463723147803 -0.007172001331736994 -0.985819702081308
vn -0.16384520659188725 -0.012890996775382232 -0.9864018301275596
vn -0.9908316587082163 -0.1349930252935105 0.0054320551939788415
usemtl material_0_0
f 1//1 2//2 3//3
f 4//4 2//5 1//4
f 3//3 2//2 5//6
f 1//1 3//3 6//7
f 2//5 4//4 7//5
f 1//4 8//8 4//4
f 2//2 9//9 5//6
f 5//10 10//11 3//11
f 3//11 11//12 6//12
f 12//13 1//1 6//7
f 7//5 9//14 2//5
f 8//8 1//4 13//8
f 5//6 9//9 14//15
f 10//11 5//10 15//10
f 11//12 3//11 10//11
f 16//16 6//12 11//12
f 12//13 13//17 1//1
f 6//12 16//16 12//16
f 9//14 7//5 17//14
f 13//8 18//18 8//8
f 9//9 19//19 14//15
f 14//20 15//10 5//10
f 20//21 13//17 12//13
f 21//22 12//16 16//16
f 17//14 19//23 9//14
f 18//18 13//8 20//18
f 14//15 19//19 22//24
f 15//10 14//20 23//20
f 24//25 20//21 12//13
f 12//16 21//22 24//22
f 19//23 17//14 25//23
f 20//18 26//26 18//18
f 19//19 27//27 22//24
f 22//28 23//20 14//20
f 28//29 20//21 24//25
f 29//30 24//22 21//22
f 25//23 27//31 19//23
f 26//26 20//18 30//26
f 22//24 27//27 31//32
f 23//20 22//28 32//28
f 30//33 20//21 28//29
f 24//22 29//30 28//30
f 27//31 25//23 33//31
f 30//26 34//34 26//26
f 27//27 35//35 31//32
f 31//36 32//28 22//28
f 36//37 30//33 28//29
f 37//38 28//30 29//30
f 33//31 35//39 27//31
f 34//34 30//26 38//34
f 31//32 35//35 39//40
f 32//28 31//36 40//36
f 38//41 30//33 36//37
f 28//30 37//38 36//38
f 35//39 33//31 41//39
f 38//34 42//42 34//34
f 35//35 43//43 39//40
f 39//44 40//36 31//36
f 44//45 38//41 36//37
f 45//46 36//38 37//38
f 41//39 43//47 35//39
f 42//42 38//34 46//42
f 39//40 43//43 47//48
f 40//36 39//44 48//44
f 46//49 38//41 44//45
f 36//38 45//46 44//46
f 43//47 41//39 49//47
f 46//42 50//50 42//42
f 43//43 51//51 47//48
f 52//52 39//44 47//52
f 39//44 52//52 48//44
f 53//53 46//49 44//45
f 54//54 44//46 45//46
f 55//55 43//47 49//47
f 50//50 46//42 56//50
f 43//47 55//55 51//55
f 47//48 51//51 57//56
f 47//52 58//57 52//52
f 56//58 46//49 53//53
f 44//46 54//54 53//54
f 56//50 59//59 50//50
f 60//60 51//55 55//55
f 51//51 61//61 57//56
f 58//57 47//52 57//57
f 62//62 56//58 53//53
f 63//63 53//54 54//54
f 59//59 56//50 64//59
f 51//55 60//60 61//60
f 57//56 61//61 65//64
f 57//57 66//65 58//57
f 64//66 56//58 62//62
f 53//54 63//63 62//63
f 64//59 67//67 59//59
f 68//68 61//60 60//60
f 61//61 69//69 65//64
f 66//65 57//57 65//65
f 70//70 64//66 62//62
f 71//71 62//63 63//63
f 67//67 64//59 72//67
f 61//60 68//68 69//68
f 69//69 73//72 65//64
f 65//65 74//73 66//65
f 72//74 64//66 70//70
f 62//63 71//71 70//71
f 72//67 75//75 67//67
f 76//76 69//68 68//68
f 69//69 77//77 73//72
f 74//73 65//65 73//73
f 78//78 72//74 70//70
f 79//79 70//71 71//71
f 75//75 72//67 80//75
f 69//68 76//76 77//76
f 77//77 81//80 73//72
f 73//73 82//81 74//73
f 80//82 72//74 78//78
f 70//71 79//79 78//79
f 80//75 83//83 75//75
f 84//84 77//76 76//76
f 77//77 85//85 81//80
f 82//81 73//73 81//81
f 80//82 78//78 86//86
f 87//87 78//79 79//79
f 83//83 80//75 88//83
f 77//76 84//84 85//84
f 85//85 89//88 81//80
f 81//81 90//89 82//81
f 78//79 87//87 86//87
f 80//82 86//86 88//90
f 88//83 91//91 83//83
f 92//92 85//84 84//84
f 85//85 93//93 89//88
f 90//89 81//81 89//89
f 94//94 86//87 87//87
f 88//90 86//86 95//95
f 91//91 88//83 96//91
f 85//84 92//92 93//92
f 93//93 97//96 89//88
f 89//89 98//97 90//89
f 86//87 94//94 95//94
f 88//90 95//95 96//98
f 96//91 99//99 91//91
f 100//100 93//92 92//92
f 93//93 101//101 97//96
f 98//97 89//89 97//97
f 102//102 95//94 94//94
f 96//98 95//95 103//103
f 99//99 96//91 104//99
f 93//92 100//100 101//100
f 105//104 97//104 101//104
f 97//97 106//105 98//97
f 95//94 102//102 103//102
f 96//98 103//103 104//106
f 104//99 107//107 99//99
f 108//108 101//108 100//108
f 109//109 101//110 100//110
f 101//111 110//111 100//111
f 105//112 111//112 97//112
f 101//113 112//113 105//113
f 101//114 111//114 105//114
f 110//111 101//111 105//111
f 106//105 97//97 113//105
f 114//115 103//102 102//102
f 104//106 103//103 115//116
f 107//107 104//99 116//107
f 101//108 108//108 112//108
f 101//110 109//109 111//109
f 111//117 117//118 97//119
f 112//120 110//120 105//120
f 97//119 117//118 113//121
f 113//105 118//122 106//105
f 103//102 114//115 115//115
f 104//106 115//116 116//123
f 116//107 119//124 107//107
f 110//120 112//120 108//120
f 120//125 111//109 109//109
f 111//109 120//125 117//125
f 117//118 121//126 113//121
f 118//122 113//105 122//122
f 123//127 115//115 114//115
f 116//123 115//116 124//128
f 119//124 116//107 125//124
f 126//129 117//125 120//125
f 117//125 126//129 121//129
f 113//121 121//126 122//130
f 122//122 127//131 118//122
f 115//115 123//127 124//127
f 116//123 124//128 125//132
f 125//124 128//133 119//124
f 129//134 121//129 126//129
f 122//130 121//126 130//135
f 127//131 122//122 131//131
f 132//136 124//127 123//127
f 124//128 133//137 125//132
f 128//133 125//124 134//133
f 121//129 129//134 130//134
f 122//130 130//135 131//138
f 131//131 135//139 127//131
f 124//127 132//136 133//136
f 125//132 133//137 134//140
f 134//141 136//141 128//141
f 128//142 137//142 134//142
f 134//143 138//144 128//143
f 139//145 130//134 129//134
f 131//138 130//135 140//146
f 135//139 131//131 141//139
f 142//147 133//136 132//136
f 134//148 133//148 137//148
f 136//141 134//141 143//141
f 137//142 128//142 144//142
f 137//149 143//149 134//149
f 137//150 145//150 134//150
f 138//144 134//143 145//144
f 130//134 139//145 140//145
f 131//138 140//146 141//151
f 141//139 146//152 135//139
f 133//136 142//147 147//147
f 133//153 145//153 137//153
f 137//154 136//154 143//154
f 136//154 137//154 144//154
f 145//144 148//155 138//144
f 149//156 140//145 139//145
f 141//151 140//146 150//157
f 146//152 141//139 151//152
f 152//158 147//147 142//147
f 133//159 147//160 153//161
f 133//159 153//161 145//162
f 148//155 145//144 153//155
f 140//145 149//156 150//156
f 141//151 150//157 151//163
f 151//152 154//164 146//152
f 147//147 152//158 155//158
f 147//160 156//165 153//161
f 153//155 157//166 148//155
f 158//167 150//156 149//156
f 151//163 150//157 159//168
f 154//164 151//152 160//164
f 161//169 155//158 152//158
f 147//160 155//170 156//165
f 157//166 153//155 156//166
f 150//156 158//167 159//167
f 151//163 159//168 160//171
f 160//164 162//172 154//164
f 155//158 161//169 163//169
f 155//170 164//173 156//165
f 156//166 165//174 157//166
f 166//175 159//167 158//167
f 160//171 159//168 167//176
f 162//172 160//164 168//172
f 169//177 163//169 161//169
f 155//170 163//178 164//173
f 165//174 156//166 164//174
f 159//167 166//175 167//175
f 160//171 167//176 168//179
f 168//172 170//180 162//172
f 163//169 169//177 171//177
f 163//178 172//181 164//173
f 164//174 173//182 165//174
f 174//183 167//175 166//175
f 168//179 167//176 175//184
f 170//180 168//172 176//180
f 177//185 171//177 169//177
f 163//178 171//186 172//181
f 173//182 164//174 172//182
f 167//175 174//183 175//183
f 168//179 175//184 176//187
f 176//180 178//188 170//180
f 171//177 177//185 179//185
f 171//186 180//189 172//181
f 172//182 181//190 173//182
f 182//191 175//183 174//183
f 176//187 175//184 183//192
f 178//188 176//180 184//188
f 185//193 179//185 177//185
f 171//186 179//194 180//189
f 181//190 172//182 180//190
f 175//183 182//191 183//191
f 176//187 183//192 184//195
f 184//188 186//196 178//188
f 179//185 185//193 187//193
f 179//194 188//197 180//189
f 180//190 189//198 181//190
f 190//199 183//191 182//191
f 184//195 183//192 191//200
f 186//196 184//188 192//196
f 193//201 187//193 185//193
f 179//194 187//202 188//197
f 189//198 180//190 188//198
f 183//191 190//199 191//199
f 184//195 191//200 192//203
f 192//196 194//204 186//196
f 187//193 193//201 195//201
f 187//202 196//205 188//197
f 188//198 197//206 189//198
f 198//207 191//199 190//199
f 192//203 191//200 199//208
f 194//204 192//196 200//204
f 193//201 201//209 195//201
f 187//202 195//210 196//205
f 197//206 188//198 196//206
f 191//199 198//207 199//207
f 192//203 199//208 200//211
f 200//204 202//212 194//204
f 201//209 193//201 203//209
f 195//210 201//213 204//214
f 195//210 204//214 196//205
f 204//215 197//206 196//206
f 205//216 199//207 198//207
f 200//211 199//208 206//217
f 202//212 200//204 207//212
f 203//209 208//218 201//209
f 201//213 209//219 204//214
f 197//206 204//215 210//215
f 199//207 205//216 206//216
f 200//211 206//217 207//220
f 207//212 211//221 202//212
f 208//218 203//209 212//218
f 201//213 208//222 209//219
f 209//223 210//215 204//215
f 213//224 206//216 205//216
f 207//220 206//217 214//225
f 211//221 207//212 215//221
f 212//218 216//226 208//218
f 208//222 217//227 209//219
f 210//215 209//223 218//223
f 206//216 213//224 214//224
f 207//220 214//225 215//228
f 215//221 219//229 211//221
f 216//226 212//218 220//226
f 208//222 216//230 217//227
f 217//231 218//223 209//223
f 221//232 214//224 213//224
f 215//228 214//225 222//233
f 219//229 215//221 223//229
f 220//226 224//234 216//226
f 216//230 225//235 217//227
f 218//223 217//231 226//231
f 214//224 221//232 222//232
f 215//228 222//233 223//236
f 223//229 227//237 219//229
f 224//234 220//226 228//234
f 216//230 224//238 225//235
f 225//10 226//231 217//231
f 229//239 222//232 221//232
f 230//240 223//236 222//233
f 227//237 223//229 230//237
f 228//234 231//241 224//234
f 224//238 232//242 225//235
f 226//231 225//10 233//10
f 222//232 229//239 234//239
f 230//240 222//233 234//243
f 230//237 235//241 227//237
f 231//241 228//234 235//241
f 224//238 231//244 232//242
f 232//245 233//10 225//10
f 236//245 234//239 229//239
f 231//244 230//240 234//243
f 235//241 230//237 231//241
f 231//244 234//243 232//242
f 233//10 232//245 236//245
f 234//239 236//245 232//245
usemtl material_1_0
f 3//246 2//247 1//248
f 1//249 2//250 4//249
f 5//251 2//247 3//246
f 6//252 3//246 1//248
f 7//250 4//249 2//250
f 4//249 8//253 1//249
f 5//251 9//254 2//247
f 3//255 10//255 5//14
f 6//256 11//256 3//255
f 6//252 1//248 12//257
f 2//250 9//10 7//250
f 13//253 1//249 8//253
f 14//258 9//254 5//251
f 15//14 5//14 10//255
f 10//255 3//255 11//256
f 11//256 6//256 16//259
f 1//248 13//260 12//257
f 12//259 16//259 6//256
f 17//10 7//250 9//10
f 8//253 18//261 13//253
f 14//258 19//262 9//254
f 5//14 15//14 14//263
f 12//257 13//260 20//264
f 16//259 12//259 21//265
f 9//10 19//266 17//10
f 20//261 13//253 18//261
f 22//267 19//262 14//258
f 23//263 14//263 15//14
f 12//257 20//264 24//268
f 24//265 21//265 12//259
f 25//266 17//10 19//266
f 18//261 26//30 20//261
f 22//267 27//269 19//262
f 14//263 23//263 22//270
f 24//268 20//264 28//271
f 21//265 24//265 29//26
f 19//266 27//272 25//266
f 30//30 20//261 26//30
f 31//273 27//269 22//267
f 32//270 22//270 23//263
f 28//271 20//264 30//274
f 28//26 29//26 24//265
f 33//272 25//266 27//272
f 26//30 34//275 30//30
f 31//273 35//276 27//269
f 22//270 32//270 31//277
f 28//271 30//274 36//278
f 29//26 28//26 37//279
f 27//272 35//280 33//272
f 38//275 30//30 34//275
f 39//281 35//276 31//273
f 40//277 31//277 32//270
f 36//278 30//274 38//282
f 36//279 37//279 28//26
f 41//280 33//272 35//280
f 34//275 42//283 38//275
f 39//281 43//284 35//276
f 31//277 40//277 39//285
f 36//278 38//282 44//286
f 37//279 36//279 45//287
f 35//280 43//288 41//280
f 46//283 38//275 42//283
f 47//289 43//284 39//281
f 48//285 39//285 40//277
f 44//286 38//282 46//290
f 44//287 45//287 36//279
f 49//288 41//280 43//288
f 42//283 50//291 46//283
f 47//289 51//292 43//284
f 47//293 39//285 52//293
f 48//285 52//293 39//285
f 44//286 46//290 53//294
f 45//287 44//287 54//295
f 49//288 43//288 55//296
f 56//291 46//283 50//291
f 51//296 55//296 43//288
f 57//297 51//292 47//289
f 52//293 58//298 47//293
f 53//294 46//290 56//299
f 53//295 54//295 44//287
f 50//291 59//300 56//291
f 55//296 51//296 60//301
f 57//297 61//302 51//292
f 57//298 47//293 58//298
f 53//294 56//299 62//303
f 54//295 53//295 63//304
f 64//300 56//291 59//300
f 61//301 60//301 51//296
f 65//305 61//302 57//297
f 58//298 66//306 57//298
f 62//303 56//299 64//307
f 62//304 63//304 53//295
f 59//300 67//308 64//300
f 60//301 61//301 68//309
f 65//305 69//310 61//302
f 65//306 57//298 66//306
f 62//303 64//307 70//311
f 63//304 62//304 71//312
f 72//308 64//300 67//308
f 69//309 68//309 61//301
f 65//305 73//313 69//310
f 66//306 74//314 65//306
f 70//311 64//307 72//315
f 70//312 71//312 62//304
f 67//308 75//316 72//308
f 68//309 69//309 76//317
f 73//313 77//318 69//310
f 73//314 65//306 74//314
f 70//311 72//315 78//319
f 71//312 70//312 79//320
f 80//316 72//308 75//316
f 77//317 76//317 69//309
f 73//313 81//321 77//318
f 74//314 82//322 73//314
f 78//319 72//315 80//323
f 78//320 79//320 70//312
f 75//316 83//324 80//316
f 76//317 77//317 84//325
f 81//321 85//326 77//318
f 81//322 73//314 82//322
f 86//327 78//319 80//323
f 79//320 78//320 87//328
f 88//324 80//316 83//324
f 85//325 84//325 77//317
f 81//321 89//329 85//326
f 82//322 90//330 81//322
f 86//328 87//328 78//320
f 88//331 86//327 80//323
f 83//324 91//332 88//324
f 84//325 85//325 92//333
f 89//329 93//334 85//326
f 89//330 81//322 90//330
f 87//328 86//328 94//335
f 95//336 86//327 88//331
f 96//332 88//324 91//332
f 93//333 92//333 85//325
f 89//329 97//337 93//334
f 90//330 98//338 89//330
f 95//335 94//335 86//328
f 96//339 95//336 88//331
f 91//332 99//340 96//332
f 92//333 93//333 100//341
f 97//337 101//342 93//334
f 97//338 89//330 98//338
f 94//335 95//335 102//343
f 103//344 95//336 96//339
f 104//340 96//332 99//340
f 101//341 100//341 93//333
f 101//345 97//345 105//345
f 98//338 106//346 97//338
f 103//343 102//343 95//335
f 104//347 103//344 96//339
f 99//340 107//348 104//340
f 100//349 101//349 108//349
f 100//350 101//350 109//351
f 100//352 110//352 101//352
f 97//353 111//353 105//353
f 105//354 112//354 101//354
f 105//355 111//355 101//355
f 105//352 101//352 110//352
f 113//346 97//338 106//346
f 102//343 103//343 114//356
f 115//357 103//344 104//347
f 116//348 104//340 107//348
f 112//349 108//349 101//349
f 111//351 109//351 101//350
f 97//358 117//359 111//360
f 105//361 110//361 112//361
f 113//362 117//359 97//358
f 106//346 118//363 113//346
f 115//356 114//356 103//343
f 116//364 115//357 104//347
f 107//348 119//365 116//348
f 108//361 112//361 110//361
f 109//351 111//351 120//366
f 117//366 120//366 111//351
f 113//362 121//367 117//359
f 122//363 113//346 118//363
f 114//356 115//356 123//368
f 124//369 115//357 116//364
f 125//365 116//348 119//365
f 120//366 117//366 126//370
f 121//370 126//370 117//366
f 122//371 121//367 113//362
f 118//363 127//372 122//363
f 124//368 123//368 115//356
f 125//373 124//369 116//364
f 119//365 128//374 125//365
f 126//370 121//370 129//375
f 130//376 121//367 122//371
f 131//372 122//363 127//372
f 123//368 124//368 132//377
f 125//373 133//378 124//369
f 134//374 125//365 128//374
f 130//375 129//375 121//370
f 131//379 130//376 122//371
f 127//372 135//380 131//372
f 133//377 132//377 124//368
f 134//381 133//378 125//373
f 128//382 136//382 134//382
f 134//383 137//383 128//383
f 128//384 138//385 134//384
f 129//375 130//375 139//386
f 140//387 130//376 131//379
f 141//380 131//372 135//380
f 132//377 133//377 142//388
f 137//389 133//389 134//389
f 143//382 134//382 136//382
f 144//383 128//383 137//383
f 134//390 143//390 137//390
f 134//391 145//391 137//391
f 145//385 134//384 138//385
f 140//386 139//386 130//375
f 141//392 140//387 131//379
f 135//380 146//393 141//380
f 147//388 142//388 133//377
f 137//394 145//394 133//394
f 143//395 136//395 137//395
f 144//395 137//395 136//395
f 138//385 148//396 145//385
f 139//386 140//386 149//397
f 150//398 140//387 141//392
f 151//393 141//380 146//393
f 142//388 147//388 152//399
f 153//400 147//401 133//402
f 145//403 153//400 133//402
f 153//396 145//385 148//396
f 150//397 149//397 140//386
f 151//404 150//398 141//392
f 146//393 154//405 151//393
f 155//399 152//399 147//388
f 153//400 156//406 147//401
f 148//396 157//407 153//396
f 149//397 150//397 158//408
f 159//409 150//398 151//404
f 160//405 151//393 154//405
f 152//399 155//399 161//410
f 156//406 155//411 147//401
f 156//407 153//396 157//407
f 159//408 158//408 150//397
f 160//412 159//409 151//404
f 154//405 162//413 160//405
f 163//410 161//410 155//399
f 156//406 164//414 155//411
f 157//407 165//415 156//407
f 158//408 159//408 166//416
f 167//417 159//409 160//412
f 168//413 160//405 162//413
f 161//410 163//410 169//418
f 164//414 163//419 155//411
f 164//415 156//407 165//415
f 167//416 166//416 159//408
f 168//420 167//417 160//412
f 162//413 170//421 168//413
f 171//418 169//418 163//410
f 164//414 172//422 163//419
f 165//415 173//423 164//415
f 166//416 167//416 174//424
f 175//425 167//417 168//420
f 176//421 168//413 170//421
f 169//418 171//418 177//426
f 172//422 171//427 163//419
f 172//423 164//415 173//423
f 175//424 174//424 167//416
f 176//428 175//425 168//420
f 170//421 178//429 176//421
f 179//426 177//426 171//418
f 172//422 180//430 171//427
f 173//423 181//431 172//423
f 174//424 175//424 182//432
f 183//433 175//425 176//428
f 184//429 176//421 178//429
f 177//426 179//426 185//434
f 180//430 179//435 171//427
f 180//431 172//423 181//431
f 183//432 182//432 175//424
f 184//436 183//433 176//428
f 178//429 186//437 184//429
f 187//434 185//434 179//426
f 180//430 188//438 179//435
f 181//431 189//439 180//431
f 182//432 183//432 190//440
f 191//441 183//433 184//436
f 192//437 184//429 186//437
f 185//434 187//434 193//442
f 188//438 187//443 179//435
f 188//439 180//431 189//439
f 191//440 190//440 183//432
f 192//444 191//441 184//436
f 186//437 194//445 192//437
f 195//442 193//442 187//434
f 188//438 196//446 187//443
f 189//439 197//447 188//439
f 190//440 191//440 198//448
f 199//449 191//441 192//444
f 200//445 192//437 194//445
f 195//442 201//450 193//442
f 196//446 195//451 187//443
f 196//447 188//439 197//447
f 199//448 198//448 191//440
f 200//452 199//449 192//444
f 194//445 202//453 200//445
f 203//450 193//442 201//450
f 204//454 201//455 195//451
f 196//446 204//454 195//451
f 196//447 197//447 204//456
f 198//448 199//448 205//457
f 206//458 199//449 200//452
f 207//453 200//445 202//453
f 201//450 208//459 203//450
f 204//454 209//460 201//455
f 210//456 204//456 197//447
f 206//457 205//457 199//448
f 207//461 206//458 200//452
f 202//453 211//462 207//453
f 212//459 203//450 208//459
f 209//460 208//463 201//455
f 204//456 210//456 209//464
f 205//457 206//457 213//465
f 214//466 206//458 207//461
f 215//462 207//453 211//462
f 208//459 216//467 212//459
f 209//460 217//468 208//463
f 218//464 209//464 210//456
f 214//465 213//465 206//457
f 215//469 214//466 207//461
f 211//462 219//470 215//462
f 220//467 212//459 216//467
f 217//468 216//471 208//463
f 209//464 218//464 217//472
f 213//465 214//465 221//473
f 222//474 214//466 215//469
f 223//470 215//462 219//470
f 216//467 224//475 220//467
f 217//468 225//476 216//471
f 226//472 217//472 218//464
f 222//473 221//473 214//465
f 223//477 222//474 215//469
f 219//470 227//478 223//470
f 228//475 220//467 224//475
f 225//476 224//479 216//471
f 217//472 226//472 225//14
f 221//473 222//473 229//480
f 222//474 223//477 230//481
f 230//478 223//470 227//478
f 224//475 231//482 228//475
f 225//476 232//483 224//479
f 233//14 225//14 226//472
f 234//480 229//480 222//473
f 234//484 222//474 230//481
f 227//478 235//482 230//478
f 235//482 228//475 231//482
f 232//483 231//485 224//479
f 225//14 233//14 232//486
f 229//480 234//480 236//486
f 234//484 230//481 231//485
f 231//482 230//478 235//482
f 232//483 234//484 231//485
f 236//486 232//486 233//14
f 232//486 236//486 234//480
