# SSTK version 0.8.0
# 13
mtllib original-13.mtl
o mesh9/mesh9-geometry#mesh9-geometry
v 0.065960 0.580460 0.359404
v 0.066350 0.580015 0.360062
v 0.066314 0.579998 0.359396
v 0.065997 0.580476 0.360070
v 0.066223 0.579798 0.360074
v 0.066186 0.579781 0.359408
v 0.065615 0.580913 0.359411
v 0.065927 0.579624 0.359426
v 0.065652 0.580930 0.360078
v 0.065963 0.579641 0.360093
v 0.065287 0.581352 0.359419
v 0.065612 0.579592 0.359444
v 0.065649 0.579609 0.360111
v 0.065323 0.581369 0.360085
v 0.064981 0.581771 0.359425
v 0.065258 0.580055 0.359452
v 0.065017 0.581788 0.360091
v 0.065295 0.580071 0.360118
v 0.064706 0.582163 0.359430
v 0.064911 0.580511 0.359460
v 0.064742 0.582180 0.360096
v 0.064947 0.580528 0.360126
v 0.064470 0.582520 0.359434
v 0.064578 0.580956 0.359467
v 0.064506 0.582536 0.360100
v 0.064614 0.580973 0.360133
v 0.064289 0.582818 0.359437
v 0.064265 0.581385 0.359474
v 0.064325 0.582834 0.360103
v 0.064302 0.581401 0.360140
v 0.064131 0.583152 0.359437
v 0.063981 0.581790 0.359479
v 0.064167 0.583168 0.360103
v 0.064017 0.581806 0.360145
v 0.064050 0.583451 0.359434
v 0.063732 0.582167 0.359483
v 0.064086 0.583467 0.360100
v 0.064034 0.583716 0.359428
v 0.063768 0.582183 0.360149
v 0.063712 0.584811 0.359419
v 0.064071 0.583733 0.360095
v 0.063749 0.584827 0.360085
v 0.063524 0.582509 0.359486
v 0.063437 0.584499 0.359442
v 0.064075 0.583942 0.359421
v 0.063473 0.584516 0.360108
v 0.063561 0.582526 0.360152
v 0.064112 0.583958 0.360087
v 0.064097 0.585070 0.359391
v 0.063327 0.582931 0.359486
v 0.063302 0.584162 0.360126
v 0.064133 0.585086 0.360058
v 0.064165 0.584130 0.359411
v 0.063364 0.582947 0.360153
v 0.063265 0.584145 0.359460
v 0.064202 0.584146 0.360077
v 0.064309 0.584293 0.359399
v 0.063215 0.583351 0.359482
v 0.063229 0.583775 0.360139
v 0.063252 0.583367 0.360148
v 0.064346 0.584309 0.360065
v 0.065566 0.585833 0.359292
v 0.064572 0.584464 0.359381
v 0.063193 0.583759 0.359473
v 0.064608 0.584480 0.360047
v 0.065602 0.585850 0.359959
v 0.065971 0.586089 0.359264
v 0.066007 0.586106 0.359930
v 0.066031 0.585221 0.359282
v 0.066067 0.585238 0.359948
v 0.066292 0.586385 0.359239
v 0.066328 0.586402 0.359905
v 0.066528 0.585539 0.359247
v 0.066565 0.585555 0.359913
v 0.066525 0.586707 0.359218
v 0.066562 0.586724 0.359884
v 0.066958 0.585936 0.359214
v 0.066669 0.587041 0.359202
v 0.066706 0.587058 0.359868
v 0.066995 0.585952 0.359880
v 0.066721 0.587375 0.359191
v 0.066757 0.587391 0.359857
v 0.067280 0.586381 0.359185
v 0.066678 0.587694 0.359186
v 0.067317 0.586397 0.359851
v 0.066433 0.589470 0.359155
v 0.066715 0.587710 0.359852
v 0.067487 0.586862 0.359162
v 0.066469 0.589486 0.359821
v 0.067284 0.588326 0.359137
v 0.066538 0.587985 0.359186
v 0.067523 0.586878 0.359828
v 0.067320 0.588343 0.359803
v 0.066575 0.588001 0.359852
v 0.065726 0.589071 0.359203
v 0.067564 0.587367 0.359145
v 0.067494 0.587878 0.359136
v 0.067530 0.587895 0.359803
v 0.065763 0.589087 0.359870
v 0.066090 0.589447 0.359174
v 0.067600 0.587384 0.359811
v 0.066127 0.589463 0.359840
v 0.065837 0.589290 0.359192
v 0.065873 0.589306 0.359858
vn 0.793040317495953 0.6063709534904401 -0.05832085037970898
vn 0.7919384455996251 0.6078103219921619 -0.0583104695662281
vn 0.7109534694109857 -0.7029138184528482 -0.02138523229986607
vn 0.861230735076214 -0.5070447458261382 -0.03445644627919911
vn -0.054519903064752885 -0.024718005236510188 -0.9982066922170667
vn 0.7964336781926508 0.6019012174711625 -0.05838082431122166
vn 0.05451910957498175 0.024717990236976878 0.99820673592688
vn 0.31764451589911835 -0.948189860602826 0.006160338400452075
vn 0.8024048390111097 0.593905676331888 -0.05850232433260686
vn 0.10264792026344208 -0.994535728656876 0.019028633438235538
vn 0.811484840026968 0.5814181669065743 -0.058696418948733835
vn -0.7918966342677999 -0.6078660499398453 0.05829739244477416
vn -0.7930175702791822 -0.606400050617124 0.058327625016383805
vn 0.8245510344118794 0.5627073747128739 -0.058957629650834516
vn -0.7964396027308726 -0.6018922529151778 0.05839242316072675
vn 0.842464893882983 0.5354839838602452 -0.059243612346772334
vn -0.8024230539952284 -0.5938809911746317 0.058503083153011136
vn 0.8786367084012003 0.4737469314504821 -0.05967729544103224
vn -0.8115131182096209 -0.5813762694513941 0.058720458891921484
vn 0.9369042688238682 0.3444549353234251 -0.059675695144236617
vn -0.8246282235464535 -0.562587980342895 0.05901743220712662
vn 0.9855493430205327 0.1592359526800181 -0.05776161221679386
vn -0.8431963125328235 -0.5343217016548821 0.05933209647130584
vn 0.9967067250217148 -0.06145704220591478 -0.052903083651033994
vn -0.8802191242670738 -0.47079081087819047 0.0597520348369943
vn -0.8308947842735043 0.5555310897932748 0.0316080012051247
vn -0.6581280440533185 0.7527078419095412 0.017273747666170527
vn 0.9500100066377346 -0.3090709969199529 -0.044227888838126124
vn -0.9380610214868123 -0.34129007502136866 0.05968755866197776
vn -0.9483731436618449 0.3140889794658054 0.044005605996040406
vn -0.510205137017575 0.8600280785919493 0.006513232248074153
vn 0.8321714520121256 -0.5536077787136036 -0.031766362772908494
vn -0.9860952541954462 -0.1558360182931237 0.05771728558901389
vn -0.9963885007272317 0.06652401177458481 0.05276847047200075
vn -0.49802429320976394 0.86714441796978 0.005688739470779798
vn 0.6521987293276029 -0.7578600830766268 -0.016879334778023294
vn 0.5033146705423919 -0.864081694420155 -0.006096538755518736
vn -0.6081663757020437 0.7936942264711554 0.013532713393659385
vn 0.4997083267496774 -0.8661738720518367 -0.005866136016700352
vn -0.7462898891132278 0.6651796123530574 0.024238084024983245
vn 0.6100254042015076 -0.7922628137255657 -0.013734635649943231
vn -0.8679020307506546 0.49549392456080776 0.03509751760763252
vn 0.7467343440898065 -0.6646770039418668 -0.0243372099393073
vn -0.9594929282068657 0.2780328779456786 0.04550867502199991
vn 0.8685257740792731 -0.494394192675095 -0.035176156827325
vn -0.9984585349798436 0.011812003241562596 0.05423126870474066
vn -0.956553558741756 -0.28546308975332046 0.05929682661803576
vn 0.9600682890373472 -0.27602795404562785 -0.04557904091011074
vn 0.8004730718457834 0.5965083430067121 -0.058486391350141734
vn 0.8564960144088392 0.5127156320748817 -0.05947485122157218
vn -0.8534554679260422 -0.5177690699560427 0.059405003694930486
vn 0.998484214441422 -0.008926999024680787 -0.05431005615638604
vn 0.9574408762423241 0.282474016679385 -0.05929079524972898
vn -0.799058876409147 -0.5984072435739388 0.0584267307830283
vn -0.06816434726027214 0.9974534190008445 -0.0209832954062723
vn -0.3066986607114717 0.9517822308257787 -0.0068203080644322605
vn -0.8912068276874751 0.4520440455868361 0.037504281525094434
vn -0.736504022135228 0.6760248960128442 0.023498198855540886
vn -0.7919384455996251 -0.6078103219921619 0.0583104695662281
vn -0.793040317495953 -0.6063709534904401 0.05832085037970898
vn -0.861230735076214 0.5070447458261382 0.03445644627919911
vn -0.7109534694109857 0.7029138184528482 0.02138523229986607
vn 0.054519903064752885 0.024718005236510188 0.9982066922170667
vn -0.7964336781926508 -0.6019012174711625 0.05838082431122166
vn -0.05451910957498175 -0.024717990236976878 -0.99820673592688
vn -0.31764451589911835 0.948189860602826 -0.006160338400452075
vn -0.8024048390111097 -0.593905676331888 0.05850232433260686
vn -0.10264792026344208 0.994535728656876 -0.019028633438235538
vn -0.811484840026968 -0.5814181669065743 0.058696418948733835
vn 0.7918966342677999 0.6078660499398453 -0.05829739244477416
vn 0.7930175702791822 0.606400050617124 -0.058327625016383805
vn -0.8245510344118794 -0.5627073747128739 0.058957629650834516
vn 0.7964396027308726 0.6018922529151778 -0.05839242316072675
vn -0.842464893882983 -0.5354839838602452 0.059243612346772334
vn 0.8024230539952284 0.5938809911746317 -0.058503083153011136
vn -0.8786367084012003 -0.4737469314504821 0.05967729544103224
vn 0.8115131182096209 0.5813762694513941 -0.058720458891921484
vn -0.9369042688238682 -0.3444549353234251 0.059675695144236617
vn 0.8246282235464535 0.562587980342895 -0.05901743220712662
vn -0.9855493430205327 -0.1592359526800181 0.05776161221679386
vn 0.8431963125328235 0.5343217016548821 -0.05933209647130584
vn -0.9967067250217148 0.06145704220591478 0.052903083651033994
vn 0.8802191242670738 0.47079081087819047 -0.0597520348369943
vn 0.8308947842735043 -0.5555310897932748 -0.0316080012051247
vn 0.6581280440533185 -0.7527078419095412 -0.017273747666170527
vn -0.9500100066377346 0.3090709969199529 0.044227888838126124
vn 0.9380610214868123 0.34129007502136866 -0.05968755866197776
vn 0.9483731436618449 -0.3140889794658054 -0.044005605996040406
vn 0.510205137017575 -0.8600280785919493 -0.006513232248074153
vn -0.8321714520121256 0.5536077787136036 0.031766362772908494
vn 0.9860952541954462 0.1558360182931237 -0.05771728558901389
vn 0.9963885007272317 -0.06652401177458481 -0.05276847047200075
vn 0.49802429320976394 -0.86714441796978 -0.005688739470779798
vn -0.6521987293276029 0.7578600830766268 0.016879334778023294
vn -0.5033146705423919 0.864081694420155 0.006096538755518736
vn 0.6081663757020437 -0.7936942264711554 -0.013532713393659385
vn -0.4997083267496774 0.8661738720518367 0.005866136016700352
vn 0.7462898891132278 -0.6651796123530574 -0.024238084024983245
vn -0.6100254042015076 0.7922628137255657 0.013734635649943231
vn 0.8679020307506546 -0.49549392456080776 -0.03509751760763252
vn -0.7467343440898065 0.6646770039418668 0.0243372099393073
vn 0.9594929282068657 -0.2780328779456786 -0.04550867502199991
vn -0.8685257740792731 0.494394192675095 0.035176156827325
vn 0.9984585349798436 -0.011812003241562596 -0.05423126870474066
vn 0.956553558741756 0.28546308975332046 -0.05929682661803576
vn -0.9600682890373472 0.27602795404562785 0.04557904091011074
vn -0.8564960144088392 -0.5127156320748817 0.05947485122157218
vn -0.8004730718457834 -0.5965083430067121 0.058486391350141734
vn 0.8534554679260422 0.5177690699560427 -0.059405003694930486
vn -0.998484214441422 0.008926999024680787 0.05431005615638604
vn -0.9574408762423241 -0.282474016679385 0.05929079524972898
vn 0.799058876409147 0.5984072435739388 -0.0584267307830283
vn 0.06816434726027214 -0.9974534190008445 0.0209832954062723
vn 0.3066986607114717 -0.9517822308257787 0.0068203080644322605
vn 0.8912068276874751 -0.4520440455868361 -0.037504281525094434
vn 0.736504022135228 -0.6760248960128442 -0.023498198855540886
usemtl material_0_0
f 1//1 2//2 3//2
f 2//2 1//1 4//1
f 5//3 3//4 2//4
f 6//5 1//5 3//5
f 7//6 4//1 1//1
f 4//7 5//7 2//7
f 3//4 5//3 6//3
f 1//5 6//5 8//5
f 4//1 7//6 9//6
f 1//5 8//5 7//5
f 5//7 4//7 10//7
f 10//8 6//3 5//3
f 6//3 10//8 8//8
f 11//9 9//6 7//6
f 10//7 4//7 9//7
f 7//5 8//5 12//5
f 13//10 8//8 10//8
f 9//6 11//9 14//9
f 7//5 12//5 11//5
f 10//7 9//7 13//7
f 8//8 13//10 12//10
f 15//11 14//9 11//9
f 13//7 9//7 14//7
f 11//5 12//5 16//5
f 13//12 16//13 12//12
f 14//9 15//11 17//11
f 11//5 16//5 15//5
f 13//7 14//7 18//7
f 16//13 13//12 18//13
f 19//14 17//11 15//11
f 18//7 14//7 17//7
f 15//5 16//5 20//5
f 18//13 20//15 16//13
f 17//11 19//14 21//14
f 15//5 20//5 19//5
f 18//7 17//7 22//7
f 20//15 18//13 22//15
f 23//16 21//14 19//14
f 22//7 17//7 21//7
f 19//5 20//5 24//5
f 22//15 24//17 20//15
f 21//14 23//16 25//16
f 19//5 24//5 23//5
f 22//7 21//7 26//7
f 24//17 22//15 26//17
f 27//18 25//16 23//16
f 26//7 21//7 25//7
f 23//5 24//5 28//5
f 26//17 28//19 24//17
f 25//16 27//18 29//18
f 23//5 28//5 27//5
f 26//7 25//7 30//7
f 28//19 26//17 30//19
f 31//20 29//18 27//18
f 30//7 25//7 29//7
f 27//5 28//5 31//5
f 30//19 32//21 28//19
f 29//18 31//20 33//20
f 30//7 29//7 33//7
f 31//5 28//5 32//5
f 32//21 30//19 34//21
f 35//22 33//20 31//20
f 30//7 33//7 34//7
f 31//5 32//5 35//5
f 34//21 36//23 32//21
f 33//20 35//22 37//22
f 34//7 33//7 37//7
f 35//5 32//5 38//5
f 36//23 34//21 39//23
f 40//5 32//5 36//5
f 38//24 37//22 35//22
f 34//7 37//7 41//7
f 40//5 38//5 32//5
f 34//7 42//7 39//7
f 39//23 43//25 36//23
f 40//5 36//5 44//5
f 37//22 38//24 41//24
f 41//7 42//7 34//7
f 40//5 45//5 38//5
f 39//7 42//7 46//7
f 43//25 39//23 47//25
f 44//5 36//5 43//5
f 46//26 40//27 44//26
f 45//28 41//24 38//24
f 48//7 42//7 41//7
f 49//5 45//5 40//5
f 40//27 46//26 42//27
f 39//7 46//7 47//7
f 47//25 50//29 43//25
f 44//5 43//5 50//5
f 44//26 51//30 46//26
f 41//24 45//28 48//28
f 48//7 52//7 42//7
f 49//5 53//5 45//5
f 42//27 49//31 40//27
f 47//7 46//7 54//7
f 50//29 47//25 54//29
f 44//5 50//5 55//5
f 51//30 44//26 55//30
f 54//7 46//7 51//7
f 53//32 48//28 45//28
f 56//7 52//7 48//7
f 49//31 42//27 52//31
f 49//5 57//5 53//5
f 54//29 58//33 50//29
f 55//5 50//5 58//5
f 55//30 59//34 51//30
f 54//7 51//7 60//7
f 48//28 53//32 56//32
f 61//7 52//7 56//7
f 52//31 62//35 49//31
f 49//5 63//5 57//5
f 57//36 56//32 53//32
f 58//33 54//29 60//33
f 55//5 58//5 64//5
f 59//34 55//30 64//34
f 60//7 51//7 59//7
f 65//7 52//7 61//7
f 56//32 57//36 61//36
f 62//35 52//31 66//35
f 62//5 63//5 49//5
f 63//37 61//36 57//36
f 60//33 64//34 58//33
f 64//34 60//33 59//34
f 65//7 66//7 52//7
f 61//36 63//37 65//37
f 66//35 67//38 62//35
f 67//5 63//5 62//5
f 65//7 68//7 66//7
f 69//39 65//37 63//37
f 67//38 66//35 68//38
f 67//5 69//5 63//5
f 70//7 68//7 65//7
f 65//37 69//39 70//39
f 68//38 71//40 67//38
f 71//5 69//5 67//5
f 70//7 72//7 68//7
f 73//41 70//39 69//39
f 71//40 68//38 72//40
f 71//5 73//5 69//5
f 74//7 72//7 70//7
f 70//39 73//41 74//41
f 72//40 75//42 71//40
f 75//5 73//5 71//5
f 74//7 76//7 72//7
f 77//43 74//41 73//41
f 75//42 72//40 76//42
f 78//5 73//5 75//5
f 74//7 79//7 76//7
f 74//41 77//43 80//43
f 73//5 81//5 77//5
f 76//42 78//44 75//42
f 81//5 73//5 78//5
f 74//7 82//7 79//7
f 78//44 76//42 79//44
f 83//45 80//43 77//43
f 82//7 74//7 80//7
f 84//5 77//5 81//5
f 79//44 81//46 78//44
f 81//46 79//44 82//46
f 80//43 83//45 85//45
f 86//5 83//5 77//5
f 80//7 87//7 82//7
f 86//5 77//5 84//5
f 82//46 84//47 81//46
f 88//48 85//45 83//45
f 85//7 89//7 80//7
f 90//5 83//5 86//5
f 80//7 89//7 87//7
f 84//47 82//46 87//47
f 86//5 84//5 91//5
f 85//45 88//48 92//48
f 90//5 88//5 83//5
f 85//7 93//7 89//7
f 86//49 93//50 90//50
f 87//7 89//7 94//7
f 87//47 91//51 84//47
f 86//5 91//5 95//5
f 96//52 92//48 88//48
f 92//7 93//7 85//7
f 97//5 88//5 90//5
f 93//50 86//49 89//49
f 98//53 90//50 93//50
f 94//7 89//7 99//7
f 91//51 87//47 94//51
f 94//51 95//54 91//51
f 86//5 95//5 100//5
f 92//48 96//52 101//52
f 88//5 97//5 96//5
f 92//7 98//7 93//7
f 90//50 98//53 97//53
f 86//55 102//56 89//55
f 99//7 89//7 102//7
f 95//54 94//51 99//54
f 100//5 95//5 103//5
f 102//56 86//55 100//56
f 97//53 101//52 96//52
f 98//7 92//7 101//7
f 101//52 97//53 98//53
f 99//7 102//7 104//7
f 99//57 103//58 95//57
f 104//58 100//56 103//58
f 100//56 104//58 102//56
f 103//58 99//57 104//58
usemtl material_1_0
f 3//59 2//59 1//60
f 4//60 1//60 2//59
f 2//61 3//61 5//62
f 3//63 1//63 6//63
f 1//60 4//60 7//64
f 2//65 5//65 4//65
f 6//62 5//62 3//61
f 8//63 6//63 1//63
f 9//64 7//64 4//60
f 7//63 8//63 1//63
f 10//65 4//65 5//65
f 5//62 6//62 10//66
f 8//66 10//66 6//62
f 7//64 9//64 11//67
f 9//65 4//65 10//65
f 12//63 8//63 7//63
f 10//66 8//66 13//68
f 14//67 11//67 9//64
f 11//63 12//63 7//63
f 13//65 9//65 10//65
f 12//68 13//68 8//66
f 11//67 14//67 15//69
f 14//65 9//65 13//65
f 16//63 12//63 11//63
f 12//70 16//71 13//70
f 17//69 15//69 14//67
f 15//63 16//63 11//63
f 18//65 14//65 13//65
f 18//71 13//70 16//71
f 15//69 17//69 19//72
f 17//65 14//65 18//65
f 20//63 16//63 15//63
f 16//71 20//73 18//71
f 21//72 19//72 17//69
f 19//63 20//63 15//63
f 22//65 17//65 18//65
f 22//73 18//71 20//73
f 19//72 21//72 23//74
f 21//65 17//65 22//65
f 24//63 20//63 19//63
f 20//73 24//75 22//73
f 25//74 23//74 21//72
f 23//63 24//63 19//63
f 26//65 21//65 22//65
f 26//75 22//73 24//75
f 23//74 25//74 27//76
f 25//65 21//65 26//65
f 28//63 24//63 23//63
f 24//75 28//77 26//75
f 29//76 27//76 25//74
f 27//63 28//63 23//63
f 30//65 25//65 26//65
f 30//77 26//75 28//77
f 27//76 29//76 31//78
f 29//65 25//65 30//65
f 31//63 28//63 27//63
f 28//77 32//79 30//77
f 33//78 31//78 29//76
f 33//65 29//65 30//65
f 32//63 28//63 31//63
f 34//79 30//77 32//79
f 31//78 33//78 35//80
f 34//65 33//65 30//65
f 35//63 32//63 31//63
f 32//79 36//81 34//79
f 37//80 35//80 33//78
f 37//65 33//65 34//65
f 38//63 32//63 35//63
f 39//81 34//79 36//81
f 36//63 32//63 40//63
f 35//80 37//80 38//82
f 41//65 37//65 34//65
f 32//63 38//63 40//63
f 39//65 42//65 34//65
f 36//81 43//83 39//81
f 44//63 36//63 40//63
f 41//82 38//82 37//80
f 34//65 42//65 41//65
f 38//63 45//63 40//63
f 46//65 42//65 39//65
f 47//83 39//81 43//83
f 43//63 36//63 44//63
f 44//84 40//85 46//84
f 38//82 41//82 45//86
f 41//65 42//65 48//65
f 40//63 45//63 49//63
f 42//85 46//84 40//85
f 47//65 46//65 39//65
f 43//83 50//87 47//83
f 50//63 43//63 44//63
f 46//84 51//88 44//84
f 48//86 45//86 41//82
f 42//65 52//65 48//65
f 45//63 53//63 49//63
f 40//85 49//89 42//85
f 54//65 46//65 47//65
f 54//87 47//83 50//87
f 55//63 50//63 44//63
f 55//88 44//84 51//88
f 51//65 46//65 54//65
f 45//86 48//86 53//90
f 48//65 52//65 56//65
f 52//89 42//85 49//89
f 53//63 57//63 49//63
f 50//87 58//91 54//87
f 58//63 50//63 55//63
f 51//88 59//92 55//88
f 60//65 51//65 54//65
f 56//90 53//90 48//86
f 56//65 52//65 61//65
f 49//89 62//93 52//89
f 57//63 63//63 49//63
f 53//90 56//90 57//94
f 60//91 54//87 58//91
f 64//63 58//63 55//63
f 64//92 55//88 59//92
f 59//65 51//65 60//65
f 61//65 52//65 65//65
f 61//94 57//94 56//90
f 66//93 52//89 62//93
f 49//63 63//63 62//63
f 57//94 61//94 63//95
f 58//91 64//92 60//91
f 59//92 60//91 64//92
f 52//65 66//65 65//65
f 65//95 63//95 61//94
f 62//93 67//96 66//93
f 62//63 63//63 67//63
f 66//65 68//65 65//65
f 63//95 65//95 69//97
f 68//96 66//93 67//96
f 63//63 69//63 67//63
f 65//65 68//65 70//65
f 70//97 69//97 65//95
f 67//96 71//98 68//96
f 67//63 69//63 71//63
f 68//65 72//65 70//65
f 69//97 70//97 73//99
f 72//98 68//96 71//98
f 69//63 73//63 71//63
f 70//65 72//65 74//65
f 74//99 73//99 70//97
f 71//98 75//100 72//98
f 71//63 73//63 75//63
f 72//65 76//65 74//65
f 73//99 74//99 77//101
f 76//100 72//98 75//100
f 75//63 73//63 78//63
f 76//65 79//65 74//65
f 80//101 77//101 74//99
f 77//63 81//63 73//63
f 75//100 78//102 76//100
f 78//63 73//63 81//63
f 79//65 82//65 74//65
f 79//102 76//100 78//102
f 77//101 80//101 83//103
f 80//65 74//65 82//65
f 81//63 77//63 84//63
f 78//102 81//104 79//102
f 82//104 79//102 81//104
f 85//103 83//103 80//101
f 77//63 83//63 86//63
f 82//65 87//65 80//65
f 84//63 77//63 86//63
f 81//104 84//105 82//104
f 83//103 85//103 88//106
f 80//65 89//65 85//65
f 86//63 83//63 90//63
f 87//65 89//65 80//65
f 87//105 82//104 84//105
f 91//63 84//63 86//63
f 92//106 88//106 85//103
f 83//63 88//63 90//63
f 89//65 93//65 85//65
f 90//107 93//107 86//108
f 94//65 89//65 87//65
f 84//105 91//109 87//105
f 95//63 91//63 86//63
f 88//106 92//106 96//110
f 85//65 93//65 92//65
f 90//63 88//63 97//63
f 89//108 86//108 93//107
f 93//107 90//107 98//111
f 99//65 89//65 94//65
f 94//109 87//105 91//109
f 91//109 95//112 94//109
f 100//63 95//63 86//63
f 101//110 96//110 92//106
f 96//63 97//63 88//63
f 93//65 98//65 92//65
f 97//111 98//111 90//107
f 89//113 102//114 86//113
f 102//65 89//65 99//65
f 99//112 94//109 95//112
f 103//63 95//63 100//63
f 100//114 86//113 102//114
f 96//110 101//110 97//111
f 101//65 92//65 98//65
f 98//111 97//111 101//110
f 104//65 102//65 99//65
f 95//115 103//116 99//115
f 103//116 100//114 104//116
f 102//114 104//116 100//114
f 104//116 99//115 103//116
