# SSTK version 0.8.0
# 43
mtllib original-43.mtl
o mesh34/mesh34-geometry#mesh34-geometry
v -0.135247 0.417543 0.358412
v -0.109382 0.414673 0.359160
v -0.109371 0.414676 0.361143
v -0.135256 0.417541 0.356427
v -0.083510 0.412443 0.361257
v -0.134172 0.418042 0.359555
v -0.135258 0.456486 0.356161
v -0.083500 0.412446 0.363242
v -0.109366 0.415291 0.362201
v -0.135248 0.456483 0.358146
v -0.057641 0.410850 0.362717
v -0.109369 0.455475 0.361580
v -0.134173 0.456708 0.359294
v -0.057631 0.410852 0.364704
v -0.083494 0.413057 0.364291
v -0.083499 0.454470 0.363390
v -0.031776 0.409895 0.363541
v -0.031766 0.409897 0.365529
v -0.057626 0.411461 0.365747
v -0.057631 0.453752 0.364646
v -0.005914 0.409576 0.363729
v -0.005904 0.409578 0.365717
v -0.031760 0.410503 0.366569
v -0.031767 0.453321 0.365348
v 0.019945 0.409895 0.363281
v 0.019955 0.409897 0.365268
v -0.005898 0.410184 0.366756
v -0.005905 0.453178 0.365494
v 0.045801 0.410850 0.362196
v 0.045811 0.410852 0.364183
v 0.019961 0.410503 0.366309
v 0.071654 0.412443 0.360475
v 0.019954 0.453321 0.365087
v 0.071664 0.412446 0.362460
v 0.045816 0.411461 0.365226
v 0.097503 0.414673 0.358118
v 0.045811 0.453752 0.364125
v 0.097513 0.414676 0.360101
v 0.071669 0.413057 0.363510
v 0.123349 0.417541 0.355124
v 0.071665 0.454470 0.362609
v 0.123359 0.417543 0.357109
v 0.097518 0.415291 0.361159
v 0.123348 0.456486 0.354858
v 0.097515 0.455475 0.360538
v 0.123358 0.456483 0.356843
v 0.122296 0.418042 0.358263
v 0.122295 0.456708 0.358002
vn -0.13377788845558927 -0.9549822907439253 0.2647872748563439
vn -0.09817103002686572 -0.9951682240064215 0.0016293530523563155
vn -0.12547085659740442 -0.9416210328903526 0.31242102132094024
vn -0.11032092791743109 -0.9938945810784917 0.0016895461657387837
vn -0.0737816891778283 -0.9972733029871331 0.0014904667724952344
vn -0.14779184768809536 -0.8513429134414163 0.5033615137155599
vn -0.9290286558688713 0.0024920008212939116 0.36999938717028275
vn -0.9999873104184511 0 0.005037757643250157
vn -0.08892457469044393 -0.9614453778144572 0.2602214547175912
vn -0.13122953872883486 -0.8566319346625433 0.49895945394523333
vn -0.8733876220137601 0.0032739997358587304 0.4870147252793071
vn -0.44237287200225933 0.008360999508732963 0.8967922478499062
vn -0.049259565953775265 -0.9987850983773405 0.0013499708928522527
vn -0.08835121132177748 0.01249600330103861 0.9960110006217177
vn -0.08408174519948307 0.017479998595263887 0.9963055303336015
vn -0.43972332847270595 0.006046999533976104 0.8981129261922026
vn -0.058992827875582264 -0.963533915624784 0.2610023748934356
vn -0.09798096795339843 -0.8597939630993634 0.5011527421224048
vn -0.06524514843642631 0.01960000063249225 0.9976767565603175
vn -0.024650102417070503 -0.999695366039525 0.001244013636615264
vn -0.06037276484814997 0.023125006973694 0.9979079934127477
vn -0.028881243295275725 -0.9648034293207374 0.26138136229781894
vn -0.06467002537039575 -0.8620241509568205 0.5027247268493614
vn -0.04304313517246675 0.024574003598064654 0.9987709481466143
vn 0.000005471971210887211 -0.9999993523063339 0.001138137500602278
vn -0.03731354114895614 0.026835006821312225 0.998943232649296
vn 0.0013165809604326973 -0.9652286809369556 0.26140363446455606
vn -0.03112297384357247 -0.8634211353473175 0.503522892761274
vn -0.020957528537339874 0.02767898983269259 0.9993971460432777
vn 0.02466111172898231 -0.9996953729914116 0.000995383269325409
vn -0.014358548940340608 0.028784013074781328 0.999482522440307
vn 0.03151295376906115 -0.964804013989176 0.26107498603873
vn 0.0025370721048004604 -0.8638980440829905 0.5036603346450049
vn 0.00503524510584218 0.028926010015618446 0.9995688731904872
vn 0.049271288237688796 -0.9987850679808098 0.0008533076630250283
vn 0.005035484065114681 0.029334014490449607 0.9995569816144069
vn 0.061618843274494434 -0.9635350107477513 0.26039086239122133
vn 0.03619462546943062 -0.8634230144183009 0.5031805314794502
vn 0.024428150223243794 0.02878498811517042 0.9992870908482107
vn 0.07379356637601253 -0.9972732583127554 0.0007468706507844101
vn 0.031025952287693156 0.027679005482090745 0.9991352575803558
vn 0.09154230163079181 -0.9614455861592968 0.2593113801338911
vn 0.06973114223826461 -0.8620284572674265 0.5020403436610323
vn 0.04737559389299348 0.026834999316499377 0.9985166177460291
vn 0.09818328126248958 -0.9951681439207297 0.0006392228879853794
vn 0.05310352158665406 0.02457400198088602 0.9982865993399586
vn 0.1211846453392527 -0.9585382623107411 0.2579121583413709
vn 0.10302520732375282 -0.8597940046974845 0.5001400565263292
vn 0.07042458157815609 0.023126005612948416 0.9972489990839457
vn 0.11033264500376981 -0.9938945490751148 0.0005768580815689827
vn 0.07529320765083328 0.019600001067455505 0.9969687923098718
vn 0.14311429979101836 -0.9274057348357264 0.3455964412275287
vn 0.14179386183320522 -0.853692650818008 0.5011021439644303
vn 0.09411652604652845 0.01747999493040912 0.9954077201338988
vn 0.999987335551954 0 -0.005032766207959468
vn 0.9327079090970886 0.0024910001654809624 0.36062411348371115
vn 0.09838251043078883 0.012495994771577134 0.9950702144853921
vn 0.8782492316306456 0.003274000989878084 0.47819197824482435
vn 0.15347680902612904 -0.8476140439331085 0.5079323789822023
vn 0.4513861047700252 0.008361001182588649 0.8922895707559114
vn 0.44874968943544574 0.006046997149993666 0.8936370348508721
vn 0.12547085659740442 0.9416210328903526 -0.31242102132094024
vn 0.09817103002686572 0.9951682240064215 -0.0016293530523563155
vn 0.13377788845558927 0.9549822907439253 -0.2647872748563439
vn 0.11032092791743109 0.9938945810784917 -0.0016895461657387837
vn 0.0737816891778283 0.9972733029871331 -0.0014904667724952344
vn 0.14779184768809536 0.8513429134414163 -0.5033615137155599
vn 0.9999873104184511 0 -0.005037757643250157
vn 0.9290286558688713 -0.0024920008212939116 -0.36999938717028275
vn 0.08892457469044393 0.9614453778144572 -0.2602214547175912
vn 0.13122953872883486 0.8566319346625433 -0.49895945394523333
vn 0.44237287200225933 -0.008360999508732963 -0.8967922478499062
vn 0.8733876220137601 -0.0032739997358587304 -0.4870147252793071
vn 0.049259565953775265 0.9987850983773405 -0.0013499708928522527
vn 0.08408174519948307 -0.017479998595263887 -0.9963055303336015
vn 0.08835121132177748 -0.01249600330103861 -0.9960110006217177
vn 0.43972332847270595 -0.006046999533976104 -0.8981129261922026
vn 0.058992827875582264 0.963533915624784 -0.2610023748934356
vn 0.09798096795339843 0.8597939630993634 -0.5011527421224048
vn 0.06524514843642631 -0.01960000063249225 -0.9976767565603175
vn 0.024650102417070503 0.999695366039525 -0.001244013636615264
vn 0.06037276484814997 -0.023125006973694 -0.9979079934127477
vn 0.028881243295275725 0.9648034293207374 -0.26138136229781894
vn 0.06467002537039575 0.8620241509568205 -0.5027247268493614
vn 0.04304313517246675 -0.024574003598064654 -0.9987709481466143
vn -0.000005471971210887211 0.9999993523063339 -0.001138137500602278
vn 0.03731354114895614 -0.026835006821312225 -0.998943232649296
vn -0.0013165809604326973 0.9652286809369556 -0.26140363446455606
vn 0.03112297384357247 0.8634211353473175 -0.503522892761274
vn 0.020957528537339874 -0.02767898983269259 -0.9993971460432777
vn -0.02466111172898231 0.9996953729914116 -0.000995383269325409
vn 0.014358548940340608 -0.028784013074781328 -0.999482522440307
vn -0.03151295376906115 0.964804013989176 -0.26107498603873
vn -0.0025370721048004604 0.8638980440829905 -0.5036603346450049
vn -0.00503524510584218 -0.028926010015618446 -0.9995688731904872
vn -0.049271288237688796 0.9987850679808098 -0.0008533076630250283
vn -0.005035484065114681 -0.029334014490449607 -0.9995569816144069
vn -0.061618843274494434 0.9635350107477513 -0.26039086239122133
vn -0.03619462546943062 0.8634230144183009 -0.5031805314794502
vn -0.024428150223243794 -0.02878498811517042 -0.9992870908482107
vn -0.07379356637601253 0.9972732583127554 -0.0007468706507844101
vn -0.031025952287693156 -0.027679005482090745 -0.9991352575803558
vn -0.09154230163079181 0.9614455861592968 -0.2593113801338911
vn -0.06973114223826461 0.8620284572674265 -0.5020403436610323
vn -0.04737559389299348 -0.026834999316499377 -0.9985166177460291
vn -0.09818328126248958 0.9951681439207297 -0.0006392228879853794
vn -0.05310352158665406 -0.02457400198088602 -0.9982865993399586
vn -0.1211846453392527 0.9585382623107411 -0.2579121583413709
vn -0.10302520732375282 0.8597940046974845 -0.5001400565263292
vn -0.07042458157815609 -0.023126005612948416 -0.9972489990839457
vn -0.11033264500376981 0.9938945490751148 -0.0005768580815689827
vn -0.07529320765083328 -0.019600001067455505 -0.9969687923098718
vn -0.14311429979101836 0.9274057348357264 -0.3455964412275287
vn -0.14179386183320522 0.853692650818008 -0.5011021439644303
vn -0.09411652604652845 -0.01747999493040912 -0.9954077201338988
vn -0.999987335551954 0 0.005032766207959468
vn -0.9327079090970886 -0.0024910001654809624 -0.36062411348371115
vn -0.09838251043078883 -0.012495994771577134 -0.9950702144853921
vn -0.8782492316306456 -0.003274000989878084 -0.47819197824482435
vn -0.15347680902612904 0.8476140439331085 -0.5079323789822023
vn -0.4513861047700252 -0.008361001182588649 -0.8922895707559114
vn -0.44874968943544574 -0.006046997149993666 -0.8936370348508721
usemtl material_0_0
f 1//1 2//2 3//3
f 2//2 1//1 4//4
f 5//5 3//3 2//2
f 1//1 3//3 6//6
f 1//7 7//8 4//8
f 3//3 5//5 8//9
f 6//6 3//3 9//10
f 10//11 1//7 6//12
f 7//8 1//7 10//11
f 11//13 8//9 5//5
f 8//9 9//10 3//3
f 12//14 6//12 9//15
f 13//16 10//11 6//12
f 8//9 11//13 14//17
f 9//10 8//9 15//18
f 13//16 6//12 12//14
f 9//15 16//19 12//14
f 17//20 14//17 11//13
f 14//17 15//18 8//9
f 16//19 9//15 15//21
f 14//17 17//20 18//22
f 15//18 14//17 19//23
f 15//21 20//24 16//19
f 21//25 18//22 17//20
f 18//22 19//23 14//17
f 15//21 19//26 20//24
f 18//22 21//25 22//27
f 19//23 18//22 23//28
f 19//26 24//29 20//24
f 25//30 22//27 21//25
f 22//27 23//28 18//22
f 19//26 23//31 24//29
f 22//27 25//30 26//32
f 23//28 22//27 27//33
f 23//31 28//34 24//29
f 29//35 26//32 25//30
f 26//32 27//33 22//27
f 23//31 27//36 28//34
f 26//32 29//35 30//37
f 27//33 26//32 31//38
f 27//36 31//39 28//34
f 32//40 30//37 29//35
f 30//37 31//38 26//32
f 28//34 31//39 33//41
f 30//37 32//40 34//42
f 31//38 30//37 35//43
f 31//39 35//44 33//41
f 36//45 34//42 32//40
f 34//42 35//43 30//37
f 33//41 35//44 37//46
f 34//42 36//45 38//47
f 35//43 34//42 39//48
f 35//44 39//49 37//46
f 40//50 38//47 36//45
f 38//47 39//48 34//42
f 37//46 39//49 41//51
f 38//47 40//50 42//52
f 39//48 38//47 43//53
f 39//49 43//54 41//51
f 44//55 42//56 40//55
f 38//47 42//52 43//53
f 41//51 43//54 45//57
f 42//56 44//55 46//58
f 43//53 42//52 47//59
f 43//54 47//60 45//57
f 47//60 42//56 46//58
f 45//57 47//60 48//61
f 47//60 46//58 48//61
usemtl material_1_0
f 3//62 2//63 1//64
f 4//65 1//64 2//63
f 2//63 3//62 5//66
f 6//67 3//62 1//64
f 4//68 7//68 1//69
f 8//70 5//66 3//62
f 9//71 3//62 6//67
f 6//72 1//69 10//73
f 10//73 1//69 7//68
f 5//66 8//70 11//74
f 3//62 9//71 8//70
f 9//75 6//72 12//76
f 6//72 10//73 13//77
f 14//78 11//74 8//70
f 15//79 8//70 9//71
f 12//76 6//72 13//77
f 12//76 16//80 9//75
f 11//74 14//78 17//81
f 8//70 15//79 14//78
f 15//82 9//75 16//80
f 18//83 17//81 14//78
f 19//84 14//78 15//79
f 16//80 20//85 15//82
f 17//81 18//83 21//86
f 14//78 19//84 18//83
f 20//85 19//87 15//82
f 22//88 21//86 18//83
f 23//89 18//83 19//84
f 20//85 24//90 19//87
f 21//86 22//88 25//91
f 18//83 23//89 22//88
f 24//90 23//92 19//87
f 26//93 25//91 22//88
f 27//94 22//88 23//89
f 24//90 28//95 23//92
f 25//91 26//93 29//96
f 22//88 27//94 26//93
f 28//95 27//97 23//92
f 30//98 29//96 26//93
f 31//99 26//93 27//94
f 28//95 31//100 27//97
f 29//96 30//98 32//101
f 26//93 31//99 30//98
f 33//102 31//100 28//95
f 34//103 32//101 30//98
f 35//104 30//98 31//99
f 33//102 35//105 31//100
f 32//101 34//103 36//106
f 30//98 35//104 34//103
f 37//107 35//105 33//102
f 38//108 36//106 34//103
f 39//109 34//103 35//104
f 37//107 39//110 35//105
f 36//106 38//108 40//111
f 34//103 39//109 38//108
f 41//112 39//110 37//107
f 42//113 40//111 38//108
f 43//114 38//108 39//109
f 41//112 43//115 39//110
f 40//116 42//117 44//116
f 43//114 42//113 38//108
f 45//118 43//115 41//112
f 46//119 44//116 42//117
f 47//120 42//113 43//114
f 45//118 47//121 43//115
f 46//119 42//117 47//121
f 48//122 47//121 45//118
f 48//122 46//119 47//121
