# SSTK version 0.8.0
# 21
mtllib original-21.mtl
o mesh15/mesh15-geometry#mesh15-geometry
v -0.191667 0.230631 0.286131
v -0.189705 0.220706 0.487333
v -0.190719 0.220706 0.286126
v -0.190653 0.230631 0.487337
v -0.191667 0.210782 0.286131
v -0.194475 0.240196 0.286145
v -0.190653 0.210782 0.487337
v -0.194475 0.201216 0.286145
v -0.193462 0.240196 0.487352
v -0.193462 0.201216 0.487352
v -0.199043 0.249058 0.286168
v -0.199043 0.192355 0.286168
v -0.198030 0.192355 0.487375
v -0.198030 0.249057 0.487375
v -0.204192 0.256894 0.487406
v -0.205206 0.184519 0.286199
v -0.204192 0.184519 0.487406
v -0.205206 0.256894 0.286199
v -0.211727 0.263423 0.487444
v -0.211727 0.177990 0.487444
v -0.212740 0.177990 0.286237
v -0.212740 0.263423 0.286237
v -0.220360 0.268407 0.487487
v -0.220360 0.173005 0.487487
v -0.221374 0.173005 0.286280
v -0.221374 0.268407 0.286280
v -0.229781 0.271668 0.487535
v -0.229781 0.169745 0.487535
v -0.230795 0.169745 0.286328
v -0.230795 0.271668 0.286328
v -0.239649 0.273087 0.487584
v -0.239649 0.168326 0.487584
v -0.240663 0.168326 0.286378
v -0.240663 0.273087 0.286378
v -0.249607 0.272612 0.487634
v -0.249607 0.168800 0.487634
v -0.250621 0.168800 0.286428
v -0.250621 0.272612 0.286428
v -0.259296 0.270262 0.487683
v -0.259296 0.171151 0.487683
v -0.260309 0.171151 0.286477
v -0.260309 0.270262 0.286477
v -0.268364 0.266121 0.487729
v -0.268364 0.175292 0.487729
v -0.269378 0.175292 0.286522
v -0.269378 0.266121 0.286522
v -0.276485 0.260338 0.487770
v -0.276485 0.181075 0.487770
v -0.277498 0.181075 0.286563
v -0.277498 0.260338 0.286563
v -0.283364 0.253123 0.487805
v -0.283364 0.188290 0.487805
v -0.284378 0.188290 0.286598
v -0.284378 0.253123 0.286598
v -0.289768 0.244736 0.286625
v -0.288754 0.196677 0.487832
v -0.288754 0.244736 0.487832
v -0.289768 0.196677 0.286625
v -0.293473 0.235480 0.286644
v -0.293473 0.205932 0.286644
v -0.292459 0.205932 0.487850
v -0.292459 0.235480 0.487850
v -0.295360 0.225691 0.286653
v -0.295360 0.215722 0.286653
v -0.294346 0.215722 0.487860
v -0.294346 0.225691 0.487860
vn 0.9819162901502062 0.18925096046651932 -0.0049470294274362725
vn 0.9999873104179512 -0.0000010000001024481341 -0.005037757643247638
vn 0.9819161043212058 -0.1892519246501182 -0.004947028491204244
vn -0.005037757643250157 0 -0.9999873104184511
vn 0.9283563370630902 0.3716619964249832 -0.004676734779491784
vn 0.005037757643250157 0 0.9999873104184511
vn 0.9283563370630902 -0.3716619964249832 -0.004676734779491891
vn 0.8412422345103838 0.540641790055588 -0.004237655184907109
vn 0.8412433640900308 -0.5406400273125942 -0.0042383064926556436
vn 0.7237240709221308 0.6900798339443843 -0.0036458128297559814
vn 0.7237228997952545 -0.6900810615738655 -0.003645924990289426
vn 0.580049050394638 0.8145763092230006 -0.002921573020330176
vn 0.5800495538559134 -0.8145759483896913 -0.0029222211741668355
vn 0.41540861923110267 0.9096325084424165 -0.0020925231816939127
vn 0.415411330419167 -0.909631270810914 -0.0020923007191455457
vn 0.2357569288667727 0.9718113298493422 -0.0011872943024356427
vn 0.23575536823216944 -0.9718117083161044 -0.0011874045009723614
vn 0.047581282388673 0.9988673405044453 -0.00024008295674840933
vn 0.04758128238867333 -0.9988673405044453 -0.00024008295674869738
vn -0.14231653858874357 0.9898209377298719 0.0007169907083495604
vn -0.1423151572782568 -0.9898211362533429 0.0007171018100850692
vn -0.32706348597175816 0.9450009322406004 0.0016474854771774715
vn -0.3270634859717579 -0.9450009322406007 0.0016474854771771996
vn -0.4999920570616393 0.8660263250309991 0.0025193706700251542
vn -0.49999311460239343 -0.8660257147969945 0.0025192579369029446
vn -0.6548507998298547 0.7557509818185207 0.003299006296039611
vn -0.6548530280603185 -0.7557490487208756 0.00329954507824812
vn -0.7860432114420082 0.6181588685714023 0.00396017076125196
vn -0.7860436973415446 -0.6181582506913478 0.00396017320926623
vn -0.8888239030133139 0.45822703900566186 0.004477740086557504
vn -0.8888239030133139 -0.45822703900566186 0.0044777400865573715
vn -0.9594809196895483 0.28173213953787807 0.00483387040661706
vn -0.9594806493724366 -0.2817330601649466 0.0048338690447578105
vn -0.995459486241545 0.09505400942878785 0.0050146329108891035
vn -0.9954592969947587 -0.09505599135788986 0.005014631957557297
vn -0.9999873104179512 0.0000010000001024481341 0.005037757643247638
vn -0.9819162901502062 -0.18925096046651932 0.0049470294274362725
vn -0.9819161043212058 0.1892519246501182 0.004947028491204244
vn -0.9283563370630902 -0.3716619964249832 0.004676734779491784
vn -0.9283563370630902 0.3716619964249832 0.004676734779491891
vn -0.8412422345103838 -0.540641790055588 0.004237655184907109
vn -0.8412433640900308 0.5406400273125942 0.0042383064926556436
vn -0.7237240709221308 -0.6900798339443843 0.0036458128297559814
vn -0.7237228997952545 0.6900810615738655 0.003645924990289426
vn -0.580049050394638 -0.8145763092230006 0.002921573020330176
vn -0.5800495538559134 0.8145759483896913 0.0029222211741668355
vn -0.41540861923110267 -0.9096325084424165 0.0020925231816939127
vn -0.415411330419167 0.909631270810914 0.0020923007191455457
vn -0.2357569288667727 -0.9718113298493422 0.0011872943024356427
vn -0.23575536823216944 0.9718117083161044 0.0011874045009723614
vn -0.047581282388673 -0.9988673405044453 0.00024008295674840933
vn -0.04758128238867333 0.9988673405044453 0.00024008295674869738
vn 0.14231653858874357 -0.9898209377298719 -0.0007169907083495604
vn 0.1423151572782568 0.9898211362533429 -0.0007171018100850692
vn 0.32706348597175816 -0.9450009322406004 -0.0016474854771774715
vn 0.3270634859717579 0.9450009322406007 -0.0016474854771771996
vn 0.4999920570616393 -0.8660263250309991 -0.0025193706700251542
vn 0.49999311460239343 0.8660257147969945 -0.0025192579369029446
vn 0.6548507998298547 -0.7557509818185207 -0.003299006296039611
vn 0.6548530280603185 0.7557490487208756 -0.00329954507824812
vn 0.7860432114420082 -0.6181588685714023 -0.00396017076125196
vn 0.7860436973415446 0.6181582506913478 -0.00396017320926623
vn 0.8888239030133139 -0.45822703900566186 -0.004477740086557504
vn 0.8888239030133139 0.45822703900566186 -0.0044777400865573715
vn 0.9594809196895483 -0.28173213953787807 -0.00483387040661706
vn 0.9594806493724366 0.2817330601649466 -0.0048338690447578105
vn 0.995459486241545 -0.09505400942878785 -0.0050146329108891035
vn 0.9954592969947587 0.09505599135788986 -0.005014631957557297
usemtl material_0_0
f 1//1 2//2 3//2
f 2//2 1//1 4//1
f 2//2 5//3 3//2
f 5//4 1//4 3//4
f 6//5 4//1 1//1
f 4//6 7//6 2//6
f 5//3 2//2 7//3
f 1//4 5//4 8//4
f 4//1 6//5 9//5
f 1//4 8//4 6//4
f 7//6 4//6 9//6
f 10//7 5//3 7//3
f 5//3 10//7 8//7
f 11//8 9//5 6//5
f 6//4 8//4 12//4
f 7//6 9//6 10//6
f 13//9 8//7 10//7
f 9//5 11//8 14//8
f 6//4 12//4 11//4
f 8//7 13//9 12//9
f 10//6 9//6 14//6
f 10//6 14//6 13//6
f 11//8 15//10 14//8
f 11//4 12//4 16//4
f 17//11 12//9 13//9
f 13//6 14//6 15//6
f 15//10 11//8 18//10
f 12//9 17//11 16//11
f 11//4 16//4 18//4
f 13//6 15//6 17//6
f 18//10 19//12 15//10
f 20//13 16//11 17//11
f 18//4 16//4 21//4
f 17//6 15//6 19//6
f 19//12 18//10 22//12
f 16//11 20//13 21//13
f 17//6 19//6 20//6
f 18//4 21//4 22//4
f 22//12 23//14 19//12
f 24//15 21//13 20//13
f 20//6 19//6 23//6
f 22//4 21//4 25//4
f 23//14 22//12 26//14
f 21//13 24//15 25//15
f 20//6 23//6 24//6
f 22//4 25//4 26//4
f 26//14 27//16 23//14
f 28//17 25//15 24//15
f 24//6 23//6 27//6
f 26//4 25//4 29//4
f 27//16 26//14 30//16
f 25//15 28//17 29//17
f 24//6 27//6 28//6
f 26//4 29//4 30//4
f 30//16 31//18 27//16
f 32//19 29//17 28//17
f 28//6 27//6 31//6
f 30//4 29//4 33//4
f 31//18 30//16 34//18
f 29//17 32//19 33//19
f 28//6 31//6 32//6
f 30//4 33//4 34//4
f 34//18 35//20 31//18
f 36//21 33//19 32//19
f 32//6 31//6 35//6
f 34//4 33//4 37//4
f 35//20 34//18 38//20
f 33//19 36//21 37//21
f 32//6 35//6 36//6
f 34//4 37//4 38//4
f 38//20 39//22 35//20
f 40//23 37//21 36//21
f 36//6 35//6 39//6
f 38//4 37//4 41//4
f 39//22 38//20 42//22
f 37//21 40//23 41//23
f 36//6 39//6 40//6
f 38//4 41//4 42//4
f 42//22 43//24 39//22
f 44//25 41//23 40//23
f 40//6 39//6 43//6
f 42//4 41//4 45//4
f 43//24 42//22 46//24
f 41//23 44//25 45//25
f 40//6 43//6 44//6
f 42//4 45//4 46//4
f 46//24 47//26 43//24
f 48//27 45//25 44//25
f 44//6 43//6 47//6
f 46//4 45//4 49//4
f 47//26 46//24 50//26
f 45//25 48//27 49//27
f 44//6 47//6 48//6
f 46//4 49//4 50//4
f 50//26 51//28 47//26
f 52//29 49//27 48//27
f 48//6 47//6 51//6
f 50//4 49//4 53//4
f 51//28 50//26 54//28
f 49//27 52//29 53//29
f 48//6 51//6 52//6
f 50//4 53//4 54//4
f 55//30 51//28 54//28
f 56//31 53//29 52//29
f 52//6 51//6 57//6
f 54//4 53//4 58//4
f 51//28 55//30 57//30
f 54//4 58//4 55//4
f 53//29 56//31 58//31
f 52//6 57//6 56//6
f 59//32 57//30 55//30
f 55//4 58//4 60//4
f 61//33 58//31 56//31
f 56//6 57//6 62//6
f 57//30 59//32 62//32
f 55//4 60//4 59//4
f 58//31 61//33 60//33
f 56//6 62//6 61//6
f 63//34 62//32 59//32
f 59//4 60//4 64//4
f 65//35 60//33 61//33
f 61//6 62//6 66//6
f 62//32 63//34 66//34
f 59//4 64//4 63//4
f 60//33 65//35 64//35
f 61//6 66//6 65//6
f 64//35 66//34 63//34
f 66//34 64//35 65//35
usemtl material_1_0
f 3//36 2//36 1//37
f 4//37 1//37 2//36
f 3//36 5//38 2//36
f 3//6 1//6 5//6
f 1//37 4//37 6//39
f 2//4 7//4 4//4
f 7//38 2//36 5//38
f 8//6 5//6 1//6
f 9//39 6//39 4//37
f 6//6 8//6 1//6
f 9//4 4//4 7//4
f 7//38 5//38 10//40
f 8//40 10//40 5//38
f 6//39 9//39 11//41
f 12//6 8//6 6//6
f 10//4 9//4 7//4
f 10//40 8//40 13//42
f 14//41 11//41 9//39
f 11//6 12//6 6//6
f 12//42 13//42 8//40
f 14//4 9//4 10//4
f 13//4 14//4 10//4
f 14//41 15//43 11//41
f 16//6 12//6 11//6
f 13//42 12//42 17//44
f 15//4 14//4 13//4
f 18//43 11//41 15//43
f 16//44 17//44 12//42
f 18//6 16//6 11//6
f 17//4 15//4 13//4
f 15//43 19//45 18//43
f 17//44 16//44 20//46
f 21//6 16//6 18//6
f 19//4 15//4 17//4
f 22//45 18//43 19//45
f 21//46 20//46 16//44
f 20//4 19//4 17//4
f 22//6 21//6 18//6
f 19//45 23//47 22//45
f 20//46 21//46 24//48
f 23//4 19//4 20//4
f 25//6 21//6 22//6
f 26//47 22//45 23//47
f 25//48 24//48 21//46
f 24//4 23//4 20//4
f 26//6 25//6 22//6
f 23//47 27//49 26//47
f 24//48 25//48 28//50
f 27//4 23//4 24//4
f 29//6 25//6 26//6
f 30//49 26//47 27//49
f 29//50 28//50 25//48
f 28//4 27//4 24//4
f 30//6 29//6 26//6
f 27//49 31//51 30//49
f 28//50 29//50 32//52
f 31//4 27//4 28//4
f 33//6 29//6 30//6
f 34//51 30//49 31//51
f 33//52 32//52 29//50
f 32//4 31//4 28//4
f 34//6 33//6 30//6
f 31//51 35//53 34//51
f 32//52 33//52 36//54
f 35//4 31//4 32//4
f 37//6 33//6 34//6
f 38//53 34//51 35//53
f 37//54 36//54 33//52
f 36//4 35//4 32//4
f 38//6 37//6 34//6
f 35//53 39//55 38//53
f 36//54 37//54 40//56
f 39//4 35//4 36//4
f 41//6 37//6 38//6
f 42//55 38//53 39//55
f 41//56 40//56 37//54
f 40//4 39//4 36//4
f 42//6 41//6 38//6
f 39//55 43//57 42//55
f 40//56 41//56 44//58
f 43//4 39//4 40//4
f 45//6 41//6 42//6
f 46//57 42//55 43//57
f 45//58 44//58 41//56
f 44//4 43//4 40//4
f 46//6 45//6 42//6
f 43//57 47//59 46//57
f 44//58 45//58 48//60
f 47//4 43//4 44//4
f 49//6 45//6 46//6
f 50//59 46//57 47//59
f 49//60 48//60 45//58
f 48//4 47//4 44//4
f 50//6 49//6 46//6
f 47//59 51//61 50//59
f 48//60 49//60 52//62
f 51//4 47//4 48//4
f 53//6 49//6 50//6
f 54//61 50//59 51//61
f 53//62 52//62 49//60
f 52//4 51//4 48//4
f 54//6 53//6 50//6
f 54//61 51//61 55//63
f 52//62 53//62 56//64
f 57//4 51//4 52//4
f 58//6 53//6 54//6
f 57//63 55//63 51//61
f 55//6 58//6 54//6
f 58//64 56//64 53//62
f 56//4 57//4 52//4
f 55//63 57//63 59//65
f 60//6 58//6 55//6
f 56//64 58//64 61//66
f 62//4 57//4 56//4
f 62//65 59//65 57//63
f 59//6 60//6 55//6
f 60//66 61//66 58//64
f 61//4 62//4 56//4
f 59//65 62//65 63//67
f 64//6 60//6 59//6
f 61//66 60//66 65//68
f 66//4 62//4 61//4
f 66//67 63//67 62//65
f 63//6 64//6 59//6
f 64//68 65//68 60//66
f 65//4 66//4 61//4
f 63//67 66//67 64//68
f 65//68 64//68 66//67
