# SSTK version 0.8.0
# 71
mtllib original-71.mtl
o mesh57/mesh57-geometry#mesh57-geometry
v 0.332458 0.489573 0.297981
v 0.333980 0.486836 0.298110
v 0.347551 0.497921 0.297167
v 0.333978 0.486836 0.297744
v 0.349876 0.495627 0.297248
v 0.347550 0.497921 0.296800
v 0.332456 0.489573 0.297615
v 0.349874 0.495627 0.296881
v 0.347317 0.501683 0.296952
v 0.346755 0.498455 0.297154
v 0.350421 0.494824 0.296915
v 0.349898 0.500040 0.296989
v 0.346753 0.498455 0.296787
v 0.350423 0.494824 0.297282
v 0.349896 0.500040 0.296622
v 0.345913 0.498922 0.297145
v 0.350899 0.493974 0.296954
v 0.350901 0.493974 0.297321
v 0.347315 0.501683 0.296585
v 0.352050 0.497886 0.296698
v 0.344392 0.502733 0.296956
v 0.345912 0.498922 0.296779
v 0.351304 0.493081 0.297364
v 0.352052 0.497886 0.297065
v 0.345030 0.499316 0.297142
v 0.351302 0.493081 0.296997
v 0.351627 0.492148 0.297411
v 0.344390 0.502733 0.296589
v 0.351865 0.491179 0.297462
v 0.353694 0.495307 0.297177
v 0.344109 0.499632 0.297144
v 0.345029 0.499316 0.296775
v 0.351625 0.492148 0.297044
v 0.341207 0.503105 0.297004
v 0.352011 0.490178 0.297517
v 0.353692 0.495307 0.296810
v 0.352062 0.489148 0.297576
v 0.351863 0.491179 0.297095
v 0.341205 0.503105 0.296638
v 0.352010 0.490178 0.297151
v 0.354742 0.492384 0.297323
v 0.354743 0.486023 0.297696
v 0.343153 0.499865 0.297151
v 0.344107 0.499632 0.296777
v 0.338022 0.502742 0.297094
v 0.352060 0.489148 0.297210
v 0.354740 0.492384 0.296957
v 0.353698 0.483103 0.297892
v 0.342165 0.500010 0.297165
v 0.338020 0.502742 0.296728
v 0.341148 0.500060 0.297184
v 0.351772 0.486652 0.297363
v 0.355110 0.489203 0.297501
v 0.352057 0.480528 0.298081
v 0.354742 0.486023 0.297329
v 0.343151 0.499865 0.296785
v 0.335098 0.501701 0.297217
v 0.338649 0.499776 0.297254
v 0.351774 0.486652 0.297729
v 0.355108 0.489203 0.297134
v 0.353696 0.483103 0.297525
v 0.342163 0.500010 0.296798
v 0.335096 0.501701 0.296850
v 0.336353 0.498959 0.297351
v 0.341147 0.500060 0.296817
v 0.350951 0.484360 0.297516
v 0.350953 0.484360 0.297883
v 0.352055 0.480528 0.297715
v 0.332518 0.500066 0.297365
v 0.334328 0.497675 0.297468
v 0.338647 0.499776 0.296888
v 0.349904 0.478381 0.298257
v 0.332516 0.500066 0.296999
v 0.336351 0.498959 0.296984
v 0.349663 0.482339 0.297664
v 0.349665 0.482339 0.298031
v 0.349903 0.478381 0.297891
v 0.330365 0.497918 0.297535
v 0.332638 0.495989 0.297602
v 0.334326 0.497675 0.297102
v 0.347324 0.476745 0.298412
v 0.330363 0.497918 0.297168
v 0.347976 0.480654 0.298168
v 0.347322 0.476745 0.298046
v 0.328722 0.495343 0.297352
v 0.331350 0.493968 0.297746
v 0.332636 0.495989 0.297235
v 0.347974 0.480654 0.297802
v 0.345950 0.479370 0.298290
v 0.344400 0.475705 0.298539
v 0.328724 0.495343 0.297718
v 0.330529 0.491677 0.297897
v 0.344398 0.475705 0.298172
v 0.327677 0.492424 0.297543
v 0.331348 0.493968 0.297380
v 0.345948 0.479370 0.297923
v 0.343655 0.478553 0.298389
v 0.341215 0.475342 0.298630
v 0.327678 0.492424 0.297910
v 0.330241 0.489180 0.298049
v 0.330527 0.491677 0.297530
v 0.341213 0.475342 0.298264
v 0.327310 0.489244 0.297737
v 0.328728 0.483140 0.298433
v 0.330288 0.488206 0.298105
v 0.343653 0.478553 0.298022
v 0.341155 0.478268 0.298460
v 0.338030 0.475714 0.298677
v 0.327312 0.489244 0.298103
v 0.330370 0.480560 0.298551
v 0.327680 0.486063 0.298282
v 0.330240 0.489180 0.297682
v 0.340075 0.478323 0.298480
v 0.338028 0.475714 0.298310
v 0.327678 0.486063 0.297916
v 0.330368 0.480560 0.298185
v 0.328726 0.483140 0.298066
v 0.330422 0.487258 0.298158
v 0.330286 0.488206 0.297739
v 0.341153 0.478268 0.298093
v 0.335105 0.476764 0.298677
v 0.339026 0.478481 0.298494
v 0.332522 0.478407 0.298267
v 0.330640 0.486340 0.298207
v 0.340073 0.478323 0.298114
v 0.335103 0.476764 0.298310
v 0.337037 0.479084 0.298501
v 0.338011 0.478736 0.298500
v 0.332524 0.478407 0.298634
v 0.330934 0.485453 0.298253
v 0.330420 0.487258 0.297791
v 0.336107 0.479519 0.298495
v 0.339024 0.478481 0.298127
v 0.332231 0.483010 0.298370
v 0.331302 0.484601 0.298296
v 0.330638 0.486340 0.297841
v 0.334401 0.480630 0.298465
v 0.338009 0.478736 0.298134
v 0.337035 0.479084 0.298134
v 0.335227 0.480036 0.298483
v 0.331736 0.483786 0.298335
v 0.330933 0.485453 0.297887
v 0.336105 0.479519 0.298128
v 0.348370 0.491936 0.297499
v 0.331734 0.483786 0.297968
v 0.331300 0.484601 0.297929
v 0.335225 0.480036 0.298116
v 0.349892 0.489198 0.297624
v 0.348368 0.491936 0.297132
v 0.332229 0.483010 0.298004
v 0.334399 0.480630 0.298098
v 0.349890 0.489198 0.297257
vn 0.021280865096564985 0.05890000975275298 0.9980370301906977
vn 0.021746469548615963 0.05833201871746471 0.9980603522104845
vn 0.02222404911371884 0.058369979165248456 0.9980476126784932
vn -0.8741563868456838 -0.4856249379764725 0.004362447964913045
vn 0.02269609088884008 0.05810400108462761 0.9980525098993154
vn -0.4838945480950633 0.8751229128854564 0.0024400136779521467
vn 0.4838927098665327 -0.875123970317108 -0.0024252658503955238
vn 0.0226722608149536 0.05848998532398739 0.9980305056491703
vn -0.5212992623261369 -0.8533698535203573 0.002640492542961354
vn -0.5566278396013207 -0.8307571847047577 0.002819262703555929
vn -0.8498760471539814 -0.5269651143216686 0.0042979950993851405
vn -0.8264619086826493 -0.5629770000219562 0.004196539397028962
vn 0.023180110218591395 0.058444981989305096 0.9980214760066657
vn 0.6258325159688836 0.7799509669043413 -0.003186091812884473
vn 0.4401097980207865 0.8979410587801215 -0.002284872630289503
vn -0.44674177778068597 -0.8946600930858088 0.002258721993486564
vn -0.8924798691238365 -0.4510650595886302 0.004471602286128539
vn 0.7800327461265346 0.6257263783824869 -0.003926113426008702
vn 0.02216377457906568 0.05853402213528873 0.9980393455916825
vn 0.22829543996985466 0.9735911844006219 -0.001182263238436241
vn -0.36652752021093177 -0.9304053743254175 0.0018483382819711027
vn -0.9292016372259757 -0.369544080053234 0.004635760366431669
vn 0.8981034396892676 0.4397611679951748 -0.0045085188062059245
vn -0.9591727847507581 -0.28278000240744744 0.004799919990976453
vn 0.001466681872352071 0.9999989243950841 -0.000007277364156227113
vn 0.023168721243127993 0.058439984036624 0.998022033134418
vn 0.021619351396268867 0.058508993512143045 0.9980527547797264
vn -0.28105827140024653 -0.9596896576566873 0.00141741465196424
vn -0.9814888114508462 -0.1914559403885748 0.0049331416695410175
vn -0.9953077417799978 -0.09663002012417007 0.005013817268667686
vn 0.9737786855871168 0.22744498096615384 -0.004883864200933497
vn -0.22558793037937264 0.974222159779754 0.0011265261749895516
vn -0.9994331702092049 0.033285003332461406 0.0050444859734836275
vn 0.02315733361646447 0.058433989489333385 0.9980226484264455
vn -0.1909332338016534 -0.981602553570499 0.0009628363925578024
vn 0.02107569744364524 0.058482987924024725 0.9980659071928779
vn -0.9737363398901527 0.22762499825878257 0.004939690781641287
vn 0.9999875240612359 -0.000020999987720408877 -0.0049951257121107874
vn 0.8978439190947107 -0.4402908754617621 -0.004499103217945435
vn 0.9737372458568849 -0.227622940698541 -0.004855192972154704
vn -0.0971586198730651 -0.9952687884864948 0.0004911710354404545
vn -0.437989042092985 0.8989776240417928 0.002197834989809652
vn 0.7793051221788241 -0.6266323459306019 -0.003928050325337215
vn 0.0318946494438859 -0.9994912233893118 -0.00016032650537605475
vn 0.22557926522975408 -0.9742241580191712 -0.0011335917436243433
vn -0.8978425670164973 0.44029301107997365 0.004559522711496903
vn -0.6244413557610596 0.7810653340515609 0.0031523258418894857
vn 0.020542137200987947 0.058480990063291334 0.9980771485213119
vn 0.4379839572347476 -0.8989801125073682 -0.002193290047110261
vn 0.6244332422534065 -0.7810718152195191 -0.003153638943166559
vn 0.6244421105791091 -0.7810648534585786 -0.0031217346518957008
vn -0.7793059245112915 0.6266312773160464 0.0039393287323319405
vn -0.7793042322527003 0.626633291686899 0.00395364928530844
vn 0.02000857005043315 0.05847997212631761 0.9980880472105865
vn 0.022553267814382053 0.05841300035439188 0.9980377104601261
vn 0.43798970077712995 -0.8989772927708815 -0.002202066188149262
vn 0.7793071540799551 -0.6266300194415099 -0.0038959382097177495
vn -0.6244397878386679 0.7810666015674836 0.003148853731331811
vn 0.2255991799365607 -0.9742195541947986 -0.0011270476651668426
vn 0.8978476765778862 -0.44028317209373713 -0.004503113896878732
vn -0.43798558309231034 0.8989792946611885 0.002203808921114959
vn 0.021948561286088925 0.05839203501321792 0.998052418916204
vn -0.9737358188427834 0.2276271022791397 0.004945443415524648
vn 0.9737359854350497 -0.22762697489604664 -0.004918431508869568
vn -0.001455514022724211 -0.9999989406930646 0.000009574881490663998
vn -0.22559320095362823 0.9742209340593712 0.0011310720500119448
vn -0.9999870801720883 0.00002200001212455215 0.005083208130777602
vn 0.9994102982630704 -0.03396601911667534 -0.005036394651585391
vn -0.22829055371654802 -0.9735923620518062 0.00115569813385433
vn 0.020360224182997936 0.05848196340129718 0.9980808189860916
vn 0.9955848975775783 0.09373202400655531 -0.005001938731894373
vn -0.03125307630131213 0.9995114912010474 0.00015549521802203116
vn 0.02132983516249826 0.05843798403237841 0.9980631443722247
vn -0.9737791773533052 -0.2274420805984369 0.0049207444735983
vn -0.8981049790886502 -0.4397580764147885 0.004503416940499986
vn -0.7800371438191841 -0.6257210184293613 0.003906578827096577
vn 0.09978986003620724 0.9950084062018172 -0.0005053925936997007
vn -0.44010968191738736 -0.8979412810686851 0.002218926610917593
vn -0.6258328894881408 -0.779950862874511 0.003137823486184387
vn 0.9826647387999402 0.18532496175875404 -0.004966856990278061
vn 0.0207112421979606 0.0584839926127706 0.9980734777834179
vn 0.19665126295536417 0.9804729918120701 -0.0009965466113182409
vn 0.9619951621633687 0.2730229959438339 -0.004873567494873445
vn 0.2905380041011181 0.9568623251471362 -0.0014693151313018202
vn 0.020957826790017373 0.058801994226085674 0.9980496455443864
vn 0.9345741226052158 0.3557372204977369 -0.004715857211110676
vn 0.021345900351478812 0.058529989517601924 0.9980574096039035
vn 0.38049777294235904 0.9247798552072294 -0.0019142070945115663
vn 0.4657493485101649 0.8849136363054373 -0.0023239283648959965
vn 0.9014239547816495 0.43291387295429956 -0.00452021564966588
vn 0.5457710687657467 0.8379298603648658 -0.00273671467472398
vn 0.02166361188857703 0.05855399413745751 0.9980491559489902
vn 0.842891669829618 0.5380663838147258 -0.004266091933151971
vn 0.8635344039181805 0.5042712277758352 -0.004343050440005893
vn 0.5838463427040982 0.8118588224132087 -0.0029496747086065335
vn 0.022123578558126508 0.05798800765044553 0.9980721107417609
vn -0.4838908826257629 0.8751248412759965 0.0024750542059055257
vn 0.48389630135538236 -0.8751219319338938 -0.0024441323348668885
vn 0.8741559571312042 0.4856250492479671 -0.004435555764241959
vn -0.02222404911371884 -0.058369979165248456 -0.9980476126784932
vn -0.021746469548615963 -0.05833201871746471 -0.9980603522104845
vn -0.021280865096564985 -0.05890000975275298 -0.9980370301906977
vn 0.8741563868456838 0.4856249379764725 -0.004362447964913045
vn -0.02269609088884008 -0.05810400108462761 -0.9980525098993154
vn 0.4838945480950633 -0.8751229128854564 -0.0024400136779521467
vn -0.4838927098665327 0.875123970317108 0.0024252658503955238
vn -0.0226722608149536 -0.05848998532398739 -0.9980305056491703
vn 0.5566278396013207 0.8307571847047577 -0.002819262703555929
vn 0.5212992623261369 0.8533698535203573 -0.002640492542961354
vn 0.8264619086826493 0.5629770000219562 -0.004196539397028962
vn 0.8498760471539814 0.5269651143216686 -0.0042979950993851405
vn -0.023180110218591395 -0.058444981989305096 -0.9980214760066657
vn -0.6258325159688836 -0.7799509669043413 0.003186091812884473
vn -0.4401097980207865 -0.8979410587801215 0.002284872630289503
vn 0.44674177778068597 0.8946600930858088 -0.002258721993486564
vn 0.8924798691238365 0.4510650595886302 -0.004471602286128539
vn -0.7800327461265346 -0.6257263783824869 0.003926113426008702
vn -0.02216377457906568 -0.05853402213528873 -0.9980393455916825
vn -0.22829543996985466 -0.9735911844006219 0.001182263238436241
vn 0.36652752021093177 0.9304053743254175 -0.0018483382819711027
vn 0.9292016372259757 0.369544080053234 -0.004635760366431669
vn -0.8981034396892676 -0.4397611679951748 0.0045085188062059245
vn 0.9591727847507581 0.28278000240744744 -0.004799919990976453
vn -0.001466681872352071 -0.9999989243950841 0.000007277364156227113
vn -0.023168721243127993 -0.058439984036624 -0.998022033134418
vn -0.021619351396268867 -0.058508993512143045 -0.9980527547797264
vn 0.28105827140024653 0.9596896576566873 -0.00141741465196424
vn 0.9814888114508462 0.1914559403885748 -0.0049331416695410175
vn 0.9953077417799978 0.09663002012417007 -0.005013817268667686
vn -0.9737786855871168 -0.22744498096615384 0.004883864200933497
vn 0.22558793037937264 -0.974222159779754 -0.0011265261749895516
vn 0.9994331702092049 -0.033285003332461406 -0.0050444859734836275
vn -0.02315733361646447 -0.058433989489333385 -0.9980226484264455
vn 0.1909332338016534 0.981602553570499 -0.0009628363925578024
vn -0.02107569744364524 -0.058482987924024725 -0.9980659071928779
vn 0.9737363398901527 -0.22762499825878257 -0.004939690781641287
vn -0.9999875240612359 0.000020999987720408877 0.0049951257121107874
vn -0.9737372458568849 0.227622940698541 0.004855192972154704
vn -0.8978439190947107 0.4402908754617621 0.004499103217945435
vn 0.0971586198730651 0.9952687884864948 -0.0004911710354404545
vn 0.437989042092985 -0.8989776240417928 -0.002197834989809652
vn -0.7793051221788241 0.6266323459306019 0.003928050325337215
vn -0.0318946494438859 0.9994912233893118 0.00016032650537605475
vn -0.22557926522975408 0.9742241580191712 0.0011335917436243433
vn 0.8978425670164973 -0.44029301107997365 -0.004559522711496903
vn 0.6244413557610596 -0.7810653340515609 -0.0031523258418894857
vn -0.020542137200987947 -0.058480990063291334 -0.9980771485213119
vn -0.4379839572347476 0.8989801125073682 0.002193290047110261
vn -0.6244332422534065 0.7810718152195191 0.003153638943166559
vn -0.6244421105791091 0.7810648534585786 0.0031217346518957008
vn 0.7793059245112915 -0.6266312773160464 -0.0039393287323319405
vn 0.7793042322527003 -0.626633291686899 -0.00395364928530844
vn -0.02000857005043315 -0.05847997212631761 -0.9980880472105865
vn -0.022553267814382053 -0.05841300035439188 -0.9980377104601261
vn -0.43798970077712995 0.8989772927708815 0.002202066188149262
vn -0.7793071540799551 0.6266300194415099 0.0038959382097177495
vn 0.6244397878386679 -0.7810666015674836 -0.003148853731331811
vn -0.2255991799365607 0.9742195541947986 0.0011270476651668426
vn -0.8978476765778862 0.44028317209373713 0.004503113896878732
vn 0.43798558309231034 -0.8989792946611885 -0.002203808921114959
vn -0.021948561286088925 -0.05839203501321792 -0.998052418916204
vn 0.9737358188427834 -0.2276271022791397 -0.004945443415524648
vn -0.9737359854350497 0.22762697489604664 0.004918431508869568
vn 0.001455514022724211 0.9999989406930646 -0.000009574881490663998
vn 0.22559320095362823 -0.9742209340593712 -0.0011310720500119448
vn 0.9999870801720883 -0.00002200001212455215 -0.005083208130777602
vn -0.9994102982630704 0.03396601911667534 0.005036394651585391
vn 0.22829055371654802 0.9735923620518062 -0.00115569813385433
vn -0.020360224182997936 -0.05848196340129718 -0.9980808189860916
vn -0.9955848975775783 -0.09373202400655531 0.005001938731894373
vn 0.03125307630131213 -0.9995114912010474 -0.00015549521802203116
vn -0.02132983516249826 -0.05843798403237841 -0.9980631443722247
vn 0.9737791773533052 0.2274420805984369 -0.0049207444735983
vn 0.7800371438191841 0.6257210184293613 -0.003906578827096577
vn 0.8981049790886502 0.4397580764147885 -0.004503416940499986
vn -0.09978986003620724 -0.9950084062018172 0.0005053925936997007
vn 0.44010968191738736 0.8979412810686851 -0.002218926610917593
vn 0.6258328894881408 0.779950862874511 -0.003137823486184387
vn -0.9826647387999402 -0.18532496175875404 0.004966856990278061
vn -0.0207112421979606 -0.0584839926127706 -0.9980734777834179
vn -0.19665126295536417 -0.9804729918120701 0.0009965466113182409
vn -0.9619951621633687 -0.2730229959438339 0.004873567494873445
vn -0.2905380041011181 -0.9568623251471362 0.0014693151313018202
vn -0.020957826790017373 -0.058801994226085674 -0.9980496455443864
vn -0.9345741226052158 -0.3557372204977369 0.004715857211110676
vn -0.021345900351478812 -0.058529989517601924 -0.9980574096039035
vn -0.38049777294235904 -0.9247798552072294 0.0019142070945115663
vn -0.4657493485101649 -0.8849136363054373 0.0023239283648959965
vn -0.9014239547816495 -0.43291387295429956 0.00452021564966588
vn -0.5457710687657467 -0.8379298603648658 0.00273671467472398
vn -0.02166361188857703 -0.05855399413745751 -0.9980491559489902
vn -0.8635344039181805 -0.5042712277758352 0.004343050440005893
vn -0.842891669829618 -0.5380663838147258 0.004266091933151971
vn -0.5838463427040982 -0.8118588224132087 0.0029496747086065335
vn -0.022123578558126508 -0.05798800765044553 -0.9980721107417609
vn 0.4838908826257629 -0.8751248412759965 -0.0024750542059055257
vn -0.48389630135538236 0.8751219319338938 0.0024441323348668885
vn -0.8741559571312042 -0.4856250492479671 0.004435555764241959
usemtl material_0_0
f 1//1 2//2 3//3
f 1//4 4//4 2//4
f 2//2 5//5 3//3
f 6//6 1//6 3//6
f 4//4 1//4 7//4
f 8//7 2//7 4//7
f 2//7 8//7 5//7
f 5//5 9//8 3//3
f 1//6 6//6 7//6
f 10//9 6//10 3//10
f 11//11 5//12 8//12
f 5//5 12//13 9//8
f 3//3 9//8 10//13
f 6//10 10//9 13//9
f 5//12 11//11 14//11
f 14//13 12//13 5//5
f 15//14 9//15 12//14
f 10//13 9//8 16//8
f 16//16 13//9 10//9
f 17//17 14//11 11//11
f 18//13 12//13 14//13
f 9//15 15//14 19//15
f 12//14 20//18 15//14
f 21//19 16//8 9//8
f 13//9 16//16 22//16
f 14//11 17//17 18//17
f 23//13 12//13 18//13
f 19//15 21//20 9//15
f 20//18 12//14 24//18
f 16//8 21//19 25//19
f 25//21 22//16 16//16
f 26//22 18//17 17//17
f 27//13 12//13 23//13
f 18//17 26//22 23//22
f 21//20 19//15 28//20
f 29//13 24//13 12//13
f 30//23 20//18 24//18
f 25//19 21//19 31//19
f 22//16 25//21 32//21
f 29//13 12//13 27//13
f 23//22 33//24 27//24
f 33//24 23//22 26//22
f 28//20 34//25 21//20
f 24//13 29//13 35//13
f 20//18 30//23 36//23
f 37//26 30//13 24//13
f 31//19 21//19 34//27
f 31//28 32//21 25//21
f 27//24 38//29 29//29
f 38//29 27//24 33//24
f 34//25 28//20 39//25
f 29//29 40//30 35//30
f 37//26 24//13 35//13
f 41//31 36//23 30//23
f 42//26 30//13 37//26
f 31//19 34//27 43//19
f 32//21 31//28 44//28
f 40//30 29//29 38//29
f 39//25 45//32 34//25
f 46//33 35//30 40//30
f 35//30 46//33 37//33
f 36//23 41//31 47//31
f 42//26 41//13 30//13
f 37//26 48//34 42//26
f 43//19 34//27 49//19
f 43//35 44//28 31//28
f 45//32 39//25 50//32
f 45//36 51//27 34//27
f 52//37 37//33 46//33
f 53//38 47//31 41//31
f 41//13 42//26 53//13
f 48//34 37//26 54//34
f 48//39 55//40 42//40
f 49//19 34//27 51//27
f 49//41 56//35 43//35
f 44//28 43//35 56//35
f 50//32 57//42 45//32
f 51//27 45//36 58//36
f 37//33 52//37 59//37
f 47//31 53//38 60//38
f 42//40 60//38 53//38
f 54//34 37//26 59//34
f 54//43 61//39 48//39
f 55//40 48//39 61//39
f 60//38 42//40 55//40
f 51//44 62//41 49//41
f 56//35 49//41 62//41
f 57//42 50//32 63//42
f 64//36 45//36 57//36
f 58//36 45//36 64//36
f 58//45 65//44 51//44
f 66//46 59//37 52//37
f 54//34 59//34 67//34
f 61//39 54//43 68//43
f 62//41 51//44 65//44
f 63//42 69//47 57//42
f 64//36 57//36 70//48
f 64//49 71//45 58//45
f 65//44 58//45 71//45
f 59//37 66//46 67//46
f 54//34 67//34 72//34
f 72//50 68//43 54//43
f 69//47 63//42 73//47
f 70//48 57//36 69//48
f 70//51 74//49 64//49
f 71//45 64//49 74//49
f 75//52 67//46 66//46
f 72//34 67//34 76//34
f 68//43 72//50 77//50
f 73//47 78//53 69//47
f 69//48 79//54 70//48
f 74//49 70//51 80//51
f 67//46 75//52 76//52
f 72//34 76//34 81//55
f 81//56 77//50 72//50
f 78//53 73//47 82//53
f 79//54 69//48 78//54
f 79//57 80//51 70//51
f 75//52 83//58 76//52
f 81//55 76//34 83//34
f 77//50 81//56 84//56
f 85//46 78//53 82//53
f 79//54 78//54 86//54
f 80//51 79//57 87//57
f 83//58 75//52 88//58
f 81//55 83//34 89//55
f 90//59 84//56 81//56
f 78//53 85//46 91//46
f 86//54 78//54 92//54
f 86//60 87//57 79//57
f 88//58 89//61 83//58
f 89//55 90//62 81//55
f 84//56 90//59 93//59
f 94//63 91//46 85//46
f 92//54 78//54 91//54
f 92//64 95//60 86//60
f 87//57 86//60 95//60
f 89//61 88//58 96//61
f 90//62 89//55 97//62
f 98//65 93//59 90//59
f 91//46 94//63 99//63
f 92//54 91//54 100//54
f 95//60 92//64 101//64
f 96//61 97//66 89//61
f 90//62 97//62 98//62
f 93//59 98//65 102//65
f 103//67 99//63 94//63
f 104//54 91//54 99//54
f 100//54 91//54 105//54
f 100//68 101//64 92//64
f 97//66 96//61 106//66
f 98//62 97//62 107//62
f 108//69 102//65 98//65
f 99//63 103//67 109//67
f 110//70 91//54 104//54
f 104//54 99//54 111//54
f 105//54 91//54 110//70
f 105//71 112//68 100//68
f 101//64 100//68 112//68
f 106//66 107//72 97//66
f 98//62 107//62 113//62
f 102//65 108//69 114//69
f 98//62 113//62 108//73
f 115//74 109//67 103//67
f 111//54 99//54 109//54
f 104//75 116//76 110//76
f 111//74 117//75 104//75
f 110//70 118//54 105//54
f 112//68 105//71 119//71
f 107//72 106//66 120//72
f 120//72 113//77 107//72
f 121//78 114//69 108//69
f 108//73 113//62 122//73
f 109//67 115//74 111//74
f 116//76 104//75 117//75
f 123//79 110//76 116//76
f 117//75 111//74 115//74
f 110//70 124//54 118//54
f 118//80 119//71 105//71
f 113//77 120//72 125//77
f 114//69 121//78 126//78
f 108//73 127//81 121//81
f 125//77 122//82 113//77
f 128//81 108//73 122//73
f 110//76 123//79 129//79
f 110//70 130//54 124//54
f 124//83 131//80 118//80
f 119//71 118//80 131//80
f 129//79 126//78 121//78
f 108//73 128//81 127//81
f 121//81 127//81 132//81
f 122//82 125//77 133//82
f 133//82 128//84 122//82
f 126//78 129//79 123//79
f 129//81 134//85 110//70
f 130//54 110//70 135//70
f 130//86 136//83 124//83
f 131//80 124//83 136//83
f 121//81 137//87 129//81
f 138//84 127//88 128//84
f 139//88 132//89 127//88
f 121//81 132//81 140//81
f 128//84 133//82 138//84
f 129//81 137//87 134//85
f 110//70 134//85 141//81
f 110//70 141//81 135//70
f 135//90 142//86 130//86
f 136//83 130//86 142//86
f 121//81 140//81 137//87
f 127//88 138//84 139//88
f 132//89 139//88 143//89
f 143//89 140//91 132//89
f 134//85 137//87 144//92
f 134//93 145//94 141//94
f 141//94 146//90 135//90
f 142//86 135//90 146//90
f 147//91 137//95 140//91
f 140//91 143//89 147//91
f 137//87 148//96 144//92
f 149//97 134//97 144//97
f 145//94 134//93 150//93
f 146//90 141//94 145//94
f 137//95 147//91 151//95
f 137//98 152//98 148//98
f 148//99 149//99 144//99
f 134//97 149//97 150//97
f 152//98 137//98 151//98
f 149//99 148//99 152//99
usemtl material_1_0
f 3//100 2//101 1//102
f 2//103 4//103 1//103
f 3//100 5//104 2//101
f 3//105 1//105 6//105
f 7//103 1//103 4//103
f 4//106 2//106 8//106
f 5//106 8//106 2//106
f 3//100 9//107 5//104
f 7//105 6//105 1//105
f 3//108 6//108 10//109
f 8//110 5//110 11//111
f 9//107 12//112 5//104
f 10//112 9//107 3//100
f 13//109 10//109 6//108
f 14//111 11//111 5//110
f 5//104 12//112 14//112
f 12//113 9//114 15//113
f 16//107 9//107 10//112
f 10//109 13//109 16//115
f 11//111 14//111 17//116
f 14//112 12//112 18//112
f 19//114 15//113 9//114
f 15//113 20//117 12//113
f 9//107 16//107 21//118
f 22//115 16//115 13//109
f 18//116 17//116 14//111
f 18//112 12//112 23//112
f 9//114 21//119 19//114
f 24//117 12//113 20//117
f 25//118 21//118 16//107
f 16//115 22//115 25//120
f 17//116 18//116 26//121
f 23//112 12//112 27//112
f 23//121 26//121 18//116
f 28//119 19//114 21//119
f 12//112 24//112 29//112
f 24//117 20//117 30//122
f 31//118 21//118 25//118
f 32//120 25//120 22//115
f 27//112 12//112 29//112
f 27//123 33//123 23//121
f 26//121 23//121 33//123
f 21//119 34//124 28//119
f 35//112 29//112 24//112
f 36//122 30//122 20//117
f 24//112 30//112 37//125
f 34//126 21//118 31//118
f 25//120 32//120 31//127
f 29//128 38//128 27//123
f 33//123 27//123 38//128
f 39//124 28//119 34//124
f 35//129 40//129 29//128
f 35//112 24//112 37//125
f 30//122 36//122 41//130
f 37//125 30//112 42//125
f 43//118 34//126 31//118
f 44//127 31//127 32//120
f 38//128 29//128 40//129
f 34//124 45//131 39//124
f 40//129 35//129 46//132
f 37//132 46//132 35//129
f 47//130 41//130 36//122
f 30//112 41//112 42//125
f 42//125 48//133 37//125
f 49//118 34//126 43//118
f 31//127 44//127 43//134
f 50//131 39//124 45//131
f 34//126 51//126 45//135
f 46//132 37//132 52//136
f 41//130 47//130 53//137
f 53//112 42//125 41//112
f 54//133 37//125 48//133
f 42//138 55//138 48//139
f 51//126 34//126 49//118
f 43//134 56//134 49//140
f 56//134 43//134 44//127
f 45//131 57//141 50//131
f 58//135 45//135 51//126
f 59//136 52//136 37//132
f 60//137 53//137 47//130
f 53//137 60//137 42//138
f 59//133 37//125 54//133
f 48//139 61//139 54//142
f 61//139 48//139 55//138
f 55//138 42//138 60//137
f 49//140 62//140 51//143
f 62//140 49//140 56//134
f 63//141 50//131 57//141
f 57//135 45//135 64//135
f 64//135 45//135 58//135
f 51//143 65//143 58//144
f 52//136 59//136 66//145
f 67//133 59//133 54//133
f 68//142 54//142 61//139
f 65//143 51//143 62//140
f 57//141 69//146 63//141
f 70//147 57//135 64//135
f 58//144 71//144 64//148
f 71//144 58//144 65//143
f 67//145 66//145 59//136
f 72//133 67//133 54//133
f 54//142 68//142 72//149
f 73//146 63//141 69//146
f 69//147 57//135 70//147
f 64//148 74//148 70//150
f 74//148 64//148 71//144
f 66//145 67//145 75//151
f 76//133 67//133 72//133
f 77//149 72//149 68//142
f 69//146 78//152 73//146
f 70//147 79//153 69//147
f 80//150 70//150 74//148
f 76//151 75//151 67//145
f 81//154 76//133 72//133
f 72//149 77//149 81//155
f 82//152 73//146 78//152
f 78//153 69//147 79//153
f 70//150 80//150 79//156
f 76//151 83//157 75//151
f 83//133 76//133 81//154
f 84//155 81//155 77//149
f 82//152 78//152 85//145
f 86//153 78//153 79//153
f 87//156 79//156 80//150
f 88//157 75//151 83//157
f 89//154 83//133 81//154
f 81//155 84//155 90//158
f 91//145 85//145 78//152
f 92//153 78//153 86//153
f 79//156 87//156 86//159
f 83//157 89//160 88//157
f 81//154 90//161 89//154
f 93//158 90//158 84//155
f 85//145 91//145 94//162
f 91//153 78//153 92//153
f 86//159 95//159 92//163
f 95//159 86//159 87//156
f 96//160 88//157 89//160
f 97//161 89//154 90//161
f 90//158 93//158 98//164
f 99//162 94//162 91//145
f 100//153 91//153 92//153
f 101//163 92//163 95//159
f 89//160 97//165 96//160
f 98//161 97//161 90//161
f 102//164 98//164 93//158
f 94//162 99//162 103//166
f 99//153 91//153 104//153
f 105//153 91//153 100//153
f 92//163 101//163 100//167
f 106//165 96//160 97//165
f 107//161 97//161 98//161
f 98//164 102//164 108//168
f 109//166 103//166 99//162
f 104//153 91//153 110//169
f 111//153 99//153 104//153
f 110//169 91//153 105//153
f 100//167 112//167 105//170
f 112//167 100//167 101//163
f 97//165 107//171 106//165
f 113//161 107//161 98//161
f 114//168 108//168 102//164
f 108//172 113//161 98//161
f 103//166 109//166 115//173
f 109//153 99//153 111//153
f 110//174 116//174 104//175
f 104//175 117//175 111//173
f 105//153 118//153 110//169
f 119//170 105//170 112//167
f 120//171 106//165 107//171
f 107//171 113//176 120//171
f 108//168 114//168 121//177
f 122//172 113//161 108//172
f 111//173 115//173 109//166
f 117//175 104//175 116//174
f 116//174 110//174 123//178
f 115//173 111//173 117//175
f 118//153 124//153 110//169
f 105//170 119//170 118//179
f 125//176 120//171 113//176
f 126//177 121//177 114//168
f 121//180 127//180 108//172
f 113//176 122//181 125//176
f 122//172 108//172 128//180
f 129//178 123//178 110//174
f 124//153 130//153 110//169
f 118//179 131//179 124//182
f 131//179 118//179 119//170
f 121//177 126//177 129//178
f 127//180 128//180 108//172
f 132//180 127//180 121//180
f 133//181 125//176 122//181
f 122//181 128//183 133//181
f 123//178 129//178 126//177
f 110//169 134//184 129//180
f 135//169 110//169 130//153
f 124//182 136//182 130//185
f 136//182 124//182 131//179
f 129//180 137//186 121//180
f 128//183 127//187 138//183
f 127//187 132//188 139//187
f 140//180 132//180 121//180
f 138//183 133//181 128//183
f 134//184 137//186 129//180
f 141//180 134//184 110//169
f 135//169 141//180 110//169
f 130//185 142//185 135//189
f 142//185 130//185 136//182
f 137//186 140//180 121//180
f 139//187 138//183 127//187
f 143//188 139//187 132//188
f 132//188 140//190 143//188
f 144//191 137//186 134//184
f 141//192 145//192 134//193
f 135//189 146//189 141//192
f 146//189 135//189 142//185
f 140//190 137//194 147//190
f 147//190 143//188 140//190
f 144//191 148//195 137//186
f 144//196 134//196 149//196
f 150//193 134//193 145//192
f 145//192 141//192 146//189
f 151//194 147//190 137//194
f 148//197 152//197 137//197
f 144//198 149//198 148//198
f 150//196 149//196 134//196
f 151//197 137//197 152//197
f 152//198 148//198 149//198
