# SSTK version 0.8.0
# 10
mtllib original-10.mtl
o mesh7/mesh7-geometry#mesh7-geometry
v -0.031767 0.455536 0.365284
v -0.005905 0.453179 0.365495
v -0.005905 0.455392 0.365430
v -0.031767 0.453322 0.365348
v 0.019955 0.453322 0.365087
v -0.057632 0.455967 0.364589
v 0.019954 0.455536 0.365024
v -0.057631 0.453753 0.364646
v 0.045811 0.453753 0.364125
v -0.083499 0.456686 0.363342
v 0.045811 0.455967 0.364068
v -0.083499 0.454471 0.363391
v 0.071665 0.454471 0.362609
v -0.109369 0.457692 0.361546
v 0.071664 0.456686 0.362561
v -0.109369 0.455476 0.361580
v 0.097515 0.455476 0.360538
v -0.134173 0.458935 0.359279
v 0.097515 0.457692 0.360504
v -0.134173 0.456710 0.359294
v 0.122295 0.456710 0.358002
v -0.135248 0.458708 0.358131
v 0.122295 0.458935 0.357987
v -0.135248 0.456485 0.358146
v 0.123358 0.456485 0.356844
v -0.135258 0.456487 0.356161
v 0.123358 0.458708 0.356828
v -0.135258 0.458701 0.356146
v 0.123348 0.456487 0.354858
v 0.123348 0.458701 0.354843
vn -0.015945675479580944 0.028712993945894796 0.9994605041782106
vn 0.005035890709974596 0.02892598793500209 0.9995688705770811
vn -0.019518239462408982 0.027813991871334463 0.9994225433641516
vn 0.026120946219809434 0.028714002150377563 0.9992463171055923
vn -0.033486914900600816 0.02683701636539223 0.9990787762148907
vn 0.029587191358710647 0.02781700087733454 0.9991750660268167
vn -0.04064298049326928 0.02457900827397172 0.9988713733453832
vn 0.0436726333355678 0.026841011610525174 0.9986852663343245
vn -0.05455947828872708 0.02313899726667162 0.9982423804539432
vn 0.05063428481303031 0.024578996294446435 0.9984147645856558
vn -0.06182997354610268 0.019610006015203803 0.9978940334701737
vn 0.06479323864000805 0.023133001698598766 0.9976305430663958
vn -0.0759549260408774 0.01749499628089681 0.9969577595441325
vn 0.07176020564156994 0.019602990340148833 0.9972292593260605
vn -0.08363734307276872 0.012503998843930554 0.9964178063727278
vn 0.08625344938319181 0.017491010271905114 0.9961196750537404
vn -0.32279300065563116 0.009453998723067595 0.9464223690487655
vn 0.09349533671383538 0.01250099780944431 0.9955412332327249
vn -0.43973613611588014 0.006064996806995527 0.8981065339967231
vn 0.33230797127589695 0.009443996100324757 0.9431236521072699
vn -0.9292536395158523 0.0024770006592576103 0.3694340779006134
vn 0.4484108737609611 0.006051998677248277 0.8938070606148408
vn 0.9329283738942309 0.002465001103736616 0.3600535695596209
vn -0.9999872387262353 0.000001000000331034286 0.005051968297569581
vn 0.999987292341158 -0.000007000003583356369 -0.00504133982183817
vn -0.005035890709974596 -0.02892598793500209 -0.9995688705770811
vn 0.015945675479580944 -0.028712993945894796 -0.9994605041782106
vn 0.019518239462408982 -0.027813991871334463 -0.9994225433641516
vn -0.026120946219809434 -0.028714002150377563 -0.9992463171055923
vn 0.033486914900600816 -0.02683701636539223 -0.9990787762148907
vn -0.029587191358710647 -0.02781700087733454 -0.9991750660268167
vn 0.04064298049326928 -0.02457900827397172 -0.9988713733453832
vn -0.0436726333355678 -0.026841011610525174 -0.9986852663343245
vn 0.05455947828872708 -0.02313899726667162 -0.9982423804539432
vn -0.05063428481303031 -0.024578996294446435 -0.9984147645856558
vn 0.06182997354610268 -0.019610006015203803 -0.9978940334701737
vn -0.06479323864000805 -0.023133001698598766 -0.9976305430663958
vn 0.0759549260408774 -0.01749499628089681 -0.9969577595441325
vn -0.07176020564156994 -0.019602990340148833 -0.9972292593260605
vn 0.08363734307276872 -0.012503998843930554 -0.9964178063727278
vn -0.08625344938319181 -0.017491010271905114 -0.9961196750537404
vn 0.32279300065563116 -0.009453998723067595 -0.9464223690487655
vn -0.09349533671383538 -0.01250099780944431 -0.9955412332327249
vn 0.43973613611588014 -0.006064996806995527 -0.8981065339967231
vn -0.33230797127589695 -0.009443996100324757 -0.9431236521072699
vn 0.9292536395158523 -0.0024770006592576103 -0.3694340779006134
vn -0.4484108737609611 -0.006051998677248277 -0.8938070606148408
vn -0.9329283738942309 -0.002465001103736616 -0.3600535695596209
vn 0.9999872387262353 -0.000001000000331034286 -0.005051968297569581
vn -0.999987292341158 0.000007000003583356369 0.00504133982183817
usemtl material_0_0
f 1//1 2//2 3//2
f 2//2 1//1 4//3
f 5//4 3//2 2//2
f 6//5 4//3 1//1
f 3//2 5//4 7//6
f 8//7 4//3 6//5
f 5//4 9//8 7//6
f 10//9 8//7 6//5
f 7//6 9//8 11//10
f 12//11 8//7 10//9
f 9//8 13//12 11//10
f 14//13 12//11 10//9
f 11//10 13//12 15//14
f 16//15 12//11 14//13
f 13//12 17//16 15//14
f 18//17 16//15 14//13
f 15//14 17//16 19//18
f 18//17 20//19 16//15
f 17//16 21//20 19//18
f 22//21 20//19 18//17
f 19//18 21//20 23//22
f 20//19 22//21 24//21
f 25//23 23//22 21//20
f 22//21 26//24 24//21
f 23//22 25//23 27//23
f 26//24 22//21 28//24
f 29//25 27//23 25//23
f 27//23 29//25 30//25
usemtl material_1_0
f 3//26 2//26 1//27
f 4//28 1//27 2//26
f 2//26 3//26 5//29
f 1//27 4//28 6//30
f 7//31 5//29 3//26
f 6//30 4//28 8//32
f 7//31 9//33 5//29
f 6//30 8//32 10//34
f 11//35 9//33 7//31
f 10//34 8//32 12//36
f 11//35 13//37 9//33
f 10//34 12//36 14//38
f 15//39 13//37 11//35
f 14//38 12//36 16//40
f 15//39 17//41 13//37
f 14//38 16//40 18//42
f 19//43 17//41 15//39
f 16//40 20//44 18//42
f 19//43 21//45 17//41
f 18//42 20//44 22//46
f 23//47 21//45 19//43
f 24//46 22//46 20//44
f 21//45 23//47 25//48
f 24//46 26//49 22//46
f 27//48 25//48 23//47
f 28//49 22//46 26//49
f 25//48 27//48 29//50
f 30//50 29//50 27//48
