# SSTK version 0.8.0
# 14
mtllib original-14.mtl
o mesh10/mesh10-geometry#mesh10-geometry
v 0.062484 0.566794 0.360640
v 0.070278 0.566760 0.359409
v 0.070322 0.566794 0.360212
v 0.062440 0.566760 0.359837
v 0.071452 0.567929 0.359311
v 0.059118 0.574960 0.360588
v 0.061307 0.567964 0.360671
v 0.059075 0.574925 0.359785
v 0.071495 0.567964 0.360114
v 0.061263 0.567929 0.359868
v 0.072383 0.569098 0.359226
v 0.072427 0.569133 0.360030
v 0.060371 0.569133 0.360688
v 0.060327 0.569098 0.359885
v 0.073093 0.570268 0.359154
v 0.073137 0.570302 0.359957
v 0.059658 0.570302 0.360693
v 0.059614 0.570268 0.359890
v 0.073600 0.571437 0.359093
v 0.073644 0.571472 0.359896
v 0.059148 0.571472 0.360688
v 0.059104 0.571437 0.359884
v 0.073618 0.574925 0.358991
v 0.073662 0.574960 0.359794
v 0.058974 0.577318 0.360528
v 0.058931 0.577284 0.359725
v 0.073755 0.577284 0.358915
v 0.073798 0.577318 0.359719
v 0.073922 0.572606 0.359041
v 0.059225 0.576082 0.360550
v 0.058821 0.572641 0.360672
v 0.058778 0.572606 0.359868
v 0.059181 0.576047 0.359747
v 0.073444 0.578453 0.358899
v 0.073966 0.572641 0.359844
v 0.073487 0.578488 0.359702
v 0.073508 0.576047 0.358964
v 0.059282 0.578488 0.360478
v 0.058756 0.576149 0.360574
v 0.059238 0.578453 0.359674
v 0.058712 0.576114 0.359771
v 0.073977 0.576114 0.358937
v 0.074021 0.576149 0.359740
v 0.073552 0.576082 0.359768
v 0.074080 0.573776 0.358999
v 0.059437 0.577214 0.360506
v 0.059393 0.577179 0.359703
v 0.058645 0.574980 0.360614
v 0.058616 0.573776 0.359843
v 0.058601 0.574945 0.359810
v 0.073293 0.577179 0.358944
v 0.074124 0.573810 0.359802
v 0.073336 0.577214 0.359747
v 0.059647 0.578014 0.360471
v 0.058660 0.573810 0.360647
v 0.059603 0.577979 0.359668
v 0.074092 0.574945 0.358964
v 0.074136 0.574980 0.359768
v 0.073080 0.577979 0.358932
v 0.073124 0.578014 0.359735
vn -0.3785232293067334 -0.923600810334437 0.06067707989656105
vn 0.3828804879978784 -0.9236007875967803 0.019081851616480062
vn 0.7446745571327766 -0.6673240690263368 -0.011763964350332206
vn 0.05451356372639047 0.028812993339330125 0.9980972311276475
vn -0.7415237265756668 -0.6673247700499337 0.06942776248114951
vn -0.05451356372639047 -0.028812993339330125 -0.9980972311276475
vn 0.8193101855733458 -0.5730037651871159 -0.019937524850347974
vn -0.8166084698760034 -0.5730009740642575 0.06942975333518359
vn 0.887269650286182 -0.46036824018591294 -0.028524570271297213
vn -0.8850999868816337 -0.46036393744736365 0.06828658960653661
vn 0.941885459395886 -0.3338930619687216 -0.03697572917133977
vn -0.9403088671222104 -0.333894147153694 0.06583261279831373
vn -0.0023598589356113803 0.9990634369954383 -0.043205091420641946
vn 0.9784171465963758 -0.20174601421411675 -0.04470383646761684
vn -0.9774644833185765 -0.20174900986139094 0.06213308998188192
vn 0.9888530450327038 -0.14098007178953798 -0.047898587534146976
vn 0.99409611538396 -0.09623198980975455 -0.05012302380918083
vn -0.9936422708374382 -0.0962280130018488 0.058439773431587454
vn -0.9881878599569616 -0.14097902150134656 0.06008052038891857
vn 0.9646653985518732 0.2556480417277715 -0.06375537308738374
vn 0.9733249793862371 0.22069201548496611 -0.06271777103791841
vn 0.9959726093285401 -0.07359398958998373 -0.051210215421619104
vn -0.9658699812826175 0.25564804470671126 0.04170439418995932
vn -0.9743653152825666 0.22069091101192534 0.04367784531122243
vn 0.9743685225950428 -0.22068198474756512 -0.04365138925428428
vn -0.9888519470182157 0.14098295805546146 0.047912758386636285
vn -0.9956256568989635 -0.07359101890089893 0.057566598489358814
vn 0.9881872069470714 0.1409850684853464 -0.06007707125291665
vn -0.002354698612736782 0.9990672361350639 -0.04311743354940506
vn -0.9733254637246833 -0.22068890257348472 0.06272120810412725
vn -0.9977151365852831 0.04232298307866107 0.05266185841701161
vn 0.997516098985931 0.04232100857506244 -0.05630776586830554
vn 0.965874623322334 -0.25563611239580986 -0.041670013932041124
vn -0.9646651582501429 -0.2556470031305254 0.06376317313785483
vn 0.0023598589356113803 -0.9990634369954383 0.043205091420641946
vn -0.3828804879978784 0.9236007875967803 -0.019081851616480062
vn 0.3785232293067334 0.923600810334437 -0.06067707989656105
vn -0.7446745571327766 0.6673240690263368 0.011763964350332206
vn 0.7415237265756668 0.6673247700499337 -0.06942776248114951
vn -0.8193101855733458 0.5730037651871159 0.019937524850347974
vn 0.8166084698760034 0.5730009740642575 -0.06942975333518359
vn -0.887269650286182 0.46036824018591294 0.028524570271297213
vn 0.8850999868816337 0.46036393744736365 -0.06828658960653661
vn -0.941885459395886 0.3338930619687216 0.03697572917133977
vn 0.9403088671222104 0.333894147153694 -0.06583261279831373
vn -0.9784171465963758 0.20174601421411675 0.04470383646761684
vn 0.9774644833185765 0.20174900986139094 -0.06213308998188192
vn -0.99409611538396 0.09623198980975455 0.05012302380918083
vn -0.9888530450327038 0.14098007178953798 0.047898587534146976
vn 0.9936422708374382 0.0962280130018488 -0.058439773431587454
vn 0.9881878599569616 0.14097902150134656 -0.06008052038891857
vn -0.9733249793862371 -0.22069201548496611 0.06271777103791841
vn -0.9646653985518732 -0.2556480417277715 0.06375537308738374
vn -0.9959726093285401 0.07359398958998373 0.051210215421619104
vn 0.9658699812826175 -0.25564804470671126 -0.04170439418995932
vn 0.9743653152825666 -0.22069091101192534 -0.04367784531122243
vn -0.9743685225950428 0.22068198474756512 0.04365138925428428
vn 0.9888519470182157 -0.14098295805546146 -0.047912758386636285
vn 0.9956256568989635 0.07359101890089893 -0.057566598489358814
vn -0.9881872069470714 -0.1409850684853464 0.06007707125291665
vn 0.002354698612736782 -0.9990672361350639 0.04311743354940506
vn 0.9733254637246833 0.22068890257348472 -0.06272120810412725
vn 0.9977151365852831 -0.04232298307866107 -0.05266185841701161
vn -0.997516098985931 -0.04232100857506244 0.05630776586830554
vn -0.965874623322334 0.25563611239580986 0.041670013932041124
vn 0.9646651582501429 0.2556470031305254 -0.06376317313785483
usemtl material_0_0
f 1//1 2//2 3//2
f 2//2 1//1 4//1
f 5//3 3//2 2//2
f 3//4 6//4 1//4
f 7//5 4//1 1//1
f 8//6 2//6 4//6
f 3//2 5//3 9//3
f 8//6 5//6 2//6
f 9//4 6//4 3//4
f 1//4 6//4 7//4
f 4//1 7//5 10//5
f 8//6 4//6 10//6
f 11//7 9//3 5//3
f 8//6 11//6 5//6
f 12//4 6//4 9//4
f 7//4 6//4 13//4
f 7//5 14//8 10//5
f 8//6 10//6 14//6
f 9//3 11//7 12//7
f 8//6 15//6 11//6
f 16//4 6//4 12//4
f 13//4 6//4 17//4
f 14//8 7//5 13//8
f 8//6 14//6 18//6
f 15//9 12//7 11//7
f 8//6 19//6 15//6
f 20//4 6//4 16//4
f 12//7 15//9 16//9
f 17//4 6//4 21//4
f 18//10 13//8 17//10
f 13//8 18//10 14//8
f 8//6 18//6 22//6
f 23//6 19//6 8//6
f 19//11 16//9 15//9
f 20//4 24//4 6//4
f 16//9 19//11 20//11
f 6//4 25//4 21//4
f 22//12 17//10 21//12
f 17//10 22//12 18//10
f 26//6 8//6 22//6
f 27//6 19//6 23//6
f 6//13 23//13 8//13
f 20//4 28//4 24//4
f 23//13 6//13 24//13
f 29//14 20//11 19//11
f 30//4 25//4 6//4
f 21//4 25//4 31//4
f 21//12 32//15 22//12
f 26//6 33//6 8//6
f 26//6 22//6 32//6
f 27//6 29//6 19//6
f 23//6 34//6 27//6
f 33//16 6//17 8//17
f 35//4 28//4 20//4
f 36//4 24//4 28//4
f 24//18 37//19 23//18
f 20//11 29//14 35//14
f 30//4 38//4 25//4
f 6//17 33//16 30//16
f 31//4 25//4 39//4
f 32//15 21//12 31//15
f 40//6 33//6 26//6
f 26//6 32//6 41//6
f 42//6 29//6 27//6
f 34//6 23//6 37//6
f 34//20 28//21 27//21
f 35//4 43//4 28//4
f 24//4 36//4 44//4
f 28//21 34//20 36//20
f 37//19 24//18 44//19
f 45//22 35//14 29//14
f 46//4 38//4 30//4
f 40//23 25//24 38//23
f 47//25 30//16 33//16
f 26//24 39//26 25//24
f 31//4 39//4 48//4
f 31//15 49//27 32//15
f 40//6 47//6 33//6
f 25//24 40//23 26//24
f 41//6 32//6 50//6
f 39//26 26//24 41//26
f 42//6 45//6 29//6
f 27//21 43//28 42//28
f 34//6 37//6 51//6
f 43//28 27//21 28//21
f 52//4 43//4 35//4
f 44//4 36//4 53//4
f 34//29 38//29 36//29
f 44//19 51//30 37//19
f 35//14 45//22 52//22
f 54//4 38//4 46//4
f 30//16 47//25 46//25
f 38//29 34//29 40//29
f 41//26 48//31 39//26
f 31//4 48//4 55//4
f 49//27 31//15 55//27
f 50//6 32//6 49//6
f 40//6 56//6 47//6
f 48//31 41//26 50//31
f 45//6 42//6 57//6
f 58//32 42//28 43//28
f 34//6 51//6 59//6
f 43//4 52//4 58//4
f 53//4 36//4 60//4
f 51//30 44//19 53//30
f 60//4 36//4 38//4
f 57//32 52//22 45//22
f 60//4 38//4 54//4
f 46//25 56//33 54//33
f 56//33 46//25 47//25
f 34//6 59//6 40//6
f 50//31 55//27 48//31
f 55//27 50//31 49//27
f 40//6 59//6 56//6
f 42//28 58//32 57//32
f 53//30 59//34 51//30
f 52//22 57//32 58//32
f 59//34 53//30 60//34
f 54//35 59//35 60//35
f 59//35 54//35 56//35
usemtl material_1_0
f 3//36 2//36 1//37
f 4//37 1//37 2//36
f 2//36 3//36 5//38
f 1//6 6//6 3//6
f 1//37 4//37 7//39
f 4//4 2//4 8//4
f 9//38 5//38 3//36
f 2//4 5//4 8//4
f 3//6 6//6 9//6
f 7//6 6//6 1//6
f 10//39 7//39 4//37
f 10//4 4//4 8//4
f 5//38 9//38 11//40
f 5//4 11//4 8//4
f 9//6 6//6 12//6
f 13//6 6//6 7//6
f 10//39 14//41 7//39
f 14//4 10//4 8//4
f 12//40 11//40 9//38
f 11//4 15//4 8//4
f 12//6 6//6 16//6
f 17//6 6//6 13//6
f 13//41 7//39 14//41
f 18//4 14//4 8//4
f 11//40 12//40 15//42
f 15//4 19//4 8//4
f 16//6 6//6 20//6
f 16//42 15//42 12//40
f 21//6 6//6 17//6
f 17//43 13//41 18//43
f 14//41 18//43 13//41
f 22//4 18//4 8//4
f 8//4 19//4 23//4
f 15//42 16//42 19//44
f 6//6 24//6 20//6
f 20//44 19//44 16//42
f 21//6 25//6 6//6
f 21//45 17//43 22//45
f 18//43 22//45 17//43
f 22//4 8//4 26//4
f 23//4 19//4 27//4
f 8//35 23//35 6//35
f 24//6 28//6 20//6
f 24//35 6//35 23//35
f 19//44 20//44 29//46
f 6//6 25//6 30//6
f 31//6 25//6 21//6
f 22//45 32//47 21//45
f 8//4 33//4 26//4
f 32//4 22//4 26//4
f 19//4 29//4 27//4
f 27//4 34//4 23//4
f 8//48 6//48 33//49
f 20//6 28//6 35//6
f 28//6 24//6 36//6
f 23//50 37//51 24//50
f 35//46 29//46 20//44
f 25//6 38//6 30//6
f 30//49 33//49 6//48
f 39//6 25//6 31//6
f 31//47 21//45 32//47
f 26//4 33//4 40//4
f 41//4 32//4 26//4
f 27//4 29//4 42//4
f 37//4 23//4 34//4
f 27//52 28//52 34//53
f 28//6 43//6 35//6
f 44//6 36//6 24//6
f 36//53 34//53 28//52
f 44//51 24//50 37//51
f 29//46 35//46 45//54
f 30//6 38//6 46//6
f 38//55 25//56 40//55
f 33//49 30//49 47//57
f 25//56 39//58 26//56
f 48//6 39//6 31//6
f 32//47 49//59 31//47
f 33//4 47//4 40//4
f 26//56 40//55 25//56
f 50//4 32//4 41//4
f 41//58 26//56 39//58
f 29//4 45//4 42//4
f 42//60 43//60 27//52
f 51//4 37//4 34//4
f 28//52 27//52 43//60
f 35//6 43//6 52//6
f 53//6 36//6 44//6
f 36//61 38//61 34//61
f 37//51 51//62 44//51
f 52//54 45//54 35//46
f 46//6 38//6 54//6
f 46//57 47//57 30//49
f 40//61 34//61 38//61
f 39//58 48//63 41//58
f 55//6 48//6 31//6
f 55//59 31//47 49//59
f 49//4 32//4 50//4
f 47//4 56//4 40//4
f 50//63 41//58 48//63
f 57//4 42//4 45//4
f 43//60 42//60 58//64
f 59//4 51//4 34//4
f 58//6 52//6 43//6
f 60//6 36//6 53//6
f 53//62 44//51 51//62
f 38//6 36//6 60//6
f 45//54 52//54 57//64
f 54//6 38//6 60//6
f 54//65 56//65 46//57
f 47//57 46//57 56//65
f 40//4 59//4 34//4
f 48//63 55//59 50//63
f 49//59 50//63 55//59
f 56//4 59//4 40//4
f 57//64 58//64 42//60
f 51//62 59//66 53//62
f 58//64 57//64 52//54
f 60//66 53//62 59//66
f 60//13 59//13 54//13
f 56//13 54//13 59//13
