# SSTK version 0.8.0
# 26
mtllib original-26.mtl
o mesh19/mesh19-geometry#mesh19-geometry
v -0.022371 0.540762 0.363198
v -0.023613 0.542358 0.361362
v -0.022381 0.540720 0.361394
v -0.023603 0.542400 0.363167
v -0.023154 0.543121 0.361342
v -0.021170 0.539152 0.363229
v -0.023145 0.543163 0.363147
v -0.022230 0.543668 0.361325
v -0.021179 0.539111 0.361425
v -0.022221 0.543710 0.363129
v -0.020024 0.537593 0.363260
v -0.021108 0.543815 0.363121
v -0.021117 0.543773 0.361317
v -0.020033 0.537551 0.361456
v -0.018959 0.536105 0.363289
v -0.019873 0.542174 0.363153
v -0.019882 0.542132 0.361349
v -0.018968 0.536063 0.361485
v -0.018002 0.534715 0.363316
v -0.018663 0.540552 0.363184
v -0.018672 0.540511 0.361380
v -0.018011 0.534673 0.361512
v -0.017182 0.533450 0.363341
v -0.017501 0.538972 0.363215
v -0.017510 0.538930 0.361411
v -0.017191 0.533408 0.361537
v -0.016552 0.532393 0.363363
v -0.016413 0.537452 0.363245
v -0.016561 0.532351 0.361559
v -0.016423 0.537410 0.361441
v -0.016006 0.531210 0.363387
v -0.015424 0.536014 0.363273
v -0.016015 0.531168 0.361583
v -0.015733 0.530153 0.363410
v -0.015433 0.535972 0.361469
v -0.015742 0.530111 0.361606
v -0.014557 0.534677 0.363300
v -0.015688 0.529214 0.363432
v -0.014566 0.534635 0.361496
v -0.014591 0.525341 0.363516
v -0.015697 0.529172 0.361628
v -0.013837 0.533462 0.363324
v -0.014600 0.525300 0.361712
v -0.015961 0.524438 0.363544
v -0.013846 0.533420 0.361520
v -0.013605 0.526434 0.363486
v -0.015970 0.524397 0.361740
v -0.015841 0.528419 0.363451
v -0.013156 0.531969 0.363355
v -0.013614 0.526392 0.361682
v -0.015850 0.528377 0.361647
v -0.016167 0.527758 0.363468
v -0.013165 0.531927 0.361551
v -0.012984 0.527679 0.363454
v -0.012993 0.527638 0.361650
v -0.021186 0.521782 0.363632
v -0.016176 0.527716 0.361664
v -0.012776 0.530484 0.363388
v -0.021195 0.521740 0.361828
v -0.016683 0.527186 0.363484
v -0.012785 0.530442 0.361584
v -0.012713 0.529041 0.363421
v -0.012722 0.529000 0.361617
v -0.022630 0.520887 0.363660
v -0.016692 0.527144 0.361680
v -0.017619 0.526590 0.363502
v -0.022639 0.520845 0.361856
v -0.022807 0.523954 0.363590
v -0.017628 0.526548 0.361698
v -0.023775 0.519851 0.363689
v -0.022816 0.523912 0.361785
v -0.023785 0.519809 0.361885
v -0.024580 0.522845 0.363624
v -0.024614 0.518721 0.363720
v -0.024589 0.522804 0.361820
v -0.024623 0.518679 0.361916
v -0.026115 0.521456 0.363664
v -0.025136 0.517544 0.363750
v -0.026124 0.521414 0.361860
v -0.025145 0.517503 0.361946
v -0.025332 0.516369 0.363778
v -0.025341 0.516327 0.361974
v -0.027272 0.519893 0.363706
v -0.027359 0.513024 0.363866
v -0.027368 0.512982 0.362061
v -0.027281 0.519852 0.361902
v -0.025193 0.515242 0.363803
v -0.025202 0.515201 0.361999
v -0.028020 0.518200 0.363749
v -0.024711 0.514212 0.363825
v -0.024720 0.514170 0.362021
v -0.028029 0.518158 0.361945
v -0.028084 0.514611 0.363832
v -0.024395 0.508965 0.363945
v -0.024404 0.508923 0.362141
v -0.028094 0.514570 0.362028
v -0.028313 0.516418 0.363792
v -0.023183 0.509037 0.363937
v -0.023192 0.508996 0.362133
v -0.021881 0.510356 0.363900
v -0.028322 0.516376 0.361988
v -0.022281 0.509586 0.363920
v -0.022290 0.509544 0.362115
v -0.021890 0.510314 0.362096
vn -0.8002521818687501 -0.5993959203639636 0.017915804903547432
vn -0.7991522591877003 -0.6008605654559938 0.01795125385867123
vn -0.005036818212074148 -0.023146991979557312 -0.9997193842396959
vn -0.8036227289782747 -0.5948721950012196 0.017820804806225242
vn -0.8571198680632387 0.5150607682675166 -0.007611620256675888
vn -0.7049198079983974 0.7091699344372425 -0.01288675218120755
vn -0.3095789388688777 0.9506530721369837 -0.020484556264034184
vn -0.8095446005466864 -0.5867922092020222 0.01767605571150932
vn -0.09439340589195817 0.9952783191076787 -0.022604257083780957
vn -0.8185349565252746 -0.5741920320163745 0.017436608473940164
vn 0.8002593729853931 0.5993867185981913 -0.01790244444532971
vn 0.7991704934491048 0.6008367574485588 -0.01793636805532979
vn -0.8314551330365918 -0.5553301927468134 0.017051063629304333
vn 0.8036241860280242 0.5948702299361267 -0.017820694894846178
vn -0.8491785734056382 -0.5278479607880239 0.016500932115787646
vn 0.8095556979779803 0.5867767560168086 -0.017680793810677033
vn -0.8848276315352178 -0.46566884920271384 0.015250749292975416
vn 0.8185722275148656 0.5741390076997782 -0.017432962423671212
vn -0.9419145278303298 -0.3356190833672872 0.012524102437647922
vn 0.831527465334816 0.5552221200809545 -0.017043232283408538
vn -0.9887032702741315 -0.1496480306775501 0.00844454045927863
vn 0.8498555290675335 0.5267582768294569 -0.01647111122553154
vn -0.9974534852292454 0.07124000255591321 0.0033774013479097704
vn 0.8863906692393789 0.46268905616351447 -0.015179551768153762
vn -0.9480083079883143 0.3182350127437213 -0.0025931928461260163
vn 0.5028494955471458 -0.8641970203924572 0.017489847706022948
vn 0.6516762906455877 -0.758363079942848 0.014263631725639608
vn 0.9430640663640403 0.3323780991608659 -0.012448531284073508
vn 0.826300305627013 -0.5631600700830223 0.008862301325865645
vn 0.9463172288909547 -0.3232280122380592 0.0027119013215087533
vn 0.49060894890517676 -0.8711994171690916 0.01773230888499185
vn -0.8275814391237404 0.5612761432665957 -0.008834739252226472
vn 0.9892118320754099 0.14625298113197724 -0.008367603720333168
vn 0.9970789782827284 -0.07630797113693506 -0.0032564716542565868
vn 0.6013727845694529 -0.7988184204374168 0.015488871781140747
vn -0.6456678259332449 0.7634822498064703 -0.01441918115177334
vn -0.4959146193591935 0.8681932526186614 -0.017583128653775724
vn 0.7406335419343718 -0.6718050046928937 0.011831831275345839
vn -0.4923078207861944 0.8702422647181643 -0.01764682098703763
vn 0.8639008754038969 -0.503608883384844 0.007305480973301897
vn -0.6032454295133133 0.7974070391650464 -0.015393689009870242
vn 0.9578239586358124 -0.2873498533888262 0.0018237380956994352
vn -0.7410713006178437 0.6713229211608476 -0.011784011398674767
vn 0.9997565288564291 -0.021594005654121194 -0.004536731064763928
vn -0.8645262327853621 0.5025351298578581 -0.007268843422141033
vn 0.9609818525623123 0.2763830276717465 -0.011238374477878255
vn -0.9584262130932362 0.2853349737042433 -0.0017739326248980352
vn 0.8599957647130416 0.5100459195540338 -0.016138296747516077
vn -0.9998144599404432 0.018704998912538153 0.004600946607167867
vn -0.9618520844703486 -0.27334194280757784 0.011169149574794306
vn -0.8630000491740696 -0.5049491555397648 0.01603949641453866
vn -0.8076105726800589 -0.5894498494495175 0.01772111394153386
vn 0.8062444086961319 0.5913162585397859 -0.017749248793503064
vn 0.0595139745806101 -0.9979674314069433 0.022783605523410883
vn 0.2985287536421745 -0.9541790144648769 0.020566759678818516
vn 0.7307633502858557 -0.6825234148248895 0.012112559381219377
vn 0.8876069983913891 -0.4605599088367806 0.006195706487939211
vn 0.8002521818687501 0.5993959203639636 -0.017915804903547432
vn 0.7991522591877003 0.6008605654559938 -0.01795125385867123
vn 0.005036818212074148 0.023146991979557312 0.9997193842396959
vn 0.8036227289782747 0.5948721950012196 -0.017820804806225242
vn 0.8571198680632387 -0.5150607682675166 0.007611620256675888
vn 0.7049198079983974 -0.7091699344372425 0.01288675218120755
vn 0.3095789388688777 -0.9506530721369837 0.020484556264034184
vn 0.8095446005466864 0.5867922092020222 -0.01767605571150932
vn 0.09439340589195817 -0.9952783191076787 0.022604257083780957
vn 0.8185349565252746 0.5741920320163745 -0.017436608473940164
vn -0.7991704934491048 -0.6008367574485588 0.01793636805532979
vn -0.8002593729853931 -0.5993867185981913 0.01790244444532971
vn 0.8314551330365918 0.5553301927468134 -0.017051063629304333
vn -0.8036241860280242 -0.5948702299361267 0.017820694894846178
vn 0.8491785734056382 0.5278479607880239 -0.016500932115787646
vn -0.8095556979779803 -0.5867767560168086 0.017680793810677033
vn 0.8848276315352178 0.46566884920271384 -0.015250749292975416
vn -0.8185722275148656 -0.5741390076997782 0.017432962423671212
vn 0.9419145278303298 0.3356190833672872 -0.012524102437647922
vn -0.831527465334816 -0.5552221200809545 0.017043232283408538
vn 0.9887032702741315 0.1496480306775501 -0.00844454045927863
vn -0.8498555290675335 -0.5267582768294569 0.01647111122553154
vn 0.9974534852292454 -0.07124000255591321 -0.0033774013479097704
vn -0.8863906692393789 -0.46268905616351447 0.015179551768153762
vn 0.9480083079883143 -0.3182350127437213 0.0025931928461260163
vn -0.6516762906455877 0.758363079942848 -0.014263631725639608
vn -0.5028494955471458 0.8641970203924572 -0.017489847706022948
vn -0.9430640663640403 -0.3323780991608659 0.012448531284073508
vn -0.826300305627013 0.5631600700830223 -0.008862301325865645
vn -0.9463172288909547 0.3232280122380592 -0.0027119013215087533
vn -0.49060894890517676 0.8711994171690916 -0.01773230888499185
vn 0.8275814391237404 -0.5612761432665957 0.008834739252226472
vn -0.9892118320754099 -0.14625298113197724 0.008367603720333168
vn -0.9970789782827284 0.07630797113693506 0.0032564716542565868
vn -0.6013727845694529 0.7988184204374168 -0.015488871781140747
vn 0.6456678259332449 -0.7634822498064703 0.01441918115177334
vn 0.4959146193591935 -0.8681932526186614 0.017583128653775724
vn -0.7406335419343718 0.6718050046928937 -0.011831831275345839
vn 0.4923078207861944 -0.8702422647181643 0.01764682098703763
vn -0.8639008754038969 0.503608883384844 -0.007305480973301897
vn 0.6032454295133133 -0.7974070391650464 0.015393689009870242
vn -0.9578239586358124 0.2873498533888262 -0.0018237380956994352
vn 0.7410713006178437 -0.6713229211608476 0.011784011398674767
vn -0.9997565288564291 0.021594005654121194 0.004536731064763928
vn 0.8645262327853621 -0.5025351298578581 0.007268843422141033
vn -0.9609818525623123 -0.2763830276717465 0.011238374477878255
vn 0.9584262130932362 -0.2853349737042433 0.0017739326248980352
vn -0.8599957647130416 -0.5100459195540338 0.016138296747516077
vn 0.9998144599404432 -0.018704998912538153 -0.004600946607167867
vn 0.9618520844703486 0.27334194280757784 -0.011169149574794306
vn 0.8630000491740696 0.5049491555397648 -0.01603949641453866
vn 0.8076105726800589 0.5894498494495175 -0.01772111394153386
vn -0.8062444086961319 -0.5913162585397859 0.017749248793503064
vn -0.2985287536421745 0.9541790144648769 -0.020566759678818516
vn -0.0595139745806101 0.9979674314069433 -0.022783605523410883
vn -0.7307633502858557 0.6825234148248895 -0.012112559381219377
vn -0.8876069983913891 0.4605599088367806 -0.006195706487939211
usemtl material_0_0
f 1//1 2//2 3//1
f 2//2 1//1 4//2
f 5//3 3//3 2//3
f 3//1 6//4 1//1
f 4//5 5//6 2//5
f 8//3 3//3 5//3
f 6//4 3//1 9//4
f 5//6 4//5 7//6
f 8//3 9//3 3//3
f 7//6 8//7 5//6
f 9//4 11//8 6//4
f 8//7 7//6 10//7
f 13//3 9//3 8//3
f 11//8 9//4 14//8
f 13//9 10//7 12//9
f 10//7 13//9 8//7
f 13//3 14//3 9//3
f 14//8 15//10 11//8
f 16//11 13//12 12//12
f 17//3 14//3 13//3
f 15//10 14//8 18//10
f 13//12 16//11 17//11
f 17//3 18//3 14//3
f 18//10 19//13 15//10
f 20//14 17//11 16//11
f 21//3 18//3 17//3
f 19//13 18//10 22//13
f 17//11 20//14 21//14
f 21//3 22//3 18//3
f 22//13 23//15 19//13
f 24//16 21//14 20//14
f 25//3 22//3 21//3
f 23//15 22//13 26//15
f 21//14 24//16 25//16
f 25//3 26//3 22//3
f 26//15 27//17 23//15
f 28//18 25//16 24//16
f 25//3 29//3 26//3
f 27//17 26//15 29//17
f 25//16 28//18 30//18
f 30//3 29//3 25//3
f 29//17 31//19 27//17
f 32//20 30//18 28//18
f 30//3 33//3 29//3
f 31//19 29//17 33//19
f 30//18 32//20 35//20
f 30//3 36//3 33//3
f 33//19 34//21 31//19
f 37//22 35//20 32//20
f 35//3 36//3 30//3
f 34//21 33//19 36//21
f 35//20 37//22 39//22
f 36//3 35//3 41//3
f 36//21 38//23 34//21
f 42//24 39//22 37//22
f 39//3 43//3 35//3
f 35//3 43//3 41//3
f 38//23 36//21 41//23
f 39//22 42//24 45//24
f 45//3 43//3 39//3
f 41//3 43//3 47//3
f 41//23 48//25 38//23
f 44//26 43//27 40//27
f 49//28 45//24 42//24
f 45//3 50//3 43//3
f 40//27 50//29 46//29
f 43//27 44//26 47//26
f 41//3 47//3 51//3
f 48//25 41//23 51//25
f 50//29 40//27 43//27
f 45//24 49//28 53//28
f 53//3 50//3 45//3
f 55//30 46//29 50//29
f 56//31 47//26 44//26
f 51//3 47//3 57//3
f 51//25 52//32 48//25
f 58//33 53//28 49//28
f 53//3 55//3 50//3
f 46//29 55//30 54//30
f 47//26 56//31 59//31
f 57//3 47//3 59//3
f 52//32 51//25 57//32
f 53//28 58//33 61//33
f 61//3 55//3 53//3
f 63//34 54//30 55//30
f 64//35 59//31 56//31
f 57//3 59//3 65//3
f 57//32 60//36 52//32
f 62//34 61//33 58//33
f 55//3 61//3 63//3
f 54//30 63//34 62//34
f 59//31 64//35 67//35
f 65//3 59//3 69//3
f 60//36 57//32 65//36
f 65//36 66//37 60//36
f 61//33 62//34 63//34
f 70//38 67//35 64//35
f 71//3 59//3 67//3
f 69//3 59//3 71//3
f 66//37 65//36 69//37
f 69//37 68//39 66//37
f 67//35 70//38 72//38
f 71//3 67//3 72//3
f 68//39 69//37 71//39
f 74//40 72//38 70//38
f 71//3 72//3 75//3
f 71//39 73//41 68//39
f 72//38 74//40 76//40
f 75//3 72//3 76//3
f 73//41 71//39 75//41
f 78//42 76//40 74//40
f 75//3 76//3 79//3
f 75//41 77//43 73//41
f 76//40 78//42 80//42
f 79//3 76//3 80//3
f 77//43 75//41 79//43
f 81//44 80//42 78//42
f 79//3 80//3 82//3
f 79//43 83//45 77//43
f 80//42 81//44 82//44
f 82//3 85//3 79//3
f 83//45 79//43 86//45
f 87//46 82//44 81//44
f 88//3 85//3 82//3
f 79//3 85//3 86//3
f 86//45 89//47 83//45
f 82//44 87//46 88//46
f 91//3 85//3 88//3
f 86//3 85//3 92//3
f 89//47 86//45 92//47
f 90//48 88//46 87//46
f 91//3 95//3 85//3
f 88//46 90//48 91//48
f 92//3 85//3 96//3
f 92//47 97//49 89//47
f 96//50 84//51 93//50
f 85//51 94//52 84//51
f 91//3 99//3 95//3
f 94//52 85//51 95//52
f 100//53 91//48 90//48
f 84//51 96//50 85//51
f 92//3 96//3 101//3
f 97//49 92//47 101//49
f 101//49 93//50 97//49
f 93//50 101//49 96//50
f 94//54 99//55 98//55
f 91//3 103//3 99//3
f 99//55 94//54 95//54
f 91//48 100//53 104//53
f 98//55 103//56 102//56
f 103//56 98//55 99//55
f 103//3 91//3 104//3
f 102//56 104//57 100//57
f 104//57 102//56 103//56
usemtl material_1_0
f 3//58 2//59 1//58
f 4//59 1//58 2//59
f 2//60 3//60 5//60
f 1//58 6//61 3//58
f 4//3 7//3 1//3
f 2//62 5//63 4//62
f 5//60 3//60 8//60
f 9//61 3//58 6//61
f 1//3 10//3 6//3
f 7//3 10//3 1//3
f 7//63 4//62 5//63
f 3//60 9//60 8//60
f 5//63 8//64 7//63
f 6//61 11//65 9//61
f 10//3 12//3 6//3
f 10//64 7//63 8//64
f 8//60 9//60 13//60
f 14//65 9//61 11//65
f 6//3 12//3 11//3
f 12//66 10//64 13//66
f 8//64 13//66 10//64
f 9//60 14//60 13//60
f 11//65 15//67 14//65
f 12//3 16//3 11//3
f 12//68 13//68 16//69
f 13//60 14//60 17//60
f 18//67 14//65 15//67
f 11//3 16//3 15//3
f 17//69 16//69 13//68
f 14//60 18//60 17//60
f 15//67 19//70 18//67
f 16//3 20//3 15//3
f 16//69 17//69 20//71
f 17//60 18//60 21//60
f 22//70 18//67 19//70
f 15//3 20//3 19//3
f 21//71 20//71 17//69
f 18//60 22//60 21//60
f 19//70 23//72 22//70
f 20//3 24//3 19//3
f 20//71 21//71 24//73
f 21//60 22//60 25//60
f 26//72 22//70 23//72
f 19//3 24//3 23//3
f 25//73 24//73 21//71
f 22//60 26//60 25//60
f 23//72 27//74 26//72
f 23//3 24//3 27//3
f 24//73 25//73 28//75
f 26//60 29//60 25//60
f 29//74 26//72 27//74
f 24//3 28//3 27//3
f 30//75 28//75 25//73
f 25//60 29//60 30//60
f 27//74 31//76 29//74
f 27//3 28//3 31//3
f 28//75 30//75 32//77
f 29//60 33//60 30//60
f 33//76 29//74 31//76
f 31//3 28//3 34//3
f 35//77 32//77 30//75
f 28//3 32//3 34//3
f 33//60 36//60 30//60
f 31//76 34//78 33//76
f 32//77 35//77 37//79
f 30//60 36//60 35//60
f 38//3 34//3 32//3
f 36//78 33//76 34//78
f 39//79 37//79 35//77
f 32//3 37//3 40//3
f 41//60 35//60 36//60
f 34//78 38//80 36//78
f 38//3 32//3 40//3
f 37//79 39//79 42//81
f 35//60 43//60 39//60
f 37//3 42//3 40//3
f 41//60 43//60 35//60
f 41//80 36//78 38//80
f 44//3 38//3 40//3
f 45//81 42//81 39//79
f 39//60 43//60 45//60
f 40//3 42//3 46//3
f 47//60 43//60 41//60
f 38//80 48//82 41//80
f 48//3 38//3 44//3
f 40//83 43//83 44//84
f 42//81 45//81 49//85
f 43//60 50//60 45//60
f 42//3 49//3 46//3
f 46//86 50//86 40//83
f 47//84 44//84 43//83
f 51//60 47//60 41//60
f 51//82 41//80 48//82
f 52//3 48//3 44//3
f 43//83 40//83 50//86
f 53//85 49//85 45//81
f 45//60 50//60 53//60
f 46//3 49//3 54//3
f 50//86 46//86 55//87
f 44//84 47//84 56//88
f 57//60 47//60 51//60
f 48//82 52//89 51//82
f 56//3 52//3 44//3
f 49//85 53//85 58//90
f 50//60 55//60 53//60
f 49//3 58//3 54//3
f 54//87 55//87 46//86
f 59//88 56//88 47//84
f 59//60 47//60 57//60
f 57//89 51//82 52//89
f 60//3 52//3 56//3
f 61//90 58//90 53//85
f 53//60 55//60 61//60
f 62//3 54//3 58//3
f 55//87 54//87 63//91
f 56//88 59//88 64//92
f 65//60 59//60 57//60
f 52//89 60//93 57//89
f 66//3 60//3 56//3
f 58//90 61//90 62//91
f 63//60 61//60 55//60
f 62//91 63//91 54//87
f 67//92 64//92 59//88
f 64//3 68//3 56//3
f 69//60 59//60 65//60
f 65//93 57//89 60//93
f 60//93 66//94 65//93
f 68//3 66//3 56//3
f 63//91 62//91 61//90
f 64//92 67//92 70//95
f 67//60 59//60 71//60
f 70//3 68//3 64//3
f 71//60 59//60 69//60
f 69//94 65//93 66//94
f 66//94 68//96 69//94
f 72//95 70//95 67//92
f 72//60 67//60 71//60
f 73//3 68//3 70//3
f 71//96 69//94 68//96
f 70//95 72//95 74//97
f 75//60 72//60 71//60
f 68//96 73//98 71//96
f 74//3 73//3 70//3
f 76//97 74//97 72//95
f 76//60 72//60 75//60
f 75//98 71//96 73//98
f 77//3 73//3 74//3
f 74//97 76//97 78//99
f 79//60 76//60 75//60
f 73//98 77//100 75//98
f 78//3 77//3 74//3
f 80//99 78//99 76//97
f 80//60 76//60 79//60
f 79//100 75//98 77//100
f 81//3 77//3 78//3
f 78//99 80//99 81//101
f 82//60 80//60 79//60
f 77//100 83//102 79//100
f 77//3 81//3 84//3
f 82//101 81//101 80//99
f 79//60 85//60 82//60
f 86//102 79//100 83//102
f 83//3 77//3 84//3
f 81//3 87//3 84//3
f 81//101 82//101 87//103
f 82//60 85//60 88//60
f 86//60 85//60 79//60
f 83//102 89//104 86//102
f 89//3 83//3 84//3
f 87//3 90//3 84//3
f 88//103 87//103 82//101
f 88//60 85//60 91//60
f 92//60 85//60 86//60
f 92//104 86//102 89//104
f 93//3 89//3 84//3
f 84//3 90//3 94//3
f 87//103 88//103 90//105
f 85//60 95//60 91//60
f 91//105 90//105 88//103
f 96//60 85//60 92//60
f 89//104 97//106 92//104
f 97//3 89//3 93//3
f 93//107 84//108 96//107
f 94//3 90//3 98//3
f 84//108 94//109 85//108
f 95//60 99//60 91//60
f 95//109 85//108 94//109
f 90//105 91//105 100//110
f 85//108 96//107 84//108
f 101//60 96//60 92//60
f 101//106 92//104 97//106
f 97//106 93//107 101//106
f 96//107 101//106 93//107
f 98//3 90//3 102//3
f 98//111 99//111 94//112
f 99//60 103//60 91//60
f 95//112 94//112 99//111
f 104//110 100//110 91//105
f 100//3 102//3 90//3
f 102//113 103//113 98//111
f 99//111 98//111 103//113
f 104//60 91//60 103//60
f 100//114 104//114 102//113
f 103//113 102//113 104//114
usemtl material_2_0
f 1//60 7//60 4//60
f 6//60 10//60 1//60
f 1//60 10//60 7//60
f 6//60 12//60 10//60
f 11//60 12//60 6//60
f 11//60 16//60 12//60
f 15//60 16//60 11//60
f 15//60 20//60 16//60
f 19//60 20//60 15//60
f 19//60 24//60 20//60
f 23//60 24//60 19//60
f 27//60 24//60 23//60
f 27//60 28//60 24//60
f 31//60 28//60 27//60
f 34//60 28//60 31//60
f 34//60 32//60 28//60
f 32//60 34//60 38//60
f 40//60 37//60 32//60
f 40//60 32//60 38//60
f 40//60 42//60 37//60
f 40//60 38//60 44//60
f 46//60 42//60 40//60
f 44//60 38//60 48//60
f 46//60 49//60 42//60
f 44//60 48//60 52//60
f 54//60 49//60 46//60
f 44//60 52//60 56//60
f 54//60 58//60 49//60
f 56//60 52//60 60//60
f 58//60 54//60 62//60
f 56//60 60//60 66//60
f 56//60 68//60 64//60
f 56//60 66//60 68//60
f 64//60 68//60 70//60
f 70//60 68//60 73//60
f 70//60 73//60 74//60
f 74//60 73//60 77//60
f 74//60 77//60 78//60
f 78//60 77//60 81//60
f 84//60 81//60 77//60
f 84//60 77//60 83//60
f 84//60 87//60 81//60
f 84//60 83//60 89//60
f 84//60 90//60 87//60
f 84//60 89//60 93//60
f 94//60 90//60 84//60
f 93//60 89//60 97//60
f 98//60 90//60 94//60
f 102//60 90//60 98//60
f 90//60 102//60 100//60
