# SSTK version 0.8.0
# 60
mtllib original-60.mtl
o mesh48/mesh48-geometry#mesh48-geometry
v 0.092160 0.441998 0.361483
v 0.092332 0.434831 0.361667
v 0.093800 0.442031 0.361345
v 0.092143 0.441989 0.361294
v 0.093971 0.434866 0.361516
v 0.093782 0.442022 0.361156
v 0.092314 0.434822 0.361479
v 0.092354 0.434285 0.361685
v 0.093988 0.434421 0.361530
v 0.093953 0.434857 0.361328
v 0.092337 0.434276 0.361497
v 0.094016 0.434011 0.361542
v 0.092396 0.433773 0.361700
v 0.093970 0.434412 0.361342
v 0.092378 0.433764 0.361512
v 0.094055 0.433636 0.361553
v 0.093998 0.434002 0.361354
v 0.092455 0.433296 0.361713
v 0.092438 0.433287 0.361525
v 0.094106 0.433297 0.361561
v 0.094038 0.433627 0.361364
v 0.092533 0.432853 0.361723
v 0.092516 0.432844 0.361535
v 0.094168 0.432992 0.361567
v 0.094089 0.433288 0.361373
v 0.092630 0.432445 0.361731
v 0.092612 0.432436 0.361543
v 0.094242 0.432722 0.361570
v 0.094151 0.432983 0.361379
v 0.092745 0.432070 0.361736
v 0.092727 0.432062 0.361547
v 0.094327 0.432487 0.361572
v 0.094225 0.432713 0.361382
v 0.092878 0.431731 0.361738
v 0.092861 0.431722 0.361549
v 0.094426 0.432277 0.361571
v 0.094310 0.432478 0.361384
v 0.093034 0.431420 0.361736
v 0.093016 0.431411 0.361548
v 0.094543 0.432082 0.361568
v 0.094409 0.432268 0.361383
v 0.093214 0.431131 0.361732
v 0.093420 0.430864 0.361725
v 0.093197 0.431122 0.361544
v 0.094676 0.431902 0.361563
v 0.094525 0.432073 0.361380
v 0.093651 0.430620 0.361714
v 0.093403 0.430855 0.361536
v 0.093634 0.430611 0.361526
v 0.094827 0.431736 0.361556
v 0.094659 0.431893 0.361375
v 0.093890 0.430390 0.361512
v 0.093908 0.430399 0.361700
v 0.094810 0.431727 0.361368
v 0.094995 0.431584 0.361547
v 0.094978 0.431575 0.361359
v 0.094172 0.430191 0.361494
v 0.094190 0.430200 0.361683
v 0.095180 0.431448 0.361536
v 0.095163 0.431439 0.361347
v 0.094479 0.430014 0.361474
v 0.094497 0.430023 0.361662
v 0.095383 0.431326 0.361522
v 0.095365 0.431317 0.361334
v 0.094811 0.429861 0.361450
v 0.095186 0.429742 0.361611
v 0.094829 0.429870 0.361638
v 0.095569 0.429640 0.361580
v 0.095583 0.431211 0.361318
v 0.095169 0.429734 0.361423
v 0.095600 0.431220 0.361506
v 0.095552 0.429631 0.361392
v 0.095830 0.431132 0.361489
v 0.095960 0.429553 0.361358
v 0.095813 0.431123 0.361300
v 0.095977 0.429562 0.361546
v 0.096073 0.431060 0.361469
v 0.096056 0.431051 0.361281
v 0.096393 0.429500 0.361320
v 0.096329 0.431006 0.361448
v 0.096410 0.429509 0.361508
v 0.096312 0.430997 0.361259
v 0.096851 0.429472 0.361278
v 0.096598 0.430969 0.361424
v 0.096580 0.430960 0.361236
v 0.096869 0.429481 0.361467
v 0.097335 0.429470 0.361233
v 0.096879 0.430949 0.361399
v 0.096862 0.430940 0.361211
v 0.097352 0.429479 0.361422
v 0.097174 0.430946 0.361372
v 0.097831 0.429494 0.361186
v 0.097156 0.430937 0.361183
v 0.097848 0.429502 0.361374
v 0.097667 0.430973 0.361325
v 0.097649 0.430964 0.361136
v 0.098299 0.429545 0.361140
v 0.098316 0.429554 0.361328
v 0.098117 0.431032 0.361280
v 0.098100 0.431023 0.361092
v 0.098737 0.429624 0.361096
v 0.098755 0.429633 0.361284
v 0.098524 0.431124 0.361238
v 0.098507 0.431115 0.361050
v 0.099148 0.429731 0.361052
v 0.099165 0.429740 0.361241
v 0.098871 0.431240 0.361011
v 0.099529 0.429865 0.361011
v 0.098888 0.431249 0.361199
v 0.099546 0.429874 0.361199
v 0.099192 0.431397 0.360975
v 0.099882 0.430027 0.360970
v 0.099209 0.431406 0.361163
v 0.099899 0.430036 0.361159
v 0.099470 0.431587 0.360941
v 0.100206 0.430216 0.360932
v 0.100223 0.430225 0.361120
v 0.099487 0.431596 0.361129
v 0.099705 0.431810 0.360910
v 0.100501 0.430428 0.360895
v 0.100519 0.430437 0.361083
v 0.099722 0.431819 0.361098
v 0.099902 0.432079 0.360881
v 0.100769 0.430655 0.360860
v 0.100786 0.430664 0.361048
v 0.099919 0.432088 0.361069
v 0.101025 0.430908 0.361015
v 0.100066 0.432410 0.360853
v 0.101008 0.430899 0.360827
v 0.101237 0.431168 0.360984
v 0.100083 0.432419 0.361041
v 0.101219 0.431159 0.360796
v 0.101420 0.431444 0.360956
v 0.100197 0.432803 0.360826
v 0.101402 0.431435 0.360768
v 0.101575 0.431737 0.360930
v 0.100215 0.432812 0.361014
v 0.101557 0.431728 0.360741
v 0.101702 0.432045 0.360906
v 0.100296 0.433256 0.360801
v 0.101684 0.432036 0.360717
v 0.101806 0.432377 0.360883
v 0.100313 0.433265 0.360989
v 0.101788 0.432368 0.360695
v 0.101892 0.432741 0.360862
v 0.100362 0.433771 0.360777
v 0.101874 0.432732 0.360674
v 0.101960 0.433135 0.360841
v 0.100379 0.433780 0.360965
v 0.101942 0.433126 0.360653
v 0.100395 0.434347 0.360755
v 0.101992 0.433551 0.360634
v 0.102010 0.433560 0.360822
v 0.100412 0.434356 0.360943
v 0.100395 0.434984 0.360735
v 0.102024 0.434008 0.360616
v 0.102042 0.434017 0.360804
v 0.100413 0.434993 0.360923
v 0.100224 0.442149 0.360621
v 0.102039 0.434496 0.360600
v 0.102056 0.434505 0.360788
v 0.100242 0.442158 0.360810
v 0.102052 0.435023 0.360773
v 0.101881 0.442191 0.360675
v 0.101864 0.442182 0.360487
v 0.102035 0.435014 0.360585
vn 0.08327747198201943 0.02767599038053337 0.9961420090613289
vn 0.08852803876050963 0.029916001721576418 0.9956243363810531
vn 0.08727465775154024 0.026846989970637815 0.995822460704652
vn -0.9953753628020514 -0.021405001578469064 0.09364674598783634
vn -0.9951194869549088 -0.029879003684365208 0.09404494575163964
vn 0.09125578418586186 0.032312012934824705 0.9953031275308659
vn -0.023508524982395865 0.9987077842287073 -0.045056752813958344
vn 0.09136637550457892 0.03597998854546684 0.9951671346318789
vn 0.9951719688820766 0.028035996307981915 -0.0940570851259478
vn 0.9953578034701139 0.021565996121140258 -0.09379632659359799
vn -0.993778829202446 -0.05767598655867055 0.09527391670074231
vn 0.09141414061945669 0.03539601518092963 0.9951836900814429
vn 0.09148652691322358 0.036499999049084006 0.9951371591206777
vn 0.9942277268824216 0.049941019788783396 -0.0949585258977287
vn -0.9903639576902773 -0.09893801924235829 0.09690459048182255
vn 0.09170259405980184 0.03756500196115632 0.9950776376094287
vn 0.9918357159546439 0.08354898986128888 -0.09634043206202153
vn -0.9844050175125169 -0.14574107722399077 0.09852055575245193
vn 0.09187748286580681 0.03848498223962759 0.9950263485376953
vn 0.9875165492084937 0.12341693500483315 -0.0978740271643155
vn -0.9748898911596754 -0.19888891194772146 0.10016436900878323
vn 0.09194652885215639 0.0394990192705692 0.9949802326220873
vn 0.9802093926656821 0.17118502623641824 -0.09942451067222616
vn 0.09207665396322802 0.03932400139613992 0.9949751317038693
vn -0.9604381032154332 -0.25924899532042595 0.10172810976957493
vn 0.09209716395295095 0.03995798524773455 0.9949479744221629
vn 0.9681874704845034 0.22894401287375105 -0.10098346877624316
vn 0.09227196312569912 0.03985500230340021 0.994935909298848
vn -0.9392467310134528 -0.3274127741026166 0.1030361763409897
vn 0.09215759611137021 0.04071901140415497 0.9949115234980656
vn 0.948576008807846 0.2994858933174535 -0.10252685120505918
vn 0.09236140243344186 0.04056400169099179 0.9948989562298982
vn -0.9087461200739352 -0.404204969291337 0.10391742900379335
vn 0.09220678496939334 0.041340011879261035 0.9948813558527623
vn 0.9182645857452315 0.38216385055409113 -0.10363851550369045
vn 0.092468191296454 0.04110200273038579 0.9948669554115834
vn -0.8672082301648052 -0.4869750634913259 0.1039479344289507
vn 0.09222517651918705 0.04192201865762934 0.9948552965972861
vn 0.877314318640644 0.4685389741924055 -0.103878852375404
vn 0.09262905597026698 0.04175602238705917 0.9948247547103302
vn -0.8151833187276705 -0.5699982046063072 0.10285039432947114
vn 0.09229168962710525 0.04259800180051129 0.994820413073826
vn 0.8269195151717386 0.5527659947727683 -0.10321758789570969
vn 0.0918952560114149 0.042811027474884945 0.994847967203603
vn 0.09275108993580373 0.04238099738598276 0.9947869552704689
vn -0.7538177842738301 -0.6493079955321117 0.1007862840398657
vn 0.09228760159692848 0.04307600087562763 0.9948002094591906
vn 0.7671028595048304 0.6334371614140617 -0.10154095468926999
vn -0.6846863399048955 -0.7222450042908577 0.09780986516981285
vn 0.09280125604265295 0.04283900285800439 0.9947626584824332
vn -0.6099547688389368 -0.7868532529540836 0.09389961813668933
vn 0.0923290133116952 0.043455024188681246 0.9947798822722793
vn 0.6993463986011423 0.7079261389924619 -0.09876839825995758
vn 0.0928269553135767 0.04327198257374888 0.9947415201404576
vn 0.6256581954013588 0.7742760096010227 -0.09512351698414155
vn -0.5322048421946162 -0.8418986375484022 0.08924511212804666
vn 0.0923658910272325 0.043804008721444916 0.994761152737016
vn 0.09284201686808152 0.0436690101921082 0.9947227641170722
vn 0.5487900908230147 0.8310378786547665 -0.09058410707984507
vn -0.45253753682199305 -0.8877732244797025 0.08407425089761279
vn 0.0925902540787398 0.04421900281714876 0.9947219333258372
vn 0.09292601103006268 0.044196004204432586 0.9946916455296095
vn 0.4709024109610829 0.8780500618599463 -0.08531710390527938
vn -0.3715627634946775 -0.9250863135946001 0.07846289049067456
vn 0.09256651895718908 0.04479099215185762 0.9946985506122951
vn 0.3926701825026858 0.9162012743281104 -0.07990840189150206
vn -0.29245777620395647 -0.9535384132760338 0.07233908725481755
vn -0.2179310231764591 -0.9737117467395551 0.06626841931618875
vn -0.1488071732294169 -0.986999150591407 0.060737977636002805
vn 0.3148820747981356 0.9462142936727909 -0.07434910503914856
vn 0.23905315942015234 0.9685972516793739 -0.0683589863178691
vn -0.08564208440146663 -0.9947891765382874 0.05531661252868154
vn 0.1666367955203312 0.98405115733946 -0.06225349883809277
vn -0.028410555212116047 -0.9983419611265615 0.05006165205534572
vn 0.09841395490396562 0.9935489608591395 -0.05634852132828644
vn 0.02545444302397206 -0.9986557924868379 0.04515173820380912
vn 0.03504358989765205 0.99810543191924 -0.05057166776360658
vn 0.08259534397971893 -0.9957886700778419 0.03978609929956378
vn -0.026524268372560025 0.998645108066389 -0.044770652467557265
vn -0.09577085274594492 0.9946727582124885 -0.03813197915496474
vn 0.14673628023508775 -0.9886124081576143 0.033376196601352284
vn -0.17834099970219247 0.9835111597876287 -0.030004772927250782
vn 0.21721054090292324 -0.9757803543400634 0.0259283822218066
vn 0.09222088406395426 0.0444320021558188 0.9947467545696685
vn -0.2743277780384267 0.9614256880803882 -0.02012253700833696
vn 0.2938053662595975 -0.9557018256169265 0.017675612281826868
vn 0.09258874938830512 0.04440000274338768 0.9947140107805343
vn -0.3834355966112391 0.9235313624856689 -0.0081832607649288
vn 0.3758329444336189 -0.9266459918195692 0.00876377333591537
vn 0.09226501491525384 0.04397100887313086 0.9947631463827795
vn 0.09279072662590339 0.043917011671957704 0.9947166315780801
vn -0.5030171219515422 0.86425780333427 0.005676653892010663
vn 0.4614877613606865 -0.8871461149005107 -0.0009038424818151167
vn 0.09222894929241533 0.04325301170087141 0.9947979683791184
vn 0.09345373689372205 0.04390899343775772 0.9946549147095599
vn -0.6264741855897827 0.7791511985328151 0.02129564778296955
vn 0.5429066830777777 -0.8397265349201065 -0.010567876823501588
vn 0.0928588343744024 0.04319697838071709 0.9947418046595826
vn 0.09217094410989098 0.04238200746616364 0.9948408327491536
vn -0.7480241465969638 0.6625571429434061 0.03844357478896885
vn 0.6137767315167706 -0.789239048591082 -0.019489690290870946
vn 0.09276279995923642 0.04246999159363956 0.9947820679715528
vn 0.09214252608331937 0.04137599449744844 0.9948858135315489
vn -0.8511947483468992 0.5219900473390184 0.054716458818790684
vn 0.6791762424202045 -0.7334300909772411 -0.028283093555828694
vn 0.0934128955454036 0.04260801532107833 0.9947153301202422
vn 0.09269904302188504 0.041347994578182765 0.9948352782080003
vn 0.09236847427634014 0.04029701863830247 0.9949091492436509
vn -0.9202611047334646 0.38545596692614487 0.06740323935668054
vn 0.7427799125490966 -0.6684933938971469 -0.03734412710762626
vn 0.09306075819345086 0.041379007489808134 0.9948002176435319
vn 0.8023605735423964 -0.5950321526266591 -0.04641387039669358
vn 0.09274169086900047 0.04041698319442001 0.9948695624272665
vn 0.09232517143642853 0.03857101556732309 0.9949815774562559
vn -0.9600473615066264 0.2691650561351857 0.07654564794883761
vn 0.8557676406818514 -0.5144021954746717 -0.055246053729254306
vn 0.09242358181908628 0.039454996986684115 0.9949377793291959
vn 0.9012912806880422 -0.42852510325892107 -0.06356306500350391
vn 0.0921104495801769 0.0367960057629727 0.9950687006624362
vn -0.9813252877456545 0.1734829543145711 0.08309238348487075
vn 0.9364576821809989 -0.3435499139873083 -0.0708552473956894
vn 0.09216404652621821 0.03729999515212015 0.9950449732999835
vn 0.9602780909530378 -0.2683339902157379 -0.07656930018283693
vn 0.09205270756916675 0.03635100567473797 0.995090399619864
vn 0.09190096204401264 0.03499800534151869 0.9951529293518157
vn -0.9915452273626987 0.09557300406405096 0.08777165253330461
vn 0.9756384022590905 -0.20385589020069889 -0.08107085831425434
vn 0.9855043205361269 -0.14695404872725196 -0.08476875466405755
vn 0.09167508938348198 0.033403997070586715 0.9952285420777677
vn -0.9953212799957695 0.032050020093301684 0.09115012780902704
vn 0.9914316981817335 -0.09682298019185993 -0.08768408263334311
vn 0.0913769091409279 0.03162900865289162 0.9953139536284448
vn -0.9956080430643223 -0.00940399799175291 0.09314606490561915
vn 0.9945444341019408 -0.05266401511939327 -0.09004371220887492
vn 0.08859195729938621 0.023331003472843673 0.9957947225100231
vn -0.9953480369071687 -0.022282000839173567 0.09373258698899045
vn 0.9956628561023231 -0.013643999405012503 -0.09202889903938202
vn 0.09100034879668546 0.0298809988871422 0.9954024625368314
vn 0.09093697469318764 0.022435999258310968 0.9956038833647304
vn 0.08128637741230539 0.017792002961577215 0.9965319711267671
vn 0.08618026633655787 0.016780001362662233 0.9961382400291783
vn -0.023482268101065944 0.9986912383951173 -0.045435596591843666
vn 0.9955400222523572 0.013583003669055006 -0.0933571963219907
vn 0.9953391744406942 0.022477004563753924 -0.09378012630380819
vn -0.08727465775154024 -0.026846989970637815 -0.995822460704652
vn -0.08852803876050963 -0.029916001721576418 -0.9956243363810531
vn -0.08327747198201943 -0.02767599038053337 -0.9961420090613289
vn 0.9953753628020514 0.021405001578469064 -0.09364674598783634
vn 0.9951194869549088 0.029879003684365208 -0.09404494575163964
vn -0.09125578418586186 -0.032312012934824705 -0.9953031275308659
vn 0.023508524982395865 -0.9987077842287073 0.045056752813958344
vn -0.09136637550457892 -0.03597998854546684 -0.9951671346318789
vn -0.9953578034701139 -0.021565996121140258 0.09379632659359799
vn -0.9951719688820766 -0.028035996307981915 0.0940570851259478
vn 0.993778829202446 0.05767598655867055 -0.09527391670074231
vn -0.09141414061945669 -0.03539601518092963 -0.9951836900814429
vn -0.09148652691322358 -0.036499999049084006 -0.9951371591206777
vn -0.9942277268824216 -0.049941019788783396 0.0949585258977287
vn 0.9903639576902773 0.09893801924235829 -0.09690459048182255
vn -0.09170259405980184 -0.03756500196115632 -0.9950776376094287
vn -0.9918357159546439 -0.08354898986128888 0.09634043206202153
vn 0.9844050175125169 0.14574107722399077 -0.09852055575245193
vn -0.09187748286580681 -0.03848498223962759 -0.9950263485376953
vn -0.9875165492084937 -0.12341693500483315 0.0978740271643155
vn 0.9748898911596754 0.19888891194772146 -0.10016436900878323
vn -0.09194652885215639 -0.0394990192705692 -0.9949802326220873
vn -0.9802093926656821 -0.17118502623641824 0.09942451067222616
vn -0.09207665396322802 -0.03932400139613992 -0.9949751317038693
vn 0.9604381032154332 0.25924899532042595 -0.10172810976957493
vn -0.09209716395295095 -0.03995798524773455 -0.9949479744221629
vn -0.9681874704845034 -0.22894401287375105 0.10098346877624316
vn -0.09227196312569912 -0.03985500230340021 -0.994935909298848
vn 0.9392467310134528 0.3274127741026166 -0.1030361763409897
vn -0.09215759611137021 -0.04071901140415497 -0.9949115234980656
vn -0.948576008807846 -0.2994858933174535 0.10252685120505918
vn -0.09236140243344186 -0.04056400169099179 -0.9948989562298982
vn 0.9087461200739352 0.404204969291337 -0.10391742900379335
vn -0.09220678496939334 -0.041340011879261035 -0.9948813558527623
vn -0.9182645857452315 -0.38216385055409113 0.10363851550369045
vn -0.092468191296454 -0.04110200273038579 -0.9948669554115834
vn 0.8672082301648052 0.4869750634913259 -0.1039479344289507
vn -0.09222517651918705 -0.04192201865762934 -0.9948552965972861
vn -0.877314318640644 -0.4685389741924055 0.103878852375404
vn -0.09262905597026698 -0.04175602238705917 -0.9948247547103302
vn 0.8151833187276705 0.5699982046063072 -0.10285039432947114
vn -0.09229168962710525 -0.04259800180051129 -0.994820413073826
vn -0.8269195151717386 -0.5527659947727683 0.10321758789570969
vn -0.0918952560114149 -0.042811027474884945 -0.994847967203603
vn -0.09275108993580373 -0.04238099738598276 -0.9947869552704689
vn 0.7538177842738301 0.6493079955321117 -0.1007862840398657
vn -0.09228760159692848 -0.04307600087562763 -0.9948002094591906
vn -0.7671028595048304 -0.6334371614140617 0.10154095468926999
vn 0.6846863399048955 0.7222450042908577 -0.09780986516981285
vn -0.09280125604265295 -0.04283900285800439 -0.9947626584824332
vn 0.6099547688389368 0.7868532529540836 -0.09389961813668933
vn -0.0923290133116952 -0.043455024188681246 -0.9947798822722793
vn -0.6993463986011423 -0.7079261389924619 0.09876839825995758
vn -0.0928269553135767 -0.04327198257374888 -0.9947415201404576
vn -0.6256581954013588 -0.7742760096010227 0.09512351698414155
vn 0.5322048421946162 0.8418986375484022 -0.08924511212804666
vn -0.0923658910272325 -0.043804008721444916 -0.994761152737016
vn -0.09284201686808152 -0.0436690101921082 -0.9947227641170722
vn -0.5487900908230147 -0.8310378786547665 0.09058410707984507
vn 0.45253753682199305 0.8877732244797025 -0.08407425089761279
vn -0.0925902540787398 -0.04421900281714876 -0.9947219333258372
vn -0.09292601103006268 -0.044196004204432586 -0.9946916455296095
vn -0.4709024109610829 -0.8780500618599463 0.08531710390527938
vn 0.3715627634946775 0.9250863135946001 -0.07846289049067456
vn -0.09256651895718908 -0.04479099215185762 -0.9946985506122951
vn -0.3926701825026858 -0.9162012743281104 0.07990840189150206
vn 0.29245777620395647 0.9535384132760338 -0.07233908725481755
vn 0.2179310231764591 0.9737117467395551 -0.06626841931618875
vn 0.1488071732294169 0.986999150591407 -0.060737977636002805
vn -0.3148820747981356 -0.9462142936727909 0.07434910503914856
vn -0.23905315942015234 -0.9685972516793739 0.0683589863178691
vn 0.08564208440146663 0.9947891765382874 -0.05531661252868154
vn -0.1666367955203312 -0.98405115733946 0.06225349883809277
vn 0.028410555212116047 0.9983419611265615 -0.05006165205534572
vn -0.09841395490396562 -0.9935489608591395 0.05634852132828644
vn -0.02545444302397206 0.9986557924868379 -0.04515173820380912
vn -0.03504358989765205 -0.99810543191924 0.05057166776360658
vn -0.08259534397971893 0.9957886700778419 -0.03978609929956378
vn 0.026524268372560025 -0.998645108066389 0.044770652467557265
vn 0.09577085274594492 -0.9946727582124885 0.03813197915496474
vn -0.14673628023508775 0.9886124081576143 -0.033376196601352284
vn 0.17834099970219247 -0.9835111597876287 0.030004772927250782
vn -0.21721054090292324 0.9757803543400634 -0.0259283822218066
vn -0.09222088406395426 -0.0444320021558188 -0.9947467545696685
vn 0.2743277780384267 -0.9614256880803882 0.02012253700833696
vn -0.2938053662595975 0.9557018256169265 -0.017675612281826868
vn -0.09258874938830512 -0.04440000274338768 -0.9947140107805343
vn 0.3834355966112391 -0.9235313624856689 0.0081832607649288
vn -0.3758329444336189 0.9266459918195692 -0.00876377333591537
vn -0.09226501491525384 -0.04397100887313086 -0.9947631463827795
vn -0.09279072662590339 -0.043917011671957704 -0.9947166315780801
vn 0.5030171219515422 -0.86425780333427 -0.005676653892010663
vn -0.4614877613606865 0.8871461149005107 0.0009038424818151167
vn -0.09222894929241533 -0.04325301170087141 -0.9947979683791184
vn -0.09345373689372205 -0.04390899343775772 -0.9946549147095599
vn 0.6264741855897827 -0.7791511985328151 -0.02129564778296955
vn -0.5429066830777777 0.8397265349201065 0.010567876823501588
vn -0.0928588343744024 -0.04319697838071709 -0.9947418046595826
vn -0.09217094410989098 -0.04238200746616364 -0.9948408327491536
vn 0.7480241465969638 -0.6625571429434061 -0.03844357478896885
vn -0.6137767315167706 0.789239048591082 0.019489690290870946
vn -0.09276279995923642 -0.04246999159363956 -0.9947820679715528
vn -0.09214252608331937 -0.04137599449744844 -0.9948858135315489
vn 0.8511947483468992 -0.5219900473390184 -0.054716458818790684
vn -0.6791762424202045 0.7334300909772411 0.028283093555828694
vn -0.0934128955454036 -0.04260801532107833 -0.9947153301202422
vn -0.09269904302188504 -0.041347994578182765 -0.9948352782080003
vn -0.09236847427634014 -0.04029701863830247 -0.9949091492436509
vn 0.9202611047334646 -0.38545596692614487 -0.06740323935668054
vn -0.7427799125490966 0.6684933938971469 0.03734412710762626
vn -0.09306075819345086 -0.041379007489808134 -0.9948002176435319
vn -0.8023605735423964 0.5950321526266591 0.04641387039669358
vn -0.09274169086900047 -0.04041698319442001 -0.9948695624272665
vn -0.09232517143642853 -0.03857101556732309 -0.9949815774562559
vn 0.9600473615066264 -0.2691650561351857 -0.07654564794883761
vn -0.8557676406818514 0.5144021954746717 0.055246053729254306
vn -0.09242358181908628 -0.039454996986684115 -0.9949377793291959
vn -0.9012912806880422 0.42852510325892107 0.06356306500350391
vn -0.0921104495801769 -0.0367960057629727 -0.9950687006624362
vn 0.9813252877456545 -0.1734829543145711 -0.08309238348487075
vn -0.9364576821809989 0.3435499139873083 0.0708552473956894
vn -0.09216404652621821 -0.03729999515212015 -0.9950449732999835
vn -0.9602780909530378 0.2683339902157379 0.07656930018283693
vn -0.09205270756916675 -0.03635100567473797 -0.995090399619864
vn -0.09190096204401264 -0.03499800534151869 -0.9951529293518157
vn 0.9915452273626987 -0.09557300406405096 -0.08777165253330461
vn -0.9756384022590905 0.20385589020069889 0.08107085831425434
vn -0.9855043205361269 0.14695404872725196 0.08476875466405755
vn -0.09167508938348198 -0.033403997070586715 -0.9952285420777677
vn 0.9953212799957695 -0.032050020093301684 -0.09115012780902704
vn -0.9914316981817335 0.09682298019185993 0.08768408263334311
vn -0.0913769091409279 -0.03162900865289162 -0.9953139536284448
vn 0.9956080430643223 0.00940399799175291 -0.09314606490561915
vn -0.9945444341019408 0.05266401511939327 0.09004371220887492
vn -0.08859195729938621 -0.023331003472843673 -0.9957947225100231
vn 0.9953480369071687 0.022282000839173567 -0.09373258698899045
vn -0.9956628561023231 0.013643999405012503 0.09202889903938202
vn -0.09100034879668546 -0.0298809988871422 -0.9954024625368314
vn -0.09093697469318764 -0.022435999258310968 -0.9956038833647304
vn -0.08618026633655787 -0.016780001362662233 -0.9961382400291783
vn -0.08128637741230539 -0.017792002961577215 -0.9965319711267671
vn 0.023482268101065944 -0.9986912383951173 0.045435596591843666
vn -0.9955400222523572 -0.013583003669055006 0.0933571963219907
vn -0.9953391744406942 -0.022477004563753924 0.09378012630380819
usemtl material_0_0
f 1//1 2//2 3//3
f 4//4 2//5 1//4
f 2//2 5//6 3//3
f 6//7 1//7 3//7
f 2//5 4//4 7//5
f 1//7 6//7 4//7
f 2//2 8//8 5//6
f 5//9 6//10 3//10
f 7//5 8//11 2//5
f 8//8 9//12 5//6
f 6//10 5//9 10//9
f 8//11 7//5 11//11
f 8//8 12//13 9//12
f 9//14 10//9 5//9
f 11//11 13//15 8//11
f 13//16 12//13 8//8
f 12//17 14//14 9//14
f 10//9 9//14 14//14
f 13//15 11//11 15//15
f 12//13 13//16 16//16
f 14//14 12//17 17//17
f 15//15 18//18 13//15
f 18//19 16//16 13//16
f 16//20 17//17 12//17
f 18//18 15//15 19//18
f 16//16 18//19 20//19
f 17//17 16//20 21//20
f 19//18 22//21 18//18
f 22//22 20//19 18//19
f 20//23 21//20 16//20
f 22//21 19//18 23//21
f 20//19 22//22 24//24
f 21//20 20//23 25//23
f 23//21 26//25 22//21
f 22//22 26//26 24//24
f 24//27 25//23 20//23
f 26//25 23//21 27//25
f 26//26 28//28 24//24
f 25//23 24//27 29//27
f 27//25 30//29 26//25
f 26//26 30//30 28//28
f 28//31 29//27 24//27
f 30//29 27//25 31//29
f 30//30 32//32 28//28
f 29//27 28//31 33//31
f 31//29 34//33 30//29
f 30//30 34//34 32//32
f 32//35 33//31 28//31
f 34//33 31//29 35//33
f 34//34 36//36 32//32
f 33//31 32//35 37//35
f 35//33 38//37 34//33
f 34//34 38//38 36//36
f 36//39 37//35 32//35
f 38//37 35//33 39//37
f 38//38 40//40 36//36
f 37//35 36//39 41//39
f 39//37 42//41 38//37
f 38//38 43//42 40//40
f 40//43 41//39 36//39
f 42//41 39//37 44//41
f 43//42 38//38 42//44
f 43//42 45//45 40//40
f 41//39 40//43 46//43
f 44//41 43//46 42//41
f 43//42 47//47 45//45
f 45//48 46//43 40//43
f 43//46 44//41 48//46
f 43//46 49//49 47//49
f 47//47 50//50 45//45
f 46//43 45//48 51//48
f 49//49 43//46 48//46
f 52//51 47//49 49//49
f 47//47 53//52 50//50
f 54//53 45//48 50//53
f 45//48 54//53 51//48
f 47//49 52//51 53//51
f 53//52 55//54 50//50
f 50//53 56//55 54//53
f 57//56 53//51 52//51
f 53//52 58//57 55//54
f 56//55 50//53 55//55
f 53//51 57//56 58//56
f 58//57 59//58 55//54
f 55//55 60//59 56//55
f 61//60 58//56 57//56
f 58//57 62//61 59//58
f 60//59 55//55 59//59
f 58//56 61//60 62//60
f 62//61 63//62 59//58
f 59//59 64//63 60//59
f 65//64 62//60 61//60
f 66//65 63//62 62//61
f 64//63 59//59 63//63
f 62//60 65//64 67//64
f 68//65 63//62 66//65
f 66//65 62//61 67//65
f 63//63 69//66 64//63
f 70//67 67//64 65//64
f 68//65 71//65 63//62
f 66//67 72//68 68//68
f 67//64 70//67 66//67
f 69//66 63//63 71//66
f 68//65 73//65 71//65
f 72//68 66//67 70//67
f 74//69 68//68 72//68
f 71//66 75//70 69//66
f 76//65 73//65 68//65
f 75//70 71//66 73//70
f 68//68 74//69 76//69
f 76//65 77//65 73//65
f 73//70 78//71 75//70
f 79//72 76//69 74//69
f 76//65 80//65 77//65
f 78//71 73//70 77//71
f 76//69 79//72 81//72
f 81//65 80//65 76//65
f 82//73 77//71 80//73
f 77//71 82//73 78//71
f 83//74 81//72 79//72
f 81//65 84//65 80//65
f 80//73 85//75 82//73
f 81//72 83//74 86//74
f 86//65 84//65 81//65
f 85//75 80//73 84//75
f 87//76 86//74 83//74
f 86//65 88//65 84//65
f 84//75 89//77 85//75
f 86//74 87//76 90//76
f 86//65 91//65 88//65
f 89//77 84//75 88//77
f 92//78 90//76 87//76
f 90//65 91//65 86//65
f 93//79 88//77 91//79
f 88//77 93//79 89//77
f 90//76 92//78 94//78
f 90//65 95//65 91//65
f 91//79 96//80 93//79
f 97//81 94//78 92//78
f 94//65 95//65 90//65
f 96//80 91//79 95//80
f 94//78 97//81 98//81
f 94//65 99//65 95//65
f 95//80 100//82 96//80
f 101//83 98//81 97//81
f 98//65 99//65 94//65
f 100//82 95//80 99//82
f 98//81 101//83 102//83
f 98//65 103//84 99//65
f 99//82 104//85 100//82
f 105//86 102//83 101//83
f 102//65 103//84 98//65
f 104//85 99//82 103//85
f 102//83 105//86 106//86
f 103//84 102//65 106//87
f 103//85 107//88 104//85
f 108//89 106//86 105//86
f 103//84 106//87 109//90
f 107//88 103//85 109//88
f 106//86 108//89 110//89
f 109//90 106//87 110//91
f 109//88 111//92 107//88
f 112//93 110//89 108//89
f 109//90 110//91 113//94
f 111//92 109//88 113//92
f 110//89 112//93 114//93
f 114//95 113//94 110//91
f 113//92 115//96 111//92
f 116//97 114//93 112//93
f 113//94 114//95 117//98
f 115//96 113//92 118//96
f 114//93 116//97 117//97
f 113//94 117//98 118//99
f 118//96 119//100 115//96
f 120//101 117//97 116//97
f 118//99 117//98 121//102
f 119//100 118//96 122//100
f 117//97 120//101 121//101
f 118//99 121//102 122//103
f 122//100 123//104 119//100
f 124//105 121//101 120//101
f 125//106 122//103 121//102
f 123//104 122//100 126//104
f 121//101 124//105 125//105
f 122//103 125//106 127//107
f 122//103 127//107 126//108
f 126//104 128//109 123//104
f 129//110 125//105 124//105
f 125//105 129//110 127//110
f 130//111 126//108 127//107
f 128//109 126//104 131//109
f 132//112 127//110 129//110
f 126//108 130//111 133//113
f 127//110 132//112 130//112
f 133//113 131//114 126//108
f 131//109 134//115 128//109
f 130//112 135//116 133//116
f 135//116 130//112 132//112
f 136//117 131//114 133//113
f 134//115 131//109 137//115
f 138//118 133//116 135//116
f 131//114 136//117 139//114
f 133//116 138//118 136//118
f 139//114 137//119 131//114
f 137//115 140//120 134//115
f 136//118 141//121 139//121
f 141//121 136//118 138//118
f 137//119 139//114 142//122
f 140//120 137//115 143//120
f 144//123 139//121 141//121
f 139//121 144//123 142//123
f 137//119 142//122 145//124
f 145//124 143//125 137//119
f 143//120 146//126 140//120
f 147//127 142//123 144//123
f 142//123 147//127 145//127
f 143//125 145//124 148//125
f 146//126 143//120 149//126
f 150//128 145//127 147//127
f 145//127 150//128 148//128
f 148//125 149//129 143//125
f 149//126 151//130 146//126
f 152//131 148//128 150//128
f 149//129 148//125 153//129
f 151//130 149//126 154//130
f 148//128 152//131 153//131
f 153//129 154//132 149//129
f 154//130 155//133 151//130
f 156//134 153//131 152//131
f 154//132 153//129 157//132
f 155//133 154//130 158//133
f 153//131 156//134 157//134
f 157//132 158//135 154//132
f 158//133 159//136 155//133
f 160//137 157//134 156//134
f 158//135 157//132 161//138
f 159//136 158//133 162//136
f 157//134 160//137 161//137
f 158//135 161//138 163//139
f 162//140 158//135 164//141
f 162//142 165//142 159//142
f 166//143 161//137 160//137
f 161//137 166//143 163//143
f 158//135 163//139 164//141
f 165//142 162//142 164//142
f 165//144 163//143 166//143
f 163//143 165//144 164//144
usemtl material_1_0
f 3//145 2//146 1//147
f 1//148 2//149 4//148
f 3//145 5//150 2//146
f 3//151 1//151 6//151
f 7//149 4//148 2//149
f 4//151 6//151 1//151
f 5//150 8//152 2//146
f 3//153 6//153 5//154
f 2//149 8//155 7//149
f 5//150 9//156 8//152
f 10//154 5//154 6//153
f 11//155 7//149 8//155
f 9//156 12//157 8//152
f 5//154 10//154 9//158
f 8//155 13//159 11//155
f 8//152 12//157 13//160
f 9//158 14//158 12//161
f 14//158 9//158 10//154
f 15//159 11//155 13//159
f 16//160 13//160 12//157
f 17//161 12//161 14//158
f 13//159 18//162 15//159
f 13//160 16//160 18//163
f 12//161 17//161 16//164
f 19//162 15//159 18//162
f 20//163 18//163 16//160
f 21//164 16//164 17//161
f 18//162 22//165 19//162
f 18//163 20//163 22//166
f 16//164 21//164 20//167
f 23//165 19//162 22//165
f 24//168 22//166 20//163
f 25//167 20//167 21//164
f 22//165 26//169 23//165
f 24//168 26//170 22//166
f 20//167 25//167 24//171
f 27//169 23//165 26//169
f 24//168 28//172 26//170
f 29//171 24//171 25//167
f 26//169 30//173 27//169
f 28//172 30//174 26//170
f 24//171 29//171 28//175
f 31//173 27//169 30//173
f 28//172 32//176 30//174
f 33//175 28//175 29//171
f 30//173 34//177 31//173
f 32//176 34//178 30//174
f 28//175 33//175 32//179
f 35//177 31//173 34//177
f 32//176 36//180 34//178
f 37//179 32//179 33//175
f 34//177 38//181 35//177
f 36//180 38//182 34//178
f 32//179 37//179 36//183
f 39//181 35//177 38//181
f 36//180 40//184 38//182
f 41//183 36//183 37//179
f 38//181 42//185 39//181
f 40//184 43//186 38//182
f 36//183 41//183 40//187
f 44//185 39//181 42//185
f 42//188 38//182 43//186
f 40//184 45//189 43//186
f 46//187 40//187 41//183
f 42//185 43//190 44//185
f 45//189 47//191 43//186
f 40//187 46//187 45//192
f 48//190 44//185 43//190
f 47//193 49//193 43//190
f 45//189 50//194 47//191
f 51//192 45//192 46//187
f 48//190 43//190 49//193
f 49//193 47//193 52//195
f 50//194 53//196 47//191
f 50//197 45//192 54//197
f 51//192 54//197 45//192
f 53//195 52//195 47//193
f 50//194 55//198 53//196
f 54//197 56//199 50//197
f 52//195 53//195 57//200
f 55//198 58//201 53//196
f 55//199 50//197 56//199
f 58//200 57//200 53//195
f 55//198 59//202 58//201
f 56//199 60//203 55//199
f 57//200 58//200 61//204
f 59//202 62//205 58//201
f 59//203 55//199 60//203
f 62//204 61//204 58//200
f 59//202 63//206 62//205
f 60//203 64//207 59//203
f 61//204 62//204 65//208
f 62//205 63//206 66//209
f 63//207 59//203 64//207
f 67//208 65//208 62//204
f 66//209 63//206 68//209
f 67//209 62//205 66//209
f 64//207 69//210 63//207
f 65//208 67//208 70//211
f 63//206 71//209 68//209
f 68//212 72//212 66//211
f 66//211 70//211 67//208
f 71//210 63//207 69//210
f 71//209 73//209 68//209
f 70//211 66//211 72//212
f 72//212 68//212 74//213
f 69//210 75//214 71//210
f 68//209 73//209 76//209
f 73//214 71//210 75//214
f 76//213 74//213 68//212
f 73//209 77//209 76//209
f 75//214 78//215 73//214
f 74//213 76//213 79//216
f 77//209 80//209 76//209
f 77//215 73//214 78//215
f 81//216 79//216 76//213
f 76//209 80//209 81//209
f 80//217 77//215 82//217
f 78//215 82//217 77//215
f 79//216 81//216 83//218
f 80//209 84//209 81//209
f 82//217 85//219 80//217
f 86//218 83//218 81//216
f 81//209 84//209 86//209
f 84//219 80//217 85//219
f 83//218 86//218 87//220
f 84//209 88//209 86//209
f 85//219 89//221 84//219
f 90//220 87//220 86//218
f 88//209 91//209 86//209
f 88//221 84//219 89//221
f 87//220 90//220 92//222
f 86//209 91//209 90//209
f 91//223 88//221 93//223
f 89//221 93//223 88//221
f 94//222 92//222 90//220
f 91//209 95//209 90//209
f 93//223 96//224 91//223
f 92//222 94//222 97//225
f 90//209 95//209 94//209
f 95//224 91//223 96//224
f 98//225 97//225 94//222
f 95//209 99//209 94//209
f 96//224 100//226 95//224
f 97//225 98//225 101//227
f 94//209 99//209 98//209
f 99//226 95//224 100//226
f 102//227 101//227 98//225
f 99//209 103//228 98//209
f 100//226 104//229 99//226
f 101//227 102//227 105//230
f 98//209 103//228 102//209
f 103//229 99//226 104//229
f 106//230 105//230 102//227
f 106//231 102//209 103//228
f 104//229 107//232 103//229
f 105//230 106//230 108//233
f 109//234 106//231 103//228
f 109//232 103//229 107//232
f 110//233 108//233 106//230
f 110//235 106//231 109//234
f 107//232 111//236 109//232
f 108//233 110//233 112//237
f 113//238 110//235 109//234
f 113//236 109//232 111//236
f 114//237 112//237 110//233
f 110//235 113//238 114//239
f 111//236 115//240 113//236
f 112//237 114//237 116//241
f 117//242 114//239 113//238
f 118//240 113//236 115//240
f 117//241 116//241 114//237
f 118//243 117//242 113//238
f 115//240 119//244 118//240
f 116//241 117//241 120//245
f 121//246 117//242 118//243
f 122//244 118//240 119//244
f 121//245 120//245 117//241
f 122//247 121//246 118//243
f 119//244 123//248 122//244
f 120//245 121//245 124//249
f 121//246 122//247 125//250
f 126//248 122//244 123//248
f 125//249 124//249 121//245
f 127//251 125//250 122//247
f 126//252 127//251 122//247
f 123//248 128//253 126//248
f 124//249 125//249 129//254
f 127//254 129//254 125//249
f 127//251 126//252 130//255
f 131//253 126//248 128//253
f 129//254 127//254 132//256
f 133//257 130//255 126//252
f 130//256 132//256 127//254
f 126//252 131//258 133//257
f 128//253 134//259 131//253
f 133//260 135//260 130//256
f 132//256 130//256 135//260
f 133//257 131//258 136//261
f 137//259 131//253 134//259
f 135//260 133//260 138//262
f 139//258 136//261 131//258
f 136//262 138//262 133//260
f 131//258 137//263 139//258
f 134//259 140//264 137//259
f 139//265 141//265 136//262
f 138//262 136//262 141//265
f 142//266 139//258 137//263
f 143//264 137//259 140//264
f 141//265 139//265 144//267
f 142//267 144//267 139//265
f 145//268 142//266 137//263
f 137//263 143//269 145//268
f 140//264 146//270 143//264
f 144//267 142//267 147//271
f 145//271 147//271 142//267
f 148//269 145//268 143//269
f 149//270 143//264 146//270
f 147//271 145//271 150//272
f 148//272 150//272 145//271
f 143//269 149//273 148//269
f 146//270 151//274 149//270
f 150//272 148//272 152//275
f 153//273 148//269 149//273
f 154//274 149//270 151//274
f 153//275 152//275 148//272
f 149//273 154//276 153//273
f 151//274 155//277 154//274
f 152//275 153//275 156//278
f 157//276 153//273 154//276
f 158//277 154//274 155//277
f 157//278 156//278 153//275
f 154//276 158//279 157//276
f 155//277 159//280 158//277
f 156//278 157//278 160//281
f 161//282 157//276 158//279
f 162//280 158//277 159//280
f 161//281 160//281 157//278
f 163//283 161//282 158//279
f 164//284 158//279 162//285
f 159//286 165//286 162//286
f 160//281 161//281 166//287
f 163//287 166//287 161//281
f 164//284 163//283 158//279
f 164//286 162//286 165//286
f 166//287 163//287 165//288
f 164//288 165//288 163//287
