# SSTK version 0.8.0
# 17
mtllib original-17.mtl
o mesh12/mesh12-geometry#mesh12-geometry
v -0.078605 0.579998 0.360147
v -0.078981 0.580476 0.360789
v -0.078629 0.580015 0.360813
v -0.078958 0.580460 0.360123
v -0.078757 0.579798 0.360814
v -0.078733 0.579781 0.360147
v -0.079325 0.580930 0.360766
v -0.079017 0.579641 0.360809
v -0.078993 0.579624 0.360142
v -0.079302 0.580913 0.360099
v -0.079630 0.581352 0.360077
v -0.079331 0.579609 0.360798
v -0.079308 0.579592 0.360132
v -0.079654 0.581369 0.360743
v -0.079935 0.581771 0.360055
v -0.079661 0.580055 0.360108
v -0.079685 0.580071 0.360774
v -0.079959 0.581788 0.360722
v -0.080209 0.582163 0.360036
v -0.080008 0.580511 0.360084
v -0.080032 0.580528 0.360751
v -0.080233 0.582180 0.360703
v -0.080445 0.582520 0.360019
v -0.080340 0.580956 0.360061
v -0.080364 0.580973 0.360728
v -0.080468 0.582536 0.360686
v -0.080626 0.582818 0.360005
v -0.080652 0.581384 0.360039
v -0.080676 0.581401 0.360706
v -0.080649 0.582834 0.360672
v -0.080783 0.583152 0.359991
v -0.080936 0.581790 0.360019
v -0.080807 0.583168 0.360658
v -0.080959 0.581806 0.360686
v -0.080863 0.583451 0.359981
v -0.081184 0.582167 0.360001
v -0.080887 0.583467 0.360648
v -0.080878 0.583716 0.359974
v -0.081208 0.582183 0.360668
v -0.081198 0.584811 0.359935
v -0.080902 0.583733 0.360641
v -0.081222 0.584827 0.360602
v -0.081391 0.582509 0.359985
v -0.081474 0.584499 0.359933
v -0.080837 0.583942 0.359970
v -0.081498 0.584516 0.360600
v -0.081415 0.582526 0.360652
v -0.080860 0.583958 0.360636
v -0.080813 0.585070 0.359943
v -0.081587 0.582931 0.359968
v -0.081671 0.584162 0.360603
v -0.080836 0.585086 0.360609
v -0.080746 0.584130 0.359968
v -0.081611 0.582947 0.360635
v -0.081647 0.584145 0.359936
v -0.080770 0.584146 0.360635
v -0.080601 0.584293 0.359969
v -0.081699 0.583351 0.359954
v -0.081744 0.583775 0.360610
v -0.081722 0.583367 0.360620
v -0.080625 0.584309 0.360636
v -0.079341 0.585833 0.359976
v -0.080338 0.584464 0.359974
v -0.081720 0.583759 0.359943
v -0.080362 0.584480 0.360641
v -0.079364 0.585849 0.360643
v -0.078934 0.586089 0.359984
v -0.078958 0.586106 0.360651
v -0.078876 0.585221 0.360008
v -0.078900 0.585238 0.360675
v -0.078613 0.586385 0.359988
v -0.078636 0.586402 0.360655
v -0.078378 0.585539 0.360018
v -0.078401 0.585555 0.360684
v -0.078378 0.586707 0.359989
v -0.078402 0.586724 0.360655
v -0.077947 0.585936 0.360023
v -0.078234 0.587041 0.359986
v -0.078257 0.587058 0.360652
v -0.077970 0.585952 0.360690
v -0.078181 0.587375 0.359979
v -0.078205 0.587391 0.360646
v -0.077623 0.586381 0.360024
v -0.078223 0.587693 0.359970
v -0.077647 0.586397 0.360690
v -0.078465 0.589470 0.359917
v -0.078247 0.587710 0.360637
v -0.077416 0.586862 0.360019
v -0.078488 0.589486 0.360584
v -0.077616 0.588326 0.359976
v -0.078362 0.587984 0.359958
v -0.077439 0.586878 0.360686
v -0.077639 0.588343 0.360643
v -0.078386 0.588001 0.360624
v -0.079173 0.589071 0.359902
v -0.077337 0.587367 0.360009
v -0.077406 0.587878 0.359994
v -0.077430 0.587895 0.360661
v -0.079196 0.589087 0.360569
v -0.078807 0.589447 0.359906
v -0.077361 0.587384 0.360676
v -0.078831 0.589463 0.360572
v -0.079061 0.589290 0.359901
v -0.079085 0.589306 0.360567
vn 0.7939756763030241 0.6078060714570288 0.01320624621641773
vn 0.7950706986451961 0.6063709938920249 0.013296688393641554
vn -0.0355482573576162 0.02471800450287951 0.9990622311208808
vn 0.709992314984381 -0.7029142483853372 0.042690421408040656
vn 0.8608339102989117 -0.5070488895138052 0.043201881004211816
vn 0.0355482573576162 -0.02471800450287951 -0.9990622311208808
vn 0.7984550063260554 0.6019020595148749 0.013546720068380536
vn 0.3158038359202758 -0.9481889688790162 0.034721988914628535
vn 0.8044149519823466 0.593903788465465 0.013959766244724335
vn 0.10052054546744674 -0.9945356070167917 0.028187697931348926
vn 0.8134631686520762 0.5814333099778789 0.014593810149905817
vn -0.7950472183341114 -0.6064022560021656 -0.013274958933104054
vn -0.7939224610880575 -0.6078759942197071 -0.013187169191460636
vn 0.8265111916286654 0.5627060645162235 0.015528524373789859
vn -0.7984522145526249 -0.6019062946461443 -0.013523074404804844
vn 0.8443890743985082 0.5354657852804049 0.016836978068216334
vn -0.8044243191125237 -0.5938920830293855 -0.013917921373917435
vn 0.8804349013730893 0.4737611030444724 0.01961636271695768
vn -0.813516107962714 -0.5813610683712631 -0.014520684123731241
vn 0.9384656548822524 0.34447709633062207 0.02485447062499134
vn -0.8265901807821963 -0.5625919256340726 -0.015459568098834722
vn 0.9867499313953316 0.1592279921916983 0.031161184090286852
vn -0.8451021512124389 -0.534339029903216 -0.0168569017971288
vn 0.9974237848465638 -0.06144902548829292 0.03701095363395551
vn -0.882032046368718 -0.4707749431760554 -0.019759100591708087
vn -0.8303574567133878 0.5555482085750585 -0.043274496294212345
vn -0.6570147637901637 0.7527079518338432 -0.04198022639119586
vn 0.950143355363549 -0.3090440732493258 0.04146522697347795
vn -0.9396336685698975 -0.3412679311962968 -0.024995360106938053
vn -0.9484907492171365 0.3140711027317323 -0.041528798181370154
vn -0.508744897482856 0.8600163114063725 -0.03937732088570263
vn 0.8316432510489543 -0.5536180735387544 0.04331895238766025
vn -0.9872865669869691 -0.15584491096559402 -0.03126656957856161
vn -0.9970949319986433 0.06650699898440486 -0.037128367439323955
vn -0.4965371392216169 0.8671340934406405 -0.039106692093439664
vn 0.6510586391399006 -0.7578676644943326 0.04194343232505363
vn 0.5018324167816057 -0.8640752443523048 0.03921986186407732
vn -0.6069414032221393 0.7936758174589481 -0.0412411182633435
vn 0.49821473922331017 -0.8661706980070402 0.039120270124909
vn -0.7454506040113218 0.6651707626518152 -0.0430261954204442
vn 0.6087867111120076 -0.7922616423494073 0.04123385059929177
vn -0.8675435874647434 0.4954867718992485 -0.043139108957710046
vn 0.7458824773032535 -0.6646901247008642 0.04296938651076421
vn -0.9596890094742125 0.2780538851203927 -0.04102489565934485
vn 0.8681526883506859 -0.494421093185777 0.043112554116615694
vn -0.9992871559578645 0.011812004354065058 -0.03585605235914648
vn -0.9580098393343673 -0.2854598974308517 -0.027014712608269032
vn 0.9602746942936833 -0.2760310422166049 0.04098018096578297
vn 0.8024962639000296 0.5964969028622767 0.013827194299841318
vn 0.8583648979308346 0.5127280255592364 0.01787942410467756
vn -0.8553524849419456 -0.5177468725726732 -0.017615403624524746
vn 0.9993205041711396 -0.008929999309148482 0.035760104243111615
vn 0.9588874584876738 0.28248690184669434 0.027129176915374247
vn -0.8010856336252307 -0.5983929490710773 -0.013699857710264189
vn -0.06600124250034174 0.9974531916212498 -0.02703639238126041
vn -0.30486857772656745 0.9517717511569286 -0.03443376271413399
vn -0.8909532177660126 0.45206379437227495 -0.04290325826938642
vn -0.7356401164470546 0.6760100103050966 -0.04294281128509494
vn -0.7939756763030241 -0.6078060714570288 -0.01320624621641773
vn -0.7950706986451961 -0.6063709938920249 -0.013296688393641554
vn -0.8608339102989117 0.5070488895138052 -0.043201881004211816
vn -0.709992314984381 0.7029142483853372 -0.042690421408040656
vn -0.7984550063260554 -0.6019020595148749 -0.013546720068380536
vn -0.3158038359202758 0.9481889688790162 -0.034721988914628535
vn -0.8044149519823466 -0.593903788465465 -0.013959766244724335
vn -0.10052054546744674 0.9945356070167917 -0.028187697931348926
vn -0.8134631686520762 -0.5814333099778789 -0.014593810149905817
vn 0.7939224610880575 0.6078759942197071 0.013187169191460636
vn 0.7950472183341114 0.6064022560021656 0.013274958933104054
vn -0.8265111916286654 -0.5627060645162235 -0.015528524373789859
vn 0.7984522145526249 0.6019062946461443 0.013523074404804844
vn -0.8443890743985082 -0.5354657852804049 -0.016836978068216334
vn 0.8044243191125237 0.5938920830293855 0.013917921373917435
vn -0.8804349013730893 -0.4737611030444724 -0.01961636271695768
vn 0.813516107962714 0.5813610683712631 0.014520684123731241
vn -0.9384656548822524 -0.34447709633062207 -0.02485447062499134
vn 0.8265901807821963 0.5625919256340726 0.015459568098834722
vn -0.9867499313953316 -0.1592279921916983 -0.031161184090286852
vn 0.8451021512124389 0.534339029903216 0.0168569017971288
vn -0.9974237848465638 0.06144902548829292 -0.03701095363395551
vn 0.882032046368718 0.4707749431760554 0.019759100591708087
vn 0.8303574567133878 -0.5555482085750585 0.043274496294212345
vn 0.6570147637901637 -0.7527079518338432 0.04198022639119586
vn -0.950143355363549 0.3090440732493258 -0.04146522697347795
vn 0.9396336685698975 0.3412679311962968 0.024995360106938053
vn 0.9484907492171365 -0.3140711027317323 0.041528798181370154
vn 0.508744897482856 -0.8600163114063725 0.03937732088570263
vn -0.8316432510489543 0.5536180735387544 -0.04331895238766025
vn 0.9872865669869691 0.15584491096559402 0.03126656957856161
vn 0.9970949319986433 -0.06650699898440486 0.037128367439323955
vn 0.4965371392216169 -0.8671340934406405 0.039106692093439664
vn -0.6510586391399006 0.7578676644943326 -0.04194343232505363
vn -0.5018324167816057 0.8640752443523048 -0.03921986186407732
vn 0.6069414032221393 -0.7936758174589481 0.0412411182633435
vn -0.49821473922331017 0.8661706980070402 -0.039120270124909
vn 0.7454506040113218 -0.6651707626518152 0.0430261954204442
vn -0.6087867111120076 0.7922616423494073 -0.04123385059929177
vn 0.8675435874647434 -0.4954867718992485 0.043139108957710046
vn -0.7458824773032535 0.6646901247008642 -0.04296938651076421
vn 0.9596890094742125 -0.2780538851203927 0.04102489565934485
vn -0.8681526883506859 0.494421093185777 -0.043112554116615694
vn 0.9992871559578645 -0.011812004354065058 0.03585605235914648
vn 0.9580098393343673 0.2854598974308517 0.027014712608269032
vn -0.9602746942936833 0.2760310422166049 -0.04098018096578297
vn -0.8583648979308346 -0.5127280255592364 -0.01787942410467756
vn -0.8024962639000296 -0.5964969028622767 -0.013827194299841318
vn 0.8553524849419456 0.5177468725726732 0.017615403624524746
vn -0.9993205041711396 0.008929999309148482 -0.035760104243111615
vn -0.9588874584876738 -0.28248690184669434 -0.027129176915374247
vn 0.8010856336252307 0.5983929490710773 0.013699857710264189
vn 0.06600124250034174 -0.9974531916212498 0.02703639238126041
vn 0.30486857772656745 -0.9517717511569286 0.03443376271413399
vn 0.8909532177660126 -0.45206379437227495 0.04290325826938642
vn 0.7356401164470546 -0.6760100103050966 0.04294281128509494
usemtl material_0_0
f 1//1 2//2 3//1
f 2//2 1//1 4//2
f 2//3 5//3 3//3
f 5//4 1//5 3//5
f 6//6 4//6 1//6
f 4//2 7//7 2//2
f 5//3 2//3 8//3
f 1//5 5//4 6//4
f 4//6 6//6 9//6
f 7//7 4//2 10//7
f 8//3 2//3 7//3
f 8//8 6//4 5//4
f 6//4 8//8 9//8
f 4//6 9//6 10//6
f 11//9 7//7 10//7
f 8//3 7//3 12//3
f 12//10 9//8 8//8
f 10//6 9//6 13//6
f 7//7 11//9 14//9
f 10//6 13//6 11//6
f 12//3 7//3 14//3
f 9//8 12//10 13//10
f 15//11 14//9 11//9
f 11//6 13//6 16//6
f 12//3 14//3 17//3
f 17//12 13//13 12//13
f 14//9 15//11 18//11
f 11//6 16//6 15//6
f 13//13 17//12 16//12
f 17//3 14//3 18//3
f 19//14 18//11 15//11
f 15//6 16//6 20//6
f 21//15 16//12 17//12
f 17//3 18//3 21//3
f 18//11 19//14 22//14
f 15//6 20//6 19//6
f 16//12 21//15 20//15
f 21//3 18//3 22//3
f 23//16 22//14 19//14
f 19//6 20//6 24//6
f 21//15 24//17 20//15
f 21//3 22//3 25//3
f 22//14 23//16 26//16
f 19//6 24//6 23//6
f 24//17 21//15 25//17
f 25//3 22//3 26//3
f 27//18 26//16 23//16
f 23//6 24//6 28//6
f 25//17 28//19 24//17
f 25//3 26//3 29//3
f 26//16 27//18 30//18
f 23//6 28//6 27//6
f 28//19 25//17 29//19
f 29//3 26//3 30//3
f 31//20 30//18 27//18
f 27//6 28//6 31//6
f 29//19 32//21 28//19
f 29//3 30//3 33//3
f 30//18 31//20 33//20
f 31//6 28//6 32//6
f 32//21 29//19 34//21
f 29//3 33//3 34//3
f 35//22 33//20 31//20
f 31//6 32//6 35//6
f 34//21 36//23 32//21
f 34//3 33//3 37//3
f 33//20 35//22 37//22
f 35//6 32//6 38//6
f 36//23 34//21 39//23
f 40//6 32//6 36//6
f 34//3 37//3 41//3
f 38//24 37//22 35//22
f 40//6 38//6 32//6
f 34//3 42//3 39//3
f 39//23 43//25 36//23
f 40//6 36//6 44//6
f 37//22 38//24 41//24
f 41//3 42//3 34//3
f 40//6 45//6 38//6
f 39//3 42//3 46//3
f 43//25 39//23 47//25
f 44//6 36//6 43//6
f 46//26 40//27 44//26
f 45//28 41//24 38//24
f 48//3 42//3 41//3
f 49//6 45//6 40//6
f 40//27 46//26 42//27
f 39//3 46//3 47//3
f 47//25 50//29 43//25
f 44//6 43//6 50//6
f 44//26 51//30 46//26
f 41//24 45//28 48//28
f 48//3 52//3 42//3
f 49//6 53//6 45//6
f 42//27 49//31 40//27
f 47//3 46//3 54//3
f 50//29 47//25 54//29
f 44//6 50//6 55//6
f 51//30 44//26 55//30
f 54//3 46//3 51//3
f 53//32 48//28 45//28
f 56//3 52//3 48//3
f 49//31 42//27 52//31
f 49//6 57//6 53//6
f 54//29 58//33 50//29
f 55//6 50//6 58//6
f 55//30 59//34 51//30
f 54//3 51//3 60//3
f 48//28 53//32 56//32
f 61//3 52//3 56//3
f 52//31 62//35 49//31
f 49//6 63//6 57//6
f 57//36 56//32 53//32
f 58//33 54//29 60//33
f 55//6 58//6 64//6
f 59//34 55//30 64//34
f 60//3 51//3 59//3
f 65//3 52//3 61//3
f 56//32 57//36 61//36
f 62//35 52//31 66//35
f 62//6 63//6 49//6
f 63//37 61//36 57//36
f 60//33 64//34 58//33
f 64//34 60//33 59//34
f 65//3 66//3 52//3
f 61//36 63//37 65//37
f 66//35 67//38 62//35
f 67//6 63//6 62//6
f 65//3 68//3 66//3
f 69//39 65//37 63//37
f 67//38 66//35 68//38
f 67//6 69//6 63//6
f 70//3 68//3 65//3
f 65//37 69//39 70//39
f 68//38 71//40 67//38
f 71//6 69//6 67//6
f 70//3 72//3 68//3
f 73//41 70//39 69//39
f 71//40 68//38 72//40
f 71//6 73//6 69//6
f 74//3 72//3 70//3
f 70//39 73//41 74//41
f 72//40 75//42 71//40
f 75//6 73//6 71//6
f 74//3 76//3 72//3
f 77//43 74//41 73//41
f 75//42 72//40 76//42
f 78//6 73//6 75//6
f 74//3 79//3 76//3
f 74//41 77//43 80//43
f 73//6 81//6 77//6
f 76//42 78//44 75//42
f 81//6 73//6 78//6
f 74//3 82//3 79//3
f 78//44 76//42 79//44
f 83//45 80//43 77//43
f 82//3 74//3 80//3
f 84//6 77//6 81//6
f 79//44 81//46 78//44
f 81//46 79//44 82//46
f 80//43 83//45 85//45
f 86//6 83//6 77//6
f 80//3 87//3 82//3
f 86//6 77//6 84//6
f 82//46 84//47 81//46
f 88//48 85//45 83//45
f 85//3 89//3 80//3
f 90//6 83//6 86//6
f 80//3 89//3 87//3
f 84//47 82//46 87//47
f 86//6 84//6 91//6
f 85//45 88//48 92//48
f 90//6 88//6 83//6
f 85//3 93//3 89//3
f 86//49 93//50 90//50
f 87//3 89//3 94//3
f 87//47 91//51 84//47
f 86//6 91//6 95//6
f 96//52 92//48 88//48
f 92//3 93//3 85//3
f 97//6 88//6 90//6
f 93//50 86//49 89//49
f 98//53 90//50 93//50
f 94//3 89//3 99//3
f 91//51 87//47 94//51
f 94//51 95//54 91//51
f 86//6 95//6 100//6
f 92//48 96//52 101//52
f 88//6 97//6 96//6
f 92//3 98//3 93//3
f 90//50 98//53 97//53
f 86//55 102//56 89//55
f 99//3 89//3 102//3
f 95//54 94//51 99//54
f 100//6 95//6 103//6
f 102//56 86//55 100//56
f 97//53 101//52 96//52
f 98//3 92//3 101//3
f 101//52 97//53 98//53
f 99//3 102//3 104//3
f 99//57 103//58 95//57
f 104//58 100//56 103//58
f 100//56 104//58 102//56
f 103//58 99//57 104//58
usemtl material_1_0
f 3//59 2//60 1//59
f 4//60 1//59 2//60
f 3//6 5//6 2//6
f 3//61 1//61 5//62
f 1//3 4//3 6//3
f 2//60 7//63 4//60
f 8//6 2//6 5//6
f 6//62 5//62 1//61
f 9//3 6//3 4//3
f 10//63 4//60 7//63
f 7//6 2//6 8//6
f 5//62 6//62 8//64
f 9//64 8//64 6//62
f 10//3 9//3 4//3
f 10//63 7//63 11//65
f 12//6 7//6 8//6
f 8//64 9//64 12//66
f 13//3 9//3 10//3
f 14//65 11//65 7//63
f 11//3 13//3 10//3
f 14//6 7//6 12//6
f 13//66 12//66 9//64
f 11//65 14//65 15//67
f 16//3 13//3 11//3
f 17//6 14//6 12//6
f 12//68 13//68 17//69
f 18//67 15//67 14//65
f 15//3 16//3 11//3
f 16//69 17//69 13//68
f 18//6 14//6 17//6
f 15//67 18//67 19//70
f 20//3 16//3 15//3
f 17//69 16//69 21//71
f 21//6 18//6 17//6
f 22//70 19//70 18//67
f 19//3 20//3 15//3
f 20//71 21//71 16//69
f 22//6 18//6 21//6
f 19//70 22//70 23//72
f 24//3 20//3 19//3
f 20//71 24//73 21//71
f 25//6 22//6 21//6
f 26//72 23//72 22//70
f 23//3 24//3 19//3
f 25//73 21//71 24//73
f 26//6 22//6 25//6
f 23//72 26//72 27//74
f 28//3 24//3 23//3
f 24//73 28//75 25//73
f 29//6 26//6 25//6
f 30//74 27//74 26//72
f 27//3 28//3 23//3
f 29//75 25//73 28//75
f 30//6 26//6 29//6
f 27//74 30//74 31//76
f 31//3 28//3 27//3
f 28//75 32//77 29//75
f 33//6 30//6 29//6
f 33//76 31//76 30//74
f 32//3 28//3 31//3
f 34//77 29//75 32//77
f 34//6 33//6 29//6
f 31//76 33//76 35//78
f 35//3 32//3 31//3
f 32//77 36//79 34//77
f 37//6 33//6 34//6
f 37//78 35//78 33//76
f 38//3 32//3 35//3
f 39//79 34//77 36//79
f 36//3 32//3 40//3
f 41//6 37//6 34//6
f 35//78 37//78 38//80
f 32//3 38//3 40//3
f 39//6 42//6 34//6
f 36//79 43//81 39//79
f 44//3 36//3 40//3
f 41//80 38//80 37//78
f 34//6 42//6 41//6
f 38//3 45//3 40//3
f 46//6 42//6 39//6
f 47//81 39//79 43//81
f 43//3 36//3 44//3
f 44//82 40//83 46//82
f 38//80 41//80 45//84
f 41//6 42//6 48//6
f 40//3 45//3 49//3
f 42//83 46//82 40//83
f 47//6 46//6 39//6
f 43//81 50//85 47//81
f 50//3 43//3 44//3
f 46//82 51//86 44//82
f 48//84 45//84 41//80
f 42//6 52//6 48//6
f 45//3 53//3 49//3
f 40//83 49//87 42//83
f 54//6 46//6 47//6
f 54//85 47//81 50//85
f 55//3 50//3 44//3
f 55//86 44//82 51//86
f 51//6 46//6 54//6
f 45//84 48//84 53//88
f 48//6 52//6 56//6
f 52//87 42//83 49//87
f 53//3 57//3 49//3
f 50//85 58//89 54//85
f 58//3 50//3 55//3
f 51//86 59//90 55//86
f 60//6 51//6 54//6
f 56//88 53//88 48//84
f 56//6 52//6 61//6
f 49//87 62//91 52//87
f 57//3 63//3 49//3
f 53//88 56//88 57//92
f 60//89 54//85 58//89
f 64//3 58//3 55//3
f 64//90 55//86 59//90
f 59//6 51//6 60//6
f 61//6 52//6 65//6
f 61//92 57//92 56//88
f 66//91 52//87 62//91
f 49//3 63//3 62//3
f 57//92 61//92 63//93
f 58//89 64//90 60//89
f 59//90 60//89 64//90
f 52//6 66//6 65//6
f 65//93 63//93 61//92
f 62//91 67//94 66//91
f 62//3 63//3 67//3
f 66//6 68//6 65//6
f 63//93 65//93 69//95
f 68//94 66//91 67//94
f 63//3 69//3 67//3
f 65//6 68//6 70//6
f 70//95 69//95 65//93
f 67//94 71//96 68//94
f 67//3 69//3 71//3
f 68//6 72//6 70//6
f 69//95 70//95 73//97
f 72//96 68//94 71//96
f 69//3 73//3 71//3
f 70//6 72//6 74//6
f 74//97 73//97 70//95
f 71//96 75//98 72//96
f 71//3 73//3 75//3
f 72//6 76//6 74//6
f 73//97 74//97 77//99
f 76//98 72//96 75//98
f 75//3 73//3 78//3
f 76//6 79//6 74//6
f 80//99 77//99 74//97
f 77//3 81//3 73//3
f 75//98 78//100 76//98
f 78//3 73//3 81//3
f 79//6 82//6 74//6
f 79//100 76//98 78//100
f 77//99 80//99 83//101
f 80//6 74//6 82//6
f 81//3 77//3 84//3
f 78//100 81//102 79//100
f 82//102 79//100 81//102
f 85//101 83//101 80//99
f 77//3 83//3 86//3
f 82//6 87//6 80//6
f 84//3 77//3 86//3
f 81//102 84//103 82//102
f 83//101 85//101 88//104
f 80//6 89//6 85//6
f 86//3 83//3 90//3
f 87//6 89//6 80//6
f 87//103 82//102 84//103
f 91//3 84//3 86//3
f 92//104 88//104 85//101
f 83//3 88//3 90//3
f 89//6 93//6 85//6
f 90//105 93//105 86//106
f 94//6 89//6 87//6
f 84//103 91//107 87//103
f 95//3 91//3 86//3
f 88//104 92//104 96//108
f 85//6 93//6 92//6
f 90//3 88//3 97//3
f 89//106 86//106 93//105
f 93//105 90//105 98//109
f 99//6 89//6 94//6
f 94//107 87//103 91//107
f 91//107 95//110 94//107
f 100//3 95//3 86//3
f 101//108 96//108 92//104
f 96//3 97//3 88//3
f 93//6 98//6 92//6
f 97//109 98//109 90//105
f 89//111 102//112 86//111
f 102//6 89//6 99//6
f 99//110 94//107 95//110
f 103//3 95//3 100//3
f 100//112 86//111 102//112
f 96//108 101//108 97//109
f 101//6 92//6 98//6
f 98//109 97//109 101//108
f 104//6 102//6 99//6
f 95//113 103//114 99//113
f 103//114 100//112 104//114
f 102//112 104//114 100//112
f 104//114 99//113 103//114
