# SSTK version 0.8.0
# 16
mtllib original-16.mtl
o mesh11/mesh11-geometry#mesh11-geometry
v -0.077725 0.590232 0.360593
v -0.077353 0.589752 0.359950
v -0.077377 0.589769 0.360617
v -0.077702 0.590216 0.359926
v -0.077038 0.589313 0.360640
v -0.077595 0.590449 0.360592
v -0.077572 0.590432 0.359925
v -0.077014 0.589296 0.359973
v -0.077334 0.590603 0.360597
v -0.077310 0.590587 0.359931
v -0.076714 0.588871 0.360662
v -0.077019 0.590633 0.360608
v -0.076995 0.590617 0.359941
v -0.076690 0.588854 0.359996
v -0.076413 0.588450 0.360684
v -0.076670 0.590168 0.360632
v -0.076646 0.590152 0.359965
v -0.076389 0.588433 0.360017
v -0.076142 0.588056 0.360703
v -0.076328 0.589709 0.360655
v -0.076304 0.589693 0.359989
v -0.076119 0.588039 0.360036
v -0.075911 0.587697 0.360720
v -0.075999 0.589262 0.360678
v -0.075976 0.589245 0.360011
v -0.075887 0.587681 0.360053
v -0.075733 0.587398 0.360734
v -0.075692 0.588831 0.360700
v -0.075709 0.587381 0.360067
v -0.075668 0.588815 0.360033
v -0.075579 0.587063 0.360748
v -0.075412 0.588424 0.360720
v -0.075555 0.587047 0.360081
v -0.075502 0.586764 0.360758
v -0.075389 0.588407 0.360053
v -0.075478 0.586747 0.360091
v -0.075167 0.588045 0.360738
v -0.075489 0.586498 0.360765
v -0.075144 0.588029 0.360071
v -0.075180 0.585401 0.360803
v -0.075465 0.586481 0.360098
v -0.074964 0.587701 0.360754
v -0.075156 0.585384 0.360136
v -0.075568 0.585145 0.360795
v -0.074940 0.587684 0.360087
v -0.074900 0.585710 0.360805
v -0.075544 0.585129 0.360129
v -0.075533 0.586272 0.360769
v -0.074772 0.587278 0.360771
v -0.074877 0.585694 0.360138
v -0.075509 0.586256 0.360102
v -0.075625 0.586085 0.360770
v -0.074748 0.587262 0.360104
v -0.074724 0.586063 0.360803
v -0.074701 0.586047 0.360136
v -0.077047 0.584392 0.360761
v -0.075601 0.586069 0.360103
v -0.074665 0.586857 0.360785
v -0.077023 0.584376 0.360095
v -0.075771 0.585923 0.360769
v -0.074641 0.586841 0.360118
v -0.074647 0.586449 0.360796
v -0.074624 0.586432 0.360129
v -0.077456 0.584139 0.360753
v -0.075747 0.585907 0.360102
v -0.076036 0.585754 0.360764
v -0.077432 0.584123 0.360086
v -0.077505 0.585008 0.360730
v -0.076012 0.585738 0.360097
v -0.077780 0.583846 0.360749
v -0.077482 0.584991 0.360063
v -0.077757 0.583829 0.360082
v -0.078007 0.584694 0.360720
v -0.078018 0.583526 0.360748
v -0.077983 0.584677 0.360053
v -0.077994 0.583509 0.360081
v -0.078442 0.584300 0.360714
v -0.078166 0.583192 0.360751
v -0.078418 0.584284 0.360047
v -0.078142 0.583176 0.360084
v -0.078222 0.582859 0.360757
v -0.078198 0.582843 0.360091
v -0.078770 0.583858 0.360713
v -0.078796 0.581912 0.360760
v -0.078773 0.581895 0.360094
v -0.078746 0.583841 0.360047
v -0.078183 0.582540 0.360767
v -0.078159 0.582524 0.360100
v -0.078982 0.583378 0.360718
v -0.078047 0.582248 0.360779
v -0.078023 0.582232 0.360112
v -0.078958 0.583361 0.360051
v -0.079001 0.582362 0.360742
v -0.077959 0.580762 0.360819
v -0.077935 0.580746 0.360152
v -0.078978 0.582345 0.360075
v -0.079065 0.582873 0.360727
v -0.077616 0.580783 0.360830
v -0.077592 0.580766 0.360164
v -0.077247 0.581156 0.360834
v -0.079042 0.582857 0.360060
v -0.077360 0.580938 0.360836
v -0.077337 0.580922 0.360169
v -0.077223 0.581140 0.360168
vn -0.7993381614705161 -0.6007279630513268 -0.01358005983562573
vn -0.8004419050171268 -0.5992550469141813 -0.013643512760120796
vn -0.8038050702089282 -0.5947311605598905 -0.01386563253175264
vn -0.03554966937099694 0.024718006004128195 0.9990621808410087
vn -0.8561661010789934 0.514892933135493 -0.04318419583971986
vn -0.7038868669273632 0.7090359789785016 -0.042558889567027726
vn 0.03554825647891631 -0.024719003892044764 -0.999062206425553
vn -0.809720319521368 -0.5866418294773244 -0.014295735787695295
vn -0.308456932474905 0.9506141749367896 -0.03445302914721274
vn -0.09324419172884194 0.9952523790917034 -0.02789664175379017
vn -0.8186906407444998 -0.5740399822133714 -0.014957726359061127
vn 0.7993251555034573 0.6007449870188022 0.01359251084800954
vn 0.8004289378086711 0.5992717919265776 0.01366875706094725
vn -0.8315475259793259 -0.5552259693823424 -0.01590078492088316
vn 0.8038074868819641 0.5947271448261877 0.013897742240801198
vn -0.8492334731551323 -0.5277371323646693 -0.017205440894864203
vn 0.8097278532716605 0.5866311922865903 0.01430551895183536
vn -0.8848114771479919 -0.46552010616070844 -0.01999201508881567
vn 0.8187165442095323 0.5740032618391097 0.014949101500202623
vn -0.941701041104336 -0.3355052282023462 -0.025206963956445953
vn 0.8316279906657893 0.5551058682620134 0.015885847860845174
vn -0.9882480746145104 -0.14959002133333363 -0.03144150979527102
vn 0.8499430233210891 0.526593129195164 0.017220144954437456
vn -0.9967646820326651 0.07123599739130217 -0.03722366623515561
vn 0.8863809462513558 0.4625211128417521 0.020075813761299813
vn -0.9471289109433612 0.3181469371782347 -0.04158548327663194
vn 0.5017964410286472 -0.8640959436911895 0.03922412353916935
vn 0.6506178651382103 -0.7582467985558413 0.04193072909949032
vn 0.9428363557159473 0.33229314302115937 0.025315478296708386
vn 0.8253168782536034 -0.5630070421011051 0.04330266751935086
vn 0.9454437301338475 -0.32311593577069747 0.04162024989861068
vn 0.48956918810409017 -0.8710948867097618 0.0389320999588936
vn -0.8265989079737753 0.5611237889479155 -0.043293634789622275
vn 0.9887511196341051 0.1462019857768136 0.0315626801336689
vn 0.9963853278582144 -0.07630798251349365 0.037327874753312285
vn 0.600309601984492 -0.7987119982456289 0.041079503693387955
vn -0.6446741351749181 0.7633137317284745 -0.041801990278236695
vn -0.4949020453835525 0.8680707742070082 -0.039052483183805484
vn 0.7396012499349751 -0.6716771072903511 0.04289352674575177
vn -0.4912314014714119 0.8701550990784755 -0.039010431376246435
vn 0.8629287047359229 -0.5034810161463845 0.04313834631724324
vn -0.6021851818162413 0.7972920166075929 -0.04121221972593368
vn 0.9569628217148647 -0.2872780081156037 0.04115220417735827
vn -0.7400487716445865 0.6711789331230631 -0.0429727276202666
vn 0.9991160015414563 -0.021568007361496465 0.036083743185365044
vn -0.8635535111327561 0.502407924757385 -0.04314638514715529
vn 0.9606795691175177 0.2763089679992787 0.02735177660324991
vn -0.9575737313659906 0.2852388746224245 -0.041125824027569306
vn 0.8600482973166778 0.5098949698970766 0.018001276519804082
vn -0.9991765175987479 0.018692997774393115 -0.03601192182382819
vn -0.9615450631963818 -0.2732739601293321 -0.027430533314148083
vn -0.8630310273560988 -0.5048228220881007 -0.018203409562016024
vn -0.8077945754929788 -0.5892939371070186 -0.01416260897671107
vn 0.8064334124619214 0.5911569813259424 0.014091653367154174
vn 0.058594931448791805 -0.9979225045856711 0.02678262216387058
vn 0.29745864404568306 -0.9541226623193524 0.03418040858642151
vn 0.7296751153274307 -0.6824507868344825 0.042838646347619434
vn 0.8866460462716839 -0.46044999476353243 0.04294870141289533
vn 0.8004419050171268 0.5992550469141813 0.013643512760120796
vn 0.7993381614705161 0.6007279630513268 0.01358005983562573
vn 0.8038050702089282 0.5947311605598905 0.01386563253175264
vn 0.03554966937099694 -0.024718006004128195 -0.9990621808410087
vn 0.8561661010789934 -0.514892933135493 0.04318419583971986
vn 0.7038868669273632 -0.7090359789785016 0.042558889567027726
vn -0.03554825647891631 0.024719003892044764 0.999062206425553
vn 0.809720319521368 0.5866418294773244 0.014295735787695295
vn 0.308456932474905 -0.9506141749367896 0.03445302914721274
vn 0.09324419172884194 -0.9952523790917034 0.02789664175379017
vn 0.8186906407444998 0.5740399822133714 0.014957726359061127
vn -0.7993251555034573 -0.6007449870188022 -0.01359251084800954
vn -0.8004289378086711 -0.5992717919265776 -0.01366875706094725
vn 0.8315475259793259 0.5552259693823424 0.01590078492088316
vn -0.8038074868819641 -0.5947271448261877 -0.013897742240801198
vn 0.8492334731551323 0.5277371323646693 0.017205440894864203
vn -0.8097278532716605 -0.5866311922865903 -0.01430551895183536
vn 0.8848114771479919 0.46552010616070844 0.01999201508881567
vn -0.8187165442095323 -0.5740032618391097 -0.014949101500202623
vn 0.941701041104336 0.3355052282023462 0.025206963956445953
vn -0.8316279906657893 -0.5551058682620134 -0.015885847860845174
vn 0.9882480746145104 0.14959002133333363 0.03144150979527102
vn -0.8499430233210891 -0.526593129195164 -0.017220144954437456
vn 0.9967646820326651 -0.07123599739130217 0.03722366623515561
vn -0.8863809462513558 -0.4625211128417521 -0.020075813761299813
vn 0.9471289109433612 -0.3181469371782347 0.04158548327663194
vn -0.6506178651382103 0.7582467985558413 -0.04193072909949032
vn -0.5017964410286472 0.8640959436911895 -0.03922412353916935
vn -0.9428363557159473 -0.33229314302115937 -0.025315478296708386
vn -0.8253168782536034 0.5630070421011051 -0.04330266751935086
vn -0.9454437301338475 0.32311593577069747 -0.04162024989861068
vn -0.48956918810409017 0.8710948867097618 -0.0389320999588936
vn 0.8265989079737753 -0.5611237889479155 0.043293634789622275
vn -0.9887511196341051 -0.1462019857768136 -0.0315626801336689
vn -0.9963853278582144 0.07630798251349365 -0.037327874753312285
vn -0.600309601984492 0.7987119982456289 -0.041079503693387955
vn 0.6446741351749181 -0.7633137317284745 0.041801990278236695
vn 0.4949020453835525 -0.8680707742070082 0.039052483183805484
vn -0.7396012499349751 0.6716771072903511 -0.04289352674575177
vn 0.4912314014714119 -0.8701550990784755 0.039010431376246435
vn -0.8629287047359229 0.5034810161463845 -0.04313834631724324
vn 0.6021851818162413 -0.7972920166075929 0.04121221972593368
vn -0.9569628217148647 0.2872780081156037 -0.04115220417735827
vn 0.7400487716445865 -0.6711789331230631 0.0429727276202666
vn -0.9991160015414563 0.021568007361496465 -0.036083743185365044
vn 0.8635535111327561 -0.502407924757385 0.04314638514715529
vn -0.9606795691175177 -0.2763089679992787 -0.02735177660324991
vn 0.9575737313659906 -0.2852388746224245 0.041125824027569306
vn -0.8600482973166778 -0.5098949698970766 -0.018001276519804082
vn 0.9991765175987479 -0.018692997774393115 0.03601192182382819
vn 0.9615450631963818 0.2732739601293321 0.027430533314148083
vn 0.8630310273560988 0.5048228220881007 0.018203409562016024
vn 0.8077945754929788 0.5892939371070186 0.01416260897671107
vn -0.8064334124619214 -0.5911569813259424 -0.014091653367154174
vn -0.29745864404568306 0.9541226623193524 -0.03418040858642151
vn -0.058594931448791805 0.9979225045856711 -0.02678262216387058
vn -0.7296751153274307 0.6824507868344825 -0.042838646347619434
vn -0.8866460462716839 0.46044999476353243 -0.04294870141289533
usemtl material_0_0
f 1//1 2//2 3//2
f 2//2 1//1 4//1
f 2//2 5//3 3//2
f 3//4 6//4 1//4
f 1//5 7//6 4//5
f 7//7 2//7 4//7
f 5//3 2//2 8//3
f 5//4 9//4 3//4
f 3//4 9//4 6//4
f 7//6 1//5 6//6
f 10//7 2//7 7//7
f 10//7 8//7 2//7
f 8//3 11//8 5//3
f 5//4 12//4 9//4
f 10//9 6//6 9//9
f 6//6 10//9 7//6
f 13//7 8//7 10//7
f 11//8 8//3 14//8
f 11//4 12//4 5//4
f 13//10 9//9 12//10
f 9//9 13//10 10//9
f 13//7 14//7 8//7
f 14//8 15//11 11//8
f 11//4 16//4 12//4
f 12//12 17//13 13//12
f 17//7 14//7 13//7
f 15//11 14//8 18//11
f 15//4 16//4 11//4
f 17//13 12//12 16//13
f 17//7 18//7 14//7
f 18//11 19//14 15//11
f 15//4 20//4 16//4
f 20//15 17//13 16//13
f 21//7 18//7 17//7
f 19//14 18//11 22//14
f 19//4 20//4 15//4
f 17//13 20//15 21//15
f 21//7 22//7 18//7
f 22//14 23//16 19//14
f 19//4 24//4 20//4
f 24//17 21//15 20//15
f 25//7 22//7 21//7
f 23//16 22//14 26//16
f 23//4 24//4 19//4
f 21//15 24//17 25//17
f 25//7 26//7 22//7
f 26//16 27//18 23//16
f 27//4 24//4 23//4
f 28//19 25//17 24//17
f 25//7 29//7 26//7
f 27//18 26//16 29//18
f 27//4 28//4 24//4
f 25//17 28//19 30//19
f 30//7 29//7 25//7
f 29//18 31//20 27//18
f 31//4 28//4 27//4
f 32//21 30//19 28//19
f 30//7 33//7 29//7
f 31//20 29//18 33//20
f 34//4 28//4 31//4
f 30//19 32//21 35//21
f 34//4 32//4 28//4
f 30//7 36//7 33//7
f 33//20 34//22 31//20
f 37//23 35//21 32//21
f 35//7 36//7 30//7
f 32//4 34//4 38//4
f 34//22 33//20 36//22
f 35//21 37//23 39//23
f 40//4 37//4 32//4
f 36//7 35//7 41//7
f 36//22 38//24 34//22
f 40//4 32//4 38//4
f 42//25 39//23 37//23
f 39//7 43//7 35//7
f 40//4 42//4 37//4
f 35//7 43//7 41//7
f 38//24 36//22 41//24
f 40//4 38//4 44//4
f 39//23 42//25 45//25
f 45//7 43//7 39//7
f 46//4 42//4 40//4
f 41//7 43//7 47//7
f 41//24 48//26 38//24
f 44//4 38//4 48//4
f 44//27 43//28 40//28
f 49//29 45//25 42//25
f 45//7 50//7 43//7
f 46//4 49//4 42//4
f 40//28 50//30 46//30
f 43//28 44//27 47//27
f 41//7 47//7 51//7
f 48//26 41//24 51//26
f 44//4 48//4 52//4
f 50//30 40//28 43//28
f 45//25 49//29 53//29
f 53//7 50//7 45//7
f 54//4 49//4 46//4
f 55//31 46//30 50//30
f 56//32 47//27 44//27
f 51//7 47//7 57//7
f 51//26 52//33 48//26
f 44//4 52//4 56//4
f 58//34 53//29 49//29
f 53//7 55//7 50//7
f 54//4 58//4 49//4
f 46//30 55//31 54//31
f 47//27 56//32 59//32
f 57//7 47//7 59//7
f 52//33 51//26 57//33
f 56//4 52//4 60//4
f 53//29 58//34 61//34
f 61//7 55//7 53//7
f 58//4 54//4 62//4
f 63//35 54//31 55//31
f 64//36 59//32 56//32
f 57//7 59//7 65//7
f 57//33 60//37 52//33
f 56//4 60//4 66//4
f 62//35 61//34 58//34
f 55//7 61//7 63//7
f 54//31 63//35 62//35
f 59//32 64//36 67//36
f 56//4 68//4 64//4
f 65//7 59//7 69//7
f 60//37 57//33 65//37
f 65//37 66//38 60//37
f 56//4 66//4 68//4
f 61//34 62//35 63//35
f 70//39 67//36 64//36
f 71//7 59//7 67//7
f 64//4 68//4 70//4
f 69//7 59//7 71//7
f 66//38 65//37 69//38
f 69//38 68//40 66//38
f 67//36 70//39 72//39
f 71//7 67//7 72//7
f 70//4 68//4 73//4
f 68//40 69//38 71//40
f 74//41 72//39 70//39
f 71//7 72//7 75//7
f 71//40 73//42 68//40
f 70//4 73//4 74//4
f 72//39 74//41 76//41
f 75//7 72//7 76//7
f 73//42 71//40 75//42
f 74//4 73//4 77//4
f 78//43 76//41 74//41
f 75//7 76//7 79//7
f 75//42 77//44 73//42
f 74//4 77//4 78//4
f 76//41 78//43 80//43
f 79//7 76//7 80//7
f 77//44 75//42 79//44
f 78//4 77//4 81//4
f 81//45 80//43 78//43
f 79//7 80//7 82//7
f 79//44 83//46 77//44
f 84//4 81//4 77//4
f 80//43 81//45 82//45
f 82//7 85//7 79//7
f 83//46 79//44 86//46
f 84//4 77//4 83//4
f 84//4 87//4 81//4
f 87//47 82//45 81//45
f 88//7 85//7 82//7
f 79//7 85//7 86//7
f 86//46 89//48 83//46
f 84//4 83//4 89//4
f 84//4 90//4 87//4
f 82//45 87//47 88//47
f 91//7 85//7 88//7
f 86//7 85//7 92//7
f 89//48 86//46 92//48
f 84//4 89//4 93//4
f 94//4 90//4 84//4
f 90//49 88//47 87//47
f 91//7 95//7 85//7
f 88//47 90//49 91//49
f 92//7 85//7 96//7
f 92//48 97//50 89//48
f 93//4 89//4 97//4
f 96//51 84//52 93//51
f 98//4 90//4 94//4
f 85//52 94//53 84//52
f 91//7 99//7 95//7
f 94//53 85//52 95//53
f 100//54 91//49 90//49
f 84//52 96//51 85//52
f 92//7 96//7 101//7
f 97//50 92//48 101//50
f 101//50 93//51 97//50
f 93//51 101//50 96//51
f 102//4 90//4 98//4
f 94//55 99//56 98//56
f 91//7 103//7 99//7
f 99//56 94//55 95//55
f 91//49 100//54 104//54
f 90//4 102//4 100//4
f 98//56 103//57 102//57
f 103//57 98//56 99//56
f 103//7 91//7 104//7
f 102//57 104//58 100//58
f 104//58 102//57 103//57
usemtl material_1_0
f 3//59 2//59 1//60
f 4//60 1//60 2//59
f 3//59 5//61 2//59
f 1//62 6//62 3//62
f 4//63 7//64 1//63
f 4//65 2//65 7//65
f 8//61 2//59 5//61
f 3//62 9//62 5//62
f 6//62 9//62 3//62
f 6//64 1//63 7//64
f 7//65 2//65 10//65
f 2//65 8//65 10//65
f 5//61 11//66 8//61
f 9//62 12//62 5//62
f 9//67 6//64 10//67
f 7//64 10//67 6//64
f 10//65 8//65 13//65
f 14//66 8//61 11//66
f 5//62 12//62 11//62
f 12//68 9//67 13//68
f 10//67 13//68 9//67
f 8//65 14//65 13//65
f 11//66 15//69 14//66
f 12//62 16//62 11//62
f 13//70 17//71 12//70
f 13//65 14//65 17//65
f 18//69 14//66 15//69
f 11//62 16//62 15//62
f 16//71 12//70 17//71
f 14//65 18//65 17//65
f 15//69 19//72 18//69
f 16//62 20//62 15//62
f 16//71 17//71 20//73
f 17//65 18//65 21//65
f 22//72 18//69 19//72
f 15//62 20//62 19//62
f 21//73 20//73 17//71
f 18//65 22//65 21//65
f 19//72 23//74 22//72
f 20//62 24//62 19//62
f 20//73 21//73 24//75
f 21//65 22//65 25//65
f 26//74 22//72 23//74
f 19//62 24//62 23//62
f 25//75 24//75 21//73
f 22//65 26//65 25//65
f 23//74 27//76 26//74
f 23//62 24//62 27//62
f 24//75 25//75 28//77
f 26//65 29//65 25//65
f 29//76 26//74 27//76
f 24//62 28//62 27//62
f 30//77 28//77 25//75
f 25//65 29//65 30//65
f 27//76 31//78 29//76
f 27//62 28//62 31//62
f 28//77 30//77 32//79
f 29//65 33//65 30//65
f 33//78 29//76 31//78
f 31//62 28//62 34//62
f 35//79 32//79 30//77
f 28//62 32//62 34//62
f 33//65 36//65 30//65
f 31//78 34//80 33//78
f 32//79 35//79 37//81
f 30//65 36//65 35//65
f 38//62 34//62 32//62
f 36//80 33//78 34//80
f 39//81 37//81 35//79
f 32//62 37//62 40//62
f 41//65 35//65 36//65
f 34//80 38//82 36//80
f 38//62 32//62 40//62
f 37//81 39//81 42//83
f 35//65 43//65 39//65
f 37//62 42//62 40//62
f 41//65 43//65 35//65
f 41//82 36//80 38//82
f 44//62 38//62 40//62
f 45//83 42//83 39//81
f 39//65 43//65 45//65
f 40//62 42//62 46//62
f 47//65 43//65 41//65
f 38//82 48//84 41//82
f 48//62 38//62 44//62
f 40//85 43//85 44//86
f 42//83 45//83 49//87
f 43//65 50//65 45//65
f 42//62 49//62 46//62
f 46//88 50//88 40//85
f 47//86 44//86 43//85
f 51//65 47//65 41//65
f 51//84 41//82 48//84
f 52//62 48//62 44//62
f 43//85 40//85 50//88
f 53//87 49//87 45//83
f 45//65 50//65 53//65
f 46//62 49//62 54//62
f 50//88 46//88 55//89
f 44//86 47//86 56//90
f 57//65 47//65 51//65
f 48//84 52//91 51//84
f 56//62 52//62 44//62
f 49//87 53//87 58//92
f 50//65 55//65 53//65
f 49//62 58//62 54//62
f 54//89 55//89 46//88
f 59//90 56//90 47//86
f 59//65 47//65 57//65
f 57//91 51//84 52//91
f 60//62 52//62 56//62
f 61//92 58//92 53//87
f 53//65 55//65 61//65
f 62//62 54//62 58//62
f 55//89 54//89 63//93
f 56//90 59//90 64//94
f 65//65 59//65 57//65
f 52//91 60//95 57//91
f 66//62 60//62 56//62
f 58//92 61//92 62//93
f 63//65 61//65 55//65
f 62//93 63//93 54//89
f 67//94 64//94 59//90
f 64//62 68//62 56//62
f 69//65 59//65 65//65
f 65//95 57//91 60//95
f 60//95 66//96 65//95
f 68//62 66//62 56//62
f 63//93 62//93 61//92
f 64//94 67//94 70//97
f 67//65 59//65 71//65
f 70//62 68//62 64//62
f 71//65 59//65 69//65
f 69//96 65//95 66//96
f 66//96 68//98 69//96
f 72//97 70//97 67//94
f 72//65 67//65 71//65
f 73//62 68//62 70//62
f 71//98 69//96 68//98
f 70//97 72//97 74//99
f 75//65 72//65 71//65
f 68//98 73//100 71//98
f 74//62 73//62 70//62
f 76//99 74//99 72//97
f 76//65 72//65 75//65
f 75//100 71//98 73//100
f 77//62 73//62 74//62
f 74//99 76//99 78//101
f 79//65 76//65 75//65
f 73//100 77//102 75//100
f 78//62 77//62 74//62
f 80//101 78//101 76//99
f 80//65 76//65 79//65
f 79//102 75//100 77//102
f 81//62 77//62 78//62
f 78//101 80//101 81//103
f 82//65 80//65 79//65
f 77//102 83//104 79//102
f 77//62 81//62 84//62
f 82//103 81//103 80//101
f 79//65 85//65 82//65
f 86//104 79//102 83//104
f 83//62 77//62 84//62
f 81//62 87//62 84//62
f 81//103 82//103 87//105
f 82//65 85//65 88//65
f 86//65 85//65 79//65
f 83//104 89//106 86//104
f 89//62 83//62 84//62
f 87//62 90//62 84//62
f 88//105 87//105 82//103
f 88//65 85//65 91//65
f 92//65 85//65 86//65
f 92//106 86//104 89//106
f 93//62 89//62 84//62
f 84//62 90//62 94//62
f 87//105 88//105 90//107
f 85//65 95//65 91//65
f 91//107 90//107 88//105
f 96//65 85//65 92//65
f 89//106 97//108 92//106
f 97//62 89//62 93//62
f 93//109 84//110 96//109
f 94//62 90//62 98//62
f 84//110 94//111 85//110
f 95//65 99//65 91//65
f 95//111 85//110 94//111
f 90//107 91//107 100//112
f 85//110 96//109 84//110
f 101//65 96//65 92//65
f 101//108 92//106 97//108
f 97//108 93//109 101//108
f 96//109 101//108 93//109
f 98//62 90//62 102//62
f 98//113 99//113 94//114
f 99//65 103//65 91//65
f 95//114 94//114 99//113
f 104//112 100//112 91//107
f 100//62 102//62 90//62
f 102//115 103//115 98//113
f 99//113 98//113 103//115
f 104//65 91//65 103//65
f 100//116 104//116 102//115
f 103//115 102//115 104//116
