# SSTK version 0.8.0
# 58
mtllib original-58.mtl
o mesh46/mesh46-geometry#mesh46-geometry
v 0.071872 0.436494 0.363472
v 0.078716 0.435158 0.362903
v 0.078680 0.436629 0.362844
v 0.071907 0.435023 0.363535
v 0.078663 0.436620 0.362656
v 0.078698 0.435149 0.362714
v 0.070405 0.429302 0.363939
v 0.071855 0.436485 0.363284
v 0.071890 0.435014 0.363347
v 0.072009 0.430805 0.363719
v 0.071782 0.440267 0.363316
v 0.071764 0.440258 0.363127
v 0.079604 0.429484 0.363074
v 0.070107 0.441705 0.363404
v 0.071991 0.430796 0.363531
v 0.079569 0.430954 0.363009
v 0.079587 0.429475 0.362886
v 0.079035 0.440402 0.362473
v 0.079053 0.440411 0.362661
v 0.070089 0.441696 0.363216
v 0.079552 0.430946 0.362821
v 0.070387 0.429293 0.363751
v 0.079018 0.441882 0.362610
v 0.079000 0.441873 0.362422
vn 0.0953737885845454 0.04364600296642272 0.9944842215319887
vn 0.09125812372551505 0.0430880128069229 0.9948946567383147
vn 0.09098089432899785 0.04162798817521801 0.9949822045984439
vn 0.0938165406601126 0.04503201910823829 0.9945705474995752
vn 0.09566596800104246 0.044855974168349244 0.9944023150354346
vn 0.09261337830039582 0.04588699912250313 0.9946442306027413
vn 0.09382194436725885 0.04374600599361903 0.9946274326172354
vn 0.08924518037359408 0.04147299790886951 0.9951458627882325
vn 0.08833143504945924 0.03964400949123313 0.995301919064543
vn 0.08794963273857317 0.03692701854735694 0.995440232963463
vn -0.09098089432899785 -0.04162798817521801 -0.9949822045984439
vn -0.09125812372551505 -0.0430880128069229 -0.9948946567383147
vn -0.0953737885845454 -0.04364600296642272 -0.9944842215319887
vn -0.0938165406601126 -0.04503201910823829 -0.9945705474995752
vn -0.9954027438932973 -0.020170994276269373 0.09362963440920571
vn 0.02392456275193684 -0.9986911993482707 0.04520512848605742
vn -0.023918160742461968 0.9987080024198696 -0.04483578357976693
vn -0.09566596800104246 -0.044855974168349244 -0.9944023150354346
vn -0.09261337830039582 -0.04588699912250313 -0.9946442306027413
vn -0.09382194436725885 -0.04374600599361903 -0.9946274326172354
vn -0.9954060362445486 -0.020005988539562716 0.0936300348738107
vn -0.995412535320249 -0.019826011158815757 0.09359921906108161
vn -0.08924518037359408 -0.04147299790886951 -0.9951458627882325
vn -0.023974792718690532 0.9987069857674269 -0.04482818191089717
vn -0.023816510729378123 0.9986932356986222 -0.04521719569470751
vn -0.08833143504945924 -0.03964400949123313 -0.995301919064543
vn 0.9954118556854871 0.01986699983191522 -0.09359775573406535
vn 0.023982064289618524 -0.9986983938717438 0.045015315953661976
vn -0.9954123496188202 -0.019772000504136567 0.09361261785894183
vn -0.08794963273857317 -0.03692701854735694 -0.995440232963463
vn 0.02376627379883248 -0.9987026566535759 0.04503518427639159
vn -0.9953913339558423 -0.020587001572486684 0.09366038464507366
vn 0.9954027438932973 0.020170994276269373 -0.09362963440920571
vn -0.02392456275193684 0.9986911993482707 -0.04520512848605742
vn 0.023918160742461968 -0.9987080024198696 0.04483578357976693
vn 0.9954060362445486 0.020005988539562716 -0.0936300348738107
vn 0.995412535320249 0.019826011158815757 -0.09359921906108161
vn 0.023974792718690532 -0.9987069857674269 0.04482818191089717
vn 0.023816510729378123 -0.9986932356986222 0.04521719569470751
vn -0.9954118556854871 -0.01986699983191522 0.09359775573406535
vn -0.023982064289618524 0.9986983938717438 -0.045015315953661976
vn 0.9954123496188202 0.019772000504136567 -0.09361261785894183
vn -0.02376627379883248 0.9987026566535759 -0.04503518427639159
vn 0.9953913339558423 0.020587001572486684 -0.09366038464507366
usemtl material_0_0
f 1//1 2//2 3//3
f 4//4 2//2 1//1
f 7//5 4//4 1//1
f 7//5 10//6 4//4
f 7//5 1//1 11//7
f 13//6 10//6 7//5
f 7//5 11//7 14//8
f 10//6 13//6 16//6
f 14//8 11//7 19//9
f 14//8 19//9 23//10
usemtl material_1_0
f 3//11 2//12 1//13
f 1//13 2//12 4//14
f 3//15 5//15 2//15
f 3//16 1//16 5//16
f 2//17 6//17 4//17
f 1//13 4//14 7//18
f 6//15 2//15 5//15
f 8//16 5//16 1//16
f 9//17 4//17 6//17
f 4//14 10//19 7//18
f 11//20 1//13 7//18
f 8//21 1//21 12//21
f 4//22 9//22 10//22
f 7//18 10//19 13//19
f 11//21 12//21 1//21
f 14//23 11//20 7//18
f 15//22 10//22 9//22
f 16//19 13//19 10//19
f 13//24 17//24 7//24
f 12//25 11//25 18//25
f 19//26 11//20 14//23
f 14//27 7//27 20//27
f 15//28 21//28 10//28
f 16//29 21//29 13//29
f 16//28 10//28 21//28
f 22//24 7//24 17//24
f 17//29 13//29 21//29
f 19//25 18//25 11//25
f 23//30 19//26 14//23
f 22//27 20//27 7//27
f 20//31 24//31 14//31
f 18//32 19//32 24//32
f 23//32 24//32 19//32
f 23//31 14//31 24//31
usemtl material_2_0
f 2//33 5//33 3//33
f 5//34 1//34 3//34
f 4//35 6//35 2//35
f 5//33 2//33 6//33
f 1//34 5//34 8//34
f 6//35 4//35 9//35
f 12//36 1//36 8//36
f 10//37 9//37 4//37
f 1//36 12//36 11//36
f 9//37 10//37 15//37
f 7//38 17//38 13//38
f 18//39 11//39 12//39
f 20//40 7//40 14//40
f 10//41 21//41 15//41
f 13//42 21//42 16//42
f 21//41 10//41 16//41
f 17//38 7//38 22//38
f 21//42 13//42 17//42
f 11//39 18//39 19//39
f 7//40 20//40 22//40
f 14//43 24//43 20//43
f 24//44 19//44 18//44
f 19//44 24//44 23//44
f 24//43 14//43 23//43
