# SSTK version 0.8.0
# 27
mtllib original-27.mtl
o mesh20/mesh20-geometry#mesh20-geometry
v -0.028017 0.507913 0.362182
v -0.026760 0.506326 0.364018
v -0.026769 0.506285 0.362213
v -0.028008 0.507955 0.363986
v -0.027211 0.505560 0.364038
v -0.027220 0.505518 0.362234
v -0.029234 0.509514 0.362151
v -0.028138 0.504964 0.362251
v -0.029225 0.509555 0.363955
v -0.028129 0.505006 0.364055
v -0.030396 0.511065 0.362121
v -0.029250 0.504851 0.362259
v -0.029241 0.504892 0.364063
v -0.030387 0.511107 0.363925
v -0.031475 0.512544 0.362092
v -0.030501 0.506483 0.362228
v -0.031466 0.512586 0.363896
v -0.030492 0.506525 0.364032
v -0.032445 0.513927 0.362065
v -0.031728 0.508095 0.362197
v -0.032436 0.513969 0.363869
v -0.031719 0.508137 0.364001
v -0.033279 0.515186 0.362040
v -0.032904 0.509667 0.362166
v -0.033269 0.515228 0.363844
v -0.032895 0.509709 0.363970
v -0.033919 0.516239 0.362019
v -0.034007 0.511178 0.362137
v -0.033910 0.516281 0.363823
v -0.033998 0.511220 0.363941
v -0.034476 0.517417 0.361995
v -0.035011 0.512609 0.362109
v -0.034467 0.517459 0.363799
v -0.035002 0.512651 0.363913
v -0.034759 0.518473 0.361972
v -0.035891 0.513940 0.362082
v -0.034750 0.518514 0.363776
v -0.034814 0.519411 0.361950
v -0.035882 0.513982 0.363886
v -0.035948 0.523275 0.361866
v -0.034805 0.519453 0.363754
v -0.035939 0.523317 0.363670
v -0.036623 0.515149 0.362058
v -0.036924 0.522175 0.361897
v -0.034668 0.520207 0.361931
v -0.036915 0.522217 0.363701
v -0.036614 0.515191 0.363862
v -0.034659 0.520249 0.363735
v -0.034588 0.524188 0.361838
v -0.037318 0.516637 0.362027
v -0.037523 0.520967 0.363733
v -0.034579 0.524230 0.363642
v -0.034349 0.520871 0.361914
v -0.037309 0.516679 0.363831
v -0.037533 0.520926 0.361929
v -0.034340 0.520912 0.363718
v -0.033839 0.521446 0.361898
v -0.037713 0.518120 0.361995
v -0.037781 0.519603 0.363766
v -0.037704 0.518162 0.363799
v -0.033829 0.521488 0.363702
v -0.029389 0.526884 0.361750
v -0.032909 0.522049 0.361879
v -0.037790 0.519561 0.361962
v -0.032900 0.522091 0.363684
v -0.029379 0.526926 0.363554
v -0.027954 0.527789 0.361722
v -0.027945 0.527831 0.363526
v -0.027746 0.524723 0.361792
v -0.027737 0.524765 0.363596
v -0.026818 0.528834 0.361692
v -0.026809 0.528876 0.363496
v -0.025985 0.525845 0.361757
v -0.025976 0.525887 0.363561
v -0.025991 0.529970 0.361661
v -0.025982 0.530012 0.363465
v -0.024464 0.527246 0.361717
v -0.025481 0.531150 0.361631
v -0.025472 0.531192 0.363435
v -0.024455 0.527288 0.363521
v -0.025296 0.532327 0.361603
v -0.025287 0.532369 0.363407
v -0.023322 0.528817 0.361674
v -0.025446 0.533453 0.361578
v -0.023313 0.528859 0.363479
v -0.026306 0.539724 0.361437
v -0.025437 0.533494 0.363382
v -0.022591 0.530516 0.361631
v -0.026297 0.539765 0.363241
v -0.023302 0.535687 0.361515
v -0.025939 0.534480 0.361557
v -0.022581 0.530558 0.363436
v -0.023293 0.535729 0.363319
v -0.025930 0.534521 0.363361
v -0.028806 0.538314 0.361482
v -0.022315 0.532300 0.361589
v -0.022561 0.534105 0.361548
v -0.022552 0.534147 0.363352
v -0.028797 0.538356 0.363286
v -0.027518 0.539643 0.361445
v -0.022306 0.532342 0.363393
v -0.027508 0.539684 0.363249
v -0.028414 0.539087 0.361462
v -0.028405 0.539129 0.363266
vn 0.7948511513882074 0.6065362517338254 -0.018039469768328646
vn 0.7937474683115497 0.6079789233259589 -0.018071672319218565
vn 0.7110068179532698 -0.7030702058280511 0.012711825237461737
vn 0.8618230131266826 -0.5071548770532472 0.007417865350050843
vn -0.005036172609183596 -0.023147009651448818 -0.9997193870830186
vn 0.7982533877989775 0.6020539469813255 -0.017960339408327614
vn 0.31690411093563364 -0.9482389614393892 0.020363115686065945
vn 0.8042356853611285 0.5940432063415375 -0.017822216225294823
vn 0.10174969295553085 -0.9945552935793396 0.02251150809628373
vn 0.8133192891076028 0.5815520084822268 -0.017578264868621088
vn -0.7937398389824862 -0.6079892439344535 0.018059547947515162
vn -0.7948517363031442 -0.6065358886858145 0.018025898923113702
vn 0.8263787326848333 0.5628520168132343 -0.017198759707703414
vn -0.798262732144534 -0.6020421493868442 0.01794048022803603
vn 0.8443133952977723 0.5355907400280671 -0.016656821933826213
vn -0.8042480778522496 -0.5940270116375833 0.017802772702149423
vn 0.8804587960147582 0.47387212409338325 -0.015411636106127804
vn -0.8133493875969793 -0.5815101335851046 0.017570948564379633
vn 0.9386680188023707 0.3445879551282762 -0.012707936817012247
vn -0.8264521780725866 -0.5627440207044784 0.01720361939927123
vn 0.9871962608229072 0.15927493697834427 -0.008662393884765033
vn -0.8450053816281442 -0.534498670197051 0.016645617352883897
vn 0.9981014365341394 -0.06148601627286047 -0.0036044682521564494
vn -0.8820469756607894 -0.47091095346316914 0.015362507479707469
vn -0.8313724002645164 0.555648013615599 -0.008672775994791354
vn -0.6580735134777734 0.7528214459123274 -0.01411103941925345
vn 0.9510051759054196 -0.30916587407089097 0.002370171108584917
vn -0.9398453256599195 -0.34136612173442366 0.012646531824915432
vn -0.9493575326971055 0.3141879600905911 -0.0024901496696967586
vn -0.5097767432966258 0.8601319373613239 -0.017341347264318706
vn 0.832644405136619 -0.5537407663053875 0.008628923815202243
vn -0.9877367904693496 -0.15589200129873623 0.008585842089332824
vn -0.9977766052154797 0.06655598253261762 0.0034852939317095524
vn -0.49757029207894715 0.8672457370264158 -0.01756804058454089
vn 0.6520960000327451 -0.7580021524838971 0.014266869701260362
vn 0.5028605178261222 -0.8641909048430804 0.017475113680380502
vn -0.6079991556744305 0.7937900083058216 -0.01531174101868086
vn 0.49926585978821497 -0.8662712816789814 0.017540461458852408
vn -0.7464916802174391 0.6652929234716919 -0.011640332668539604
vn 0.6098535460952373 -0.7923671253354532 0.015264042803087104
vn -0.868501347542987 0.4956360546822898 -0.007092997602561398
vn 0.7469262348995704 -0.6648055284782035 0.01161072450660724
vn -0.960536924879598 0.2781479378848439 -0.0015939238547548165
vn 0.8691211359660593 -0.49454884901302293 0.007063069938834028
vn -0.9999188229501075 0.011816998675349973 0.004765086817532066
vn -0.9582839146322126 -0.28558906187944544 0.0114379496405879
vn 0.961121612869715 -0.27612105843412516 0.001551245930238847
vn 0.8022863841918383 0.596672191708121 -0.01785646612892533
vn 0.858318376798379 0.5128618772852455 -0.016194408839165963
vn -0.8552766456157243 -0.5179151320758852 0.01630262037628001
vn 0.9999484775100825 -0.008927001232131575 -0.004832284580739541
vn 0.9591810694730876 0.2825638827662473 -0.011372252218732403
vn -0.8009034737574174 -0.5985258264846947 0.01790141765656732
vn -0.06691639795582535 0.9974995172365513 -0.022735628371892008
vn -0.30591769898416704 0.9518379928964329 -0.020464523623150623
vn -0.8918518896410644 0.45228814332809997 -0.005970121312232214
vn -0.7366695191503718 0.6761479025775743 -0.011917776416211053
vn -0.7937474683115497 -0.6079789233259589 0.018071672319218565
vn -0.7948511513882074 -0.6065362517338254 0.018039469768328646
vn -0.8618230131266826 0.5071548770532472 -0.007417865350050843
vn -0.7110068179532698 0.7030702058280511 -0.012711825237461737
vn 0.005036172609183596 0.023147009651448818 0.9997193870830186
vn -0.7982533877989775 -0.6020539469813255 0.017960339408327614
vn -0.005036818212074148 -0.023146991979557312 -0.9997193842396959
vn -0.31690411093563364 0.9482389614393892 -0.020363115686065945
vn -0.8042356853611285 -0.5940432063415375 0.017822216225294823
vn -0.10174969295553085 0.9945552935793396 -0.02251150809628373
vn -0.8133192891076028 -0.5815520084822268 0.017578264868621088
vn 0.7937398389824862 0.6079892439344535 -0.018059547947515162
vn 0.7948517363031442 0.6065358886858145 -0.018025898923113702
vn -0.8263787326848333 -0.5628520168132343 0.017198759707703414
vn 0.798262732144534 0.6020421493868442 -0.01794048022803603
vn -0.8443133952977723 -0.5355907400280671 0.016656821933826213
vn 0.8042480778522496 0.5940270116375833 -0.017802772702149423
vn -0.8804587960147582 -0.47387212409338325 0.015411636106127804
vn 0.8133493875969793 0.5815101335851046 -0.017570948564379633
vn -0.9386680188023707 -0.3445879551282762 0.012707936817012247
vn 0.8264521780725866 0.5627440207044784 -0.01720361939927123
vn -0.9871962608229072 -0.15927493697834427 0.008662393884765033
vn 0.8450053816281442 0.534498670197051 -0.016645617352883897
vn -0.9981014365341394 0.06148601627286047 0.0036044682521564494
vn 0.8820469756607894 0.47091095346316914 -0.015362507479707469
vn 0.8313724002645164 -0.555648013615599 0.008672775994791354
vn 0.6580735134777734 -0.7528214459123274 0.01411103941925345
vn -0.9510051759054196 0.30916587407089097 -0.002370171108584917
vn 0.9398453256599195 0.34136612173442366 -0.012646531824915432
vn 0.9493575326971055 -0.3141879600905911 0.0024901496696967586
vn 0.5097767432966258 -0.8601319373613239 0.017341347264318706
vn -0.832644405136619 0.5537407663053875 -0.008628923815202243
vn 0.9877367904693496 0.15589200129873623 -0.008585842089332824
vn 0.9977766052154797 -0.06655598253261762 -0.0034852939317095524
vn 0.49757029207894715 -0.8672457370264158 0.01756804058454089
vn -0.6520960000327451 0.7580021524838971 -0.014266869701260362
vn -0.5028605178261222 0.8641909048430804 -0.017475113680380502
vn 0.6079991556744305 -0.7937900083058216 0.01531174101868086
vn -0.49926585978821497 0.8662712816789814 -0.017540461458852408
vn 0.7464916802174391 -0.6652929234716919 0.011640332668539604
vn -0.6098535460952373 0.7923671253354532 -0.015264042803087104
vn 0.868501347542987 -0.4956360546822898 0.007092997602561398
vn -0.7469262348995704 0.6648055284782035 -0.01161072450660724
vn 0.960536924879598 -0.2781479378848439 0.0015939238547548165
vn -0.8691211359660593 0.49454884901302293 -0.007063069938834028
vn 0.9999188229501075 -0.011816998675349973 -0.004765086817532066
vn 0.9582839146322126 0.28558906187944544 -0.0114379496405879
vn -0.961121612869715 0.27612105843412516 -0.001551245930238847
vn -0.858318376798379 -0.5128618772852455 0.016194408839165963
vn -0.8022863841918383 -0.596672191708121 0.01785646612892533
vn 0.8552766456157243 0.5179151320758852 -0.01630262037628001
vn -0.9999484775100825 0.008927001232131575 0.004832284580739541
vn -0.9591810694730876 -0.2825638827662473 0.011372252218732403
vn 0.8009034737574174 0.5985258264846947 -0.01790141765656732
vn 0.06691639795582535 -0.9974995172365513 0.022735628371892008
vn 0.30591769898416704 -0.9518379928964329 0.020464523623150623
vn 0.8918518896410644 -0.45228814332809997 0.005970121312232214
vn 0.7366695191503718 -0.6761479025775743 0.011917776416211053
vn 0.005036818212074148 0.023146991979557312 0.9997193842396959
usemtl material_0_0
f 1//1 2//2 3//2
f 2//2 1//1 4//1
f 5//3 3//4 2//4
f 6//5 1//5 3//5
f 7//6 4//1 1//1
f 3//4 5//3 6//3
f 1//5 6//5 8//5
f 4//1 7//6 9//6
f 1//5 8//5 7//5
f 10//7 6//3 5//3
f 6//3 10//7 8//7
f 11//8 9//6 7//6
f 7//5 8//5 12//5
f 13//9 8//7 10//7
f 9//6 11//8 14//8
f 7//5 12//5 11//5
f 8//7 13//9 12//9
f 15//10 14//8 11//8
f 11//5 12//5 16//5
f 13//11 16//12 12//11
f 14//8 15//10 17//10
f 11//5 16//5 15//5
f 16//12 13//11 18//12
f 19//13 17//10 15//10
f 15//5 16//5 20//5
f 18//12 20//14 16//12
f 17//10 19//13 21//13
f 15//5 20//5 19//5
f 20//14 18//12 22//14
f 23//15 21//13 19//13
f 19//5 20//5 24//5
f 22//14 24//16 20//14
f 21//13 23//15 25//15
f 19//5 24//5 23//5
f 24//16 22//14 26//16
f 27//17 25//15 23//15
f 23//5 24//5 28//5
f 26//16 28//18 24//16
f 25//15 27//17 29//17
f 23//5 28//5 27//5
f 28//18 26//16 30//18
f 31//19 29//17 27//17
f 27//5 28//5 31//5
f 30//18 32//20 28//18
f 29//17 31//19 33//19
f 31//5 28//5 32//5
f 32//20 30//18 34//20
f 35//21 33//19 31//19
f 31//5 32//5 35//5
f 34//20 36//22 32//20
f 33//19 35//21 37//21
f 35//5 32//5 38//5
f 36//22 34//20 39//22
f 40//5 32//5 36//5
f 38//23 37//21 35//21
f 40//5 38//5 32//5
f 39//22 43//24 36//22
f 40//5 36//5 44//5
f 37//21 38//23 41//23
f 40//5 45//5 38//5
f 43//24 39//22 47//24
f 44//5 36//5 43//5
f 46//25 40//26 44//25
f 45//27 41//23 38//23
f 49//5 45//5 40//5
f 40//26 46//25 42//26
f 47//24 50//28 43//24
f 44//5 43//5 50//5
f 44//25 51//29 46//25
f 41//23 45//27 48//27
f 49//5 53//5 45//5
f 42//26 49//30 40//26
f 50//28 47//24 54//28
f 44//5 50//5 55//5
f 51//29 44//25 55//29
f 53//31 48//27 45//27
f 49//30 42//26 52//30
f 49//5 57//5 53//5
f 54//28 58//32 50//28
f 55//5 50//5 58//5
f 55//29 59//33 51//29
f 48//27 53//31 56//31
f 52//30 62//34 49//30
f 49//5 63//5 57//5
f 57//35 56//31 53//31
f 58//32 54//28 60//32
f 55//5 58//5 64//5
f 59//33 55//29 64//33
f 56//31 57//35 61//35
f 62//34 52//30 66//34
f 62//5 63//5 49//5
f 63//36 61//35 57//35
f 60//32 64//33 58//32
f 64//33 60//32 59//33
f 61//35 63//36 65//36
f 66//34 67//37 62//34
f 67//5 63//5 62//5
f 69//38 65//36 63//36
f 67//37 66//34 68//37
f 67//5 69//5 63//5
f 65//36 69//38 70//38
f 68//37 71//39 67//37
f 71//5 69//5 67//5
f 73//40 70//38 69//38
f 71//39 68//37 72//39
f 71//5 73//5 69//5
f 70//38 73//40 74//40
f 72//39 75//41 71//39
f 75//5 73//5 71//5
f 77//42 74//40 73//40
f 75//41 72//39 76//41
f 78//5 73//5 75//5
f 74//40 77//42 80//42
f 73//5 81//5 77//5
f 76//41 78//43 75//41
f 81//5 73//5 78//5
f 78//43 76//41 79//43
f 83//44 80//42 77//42
f 84//5 77//5 81//5
f 79//43 81//45 78//43
f 81//45 79//43 82//45
f 80//42 83//44 85//44
f 86//5 83//5 77//5
f 86//5 77//5 84//5
f 82//45 84//46 81//45
f 88//47 85//44 83//44
f 90//5 83//5 86//5
f 84//46 82//45 87//46
f 86//5 84//5 91//5
f 85//44 88//47 92//47
f 90//5 88//5 83//5
f 86//48 93//49 90//49
f 87//46 91//50 84//46
f 86//5 91//5 95//5
f 96//51 92//47 88//47
f 97//5 88//5 90//5
f 93//49 86//48 89//48
f 98//52 90//49 93//49
f 91//50 87//46 94//50
f 94//50 95//53 91//50
f 86//5 95//5 100//5
f 92//47 96//51 101//51
f 88//5 97//5 96//5
f 90//49 98//52 97//52
f 86//54 102//55 89//54
f 95//53 94//50 99//53
f 100//5 95//5 103//5
f 102//55 86//54 100//55
f 97//52 101//51 96//51
f 101//51 97//52 98//52
f 99//56 103//57 95//56
f 104//57 100//55 103//57
f 100//55 104//57 102//55
f 103//57 99//56 104//57
usemtl material_1_0
f 3//58 2//58 1//59
f 4//59 1//59 2//58
f 2//60 3//60 5//61
f 3//62 1//62 6//62
f 1//59 4//59 7//63
f 2//64 5//64 4//64
f 6//61 5//61 3//60
f 8//62 6//62 1//62
f 9//63 7//63 4//59
f 7//62 8//62 1//62
f 10//64 4//64 5//64
f 5//61 6//61 10//65
f 8//65 10//65 6//61
f 7//63 9//63 11//66
f 9//64 4//64 10//64
f 12//62 8//62 7//62
f 10//65 8//65 13//67
f 14//66 11//66 9//63
f 11//62 12//62 7//62
f 13//64 9//64 10//64
f 12//67 13//67 8//65
f 11//66 14//66 15//68
f 14//64 9//64 13//64
f 16//62 12//62 11//62
f 12//69 16//70 13//69
f 17//68 15//68 14//66
f 15//62 16//62 11//62
f 18//64 14//64 13//64
f 18//70 13//69 16//70
f 15//68 17//68 19//71
f 17//64 14//64 18//64
f 20//62 16//62 15//62
f 16//70 20//72 18//70
f 21//71 19//71 17//68
f 19//62 20//62 15//62
f 22//64 17//64 18//64
f 22//72 18//70 20//72
f 19//71 21//71 23//73
f 21//64 17//64 22//64
f 24//62 20//62 19//62
f 20//72 24//74 22//72
f 25//73 23//73 21//71
f 23//62 24//62 19//62
f 26//64 21//64 22//64
f 26//74 22//72 24//74
f 23//73 25//73 27//75
f 25//64 21//64 26//64
f 28//62 24//62 23//62
f 24//74 28//76 26//74
f 29//75 27//75 25//73
f 27//62 28//62 23//62
f 30//64 25//64 26//64
f 30//76 26//74 28//76
f 27//75 29//75 31//77
f 29//64 25//64 30//64
f 31//62 28//62 27//62
f 28//76 32//78 30//76
f 33//77 31//77 29//75
f 33//64 29//64 30//64
f 32//62 28//62 31//62
f 34//78 30//76 32//78
f 31//77 33//77 35//79
f 34//64 33//64 30//64
f 35//62 32//62 31//62
f 32//78 36//80 34//78
f 37//79 35//79 33//77
f 37//64 33//64 34//64
f 38//62 32//62 35//62
f 39//80 34//78 36//80
f 36//62 32//62 40//62
f 35//79 37//79 38//81
f 41//64 37//64 34//64
f 32//62 38//62 40//62
f 39//64 42//64 34//64
f 36//80 43//82 39//80
f 44//62 36//62 40//62
f 41//81 38//81 37//79
f 34//64 42//64 41//64
f 38//62 45//62 40//62
f 46//64 42//64 39//64
f 47//82 39//80 43//82
f 43//62 36//62 44//62
f 44//83 40//84 46//83
f 38//81 41//81 45//85
f 41//64 42//64 48//64
f 40//62 45//62 49//62
f 42//84 46//83 40//84
f 47//64 46//64 39//64
f 43//82 50//86 47//82
f 50//62 43//62 44//62
f 46//83 51//87 44//83
f 48//85 45//85 41//81
f 42//64 52//64 48//64
f 45//62 53//62 49//62
f 40//84 49//88 42//84
f 54//64 46//64 47//64
f 54//86 47//82 50//86
f 55//62 50//62 44//62
f 55//87 44//83 51//87
f 51//64 46//64 54//64
f 45//85 48//85 53//89
f 48//64 52//64 56//64
f 52//88 42//84 49//88
f 53//62 57//62 49//62
f 50//86 58//90 54//86
f 58//62 50//62 55//62
f 51//87 59//91 55//87
f 60//64 51//64 54//64
f 56//89 53//89 48//85
f 56//64 52//64 61//64
f 49//88 62//92 52//88
f 57//62 63//62 49//62
f 53//89 56//89 57//93
f 60//90 54//86 58//90
f 64//62 58//62 55//62
f 64//91 55//87 59//91
f 59//64 51//64 60//64
f 61//64 52//64 65//64
f 61//93 57//93 56//89
f 66//92 52//88 62//92
f 49//62 63//62 62//62
f 57//93 61//93 63//94
f 58//90 64//91 60//90
f 59//91 60//90 64//91
f 52//64 66//64 65//64
f 65//94 63//94 61//93
f 62//92 67//95 66//92
f 62//62 63//62 67//62
f 66//64 68//64 65//64
f 63//94 65//94 69//96
f 68//95 66//92 67//95
f 63//62 69//62 67//62
f 65//64 68//64 70//64
f 70//96 69//96 65//94
f 67//95 71//97 68//95
f 67//62 69//62 71//62
f 68//64 72//64 70//64
f 69//96 70//96 73//98
f 72//97 68//95 71//97
f 69//62 73//62 71//62
f 70//64 72//64 74//64
f 74//98 73//98 70//96
f 71//97 75//99 72//97
f 71//62 73//62 75//62
f 72//64 76//64 74//64
f 73//98 74//98 77//100
f 76//99 72//97 75//99
f 75//62 73//62 78//62
f 76//64 79//64 74//64
f 80//100 77//100 74//98
f 77//62 81//62 73//62
f 75//99 78//101 76//99
f 78//62 73//62 81//62
f 79//64 82//64 74//64
f 79//101 76//99 78//101
f 77//100 80//100 83//102
f 80//64 74//64 82//64
f 81//62 77//62 84//62
f 78//101 81//103 79//101
f 82//103 79//101 81//103
f 85//102 83//102 80//100
f 77//62 83//62 86//62
f 82//64 87//64 80//64
f 84//62 77//62 86//62
f 81//103 84//104 82//103
f 83//102 85//102 88//105
f 80//64 89//64 85//64
f 86//62 83//62 90//62
f 87//64 89//64 80//64
f 87//104 82//103 84//104
f 91//62 84//62 86//62
f 92//105 88//105 85//102
f 83//62 88//62 90//62
f 89//64 93//64 85//64
f 90//106 93//106 86//107
f 94//64 89//64 87//64
f 84//104 91//108 87//104
f 95//62 91//62 86//62
f 88//105 92//105 96//109
f 85//64 93//64 92//64
f 90//62 88//62 97//62
f 89//107 86//107 93//106
f 93//106 90//106 98//110
f 99//64 89//64 94//64
f 94//108 87//104 91//108
f 91//108 95//111 94//108
f 100//62 95//62 86//62
f 101//109 96//109 92//105
f 96//62 97//62 88//62
f 93//64 98//64 92//64
f 97//110 98//110 90//106
f 89//112 102//113 86//112
f 102//64 89//64 99//64
f 99//111 94//108 95//111
f 103//62 95//62 100//62
f 100//113 86//112 102//113
f 96//109 101//109 97//110
f 101//64 92//64 98//64
f 98//110 97//110 101//109
f 104//64 102//64 99//64
f 95//114 103//115 99//114
f 103//115 100//113 104//115
f 102//113 104//115 100//113
f 104//115 99//114 103//115
usemtl material_2_0
f 4//116 5//116 2//116
f 5//116 4//116 10//116
f 10//116 4//116 9//116
f 10//116 9//116 13//116
f 13//116 9//116 14//116
f 13//116 14//116 18//116
f 18//116 14//116 17//116
f 18//116 17//116 22//116
f 22//116 17//116 21//116
f 22//116 21//116 26//116
f 26//116 21//116 25//116
f 26//116 25//116 30//116
f 30//116 25//116 29//116
f 30//116 29//116 33//116
f 30//116 33//116 34//116
f 34//116 33//116 37//116
f 34//116 37//116 41//116
f 34//116 42//116 39//116
f 41//116 42//116 34//116
f 39//116 42//116 46//116
f 48//116 42//116 41//116
f 39//116 46//116 47//116
f 48//116 52//116 42//116
f 47//116 46//116 54//116
f 54//116 46//116 51//116
f 56//116 52//116 48//116
f 54//116 51//116 60//116
f 61//116 52//116 56//116
f 60//116 51//116 59//116
f 65//116 52//116 61//116
f 65//116 66//116 52//116
f 65//116 68//116 66//116
f 70//116 68//116 65//116
f 70//116 72//116 68//116
f 74//116 72//116 70//116
f 74//116 76//116 72//116
f 74//116 79//116 76//116
f 74//116 82//116 79//116
f 82//116 74//116 80//116
f 80//116 87//116 82//116
f 85//116 89//116 80//116
f 80//116 89//116 87//116
f 85//116 93//116 89//116
f 87//116 89//116 94//116
f 92//116 93//116 85//116
f 94//116 89//116 99//116
f 92//116 98//116 93//116
f 99//116 89//116 102//116
f 98//116 92//116 101//116
f 99//116 102//116 104//116
