# SSTK version 0.8.0
# 73
mtllib original-73.mtl
o mesh59/mesh59-geometry#mesh59-geometry
v 0.392695 0.481237 0.296957
v 0.401955 0.481384 0.296665
v 0.401509 0.481504 0.296672
v 0.401688 0.478329 0.296852
v 0.401953 0.481384 0.296298
v 0.401212 0.481979 0.296653
v 0.402163 0.478892 0.296804
v 0.401391 0.477973 0.296882
v 0.401507 0.481504 0.296305
v 0.402339 0.480998 0.296309
v 0.401210 0.481979 0.296287
v 0.400644 0.492630 0.296047
v 0.402282 0.480079 0.296731
v 0.402161 0.478892 0.296438
v 0.401392 0.476757 0.296954
v 0.401686 0.478329 0.296486
v 0.402341 0.480998 0.296676
v 0.401208 0.489396 0.295852
v 0.401001 0.491769 0.296087
v 0.399813 0.492720 0.296068
v 0.402280 0.480079 0.296365
v 0.401184 0.476431 0.296979
v 0.401389 0.477973 0.296516
v 0.401210 0.489396 0.296219
v 0.400642 0.492630 0.295680
v 0.392358 0.488756 0.296526
v 0.400293 0.476403 0.297009
v 0.401390 0.476757 0.296587
v 0.400999 0.491769 0.295720
v 0.399811 0.492720 0.295701
v 0.399278 0.492870 0.296076
v 0.392269 0.488133 0.296565
v 0.395273 0.476469 0.297158
v 0.401182 0.476431 0.296612
v 0.398476 0.493672 0.296053
v 0.392569 0.482370 0.296894
v 0.392267 0.488133 0.296199
v 0.394797 0.477063 0.297138
v 0.400291 0.476403 0.296642
v 0.399276 0.492870 0.295709
v 0.398059 0.494562 0.296014
v 0.392107 0.483042 0.296868
v 0.392694 0.481237 0.296590
v 0.392356 0.488756 0.296160
v 0.391616 0.487392 0.296628
v 0.394470 0.477598 0.297117
v 0.395271 0.476469 0.296792
v 0.398474 0.493672 0.295687
v 0.398058 0.494562 0.295647
v 0.397138 0.495602 0.295981
v 0.392567 0.482370 0.296527
v 0.392358 0.480189 0.296661
v 0.392180 0.489142 0.296509
v 0.391614 0.487392 0.296262
v 0.393668 0.477748 0.297132
v 0.394795 0.477063 0.296771
v 0.396039 0.496049 0.295988
v 0.392105 0.483042 0.296502
v 0.391183 0.483421 0.296874
v 0.392360 0.480189 0.297028
v 0.392178 0.489142 0.296142
v 0.391435 0.495996 0.296130
v 0.390962 0.486830 0.296681
v 0.392985 0.477511 0.297166
v 0.394468 0.477598 0.296750
v 0.397136 0.495602 0.295614
v 0.393900 0.496171 0.296046
v 0.391772 0.479476 0.297087
v 0.392837 0.476681 0.297219
v 0.391466 0.489558 0.296506
v 0.390960 0.486830 0.296314
v 0.393666 0.477748 0.296765
v 0.396037 0.496049 0.295622
v 0.391181 0.483421 0.296507
v 0.390174 0.483297 0.296911
v 0.391770 0.479476 0.296721
v 0.392183 0.476326 0.297260
v 0.391465 0.489558 0.296139
v 0.393898 0.496171 0.295679
v 0.389267 0.495525 0.296221
v 0.389121 0.486120 0.296776
v 0.392983 0.477511 0.296800
v 0.390890 0.479394 0.297118
v 0.385113 0.476514 0.297455
v 0.392835 0.476681 0.296853
v 0.390486 0.489619 0.296531
v 0.391433 0.495996 0.295763
v 0.389119 0.486120 0.296410
v 0.390173 0.483297 0.296544
v 0.389250 0.482291 0.296997
v 0.390888 0.479394 0.296752
v 0.392181 0.476326 0.296893
v 0.390484 0.489619 0.296165
v 0.389265 0.495525 0.295855
v 0.388674 0.489533 0.296590
v 0.387101 0.485382 0.296878
v 0.389881 0.479655 0.297133
v 0.385112 0.476514 0.297088
v 0.387039 0.494490 0.296347
v 0.387099 0.485382 0.296512
v 0.389249 0.482291 0.296630
v 0.389083 0.481201 0.297066
v 0.389879 0.479655 0.296766
v 0.389335 0.480193 0.297117
v 0.384103 0.477139 0.297447
v 0.388672 0.489533 0.296223
v 0.387037 0.494490 0.295980
v 0.386833 0.489328 0.296655
v 0.385081 0.484673 0.296978
v 0.384101 0.477139 0.297081
v 0.383745 0.483933 0.297060
v 0.384782 0.493247 0.296485
v 0.385080 0.484673 0.296611
v 0.389081 0.481201 0.296699
v 0.389333 0.480193 0.296751
v 0.383245 0.477891 0.297428
v 0.386831 0.489328 0.296288
v 0.384780 0.493247 0.296118
v 0.385258 0.488767 0.296733
v 0.383244 0.477891 0.297061
v 0.382735 0.483104 0.297137
v 0.383475 0.492270 0.296579
v 0.383981 0.488294 0.296797
v 0.383743 0.483933 0.296693
v 0.382380 0.478773 0.297400
v 0.385257 0.488767 0.296367
v 0.383473 0.492270 0.296212
v 0.382378 0.478773 0.297034
v 0.382733 0.483104 0.296770
v 0.382112 0.481829 0.297229
v 0.382614 0.491292 0.296661
v 0.382971 0.488236 0.296830
v 0.383979 0.488294 0.296431
v 0.382053 0.479663 0.297358
v 0.382110 0.481829 0.296862
v 0.382612 0.491292 0.296294
v 0.382051 0.479663 0.296991
v 0.381962 0.480583 0.296940
v 0.381964 0.480583 0.297306
v 0.382256 0.490284 0.296363
v 0.382347 0.488593 0.296826
v 0.382969 0.488236 0.296463
v 0.382258 0.490284 0.296730
v 0.382169 0.489305 0.296790
v 0.382346 0.488593 0.296460
v 0.382167 0.489305 0.296423
vn 0.030248021850407023 0.058087001884865354 0.9978531742627093
vn 0.03056381886751649 0.05732801312783007 0.9978874444981503
vn 0.03051539588598527 0.05700599156453923 0.9979073742285229
vn 0.03058054427124194 0.05865500063904644 0.997809812144633
vn 0.4998818547161932 0.8660897789630905 -0.002574121435317263
vn 0.5945566035783931 0.8040479508224188 -0.0030558009743564445
vn 0.03080656968540305 0.0583270099843603 0.9978220859304042
vn 0.9357420313209861 0.35265397041427266 -0.004693396459250668
vn 0.9612037261586546 0.27579696060916403 -0.004840799258956704
vn 0.0308050445239847 0.05830800174886129 0.9978232439485112
vn 0.7657447248880618 -0.6431329342882173 -0.0038788065090206826
vn 0.9208456775564084 -0.3898990945183752 -0.004683398278019951
vn 0.940052414743553 -0.3409969242882907 -0.004749227383534664
vn 0.9990328669642417 0.04368101210499295 -0.005029901260592498
vn 0.03114914420556983 0.05844302763476313 0.9978046619134143
vn 0.030490043470935937 0.05830300191977233 0.9978332111211188
vn 0.9966117473964936 -0.08209601803333641 -0.005026805583808798
vn 0.9599434512704355 -0.28015195439560786 -0.004842810271551947
vn 0.03126356054485042 0.058444990050384386 0.9978009685904644
vn 0.9713237633253197 0.23770990787459223 -0.00491390860634688
vn 0.9238946895128155 0.38261810899643617 -0.004688854658593198
vn 0.10785822444011131 0.9941661319432524 -0.0005527364817576113
vn 0.1889152230886629 0.9819929277758959 -0.0009634746934714368
vn 0.030120939041509743 0.05842802065915868 0.9978371086670964
vn 0.8430138490939492 -0.5378750890177966 -0.004247216724112354
vn 0.030239372638921933 0.058371000407371414 0.9978368637477005
vn 0.029757026477031868 0.05844603255924198 0.9978469725630926
vn 0.009249364096551738 -0.9999572225975022 -0.00004731700333987565
vn 0.03177977465517957 -0.9994948824524124 -0.0001608549178402057
vn 0.5044400587744754 0.863442976831235 -0.0025402488892700705
vn 0.029780446667476954 0.058444015188637385 0.9978463920288111
vn -0.9894602084683048 -0.14471704537784563 0.0050470421996813356
vn -0.9078942413056272 0.4191742263463885 0.00458416524419197
vn -0.013285391423233643 -0.9999117430282144 0.00006729791411124493
vn 0.8189755963085256 0.5738137219557593 -0.004096967948784512
vn 0.029663836527614156 0.05844400837336154 0.9978498658053312
vn -0.9370700272980153 -0.34911003708037536 0.004684650406993309
vn -0.9950196717920308 0.09955597994415116 0.004945665196816259
vn -0.7027879064953668 0.7113909567581017 0.003473489117861713
vn 0.02994900416899474 0.05846299923562572 0.9978402351427109
vn -0.8186255691309093 -0.5743131211171939 0.0040763314048246815
vn -0.7808010572072659 -0.6247677084453445 0.0038755061564900986
vn 0.8359543547732885 0.5487830032460516 -0.0041871331265061484
vn -0.627776886660031 -0.7783869098059789 0.0031621540344451003
vn 0.029597023015681203 0.05844401711296614 0.9978518492703755
vn -0.8774774789059393 0.47959799177561374 0.004363518955501188
vn -0.7402000898923866 -0.6723761718375193 0.0037563903452188193
vn 0.02931823175655548 0.058270012257972625 0.9978702555734009
vn -0.5672803544615694 -0.8235198276961999 0.002844790533150988
vn 0.5777126205861528 0.8162351009609422 -0.0028962000553125334
vn 0.02954504695180685 0.058440983353994294 0.9978535672458326
vn 0.02956390099235274 0.05837695859808343 0.9978567564850939
vn -0.5134407949616403 0.8581211920471151 0.002563167727048281
vn 0.07429858387842835 -0.9972359714885254 -0.00037094877975341246
vn 0.21961042750232826 0.9755870327514329 -0.0010962023076543411
vn -0.13277561582355513 -0.991145896423277 0.0006692129514838918
vn 0.029268566270300007 0.05844900428565671 0.9978612453274736
vn -0.46796636774146233 0.883743189516096 0.0023353044298662718
vn -0.2909838730016553 -0.9567268182745419 0.0014767691859106497
vn 0.028887943328099804 0.05838202087064228 0.9978762580447198
vn 0.3269242811922707 -0.9450490888672228 -0.001653480616593681
vn -0.00686017547129467 0.9999764681200936 0.00003462031976628869
vn 0.029120726165595825 0.058452014845264876 0.9978653943634468
vn -0.14185012158601396 0.9898878907614227 0.0007118496573121964
vn -0.35140334623598796 0.936222462004834 0.00178602680766448
vn 0.9843614698405477 -0.176090077819065 -0.00497807061340432
vn 0.4574171249995449 -0.8892492103261375 -0.002327163830076169
vn 0.028756807990285228 0.058467015679511174 0.9978750693707813
vn 0.07978440359526075 0.9968120594473809 -0.0004087581430990013
vn 0.029037835447521133 0.05836799555734958 0.9978727279604047
vn 0.23332226320739624 -0.9723987557047775 -0.0011753278602484418
vn 0.4773479331412961 -0.8787110830483064 -0.0024048396630903745
vn -0.007163880685790088 -0.9999743384203726 0.000036252693783113077
vn -0.31880498293857334 0.9478189673509544 0.001608721015681089
vn -0.2861101094298614 -0.9581956392930688 0.001456750417930829
vn -0.33728341096119213 0.9414016049272489 0.0017084878645528424
vn 0.9012537409865307 -0.4332679481220154 -0.004536462049035195
vn 0.4934556090313853 0.8697673186997644 -0.0025245271412867947
vn 0.07913068075152778 -0.9968641698606847 -0.0004027552206880432
vn -0.45199962915272207 0.8920152027474966 0.002283268084262977
vn -0.5946733970587397 -0.8039617135661796 0.0030189319883970507
vn -0.4090693001875931 0.9125009437361059 0.0020821442670484725
vn 0.9989220739013469 0.04614699671241883 -0.005014475750847714
vn 0.8685557909979356 0.49557177214408066 -0.004410961111314501
vn 0.2246770248933503 -0.9744326384767883 -0.001125858000704234
vn -0.5417137405030314 0.8405585538963608 0.002746055693690605
vn -0.6870697905531339 -0.7265831011945051 0.00347850080467414
vn -0.5616440245279145 0.8273740865209948 0.0028479230391247274
vn 0.3414664940212633 -0.9398924338211869 -0.001687100030334396
vn -0.6780876837084137 0.734972965546673 0.003439930011993387
vn -0.8452119004162786 -0.5344142684895287 0.004270015164444703
vn -0.7842693528287621 0.6204079672989171 0.003941614590552438
vn 0.20438529605283556 -0.9788900051881171 -0.0010042411080192796
vn -0.8622454384873962 0.5064721332100388 0.004333830793939417
vn -0.9749713941686372 -0.22227594833018358 0.004917656635157913
vn -0.959113308196494 0.2829811020942234 0.004833000922406196
vn -0.229154380697659 -0.9733894067615104 0.001154387953517311
vn -0.9999262341358496 0.01104499472704898 0.005053155289241564
vn -0.9768894192878808 0.21368903336476713 0.004905048727416863
vn -0.7971438366356095 -0.6037759855308106 0.00403274226291678
vn -0.9970072863486005 -0.07714301213559961 0.005042484154320113
vn -0.03051539588598527 -0.05700599156453923 -0.9979073742285229
vn -0.03056381886751649 -0.05732801312783007 -0.9978874444981503
vn -0.030248021850407023 -0.058087001884865354 -0.9978531742627093
vn -0.03058054427124194 -0.05865500063904644 -0.997809812144633
vn -0.4998818547161932 -0.8660897789630905 0.002574121435317263
vn -0.5945566035783931 -0.8040479508224188 0.0030558009743564445
vn -0.03080656968540305 -0.0583270099843603 -0.9978220859304042
vn -0.9357420313209861 -0.35265397041427266 0.004693396459250668
vn -0.9612037261586546 -0.27579696060916403 0.004840799258956704
vn -0.0308050445239847 -0.05830800174886129 -0.9978232439485112
vn -0.9208456775564084 0.3898990945183752 0.004683398278019951
vn -0.7657447248880618 0.6431329342882173 0.0038788065090206826
vn -0.940052414743553 0.3409969242882907 0.004749227383534664
vn -0.9990328669642417 -0.04368101210499295 0.005029901260592498
vn -0.03114914420556983 -0.05844302763476313 -0.9978046619134143
vn -0.030490043470935937 -0.05830300191977233 -0.9978332111211188
vn -0.9966117473964936 0.08209601803333641 0.005026805583808798
vn -0.9599434512704355 0.28015195439560786 0.004842810271551947
vn -0.03126356054485042 -0.058444990050384386 -0.9978009685904644
vn -0.9238946895128155 -0.38261810899643617 0.004688854658593198
vn -0.9713237633253197 -0.23770990787459223 0.00491390860634688
vn -0.10785822444011131 -0.9941661319432524 0.0005527364817576113
vn -0.1889152230886629 -0.9819929277758959 0.0009634746934714368
vn -0.030120939041509743 -0.05842802065915868 -0.9978371086670964
vn -0.8430138490939492 0.5378750890177966 0.004247216724112354
vn -0.030239372638921933 -0.058371000407371414 -0.9978368637477005
vn -0.029757026477031868 -0.05844603255924198 -0.9978469725630926
vn -0.03177977465517957 0.9994948824524124 0.0001608549178402057
vn -0.009249364096551738 0.9999572225975022 0.00004731700333987565
vn -0.5044400587744754 -0.863442976831235 0.0025402488892700705
vn -0.029780446667476954 -0.058444015188637385 -0.9978463920288111
vn 0.9078942413056272 -0.4191742263463885 -0.00458416524419197
vn 0.9894602084683048 0.14471704537784563 -0.0050470421996813356
vn 0.013285391423233643 0.9999117430282144 -0.00006729791411124493
vn -0.8189755963085256 -0.5738137219557593 0.004096967948784512
vn -0.029663836527614156 -0.05844400837336154 -0.9978498658053312
vn 0.9950196717920308 -0.09955597994415116 -0.004945665196816259
vn 0.9370700272980153 0.34911003708037536 -0.004684650406993309
vn 0.7027879064953668 -0.7113909567581017 -0.003473489117861713
vn -0.02994900416899474 -0.05846299923562572 -0.9978402351427109
vn 0.7808010572072659 0.6247677084453445 -0.0038755061564900986
vn 0.8186255691309093 0.5743131211171939 -0.0040763314048246815
vn -0.8359543547732885 -0.5487830032460516 0.0041871331265061484
vn 0.627776886660031 0.7783869098059789 -0.0031621540344451003
vn -0.029597023015681203 -0.05844401711296614 -0.9978518492703755
vn 0.8774774789059393 -0.47959799177561374 -0.004363518955501188
vn 0.7402000898923866 0.6723761718375193 -0.0037563903452188193
vn -0.02931823175655548 -0.058270012257972625 -0.9978702555734009
vn 0.5672803544615694 0.8235198276961999 -0.002844790533150988
vn -0.5777126205861528 -0.8162351009609422 0.0028962000553125334
vn -0.02954504695180685 -0.058440983353994294 -0.9978535672458326
vn -0.02956390099235274 -0.05837695859808343 -0.9978567564850939
vn 0.5134407949616403 -0.8581211920471151 -0.002563167727048281
vn -0.07429858387842835 0.9972359714885254 0.00037094877975341246
vn -0.21961042750232826 -0.9755870327514329 0.0010962023076543411
vn 0.13277561582355513 0.991145896423277 -0.0006692129514838918
vn -0.029268566270300007 -0.05844900428565671 -0.9978612453274736
vn 0.46796636774146233 -0.883743189516096 -0.0023353044298662718
vn 0.2909838730016553 0.9567268182745419 -0.0014767691859106497
vn -0.028887943328099804 -0.05838202087064228 -0.9978762580447198
vn -0.3269242811922707 0.9450490888672228 0.001653480616593681
vn 0.00686017547129467 -0.9999764681200936 -0.00003462031976628869
vn -0.029120726165595825 -0.058452014845264876 -0.9978653943634468
vn 0.14185012158601396 -0.9898878907614227 -0.0007118496573121964
vn 0.35140334623598796 -0.936222462004834 -0.00178602680766448
vn -0.9843614698405477 0.176090077819065 0.00497807061340432
vn -0.4574171249995449 0.8892492103261375 0.002327163830076169
vn -0.028756807990285228 -0.058467015679511174 -0.9978750693707813
vn -0.07978440359526075 -0.9968120594473809 0.0004087581430990013
vn -0.029037835447521133 -0.05836799555734958 -0.9978727279604047
vn -0.4773479331412961 0.8787110830483064 0.0024048396630903745
vn -0.23332226320739624 0.9723987557047775 0.0011753278602484418
vn 0.007163880685790088 0.9999743384203726 -0.000036252693783113077
vn 0.31880498293857334 -0.9478189673509544 -0.001608721015681089
vn 0.2861101094298614 0.9581956392930688 -0.001456750417930829
vn 0.33728341096119213 -0.9414016049272489 -0.0017084878645528424
vn -0.9012537409865307 0.4332679481220154 0.004536462049035195
vn -0.4934556090313853 -0.8697673186997644 0.0025245271412867947
vn -0.07913068075152778 0.9968641698606847 0.0004027552206880432
vn 0.45199962915272207 -0.8920152027474966 -0.002283268084262977
vn 0.5946733970587397 0.8039617135661796 -0.0030189319883970507
vn 0.4090693001875931 -0.9125009437361059 -0.0020821442670484725
vn -0.9989220739013469 -0.04614699671241883 0.005014475750847714
vn -0.8685557909979356 -0.49557177214408066 0.004410961111314501
vn -0.2246770248933503 0.9744326384767883 0.001125858000704234
vn 0.5417137405030314 -0.8405585538963608 -0.002746055693690605
vn 0.6870697905531339 0.7265831011945051 -0.00347850080467414
vn 0.5616440245279145 -0.8273740865209948 -0.0028479230391247274
vn -0.3414664940212633 0.9398924338211869 0.001687100030334396
vn 0.6780876837084137 -0.734972965546673 -0.003439930011993387
vn 0.8452119004162786 0.5344142684895287 -0.004270015164444703
vn 0.7842693528287621 -0.6204079672989171 -0.003941614590552438
vn -0.20438529605283556 0.9788900051881171 0.0010042411080192796
vn 0.8622454384873962 -0.5064721332100388 -0.004333830793939417
vn 0.9749713941686372 0.22227594833018358 -0.004917656635157913
vn 0.959113308196494 -0.2829811020942234 -0.004833000922406196
vn 0.229154380697659 0.9733894067615104 -0.001154387953517311
vn 0.9999262341358496 -0.01104499472704898 -0.005053155289241564
vn 0.9768894192878808 -0.21368903336476713 -0.004905048727416863
vn 0.7971438366356095 0.6037759855308106 -0.00403274226291678
vn 0.9970072863486005 0.07714301213559961 -0.005042484154320113
usemtl material_0_0
f 1//1 2//2 3//3
f 4//4 2//2 1//1
f 5//5 3//6 2//5
f 1//1 3//3 6//7
f 7//4 2//2 4//4
f 4//4 1//1 8//4
f 3//6 5//5 9//6
f 2//5 10//8 5//5
f 3//6 11//9 6//9
f 1//1 6//7 12//10
f 13//4 2//2 7//4
f 4//11 14//12 7//12
f 8//4 1//1 15//4
f 8//13 16//11 4//11
f 11//9 3//6 9//6
f 10//8 2//5 17//8
f 18//14 6//9 11//9
f 12//10 6//7 19//15
f 1//1 12//10 20//16
f 2//2 13//4 17//4
f 7//12 21//17 13//17
f 14//12 4//11 16//11
f 21//17 7//12 14//12
f 15//4 1//1 22//4
f 15//18 23//13 8//13
f 16//11 8//13 23//13
f 13//17 10//8 17//8
f 6//9 18//14 24//14
f 6//7 24//19 19//15
f 19//20 25//21 12//21
f 25//22 20//23 12//22
f 1//1 20//16 26//24
f 10//8 13//17 21//17
f 22//4 1//1 27//4
f 22//25 28//18 15//18
f 23//13 15//18 28//18
f 29//20 24//14 18//14
f 24//14 29//20 19//20
f 25//21 19//20 29//20
f 20//23 25//22 30//23
f 31//26 26//24 20//16
f 32//27 1//1 26//24
f 27//4 1//1 33//4
f 27//28 34//29 22//29
f 28//18 22//25 34//25
f 30//23 31//30 20//23
f 26//24 31//26 35//26
f 32//27 36//31 1//1
f 26//32 37//33 32//33
f 33//4 1//1 38//4
f 33//34 39//28 27//28
f 34//29 27//28 39//28
f 31//30 30//23 40//30
f 40//30 35//35 31//30
f 26//24 35//26 41//26
f 42//36 36//31 32//27
f 36//37 43//38 1//38
f 37//33 26//32 44//32
f 37//33 45//39 32//33
f 38//4 1//1 46//40
f 38//41 47//42 33//42
f 39//28 33//34 47//34
f 35//35 40//30 48//35
f 35//35 49//43 41//43
f 26//24 41//26 50//26
f 42//44 51//37 36//37
f 45//45 42//36 32//27
f 43//38 36//37 51//37
f 52//46 1//38 43//38
f 53//47 44//32 26//32
f 45//39 37//33 54//39
f 1//1 55//48 46//40
f 46//49 56//41 38//41
f 47//42 38//41 56//41
f 49//43 35//35 48//35
f 49//43 50//50 41//43
f 26//24 50//26 57//26
f 51//37 42//44 58//44
f 59//51 42//36 45//45
f 1//38 52//46 60//46
f 44//32 53//47 61//47
f 26//24 62//52 53//52
f 54//39 63//53 45//39
f 55//48 1//1 64//48
f 55//54 65//49 46//49
f 56//41 46//49 65//49
f 50//50 49//43 66//50
f 66//50 57//55 50//50
f 26//24 57//26 67//26
f 59//56 58//44 42//44
f 63//57 59//51 45//45
f 52//46 68//58 60//46
f 69//48 1//1 60//48
f 70//59 61//47 53//47
f 26//24 67//26 62//52
f 62//52 70//60 53//52
f 63//53 54//39 71//53
f 64//48 1//1 69//48
f 64//61 72//54 55//54
f 65//49 55//54 72//54
f 57//55 66//50 73//55
f 73//55 67//62 57//55
f 58//44 59//56 74//56
f 75//63 59//51 63//57
f 68//58 52//46 76//58
f 77//48 60//48 68//48
f 69//48 60//48 77//48
f 61//47 70//59 78//59
f 79//62 62//64 67//62
f 70//60 62//52 80//60
f 71//53 81//65 63//53
f 69//66 82//66 64//66
f 72//54 64//61 82//61
f 67//62 73//55 79//62
f 75//67 74//56 59//56
f 81//68 75//63 63//57
f 76//58 83//69 68//58
f 77//48 68//48 84//70
f 77//71 85//72 69//72
f 86//73 78//59 70//59
f 62//64 79//62 87//64
f 87//64 80//74 62//64
f 70//60 80//60 86//60
f 81//65 71//53 88//65
f 82//66 69//66 85//66
f 74//56 75//67 89//67
f 75//63 81//68 90//68
f 83//69 76//58 91//69
f 84//70 68//48 83//48
f 84//75 92//71 77//71
f 85//72 77//71 92//71
f 78//59 86//73 93//73
f 80//74 87//64 94//74
f 86//60 80//60 95//60
f 88//65 96//76 81//65
f 90//77 89//67 75//67
f 90//68 81//68 96//68
f 91//69 97//78 83//69
f 84//70 83//48 97//70
f 92//71 84//75 98//75
f 95//79 93//73 86//73
f 94//74 99//80 80//74
f 95//60 80//60 99//60
f 96//76 88//65 100//76
f 89//67 90//77 101//77
f 90//68 96//68 102//68
f 97//78 91//69 103//78
f 104//68 84//70 97//70
f 105//81 98//75 84//75
f 93//73 95//79 106//79
f 99//80 94//74 107//80
f 95//60 99//60 108//60
f 100//76 109//82 96//76
f 102//83 101//77 90//77
f 84//70 102//68 96//68
f 103//78 104//84 97//78
f 84//70 104//68 102//68
f 98//75 105//81 110//81
f 84//70 111//68 105//68
f 108//85 106//79 95//79
f 107//80 112//86 99//80
f 108//60 99//60 112//60
f 109//82 100//76 113//82
f 84//70 96//68 109//68
f 101//77 102//83 114//83
f 104//84 103//78 115//84
f 104//84 114//83 102//83
f 116//87 110//81 105//81
f 84//70 109//68 111//68
f 105//68 111//68 116//68
f 106//79 108//85 117//85
f 112//86 107//80 118//86
f 108//60 112//60 119//60
f 113//82 111//88 109//82
f 114//83 104//84 115//84
f 110//81 116//87 120//87
f 116//68 111//68 121//68
f 119//89 117//85 108//85
f 118//86 122//90 112//86
f 119//60 112//60 123//60
f 111//88 113//82 124//88
f 125//91 120//87 116//87
f 124//88 121//92 111//88
f 116//68 121//68 125//68
f 117//85 119//89 126//89
f 122//90 118//86 127//90
f 123//60 112//60 122//60
f 123//93 126//89 119//89
f 120//87 125//91 128//91
f 121//92 124//88 129//92
f 125//68 121//68 130//68
f 127//90 131//94 122//90
f 123//60 122//60 132//60
f 126//89 123//93 133//93
f 134//95 128//91 125//91
f 135//96 121//92 129//92
f 121//92 135//96 130//96
f 125//68 130//68 134//68
f 131//94 127//90 136//94
f 132//60 122//60 131//60
f 132//97 133//93 123//93
f 128//91 134//95 137//95
f 138//98 130//96 135//96
f 134//68 130//68 139//68
f 140//99 131//94 136//94
f 132//60 131//60 141//60
f 133//93 132//97 142//97
f 139//98 137//95 134//95
f 130//96 138//98 139//98
f 131//94 140//99 143//99
f 141//60 131//60 143//60
f 141//100 142//97 132//97
f 137//95 139//98 138//98
f 140//99 144//101 143//99
f 141//60 143//60 144//60
f 142//97 141//100 145//100
f 144//101 140//99 146//101
f 144//101 145//100 141//100
f 145//100 144//101 146//101
usemtl material_1_0
f 3//102 2//103 1//104
f 1//104 2//103 4//105
f 2//106 3//107 5//106
f 6//108 3//102 1//104
f 4//105 2//103 7//105
f 8//105 1//104 4//105
f 9//107 5//106 3//107
f 5//106 10//109 2//106
f 6//110 11//110 3//107
f 12//111 6//108 1//104
f 7//105 2//103 13//105
f 7//112 14//112 4//113
f 15//105 1//104 8//105
f 4//113 16//113 8//114
f 9//107 3//107 11//110
f 17//109 2//106 10//109
f 11//110 6//110 18//115
f 19//116 6//108 12//111
f 20//117 12//111 1//104
f 17//105 13//105 2//103
f 13//118 21//118 7//112
f 16//113 4//113 14//112
f 14//112 7//112 21//118
f 22//105 1//104 15//105
f 8//114 23//114 15//119
f 23//114 8//114 16//113
f 17//109 10//109 13//118
f 24//115 18//115 6//110
f 19//116 24//120 6//108
f 12//121 25//121 19//122
f 12//123 20//124 25//123
f 26//125 20//117 1//104
f 21//118 13//118 10//109
f 27//105 1//104 22//105
f 15//119 28//119 22//126
f 28//119 15//119 23//114
f 18//115 24//115 29//122
f 19//122 29//122 24//115
f 29//122 19//122 25//121
f 30//124 25//123 20//124
f 20//117 26//125 31//127
f 26//125 1//104 32//128
f 33//105 1//104 27//105
f 22//129 34//129 27//130
f 34//126 22//126 28//119
f 20//124 31//131 30//124
f 35//127 31//127 26//125
f 1//104 36//132 32//128
f 32//133 37//133 26//134
f 38//105 1//104 33//105
f 27//130 39//130 33//135
f 39//130 27//130 34//129
f 40//131 30//124 31//131
f 31//131 35//136 40//131
f 41//127 35//127 26//125
f 32//128 36//132 42//137
f 1//138 43//138 36//139
f 44//134 26//134 37//133
f 32//133 45//140 37//133
f 46//141 1//104 38//105
f 33//142 47//142 38//143
f 47//135 33//135 39//130
f 48//136 40//131 35//136
f 41//144 49//144 35//136
f 50//127 41//127 26//125
f 36//139 51//139 42//145
f 32//128 42//137 45//146
f 51//139 36//139 43//138
f 43//138 1//138 52//147
f 26//134 44//134 53//148
f 54//140 37//133 45//140
f 46//141 55//149 1//104
f 38//143 56//143 46//150
f 56//143 38//143 47//142
f 48//136 35//136 49//144
f 41//144 50//151 49//144
f 57//127 50//127 26//125
f 58//145 42//145 51//139
f 45//146 42//137 59//152
f 60//147 52//147 1//138
f 61//148 53//148 44//134
f 53//153 62//153 26//125
f 45//140 63//154 54//140
f 64//149 1//104 55//149
f 46//150 65//150 55//155
f 65//150 46//150 56//143
f 66//151 49//144 50//151
f 50//151 57//156 66//151
f 67//127 57//127 26//125
f 42//145 58//145 59//157
f 45//146 59//152 63//158
f 60//147 68//159 52//147
f 60//149 1//104 69//149
f 53//148 61//148 70//160
f 62//153 67//127 26//125
f 53//153 70//161 62//153
f 71//154 54//140 63//154
f 69//149 1//104 64//149
f 55//155 72//155 64//162
f 72//155 55//155 65//150
f 73//156 66//151 57//156
f 57//156 67//163 73//156
f 74//157 59//157 58//145
f 63//158 59//152 75//164
f 76//159 52//147 68//159
f 68//149 60//149 77//149
f 77//149 60//149 69//149
f 78//160 70//160 61//148
f 67//163 62//165 79//163
f 80//161 62//153 70//161
f 63//154 81//166 71//154
f 64//167 82//167 69//167
f 82//162 64//162 72//155
f 79//163 73//156 67//163
f 59//157 74//157 75//168
f 63//158 75//164 81//169
f 68//159 83//170 76//159
f 84//171 68//149 77//149
f 69//172 85//172 77//173
f 70//160 78//160 86//174
f 87//165 79//163 62//165
f 62//165 80//175 87//165
f 86//161 80//161 70//161
f 88//166 71//154 81//166
f 85//167 69//167 82//167
f 89//168 75//168 74//157
f 90//169 81//169 75//164
f 91//170 76//159 83//170
f 83//149 68//149 84//171
f 77//173 92//173 84//176
f 92//173 77//173 85//172
f 93//174 86//174 78//160
f 94//175 87//165 80//175
f 95//161 80//161 86//161
f 81//166 96//177 88//166
f 75//168 89//168 90//178
f 96//169 81//169 90//169
f 83//170 97//179 91//170
f 97//171 83//149 84//171
f 98//176 84//176 92//173
f 86//174 93//174 95//180
f 80//175 99//181 94//175
f 99//161 80//161 95//161
f 100//177 88//166 96//177
f 101//178 90//178 89//168
f 102//169 96//169 90//169
f 103//179 91//170 97//179
f 97//171 84//171 104//169
f 84//176 98//176 105//182
f 106//180 95//180 93//174
f 107//181 94//175 99//181
f 108//161 99//161 95//161
f 96//177 109//183 100//177
f 90//178 101//178 102//184
f 96//169 102//169 84//171
f 97//179 104//185 103//179
f 102//169 104//169 84//171
f 110//182 105//182 98//176
f 105//169 111//169 84//171
f 95//180 106//180 108//186
f 99//181 112//187 107//181
f 112//161 99//161 108//161
f 113//183 100//177 109//183
f 109//169 96//169 84//171
f 114//184 102//184 101//178
f 115//185 103//179 104//185
f 102//184 114//184 104//185
f 105//182 110//182 116//188
f 111//169 109//169 84//171
f 116//169 111//169 105//169
f 117//186 108//186 106//180
f 118//187 107//181 112//187
f 119//161 112//161 108//161
f 109//183 111//189 113//183
f 115//185 104//185 114//184
f 120//188 116//188 110//182
f 121//169 111//169 116//169
f 108//186 117//186 119//190
f 112//187 122//191 118//187
f 123//161 112//161 119//161
f 124//189 113//183 111//189
f 116//188 120//188 125//192
f 111//189 121//193 124//189
f 125//169 121//169 116//169
f 126//190 119//190 117//186
f 127//191 118//187 122//191
f 122//161 112//161 123//161
f 119//190 126//190 123//194
f 128//192 125//192 120//188
f 129//193 124//189 121//193
f 130//169 121//169 125//169
f 122//191 131//195 127//191
f 132//161 122//161 123//161
f 133//194 123//194 126//190
f 125//192 128//192 134//196
f 129//193 121//193 135//197
f 130//197 135//197 121//193
f 134//169 130//169 125//169
f 136//195 127//191 131//195
f 131//161 122//161 132//161
f 123//194 133//194 132//198
f 137//196 134//196 128//192
f 135//197 130//197 138//199
f 139//169 130//169 134//169
f 136//195 131//195 140//200
f 141//161 131//161 132//161
f 142//198 132//198 133//194
f 134//196 137//196 139//199
f 139//199 138//199 130//197
f 143//200 140//200 131//195
f 143//161 131//161 141//161
f 132//198 142//198 141//201
f 138//199 139//199 137//196
f 143//200 144//202 140//200
f 144//161 143//161 141//161
f 145//201 141//201 142//198
f 146//202 140//200 144//202
f 141//201 145//201 144//202
f 146//202 144//202 145//201
