# SSTK version 0.8.0
# 9
mtllib original-9.mtl
o mesh6/mesh6-geometry#mesh6-geometry
v -0.031782 0.558026 0.362361
v -0.005920 0.556079 0.362475
v -0.005920 0.558292 0.362410
v -0.031781 0.555813 0.362424
v 0.019940 0.555813 0.362163
v -0.057645 0.557229 0.361952
v 0.019940 0.558026 0.362100
v -0.057645 0.555014 0.362010
v 0.045798 0.555014 0.361489
v -0.083510 0.555901 0.361184
v 0.045797 0.557229 0.361431
v -0.083510 0.553683 0.361233
v 0.071654 0.553683 0.360451
v -0.109377 0.554041 0.360057
v 0.071653 0.555901 0.360403
v -0.109377 0.551820 0.360092
v 0.097508 0.551820 0.359050
v -0.134177 0.551766 0.358652
v 0.097508 0.554041 0.359015
v -0.134177 0.549512 0.358667
v 0.122292 0.549512 0.357375
v -0.135251 0.549927 0.357509
v 0.122292 0.551766 0.357360
v -0.135251 0.552176 0.357494
v 0.123355 0.549927 0.356206
v -0.135261 0.549943 0.355523
v 0.123355 0.552176 0.356191
v -0.135261 0.552157 0.355507
v 0.123345 0.549943 0.354220
v 0.123345 0.552157 0.354205
vn -0.00945221277522908 0.028721982729405387 0.9995427471507877
vn 0.005035244960190069 0.028927009179207 0.9995688442764394
vn -0.0119020137678472 0.02782699557670483 0.9995418952627467
vn 0.019629132459607485 0.02871799526438883 0.9993948038222321
vn -0.021487516108333705 0.026859998603146026 0.9994082384724138
vn 0.021972352292733976 0.02781999646925341 0.9993714342181164
vn -0.02631260368754128 0.024596995835606192 0.9993511068103371
vn 0.03167760465344374 0.026848002155451883 0.9991374851058692
vn -0.03573509232848306 0.023155006331587055 0.999093013116426
vn 0.036309384413821595 0.024590016543013182 0.99903801713944
vn -0.040458572315314384 0.019621002971620963 0.9989885485672967
vn 0.04597935814139191 0.023155995568024137 0.9986739700693913
vn -0.04940254120001156 0.017517006550433492 0.9986253268390969
vn 0.050399899549431575 0.01963099934515917 0.9985361655894681
vn -0.05370065431785136 0.012528003681047707 0.9984784869237807
vn 0.059724724004780766 0.017527991899791193 0.9980609835288191
vn -0.30205111279216174 0.009529999832310336 0.9532440948488551
vn 0.063584127957527 0.0125389993215526 0.9978977062644723
vn -0.4258782667343042 0.006116999039279699 0.904759793672408
vn 0.3116450197819193 0.009536995259246877 0.9501507392864315
vn -0.9297805221118669 0.0024780010226514906 0.3681060176257865
vn 0.43462452845183147 0.006122998541177601 0.9005909327529829
vn 0.9334408574312819 0.002472000867074311 0.35872281066258754
vn -0.9999873245636779 0.000010000003385117835 0.005034939123501599
vn 0.9999873355514539 9.999998110014357e-7 -0.005032766207956951
vn -0.005035244960190069 -0.028927009179207 -0.9995688442764394
vn 0.00945221277522908 -0.028721982729405387 -0.9995427471507877
vn 0.0119020137678472 -0.02782699557670483 -0.9995418952627467
vn -0.019629132459607485 -0.02871799526438883 -0.9993948038222321
vn 0.021487516108333705 -0.026859998603146026 -0.9994082384724138
vn -0.021972352292733976 -0.02781999646925341 -0.9993714342181164
vn 0.02631260368754128 -0.024596995835606192 -0.9993511068103371
vn -0.03167760465344374 -0.026848002155451883 -0.9991374851058692
vn 0.03573509232848306 -0.023155006331587055 -0.999093013116426
vn -0.036309384413821595 -0.024590016543013182 -0.99903801713944
vn 0.040458572315314384 -0.019621002971620963 -0.9989885485672967
vn -0.04597935814139191 -0.023155995568024137 -0.9986739700693913
vn 0.04940254120001156 -0.017517006550433492 -0.9986253268390969
vn -0.050399899549431575 -0.01963099934515917 -0.9985361655894681
vn 0.05370065431785136 -0.012528003681047707 -0.9984784869237807
vn -0.059724724004780766 -0.017527991899791193 -0.9980609835288191
vn 0.30205111279216174 -0.009529999832310336 -0.9532440948488551
vn -0.063584127957527 -0.0125389993215526 -0.9978977062644723
vn 0.4258782667343042 -0.006116999039279699 -0.904759793672408
vn -0.3116450197819193 -0.009536995259246877 -0.9501507392864315
vn 0.9297805221118669 -0.0024780010226514906 -0.3681060176257865
vn -0.43462452845183147 -0.006122998541177601 -0.9005909327529829
vn -0.9334408574312819 -0.002472000867074311 -0.35872281066258754
vn 0.9999873245636779 -0.000010000003385117835 -0.005034939123501599
vn -0.9999873355514539 -9.999998110014357e-7 0.005032766207956951
usemtl material_0_0
f 1//1 2//2 3//2
f 2//2 1//1 4//3
f 5//4 3//2 2//2
f 6//5 4//3 1//1
f 3//2 5//4 7//6
f 8//7 4//3 6//5
f 5//4 9//8 7//6
f 10//9 8//7 6//5
f 7//6 9//8 11//10
f 12//11 8//7 10//9
f 9//8 13//12 11//10
f 14//13 12//11 10//9
f 11//10 13//12 15//14
f 16//15 12//11 14//13
f 13//12 17//16 15//14
f 18//17 16//15 14//13
f 15//14 17//16 19//18
f 20//19 16//15 18//17
f 17//16 21//20 19//18
f 18//17 22//21 20//19
f 19//18 21//20 23//22
f 22//21 18//17 24//21
f 25//23 23//22 21//20
f 24//21 26//24 22//21
f 23//22 25//23 27//23
f 26//24 24//21 28//24
f 29//25 27//23 25//23
f 27//23 29//25 30//25
usemtl material_1_0
f 3//26 2//26 1//27
f 4//28 1//27 2//26
f 2//26 3//26 5//29
f 1//27 4//28 6//30
f 7//31 5//29 3//26
f 6//30 4//28 8//32
f 7//31 9//33 5//29
f 6//30 8//32 10//34
f 11//35 9//33 7//31
f 10//34 8//32 12//36
f 11//35 13//37 9//33
f 10//34 12//36 14//38
f 15//39 13//37 11//35
f 14//38 12//36 16//40
f 15//39 17//41 13//37
f 14//38 16//40 18//42
f 19//43 17//41 15//39
f 18//42 16//40 20//44
f 19//43 21//45 17//41
f 20//44 22//46 18//42
f 23//47 21//45 19//43
f 24//46 18//42 22//46
f 21//45 23//47 25//48
f 22//46 26//49 24//46
f 27//48 25//48 23//47
f 28//49 24//46 26//49
f 25//48 27//48 29//50
f 30//50 29//50 27//48
