# SSTK version 0.8.0
# 36
mtllib original-36.mtl
o mesh28/mesh28-geometry#mesh28-geometry
v -0.078827 0.382036 0.364449
v -0.075475 0.382036 0.364687
v -0.077151 0.382229 0.364570
v -0.073936 0.381485 0.364791
v -0.075481 0.382036 0.363527
v -0.077157 0.382229 0.363410
v -0.080367 0.381485 0.364334
v -0.073942 0.381485 0.363632
v -0.078833 0.382036 0.363289
v -0.072577 0.380622 0.364882
v -0.072583 0.380622 0.363722
v -0.082858 0.379489 0.364135
v -0.080373 0.381485 0.363174
v -0.081725 0.380622 0.364228
v -0.071444 0.379489 0.364956
v -0.071450 0.379489 0.363796
v -0.081731 0.380622 0.363068
v -0.070580 0.378131 0.365011
v -0.082864 0.379489 0.362975
v -0.070029 0.376592 0.365045
v -0.083728 0.378131 0.362900
v -0.070580 0.371702 0.364999
v -0.070586 0.378131 0.363851
v -0.083723 0.378131 0.364060
v -0.070029 0.373241 0.365040
v -0.071444 0.370345 0.364936
v -0.070035 0.376592 0.363886
v -0.084279 0.376592 0.362847
v -0.084274 0.373241 0.363984
v -0.069836 0.374917 0.365056
v -0.070035 0.373241 0.363880
v -0.072578 0.369212 0.364853
v -0.070586 0.371702 0.363839
v -0.084273 0.376592 0.364007
v -0.069842 0.374917 0.363896
v -0.071450 0.370345 0.363777
v -0.084473 0.374917 0.362820
v -0.083723 0.371702 0.364018
v -0.084467 0.374917 0.363980
v -0.072583 0.369212 0.363694
v -0.083729 0.371702 0.362859
v -0.082859 0.370345 0.364079
v -0.084279 0.373241 0.362825
v -0.073936 0.368348 0.364753
v -0.082865 0.370345 0.362919
v -0.081726 0.369212 0.364163
v -0.073942 0.368348 0.363593
v -0.078828 0.367797 0.364383
v -0.081731 0.369212 0.363003
v -0.080367 0.368348 0.364265
v -0.075475 0.367797 0.364638
v -0.080373 0.368348 0.363106
v -0.075481 0.367797 0.363478
v -0.077152 0.367604 0.364511
v -0.078834 0.367797 0.363223
v -0.077157 0.367604 0.363351
vn -0.0708739606370454 -0.009436998085369895 0.9974406372164487
vn -0.07080860171507738 -0.009104002375175132 0.9974483741346759
vn -0.07080803999663467 -0.009860001607589361 0.9974412272611021
vn -0.07094014327928148 -0.008607999973637776 0.9974434311819235
vn 0.22722219541477198 0.9738422138674597 -0.0011901263024997105
vn -0.000007728178750567199 0.9999999989119999 -0.000046002991733730204
vn -0.22723789546971396 0.9738386221263419 0.0011300077712842298
vn -0.07110758399842225 -0.009223000097016515 0.9974260111743216
vn 0.43952220176943135 0.8982289642082714 -0.0022275567529390413
vn -0.07134183852757166 -0.008059997886821747 0.9974193594018367
vn -0.4395184317993705 0.8982308362767856 0.0022164995214158435
vn 0.6256519467031982 0.7800959135805894 -0.0031634160908489656
vn -0.07229039243579498 -0.005546999035304618 0.9973682018007096
vn -0.07131138759755702 -0.01019200589735599 0.9974020297827247
vn -0.07170842254228779 -0.00579499762955938 0.9974088029183269
vn 0.7800953641507644 0.6256480959040399 -0.003960166932795109
vn -0.625650276747044 0.7800972810137141 0.003156479266197168
vn -0.7800818671282707 0.6256650966846604 0.003932857516559125
vn -0.07162300136464889 -0.004190999753965048 0.9974229700566263
vn -0.07127152087063045 -0.0023479998841342046 0.9974541880253607
vn 0.8982134237841026 0.4395360812875906 -0.004547370711587491
vn -0.8982062063003543 0.4395510149258341 0.004529485753894719
vn -0.07100575573738507 -0.001291000805634236 0.9974750703496718
vn 0.9738259171540444 0.22724203084026792 -0.004913501671413825
vn -0.9738280172898726 0.22723298858529192 0.004915449101800296
vn -0.07614746444429196 -0.005919999932283858 0.9970789924873088
vn -0.07646640980903191 -0.0068030000811629705 0.997048949330379
vn 0.8982080740973923 -0.4395471847263364 -0.00453078640031503
vn 0.9738282375575643 -0.22723201409156646 -0.004916859507648448
vn -0.0750685354602888 -0.001688000442940437 0.9971769480079009
vn 0.7800797333138692 -0.6256677830118808 -0.0039287369421591905
vn 0.9999872710382888 -0.0000030000004731807323 -0.005045567598999454
vn 0.6256640979390298 -0.7800862118897758 -0.003152549698247695
vn -0.9999872923636578 0.000002000001023861905 0.005041339821951601
vn -0.07565176405937314 -0.0042420007046873555 0.9971252759933057
vn -0.9738276199692064 -0.227234951459211 0.004903409063201775
vn -0.8982082026794302 -0.4395469298353489 0.004530023367092557
vn -0.07537723165790623 -0.0025499985746465985 0.9971518291889453
vn 0.43954535476745593 -0.8982176601912991 -0.0022172105942208213
vn -0.7800767687523745 -0.6256714416397279 0.003934713371870913
vn -0.07527945234189293 -0.0007779999686650523 0.997162172753837
vn -0.07560643027460139 0.0023119999916654606 0.9971350572300475
vn -0.0757642275435397 0.0029890001698277434 0.9971212803379114
vn -0.6256485801643618 -0.7800986671276792 0.003150187920835108
vn -0.07536405818468803 0.0008670001331033925 0.9971557085253556
vn 0.22723080517821734 -0.9738402576620978 -0.0011461826546733161
vn -0.4395514379086908 -0.8982146932871302 0.0022131867316251175
vn -0.2272491772723815 -0.9738359706695218 0.0011461497179810767
vn 6.494480484987032e-7 -1 7.604059654554443e-7
vn 0.07080803999663467 0.009860001607589361 -0.9974412272611021
vn 0.07080860171507738 0.009104002375175132 -0.9974483741346759
vn 0.0708739606370454 0.009436998085369895 -0.9974406372164487
vn 0.07094014327928148 0.008607999973637776 -0.9974434311819235
vn -0.22722219541477198 -0.9738422138674597 0.0011901263024997105
vn 0.000007728178750567199 -0.9999999989119999 0.000046002991733730204
vn 0.22723789546971396 -0.9738386221263419 -0.0011300077712842298
vn 0.07110758399842225 0.009223000097016515 -0.9974260111743216
vn -0.43952220176943135 -0.8982289642082714 0.0022275567529390413
vn 0.07134183852757166 0.008059997886821747 -0.9974193594018367
vn 0.4395184317993705 -0.8982308362767856 -0.0022164995214158435
vn -0.6256519467031982 -0.7800959135805894 0.0031634160908489656
vn 0.07229039243579498 0.005546999035304618 -0.9973682018007096
vn 0.07131138759755702 0.01019200589735599 -0.9974020297827247
vn 0.07170842254228779 0.00579499762955938 -0.9974088029183269
vn -0.7800953641507644 -0.6256480959040399 0.003960166932795109
vn 0.625650276747044 -0.7800972810137141 -0.003156479266197168
vn 0.7800818671282707 -0.6256650966846604 -0.003932857516559125
vn 0.07162300136464889 0.004190999753965048 -0.9974229700566263
vn 0.07127152087063045 0.0023479998841342046 -0.9974541880253607
vn -0.8982134237841026 -0.4395360812875906 0.004547370711587491
vn 0.8982062063003543 -0.4395510149258341 -0.004529485753894719
vn 0.07100575573738507 0.001291000805634236 -0.9974750703496718
vn -0.9738259171540444 -0.22724203084026792 0.004913501671413825
vn 0.9738280172898726 -0.22723298858529192 -0.004915449101800296
vn 0.07646640980903191 0.0068030000811629705 -0.997048949330379
vn 0.07614746444429196 0.005919999932283858 -0.9970789924873088
vn -0.9738282375575643 0.22723201409156646 0.004916859507648448
vn -0.8982080740973923 0.4395471847263364 0.00453078640031503
vn 0.0750685354602888 0.001688000442940437 -0.9971769480079009
vn -0.7800797333138692 0.6256677830118808 0.0039287369421591905
vn -0.9999872710382888 0.0000030000004731807323 0.005045567598999454
vn -0.6256640979390298 0.7800862118897758 0.003152549698247695
vn 0.9999872923636578 -0.000002000001023861905 -0.005041339821951601
vn 0.07565176405937314 0.0042420007046873555 -0.9971252759933057
vn 0.8982082026794302 0.4395469298353489 -0.004530023367092557
vn 0.9738276199692064 0.227234951459211 -0.004903409063201775
vn 0.07537723165790623 0.0025499985746465985 -0.9971518291889453
vn -0.43954535476745593 0.8982176601912991 0.0022172105942208213
vn 0.7800767687523745 0.6256714416397279 -0.003934713371870913
vn 0.07527945234189293 0.0007779999686650523 -0.997162172753837
vn 0.0757642275435397 -0.0029890001698277434 -0.9971212803379114
vn 0.07560643027460139 -0.0023119999916654606 -0.9971350572300475
vn 0.6256485801643618 0.7800986671276792 -0.003150187920835108
vn 0.07536405818468803 -0.0008670001331033925 -0.9971557085253556
vn -0.22723080517821734 0.9738402576620978 0.0011461826546733161
vn 0.4395514379086908 0.8982146932871302 -0.0022131867316251175
vn 0.2272491772723815 0.9738359706695218 -0.0011461497179810767
vn -6.494480484987032e-7 1 -7.604059654554443e-7
usemtl material_0_0
f 1//1 2//2 3//3
f 1//1 4//4 2//2
f 5//5 3//6 2//5
f 6//6 1//7 3//6
f 7//8 4//4 1//1
f 8//9 2//5 4//9
f 3//6 5//5 6//6
f 2//5 8//9 5//5
f 1//7 6//6 9//7
f 7//8 10//10 4//4
f 9//7 7//11 1//7
f 4//9 11//12 8//9
f 7//8 12//13 10//10
f 11//12 4//9 10//12
f 7//11 9//7 13//11
f 12//13 7//8 14//14
f 12//13 15//15 10//10
f 10//12 16//16 11//12
f 13//11 14//17 7//11
f 17//17 12//18 14//17
f 12//13 18//19 15//15
f 16//16 10//12 15//16
f 14//17 13//11 17//17
f 12//18 17//17 19//18
f 12//13 20//20 18//19
f 18//21 16//16 15//16
f 21//22 12//18 19//18
f 22//23 20//20 12//13
f 20//24 23//21 18//21
f 16//16 18//21 23//21
f 12//18 21//22 24//22
f 25//23 20//20 22//23
f 22//23 12//13 26//23
f 23//21 20//24 27//24
f 28//25 24//22 21//22
f 29//26 12//13 24//27
f 20//20 25//23 30//23
f 22//28 31//29 25//29
f 26//23 12//13 32//30
f 26//31 33//28 22//28
f 30//32 27//24 20//24
f 24//22 28//25 34//25
f 12//13 29//26 32//30
f 29//26 24//27 34//27
f 25//29 35//32 30//32
f 31//29 22//28 33//28
f 35//32 25//29 31//29
f 32//33 36//31 26//31
f 33//28 26//31 36//31
f 27//24 30//32 35//32
f 37//34 34//25 28//25
f 29//26 38//35 32//30
f 29//26 34//27 39//27
f 36//31 32//33 40//33
f 34//25 37//34 39//34
f 29//36 41//37 38//37
f 38//35 42//38 32//30
f 39//34 43//36 29//36
f 44//39 40//33 32//33
f 43//36 39//34 37//34
f 41//37 29//36 43//36
f 45//40 38//37 41//37
f 38//37 45//40 42//40
f 42//38 46//41 32//30
f 40//33 44//39 47//39
f 48//42 44//43 32//30
f 49//44 42//40 45//40
f 42//40 49//44 46//44
f 46//41 50//45 32//30
f 51//46 47//39 44//39
f 44//43 48//42 51//43
f 50//45 48//42 32//30
f 52//47 46//44 49//44
f 46//44 52//47 50//47
f 47//39 51//46 53//46
f 51//43 48//42 54//43
f 50//47 55//48 48//48
f 55//48 50//47 52//47
f 54//49 53//46 51//46
f 48//48 56//49 54//49
f 56//49 48//48 55//48
f 53//46 54//49 56//49
usemtl material_1_0
f 3//50 2//51 1//52
f 2//51 4//53 1//52
f 2//54 3//55 5//54
f 3//55 1//56 6//55
f 1//52 4//53 7//57
f 4//58 2//54 8//58
f 6//55 5//54 3//55
f 5//54 8//58 2//54
f 9//56 6//55 1//56
f 4//53 10//59 7//57
f 1//56 7//60 9//56
f 8//58 11//61 4//58
f 10//59 12//62 7//57
f 10//61 4//58 11//61
f 13//60 9//56 7//60
f 14//63 7//57 12//62
f 10//59 15//64 12//62
f 11//61 16//65 10//61
f 7//60 14//66 13//60
f 14//66 12//67 17//66
f 15//64 18//68 12//62
f 15//65 10//61 16//65
f 17//66 13//60 14//66
f 19//67 17//66 12//67
f 18//68 20//69 12//62
f 15//65 16//65 18//70
f 19//67 12//67 21//71
f 12//62 20//69 22//72
f 18//70 23//70 20//73
f 23//70 18//70 16//65
f 24//71 21//71 12//67
f 22//72 20//69 25//72
f 26//72 12//62 22//72
f 27//73 20//73 23//70
f 21//71 24//71 28//74
f 24//75 12//62 29//76
f 30//72 25//72 20//69
f 25//77 31//77 22//78
f 32//79 12//62 26//72
f 22//78 33//78 26//80
f 20//73 27//73 30//81
f 34//74 28//74 24//71
f 32//79 29//76 12//62
f 34//75 24//75 29//76
f 30//81 35//81 25//77
f 33//78 22//78 31//77
f 31//77 25//77 35//81
f 26//80 36//80 32//82
f 36//80 26//80 33//78
f 35//81 30//81 27//73
f 28//74 34//74 37//83
f 32//79 38//84 29//76
f 39//75 34//75 29//76
f 40//82 32//82 36//80
f 39//83 37//83 34//74
f 38//85 41//85 29//86
f 32//79 42//87 38//84
f 29//86 43//86 39//83
f 32//82 40//82 44//88
f 37//83 39//83 43//86
f 43//86 29//86 41//85
f 41//85 38//85 45//89
f 42//89 45//89 38//85
f 32//79 46//90 42//87
f 47//88 44//88 40//82
f 32//79 44//91 48//92
f 45//89 42//89 49//93
f 46//93 49//93 42//89
f 32//79 50//94 46//90
f 44//88 47//88 51//95
f 51//91 48//92 44//91
f 32//79 48//92 50//94
f 49//93 46//93 52//96
f 50//96 52//96 46//93
f 53//95 51//95 47//88
f 54//91 48//92 51//91
f 48//97 55//97 50//96
f 52//96 50//96 55//97
f 51//95 53//95 54//98
f 54//98 56//98 48//97
f 55//97 48//97 56//98
f 56//98 54//98 53//95
