# SSTK version 0.8.0
# 6
mtllib original-6.mtl
o mesh4/mesh4-geometry#mesh4-geometry
v -0.005957 0.589762 0.361490
v -0.006309 0.590215 0.360810
v -0.005960 0.589751 0.360823
v -0.006306 0.590226 0.361478
v -0.006179 0.590431 0.360803
v -0.005617 0.589307 0.361502
v -0.006176 0.590442 0.361470
v -0.005918 0.590586 0.360797
v -0.005620 0.589295 0.360835
v -0.005915 0.590597 0.361464
v -0.005292 0.588865 0.361514
v -0.005599 0.590627 0.361462
v -0.005603 0.590616 0.360794
v -0.005296 0.588854 0.360847
v -0.004991 0.588444 0.361526
v -0.005250 0.590162 0.361474
v -0.005253 0.590151 0.360807
v -0.004994 0.588432 0.360858
v -0.004720 0.588050 0.361537
v -0.004907 0.589703 0.361487
v -0.004910 0.589692 0.360819
v -0.004723 0.588039 0.360869
v -0.004487 0.587692 0.361546
v -0.004578 0.589256 0.361499
v -0.004581 0.589244 0.360831
v -0.004491 0.587681 0.360879
v -0.004309 0.587393 0.361555
v -0.004270 0.588825 0.361510
v -0.004312 0.587381 0.360887
v -0.004273 0.588814 0.360843
v -0.004155 0.587058 0.361564
v -0.003990 0.588418 0.361522
v -0.004158 0.587046 0.360897
v -0.004077 0.586758 0.361573
v -0.003993 0.588407 0.360854
v -0.004080 0.586747 0.360906
v -0.003744 0.588039 0.361532
v -0.004064 0.586492 0.361581
v -0.003748 0.588028 0.360865
v -0.003754 0.585396 0.361613
v -0.004068 0.586481 0.360914
v -0.003540 0.587695 0.361541
v -0.003757 0.585385 0.360946
v -0.004142 0.585140 0.361623
v -0.003544 0.587684 0.360874
v -0.003474 0.585705 0.361602
v -0.004145 0.585129 0.360956
v -0.004108 0.586267 0.361588
v -0.003348 0.587273 0.361554
v -0.003478 0.585694 0.360935
v -0.004111 0.586256 0.360921
v -0.004200 0.586080 0.361594
v -0.003351 0.587261 0.360886
v -0.003299 0.586058 0.361591
v -0.003302 0.586047 0.360923
v -0.005621 0.584388 0.361654
v -0.004203 0.586069 0.360927
v -0.003240 0.586852 0.361566
v -0.005625 0.584377 0.360986
v -0.004346 0.585918 0.361600
v -0.003243 0.586841 0.360898
v -0.003222 0.586444 0.361578
v -0.003225 0.586432 0.360911
v -0.006030 0.584135 0.361663
v -0.004349 0.585907 0.360933
v -0.004611 0.585749 0.361607
v -0.006033 0.584123 0.360996
v -0.006080 0.585003 0.361637
v -0.004614 0.585738 0.360939
v -0.006354 0.583841 0.361674
v -0.006084 0.584992 0.360970
v -0.006358 0.583830 0.361007
v -0.006582 0.584689 0.361649
v -0.006592 0.583521 0.361685
v -0.006585 0.584678 0.360982
v -0.006595 0.583510 0.361018
v -0.007017 0.584296 0.361663
v -0.006740 0.583188 0.361696
v -0.007020 0.584284 0.360996
v -0.006743 0.583177 0.361029
v -0.006795 0.582855 0.361707
v -0.006798 0.582844 0.361039
v -0.007344 0.583853 0.361679
v -0.007369 0.581908 0.361738
v -0.007372 0.581897 0.361071
v -0.007348 0.583842 0.361011
v -0.006756 0.582536 0.361716
v -0.006759 0.582525 0.361049
v -0.007556 0.583374 0.361694
v -0.006619 0.582244 0.361724
v -0.006622 0.582233 0.361057
v -0.007560 0.583362 0.361027
v -0.007574 0.582357 0.361726
v -0.006530 0.580759 0.361770
v -0.006533 0.580747 0.361102
v -0.007578 0.582346 0.361058
v -0.007639 0.582869 0.361710
v -0.006186 0.580779 0.361767
v -0.006190 0.580768 0.361100
v -0.005818 0.581153 0.361754
v -0.007642 0.582858 0.361043
v -0.005931 0.580935 0.361761
v -0.005934 0.580923 0.361094
v -0.005821 0.581141 0.361086
vn -0.8003010255190068 -0.5994300625322476 0.014208050035510261
vn -0.7992246093536506 -0.6008639455409991 0.014231751557971885
vn -0.005035119828557759 -0.03069400356779466 -0.9995161457992022
vn -0.8036728030612008 -0.5949036156816803 0.01413200865468592
vn 0.005035119983103253 0.03069300450975439 0.9995161764778596
vn -0.8571323528261401 0.5150768279326908 -0.004471136938450838
vn -0.704902156756406 0.7092530954605082 -0.008543768480857866
vn -0.3095900240990804 0.9507581348840661 -0.014594037484630241
vn -0.8095989570378336 -0.5868160351089109 0.014016765044380378
vn -0.09449112233972605 0.9953908217523953 -0.016387183103574954
vn -0.8185568687887705 -0.5742585376126671 0.013848629451483435
vn 0.8003247801034663 0.5993987612637168 -0.014190537264678903
vn 0.799201726643591 0.600894809080727 -0.014213674744384458
vn -0.8314977913393572 -0.555361809175216 0.013589845746056064
vn 0.8036787520881046 0.5948957748007597 -0.014123758929927458
vn -0.8492274633797227 -0.5278618484273953 0.013213039637237026
vn 0.8095903115484537 0.5868279804512933 -0.014016019632345458
vn -0.8848644243390128 -0.46568517225115597 0.012339808936872637
vn 0.8186125215544764 0.5741791507892258 -0.013850716702945675
vn -0.941930301763044 -0.33564696135998834 0.010412682189870537
vn 0.831554411655359 0.5552768752573417 -0.013596038428616886
vn -0.9887101826290375 -0.14965293557300338 0.00749490760701528
vn 0.8498945140349337 0.52678731847095 -0.013207426377222595
vn -0.9974486355862963 0.07128600425128355 0.0038111631980039602
vn 0.886442451970373 0.46267488965552195 -0.012317703804015456
vn -0.9479988637166537 0.3182731117261353 -0.0006170446471282751
vn 0.5028474456583802 -0.864289987523974 0.012135232204258271
vn 0.651694169992287 -0.7584210622110069 0.009602145218237006
vn 0.943091841628764 0.33236981334432275 -0.010396414320640075
vn 0.8263110635706986 -0.5631881913167506 0.005393271922330437
vn 0.9463123128855795 -0.3232529820007895 0.000718407086688118
vn 0.49061814328163156 -0.8712878494549774 0.012301255017476505
vn -0.8276468401220606 0.5612239130032848 -0.00533174542245328
vn 0.9892152832527906 0.14627899219784443 -0.007455187501619977
vn 0.9970778398764575 -0.07630201320948195 -0.003712681979028299
vn 0.6014187852194363 -0.7988647107978457 0.010517539020701886
vn -0.645789598837778 0.7634541606315356 -0.009671538002781317
vn -0.49592345273437427 0.8682804123134711 -0.012208792764471945
vn 0.7406593581433247 -0.6718370994406319 0.007656827666650059
vn -0.492288914801444 0.8703454505496702 -0.012264626823042834
vn 0.8639027885242333 -0.5036412431759302 0.004179731122650389
vn -0.6032861405284268 0.7974562999835788 -0.010453815706041971
vn 0.9578271662084715 -0.2873449433887415 0.000056408953675860795
vn -0.7411029364033029 0.6713482795008089 -0.007610864977512704
vn 0.9997560647256633 -0.021587990703036655 -0.004665801288217967
vn -0.8645195818880425 0.5025819950965587 -0.004150992277405508
vn 0.961001626809425 0.27637805778886143 -0.009541616346059387
vn -0.9584221953423337 0.2853539824203404 -0.000013857612559372886
vn 0.8600342652222366 0.5100710728598324 -0.012983192029206775
vn -0.9998138365961652 0.018712004046574224 0.004706703243006044
vn -0.9618646919231822 -0.27336194379884027 0.009463726223914365
vn -0.863029367095304 -0.5049889942504479 0.012900667308335874
vn -0.807654190311091 -0.5894888371991219 0.014057727076711265
vn 0.806274497030456 0.5913739552232355 -0.014081211663480371
vn 0.05928752075965289 -0.9981027167679333 0.016611943373508912
vn 0.29848832151051125 -0.954300916382726 0.014645235161217098
vn 0.7308332718422721 -0.6825108313915211 0.007854540188598411
vn 0.8876359065059786 -0.46053394038089174 0.003314700372435437
vn 0.8003010255190068 0.5994300625322476 -0.014208050035510261
vn 0.7992246093536506 0.6008639455409991 -0.014231751557971885
vn 0.005035119828557759 0.03069400356779466 0.9995161457992022
vn 0.8036728030612008 0.5949036156816803 -0.01413200865468592
vn -0.005035119983103253 -0.03069300450975439 -0.9995161764778596
vn 0.8571323528261401 -0.5150768279326908 0.004471136938450838
vn 0.704902156756406 -0.7092530954605082 0.008543768480857866
vn 0.3095900240990804 -0.9507581348840661 0.014594037484630241
vn 0.8095989570378336 0.5868160351089109 -0.014016765044380378
vn 0.09449112233972605 -0.9953908217523953 0.016387183103574954
vn 0.8185568687887705 0.5742585376126671 -0.013848629451483435
vn -0.799201726643591 -0.600894809080727 0.014213674744384458
vn -0.8003247801034663 -0.5993987612637168 0.014190537264678903
vn 0.8314977913393572 0.555361809175216 -0.013589845746056064
vn -0.8036787520881046 -0.5948957748007597 0.014123758929927458
vn 0.8492274633797227 0.5278618484273953 -0.013213039637237026
vn -0.8095903115484537 -0.5868279804512933 0.014016019632345458
vn 0.8848644243390128 0.46568517225115597 -0.012339808936872637
vn -0.8186125215544764 -0.5741791507892258 0.013850716702945675
vn 0.941930301763044 0.33564696135998834 -0.010412682189870537
vn -0.831554411655359 -0.5552768752573417 0.013596038428616886
vn 0.9887101826290375 0.14965293557300338 -0.00749490760701528
vn -0.8498945140349337 -0.52678731847095 0.013207426377222595
vn 0.9974486355862963 -0.07128600425128355 -0.0038111631980039602
vn -0.886442451970373 -0.46267488965552195 0.012317703804015456
vn 0.9479988637166537 -0.3182731117261353 0.0006170446471282751
vn -0.651694169992287 0.7584210622110069 -0.009602145218237006
vn -0.5028474456583802 0.864289987523974 -0.012135232204258271
vn -0.943091841628764 -0.33236981334432275 0.010396414320640075
vn -0.8263110635706986 0.5631881913167506 -0.005393271922330437
vn -0.9463123128855795 0.3232529820007895 -0.000718407086688118
vn -0.49061814328163156 0.8712878494549774 -0.012301255017476505
vn 0.8276468401220606 -0.5612239130032848 0.00533174542245328
vn -0.9892152832527906 -0.14627899219784443 0.007455187501619977
vn -0.9970778398764575 0.07630201320948195 0.003712681979028299
vn -0.6014187852194363 0.7988647107978457 -0.010517539020701886
vn 0.645789598837778 -0.7634541606315356 0.009671538002781317
vn 0.49592345273437427 -0.8682804123134711 0.012208792764471945
vn -0.7406593581433247 0.6718370994406319 -0.007656827666650059
vn 0.492288914801444 -0.8703454505496702 0.012264626823042834
vn -0.8639027885242333 0.5036412431759302 -0.004179731122650389
vn 0.6032861405284268 -0.7974562999835788 0.010453815706041971
vn -0.9578271662084715 0.2873449433887415 -0.000056408953675860795
vn 0.7411029364033029 -0.6713482795008089 0.007610864977512704
vn -0.9997560647256633 0.021587990703036655 0.004665801288217967
vn 0.8645195818880425 -0.5025819950965587 0.004150992277405508
vn -0.961001626809425 -0.27637805778886143 0.009541616346059387
vn 0.9584221953423337 -0.2853539824203404 0.000013857612559372886
vn -0.8600342652222366 -0.5100710728598324 0.012983192029206775
vn 0.9998138365961652 -0.018712004046574224 -0.004706703243006044
vn 0.9618646919231822 0.27336194379884027 -0.009463726223914365
vn 0.863029367095304 0.5049889942504479 -0.012900667308335874
vn 0.807654190311091 0.5894888371991219 -0.014057727076711265
vn -0.806274497030456 -0.5913739552232355 0.014081211663480371
vn -0.29848832151051125 0.954300916382726 -0.014645235161217098
vn -0.05928752075965289 0.9981027167679333 -0.016611943373508912
vn -0.7308332718422721 0.6825108313915211 -0.007854540188598411
vn -0.8876359065059786 0.46053394038089174 -0.003314700372435437
usemtl material_0_0
f 1//1 2//2 3//1
f 2//2 1//1 4//2
f 5//3 3//3 2//3
f 3//1 6//4 1//1
f 1//5 7//5 4//5
f 4//6 5//7 2//6
f 8//3 3//3 5//3
f 6//4 3//1 9//4
f 6//5 10//5 1//5
f 1//5 10//5 7//5
f 5//7 4//6 7//7
f 8//3 9//3 3//3
f 7//7 8//8 5//7
f 9//4 11//9 6//4
f 6//5 12//5 10//5
f 8//8 7//7 10//8
f 13//3 9//3 8//3
f 11//9 9//4 14//9
f 11//5 12//5 6//5
f 13//10 10//8 12//10
f 10//8 13//10 8//8
f 13//3 14//3 9//3
f 14//9 15//11 11//9
f 11//5 16//5 12//5
f 16//12 13//13 12//13
f 17//3 14//3 13//3
f 15//11 14//9 18//11
f 15//5 16//5 11//5
f 13//13 16//12 17//12
f 17//3 18//3 14//3
f 18//11 19//14 15//11
f 15//5 20//5 16//5
f 20//15 17//12 16//12
f 21//3 18//3 17//3
f 19//14 18//11 22//14
f 19//5 20//5 15//5
f 17//12 20//15 21//15
f 21//3 22//3 18//3
f 22//14 23//16 19//14
f 19//5 24//5 20//5
f 24//17 21//15 20//15
f 25//3 22//3 21//3
f 23//16 22//14 26//16
f 23//5 24//5 19//5
f 21//15 24//17 25//17
f 25//3 26//3 22//3
f 26//16 27//18 23//16
f 27//5 24//5 23//5
f 28//19 25//17 24//17
f 25//3 29//3 26//3
f 27//18 26//16 29//18
f 27//5 28//5 24//5
f 25//17 28//19 30//19
f 30//3 29//3 25//3
f 29//18 31//20 27//18
f 31//5 28//5 27//5
f 32//21 30//19 28//19
f 30//3 33//3 29//3
f 31//20 29//18 33//20
f 34//5 28//5 31//5
f 30//19 32//21 35//21
f 34//5 32//5 28//5
f 30//3 36//3 33//3
f 33//20 34//22 31//20
f 37//23 35//21 32//21
f 35//3 36//3 30//3
f 32//5 34//5 38//5
f 34//22 33//20 36//22
f 35//21 37//23 39//23
f 40//5 37//5 32//5
f 36//3 35//3 41//3
f 36//22 38//24 34//22
f 40//5 32//5 38//5
f 42//25 39//23 37//23
f 39//3 43//3 35//3
f 40//5 42//5 37//5
f 35//3 43//3 41//3
f 38//24 36//22 41//24
f 40//5 38//5 44//5
f 39//23 42//25 45//25
f 45//3 43//3 39//3
f 46//5 42//5 40//5
f 41//3 43//3 47//3
f 41//24 48//26 38//24
f 44//5 38//5 48//5
f 44//27 43//28 40//28
f 49//29 45//25 42//25
f 45//3 50//3 43//3
f 46//5 49//5 42//5
f 40//28 50//30 46//30
f 43//28 44//27 47//27
f 41//3 47//3 51//3
f 48//26 41//24 51//26
f 44//5 48//5 52//5
f 50//30 40//28 43//28
f 45//25 49//29 53//29
f 53//3 50//3 45//3
f 54//5 49//5 46//5
f 55//31 46//30 50//30
f 56//32 47//27 44//27
f 51//3 47//3 57//3
f 51//26 52//33 48//26
f 44//5 52//5 56//5
f 58//34 53//29 49//29
f 53//3 55//3 50//3
f 54//5 58//5 49//5
f 46//30 55//31 54//31
f 47//27 56//32 59//32
f 57//3 47//3 59//3
f 52//33 51//26 57//33
f 56//5 52//5 60//5
f 53//29 58//34 61//34
f 61//3 55//3 53//3
f 58//5 54//5 62//5
f 63//35 54//31 55//31
f 64//36 59//32 56//32
f 57//3 59//3 65//3
f 57//33 60//37 52//33
f 56//5 60//5 66//5
f 62//35 61//34 58//34
f 55//3 61//3 63//3
f 54//31 63//35 62//35
f 59//32 64//36 67//36
f 56//5 68//5 64//5
f 65//3 59//3 69//3
f 60//37 57//33 65//37
f 65//37 66//38 60//37
f 56//5 66//5 68//5
f 61//34 62//35 63//35
f 70//39 67//36 64//36
f 71//3 59//3 67//3
f 64//5 68//5 70//5
f 69//3 59//3 71//3
f 66//38 65//37 69//38
f 69//38 68//40 66//38
f 67//36 70//39 72//39
f 71//3 67//3 72//3
f 70//5 68//5 73//5
f 68//40 69//38 71//40
f 74//41 72//39 70//39
f 71//3 72//3 75//3
f 71//40 73//42 68//40
f 70//5 73//5 74//5
f 72//39 74//41 76//41
f 75//3 72//3 76//3
f 73//42 71//40 75//42
f 74//5 73//5 77//5
f 78//43 76//41 74//41
f 75//3 76//3 79//3
f 75//42 77//44 73//42
f 74//5 77//5 78//5
f 76//41 78//43 80//43
f 79//3 76//3 80//3
f 77//44 75//42 79//44
f 78//5 77//5 81//5
f 81//45 80//43 78//43
f 79//3 80//3 82//3
f 79//44 83//46 77//44
f 84//5 81//5 77//5
f 80//43 81//45 82//45
f 82//3 85//3 79//3
f 83//46 79//44 86//46
f 84//5 77//5 83//5
f 84//5 87//5 81//5
f 87//47 82//45 81//45
f 88//3 85//3 82//3
f 79//3 85//3 86//3
f 86//46 89//48 83//46
f 84//5 83//5 89//5
f 84//5 90//5 87//5
f 82//45 87//47 88//47
f 91//3 85//3 88//3
f 86//3 85//3 92//3
f 89//48 86//46 92//48
f 84//5 89//5 93//5
f 94//5 90//5 84//5
f 90//49 88//47 87//47
f 91//3 95//3 85//3
f 88//47 90//49 91//49
f 92//3 85//3 96//3
f 92//48 97//50 89//48
f 93//5 89//5 97//5
f 96//51 84//52 93//51
f 98//5 90//5 94//5
f 85//52 94//53 84//52
f 91//3 99//3 95//3
f 94//53 85//52 95//53
f 100//54 91//49 90//49
f 84//52 96//51 85//52
f 92//3 96//3 101//3
f 97//50 92//48 101//50
f 101//50 93//51 97//50
f 93//51 101//50 96//51
f 102//5 90//5 98//5
f 94//55 99//56 98//56
f 91//3 103//3 99//3
f 99//56 94//55 95//55
f 91//49 100//54 104//54
f 90//5 102//5 100//5
f 98//56 103//57 102//57
f 103//57 98//56 99//56
f 103//3 91//3 104//3
f 102//57 104//58 100//58
f 104//58 102//57 103//57
usemtl material_1_0
f 3//59 2//60 1//59
f 4//60 1//59 2//60
f 2//61 3//61 5//61
f 1//59 6//62 3//59
f 4//63 7//63 1//63
f 2//64 5//65 4//64
f 5//61 3//61 8//61
f 9//62 3//59 6//62
f 1//63 10//63 6//63
f 7//63 10//63 1//63
f 7//65 4//64 5//65
f 3//61 9//61 8//61
f 5//65 8//66 7//65
f 6//62 11//67 9//62
f 10//63 12//63 6//63
f 10//66 7//65 8//66
f 8//61 9//61 13//61
f 14//67 9//62 11//67
f 6//63 12//63 11//63
f 12//68 10//66 13//68
f 8//66 13//68 10//66
f 9//61 14//61 13//61
f 11//67 15//69 14//67
f 12//63 16//63 11//63
f 12//70 13//70 16//71
f 13//61 14//61 17//61
f 18//69 14//67 15//69
f 11//63 16//63 15//63
f 17//71 16//71 13//70
f 14//61 18//61 17//61
f 15//69 19//72 18//69
f 16//63 20//63 15//63
f 16//71 17//71 20//73
f 17//61 18//61 21//61
f 22//72 18//69 19//72
f 15//63 20//63 19//63
f 21//73 20//73 17//71
f 18//61 22//61 21//61
f 19//72 23//74 22//72
f 20//63 24//63 19//63
f 20//73 21//73 24//75
f 21//61 22//61 25//61
f 26//74 22//72 23//74
f 19//63 24//63 23//63
f 25//75 24//75 21//73
f 22//61 26//61 25//61
f 23//74 27//76 26//74
f 23//63 24//63 27//63
f 24//75 25//75 28//77
f 26//61 29//61 25//61
f 29//76 26//74 27//76
f 24//63 28//63 27//63
f 30//77 28//77 25//75
f 25//61 29//61 30//61
f 27//76 31//78 29//76
f 27//63 28//63 31//63
f 28//77 30//77 32//79
f 29//61 33//61 30//61
f 33//78 29//76 31//78
f 31//63 28//63 34//63
f 35//79 32//79 30//77
f 28//63 32//63 34//63
f 33//61 36//61 30//61
f 31//78 34//80 33//78
f 32//79 35//79 37//81
f 30//61 36//61 35//61
f 38//63 34//63 32//63
f 36//80 33//78 34//80
f 39//81 37//81 35//79
f 32//63 37//63 40//63
f 41//61 35//61 36//61
f 34//80 38//82 36//80
f 38//63 32//63 40//63
f 37//81 39//81 42//83
f 35//61 43//61 39//61
f 37//63 42//63 40//63
f 41//61 43//61 35//61
f 41//82 36//80 38//82
f 44//63 38//63 40//63
f 45//83 42//83 39//81
f 39//61 43//61 45//61
f 40//63 42//63 46//63
f 47//61 43//61 41//61
f 38//82 48//84 41//82
f 48//63 38//63 44//63
f 40//85 43//85 44//86
f 42//83 45//83 49//87
f 43//61 50//61 45//61
f 42//63 49//63 46//63
f 46//88 50//88 40//85
f 47//86 44//86 43//85
f 51//61 47//61 41//61
f 51//84 41//82 48//84
f 52//63 48//63 44//63
f 43//85 40//85 50//88
f 53//87 49//87 45//83
f 45//61 50//61 53//61
f 46//63 49//63 54//63
f 50//88 46//88 55//89
f 44//86 47//86 56//90
f 57//61 47//61 51//61
f 48//84 52//91 51//84
f 56//63 52//63 44//63
f 49//87 53//87 58//92
f 50//61 55//61 53//61
f 49//63 58//63 54//63
f 54//89 55//89 46//88
f 59//90 56//90 47//86
f 59//61 47//61 57//61
f 57//91 51//84 52//91
f 60//63 52//63 56//63
f 61//92 58//92 53//87
f 53//61 55//61 61//61
f 62//63 54//63 58//63
f 55//89 54//89 63//93
f 56//90 59//90 64//94
f 65//61 59//61 57//61
f 52//91 60//95 57//91
f 66//63 60//63 56//63
f 58//92 61//92 62//93
f 63//61 61//61 55//61
f 62//93 63//93 54//89
f 67//94 64//94 59//90
f 64//63 68//63 56//63
f 69//61 59//61 65//61
f 65//95 57//91 60//95
f 60//95 66//96 65//95
f 68//63 66//63 56//63
f 63//93 62//93 61//92
f 64//94 67//94 70//97
f 67//61 59//61 71//61
f 70//63 68//63 64//63
f 71//61 59//61 69//61
f 69//96 65//95 66//96
f 66//96 68//98 69//96
f 72//97 70//97 67//94
f 72//61 67//61 71//61
f 73//63 68//63 70//63
f 71//98 69//96 68//98
f 70//97 72//97 74//99
f 75//61 72//61 71//61
f 68//98 73//100 71//98
f 74//63 73//63 70//63
f 76//99 74//99 72//97
f 76//61 72//61 75//61
f 75//100 71//98 73//100
f 77//63 73//63 74//63
f 74//99 76//99 78//101
f 79//61 76//61 75//61
f 73//100 77//102 75//100
f 78//63 77//63 74//63
f 80//101 78//101 76//99
f 80//61 76//61 79//61
f 79//102 75//100 77//102
f 81//63 77//63 78//63
f 78//101 80//101 81//103
f 82//61 80//61 79//61
f 77//102 83//104 79//102
f 77//63 81//63 84//63
f 82//103 81//103 80//101
f 79//61 85//61 82//61
f 86//104 79//102 83//104
f 83//63 77//63 84//63
f 81//63 87//63 84//63
f 81//103 82//103 87//105
f 82//61 85//61 88//61
f 86//61 85//61 79//61
f 83//104 89//106 86//104
f 89//63 83//63 84//63
f 87//63 90//63 84//63
f 88//105 87//105 82//103
f 88//61 85//61 91//61
f 92//61 85//61 86//61
f 92//106 86//104 89//106
f 93//63 89//63 84//63
f 84//63 90//63 94//63
f 87//105 88//105 90//107
f 85//61 95//61 91//61
f 91//107 90//107 88//105
f 96//61 85//61 92//61
f 89//106 97//108 92//106
f 97//63 89//63 93//63
f 93//109 84//110 96//109
f 94//63 90//63 98//63
f 84//110 94//111 85//110
f 95//61 99//61 91//61
f 95//111 85//110 94//111
f 90//107 91//107 100//112
f 85//110 96//109 84//110
f 101//61 96//61 92//61
f 101//108 92//106 97//108
f 97//108 93//109 101//108
f 96//109 101//108 93//109
f 98//63 90//63 102//63
f 98//113 99//113 94//114
f 99//61 103//61 91//61
f 95//114 94//114 99//113
f 104//112 100//112 91//107
f 100//63 102//63 90//63
f 102//115 103//115 98//113
f 99//113 98//113 103//115
f 104//61 91//61 103//61
f 100//116 104//116 102//115
f 103//115 102//115 104//116
