# SSTK version 0.8.0
# 61
mtllib original-61.mtl
o coffe3_1/coffe3/mesh49/mesh49-geometry#mesh49-geometry
v 0.408373 0.135515 0.339915
v 0.408896 0.127977 0.333397
v 0.408968 0.135480 0.333397
v 0.408302 0.128010 0.339901
v 0.408307 0.135444 0.326885
v 0.403923 0.138014 0.339025
v 0.406568 0.135549 0.346192
v 0.407115 0.116712 0.333406
v 0.408237 0.127943 0.326900
v 0.404435 0.137981 0.333420
v 0.402372 0.138046 0.344423
v 0.406502 0.128042 0.346164
v 0.406554 0.116743 0.339552
v 0.406440 0.135411 0.320627
v 0.403867 0.137947 0.327820
v 0.397600 0.137981 0.333454
v 0.397214 0.138011 0.337683
v 0.403602 0.135580 0.351978
v 0.399821 0.138076 0.349399
v 0.406522 0.102926 0.333409
v 0.406492 0.116681 0.327267
v 0.406374 0.127911 0.320656
v 0.397171 0.137950 0.329230
v 0.396043 0.138040 0.341755
v 0.403542 0.128072 0.351937
v 0.404853 0.116773 0.345469
v 0.405972 0.102956 0.339435
v 0.403415 0.135380 0.314871
v 0.402261 0.137915 0.322439
v 0.395960 0.137922 0.325170
v 0.399608 0.135607 0.357064
v 0.396386 0.138102 0.353772
v 0.394119 0.138066 0.345509
v 0.406554 0.089170 0.339552
v 0.405911 0.102895 0.327390
v 0.404732 0.116651 0.321367
v 0.403355 0.127881 0.314913
v 0.399557 0.128098 0.357011
v 0.402057 0.116800 0.350924
v 0.404304 0.102985 0.345237
v 0.407115 0.089139 0.333406
v 0.404853 0.089200 0.345469
v 0.399370 0.135352 0.309826
v 0.399660 0.137885 0.317489
v 0.393997 0.137895 0.321436
v 0.394721 0.135629 0.361237
v 0.391527 0.138090 0.348808
v 0.408302 0.077908 0.339901
v 0.406502 0.077940 0.346164
v 0.406492 0.089108 0.327267
v 0.404185 0.102866 0.321605
v 0.401880 0.116624 0.315941
v 0.399319 0.127855 0.309879
v 0.394681 0.128119 0.361176
v 0.398291 0.116824 0.355718
v 0.392183 0.138123 0.357361
v 0.401561 0.103011 0.350586
v 0.402057 0.089227 0.350924
v 0.408896 0.077874 0.333397
v 0.403542 0.077970 0.351937
v 0.394441 0.135330 0.305702
v 0.396181 0.137859 0.313150
v 0.391373 0.137871 0.318163
v 0.389117 0.128135 0.364289
v 0.389145 0.135646 0.364357
v 0.388357 0.138109 0.351515
v 0.408373 0.070407 0.339915
v 0.406568 0.070440 0.346192
v 0.403602 0.070472 0.351978
v 0.408237 0.077841 0.326900
v 0.404732 0.089078 0.321367
v 0.401389 0.102840 0.316284
v 0.398067 0.116600 0.311185
v 0.394402 0.127834 0.305764
v 0.391943 0.137838 0.309604
v 0.388427 0.116859 0.362594
v 0.393684 0.116844 0.359653
v 0.397869 0.103035 0.355287
v 0.387388 0.138139 0.360044
v 0.398291 0.089252 0.355718
v 0.399557 0.077996 0.357011
v 0.408968 0.070372 0.333397
v 0.399608 0.070499 0.357064
v 0.388834 0.135313 0.302639
v 0.387121 0.137822 0.306969
v 0.388176 0.137852 0.315488
v 0.383068 0.128145 0.366210
v 0.382711 0.116868 0.364409
v 0.383082 0.135656 0.366282
v 0.384740 0.138123 0.353539
v 0.403923 0.067904 0.339025
v 0.402372 0.067936 0.344423
v 0.399820 0.067966 0.349399
v 0.396386 0.067992 0.353772
v 0.408307 0.070336 0.326885
v 0.406374 0.077809 0.320656
v 0.401880 0.089051 0.315941
v 0.397649 0.102816 0.311620
v 0.393420 0.116580 0.307297
v 0.388807 0.127818 0.302707
v 0.384538 0.137838 0.313500
v 0.388197 0.103068 0.362030
v 0.382592 0.103077 0.363809
v 0.393352 0.103054 0.359145
v 0.393684 0.089271 0.359653
v 0.382175 0.138149 0.361699
v 0.394681 0.078017 0.361176
v 0.394721 0.070521 0.361237
v 0.404435 0.067871 0.333420
v 0.382752 0.135303 0.300775
v 0.381891 0.137812 0.305367
v 0.380593 0.137829 0.312291
v 0.376772 0.128148 0.366888
v 0.376763 0.116871 0.365050
v 0.376760 0.103080 0.364438
v 0.376773 0.135660 0.366962
v 0.380807 0.138132 0.354788
v 0.397214 0.067901 0.337683
v 0.396043 0.067930 0.341755
v 0.391527 0.067980 0.348808
v 0.388357 0.067999 0.351515
v 0.392183 0.068013 0.357361
v 0.403867 0.067837 0.327820
v 0.406440 0.070303 0.320627
v 0.403355 0.077779 0.314913
v 0.398067 0.089027 0.311185
v 0.393093 0.102797 0.307808
v 0.388134 0.116565 0.304408
v 0.382738 0.127808 0.300847
v 0.388427 0.089286 0.362594
v 0.382711 0.089295 0.364409
v 0.376749 0.138152 0.362284
v 0.389117 0.078033 0.364289
v 0.397600 0.067871 0.333454
v 0.394119 0.067956 0.345509
v 0.389145 0.070538 0.364357
v 0.376436 0.135299 0.300158
v 0.376460 0.137809 0.304837
v 0.376495 0.137826 0.311891
v 0.370457 0.135656 0.366346
v 0.370470 0.128145 0.366273
v 0.370809 0.116868 0.364469
v 0.376763 0.089298 0.365050
v 0.376714 0.138135 0.355229
v 0.387388 0.068029 0.360044
v 0.397171 0.067840 0.329230
v 0.402261 0.067805 0.322439
v 0.403415 0.070271 0.314871
v 0.399319 0.077753 0.309879
v 0.393420 0.089007 0.307297
v 0.387910 0.102783 0.304975
v 0.382400 0.116556 0.302651
v 0.376436 0.127805 0.300232
v 0.370921 0.103077 0.363868
v 0.383068 0.078043 0.366210
v 0.371318 0.138149 0.361754
v 0.384740 0.068013 0.353539
v 0.383082 0.070548 0.366282
v 0.370127 0.135303 0.300838
v 0.371034 0.137812 0.305421
v 0.372402 0.137829 0.312332
v 0.364375 0.135646 0.364482
v 0.364402 0.128135 0.364413
v 0.365075 0.116859 0.362712
v 0.370809 0.089295 0.364469
v 0.376772 0.078046 0.366888
v 0.372616 0.138132 0.354829
v 0.380807 0.068022 0.354788
v 0.382175 0.068039 0.361699
v 0.395960 0.067811 0.325170
v 0.399660 0.067775 0.317489
v 0.399370 0.070244 0.309826
v 0.394402 0.077732 0.305764
v 0.388134 0.088993 0.304408
v 0.382287 0.102774 0.303252
v 0.376446 0.116553 0.302070
v 0.370141 0.127808 0.300911
v 0.365299 0.103068 0.362145
v 0.366088 0.138139 0.360151
v 0.376773 0.070552 0.366962
v 0.364064 0.135313 0.302763
v 0.365820 0.137822 0.307077
v 0.368469 0.137838 0.313581
v 0.358768 0.135629 0.361418
v 0.358807 0.128119 0.361356
v 0.359788 0.116844 0.359824
v 0.365075 0.089286 0.362712
v 0.370470 0.078043 0.366273
v 0.368671 0.138123 0.353620
v 0.376749 0.068042 0.362284
v 0.393997 0.067785 0.321436
v 0.396181 0.067749 0.313150
v 0.394441 0.070222 0.305702
v 0.388807 0.077716 0.302707
v 0.382400 0.088984 0.302651
v 0.376449 0.102771 0.302683
v 0.370498 0.116556 0.302711
v 0.364092 0.127818 0.302832
v 0.360116 0.103054 0.359313
v 0.361266 0.138123 0.357516
v 0.376714 0.068025 0.355229
v 0.370457 0.070548 0.366346
v 0.391943 0.067728 0.309604
v 0.358488 0.135330 0.305883
v 0.361025 0.137838 0.309760
v 0.364851 0.137852 0.315605
v 0.353839 0.135607 0.357294
v 0.353890 0.128098 0.357241
v 0.355142 0.116824 0.355936
v 0.359788 0.089271 0.359824
v 0.364402 0.078033 0.364413
v 0.365033 0.138109 0.351633
v 0.371318 0.068039 0.361754
v 0.391373 0.067761 0.318163
v 0.387121 0.067712 0.306969
v 0.388834 0.070205 0.302639
v 0.382738 0.077706 0.300847
v 0.376446 0.088980 0.302070
v 0.370616 0.102774 0.303311
v 0.364782 0.116565 0.304526
v 0.358528 0.127834 0.305945
v 0.355560 0.103035 0.355500
v 0.357028 0.138102 0.353970
v 0.372616 0.068022 0.354829
v 0.364375 0.070538 0.364482
v 0.388176 0.067742 0.315488
v 0.384538 0.067728 0.313500
v 0.370498 0.088984 0.302711
v 0.353601 0.135352 0.310057
v 0.356823 0.137859 0.313349
v 0.361681 0.137871 0.318313
v 0.349794 0.135580 0.352249
v 0.349853 0.128072 0.352208
v 0.351328 0.116800 0.351180
v 0.355142 0.089252 0.355936
v 0.358807 0.078017 0.361356
v 0.361836 0.138090 0.348957
v 0.366088 0.068029 0.360151
v 0.381891 0.067702 0.305367
v 0.380593 0.067719 0.312291
v 0.382752 0.070195 0.300775
v 0.376436 0.077703 0.300232
v 0.370141 0.077706 0.300911
v 0.364782 0.088993 0.304526
v 0.365012 0.102783 0.305091
v 0.359525 0.116580 0.307467
v 0.353652 0.127855 0.310109
v 0.351820 0.103011 0.350837
v 0.353549 0.138076 0.349632
v 0.368671 0.068013 0.353620
v 0.358768 0.070521 0.361418
v 0.364092 0.077716 0.302832
v 0.349667 0.127881 0.315183
v 0.349607 0.135380 0.315142
v 0.359090 0.137895 0.321612
v 0.346769 0.135549 0.346493
v 0.346835 0.128042 0.346464
v 0.348477 0.116773 0.345753
v 0.351328 0.089227 0.351180
v 0.353890 0.077996 0.357241
v 0.350948 0.138046 0.344682
v 0.359211 0.138066 0.345684
v 0.361266 0.068013 0.357516
v 0.376460 0.067699 0.304837
v 0.376495 0.067716 0.311891
v 0.376436 0.070191 0.300158
v 0.370127 0.070195 0.300838
v 0.364064 0.070205 0.302763
v 0.359525 0.089007 0.307467
v 0.358528 0.077732 0.305945
v 0.359857 0.102797 0.307975
v 0.354918 0.116600 0.311402
v 0.351152 0.116624 0.316196
v 0.353388 0.137885 0.317722
v 0.349024 0.102985 0.345516
v 0.365033 0.067999 0.351633
v 0.353839 0.070499 0.357294
v 0.358488 0.070222 0.305883
v 0.346707 0.127911 0.320957
v 0.348355 0.116651 0.321651
v 0.346640 0.135411 0.320929
v 0.357165 0.137922 0.325366
v 0.344902 0.135515 0.340235
v 0.349342 0.138014 0.339300
v 0.344972 0.128010 0.340220
v 0.346716 0.116743 0.339853
v 0.348477 0.089200 0.345753
v 0.349853 0.077970 0.352208
v 0.357249 0.138040 0.341950
v 0.361836 0.067980 0.348957
v 0.357028 0.067992 0.353970
v 0.371034 0.067702 0.305421
v 0.372402 0.067719 0.312332
v 0.365820 0.067712 0.307077
v 0.361025 0.067728 0.309760
v 0.354918 0.089027 0.311402
v 0.353652 0.077753 0.310109
v 0.353601 0.070244 0.310057
v 0.355340 0.102816 0.311833
v 0.351647 0.102840 0.316534
v 0.348905 0.102866 0.321883
v 0.350837 0.137915 0.322698
v 0.347298 0.102956 0.339731
v 0.349794 0.070472 0.352249
v 0.356823 0.067749 0.313349
v 0.344907 0.127943 0.327219
v 0.346654 0.116681 0.327569
v 0.347237 0.102895 0.327685
v 0.344836 0.135444 0.327205
v 0.355995 0.137950 0.329437
v 0.344241 0.135480 0.333723
v 0.348774 0.137981 0.333700
v 0.356038 0.138011 0.337890
v 0.344313 0.127977 0.333723
v 0.346093 0.116712 0.333714
v 0.346716 0.089170 0.339853
v 0.346835 0.077940 0.346464
v 0.359211 0.067956 0.345684
v 0.353549 0.067966 0.349632
v 0.364851 0.067742 0.315605
v 0.351152 0.089051 0.316196
v 0.349667 0.077779 0.315183
v 0.349607 0.070271 0.315142
v 0.348355 0.089078 0.321651
v 0.349286 0.137947 0.328095
v 0.346687 0.102926 0.333711
v 0.350948 0.067936 0.344682
v 0.368469 0.067728 0.313581
v 0.361681 0.067761 0.318313
v 0.353388 0.067775 0.317722
v 0.346654 0.089108 0.327569
v 0.355609 0.137981 0.333666
v 0.346093 0.089139 0.333714
v 0.344972 0.077908 0.340220
v 0.346769 0.070440 0.346493
v 0.357249 0.067930 0.341950
v 0.346707 0.077809 0.320956
v 0.346640 0.070303 0.320928
v 0.349342 0.067904 0.339300
v 0.356038 0.067901 0.337890
v 0.350837 0.067805 0.322698
v 0.344907 0.077841 0.327219
v 0.344313 0.077874 0.333723
v 0.344902 0.070407 0.340235
v 0.359090 0.067785 0.321612
v 0.344836 0.070336 0.327205
v 0.348774 0.067871 0.333700
v 0.355609 0.067871 0.333666
v 0.357165 0.067811 0.325366
v 0.349286 0.067837 0.328095
v 0.344241 0.070372 0.333723
v 0.355995 0.067840 0.329437
vn 0.9827972040799935 -0.009572997488835517 0.1844397282898301
vn 0.9965326015790966 -0.0830760118004083 -0.0045989404579526065
vn 0.9999418102320781 -0.009566004446853859 -0.004986753324310228
vn 0.9793725229640914 -0.0831390020383189 0.18416668429176494
vn 0.9809081934989912 -0.00957700279032725 -0.19423541629707916
vn 0.4830474769094447 0.8755634206544776 -0.00733699279335882
vn 0.19618688343756777 0.9800816805659502 0.030831902083342844
vn 0.47512597342237983 0.8758799213280309 0.08420019473752996
vn 0.9297773069772046 -0.009604003329967754 0.36799717736723886
vn 0.9950039106287949 -0.09973406472458658 -0.004509342182307417
vn 0.9776251764612083 -0.0831739578241186 -0.19321259557560702
vn 0.47279354572654686 0.8756493250559758 -0.09851153561047314
vn 0.19896856793128279 0.979981265902763 -0.006944598979988125
vn 0.18578658962213185 0.9802673555729325 0.06752225347711263
vn 0.9264534987924629 -0.08341102541525981 0.36705110736024055
vn 0.4489478613079165 0.876712785822161 0.1726861575314978
vn 0.9778521660091611 -0.0998129992279464 0.1839633295423688
vn 0.9260565284209271 -0.009614002051214937 -0.3772623452367596
vn 0.19426926524989444 0.9799434551470928 -0.04438780568629128
vn 0.00028325643321993645 0.9999773977965878 -0.006717414812095078
vn 0.0011059689845113233 0.9999784369281737 -0.0064732149115991205
vn 0.8419591855986166 -0.009649994825746416 0.5394549169170463
vn 0.16819608271511355 0.9804918297738867 0.1017145491360316
vn 0.9999873175170565 0 -0.005036348383673126
vn 0.97613760123689 -0.09984798694003397 -0.192836103869356
vn 0.9229984647471354 -0.08347899372296433 -0.37563957683054694
vn 0.44452378693598826 0.8762538959969931 -0.18595083381953106
vn -0.0005749886779578877 0.9999779336809657 -0.006618273125709295
vn 0.0017712372945414858 0.999980730626227 -0.005949881905009925
vn 0.838869831128326 -0.083794001912179 0.5378438171684002
vn 0.4056033253347491 0.8778073970508093 0.25483350674563243
vn 0.9249914966949159 -0.10014300628567618 0.3665543743214187
vn 0.9828512815794056 0.000001999999237473381 0.1843999953734277
vn 0.8365266593999188 -0.00966200145857114 -0.5478410297166751
vn 0.18217380876632555 0.9799947734786444 -0.080143292633326
vn -0.0013252745363175286 0.9999796990061559 -0.006232593598273398
vn 0.7214075279617234 -0.009710002653428359 0.6924427012025078
vn 0.14385714428859525 0.9807564865607693 0.13199180317771908
vn 0.002180488446559528 0.9999839998155028 -0.005219730177184462
vn 0.9780310727223551 0.09984795033304583 0.18299073092331403
vn 0.9809434432350153 -0.0000019999994853383406 -0.19429349235173232
vn 0.9215978778586005 -0.10021197936550383 -0.3749865473829321
vn 0.8337909819441537 -0.08389302083340823 -0.5456689101314547
vn 0.3995415143805587 0.8771230497477895 -0.2664990316823435
vn 0.7186896705462401 -0.08429199929679383 0.6902028805392558
vn 0.3463137060933745 0.8791619517915952 0.32732411993903626
vn 0.8375219915651119 -0.10060599977117152 0.5370617715448118
vn 0.9298369074836474 0.0000049999988641545925 0.3679719085151023
vn 0.9949988476898644 0.09973400952375061 -0.005515472795548065
vn 0.9253299460061928 0.10021201915046864 0.3656802459006538
vn 0.7144445859393372 -0.009722996792437518 -0.6996244685224662
vn 0.20502362510500252 0.9687039112812564 -0.1399215688062392
vn -0.001811797569629102 0.9999820533760435 -0.005710544229615813
vn 0.57157229450939 -0.009766997306286747 0.8204935818840329
vn 0.2734229720914762 0.8804348686276816 0.3873942700108258
vn 0.0022700283482899033 0.9999877753322718 -0.004392739158194633
vn 0.9795224540555073 0.08317300220329445 0.18335215762452112
vn 0.9267369712145167 0.0834789917905512 0.36631931987512906
vn 0.9759492135133727 0.09981204629039235 -0.1938057998563346
vn 0.926082058524848 -0.000005000002473580616 -0.37732217116594136
vn 0.8325254365984692 -0.10070702689537618 -0.5447563603579328
vn 0.7121203356430527 -0.08441900912464027 -0.6969634556144532
vn 0.3392350095858048 0.8782617983625317 -0.3370101212253582
vn 0.5693690705676054 -0.084768956794757 0.817699874920444
vn 0.7175124214169054 -0.10120598724941252 0.6891540272372504
vn 0.11380874120050412 0.9809919040447721 0.157170145463346
vn 0.8420219392159357 0.00000700000288440856 0.5394432813837196
vn 0.8379727067861574 0.1007080206494769 0.5363391065905462
vn 0.9965283540201848 0.08307597643126571 -0.005442588888821617
vn 0.8392474353348782 0.08389401785579502 0.5372388072839126
vn 0.5633241772222025 -0.00978099797363681 -0.8261780700524363
vn 0.17385848361069414 0.9689442364485842 -0.17584167404133866
vn -0.0020293906036727505 0.9999864958794266 -0.004784311085575492
vn 0.39591189123391113 -0.08520896755017307 0.9143266408831262
vn 0.1894896159130119 0.8815804811363434 0.43233036065091773
vn 0.0021177460644784575 0.9999908400184783 -0.003719547115529762
vn 0.9828153958996863 0.009576996575161329 0.18434255807908884
vn 0.9298112969430842 0.009612998814380944 0.3679110521998687
vn 0.8420048162124238 0.009661997962956472 0.5393834770091183
vn 0.9774671739605688 0.08313902284419554 -0.1940253249193297
vn 0.9212508908622193 0.10014300015892683 -0.37585658914636055
vn 0.836543077584266 -0.00000699999777460922 -0.5479011583277086
vn 0.7110346128182559 -0.10133696204516014 -0.6958164984375197
vn 0.5614965844234919 -0.08492095704890165 -0.8231099663681949
vn 0.13619781288957872 0.9691753913405028 -0.20530274373246588
vn 0.26602470465239014 0.8793390428717365 -0.39496038307155207
vn 0.3974717123020323 -0.00981699774454973 0.917561913156259
vn 0.3952415452885781 -0.10231401250809322 0.912861415397973
vn 0.5684196127911295 -0.10178097837225666 0.8164188730277913
vn 0.7214682252816736 0.000009000003377450655 0.6924475430152902
vn 0.0983701704141193 0.9702495109138389 0.22122205166789607
vn 0.7180096273629374 0.10133702158595342 0.6886167171004665
vn 0.7191056598427832 0.08441997268026626 0.6897538098443083
vn 0.9999412858984519 0.009567003928954062 -0.005088928332582939
vn 0.7214561500860858 0.009723001846072657 0.6923918592372852
vn 0.3882418326233465 -0.009836000585232419 -0.9215050366079139
vn 0.0742769932288995 0.9804851774178286 -0.18202127661568435
vn -0.0020172440151362955 0.999989778649787 -0.004046396240280588
vn 0.20507902104806594 -0.08548101140791164 0.9750054316846893
vn 0.2047285187349625 -0.10264405280155112 0.9734220215513211
vn 0.09793859097027378 0.8822833246251804 0.4604173839974941
vn 0.0013940755258414145 0.999994376441454 -0.0030501866985535612
vn 0.1947079019456137 -0.9799429935269867 0.042433033798040955
vn 0.48309360366373494 -0.8755652369936526 0.0024669550939017404
vn 0.47375994724067805 -0.8756502144126134 0.09374547663569861
vn 0.18296920013814807 -0.9799955874131244 0.07830019445449186
vn 0.44637963022125066 -0.876251039495264 0.18146443592894157
vn 0.20642484535082767 -0.968703937021653 0.13784580378319936
vn 0.40221315694735793 -0.8771198218876813 0.26246027209877326
vn 0.17561902895885415 -0.9689446088206684 0.17408130774127134
vn 0.34261692833933816 -0.8782590597365484 0.333578573061866
vn 0.9808888215480086 0.00957400152197431 -0.1943333688716791
vn 0.9227080701577822 0.0834109822961042 -0.3763674073270696
vn 0.8320670930786669 0.10060603446783438 -0.5454748192577491
vn 0.7144532285650824 -0.000009000003496414398 -0.6996832026795629
vn 0.5606361929748817 -0.10193799853413175 -0.8217637760217268
vn 0.38698437350621673 -0.08538205112311628 -0.918124719201052
vn 0.1824564536199967 0.8803298611984016 -0.43786867667694235
vn -0.001623111130160697 0.9999934587881042 -0.0032323197959523453
vn 0.20589638620233158 -0.00984599656455003 0.9785242636237852
vn 0.397509265388728 0.000010999996913066046 0.9175981603126251
vn 0.20591636940511177 0.000012000001922569748 0.978569593164951
vn 0.5716231867505533 0.000010000000218112196 0.8205162596007114
vn 0.5688856926009724 0.10193796720961952 0.8160745796770553
vn 0.05085012308007079 0.9704508998751892 0.2358798760262883
vn 0.5697604338167056 0.0849210290529328 0.8174114428374428
vn 0.5716191625058751 0.00978100205294959 0.8204607638729121
vn 0.19902847387559836 -0.9799812632318226 0.004938653795497636
vn 0.2699912765109974 -0.8793371316816245 0.3922638390852453
vn 0.474253558079253 -0.8758799114375969 -0.08898282637248695
vn 0.19604670438824548 -0.009868000739764786 -0.9805449057844866
vn 0.046930965281677645 0.9695218853424096 -0.24046787382066134
vn -0.0009370424148199447 0.9999959324832768 -0.0026938760948351124
vn 0.005018108830186549 -0.08560003920071789 0.9963169434836507
vn 0.00501056761765568 -0.10278599691513507 0.9946908731109936
vn 0.005036348383247554 0.000013000002865695985 0.9999873174325574
vn 0.002368746016764952 0.8825807787502651 0.4701548234601912
vn 0.0007486077733005086 0.9999962706180273 -0.002626468434745029
vn -0.0005029684258414813 -0.9999778672584468 0.00663415525977013
vn -0.0012653342686890661 -0.9999796989796566 0.006245042653508992
vn -0.0019868879977217773 -0.999986522259553 0.004796621240923699
vn -0.0018744266478754011 -0.9999913941311859 0.003701106362853373
vn 0.13829115359343275 -0.9691553299674021 0.2039938803826559
vn 0.19586688247909634 -0.9800814424549268 -0.032810524277888276
vn 0.9260216475938905 0.009605004319131203 -0.37734818414764615
vn 0.833407451297729 0.08379299060358011 -0.5462698553344598
vn 0.7105313965654061 0.10120600689789788 -0.6963493940993963
vn 0.5633266750968076 -0.000011000002208907126 -0.8262342627871201
vn 0.3863878818796131 -0.10248994828010068 -0.916624358850521
vn 0.19541302290486984 -0.08566600568920833 -0.9769724079770304
vn 0.09184395674081286 0.8809373598299498 -0.46423491431174063
vn 0.005036653229681549 -0.009862004980175476 0.9999386846112189
vn 0.3956036844748439 0.10248900904824272 0.9126849006388993
vn 0.20492841888974153 0.10282905185228247 0.9733604313030765
vn 0.0012140137265646601 0.9705364972928379 0.24095110207928266
vn 0.3962145508088839 0.08538301353760613 0.9141792880647381
vn 0.0003496604717361473 -0.9999774566268101 0.006705518304396203
vn -0.0017633535989177692 -0.9999820657303234 0.005723530536349486
vn 0.18685926014059573 -0.8803296254739643 0.43600844878577644
vn 0.44718266633864767 -0.8767147465128718 -0.17719739324586237
vn -0.005034479368512918 -0.009880997923992893 -0.9999385080581276
vn -0.0012326263163082256 0.9695780892671196 -0.24477910336768066
vn -0.000012533693707977828 0.9999969212812453 -0.00248138488290474
vn -0.19602575552729493 -0.009849999584457857 0.9805492749873101
vn -0.1952452155357471 -0.08548296192615346 0.9770219900446108
vn -0.19491115960766356 -0.10264401327515615 0.9754352087141235
vn 0.005010712152710511 0.10297601701323573 0.9946712183851569
vn -0.09329384637605767 0.8822841953990611 0.4613792981673449
vn 0.39750705638562384 0.009835999352083272 0.9175463984128446
vn -0.000012217119587546126 0.9999969336547057 -0.0024763949459318236
vn 0.06294645693444108 -0.9864792020043263 0.151315985845211
vn 0.0011729039731716358 -0.9999784117826949 0.006465312430866
vn 0.1850970098665917 -0.9802677147200805 -0.06938518873590971
vn 0.836480339869983 0.009649999952956125 -0.5479119623734321
vn 0.7116987512796679 0.08429002094480828 -0.6974095495446596
vn 0.5601642881074183 0.1017809727966975 -0.8221049835061622
vn 0.3882429624372554 -0.00001199999589491073 -0.9215570530216477
vn 0.19511213249974052 -0.1028310047242109 -0.9753753329968996
vn -0.005016507930741944 -0.08578700973978602 -0.996300870022749
vn -0.002380673217772653 0.8812019032898588 -0.47273410923410264
vn -0.19604636697099193 0.00001300000154622351 0.9805946266569459
vn 0.205244657055764 0.08566697784193941 0.9749542551614873
vn -0.048447288314655224 0.9704447108963149 0.236410497542568
vn -0.0016921767446247008 -0.9999936578142288 0.0031338266040254917
vn 0.0965175720142689 -0.8809369739797649 0.4632865270735221
vn 0.4030117467385265 -0.8778087278437853 -0.25890803253672395
vn -0.20591602630565878 -0.009866001721144099 -0.9785199293425381
vn -0.049326057283619724 0.9695153615153791 -0.24001438260770253
vn 0.0007590315253212942 0.9999962462661058 -0.0026327409369787257
vn -0.38820481317837235 -0.009817001797792404 0.9215208350877625
vn -0.38667771910184545 -0.08520996523169955 0.9182698968034436
vn -0.3860215077621929 -0.10231498782528431 0.9167982541493602
vn -0.19511000582922597 0.10282996921862474 0.9753758675791687
vn 0.0050200896626003385 0.08578803738055855 0.9963007634957285
vn -0.18512412833422287 0.8815804949855474 0.4342175583385955
vn 0.20591383143725225 0.009870000542312346 0.9785203508931869
vn -0.0009199185851874714 0.9999959691796246 -0.002686144876900653
vn -0.0009025392670701202 -0.9999959510536993 0.002698758803352026
vn 0.04935343269936645 -0.9695220568581074 0.2399817075245814
vn 0.0018341853720951287 -0.9999807306997255 0.005930766667445025
vn 0.16716477190423304 -0.9804910946120023 -0.10340770000712234
vn 0.7143934934893009 0.009707998418169 -0.6996768477139036
vn 0.5611017054106927 0.08476703520197672 -0.8233950606654615
vn 0.3860215472577872 0.10231399829360695 -0.9167983479511075
vn 0.19604697329973655 -0.000012999991329265406 -0.9805945054358669
vn -0.005007893104665509 -0.10297703059417161 -0.9946711276480581
vn -0.20524602048012444 -0.08566495846394169 -0.9749541455722127
vn -0.09651279025534741 0.8809388488674654 -0.4632839581435906
vn -0.3882429624372554 0.00001199999589491073 0.9215570530216477
vn -0.07703010318561572 0.9811955658279266 0.17697916488340806
vn 0.002381211360094995 -0.8812007746003263 0.47273621045594083
vn 0.342997739337167 -0.8791604668275819 -0.3308011855739049
vn -0.39751083828334877 -0.009835001599319118 -0.9175447706737863
vn -0.09555158482282163 0.9693798532184527 -0.2262136043919963
vn 0.0014012357388457548 0.9999943638255157 -0.0030510417248110545
vn -0.563276365482053 -0.009764997342973692 0.8262108574185044
vn -0.5611016578474703 -0.08476802801681252 0.8233949908682716
vn -0.5601641740782308 -0.10178295207683127 0.8221048161553239
vn -0.3863874650153758 0.10249003940512187 0.9166245243837459
vn -0.1954116457040554 0.08566602000400338 0.9769726821871256
vn 0.0050380613953505465 0.009884001677582317 0.9999384603305417
vn -0.269506716706412 0.8804341268261049 0.3901305909180723
vn -0.0016209408720699373 0.9999934605675943 -0.0032328582920833375
vn 0.0012333869172603293 -0.9695782424930032 0.24477849260278461
vn 0.002240927197267253 -0.9999839859272256 0.0051967426716252015
vn 0.1425211211155125 -0.9807558443491561 -0.13343801486439855
vn 0.563275362307527 0.009763004392308138 -0.82621156489277
vn 0.386677784998652 0.08520797975347849 -0.9182700532930751
vn 0.19491117961403542 0.10264302381066928 -0.9754353088362485
vn -0.005034939123259922 -0.000014000004738713445 -0.9999873245156785
vn -0.20492837674413342 -0.10283103070504206 -0.9733602311216302
vn -0.396218667675972 -0.08538096534229384 -0.9141776950584037
vn -0.1868583028470862 0.8803326665943132 -0.4360027187805739
vn -0.5633266750968076 0.000011000002208907126 0.8262342627871201
vn -0.1398441606594764 0.9698959543969481 0.19936260525454558
vn 0.000012217119587546126 -0.9999969336547057 0.0024763949459318236
vn -0.09184540934232095 -0.8809367055826334 0.4642358684332334
vn 0.11221545276375632 -0.9809912669640567 -0.15831559083451013
vn 0.2695063730287508 -0.8804320382838271 -0.39013554165222314
vn -0.5716191625058751 -0.00978100205294959 -0.8204607638729121
vn -0.10996464556653979 0.9803333754452069 -0.1638726631065476
vn 0.002111124380986781 0.9999908652677397 -0.0037165218854469414
vn -0.7143941915706854 -0.009707999079055406 0.6996761349395504
vn -0.7116993892068824 -0.08429101958055309 0.6974087778488463
vn -0.7105320224579382 -0.10120700354275104 0.6963486106080269
vn -0.5606361929748817 0.10193799853413175 0.8217637760217268
vn -0.3869835511450403 0.08538201297256 0.9181250693690525
vn -0.19604532545606812 0.009869002296463036 0.9805451714023667
vn -0.34299828329492305 0.8791620496493594 0.3307964149035978
vn -0.0020238657492141526 0.9999897775072993 -0.004043370911923591
vn -0.04690999518732024 -0.9695152544056836 0.24049869817986108
vn 0.0023065029422785085 -0.9999878198022111 0.004363518236220289
vn 0.09614195013435765 -0.9702487988276647 -0.22220259628959493
vn 0.38820482079961227 0.009815001990114336 -0.9215208531790666
vn 0.1952460353504333 0.08548003651528407 -0.9770220821646166
vn -0.005008395244329312 0.10278495354259885 -0.9946909918674857
vn -0.20591551037310574 -0.000012999995856248263 -0.9785697739143506
vn -0.39560654485619823 -0.10248999083959894 -0.9126835505500468
vn -0.5697613827013531 -0.08491996034744068 -0.8174108924628001
vn -0.2699923467580837 0.8793396952868648 -0.39225735555227814
vn -0.7144532285650824 0.000009000003496414398 0.6996832026795629
vn -0.17790219263972518 0.9695182955984172 0.1684787356134841
vn 0.0007817399611936182 -0.9999962586585658 0.002621364435556279
vn -0.1824564536199967 -0.8803298611984016 0.43786867667694235
vn 0.0021479193144049212 -0.9999908747436508 0.00369281356783681
vn 0.18512786544002297 -0.8815781858062866 -0.4342206532952079
vn 0.0014312529116689233 -0.9999943595675365 0.0030384779438603596
vn -0.20472853974903907 0.10264306333669135 -0.9734221214668826
vn -0.7214561500860858 -0.009723001846072657 -0.6923918592372852
vn -0.13991315752335193 0.9801832087898278 -0.14023261232082473
vn 0.0022623296582995785 0.9999877870006241 -0.004394054404723098
vn -0.8364814350138613 -0.009648997602634352 0.5479103081001634
vn -0.8334084705589955 -0.08379396248796507 0.5462681512325989
vn -0.8320681829545715 -0.10060600919498708 0.5454731614190892
vn -0.7110345407638506 0.10133795177545912 0.6958164279252788
vn -0.5614963639146269 0.08492103870319696 0.8231101083671752
vn -0.3882418364418996 0.009835000681905083 0.9215050456713779
vn -0.40301546247019854 0.8778072649126164 0.25890720862224653
vn -0.0020331906180960906 0.9999865037138211 -0.00478105910005479
vn -0.09326720152497968 -0.9693790519150967 0.22716840191339854
vn 0.0484762287066077 -0.9704503477560921 -0.2363814243769263
vn 0.00077804888681913 -0.999996256719072 0.0026232018171715547
vn 0.19602713832490185 0.009846998225467467 -0.9805490286906093
vn -0.005015936791461033 0.08559800886209047 -0.9963171288585525
vn -0.20507903857833015 0.08548001871465519 -0.975005515028674
vn -0.3952424212285867 0.1023140424156761 -0.9128610327897272
vn -0.39751014251911126 -0.000013000000169080247 -0.9175977803076006
vn -0.5688873822373416 -0.10193699746110638 -0.8160735229620916
vn -0.719105031228808 -0.08441898815221809 -0.6897545857047788
vn -0.3426136359315209 0.878261228385275 -0.33357624494104926
vn -0.8365436210718024 0.000006999996887958731 0.5479003285225121
vn -0.208922187459738 0.9691084826306811 0.1310735231856418
vn -0.26602416514075417 -0.8793376727259675 0.39496379693086303
vn 0.09330143394617689 -0.8822800394533585 -0.46138571109839055
vn -0.39591280127949563 0.08520799975592147 -0.9143263370157384
vn -0.8392475057423218 -0.08389302489366494 -0.5372388523547812
vn -0.40220613731379246 0.8771236445395753 -0.2624582543886395
vn 0.002179522363349515 0.999983971889951 -0.005225480405229629
vn -0.9260220058400417 -0.009605001298687424 0.37734730507854153
vn -0.9227080701577822 -0.0834109822961042 0.3763674073270696
vn -0.9212512524179145 -0.10014296886410363 0.3758557112849382
vn -0.832526524953864 0.10070700142716939 0.5447547017803438
vn -0.7121202755262047 0.08442000199805277 0.6969633967771415
vn -0.5633233799687358 0.00978099540728596 0.8261786136843786
vn -0.1853366651882363 0.9802124057232317 0.06952668698549182
vn -0.001818086400813304 0.9999820350848703 -0.005711748362838316
vn -0.10830548068055472 -0.9803336833454092 0.1649720950736127
vn -0.001216833366801855 -0.9705364420712004 -0.2409513102855696
vn 0.000007765641959048773 -0.9999969275377253 0.002478881764879566
vn -0.005034480362419715 0.009860999874952437 -0.9999387054659633
vn -0.20589638620233158 0.00984599656455003 -0.9785242636237852
vn -0.3974717123020323 0.00981699774454973 -0.917561913156259
vn -0.568418796684573 0.10178096839848984 -0.8164194424727572
vn -0.5693691188321244 0.08476796398091281 -0.8176999442355739
vn -0.5716231867445513 -0.000011000000239789698 -0.8205162595920958
vn -0.7180082483674378 -0.10133704160144837 -0.688618152008637
vn -0.8420048162124238 -0.009661997962956472 -0.5393834770091183
vn -0.8379721244910429 -0.10070696400426603 -0.5363402147676526
vn -0.1646568181571024 0.9800364715133006 -0.11143000824795198
vn -0.44718454126007223 0.8767132232173518 0.17720019834599607
vn -0.9260827748688245 0.000004999999328328916 0.3773204129996918
vn -0.3392388966395332 -0.8782590184847179 0.33701345293185586
vn -0.002369934865824592 -0.8825791180793855 -0.4701579348888477
vn -0.57157229450939 0.009766997306286747 -0.8204935818840329
vn -0.9267366434005029 -0.08347903075777115 -0.3663201403178813
vn -0.925330038734944 -0.10021102919257943 -0.3656802825460393
vn -0.446374841554825 0.8762539990291105 -0.1814619244150037
vn 0.0017633167031880683 0.9999807535742733 -0.005948377529445569
vn -0.9808885570021387 -0.009573997856855988 0.19433470433069622
vn -0.19612868327510008 0.980025996350383 0.03290267579110012
vn -0.977466830254075 -0.08313998417226853 0.19402664452308177
vn -0.9759487572944562 -0.0998139882839844 0.19380709707916088
vn -0.9215987089971479 0.10021201118726877 0.37498449619763363
vn -0.8337919998163068 0.0838939925577224 0.5456672054055006
vn -0.7144445859393372 0.009722996792437518 0.6996244685224662
vn -0.001330058933704023 0.9999797344914161 -0.006225877424908548
vn -0.1384903273194964 -0.9801841702766286 0.14163128742638648
vn -0.05083182528906142 -0.9704436049004641 -0.2359138301278119
vn -0.000900036147063095 -0.9999959661661371 0.002693990792125486
vn -0.09794415627599383 -0.8822826570193009 -0.46041747944050365
vn -0.06585792283699887 -0.9871086262871612 -0.14587424004624594
vn -0.1894901797476877 -0.8815800828288605 -0.4323309257254775
vn -0.14180766479628698 -0.9699152244214353 -0.19787633421038653
vn -0.27342269755687015 -0.8804330564824238 -0.3873985822299066
vn -0.717511041280359 0.1012060070918592 -0.6891554612489822
vn -0.7186890413269134 0.08429101468294797 -0.6902036559743226
vn -0.7214075279617234 0.009710002653428359 -0.6924427012025078
vn -0.7214660896376507 -0.000008999997091832165 -0.6924497681579204
vn -0.8420212665385741 -0.000006999998214651463 -0.5394443313705088
vn -0.9298112880043456 -0.009613998721833454 -0.3679110486629567
vn -0.9298374048939575 -0.000005000000942219471 -0.3679706515947575
vn -0.18321382741320838 0.9799389252693704 -0.07843721174617553
vn -0.47425204525272685 0.8758807212606393 0.08898291800984946
vn -0.9809434432325628 0.00000299999922797844 0.19429349235124657
vn -0.39955003893032054 -0.8771189497910814 0.26649974541858323
vn -0.17959138024821214 -0.9695179437999549 -0.16667901124751563
vn -0.34631275279540547 -0.8791610254723723 -0.3273276165275932
vn -0.9795218571733645 -0.08317397036387206 -0.18335490714336655
vn -0.9780309234463085 -0.09984801272378288 -0.18299149471456921
vn -0.9828513973101262 -0.000002000000794532418 -0.18439937852805435
vn -0.4737611843950511 0.8756496901295207 -0.09374412161129284
vn 0.0011023888763621865 0.9999784436485348 -0.006472787422698932
vn -0.9999412874360348 -0.009567998791499634 0.005086755340204498
vn -0.19931187371551967 0.9799236513544959 -0.0049411043382017695
vn -0.0005756217882508179 0.9999778672184477 -0.006628252620522092
vn -0.9965282849832373 -0.08307698917594131 0.00543977001611658
vn -0.9949987550831998 -0.09973501136330915 0.005514063043098189
vn -0.97613760123689 0.09984798694003397 0.192836103869356
vn -0.9229992969425272 0.0834790202866149 0.3756375261014096
vn -0.8365277463200433 0.009661999010220162 0.5478393700819937
vn -0.16352354173962885 -0.9800370232572589 0.11308175954582073
vn -0.8375214724177109 0.10060602875199973 -0.5370625757004686
vn -0.8388687141176835 0.0837929773749773 -0.5378457189726257
vn -0.40559887548437684 -0.8778091604398284 -0.254834515036195
vn -0.9828147150717155 -0.009578999512951032 -0.18434608378491107
vn -0.9249914966949159 0.10014300628567618 -0.3665543743214187
vn -0.19496789219804836 0.9798876457648007 -0.04251732222714164
vn -0.4830954308189765 0.8755642184497974 -0.002470646114485665
vn -0.9999873142653323 0 0.005036993985275779
vn -0.18241368850851208 -0.9799389802218917 0.08027976884868498
vn -0.8419581529241456 0.009650000420464882 -0.5394565285696766
vn -0.21023126631189554 -0.9691082681091696 -0.128965031490489
vn -0.9778521660091611 0.0998129992279464 -0.1839633295423688
vn 0.0002822741176837833 0.9999774213715746 -0.006713945812923597
vn -0.9950038113924634 0.09973505477819732 0.004509341732569913
vn -0.9776249130318484 0.08317304591860376 0.19321432103261088
vn -0.9260572536298584 0.009612996095802672 0.37726059071361573
vn -0.4445289057442569 -0.8762509312480403 0.18595256772832086
vn -0.9264530036417085 0.08341099082537531 -0.36705236500094357
vn -0.44894477611930006 -0.87671510228022 -0.1726824178339386
vn -0.19453393922070286 -0.9798867158358334 0.044481126556560814
vn 0.0011653162407103568 -0.999978438267646 0.0064625875513429736
vn -0.18602804058319275 -0.9802124764299395 -0.06765404029223542
vn -0.9297764753609923 0.009605003740928687 -0.3679992524019944
vn -0.9793725229640914 0.0831390020383189 -0.18416668429176494
vn -0.9965326015790966 0.0830760118004083 0.0045989404579526065
vn -0.9809077596377864 0.009577003811863799 0.19423760727615574
vn -0.47279153313859945 -0.8756500005691725 0.09851519017725525
vn -0.47512597342237983 -0.8758799213280309 -0.08420019473752996
vn -0.19925083217314138 -0.9799239112463355 0.006945073505335581
vn 0.0003465078795825224 -0.9999774308433688 0.006709525779434926
vn -0.001269785718336418 -0.9999796778040998 0.006247529354738838
vn -0.982797060419056 0.009573003496281653 -0.18444049348156322
vn -0.1964521417995539 -0.980025697623898 -0.03092228935832738
vn -0.9999418070819148 0.009565997142249656 0.004987398964278059
vn -0.48304488900433 -0.8755648647576348 0.007335039791247043
vn -0.0005089244322080327 -0.9999779002782089 0.006628721679698617
vn -0.9999418102320781 0.009566004446853859 0.004986753324310228
vn -0.9827972040799935 0.009572997488835517 -0.1844397282898301
vn -0.9809081934989912 0.00957700279032725 0.19423541629707916
vn -0.19618688343756777 -0.9800816805659502 -0.030831902083342844
vn -0.4830474769094447 -0.8755634206544776 0.00733699279335882
vn -0.9297773069772046 0.009604003329967754 -0.36799717736723886
vn -0.9950039106287949 0.09973406472458658 0.004509342182307417
vn -0.9776251764612083 0.0831739578241186 0.19321259557560702
vn -0.19896856793128279 -0.979981265902763 0.006944598979988125
vn -0.47279354572654686 -0.8756493250559758 0.09851153561047314
vn -0.18578658962213185 -0.9802673555729325 -0.06752225347711263
vn -0.9264534987924629 0.08341102541525981 -0.36705110736024055
vn -0.4489478613079165 -0.876712785822161 -0.1726861575314978
vn -0.9260565284209271 0.009614002051214937 0.3772623452367596
vn -0.19426926524989444 -0.9799434551470928 0.04438780568629128
vn -0.00028325643321993645 -0.9999773977965878 0.006717414812095078
vn -0.0011059689845113233 -0.9999784369281737 0.0064732149115991205
vn -0.8419591855986166 0.009649994825746416 -0.5394549169170463
vn -0.16819608271511355 -0.9804918297738867 -0.1017145491360316
vn -0.9999873175170565 0 0.005036348383673126
vn -0.9229984647471354 0.08347899372296433 0.37563957683054694
vn -0.44452378693598826 -0.8762538959969931 0.18595083381953106
vn 0.0005749886779578877 -0.9999779336809657 0.006618273125709295
vn -0.0017712372945414858 -0.999980730626227 0.005949881905009925
vn -0.838869831128326 0.083794001912179 -0.5378438171684002
vn -0.4056033253347491 -0.8778073970508093 -0.25483350674563243
vn -0.9828512815794056 -0.000001999999237473381 -0.1843999953734277
vn -0.8365266593999188 0.00966200145857114 0.5478410297166751
vn -0.18217380876632555 -0.9799947734786444 0.080143292633326
vn 0.0013252745363175286 -0.9999796990061559 0.006232593598273398
vn -0.14385714428859525 -0.9807564865607693 -0.13199180317771908
vn -0.002180488446559528 -0.9999839998155028 0.005219730177184462
vn -0.9780310727223551 -0.09984795033304583 -0.18299073092331403
vn -0.9809434432350153 0.0000019999994853383406 0.19429349235173232
vn -0.9215978778586005 0.10021197936550383 0.3749865473829321
vn -0.8337909819441537 0.08389302083340823 0.5456689101314547
vn -0.3995415143805587 -0.8771230497477895 0.2664990316823435
vn -0.7186896705462401 0.08429199929679383 -0.6902028805392558
vn -0.3463137060933745 -0.8791619517915952 -0.32732411993903626
vn -0.8375219915651119 0.10060599977117152 -0.5370617715448118
vn -0.9298369074836474 -0.0000049999988641545925 -0.3679719085151023
vn -0.9949988476898644 -0.09973400952375061 0.005515472795548065
vn -0.9253299460061928 -0.10021201915046864 -0.3656802459006538
vn -0.20502362510500252 -0.9687039112812564 0.1399215688062392
vn 0.001811797569629102 -0.9999820533760435 0.005710544229615813
vn -0.2734229720914762 -0.8804348686276816 -0.3873942700108258
vn -0.0022700283482899033 -0.9999877753322718 0.004392739158194633
vn -0.9795224540555073 -0.08317300220329445 -0.18335215762452112
vn -0.9267369712145167 -0.0834789917905512 -0.36631931987512906
vn -0.9759492135133727 -0.09981204629039235 0.1938057998563346
vn -0.926082058524848 0.000005000002473580616 0.37732217116594136
vn -0.8325254365984692 0.10070702689537618 0.5447563603579328
vn -0.7121203356430527 0.08441900912464027 0.6969634556144532
vn -0.3392350095858048 -0.8782617983625317 0.3370101212253582
vn -0.5693690705676054 0.084768956794757 -0.817699874920444
vn -0.7175124214169054 0.10120598724941252 -0.6891540272372504
vn -0.11380874120050412 -0.9809919040447721 -0.157170145463346
vn -0.8420219392159357 -0.00000700000288440856 -0.5394432813837196
vn -0.8379727067861574 -0.1007080206494769 -0.5363391065905462
vn -0.9965283540201848 -0.08307597643126571 0.005442588888821617
vn -0.8392474353348782 -0.08389401785579502 -0.5372388072839126
vn -0.5633241772222025 0.00978099797363681 0.8261780700524363
vn -0.17385848361069414 -0.9689442364485842 0.17584167404133866
vn 0.0020293906036727505 -0.9999864958794266 0.004784311085575492
vn -0.39591189123391113 0.08520896755017307 -0.9143266408831262
vn -0.1894896159130119 -0.8815804811363434 -0.43233036065091773
vn -0.0021177460644784575 -0.9999908400184783 0.003719547115529762
vn -0.9828153958996863 -0.009576996575161329 -0.18434255807908884
vn -0.9298112969430842 -0.009612998814380944 -0.3679110521998687
vn -0.9774671739605688 -0.08313902284419554 0.1940253249193297
vn -0.9212508908622193 -0.10014300015892683 0.37585658914636055
vn -0.836543077584266 0.00000699999777460922 0.5479011583277086
vn -0.7110346128182559 0.10133696204516014 0.6958164984375197
vn -0.5614965844234919 0.08492095704890165 0.8231099663681949
vn -0.26602470465239014 -0.8793390428717365 0.39496038307155207
vn -0.13619781288957872 -0.9691753913405028 0.20530274373246588
vn -0.3952415452885781 0.10231401250809322 -0.912861415397973
vn -0.5684196127911295 0.10178097837225666 -0.8164188730277913
vn -0.7214682252816736 -0.000009000003377450655 -0.6924475430152902
vn -0.0983701704141193 -0.9702495109138389 -0.22122205166789607
vn -0.7180096273629374 -0.10133702158595342 -0.6886167171004665
vn -0.7191056598427832 -0.08441997268026626 -0.6897538098443083
vn -0.9999412858984519 -0.009567003928954062 0.005088928332582939
vn -0.3882418326233465 0.009836000585232419 0.9215050366079139
vn -0.0742769932288995 -0.9804851774178286 0.18202127661568435
vn 0.0020172440151362955 -0.999989778649787 0.004046396240280588
vn -0.20507902104806594 0.08548101140791164 -0.9750054316846893
vn -0.2047285187349625 0.10264405280155112 -0.9734220215513211
vn -0.09793859097027378 -0.8822833246251804 -0.4604173839974941
vn -0.0013940755258414145 -0.999994376441454 0.0030501866985535612
vn -0.47375994724067805 0.8756502144126134 -0.09374547663569861
vn -0.48309360366373494 0.8755652369936526 -0.0024669550939017404
vn -0.1947079019456137 0.9799429935269867 -0.042433033798040955
vn -0.44637963022125066 0.876251039495264 -0.18146443592894157
vn -0.18296920013814807 0.9799955874131244 -0.07830019445449186
vn -0.40221315694735793 0.8771198218876813 -0.26246027209877326
vn -0.20642484535082767 0.968703937021653 -0.13784580378319936
vn -0.34261692833933816 0.8782590597365484 -0.333578573061866
vn -0.17561902895885415 0.9689446088206684 -0.17408130774127134
vn -0.9808888215480086 -0.00957400152197431 0.1943333688716791
vn -0.8320670930786669 -0.10060603446783438 0.5454748192577491
vn -0.38698437350621673 0.08538205112311628 0.918124719201052
vn 0.001623111130160697 -0.9999934587881042 0.0032323197959523453
vn -0.397509265388728 -0.000010999996913066046 -0.9175981603126251
vn -0.20591636940511177 -0.000012000001922569748 -0.978569593164951
vn -0.5716231867505533 -0.000010000000218112196 -0.8205162596007114
vn -0.5688856926009724 -0.10193796720961952 -0.8160745796770553
vn -0.05085012308007079 -0.9704508998751892 -0.2358798760262883
vn -0.5697604338167056 -0.0849210290529328 -0.8174114428374428
vn -0.19902847387559836 0.9799812632318226 -0.004938653795497636
vn -0.2699912765109974 0.8793371316816245 -0.3922638390852453
vn -0.474253558079253 0.8758799114375969 0.08898282637248695
vn -0.19604670438824548 0.009868000739764786 0.9805449057844866
vn -0.046930965281677645 -0.9695218853424096 0.24046787382066134
vn 0.0009370424148199447 -0.9999959324832768 0.0026938760948351124
vn -0.005018108830186549 0.08560003920071789 -0.9963169434836507
vn -0.00501056761765568 0.10278599691513507 -0.9946908731109936
vn -0.005036348383247554 -0.000013000002865695985 -0.9999873174325574
vn -0.002368746016764952 -0.8825807787502651 -0.4701548234601912
vn -0.0007486077733005086 -0.9999962706180273 0.002626468434745029
vn 0.0005029684258414813 0.9999778672584468 -0.00663415525977013
vn 0.0012653342686890661 0.9999796989796566 -0.006245042653508992
vn 0.0019868879977217773 0.999986522259553 -0.004796621240923699
vn 0.0018744266478754011 0.9999913941311859 -0.003701106362853373
vn -0.13829115359343275 0.9691553299674021 -0.2039938803826559
vn -0.19586688247909634 0.9800814424549268 0.032810524277888276
vn -0.9260216475938905 -0.009605004319131203 0.37734818414764615
vn -0.833407451297729 -0.08379299060358011 0.5462698553344598
vn -0.7105313965654061 -0.10120600689789788 0.6963493940993963
vn -0.3863878818796131 0.10248994828010068 0.916624358850521
vn -0.19541302290486984 0.08566600568920833 0.9769724079770304
vn -0.09184395674081286 -0.8809373598299498 0.46423491431174063
vn -0.005036653229681549 0.009862004980175476 -0.9999386846112189
vn -0.3956036844748439 -0.10248900904824272 -0.9126849006388993
vn -0.20492841888974153 -0.10282905185228247 -0.9733604313030765
vn -0.0012140137265646601 -0.9705364972928379 -0.24095110207928266
vn -0.3962145508088839 -0.08538301353760613 -0.9141792880647381
vn -0.0003496604717361473 0.9999774566268101 -0.006705518304396203
vn 0.0017633535989177692 0.9999820657303234 -0.005723530536349486
vn -0.18685926014059573 0.8803296254739643 -0.43600844878577644
vn -0.44718266633864767 0.8767147465128718 0.17719739324586237
vn 0.005034479368512918 0.009880997923992893 0.9999385080581276
vn 0.0012326263163082256 -0.9695780892671196 0.24477910336768066
vn 0.000012533693707977828 -0.9999969212812453 0.00248138488290474
vn 0.19602575552729493 0.009849999584457857 -0.9805492749873101
vn 0.1952452155357471 0.08548296192615346 -0.9770219900446108
vn 0.19491115960766356 0.10264401327515615 -0.9754352087141235
vn -0.005010712152710511 -0.10297601701323573 -0.9946712183851569
vn 0.09329384637605767 -0.8822841953990611 -0.4613792981673449
vn -0.39750705638562384 -0.009835999352083272 -0.9175463984128446
vn -0.06294645693444108 0.9864792020043263 -0.151315985845211
vn -0.0011729039731716358 0.9999784117826949 -0.006465312430866
vn -0.1850970098665917 0.9802677147200805 0.06938518873590971
vn -0.836480339869983 -0.009649999952956125 0.5479119623734321
vn -0.7116987512796679 -0.08429002094480828 0.6974095495446596
vn -0.5601642881074183 -0.1017809727966975 0.8221049835061622
vn -0.19511213249974052 0.1028310047242109 0.9753753329968996
vn 0.005016507930741944 0.08578700973978602 0.996300870022749
vn 0.002380673217772653 -0.8812019032898588 0.47273410923410264
vn 0.19604636697099193 -0.00001300000154622351 -0.9805946266569459
vn -0.205244657055764 -0.08566697784193941 -0.9749542551614873
vn 0.048447288314655224 -0.9704447108963149 -0.236410497542568
vn 0.0016921767446247008 0.9999936578142288 -0.0031338266040254917
vn -0.0965175720142689 0.8809369739797649 -0.4632865270735221
vn -0.4030117467385265 0.8778087278437853 0.25890803253672395
vn 0.20591602630565878 0.009866001721144099 0.9785199293425381
vn 0.049326057283619724 -0.9695153615153791 0.24001438260770253
vn -0.0007590315253212942 -0.9999962462661058 0.0026327409369787257
vn 0.38820481317837235 0.009817001797792404 -0.9215208350877625
vn 0.38667771910184545 0.08520996523169955 -0.9182698968034436
vn 0.3860215077621929 0.10231498782528431 -0.9167982541493602
vn 0.19511000582922597 -0.10282996921862474 -0.9753758675791687
vn -0.0050200896626003385 -0.08578803738055855 -0.9963007634957285
vn 0.18512412833422287 -0.8815804949855474 -0.4342175583385955
vn -0.20591383143725225 -0.009870000542312346 -0.9785203508931869
vn 0.0009199185851874714 -0.9999959691796246 0.002686144876900653
vn 0.0009025392670701202 0.9999959510536993 -0.002698758803352026
vn -0.04935343269936645 0.9695220568581074 -0.2399817075245814
vn -0.0018341853720951287 0.9999807306997255 -0.005930766667445025
vn -0.16716477190423304 0.9804910946120023 0.10340770000712234
vn -0.7143934934893009 -0.009707998418169 0.6996768477139036
vn -0.5611017054106927 -0.08476703520197672 0.8233950606654615
vn -0.3860215472577872 -0.10231399829360695 0.9167983479511075
vn -0.19604697329973655 0.000012999991329265406 0.9805945054358669
vn 0.005007893104665509 0.10297703059417161 0.9946711276480581
vn 0.20524602048012444 0.08566495846394169 0.9749541455722127
vn 0.09651279025534741 -0.8809388488674654 0.4632839581435906
vn 0.07703010318561572 -0.9811955658279266 -0.17697916488340806
vn -0.002381211360094995 0.8812007746003263 -0.47273621045594083
vn -0.342997739337167 0.8791604668275819 0.3308011855739049
vn 0.39751083828334877 0.009835001599319118 0.9175447706737863
vn 0.09555158482282163 -0.9693798532184527 0.2262136043919963
vn -0.0014012357388457548 -0.9999943638255157 0.0030510417248110545
vn 0.563276365482053 0.009764997342973692 -0.8262108574185044
vn 0.5611016578474703 0.08476802801681252 -0.8233949908682716
vn 0.5601641740782308 0.10178295207683127 -0.8221048161553239
vn 0.3863874650153758 -0.10249003940512187 -0.9166245243837459
vn 0.1954116457040554 -0.08566602000400338 -0.9769726821871256
vn -0.0050380613953505465 -0.009884001677582317 -0.9999384603305417
vn 0.269506716706412 -0.8804341268261049 -0.3901305909180723
vn 0.0016209408720699373 -0.9999934605675943 0.0032328582920833375
vn -0.0012333869172603293 0.9695782424930032 -0.24477849260278461
vn -0.002240927197267253 0.9999839859272256 -0.0051967426716252015
vn -0.1425211211155125 0.9807558443491561 0.13343801486439855
vn -0.563275362307527 -0.009763004392308138 0.82621156489277
vn -0.386677784998652 -0.08520797975347849 0.9182700532930751
vn -0.19491117961403542 -0.10264302381066928 0.9754353088362485
vn 0.005034939123259922 0.000014000004738713445 0.9999873245156785
vn 0.20492837674413342 0.10283103070504206 0.9733602311216302
vn 0.396218667675972 0.08538096534229384 0.9141776950584037
vn 0.1868583028470862 -0.8803326665943132 0.4360027187805739
vn 0.1398441606594764 -0.9698959543969481 -0.19936260525454558
vn 0.09184540934232095 0.8809367055826334 -0.4642358684332334
vn -0.11221545276375632 0.9809912669640567 0.15831559083451013
vn -0.2695063730287508 0.8804320382838271 0.39013554165222314
vn 0.10996464556653979 -0.9803333754452069 0.1638726631065476
vn -0.002111124380986781 -0.9999908652677397 0.0037165218854469414
vn 0.7143941915706854 0.009707999079055406 -0.6996761349395504
vn 0.7116993892068824 0.08429101958055309 -0.6974087778488463
vn 0.7105320224579382 0.10120700354275104 -0.6963486106080269
vn 0.3869835511450403 -0.08538201297256 -0.9181250693690525
vn 0.19604532545606812 -0.009869002296463036 -0.9805451714023667
vn 0.34299828329492305 -0.8791620496493594 -0.3307964149035978
vn 0.0020238657492141526 -0.9999897775072993 0.004043370911923591
vn 0.04690999518732024 0.9695152544056836 -0.24049869817986108
vn -0.0023065029422785085 0.9999878198022111 -0.004363518236220289
vn -0.09614195013435765 0.9702487988276647 0.22220259628959493
vn -0.38820482079961227 -0.009815001990114336 0.9215208531790666
vn -0.1952460353504333 -0.08548003651528407 0.9770220821646166
vn 0.005008395244329312 -0.10278495354259885 0.9946909918674857
vn 0.20591551037310574 0.000012999995856248263 0.9785697739143506
vn 0.39560654485619823 0.10248999083959894 0.9126835505500468
vn 0.5697613827013531 0.08491996034744068 0.8174108924628001
vn 0.2699923467580837 -0.8793396952868648 0.39225735555227814
vn 0.17790219263972518 -0.9695182955984172 -0.1684787356134841
vn -0.0007817399611936182 0.9999962586585658 -0.002621364435556279
vn -0.0021479193144049212 0.9999908747436508 -0.00369281356783681
vn -0.18512786544002297 0.8815781858062866 0.4342206532952079
vn -0.0014312529116689233 0.9999943595675365 -0.0030384779438603596
vn 0.20472853974903907 -0.10264306333669135 0.9734221214668826
vn 0.13991315752335193 -0.9801832087898278 0.14023261232082473
vn -0.0022623296582995785 -0.9999877870006241 0.004394054404723098
vn 0.8364814350138613 0.009648997602634352 -0.5479103081001634
vn 0.8334084705589955 0.08379396248796507 -0.5462681512325989
vn 0.8320681829545715 0.10060600919498708 -0.5454731614190892
vn 0.7110345407638506 -0.10133795177545912 -0.6958164279252788
vn 0.5614963639146269 -0.08492103870319696 -0.8231101083671752
vn 0.3882418364418996 -0.009835000681905083 -0.9215050456713779
vn 0.40301546247019854 -0.8778072649126164 -0.25890720862224653
vn 0.0020331906180960906 -0.9999865037138211 0.00478105910005479
vn 0.09326720152497968 0.9693790519150967 -0.22716840191339854
vn -0.0484762287066077 0.9704503477560921 0.2363814243769263
vn -0.00077804888681913 0.999996256719072 -0.0026232018171715547
vn -0.19602713832490185 -0.009846998225467467 0.9805490286906093
vn 0.005015936791461033 -0.08559800886209047 0.9963171288585525
vn 0.20507903857833015 -0.08548001871465519 0.975005515028674
vn 0.3952424212285867 -0.1023140424156761 0.9128610327897272
vn 0.39751014251911126 0.000013000000169080247 0.9175977803076006
vn 0.5688873822373416 0.10193699746110638 0.8160735229620916
vn 0.719105031228808 0.08441898815221809 0.6897545857047788
vn 0.3426136359315209 -0.878261228385275 0.33357624494104926
vn 0.8365436210718024 -0.000006999996887958731 -0.5479003285225121
vn 0.208922187459738 -0.9691084826306811 -0.1310735231856418
vn 0.26602416514075417 0.8793376727259675 -0.39496379693086303
vn -0.09330143394617689 0.8822800394533585 0.46138571109839055
vn 0.39591280127949563 -0.08520799975592147 0.9143263370157384
vn 0.8392475057423218 0.08389302489366494 0.5372388523547812
vn 0.40220613731379246 -0.8771236445395753 0.2624582543886395
vn -0.002179522363349515 -0.999983971889951 0.005225480405229629
vn 0.9260220058400417 0.009605001298687424 -0.37734730507854153
vn 0.9212512524179145 0.10014296886410363 -0.3758557112849382
vn 0.832526524953864 -0.10070700142716939 -0.5447547017803438
vn 0.7121202755262047 -0.08442000199805277 -0.6969633967771415
vn 0.5633233799687358 -0.00978099540728596 -0.8261786136843786
vn 0.1853366651882363 -0.9802124057232317 -0.06952668698549182
vn 0.001818086400813304 -0.9999820350848703 0.005711748362838316
vn 0.10830548068055472 0.9803336833454092 -0.1649720950736127
vn 0.001216833366801855 0.9705364420712004 0.2409513102855696
vn -0.000007765641959048773 0.9999969275377253 -0.002478881764879566
vn 0.005034480362419715 -0.009860999874952437 0.9999387054659633
vn 0.568418796684573 -0.10178096839848984 0.8164194424727572
vn 0.5693691188321244 -0.08476796398091281 0.8176999442355739
vn 0.5716231867445513 0.000011000000239789698 0.8205162595920958
vn 0.7180082483674378 0.10133704160144837 0.688618152008637
vn 0.8379721244910429 0.10070696400426603 0.5363402147676526
vn 0.1646568181571024 -0.9800364715133006 0.11143000824795198
vn 0.44718454126007223 -0.8767132232173518 -0.17720019834599607
vn 0.9260827748688245 -0.000004999999328328916 -0.3773204129996918
vn 0.3392388966395332 0.8782590184847179 -0.33701345293185586
vn 0.002369934865824592 0.8825791180793855 0.4701579348888477
vn 0.9267366434005029 0.08347903075777115 0.3663201403178813
vn 0.925330038734944 0.10021102919257943 0.3656802825460393
vn 0.446374841554825 -0.8762539990291105 0.1814619244150037
vn -0.0017633167031880683 -0.9999807535742733 0.005948377529445569
vn 0.9808885570021387 0.009573997856855988 -0.19433470433069622
vn 0.19612868327510008 -0.980025996350383 -0.03290267579110012
vn 0.977466830254075 0.08313998417226853 -0.19402664452308177
vn 0.9759487572944562 0.0998139882839844 -0.19380709707916088
vn 0.9215987089971479 -0.10021201118726877 -0.37498449619763363
vn 0.8337919998163068 -0.0838939925577224 -0.5456672054055006
vn 0.001330058933704023 -0.9999797344914161 0.006225877424908548
vn 0.1384903273194964 0.9801841702766286 -0.14163128742638648
vn 0.05083182528906142 0.9704436049004641 0.2359138301278119
vn 0.000900036147063095 0.9999959661661371 -0.002693990792125486
vn 0.09794415627599383 0.8822826570193009 0.46041747944050365
vn 0.1894901797476877 0.8815800828288605 0.4323309257254775
vn 0.06585792283699887 0.9871086262871612 0.14587424004624594
vn 0.27342269755687015 0.8804330564824238 0.3873985822299066
vn 0.14180766479628698 0.9699152244214353 0.19787633421038653
vn 0.717511041280359 -0.1012060070918592 0.6891554612489822
vn 0.7186890413269134 -0.08429101468294797 0.6902036559743226
vn 0.7214660896376507 0.000008999997091832165 0.6924497681579204
vn 0.8420212665385741 0.000006999998214651463 0.5394443313705088
vn 0.9298112880043456 0.009613998721833454 0.3679110486629567
vn 0.9298374048939575 0.000005000000942219471 0.3679706515947575
vn 0.18321382741320838 -0.9799389252693704 0.07843721174617553
vn 0.47425204525272685 -0.8758807212606393 -0.08898291800984946
vn 0.9809434432325628 -0.00000299999922797844 -0.19429349235124657
vn 0.39955003893032054 0.8771189497910814 -0.26649974541858323
vn 0.17959138024821214 0.9695179437999549 0.16667901124751563
vn 0.34631275279540547 0.8791610254723723 0.3273276165275932
vn 0.9795218571733645 0.08317397036387206 0.18335490714336655
vn 0.9780309234463085 0.09984801272378288 0.18299149471456921
vn 0.9828513973101262 0.000002000000794532418 0.18439937852805435
vn 0.4737611843950511 -0.8756496901295207 0.09374412161129284
vn -0.0011023888763621865 -0.9999784436485348 0.006472787422698932
vn 0.9999412874360348 0.009567998791499634 -0.005086755340204498
vn 0.19931187371551967 -0.9799236513544959 0.0049411043382017695
vn 0.0005756217882508179 -0.9999778672184477 0.006628252620522092
vn 0.9965282849832373 0.08307698917594131 -0.00543977001611658
vn 0.9949987550831998 0.09973501136330915 -0.005514063043098189
vn 0.9229992969425272 -0.0834790202866149 -0.3756375261014096
vn 0.8365277463200433 -0.009661999010220162 -0.5478393700819937
vn 0.16352354173962885 0.9800370232572589 -0.11308175954582073
vn 0.8375214724177109 -0.10060602875199973 0.5370625757004686
vn 0.8388687141176835 -0.0837929773749773 0.5378457189726257
vn 0.40559887548437684 0.8778091604398284 0.254834515036195
vn 0.9828147150717155 0.009578999512951032 0.18434608378491107
vn 0.19496789219804836 -0.9798876457648007 0.04251732222714164
vn 0.4830954308189765 -0.8755642184497974 0.002470646114485665
vn 0.9999873142653323 0 -0.005036993985275779
vn 0.18241368850851208 0.9799389802218917 -0.08027976884868498
vn 0.8419581529241456 -0.009650000420464882 0.5394565285696766
vn 0.21023126631189554 0.9691082681091696 0.128965031490489
vn -0.0002822741176837833 -0.9999774213715746 0.006713945812923597
vn 0.9950038113924634 -0.09973505477819732 -0.004509341732569913
vn 0.9776249130318484 -0.08317304591860376 -0.19321432103261088
vn 0.9260572536298584 -0.009612996095802672 -0.37726059071361573
vn 0.4445289057442569 0.8762509312480403 -0.18595256772832086
vn 0.9264530036417085 -0.08341099082537531 0.36705236500094357
vn 0.44894477611930006 0.87671510228022 0.1726824178339386
vn 0.19453393922070286 0.9798867158358334 -0.044481126556560814
vn -0.0011653162407103568 0.999978438267646 -0.0064625875513429736
vn 0.18602804058319275 0.9802124764299395 0.06765404029223542
vn 0.9297764753609923 -0.009605003740928687 0.3679992524019944
vn 0.9809077596377864 -0.009577003811863799 -0.19423760727615574
vn 0.47279153313859945 0.8756500005691725 -0.09851519017725525
vn 0.19925083217314138 0.9799239112463355 -0.006945073505335581
vn -0.0003465078795825224 0.9999774308433688 -0.006709525779434926
vn 0.001269785718336418 0.9999796778040998 -0.006247529354738838
vn 0.982797060419056 -0.009573003496281653 0.18444049348156322
vn 0.1964521417995539 0.980025697623898 0.03092228935832738
vn 0.9999418070819148 -0.009565997142249656 -0.004987398964278059
vn 0.48304488900433 0.8755648647576348 -0.007335039791247043
vn 0.0005089244322080327 0.9999779002782089 -0.006628721679698617
usemtl material_0_0
f 1//1 2//2 3//3
f 2//2 1//1 4//4
f 2//2 5//5 3//3
f 3//6 6//7 1//8
f 7//9 4//4 1//1
f 4//4 8//10 2//2
f 5//5 2//2 9//11
f 5//12 10//13 3//6
f 6//7 3//6 10//13
f 11//14 1//8 6//7
f 4//4 7//9 12//15
f 1//8 11//14 7//16
f 8//10 4//4 13//17
f 8//10 9//11 2//2
f 9//11 14//18 5//5
f 10//13 5//12 15//19
f 16//20 6//7 10//13
f 17//21 11//14 6//7
f 18//22 12//15 7//9
f 12//15 13//17 4//4
f 19//23 7//16 11//14
f 13//17 20//24 8//10
f 9//11 8//10 21//25
f 14//18 9//11 22//26
f 14//27 15//19 5//12
f 23//28 10//13 15//19
f 16//20 17//21 6//7
f 23//28 16//20 10//13
f 17//21 24//29 11//14
f 12//15 18//22 25//30
f 7//16 19//23 18//31
f 13//17 12//15 26//32
f 24//29 19//23 11//14
f 20//24 13//17 27//33
f 20//24 21//25 8//10
f 21//25 22//26 9//11
f 22//26 28//34 14//18
f 15//19 14//27 29//35
f 30//36 23//28 15//19
f 31//37 25//30 18//22
f 25//30 26//32 12//15
f 32//38 18//31 19//23
f 26//32 27//33 13//17
f 24//29 33//39 19//23
f 34//40 20//24 27//33
f 21//25 20//24 35//41
f 22//26 21//25 36//42
f 28//34 22//26 37//43
f 28//44 29//35 14//27
f 30//36 15//19 29//35
f 25//30 31//37 38//45
f 18//31 32//38 31//46
f 26//32 25//30 39//47
f 33//39 32//38 19//23
f 27//33 26//32 40//48
f 20//24 34//40 41//49
f 27//33 42//50 34//40
f 41//49 35//41 20//24
f 35//41 36//42 21//25
f 36//42 37//43 22//26
f 37//43 43//51 28//34
f 29//35 28//44 44//52
f 45//53 30//36 29//35
f 46//54 38//45 31//37
f 38//45 39//47 25//30
f 32//38 46//55 31//46
f 39//47 40//48 26//32
f 33//39 47//56 32//38
f 42//50 27//33 40//48
f 48//57 41//49 34//40
f 49//58 34//40 42//50
f 35//41 41//49 50//59
f 36//42 35//41 51//60
f 37//43 36//42 52//61
f 43//51 37//43 53//62
f 43//63 44//52 28//44
f 44//52 45//53 29//35
f 38//45 46//54 54//64
f 39//47 38//45 55//65
f 46//55 32//38 56//66
f 40//48 39//47 57//67
f 47//56 56//66 32//38
f 40//48 58//68 42//50
f 41//49 48//57 59//69
f 34//40 49//58 48//57
f 42//50 60//70 49//58
f 59//69 50//59 41//49
f 50//59 51//60 35//41
f 51//60 52//61 36//42
f 52//61 53//62 37//43
f 53//62 61//71 43//51
f 44//52 43//63 62//72
f 45//53 44//52 63//73
f 46//54 64//74 54//64
f 54//64 55//65 38//45
f 55//65 57//67 39//47
f 56//66 65//75 46//55
f 58//68 40//48 57//67
f 66//76 56//66 47//56
f 60//70 42//50 58//68
f 67//77 59//69 48//57
f 68//78 48//57 49//58
f 69//79 49//58 60//70
f 50//59 59//69 70//80
f 51//60 50//59 71//81
f 52//61 51//60 72//82
f 53//62 52//61 73//83
f 61//71 53//62 74//84
f 75//85 43//63 61//86
f 43//63 75//85 62//72
f 62//72 63//73 44//52
f 64//74 46//54 65//87
f 76//88 54//64 64//74
f 55//65 54//64 77//89
f 57//67 55//65 78//90
f 65//75 56//66 79//91
f 57//67 80//92 58//68
f 66//76 79//91 56//66
f 58//68 81//93 60//70
f 59//69 67//77 82//94
f 48//57 68//78 67//77
f 49//58 69//79 68//78
f 60//70 83//95 69//79
f 82//94 70//80 59//69
f 70//80 71//81 50//59
f 71//81 72//82 51//60
f 72//82 73//83 52//61
f 73//83 74//84 53//62
f 74//84 84//96 61//71
f 61//86 85//97 75//85
f 75//85 86//98 62//72
f 63//73 62//72 86//98
f 65//87 87//99 64//74
f 54//64 76//88 77//89
f 64//74 88//100 76//88
f 77//89 78//90 55//65
f 80//92 57//67 78//90
f 79//91 89//101 65//75
f 81//93 58//68 80//92
f 79//91 66//76 90//102
f 83//95 60//70 81//93
f 91//103 82//104 67//105
f 92//106 67//105 68//107
f 93//108 68//107 69//109
f 94//110 69//109 83//111
f 70//80 82//94 95//112
f 71//81 70//80 96//113
f 72//82 71//81 97//114
f 73//83 72//82 98//115
f 74//84 73//83 99//116
f 84//96 74//84 100//117
f 85//97 61//86 84//118
f 85//97 101//119 75//85
f 86//98 75//85 101//119
f 87//99 65//87 89//120
f 88//100 64//74 87//99
f 102//121 77//89 76//88
f 103//122 76//88 88//100
f 78//90 77//89 104//123
f 78//90 105//124 80//92
f 89//101 79//91 106//125
f 80//92 107//126 81//93
f 90//102 106//125 79//91
f 81//93 108//127 83//95
f 82//104 91//103 109//128
f 67//105 92//106 91//103
f 68//107 93//108 92//106
f 69//109 94//110 93//108
f 108//129 94//110 83//111
f 109//128 95//130 82//104
f 95//112 96//113 70//80
f 96//113 97//114 71//81
f 97//114 98//115 72//82
f 98//115 99//116 73//83
f 99//116 100//117 74//84
f 100//117 110//131 84//96
f 84//118 111//132 85//97
f 112//133 101//119 85//97
f 89//120 113//134 87//99
f 87//99 114//135 88//100
f 77//89 102//121 104//123
f 76//88 103//122 102//121
f 88//100 115//136 103//122
f 105//124 78//90 104//123
f 107//126 80//92 105//124
f 106//125 116//137 89//101
f 108//127 81//93 107//126
f 106//125 90//102 117//138
f 118//139 109//128 91//103
f 119//140 91//103 92//106
f 120//141 92//106 93//108
f 121//142 93//108 94//110
f 94//110 108//129 122//143
f 95//130 109//128 123//144
f 96//113 95//112 124//145
f 97//114 96//113 125//146
f 98//115 97//114 126//147
f 99//116 98//115 127//148
f 100//117 99//116 128//149
f 110//131 100//117 129//150
f 111//132 84//118 110//151
f 111//132 112//133 85//97
f 113//134 89//120 116//152
f 114//135 87//99 113//134
f 115//136 88//100 114//135
f 102//121 105//124 104//123
f 103//122 130//153 102//121
f 115//136 131//154 103//122
f 130//153 107//126 105//124
f 116//137 106//125 132//155
f 133//156 108//127 107//126
f 117//138 132//155 106//125
f 134//157 109//128 118//139
f 118//139 91//103 119//140
f 119//140 92//106 135//158
f 92//106 120//141 135//158
f 93//108 121//142 120//141
f 121//142 94//110 122//143
f 136//159 122//143 108//129
f 123//144 109//128 134//157
f 123//144 124//160 95//130
f 124//145 125//146 96//113
f 125//146 126//147 97//114
f 126//147 127//148 98//115
f 127//148 128//149 99//116
f 128//149 129//150 100//117
f 129//150 137//161 110//131
f 110//151 138//162 111//132
f 111//132 139//163 112//133
f 140//164 113//134 116//152
f 141//165 114//135 113//134
f 142//166 115//136 114//135
f 105//124 102//121 130//153
f 130//153 103//122 131//154
f 131//154 115//136 143//167
f 107//126 130//153 133//156
f 132//155 140//168 116//137
f 108//127 133//156 136//169
f 132//155 117//138 144//170
f 121//142 122//143 145//171
f 122//143 136//159 145//171
f 146//172 123//144 134//157
f 124//160 123//144 147//173
f 125//146 124//145 148//174
f 126//147 125//146 149//175
f 127//148 126//147 150//176
f 128//149 127//148 151//177
f 129//150 128//149 152//178
f 137//161 129//150 153//179
f 138//162 110//151 137//180
f 139//163 111//132 138//162
f 113//134 140//164 141//165
f 114//135 141//165 142//166
f 115//136 142//166 154//181
f 131//154 133//156 130//153
f 154//181 143//167 115//136
f 143//167 155//182 131//154
f 140//168 132//155 156//183
f 155//182 136//169 133//156
f 144//170 156//183 132//155
f 157//184 121//142 145//171
f 158//185 145//171 136//159
f 147//173 123//144 146//172
f 147//173 148//186 124//160
f 148//174 149//175 125//146
f 149//175 150//176 126//147
f 150//176 151//177 127//148
f 151//177 152//178 128//149
f 152//178 153//179 129//150
f 153//179 159//187 137//161
f 137//180 160//188 138//162
f 138//162 161//189 139//163
f 162//190 141//165 140//164
f 163//191 142//166 141//165
f 164//192 154//181 142//166
f 133//156 131//154 155//182
f 143//167 154//181 165//193
f 155//182 143//167 166//194
f 156//183 162//195 140//168
f 136//169 155//182 158//196
f 156//183 144//170 167//197
f 168//198 157//184 145//171
f 145//171 158//185 169//199
f 170//200 147//173 146//172
f 148//186 147//173 171//201
f 149//175 148//174 172//202
f 150//176 149//175 173//203
f 151//177 150//176 174//204
f 152//178 151//177 175//205
f 153//179 152//178 176//206
f 159//187 153//179 177//207
f 160//188 137//180 159//208
f 161//189 138//162 160//188
f 141//165 162//190 163//191
f 142//166 163//191 164//192
f 154//181 164//192 178//209
f 178//209 165//193 154//181
f 165//193 166//194 143//167
f 166//194 158//196 155//182
f 162//195 156//183 179//210
f 179//210 156//183 167//197
f 168//198 145//171 169//199
f 180//211 169//199 158//185
f 171//201 147//173 170//200
f 171//201 172//212 148//186
f 172//202 173//203 149//175
f 173//203 174//204 150//176
f 174//204 175//205 151//177
f 175//205 176//206 152//178
f 176//206 177//207 153//179
f 177//207 181//213 159//187
f 159//208 182//214 160//188
f 160//188 183//215 161//189
f 184//216 163//191 162//190
f 185//217 164//192 163//191
f 186//218 178//209 164//192
f 165//193 178//209 187//219
f 166//194 165//193 188//220
f 158//196 166//194 180//221
f 179//210 184//222 162//195
f 189//223 179//210 167//197
f 190//224 168//198 169//199
f 169//199 180//211 190//224
f 191//225 171//201 170//200
f 172//212 171//201 192//226
f 173//203 172//202 193//227
f 174//204 173//203 194//228
f 175//205 174//204 195//229
f 176//206 175//205 196//230
f 177//207 176//206 197//231
f 181//213 177//207 198//232
f 182//214 159//208 181//233
f 183//215 160//188 182//214
f 163//191 184//216 185//217
f 164//192 185//217 186//218
f 178//209 186//218 199//234
f 199//234 187//219 178//209
f 187//219 188//220 165//193
f 188//220 180//221 166//194
f 184//222 179//210 200//235
f 200//235 179//210 189//223
f 168//198 190//224 201//236
f 202//237 190//224 180//211
f 192//226 171//201 191//225
f 203//238 172//212 192//226
f 172//212 203//238 193//239
f 193//227 194//228 173//203
f 194//228 195//229 174//204
f 195//229 196//230 175//205
f 196//230 197//231 176//206
f 197//231 198//232 177//207
f 198//232 204//240 181//213
f 181//233 205//241 182//214
f 182//214 206//242 183//215
f 207//243 185//217 184//216
f 208//244 186//218 185//217
f 209//245 199//234 186//218
f 187//219 199//234 210//246
f 188//220 187//219 211//247
f 180//221 188//220 202//248
f 200//235 207//249 184//222
f 212//250 200//235 189//223
f 213//251 201//236 190//224
f 190//224 202//237 213//251
f 192//226 191//225 214//252
f 203//238 192//226 214//252
f 215//253 193//239 203//238
f 194//228 193//227 216//254
f 195//229 194//228 217//255
f 196//230 195//229 218//256
f 197//231 196//230 219//257
f 198//232 197//231 220//258
f 204//240 198//232 221//259
f 205//241 181//233 204//260
f 206//242 182//214 205//241
f 185//217 207//243 208//244
f 186//218 208//244 209//245
f 199//234 209//245 222//261
f 222//261 210//246 199//234
f 210//246 211//247 187//219
f 211//247 202//248 188//220
f 207//249 200//235 223//262
f 200//235 212//250 223//262
f 201//236 213//251 224//263
f 225//264 213//251 202//237
f 203//238 214//252 226//265
f 193//239 215//253 216//266
f 203//238 227//267 215//253
f 216//254 217//255 194//228
f 217//255 218//256 195//229
f 228//268 196//230 218//256
f 196//230 228//268 219//257
f 219//257 220//258 197//231
f 220//258 221//259 198//232
f 221//259 229//269 204//240
f 204//260 230//270 205//241
f 205//241 231//271 206//242
f 232//272 208//244 207//243
f 233//273 209//245 208//244
f 234//274 222//261 209//245
f 210//246 222//261 235//275
f 211//247 210//246 236//276
f 202//248 211//247 225//277
f 223//262 232//278 207//249
f 237//279 223//262 212//250
f 238//280 224//263 213//251
f 213//251 225//264 238//280
f 227//267 203//238 226//265
f 239//281 216//266 215//253
f 240//282 215//253 227//267
f 217//255 216//254 241//283
f 218//256 217//255 242//284
f 218//256 243//285 228//268
f 244//286 219//257 228//268
f 220//258 219//257 245//287
f 221//259 220//258 246//288
f 229//269 221//259 247//289
f 230//270 204//260 229//290
f 230//270 231//271 205//241
f 208//244 232//272 233//273
f 209//245 233//273 234//274
f 222//261 234//274 248//291
f 248//291 235//275 222//261
f 235//275 236//276 210//246
f 236//276 225//277 211//247
f 232//278 223//262 249//292
f 223//262 237//279 249//292
f 224//263 238//280 250//267
f 251//293 238//280 225//264
f 216//266 239//281 241//294
f 215//253 240//282 239//281
f 241//283 242//284 217//255
f 243//285 218//256 242//284
f 252//295 228//268 243//285
f 219//257 244//286 245//287
f 228//268 252//295 244//286
f 245//287 246//288 220//258
f 246//288 247//289 221//259
f 253//296 229//269 247//289
f 254//297 230//270 229//290
f 230//270 255//298 231//271
f 256//299 233//273 232//272
f 257//300 234//274 233//273
f 258//301 248//291 234//274
f 235//275 248//291 259//302
f 236//276 235//275 260//303
f 225//277 236//276 251//304
f 261//305 232//278 249//292
f 262//306 249//292 237//279
f 263//307 250//267 238//280
f 238//280 251//293 263//307
f 264//308 241//294 239//281
f 265//309 239//281 240//282
f 242//284 241//283 266//310
f 242//284 267//311 243//285
f 243//285 268//312 252//295
f 269//313 245//287 244//286
f 270//314 244//286 252//295
f 246//288 245//287 271//315
f 247//289 246//288 272//316
f 229//269 253//296 254//317
f 247//289 273//318 253//296
f 230//270 254//297 274//319
f 230//270 274//319 255//298
f 233//273 256//299 257//300
f 232//278 261//305 256//320
f 234//274 257//300 258//301
f 248//291 258//301 275//321
f 275//321 259//302 248//291
f 259//302 260//303 235//275
f 260//303 251//304 236//276
f 249//292 262//306 261//305
f 250//267 263//307 276//265
f 277//322 263//307 251//293
f 241//294 264//308 266//323
f 239//281 265//309 264//308
f 267//311 242//284 266//310
f 268//312 243//285 267//311
f 278//324 252//295 268//312
f 245//287 269//313 271//315
f 244//286 270//314 269//313
f 252//295 278//324 270//314
f 271//315 272//316 246//288
f 273//318 247//289 272//316
f 279//325 254//317 253//296
f 280//326 253//296 273//318
f 281//327 274//319 254//297
f 274//319 282//328 255//298
f 283//329 257//300 256//299
f 284//330 256//320 261//305
f 285//331 258//301 257//300
f 286//332 275//321 258//301
f 259//302 275//321 287//333
f 260//303 259//302 288//334
f 251//304 260//303 277//335
f 261//305 262//306 289//336
f 290//252 276//265 263//307
f 263//307 277//322 291//337
f 292//338 266//323 264//308
f 293//339 264//308 265//309
f 266//323 292//338 267//340
f 267//340 294//341 268//342
f 268//342 295//343 278//344
f 296//345 271//315 269//313
f 297//346 269//313 270//314
f 298//347 270//314 278//324
f 272//316 271//315 299//348
f 272//316 300//349 273//318
f 254//317 279//325 281//350
f 253//296 280//326 279//325
f 273//318 301//351 280//326
f 274//319 281//327 302//352
f 274//319 302//352 282//328
f 257//300 283//329 285//331
f 256//320 284//330 283//353
f 284//330 261//305 289//336
f 258//301 285//331 286//332
f 275//321 286//332 303//354
f 303//354 287//333 275//321
f 287//333 288//334 259//302
f 288//334 277//335 260//303
f 290//252 263//307 291//337
f 304//355 291//337 277//322
f 264//308 293//339 292//338
f 294//341 267//340 292//338
f 295//343 268//342 294//341
f 305//356 278//344 295//343
f 271//315 296//345 299//348
f 269//313 297//346 296//345
f 270//314 298//347 297//346
f 278//344 305//356 298//357
f 300//349 272//316 299//348
f 301//351 273//318 300//349
f 306//358 281//350 279//325
f 307//359 279//325 280//326
f 308//360 280//326 301//351
f 309//361 302//352 281//327
f 302//352 310//362 282//328
f 311//363 285//331 283//329
f 312//364 283//353 284//330
f 284//330 289//336 313//365
f 314//366 286//332 285//331
f 315//367 303//354 286//332
f 287//333 303//354 316//368
f 288//334 287//333 317//369
f 277//335 288//334 304//370
f 318//225 290//252 291//337
f 291//337 304//355 319//371
f 294//341 292//338 293//339
f 295//343 294//341 320//142
f 305//356 295//343 320//142
f 296//345 300//349 299//348
f 297//346 321//372 296//345
f 298//347 322//373 297//346
f 305//356 323//374 298//357
f 321//372 301//351 300//349
f 281//350 306//358 309//375
f 279//325 307//359 306//358
f 280//326 308//360 307//359
f 324//376 308//360 301//351
f 302//352 309//361 325//377
f 302//352 325//377 310//362
f 285//331 311//363 314//366
f 283//353 312//364 311//378
f 312//364 284//330 313//365
f 286//332 314//366 315//367
f 303//354 315//367 326//379
f 326//379 316//368 303//354
f 316//368 317//369 287//333
f 317//369 304//370 288//334
f 319//371 318//225 291//337
f 304//355 327//380 319//371
f 294//341 293//339 328//184
f 294//341 328//184 320//142
f 329//141 305//356 320//142
f 300//349 296//345 321//372
f 321//372 297//346 322//373
f 322//373 298//347 323//381
f 323//374 305//356 330//382
f 301//351 321//372 324//376
f 314//366 309//375 306//358
f 315//367 306//358 307//359
f 326//379 307//359 308//360
f 308//360 324//376 331//383
f 311//378 325//377 309//361
f 325//377 332//384 310//362
f 309//375 314//366 311//363
f 325//377 311//378 312//364
f 312//364 313//365 332//384
f 306//358 315//367 314//366
f 307//359 326//379 315//367
f 316//368 326//379 333//385
f 317//369 316//368 334//386
f 304//370 317//369 335//387
f 336//200 318//225 319//371
f 327//380 304//355 335//388
f 327//380 336//200 319//371
f 305//356 329//141 330//382
f 322//373 324//376 321//372
f 323//381 337//389 322//373
f 330//382 338//390 323//374
f 331//383 326//379 308//360
f 337//389 331//383 324//376
f 325//377 312//364 332//384
f 326//379 331//383 333//385
f 333//385 334//386 316//368
f 334//386 335//387 317//369
f 335//388 339//391 327//380
f 340//392 336//200 327//380
f 329//141 341//393 330//382
f 324//376 322//373 337//389
f 337//389 323//381 338//394
f 338//390 330//382 341//393
f 331//383 337//389 342//395
f 342//395 333//385 331//383
f 334//386 333//385 343//396
f 335//387 334//386 344//397
f 339//391 335//388 344//398
f 339//391 340//392 327//380
f 341//393 329//141 345//158
f 338//394 342//395 337//389
f 341//393 346//399 338//390
f 333//385 342//395 343//396
f 343//396 344//397 334//386
f 344//398 347//400 339//391
f 348//401 340//392 339//391
f 341//393 345//158 349//402
f 342//395 338//394 346//403
f 346//399 341//393 350//404
f 346//403 343//396 342//395
f 344//397 343//396 351//405
f 347//400 344//398 351//406
f 347//400 348//401 339//391
f 341//393 349//402 350//404
f 350//404 351//406 346//399
f 343//396 346//403 351//405
f 351//406 350//404 347//400
f 347//400 352//407 348//401
f 350//404 349//402 352//407
f 350//404 352//407 347//400
usemtl material_1_0
f 3//408 2//396 1//409
f 4//395 1//409 2//396
f 3//408 5//410 2//396
f 1//399 6//411 3//412
f 1//409 4//395 7//413
f 2//396 8//414 4//395
f 9//415 2//396 5//410
f 3//412 10//416 5//417
f 10//416 3//412 6//411
f 6//411 1//399 11//418
f 12//419 7//413 4//395
f 7//420 11//418 1//399
f 13//383 4//395 8//414
f 2//396 9//415 8//414
f 5//410 14//421 9//415
f 15//422 5//417 10//416
f 10//416 6//411 16//423
f 6//411 11//418 17//424
f 7//413 12//419 18//425
f 4//395 13//383 12//419
f 11//418 7//420 19//426
f 8//414 20//427 13//383
f 21//368 8//414 9//415
f 22//428 9//415 14//421
f 5//417 15//422 14//429
f 15//422 10//416 23//430
f 6//411 17//424 16//423
f 10//416 16//423 23//430
f 11//418 24//431 17//424
f 25//432 18//425 12//419
f 18//433 19//426 7//420
f 26//376 12//419 13//383
f 11//418 19//426 24//431
f 27//434 13//383 20//427
f 8//414 21//368 20//427
f 9//415 22//428 21//368
f 14//421 28//435 22//428
f 29//436 14//429 15//422
f 15//422 23//430 30//437
f 18//425 25//432 31//347
f 12//419 26//376 25//432
f 19//426 18//433 32//438
f 13//383 27//434 26//376
f 19//426 33//439 24//431
f 27//434 20//427 34//440
f 35//441 20//427 21//368
f 36//442 21//368 22//428
f 37//443 22//428 28//435
f 14//429 29//436 28//444
f 29//436 15//422 30//437
f 38//445 31//347 25//432
f 31//446 32//438 18//433
f 39//447 25//432 26//376
f 19//426 32//438 33//439
f 40//448 26//376 27//434
f 41//449 34//440 20//427
f 34//440 42//450 27//434
f 20//427 35//441 41//449
f 21//368 36//442 35//441
f 22//428 37//443 36//442
f 28//435 43//335 37//443
f 44//451 28//444 29//436
f 29//436 30//437 45//452
f 31//347 38//445 46//324
f 25//432 39//447 38//445
f 31//446 46//453 32//438
f 26//376 40//448 39//447
f 32//438 47//454 33//439
f 40//448 27//434 42//450
f 34//440 41//449 48//455
f 42//450 34//440 49//456
f 50//457 41//449 35//441
f 51//458 35//441 36//442
f 52//459 36//442 37//443
f 53//460 37//443 43//335
f 28//444 44//451 43//461
f 29//436 45//452 44//451
f 54//462 46//324 38//445
f 55//463 38//445 39//447
f 56//464 32//438 46//453
f 57//465 39//447 40//448
f 32//438 56//464 47//454
f 42//450 58//466 40//448
f 59//467 48//455 41//449
f 48//455 49//456 34//440
f 49//456 60//468 42//450
f 41//449 50//457 59//467
f 35//441 51//458 50//457
f 36//442 52//459 51//458
f 37//443 53//460 52//459
f 43//335 61//469 53//460
f 62//470 43//461 44//451
f 63//471 44//451 45//452
f 54//462 64//472 46//324
f 38//445 55//463 54//462
f 39//447 57//465 55//463
f 46//453 65//473 56//464
f 57//465 40//448 58//466
f 47//454 56//464 66//474
f 58//466 42//450 60//468
f 48//455 59//467 67//475
f 49//456 48//455 68//476
f 60//468 49//456 69//317
f 70//477 59//467 50//457
f 71//478 50//457 51//458
f 72//479 51//458 52//459
f 73//480 52//459 53//460
f 74//481 53//460 61//469
f 61//482 43//461 75//483
f 62//470 75//483 43//461
f 44//451 63//471 62//470
f 65//312 46//324 64//472
f 64//472 54//462 76//484
f 77//485 54//462 55//463
f 78//486 55//463 57//465
f 79//487 56//464 65//473
f 58//466 80//488 57//465
f 56//464 79//487 66//474
f 60//468 81//489 58//466
f 82//490 67//475 59//467
f 67//475 68//476 48//455
f 68//476 69//317 49//456
f 69//317 83//269 60//468
f 59//467 70//477 82//490
f 50//457 71//478 70//477
f 51//458 72//479 71//478
f 52//459 73//480 72//479
f 53//460 74//481 73//480
f 61//469 84//491 74//481
f 75//483 85//492 61//482
f 62//470 86//493 75//483
f 86//493 62//470 63//471
f 64//472 87//494 65//312
f 77//485 76//484 54//462
f 76//484 88//495 64//472
f 55//463 78//486 77//485
f 78//486 57//465 80//488
f 65//473 89//496 79//487
f 80//488 58//466 81//489
f 90//497 66//474 79//487
f 81//489 60//468 83//269
f 67//498 82//499 91//500
f 68//501 67//498 92//502
f 69//503 68//501 93//504
f 83//505 69//503 94//506
f 95//507 82//490 70//477
f 96//300 70//477 71//478
f 97//508 71//478 72//479
f 98//261 72//479 73//480
f 99//246 73//480 74//481
f 100//509 74//481 84//491
f 84//264 61//482 85//492
f 75//483 101//510 85//492
f 101//510 75//483 86//493
f 89//311 65//312 87//494
f 87//494 64//472 88//495
f 76//484 77//485 102//511
f 88//495 76//484 103//512
f 104//513 77//485 78//486
f 80//488 105//514 78//486
f 106//515 79//487 89//496
f 81//489 107//516 80//488
f 79//487 106//515 90//497
f 83//269 108//240 81//489
f 109//517 91//500 82//499
f 91//500 92//502 67//498
f 92//502 93//504 68//501
f 93//504 94//506 69//503
f 83//505 94//506 108//518
f 82//499 95//519 109//517
f 70//477 96//300 95//507
f 71//478 97//508 96//300
f 72//479 98//261 97//508
f 73//480 99//246 98//261
f 74//481 100//509 99//246
f 84//491 110//520 100//509
f 85//492 111//521 84//264
f 85//492 101//510 112//522
f 87//494 113//523 89//311
f 88//495 114//524 87//494
f 104//513 102//511 77//485
f 102//511 103//512 76//484
f 103//512 115//525 88//495
f 104//513 78//486 105//514
f 105//514 80//488 107//516
f 89//496 116//526 106//515
f 107//516 81//489 108//240
f 117//527 90//497 106//515
f 91//500 109//517 118//528
f 92//502 91//500 119//529
f 93//504 92//502 120//530
f 94//506 93//504 121//531
f 122//532 108//518 94//506
f 123//533 109//517 95//519
f 124//534 95//507 96//300
f 125//535 96//300 97//508
f 126//536 97//508 98//261
f 127//234 98//261 99//246
f 128//537 99//246 100//509
f 129//538 100//509 110//520
f 110//539 84//264 111//521
f 85//492 112//522 111//521
f 116//540 89//311 113//523
f 113//523 87//494 114//524
f 114//524 88//495 115//525
f 104//513 105//514 102//511
f 102//511 130//541 103//512
f 103//512 131//542 115//525
f 105//514 107//516 130//541
f 132//543 106//515 116//526
f 107//516 108//240 133//544
f 106//515 132//543 117//527
f 118//528 109//517 134//545
f 119//529 91//500 118//528
f 135//546 92//502 119//529
f 135//546 120//530 92//502
f 120//530 121//531 93//504
f 122//532 94//506 121//531
f 108//518 122//532 136//547
f 134//545 109//517 123//533
f 95//519 124//548 123//533
f 96//300 125//535 124//534
f 97//508 126//536 125//535
f 98//261 127//234 126//536
f 99//246 128//537 127//234
f 100//509 129//538 128//537
f 110//520 137//549 129//538
f 111//521 138//550 110//539
f 112//522 139//551 111//521
f 116//540 113//523 140//552
f 113//523 114//524 141//553
f 114//524 115//525 142//554
f 130//541 102//511 105//514
f 131//542 103//512 130//541
f 143//555 115//525 131//542
f 133//544 130//541 107//516
f 116//526 140//556 132//543
f 136//557 133//544 108//240
f 144//236 117//527 132//543
f 145//558 122//532 121//531
f 145//558 136//547 122//532
f 134//545 123//533 146//559
f 147//560 123//533 124//548
f 148//561 124//534 125//535
f 149//562 125//535 126//536
f 150//563 126//536 127//234
f 151//209 127//234 128//537
f 152//564 128//537 129//538
f 153//565 129//538 137//549
f 137//566 110//539 138//550
f 138//550 111//521 139//551
f 141//553 140//552 113//523
f 142//554 141//553 114//524
f 154//567 142//554 115//525
f 130//541 133//544 131//542
f 115//525 143//555 154//567
f 131//542 155//568 143//555
f 156//569 132//543 140//556
f 133//544 136//557 155//568
f 132//543 156//569 144//236
f 145//558 121//531 157//570
f 136//547 145//558 158//571
f 146//559 123//533 147//560
f 124//548 148//572 147//560
f 125//535 149//562 148//561
f 126//536 150//563 149//562
f 127//234 151//209 150//563
f 128//537 152//564 151//209
f 129//538 153//565 152//564
f 137//549 159//573 153//565
f 138//550 160//574 137//566
f 139//551 161//575 138//550
f 140//552 141//553 162//576
f 141//553 142//554 163//577
f 142//554 154//567 164//578
f 155//568 131//542 133//544
f 165//579 154//567 143//555
f 166//580 143//555 155//568
f 140//556 162//581 156//569
f 158//582 155//568 136//557
f 167//583 144//236 156//569
f 145//558 157//570 168//584
f 169//585 158//571 145//558
f 146//559 147//560 170//586
f 171//587 147//560 148//572
f 172//588 148//561 149//562
f 173//589 149//562 150//563
f 174//590 150//563 151//209
f 175//591 151//209 152//564
f 176//592 152//564 153//565
f 177//593 153//565 159//573
f 159//594 137//566 160//574
f 160//574 138//550 161//575
f 163//577 162//576 141//553
f 164//578 163//577 142//554
f 178//177 164//578 154//567
f 154//567 165//579 178//177
f 143//555 166//580 165//579
f 155//568 158//582 166//580
f 179//595 156//569 162//581
f 167//583 156//569 179//595
f 169//585 145//558 168//584
f 158//571 169//585 180//596
f 170//586 147//560 171//587
f 148//572 172//597 171//587
f 149//562 173//589 172//588
f 150//563 174//590 173//589
f 151//209 175//591 174//590
f 152//564 176//592 175//591
f 153//565 177//593 176//592
f 159//573 181//598 177//593
f 160//574 182//599 159//594
f 161//575 183//600 160//574
f 162//576 163//577 184//601
f 163//577 164//578 185//602
f 164//578 178//177 186//603
f 187//604 178//177 165//579
f 188//605 165//579 166//580
f 180//606 166//580 158//582
f 162//581 184//607 179//595
f 167//583 179//595 189//608
f 169//585 168//584 190//609
f 190//609 180//596 169//585
f 170//586 171//587 191//610
f 192//611 171//587 172//597
f 193//612 172//588 173//589
f 194//613 173//589 174//590
f 195//614 174//590 175//591
f 196//615 175//591 176//592
f 197//616 176//592 177//593
f 198//617 177//593 181//598
f 181//618 159//594 182//599
f 182//599 160//574 183//600
f 185//602 184//601 163//577
f 186//603 185//602 164//578
f 199//148 186//603 178//177
f 178//177 187//604 199//148
f 165//579 188//605 187//604
f 166//580 180//606 188//605
f 200//619 179//595 184//607
f 189//608 179//595 200//619
f 201//170 190//609 168//584
f 180//596 190//609 202//620
f 191//610 171//587 192//611
f 192//611 172//597 203//621
f 193//622 203//621 172//597
f 173//589 194//613 193//612
f 174//590 195//614 194//613
f 175//591 196//615 195//614
f 176//592 197//616 196//615
f 177//593 198//617 197//616
f 181//598 204//127 198//617
f 182//599 205//623 181//618
f 183//600 206//624 182//599
f 184//601 185//602 207//625
f 185//602 186//603 208//626
f 186//603 199//148 209//627
f 210//116 199//148 187//604
f 211//628 187//604 188//605
f 202//629 188//605 180//606
f 184//607 207//630 200//619
f 189//608 200//619 212//631
f 190//609 201//170 213//632
f 213//632 202//620 190//609
f 214//633 191//610 192//611
f 214//633 192//611 203//621
f 203//621 193//622 215//634
f 216//635 193//612 194//613
f 217//636 194//613 195//614
f 218//637 195//614 196//615
f 219//638 196//615 197//616
f 220//639 197//616 198//617
f 221//640 198//617 204//127
f 204//641 181//618 205//623
f 205//623 182//599 206//624
f 208//626 207//625 185//602
f 209//627 208//626 186//603
f 222//115 209//627 199//148
f 199//148 210//116 222//115
f 187//604 211//628 210//116
f 188//605 202//629 211//628
f 223//642 200//619 207//630
f 223//642 212//631 200//619
f 224//643 213//632 201//170
f 202//620 213//632 225//118
f 226//644 214//633 203//621
f 216//645 215//634 193//622
f 215//634 227//646 203//621
f 194//613 217//636 216//635
f 195//614 218//637 217//636
f 218//637 196//615 228//647
f 219//638 228//647 196//615
f 197//616 220//639 219//638
f 198//617 221//640 220//639
f 204//127 229//95 221//640
f 205//623 230//648 204//641
f 206//624 231//649 205//623
f 207//625 208//626 232//650
f 208//626 209//627 233//651
f 209//627 222//115 234//652
f 235//653 222//115 210//116
f 236//654 210//116 211//628
f 225//655 211//628 202//629
f 207//630 232//656 223//642
f 212//631 223//642 237//657
f 213//632 224//643 238//658
f 238//658 225//118 213//632
f 226//644 203//621 227//646
f 215//634 216//645 239//659
f 227//646 215//634 240//660
f 241//661 216//635 217//636
f 242//662 217//636 218//637
f 228//647 243//663 218//637
f 228//647 219//638 244//664
f 245//665 219//638 220//639
f 246//666 220//639 221//640
f 247//667 221//640 229//95
f 229//668 204//641 230//648
f 205//623 231//649 230//648
f 233//651 232//650 208//626
f 234//652 233//651 209//627
f 248//669 234//652 222//115
f 222//115 235//653 248//669
f 210//116 236//654 235//653
f 211//628 225//655 236//654
f 249//670 223//642 232//656
f 249//670 237//657 223//642
f 250//646 238//658 224//643
f 225//118 238//658 251//671
f 241//672 239//659 216//645
f 239//659 240//660 215//634
f 217//636 242//662 241//661
f 242//662 218//637 243//663
f 243//663 228//647 252//673
f 245//665 244//664 219//638
f 244//664 252//673 228//647
f 220//639 246//666 245//665
f 221//640 247//667 246//666
f 247//667 229//95 253//674
f 229//668 230//648 254//675
f 231//649 255//676 230//648
f 232//650 233//651 256//677
f 233//651 234//652 257//113
f 234//652 248//669 258//678
f 259//679 248//669 235//653
f 260//680 235//653 236//654
f 251//681 236//654 225//655
f 249//670 232//656 261//682
f 237//657 249//670 262//683
f 238//658 250//646 263//684
f 263//684 251//671 238//658
f 239//659 241//672 264//685
f 240//660 239//659 265//686
f 266//687 241//661 242//662
f 243//663 267//120 242//662
f 252//673 268//87 243//663
f 244//664 245//665 269//688
f 252//673 244//664 270//689
f 271//690 245//665 246//666
f 272//691 246//666 247//667
f 254//79 253//674 229//95
f 253//674 273//692 247//667
f 274//693 254//675 230//648
f 255//676 274//693 230//648
f 257//113 256//677 233//651
f 256//694 261//682 232//656
f 258//678 257//113 234//652
f 275//695 258//678 248//669
f 248//669 259//679 275//695
f 235//653 260//680 259//679
f 236//654 251//681 260//680
f 261//682 262//683 249//670
f 276//644 263//684 250//646
f 251//671 263//684 277//696
f 266//697 264//685 241//672
f 264//685 265//686 239//659
f 266//687 242//662 267//120
f 267//120 243//663 268//87
f 268//87 252//673 278//54
f 271//690 269//688 245//665
f 269//688 270//689 244//664
f 270//689 278//54 252//673
f 246//666 272//691 271//690
f 272//691 247//667 273//692
f 253//674 254//79 279//698
f 273//692 253//674 280//699
f 254//675 274//693 281//700
f 255//676 282//701 274//693
f 256//677 257//113 283//702
f 261//682 256//694 284//703
f 257//113 258//678 285//704
f 258//678 275//695 286//705
f 287//706 275//695 259//679
f 288//707 259//679 260//680
f 277//51 260//680 251//681
f 289//708 262//683 261//682
f 263//684 276//644 290//633
f 291//709 277//696 263//684
f 264//685 266//697 292//710
f 265//686 264//685 293//711
f 267//712 292//710 266//697
f 268//713 294//714 267//712
f 278//715 295//716 268//713
f 269//688 271//690 296//717
f 270//689 269//688 297//718
f 278//54 270//689 298//37
f 299//719 271//690 272//691
f 273//692 300//720 272//691
f 281//721 279//698 254//79
f 279//698 280//699 253//674
f 280//699 301//722 273//692
f 302//723 281//700 274//693
f 282//701 302//723 274//693
f 285//704 283//702 257//113
f 283//724 284//703 256//694
f 289//708 261//682 284//703
f 286//705 285//704 258//678
f 303//725 286//705 275//695
f 275//695 287//706 303//725
f 259//679 288//707 287//706
f 260//680 277//51 288//707
f 291//709 263//684 290//633
f 277//696 291//709 304//726
f 292//710 293//711 264//685
f 292//710 267//712 294//714
f 294//714 268//713 295//716
f 295//716 278//715 305//727
f 299//719 296//717 271//690
f 296//717 297//718 269//688
f 297//718 298//37 270//689
f 298//728 305//727 278//715
f 299//719 272//691 300//720
f 300//720 273//692 301//722
f 279//698 281//721 306//729
f 280//699 279//698 307//730
f 301//722 280//699 308//731
f 281//700 302//723 309//732
f 282//701 310//733 302//723
f 283//702 285//704 311//734
f 284//703 283//724 312//735
f 313//736 289//708 284//703
f 285//704 286//705 314//737
f 286//705 303//725 315//738
f 316//25 303//725 287//706
f 317//739 287//706 288//707
f 304//740 288//707 277//51
f 291//709 290//633 318//610
f 319//741 304//726 291//709
f 293//711 292//710 294//714
f 320//531 294//714 295//716
f 320//531 295//716 305//727
f 299//719 300//720 296//717
f 296//717 321//742 297//718
f 297//718 322//743 298//37
f 298//728 323//744 305//727
f 300//720 301//722 321//742
f 309//745 306//729 281//721
f 306//729 307//730 279//698
f 307//730 308//731 280//699
f 301//722 308//731 324//32
f 325//746 309//732 302//723
f 310//733 325//746 302//723
f 314//737 311//734 285//704
f 311//747 312//735 283//724
f 313//736 284//703 312//735
f 315//738 314//737 286//705
f 326//748 315//738 303//725
f 303//725 316//25 326//748
f 287//706 317//739 316//25
f 288//707 304//740 317//739
f 291//709 318//610 319//741
f 319//741 327//749 304//726
f 328//570 293//711 294//714
f 320//531 328//570 294//714
f 320//531 305//727 329//530
f 321//742 296//717 300//720
f 322//743 297//718 321//742
f 323//750 298//37 322//743
f 330//751 305//727 323//744
f 324//32 321//742 301//722
f 306//729 309//745 314//737
f 307//730 306//729 315//738
f 308//731 307//730 326//748
f 331//17 324//32 308//731
f 309//732 325//746 311//747
f 310//733 332//752 325//746
f 311//734 314//737 309//745
f 312//735 311//747 325//746
f 332//752 313//736 312//735
f 314//737 315//738 306//729
f 315//738 326//748 307//730
f 333//753 326//748 316//25
f 334//754 316//25 317//739
f 335//755 317//739 304//740
f 319//741 318//610 336//586
f 335//756 304//726 327//749
f 319//741 336//586 327//749
f 330//751 329//530 305//727
f 321//742 324//32 322//743
f 322//743 337//757 323//750
f 323//744 338//758 330//751
f 308//731 326//748 331//17
f 324//32 331//17 337//757
f 332//752 312//735 325//746
f 333//753 331//17 326//748
f 316//25 334//754 333//753
f 317//739 335//755 334//754
f 327//749 339//759 335//756
f 327//749 336//586 340//760
f 330//751 341//761 329//530
f 337//757 322//743 324//32
f 338//762 323//750 337//757
f 341//761 330//751 338//758
f 342//4 337//757 331//17
f 331//17 333//753 342//4
f 343//2 333//753 334//754
f 344//763 334//754 335//755
f 344//764 335//756 339//759
f 327//749 340//760 339//759
f 345//546 329//530 341//761
f 337//757 342//4 338//762
f 338//758 346//8 341//761
f 343//2 342//4 333//753
f 334//754 344//763 343//2
f 339//759 347//765 344//764
f 339//759 340//760 348//766
f 349//767 345//546 341//761
f 346//768 338//762 342//4
f 350//769 341//761 346//8
f 342//4 343//2 346//768
f 351//770 343//2 344//763
f 351//771 344//764 347//765
f 339//759 348//766 347//765
f 350//769 349//767 341//761
f 346//8 351//771 350//769
f 351//770 346//768 343//2
f 347//765 350//769 351//771
f 348//766 352//772 347//765
f 352//772 349//767 350//769
f 347//765 352//772 350//769
