# SSTK version 0.8.0
# 18
mtllib original-18.mtl
o mesh13/mesh13-geometry#mesh13-geometry
v -0.082486 0.566794 0.361043
v -0.074613 0.566760 0.360518
v -0.074642 0.566794 0.361322
v -0.082458 0.566760 0.360239
v -0.073436 0.567929 0.360526
v -0.084205 0.569405 0.360906
v -0.083661 0.567964 0.360967
v -0.084177 0.569371 0.360102
v -0.073464 0.567964 0.361330
v -0.083633 0.567929 0.360163
v -0.072500 0.569098 0.360526
v -0.072889 0.569371 0.360504
v -0.072917 0.569405 0.361308
v -0.084595 0.569133 0.360900
v -0.084566 0.569098 0.360096
v -0.072528 0.569133 0.361330
v -0.084884 0.570521 0.360850
v -0.084855 0.570486 0.360046
v -0.071786 0.570268 0.360517
v -0.072208 0.570486 0.360496
v -0.072236 0.570521 0.361300
v -0.085306 0.570302 0.360841
v -0.085277 0.570268 0.360037
v -0.071815 0.570302 0.361321
v -0.085337 0.571596 0.359997
v -0.085365 0.571630 0.360801
v -0.071276 0.571437 0.360502
v -0.071724 0.571596 0.360481
v -0.071753 0.571630 0.361285
v -0.085813 0.571472 0.360790
v -0.085785 0.571437 0.359986
v -0.071305 0.571472 0.361306
v -0.071416 0.572702 0.360460
v -0.071444 0.572737 0.361264
v -0.085643 0.572702 0.359954
v -0.085672 0.572737 0.360758
v -0.070950 0.572606 0.360480
v -0.071263 0.573811 0.360434
v -0.085822 0.573845 0.360721
v -0.086108 0.572606 0.359940
v -0.085793 0.573811 0.359917
v -0.070979 0.572641 0.361284
v -0.071106 0.577283 0.360339
v -0.071292 0.573845 0.361238
v -0.071249 0.574925 0.360402
v -0.085972 0.577318 0.360615
v -0.086137 0.572641 0.360744
v -0.085943 0.577283 0.359811
v -0.070790 0.573776 0.360452
v -0.071135 0.577318 0.361143
v -0.070887 0.576114 0.360381
v -0.071278 0.574959 0.361206
v -0.085805 0.574925 0.359884
v -0.085834 0.574959 0.360688
v -0.086267 0.573776 0.359901
v -0.086165 0.576114 0.359837
v -0.070818 0.573810 0.361256
v -0.070915 0.576149 0.361185
v -0.071414 0.578453 0.360295
v -0.085724 0.576082 0.360660
v -0.086194 0.576149 0.360641
v -0.086295 0.573810 0.360705
v -0.086279 0.574945 0.359867
v -0.085695 0.576047 0.359856
v -0.070775 0.574945 0.360419
v -0.071443 0.578488 0.361099
v -0.070803 0.574980 0.361222
v -0.071356 0.576047 0.360366
v -0.085661 0.578488 0.360593
v -0.086308 0.574980 0.360671
v -0.085632 0.578453 0.359789
v -0.071385 0.576082 0.361170
v -0.071569 0.577179 0.360326
v -0.085509 0.577214 0.360635
v -0.085480 0.577179 0.359831
v -0.071598 0.577214 0.361130
v -0.071780 0.577979 0.360295
v -0.085297 0.578014 0.360619
v -0.085268 0.577979 0.359815
v -0.071808 0.578014 0.361099
vn -0.3824424017144381 -0.9236036890259229 0.026344543810790738
vn 0.37960056047176566 -0.923604761287915 0.053457080128033414
vn 0.7427057513670781 -0.6673301398360424 0.05530507528854935
vn -0.03554533143495411 0.0288129877573211 0.9989526220745786
vn -0.7447601488203869 -0.6673279633223215 0.0023895809501973952
vn 0.03554533143495411 -0.0288129877573211 -0.9989526220745786
vn 0.817783326709972 -0.5729968082446445 0.053898871014345436
vn -0.8195466240663339 -0.5729960401552774 -0.004343840218853291
vn 0.001535914468312042 0.999067197996156 -0.04315524133701109
vn 0.886236559651399 -0.4603669542270971 0.051449273978533334
vn 0.8876553623297712 0.46036100892501886 0.011648999473830742
vn 0.8542540576621371 0.5197959028686077 0.007888239904015524
vn -0.8526515780228225 0.5198018017504893 -0.05283344955741084
vn -0.8862363675195297 0.46036597816576286 -0.051461315891349856
vn -0.8876536861113469 -0.46036410096499397 -0.011654530262149463
vn 0.9424147990938754 0.33390194099619314 0.019074596924324762
vn 0.9413890633979455 -0.33389885168450023 0.0479394217582062
vn -0.9413877850900824 0.33390094347842164 -0.047949953361903275
vn -0.9424162300164134 -0.3338980999362171 -0.01907113684694107
vn 0.979088607879615 0.20175198635097416 0.026108119882395864
vn 0.9784691608876135 -0.20174692423375504 0.043546294378612085
vn -0.9784683837422391 0.20175010044726416 -0.04354904116475426
vn -0.9790900403930192 -0.2017480495354064 -0.026084809983117168
vn -0.9965391696983916 0.0735910307615724 -0.038652858216300684
vn 0.9967659255006779 0.07358794936311923 0.03228782230668375
vn 0.9965394082442722 -0.07359002379544839 0.03864862499418305
vn -0.9985353499268548 -0.04232100023754778 -0.03370590282646906
vn 0.9984053515199344 -0.04231698686800423 0.03736344040328084
vn -0.9967665580108044 -0.07358902521624047 -0.03226583640659701
vn 0.9750197773881679 0.22069097237986443 0.025138186329913704
vn 0.9895831840100496 0.14098705384839413 0.02911653433502247
vn -0.989150778202305 0.14098301948709724 -0.04128590798414037
vn -0.974342612068893 0.22068399228654278 -0.04421594571237161
vn 0.9985349952835402 0.04232599931480557 0.03371013165360319
vn 0.9664897559708299 0.2556439545269521 0.02331780687087206
vn -0.9895841973722875 -0.14097904478207118 -0.029120872984515073
vn 0.9891503639290877 -0.14097699904001706 0.04131638029430929
vn -0.9984055109120129 0.042327001648276956 -0.037347834100380194
vn -0.9657046745040444 0.25563713764862067 -0.04543275796006651
vn 0.9743401111584353 -0.2206909499090083 0.04423632462160052
vn 0.0015351541070138196 0.9990672271634361 -0.04315459314871134
vn -0.9750190432325394 -0.2206909893893981 -0.025166496304248755
vn -0.9664860861002877 -0.255654036080201 -0.02335934952969579
vn 0.9657021640679679 -0.2556471607798733 0.04542972044414349
vn -0.0015351541070138196 -0.9990672271634361 0.04315459314871134
vn -0.37960056047176566 0.923604761287915 -0.053457080128033414
vn 0.3824424017144381 0.9236036890259229 -0.026344543810790738
vn -0.7427057513670781 0.6673301398360424 -0.05530507528854935
vn 0.7447601488203869 0.6673279633223215 -0.0023895809501973952
vn -0.817783326709972 0.5729968082446445 -0.053898871014345436
vn 0.8195466240663339 0.5729960401552774 0.004343840218853291
vn -0.001535914468312042 -0.999067197996156 0.04315524133701109
vn -0.886236559651399 0.4603669542270971 -0.051449273978533334
vn -0.8542540576621371 -0.5197959028686077 -0.007888239904015524
vn -0.8876553623297712 -0.46036100892501886 -0.011648999473830742
vn 0.8526515780228225 -0.5198018017504893 0.05283344955741084
vn 0.8862363675195297 -0.46036597816576286 0.051461315891349856
vn 0.8876536861113469 0.46036410096499397 0.011654530262149463
vn -0.9424147990938754 -0.33390194099619314 -0.019074596924324762
vn -0.9413890633979455 0.33389885168450023 -0.0479394217582062
vn 0.9413877850900824 -0.33390094347842164 0.047949953361903275
vn 0.9424162300164134 0.3338980999362171 0.01907113684694107
vn -0.979088607879615 -0.20175198635097416 -0.026108119882395864
vn -0.9784691608876135 0.20174692423375504 -0.043546294378612085
vn 0.9784683837422391 -0.20175010044726416 0.04354904116475426
vn 0.9790900403930192 0.2017480495354064 0.026084809983117168
vn 0.9965391696983916 -0.0735910307615724 0.038652858216300684
vn -0.9967659255006779 -0.07358794936311923 -0.03228782230668375
vn -0.9965394082442722 0.07359002379544839 -0.03864862499418305
vn 0.9985353499268548 0.04232100023754778 0.03370590282646906
vn -0.9984053515199344 0.04231698686800423 -0.03736344040328084
vn 0.9967665580108044 0.07358902521624047 0.03226583640659701
vn -0.9895831840100496 -0.14098705384839413 -0.02911653433502247
vn -0.9750197773881679 -0.22069097237986443 -0.025138186329913704
vn 0.989150778202305 -0.14098301948709724 0.04128590798414037
vn 0.974342612068893 -0.22068399228654278 0.04421594571237161
vn -0.9985349952835402 -0.04232599931480557 -0.03371013165360319
vn -0.9664897559708299 -0.2556439545269521 -0.02331780687087206
vn 0.9895841973722875 0.14097904478207118 0.029120872984515073
vn -0.9891503639290877 0.14097699904001706 -0.04131638029430929
vn 0.9984055109120129 -0.042327001648276956 0.037347834100380194
vn 0.9657046745040444 -0.25563713764862067 0.04543275796006651
vn -0.9743401111584353 0.2206909499090083 -0.04423632462160052
vn 0.9750190432325394 0.2206909893893981 0.025166496304248755
vn 0.9664860861002877 0.255654036080201 0.02335934952969579
vn -0.9657021640679679 0.2556471607798733 -0.04542972044414349
usemtl material_0_0
f 1//1 2//2 3//2
f 2//2 1//1 4//1
f 5//3 3//2 2//2
f 3//4 6//4 1//4
f 7//5 4//1 1//1
f 8//6 2//6 4//6
f 3//2 5//3 9//3
f 8//6 5//6 2//6
f 9//4 6//4 3//4
f 1//4 6//4 7//4
f 4//1 7//5 10//5
f 8//6 4//6 10//6
f 11//7 9//3 5//3
f 12//6 5//6 8//6
f 9//4 13//4 6//4
f 7//4 6//4 14//4
f 14//8 10//5 7//5
f 8//6 10//6 15//6
f 9//3 11//7 16//7
f 12//6 11//6 5//6
f 6//9 12//9 8//9
f 16//4 13//4 9//4
f 12//9 6//9 13//9
f 14//4 6//4 17//4
f 10//5 14//8 15//8
f 8//6 15//6 18//6
f 19//10 16//7 11//7
f 20//6 11//6 12//6
f 18//11 6//12 8//12
f 16//4 21//4 13//4
f 13//13 20//14 12//13
f 6//12 18//11 17//11
f 14//4 17//4 22//4
f 14//8 23//15 15//8
f 18//6 15//6 23//6
f 16//7 19//10 24//10
f 20//6 19//6 11//6
f 24//4 21//4 16//4
f 20//14 13//13 21//14
f 25//16 17//11 18//11
f 22//4 17//4 26//4
f 23//15 14//8 22//15
f 18//6 23//6 25//6
f 27//17 24//10 19//10
f 28//6 19//6 20//6
f 24//4 29//4 21//4
f 21//14 28//18 20//14
f 17//11 25//16 26//16
f 22//4 26//4 30//4
f 22//15 31//19 23//15
f 25//6 23//6 31//6
f 24//10 27//17 32//17
f 33//6 27//6 19//6
f 33//6 19//6 28//6
f 24//4 34//4 29//4
f 28//18 21//14 29//18
f 35//20 26//16 25//16
f 30//4 26//4 36//4
f 31//19 22//15 30//19
f 25//6 31//6 35//6
f 37//21 32//17 27//17
f 32//4 34//4 24//4
f 38//6 27//6 33//6
f 29//18 33//22 28//18
f 33//22 29//18 34//22
f 26//16 35//20 36//20
f 30//4 36//4 39//4
f 30//19 40//23 31//19
f 35//6 31//6 41//6
f 32//17 37//21 42//21
f 43//6 37//6 27//6
f 32//4 44//4 34//4
f 45//6 27//6 38//6
f 34//22 38//24 33//22
f 41//25 36//20 35//20
f 36//20 41//25 39//25
f 39//4 46//4 30//4
f 40//23 30//19 47//23
f 48//6 31//6 40//6
f 48//6 41//6 31//6
f 49//26 42//21 37//21
f 42//4 50//4 32//4
f 51//6 37//6 43//6
f 43//6 27//6 45//6
f 32//4 52//4 44//4
f 38//24 34//22 44//24
f 44//24 45//27 38//24
f 53//28 39//25 41//25
f 54//4 46//4 39//4
f 30//4 46//4 47//4
f 47//23 55//29 40//23
f 48//6 40//6 56//6
f 48//6 53//6 41//6
f 42//21 49//26 57//26
f 51//6 49//6 37//6
f 42//4 58//4 50//4
f 32//4 50//4 52//4
f 43//30 58//31 51//31
f 45//6 59//6 43//6
f 45//27 44//24 52//27
f 39//25 53//28 54//28
f 60//4 46//4 54//4
f 47//4 46//4 61//4
f 55//29 47//23 62//29
f 63//6 40//6 55//6
f 56//6 40//6 63//6
f 61//32 48//33 56//32
f 48//6 64//6 53//6
f 65//34 57//26 49//26
f 57//4 58//4 42//4
f 49//6 51//6 65//6
f 58//31 43//30 50//30
f 66//4 52//4 50//4
f 67//34 51//31 58//31
f 59//6 45//6 68//6
f 59//35 50//30 43//30
f 52//27 68//36 45//27
f 64//37 54//28 53//28
f 60//4 69//4 46//4
f 54//28 64//37 60//37
f 48//33 61//32 46//33
f 47//4 61//4 70//4
f 47//4 70//4 62//4
f 62//29 63//38 55//29
f 70//38 56//32 63//38
f 56//32 70//38 61//32
f 71//6 64//6 48//6
f 57//26 65//34 67//34
f 58//4 57//4 67//4
f 51//31 67//34 65//34
f 52//4 66//4 72//4
f 50//30 59//35 66//35
f 59//6 68//6 73//6
f 68//36 52//27 72//36
f 74//4 69//4 60//4
f 71//39 46//33 69//39
f 75//40 60//37 64//37
f 46//33 71//39 48//33
f 63//38 62//29 70//38
f 71//6 75//6 64//6
f 72//4 66//4 76//4
f 59//41 69//41 66//41
f 72//36 73//42 68//36
f 59//6 73//6 77//6
f 78//4 69//4 74//4
f 60//37 75//40 74//40
f 69//41 59//41 71//41
f 71//6 79//6 75//6
f 76//4 66//4 80//4
f 73//42 72//36 76//42
f 80//4 66//4 69//4
f 76//42 77//43 73//42
f 59//6 77//6 71//6
f 80//4 69//4 78//4
f 74//40 79//44 78//44
f 79//44 74//40 75//40
f 71//6 77//6 79//6
f 77//43 76//42 80//43
f 78//45 77//45 80//45
f 77//45 78//45 79//45
usemtl material_1_0
f 3//46 2//46 1//47
f 4//47 1//47 2//46
f 2//46 3//46 5//48
f 1//6 6//6 3//6
f 1//47 4//47 7//49
f 4//4 2//4 8//4
f 9//48 5//48 3//46
f 2//4 5//4 8//4
f 3//6 6//6 9//6
f 7//6 6//6 1//6
f 10//49 7//49 4//47
f 10//4 4//4 8//4
f 5//48 9//48 11//50
f 8//4 5//4 12//4
f 6//6 13//6 9//6
f 14//6 6//6 7//6
f 7//49 10//49 14//51
f 15//4 10//4 8//4
f 16//50 11//50 9//48
f 5//4 11//4 12//4
f 8//52 12//52 6//52
f 9//6 13//6 16//6
f 13//52 6//52 12//52
f 17//6 6//6 14//6
f 15//51 14//51 10//49
f 18//4 15//4 8//4
f 11//50 16//50 19//53
f 12//4 11//4 20//4
f 8//54 6//54 18//55
f 13//6 21//6 16//6
f 12//56 20//57 13//56
f 17//55 18//55 6//54
f 22//6 17//6 14//6
f 15//51 23//58 14//51
f 23//4 15//4 18//4
f 24//53 19//53 16//50
f 11//4 19//4 20//4
f 16//6 21//6 24//6
f 21//57 13//56 20//57
f 18//55 17//55 25//59
f 26//6 17//6 22//6
f 22//58 14//51 23//58
f 25//4 23//4 18//4
f 19//53 24//53 27//60
f 20//4 19//4 28//4
f 21//6 29//6 24//6
f 20//57 28//61 21//57
f 26//59 25//59 17//55
f 30//6 26//6 22//6
f 23//58 31//62 22//58
f 31//4 23//4 25//4
f 32//60 27//60 24//53
f 19//4 27//4 33//4
f 28//4 19//4 33//4
f 29//6 34//6 24//6
f 29//61 21//57 28//61
f 25//59 26//59 35//63
f 36//6 26//6 30//6
f 30//62 22//58 31//62
f 35//4 31//4 25//4
f 27//60 32//60 37//64
f 24//6 34//6 32//6
f 33//4 27//4 38//4
f 28//61 33//65 29//61
f 34//65 29//61 33//65
f 36//63 35//63 26//59
f 39//6 36//6 30//6
f 31//62 40//66 30//62
f 41//4 31//4 35//4
f 42//64 37//64 32//60
f 27//4 37//4 43//4
f 34//6 44//6 32//6
f 38//4 27//4 45//4
f 33//65 38//67 34//65
f 35//63 36//63 41//68
f 39//68 41//68 36//63
f 30//6 46//6 39//6
f 47//66 30//62 40//66
f 40//4 31//4 48//4
f 31//4 41//4 48//4
f 37//64 42//64 49//69
f 32//6 50//6 42//6
f 43//4 37//4 51//4
f 45//4 27//4 43//4
f 44//6 52//6 32//6
f 44//67 34//65 38//67
f 38//67 45//70 44//67
f 41//68 39//68 53//71
f 39//6 46//6 54//6
f 47//6 46//6 30//6
f 40//66 55//72 47//66
f 56//4 40//4 48//4
f 41//4 53//4 48//4
f 57//69 49//69 42//64
f 37//4 49//4 51//4
f 50//6 58//6 42//6
f 52//6 50//6 32//6
f 51//73 58//73 43//74
f 43//4 59//4 45//4
f 52//70 44//67 45//70
f 54//71 53//71 39//68
f 54//6 46//6 60//6
f 61//6 46//6 47//6
f 62//72 47//66 55//72
f 55//4 40//4 63//4
f 63//4 40//4 56//4
f 56//75 48//76 61//75
f 53//4 64//4 48//4
f 49//69 57//69 65//77
f 42//6 58//6 57//6
f 65//4 51//4 49//4
f 50//74 43//74 58//73
f 50//6 52//6 66//6
f 58//73 51//73 67//77
f 68//4 45//4 59//4
f 43//74 50//74 59//78
f 45//70 68//79 52//70
f 53//71 54//71 64//80
f 46//6 69//6 60//6
f 60//80 64//80 54//71
f 46//76 61//75 48//76
f 70//6 61//6 47//6
f 62//6 70//6 47//6
f 55//72 63//81 62//72
f 63//81 56//75 70//81
f 61//75 70//81 56//75
f 48//4 64//4 71//4
f 67//77 65//77 57//69
f 67//6 57//6 58//6
f 65//77 67//77 51//73
f 72//6 66//6 52//6
f 66//78 59//78 50//74
f 73//4 68//4 59//4
f 72//79 52//70 68//79
f 60//6 69//6 74//6
f 69//82 46//76 71//82
f 64//80 60//80 75//83
f 48//76 71//82 46//76
f 70//81 62//72 63//81
f 64//4 75//4 71//4
f 76//6 66//6 72//6
f 66//45 69//45 59//45
f 68//79 73//84 72//79
f 77//4 73//4 59//4
f 74//6 69//6 78//6
f 74//83 75//83 60//80
f 71//45 59//45 69//45
f 75//4 79//4 71//4
f 80//6 66//6 76//6
f 76//84 72//79 73//84
f 69//6 66//6 80//6
f 73//84 77//85 76//84
f 71//4 77//4 59//4
f 78//6 69//6 80//6
f 78//86 79//86 74//83
f 75//83 74//83 79//86
f 79//4 77//4 71//4
f 80//85 76//84 77//85
f 80//41 77//41 78//41
f 79//41 78//41 77//41
