# SSTK version 0.8.0
# 72
mtllib original-72.mtl
o mesh58/mesh58-geometry#mesh58-geometry
v 0.379491 0.498702 0.296314
v 0.380164 0.495723 0.296470
v 0.380121 0.497149 0.296388
v 0.380038 0.494254 0.296559
v 0.380120 0.497149 0.296021
v 0.379489 0.498702 0.295947
v 0.379912 0.493373 0.296615
v 0.380162 0.495723 0.296103
v 0.378524 0.499837 0.296274
v 0.379450 0.493164 0.296640
v 0.380036 0.494254 0.296193
v 0.378522 0.499837 0.295908
v 0.379911 0.493373 0.296248
v 0.377012 0.500636 0.296269
v 0.378484 0.493376 0.296654
v 0.379449 0.493164 0.296273
v 0.377010 0.500636 0.295903
v 0.375205 0.501100 0.296291
v 0.377518 0.493838 0.296653
v 0.378482 0.493376 0.296287
v 0.375203 0.501100 0.295925
v 0.376553 0.494681 0.296631
v 0.372937 0.501439 0.296332
v 0.375711 0.495603 0.296599
v 0.377516 0.493838 0.296287
v 0.372935 0.501439 0.295966
v 0.374871 0.496024 0.296598
v 0.376551 0.494681 0.296264
v 0.371130 0.501568 0.296373
v 0.373946 0.495983 0.296625
v 0.375709 0.495603 0.296233
v 0.371128 0.501568 0.296006
v 0.373148 0.495733 0.296661
v 0.374869 0.496024 0.296231
v 0.369072 0.501319 0.296442
v 0.372602 0.495230 0.296705
v 0.373945 0.495983 0.296258
v 0.369070 0.501319 0.296075
v 0.365084 0.489787 0.297220
v 0.372435 0.494517 0.296751
v 0.373146 0.495733 0.296294
v 0.367476 0.500776 0.296515
v 0.372600 0.495230 0.296338
v 0.367474 0.500776 0.296148
v 0.372477 0.493678 0.296799
v 0.366006 0.499771 0.296612
v 0.372433 0.494517 0.296385
v 0.372813 0.492713 0.296847
v 0.364788 0.498514 0.296716
v 0.366004 0.499771 0.296245
v 0.369286 0.486592 0.297299
v 0.372475 0.493678 0.296433
v 0.363990 0.497215 0.296813
v 0.370421 0.485584 0.297328
v 0.367647 0.487685 0.297277
v 0.372811 0.492713 0.296480
v 0.364786 0.498514 0.296350
v 0.363988 0.497215 0.296446
v 0.363992 0.491215 0.297164
v 0.370883 0.484828 0.297360
v 0.370419 0.485584 0.296961
v 0.366471 0.488526 0.297258
v 0.369284 0.486592 0.296932
v 0.374408 0.491074 0.296533
v 0.363442 0.495789 0.296543
v 0.363444 0.495789 0.296910
v 0.365082 0.489787 0.296853
v 0.374410 0.491074 0.296900
v 0.370881 0.484828 0.296993
v 0.366469 0.488526 0.296892
v 0.367646 0.487685 0.296911
v 0.363403 0.492810 0.297086
v 0.363990 0.491215 0.296798
v 0.370883 0.483905 0.297414
v 0.370881 0.483905 0.297047
v 0.378190 0.488719 0.296568
v 0.363317 0.494405 0.296628
v 0.363318 0.494405 0.296994
v 0.378192 0.488719 0.296935
v 0.363401 0.492810 0.296719
v 0.380545 0.486995 0.296970
v 0.369875 0.483235 0.297480
v 0.380543 0.486995 0.296604
v 0.381428 0.481833 0.297248
v 0.369873 0.483235 0.297113
v 0.374540 0.476767 0.297734
v 0.381259 0.486155 0.297000
v 0.380321 0.480263 0.297371
v 0.381257 0.486155 0.296633
v 0.367943 0.483070 0.297540
v 0.376598 0.477351 0.297644
v 0.371053 0.476604 0.297837
v 0.381806 0.482882 0.297176
v 0.378720 0.478744 0.297504
v 0.381426 0.481833 0.296881
v 0.367941 0.483070 0.297173
v 0.367525 0.476777 0.297919
v 0.376597 0.477351 0.297278
v 0.374538 0.476767 0.297368
v 0.381847 0.485063 0.297047
v 0.381804 0.482882 0.296809
v 0.380319 0.480263 0.297004
v 0.366641 0.483240 0.297564
v 0.378718 0.478744 0.297138
v 0.371052 0.476604 0.297470
v 0.381932 0.484056 0.297104
v 0.381930 0.484056 0.296737
v 0.381846 0.485063 0.296680
v 0.366639 0.483240 0.297197
v 0.365424 0.477158 0.297951
v 0.367523 0.476777 0.297553
v 0.364876 0.483872 0.297572
v 0.364874 0.483872 0.297205
v 0.363701 0.477916 0.297950
v 0.365422 0.477158 0.297584
v 0.363700 0.484419 0.297570
v 0.363698 0.484419 0.297203
v 0.363700 0.477916 0.297584
vn 0.027290933572747898 0.058450019514565354 0.9979172311186308
vn 0.9995921768778616 -0.02810301061258405 -0.005069587664381907
vn 0.9785520927821101 0.2059400861616432 -0.004947991864167673
vn 0.8548290980334238 0.5188916837537764 -0.004316675402924045
vn 0.993508134784618 -0.11364902255058221 -0.005048345282037627
vn 0.6254102286875552 0.7802896978726678 -0.0031675300725777468
vn 0.9899008834804036 -0.14167196841721325 -0.005029338873911589
vn 0.10459796375515801 -0.9945144469642312 -0.0005298657417619999
vn 0.4121246288667097 -0.9111250941725278 -0.0020863965536405855
vn 0.3605495376913649 0.9327381619172962 -0.0018847211164607167
vn -0.32495279504569397 -0.9457288287389277 0.0016320184089635027
vn 0.19858705822163294 0.980082626164705 -0.0011073377862388367
vn -0.5500363711413724 -0.8351361521814465 0.002756400043194163
vn 0.10944532567396852 0.9939926338758026 -0.0006037290480782886
vn -0.6992839892491355 -0.7148352402472293 0.0035329421876180364
vn 0.026633141180338497 0.058402974855101215 0.9979377577378976
vn -0.6031856767823461 -0.7975949576150074 0.003053344352891289
vn -0.024607556401093682 0.9996971802104285 0.00012667787959671866
vn -0.2086324597583904 -0.977993555908386 0.0010494459653730447
vn 0.02597485661692208 0.05835603206898287 0.997957854994335
vn 0.1730978249211654 -0.9849042517159513 -0.0008706086396750424
vn -0.2221809594175622 0.9750047877561058 0.0011336335221748288
vn 0.5003510775470255 -0.8658189360458537 -0.0025237238273074086
vn 0.026055769345666682 0.058502987056157245 0.9979471415808115
vn 0.8632345120526363 -0.5047840672735866 -0.00438436175310393
vn -0.44722054003746353 0.8944208633351857 0.0022600441014524325
vn 0.9958734460222407 -0.09061202751575081 -0.005053709258758792
vn -0.6443321760966398 0.7647388786000067 0.0032395067792756844
vn 0.9815123194187537 0.19133501435137026 -0.004947637050063895
vn 0.026136828866163336 0.058650022506657414 0.9979363912779158
vn 0.8505685210347023 0.5258468178009451 -0.004279630060978595
vn -0.7897374588552403 0.6134320195482383 0.0039879159767510835
vn -0.8967649117395008 0.4424840039235056 0.004538650093212166
vn 0.026669493855521535 0.05841400345726232 0.997936141392617
vn -0.6111883622351886 -0.7914791693540031 0.003083885044053864
vn -0.7671618429797712 -0.6414419779042485 0.0038594893660232853
vn -0.5683345862188847 -0.8227925124704856 0.002877417229884915
vn 0.6270208192231559 0.7789961236165677 -0.0031514522182045216
vn -0.97403599336384 0.2263399772064337 0.004909007018617805
vn -0.8760705893711427 -0.4821633191223093 0.004342364777064498
vn -0.7364857778546552 -0.6764429608058814 0.0036905005075588723
vn -0.9625877588012699 -0.2709271248712888 0.004826967466790893
vn -0.6282042965348754 -0.7780419491106119 0.003176041448445052
vn 0.027193725456777146 0.058506970447347054 0.997916547465195
vn -0.9999874993361774 0 0.0050001171364979155
vn 0.5602160187396525 0.8283417487904926 -0.0028212688991992078
vn -0.9998055995044729 0.019073996604294836 0.004994582369022221
vn -0.9794614976655543 -0.20157292508634334 0.004850820846506726
vn 0.027202926738929125 0.0581780013154921 0.9979355294505609
vn -0.5533054435344278 0.8329738463359143 0.0027672143976706196
vn -0.3294611446604635 0.9441676895685726 0.001651706317953656
vn 0.6810743992392929 0.7322060665465514 -0.0034552587838422915
vn 0.026691630826647966 0.05859798269634075 0.997924763330249
vn 0.02718529869175035 0.058835969752847786 0.9978974337066322
vn 0.8256780487565565 0.5641260150830375 -0.004195105254701659
vn 0.02222822929744821 0.999752915978269 -0.00011320445257862888
vn 0.026197954857501017 0.05835997796391865 0.9979517924896648
vn 0.7562626936521392 -0.6542568129751555 -0.0038419871945789183
vn 0.8867754031585953 -0.46217897891516435 -0.004469429700415555
vn 0.16089308156471496 -0.9869715019145942 -0.0008189707324081194
vn 0.41569954956590166 -0.9094995537614292 -0.002108601068804087
vn -0.0011911734081191416 -0.9999992905468361 0.0000034258294014034402
vn 0.9744380500713358 -0.2246030526870533 -0.00489441486076646
vn 0.9585981369842491 0.28472110660615085 -0.0048480123035939005
vn 0.6209812934988208 -0.7838190400194497 -0.00315366889825776
vn 0.23451785845452325 0.9721110955361667 -0.001179831080143724
vn 0.02582504113454283 0.058407983015983364 0.9979587039404005
vn -0.11389033757292452 -0.9934931662884163 0.0005652837715278585
vn 0.9999173337121904 -0.011829995887769925 -0.005037552897928998
vn 0.37982855514619623 0.9250549485923854 -0.0019002053289991516
vn 0.025452125235296417 0.05845498322707587 0.9979655325996629
vn -0.29249571622148285 -0.9562657132083056 0.0014634665327798182
vn 0.42175139042921767 0.9067090618688416 -0.0021075568667733332
vn -0.4026363673688147 -0.9153577753748909 0.00202453273018999
vn -0.9999871564161389 0.000002999999032878093 0.005068233791450809
vn -0.027290933572747898 -0.058450019514565354 -0.9979172311186308
vn -0.9785520927821101 -0.2059400861616432 0.004947991864167673
vn -0.9995921768778616 0.02810301061258405 0.005069587664381907
vn -0.8548290980334238 -0.5188916837537764 0.004316675402924045
vn -0.993508134784618 0.11364902255058221 0.005048345282037627
vn -0.6254102286875552 -0.7802896978726678 0.0031675300725777468
vn -0.9899008834804036 0.14167196841721325 0.005029338873911589
vn -0.4121246288667097 0.9111250941725278 0.0020863965536405855
vn -0.10459796375515801 0.9945144469642312 0.0005298657417619999
vn -0.3605495376913649 -0.9327381619172962 0.0018847211164607167
vn 0.32495279504569397 0.9457288287389277 -0.0016320184089635027
vn -0.19858705822163294 -0.980082626164705 0.0011073377862388367
vn 0.5500363711413724 0.8351361521814465 -0.002756400043194163
vn -0.10944532567396852 -0.9939926338758026 0.0006037290480782886
vn 0.6992839892491355 0.7148352402472293 -0.0035329421876180364
vn -0.026633141180338497 -0.058402974855101215 -0.9979377577378976
vn 0.6031856767823461 0.7975949576150074 -0.003053344352891289
vn 0.024607556401093682 -0.9996971802104285 -0.00012667787959671866
vn 0.2086324597583904 0.977993555908386 -0.0010494459653730447
vn -0.02597485661692208 -0.05835603206898287 -0.997957854994335
vn -0.1730978249211654 0.9849042517159513 0.0008706086396750424
vn 0.2221809594175622 -0.9750047877561058 -0.0011336335221748288
vn -0.5003510775470255 0.8658189360458537 0.0025237238273074086
vn -0.026055769345666682 -0.058502987056157245 -0.9979471415808115
vn -0.8632345120526363 0.5047840672735866 0.00438436175310393
vn 0.44722054003746353 -0.8944208633351857 -0.0022600441014524325
vn -0.9958734460222407 0.09061202751575081 0.005053709258758792
vn 0.6443321760966398 -0.7647388786000067 -0.0032395067792756844
vn -0.9815123194187537 -0.19133501435137026 0.004947637050063895
vn -0.026136828866163336 -0.058650022506657414 -0.9979363912779158
vn -0.8505685210347023 -0.5258468178009451 0.004279630060978595
vn 0.7897374588552403 -0.6134320195482383 -0.0039879159767510835
vn 0.8967649117395008 -0.4424840039235056 -0.004538650093212166
vn -0.026669493855521535 -0.05841400345726232 -0.997936141392617
vn 0.7671618429797712 0.6414419779042485 -0.0038594893660232853
vn 0.6111883622351886 0.7914791693540031 -0.003083885044053864
vn 0.5683345862188847 0.8227925124704856 -0.002877417229884915
vn -0.6270208192231559 -0.7789961236165677 0.0031514522182045216
vn 0.97403599336384 -0.2263399772064337 -0.004909007018617805
vn 0.7364857778546552 0.6764429608058814 -0.0036905005075588723
vn 0.8760705893711427 0.4821633191223093 -0.004342364777064498
vn 0.9625877588012699 0.2709271248712888 -0.004826967466790893
vn 0.6282042965348754 0.7780419491106119 -0.003176041448445052
vn -0.027193725456777146 -0.058506970447347054 -0.997916547465195
vn 0.9999874993361774 0 -0.0050001171364979155
vn -0.5602160187396525 -0.8283417487904926 0.0028212688991992078
vn 0.9998055995044729 -0.019073996604294836 -0.004994582369022221
vn 0.9794614976655543 0.20157292508634334 -0.004850820846506726
vn -0.027202926738929125 -0.0581780013154921 -0.9979355294505609
vn 0.5533054435344278 -0.8329738463359143 -0.0027672143976706196
vn 0.3294611446604635 -0.9441676895685726 -0.001651706317953656
vn -0.6810743992392929 -0.7322060665465514 0.0034552587838422915
vn -0.026691630826647966 -0.05859798269634075 -0.997924763330249
vn -0.02718529869175035 -0.058835969752847786 -0.9978974337066322
vn -0.8256780487565565 -0.5641260150830375 0.004195105254701659
vn -0.02222822929744821 -0.999752915978269 0.00011320445257862888
vn -0.026197954857501017 -0.05835997796391865 -0.9979517924896648
vn -0.8867754031585953 0.46217897891516435 0.004469429700415555
vn -0.7562626936521392 0.6542568129751555 0.0038419871945789183
vn -0.41569954956590166 0.9094995537614292 0.002108601068804087
vn -0.16089308156471496 0.9869715019145942 0.0008189707324081194
vn 0.0011911734081191416 0.9999992905468361 -0.0000034258294014034402
vn -0.9744380500713358 0.2246030526870533 0.00489441486076646
vn -0.9585981369842491 -0.28472110660615085 0.0048480123035939005
vn -0.6209812934988208 0.7838190400194497 0.00315366889825776
vn -0.23451785845452325 -0.9721110955361667 0.001179831080143724
vn -0.02582504113454283 -0.058407983015983364 -0.9979587039404005
vn 0.11389033757292452 0.9934931662884163 -0.0005652837715278585
vn -0.9999173337121904 0.011829995887769925 0.005037552897928998
vn -0.37982855514619623 -0.9250549485923854 0.0019002053289991516
vn -0.025452125235296417 -0.05845498322707587 -0.9979655325996629
vn 0.29249571622148285 0.9562657132083056 -0.0014634665327798182
vn -0.42175139042921767 -0.9067090618688416 0.0021075568667733332
vn 0.4026363673688147 0.9153577753748909 -0.00202453273018999
vn 0.9999871564161389 -0.000002999999032878093 -0.005068233791450809
usemtl material_0_0
f 1//1 2//1 3//1
f 2//1 1//1 4//1
f 2//2 5//3 3//3
f 3//3 6//4 1//4
f 4//1 1//1 7//1
f 4//5 8//2 2//2
f 5//3 2//2 8//2
f 6//4 3//3 5//3
f 6//4 9//6 1//4
f 7//1 1//1 10//1
f 7//7 11//5 4//5
f 8//2 4//5 11//5
f 9//6 6//4 12//6
f 10//1 1//1 9//1
f 10//8 13//9 7//9
f 11//5 7//7 13//7
f 12//6 14//10 9//6
f 10//1 9//1 15//1
f 13//9 10//8 16//8
f 14//10 12//6 17//10
f 15//1 9//1 14//1
f 15//11 16//8 10//8
f 17//10 18//12 14//10
f 15//1 14//1 19//1
f 16//8 15//11 20//11
f 18//12 17//10 21//12
f 22//1 14//1 18//1
f 19//1 14//1 22//1
f 19//13 20//11 15//11
f 21//12 23//14 18//12
f 22//1 18//1 24//1
f 22//15 25//13 19//13
f 20//11 19//13 25//13
f 23//14 21//12 26//14
f 27//1 18//1 23//16
f 24//1 18//1 27//1
f 24//17 28//15 22//15
f 25//13 22//15 28//15
f 26//14 29//18 23//14
f 27//1 23//16 30//1
f 27//19 31//17 24//17
f 28//15 24//17 31//17
f 29//18 26//14 32//18
f 29//20 33//16 23//16
f 30//1 23//16 33//16
f 30//21 34//19 27//19
f 31//17 27//19 34//19
f 32//18 35//22 29//18
f 33//16 29//20 36//20
f 33//23 37//21 30//21
f 34//19 30//21 37//21
f 35//22 32//18 38//22
f 39//24 29//20 35//20
f 36//20 29//20 40//20
f 36//25 41//23 33//23
f 37//21 33//23 41//23
f 38//22 42//26 35//22
f 39//24 40//20 29//20
f 39//24 35//20 42//20
f 40//27 43//25 36//25
f 41//23 36//25 43//25
f 42//26 38//22 44//26
f 39//24 45//20 40//20
f 39//24 42//20 46//20
f 43//25 40//27 47//27
f 44//26 46//28 42//26
f 45//20 39//24 48//24
f 45//29 47//27 40//27
f 39//24 46//20 49//20
f 46//28 44//26 50//28
f 51//30 48//24 39//24
f 48//31 52//29 45//29
f 47//27 45//29 52//29
f 50//28 49//32 46//28
f 39//24 49//20 53//20
f 54//30 48//24 51//30
f 51//30 39//24 55//30
f 52//29 48//31 56//31
f 49//32 50//28 57//32
f 49//32 58//33 53//33
f 39//24 53//20 59//20
f 60//34 48//24 54//30
f 51//35 61//36 54//36
f 55//30 39//24 62//30
f 55//37 63//35 51//35
f 48//31 64//38 56//31
f 58//33 49//32 57//32
f 65//39 53//33 58//33
f 59//20 53//20 66//20
f 59//40 67//41 39//41
f 48//24 60//34 68//34
f 54//36 69//42 60//42
f 61//36 51//35 63//35
f 69//42 54//36 61//36
f 39//41 70//43 62//43
f 62//43 71//37 55//37
f 63//35 55//37 71//37
f 64//38 48//31 68//38
f 53//33 65//39 66//39
f 59//20 66//20 72//20
f 67//41 59//40 73//40
f 70//43 39//41 67//41
f 74//44 68//34 60//34
f 75//45 60//42 69//42
f 71//37 62//43 70//43
f 68//38 76//46 64//38
f 77//47 66//39 65//39
f 72//20 66//20 78//20
f 72//48 73//40 59//40
f 74//44 79//49 68//34
f 60//42 75//45 74//45
f 76//46 68//38 79//46
f 66//39 77//47 78//47
f 78//47 80//48 72//48
f 73//40 72//48 80//48
f 74//44 81//49 79//49
f 75//50 82//51 74//50
f 79//46 83//52 76//46
f 80//48 78//47 77//47
f 84//44 81//49 74//44
f 83//52 79//46 81//52
f 82//51 75//50 85//51
f 86//53 74//44 82//53
f 84//44 87//49 81//49
f 74//44 88//54 84//44
f 81//52 89//55 83//52
f 85//51 90//56 82//51
f 91//54 74//44 86//53
f 82//53 92//57 86//53
f 93//49 87//49 84//44
f 89//55 81//52 87//55
f 88//54 74//44 94//54
f 88//58 95//59 84//59
f 90//56 85//51 96//56
f 97//57 82//53 90//57
f 94//54 74//44 91//54
f 86//60 98//61 91//61
f 92//57 82//53 97//57
f 92//62 99//60 86//60
f 93//49 100//49 87//49
f 84//59 101//63 93//63
f 100//64 89//55 87//55
f 94//65 102//58 88//58
f 95//59 88//58 102//58
f 101//63 84//59 95//59
f 96//56 103//66 90//56
f 97//57 90//57 103//67
f 91//61 104//65 94//65
f 98//61 86//60 99//60
f 104//65 91//61 98//61
f 97//68 105//62 92//62
f 99//60 92//62 105//62
f 100//49 93//49 106//49
f 107//69 93//63 101//63
f 89//55 100//64 108//64
f 102//58 94//65 104//65
f 103//66 96//56 109//66
f 97//57 103//67 110//67
f 105//62 97//68 111//68
f 93//63 107//69 106//69
f 106//69 108//64 100//64
f 109//66 112//70 103//66
f 112//71 110//67 103//67
f 110//72 111//68 97//68
f 108//64 106//69 107//69
f 112//70 109//66 113//70
f 110//67 112//71 114//71
f 111//68 110//72 115//72
f 113//70 116//73 112//70
f 114//71 112//71 116//71
f 114//74 115//72 110//72
f 116//73 113//70 117//73
f 116//75 118//75 114//75
f 115//72 114//74 118//74
f 118//75 116//75 117//75
usemtl material_1_0
f 3//76 2//76 1//76
f 4//76 1//76 2//76
f 3//77 5//77 2//78
f 1//79 6//79 3//77
f 7//76 1//76 4//76
f 2//78 8//78 4//80
f 8//78 2//78 5//77
f 5//77 3//77 6//79
f 1//79 9//81 6//79
f 10//76 1//76 7//76
f 4//80 11//80 7//82
f 11//80 4//80 8//78
f 12//81 6//79 9//81
f 9//76 1//76 10//76
f 7//83 13//83 10//84
f 13//82 7//82 11//80
f 9//81 14//85 12//81
f 15//76 9//76 10//76
f 16//84 10//84 13//83
f 17//85 12//81 14//85
f 14//76 9//76 15//76
f 10//84 16//84 15//86
f 14//85 18//87 17//85
f 19//76 14//76 15//76
f 20//86 15//86 16//84
f 21//87 17//85 18//87
f 18//76 14//76 22//76
f 22//76 14//76 19//76
f 15//86 20//86 19//88
f 18//87 23//89 21//87
f 24//76 18//76 22//76
f 19//88 25//88 22//90
f 25//88 19//88 20//86
f 26//89 21//87 23//89
f 23//91 18//76 27//76
f 27//76 18//76 24//76
f 22//90 28//90 24//92
f 28//90 22//90 25//88
f 23//89 29//93 26//89
f 30//76 23//91 27//76
f 24//92 31//92 27//94
f 31//92 24//92 28//90
f 32//93 26//89 29//93
f 23//91 33//91 29//95
f 33//91 23//91 30//76
f 27//94 34//94 30//96
f 34//94 27//94 31//92
f 29//93 35//97 32//93
f 36//95 29//95 33//91
f 30//96 37//96 33//98
f 37//96 30//96 34//94
f 38//97 32//93 35//97
f 35//95 29//95 39//99
f 40//95 29//95 36//95
f 33//98 41//98 36//100
f 41//98 33//98 37//96
f 35//97 42//101 38//97
f 29//95 40//95 39//99
f 42//95 35//95 39//99
f 36//100 43//100 40//102
f 43//100 36//100 41//98
f 44//101 38//97 42//101
f 40//95 45//95 39//99
f 46//95 42//95 39//99
f 47//102 40//102 43//100
f 42//101 46//103 44//101
f 48//99 39//99 45//95
f 40//102 47//102 45//104
f 49//95 46//95 39//99
f 50//103 44//101 46//103
f 39//99 48//99 51//105
f 45//104 52//104 48//106
f 52//104 45//104 47//102
f 46//103 49//107 50//103
f 53//95 49//95 39//99
f 51//105 48//99 54//105
f 55//105 39//99 51//105
f 56//106 48//106 52//104
f 57//107 50//103 49//107
f 53//108 58//108 49//107
f 59//95 53//95 39//99
f 54//105 48//99 60//109
f 54//110 61//110 51//111
f 62//105 39//99 55//105
f 51//111 63//111 55//112
f 56//106 64//113 48//106
f 57//107 49//107 58//108
f 58//108 53//108 65//114
f 66//95 53//95 59//95
f 39//115 67//115 59//116
f 68//109 60//109 48//99
f 60//117 69//117 54//110
f 63//111 51//111 61//110
f 61//110 54//110 69//117
f 62//118 70//118 39//115
f 55//112 71//112 62//118
f 71//112 55//112 63//111
f 68//113 48//106 64//113
f 66//114 65//114 53//108
f 72//95 66//95 59//95
f 73//116 59//116 67//115
f 67//115 39//115 70//118
f 60//109 68//109 74//119
f 69//117 60//117 75//120
f 70//118 62//118 71//112
f 64//113 76//121 68//113
f 65//114 66//114 77//122
f 78//95 66//95 72//95
f 59//116 73//116 72//123
f 68//109 79//124 74//119
f 74//120 75//120 60//117
f 79//121 68//113 76//121
f 78//122 77//122 66//114
f 72//123 80//123 78//122
f 80//123 72//123 73//116
f 79//124 81//124 74//119
f 74//125 82//126 75//125
f 76//121 83//127 79//121
f 77//122 78//122 80//123
f 74//119 81//124 84//119
f 81//127 79//121 83//127
f 85//126 75//125 82//126
f 82//128 74//119 86//128
f 81//124 87//124 84//119
f 84//119 88//129 74//119
f 83//127 89//130 81//127
f 82//126 90//131 85//126
f 86//128 74//119 91//129
f 86//128 92//132 82//128
f 84//119 87//124 93//124
f 87//130 81//127 89//130
f 94//129 74//119 88//129
f 84//133 95//133 88//134
f 96//131 85//126 90//131
f 90//132 82//128 97//132
f 91//129 74//119 94//129
f 91//135 98//135 86//136
f 97//132 82//128 92//132
f 86//136 99//136 92//137
f 87//124 100//124 93//124
f 93//138 101//138 84//133
f 87//130 89//130 100//139
f 88//134 102//134 94//140
f 102//134 88//134 95//133
f 95//133 84//133 101//138
f 90//131 103//141 96//131
f 103//142 90//132 97//132
f 94//140 104//140 91//135
f 99//136 86//136 98//135
f 98//135 91//135 104//140
f 92//137 105//137 97//143
f 105//137 92//137 99//136
f 106//124 93//124 100//124
f 101//138 93//138 107//144
f 108//139 100//139 89//130
f 104//140 94//140 102//134
f 109//141 96//131 103//141
f 110//142 103//142 97//132
f 111//143 97//143 105//137
f 106//144 107//144 93//138
f 100//139 108//139 106//144
f 103//141 112//145 109//141
f 103//142 110//142 112//146
f 97//143 111//143 110//147
f 107//144 106//144 108//139
f 113//145 109//141 112//145
f 114//146 112//146 110//142
f 115//147 110//147 111//143
f 112//145 116//148 113//145
f 116//146 112//146 114//146
f 110//147 115//147 114//149
f 117//148 113//145 116//148
f 114//150 118//150 116//150
f 118//149 114//149 115//147
f 117//150 116//150 118//150
