# SSTK version 0.8.0
# 28
mtllib original-28.mtl
o mesh21/mesh21-geometry#mesh21-geometry
v 0.009125 0.516897 0.361787
v 0.010382 0.515310 0.363623
v 0.010373 0.515269 0.361818
v 0.009134 0.516939 0.363591
v 0.009931 0.514544 0.363643
v 0.009922 0.514502 0.361838
v 0.007908 0.518498 0.361756
v 0.009004 0.513948 0.361856
v 0.007917 0.518539 0.363560
v 0.009013 0.513990 0.363660
v 0.006746 0.520049 0.361726
v 0.007891 0.513835 0.361864
v 0.007900 0.513876 0.363668
v 0.006755 0.520091 0.363530
v 0.005667 0.521528 0.361697
v 0.006640 0.515467 0.361833
v 0.005676 0.521570 0.363501
v 0.006650 0.515509 0.363637
v 0.004697 0.522911 0.361670
v 0.005414 0.517079 0.361801
v 0.004706 0.522953 0.363474
v 0.005423 0.517121 0.363606
v 0.003863 0.524170 0.361645
v 0.004237 0.518651 0.361771
v 0.003872 0.524212 0.363449
v 0.004246 0.518693 0.363575
v 0.003223 0.525223 0.361624
v 0.003135 0.520162 0.361742
v 0.003232 0.525265 0.363428
v 0.003144 0.520204 0.363546
v 0.002666 0.526401 0.361599
v 0.002131 0.521593 0.361713
v 0.002675 0.526443 0.363404
v 0.002140 0.521635 0.363518
v 0.002382 0.527457 0.361576
v 0.001251 0.522924 0.361687
v 0.002392 0.527498 0.363381
v 0.002328 0.528395 0.361555
v 0.001260 0.522965 0.363491
v 0.001194 0.532259 0.361471
v 0.002337 0.528437 0.363359
v 0.001203 0.532301 0.363275
v 0.000519 0.524133 0.361663
v 0.000218 0.531159 0.361502
v 0.002474 0.529191 0.361536
v 0.000227 0.531201 0.363306
v 0.000528 0.524175 0.363467
v 0.002483 0.529233 0.363340
v 0.002554 0.533172 0.361443
v -0.000176 0.525621 0.361632
v -0.000382 0.529951 0.363338
v 0.002563 0.533214 0.363247
v 0.002793 0.529855 0.361519
v -0.000167 0.525663 0.363436
v -0.000391 0.529909 0.361534
v 0.002802 0.529897 0.363323
v 0.003303 0.530430 0.361503
v -0.000571 0.527104 0.361599
v -0.000639 0.528587 0.363371
v -0.000562 0.527146 0.363404
v 0.003312 0.530472 0.363307
v 0.007753 0.535868 0.361355
v 0.004233 0.531033 0.361484
v -0.000648 0.528546 0.361567
v 0.004242 0.531075 0.363288
v 0.007762 0.535910 0.363159
v 0.009188 0.536773 0.361326
v 0.009197 0.536815 0.363131
v 0.009396 0.533707 0.361396
v 0.009405 0.533749 0.363201
v 0.010323 0.537818 0.361297
v 0.010333 0.537860 0.363101
v 0.011157 0.534829 0.361362
v 0.011166 0.534871 0.363166
v 0.011151 0.538954 0.361266
v 0.011160 0.538996 0.363070
v 0.012678 0.536230 0.361321
v 0.011661 0.540134 0.361236
v 0.011670 0.540176 0.363040
v 0.012687 0.536272 0.363126
v 0.011846 0.541311 0.361208
v 0.011855 0.541353 0.363012
v 0.013820 0.537801 0.361279
v 0.011696 0.542437 0.361183
v 0.013829 0.537843 0.363083
v 0.010836 0.548708 0.361042
v 0.011705 0.542478 0.362987
v 0.014551 0.539500 0.361236
v 0.010845 0.548750 0.362846
v 0.013840 0.544671 0.361120
v 0.011203 0.543464 0.361161
v 0.014560 0.539542 0.363040
v 0.013849 0.544713 0.362924
v 0.011212 0.543505 0.362966
v 0.008336 0.547298 0.361087
v 0.014827 0.541284 0.361194
v 0.014581 0.543089 0.361153
v 0.014590 0.543131 0.362957
v 0.008345 0.547340 0.362891
v 0.009624 0.548627 0.361050
v 0.014836 0.541326 0.362998
v 0.009633 0.548668 0.362854
v 0.008728 0.548071 0.361067
v 0.008737 0.548113 0.362871
vn 0.7948528013865583 0.6065337576255198 -0.01805062294237407
vn 0.7937504450055733 0.6079750435705331 -0.01807145397754744
vn 0.7110149060634007 -0.7030622455923402 0.012699692055690872
vn 0.8618362753156089 -0.5071327383071497 0.007390553917676541
vn -0.005036172609183596 -0.023147009651448818 -0.9997193870830186
vn 0.7982533877989775 0.6020539469813255 -0.017960339408327614
vn 0.31690305648844386 -0.9482388431679458 0.020385021358777223
vn 0.804231164219156 0.5940502729661631 -0.01779066293110306
vn 0.10175017302424096 -0.9945543598134223 0.022550557989786987
vn 0.8133184735586001 0.5815540040170842 -0.017549956695263786
vn -0.7937522465687518 -0.6079719786781193 0.01809541956607817
vn -0.7948554773202052 -0.6065297923800355 0.018066021407603192
vn 0.8263814753216264 0.5628480398932634 -0.01719712864299155
vn -0.7982581448088462 -0.602047416175655 0.017967830212824835
vn 0.8443104515059645 0.5355950629543831 -0.01666703382983827
vn -0.8042484253071094 -0.5940268825757475 0.017791379046436104
vn 0.8804625503748763 0.47386485956495716 -0.015420514156525744
vn -0.8133484110421052 -0.5815121610157968 0.01754904117096979
vn 0.9386692944655868 0.34458421976055137 -0.012714995850951339
vn -0.8264500571695519 -0.5627472809735974 0.01719885930134621
vn 0.9871955950510403 0.1592790570305933 -0.008662511371856519
vn -0.8450033659976958 -0.5345020487473908 0.016639451235123774
vn 0.9981018712935508 -0.06147900304705314 -0.003603707070842682
vn -0.882046648300733 -0.47091214282532007 0.015344834997756221
vn -0.8313680927012264 0.5556541315905825 -0.008693703735499977
vn -0.6580650090365613 0.7528286665760215 -0.01412241704101316
vn 0.951010687834525 -0.30914900238647575 0.002359226133852898
vn -0.939846959669065 -0.3413618925800858 0.01263925215181148
vn -0.9493614143443901 0.31417613871350847 -0.002501762796434753
vn -0.5097791711347174 0.8601306231033153 -0.017335163024991367
vn 0.8326311764955304 -0.5537608282738097 0.008617946227085123
vn -0.9877375733858615 -0.1558870048513595 0.008586491733072743
vn -0.9977768088440317 0.06655300351672734 0.0034838851764906384
vn -0.4975728342648335 0.8672447482757439 -0.01754483370688062
vn 0.6520833375886163 -0.7580129439756442 0.014272266977167943
vn 0.5028669502343144 -0.86418666351084 0.017499742056432305
vn -0.6079766239814808 0.7938077099073912 -0.015288701176493145
vn 0.49926990501110563 -0.8662684691170601 0.017564206893181028
vn -0.7464808217834101 0.6653052836243599 -0.011630231772184228
vn 0.6098600266477684 -0.7923617171047312 0.015285848488881124
vn -0.8685088739678694 0.49562277570348534 -0.0070992987707456335
vn 0.7469199173240385 -0.6648120402397442 0.011644237069046562
vn -0.9605397881832044 0.2781379873601585 -0.001604775437674441
vn 0.8691179870919391 -0.4945541129490012 0.007081940304931419
vn -0.999918958181572 0.011806995224998243 0.0047615053120358495
vn -0.9582880823733707 -0.28557497732106407 0.011440433088026987
vn 0.9611222025848063 -0.27611900939619194 0.0015505962066740494
vn 0.8022885665809603 0.5966692832476277 -0.01785559750415246
vn 0.8583121302637979 0.5128722243424124 -0.016197794296986208
vn -0.8552842213491756 -0.5179027315268032 0.016299122314116957
vn 0.9999484171308212 -0.008932999702325656 -0.004833693606713802
vn 0.9591792625764528 0.2825699244333241 -0.011374535113044391
vn -0.8009005900721472 -0.5985301225370845 0.017886789477960487
vn -0.06691616428913091 0.9974986599397972 -0.022773896793009864
vn -0.3059017937835268 0.9518420475497466 -0.020513631475843827
vn -0.8918741903820772 0.4522440212970759 -0.005981114558715481
vn -0.7366757880691356 0.6761404383538206 -0.01195369798102377
vn -0.7937504450055733 -0.6079750435705331 0.01807145397754744
vn -0.7948528013865583 -0.6065337576255198 0.01805062294237407
vn -0.8618362753156089 0.5071327383071497 -0.007390553917676541
vn -0.7110149060634007 0.7030622455923402 -0.012699692055690872
vn 0.005036172609183596 0.023147009651448818 0.9997193870830186
vn -0.7982533877989775 -0.6020539469813255 0.017960339408327614
vn -0.31690305648844386 0.9482388431679458 -0.020385021358777223
vn -0.804231164219156 -0.5940502729661631 0.01779066293110306
vn -0.10175017302424096 0.9945543598134223 -0.022550557989786987
vn -0.8133184735586001 -0.5815540040170842 0.017549956695263786
vn 0.7937522465687518 0.6079719786781193 -0.01809541956607817
vn 0.7948554773202052 0.6065297923800355 -0.018066021407603192
vn -0.8263814753216264 -0.5628480398932634 0.01719712864299155
vn 0.7982581448088462 0.602047416175655 -0.017967830212824835
vn -0.8443104515059645 -0.5355950629543831 0.01666703382983827
vn 0.8042484253071094 0.5940268825757475 -0.017791379046436104
vn -0.8804625503748763 -0.47386485956495716 0.015420514156525744
vn 0.8133484110421052 0.5815121610157968 -0.01754904117096979
vn -0.9386692944655868 -0.34458421976055137 0.012714995850951339
vn 0.8264500571695519 0.5627472809735974 -0.01719885930134621
vn -0.9871955950510403 -0.1592790570305933 0.008662511371856519
vn 0.8450033659976958 0.5345020487473908 -0.016639451235123774
vn -0.9981018712935508 0.06147900304705314 0.003603707070842682
vn 0.882046648300733 0.47091214282532007 -0.015344834997756221
vn 0.8313680927012264 -0.5556541315905825 0.008693703735499977
vn 0.6580650090365613 -0.7528286665760215 0.01412241704101316
vn -0.951010687834525 0.30914900238647575 -0.002359226133852898
vn 0.939846959669065 0.3413618925800858 -0.01263925215181148
vn 0.9493614143443901 -0.31417613871350847 0.002501762796434753
vn 0.5097791711347174 -0.8601306231033153 0.017335163024991367
vn -0.8326311764955304 0.5537608282738097 -0.008617946227085123
vn 0.9877375733858615 0.1558870048513595 -0.008586491733072743
vn 0.9977768088440317 -0.06655300351672734 -0.0034838851764906384
vn 0.4975728342648335 -0.8672447482757439 0.01754483370688062
vn -0.6520833375886163 0.7580129439756442 -0.014272266977167943
vn -0.5028669502343144 0.86418666351084 -0.017499742056432305
vn 0.6079766239814808 -0.7938077099073912 0.015288701176493145
vn -0.49926990501110563 0.8662684691170601 -0.017564206893181028
vn 0.7464808217834101 -0.6653052836243599 0.011630231772184228
vn -0.6098600266477684 0.7923617171047312 -0.015285848488881124
vn 0.8685088739678694 -0.49562277570348534 0.0070992987707456335
vn -0.7469199173240385 0.6648120402397442 -0.011644237069046562
vn 0.9605397881832044 -0.2781379873601585 0.001604775437674441
vn -0.8691179870919391 0.4945541129490012 -0.007081940304931419
vn 0.999918958181572 -0.011806995224998243 -0.0047615053120358495
vn 0.9582880823733707 0.28557497732106407 -0.011440433088026987
vn -0.9611222025848063 0.27611900939619194 -0.0015505962066740494
vn -0.8583121302637979 -0.5128722243424124 0.016197794296986208
vn -0.8022885665809603 -0.5966692832476277 0.01785559750415246
vn 0.8552842213491756 0.5179027315268032 -0.016299122314116957
vn -0.9999484171308212 0.008932999702325656 0.004833693606713802
vn -0.9591792625764528 -0.2825699244333241 0.011374535113044391
vn 0.8009005900721472 0.5985301225370845 -0.017886789477960487
vn 0.06691616428913091 -0.9974986599397972 0.022773896793009864
vn 0.3059017937835268 -0.9518420475497466 0.020513631475843827
vn 0.8918741903820772 -0.4522440212970759 0.005981114558715481
vn 0.7366757880691356 -0.6761404383538206 0.01195369798102377
usemtl material_0_0
f 1//1 2//2 3//2
f 2//2 1//1 4//1
f 5//3 3//4 2//4
f 6//5 1//5 3//5
f 7//6 4//1 1//1
f 3//4 5//3 6//3
f 1//5 6//5 8//5
f 4//1 7//6 9//6
f 1//5 8//5 7//5
f 10//7 6//3 5//3
f 6//3 10//7 8//7
f 11//8 9//6 7//6
f 7//5 8//5 12//5
f 13//9 8//7 10//7
f 9//6 11//8 14//8
f 7//5 12//5 11//5
f 8//7 13//9 12//9
f 15//10 14//8 11//8
f 11//5 12//5 16//5
f 13//11 16//12 12//11
f 14//8 15//10 17//10
f 11//5 16//5 15//5
f 16//12 13//11 18//12
f 19//13 17//10 15//10
f 15//5 16//5 20//5
f 18//12 20//14 16//12
f 17//10 19//13 21//13
f 15//5 20//5 19//5
f 20//14 18//12 22//14
f 23//15 21//13 19//13
f 19//5 20//5 24//5
f 22//14 24//16 20//14
f 21//13 23//15 25//15
f 19//5 24//5 23//5
f 24//16 22//14 26//16
f 27//17 25//15 23//15
f 23//5 24//5 28//5
f 26//16 28//18 24//16
f 25//15 27//17 29//17
f 23//5 28//5 27//5
f 28//18 26//16 30//18
f 31//19 29//17 27//17
f 27//5 28//5 31//5
f 30//18 32//20 28//18
f 29//17 31//19 33//19
f 31//5 28//5 32//5
f 32//20 30//18 34//20
f 35//21 33//19 31//19
f 31//5 32//5 35//5
f 34//20 36//22 32//20
f 33//19 35//21 37//21
f 35//5 32//5 38//5
f 36//22 34//20 39//22
f 40//5 32//5 36//5
f 38//23 37//21 35//21
f 40//5 38//5 32//5
f 39//22 43//24 36//22
f 40//5 36//5 44//5
f 37//21 38//23 41//23
f 40//5 45//5 38//5
f 43//24 39//22 47//24
f 44//5 36//5 43//5
f 46//25 40//26 44//25
f 45//27 41//23 38//23
f 49//5 45//5 40//5
f 40//26 46//25 42//26
f 47//24 50//28 43//24
f 44//5 43//5 50//5
f 44//25 51//29 46//25
f 41//23 45//27 48//27
f 49//5 53//5 45//5
f 42//26 49//30 40//26
f 50//28 47//24 54//28
f 44//5 50//5 55//5
f 51//29 44//25 55//29
f 53//31 48//27 45//27
f 49//30 42//26 52//30
f 49//5 57//5 53//5
f 54//28 58//32 50//28
f 55//5 50//5 58//5
f 55//29 59//33 51//29
f 48//27 53//31 56//31
f 52//30 62//34 49//30
f 49//5 63//5 57//5
f 57//35 56//31 53//31
f 58//32 54//28 60//32
f 55//5 58//5 64//5
f 59//33 55//29 64//33
f 56//31 57//35 61//35
f 62//34 52//30 66//34
f 62//5 63//5 49//5
f 63//36 61//35 57//35
f 60//32 64//33 58//32
f 64//33 60//32 59//33
f 61//35 63//36 65//36
f 66//34 67//37 62//34
f 67//5 63//5 62//5
f 69//38 65//36 63//36
f 67//37 66//34 68//37
f 67//5 69//5 63//5
f 65//36 69//38 70//38
f 68//37 71//39 67//37
f 71//5 69//5 67//5
f 73//40 70//38 69//38
f 71//39 68//37 72//39
f 71//5 73//5 69//5
f 70//38 73//40 74//40
f 72//39 75//41 71//39
f 75//5 73//5 71//5
f 77//42 74//40 73//40
f 75//41 72//39 76//41
f 78//5 73//5 75//5
f 74//40 77//42 80//42
f 73//5 81//5 77//5
f 76//41 78//43 75//41
f 81//5 73//5 78//5
f 78//43 76//41 79//43
f 83//44 80//42 77//42
f 84//5 77//5 81//5
f 79//43 81//45 78//43
f 81//45 79//43 82//45
f 80//42 83//44 85//44
f 86//5 83//5 77//5
f 86//5 77//5 84//5
f 82//45 84//46 81//45
f 88//47 85//44 83//44
f 90//5 83//5 86//5
f 84//46 82//45 87//46
f 86//5 84//5 91//5
f 85//44 88//47 92//47
f 90//5 88//5 83//5
f 86//48 93//49 90//49
f 87//46 91//50 84//46
f 86//5 91//5 95//5
f 96//51 92//47 88//47
f 97//5 88//5 90//5
f 93//49 86//48 89//48
f 98//52 90//49 93//49
f 91//50 87//46 94//50
f 94//50 95//53 91//50
f 86//5 95//5 100//5
f 92//47 96//51 101//51
f 88//5 97//5 96//5
f 90//49 98//52 97//52
f 86//54 102//55 89//54
f 95//53 94//50 99//53
f 100//5 95//5 103//5
f 102//55 86//54 100//55
f 97//52 101//51 96//51
f 101//51 97//52 98//52
f 99//56 103//57 95//56
f 104//57 100//55 103//57
f 100//55 104//57 102//55
f 103//57 99//56 104//57
usemtl material_1_0
f 3//58 2//58 1//59
f 4//59 1//59 2//58
f 2//60 3//60 5//61
f 3//62 1//62 6//62
f 1//59 4//59 7//63
f 2//5 5//5 4//5
f 6//61 5//61 3//60
f 8//62 6//62 1//62
f 9//63 7//63 4//59
f 7//62 8//62 1//62
f 10//5 4//5 5//5
f 5//61 6//61 10//64
f 8//64 10//64 6//61
f 7//63 9//63 11//65
f 9//5 4//5 10//5
f 12//62 8//62 7//62
f 10//64 8//64 13//66
f 14//65 11//65 9//63
f 11//62 12//62 7//62
f 13//5 9//5 10//5
f 12//66 13//66 8//64
f 11//65 14//65 15//67
f 14//5 9//5 13//5
f 16//62 12//62 11//62
f 12//68 16//69 13//68
f 17//67 15//67 14//65
f 15//62 16//62 11//62
f 18//5 14//5 13//5
f 18//69 13//68 16//69
f 15//67 17//67 19//70
f 17//5 14//5 18//5
f 20//62 16//62 15//62
f 16//69 20//71 18//69
f 21//70 19//70 17//67
f 19//62 20//62 15//62
f 22//5 17//5 18//5
f 22//71 18//69 20//71
f 19//70 21//70 23//72
f 21//5 17//5 22//5
f 24//62 20//62 19//62
f 20//71 24//73 22//71
f 25//72 23//72 21//70
f 23//62 24//62 19//62
f 26//5 21//5 22//5
f 26//73 22//71 24//73
f 23//72 25//72 27//74
f 25//5 21//5 26//5
f 28//62 24//62 23//62
f 24//73 28//75 26//73
f 29//74 27//74 25//72
f 27//62 28//62 23//62
f 30//5 25//5 26//5
f 30//75 26//73 28//75
f 27//74 29//74 31//76
f 29//5 25//5 30//5
f 31//62 28//62 27//62
f 28//75 32//77 30//75
f 33//76 31//76 29//74
f 33//5 29//5 30//5
f 32//62 28//62 31//62
f 34//77 30//75 32//77
f 31//76 33//76 35//78
f 34//5 33//5 30//5
f 35//62 32//62 31//62
f 32//77 36//79 34//77
f 37//78 35//78 33//76
f 37//5 33//5 34//5
f 38//62 32//62 35//62
f 39//79 34//77 36//79
f 36//62 32//62 40//62
f 35//78 37//78 38//80
f 41//5 37//5 34//5
f 32//62 38//62 40//62
f 39//5 42//5 34//5
f 36//79 43//81 39//79
f 44//62 36//62 40//62
f 41//80 38//80 37//78
f 34//5 42//5 41//5
f 38//62 45//62 40//62
f 46//5 42//5 39//5
f 47//81 39//79 43//81
f 43//62 36//62 44//62
f 44//82 40//83 46//82
f 38//80 41//80 45//84
f 41//5 42//5 48//5
f 40//62 45//62 49//62
f 42//83 46//82 40//83
f 47//5 46//5 39//5
f 43//81 50//85 47//81
f 50//62 43//62 44//62
f 46//82 51//86 44//82
f 48//84 45//84 41//80
f 42//5 52//5 48//5
f 45//62 53//62 49//62
f 40//83 49//87 42//83
f 54//5 46//5 47//5
f 54//85 47//81 50//85
f 55//62 50//62 44//62
f 55//86 44//82 51//86
f 51//5 46//5 54//5
f 45//84 48//84 53//88
f 48//5 52//5 56//5
f 52//87 42//83 49//87
f 53//62 57//62 49//62
f 50//85 58//89 54//85
f 58//62 50//62 55//62
f 51//86 59//90 55//86
f 60//5 51//5 54//5
f 56//88 53//88 48//84
f 56//5 52//5 61//5
f 49//87 62//91 52//87
f 57//62 63//62 49//62
f 53//88 56//88 57//92
f 60//89 54//85 58//89
f 64//62 58//62 55//62
f 64//90 55//86 59//90
f 59//5 51//5 60//5
f 61//5 52//5 65//5
f 61//92 57//92 56//88
f 66//91 52//87 62//91
f 49//62 63//62 62//62
f 57//92 61//92 63//93
f 58//89 64//90 60//89
f 59//90 60//89 64//90
f 52//5 66//5 65//5
f 65//93 63//93 61//92
f 62//91 67//94 66//91
f 62//62 63//62 67//62
f 66//5 68//5 65//5
f 63//93 65//93 69//95
f 68//94 66//91 67//94
f 63//62 69//62 67//62
f 65//5 68//5 70//5
f 70//95 69//95 65//93
f 67//94 71//96 68//94
f 67//62 69//62 71//62
f 68//5 72//5 70//5
f 69//95 70//95 73//97
f 72//96 68//94 71//96
f 69//62 73//62 71//62
f 70//5 72//5 74//5
f 74//97 73//97 70//95
f 71//96 75//98 72//96
f 71//62 73//62 75//62
f 72//5 76//5 74//5
f 73//97 74//97 77//99
f 76//98 72//96 75//98
f 75//62 73//62 78//62
f 76//5 79//5 74//5
f 80//99 77//99 74//97
f 77//62 81//62 73//62
f 75//98 78//100 76//98
f 78//62 73//62 81//62
f 79//5 82//5 74//5
f 79//100 76//98 78//100
f 77//99 80//99 83//101
f 80//5 74//5 82//5
f 81//62 77//62 84//62
f 78//100 81//102 79//100
f 82//102 79//100 81//102
f 85//101 83//101 80//99
f 77//62 83//62 86//62
f 82//5 87//5 80//5
f 84//62 77//62 86//62
f 81//102 84//103 82//102
f 83//101 85//101 88//104
f 80//5 89//5 85//5
f 86//62 83//62 90//62
f 87//5 89//5 80//5
f 87//103 82//102 84//103
f 91//62 84//62 86//62
f 92//104 88//104 85//101
f 83//62 88//62 90//62
f 89//5 93//5 85//5
f 90//105 93//105 86//106
f 94//5 89//5 87//5
f 84//103 91//107 87//103
f 95//62 91//62 86//62
f 88//104 92//104 96//108
f 85//5 93//5 92//5
f 90//62 88//62 97//62
f 89//106 86//106 93//105
f 93//105 90//105 98//109
f 99//5 89//5 94//5
f 94//107 87//103 91//107
f 91//107 95//110 94//107
f 100//62 95//62 86//62
f 101//108 96//108 92//104
f 96//62 97//62 88//62
f 93//5 98//5 92//5
f 97//109 98//109 90//105
f 89//111 102//112 86//111
f 102//5 89//5 99//5
f 99//110 94//107 95//110
f 103//62 95//62 100//62
f 100//112 86//111 102//112
f 96//108 101//108 97//109
f 101//5 92//5 98//5
f 98//109 97//109 101//108
f 104//5 102//5 99//5
f 95//113 103//114 99//113
f 103//114 100//112 104//114
f 102//112 104//114 100//112
f 104//114 99//113 103//114
usemtl material_2_0
f 4//62 5//62 2//62
f 5//62 4//62 10//62
f 10//62 4//62 9//62
f 10//62 9//62 13//62
f 13//62 9//62 14//62
f 13//62 14//62 18//62
f 18//62 14//62 17//62
f 18//62 17//62 22//62
f 22//62 17//62 21//62
f 22//62 21//62 26//62
f 26//62 21//62 25//62
f 26//62 25//62 30//62
f 30//62 25//62 29//62
f 30//62 29//62 33//62
f 30//62 33//62 34//62
f 34//62 33//62 37//62
f 34//62 37//62 41//62
f 34//62 42//62 39//62
f 41//62 42//62 34//62
f 39//62 42//62 46//62
f 48//62 42//62 41//62
f 39//62 46//62 47//62
f 48//62 52//62 42//62
f 47//62 46//62 54//62
f 54//62 46//62 51//62
f 56//62 52//62 48//62
f 54//62 51//62 60//62
f 61//62 52//62 56//62
f 60//62 51//62 59//62
f 65//62 52//62 61//62
f 65//62 66//62 52//62
f 65//62 68//62 66//62
f 70//62 68//62 65//62
f 70//62 72//62 68//62
f 74//62 72//62 70//62
f 74//62 76//62 72//62
f 74//62 79//62 76//62
f 74//62 82//62 79//62
f 82//62 74//62 80//62
f 80//62 87//62 82//62
f 85//62 89//62 80//62
f 80//62 89//62 87//62
f 85//62 93//62 89//62
f 87//62 89//62 94//62
f 92//62 93//62 85//62
f 94//62 89//62 99//62
f 92//62 98//62 93//62
f 99//62 89//62 102//62
f 98//62 92//62 101//62
f 99//62 102//62 104//62
