# SSTK version 0.8.0
# 31
mtllib original-31.mtl
o mesh23/mesh23-geometry#mesh23-geometry
v 0.070587 0.642494 0.355529
v 0.070588 0.639143 0.355709
v 0.070781 0.640819 0.355618
v 0.070036 0.644033 0.355449
v 0.070775 0.640819 0.354458
v 0.070581 0.642494 0.354369
v 0.070030 0.644033 0.354289
v 0.058894 0.646524 0.355375
v 0.070582 0.639143 0.354549
v 0.069166 0.645391 0.354220
v 0.069172 0.645391 0.355380
v 0.070038 0.637604 0.355794
v 0.068039 0.646524 0.355325
v 0.069174 0.636247 0.355871
v 0.070032 0.637604 0.354634
v 0.066681 0.647387 0.355285
v 0.068042 0.635114 0.355938
v 0.068033 0.646524 0.354165
v 0.065142 0.647938 0.355263
v 0.066684 0.634250 0.355992
v 0.069168 0.636247 0.354711
v 0.066675 0.647387 0.354125
v 0.063466 0.648131 0.355261
v 0.065146 0.633699 0.356031
v 0.068036 0.635114 0.354778
v 0.065136 0.647938 0.354103
v 0.061791 0.647938 0.355281
v 0.063470 0.633506 0.356052
v 0.066678 0.634250 0.354833
v 0.063460 0.648131 0.354101
v 0.060252 0.647387 0.355319
v 0.061795 0.633699 0.356053
v 0.065140 0.633699 0.354871
v 0.061785 0.647938 0.354121
v 0.060246 0.647387 0.354160
v 0.060256 0.634250 0.356033
v 0.063464 0.633506 0.354892
v 0.058889 0.646524 0.354215
v 0.058898 0.635114 0.355995
v 0.061789 0.633699 0.354893
v 0.057762 0.645391 0.355443
v 0.060250 0.634250 0.354873
v 0.057756 0.645391 0.354283
v 0.057764 0.636247 0.355941
v 0.058892 0.635114 0.354835
v 0.056893 0.644033 0.354363
v 0.056899 0.644033 0.355523
v 0.056900 0.637604 0.355873
v 0.057759 0.636247 0.354781
v 0.056343 0.642494 0.354450
v 0.056348 0.642494 0.355610
v 0.056349 0.639143 0.355793
v 0.056895 0.637604 0.354713
v 0.056150 0.640819 0.354543
v 0.056156 0.640819 0.355703
v 0.056344 0.639143 0.354633
vn 0.005362053190426706 0.054011032434202036 0.9985259419569301
vn 0.005394033740792813 0.0538640095832702 0.9985337114347299
vn 0.9738255217827614 -0.22724404595238662 -0.004898643049054785
vn 0.9999873104139513 0.0000030000003073279284 -0.005037757643227487
vn 0.9738263989523217 0.22724004350283808 -0.004909921830537499
vn 0.8982198074186006 0.43952301906892627 -0.004548985538352037
vn 0.005801342849881441 0.0540240249319584 0.9985227834913378
vn 0.7800866766832963 0.6256587976288177 -0.0039806796998042605
vn 0.005425369123104756 0.05371602949867621 0.9985415131804863
vn 0.89821116725769 -0.43954095440773777 -0.004521992029295701
vn 0.6256393253641357 0.780105956904998 -0.003182853946818701
vn 0.7800891993444855 -0.6256559807197856 -0.003928721884163442
vn 0.43955288630978545 0.898213965490171 -0.0022208861201511664
vn 0.6256491329776391 -0.7800982180608852 -0.0031516000000183187
vn 0.2272679803137982 0.9738315794153547 -0.0011489375452194835
vn 0.006021309461443687 0.054030995188378214 0.9985211041291631
vn 0.43953374270236917 -0.8982234063195337 -0.0021912019033898627
vn 0 1 0
vn 0.006616601994312763 0.0543449802118281 0.9985002972978149
vn 0.22725236074853303 -0.9738353260508339 -0.0010593723069206315
vn -0.22726775899314025 0.9738316310673649 0.0011489364263484944
vn 0.0000010870031700661156 -0.9999999926334999 0.00012137470167630627
vn -0.4395502163564191 0.8982152715116549 0.0022211087927082127
vn -0.6256395693414905 0.7801059680027841 0.003131766375940333
vn -0.2272485859161387 -0.9738359966178676 0.0012376956006463781
vn -0.439535476308407 -0.8982224145724056 0.00224922788071092
vn -0.7800876796229392 0.6256581228773903 0.0038891358987382715
vn -0.6256504062255536 -0.7800971657574037 0.0031592985084665636
vn -0.898218503412305 0.43952604847181426 0.0045136285304986255
vn -0.7800870436664561 -0.6256586364455133 0.0039338206453112
vn -0.9738249917263294 0.22724588876248292 0.00491848856496863
vn -0.898211919484243 -0.43953919796278523 0.004543253312696984
vn -0.9999871778147861 0.000007000000223318634 0.005064006024832505
vn -0.9738253061086428 -0.2272440024991159 0.004943329909066782
vn -0.005362053190426706 -0.054011032434202036 -0.9985259419569301
vn -0.005394033740792813 -0.0538640095832702 -0.9985337114347299
vn -0.9999873104139513 -0.0000030000003073279284 0.005037757643227487
vn -0.9738255217827614 0.22724404595238662 0.004898643049054785
vn -0.9738263989523217 -0.22724004350283808 0.004909921830537499
vn -0.8982198074186006 -0.43952301906892627 0.004548985538352037
vn -0.005801342849881441 -0.0540240249319584 -0.9985227834913378
vn -0.7800866766832963 -0.6256587976288177 0.0039806796998042605
vn -0.005425369123104756 -0.05371602949867621 -0.9985415131804863
vn -0.89821116725769 0.43954095440773777 0.004521992029295701
vn -0.6256393253641357 -0.780105956904998 0.003182853946818701
vn -0.7800891993444855 0.6256559807197856 0.003928721884163442
vn -0.43955288630978545 -0.898213965490171 0.0022208861201511664
vn -0.6256491329776391 0.7800982180608852 0.0031516000000183187
vn -0.2272679803137982 -0.9738315794153547 0.0011489375452194835
vn -0.006021309461443687 -0.054030995188378214 -0.9985211041291631
vn -0.43953374270236917 0.8982234063195337 0.0021912019033898627
vn 0 -1 0
vn -0.006616601994312763 -0.0543449802118281 -0.9985002972978149
vn -0.22725236074853303 0.9738353260508339 0.0010593723069206315
vn 0.22726775899314025 -0.9738316310673649 -0.0011489364263484944
vn -0.0000010870031700661156 0.9999999926334999 -0.00012137470167630627
vn 0.4395502163564191 -0.8982152715116549 -0.0022211087927082127
vn 0.6256395693414905 -0.7801059680027841 -0.003131766375940333
vn 0.2272485859161387 0.9738359966178676 -0.0012376956006463781
vn 0.439535476308407 0.8982224145724056 -0.00224922788071092
vn 0.7800876796229392 -0.6256581228773903 -0.0038891358987382715
vn 0.6256504062255536 0.7800971657574037 -0.0031592985084665636
vn 0.898218503412305 -0.43952604847181426 -0.0045136285304986255
vn 0.7800870436664561 0.6256586364455133 -0.0039338206453112
vn 0.9738249917263294 -0.22724588876248292 -0.00491848856496863
vn 0.898211919484243 0.43953919796278523 -0.004543253312696984
vn 0.9999871778147861 -0.000007000000223318634 -0.005064006024832505
vn 0.9738253061086428 0.2272440024991159 -0.004943329909066782
usemtl material_0_0
f 1//1 2//2 3//1
f 2//2 1//1 4//1
f 2//3 5//4 3//4
f 3//4 6//5 1//5
f 1//5 7//6 4//6
f 2//2 4//1 8//7
f 5//4 2//3 9//3
f 6//5 3//4 5//4
f 7//6 1//5 6//5
f 10//8 4//6 7//6
f 8//7 4//1 11//1
f 8//7 12//9 2//2
f 12//10 9//3 2//3
f 4//6 10//8 11//8
f 8//7 11//1 13//1
f 12//9 8//7 14//9
f 9//3 12//10 15//10
f 10//8 13//11 11//8
f 8//7 13//1 16//1
f 14//9 8//7 17//9
f 14//12 15//10 12//10
f 13//11 10//8 18//11
f 18//11 16//13 13//11
f 8//7 16//1 19//1
f 17//9 8//7 20//9
f 17//14 21//12 14//12
f 15//10 14//12 21//12
f 16//13 18//11 22//13
f 22//13 19//15 16//13
f 8//7 19//1 23//1
f 20//9 8//7 24//16
f 20//17 25//14 17//14
f 21//12 17//14 25//14
f 19//15 22//13 26//15
f 26//15 23//18 19//15
f 8//7 23//1 27//1
f 8//7 28//19 24//16
f 24//20 29//17 20//17
f 25//14 20//17 29//17
f 23//18 26//15 30//18
f 30//18 27//21 23//18
f 8//7 27//1 31//1
f 28//19 8//7 32//19
f 28//22 33//20 24//20
f 29//17 24//20 33//20
f 27//21 30//18 34//21
f 34//21 31//23 27//21
f 35//23 8//24 31//23
f 32//19 8//7 36//19
f 32//25 37//22 28//22
f 33//20 28//22 37//22
f 31//23 34//21 35//23
f 8//24 35//23 38//24
f 36//19 8//7 39//19
f 36//26 40//25 32//25
f 37//22 32//25 40//25
f 38//24 41//27 8//24
f 39//19 8//7 41//19
f 39//28 42//26 36//26
f 40//25 36//26 42//26
f 41//27 38//24 43//27
f 39//19 41//19 44//19
f 42//26 39//28 45//28
f 46//29 41//27 43//27
f 44//19 41//19 47//19
f 44//30 45//28 39//28
f 41//27 46//29 47//29
f 44//19 47//19 48//19
f 45//28 44//30 49//30
f 50//31 47//29 46//29
f 48//19 47//19 51//19
f 48//32 49//30 44//30
f 47//29 50//31 51//31
f 48//19 51//19 52//19
f 49//30 48//32 53//32
f 54//33 51//31 50//31
f 52//19 51//19 55//19
f 52//34 53//32 48//32
f 51//31 54//33 55//33
f 54//33 52//34 55//33
f 53//32 52//34 56//34
f 52//34 54//33 56//34
usemtl material_1_0
f 3//35 2//36 1//35
f 4//35 1//35 2//36
f 3//37 5//37 2//38
f 1//39 6//39 3//37
f 4//40 7//40 1//39
f 8//41 4//35 2//36
f 9//38 2//38 5//37
f 5//37 3//37 6//39
f 6//39 1//39 7//40
f 7//40 4//40 10//42
f 11//35 4//35 8//41
f 2//36 12//43 8//41
f 2//38 9//38 12//44
f 11//42 10//42 4//40
f 13//35 11//35 8//41
f 14//43 8//41 12//43
f 15//44 12//44 9//38
f 11//42 13//45 10//42
f 16//35 13//35 8//41
f 17//43 8//41 14//43
f 12//44 15//44 14//46
f 18//45 10//42 13//45
f 13//45 16//47 18//45
f 19//35 16//35 8//41
f 20//43 8//41 17//43
f 14//46 21//46 17//48
f 21//46 14//46 15//44
f 22//47 18//45 16//47
f 16//47 19//49 22//47
f 23//35 19//35 8//41
f 24//50 8//41 20//43
f 17//48 25//48 20//51
f 25//48 17//48 21//46
f 26//49 22//47 19//49
f 19//49 23//52 26//49
f 27//35 23//35 8//41
f 24//50 28//53 8//41
f 20//51 29//51 24//54
f 29//51 20//51 25//48
f 30//52 26//49 23//52
f 23//52 27//55 30//52
f 31//35 27//35 8//41
f 32//53 8//41 28//53
f 24//54 33//54 28//56
f 33//54 24//54 29//51
f 34//55 30//52 27//55
f 27//55 31//57 34//55
f 31//57 8//58 35//57
f 36//53 8//41 32//53
f 28//56 37//56 32//59
f 37//56 28//56 33//54
f 35//57 34//55 31//57
f 38//58 35//57 8//58
f 39//53 8//41 36//53
f 32//59 40//59 36//60
f 40//59 32//59 37//56
f 8//58 41//61 38//58
f 41//53 8//41 39//53
f 36//60 42//60 39//62
f 42//60 36//60 40//59
f 43//61 38//58 41//61
f 44//53 41//53 39//53
f 45//62 39//62 42//60
f 43//61 41//61 46//63
f 47//53 41//53 44//53
f 39//62 45//62 44//64
f 47//63 46//63 41//61
f 48//53 47//53 44//53
f 49//64 44//64 45//62
f 46//63 47//63 50//65
f 51//53 47//53 48//53
f 44//64 49//64 48//66
f 51//65 50//65 47//63
f 52//53 51//53 48//53
f 53//66 48//66 49//64
f 50//65 51//65 54//67
f 55//53 51//53 52//53
f 48//66 53//66 52//68
f 55//67 54//67 51//65
f 55//67 52//68 54//67
f 56//68 52//68 53//66
f 56//68 54//67 52//68
