# SSTK version 0.8.0
# 34
mtllib original-34.mtl
o mesh26/mesh26-geometry#mesh26-geometry
v 0.065185 0.382036 0.363795
v 0.061835 0.382036 0.364062
v 0.066723 0.381485 0.363667
v 0.063510 0.382229 0.363930
v 0.060297 0.381485 0.364180
v 0.066717 0.381485 0.362507
v 0.065179 0.382036 0.362635
v 0.063504 0.382229 0.362770
v 0.068080 0.380622 0.363550
v 0.061829 0.382036 0.362902
v 0.068074 0.380622 0.362390
v 0.058939 0.380622 0.364283
v 0.060291 0.381485 0.363021
v 0.057807 0.379489 0.364368
v 0.069207 0.379489 0.362289
v 0.069212 0.379489 0.363449
v 0.058933 0.380622 0.363123
v 0.070076 0.378131 0.363367
v 0.057801 0.379489 0.363208
v 0.070626 0.376592 0.363311
v 0.056938 0.378131 0.363272
v 0.070070 0.378131 0.362207
v 0.070819 0.374917 0.363284
v 0.056944 0.378131 0.364432
v 0.070626 0.373241 0.363291
v 0.070620 0.376592 0.362151
v 0.056387 0.376592 0.363312
v 0.068080 0.369212 0.363495
v 0.070076 0.371702 0.363332
v 0.070813 0.374917 0.362124
v 0.056393 0.376592 0.364472
v 0.069212 0.370345 0.363401
v 0.070620 0.373241 0.362132
v 0.056194 0.374917 0.363325
v 0.056200 0.374917 0.364485
v 0.069206 0.370345 0.362241
v 0.070070 0.371702 0.362172
v 0.056393 0.373241 0.364468
v 0.068074 0.369212 0.362335
v 0.056387 0.373241 0.363309
v 0.056943 0.371702 0.364424
v 0.066723 0.368348 0.363610
v 0.056938 0.371702 0.363264
v 0.061835 0.367797 0.364023
v 0.066717 0.368348 0.362450
v 0.065184 0.367797 0.363740
v 0.057801 0.370345 0.363195
v 0.060297 0.368348 0.364151
v 0.063510 0.367604 0.363882
v 0.057807 0.370345 0.364355
v 0.058939 0.369212 0.364263
v 0.061829 0.367797 0.362864
v 0.063504 0.367604 0.362723
v 0.065179 0.367797 0.362581
v 0.058933 0.369212 0.363103
v 0.060291 0.368348 0.362992
vn 0.0794749671502611 -0.009518000063551465 0.996791421146498
vn 0.07956152441276368 -0.008795000210996233 0.9967911575673241
vn 0.07959026814099521 -0.009088999288217547 0.9967862254812629
vn 0.07974385048029124 -0.008264997966277434 0.9967811234765608
vn 0.439510379550004 0.8982347607435263 -0.0022228044969101308
vn 0.22721108434823964 0.9738448555155188 -0.0011491454457747293
vn 0 1 0
vn -0.22722739846496376 0.9738410497423413 0.0011485745858937954
vn 0.07995690091657048 -0.007665998370266192 0.9967688430447678
vn -0.4395164628163352 0.8982317940965531 0.0022187806347051557
vn 0.6256582165566109 0.7800908898788673 -0.0031622117572670454
vn 0.07993897720434656 -0.0062579981336115635 0.996780114861288
vn 0.0814137826144843 -0.004503999981073971 0.9966702112457119
vn -0.6256481751522365 0.7800989515827699 0.0031601690049148545
vn 0.7800940973235259 0.6256498048805027 -0.003939666734938493
vn 0.08030362035542742 -0.008469998541584733 0.996734461971952
vn -0.7800868042447915 0.6256588632366182 0.003945211858796526
vn 0.8982110671277413 0.4395409980515147 -0.004537611830303343
vn 0.08050149330545625 -0.007519000292379869 0.9967261279861157
vn -0.8982066796050967 0.4395499750500451 0.004536534612651615
vn 0.08097733493685144 -0.0057739971774223645 0.9966992185123454
vn 0.9738260548454751 0.22724113303904195 -0.0049277133875774235
vn 0.08164354398659268 -0.004177000029971841 0.9966528404595347
vn 0.9999871707012211 -9.999999138306356e-7 -0.0050654152808025914
vn -0.9738280223492796 0.22723311922050038 0.004908402653901469
vn 0.08085813745402205 -0.0037159999987809297 0.9967186929878838
vn 0.08316496991890086 -0.0006599999378376874 0.9965355749688369
vn 0.08247839150419645 -0.0026679995579603115 0.9965892818574957
vn 0.9738258686849497 -0.2272418862666006 -0.004929767337371021
vn 0.08176592795604988 -0.002424000816170686 0.9966486127244292
vn 0.08334214119665861 -0.001436000196955835 0.9965199573536851
vn 0.8982076762610782 -0.4395478734678113 -0.004542822426523169
vn -0.999987278147896 -0.0000030000008273857225 0.005044158340322147
vn 0.08257887124308592 -0.0009450001975794955 0.9965840842592482
vn 0.6256668468762793 -0.7800839649859318 -0.0031629561682003215
vn 0.7800803167886315 -0.6256669709349543 -0.003942187213644864
vn 0.08318490331425803 0.0005249997834643677 0.9965339915104878
vn -0.973826356691077 -0.22724005572960784 0.004917731772668927
vn 0.08357930918480673 0.0019590008632762597 0.9964992029057564
vn 0.4395510054995112 -0.8982148767536996 -0.0022245769721499177
vn -0.898208660281012 -0.43954593657396535 0.004535662851782095
vn 0.08387491626284142 0.002055000773220095 0.9964741719651963
vn 0.08492011495075152 -0.0008510001314431413 0.9963873994965649
vn 0.0853101290854158 -0.001656000641380543 0.9963530697184133
vn -0.7800828464172003 -0.6256638272711339 0.003940554539047975
vn 0.08373288400892541 0.002689999988022996 0.9964846050168623
vn 0.08427309396969448 0.0006869998194123807 0.9964424587822535
vn 0.22722945652745857 -0.9738405688954831 -0.0011491125086626128
vn -0.4395527981655406 -0.8982140121092723 0.002219476381386662
vn -0.22724773533592152 -0.9738363086784044 0.0011448512192899966
vn 1.109579174385802e-7 -1 -0.0000014098540140730114
vn -0.6256514852357915 -0.7800962863133319 0.0031627681540542744
vn -0.07959026814099521 0.009088999288217547 -0.9967862254812629
vn -0.07956152441276368 0.008795000210996233 -0.9967911575673241
vn -0.0794749671502611 0.009518000063551465 -0.996791421146498
vn -0.07974385048029124 0.008264997966277434 -0.9967811234765608
vn -0.439510379550004 -0.8982347607435263 0.0022228044969101308
vn -0.22721108434823964 -0.9738448555155188 0.0011491454457747293
vn 0 -1 0
vn 0.22722739846496376 -0.9738410497423413 -0.0011485745858937954
vn -0.07995690091657048 0.007665998370266192 -0.9967688430447678
vn 0.4395164628163352 -0.8982317940965531 -0.0022187806347051557
vn -0.6256582165566109 -0.7800908898788673 0.0031622117572670454
vn -0.07993897720434656 0.0062579981336115635 -0.996780114861288
vn -0.0814137826144843 0.004503999981073971 -0.9966702112457119
vn 0.6256481751522365 -0.7800989515827699 -0.0031601690049148545
vn -0.7800940973235259 -0.6256498048805027 0.003939666734938493
vn -0.08030362035542742 0.008469998541584733 -0.996734461971952
vn 0.7800868042447915 -0.6256588632366182 -0.003945211858796526
vn -0.8982110671277413 -0.4395409980515147 0.004537611830303343
vn -0.08050149330545625 0.007519000292379869 -0.9967261279861157
vn 0.8982066796050967 -0.4395499750500451 -0.004536534612651615
vn -0.08097733493685144 0.0057739971774223645 -0.9966992185123454
vn -0.9738260548454751 -0.22724113303904195 0.0049277133875774235
vn -0.08164354398659268 0.004177000029971841 -0.9966528404595347
vn -0.9999871707012211 9.999999138306356e-7 0.0050654152808025914
vn 0.9738280223492796 -0.22723311922050038 -0.004908402653901469
vn -0.08316496991890086 0.0006599999378376874 -0.9965355749688369
vn -0.08085813745402205 0.0037159999987809297 -0.9967186929878838
vn -0.08247839150419645 0.0026679995579603115 -0.9965892818574957
vn -0.9738258686849497 0.2272418862666006 0.004929767337371021
vn -0.08176592795604988 0.002424000816170686 -0.9966486127244292
vn -0.08334214119665861 0.001436000196955835 -0.9965199573536851
vn -0.8982076762610782 0.4395478734678113 0.004542822426523169
vn 0.999987278147896 0.0000030000008273857225 -0.005044158340322147
vn -0.08257887124308592 0.0009450001975794955 -0.9965840842592482
vn -0.7800803167886315 0.6256669709349543 0.003942187213644864
vn -0.6256668468762793 0.7800839649859318 0.0031629561682003215
vn -0.08318490331425803 -0.0005249997834643677 -0.9965339915104878
vn 0.973826356691077 0.22724005572960784 -0.004917731772668927
vn -0.08357930918480673 -0.0019590008632762597 -0.9964992029057564
vn -0.4395510054995112 0.8982148767536996 0.0022245769721499177
vn 0.898208660281012 0.43954593657396535 -0.004535662851782095
vn -0.08387491626284142 -0.002055000773220095 -0.9964741719651963
vn -0.0853101290854158 0.001656000641380543 -0.9963530697184133
vn -0.08492011495075152 0.0008510001314431413 -0.9963873994965649
vn 0.7800828464172003 0.6256638272711339 -0.003940554539047975
vn -0.08373288400892541 -0.002689999988022996 -0.9964846050168623
vn -0.08427309396969448 -0.0006869998194123807 -0.9964424587822535
vn -0.22722945652745857 0.9738405688954831 0.0011491125086626128
vn 0.22724773533592152 0.9738363086784044 -0.0011448512192899966
vn 0.4395527981655406 0.8982140121092723 -0.002219476381386662
vn -1.109579174385802e-7 1 0.0000014098540140730114
vn 0.6256514852357915 0.7800962863133319 -0.0031627681540542744
usemtl material_0_0
f 1//1 2//2 3//3
f 2//2 1//1 4//1
f 5//4 3//3 2//2
f 6//5 1//6 3//5
f 7//6 4//7 1//6
f 8//7 2//8 4//7
f 5//4 9//9 3//3
f 10//8 5//10 2//8
f 1//6 6//5 7//6
f 3//5 11//11 6//5
f 4//7 7//6 8//7
f 2//8 8//7 10//8
f 12//12 9//9 5//4
f 11//11 3//5 9//11
f 5//10 10//8 13//10
f 14//13 9//9 12//12
f 13//10 12//14 5//10
f 9//11 15//15 11//11
f 14//13 16//16 9//9
f 17//14 14//17 12//14
f 12//14 13//10 17//14
f 15//15 9//11 16//15
f 14//13 18//16 16//16
f 14//17 17//14 19//17
f 18//18 15//15 16//15
f 18//16 14//13 20//19
f 21//20 14//17 19//17
f 15//15 18//18 22//18
f 14//13 23//21 20//19
f 20//22 22//18 18//18
f 14//17 21//20 24//20
f 14//13 25//23 23//21
f 23//24 26//22 20//22
f 22//18 20//22 26//22
f 27//25 24//20 21//20
f 24//26 28//27 14//13
f 14//13 29//28 25//23
f 25//29 30//24 23//24
f 26//22 23//24 30//24
f 24//20 27//25 31//25
f 31//30 28//27 24//26
f 14//13 28//27 32//31
f 14//13 32//31 29//28
f 29//32 33//29 25//29
f 30//24 25//29 33//29
f 34//33 31//25 27//25
f 35//34 28//27 31//30
f 28//35 36//36 32//36
f 32//36 37//32 29//32
f 33//29 29//32 37//32
f 31//25 34//33 35//33
f 35//34 38//37 28//27
f 36//36 28//35 39//35
f 37//32 32//36 36//36
f 40//38 35//33 34//33
f 35//33 40//38 38//38
f 38//37 41//39 28//27
f 42//40 39//35 28//35
f 43//41 38//38 40//38
f 38//38 43//41 41//41
f 41//39 44//42 28//27
f 39//35 42//40 45//40
f 46//43 42//44 28//27
f 47//45 41//41 43//41
f 44//42 41//39 48//46
f 44//42 49//47 28//27
f 46//48 45//40 42//40
f 49//47 46//43 28//27
f 41//41 47//45 50//45
f 48//46 41//39 51//46
f 48//49 52//50 44//50
f 44//50 53//51 49//51
f 45//40 46//48 54//48
f 49//51 54//48 46//48
f 55//52 50//45 47//45
f 51//46 41//39 50//46
f 51//52 56//49 48//49
f 52//50 48//49 56//49
f 53//51 44//50 52//50
f 54//48 49//51 53//51
f 50//45 55//52 51//52
f 56//49 51//52 55//52
usemtl material_1_0
f 3//53 2//54 1//55
f 4//55 1//55 2//54
f 2//54 3//53 5//56
f 3//57 1//58 6//57
f 1//58 4//59 7//58
f 4//59 2//60 8//59
f 3//53 9//61 5//56
f 2//60 5//62 10//60
f 7//58 6//57 1//58
f 6//57 11//63 3//57
f 8//59 7//58 4//59
f 10//60 8//59 2//60
f 5//56 9//61 12//64
f 9//63 3//57 11//63
f 13//62 10//60 5//62
f 12//64 9//61 14//65
f 5//62 12//66 13//62
f 11//63 15//67 9//63
f 9//61 16//68 14//65
f 12//66 14//69 17//66
f 17//66 13//62 12//66
f 16//67 9//63 15//67
f 16//68 18//68 14//65
f 19//69 17//66 14//69
f 16//67 15//67 18//70
f 20//71 14//65 18//68
f 19//69 14//69 21//72
f 22//70 18//70 15//67
f 20//71 23//73 14//65
f 18//70 22//70 20//74
f 24//72 21//72 14//69
f 23//73 25//75 14//65
f 20//74 26//74 23//76
f 26//74 20//74 22//70
f 21//72 24//72 27//77
f 14//65 28//78 24//79
f 25//75 29//80 14//65
f 23//76 30//76 25//81
f 30//76 23//76 26//74
f 31//77 27//77 24//72
f 24//79 28//78 31//82
f 32//83 28//78 14//65
f 29//80 32//83 14//65
f 25//81 33//81 29//84
f 33//81 25//81 30//76
f 27//77 31//77 34//85
f 31//82 28//78 35//86
f 32//87 36//87 28//88
f 29//84 37//84 32//87
f 37//84 29//84 33//81
f 35//85 34//85 31//77
f 28//78 38//89 35//86
f 39//88 28//88 36//87
f 36//87 32//87 37//84
f 34//85 35//85 40//90
f 38//90 40//90 35//85
f 28//78 41//91 38//89
f 28//88 39//88 42//92
f 40//90 38//90 43//93
f 41//93 43//93 38//90
f 28//78 44//94 41//91
f 45//92 42//92 39//88
f 28//78 42//95 46//96
f 43//93 41//93 47//97
f 48//98 41//91 44//94
f 28//78 49//99 44//94
f 42//92 45//92 46//100
f 28//78 46//96 49//99
f 50//97 47//97 41//93
f 51//98 41//91 48//98
f 44//101 52//101 48//102
f 49//103 53//103 44//101
f 54//100 46//100 45//92
f 46//100 54//100 49//103
f 47//97 50//97 55//104
f 50//98 41//91 51//98
f 48//102 56//102 51//104
f 56//102 48//102 52//101
f 52//101 44//101 53//103
f 53//103 49//103 54//100
f 51//104 55//104 50//97
f 55//104 51//104 56//102
