# SSTK version 0.8.0
# 5
mtllib original-5.mtl
o mesh3/mesh3-geometry#mesh3-geometry
v -0.011127 0.566794 0.362261
v -0.003282 0.566766 0.361417
v -0.003278 0.566794 0.362222
v -0.011131 0.566766 0.361457
v -0.002105 0.567935 0.361370
v -0.014014 0.571629 0.362107
v -0.012304 0.567963 0.362226
v -0.014018 0.571601 0.361303
v -0.002101 0.567963 0.362175
v -0.012309 0.567935 0.361422
v -0.001170 0.569104 0.361325
v -0.001166 0.569133 0.362130
v -0.013240 0.569133 0.362190
v -0.013244 0.569104 0.361386
v -0.000458 0.570273 0.361281
v -0.000454 0.570302 0.362085
v -0.013953 0.570302 0.362153
v -0.013957 0.570273 0.361349
v -0.000397 0.571601 0.361234
v -0.000393 0.571629 0.362039
v -0.014462 0.571471 0.362115
v -0.014466 0.571442 0.361311
v -0.000090 0.572707 0.361194
v -0.000086 0.572736 0.361999
v 0.000051 0.571442 0.361237
v -0.014322 0.572736 0.362070
v -0.014326 0.572707 0.361266
v 0.000055 0.571471 0.362042
v -0.014473 0.573844 0.362033
v -0.014791 0.572611 0.361271
v -0.014477 0.573815 0.361228
v 0.000062 0.573815 0.361155
v 0.000066 0.573844 0.361959
v 0.000376 0.572611 0.361195
v -0.014627 0.577316 0.361913
v -0.014787 0.572640 0.362076
v -0.014852 0.576118 0.361150
v -0.014631 0.577287 0.361108
v 0.000074 0.574929 0.361116
v 0.000079 0.574958 0.361921
v 0.000380 0.572640 0.362000
v 0.000214 0.577287 0.361033
v -0.014491 0.574929 0.361189
v -0.014487 0.574958 0.361994
v -0.014848 0.576147 0.361954
v -0.014951 0.573780 0.361232
v -0.014965 0.574949 0.361191
v 0.000219 0.577316 0.361838
v 0.000536 0.573780 0.361154
v 0.000436 0.576118 0.361073
v -0.014378 0.576080 0.361954
v -0.014961 0.574978 0.361996
v -0.014947 0.573809 0.362036
v -0.014382 0.576051 0.361150
v -0.000095 0.578456 0.360994
v -0.000091 0.578485 0.361799
v -0.000034 0.576051 0.361077
v 0.000540 0.573809 0.361958
v 0.000440 0.576147 0.361877
v -0.014318 0.578485 0.361870
v -0.014322 0.578456 0.361066
v -0.000030 0.576080 0.361882
v 0.000549 0.574949 0.361113
v 0.000553 0.574978 0.361917
v -0.014164 0.577211 0.361914
v -0.014168 0.577182 0.361109
v -0.000248 0.577182 0.361039
v -0.000244 0.577211 0.361844
v -0.013953 0.578011 0.361885
v -0.013957 0.577982 0.361080
v -0.000460 0.577982 0.361012
v -0.000456 0.578011 0.361817
vn -0.3811154304169958 -0.9238766996375712 0.034682453270453904
vn 0.3814413809818702 -0.9238782707106931 0.030844996081425578
vn 0.7443276929303329 -0.6675180820683493 0.019897126646850328
vn 0.005035031186366745 0.03478800224549626 0.999382030737355
vn -0.7440914299355519 -0.6675160829398797 0.027390197390036588
vn -0.005035031011205548 -0.0347890010353035 -0.9993819959703505
vn 0.819279128564034 -0.5731669288576653 0.016167286823365202
vn -0.8190753012233369 -0.5731661799957025 0.024416818691914092
vn 0.8875863534695215 -0.46048895397804546 0.011848561046943882
vn -0.8874219961470898 -0.4604891120319492 0.02078409137637324
vn -0.00017907939517916645 0.999371094195727 -0.0354596110611174
vn 0.9425513576350352 -0.33398585638010087 0.00709830672787783
vn -0.9424318298317914 -0.3339861551337661 0.016598020932183412
vn -0.96355753951 0.267460889755051 -0.004641174945088463
vn -0.9794235663333777 0.2018031199851077 -0.002231249668667778
vn 0.9793520795666024 0.20180010796177494 -0.012092174129882482
vn 0.9634623743598817 0.2674600215919146 -0.01433143547840629
vn -0.9793516842979607 -0.2018020265150727 0.01209216924945455
vn -0.9972846339009357 0.0736039546790781 0.0024118127366974367
vn 0.9794240223724943 -0.20180103105173236 0.0022199698515264353
vn 0.9972576995098892 0.0736110052828412 -0.007648573036419037
vn 0.9990971966812926 -0.0423350087814036 -0.003540990689207339
vn -0.9972578263114342 -0.07361201006180548 0.007622324793243136
vn -0.9990819597318582 -0.042339003249137565 0.006530432008605976
vn 0.9972841606109837 -0.07361001441063392 -0.002422555037991739
vn -0.9753281120504044 0.2207410313286731 -0.002910486582648122
vn -0.9900060439920808 0.14102493540001745 -0.000021320669323812286
vn -0.9990970963391582 0.04233897838964054 0.003521788691081697
vn -0.9899561409538595 -0.14102201073812143 0.009981556748290387
vn 0.9752481309213481 0.2207459952234982 -0.012739259287901972
vn 0.9899549849399317 0.1410289655433842 -0.009997933303555931
vn 0.9900054619532588 -0.14102902171015028 0.000018390015976061225
vn -0.966745788378403 0.255705086377832 -0.004182039350085033
vn 0.9666566323030417 0.2556970823045571 -0.013926856266879561
vn 0.9990821173024877 0.042332990428617774 -0.006545288973685676
vn 0.9753269953883124 -0.220746022348218 0.002906145943835058
vn -0.00017814912675101363 0.9993741885749317 -0.03537229810297559
vn -0.9752470083676064 -0.22075111048651028 0.012736557188123766
vn 0.9667464257822413 -0.2557028484058442 0.004171517038139966
vn -0.9666518249774255 -0.25571504256901456 0.013930767090867678
vn 0.00017814912675101363 -0.9993741885749317 0.03537229810297559
vn -0.3814413809818702 0.9238782707106931 -0.030844996081425578
vn 0.3811154304169958 0.9238766996375712 -0.034682453270453904
vn -0.7443276929303329 0.6675180820683493 -0.019897126646850328
vn -0.005035031186366745 -0.03478800224549626 -0.999382030737355
vn 0.7440914299355519 0.6675160829398797 -0.027390197390036588
vn 0.005035031011205548 0.0347890010353035 0.9993819959703505
vn -0.819279128564034 0.5731669288576653 -0.016167286823365202
vn 0.8190753012233369 0.5731661799957025 -0.024416818691914092
vn -0.8875863534695215 0.46048895397804546 -0.011848561046943882
vn 0.8874219961470898 0.4604891120319492 -0.02078409137637324
vn 0.00017907939517916645 -0.999371094195727 0.0354596110611174
vn -0.9425513576350352 0.33398585638010087 -0.00709830672787783
vn 0.9424318298317914 0.3339861551337661 -0.016598020932183412
vn 0.96355753951 -0.267460889755051 0.004641174945088463
vn 0.9794235663333777 -0.2018031199851077 0.002231249668667778
vn -0.9634623743598817 -0.2674600215919146 0.01433143547840629
vn -0.9793520795666024 -0.20180010796177494 0.012092174129882482
vn 0.9793516842979607 0.2018020265150727 -0.01209216924945455
vn 0.9972846339009357 -0.0736039546790781 -0.0024118127366974367
vn -0.9794240223724943 0.20180103105173236 -0.0022199698515264353
vn -0.9972576995098892 -0.0736110052828412 0.007648573036419037
vn -0.9990971966812926 0.0423350087814036 0.003540990689207339
vn 0.9972578263114342 0.07361201006180548 -0.007622324793243136
vn 0.9990819597318582 0.042339003249137565 -0.006530432008605976
vn -0.9972841606109837 0.07361001441063392 0.002422555037991739
vn 0.9753281120504044 -0.2207410313286731 0.002910486582648122
vn 0.9900060439920808 -0.14102493540001745 0.000021320669323812286
vn 0.9990970963391582 -0.04233897838964054 -0.003521788691081697
vn 0.9899561409538595 0.14102201073812143 -0.009981556748290387
vn -0.9899549849399317 -0.1410289655433842 0.009997933303555931
vn -0.9752481309213481 -0.2207459952234982 0.012739259287901972
vn -0.9900054619532588 0.14102902171015028 -0.000018390015976061225
vn 0.966745788378403 -0.255705086377832 0.004182039350085033
vn -0.9666566323030417 -0.2556970823045571 0.013926856266879561
vn -0.9990821173024877 -0.042332990428617774 0.006545288973685676
vn -0.9753269953883124 0.220746022348218 -0.002906145943835058
vn 0.9752470083676064 0.22075111048651028 -0.012736557188123766
vn -0.9667464257822413 0.2557028484058442 -0.004171517038139966
vn 0.9666518249774255 0.25571504256901456 -0.013930767090867678
usemtl material_0_0
f 1//1 2//2 3//2
f 2//2 1//1 4//1
f 5//3 3//2 2//2
f 3//4 6//4 1//4
f 7//5 4//1 1//1
f 8//6 2//6 4//6
f 3//2 5//3 9//3
f 8//6 5//6 2//6
f 9//4 6//4 3//4
f 1//4 6//4 7//4
f 4//1 7//5 10//5
f 8//6 4//6 10//6
f 11//7 9//3 5//3
f 8//6 11//6 5//6
f 12//4 6//4 9//4
f 7//4 6//4 13//4
f 13//8 10//5 7//5
f 8//6 10//6 14//6
f 9//3 11//7 12//7
f 8//6 15//6 11//6
f 16//4 6//4 12//4
f 13//4 6//4 17//4
f 10//5 13//8 14//8
f 8//6 14//6 18//6
f 15//9 12//7 11//7
f 19//6 15//6 8//6
f 16//4 20//4 6//4
f 12//7 15//9 16//9
f 17//4 6//4 21//4
f 18//10 13//8 17//10
f 13//8 18//10 14//8
f 8//6 18//6 22//6
f 23//6 15//6 19//6
f 6//11 19//11 8//11
f 16//4 24//4 20//4
f 19//11 6//11 20//11
f 25//12 16//9 15//9
f 21//4 6//4 26//4
f 22//13 17//10 21//13
f 17//10 22//13 18//10
f 8//6 22//6 27//6
f 23//6 25//6 15//6
f 20//14 23//15 19//14
f 27//16 6//17 8//17
f 28//4 24//4 16//4
f 23//15 20//14 24//15
f 16//9 25//12 28//12
f 6//17 27//16 26//16
f 21//4 26//4 29//4
f 21//13 30//18 22//13
f 27//6 22//6 31//6
f 32//6 25//6 23//6
f 28//4 33//4 24//4
f 24//15 32//19 23//15
f 34//20 28//12 25//12
f 31//21 26//16 27//16
f 26//16 31//21 29//21
f 21//4 29//4 35//4
f 30//18 21//13 36//18
f 37//6 22//6 30//6
f 31//6 22//6 38//6
f 39//6 25//6 32//6
f 28//4 40//4 33//4
f 32//19 24//15 33//19
f 28//12 34//20 41//20
f 42//6 34//6 25//6
f 43//22 29//21 31//21
f 44//4 35//4 29//4
f 21//4 35//4 45//4
f 21//4 45//4 36//4
f 36//18 46//23 30//18
f 38//6 22//6 37//6
f 37//6 30//6 47//6
f 38//6 43//6 31//6
f 42//6 25//6 39//6
f 33//19 39//24 32//19
f 28//4 48//4 40//4
f 39//24 33//19 40//24
f 49//25 41//20 34//20
f 41//4 48//4 28//4
f 50//6 34//6 42//6
f 29//21 43//22 44//22
f 51//4 35//4 44//4
f 38//26 45//27 35//26
f 36//4 45//4 52//4
f 46//23 36//18 53//23
f 47//6 30//6 46//6
f 45//27 38//26 37//27
f 52//28 37//27 47//28
f 38//6 54//6 43//6
f 39//6 55//6 42//6
f 56//4 40//4 48//4
f 40//24 57//29 39//24
f 41//20 49//25 58//25
f 50//6 49//6 34//6
f 41//4 59//4 48//4
f 42//30 59//31 50//31
f 54//32 44//22 43//22
f 51//4 60//4 35//4
f 44//22 54//32 51//32
f 35//26 61//33 38//26
f 37//27 52//28 45//27
f 36//4 52//4 53//4
f 53//23 47//28 46//23
f 47//28 53//23 52//28
f 61//6 54//6 38//6
f 55//6 39//6 57//6
f 55//34 48//30 42//30
f 40//4 56//4 62//4
f 48//30 55//34 56//34
f 57//29 40//24 62//29
f 63//35 58//25 49//25
f 58//4 59//4 41//4
f 49//6 50//6 63//6
f 59//31 42//30 48//30
f 64//35 50//31 59//31
f 65//4 60//4 51//4
f 61//33 35//26 60//33
f 66//36 51//32 54//32
f 61//6 66//6 54//6
f 55//6 57//6 67//6
f 62//4 56//4 68//4
f 55//37 60//37 56//37
f 62//29 67//38 57//29
f 58//25 63//35 64//35
f 59//4 58//4 64//4
f 50//31 64//35 63//35
f 69//4 60//4 65//4
f 51//32 66//36 65//36
f 60//37 55//37 61//37
f 61//6 70//6 66//6
f 55//6 67//6 71//6
f 68//4 56//4 72//4
f 67//38 62//29 68//38
f 72//4 56//4 60//4
f 72//4 60//4 69//4
f 65//36 70//39 69//39
f 70//39 65//36 66//36
f 55//6 71//6 61//6
f 61//6 71//6 70//6
f 68//38 71//40 67//38
f 71//40 68//38 72//40
f 69//41 71//41 72//41
f 71//41 69//41 70//41
usemtl material_1_0
f 3//42 2//42 1//43
f 4//43 1//43 2//42
f 2//42 3//42 5//44
f 1//45 6//45 3//45
f 1//43 4//43 7//46
f 4//47 2//47 8//47
f 9//44 5//44 3//42
f 2//47 5//47 8//47
f 3//45 6//45 9//45
f 7//45 6//45 1//45
f 10//46 7//46 4//43
f 10//47 4//47 8//47
f 5//44 9//44 11//48
f 5//47 11//47 8//47
f 9//45 6//45 12//45
f 13//45 6//45 7//45
f 7//46 10//46 13//49
f 14//47 10//47 8//47
f 12//48 11//48 9//44
f 11//47 15//47 8//47
f 12//45 6//45 16//45
f 17//45 6//45 13//45
f 14//49 13//49 10//46
f 18//47 14//47 8//47
f 11//48 12//48 15//50
f 8//47 15//47 19//47
f 6//45 20//45 16//45
f 16//50 15//50 12//48
f 21//45 6//45 17//45
f 17//51 13//49 18//51
f 14//49 18//51 13//49
f 22//47 18//47 8//47
f 19//47 15//47 23//47
f 8//52 19//52 6//52
f 20//45 24//45 16//45
f 20//52 6//52 19//52
f 15//50 16//50 25//53
f 26//45 6//45 21//45
f 21//54 17//51 22//54
f 18//51 22//54 17//51
f 27//47 22//47 8//47
f 15//47 25//47 23//47
f 19//55 23//56 20//55
f 8//57 6//57 27//58
f 16//45 24//45 28//45
f 24//56 20//55 23//56
f 28//53 25//53 16//50
f 26//58 27//58 6//57
f 29//45 26//45 21//45
f 22//54 30//59 21//54
f 31//47 22//47 27//47
f 23//47 25//47 32//47
f 24//45 33//45 28//45
f 23//56 32//60 24//56
f 25//53 28//53 34//61
f 27//58 26//58 31//62
f 29//62 31//62 26//58
f 35//45 29//45 21//45
f 36//59 21//54 30//59
f 30//47 22//47 37//47
f 38//47 22//47 31//47
f 32//47 25//47 39//47
f 33//45 40//45 28//45
f 33//60 24//56 32//60
f 41//61 34//61 28//53
f 25//47 34//47 42//47
f 31//62 29//62 43//63
f 29//45 35//45 44//45
f 45//45 35//45 21//45
f 36//45 45//45 21//45
f 30//59 46//64 36//59
f 37//47 22//47 38//47
f 47//47 30//47 37//47
f 31//47 43//47 38//47
f 39//47 25//47 42//47
f 32//60 39//65 33//60
f 40//45 48//45 28//45
f 40//65 33//60 39//65
f 34//61 41//61 49//66
f 28//45 48//45 41//45
f 42//47 34//47 50//47
f 44//63 43//63 29//62
f 44//45 35//45 51//45
f 35//67 45//68 38//67
f 52//45 45//45 36//45
f 53//64 36//59 46//64
f 46//47 30//47 47//47
f 37//68 38//67 45//68
f 47//69 37//68 52//69
f 43//47 54//47 38//47
f 42//47 55//47 39//47
f 48//45 40//45 56//45
f 39//65 57//70 40//65
f 58//66 49//66 41//61
f 34//47 49//47 50//47
f 48//45 59//45 41//45
f 50//71 59//71 42//72
f 43//63 44//63 54//73
f 35//45 60//45 51//45
f 51//73 54//73 44//63
f 38//67 61//74 35//67
f 45//68 52//69 37//68
f 53//45 52//45 36//45
f 46//64 47//69 53//64
f 52//69 53//64 47//69
f 38//47 54//47 61//47
f 57//47 39//47 55//47
f 42//72 48//72 55//75
f 62//45 56//45 40//45
f 56//75 55//75 48//72
f 62//70 40//65 57//70
f 49//66 58//66 63//76
f 41//45 59//45 58//45
f 63//47 50//47 49//47
f 48//72 42//72 59//71
f 59//71 50//71 64//76
f 51//45 60//45 65//45
f 60//74 35//67 61//74
f 54//73 51//73 66//77
f 54//47 66//47 61//47
f 67//47 57//47 55//47
f 68//45 56//45 62//45
f 56//41 60//41 55//41
f 57//70 67//78 62//70
f 64//76 63//76 58//66
f 64//45 58//45 59//45
f 63//76 64//76 50//71
f 65//45 60//45 69//45
f 65//77 66//77 51//73
f 61//41 55//41 60//41
f 66//47 70//47 61//47
f 71//47 67//47 55//47
f 72//45 56//45 68//45
f 68//78 62//70 67//78
f 60//45 56//45 72//45
f 69//45 60//45 72//45
f 69//79 70//79 65//77
f 66//77 65//77 70//79
f 61//47 71//47 55//47
f 70//47 71//47 61//47
f 67//78 71//80 68//78
f 72//80 68//78 71//80
f 72//37 71//37 69//37
f 70//37 69//37 71//37
