# SSTK version 0.8.0
# 40
mtllib original-40.mtl
o mesh32/mesh32-geometry#mesh32-geometry
v -0.043355 0.355812 0.366962
v -0.036491 0.394903 0.365907
v -0.043362 0.394897 0.365710
v -0.036484 0.355820 0.367204
v -0.036497 0.394872 0.364747
v -0.043367 0.394866 0.364550
v -0.036490 0.355789 0.366045
v -0.043361 0.355781 0.365803
vn -0.03192770439174306 0.032586993617675204 0.9989588127341563
vn -0.028678402852291007 0.03201900084097929 0.9990757392685438
vn -0.03517613215593409 0.03315400059231303 0.9988310427551165
vn -0.00013037687831059095 0.9996355899290726 -0.02699389466202717
vn -0.9999872891107292 0 0.005041985419924516
vn 0.00013232844470990562 -0.9996372304134094 0.026933066305032023
vn 0.9999872891102293 9.999997482599753e-7 -0.005041985419921995
vn 0.028678402852291007 -0.03201900084097929 -0.9990757392685438
vn 0.03192770439174306 -0.032586993617675204 -0.9989588127341563
vn 0.03517613215593409 -0.03315400059231303 -0.9988310427551165
vn 0.00013037687831059095 -0.9996355899290726 0.02699389466202717
vn 0.9999872891107292 0 -0.005041985419924516
vn -0.00013232844470990562 0.9996372304134094 -0.026933066305032023
vn -0.9999872891102293 -9.999997482599753e-7 0.005041985419921995
usemtl material_0_0
f 1//1 2//1 3//2
f 1//1 4//3 2//1
f 5//4 3//4 2//4
f 6//5 1//5 3//5
f 1//6 7//6 4//6
f 4//7 5//7 2//7
f 3//4 5//4 6//4
f 1//5 6//5 8//5
f 7//6 1//6 8//6
f 5//7 4//7 7//7
usemtl material_1_0
f 3//8 2//9 1//9
f 2//9 4//10 1//9
f 2//11 3//11 5//11
f 3//12 1//12 6//12
f 4//13 7//13 1//13
f 2//14 5//14 4//14
f 6//11 5//11 3//11
f 8//12 6//12 1//12
f 8//13 1//13 7//13
f 7//14 4//14 5//14
