# SSTK version 0.8.0
# 7
mtllib original-7.mtl
o mesh5/mesh5-geometry#mesh5-geometry
v -0.007556 0.580461 0.361116
v -0.007199 0.580012 0.361796
v -0.007203 0.580000 0.361128
v -0.007553 0.580473 0.361784
v -0.007327 0.579794 0.361803
v -0.007330 0.579783 0.361136
v -0.007901 0.580915 0.361104
v -0.007590 0.579626 0.361142
v -0.007897 0.580926 0.361771
v -0.007587 0.579638 0.361809
v -0.008230 0.581354 0.361092
v -0.007905 0.579594 0.361144
v -0.007902 0.579605 0.361812
v -0.008226 0.581365 0.361759
v -0.008535 0.581773 0.361081
v -0.008260 0.580056 0.361132
v -0.008532 0.581784 0.361748
v -0.008256 0.580068 0.361799
v -0.008810 0.582164 0.361070
v -0.008607 0.580513 0.361120
v -0.008807 0.582176 0.361738
v -0.008603 0.580524 0.361787
v -0.009046 0.582521 0.361060
v -0.008940 0.580958 0.361108
v -0.009043 0.582532 0.361728
v -0.008937 0.580969 0.361775
v -0.009227 0.582819 0.361052
v -0.009252 0.581386 0.361096
v -0.009224 0.582830 0.361720
v -0.009249 0.581397 0.361764
v -0.009385 0.583153 0.361043
v -0.009537 0.581791 0.361085
v -0.009382 0.583164 0.361710
v -0.009533 0.581802 0.361753
v -0.009465 0.583451 0.361034
v -0.009786 0.582168 0.361075
v -0.009462 0.583463 0.361701
v -0.009481 0.583717 0.361026
v -0.009782 0.582179 0.361742
v -0.009802 0.584811 0.360994
v -0.009477 0.583729 0.361693
v -0.009799 0.584823 0.361661
v -0.009993 0.582510 0.361065
v -0.010078 0.584500 0.361005
v -0.009440 0.583943 0.361019
v -0.010075 0.584511 0.361672
v -0.009990 0.582522 0.361733
v -0.009436 0.583954 0.361686
v -0.009417 0.585070 0.360984
v -0.010190 0.582932 0.361053
v -0.010247 0.584157 0.361684
v -0.009414 0.585081 0.361651
v -0.009349 0.584130 0.361012
v -0.010187 0.582943 0.361721
v -0.010251 0.584146 0.361017
v -0.009346 0.584142 0.361680
v -0.009205 0.584293 0.361007
v -0.010302 0.583352 0.361041
v -0.010320 0.583771 0.361696
v -0.010298 0.583363 0.361709
v -0.009201 0.584305 0.361674
v -0.007945 0.585833 0.360953
v -0.008941 0.584464 0.361000
v -0.010324 0.583760 0.361029
v -0.008938 0.584475 0.361668
v -0.007941 0.585844 0.361621
v -0.007538 0.586090 0.360943
v -0.007535 0.586101 0.361611
v -0.007480 0.585221 0.360970
v -0.007476 0.585233 0.361637
v -0.007217 0.586385 0.360932
v -0.007214 0.586397 0.361600
v -0.006981 0.585539 0.360957
v -0.006978 0.585550 0.361625
v -0.006983 0.586707 0.360921
v -0.006979 0.586718 0.361589
v -0.006550 0.585936 0.360943
v -0.006838 0.587041 0.360910
v -0.006835 0.587053 0.361578
v -0.006547 0.585947 0.361610
v -0.006786 0.587374 0.360900
v -0.006783 0.587386 0.361567
v -0.006227 0.586381 0.360928
v -0.006828 0.587693 0.360890
v -0.006223 0.586392 0.361595
v -0.007072 0.589469 0.360837
v -0.006825 0.587705 0.361558
v -0.006020 0.586862 0.360912
v -0.007069 0.589480 0.361504
v -0.006221 0.588326 0.360868
v -0.006968 0.587984 0.360882
v -0.006016 0.586873 0.361579
v -0.006218 0.588337 0.361535
v -0.006965 0.587995 0.361550
v -0.007780 0.589070 0.360853
v -0.005942 0.587367 0.360896
v -0.006011 0.587878 0.360881
v -0.006008 0.587889 0.361548
v -0.007777 0.589081 0.361520
v -0.007415 0.589446 0.360839
v -0.005938 0.587378 0.361563
v -0.007412 0.589457 0.361507
v -0.007669 0.589289 0.360846
v -0.007666 0.589300 0.361513
vn 0.7948804299861467 0.6065981075653222 -0.014277181907088888
vn 0.7937424540442577 0.6080860364629682 -0.014292967031279833
vn 0.7110490055362106 -0.7030931495570688 0.00832675037977607
vn 0.861950244797781 -0.5069750893944183 0.004246672411052077
vn -0.005035119983103253 -0.03069300450975439 -0.9995161764778596
vn 0.7983240320526213 0.6020602132100293 -0.014221094076740144
vn 0.005035119983103253 0.03069300450975439 0.9995161764778596
vn 0.31679990826643945 -0.9483820332251425 0.01446848914435402
vn 0.804290106616988 0.5940691369668137 -0.014116830435305774
vn 0.10166088698002451 -0.9946849200308171 0.016339336636529044
vn 0.8133649421496154 0.581586147488521 -0.013965096899529768
vn -0.7937383484595728 -0.6080912039626414 0.014301113520812262
vn -0.7948814324759572 -0.6065967966936584 0.014277063632377344
vn 0.8264218988738092 0.5628839826854076 -0.013728331946063571
vn -0.798337231601346 -0.6020428699548408 0.014214336974948977
vn 0.8443561384233802 0.5356161584411748 -0.013343250109166562
vn -0.8043138572916293 -0.5940370587520502 0.014113532437834565
vn 0.8804910037638877 0.4738990681244177 -0.01246055864198465
vn -0.813404723630839 -0.5815307546141361 0.013954820419900735
vn 0.9386927828992775 0.3445930890426933 -0.010557571540087417
vn -0.8264937747171092 -0.5627790622529351 0.013702826116226507
vn 0.9872094509176917 0.15924400281511547 -0.007671218039470613
vn -0.8450283219187431 -0.5345558667411192 0.01331016483158305
vn 0.9980961464376997 -0.06154800245782719 -0.003990721697283855
vn -0.8820827966399647 -0.47093079714519004 0.012414675670935661
vn -0.8313421944580482 0.5557362614247897 -0.005231008628807195
vn -0.6580580877794451 0.7529080178028866 -0.009437681716844346
vn 0.9509994972094951 -0.3091920980816237 0.0004503234071871425
vn -0.9398709893235575 -0.34136790176303683 0.010510902618654904
vn -0.9493549836596621 0.31420505959072326 -0.00054362501109508
vn -0.5098018000219912 0.8602081245633066 -0.012004462904125985
vn 0.8326588827778278 -0.5537618731985131 0.0051935270148203904
vn -0.987745716769874 -0.15588593514483925 0.007614080823493551
vn -0.9977755985356443 0.0665480038206208 0.003901045286473529
vn -0.49760701855404965 0.8673169179323088 -0.01219093737784737
vn 0.6521139619206585 -0.7580606389972064 0.009562858949554639
vn 0.5029043737258678 -0.8642572489743998 0.012107786031931142
vn -0.6080097274759195 0.7938616135133306 -0.010387968264753782
vn 0.4992928842256581 -0.8663479813366987 0.012156931991697468
vn -0.7465140120037115 0.6653272733730529 -0.007513267471729757
vn 0.6098749801340326 -0.7924300561971604 0.01034962037364055
vn -0.868503399687142 0.4956668640953516 -0.0040254900020937545
vn 0.7469293864715856 -0.6648610228243468 0.007504129139643716
vn -0.9605332936183596 0.2781650129010153 0.00013209255821848708
vn 0.8691279380587607 -0.4945710906521689 0.004007939227484712
vn -0.9999188903632564 0.011776002781274325 0.004851644381988923
vn -0.9583101056212967 -0.2855658014785789 0.009690948869740758
vn 0.961119696087198 -0.27613203847734535 -0.0001646802898560017
vn 0.8023344973714255 0.5967070371730594 -0.014144472980322223
vn 0.8583402097538864 0.5129160878981812 -0.013006578907602743
vn -0.855340665523836 -0.5179002223654283 0.013103647396095099
vn 0.9999479476957409 -0.008955000437877142 -0.004889771593145246
vn 0.9591928867660049 0.28258899710091945 -0.009615856435839619
vn -0.8009602061348424 -0.5985495542609115 0.014183768275564633
vn -0.06690686014320732 0.9976217011080938 -0.01656543219992839
vn -0.30595082272573015 0.9519355275883085 -0.014589221659072369
vn -0.8918070368689379 0.45240490853957077 -0.0031634981187231687
vn -0.7366627069230701 0.6762160169202772 -0.007743041343700227
vn -0.7937424540442577 -0.6080860364629682 0.014292967031279833
vn -0.7948804299861467 -0.6065981075653222 0.014277181907088888
vn -0.861950244797781 0.5069750893944183 -0.004246672411052077
vn -0.7110490055362106 0.7030931495570688 -0.00832675037977607
vn -0.7983240320526213 -0.6020602132100293 0.014221094076740144
vn -0.31679990826643945 0.9483820332251425 -0.01446848914435402
vn -0.804290106616988 -0.5940691369668137 0.014116830435305774
vn -0.10166088698002451 0.9946849200308171 -0.016339336636529044
vn -0.8133649421496154 -0.581586147488521 0.013965096899529768
vn 0.7937383484595728 0.6080912039626414 -0.014301113520812262
vn 0.7948814324759572 0.6065967966936584 -0.014277063632377344
vn -0.8264218988738092 -0.5628839826854076 0.013728331946063571
vn 0.798337231601346 0.6020428699548408 -0.014214336974948977
vn -0.8443561384233802 -0.5356161584411748 0.013343250109166562
vn 0.8043138572916293 0.5940370587520502 -0.014113532437834565
vn -0.8804910037638877 -0.4738990681244177 0.01246055864198465
vn 0.813404723630839 0.5815307546141361 -0.013954820419900735
vn -0.9386927828992775 -0.3445930890426933 0.010557571540087417
vn 0.8264937747171092 0.5627790622529351 -0.013702826116226507
vn -0.9872094509176917 -0.15924400281511547 0.007671218039470613
vn 0.8450283219187431 0.5345558667411192 -0.01331016483158305
vn -0.9980961464376997 0.06154800245782719 0.003990721697283855
vn 0.8820827966399647 0.47093079714519004 -0.012414675670935661
vn 0.8313421944580482 -0.5557362614247897 0.005231008628807195
vn 0.6580580877794451 -0.7529080178028866 0.009437681716844346
vn -0.9509994972094951 0.3091920980816237 -0.0004503234071871425
vn 0.9398709893235575 0.34136790176303683 -0.010510902618654904
vn 0.9493549836596621 -0.31420505959072326 0.00054362501109508
vn 0.5098018000219912 -0.8602081245633066 0.012004462904125985
vn -0.8326588827778278 0.5537618731985131 -0.0051935270148203904
vn 0.987745716769874 0.15588593514483925 -0.007614080823493551
vn 0.9977755985356443 -0.0665480038206208 -0.003901045286473529
vn 0.49760701855404965 -0.8673169179323088 0.01219093737784737
vn -0.6521139619206585 0.7580606389972064 -0.009562858949554639
vn -0.5029043737258678 0.8642572489743998 -0.012107786031931142
vn 0.6080097274759195 -0.7938616135133306 0.010387968264753782
vn -0.4992928842256581 0.8663479813366987 -0.012156931991697468
vn 0.7465140120037115 -0.6653272733730529 0.007513267471729757
vn -0.6098749801340326 0.7924300561971604 -0.01034962037364055
vn 0.868503399687142 -0.4956668640953516 0.0040254900020937545
vn -0.7469293864715856 0.6648610228243468 -0.007504129139643716
vn 0.9605332936183596 -0.2781650129010153 -0.00013209255821848708
vn -0.8691279380587607 0.4945710906521689 -0.004007939227484712
vn 0.9999188903632564 -0.011776002781274325 -0.004851644381988923
vn 0.9583101056212967 0.2855658014785789 -0.009690948869740758
vn -0.961119696087198 0.27613203847734535 0.0001646802898560017
vn -0.8583402097538864 -0.5129160878981812 0.013006578907602743
vn -0.8023344973714255 -0.5967070371730594 0.014144472980322223
vn 0.855340665523836 0.5179002223654283 -0.013103647396095099
vn -0.9999479476957409 0.008955000437877142 0.004889771593145246
vn -0.9591928867660049 -0.28258899710091945 0.009615856435839619
vn 0.8009602061348424 0.5985495542609115 -0.014183768275564633
vn 0.06690686014320732 -0.9976217011080938 0.01656543219992839
vn 0.30595082272573015 -0.9519355275883085 0.014589221659072369
vn 0.8918070368689379 -0.45240490853957077 0.0031634981187231687
vn 0.7366627069230701 -0.6762160169202772 0.007743041343700227
usemtl material_0_0
f 1//1 2//2 3//2
f 2//2 1//1 4//1
f 5//3 3//4 2//4
f 6//5 1//5 3//5
f 7//6 4//1 1//1
f 4//7 5//7 2//7
f 3//4 5//3 6//3
f 1//5 6//5 8//5
f 4//1 7//6 9//6
f 1//5 8//5 7//5
f 5//7 4//7 10//7
f 10//8 6//3 5//3
f 6//3 10//8 8//8
f 11//9 9//6 7//6
f 10//7 4//7 9//7
f 7//5 8//5 12//5
f 13//10 8//8 10//8
f 9//6 11//9 14//9
f 7//5 12//5 11//5
f 10//7 9//7 13//7
f 8//8 13//10 12//10
f 15//11 14//9 11//9
f 13//7 9//7 14//7
f 11//5 12//5 16//5
f 13//12 16//13 12//12
f 14//9 15//11 17//11
f 11//5 16//5 15//5
f 13//7 14//7 18//7
f 16//13 13//12 18//13
f 19//14 17//11 15//11
f 18//7 14//7 17//7
f 15//5 16//5 20//5
f 18//13 20//15 16//13
f 17//11 19//14 21//14
f 15//5 20//5 19//5
f 18//7 17//7 22//7
f 20//15 18//13 22//15
f 23//16 21//14 19//14
f 22//7 17//7 21//7
f 19//5 20//5 24//5
f 22//15 24//17 20//15
f 21//14 23//16 25//16
f 19//5 24//5 23//5
f 22//7 21//7 26//7
f 24//17 22//15 26//17
f 27//18 25//16 23//16
f 26//7 21//7 25//7
f 23//5 24//5 28//5
f 26//17 28//19 24//17
f 25//16 27//18 29//18
f 23//5 28//5 27//5
f 26//7 25//7 30//7
f 28//19 26//17 30//19
f 31//20 29//18 27//18
f 30//7 25//7 29//7
f 27//5 28//5 31//5
f 30//19 32//21 28//19
f 29//18 31//20 33//20
f 30//7 29//7 33//7
f 31//5 28//5 32//5
f 32//21 30//19 34//21
f 35//22 33//20 31//20
f 30//7 33//7 34//7
f 31//5 32//5 35//5
f 34//21 36//23 32//21
f 33//20 35//22 37//22
f 34//7 33//7 37//7
f 35//5 32//5 38//5
f 36//23 34//21 39//23
f 40//5 32//5 36//5
f 38//24 37//22 35//22
f 34//7 37//7 41//7
f 40//5 38//5 32//5
f 34//7 42//7 39//7
f 39//23 43//25 36//23
f 40//5 36//5 44//5
f 37//22 38//24 41//24
f 41//7 42//7 34//7
f 40//5 45//5 38//5
f 39//7 42//7 46//7
f 43//25 39//23 47//25
f 44//5 36//5 43//5
f 46//26 40//27 44//26
f 45//28 41//24 38//24
f 48//7 42//7 41//7
f 49//5 45//5 40//5
f 40//27 46//26 42//27
f 39//7 46//7 47//7
f 47//25 50//29 43//25
f 44//5 43//5 50//5
f 44//26 51//30 46//26
f 41//24 45//28 48//28
f 48//7 52//7 42//7
f 49//5 53//5 45//5
f 42//27 49//31 40//27
f 47//7 46//7 54//7
f 50//29 47//25 54//29
f 44//5 50//5 55//5
f 51//30 44//26 55//30
f 54//7 46//7 51//7
f 53//32 48//28 45//28
f 56//7 52//7 48//7
f 49//31 42//27 52//31
f 49//5 57//5 53//5
f 54//29 58//33 50//29
f 55//5 50//5 58//5
f 55//30 59//34 51//30
f 54//7 51//7 60//7
f 48//28 53//32 56//32
f 61//7 52//7 56//7
f 52//31 62//35 49//31
f 49//5 63//5 57//5
f 57//36 56//32 53//32
f 58//33 54//29 60//33
f 55//5 58//5 64//5
f 59//34 55//30 64//34
f 60//7 51//7 59//7
f 65//7 52//7 61//7
f 56//32 57//36 61//36
f 62//35 52//31 66//35
f 62//5 63//5 49//5
f 63//37 61//36 57//36
f 60//33 64//34 58//33
f 64//34 60//33 59//34
f 65//7 66//7 52//7
f 61//36 63//37 65//37
f 66//35 67//38 62//35
f 67//5 63//5 62//5
f 65//7 68//7 66//7
f 69//39 65//37 63//37
f 67//38 66//35 68//38
f 67//5 69//5 63//5
f 70//7 68//7 65//7
f 65//37 69//39 70//39
f 68//38 71//40 67//38
f 71//5 69//5 67//5
f 70//7 72//7 68//7
f 73//41 70//39 69//39
f 71//40 68//38 72//40
f 71//5 73//5 69//5
f 74//7 72//7 70//7
f 70//39 73//41 74//41
f 72//40 75//42 71//40
f 75//5 73//5 71//5
f 74//7 76//7 72//7
f 77//43 74//41 73//41
f 75//42 72//40 76//42
f 78//5 73//5 75//5
f 74//7 79//7 76//7
f 74//41 77//43 80//43
f 73//5 81//5 77//5
f 76//42 78//44 75//42
f 81//5 73//5 78//5
f 74//7 82//7 79//7
f 78//44 76//42 79//44
f 83//45 80//43 77//43
f 82//7 74//7 80//7
f 84//5 77//5 81//5
f 79//44 81//46 78//44
f 81//46 79//44 82//46
f 80//43 83//45 85//45
f 86//5 83//5 77//5
f 80//7 87//7 82//7
f 86//5 77//5 84//5
f 82//46 84//47 81//46
f 88//48 85//45 83//45
f 85//7 89//7 80//7
f 90//5 83//5 86//5
f 80//7 89//7 87//7
f 84//47 82//46 87//47
f 86//5 84//5 91//5
f 85//45 88//48 92//48
f 90//5 88//5 83//5
f 85//7 93//7 89//7
f 86//49 93//50 90//50
f 87//7 89//7 94//7
f 87//47 91//51 84//47
f 86//5 91//5 95//5
f 96//52 92//48 88//48
f 92//7 93//7 85//7
f 97//5 88//5 90//5
f 93//50 86//49 89//49
f 98//53 90//50 93//50
f 94//7 89//7 99//7
f 91//51 87//47 94//51
f 94//51 95//54 91//51
f 86//5 95//5 100//5
f 92//48 96//52 101//52
f 88//5 97//5 96//5
f 92//7 98//7 93//7
f 90//50 98//53 97//53
f 86//55 102//56 89//55
f 99//7 89//7 102//7
f 95//54 94//51 99//54
f 100//5 95//5 103//5
f 102//56 86//55 100//56
f 97//53 101//52 96//52
f 98//7 92//7 101//7
f 101//52 97//53 98//53
f 99//7 102//7 104//7
f 99//57 103//58 95//57
f 104//58 100//56 103//58
f 100//56 104//58 102//56
f 103//58 99//57 104//58
usemtl material_1_0
f 3//59 2//59 1//60
f 4//60 1//60 2//59
f 2//61 3//61 5//62
f 3//7 1//7 6//7
f 1//60 4//60 7//63
f 2//5 5//5 4//5
f 6//62 5//62 3//61
f 8//7 6//7 1//7
f 9//63 7//63 4//60
f 7//7 8//7 1//7
f 10//5 4//5 5//5
f 5//62 6//62 10//64
f 8//64 10//64 6//62
f 7//63 9//63 11//65
f 9//5 4//5 10//5
f 12//7 8//7 7//7
f 10//64 8//64 13//66
f 14//65 11//65 9//63
f 11//7 12//7 7//7
f 13//5 9//5 10//5
f 12//66 13//66 8//64
f 11//65 14//65 15//67
f 14//5 9//5 13//5
f 16//7 12//7 11//7
f 12//68 16//69 13//68
f 17//67 15//67 14//65
f 15//7 16//7 11//7
f 18//5 14//5 13//5
f 18//69 13//68 16//69
f 15//67 17//67 19//70
f 17//5 14//5 18//5
f 20//7 16//7 15//7
f 16//69 20//71 18//69
f 21//70 19//70 17//67
f 19//7 20//7 15//7
f 22//5 17//5 18//5
f 22//71 18//69 20//71
f 19//70 21//70 23//72
f 21//5 17//5 22//5
f 24//7 20//7 19//7
f 20//71 24//73 22//71
f 25//72 23//72 21//70
f 23//7 24//7 19//7
f 26//5 21//5 22//5
f 26//73 22//71 24//73
f 23//72 25//72 27//74
f 25//5 21//5 26//5
f 28//7 24//7 23//7
f 24//73 28//75 26//73
f 29//74 27//74 25//72
f 27//7 28//7 23//7
f 30//5 25//5 26//5
f 30//75 26//73 28//75
f 27//74 29//74 31//76
f 29//5 25//5 30//5
f 31//7 28//7 27//7
f 28//75 32//77 30//75
f 33//76 31//76 29//74
f 33//5 29//5 30//5
f 32//7 28//7 31//7
f 34//77 30//75 32//77
f 31//76 33//76 35//78
f 34//5 33//5 30//5
f 35//7 32//7 31//7
f 32//77 36//79 34//77
f 37//78 35//78 33//76
f 37//5 33//5 34//5
f 38//7 32//7 35//7
f 39//79 34//77 36//79
f 36//7 32//7 40//7
f 35//78 37//78 38//80
f 41//5 37//5 34//5
f 32//7 38//7 40//7
f 39//5 42//5 34//5
f 36//79 43//81 39//79
f 44//7 36//7 40//7
f 41//80 38//80 37//78
f 34//5 42//5 41//5
f 38//7 45//7 40//7
f 46//5 42//5 39//5
f 47//81 39//79 43//81
f 43//7 36//7 44//7
f 44//82 40//83 46//82
f 38//80 41//80 45//84
f 41//5 42//5 48//5
f 40//7 45//7 49//7
f 42//83 46//82 40//83
f 47//5 46//5 39//5
f 43//81 50//85 47//81
f 50//7 43//7 44//7
f 46//82 51//86 44//82
f 48//84 45//84 41//80
f 42//5 52//5 48//5
f 45//7 53//7 49//7
f 40//83 49//87 42//83
f 54//5 46//5 47//5
f 54//85 47//81 50//85
f 55//7 50//7 44//7
f 55//86 44//82 51//86
f 51//5 46//5 54//5
f 45//84 48//84 53//88
f 48//5 52//5 56//5
f 52//87 42//83 49//87
f 53//7 57//7 49//7
f 50//85 58//89 54//85
f 58//7 50//7 55//7
f 51//86 59//90 55//86
f 60//5 51//5 54//5
f 56//88 53//88 48//84
f 56//5 52//5 61//5
f 49//87 62//91 52//87
f 57//7 63//7 49//7
f 53//88 56//88 57//92
f 60//89 54//85 58//89
f 64//7 58//7 55//7
f 64//90 55//86 59//90
f 59//5 51//5 60//5
f 61//5 52//5 65//5
f 61//92 57//92 56//88
f 66//91 52//87 62//91
f 49//7 63//7 62//7
f 57//92 61//92 63//93
f 58//89 64//90 60//89
f 59//90 60//89 64//90
f 52//5 66//5 65//5
f 65//93 63//93 61//92
f 62//91 67//94 66//91
f 62//7 63//7 67//7
f 66//5 68//5 65//5
f 63//93 65//93 69//95
f 68//94 66//91 67//94
f 63//7 69//7 67//7
f 65//5 68//5 70//5
f 70//95 69//95 65//93
f 67//94 71//96 68//94
f 67//7 69//7 71//7
f 68//5 72//5 70//5
f 69//95 70//95 73//97
f 72//96 68//94 71//96
f 69//7 73//7 71//7
f 70//5 72//5 74//5
f 74//97 73//97 70//95
f 71//96 75//98 72//96
f 71//7 73//7 75//7
f 72//5 76//5 74//5
f 73//97 74//97 77//99
f 76//98 72//96 75//98
f 75//7 73//7 78//7
f 76//5 79//5 74//5
f 80//99 77//99 74//97
f 77//7 81//7 73//7
f 75//98 78//100 76//98
f 78//7 73//7 81//7
f 79//5 82//5 74//5
f 79//100 76//98 78//100
f 77//99 80//99 83//101
f 80//5 74//5 82//5
f 81//7 77//7 84//7
f 78//100 81//102 79//100
f 82//102 79//100 81//102
f 85//101 83//101 80//99
f 77//7 83//7 86//7
f 82//5 87//5 80//5
f 84//7 77//7 86//7
f 81//102 84//103 82//102
f 83//101 85//101 88//104
f 80//5 89//5 85//5
f 86//7 83//7 90//7
f 87//5 89//5 80//5
f 87//103 82//102 84//103
f 91//7 84//7 86//7
f 92//104 88//104 85//101
f 83//7 88//7 90//7
f 89//5 93//5 85//5
f 90//105 93//105 86//106
f 94//5 89//5 87//5
f 84//103 91//107 87//103
f 95//7 91//7 86//7
f 88//104 92//104 96//108
f 85//5 93//5 92//5
f 90//7 88//7 97//7
f 89//106 86//106 93//105
f 93//105 90//105 98//109
f 99//5 89//5 94//5
f 94//107 87//103 91//107
f 91//107 95//110 94//107
f 100//7 95//7 86//7
f 101//108 96//108 92//104
f 96//7 97//7 88//7
f 93//5 98//5 92//5
f 97//109 98//109 90//105
f 89//111 102//112 86//111
f 102//5 89//5 99//5
f 99//110 94//107 95//110
f 103//7 95//7 100//7
f 100//112 86//111 102//112
f 96//108 101//108 97//109
f 101//5 92//5 98//5
f 98//109 97//109 101//108
f 104//5 102//5 99//5
f 95//113 103//114 99//113
f 103//114 100//112 104//114
f 102//112 104//114 100//112
f 104//114 99//113 103//114
