# SSTK version 0.8.0
# 47
mtllib original-47.mtl
o mesh37/mesh37-geometry#mesh37-geometry
v -0.582615 -0.426937 0.575816
v -0.583807 -0.461058 0.555394
v -0.582615 -0.461058 0.575816
v -0.583806 -0.426937 0.555394
v -0.582440 -0.464984 0.555357
v -0.566846 -0.426937 0.715818
v -0.581250 -0.423010 0.575741
v -0.584347 -0.426937 0.533695
v -0.581250 -0.464984 0.575741
v -0.584346 -0.461058 0.533695
v -0.566846 -0.461058 0.715818
v -0.565488 -0.423010 0.715677
v -0.582440 -0.423010 0.555357
v -0.582979 -0.423010 0.533684
v -0.580628 -0.467348 0.555307
v -0.582979 -0.464984 0.533684
v -0.564284 -0.461058 0.725566
v -0.564284 -0.426937 0.725566
v -0.580628 -0.420647 0.555307
v -0.579442 -0.420647 0.575643
v -0.579095 -0.461058 0.224200
v -0.577880 -0.422936 0.225153
v -0.579442 -0.467348 0.575643
v -0.565488 -0.464985 0.715677
v -0.563019 -0.464990 0.725101
v -0.563019 -0.423005 0.725101
v -0.581167 -0.420647 0.533669
v -0.563688 -0.420645 0.715489
v -0.579095 -0.426937 0.224200
v -0.576100 -0.420214 0.226548
v -0.576990 -0.469950 0.555206
v -0.581167 -0.467348 0.533670
v -0.577880 -0.465059 0.225153
v -0.557243 -0.426937 0.732532
v -0.556299 -0.464986 0.731744
v -0.576989 -0.418044 0.555206
v -0.577526 -0.418044 0.533641
v -0.575808 -0.418044 0.575444
v -0.006902 -0.426937 0.218515
v -0.006896 -0.423010 0.219589
v -0.006889 -0.420647 0.221013
v -0.575808 -0.469951 0.575444
v -0.577526 -0.469951 0.533641
v -0.563688 -0.467350 0.715489
v -0.561329 -0.467381 0.724479
v -0.006902 -0.461058 0.218515
v -0.557244 -0.461058 0.732532
v -0.555043 -0.467358 0.730698
v -0.561329 -0.420614 0.724479
v -0.556298 -0.423009 0.731744
v -0.572781 -0.417283 0.229150
v -0.560072 -0.418041 0.715113
v -0.006875 -0.418045 0.223873
v -0.571511 -0.471928 0.555055
v -0.572044 -0.471928 0.533597
v -0.576100 -0.467781 0.226548
v -0.006896 -0.464984 0.219589
v -0.549570 -0.461058 0.737036
v -0.547974 -0.467357 0.734853
v -0.548885 -0.464986 0.736099
v -0.549570 -0.426937 0.737036
v -0.573783 -0.416887 0.555118
v -0.574318 -0.416887 0.533615
v -0.572608 -0.416887 0.575269
v 0.565320 -0.426937 0.218435
v 0.564115 -0.422936 0.219399
v 0.562348 -0.420214 0.220813
v 0.559056 -0.417283 0.223448
v -0.570340 -0.471928 0.575145
v -0.560072 -0.469954 0.715113
v -0.570397 -0.471928 0.231018
v -0.557955 -0.470008 0.723239
v -0.572781 -0.470712 0.229150
v -0.552525 -0.469968 0.728601
v 0.565320 -0.461058 0.218435
v -0.546148 -0.469966 0.732355
v -0.557955 -0.417987 0.723239
v -0.555043 -0.420637 0.730698
v -0.548885 -0.423009 0.736099
v -0.572514 -0.417147 0.229359
v -0.556902 -0.416888 0.714783
v -0.006862 -0.416887 0.226393
v -0.548099 -0.471928 0.226235
v -0.006889 -0.467348 0.221013
v 0.564115 -0.465059 0.219399
v -0.540473 -0.461058 0.740023
v -0.540107 -0.464986 0.738981
v -0.538643 -0.469966 0.734824
v -0.555255 -0.416912 0.722246
v -0.547974 -0.420638 0.734853
v -0.540107 -0.423009 0.738981
v -0.570353 -0.416279 0.554633
v -0.570791 -0.416276 0.533501
v -0.569122 -0.416347 0.232006
v -0.569078 -0.416275 0.575028
v 0.573689 -0.426937 0.527861
v 0.572322 -0.423010 0.527864
v 0.570509 -0.420647 0.527868
v 0.566868 -0.418044 0.527875
v 0.558791 -0.417147 0.223660
v -0.554646 -0.471928 0.714549
v -0.006853 -0.471928 0.228179
v -0.553131 -0.471928 0.721465
v -0.006875 -0.469950 0.223873
v -0.543437 -0.471928 0.728647
v 0.573689 -0.461058 0.527861
v -0.540473 -0.426937 0.740023
v -0.539619 -0.467357 0.737597
v -0.537191 -0.471928 0.730703
v -0.552525 -0.418027 0.728601
v -0.550363 -0.416891 0.726800
v -0.546148 -0.418029 0.732355
v -0.006848 -0.416276 0.229164
v -0.553758 -0.416280 0.712387
v 0.555426 -0.416347 0.226341
v 0.534346 -0.471928 0.220782
v -0.548793 -0.471928 0.725492
v 0.562348 -0.467781 0.220813
v 0.572322 -0.464984 0.527864
v -0.531704 -0.426937 0.741041
v -0.532187 -0.464992 0.739944
v -0.532834 -0.467387 0.738477
v -0.534130 -0.470028 0.735537
v -0.552370 -0.416285 0.720355
v -0.538642 -0.418028 0.734822
v -0.539619 -0.420638 0.737597
v -0.567932 -0.416067 0.554299
v -0.568355 -0.416067 0.533395
v -0.566707 -0.416067 0.233887
v -0.006838 -0.416067 0.231079
v -0.566619 -0.416067 0.575133
v 0.573368 -0.461058 0.549565
v 0.573368 -0.426937 0.549565
v 0.570189 -0.420647 0.549509
v 0.566549 -0.418044 0.549445
v 0.563660 -0.416887 0.527882
v 0.560133 -0.416276 0.527804
v 0.556691 -0.471928 0.225340
v -0.535945 -0.471928 0.731418
v 0.559056 -0.470712 0.223448
v 0.572001 -0.464984 0.549541
v -0.531704 -0.461058 0.741041
v -0.544578 -0.416892 0.730207
v -0.547766 -0.416278 0.724894
v -0.537802 -0.416893 0.732437
v -0.531609 -0.423010 0.739967
v -0.531483 -0.420644 0.738543
v -0.566667 -0.416067 0.574560
v -0.567943 -0.416067 0.554289
v -0.567936 -0.416067 0.553823
v 0.553030 -0.416067 0.228246
v -0.551630 -0.416067 0.709997
v 0.572001 -0.423010 0.549541
v 0.563342 -0.416887 0.549389
v 0.557696 -0.416067 0.527722
v 0.570509 -0.467348 0.527868
v 0.570189 -0.467348 0.549509
v -0.004279 -0.461058 0.739056
v -0.002974 -0.467348 0.736552
v -0.003718 -0.464985 0.737979
v -0.001481 -0.469952 0.733685
v -0.550460 -0.416067 0.718790
v -0.531009 -0.416889 0.733184
v -0.004279 -0.426937 0.739056
v -0.567946 -0.416067 0.554276
v -0.568086 -0.416067 0.553981
v -0.520541 -0.416067 0.728885
v 0.572382 -0.426937 0.569997
v 0.572382 -0.461058 0.569997
v 0.571017 -0.423010 0.569936
v 0.569207 -0.420647 0.569856
v 0.565572 -0.418044 0.569694
v 0.562371 -0.416887 0.569552
v 0.559908 -0.416279 0.548939
v 0.557483 -0.416067 0.548154
v 0.000766 -0.471928 0.729372
v 0.561387 -0.471928 0.527887
v 0.566869 -0.469951 0.527875
v 0.569207 -0.467348 0.569856
v -0.541852 -0.416282 0.728237
v -0.545908 -0.416067 0.723608
v -0.531230 -0.418039 0.735682
v -0.534541 -0.416292 0.730310
v -0.004285 -0.423010 0.737982
v -0.567949 -0.416067 0.554263
v -0.568047 -0.416067 0.554040
v -0.004343 -0.416067 0.726492
v -0.531116 -0.416067 0.728837
v 0.571017 -0.464984 0.569936
v 0.558837 -0.416275 0.569346
v 0.566549 -0.469950 0.549445
v 0.565572 -0.469951 0.569694
v 0.523139 -0.426937 0.735727
v 0.523139 -0.461058 0.735727
v 0.522610 -0.469956 0.730373
v 0.523033 -0.464985 0.734654
v 0.522188 -0.471928 0.726093
v -0.004306 -0.418045 0.733698
v -0.004319 -0.416887 0.731178
v -0.526124 -0.416291 0.730722
v -0.004292 -0.420647 0.736558
v -0.567957 -0.416067 0.554237
v -0.568015 -0.416067 0.554095
v -0.004333 -0.416276 0.728407
v -0.539573 -0.416067 0.726972
v 0.558025 -0.426937 0.710151
v 0.558025 -0.461058 0.710151
v 0.554863 -0.420645 0.709854
v 0.551244 -0.418041 0.709515
v 0.548071 -0.416888 0.709217
v 0.544903 -0.416280 0.706852
v 0.557634 -0.416067 0.548310
v 0.556422 -0.416067 0.568902
v 0.561069 -0.471928 0.549349
v 0.554863 -0.467350 0.709854
v 0.551244 -0.469954 0.709515
v 0.522892 -0.467351 0.733231
v 0.560101 -0.471928 0.569450
v 0.523033 -0.423010 0.734654
v -0.567965 -0.416067 0.554211
v -0.567993 -0.416067 0.554142
v 0.517455 -0.416291 0.725464
v 0.556666 -0.423010 0.710023
v 0.556666 -0.464985 0.710023
v 0.542751 -0.416067 0.704484
v 0.557595 -0.416067 0.548369
v 0.557483 -0.416067 0.548629
v 0.556380 -0.416067 0.569476
v 0.545812 -0.471928 0.709005
v 0.531897 -0.426937 0.734621
v 0.531897 -0.461058 0.734621
v 0.530014 -0.469967 0.729438
v 0.531520 -0.464986 0.733583
v 0.522610 -0.418039 0.730373
v 0.522364 -0.416889 0.727878
v 0.522892 -0.420644 0.733231
v -0.567970 -0.416067 0.554198
v -0.567978 -0.416067 0.554176
v 0.511854 -0.416067 0.723684
v 0.555561 -0.426937 0.719924
v 0.554292 -0.423005 0.719472
v 0.555561 -0.461058 0.719924
v 0.552595 -0.420614 0.718868
v 0.549209 -0.417987 0.717661
v 0.543596 -0.416285 0.714834
v 0.541670 -0.416067 0.713288
v 0.557564 -0.416067 0.548424
v 0.557494 -0.416067 0.548619
v 0.554292 -0.464990 0.719472
v 0.552595 -0.467381 0.718867
v 0.544367 -0.471928 0.715936
v 0.531019 -0.467357 0.732203
v 0.528522 -0.471928 0.725334
v 0.531520 -0.423009 0.733583
v 0.529150 -0.416893 0.727062
v 0.525867 -0.416292 0.724968
v 0.546499 -0.416912 0.716695
v 0.530865 -0.416067 0.721579
v 0.557542 -0.416067 0.548471
v 0.557500 -0.416067 0.548594
v 0.549209 -0.470008 0.717661
v 0.534746 -0.471928 0.723215
v 0.540964 -0.426937 0.731542
v 0.540964 -0.461058 0.731542
v 0.537495 -0.469966 0.726896
v 0.540269 -0.464986 0.730612
v 0.531019 -0.420638 0.732204
v 0.522427 -0.416067 0.723530
v 0.548591 -0.426937 0.726961
v 0.547638 -0.423009 0.726183
v 0.546372 -0.420637 0.725150
v 0.548591 -0.461058 0.726961
v 0.543833 -0.418027 0.723078
v 0.537166 -0.416067 0.718152
v 0.539037 -0.416278 0.719418
v 0.557528 -0.416067 0.548506
v 0.557504 -0.416067 0.548580
v 0.547638 -0.464986 0.726183
v 0.546372 -0.467358 0.725150
v 0.540070 -0.471928 0.720006
v 0.539346 -0.467357 0.729375
v 0.530014 -0.418028 0.729438
v 0.540269 -0.423009 0.730612
v 0.535902 -0.416892 0.724764
v 0.533157 -0.416282 0.722822
v 0.541653 -0.416891 0.721298
v 0.557520 -0.416067 0.548528
v 0.557508 -0.416067 0.548567
v 0.543833 -0.469968 0.723078
v 0.537494 -0.418029 0.726896
v 0.539346 -0.420638 0.729376
v 0.557516 -0.416067 0.548541
vn -0.9824442548759723 0.1666079675471036 0.08393492247580159
vn -0.9851525582100179 -0.1667149526934719 0.040994653318094966
vn -0.9824449608815714 -0.16660306845629852 0.083936383168167
vn -0.9851514161383603 0.16672201678749077 0.04099337018220071
vn -0.8794098066771814 -0.4746570400254566 0.03659352776482021
vn -0.9693720198948973 0.1659819434295457 0.18101900867101642
vn -0.8771145922778707 0.4743988172914978 0.07493833575449081
vn -0.9812437723698686 0.19277099021060742 -0.00006722032171676862
vn -0.8771185846298772 -0.47439092023141066 0.0749415992548612
vn -0.9859909726704149 -0.16675305152111464 0.0039014895675542316
vn -0.960881172361064 -0.1982609928289991 0.19339067021055253
vn -0.8783671324122341 0.4436811579651617 0.17781510274608808
vn -0.8794045319325514 0.47466694620623523 0.036591794103830996
vn -0.8713013695122112 0.4907481892119267 0.0003718485718451493
vn -0.6946044683925106 -0.7188110784183394 0.028900969399341156
vn -0.8982028705089752 -0.4395810659211201 -0.0002998217623360124
vn -0.821930251579183 -0.1917409878394992 0.536345089584415
vn -0.873596562071951 0.1976219283912132 0.444718585349214
vn -0.6946005978885237 0.7188148927319803 0.028899124547589507
vn -0.6929566116116157 0.7185442572611649 0.05920544553290079
vn -0.9775855878537452 -0.20989700846913453 -0.01642145719342555
vn -0.9186198464060608 0.3948480403704501 -0.01525132140243762
vn -0.6929595796859592 -0.7185410659401573 0.05920943741533993
vn -0.8493881083677827 -0.4997329202221432 0.1697258077301412
vn -0.7691634116060138 -0.46349801425071 0.4399514030347515
vn -0.7618661976388649 0.46618028790534266 0.449706388729124
vn -0.6876729087410904 0.72601989370162 0.0010414091686373824
vn -0.7047775291896399 0.6950031740979694 0.1423348950296244
vn -0.9887484359953496 0.14864405505360614 -0.016777223070900786
vn -0.7664739980616071 0.6421639137368429 -0.011963201479382037
vn -0.4645092621081863 -0.8853574473406863 0.01932190089230548
vn -0.7258529180825136 -0.6878499399118393 -0.00003839763906683508
vn -0.8712789474637803 -0.49058684879698644 -0.014054874380434191
vn -0.6185634498234694 0.17838605285749007 0.765217403545171
vn -0.5760777891257068 -0.403754015667271 0.7107158895849949
vn -0.46450977825027007 0.8853571932584452 0.01932113494112354
vn -0.46480253180941433 0.8854083438815998 0.0032666509457040223
vn -0.463549685843437 0.8851855791054137 0.039600243664202485
vn -0.004062155120066528 0.15361604549915897 -0.9881222644293473
vn -0.009865704724786322 -0.11795902464341239 -0.9929694538984863
vn -0.009722594375935631 0.16720693399917214 -0.9858738825941162
vn -0.008742333139006098 0.40711721780003424 -0.913334080488649
vn -0.004828123427090485 0.37918914247162544 -0.9253065888967863
vn -0.0068439972733647676 0.6295443800208024 -0.7769343815828631
vn -0.004296296449093022 0.6130440850604857 -0.7900370191384537
vn -0.46354933675081833 -0.8851857006014782 0.039601614216425156
vn -0.49697554824276075 -0.8677645390457688 -0.00009603901241425197
vn -0.6638820867150715 -0.7363708190954349 0.1304553246270938
vn -0.6134496732985897 -0.7083800511018303 0.34910915417791866
vn -0.005894147488979849 -0.15360798808854603 -0.9881142874287202
vn -0.00925690804991226 -0.3214460425290823 -0.9468826492209828
vn -0.6027483862532954 -0.1476769919219947 0.7841465991292185
vn -0.4769034468901342 -0.6526536481923669 0.5887328068364317
vn -0.604663411580054 0.7086385952558671 0.3636117434986965
vn -0.5574668411768486 0.45809791337987715 0.6923705819467698
vn -0.3728394174339096 0.896518740921362 -0.23925909801785736
vn -0.4604236776088166 0.8827981217281584 0.09315317155313621
vn -0.003644019819697814 0.8109076996836326 -0.5851627326764353
vn -0.22912533839124563 -0.9733502972826399 0.009527753507183894
vn -0.22925362406717942 -0.9733641749597928 0.0022268266448629446
vn -0.6994885736685712 -0.714573084804467 -0.010051954045661568
vn -0.004495236294079093 -0.3791870071376269 -0.9253091410272947
vn -0.407319743509517 -0.14040594465493586 0.9024282781766629
vn -0.3106124063356509 -0.654466113638888 0.6893431940106372
vn -0.374668765494823 -0.4119161321260336 0.8306313359468888
vn -0.40732169239788996 0.14041494483926367 0.9024259981671103
vn -0.24003224073964008 0.9707204233288421 0.00929425294368209
vn -0.28507191210326116 0.9585060047862997 0.0004936784343891286
vn -0.23878153978779423 0.970876359522864 0.019556860080302586
vn -0.0001388733727710503 0.11796497032839247 -0.9930177473185502
vn -0.0002835922119830041 0.3214450147855064 -0.9469282032155357
vn -0.0006105488836284789 0.5514607093414047 -0.8342006433003606
vn 0.20131569393770224 0.8760712668631755 -0.4381450978284844
vn -0.22871133191139098 -0.9732982754784898 0.019534421054014005
vn -0.45927006517033603 -0.8844608056932692 0.0824626608280884
vn -0.20898557460238149 -0.9671441947886633 -0.14476579739254886
vn -0.4286427102927108 -0.8812433806139452 0.19918717588495657
vn -0.007795143552347978 -0.5514637034104921 -0.8341624659248239
vn -0.205648561625795 -0.8760369398534956 -0.43619714477901395
vn -0.32519926619254147 -0.8588145869918704 0.39583196237521767
vn -0.00021063786426817155 -0.167196005880869 -0.9859236538643216
vn -0.21848917986668878 -0.8465565567486055 0.4853910531799353
vn -0.393631472323406 0.8742261207026601 0.28422342246494287
vn -0.44814178759248907 0.6961309776642899 0.5608659377690611
vn -0.37467277885783173 0.41191177244990795 0.8306316876330481
vn -0.1193719303329528 0.9598318156139264 -0.25391578915825286
vn -0.23646824477200204 0.9708719190787998 0.03860681233535174
vn -0.00165770839713182 0.9359453082054368 -0.35214149436142844
vn 0 -1 0
vn -0.0036644731393311396 -0.6130391069406967 -0.7900440652254557
vn -0.0004599400363169115 -0.4071119442099938 -0.9133781546198277
vn -0.1936924457693922 -0.1600049683502201 0.9679264675351718
vn -0.18213889609734646 -0.42095004505828454 0.8886092966505967
vn -0.13327218573740696 -0.8388890946388591 0.5277344137014085
vn -0.23827659234596962 0.9651556646258375 0.10816103078581668
vn -0.3106038076470938 0.6544698195679314 0.6893435500168595
vn -0.1965613268703799 0.400170823743599 0.8951128178075235
vn -0.10043455786117275 0.9947828053618101 0.017890493109966963
vn -0.1335419139574358 0.99104239108473 0.0012394715187982574
vn -0.08687919830162175 0.9919635168241123 -0.09198035764448083
vn -0.12245269025459554 0.9924144046947677 0.010908162253185062
vn 0.9859805839393332 0.16675106092301148 -0.006030901732052541
vn 0.9885277039004643 -0.1486540986952052 -0.026738316371682246
vn 0.9773700798627507 0.2098990380014896 -0.026270151029817522
vn 0.8710953302119655 0.49058290279713973 -0.022832896575749478
vn 0.8981552098199683 0.4395791360908643 -0.009348913672627714
vn 0.6993552660640133 0.7145696883226342 -0.01709889935132311
vn 0.7258166397683052 0.6878489500611363 -0.007350328920432714
vn 0.49693612948766686 0.867771141798155 -0.005265802136721249
vn 0.20541752049113451 0.9674811578373078 -0.14759353476713272
vn -0.25699409500790016 -0.9651647750225302 0.04910185522746807
vn 1.1095791710089209e-7 1 -0.0000014098540137845988
vn -0.0025078941754262613 -0.8877678482698345 -0.4602846489349315
vn -0.22036309808625051 -0.9622708435448775 0.15960867352766114
vn -0.002337223405847388 -0.8109098706647515 -0.5851664028677889
vn -0.11145748033997542 -0.9623892484297492 0.24775827853592833
vn 0.9811936756158196 -0.19276907145199004 -0.009952689237363569
vn 0.9184178551147968 -0.39485198013894585 -0.02450626831424266
vn -0.21269250106070733 0.13570498191446273 0.9676497599214998
vn -0.16014220662326212 -0.6588239524062298 0.7350547417666702
vn -0.12671523903367068 -0.9342002475308685 0.33348635011032113
vn -0.31006371287156115 0.8581868044102386 0.4091160015160067
vn -0.18246340486101556 0.9575434727900789 0.223198574376362
vn -0.2184602311246191 0.846564450526059 0.4853903156455534
vn -0.0009925591580728639 0.9835517716345502 -0.1806237175479879
vn -0.13072538766229083 0.991192803414273 0.021158910186929853
vn 0.0717431684663191 0.9912948321564515 -0.11039689089066788
vn -0.1548448281602404 -0.9655758302706127 0.20901290675277084
vn -0.000984631439035463 -0.6295382465432788 -0.7769688710882457
vn 0.8712650124487675 -0.49074087404965316 -0.008406700876773978
vn -0.055364022926047474 0.1334869768338046 0.989502931769894
vn -0.05446081825702688 -0.3919491307554274 0.918373506899475
vn -0.0508274723752951 -0.6313756303369376 0.773809654545983
vn -0.09613172832625723 -0.8191639028795238 0.5654460107103001
vn -0.1168687066483132 0.990998150223439 0.06530215662650686
vn -0.0982530405601928 0.837192615833745 0.5380100965726652
vn -0.1642376116703303 0.6414651488487977 0.7493653779867441
vn -0.062016828640902064 0.9978072207598829 0.02312278453740325
vn -0.06452866245504958 0.9979155241131604 0.0008114528443783798
vn -0.05031927973458198 0.9980480069758567 -0.036988455746536
vn -0.0004900066394248728 0.9958557210230091 -0.09094582342931404
vn -0.0645803718232304 0.9978905269066995 0.006623585512599696
vn 0.9855160410446495 -0.16671200277367096 0.031068327519714497
vn 0.9855159231041956 0.16671296405252098 0.031066910449999346
vn 0.6948562868844993 0.7188150446545891 0.021901419024981078
vn 0.4646790094857393 0.8853581514918756 0.014641097303182632
vn 0.23966329202448694 0.970856067722553 -0.00004714114360984552
vn 0.13819321260867534 0.9904049396630472 -0.0008315527217414633
vn -0.07351847603688619 -0.9357760114534306 0.3448453132485966
vn 0.11843699622437934 -0.9597282298103111 -0.25474379841423617
vn 0.7663146833574169 -0.6421637629485013 -0.019685213400998387
vn 0.37054193552125203 -0.8965114010943597 -0.2428291204283221
vn 0.8797374712220276 -0.4746502392142877 0.027733231721015262
vn -0.04361668280351968 -0.15901498584043147 0.986312232135131
vn -0.1197005201168748 0.9587033665799557 0.25799155100896004
vn -0.08586082661634997 0.9894876098307648 0.1163709089255443
vn -0.06490684752068444 0.9548302830995821 0.28997626044367547
vn -0.05126807623333145 0.39461416906379554 0.9174155230501735
vn -0.04982373830931374 0.6577632772703015 0.7515750569141564
vn -0.056675419652374076 0.9983840092924591 0.00415533348144684
vn -0.05368949717875562 0.9979747383919344 0.03411538398204884
vn -0.0714933673022505 0.9966561512620172 -0.039562792916685616
vn 0.028438096473671893 0.9975259270389614 -0.06429074236633868
vn -0.06848479990247763 0.9976054194507689 0.009657083657772262
vn 0.8797318611114213 0.4746607848871037 0.0277307020429293
vn 0.23998882174539318 0.9707407253551606 0.00823465689597776
vn 0.07143316003652665 0.9974451988282522 -0.0006156148670301754
vn 0.6876536274570838 -0.7260150379898267 -0.005886701771336658
vn 0.6948621935116361 -0.7188093210738656 0.021901871279088554
vn 0.0049929543478921075 -0.1330789283166551 0.9910928661053768
vn 0.003733533294832984 -0.6128570860236908 0.790184948502366
vn 0.004420292025525275 -0.36900886357504953 0.9294153644208061
vn 0.0025264648343570257 -0.8344940228029666 0.5510112003231535
vn -0.05853958413637007 0.9976654181630676 0.03516860091974863
vn -0.021388236626397526 0.9457012080741485 0.3243328049721607
vn 0.0049927324369126915 0.13305792845417255 0.9910956867519392
vn -0.056582718455175644 0.9982974740022352 0.014161545571676258
vn -0.06861658762703719 0.9973870906255872 -0.02259989725303156
vn 0.00011972443838100295 0.9961483526674597 0.08768377925229315
vn 0.9832415980452596 0.16659894747377582 0.0740320915146557
vn 0.983241525497905 -0.16659906402353272 0.07403279275453085
vn 0.8778249249976058 0.4743990373005746 0.06609806700075213
vn 0.6935148462803399 0.718547130516194 0.05222240147388716
vn 0.4639251892339765 0.8851855254378745 0.03492856065590083
vn 0.2394317138665929 0.970728312370714 0.018947241403740798
vn 0.10059340811230806 0.9947842546080992 0.01688943540084605
vn 0.07467395059562867 0.9967591836015635 -0.02991539751342816
vn 0.0014360431233894522 -0.9587448559605807 0.2842643821326785
vn 0.2872834429016917 -0.9578432620989978 -0.0021233666901519306
vn 0.4648158146770948 -0.8854062626943219 -0.0014171830305611517
vn 0.6935222827908257 -0.7185398588471696 0.05222369692478242
vn -0.057630015213252395 0.9878864146925764 0.14408057819278478
vn -0.041222639411124314 0.9973226482907394 0.060400572897336316
vn -0.0301711575016631 0.8346131079613855 0.55000969198192
vn -0.02511153261148922 0.9858293700907661 0.1658609779192963
vn 0.0046311536404051905 0.39354721208678217 0.9192927413368824
vn -0.05640375654086541 0.9982901951193316 0.015339575505385061
vn -0.05278762539686755 0.9980680030835312 0.032767786403914555
vn 0.00045328016145223664 0.9963781416182245 0.08503172021374547
vn -0.007371883822411174 0.9960115690313653 0.08891911877985843
vn 0.8778323377278421 -0.4743849427120916 0.06610077887073006
vn 0.12245562763829627 0.9924338491634642 0.008926045837950747
vn 0.4646784088526591 -0.8853584559096993 0.014641751785698452
vn 0.4639212506674743 -0.8851876297823013 0.034927542992862166
vn 0.06533117746347201 0.13349204108798904 0.9888941865626468
vn 0.06533082564350619 -0.13346300237444012 0.988898129342926
vn 0.035715670412739535 -0.8345417673710975 0.5497858031998403
vn 0.06050539671966197 -0.394547990318384 0.9168811156870451
vn 0.026336847706965275 -0.9479203083296149 0.3174168544818437
vn 0.0027810586384468257 0.8338136998971624 0.5520389294032211
vn 0.0014858674151303692 0.9531986635614419 0.30234103258192635
vn -0.002613262035588166 0.9846342689755336 0.17460964240427668
vn 0.0038945847471092898 0.63429805510084 0.7730787860916499
vn -0.05613634124803274 0.9982785583806307 0.01698914561636492
vn -0.05386414171755171 0.998144234455624 0.028403194539133654
vn 0.0008861331503735073 0.9857347178773425 0.16830413167630703
vn -0.02471466371835664 0.9968716310678464 0.07507420708485879
vn 0.9627800874585142 0.19825998295311173 0.1837048784131976
vn 0.9711481449455367 -0.16597188313351213 0.1712443125419304
vn 0.6651543940642416 0.7363786537879755 0.12375827367267438
vn 0.46007748122331726 0.884460948540737 0.07783021121407961
vn 0.2585290866565234 0.9649026569216846 0.04610394796563179
vn 0.13139236633778353 0.9911899296949009 0.016690396627261662
vn 0.068387355057036 0.9973861236130518 -0.023325738840030284
vn 0.06423882166201748 0.9979274201978864 0.003773302090590916
vn 0.2292115740070163 -0.9733498492641338 0.007219783841212105
vn 0.7061818269596121 -0.694996189046634 0.13523137388431689
vn 0.4614010823974342 -0.8828250224193417 0.08791485058148661
vn 0.05739400153970375 -0.6576951862389144 0.7510945150814378
vn 0.22889480365022066 -0.9732986936868898 0.01722851500625432
vn 0.06050643202495475 0.3946200169597824 0.9168500498436322
vn -0.05580745045857176 0.9982624418989364 0.01891099064794433
vn -0.05467945961684292 0.9981976470174105 0.024730834699121598
vn 0.00802806251518157 0.9852823804077476 0.17074595476992938
vn 0.8510519578336989 0.49973500431646106 0.16116913640103206
vn 0.8801112177692896 -0.44368315699753474 0.16896597454327708
vn 0.06510273645032219 0.9978535759916497 0.007062194231041558
vn 0.05313385846524468 0.9980700919337374 0.03213852317665046
vn 0.054572620085093615 0.9981006088015297 0.02858327915169469
vn 0.056642189076946396 0.9983822463763085 0.004955051681626495
vn 0.22749942856789857 -0.9731381036791121 0.035302141140462644
vn 0.22243206412579744 0.1357039692904668 0.965457616660384
vn 0.22243129242739515 -0.13570096240174642 0.9654582170929606
vn 0.1035685982042181 -0.8371830454510873 0.5370270885860935
vn 0.20556507097781251 -0.40017282890634337 0.8930871786107901
vn 0.046472074794181306 0.8344091343590727 0.5491827953991884
vn 0.01600172887470631 0.9545795815653823 0.29752607806960396
vn 0.05070453400658418 0.6355293150376792 0.7704099817362916
vn -0.055553285986638515 0.998248864243155 0.020323322891151446
vn -0.05523756677684896 0.9982312753895867 0.02198026502689104
vn 0.0022996040824098496 0.9955312908713885 0.09440424099059916
vn 0.8272903254680182 0.19175289219176062 0.5280355534650254
vn 0.7735543472958147 0.46349512781111646 0.43218738791767475
vn 0.8780314885819048 -0.1976260377578414 0.43589523312234174
vn 0.6169327138463424 0.7083778903399234 0.34292096912225495
vn 0.4304104577821168 0.8812233385480066 0.19542841510408335
vn 0.11938660621511812 0.9912135843733278 0.05694267652838203
vn 0.06276260147993919 0.9977873944798143 0.02193561653233172
vn 0.054155224769797526 0.9981451102381466 0.027812776521071683
vn 0.0539958831196159 0.9979685507920021 0.033811480834827455
vn 0.7663641197966937 -0.46617416202981315 0.44200417027901484
vn 0.6083088459610749 -0.7086298347617142 0.3574970002826467
vn 0.2396428900943327 -0.9647046092778301 0.10916181596760352
vn 0.1717718263805833 -0.6414710469242502 0.7476692688748049
vn 0.06186775900961455 -0.9598738824461727 0.2735224125969196
vn 0.2055661190591424 0.4001751729217323 0.8930858870635141
vn 0.05616783121523009 0.9490329700480454 0.3101315793310369
vn 0.029205092558743713 0.9854445972518318 0.16746942501785334
vn 0.22202294316303517 0.9625795257901262 0.15539134222626166
vn 0.03145935007158942 0.9967551946957127 0.07409042542855883
vn 0.05490706977709919 0.9981966673520143 0.02426163588517895
vn 0.056635736297385324 0.9982941405718044 0.014184578740851411
vn 0.3962426385758998 -0.8741472585177259 0.2808172747541591
vn 0.11394799623956468 -0.9623888343276636 0.24662438183283708
vn 0.4163918885706753 0.14040896242614564 0.8982778625809276
vn 0.4163921224280907 -0.1404050412825981 0.8982783670790819
vn 0.22335073202288874 -0.8465659908740186 0.483156779524339
vn 0.38302280865901495 -0.4119061122403116 0.8268173212663311
vn 0.15417176908969132 0.6627641223111418 0.7327856329056246
vn 0.014041258852586938 0.9957636723236043 0.09087107312255156
vn 0.6106185593214554 0.14768099135822566 0.7780329683269481
vn 0.583208350884421 0.4037579984867151 0.7048741008979376
vn 0.48281051263802527 0.6526517495420023 0.5839004219093962
vn 0.6262499359899594 -0.17838407442532966 0.7589401423458837
vn 0.32953999855101057 0.8588623601949253 0.3921209451118397
vn 0.04569279013379403 0.9974684135245558 0.05448791563819295
vn 0.08858680147778358 0.989538581738952 0.11386735201100921
vn 0.05543702659299881 0.998230627272233 0.02150234541186928
vn 0.05643405639053993 0.9982851102770682 0.015557502319173171
vn 0.5644285712840921 -0.45808810825814283 0.6867136761348754
vn 0.4537745265184412 -0.6961360777510947 0.5563121788495076
vn 0.18594963052518979 -0.9564363187209789 0.22506066546379694
vn 0.31752865310135986 -0.6544738392167405 0.6861774903336136
vn 0.1215689448675006 0.8380928120719555 0.5318095805804222
vn 0.38302098981012994 0.4119151321790562 0.8268136702103922
vn 0.11277146629200023 0.958947961299738 0.2601949344422921
vn 0.06123825426643241 0.9877701197350318 0.14338781947236956
vn 0.16080577277978025 0.9624308608488689 0.21878834869892608
vn 0.05579567623078764 0.9982516737075182 0.01950483155753003
vn 0.056236653310181337 0.9982752843837122 0.016849196214926677
vn 0.3141849105487951 -0.8581887277456766 0.4059556004709169
vn 0.22333954786164315 0.8465649909205906 0.48316370156353566
vn 0.3175300583807871 0.6544810248931863 0.6861699862858027
vn 0.05603604932916188 0.9982648334160672 0.01809097953045347
vn 0.9824449608815714 0.16660306845629852 -0.083936383168167
vn 0.9851525582100179 0.1667149526934719 -0.040994653318094966
vn 0.9824442548759723 -0.1666079675471036 -0.08393492247580159
vn 0.9851514161383603 -0.16672201678749077 -0.04099337018220071
vn 0.8794098066771814 0.4746570400254566 -0.03659352776482021
vn 0.9693720198948973 -0.1659819434295457 -0.18101900867101642
vn 0.8771145922778707 -0.4743988172914978 -0.07493833575449081
vn 0.9812437723698686 -0.19277099021060742 0.00006722032171676862
vn 0.8771185846298772 0.47439092023141066 -0.0749415992548612
vn 0.9859909726704149 0.16675305152111464 -0.0039014895675542316
vn 0.960881172361064 0.1982609928289991 -0.19339067021055253
vn 0.8783671324122341 -0.4436811579651617 -0.17781510274608808
vn 0.8794045319325514 -0.47466694620623523 -0.036591794103830996
vn 0.8713013695122112 -0.4907481892119267 -0.0003718485718451493
vn 0.6946044683925106 0.7188110784183394 -0.028900969399341156
vn 0.8982028705089752 0.4395810659211201 0.0002998217623360124
vn 0.821930251579183 0.1917409878394992 -0.536345089584415
vn 0.873596562071951 -0.1976219283912132 -0.444718585349214
vn 0.6946005978885237 -0.7188148927319803 -0.028899124547589507
vn 0.6929566116116157 -0.7185442572611649 -0.05920544553290079
vn 0.9775855878537452 0.20989700846913453 0.01642145719342555
vn 0.9186198464060608 -0.3948480403704501 0.01525132140243762
vn 0.6929595796859592 0.7185410659401573 -0.05920943741533993
vn 0.8493881083677827 0.4997329202221432 -0.1697258077301412
vn 0.7691634116060138 0.46349801425071 -0.4399514030347515
vn 0.7618661976388649 -0.46618028790534266 -0.449706388729124
vn 0.6876729087410904 -0.72601989370162 -0.0010414091686373824
vn 0.7047775291896399 -0.6950031740979694 -0.1423348950296244
vn 0.9887484359953496 -0.14864405505360614 0.016777223070900786
vn 0.7664739980616071 -0.6421639137368429 0.011963201479382037
vn 0.4645092621081863 0.8853574473406863 -0.01932190089230548
vn 0.7258529180825136 0.6878499399118393 0.00003839763906683508
vn 0.8712789474637803 0.49058684879698644 0.014054874380434191
vn 0.6185634498234694 -0.17838605285749007 -0.765217403545171
vn 0.5760777891257068 0.403754015667271 -0.7107158895849949
vn 0.46450977825027007 -0.8853571932584452 -0.01932113494112354
vn 0.46480253180941433 -0.8854083438815998 -0.0032666509457040223
vn 0.463549685843437 -0.8851855791054137 -0.039600243664202485
vn 0.009722594375935631 -0.16720693399917214 0.9858738825941162
vn 0.009865704724786322 0.11795902464341239 0.9929694538984863
vn 0.004062155120066528 -0.15361604549915897 0.9881222644293473
vn 0.004828123427090485 -0.37918914247162544 0.9253065888967863
vn 0.008742333139006098 -0.40711721780003424 0.913334080488649
vn 0.004296296449093022 -0.6130440850604857 0.7900370191384537
vn 0.0068439972733647676 -0.6295443800208024 0.7769343815828631
vn 0.46354933675081833 0.8851857006014782 -0.039601614216425156
vn 0.49697554824276075 0.8677645390457688 0.00009603901241425197
vn 0.6638820867150715 0.7363708190954349 -0.1304553246270938
vn 0.6134496732985897 0.7083800511018303 -0.34910915417791866
vn 0.00925690804991226 0.3214460425290823 0.9468826492209828
vn 0.005894147488979849 0.15360798808854603 0.9881142874287202
vn 0.6027483862532954 0.1476769919219947 -0.7841465991292185
vn 0.4769034468901342 0.6526536481923669 -0.5887328068364317
vn 0.604663411580054 -0.7086385952558671 -0.3636117434986965
vn 0.5574668411768486 -0.45809791337987715 -0.6923705819467698
vn 0.3728394174339096 -0.896518740921362 0.23925909801785736
vn 0.4604236776088166 -0.8827981217281584 -0.09315317155313621
vn 0.003644019819697814 -0.8109076996836326 0.5851627326764353
vn 0.22912533839124563 0.9733502972826399 -0.009527753507183894
vn 0.22925362406717942 0.9733641749597928 -0.0022268266448629446
vn 0.6994885736685712 0.714573084804467 0.010051954045661568
vn 0.004495236294079093 0.3791870071376269 0.9253091410272947
vn 0.407319743509517 0.14040594465493586 -0.9024282781766629
vn 0.3106124063356509 0.654466113638888 -0.6893431940106372
vn 0.374668765494823 0.4119161321260336 -0.8306313359468888
vn 0.40732169239788996 -0.14041494483926367 -0.9024259981671103
vn 0.24003224073964008 -0.9707204233288421 -0.00929425294368209
vn 0.28507191210326116 -0.9585060047862997 -0.0004936784343891286
vn 0.23878153978779423 -0.970876359522864 -0.019556860080302586
vn 0.0001388733727710503 -0.11796497032839247 0.9930177473185502
vn 0.0002835922119830041 -0.3214450147855064 0.9469282032155357
vn 0.0006105488836284789 -0.5514607093414047 0.8342006433003606
vn -0.20131569393770224 -0.8760712668631755 0.4381450978284844
vn 0.22871133191139098 0.9732982754784898 -0.019534421054014005
vn 0.45927006517033603 0.8844608056932692 -0.0824626608280884
vn 0.20898557460238149 0.9671441947886633 0.14476579739254886
vn 0.4286427102927108 0.8812433806139452 -0.19918717588495657
vn 0.007795143552347978 0.5514637034104921 0.8341624659248239
vn 0.205648561625795 0.8760369398534956 0.43619714477901395
vn 0.32519926619254147 0.8588145869918704 -0.39583196237521767
vn 0.00021063786426817155 0.167196005880869 0.9859236538643216
vn 0.21848917986668878 0.8465565567486055 -0.4853910531799353
vn 0.393631472323406 -0.8742261207026601 -0.28422342246494287
vn 0.44814178759248907 -0.6961309776642899 -0.5608659377690611
vn 0.37467277885783173 -0.41191177244990795 -0.8306316876330481
vn 0.1193719303329528 -0.9598318156139264 0.25391578915825286
vn 0.23646824477200204 -0.9708719190787998 -0.03860681233535174
vn 0.00165770839713182 -0.9359453082054368 0.35214149436142844
vn 0 1 0
vn 0.0036644731393311396 0.6130391069406967 0.7900440652254557
vn 0.0004599400363169115 0.4071119442099938 0.9133781546198277
vn 0.1936924457693922 0.1600049683502201 -0.9679264675351718
vn 0.18213889609734646 0.42095004505828454 -0.8886092966505967
vn 0.13327218573740696 0.8388890946388591 -0.5277344137014085
vn 0.23827659234596962 -0.9651556646258375 -0.10816103078581668
vn 0.3106038076470938 -0.6544698195679314 -0.6893435500168595
vn 0.1965613268703799 -0.400170823743599 -0.8951128178075235
vn 0.10043455786117275 -0.9947828053618101 -0.017890493109966963
vn 0.1335419139574358 -0.99104239108473 -0.0012394715187982574
vn 0.08687919830162175 -0.9919635168241123 0.09198035764448083
vn 0.12245269025459554 -0.9924144046947677 -0.010908162253185062
vn -0.9773700798627507 -0.2098990380014896 0.026270151029817522
vn -0.9885277039004643 0.1486540986952052 0.026738316371682246
vn -0.9859805839393332 -0.16675106092301148 0.006030901732052541
vn -0.8981552098199683 -0.4395791360908643 0.009348913672627714
vn -0.8710953302119655 -0.49058290279713973 0.022832896575749478
vn -0.7258166397683052 -0.6878489500611363 0.007350328920432714
vn -0.6993552660640133 -0.7145696883226342 0.01709889935132311
vn -0.49693612948766686 -0.867771141798155 0.005265802136721249
vn -0.20541752049113451 -0.9674811578373078 0.14759353476713272
vn 0.25699409500790016 0.9651647750225302 -0.04910185522746807
vn -1.1095791710089209e-7 -1 0.0000014098540137845988
vn 0.0025078941754262613 0.8877678482698345 0.4602846489349315
vn 0.22036309808625051 0.9622708435448775 -0.15960867352766114
vn 0.002337223405847388 0.8109098706647515 0.5851664028677889
vn 0.11145748033997542 0.9623892484297492 -0.24775827853592833
vn -0.9184178551147968 0.39485198013894585 0.02450626831424266
vn -0.9811936756158196 0.19276907145199004 0.009952689237363569
vn 0.21269250106070733 -0.13570498191446273 -0.9676497599214998
vn 0.16014220662326212 0.6588239524062298 -0.7350547417666702
vn 0.12671523903367068 0.9342002475308685 -0.33348635011032113
vn 0.31006371287156115 -0.8581868044102386 -0.4091160015160067
vn 0.18246340486101556 -0.9575434727900789 -0.223198574376362
vn 0.2184602311246191 -0.846564450526059 -0.4853903156455534
vn 0.0009925591580728639 -0.9835517716345502 0.1806237175479879
vn 0.13072538766229083 -0.991192803414273 -0.021158910186929853
vn -0.0717431684663191 -0.9912948321564515 0.11039689089066788
vn 0.1548448281602404 0.9655758302706127 -0.20901290675277084
vn 0.000984631439035463 0.6295382465432788 0.7769688710882457
vn -0.8712650124487675 0.49074087404965316 0.008406700876773978
vn 0.055364022926047474 -0.1334869768338046 -0.989502931769894
vn 0.05446081825702688 0.3919491307554274 -0.918373506899475
vn 0.0508274723752951 0.6313756303369376 -0.773809654545983
vn 0.09613172832625723 0.8191639028795238 -0.5654460107103001
vn 0.1168687066483132 -0.990998150223439 -0.06530215662650686
vn 0.0982530405601928 -0.837192615833745 -0.5380100965726652
vn 0.1642376116703303 -0.6414651488487977 -0.7493653779867441
vn 0.062016828640902064 -0.9978072207598829 -0.02312278453740325
vn 0.06452866245504958 -0.9979155241131604 -0.0008114528443783798
vn 0.05031927973458198 -0.9980480069758567 0.036988455746536
vn 0.0004900066394248728 -0.9958557210230091 0.09094582342931404
vn 0.0645803718232304 -0.9978905269066995 -0.006623585512599696
vn -0.9855160410446495 0.16671200277367096 -0.031068327519714497
vn -0.9855159231041956 -0.16671296405252098 -0.031066910449999346
vn -0.6948562868844993 -0.7188150446545891 -0.021901419024981078
vn -0.4646790094857393 -0.8853581514918756 -0.014641097303182632
vn -0.23966329202448694 -0.970856067722553 0.00004714114360984552
vn -0.13819321260867534 -0.9904049396630472 0.0008315527217414633
vn 0.07351847603688619 0.9357760114534306 -0.3448453132485966
vn -0.11843699622437934 0.9597282298103111 0.25474379841423617
vn -0.7663146833574169 0.6421637629485013 0.019685213400998387
vn -0.37054193552125203 0.8965114010943597 0.2428291204283221
vn -0.8797374712220276 0.4746502392142877 -0.027733231721015262
vn 0.04361668280351968 0.15901498584043147 -0.986312232135131
vn 0.1197005201168748 -0.9587033665799557 -0.25799155100896004
vn 0.08586082661634997 -0.9894876098307648 -0.1163709089255443
vn 0.06490684752068444 -0.9548302830995821 -0.28997626044367547
vn 0.05126807623333145 -0.39461416906379554 -0.9174155230501735
vn 0.04982373830931374 -0.6577632772703015 -0.7515750569141564
vn 0.056675419652374076 -0.9983840092924591 -0.00415533348144684
vn 0.05368949717875562 -0.9979747383919344 -0.03411538398204884
vn 0.0714933673022505 -0.9966561512620172 0.039562792916685616
vn -0.028438096473671893 -0.9975259270389614 0.06429074236633868
vn 0.06848479990247763 -0.9976054194507689 -0.009657083657772262
vn -0.8797318611114213 -0.4746607848871037 -0.0277307020429293
vn -0.23998882174539318 -0.9707407253551606 -0.00823465689597776
vn -0.07143316003652665 -0.9974451988282522 0.0006156148670301754
vn -0.6876536274570838 0.7260150379898267 0.005886701771336658
vn -0.6948621935116361 0.7188093210738656 -0.021901871279088554
vn -0.0049929543478921075 0.1330789283166551 -0.9910928661053768
vn -0.003733533294832984 0.6128570860236908 -0.790184948502366
vn -0.004420292025525275 0.36900886357504953 -0.9294153644208061
vn -0.0025264648343570257 0.8344940228029666 -0.5510112003231535
vn 0.05853958413637007 -0.9976654181630676 -0.03516860091974863
vn 0.021388236626397526 -0.9457012080741485 -0.3243328049721607
vn -0.0049927324369126915 -0.13305792845417255 -0.9910956867519392
vn 0.056582718455175644 -0.9982974740022352 -0.014161545571676258
vn 0.06861658762703719 -0.9973870906255872 0.02259989725303156
vn -0.00011972443838100295 -0.9961483526674597 -0.08768377925229315
vn -0.9832415980452596 -0.16659894747377582 -0.0740320915146557
vn -0.983241525497905 0.16659906402353272 -0.07403279275453085
vn -0.8778249249976058 -0.4743990373005746 -0.06609806700075213
vn -0.6935148462803399 -0.718547130516194 -0.05222240147388716
vn -0.4639251892339765 -0.8851855254378745 -0.03492856065590083
vn -0.2394317138665929 -0.970728312370714 -0.018947241403740798
vn -0.10059340811230806 -0.9947842546080992 -0.01688943540084605
vn -0.07467395059562867 -0.9967591836015635 0.02991539751342816
vn -0.0014360431233894522 0.9587448559605807 -0.2842643821326785
vn -0.2872834429016917 0.9578432620989978 0.0021233666901519306
vn -0.4648158146770948 0.8854062626943219 0.0014171830305611517
vn -0.6935222827908257 0.7185398588471696 -0.05222369692478242
vn 0.057630015213252395 -0.9878864146925764 -0.14408057819278478
vn 0.041222639411124314 -0.9973226482907394 -0.060400572897336316
vn 0.0301711575016631 -0.8346131079613855 -0.55000969198192
vn 0.02511153261148922 -0.9858293700907661 -0.1658609779192963
vn -0.0046311536404051905 -0.39354721208678217 -0.9192927413368824
vn 0.05640375654086541 -0.9982901951193316 -0.015339575505385061
vn 0.05278762539686755 -0.9980680030835312 -0.032767786403914555
vn -0.00045328016145223664 -0.9963781416182245 -0.08503172021374547
vn 0.007371883822411174 -0.9960115690313653 -0.08891911877985843
vn -0.8778323377278421 0.4743849427120916 -0.06610077887073006
vn -0.12245562763829627 -0.9924338491634642 -0.008926045837950747
vn -0.4646784088526591 0.8853584559096993 -0.014641751785698452
vn -0.4639212506674743 0.8851876297823013 -0.034927542992862166
vn -0.06533117746347201 -0.13349204108798904 -0.9888941865626468
vn -0.06533082564350619 0.13346300237444012 -0.988898129342926
vn -0.035715670412739535 0.8345417673710975 -0.5497858031998403
vn -0.06050539671966197 0.394547990318384 -0.9168811156870451
vn -0.026336847706965275 0.9479203083296149 -0.3174168544818437
vn -0.0027810586384468257 -0.8338136998971624 -0.5520389294032211
vn -0.0014858674151303692 -0.9531986635614419 -0.30234103258192635
vn 0.002613262035588166 -0.9846342689755336 -0.17460964240427668
vn -0.0038945847471092898 -0.63429805510084 -0.7730787860916499
vn 0.05613634124803274 -0.9982785583806307 -0.01698914561636492
vn 0.05386414171755171 -0.998144234455624 -0.028403194539133654
vn -0.0008861331503735073 -0.9857347178773425 -0.16830413167630703
vn 0.02471466371835664 -0.9968716310678464 -0.07507420708485879
vn -0.9627800874585142 -0.19825998295311173 -0.1837048784131976
vn -0.9711481449455367 0.16597188313351213 -0.1712443125419304
vn -0.6651543940642416 -0.7363786537879755 -0.12375827367267438
vn -0.46007748122331726 -0.884460948540737 -0.07783021121407961
vn -0.2585290866565234 -0.9649026569216846 -0.04610394796563179
vn -0.13139236633778353 -0.9911899296949009 -0.016690396627261662
vn -0.068387355057036 -0.9973861236130518 0.023325738840030284
vn -0.06423882166201748 -0.9979274201978864 -0.003773302090590916
vn -0.2292115740070163 0.9733498492641338 -0.007219783841212105
vn -0.7061818269596121 0.694996189046634 -0.13523137388431689
vn -0.4614010823974342 0.8828250224193417 -0.08791485058148661
vn -0.05739400153970375 0.6576951862389144 -0.7510945150814378
vn -0.22889480365022066 0.9732986936868898 -0.01722851500625432
vn -0.06050643202495475 -0.3946200169597824 -0.9168500498436322
vn 0.05580745045857176 -0.9982624418989364 -0.01891099064794433
vn 0.05467945961684292 -0.9981976470174105 -0.024730834699121598
vn -0.00802806251518157 -0.9852823804077476 -0.17074595476992938
vn -0.8510519578336989 -0.49973500431646106 -0.16116913640103206
vn -0.8801112177692896 0.44368315699753474 -0.16896597454327708
vn -0.06510273645032219 -0.9978535759916497 -0.007062194231041558
vn -0.05313385846524468 -0.9980700919337374 -0.03213852317665046
vn -0.054572620085093615 -0.9981006088015297 -0.02858327915169469
vn -0.056642189076946396 -0.9983822463763085 -0.004955051681626495
vn -0.22749942856789857 0.9731381036791121 -0.035302141140462644
vn -0.22243206412579744 -0.1357039692904668 -0.965457616660384
vn -0.22243129242739515 0.13570096240174642 -0.9654582170929606
vn -0.1035685982042181 0.8371830454510873 -0.5370270885860935
vn -0.20556507097781251 0.40017282890634337 -0.8930871786107901
vn -0.046472074794181306 -0.8344091343590727 -0.5491827953991884
vn -0.01600172887470631 -0.9545795815653823 -0.29752607806960396
vn -0.05070453400658418 -0.6355293150376792 -0.7704099817362916
vn 0.055553285986638515 -0.998248864243155 -0.020323322891151446
vn 0.05523756677684896 -0.9982312753895867 -0.02198026502689104
vn -0.0022996040824098496 -0.9955312908713885 -0.09440424099059916
vn -0.8272903254680182 -0.19175289219176062 -0.5280355534650254
vn -0.7735543472958147 -0.46349512781111646 -0.43218738791767475
vn -0.8780314885819048 0.1976260377578414 -0.43589523312234174
vn -0.6169327138463424 -0.7083778903399234 -0.34292096912225495
vn -0.4304104577821168 -0.8812233385480066 -0.19542841510408335
vn -0.11938660621511812 -0.9912135843733278 -0.05694267652838203
vn -0.06276260147993919 -0.9977873944798143 -0.02193561653233172
vn -0.054155224769797526 -0.9981451102381466 -0.027812776521071683
vn -0.0539958831196159 -0.9979685507920021 -0.033811480834827455
vn -0.7663641197966937 0.46617416202981315 -0.44200417027901484
vn -0.6083088459610749 0.7086298347617142 -0.3574970002826467
vn -0.2396428900943327 0.9647046092778301 -0.10916181596760352
vn -0.1717718263805833 0.6414710469242502 -0.7476692688748049
vn -0.06186775900961455 0.9598738824461727 -0.2735224125969196
vn -0.2055661190591424 -0.4001751729217323 -0.8930858870635141
vn -0.05616783121523009 -0.9490329700480454 -0.3101315793310369
vn -0.029205092558743713 -0.9854445972518318 -0.16746942501785334
vn -0.22202294316303517 -0.9625795257901262 -0.15539134222626166
vn -0.03145935007158942 -0.9967551946957127 -0.07409042542855883
vn -0.05490706977709919 -0.9981966673520143 -0.02426163588517895
vn -0.056635736297385324 -0.9982941405718044 -0.014184578740851411
vn -0.3962426385758998 0.8741472585177259 -0.2808172747541591
vn -0.11394799623956468 0.9623888343276636 -0.24662438183283708
vn -0.4163918885706753 -0.14040896242614564 -0.8982778625809276
vn -0.4163921224280907 0.1404050412825981 -0.8982783670790819
vn -0.22335073202288874 0.8465659908740186 -0.483156779524339
vn -0.38302280865901495 0.4119061122403116 -0.8268173212663311
vn -0.15417176908969132 -0.6627641223111418 -0.7327856329056246
vn -0.014041258852586938 -0.9957636723236043 -0.09087107312255156
vn -0.6106185593214554 -0.14768099135822566 -0.7780329683269481
vn -0.583208350884421 -0.4037579984867151 -0.7048741008979376
vn -0.48281051263802527 -0.6526517495420023 -0.5839004219093962
vn -0.6262499359899594 0.17838407442532966 -0.7589401423458837
vn -0.32953999855101057 -0.8588623601949253 -0.3921209451118397
vn -0.04569279013379403 -0.9974684135245558 -0.05448791563819295
vn -0.08858680147778358 -0.989538581738952 -0.11386735201100921
vn -0.05543702659299881 -0.998230627272233 -0.02150234541186928
vn -0.05643405639053993 -0.9982851102770682 -0.015557502319173171
vn -0.5644285712840921 0.45808810825814283 -0.6867136761348754
vn -0.4537745265184412 0.6961360777510947 -0.5563121788495076
vn -0.18594963052518979 0.9564363187209789 -0.22506066546379694
vn -0.31752865310135986 0.6544738392167405 -0.6861774903336136
vn -0.1215689448675006 -0.8380928120719555 -0.5318095805804222
vn -0.38302098981012994 -0.4119151321790562 -0.8268136702103922
vn -0.11277146629200023 -0.958947961299738 -0.2601949344422921
vn -0.06123825426643241 -0.9877701197350318 -0.14338781947236956
vn -0.16080577277978025 -0.9624308608488689 -0.21878834869892608
vn -0.05579567623078764 -0.9982516737075182 -0.01950483155753003
vn -0.056236653310181337 -0.9982752843837122 -0.016849196214926677
vn -0.3141849105487951 0.8581887277456766 -0.4059556004709169
vn -0.22333954786164315 -0.8465649909205906 -0.48316370156353566
vn -0.3175300583807871 -0.6544810248931863 -0.6861699862858027
vn -0.05603604932916188 -0.9982648334160672 -0.01809097953045347
usemtl material_0_0
f 1//1 2//2 3//3
f 2//2 1//1 4//4
f 5//5 3//3 2//2
f 3//3 6//6 1//1
f 7//7 4//4 1//1
f 8//8 2//2 4//4
f 3//3 5//5 9//9
f 10//10 5//5 2//2
f 6//6 3//3 11//11
f 12//12 1//1 6//6
f 4//4 7//7 13//13
f 1//1 12//12 7//7
f 2//2 8//8 10//10
f 4//4 14//14 8//8
f 15//15 9//9 5//5
f 9//9 11//11 3//3
f 5//5 10//10 16//16
f 17//17 6//6 11//11
f 12//12 6//6 18//18
f 7//7 19//19 13//13
f 14//14 4//4 13//13
f 12//12 20//20 7//7
f 8//8 21//21 10//10
f 22//22 8//8 14//14
f 9//9 15//15 23//23
f 16//16 15//15 5//5
f 11//11 9//9 24//24
f 21//21 16//16 10//10
f 6//6 17//17 18//18
f 17//17 11//11 25//25
f 26//26 12//12 18//18
f 19//19 7//7 20//20
f 27//27 13//13 19//19
f 13//13 27//27 14//14
f 20//20 12//12 28//28
f 21//21 8//8 29//29
f 22//22 29//29 8//8
f 30//30 22//22 14//14
f 31//31 23//23 15//15
f 23//23 24//24 9//9
f 15//15 16//16 32//32
f 11//11 24//24 25//25
f 21//21 33//33 16//16
f 17//17 34//34 18//18
f 17//17 25//25 35//35
f 28//28 12//12 26//26
f 26//26 18//18 34//34
f 20//20 36//36 19//19
f 19//19 37//37 27//27
f 30//30 14//14 27//27
f 28//28 38//38 20//20
f 39//39 21//40 29//41
f 29//41 22//42 40//43
f 22//42 30//44 41//45
f 23//23 31//31 42//46
f 15//15 43//47 31//31
f 24//24 23//23 44//48
f 33//33 32//32 16//16
f 43//47 15//15 32//32
f 24//24 45//49 25//25
f 21//40 46//50 33//51
f 34//34 17//17 47//52
f 35//35 25//25 48//53
f 17//17 35//35 47//52
f 49//54 28//28 26//26
f 26//26 34//34 50//55
f 36//36 20//20 38//38
f 37//37 19//19 36//36
f 51//56 27//27 37//37
f 30//30 27//27 51//56
f 38//38 28//28 52//57
f 21//40 39//39 46//50
f 29//41 40//43 39//39
f 22//42 41//45 40//43
f 30//44 53//58 41//45
f 54//59 42//46 31//31
f 42//46 44//48 23//23
f 55//60 31//31 43//47
f 24//24 44//48 45//49
f 33//33 56//61 32//32
f 56//61 43//47 32//32
f 25//25 45//49 48//53
f 33//51 46//50 57//62
f 58//63 34//34 47//52
f 59//64 35//35 48//53
f 60//65 47//52 35//35
f 28//28 49//54 52//57
f 49//54 26//26 50//55
f 61//66 50//55 34//34
f 38//38 62//67 36//36
f 36//36 63//68 37//37
f 51//56 37//37 63//68
f 30//44 51//56 53//58
f 52//57 64//69 38//38
f 65//70 46//50 39//39
f 40//43 66//71 39//39
f 41//45 67//72 40//43
f 41//45 53//58 68//73
f 42//46 54//59 69//74
f 31//31 55//60 54//59
f 44//48 42//46 70//75
f 71//76 55//60 43//47
f 44//48 72//77 45//49
f 33//51 57//62 56//78
f 56//61 73//79 43//47
f 45//49 74//80 48//53
f 57//62 46//50 75//81
f 34//34 58//63 61//66
f 47//52 60//65 58//63
f 35//35 59//64 60//65
f 48//53 76//82 59//64
f 52//57 49//54 77//83
f 49//54 50//55 78//84
f 50//55 61//66 79//85
f 62//67 38//38 64//69
f 63//68 36//36 62//67
f 51//56 63//68 80//86
f 51//56 80//86 53//58
f 64//69 52//57 81//87
f 46//50 65//70 75//81
f 39//39 66//71 65//70
f 40//43 67//72 66//71
f 41//45 68//73 67//72
f 53//58 82//88 68//73
f 83//89 69//74 54//59
f 69//74 70//75 42//46
f 83//89 54//59 55//60
f 44//48 70//75 72//77
f 83//89 55//60 71//76
f 73//79 71//76 43//47
f 45//49 72//77 74//80
f 56//78 57//62 84//90
f 56//78 84//90 73//79
f 76//82 48//53 74//80
f 57//62 75//81 85//91
f 86//92 61//66 58//63
f 60//65 86//92 58//63
f 59//64 87//93 60//65
f 88//94 59//64 76//82
f 49//54 78//84 77//83
f 52//57 77//83 89//95
f 50//55 90//96 78//84
f 61//66 91//97 79//85
f 90//96 50//55 79//85
f 62//67 64//69 92//98
f 63//68 62//67 93//99
f 80//86 63//68 94//100
f 80//86 82//88 53//58
f 52//57 89//95 81//87
f 64//69 81//87 95//101
f 96//102 75//103 65//104
f 66//105 97//106 65//104
f 67//107 98//108 66//105
f 68//73 99//109 67//107
f 82//88 100//110 68//73
f 83//89 101//111 69//74
f 70//75 69//74 101//111
f 70//75 101//111 72//77
f 102//112 83//112 71//112
f 73//79 102//113 71//76
f 72//77 103//114 74//80
f 84//90 57//62 85//91
f 73//79 84//90 104//115
f 74//80 105//116 76//82
f 75//103 106//117 85//118
f 61//66 86//92 107//119
f 86//92 60//65 87//93
f 87//93 59//64 108//120
f 59//64 88//94 108//120
f 76//82 109//121 88//94
f 77//83 78//84 110//122
f 77//83 111//123 89//95
f 112//124 78//84 90//96
f 91//97 61//66 107//119
f 91//97 90//96 79//85
f 92//98 64//69 95//101
f 93//99 62//67 92//98
f 94//100 63//68 93//99
f 80//86 94//100 113//125
f 80//86 113//125 82//88
f 81//87 89//95 114//126
f 95//101 81//87 114//126
f 75//103 96//102 106//117
f 97//106 96//102 65//104
f 98//108 97//106 66//105
f 67//107 99//109 98//108
f 100//110 99//109 68//73
f 82//88 115//127 100//110
f 83//89 103//114 101//111
f 101//111 103//114 72//77
f 102//112 116//112 83//112
f 73//79 104//115 102//113
f 103//114 117//128 74//80
f 84//90 85//91 118//129
f 84//90 118//129 104//115
f 105//116 74//80 117//128
f 109//121 76//82 105//116
f 106//117 119//130 85//118
f 86//92 120//131 107//119
f 86//92 87//93 121//132
f 87//93 108//120 122//133
f 88//94 123//134 108//120
f 109//121 123//134 88//94
f 78//84 112//124 110//122
f 77//83 110//122 111//123
f 89//95 111//123 124//135
f 90//96 125//136 112//124
f 120//131 91//97 107//119
f 90//96 91//97 126//137
f 92//98 95//101 127//138
f 93//99 92//98 128//139
f 94//100 93//99 129//140
f 94//100 130//141 113//125
f 82//88 113//125 115//127
f 114//126 89//95 124//135
f 95//101 114//126 131//142
f 96//102 132//143 106//117
f 97//106 133//144 96//102
f 134//145 97//106 98//108
f 135//146 98//108 99//109
f 100//110 136//147 99//109
f 115//127 137//148 100//110
f 83//89 117//128 103//114
f 116//112 102//112 138//112
f 116//89 139//149 83//89
f 104//115 138//150 102//113
f 119//130 118//151 85//118
f 104//115 118//129 140//152
f 83//89 105//116 117//128
f 83//89 109//121 105//116
f 106//117 141//153 119//130
f 120//131 86//92 142//154
f 87//93 122//133 121//132
f 86//92 121//132 142//154
f 108//120 123//134 122//133
f 109//121 139//149 123//134
f 143//155 110//122 112//124
f 110//122 143//155 111//123
f 124//135 111//123 144//156
f 125//136 90//96 126//137
f 145//157 112//124 125//136
f 91//97 120//131 146//158
f 91//97 147//159 126//137
f 127//138 95//101 148//160
f 92//98 127//138 149//161
f 128//139 92//98 150//162
f 129//140 93//99 128//139
f 94//100 129//140 130//141
f 113//125 130//141 151//163
f 113//125 151//163 115//127
f 152//164 114//126 124//135
f 131//142 114//126 152//164
f 95//101 131//142 148//160
f 132//143 96//102 133//144
f 141//153 106//117 132//143
f 133//144 97//106 153//165
f 97//106 134//145 153//165
f 98//108 135//146 134//145
f 99//109 154//166 135//146
f 100//110 137//148 136//147
f 154//166 99//109 136//147
f 115//127 155//167 137//148
f 138//150 139//149 116//89
f 83//89 139//149 109//121
f 104//115 140//152 138//150
f 119//130 156//168 118//151
f 140//152 118//151 156//168
f 157//169 119//130 141//153
f 158//170 120//131 142//154
f 121//132 122//133 159//171
f 142//154 121//132 160//172
f 123//134 161//173 122//133
f 139//149 161//173 123//134
f 112//124 145//157 143//155
f 111//123 143//155 144//156
f 124//135 144//156 162//174
f 125//136 126//137 147//159
f 145//157 125//136 163//175
f 164//176 146//158 120//131
f 147//159 91//97 146//158
f 148//160 129//140 127//138
f 127//138 150//162 149//161
f 92//98 149//161 165//177
f 92//98 166//178 150//162
f 150//162 129//140 128//139
f 131//142 130//141 129//140
f 167//179 151//163 130//141
f 151//163 155//167 115//127
f 152//164 124//135 162//174
f 152//164 130//141 131//142
f 131//142 129//140 148//160
f 168//180 132//143 133//144
f 169//181 141//153 132//143
f 170//182 133//144 153//165
f 171//183 153//165 134//145
f 172//184 134//145 135//146
f 173//185 135//146 154//166
f 137//148 174//186 136//147
f 136//147 174//186 154//166
f 155//167 175//187 137//148
f 138//150 176//188 139//149
f 138//150 140//152 177//189
f 119//130 157//169 156//168
f 140//152 156//168 178//190
f 141//153 179//191 157//169
f 120//131 158//170 164//176
f 142//154 160//172 158//170
f 122//133 161//173 159//171
f 121//132 159//171 160//172
f 139//149 176//188 161//173
f 143//155 145//157 180//192
f 144//156 143//155 180//192
f 162//174 144//156 181//193
f 125//136 147//159 182//194
f 125//136 182//194 163//175
f 145//157 163//175 183//195
f 146//158 164//176 184//196
f 184//196 147//159 146//158
f 127//138 129//140 150//162
f 149//161 150//162 165//177
f 92//98 165//177 185//197
f 92//98 186//198 166//178
f 186//198 150//162 166//178
f 187//199 151//163 167//179
f 167//179 130//141 188//200
f 187//199 155//167 151//163
f 162//174 130//141 152//164
f 132//143 168//180 169//181
f 133//144 170//182 168//180
f 141//153 169//181 189//201
f 153//165 171//183 170//182
f 134//145 172//184 171//183
f 135//146 173//185 172//184
f 154//166 190//202 173//185
f 137//148 175//187 174//186
f 174//186 190//202 154//166
f 187//199 175//187 155//167
f 177//189 176//188 138//150
f 140//152 178//190 177//189
f 191//203 156//168 157//169
f 156//168 191//203 178//190
f 179//191 141//153 189//201
f 192//204 157//169 179//191
f 158//170 193//205 164//176
f 160//172 194//206 158//170
f 195//207 159//171 161//173
f 159//171 196//208 160//172
f 197//209 161//173 176//188
f 180//192 145//157 183//195
f 144//156 180//192 181//193
f 181//193 130//141 162//174
f 147//159 198//210 182//194
f 182//194 199//211 163//175
f 183//195 163//175 200//212
f 193//205 184//196 164//176
f 147//159 184//196 201//213
f 165//177 150//162 185//197
f 92//98 185//197 202//214
f 92//98 203//215 186//198
f 203//215 150//162 186//198
f 167//179 204//216 187//199
f 188//200 130//141 205//217
f 188//200 200//212 167//179
f 206//218 169//181 168//180
f 170//182 206//218 168//180
f 207//219 189//201 169//181
f 208//220 170//182 171//183
f 209//221 171//183 172//184
f 210//222 172//184 173//185
f 190//202 211//223 173//185
f 175//187 212//224 174//186
f 174//186 213//225 190//202
f 187//199 212//224 175//187
f 214//226 176//188 177//189
f 178//190 214//226 177//189
f 157//169 192//204 191//203
f 214//226 178//190 191//203
f 189//201 215//227 179//191
f 179//191 216//228 192//204
f 193//205 158//170 194//206
f 194//206 160//172 196//208
f 159//171 195//207 217//229
f 161//173 197//209 195//207
f 196//208 159//171 217//229
f 218//230 197//209 176//188
f 180//192 183//195 205//217
f 181//193 180//192 205//217
f 205//217 130//141 181//193
f 198//210 147//159 201//213
f 199//211 182//194 198//210
f 163//175 199//211 200//212
f 183//195 200//212 188//200
f 184//196 193//205 219//231
f 219//231 201//213 184//196
f 185//197 150//162 202//214
f 92//98 202//214 220//232
f 92//98 221//233 203//215
f 221//233 150//162 203//215
f 200//212 204//216 167//179
f 187//199 204//216 222//234
f 205//217 183//195 188//200
f 169//181 206//218 207//219
f 206//218 170//182 223//235
f 189//201 207//219 224//236
f 170//182 208//220 223//235
f 171//183 209//221 208//220
f 172//184 210//222 209//221
f 173//185 211//223 210//222
f 190//202 225//237 211//223
f 212//224 226//238 174//186
f 227//239 213//225 174//186
f 213//225 228//240 190//202
f 187//199 226//238 212//224
f 218//230 176//188 214//226
f 218//230 191//203 192//204
f 191//203 218//230 214//226
f 215//227 189//201 224//236
f 216//228 179//191 215//227
f 229//241 192//204 216//228
f 194//206 230//242 193//205
f 196//208 231//243 194//206
f 195//207 232//244 217//229
f 197//209 232//244 195//207
f 217//229 233//245 196//208
f 229//241 197//209 218//230
f 201//213 234//246 198//210
f 198//210 235//247 199//211
f 200//212 199//211 204//216
f 230//242 219//231 193//205
f 201//213 219//231 236//248
f 202//214 150//162 220//232
f 92//98 220//232 237//249
f 92//98 238//250 221//233
f 238//250 150//162 221//233
f 204//216 235//247 222//234
f 187//199 222//234 239//251
f 240//252 207//219 206//218
f 241//253 206//218 223//235
f 242//254 224//236 207//219
f 243//255 223//235 208//220
f 209//221 244//256 208//220
f 210//222 244//256 209//221
f 211//223 245//257 210//222
f 228//240 225//237 190//202
f 225//237 246//258 211//223
f 226//238 247//259 174//186
f 187//199 213//225 227//239
f 248//260 227//239 174//186
f 187//199 228//240 213//225
f 187//199 247//259 226//238
f 192//204 229//241 218//230
f 249//261 215//227 224//236
f 216//228 215//227 250//262
f 229//241 216//228 251//263
f 230//242 194//206 231//243
f 231//243 196//208 233//245
f 217//229 232//244 252//264
f 197//209 253//265 232//244
f 233//245 217//229 252//264
f 229//241 253//265 197//209
f 234//246 201//213 236//248
f 235//247 198//210 234//246
f 204//216 199//211 235//247
f 219//231 230//242 254//266
f 254//266 236//248 219//231
f 220//232 150//162 237//249
f 92//98 237//249 238//250
f 237//249 150//162 238//250
f 222//234 235//247 255//267
f 239//251 222//234 256//268
f 239//251 228//240 187//199
f 207//219 240//252 242//254
f 241//253 240//252 206//218
f 243//255 241//253 223//235
f 249//261 224//236 242//254
f 208//220 244//256 243//255
f 210//222 257//269 244//256
f 211//223 246//258 245//257
f 210//222 245//257 257//269
f 239//251 225//237 228//240
f 258//270 246//258 225//237
f 247//259 259//271 174//186
f 187//199 227//239 248//260
f 260//272 248//260 174//186
f 187//199 259//271 247//259
f 250//262 215//227 249//261
f 216//228 250//262 261//273
f 216//228 261//273 251//263
f 251//263 262//274 229//241
f 231//243 263//275 230//242
f 233//245 264//276 231//243
f 265//277 252//264 232//244
f 262//274 232//244 253//265
f 252//264 266//278 233//245
f 229//241 262//274 253//265
f 234//246 236//248 267//279
f 235//247 234//246 255//267
f 263//275 254//266 230//242
f 236//248 254//266 267//279
f 222//234 255//267 256//268
f 239//251 256//268 268//280
f 269//281 242//254 240//252
f 270//282 240//252 241//253
f 271//283 241//253 243//255
f 272//284 249//261 242//254
f 244//256 273//285 243//255
f 257//269 273//285 244//256
f 246//258 274//286 245//257
f 245//257 275//287 257//269
f 268//280 225//237 239//251
f 246//258 258//270 274//286
f 258//270 225//237 268//280
f 259//271 276//288 174//186
f 187//199 248//260 260//272
f 277//289 260//272 174//186
f 187//199 276//288 259//271
f 278//290 250//262 249//261
f 261//273 250//262 279//291
f 251//263 261//273 280//292
f 262//274 251//263 280//292
f 263//275 231//243 264//276
f 264//276 233//245 266//278
f 252//264 265//277 281//293
f 232//244 262//274 265//277
f 266//278 252//264 281//293
f 234//246 267//279 282//294
f 234//246 282//294 255//267
f 254//266 263//275 283//295
f 283//295 267//279 254//266
f 256//268 255//267 284//296
f 268//280 256//268 285//297
f 242//254 269//281 272//284
f 270//282 269//281 240//252
f 271//283 270//282 241//253
f 273//285 271//283 243//255
f 278//290 249//261 272//284
f 257//269 286//298 273//285
f 274//286 275//287 245//257
f 275//287 286//298 257//269
f 258//270 275//287 274//286
f 268//280 285//297 258//270
f 276//288 287//299 174//186
f 187//199 260//272 277//289
f 288//300 277//289 174//186
f 187//199 287//299 276//288
f 279//291 250//262 278//290
f 261//273 279//291 289//301
f 280//292 261//273 289//301
f 280//292 265//277 262//274
f 264//276 269//281 263//275
f 278//290 264//276 266//278
f 289//301 281//293 265//277
f 279//291 266//278 281//293
f 267//279 290//302 282//294
f 282//294 284//296 255//267
f 263//275 270//282 283//295
f 267//279 283//295 291//303
f 256//268 284//296 285//297
f 269//281 264//276 272//284
f 270//282 263//275 269//281
f 271//283 283//295 270//282
f 273//285 291//303 271//283
f 264//276 278//290 272//284
f 286//298 290//302 273//285
f 285//297 286//298 275//287
f 258//270 285//297 275//287
f 287//299 292//304 174//186
f 187//199 277//289 288//300
f 292//304 288//300 174//186
f 187//199 292//304 287//299
f 266//278 279//291 278//290
f 281//293 289//301 279//291
f 265//277 280//292 289//301
f 290//302 267//279 291//303
f 284//296 282//294 290//302
f 283//295 271//283 291//303
f 285//297 284//296 286//298
f 291//303 273//285 290//302
f 290//302 286//298 284//296
f 187//199 288//300 292//304
usemtl material_1_0
f 3//305 2//306 1//307
f 4//308 1//307 2//306
f 2//306 3//305 5//309
f 1//307 6//310 3//305
f 1//307 4//308 7//311
f 4//308 2//306 8//312
f 9//313 5//309 3//305
f 2//306 5//309 10//314
f 11//315 3//305 6//310
f 6//310 1//307 12//316
f 13//317 7//311 4//308
f 7//311 12//316 1//307
f 10//314 8//312 2//306
f 8//312 14//318 4//308
f 5//309 9//313 15//319
f 3//305 11//315 9//313
f 16//320 10//314 5//309
f 11//315 6//310 17//321
f 18//322 6//310 12//316
f 13//317 19//323 7//311
f 13//317 4//308 14//318
f 7//311 20//324 12//316
f 10//314 21//325 8//312
f 14//318 8//312 22//326
f 23//327 15//319 9//313
f 5//309 15//319 16//320
f 24//328 9//313 11//315
f 10//314 16//320 21//325
f 18//322 17//321 6//310
f 25//329 11//315 17//321
f 18//322 12//316 26//330
f 20//324 7//311 19//323
f 19//323 13//317 27//331
f 14//318 27//331 13//317
f 28//332 12//316 20//324
f 29//333 8//312 21//325
f 8//312 29//333 22//326
f 14//318 22//326 30//334
f 15//319 23//327 31//335
f 9//313 24//328 23//327
f 32//336 16//320 15//319
f 25//329 24//328 11//315
f 16//320 33//337 21//325
f 18//322 34//338 17//321
f 35//339 25//329 17//321
f 26//330 12//316 28//332
f 34//338 18//322 26//330
f 19//323 36//340 20//324
f 27//331 37//341 19//323
f 27//331 14//318 30//334
f 20//324 38//342 28//332
f 29//343 21//344 39//345
f 40//346 22//347 29//343
f 41//348 30//349 22//347
f 42//350 31//335 23//327
f 31//335 43//351 15//319
f 44//352 23//327 24//328
f 16//320 32//336 33//337
f 32//336 15//319 43//351
f 25//329 45//353 24//328
f 33//354 46//355 21//344
f 47//356 17//321 34//338
f 48//357 25//329 35//339
f 47//356 35//339 17//321
f 26//330 28//332 49//358
f 50//359 34//338 26//330
f 38//342 20//324 36//340
f 36//340 19//323 37//341
f 37//341 27//331 51//360
f 51//360 27//331 30//334
f 52//361 28//332 38//342
f 46//355 39//345 21//344
f 39//345 40//346 29//343
f 40//346 41//348 22//347
f 41//348 53//362 30//349
f 31//335 42//350 54//363
f 23//327 44//352 42//350
f 43//351 31//335 55//364
f 45//353 44//352 24//328
f 32//336 56//365 33//337
f 32//336 43//351 56//365
f 48//357 45//353 25//329
f 57//366 46//355 33//354
f 47//356 34//338 58//367
f 48//357 35//339 59//368
f 35//339 47//356 60//369
f 52//361 49//358 28//332
f 50//359 26//330 49//358
f 34//338 50//359 61//370
f 36//340 62//371 38//342
f 37//341 63//372 36//340
f 63//372 37//341 51//360
f 53//362 51//360 30//349
f 38//342 64//373 52//361
f 39//345 46//355 65//374
f 39//345 66//375 40//346
f 40//346 67//376 41//348
f 68//377 53//362 41//348
f 69//378 54//363 42//350
f 54//363 55//364 31//335
f 70//379 42//350 44//352
f 43//351 55//364 71//380
f 45//353 72//381 44//352
f 56//382 57//366 33//354
f 43//351 73//383 56//365
f 48//357 74//384 45//353
f 75//385 46//355 57//366
f 61//370 58//367 34//338
f 58//367 60//369 47//356
f 60//369 59//368 35//339
f 59//368 76//386 48//357
f 77//387 49//358 52//361
f 78//388 50//359 49//358
f 79//389 61//370 50//359
f 64//373 38//342 62//371
f 62//371 36//340 63//372
f 80//390 63//372 51//360
f 53//362 80//390 51//360
f 81//391 52//361 64//373
f 75//385 65//374 46//355
f 65//374 66//375 39//345
f 66//375 67//376 40//346
f 67//376 68//377 41//348
f 68//377 82//392 53//362
f 54//363 69//378 83//393
f 42//350 70//379 69//378
f 55//364 54//363 83//393
f 72//381 70//379 44//352
f 71//380 55//364 83//393
f 43//351 71//380 73//383
f 74//384 72//381 45//353
f 84//394 57//366 56//382
f 73//383 84//394 56//382
f 74//384 48//357 76//386
f 85//395 75//385 57//366
f 58//367 61//370 86//396
f 58//367 86//396 60//369
f 60//369 87//397 59//368
f 76//386 59//368 88//398
f 77//387 78//388 49//358
f 89//399 77//387 52//361
f 78//388 90//400 50//359
f 79//389 91//401 61//370
f 79//389 50//359 90//400
f 92//402 64//373 62//371
f 93//403 62//371 63//372
f 94//404 63//372 80//390
f 53//362 82//392 80//390
f 81//391 89//399 52//361
f 95//405 81//391 64//373
f 65//406 75//407 96//408
f 65//406 97//409 66//410
f 66//410 98//411 67//412
f 67//412 99//413 68//377
f 68//377 100//414 82//392
f 69//378 101//415 83//393
f 101//415 69//378 70//379
f 72//381 101//415 70//379
f 71//416 83//416 102//416
f 71//380 102//417 73//383
f 74//384 103//418 72//381
f 85//395 57//366 84//394
f 104//419 84//394 73//383
f 76//386 105//420 74//384
f 85//421 106//422 75//407
f 107//423 86//396 61//370
f 87//397 60//369 86//396
f 108//424 59//368 87//397
f 108//424 88//398 59//368
f 88//398 109//425 76//386
f 110//426 78//388 77//387
f 89//399 111//427 77//387
f 90//400 78//388 112//428
f 107//423 61//370 91//401
f 79//389 90//400 91//401
f 95//405 64//373 92//402
f 92//402 62//371 93//403
f 93//403 63//372 94//404
f 113//429 94//404 80//390
f 82//392 113//429 80//390
f 114//430 89//399 81//391
f 114//430 81//391 95//405
f 106//422 96//408 75//407
f 65//406 96//408 97//409
f 66//410 97//409 98//411
f 98//411 99//413 67//412
f 68//377 99//413 100//414
f 100//414 115//431 82//392
f 101//415 103//418 83//393
f 72//381 103//418 101//415
f 83//416 116//416 102//416
f 102//417 104//419 73//383
f 74//384 117//432 103//418
f 118//433 85//395 84//394
f 104//419 118//433 84//394
f 117//432 74//384 105//420
f 105//420 76//386 109//425
f 85//421 119//434 106//422
f 107//423 120//435 86//396
f 121//436 87//397 86//396
f 122//437 108//424 87//397
f 108//424 123//438 88//398
f 88//398 123//438 109//425
f 110//426 112//428 78//388
f 111//427 110//426 77//387
f 124//439 111//427 89//399
f 112//428 125//440 90//400
f 107//423 91//401 120//435
f 126//441 91//401 90//400
f 127//442 95//405 92//402
f 128//443 92//402 93//403
f 129//444 93//403 94//404
f 113//429 130//445 94//404
f 115//431 113//429 82//392
f 124//439 89//399 114//430
f 131//446 114//430 95//405
f 106//422 132//447 96//408
f 96//408 133//448 97//409
f 98//411 97//409 134//449
f 99//413 98//411 135//450
f 99//413 136//451 100//414
f 100//414 137//452 115//431
f 103//418 117//432 83//393
f 138//416 102//416 116//416
f 83//393 139//453 116//393
f 102//417 138//454 104//419
f 85//421 118//455 119//434
f 140//456 118//433 104//419
f 117//432 105//420 83//393
f 105//420 109//425 83//393
f 119//434 141//457 106//422
f 142//458 86//396 120//435
f 121//436 122//437 87//397
f 142//458 121//436 86//396
f 122//437 123//438 108//424
f 123//438 139//453 109//425
f 112//428 110//426 143//459
f 111//427 143//459 110//426
f 144//460 111//427 124//439
f 126//441 90//400 125//440
f 125//440 112//428 145//461
f 146//462 120//435 91//401
f 126//441 147//463 91//401
f 148//464 95//405 127//442
f 149//465 127//442 92//402
f 150//466 92//402 128//443
f 128//443 93//403 129//444
f 130//445 129//444 94//404
f 151//467 130//445 113//429
f 115//431 151//467 113//429
f 124//439 114//430 152//468
f 152//468 114//430 131//446
f 148//464 131//446 95//405
f 133//448 96//408 132//447
f 132//447 106//422 141//457
f 153//469 97//409 133//448
f 153//469 134//449 97//409
f 134//449 135//450 98//411
f 135//450 154//470 99//413
f 136//451 137//452 100//414
f 136//451 99//413 154//470
f 137//452 155//471 115//431
f 116//393 139//453 138//454
f 109//425 139//453 83//393
f 138//454 140//456 104//419
f 118//455 156//472 119//434
f 156//472 118//455 140//456
f 141//457 119//434 157//473
f 142//458 120//435 158//474
f 159//475 122//437 121//436
f 160//476 121//436 142//458
f 122//437 161//477 123//438
f 123//438 161//477 139//453
f 143//459 145//461 112//428
f 144//460 143//459 111//427
f 162//478 144//460 124//439
f 147//463 126//441 125//440
f 163//479 125//440 145//461
f 120//435 146//462 164//480
f 146//462 91//401 147//463
f 127//442 129//444 148//464
f 149//465 150//466 127//442
f 165//481 149//465 92//402
f 150//466 166//482 92//402
f 128//443 129//444 150//466
f 129//444 130//445 131//446
f 130//445 151//467 167//483
f 115//431 155//471 151//467
f 162//478 124//439 152//468
f 131//446 130//445 152//468
f 148//464 129//444 131//446
f 133//448 132//447 168//484
f 132//447 141//457 169//485
f 153//469 133//448 170//486
f 134//449 153//469 171//487
f 135//450 134//449 172//488
f 154//470 135//450 173//489
f 136//451 174//490 137//452
f 154//470 174//490 136//451
f 137//452 175//491 155//471
f 139//453 176//492 138//454
f 177//493 140//456 138//454
f 156//472 157//473 119//434
f 178//494 156//472 140//456
f 157//473 179//495 141//457
f 164//480 158//474 120//435
f 158//474 160//476 142//458
f 159//475 161//477 122//437
f 160//476 159//475 121//436
f 161//477 176//492 139//453
f 180//496 145//461 143//459
f 180//496 143//459 144//460
f 181//497 144//460 162//478
f 182//498 147//463 125//440
f 163//479 182//498 125//440
f 183//499 163//479 145//461
f 184//500 164//480 146//462
f 146//462 147//463 184//500
f 150//466 129//444 127//442
f 165//481 150//466 149//465
f 185//501 165//481 92//402
f 166//482 186//502 92//402
f 166//482 150//466 186//502
f 167//483 151//467 187//503
f 188//504 130//445 167//483
f 151//467 155//471 187//503
f 152//468 130//445 162//478
f 169//485 168//484 132//447
f 168//484 170//486 133//448
f 189//505 169//485 141//457
f 170//486 171//487 153//469
f 171//487 172//488 134//449
f 172//488 173//489 135//450
f 173//489 190//506 154//470
f 174//490 175//491 137//452
f 154//470 190//506 174//490
f 155//471 175//491 187//503
f 138//454 176//492 177//493
f 177//493 178//494 140//456
f 157//473 156//472 191//507
f 178//494 191//507 156//472
f 189//505 141//457 179//495
f 179//495 157//473 192//508
f 164//480 193//509 158//474
f 158//474 194//510 160//476
f 161//477 159//475 195//511
f 160//476 196//512 159//475
f 176//492 161//477 197//513
f 183//499 145//461 180//496
f 181//497 180//496 144//460
f 162//478 130//445 181//497
f 182//498 198//514 147//463
f 163//479 199//515 182//498
f 200//516 163//479 183//499
f 164//480 184//500 193//509
f 201//517 184//500 147//463
f 185//501 150//466 165//481
f 202//518 185//501 92//402
f 186//502 203//519 92//402
f 186//502 150//466 203//519
f 187//503 204//520 167//483
f 205//521 130//445 188//504
f 167//483 200//516 188//504
f 168//484 169//485 206//522
f 168//484 206//522 170//486
f 169//485 189//505 207//523
f 171//487 170//486 208//524
f 172//488 171//487 209//525
f 173//489 172//488 210//526
f 173//489 211//527 190//506
f 174//490 212//528 175//491
f 190//506 213//529 174//490
f 175//491 212//528 187//503
f 177//493 176//492 214//530
f 177//493 214//530 178//494
f 191//507 192//508 157//473
f 191//507 178//494 214//530
f 179//495 215//531 189//505
f 192//508 216//532 179//495
f 194//510 158//474 193//509
f 196//512 160//476 194//510
f 217//533 195//511 159//475
f 195//511 197//513 161//477
f 217//533 159//475 196//512
f 176//492 197//513 218//534
f 205//521 183//499 180//496
f 205//521 180//496 181//497
f 181//497 130//445 205//521
f 201//517 147//463 198//514
f 198//514 182//498 199//515
f 200//516 199//515 163//479
f 188//504 200//516 183//499
f 219//535 193//509 184//500
f 184//500 201//517 219//535
f 202//518 150//466 185//501
f 220//536 202//518 92//402
f 203//519 221//537 92//402
f 203//519 150//466 221//537
f 167//483 204//520 200//516
f 222//538 204//520 187//503
f 188//504 183//499 205//521
f 207//523 206//522 169//485
f 223//539 170//486 206//522
f 224//540 207//523 189//505
f 223//539 208//524 170//486
f 208//524 209//525 171//487
f 209//525 210//526 172//488
f 210//526 211//527 173//489
f 211//527 225//541 190//506
f 174//490 226//542 212//528
f 174//490 213//529 227//543
f 190//506 228//544 213//529
f 212//528 226//542 187//503
f 214//530 176//492 218//534
f 192//508 191//507 218//534
f 214//530 218//534 191//507
f 224//540 189//505 215//531
f 215//531 179//495 216//532
f 216//532 192//508 229//545
f 193//509 230//546 194//510
f 194//510 231//547 196//512
f 217//533 232//548 195//511
f 195//511 232//548 197//513
f 196//512 233//549 217//533
f 218//534 197//513 229//545
f 198//514 234//550 201//517
f 199//515 235//551 198//514
f 204//520 199//515 200//516
f 193//509 219//535 230//546
f 236//552 219//535 201//517
f 220//536 150//466 202//518
f 237//553 220//536 92//402
f 221//537 238//554 92//402
f 221//537 150//466 238//554
f 222//538 235//551 204//520
f 239//555 222//538 187//503
f 206//522 207//523 240//556
f 223//539 206//522 241//557
f 207//523 224//540 242//558
f 208//524 223//539 243//559
f 208//524 244//560 209//525
f 209//525 244//560 210//526
f 210//526 245//561 211//527
f 190//506 225//541 228//544
f 211//527 246//562 225//541
f 174//490 247//563 226//542
f 227//543 213//529 187//503
f 174//490 227//543 248//564
f 213//529 228//544 187//503
f 226//542 247//563 187//503
f 218//534 229//545 192//508
f 224//540 215//531 249//565
f 250//566 215//531 216//532
f 251//567 216//532 229//545
f 231//547 194//510 230//546
f 233//549 196//512 231//547
f 252//568 232//548 217//533
f 232//548 253//569 197//513
f 252//568 217//533 233//549
f 197//513 253//569 229//545
f 236//552 201//517 234//550
f 234//550 198//514 235//551
f 235//551 199//515 204//520
f 254//570 230//546 219//535
f 219//535 236//552 254//570
f 237//553 150//466 220//536
f 238//554 237//553 92//402
f 238//554 150//466 237//553
f 255//571 235//551 222//538
f 256//572 222//538 239//555
f 187//503 228//544 239//555
f 242//558 240//556 207//523
f 206//522 240//556 241//557
f 223//539 241//557 243//559
f 242//558 224//540 249//565
f 243//559 244//560 208//524
f 244//560 257//573 210//526
f 245//561 246//562 211//527
f 257//573 245//561 210//526
f 228//544 225//541 239//555
f 225//541 246//562 258//574
f 174//490 259//575 247//563
f 248//564 227//543 187//503
f 174//490 248//564 260//576
f 247//563 259//575 187//503
f 249//565 215//531 250//566
f 261//577 250//566 216//532
f 251//567 261//577 216//532
f 229//545 262//578 251//567
f 230//546 263//579 231//547
f 231//547 264//580 233//549
f 232//548 252//568 265//581
f 253//569 232//548 262//578
f 233//549 266//582 252//568
f 253//569 262//578 229//545
f 267//583 236//552 234//550
f 255//571 234//550 235//551
f 230//546 254//570 263//579
f 267//583 254//570 236//552
f 256//572 255//571 222//538
f 268//584 256//572 239//555
f 240//556 242//558 269//585
f 241//557 240//556 270//586
f 243//559 241//557 271//587
f 242//558 249//565 272//588
f 243//559 273//589 244//560
f 244//560 273//589 257//573
f 245//561 274//590 246//562
f 257//573 275//591 245//561
f 239//555 225//541 268//584
f 274//590 258//574 246//562
f 268//584 225//541 258//574
f 174//490 276//592 259//575
f 260//576 248//564 187//503
f 174//490 260//576 277//593
f 259//575 276//592 187//503
f 249//565 250//566 278//594
f 279//595 250//566 261//577
f 280//596 261//577 251//567
f 280//596 251//567 262//578
f 264//580 231//547 263//579
f 266//582 233//549 264//580
f 281//597 265//581 252//568
f 265//581 262//578 232//548
f 281//597 252//568 266//582
f 282//598 267//583 234//550
f 255//571 282//598 234//550
f 283//599 263//579 254//570
f 254//570 267//583 283//599
f 284//600 255//571 256//572
f 285//601 256//572 268//584
f 272//588 269//585 242//558
f 240//556 269//585 270//586
f 241//557 270//586 271//587
f 243//559 271//587 273//589
f 272//588 249//565 278//594
f 273//589 286//602 257//573
f 245//561 275//591 274//590
f 257//573 286//602 275//591
f 274//590 275//591 258//574
f 258//574 285//601 268//584
f 174//490 287//603 276//592
f 277//593 260//576 187//503
f 174//490 277//593 288//604
f 276//592 287//603 187//503
f 278//594 250//566 279//595
f 289//605 279//595 261//577
f 289//605 261//577 280//596
f 262//578 265//581 280//596
f 263//579 269//585 264//580
f 266//582 264//580 278//594
f 265//581 281//597 289//605
f 281//597 266//582 279//595
f 282//598 290//606 267//583
f 255//571 284//600 282//598
f 283//599 270//586 263//579
f 291//607 283//599 267//583
f 285//601 284//600 256//572
f 272//588 264//580 269//585
f 269//585 263//579 270//586
f 270//586 283//599 271//587
f 271//587 291//607 273//589
f 272//588 278//594 264//580
f 273//589 290//606 286//602
f 275//591 286//602 285//601
f 275//591 285//601 258//574
f 174//490 292//608 287//603
f 288//604 277//593 187//503
f 174//490 288//604 292//608
f 287//603 292//608 187//503
f 278//594 279//595 266//582
f 279//595 289//605 281//597
f 289//605 280//596 265//581
f 291//607 267//583 290//606
f 290//606 282//598 284//600
f 291//607 271//587 283//599
f 286//602 284//600 285//601
f 290//606 273//589 291//607
f 284//600 286//602 290//606
f 292//608 288//604 187//503
