# SSTK version 0.8.0
# 33
mtllib original-33.mtl
o mesh25/mesh25-geometry#mesh25-geometry
v 0.000261 0.642494 0.356701
v 0.000262 0.639143 0.356890
v 0.000454 0.640819 0.356795
v -0.000290 0.644033 0.356617
v 0.000449 0.640819 0.355635
v 0.000255 0.642494 0.355541
v -0.000296 0.644033 0.355457
v -0.000289 0.637604 0.356980
v 0.000256 0.639143 0.355730
v -0.001160 0.645391 0.355384
v -0.001154 0.645391 0.356544
v -0.001152 0.636247 0.357061
v -0.000294 0.637604 0.355820
v -0.002288 0.646524 0.356486
v -0.002293 0.646524 0.355326
v -0.002284 0.635114 0.357130
v -0.001158 0.636247 0.355901
v -0.003646 0.647387 0.356443
v -0.003652 0.647387 0.355284
v -0.003642 0.634250 0.357185
v -0.002290 0.635114 0.355970
v -0.005185 0.647938 0.356420
v -0.005190 0.647938 0.355260
v -0.005181 0.633699 0.357224
v -0.003648 0.634250 0.356026
v -0.006860 0.648131 0.356417
v -0.006866 0.648131 0.355258
v -0.006856 0.633506 0.357243
v -0.005186 0.633699 0.356064
v -0.008536 0.647938 0.356437
v -0.008542 0.647938 0.355277
v -0.008532 0.633699 0.357241
v -0.006862 0.633506 0.356084
v -0.010074 0.647387 0.356476
v -0.010080 0.647387 0.355316
v -0.010071 0.634250 0.357218
v -0.008537 0.633699 0.356081
v -0.011432 0.646524 0.356532
v -0.011438 0.646524 0.355372
v -0.011429 0.635114 0.357176
v -0.010076 0.634250 0.356058
v -0.012564 0.645391 0.356602
v -0.012570 0.645391 0.355442
v -0.012562 0.636247 0.357118
v -0.011434 0.635114 0.356016
v -0.013434 0.644033 0.355523
v -0.013428 0.644033 0.356683
v -0.013426 0.637604 0.357046
v -0.012568 0.636247 0.355958
v -0.013984 0.642494 0.355613
v -0.013978 0.642494 0.356773
v -0.013977 0.639143 0.356962
v -0.013432 0.637604 0.355886
v -0.014177 0.640819 0.355709
v -0.014171 0.640819 0.356868
v -0.013983 0.639143 0.355802
vn 0.005028966728059654 0.05639501683242078 0.9983958691671951
vn 0.9738243399312334 -0.22724904737381846 -0.004901573746229825
vn 0.9999872748351604 0.000010999994632739807 -0.005044803935688422
vn 0.9738263536239263 0.22723997733860796 -0.004921959637819081
vn 0.8982174037704859 0.4395280757267382 -0.004534998540109481
vn 0.7800899439751882 0.6256550570591182 -0.00392796195749136
vn 0.8982063534809658 -0.4395508314089922 -0.004518094077130151
vn 0.6256480539409643 0.780099097471048 -0.003148130356324514
vn 0.7800874753704355 -0.6256581737452989 -0.0039217847821582845
vn 0.4395322352628314 0.8982240070398307 -0.0022466290679997794
vn 0.6256503497564585 -0.7800972540203798 -0.003148669478396762
vn 0.22726970985257747 0.973831103846433 -0.0012083727748955556
vn 0.4395330834066309 -0.89822373924883 -0.0021869707152680964
vn -0.00001957809989912397 1 -0.0000306218549828821
vn 0.2272694353086367 -0.9738313108377527 -0.0010871092483803
vn -0.2272706544387961 0.9738309556001262 0.001148714893411071
vn 0.00002239780792364373 -1 0.00003084377081523953
vn -0.43951694575256833 0.8982315543011087 0.0022201923674211926
vn -0.22724983246631064 -0.9738357857478731 0.0011730476786029286
vn -0.6256480456746587 0.7800990668408411 0.003157349763554131
vn -0.43955281847816735 -0.8982138870801502 0.002265573716891847
vn -0.7800892384585285 0.6256559230987582 0.003930131376180615
vn -0.6256681847691903 -0.7800828549428265 0.0031720642924528437
vn -0.8982121168526013 0.43953899269024677 0.004524051725173271
vn -0.7800875927317308 -0.625658000896568 0.003926013260746046
vn -0.9738256948449318 0.22724295307228978 0.004914909843616387
vn -0.8982071087912784 -0.4395491930542237 0.004527317328548557
vn -0.9999872567856212 -0.00000799999937243895 0.005048386115186898
vn -0.9738231168354422 -0.2272540871536635 0.00491090509575139
vn -0.005028966728059654 -0.05639501683242078 -0.9983958691671951
vn -0.9999872748351604 -0.000010999994632739807 0.005044803935688422
vn -0.9738243399312334 0.22724904737381846 0.004901573746229825
vn -0.9738263536239263 -0.22723997733860796 0.004921959637819081
vn -0.8982174037704859 -0.4395280757267382 0.004534998540109481
vn -0.7800899439751882 -0.6256550570591182 0.00392796195749136
vn -0.8982063534809658 0.4395508314089922 0.004518094077130151
vn -0.6256480539409643 -0.780099097471048 0.003148130356324514
vn -0.7800874753704355 0.6256581737452989 0.0039217847821582845
vn -0.4395322352628314 -0.8982240070398307 0.0022466290679997794
vn -0.6256503497564585 0.7800972540203798 0.003148669478396762
vn -0.22726970985257747 -0.973831103846433 0.0012083727748955556
vn -0.4395330834066309 0.89822373924883 0.0021869707152680964
vn 0.00001957809989912397 -1 0.0000306218549828821
vn -0.2272694353086367 0.9738313108377527 0.0010871092483803
vn 0.2272706544387961 -0.9738309556001262 -0.001148714893411071
vn -0.00002239780792364373 1 -0.00003084377081523953
vn 0.43951694575256833 -0.8982315543011087 -0.0022201923674211926
vn 0.22724983246631064 0.9738357857478731 -0.0011730476786029286
vn 0.6256480456746587 -0.7800990668408411 -0.003157349763554131
vn 0.43955281847816735 0.8982138870801502 -0.002265573716891847
vn 0.7800892384585285 -0.6256559230987582 -0.003930131376180615
vn 0.6256681847691903 0.7800828549428265 -0.0031720642924528437
vn 0.8982121168526013 -0.43953899269024677 -0.004524051725173271
vn 0.7800875927317308 0.625658000896568 -0.003926013260746046
vn 0.9738256948449318 -0.22724295307228978 -0.004914909843616387
vn 0.8982071087912784 0.4395491930542237 -0.004527317328548557
vn 0.9999872567856212 0.00000799999937243895 -0.005048386115186898
vn 0.9738231168354422 0.2272540871536635 -0.00491090509575139
usemtl material_0_0
f 1//1 2//1 3//1
f 2//1 1//1 4//1
f 2//2 5//3 3//3
f 3//3 6//4 1//4
f 1//4 7//5 4//5
f 2//1 4//1 8//1
f 5//3 2//2 9//2
f 6//4 3//3 5//3
f 7//5 1//4 6//4
f 10//6 4//5 7//5
f 8//1 4//1 11//1
f 8//7 9//2 2//2
f 4//5 10//6 11//6
f 8//1 11//1 12//1
f 9//2 8//7 13//7
f 10//6 14//8 11//6
f 12//1 11//1 14//1
f 12//9 13//7 8//7
f 14//8 10//6 15//8
f 12//1 14//1 16//1
f 13//7 12//9 17//9
f 15//8 18//10 14//8
f 16//1 14//1 18//1
f 16//11 17//9 12//9
f 18//10 15//8 19//10
f 16//1 18//1 20//1
f 17//9 16//11 21//11
f 19//10 22//12 18//10
f 20//1 18//1 22//1
f 20//13 21//11 16//11
f 22//12 19//10 23//12
f 20//1 22//1 24//1
f 21//11 20//13 25//13
f 23//12 26//14 22//12
f 24//1 22//1 26//1
f 24//15 25//13 20//13
f 26//14 23//12 27//14
f 24//1 26//1 28//1
f 25//13 24//15 29//15
f 27//14 30//16 26//14
f 28//1 26//1 30//1
f 28//17 29//15 24//15
f 30//16 27//14 31//16
f 28//1 30//1 32//1
f 29//15 28//17 33//17
f 31//16 34//18 30//16
f 32//1 30//1 34//1
f 32//19 33//17 28//17
f 34//18 31//16 35//18
f 32//1 34//1 36//1
f 33//17 32//19 37//19
f 35//18 38//20 34//18
f 36//1 34//1 38//1
f 36//21 37//19 32//19
f 38//20 35//18 39//20
f 36//1 38//1 40//1
f 37//19 36//21 41//21
f 39//20 42//22 38//20
f 40//1 38//1 42//1
f 40//23 41//21 36//21
f 42//22 39//20 43//22
f 40//1 42//1 44//1
f 41//21 40//23 45//23
f 46//24 42//22 43//22
f 44//1 42//1 47//1
f 44//25 45//23 40//23
f 42//22 46//24 47//24
f 44//1 47//1 48//1
f 45//23 44//25 49//25
f 50//26 47//24 46//24
f 48//1 47//1 51//1
f 48//27 49//25 44//25
f 47//24 50//26 51//26
f 48//1 51//1 52//1
f 49//25 48//27 53//27
f 54//28 51//26 50//26
f 52//1 51//1 55//1
f 52//29 53//27 48//27
f 51//26 54//28 55//28
f 55//28 56//29 52//29
f 53//27 52//29 56//29
f 56//29 55//28 54//28
usemtl material_1_0
f 3//30 2//30 1//30
f 4//30 1//30 2//30
f 3//31 5//31 2//32
f 1//33 6//33 3//31
f 4//34 7//34 1//33
f 8//30 4//30 2//30
f 9//32 2//32 5//31
f 5//31 3//31 6//33
f 6//33 1//33 7//34
f 7//34 4//34 10//35
f 11//30 4//30 8//30
f 2//32 9//32 8//36
f 11//35 10//35 4//34
f 12//30 11//30 8//30
f 13//36 8//36 9//32
f 11//35 14//37 10//35
f 14//30 11//30 12//30
f 8//36 13//36 12//38
f 15//37 10//35 14//37
f 16//30 14//30 12//30
f 17//38 12//38 13//36
f 14//37 18//39 15//37
f 18//30 14//30 16//30
f 12//38 17//38 16//40
f 19//39 15//37 18//39
f 20//30 18//30 16//30
f 21//40 16//40 17//38
f 18//39 22//41 19//39
f 22//30 18//30 20//30
f 16//40 21//40 20//42
f 23//41 19//39 22//41
f 24//30 22//30 20//30
f 25//42 20//42 21//40
f 22//41 26//43 23//41
f 26//30 22//30 24//30
f 20//42 25//42 24//44
f 27//43 23//41 26//43
f 28//30 26//30 24//30
f 29//44 24//44 25//42
f 26//43 30//45 27//43
f 30//30 26//30 28//30
f 24//44 29//44 28//46
f 31//45 27//43 30//45
f 32//30 30//30 28//30
f 33//46 28//46 29//44
f 30//45 34//47 31//45
f 34//30 30//30 32//30
f 28//46 33//46 32//48
f 35//47 31//45 34//47
f 36//30 34//30 32//30
f 37//48 32//48 33//46
f 34//47 38//49 35//47
f 38//30 34//30 36//30
f 32//48 37//48 36//50
f 39//49 35//47 38//49
f 40//30 38//30 36//30
f 41//50 36//50 37//48
f 38//49 42//51 39//49
f 42//30 38//30 40//30
f 36//50 41//50 40//52
f 43//51 39//49 42//51
f 44//30 42//30 40//30
f 45//52 40//52 41//50
f 43//51 42//51 46//53
f 47//30 42//30 44//30
f 40//52 45//52 44//54
f 47//53 46//53 42//51
f 48//30 47//30 44//30
f 49//54 44//54 45//52
f 46//53 47//53 50//55
f 51//30 47//30 48//30
f 44//54 49//54 48//56
f 51//55 50//55 47//53
f 52//30 51//30 48//30
f 53//56 48//56 49//54
f 50//55 51//55 54//57
f 55//30 51//30 52//30
f 48//56 53//56 52//58
f 55//57 54//57 51//55
f 52//58 56//58 55//57
f 56//58 52//58 53//56
f 54//57 55//57 56//58
