# SSTK version 0.8.0
# 35
mtllib original-35.mtl
o mesh27/mesh27-geometry#mesh27-geometry
v -0.011379 0.369212 0.367019
v -0.003593 0.368348 0.366995
v -0.002235 0.369212 0.366977
v -0.005131 0.367797 0.367010
v -0.002241 0.369212 0.365817
v -0.012512 0.370345 0.367010
v -0.006807 0.367604 0.367020
v -0.003598 0.368348 0.365835
v -0.001108 0.370345 0.365798
v -0.011385 0.369212 0.365859
v -0.013376 0.371702 0.366999
v -0.008482 0.367797 0.367025
v -0.005137 0.367797 0.365850
v -0.001102 0.370345 0.366958
v -0.012518 0.370345 0.365850
v -0.010027 0.368348 0.365865
v -0.013926 0.373241 0.366985
v -0.010021 0.368348 0.367025
v -0.006813 0.367604 0.365861
v -0.000244 0.371702 0.365778
v -0.012512 0.379489 0.366934
v -0.013382 0.371702 0.365839
v -0.014120 0.374917 0.366971
v -0.008488 0.367797 0.365865
v -0.000238 0.371702 0.366938
v -0.013932 0.373241 0.365826
v 0.000306 0.373241 0.365760
v 0.000312 0.373241 0.366920
v -0.013376 0.378131 0.366945
v -0.014126 0.374917 0.365811
v 0.000505 0.374917 0.366904
v -0.013382 0.378131 0.365785
v -0.013926 0.376592 0.366958
v 0.000500 0.374917 0.365744
v 0.000312 0.376592 0.366892
v -0.012518 0.379489 0.365774
v -0.013932 0.376592 0.365798
v 0.000306 0.376592 0.365732
v -0.000239 0.378131 0.366884
v -0.011385 0.380622 0.365764
v -0.000244 0.378131 0.365725
v -0.001102 0.379489 0.366881
v -0.011379 0.380622 0.366924
v -0.001108 0.379489 0.365721
v -0.002235 0.380622 0.366881
v -0.010028 0.381485 0.365755
v -0.003593 0.381485 0.366885
v -0.010022 0.381485 0.366914
v -0.002241 0.380622 0.365722
v -0.005132 0.382036 0.366890
v -0.008483 0.382036 0.366906
v -0.008489 0.382036 0.365746
v -0.003599 0.381485 0.365725
v -0.006807 0.382229 0.366897
v -0.005138 0.382036 0.365730
v -0.006813 0.382229 0.365737
vn 0.004595364682965186 0.013141995147095993 0.9999030805968068
vn 0.0045946245482804855 0.013716006791126048 0.9998953748182686
vn 0.004378058836144619 0.010582005872480718 0.9999344247262129
vn 0.4395455732795536 -0.8982175602121794 -0.002214393106097591
vn 0.62566396845253 -0.780086327132 -0.0031497304547639434
vn 0.004531777699221113 0.011982995522800431 0.9999179320370175
vn 0.22722718874213044 -0.9738411019986616 -0.001145754939203128
vn 0.7800807736462059 -0.6256664866364785 -0.0039286241233065745
vn -0.7800858468982858 -0.6256601633182836 0.0039282954984336815
vn -0.6256657114168097 -0.7800849327180674 0.003148857498442674
vn 0.004322089146808786 0.010750998429446105 0.9999328655355704
vn 7.604059657684948e-7 -1 -6.494480484740656e-7
vn -0.439550300337567 -0.8982152496926463 0.002213299060547567
vn -0.8982047332966702 -0.4395540383218612 0.004528187098773422
vn 0.003959249484047802 0.009470002910710231 0.999947320306622
vn -0.22724773533592152 -0.9738363086784044 0.0011448512192899966
vn 0.8982111329218503 -0.439540929629283 -0.004531211302948316
vn 0.00621850960682871 0.010366000078465658 0.9999269354211051
vn 0.004830633549447899 0.0075549964106411665 0.9999597926960594
vn -0.9738266554119912 -0.2272389000169511 0.004911978031418571
vn 0.0032955204749656997 0.00796200002988957 0.9999628723609307
vn -0.9999872852100197 -0.000010000003938171206 0.00504274908107252
vn 0.9738266172091419 -0.22723901675717384 -0.004914150815005648
vn 0.005845371042524954 0.009635999182597716 0.9999364875616492
vn 0.002850146234959846 0.007088998065448358 0.9999708109604336
vn 0.005260386880871838 0.008306995165604573 0.999951659912209
vn -0.7800842966029099 0.6256620376060434 0.003937625197658433
vn -0.8982047490017684 0.4395539917080338 0.004529596472555729
vn -0.9738268797291723 0.22723803003530216 0.00490775127928706
vn 0.9999872923611578 -0.000003000001535784798 -0.0050413398219389975
vn 0.0049091598889707275 0.007084999641988114 0.9999628507745965
vn 0.9738252562992756 0.22724495430536187 -0.004909270455372702
vn 0.004696983522077753 0.005629999800481477 0.9999731203627625
vn -0.6256471608737378 0.7800997733868994 0.00315810898158323
vn 0.8982111829693068 0.43954090779883204 -0.004523401403501785
vn 0.004624952362824758 0.004796998430070013 0.9999777990644111
vn 0.7800954129059691 0.625648276286027 -0.0039218800834409945
vn 0.004635359954797321 0.00411899876494746 0.999980773458802
vn -0.4395200523488676 0.8982300401073195 0.002217798920548511
vn 0.625662134129751 0.7800877978976098 -0.0031498392757809378
vn 0.004645119493785335 0.003442000095534657 0.9999832876104635
vn 0.4395218533197431 0.8982291258252921 -0.002231137268234962
vn -0.22722780485558242 0.9738409591347126 0.0011449943651854588
vn 0.22720812309259072 0.9738455148166516 -0.001175615682527799
vn -0.000010169252937244334 1 -0.000014986203474858983
vn -0.004378058836144619 -0.010582005872480718 -0.9999344247262129
vn -0.0045946245482804855 -0.013716006791126048 -0.9998953748182686
vn -0.004595364682965186 -0.013141995147095993 -0.9999030805968068
vn -0.62566396845253 0.780086327132 0.0031497304547639434
vn -0.4395455732795536 0.8982175602121794 0.002214393106097591
vn -0.004531777699221113 -0.011982995522800431 -0.9999179320370175
vn -0.22722718874213044 0.9738411019986616 0.001145754939203128
vn -0.7800807736462059 0.6256664866364785 0.0039286241233065745
vn 0.6256657114168097 0.7800849327180674 -0.003148857498442674
vn 0.7800858468982858 0.6256601633182836 -0.0039282954984336815
vn -0.004322089146808786 -0.010750998429446105 -0.9999328655355704
vn -7.604059657684948e-7 1 6.494480484740656e-7
vn 0.439550300337567 0.8982152496926463 -0.002213299060547567
vn 0.8982047332966702 0.4395540383218612 -0.004528187098773422
vn -0.003959249484047802 -0.009470002910710231 -0.999947320306622
vn 0.22724773533592152 0.9738363086784044 -0.0011448512192899966
vn -0.8982111329218503 0.439540929629283 0.004531211302948316
vn -0.004830633549447899 -0.0075549964106411665 -0.9999597926960594
vn -0.00621850960682871 -0.010366000078465658 -0.9999269354211051
vn 0.9738266554119912 0.2272389000169511 -0.004911978031418571
vn -0.0032955204749656997 -0.00796200002988957 -0.9999628723609307
vn 0.9999872852100197 0.000010000003938171206 -0.00504274908107252
vn -0.9738266172091419 0.22723901675717384 0.004914150815005648
vn -0.005845371042524954 -0.009635999182597716 -0.9999364875616492
vn -0.002850146234959846 -0.007088998065448358 -0.9999708109604336
vn -0.005260386880871838 -0.008306995165604573 -0.999951659912209
vn 0.8982047490017684 -0.4395539917080338 -0.004529596472555729
vn 0.7800842966029099 -0.6256620376060434 -0.003937625197658433
vn 0.9738268797291723 -0.22723803003530216 -0.00490775127928706
vn -0.9999872923611578 0.000003000001535784798 0.0050413398219389975
vn -0.0049091598889707275 -0.007084999641988114 -0.9999628507745965
vn -0.9738252562992756 -0.22724495430536187 0.004909270455372702
vn -0.004696983522077753 -0.005629999800481477 -0.9999731203627625
vn 0.6256471608737378 -0.7800997733868994 -0.00315810898158323
vn -0.8982111829693068 -0.43954090779883204 0.004523401403501785
vn -0.004624952362824758 -0.004796998430070013 -0.9999777990644111
vn -0.7800954129059691 -0.625648276286027 0.0039218800834409945
vn -0.004635359954797321 -0.00411899876494746 -0.999980773458802
vn 0.4395200523488676 -0.8982300401073195 -0.002217798920548511
vn -0.625662134129751 -0.7800877978976098 0.0031498392757809378
vn -0.004645119493785335 -0.003442000095534657 -0.9999832876104635
vn -0.4395218533197431 -0.8982291258252921 0.002231137268234962
vn 0.22722780485558242 -0.9738409591347126 -0.0011449943651854588
vn -0.22720812309259072 -0.9738455148166516 0.001175615682527799
vn 0.000010169252937244334 -1 0.000014986203474858983
usemtl material_0_0
f 1//1 2//2 3//3
f 2//2 1//1 4//2
f 2//4 5//5 3//5
f 6//6 1//1 3//3
f 4//2 1//1 7//2
f 4//7 8//4 2//4
f 5//5 2//4 8//4
f 9//8 3//5 5//5
f 6//9 10//10 1//10
f 11//11 6//6 3//3
f 7//2 1//1 12//2
f 7//12 13//7 4//7
f 8//4 4//7 13//7
f 3//5 9//8 14//8
f 10//10 6//9 15//9
f 16//13 1//10 10//10
f 11//14 15//9 6//9
f 17//15 11//11 3//3
f 12//2 1//1 18//2
f 12//16 19//12 7//12
f 13//7 7//12 19//12
f 20//17 14//8 9//8
f 14//18 21//19 3//3
f 1//10 16//13 18//13
f 15//9 11//14 22//14
f 17//20 22//14 11//14
f 23//21 17//15 3//3
f 18//13 24//16 12//16
f 19//12 12//16 24//16
f 14//8 20//17 25//17
f 25//18 21//19 14//18
f 21//19 23//21 3//3
f 24//16 18//13 16//13
f 22//14 17//20 26//20
f 23//22 26//20 17//20
f 27//23 25//17 20//17
f 21//19 25//18 28//24
f 23//21 21//19 29//25
f 26//20 23//22 30//22
f 25//17 27//23 28//23
f 21//19 28//24 31//26
f 21//27 32//28 29//28
f 23//21 29//25 33//25
f 33//29 30//22 23//22
f 34//30 28//23 27//23
f 28//23 34//30 31//30
f 21//19 31//26 35//31
f 32//28 21//27 36//27
f 32//28 33//29 29//28
f 30//22 33//29 37//29
f 38//32 31//30 34//30
f 31//30 38//32 35//32
f 21//19 35//31 39//33
f 21//27 40//34 36//27
f 33//29 32//28 37//29
f 41//35 35//32 38//32
f 35//32 41//35 39//35
f 42//36 21//19 39//33
f 40//34 21//27 43//34
f 44//37 39//35 41//35
f 21//19 42//36 45//38
f 39//35 44//37 42//37
f 21//19 45//38 43//38
f 43//34 46//39 40//34
f 44//37 45//40 42//37
f 47//41 43//38 45//38
f 46//39 43//34 48//39
f 45//40 44//37 49//40
f 43//38 47//41 50//41
f 49//40 47//42 45//40
f 43//38 51//41 48//41
f 48//39 52//43 46//39
f 53//42 50//44 47//42
f 43//38 50//41 54//41
f 47//42 49//40 53//42
f 43//38 54//41 51//41
f 52//43 48//39 51//43
f 50//44 53//42 55//44
f 55//44 54//45 50//44
f 56//45 51//43 54//45
f 51//43 56//45 52//43
f 54//45 55//44 56//45
usemtl material_1_0
f 3//46 2//47 1//48
f 4//47 1//48 2//47
f 3//49 5//49 2//50
f 3//46 1//48 6//51
f 7//47 1//48 4//47
f 2//50 8//50 4//52
f 8//50 2//50 5//49
f 5//49 3//49 9//53
f 1//54 10//54 6//55
f 3//46 6//51 11//56
f 12//47 1//48 7//47
f 4//52 13//52 7//57
f 13//52 4//52 8//50
f 14//53 9//53 3//49
f 15//55 6//55 10//54
f 10//54 1//54 16//58
f 6//55 15//55 11//59
f 3//46 11//56 17//60
f 18//47 1//48 12//47
f 7//57 19//57 12//61
f 19//57 7//57 13//52
f 9//53 14//53 20//62
f 3//46 21//63 14//64
f 18//58 16//58 1//54
f 22//59 11//59 15//55
f 11//59 22//59 17//65
f 3//46 17//60 23//66
f 12//61 24//61 18//58
f 24//61 12//61 19//57
f 25//62 20//62 14//53
f 14//64 21//63 25//64
f 3//46 23//66 21//63
f 16//58 18//58 24//61
f 26//65 17//65 22//59
f 17//65 26//65 23//67
f 20//62 25//62 27//68
f 28//69 25//64 21//63
f 29//70 21//63 23//66
f 30//67 23//67 26//65
f 28//68 27//68 25//62
f 31//71 28//69 21//63
f 29//72 32//72 21//73
f 33//70 29//70 23//66
f 23//67 30//67 33//74
f 27//68 28//68 34//75
f 31//75 34//75 28//68
f 35//76 31//71 21//63
f 36//73 21//73 32//72
f 29//72 33//74 32//72
f 37//74 33//74 30//67
f 34//75 31//75 38//77
f 35//77 38//77 31//75
f 39//78 35//76 21//63
f 36//73 40//79 21//73
f 37//74 32//72 33//74
f 38//77 35//77 41//80
f 39//80 41//80 35//77
f 39//78 21//63 42//81
f 43//79 21//73 40//79
f 41//80 39//80 44//82
f 45//83 42//81 21//63
f 42//82 44//82 39//80
f 43//83 45//83 21//63
f 40//79 46//84 43//79
f 42//82 45//85 44//82
f 45//83 43//83 47//86
f 48//84 43//79 46//84
f 49//85 44//82 45//85
f 50//86 47//86 43//83
f 45//85 47//87 49//85
f 48//86 51//86 43//83
f 46//84 52//88 48//84
f 47//87 50//89 53//87
f 54//86 50//86 43//83
f 53//87 49//85 47//87
f 51//86 54//86 43//83
f 51//88 48//84 52//88
f 55//89 53//87 50//89
f 50//89 54//90 55//89
f 54//90 51//88 56//90
f 52//88 56//90 51//88
f 56//90 55//89 54//90
