# SSTK version 0.8.0
# 25
mtllib original-25.mtl
o mesh18/mesh18-geometry#mesh18-geometry
v -0.031574 0.460862 0.365957
v -0.003868 0.460759 0.362898
v -0.003853 0.460862 0.365817
v -0.031589 0.460759 0.363038
v 0.000288 0.464887 0.362732
v -0.042842 0.502147 0.364557
v -0.035731 0.464990 0.365832
v -0.042857 0.502044 0.361638
v 0.000303 0.464990 0.365650
v -0.035746 0.464887 0.362913
v 0.003590 0.469016 0.362569
v 0.003604 0.469119 0.365488
v -0.039035 0.469119 0.365703
v -0.039049 0.469016 0.362784
v 0.006106 0.473144 0.362411
v 0.006120 0.473247 0.365330
v -0.041552 0.473247 0.365570
v -0.041567 0.473144 0.362651
v 0.007903 0.477273 0.362256
v 0.007918 0.477376 0.365175
v -0.043351 0.477376 0.365433
v -0.043366 0.477273 0.362515
v 0.007385 0.502043 0.361385
v 0.007400 0.502147 0.364304
v -0.043934 0.498018 0.364708
v -0.043949 0.497915 0.361789
v 0.008479 0.497915 0.361525
v 0.008494 0.498018 0.364444
v 0.009050 0.481401 0.362105
v -0.044714 0.493890 0.364858
v -0.044514 0.481401 0.362375
v -0.044729 0.493787 0.361939
v 0.009064 0.481504 0.365024
v -0.044499 0.481504 0.365293
v 0.009260 0.493787 0.361667
v 0.009275 0.493890 0.364586
v 0.009613 0.485530 0.361956
v -0.045113 0.489761 0.365005
v -0.045079 0.485530 0.362232
v -0.045128 0.489658 0.362087
v 0.009628 0.485633 0.364875
v -0.045064 0.485633 0.365151
v 0.009661 0.489658 0.361811
v 0.009676 0.489761 0.364729
vn -0.3811094960686945 -0.9238855028442233 0.034512746059133084
vn 0.38143715990338356 -0.9238858099123618 0.03067088664221707
vn 0.7443311600292023 -0.6675171184462504 0.019799514913160687
vn 0.005034191450420864 0.03526099547541535 0.9993654582356363
vn -0.7440931764733164 -0.667517948583097 0.02729712521977301
vn -0.005034191450420864 -0.03526099547541535 -0.9993654582356363
vn 0.819286009630687 -0.573159174307475 0.01609333186755675
vn -0.8190823820734926 -0.5731589827610974 0.02434813867787309
vn 0.8875867456663923 -0.46049008980340467 0.01177480828700137
vn -0.8874240226206677 -0.4604881542016218 0.020718685183578667
vn 0.9425524754882527 -0.33398402124372223 0.007035943777447306
vn -0.9424340876602169 -0.33398299644491797 0.01653325442037501
vn -0.00017714042715185328 0.9993778769401137 -0.035267941589213155
vn 0.9794247147768613 -0.20179804933014459 0.0021852621839096977
vn -0.9667459553700073 0.2557049164856372 -0.0041537285425593115
vn -0.9753273098221134 0.22074503222049907 -0.002875667771182544
vn -0.9793529671591024 -0.20179801378149312 0.012055179405822684
vn 0.9666552763652053 0.2557040551133073 -0.013892907324223977
vn 0.9752488416954739 0.22074502386187608 -0.012701622410399046
vn -0.9900066123994141 0.141020946181693 0.000011977322542061408
vn 0.9899561944166673 0.14102303880439826 -0.009961709815231689
vn 0.9972842961960525 -0.0736079916590373 -0.0024281937046307074
vn -0.9972580659812006 -0.07360898800504831 0.007620152249648888
vn -0.9990972476249835 0.04233398812275678 0.0035388187018797717
vn 0.9990821620496334 0.04233499840733621 -0.006525441293956354
vn -0.38143715990338356 0.9238858099123618 -0.03067088664221707
vn 0.3811094960686945 0.9238855028442233 -0.034512746059133084
vn -0.7443311600292023 0.6675171184462504 -0.019799514913160687
vn 0.7440931764733164 0.667517948583097 -0.02729712521977301
vn -0.819286009630687 0.573159174307475 -0.01609333186755675
vn 0.8190823820734926 0.5731589827610974 -0.02434813867787309
vn -0.8875867456663923 0.46049008980340467 -0.01177480828700137
vn 0.8874240226206677 0.4604881542016218 -0.020718685183578667
vn -0.9425524754882527 0.33398402124372223 -0.007035943777447306
vn 0.9424340876602169 0.33398299644491797 -0.01653325442037501
vn 0.00017714042715185328 -0.9993778769401137 0.035267941589213155
vn -0.9794247147768613 0.20179804933014459 -0.0021852621839096977
vn 0.9667459553700073 -0.2557049164856372 0.0041537285425593115
vn 0.9753273098221134 -0.22074503222049907 0.002875667771182544
vn 0.9793529671591024 0.20179801378149312 -0.012055179405822684
vn -0.9752488416954739 -0.22074502386187608 0.012701622410399046
vn -0.9666552763652053 -0.2557040551133073 0.013892907324223977
vn 0.9900066123994141 -0.141020946181693 -0.000011977322542061408
vn -0.9899561944166673 -0.14102303880439826 0.009961709815231689
vn -0.9972842961960525 0.0736079916590373 0.0024281937046307074
vn 0.9972580659812006 0.07360898800504831 -0.007620152249648888
vn 0.9990972476249835 -0.04233398812275678 -0.0035388187018797717
vn -0.9990821620496334 -0.04233499840733621 0.006525441293956354
usemtl material_0_0
f 1//1 2//2 3//2
f 2//2 1//1 4//1
f 5//3 3//2 2//2
f 3//4 6//4 1//4
f 7//5 4//1 1//1
f 8//6 2//6 4//6
f 3//2 5//3 9//3
f 8//6 5//6 2//6
f 9//4 6//4 3//4
f 1//4 6//4 7//4
f 4//1 7//5 10//5
f 8//6 4//6 10//6
f 11//7 9//3 5//3
f 8//6 11//6 5//6
f 12//4 6//4 9//4
f 7//4 6//4 13//4
f 13//8 10//5 7//5
f 8//6 10//6 14//6
f 9//3 11//7 12//7
f 8//6 15//6 11//6
f 16//4 6//4 12//4
f 13//4 6//4 17//4
f 10//5 13//8 14//8
f 8//6 14//6 18//6
f 15//9 12//7 11//7
f 8//6 19//6 15//6
f 20//4 6//4 16//4
f 12//7 15//9 16//9
f 17//4 6//4 21//4
f 18//10 13//8 17//10
f 13//8 18//10 14//8
f 8//6 18//6 22//6
f 23//6 19//6 8//6
f 19//11 16//9 15//9
f 20//4 24//4 6//4
f 16//9 19//11 20//11
f 21//4 6//4 25//4
f 22//12 17//10 21//12
f 17//10 22//12 18//10
f 8//6 22//6 26//6
f 27//6 19//6 23//6
f 6//13 23//13 8//13
f 20//4 28//4 24//4
f 23//13 6//13 24//13
f 29//14 20//11 19//11
f 8//15 25//16 6//15
f 21//4 25//4 30//4
f 21//12 31//17 22//12
f 26//6 22//6 32//6
f 25//16 8//15 26//16
f 27//6 29//6 19//6
f 23//18 28//19 27//19
f 33//4 28//4 20//4
f 28//19 23//18 24//18
f 20//11 29//14 33//14
f 26//16 30//20 25//16
f 21//4 30//4 34//4
f 31//17 21//12 34//17
f 32//6 22//6 31//6
f 30//20 26//16 32//20
f 35//6 29//6 27//6
f 36//21 27//19 28//19
f 33//4 36//4 28//4
f 37//22 33//14 29//14
f 34//4 30//4 38//4
f 34//17 39//23 31//17
f 32//6 31//6 40//6
f 32//20 38//24 30//20
f 35//6 37//6 29//6
f 27//19 36//21 35//21
f 41//4 36//4 33//4
f 33//14 37//22 41//22
f 34//4 38//4 42//4
f 39//23 34//17 42//23
f 40//6 31//6 39//6
f 38//24 32//20 40//24
f 37//6 35//6 43//6
f 44//25 35//21 36//21
f 36//4 41//4 44//4
f 43//25 41//22 37//22
f 40//24 42//23 38//24
f 42//23 40//24 39//23
f 35//21 44//25 43//25
f 41//22 43//25 44//25
usemtl material_1_0
f 3//26 2//26 1//27
f 4//27 1//27 2//26
f 2//26 3//26 5//28
f 1//6 6//6 3//6
f 1//27 4//27 7//29
f 4//4 2//4 8//4
f 9//28 5//28 3//26
f 2//4 5//4 8//4
f 3//6 6//6 9//6
f 7//6 6//6 1//6
f 10//29 7//29 4//27
f 10//4 4//4 8//4
f 5//28 9//28 11//30
f 5//4 11//4 8//4
f 9//6 6//6 12//6
f 13//6 6//6 7//6
f 7//29 10//29 13//31
f 14//4 10//4 8//4
f 12//30 11//30 9//28
f 11//4 15//4 8//4
f 12//6 6//6 16//6
f 17//6 6//6 13//6
f 14//31 13//31 10//29
f 18//4 14//4 8//4
f 11//30 12//30 15//32
f 15//4 19//4 8//4
f 16//6 6//6 20//6
f 16//32 15//32 12//30
f 21//6 6//6 17//6
f 17//33 13//31 18//33
f 14//31 18//33 13//31
f 22//4 18//4 8//4
f 8//4 19//4 23//4
f 15//32 16//32 19//34
f 6//6 24//6 20//6
f 20//34 19//34 16//32
f 25//6 6//6 21//6
f 21//35 17//33 22//35
f 18//33 22//35 17//33
f 26//4 22//4 8//4
f 23//4 19//4 27//4
f 8//36 23//36 6//36
f 24//6 28//6 20//6
f 24//36 6//36 23//36
f 19//34 20//34 29//37
f 6//38 25//39 8//38
f 30//6 25//6 21//6
f 22//35 31//40 21//35
f 32//4 22//4 26//4
f 26//39 8//38 25//39
f 19//4 29//4 27//4
f 27//41 28//41 23//42
f 20//6 28//6 33//6
f 24//42 23//42 28//41
f 33//37 29//37 20//34
f 25//39 30//43 26//39
f 34//6 30//6 21//6
f 34//40 21//35 31//40
f 31//4 22//4 32//4
f 32//43 26//39 30//43
f 27//4 29//4 35//4
f 28//41 27//41 36//44
f 28//6 36//6 33//6
f 29//37 33//37 37//45
f 38//6 30//6 34//6
f 31//40 39//46 34//40
f 40//4 31//4 32//4
f 30//43 38//47 32//43
f 29//4 37//4 35//4
f 35//44 36//44 27//41
f 33//6 36//6 41//6
f 41//45 37//45 33//37
f 42//6 38//6 34//6
f 42//46 34//40 39//46
f 39//4 31//4 40//4
f 40//47 32//43 38//47
f 43//4 35//4 37//4
f 36//44 35//44 44//48
f 44//6 41//6 36//6
f 37//45 41//45 43//48
f 38//47 42//46 40//47
f 39//46 40//47 42//46
f 43//48 44//48 35//44
f 44//48 43//48 41//45
