# SSTK version 0.8.0
# 76
mtllib original-76.mtl
o mesh62/mesh62-geometry#mesh62-geometry
v 0.455918 0.482606 0.294665
v 0.458548 0.475691 0.294965
v 0.460595 0.476989 0.294807
v 0.456227 0.474865 0.295107
v 0.460593 0.476989 0.294440
v 0.455941 0.482695 0.294659
v 0.455850 0.482525 0.294673
v 0.458546 0.475691 0.294599
v 0.462301 0.478693 0.294271
v 0.455940 0.487624 0.294371
v 0.455916 0.482606 0.294299
v 0.453701 0.474578 0.295224
v 0.456226 0.474865 0.294740
v 0.462303 0.478693 0.294638
v 0.455903 0.488029 0.294348
v 0.455939 0.482695 0.294293
v 0.455849 0.482525 0.294306
v 0.455745 0.482453 0.294681
v 0.463603 0.480736 0.294098
v 0.460590 0.494175 0.293800
v 0.455797 0.488401 0.294331
v 0.455938 0.487624 0.294004
v 0.455607 0.482393 0.294690
v 0.453699 0.474578 0.294857
v 0.463605 0.480736 0.294465
v 0.462299 0.492466 0.293831
v 0.455901 0.488029 0.293982
v 0.455743 0.482453 0.294315
v 0.455441 0.482347 0.294700
v 0.451174 0.474872 0.295305
v 0.464433 0.483052 0.293928
v 0.462297 0.492466 0.293464
v 0.458542 0.495479 0.293807
v 0.455795 0.488401 0.293964
v 0.455605 0.482393 0.294324
v 0.455253 0.482318 0.294709
v 0.451172 0.474872 0.294939
v 0.453450 0.482311 0.294780
v 0.464434 0.483052 0.294295
v 0.463602 0.490419 0.293898
v 0.460588 0.494175 0.293434
v 0.456221 0.496312 0.293851
v 0.455631 0.488729 0.294318
v 0.455439 0.482347 0.294333
v 0.455049 0.482308 0.294717
v 0.448853 0.475705 0.295347
v 0.452983 0.482348 0.294797
v 0.464723 0.485576 0.293768
v 0.463600 0.490419 0.293531
v 0.458540 0.495479 0.293440
v 0.453694 0.496606 0.293933
v 0.455629 0.488729 0.293951
v 0.455251 0.482318 0.294342
v 0.448851 0.475705 0.294980
v 0.443790 0.490448 0.294677
v 0.455047 0.482308 0.294351
v 0.453448 0.482311 0.294414
v 0.452555 0.482455 0.294807
v 0.464725 0.485576 0.294135
v 0.464433 0.488100 0.293999
v 0.456219 0.496312 0.293484
v 0.455414 0.489003 0.294311
v 0.446805 0.477009 0.295349
v 0.451413 0.483714 0.294778
v 0.452981 0.482348 0.294430
v 0.452177 0.482621 0.294812
v 0.464431 0.488100 0.293633
v 0.453692 0.496606 0.293567
v 0.455412 0.489003 0.293944
v 0.455153 0.489212 0.294309
v 0.446803 0.477009 0.294982
v 0.445096 0.478718 0.295314
v 0.451467 0.483393 0.294795
v 0.451412 0.487997 0.294527
v 0.452553 0.482455 0.294440
v 0.451861 0.482838 0.294812
v 0.451167 0.496319 0.294049
v 0.454858 0.489346 0.294313
v 0.443793 0.480765 0.295244
v 0.451620 0.483098 0.294806
v 0.451411 0.483714 0.294411
v 0.451410 0.487997 0.294161
v 0.451449 0.488317 0.294507
v 0.452175 0.482621 0.294446
v 0.451166 0.496319 0.293683
v 0.452814 0.489395 0.294391
v 0.455151 0.489212 0.293942
v 0.454537 0.489393 0.294323
v 0.445094 0.478718 0.294948
v 0.442960 0.488132 0.294844
v 0.451465 0.483393 0.294428
v 0.451447 0.488318 0.294140
v 0.448847 0.495493 0.294188
v 0.451859 0.482838 0.294445
v 0.452493 0.489359 0.294405
v 0.454856 0.489346 0.293946
v 0.443791 0.480765 0.294877
v 0.442962 0.483084 0.295140
v 0.442959 0.488132 0.294477
v 0.451619 0.483098 0.294439
v 0.451554 0.488612 0.294486
v 0.446800 0.494195 0.294343
v 0.448845 0.495493 0.293821
v 0.454535 0.489393 0.293956
v 0.452197 0.489254 0.294423
v 0.452812 0.489395 0.294024
v 0.442670 0.485608 0.295003
v 0.443788 0.490448 0.294310
v 0.442668 0.485608 0.294636
v 0.451553 0.488612 0.294119
v 0.445092 0.492491 0.294508
v 0.451937 0.489089 0.294443
v 0.452491 0.489359 0.294039
v 0.442960 0.483084 0.294773
v 0.451718 0.488872 0.294097
v 0.451720 0.488872 0.294464
v 0.446798 0.494195 0.293976
v 0.452196 0.489254 0.294056
v 0.445090 0.492491 0.294141
v 0.451935 0.489089 0.294076
vn 0.03998939252421273 0.05837500092787085 0.9974934625110159
vn 0.03967972383890832 0.058325039012611164 0.9975087515106047
vn 0.4379956123399844 -0.8989744293179267 -0.0021952228656693254
vn 0.624430927145136 -0.7810738951560674 -0.003096373749164443
vn 0.040298436649157804 0.05842599944597566 0.9974780391529292
vn 0.22560002942530233 -0.9742193476551074 -0.0011355077102018268
vn 0.7793076424172969 -0.6266294121061015 -0.0038959406510300086
vn -0.9916189949979066 0.12909799792061852 0.005047345067407218
vn -0.8896442346101716 0.45663189097252777 0.004522385624338992
vn -0.6738976274291735 0.7388168611342121 0.003410784238422497
vn -0.9989471820462842 -0.04559600100153897 0.0050529372107561065
vn -0.0014613753417370224 -0.9999989321190748 0.000011950757606073031
vn 0.8978405921600949 -0.4402967644393127 -0.00458587983734175
vn 0.039983433845739554 0.05847299699837669 0.9974879616516339
vn -0.9831078707606244 -0.18295993442488423 0.004957503782488222
vn -0.482531351138552 0.875875305567109 0.0024380865708448518
vn -0.9315519998852939 -0.3635769153562135 0.004764255426625021
vn -0.3324549477050636 0.9431176134836022 0.0016955481172712275
vn -0.22830129628291648 -0.9735898288312401 0.0011676094795072028
vn 0.9737340619587219 -0.22763293879463273 -0.005022126749402342
vn 0.7800339211519711 0.6257248209006873 -0.003940857912059658
vn 0.6258429207691039 0.7799427682739685 -0.003149085634896938
vn 0.03966702147468357 0.058520994930151074 0.9974977797267082
vn -0.20916344614602606 0.9778801075174347 0.0010715026872067544
vn 0.03948834707035372 0.05834999258975585 0.997514886510686
vn 0.03900145263452642 0.05843403822498942 0.9975291223162949
vn 0.8981018286674048 0.43976409189971066 -0.004544097257588979
vn 0.4401164596201979 0.8979379866382339 -0.0022077417098594733
vn -0.8424382607131271 -0.5387751044819723 0.004377633730802979
vn -0.10052215473447222 0.9949346893804434 0.0005101715194043889
vn -0.44011005043039503 -0.8979409943775425 0.0022614434384536854
vn 0.03922031779465681 0.05839299676675087 0.9975229443981146
vn 0.9999867644524256 -0.000026000008923543736 -0.005144924097463559
vn 0.22828506495459042 0.9735936544419788 -0.0011511511591655852
vn -0.023433733716310978 0.9997253853532216 0.00011834046496964881
vn 0.038294274758478145 0.058466970443229335 0.9975545909311995
vn 0.038654228683532646 0.05859401125002214 0.9975332538068661
vn 0.041061772058445085 0.9991565880423283 -0.00020843951955412684
vn 0.1609691064238966 0.9869591052290918 -0.0008193793275604895
vn 0.039131481876587416 0.05841399852606902 0.9975252036426643
vn 0.9737805834758956 0.22743506068991684 -0.004966730747514905
vn 0.0014618028730615208 0.9999989315305754 -0.000008370643850708088
vn -0.7091359422969276 -0.7050620968847046 0.0036952508970398727
vn -0.6258246729155174 -0.7799571206215479 0.0032200561997733504
vn 0.03830015554861881 0.05849500015176548 0.9975527219361373
vn 0.03841152935255002 0.05843896825882477 0.9975517236723328
vn 0.32233071771517946 0.9466257105181155 -0.001634809863647073
vn 0.03910588052889397 0.05841799544827464 0.9975259735545061
vn 0.03800248557251815 0.05844197766424035 0.9975672139445054
vn 0.03869619011856017 0.058438009227099616 0.9975407780877339
vn 0.03838680671470012 0.05847397627196715 0.9975506238628663
vn 0.48694348921169966 0.8734300572358736 -0.0024440604071866395
vn 0.039080283723853845 0.05841999915697041 0.9975268593489414
vn -0.2255872219538857 0.9742223138725601 0.0011350964379342372
vn -0.5231289883762541 -0.8522493384274273 0.0026695824485425007
vn -0.7800439217131002 -0.6257120260180453 0.003992579972903317
vn 0.03776342173960067 0.05842899423764545 0.9975770529692903
vn 0.038994907139742706 0.05842598621295896 0.9975298498552343
vn 0.9483439034691519 0.317207037731938 -0.004851388071555029
vn 0.9965334958276603 0.0830379629261735 -0.0050683731683772455
vn 0.9983324984448552 -0.05750200481458554 -0.005073656586360113
vn 0.03843358054326573 0.05841701695253335 0.9975521600482812
vn 0.654972019290901 0.7556459307340969 -0.003298683222197179
vn 0.039065311070982885 0.05841499504632122 0.9975277388747973
vn -0.2814408678258235 -0.9595775599618215 0.001394394192643938
vn -0.8981097581308007 -0.43974805785127946 0.004528572210136267
vn 0.037681645521896165 0.05842901223462764 0.9975801442089992
vn 0.8181349622518841 0.5750110568323707 -0.004179481023806514
vn 0.9737314279365737 -0.22764601649739355 -0.004939374603084956
vn 0.03846358851518466 0.05830797674383917 0.9975573829141734
vn -0.43798120045929045 0.8989814359728397 0.002201322432049911
vn -0.07359086932939525 -0.997288449648542 0.0003635229723998696
vn 0.03766946853891352 0.058428970689377344 0.9975806065297058
vn -0.8978444121732739 0.440288874094351 0.004595528038926419
vn -0.9737371239299677 0.2276219076532417 0.004927538624318817
vn 0.8978207786756192 -0.44033795458046326 -0.004509449434077822
vn 0.055831664134965285 -0.9984401558280649 -0.00028374275294749864
vn 0.22556710048829834 -0.9742269544110508 -0.0011508589272755663
vn -0.973777670521253 -0.22744993290500903 0.004855555139115886
vn 0.0376382599060813 0.05842901734725668 0.9975817817718386
vn -0.9999874883844335 0.000013000003050517178 0.0050022900347741735
vn -0.6244294659022549 0.7810748473381547 0.0031503918332434935
vn 0.4380020706756219 -0.8989711878571296 -0.0022337158746769904
vn -0.7793035992018129 0.626633921776979 0.0039784858304368195
vn 0.7793439759059331 -0.6265841263879834 -0.003911493032079077
vn 0.6245267784429448 -0.7809969657700752 -0.0031689849499408136
vn -0.03998939252421273 -0.05837500092787085 -0.9974934625110159
vn -0.03967972383890832 -0.058325039012611164 -0.9975087515106047
vn -0.624430927145136 0.7810738951560674 0.003096373749164443
vn -0.4379956123399844 0.8989744293179267 0.0021952228656693254
vn -0.040298436649157804 -0.05842599944597566 -0.9974780391529292
vn -0.22560002942530233 0.9742193476551074 0.0011355077102018268
vn -0.7793076424172969 0.6266294121061015 0.0038959406510300086
vn 0.8896442346101716 -0.45663189097252777 -0.004522385624338992
vn 0.9916189949979066 -0.12909799792061852 -0.005047345067407218
vn 0.6738976274291735 -0.7388168611342121 -0.003410784238422497
vn 0.9989471820462842 0.04559600100153897 -0.0050529372107561065
vn 0.0014613753417370224 0.9999989321190748 -0.000011950757606073031
vn -0.8978405921600949 0.4402967644393127 0.00458587983734175
vn -0.039983433845739554 -0.05847299699837669 -0.9974879616516339
vn 0.9831078707606244 0.18295993442488423 -0.004957503782488222
vn 0.482531351138552 -0.875875305567109 -0.0024380865708448518
vn 0.9315519998852939 0.3635769153562135 -0.004764255426625021
vn 0.3324549477050636 -0.9431176134836022 -0.0016955481172712275
vn 0.22830129628291648 0.9735898288312401 -0.0011676094795072028
vn -0.9737340619587219 0.22763293879463273 0.005022126749402342
vn -0.7800339211519711 -0.6257248209006873 0.003940857912059658
vn -0.6258429207691039 -0.7799427682739685 0.003149085634896938
vn -0.03966702147468357 -0.058520994930151074 -0.9974977797267082
vn 0.20916344614602606 -0.9778801075174347 -0.0010715026872067544
vn -0.03900145263452642 -0.05843403822498942 -0.9975291223162949
vn -0.03948834707035372 -0.05834999258975585 -0.997514886510686
vn -0.8981018286674048 -0.43976409189971066 0.004544097257588979
vn -0.4401164596201979 -0.8979379866382339 0.0022077417098594733
vn 0.8424382607131271 0.5387751044819723 -0.004377633730802979
vn 0.10052215473447222 -0.9949346893804434 -0.0005101715194043889
vn 0.44011005043039503 0.8979409943775425 -0.0022614434384536854
vn -0.03922031779465681 -0.05839299676675087 -0.9975229443981146
vn -0.9999867644524256 0.000026000008923543736 0.005144924097463559
vn -0.22828506495459042 -0.9735936544419788 0.0011511511591655852
vn 0.023433733716310978 -0.9997253853532216 -0.00011834046496964881
vn -0.038654228683532646 -0.05859401125002214 -0.9975332538068661
vn -0.038294274758478145 -0.058466970443229335 -0.9975545909311995
vn -0.041061772058445085 -0.9991565880423283 0.00020843951955412684
vn -0.1609691064238966 -0.9869591052290918 0.0008193793275604895
vn -0.039131481876587416 -0.05841399852606902 -0.9975252036426643
vn -0.9737805834758956 -0.22743506068991684 0.004966730747514905
vn -0.0014618028730615208 -0.9999989315305754 0.000008370643850708088
vn 0.7091359422969276 0.7050620968847046 -0.0036952508970398727
vn 0.6258246729155174 0.7799571206215479 -0.0032200561997733504
vn -0.03830015554861881 -0.05849500015176548 -0.9975527219361373
vn -0.03841152935255002 -0.05843896825882477 -0.9975517236723328
vn -0.32233071771517946 -0.9466257105181155 0.001634809863647073
vn -0.03910588052889397 -0.05841799544827464 -0.9975259735545061
vn -0.03800248557251815 -0.05844197766424035 -0.9975672139445054
vn -0.03869619011856017 -0.058438009227099616 -0.9975407780877339
vn -0.03838680671470012 -0.05847397627196715 -0.9975506238628663
vn -0.48694348921169966 -0.8734300572358736 0.0024440604071866395
vn -0.039080283723853845 -0.05841999915697041 -0.9975268593489414
vn 0.2255872219538857 -0.9742223138725601 -0.0011350964379342372
vn 0.5231289883762541 0.8522493384274273 -0.0026695824485425007
vn 0.7800439217131002 0.6257120260180453 -0.003992579972903317
vn -0.03776342173960067 -0.05842899423764545 -0.9975770529692903
vn -0.038994907139742706 -0.05842598621295896 -0.9975298498552343
vn -0.9965334958276603 -0.0830379629261735 0.0050683731683772455
vn -0.9483439034691519 -0.317207037731938 0.004851388071555029
vn -0.9983324984448552 0.05750200481458554 0.005073656586360113
vn -0.03843358054326573 -0.05841701695253335 -0.9975521600482812
vn -0.654972019290901 -0.7556459307340969 0.003298683222197179
vn -0.039065311070982885 -0.05841499504632122 -0.9975277388747973
vn 0.2814408678258235 0.9595775599618215 -0.001394394192643938
vn 0.8981097581308007 0.43974805785127946 -0.004528572210136267
vn -0.037681645521896165 -0.05842901223462764 -0.9975801442089992
vn -0.8181349622518841 -0.5750110568323707 0.004179481023806514
vn -0.9737314279365737 0.22764601649739355 0.004939374603084956
vn -0.03846358851518466 -0.05830797674383917 -0.9975573829141734
vn 0.43798120045929045 -0.8989814359728397 -0.002201322432049911
vn 0.07359086932939525 0.997288449648542 -0.0003635229723998696
vn -0.03766946853891352 -0.058428970689377344 -0.9975806065297058
vn 0.9737371239299677 -0.2276219076532417 -0.004927538624318817
vn 0.8978444121732739 -0.440288874094351 -0.004595528038926419
vn -0.8978207786756192 0.44033795458046326 0.004509449434077822
vn -0.055831664134965285 0.9984401558280649 0.00028374275294749864
vn -0.22556710048829834 0.9742269544110508 0.0011508589272755663
vn 0.973777670521253 0.22744993290500903 -0.004855555139115886
vn -0.0376382599060813 -0.05842901734725668 -0.9975817817718386
vn 0.9999874883844335 -0.000013000003050517178 -0.0050022900347741735
vn 0.6244294659022549 -0.7810748473381547 -0.0031503918332434935
vn -0.4380020706756219 0.8989711878571296 0.0022337158746769904
vn 0.7793035992018129 -0.626633921776979 -0.0039784858304368195
vn -0.7793439759059331 0.6265841263879834 0.003911493032079077
vn -0.6245267784429448 0.7809969657700752 0.0031689849499408136
usemtl material_0_0
f 1//1 2//2 3//1
f 2//2 1//1 4//2
f 2//3 5//4 3//4
f 3//1 6//5 1//1
f 4//2 1//1 7//2
f 4//6 8//3 2//3
f 5//4 2//3 8//3
f 9//7 3//4 5//4
f 6//5 3//1 10//5
f 6//8 11//9 1//9
f 11//9 7//10 1//9
f 4//2 7//2 12//2
f 8//3 4//6 13//6
f 3//4 9//7 14//7
f 3//1 15//5 10//5
f 10//11 16//8 6//8
f 11//9 6//8 16//8
f 7//10 11//9 17//10
f 12//2 7//2 18//2
f 12//12 13//6 4//6
f 19//13 14//7 9//7
f 14//5 20//14 3//1
f 3//1 21//14 15//5
f 15//15 22//11 10//11
f 16//8 10//11 22//11
f 17//10 18//16 7//10
f 12//2 18//2 23//2
f 13//6 12//12 24//12
f 14//7 19//13 25//13
f 14//5 26//5 20//14
f 3//1 20//14 21//14
f 21//17 27//15 15//15
f 22//11 15//15 27//15
f 18//16 17//10 28//16
f 28//16 23//18 18//16
f 12//2 23//2 29//2
f 30//19 24//12 12//12
f 31//20 25//13 19//13
f 25//5 26//5 14//5
f 32//21 20//22 26//21
f 33//23 21//14 20//14
f 27//15 21//17 34//17
f 23//18 28//16 35//18
f 35//18 29//24 23//18
f 12//2 29//2 36//2
f 24//12 30//19 37//19
f 12//2 38//25 30//26
f 25//13 31//20 39//20
f 25//5 40//5 26//5
f 20//22 32//21 41//22
f 40//27 32//21 26//21
f 21//14 33//23 42//23
f 41//22 33//28 20//22
f 43//29 34//17 21//17
f 29//24 35//18 44//24
f 44//24 36//30 29//24
f 12//2 36//2 45//2
f 46//31 37//19 30//19
f 12//2 45//2 38//25
f 30//26 38//25 47//32
f 48//33 39//20 31//20
f 39//5 40//5 25//5
f 32//21 40//27 49//27
f 50//28 42//34 33//28
f 21//14 42//23 51//23
f 33//28 41//22 50//28
f 34//17 43//29 52//29
f 21//14 51//23 43//23
f 36//30 44//24 53//30
f 53//30 45//35 36//30
f 37//19 46//31 54//31
f 55//36 46//37 30//26
f 56//35 38//38 45//35
f 57//38 47//39 38//38
f 30//26 47//32 58//40
f 39//20 48//33 59//33
f 39//5 60//5 40//5
f 60//41 49//27 40//27
f 42//34 50//28 61//34
f 61//34 51//42 42//34
f 62//43 52//29 43//29
f 43//23 51//23 62//23
f 45//35 53//30 56//35
f 63//44 54//31 46//31
f 55//36 63//45 46//37
f 55//36 30//26 64//46
f 38//38 56//35 57//38
f 47//39 57//38 65//39
f 65//39 58//47 47//39
f 30//26 58//40 66//48
f 67//41 59//33 48//33
f 60//5 39//5 59//5
f 49//27 60//41 67//41
f 51//42 61//34 68//42
f 52//29 62//43 69//43
f 62//23 51//23 70//23
f 54//31 63//44 71//44
f 55//36 72//49 63//45
f 30//26 73//50 64//46
f 55//36 64//46 74//51
f 58//47 65//39 75//47
f 75//47 66//52 58//47
f 30//26 66//48 76//53
f 59//33 67//41 60//41
f 68//42 77//54 51//42
f 70//55 69//43 62//43
f 70//23 51//23 78//23
f 72//56 71//44 63//44
f 79//57 72//49 55//36
f 30//26 80//58 73//50
f 73//59 81//60 64//60
f 64//60 82//61 74//61
f 55//36 74//51 83//62
f 66//52 75//47 84//52
f 84//52 76//63 66//52
f 30//26 76//53 80//58
f 77//54 68//42 85//54
f 86//64 51//23 77//64
f 69//43 70//55 87//55
f 78//23 51//23 88//23
f 78//65 87//55 70//55
f 71//44 72//56 89//56
f 79//66 89//56 72//56
f 90//67 79//57 55//36
f 80//68 91//59 73//59
f 81//60 73//59 91//59
f 82//61 64//60 81//60
f 92//69 74//61 82//61
f 74//61 92//69 83//69
f 83//62 93//70 55//36
f 76//63 84//52 94//63
f 94//63 80//68 76//63
f 85//54 93//71 77//54
f 88//23 51//23 86//64
f 77//64 95//70 86//64
f 88//72 96//65 78//65
f 87//55 78//65 96//65
f 89//56 79//66 97//66
f 98//73 79//57 90//67
f 55//74 99//75 90//75
f 91//59 80//68 100//68
f 92//69 101//76 83//69
f 83//62 77//64 93//70
f 55//36 93//70 102//70
f 80//68 94//63 100//68
f 93//71 85//54 103//71
f 86//77 104//72 88//72
f 95//70 77//64 105//70
f 95//78 106//77 86//77
f 96//65 88//72 104//72
f 98//79 97//66 79//66
f 107//80 98//73 90//67
f 99//75 55//74 108//74
f 109//81 90//75 99//75
f 101//76 92//69 110//76
f 101//70 77//64 83//62
f 103//71 102//82 93//71
f 55//36 102//70 111//70
f 104//72 86//77 106//77
f 105//70 77//64 112//70
f 105//83 113//78 95//78
f 106//77 95//78 113//78
f 97//66 98//79 114//79
f 107//81 114//79 98//79
f 90//75 109//81 107//81
f 111//84 108//74 55//74
f 115//85 101//76 110//76
f 116//70 77//64 101//70
f 102//82 103//71 117//82
f 117//82 111//84 102//82
f 112//70 77//64 116//70
f 112//86 118//83 105//83
f 113//78 105//83 118//83
f 114//79 107//81 109//81
f 108//74 111//84 119//84
f 101//76 115//85 116//85
f 111//84 117//82 119//84
f 116//85 120//86 112//86
f 118//83 112//86 120//86
f 120//86 116//85 115//85
usemtl material_1_0
f 3//87 2//88 1//87
f 4//88 1//87 2//88
f 3//89 5//89 2//90
f 1//87 6//91 3//87
f 7//88 1//87 4//88
f 2//90 8//90 4//92
f 8//90 2//90 5//89
f 5//89 3//89 9//93
f 10//91 3//87 6//91
f 1//94 11//94 6//95
f 1//94 7//96 11//94
f 12//88 7//88 4//88
f 13//92 4//92 8//90
f 14//93 9//93 3//89
f 10//91 15//91 3//87
f 6//95 16//95 10//97
f 16//95 6//95 11//94
f 17//96 11//94 7//96
f 18//88 7//88 12//88
f 4//92 13//92 12//98
f 9//93 14//93 19//99
f 3//87 20//100 14//91
f 15//91 21//100 3//87
f 10//97 22//97 15//101
f 22//97 10//97 16//95
f 7//96 18//102 17//96
f 23//88 18//88 12//88
f 24//98 12//98 13//92
f 25//99 19//99 14//93
f 20//100 26//91 14//91
f 21//100 20//100 3//87
f 15//101 27//101 21//103
f 27//101 15//101 22//97
f 28//102 17//96 18//102
f 18//102 23//104 28//102
f 29//88 23//88 12//88
f 12//98 24//98 30//105
f 19//99 25//99 31//106
f 14//91 26//91 25//91
f 26//107 20//108 32//107
f 20//100 21//100 33//109
f 34//103 21//103 27//101
f 35//104 28//102 23//104
f 23//104 29//110 35//104
f 36//88 29//88 12//88
f 37//105 30//105 24//98
f 30//111 38//112 12//88
f 39//106 31//106 25//99
f 26//91 40//91 25//91
f 41//108 32//107 20//108
f 26//107 32//107 40//113
f 42//109 33//109 21//100
f 20//108 33//114 41//108
f 21//103 34//103 43//115
f 44//110 35//104 29//110
f 29//110 36//116 44//110
f 45//88 36//88 12//88
f 30//105 37//105 46//117
f 38//112 45//88 12//88
f 47//118 38//112 30//111
f 31//106 39//106 48//119
f 25//91 40//91 39//91
f 49//113 40//113 32//107
f 33//114 42//120 50//114
f 51//109 42//109 21//100
f 50//114 41//108 33//114
f 52//115 43//115 34//103
f 43//109 51//109 21//100
f 53//116 44//110 36//116
f 36//116 45//121 53//116
f 54//117 46//117 37//105
f 30//111 46//122 55//123
f 45//121 38//124 56//121
f 38//124 47//125 57//124
f 58//126 47//118 30//111
f 59//119 48//119 39//106
f 40//91 60//91 39//91
f 40//113 49//113 60//127
f 61//120 50//114 42//120
f 42//120 51//128 61//120
f 43//115 52//115 62//129
f 62//109 51//109 43//109
f 56//121 53//116 45//121
f 46//117 54//117 63//130
f 46//122 63//131 55//123
f 64//132 30//111 55//123
f 57//124 56//121 38//124
f 65//125 57//124 47//125
f 47//125 58//133 65//125
f 66//134 58//126 30//111
f 48//119 59//119 67//127
f 59//91 39//91 60//91
f 67//127 60//127 49//113
f 68//128 61//120 51//128
f 69//129 62//129 52//115
f 70//109 51//109 62//109
f 71//130 63//130 54//117
f 63//131 72//135 55//123
f 64//132 73//136 30//111
f 74//137 64//132 55//123
f 75//133 65//125 58//133
f 58//133 66//138 75//133
f 76//139 66//134 30//111
f 60//127 67//127 59//119
f 51//128 77//140 68//128
f 62//129 69//129 70//141
f 78//109 51//109 70//109
f 63//130 71//130 72//142
f 55//123 72//135 79//143
f 73//136 80//144 30//111
f 64//145 81//145 73//146
f 74//147 82//147 64//145
f 83//148 74//137 55//123
f 84//138 75//133 66//138
f 66//138 76//149 84//138
f 80//144 76//139 30//111
f 85//140 68//128 77//140
f 77//150 51//109 86//150
f 87//141 70//141 69//129
f 88//109 51//109 78//109
f 70//141 87//141 78//151
f 89//142 72//142 71//130
f 72//142 89//142 79//152
f 55//123 79//143 90//153
f 73//146 91//146 80//154
f 91//146 73//146 81//145
f 81//145 64//145 82//147
f 82//147 74//147 92//155
f 83//155 92//155 74//147
f 55//123 93//156 83//148
f 94//149 84//138 76//149
f 76//149 80//154 94//149
f 77//140 93//157 85//140
f 86//150 51//109 88//109
f 86//150 95//156 77//150
f 78//151 96//151 88//158
f 96//151 78//151 87//141
f 97//152 79//152 89//142
f 90//153 79//143 98//159
f 90//160 99//160 55//161
f 100//154 80//154 91//146
f 83//155 101//162 92//155
f 93//156 77//150 83//148
f 102//156 93//156 55//123
f 100//154 94//149 80//154
f 103//157 85//140 93//157
f 88//158 104//158 86//163
f 105//156 77//150 95//156
f 86//163 106//163 95//164
f 104//158 88//158 96//151
f 79//152 97//152 98//165
f 90//153 98//159 107//166
f 108//161 55//161 99//160
f 99//160 90//160 109//167
f 110//162 92//155 101//162
f 83//148 77//150 101//156
f 93//157 102//168 103//157
f 111//156 102//156 55//123
f 106//163 86//163 104//158
f 112//156 77//150 105//156
f 95//164 113//164 105//169
f 113//164 95//164 106//163
f 114//165 98//165 97//152
f 98//165 114//165 107//167
f 107//167 109//167 90//160
f 55//161 108//161 111//170
f 110//162 101//162 115//171
f 101//156 77//150 116//156
f 117//168 103//157 102//168
f 102//168 111//170 117//168
f 116//156 77//150 112//156
f 105//169 118//169 112//172
f 118//169 105//169 113//164
f 109//167 107//167 114//165
f 119//170 111//170 108//161
f 116//171 115//171 101//162
f 119//170 117//168 111//170
f 112//172 120//172 116//171
f 120//172 112//172 118//169
f 115//171 116//171 120//172
