# SSTK version 0.8.0
# 74
mtllib original-74.mtl
o mesh60/mesh60-geometry#mesh60-geometry
v 0.411123 0.489252 0.295911
v 0.411461 0.484763 0.296162
v 0.411334 0.488119 0.295970
v 0.408732 0.477215 0.296693
v 0.415661 0.488113 0.295827
v 0.411121 0.489252 0.295544
v 0.412470 0.481782 0.296304
v 0.410197 0.495379 0.295582
v 0.423433 0.484745 0.295760
v 0.415659 0.488113 0.295460
v 0.411332 0.488119 0.295603
v 0.411331 0.490175 0.295483
v 0.411211 0.476665 0.296645
v 0.411459 0.484763 0.295796
v 0.411333 0.490175 0.295850
v 0.408265 0.494711 0.295684
v 0.423431 0.484745 0.295393
v 0.423096 0.489361 0.295501
v 0.415576 0.489624 0.295742
v 0.414320 0.476493 0.296552
v 0.411209 0.476665 0.296278
v 0.412468 0.481782 0.295937
v 0.411921 0.491097 0.295776
v 0.410195 0.495379 0.295215
v 0.406459 0.493497 0.295813
v 0.423599 0.486675 0.295274
v 0.423600 0.486675 0.295641
v 0.422297 0.491460 0.295406
v 0.415574 0.489624 0.295375
v 0.421120 0.492846 0.295365
v 0.411919 0.491097 0.295410
v 0.414318 0.476493 0.296186
v 0.417008 0.476615 0.296455
v 0.408731 0.477215 0.296327
v 0.423810 0.481598 0.295564
v 0.412214 0.495796 0.295492
v 0.408263 0.494711 0.295317
v 0.412212 0.495796 0.295125
v 0.406464 0.478393 0.296697
v 0.423094 0.489361 0.295134
v 0.422295 0.491460 0.295039
v 0.414862 0.490883 0.295692
v 0.419271 0.494107 0.295354
v 0.417006 0.476615 0.296089
v 0.419907 0.477282 0.296318
v 0.423812 0.481598 0.295931
v 0.412971 0.491515 0.295717
v 0.412969 0.491515 0.295351
v 0.406457 0.493497 0.295446
v 0.405241 0.491946 0.295943
v 0.414860 0.490883 0.295325
v 0.415196 0.495834 0.295390
v 0.417507 0.495201 0.295350
v 0.421118 0.492846 0.294998
v 0.422469 0.478327 0.296169
v 0.419905 0.477282 0.295951
v 0.406462 0.478393 0.296331
v 0.423644 0.479794 0.296042
v 0.414063 0.491388 0.295689
v 0.415194 0.495834 0.295024
v 0.404993 0.480199 0.296639
v 0.419270 0.494107 0.294988
v 0.422467 0.478327 0.295802
v 0.423643 0.479794 0.295676
v 0.414061 0.491388 0.295322
v 0.405239 0.491946 0.295576
v 0.404570 0.489892 0.296084
v 0.417505 0.495201 0.294983
v 0.404991 0.480199 0.296272
v 0.404568 0.489892 0.295718
v 0.404276 0.487542 0.296231
v 0.404362 0.482424 0.296528
v 0.404275 0.487542 0.295865
v 0.404360 0.482424 0.296162
v 0.404149 0.484983 0.296018
v 0.404151 0.484983 0.296385
vn 0.0322299544796653 0.05843902808145014 0.9977705698361393
vn 0.032970450327890984 0.058188003470070984 0.9977610463719974
vn 0.03262953686386956 0.058444980652114016 0.9977572337801534
vn 0.03247789192759478 0.058404984977480735 0.9977645234551688
vn 0.03354056271288718 0.05814398561363912 0.9977446104038166
vn 0.9832392790425145 0.18225202085619346 -0.004972025924111678
vn 0.99978163963483 -0.020276003232512208 -0.00505536764303431
vn 0.032908113636747414 0.05855099844588107 0.9977418687405382
vn 0.033796675003994005 0.05799002823082861 0.9977449280174078
vn 0.0014858812948419595 0.9999988960466202 -0.000007894213023553649
vn 0.9226780455405068 -0.3855429917829223 -0.004671805285343141
vn 0.03272660775614497 0.05837097463705841 0.9977583868175177
vn 0.9472383214873277 0.3204940661538279 -0.004807896219324667
vn -0.0014808913383185514 -0.9999989034511105 0.000007577638816050645
vn 0.033941086294775914 0.05830603254722378 0.9977216090822792
vn -0.9594548287210731 -0.28182099516423353 0.004833045464023268
vn -0.9984436596954729 -0.05554398566143304 0.0050123917198775505
vn 0.03324687335528977 0.05860799261407492 0.9977272917054267
vn -0.341472368902127 -0.9398902527572006 0.0017129064117237661
vn -0.1362619996849054 -0.9906726013994918 0.0006813796553444346
vn -0.2651266291812732 0.964212679952313 0.0013335359590881217
vn -0.44604155822522856 0.8950094559599984 0.0022365326283672157
vn 0.9987706358944226 0.04932300150092361 -0.004945543245266559
vn 0.996218769387175 -0.08673997606384666 -0.004933565966500813
vn 0.03373519934302125 0.05839500567687096 0.9977233883383133
vn 0.6371997465813273 -0.7706919566990588 -0.003223481978873828
vn -0.005038698195458916 -0.9999873053551702 0.000025475491656674333
vn 0.0337685327137704 0.05884498213095912 0.9976958225212564
vn 0.016269840466951176 0.9998676340160172 -0.00008208770779290178
vn 0.032879248527533565 0.05846199439030902 0.9977480394509287
vn -0.10793925828252107 0.9941573410611438 0.0005456515883443745
vn -0.6803329248730227 0.7328952575518978 0.00341361855737196
vn 0.9625527300623897 0.2710519546082881 -0.004804139097345601
vn 0.8609919099182897 0.508600130800527 -0.004340277058257309
vn -0.723868014464828 -0.6899288446656429 0.0036451245628752954
vn 0.033528685653089974 0.05848501800604865 0.9977250773169973
vn 0.13530386133431954 -0.9908039157950467 -0.000682314608897069
vn -0.6313020785303056 -0.7755304591292905 0.0031925861033689925
vn 0.13091750370360672 -0.9913930440128952 -0.0006629531370174375
vn 0.669046664012748 0.743212736860003 -0.003374780359804234
vn 0.5453071508268579 0.8382318436395993 -0.0027363416549371507
vn 0.3018861268684057 -0.9533427681675638 -0.0015273463914947777
vn 0.9269950533495442 -0.3750449680797365 -0.0046306569236828085
vn 0.9956750495720493 -0.09277096929309255 -0.004974225177566186
vn 0.1269980253629961 0.9919027650673621 -0.000637342624890568
vn -0.8818063728012211 0.47159090116375335 0.004420726943941143
vn -0.33345415836861325 -0.9427648442486611 0.0016651472839418896
vn 0.39955859895973533 0.916705472221695 -0.002000798873659742
vn 0.5979989816814987 -0.801491241693327 -0.0030012325434096328
vn -0.8871329219537106 -0.46149213522529153 0.004493095934101321
vn -0.9758074307057458 0.21857697914272992 0.0048951372084749195
vn -0.9840138840287503 -0.17802196686539742 0.004985514219057279
vn -0.9962148755466141 0.08677801583555748 0.0050495254517374235
vn -0.9998536364761698 -0.016333006437712922 0.005092987932936398
vn -0.03262953686386956 -0.058444980652114016 -0.9977572337801534
vn -0.032970450327890984 -0.058188003470070984 -0.9977610463719974
vn -0.0322299544796653 -0.05843902808145014 -0.9977705698361393
vn -0.03247789192759478 -0.058404984977480735 -0.9977645234551688
vn -0.03354056271288718 -0.05814398561363912 -0.9977446104038166
vn -0.99978163963483 0.020276003232512208 0.00505536764303431
vn -0.9832392790425145 -0.18225202085619346 0.004972025924111678
vn -0.032908113636747414 -0.05855099844588107 -0.9977418687405382
vn -0.033796675003994005 -0.05799002823082861 -0.9977449280174078
vn -0.0014858812948419595 -0.9999988960466202 0.000007894213023553649
vn -0.9226780455405068 0.3855429917829223 0.004671805285343141
vn -0.03272660775614497 -0.05837097463705841 -0.9977583868175177
vn -0.9472383214873277 -0.3204940661538279 0.004807896219324667
vn 0.0014808913383185514 0.9999989034511105 -0.000007577638816050645
vn -0.033941086294775914 -0.05830603254722378 -0.9977216090822792
vn 0.9984436596954729 0.05554398566143304 -0.0050123917198775505
vn 0.9594548287210731 0.28182099516423353 -0.004833045464023268
vn -0.03324687335528977 -0.05860799261407492 -0.9977272917054267
vn 0.1362619996849054 0.9906726013994918 -0.0006813796553444346
vn 0.341472368902127 0.9398902527572006 -0.0017129064117237661
vn 0.2651266291812732 -0.964212679952313 -0.0013335359590881217
vn 0.44604155822522856 -0.8950094559599984 -0.0022365326283672157
vn -0.996218769387175 0.08673997606384666 0.004933565966500813
vn -0.9987706358944226 -0.04932300150092361 0.004945543245266559
vn -0.03373519934302125 -0.05839500567687096 -0.9977233883383133
vn -0.6371997465813273 0.7706919566990588 0.003223481978873828
vn 0.005038698195458916 0.9999873053551702 -0.000025475491656674333
vn -0.0337685327137704 -0.05884498213095912 -0.9976958225212564
vn -0.016269840466951176 -0.9998676340160172 0.00008208770779290178
vn -0.032879248527533565 -0.05846199439030902 -0.9977480394509287
vn 0.10793925828252107 -0.9941573410611438 -0.0005456515883443745
vn 0.6803329248730227 -0.7328952575518978 -0.00341361855737196
vn -0.9625527300623897 -0.2710519546082881 0.004804139097345601
vn -0.8609919099182897 -0.508600130800527 0.004340277058257309
vn 0.723868014464828 0.6899288446656429 -0.0036451245628752954
vn -0.033528685653089974 -0.05848501800604865 -0.9977250773169973
vn -0.13530386133431954 0.9908039157950467 0.000682314608897069
vn 0.6313020785303056 0.7755304591292905 -0.0031925861033689925
vn -0.13091750370360672 0.9913930440128952 0.0006629531370174375
vn -0.669046664012748 -0.743212736860003 0.003374780359804234
vn -0.5453071508268579 -0.8382318436395993 0.0027363416549371507
vn -0.3018861268684057 0.9533427681675638 0.0015273463914947777
vn -0.9956750495720493 0.09277096929309255 0.004974225177566186
vn -0.9269950533495442 0.3750449680797365 0.0046306569236828085
vn -0.1269980253629961 -0.9919027650673621 0.000637342624890568
vn 0.8818063728012211 -0.47159090116375335 -0.004420726943941143
vn 0.33345415836861325 0.9427648442486611 -0.0016651472839418896
vn -0.39955859895973533 -0.916705472221695 0.002000798873659742
vn -0.5979989816814987 0.801491241693327 0.0030012325434096328
vn 0.8871329219537106 0.46149213522529153 -0.004493095934101321
vn 0.9758074307057458 -0.21857697914272992 -0.0048951372084749195
vn 0.9840138840287503 0.17802196686539742 -0.004985514219057279
vn 0.9962148755466141 -0.08677801583555748 -0.0050495254517374235
vn 0.9998536364761698 0.016333006437712922 -0.005092987932936398
usemtl material_0_0
f 1//1 2//2 3//3
f 4//4 2//2 1//1
f 2//2 5//5 3//3
f 3//6 6//7 1//7
f 2//2 4//4 7//8
f 4//4 1//1 8//1
f 2//2 9//9 5//5
f 10//10 3//10 5//10
f 6//7 3//6 11//6
f 12//11 1//7 6//7
f 13//12 7//8 4//4
f 7//13 14//13 2//13
f 15//1 8//1 1//1
f 4//4 8//1 16//1
f 2//14 17//14 9//14
f 9//9 18//15 5//5
f 3//10 10//10 11//10
f 19//16 10//17 5//17
f 1//7 12//11 15//11
f 7//8 13//12 20//18
f 4//19 21//20 13//20
f 14//13 7//13 22//13
f 17//14 2//14 14//14
f 23//1 8//1 15//1
f 24//21 16//22 8//21
f 4//4 16//1 25//1
f 26//23 9//24 17//24
f 18//15 9//9 27//15
f 5//5 18//15 28//15
f 10//17 19//16 29//16
f 5//5 30//25 19//25
f 31//26 15//11 12//11
f 13//20 32//27 20//27
f 33//28 7//8 20//18
f 21//20 4//19 34//19
f 32//27 13//20 21//20
f 7//29 35//29 22//29
f 23//1 36//30 8//1
f 15//11 31//26 23//26
f 16//22 24//21 37//22
f 8//21 38//31 24//21
f 37//22 25//32 16//22
f 4//4 25//1 39//1
f 9//24 26//23 27//23
f 27//23 40//33 18//33
f 18//33 41//34 28//34
f 5//5 28//15 30//25
f 42//35 29//16 19//16
f 43//36 19//25 30//25
f 44//37 20//27 32//27
f 45//28 7//8 33//28
f 20//27 44//37 33//37
f 39//38 34//19 4//19
f 35//29 7//29 46//29
f 36//30 23//1 47//30
f 38//31 8//21 36//31
f 48//39 23//26 31//26
f 25//32 37//22 49//32
f 39//1 25//1 50//1
f 40//33 27//23 26//23
f 41//34 18//33 40//33
f 41//34 30//40 28//34
f 29//16 42//35 51//35
f 19//25 52//36 42//36
f 19//25 43//36 53//36
f 54//40 43//41 30//40
f 55//28 7//8 45//28
f 33//37 56//42 45//42
f 56//42 33//37 44//37
f 34//19 39//38 57//38
f 7//8 58//28 46//28
f 58//43 35//44 46//44
f 23//26 48//39 47//39
f 59//36 36//30 47//30
f 36//31 60//45 38//31
f 49//32 50//46 25//32
f 39//1 50//1 61//1
f 30//40 41//34 54//40
f 59//47 51//35 42//35
f 19//25 53//36 52//36
f 42//36 52//36 36//30
f 62//41 53//48 43//41
f 43//41 54//40 62//41
f 58//28 7//8 55//28
f 45//42 63//49 55//49
f 63//49 45//42 56//42
f 61//50 57//38 39//38
f 35//44 58//43 64//43
f 65//47 47//39 48//39
f 42//36 36//30 59//36
f 47//39 65//47 59//47
f 60//45 36//31 52//45
f 50//46 49//32 66//46
f 61//1 50//1 67//1
f 51//35 59//47 65//47
f 68//48 52//45 53//48
f 53//48 62//41 68//48
f 55//49 64//43 58//43
f 64//43 55//49 63//49
f 57//38 61//50 69//50
f 52//45 68//48 60//45
f 70//51 50//46 66//46
f 50//46 70//51 67//51
f 61//1 67//1 71//1
f 72//52 69//50 61//50
f 73//53 67//51 70//51
f 67//51 73//53 71//53
f 61//1 71//1 72//1
f 69//50 72//52 74//52
f 75//54 71//53 73//53
f 72//1 71//1 76//1
f 76//54 74//52 72//52
f 71//53 75//54 76//54
f 74//52 76//54 75//54
usemtl material_1_0
f 3//55 2//56 1//57
f 1//57 2//56 4//58
f 3//55 5//59 2//56
f 1//60 6//60 3//61
f 7//62 4//58 2//56
f 8//57 1//57 4//58
f 5//59 9//63 2//56
f 5//64 3//64 10//64
f 11//61 3//61 6//60
f 6//60 1//60 12//65
f 4//58 7//62 13//66
f 2//67 14//67 7//67
f 1//57 8//57 15//57
f 16//57 8//57 4//58
f 9//68 17//68 2//68
f 5//59 18//69 9//63
f 11//64 10//64 3//64
f 5//70 10//70 19//71
f 15//65 12//65 1//60
f 20//72 13//66 7//62
f 13//73 21//73 4//74
f 22//67 7//67 14//67
f 14//68 2//68 17//68
f 15//57 8//57 23//57
f 8//75 16//76 24//75
f 25//57 16//57 4//58
f 17//77 9//77 26//78
f 27//69 9//63 18//69
f 28//69 18//69 5//59
f 29//71 19//71 10//70
f 19//79 30//79 5//59
f 12//65 15//65 31//80
f 20//81 32//81 13//73
f 20//72 7//62 33//82
f 34//74 4//74 21//73
f 21//73 13//73 32//81
f 22//83 35//83 7//83
f 8//57 36//84 23//57
f 23//80 31//80 15//65
f 37//76 24//75 16//76
f 24//75 38//85 8//75
f 16//76 25//86 37//76
f 39//57 25//57 4//58
f 27//78 26//78 9//77
f 18//87 40//87 27//78
f 28//88 41//88 18//87
f 30//79 28//69 5//59
f 19//71 29//71 42//89
f 30//79 19//79 43//90
f 32//81 20//81 44//91
f 33//82 7//62 45//82
f 33//91 44//91 20//81
f 4//74 34//74 39//92
f 46//83 7//83 35//83
f 47//84 23//57 36//84
f 36//85 8//75 38//85
f 31//80 23//80 48//93
f 49//86 37//76 25//86
f 50//57 25//57 39//57
f 26//78 27//78 40//87
f 40//87 18//87 41//88
f 28//88 30//94 41//88
f 51//89 42//89 29//71
f 42//90 52//90 19//79
f 53//90 43//90 19//79
f 30//94 43//95 54//94
f 45//82 7//62 55//82
f 45//96 56//96 33//91
f 44//91 33//91 56//96
f 57//92 39//92 34//74
f 46//82 58//82 7//62
f 46//97 35//97 58//98
f 47//93 48//93 23//80
f 47//84 36//84 59//90
f 38//85 60//99 36//85
f 25//86 50//100 49//86
f 61//57 50//57 39//57
f 54//94 41//88 30//94
f 42//89 51//89 59//101
f 52//90 53//90 19//79
f 36//84 52//90 42//90
f 43//95 53//102 62//95
f 62//95 54//94 43//95
f 55//82 7//62 58//82
f 55//103 63//103 45//96
f 56//96 45//96 63//103
f 39//92 57//92 61//104
f 64//98 58//98 35//97
f 48//93 47//93 65//101
f 59//90 36//84 42//90
f 59//101 65//101 47//93
f 52//99 36//85 60//99
f 66//100 49//86 50//100
f 67//57 50//57 61//57
f 65//101 59//101 51//89
f 53//102 52//99 68//102
f 68//102 62//95 53//102
f 58//98 64//98 55//103
f 63//103 55//103 64//98
f 69//104 61//104 57//92
f 60//99 68//102 52//99
f 66//100 50//100 70//105
f 67//105 70//105 50//100
f 71//57 67//57 61//57
f 61//104 69//104 72//106
f 70//105 67//105 73//107
f 71//107 73//107 67//105
f 72//57 71//57 61//57
f 74//106 72//106 69//104
f 73//107 71//107 75//108
f 76//57 71//57 72//57
f 72//106 74//106 76//108
f 76//108 75//108 71//107
f 75//108 76//108 74//106
