# SSTK version 0.8.0
# 22
mtllib original-22.mtl
o mesh16/mesh16-geometry#mesh16-geometry
v -0.218497 0.210276 0.562988
v -0.218223 0.206975 0.565926
v -0.218237 0.206975 0.562986
v -0.218482 0.210276 0.565928
v -0.218482 0.203675 0.565928
v -0.218497 0.203675 0.562988
v -0.219270 0.213495 0.562992
v -0.219270 0.200456 0.562992
v -0.219255 0.213495 0.565932
v -0.219255 0.200456 0.565932
v -0.220537 0.216553 0.562998
v -0.220537 0.197398 0.562998
v -0.220522 0.197398 0.565938
v -0.220522 0.216553 0.565938
v -0.222267 0.219376 0.563007
v -0.222267 0.194575 0.563007
v -0.222252 0.194575 0.565947
v -0.222252 0.219376 0.565947
v -0.224402 0.221893 0.565957
v -0.224417 0.192058 0.563018
v -0.224402 0.192058 0.565957
v -0.224417 0.221893 0.563018
v -0.226919 0.224043 0.565970
v -0.226919 0.189908 0.565970
v -0.226934 0.189908 0.563030
v -0.226934 0.224043 0.563030
v -0.229742 0.225773 0.565984
v -0.229742 0.188178 0.565984
v -0.229757 0.188178 0.563044
v -0.229757 0.225773 0.563044
v -0.232800 0.227040 0.566000
v -0.232800 0.186911 0.566000
v -0.232815 0.186911 0.563060
v -0.232815 0.227040 0.563060
v -0.236019 0.227813 0.566016
v -0.236019 0.186138 0.566016
v -0.236034 0.186138 0.563076
v -0.236034 0.227813 0.563076
v -0.239319 0.228073 0.566033
v -0.239319 0.185878 0.566033
v -0.239334 0.185878 0.563093
v -0.239334 0.228073 0.563093
v -0.242620 0.227813 0.566049
v -0.242620 0.186138 0.566049
v -0.242635 0.186138 0.563109
v -0.242635 0.227813 0.563109
v -0.245839 0.227040 0.566065
v -0.245839 0.186911 0.566065
v -0.245853 0.186911 0.563126
v -0.245853 0.227040 0.563126
v -0.248897 0.225773 0.566081
v -0.248897 0.188178 0.566081
v -0.248912 0.188178 0.563141
v -0.248912 0.225773 0.563141
v -0.251720 0.224043 0.566095
v -0.251720 0.189908 0.566095
v -0.251735 0.189908 0.563155
v -0.251735 0.224043 0.563155
v -0.254237 0.221893 0.566108
v -0.254237 0.192058 0.566108
v -0.254252 0.192058 0.563168
v -0.254252 0.221893 0.563168
v -0.256387 0.219376 0.566119
v -0.256387 0.194575 0.566119
v -0.256402 0.194575 0.563179
v -0.256402 0.219376 0.563179
v -0.258132 0.216553 0.563187
v -0.258117 0.216553 0.566127
v -0.258117 0.197398 0.566127
v -0.258132 0.197398 0.563187
v -0.259398 0.213495 0.563194
v -0.259398 0.200456 0.563194
v -0.259384 0.213495 0.566134
v -0.259384 0.200456 0.566134
v -0.260171 0.210276 0.563198
v -0.260171 0.203675 0.563198
v -0.260156 0.203675 0.566138
v -0.260156 0.210276 0.566138
v -0.260431 0.206975 0.563199
v -0.260416 0.206975 0.566139
vn 0.9876759193748084 0.15643392790353006 -0.004970360932611101
vn 0.9999873213623572 -9.99999574895889e-7 -0.005035584726510566
vn 0.9876754207706151 -0.15643707223413078 -0.004970476476338644
vn -0.005037757643250157 0 -0.9999873104184511
vn 0.9510447812185916 0.3090160321418407 -0.004787065509662861
vn 0.005037757643250157 0 0.9999873104184511
vn 0.9510454386649171 -0.3090139986879266 -0.004787714439463209
vn 0.8909939622476718 0.4539929091301503 -0.004494184880189437
vn 0.8909979345100075 -0.4539851089412307 -0.004494614390502904
vn 0.8090051987222149 0.5877873354988206 -0.004078807132790594
vn 0.8090083363592528 -0.5877830140145105 -0.004079232434153433
vn 0.7070986677092593 0.707105934040808 -0.003559798880120059
vn 0.7070936734793577 -0.7071109297778777 -0.003559482284396681
vn 0.5877766931840563 0.8090177944492345 -0.0029609481778306466
vn 0.5877706026340762 -0.809022220135785 -0.0029607441193745337
vn 0.45399587252011714 0.8910008456336714 -0.002289282590679267
vn 0.4539967934099991 -0.8910003783575994 -0.0022885235531400886
vn 0.3090199021130568 0.9510542962325363 -0.0015574709217236408
vn 0.3090199021130571 -0.9510542962325361 -0.0015574709217239147
vn 0.1564322047156746 0.9876883838824496 -0.0007884614563912142
vn 0.15642216005670131 -0.9876899752302172 -0.00078782798159152
vn 0 1 0
vn 0 -1 0
vn -0.15643283836495148 0.9876882841303048 0.0007877009705760409
vn -0.1564227937076749 -0.9876898754839206 0.0007870674961591585
vn -0.3090208783348788 0.951053986133633 0.0015531298940022155
vn -0.3090208783348785 -0.9510539861336331 0.0015531298940019416
vn -0.45399604239858743 0.8910007754954538 0.002282882590061942
vn -0.45399604239858715 -0.8910007754954539 0.0022828825900616857
vn -0.5877751543497697 0.8090189223657388 0.0029582398961460403
vn -0.5877710992088202 -0.8090218569920506 0.002961392238326179
vn -0.7070985119085514 0.7071061111157235 0.003555570208865957
vn -0.7070921935317216 -0.7071123981874781 0.0035617658614733546
vn -0.8090068889007689 0.5877850791520256 0.004068714458645697
vn -0.8090083948125678 -0.5877829877097519 0.004071422575725338
vn -0.8909940302398013 0.4539928390057689 0.004487784366259634
vn -0.8909985266742122 -0.45398403152283623 0.0044860435414377006
vn -0.9510447365931686 0.3090160483987152 0.004794875438761823
vn -0.9510453856952343 -0.309014084338453 0.004792705735860568
vn -0.9876761792655614 0.1564319489114456 0.004980990980664725
vn -0.9876757045325932 -0.15643501173160945 0.004978933678714255
vn -0.9999872820021866 -0.00000199999926038629 0.005043394678120382
vn -0.9999873213623572 9.99999574895889e-7 0.005035584726510566
vn -0.9876759193748084 -0.15643392790353006 0.004970360932611101
vn -0.9876754207706151 0.15643707223413078 0.004970476476338644
vn -0.9510447812185916 -0.3090160321418407 0.004787065509662861
vn -0.9510454386649171 0.3090139986879266 0.004787714439463209
vn -0.8909939622476718 -0.4539929091301503 0.004494184880189437
vn -0.8909979345100075 0.4539851089412307 0.004494614390502904
vn -0.8090051987222149 -0.5877873354988206 0.004078807132790594
vn -0.8090083363592528 0.5877830140145105 0.004079232434153433
vn -0.7070986677092593 -0.707105934040808 0.003559798880120059
vn -0.7070936734793577 0.7071109297778777 0.003559482284396681
vn -0.5877766931840563 -0.8090177944492345 0.0029609481778306466
vn -0.5877706026340762 0.809022220135785 0.0029607441193745337
vn -0.45399587252011714 -0.8910008456336714 0.002289282590679267
vn -0.4539967934099991 0.8910003783575994 0.0022885235531400886
vn -0.3090199021130568 -0.9510542962325363 0.0015574709217236408
vn -0.3090199021130571 0.9510542962325361 0.0015574709217239147
vn -0.1564322047156746 -0.9876883838824496 0.0007884614563912142
vn -0.15642216005670131 0.9876899752302172 0.00078782798159152
vn 0.15643283836495148 -0.9876882841303048 -0.0007877009705760409
vn 0.1564227937076749 0.9876898754839206 -0.0007870674961591585
vn 0.3090208783348788 -0.951053986133633 -0.0015531298940022155
vn 0.3090208783348785 0.9510539861336331 -0.0015531298940019416
vn 0.45399604239858743 -0.8910007754954538 -0.002282882590061942
vn 0.45399604239858715 0.8910007754954539 -0.0022828825900616857
vn 0.5877751543497697 -0.8090189223657388 -0.0029582398961460403
vn 0.5877710992088202 0.8090218569920506 -0.002961392238326179
vn 0.7070985119085514 -0.7071061111157235 -0.003555570208865957
vn 0.7070921935317216 0.7071123981874781 -0.0035617658614733546
vn 0.8090068889007689 -0.5877850791520256 -0.004068714458645697
vn 0.8090083948125678 0.5877829877097519 -0.004071422575725338
vn 0.8909940302398013 -0.4539928390057689 -0.004487784366259634
vn 0.8909985266742122 0.45398403152283623 -0.0044860435414377006
vn 0.9510447365931686 -0.3090160483987152 -0.004794875438761823
vn 0.9510453856952343 0.309014084338453 -0.004792705735860568
vn 0.9876761792655614 -0.1564319489114456 -0.004980990980664725
vn 0.9876757045325932 0.15643501173160945 -0.004978933678714255
vn 0.9999872820021866 0.00000199999926038629 -0.005043394678120382
usemtl material_0_0
f 1//1 2//2 3//2
f 2//2 1//1 4//1
f 5//3 3//2 2//2
f 6//4 1//4 3//4
f 7//5 4//1 1//1
f 4//6 5//6 2//6
f 3//2 5//3 6//3
f 1//4 6//4 8//4
f 4//1 7//5 9//5
f 1//4 8//4 7//4
f 5//6 4//6 9//6
f 10//7 6//3 5//3
f 6//3 10//7 8//7
f 11//8 9//5 7//5
f 7//4 8//4 12//4
f 5//6 9//6 10//6
f 13//9 8//7 10//7
f 9//5 11//8 14//8
f 7//4 12//4 11//4
f 8//7 13//9 12//9
f 10//6 9//6 14//6
f 10//6 14//6 13//6
f 15//10 14//8 11//8
f 11//4 12//4 16//4
f 17//11 12//9 13//9
f 13//6 14//6 18//6
f 14//8 15//10 18//10
f 11//4 16//4 15//4
f 12//9 17//11 16//11
f 13//6 18//6 17//6
f 15//10 19//12 18//10
f 15//4 16//4 20//4
f 21//13 16//11 17//11
f 17//6 18//6 19//6
f 19//12 15//10 22//12
f 16//11 21//13 20//13
f 15//4 20//4 22//4
f 17//6 19//6 21//6
f 22//12 23//14 19//12
f 24//15 20//13 21//13
f 22//4 20//4 25//4
f 21//6 19//6 23//6
f 23//14 22//12 26//14
f 20//13 24//15 25//15
f 21//6 23//6 24//6
f 22//4 25//4 26//4
f 26//14 27//16 23//14
f 28//17 25//15 24//15
f 24//6 23//6 27//6
f 26//4 25//4 29//4
f 27//16 26//14 30//16
f 25//15 28//17 29//17
f 24//6 27//6 28//6
f 26//4 29//4 30//4
f 30//16 31//18 27//16
f 32//19 29//17 28//17
f 28//6 27//6 31//6
f 30//4 29//4 33//4
f 31//18 30//16 34//18
f 29//17 32//19 33//19
f 28//6 31//6 32//6
f 30//4 33//4 34//4
f 34//18 35//20 31//18
f 36//21 33//19 32//19
f 32//6 31//6 35//6
f 34//4 33//4 37//4
f 35//20 34//18 38//20
f 33//19 36//21 37//21
f 32//6 35//6 36//6
f 34//4 37//4 38//4
f 38//20 39//22 35//20
f 40//23 37//21 36//21
f 36//6 35//6 39//6
f 38//4 37//4 41//4
f 39//22 38//20 42//22
f 37//21 40//23 41//23
f 36//6 39//6 40//6
f 38//4 41//4 42//4
f 42//22 43//24 39//22
f 44//25 41//23 40//23
f 40//6 39//6 43//6
f 42//4 41//4 45//4
f 43//24 42//22 46//24
f 41//23 44//25 45//25
f 40//6 43//6 44//6
f 42//4 45//4 46//4
f 46//24 47//26 43//24
f 48//27 45//25 44//25
f 44//6 43//6 47//6
f 46//4 45//4 49//4
f 47//26 46//24 50//26
f 45//25 48//27 49//27
f 44//6 47//6 48//6
f 46//4 49//4 50//4
f 50//26 51//28 47//26
f 52//29 49//27 48//27
f 48//6 47//6 51//6
f 50//4 49//4 53//4
f 51//28 50//26 54//28
f 49//27 52//29 53//29
f 48//6 51//6 52//6
f 50//4 53//4 54//4
f 54//28 55//30 51//28
f 56//31 53//29 52//29
f 52//6 51//6 55//6
f 54//4 53//4 57//4
f 55//30 54//28 58//30
f 53//29 56//31 57//31
f 52//6 55//6 56//6
f 54//4 57//4 58//4
f 58//30 59//32 55//30
f 60//33 57//31 56//31
f 56//6 55//6 59//6
f 58//4 57//4 61//4
f 59//32 58//30 62//32
f 57//31 60//33 61//33
f 56//6 59//6 60//6
f 58//4 61//4 62//4
f 62//32 63//34 59//32
f 64//35 61//33 60//33
f 60//6 59//6 64//6
f 62//4 61//4 65//4
f 63//34 62//32 66//34
f 64//6 59//6 63//6
f 61//33 64//35 65//35
f 62//4 65//4 66//4
f 67//36 63//34 66//34
f 64//6 63//6 68//6
f 69//37 65//35 64//35
f 66//4 65//4 70//4
f 63//34 67//36 68//36
f 66//4 70//4 67//4
f 64//6 68//6 69//6
f 65//35 69//37 70//37
f 71//38 68//36 67//36
f 67//4 70//4 72//4
f 69//6 68//6 73//6
f 74//39 70//37 69//37
f 68//36 71//38 73//38
f 67//4 72//4 71//4
f 70//37 74//39 72//39
f 69//6 73//6 74//6
f 75//40 73//38 71//38
f 71//4 72//4 76//4
f 77//41 72//39 74//39
f 74//6 73//6 78//6
f 73//38 75//40 78//40
f 71//4 76//4 75//4
f 72//39 77//41 76//41
f 74//6 78//6 77//6
f 79//42 78//40 75//40
f 75//4 76//4 79//4
f 80//42 76//41 77//41
f 77//6 78//6 80//6
f 78//40 79//42 80//42
f 76//41 80//42 79//42
usemtl material_1_0
f 3//43 2//43 1//44
f 4//44 1//44 2//43
f 2//43 3//43 5//45
f 3//6 1//6 6//6
f 1//44 4//44 7//46
f 2//4 5//4 4//4
f 6//45 5//45 3//43
f 8//6 6//6 1//6
f 9//46 7//46 4//44
f 7//6 8//6 1//6
f 9//4 4//4 5//4
f 5//45 6//45 10//47
f 8//47 10//47 6//45
f 7//46 9//46 11//48
f 12//6 8//6 7//6
f 10//4 9//4 5//4
f 10//47 8//47 13//49
f 14//48 11//48 9//46
f 11//6 12//6 7//6
f 12//49 13//49 8//47
f 14//4 9//4 10//4
f 13//4 14//4 10//4
f 11//48 14//48 15//50
f 16//6 12//6 11//6
f 13//49 12//49 17//51
f 18//4 14//4 13//4
f 18//50 15//50 14//48
f 15//6 16//6 11//6
f 16//51 17//51 12//49
f 17//4 18//4 13//4
f 18//50 19//52 15//50
f 20//6 16//6 15//6
f 17//51 16//51 21//53
f 19//4 18//4 17//4
f 22//52 15//50 19//52
f 20//53 21//53 16//51
f 22//6 20//6 15//6
f 21//4 19//4 17//4
f 19//52 23//54 22//52
f 21//53 20//53 24//55
f 25//6 20//6 22//6
f 23//4 19//4 21//4
f 26//54 22//52 23//54
f 25//55 24//55 20//53
f 24//4 23//4 21//4
f 26//6 25//6 22//6
f 23//54 27//56 26//54
f 24//55 25//55 28//57
f 27//4 23//4 24//4
f 29//6 25//6 26//6
f 30//56 26//54 27//56
f 29//57 28//57 25//55
f 28//4 27//4 24//4
f 30//6 29//6 26//6
f 27//56 31//58 30//56
f 28//57 29//57 32//59
f 31//4 27//4 28//4
f 33//6 29//6 30//6
f 34//58 30//56 31//58
f 33//59 32//59 29//57
f 32//4 31//4 28//4
f 34//6 33//6 30//6
f 31//58 35//60 34//58
f 32//59 33//59 36//61
f 35//4 31//4 32//4
f 37//6 33//6 34//6
f 38//60 34//58 35//60
f 37//61 36//61 33//59
f 36//4 35//4 32//4
f 38//6 37//6 34//6
f 35//60 39//23 38//60
f 36//61 37//61 40//22
f 39//4 35//4 36//4
f 41//6 37//6 38//6
f 42//23 38//60 39//23
f 41//22 40//22 37//61
f 40//4 39//4 36//4
f 42//6 41//6 38//6
f 39//23 43//62 42//23
f 40//22 41//22 44//63
f 43//4 39//4 40//4
f 45//6 41//6 42//6
f 46//62 42//23 43//62
f 45//63 44//63 41//22
f 44//4 43//4 40//4
f 46//6 45//6 42//6
f 43//62 47//64 46//62
f 44//63 45//63 48//65
f 47//4 43//4 44//4
f 49//6 45//6 46//6
f 50//64 46//62 47//64
f 49//65 48//65 45//63
f 48//4 47//4 44//4
f 50//6 49//6 46//6
f 47//64 51//66 50//64
f 48//65 49//65 52//67
f 51//4 47//4 48//4
f 53//6 49//6 50//6
f 54//66 50//64 51//66
f 53//67 52//67 49//65
f 52//4 51//4 48//4
f 54//6 53//6 50//6
f 51//66 55//68 54//66
f 52//67 53//67 56//69
f 55//4 51//4 52//4
f 57//6 53//6 54//6
f 58//68 54//66 55//68
f 57//69 56//69 53//67
f 56//4 55//4 52//4
f 58//6 57//6 54//6
f 55//68 59//70 58//68
f 56//69 57//69 60//71
f 59//4 55//4 56//4
f 61//6 57//6 58//6
f 62//70 58//68 59//70
f 61//71 60//71 57//69
f 60//4 59//4 56//4
f 62//6 61//6 58//6
f 59//70 63//72 62//70
f 60//71 61//71 64//73
f 64//4 59//4 60//4
f 65//6 61//6 62//6
f 66//72 62//70 63//72
f 63//4 59//4 64//4
f 65//73 64//73 61//71
f 66//6 65//6 62//6
f 66//72 63//72 67//74
f 68//4 63//4 64//4
f 64//73 65//73 69//75
f 70//6 65//6 66//6
f 68//74 67//74 63//72
f 67//6 70//6 66//6
f 69//4 68//4 64//4
f 70//75 69//75 65//73
f 67//74 68//74 71//76
f 72//6 70//6 67//6
f 73//4 68//4 69//4
f 69//75 70//75 74//77
f 73//76 71//76 68//74
f 71//6 72//6 67//6
f 72//77 74//77 70//75
f 74//4 73//4 69//4
f 71//76 73//76 75//78
f 76//6 72//6 71//6
f 74//77 72//77 77//79
f 78//4 73//4 74//4
f 78//78 75//78 73//76
f 75//6 76//6 71//6
f 76//79 77//79 72//77
f 77//4 78//4 74//4
f 75//78 78//78 79//80
f 79//6 76//6 75//6
f 77//79 76//79 80//80
f 80//4 78//4 77//4
f 80//80 79//80 78//78
f 79//80 80//80 76//79
