# SSTK version 0.8.0
# 37
mtllib original-37.mtl
o mesh29/mesh29-geometry#mesh29-geometry
v -0.043401 0.623812 0.357946
v -0.036542 0.662916 0.355722
v -0.043412 0.662916 0.355756
v -0.036531 0.623812 0.357919
v -0.036548 0.662916 0.354562
v -0.043406 0.623812 0.356786
v -0.036537 0.623812 0.356759
v -0.043417 0.662916 0.354596
vn 0.00448084428772357 0.05600798545153582 0.9984202660203416
vn 0.005030324615192479 0.05591198257724207 0.9984230296014551
vn 0.0039321256234980595 0.05610400709008845 0.9984171867393491
vn 0.000009761158431235128 0.9999999980954999 -0.00006094029677931488
vn -0.9999873104184511 0 0.005037757643250157
vn 0 -1 0
vn 0.9999873033178615 0 -0.00503916690248443
vn -0.005030324615192479 -0.05591198257724207 -0.9984230296014551
vn -0.00448084428772357 -0.05600798545153582 -0.9984202660203416
vn -0.0039321256234980595 -0.05610400709008845 -0.9984171867393491
vn -0.000009761158431235128 -0.9999999980954999 0.00006094029677931488
vn 0.9999873104184511 0 -0.005037757643250157
vn 0 1 0
vn -0.9999873033178615 0 0.00503916690248443
usemtl material_0_0
f 1//1 2//1 3//2
f 1//1 4//3 2//1
f 5//4 3//4 2//4
f 3//5 6//5 1//5
f 1//6 7//6 4//6
f 4//7 5//7 2//7
f 3//4 5//4 8//4
f 6//5 3//5 8//5
f 7//6 1//6 6//6
f 5//7 4//7 7//7
usemtl material_1_0
f 3//8 2//9 1//9
f 2//9 4//10 1//9
f 2//11 3//11 5//11
f 1//12 6//12 3//12
f 4//13 7//13 1//13
f 2//14 5//14 4//14
f 8//11 5//11 3//11
f 8//12 3//12 6//12
f 6//13 1//13 7//13
f 7//14 4//14 5//14
