# SSTK version 0.8.0
# 75
mtllib original-75.mtl
o mesh61/mesh61-geometry#mesh61-geometry
v 0.439671 0.495529 0.294544
v 0.441485 0.489978 0.294802
v 0.441483 0.495437 0.294482
v 0.436494 0.490075 0.294981
v 0.441481 0.495437 0.294115
v 0.433552 0.495657 0.294762
v 0.441483 0.489978 0.294435
v 0.439669 0.495529 0.294178
v 0.435514 0.489809 0.295033
v 0.436493 0.490075 0.294615
v 0.433550 0.495657 0.294395
v 0.434267 0.488743 0.295141
v 0.430882 0.495210 0.294884
v 0.428507 0.493732 0.295055
v 0.435512 0.489809 0.294666
v 0.430880 0.495210 0.294517
v 0.433525 0.487587 0.295235
v 0.434265 0.488743 0.294774
v 0.433169 0.486223 0.295328
v 0.428505 0.493732 0.294689
v 0.430587 0.476585 0.295986
v 0.433523 0.487587 0.294869
v 0.426395 0.491484 0.295262
v 0.428181 0.477419 0.296022
v 0.433288 0.485006 0.295395
v 0.433167 0.486223 0.294961
v 0.426393 0.491484 0.294895
v 0.430586 0.476585 0.295619
v 0.434182 0.476253 0.295875
v 0.425057 0.488846 0.295096
v 0.426309 0.478964 0.295998
v 0.428179 0.477419 0.295656
v 0.434180 0.476253 0.295509
v 0.434061 0.483730 0.295442
v 0.433286 0.485006 0.295028
v 0.425059 0.488846 0.295463
v 0.434982 0.482927 0.295455
v 0.438338 0.476366 0.295349
v 0.424553 0.485939 0.295284
v 0.425061 0.481488 0.295894
v 0.426307 0.478964 0.295631
v 0.436200 0.482243 0.295451
v 0.434980 0.482927 0.295089
v 0.434059 0.483730 0.295075
v 0.438340 0.476366 0.295716
v 0.424555 0.485939 0.295651
v 0.436198 0.482243 0.295084
v 0.442110 0.476716 0.295188
v 0.424583 0.483328 0.295436
v 0.424585 0.483328 0.295803
v 0.425059 0.481488 0.295527
v 0.438546 0.482150 0.295370
v 0.438544 0.482150 0.295003
v 0.442112 0.476716 0.295555
v 0.441931 0.482294 0.294868
v 0.441933 0.482294 0.295235
vn 0.03683967926136585 0.0585029975044379 0.9976072560456424
vn 0.9999868633988573 -0.0000019999996506082295 -0.005125721970148823
vn 0.05051259063841625 0.998723391586535 -0.0002555090683842183
vn 0.035690962273327104 0.9993628582993511 -0.00018073116835371218
vn 0.03634914896378266 0.05841998313760027 0.9976301142907681
vn 0.12230638327750633 -0.9924921967730111 -0.0006228597420194982
vn -0.019309068154519732 -0.9998135576675827 0.00009894996374375202
vn -0.0722556416329905 0.9973860768979708 0.00036859500804412905
vn 0.03570103417061086 0.05838999912809154 0.997655273208622
vn 0.46692359263638983 -0.8842945246254986 -0.002356343966867552
vn -0.35334292736886114 0.9354921504304241 0.001792250391152657
vn 0.7535018357995026 -0.6574349206946163 -0.0037826575370860168
vn 0.03585877126546309 0.058337036163548496 0.997652714492866
vn 0.03554408084376224 0.058442000109695844 0.997657832596001
vn -0.6338158043153596 0.7734773114441826 0.0032210062329438823
vn 0.9157609504028628 -0.4016970099602783 -0.0046253547126139365
vn 0.9968572728036313 -0.0790559647269361 -0.005072681697079645
vn -0.818601387740853 0.574346845275001 0.004179630534336761
vn -0.48988305154293477 -0.8717846402642448 0.0024772586306948913
vn -0.21124311790841802 -0.9774329720361319 0.0010631617678278722
vn 0.03621333759133692 0.05843497458879737 0.9976341753996314
vn 0.949000623545408 0.31523699379834264 -0.004842958951974773
vn -0.9490584052044471 0.3150631705566579 0.004831363117988308
vn -0.03246300348570878 -0.999472924494321 0.00016311792081957107
vn -0.7838875954217375 -0.6208900394265188 0.0039745043542999845
vn 0.036883362634094786 0.05842696249930905 0.9976100979911471
vn 0.7654232578847606 0.6435151422081745 -0.003936754738597746
vn 0.059785484932814874 -0.9982112016296992 -0.0003045198519194868
vn -0.9967619146454543 0.08025000802993656 0.005061790545167035
vn 0.57632350992451 0.8172162033818476 -0.002981415511424788
vn -0.93728815812063 -0.3485230765003009 0.004751188651528202
vn 0.27210313729801117 0.9622670701545645 -0.001402985648618609
vn 0.09246647123131138 -0.9957156872377861 -0.0004710484184927599
vn -0.991274969433813 -0.13171403321261965 0.005034722321834653
vn -0.0014482428525682044 0.9999989512690524 0.000007309963261076813
vn 0.9994769090914013 0.03193199957747578 -0.005124021475640997
vn -0.042278017001030434 0.999105861815676 0.00021485812968127614
vn -0.03683967926136585 -0.0585029975044379 -0.9976072560456424
vn -0.9999868633988573 0.0000019999996506082295 0.005125721970148823
vn -0.05051259063841625 -0.998723391586535 0.0002555090683842183
vn -0.035690962273327104 -0.9993628582993511 0.00018073116835371218
vn -0.03634914896378266 -0.05841998313760027 -0.9976301142907681
vn 0.019309068154519732 0.9998135576675827 -0.00009894996374375202
vn -0.12230638327750633 0.9924921967730111 0.0006228597420194982
vn 0.0722556416329905 -0.9973860768979708 -0.00036859500804412905
vn -0.03570103417061086 -0.05838999912809154 -0.997655273208622
vn -0.46692359263638983 0.8842945246254986 0.002356343966867552
vn 0.35334292736886114 -0.9354921504304241 -0.001792250391152657
vn -0.7535018357995026 0.6574349206946163 0.0037826575370860168
vn -0.03585877126546309 -0.058337036163548496 -0.997652714492866
vn -0.03554408084376224 -0.058442000109695844 -0.997657832596001
vn 0.6338158043153596 -0.7734773114441826 -0.0032210062329438823
vn -0.9157609504028628 0.4016970099602783 0.0046253547126139365
vn -0.9968572728036313 0.0790559647269361 0.005072681697079645
vn 0.818601387740853 -0.574346845275001 -0.004179630534336761
vn 0.21124311790841802 0.9774329720361319 -0.0010631617678278722
vn 0.48988305154293477 0.8717846402642448 -0.0024772586306948913
vn -0.03621333759133692 -0.05843497458879737 -0.9976341753996314
vn -0.949000623545408 -0.31523699379834264 0.004842958951974773
vn 0.9490584052044471 -0.3150631705566579 -0.004831363117988308
vn 0.03246300348570878 0.999472924494321 -0.00016311792081957107
vn 0.7838875954217375 0.6208900394265188 -0.0039745043542999845
vn -0.036883362634094786 -0.05842696249930905 -0.9976100979911471
vn -0.7654232578847606 -0.6435151422081745 0.003936754738597746
vn -0.059785484932814874 0.9982112016296992 0.0003045198519194868
vn 0.9967619146454543 -0.08025000802993656 -0.005061790545167035
vn -0.57632350992451 -0.8172162033818476 0.002981415511424788
vn 0.93728815812063 0.3485230765003009 -0.004751188651528202
vn -0.27210313729801117 -0.9622670701545645 0.001402985648618609
vn -0.09246647123131138 0.9957156872377861 0.0004710484184927599
vn 0.991274969433813 0.13171403321261965 -0.005034722321834653
vn 0.0014482428525682044 -0.9999989512690524 -0.000007309963261076813
vn -0.9994769090914013 -0.03193199957747578 0.005124021475640997
vn 0.042278017001030434 -0.999105861815676 -0.00021485812968127614
usemtl material_0_0
f 1//1 2//1 3//1
f 2//1 1//1 4//1
f 2//2 5//2 3//2
f 5//3 1//4 3//3
f 4//1 1//1 6//5
f 4//6 7//7 2//7
f 5//2 2//2 7//2
f 1//4 5//3 8//4
f 8//4 6//8 1//4
f 4//1 6//5 9//5
f 7//7 4//6 10//6
f 6//8 8//4 11//8
f 6//5 12//9 9//5
f 9//10 10//6 4//6
f 11//8 13//11 6//8
f 12//9 6//5 14//9
f 12//12 15//10 9//10
f 10//6 9//10 15//10
f 13//11 11//8 16//11
f 14//9 6//5 13//13
f 14//9 17//14 12//9
f 15//10 12//12 18//12
f 16//11 14//15 13//11
f 17//14 14//9 19//14
f 17//16 18//12 12//12
f 14//15 16//11 20//15
f 19//14 14//9 21//14
f 19//17 22//16 17//16
f 18//12 17//16 22//16
f 20//15 23//18 14//15
f 21//14 14//9 24//14
f 21//14 25//14 19//14
f 22//16 19//17 26//17
f 23//18 20//15 27//18
f 24//14 14//9 23//14
f 24//19 28//20 21//20
f 29//21 25//14 21//14
f 25//22 26//17 19//17
f 30//23 23//18 27//18
f 24//14 23//14 31//14
f 28//20 24//19 32//19
f 33//24 21//20 28//20
f 25//14 29//21 34//21
f 21//20 33//24 29//24
f 26//17 25//22 35//22
f 23//18 30//23 36//23
f 31//14 23//14 36//14
f 31//25 32//19 24//19
f 29//21 37//26 34//21
f 34//27 35//22 25//22
f 38//28 29//24 33//24
f 39//29 36//23 30//23
f 31//14 36//14 40//14
f 32//19 31//25 41//25
f 29//21 42//26 37//26
f 43//30 34//27 37//30
f 35//22 34//27 44//27
f 29//24 38//28 45//28
f 36//23 39//29 46//29
f 40//14 36//14 46//14
f 40//31 41//25 31//25
f 45//26 42//26 29//21
f 47//32 37//30 42//32
f 34//27 43//30 44//27
f 37//30 47//32 43//30
f 48//33 45//28 38//28
f 49//34 46//29 39//29
f 40//14 46//14 50//14
f 41//25 40//31 51//31
f 45//26 52//26 42//26
f 42//32 53//35 47//32
f 45//28 48//33 54//33
f 46//29 49//34 50//34
f 50//34 51//31 40//31
f 54//26 52//26 45//26
f 53//35 42//32 52//35
f 55//36 54//36 48//36
f 51//31 50//34 49//34
f 52//26 54//26 56//26
f 52//35 55//37 53//35
f 54//36 55//36 56//36
f 55//37 52//35 56//37
usemtl material_1_0
f 3//38 2//38 1//38
f 4//38 1//38 2//38
f 3//39 5//39 2//39
f 3//40 1//41 5//40
f 6//42 1//38 4//38
f 2//43 7//43 4//44
f 7//39 2//39 5//39
f 8//41 5//40 1//41
f 1//41 6//45 8//41
f 9//42 6//42 4//38
f 10//44 4//44 7//43
f 11//45 8//41 6//45
f 9//42 12//46 6//42
f 4//44 10//44 9//47
f 6//45 13//48 11//45
f 14//46 6//42 12//46
f 9//47 15//47 12//49
f 15//47 9//47 10//44
f 16//48 11//45 13//48
f 13//50 6//42 14//46
f 12//46 17//51 14//46
f 18//49 12//49 15//47
f 13//48 14//52 16//48
f 19//51 14//46 17//51
f 12//49 18//49 17//53
f 20//52 16//48 14//52
f 21//51 14//46 19//51
f 17//53 22//53 19//54
f 22//53 17//53 18//49
f 14//52 23//55 20//52
f 24//51 14//46 21//51
f 19//51 25//51 21//51
f 26//54 19//54 22//53
f 27//55 20//52 23//55
f 23//51 14//46 24//51
f 21//56 28//56 24//57
f 21//51 25//51 29//58
f 19//54 26//54 25//59
f 27//55 23//55 30//60
f 31//51 23//51 24//51
f 32//57 24//57 28//56
f 28//56 21//56 33//61
f 34//58 29//58 25//51
f 29//61 33//61 21//56
f 35//59 25//59 26//54
f 36//60 30//60 23//55
f 36//51 23//51 31//51
f 24//57 32//57 31//62
f 34//58 37//63 29//58
f 25//59 35//59 34//64
f 33//61 29//61 38//65
f 30//60 36//60 39//66
f 40//51 36//51 31//51
f 41//62 31//62 32//57
f 37//63 42//63 29//58
f 37//67 34//64 43//67
f 44//64 34//64 35//59
f 45//65 38//65 29//61
f 46//66 39//66 36//60
f 46//51 36//51 40//51
f 31//62 41//62 40//68
f 29//58 42//63 45//63
f 42//69 37//67 47//69
f 44//64 43//67 34//64
f 43//67 47//69 37//67
f 38//65 45//65 48//70
f 39//66 46//66 49//71
f 50//51 46//51 40//51
f 51//68 40//68 41//62
f 42//63 52//63 45//63
f 47//69 53//72 42//69
f 54//70 48//70 45//65
f 50//71 49//71 46//66
f 40//68 51//68 50//71
f 45//63 52//63 54//63
f 52//72 42//69 53//72
f 48//73 54//73 55//73
f 49//71 50//71 51//68
f 56//63 54//63 52//63
f 53//72 55//74 52//72
f 56//73 55//73 54//73
f 56//74 52//72 55//74
