# SSTK version 0.8.0
# 12
mtllib original-12.mtl
o mesh8/mesh8-geometry#mesh8-geometry
v 0.067579 0.589769 0.359754
v 0.067193 0.590216 0.359095
v 0.067542 0.589752 0.359087
v 0.067230 0.590232 0.359761
v 0.067323 0.590432 0.359082
v 0.067919 0.589313 0.359746
v 0.067359 0.590449 0.359749
v 0.067584 0.590587 0.359064
v 0.067883 0.589296 0.359080
v 0.067620 0.590603 0.359731
v 0.068244 0.588871 0.359739
v 0.067935 0.590633 0.359713
v 0.067899 0.590617 0.359046
v 0.068207 0.588854 0.359073
v 0.068545 0.588450 0.359733
v 0.068285 0.590168 0.359705
v 0.068248 0.590152 0.359039
v 0.068509 0.588433 0.359067
v 0.068816 0.588056 0.359728
v 0.068628 0.589709 0.359698
v 0.068591 0.589693 0.359032
v 0.068780 0.588039 0.359062
v 0.069049 0.587697 0.359725
v 0.068956 0.589262 0.359691
v 0.068920 0.589245 0.359025
v 0.069012 0.587681 0.359058
v 0.069227 0.587398 0.359722
v 0.069265 0.588831 0.359685
v 0.069191 0.587381 0.359056
v 0.069228 0.588815 0.359018
v 0.069382 0.587063 0.359722
v 0.069545 0.588424 0.359679
v 0.069346 0.587047 0.359056
v 0.069460 0.586764 0.359725
v 0.069508 0.588407 0.359013
v 0.069423 0.586747 0.359059
v 0.069790 0.588045 0.359675
v 0.069473 0.586498 0.359731
v 0.069754 0.588029 0.359009
v 0.069784 0.585401 0.359741
v 0.069436 0.586481 0.359065
v 0.069994 0.587701 0.359673
v 0.069748 0.585384 0.359075
v 0.069397 0.585145 0.359769
v 0.069958 0.587684 0.359007
v 0.070063 0.585710 0.359718
v 0.069361 0.585129 0.359103
v 0.069430 0.586272 0.359739
v 0.070187 0.587278 0.359673
v 0.070026 0.585694 0.359052
v 0.069393 0.586256 0.359073
v 0.069338 0.586085 0.359749
v 0.070151 0.587262 0.359007
v 0.070238 0.586063 0.359700
v 0.070201 0.586047 0.359034
v 0.067921 0.584392 0.359868
v 0.069301 0.586069 0.359082
v 0.070295 0.586857 0.359677
v 0.067884 0.584376 0.359202
v 0.069192 0.585923 0.359761
v 0.070259 0.586841 0.359011
v 0.070314 0.586449 0.359686
v 0.070277 0.586432 0.359020
v 0.067513 0.584139 0.359897
v 0.069156 0.585907 0.359094
v 0.068928 0.585754 0.359779
v 0.067476 0.584123 0.359230
v 0.067461 0.585008 0.359878
v 0.068891 0.585738 0.359113
v 0.067189 0.583846 0.359921
v 0.067425 0.584991 0.359212
v 0.067153 0.583829 0.359255
v 0.066961 0.584694 0.359913
v 0.066952 0.583526 0.359942
v 0.066924 0.584677 0.359247
v 0.066916 0.583509 0.359276
v 0.066527 0.584300 0.359946
v 0.066805 0.583192 0.359959
v 0.066491 0.584284 0.359280
v 0.066769 0.583176 0.359292
v 0.066750 0.582859 0.359970
v 0.066714 0.582843 0.359304
v 0.066201 0.583858 0.359975
v 0.066178 0.581912 0.360025
v 0.066142 0.581895 0.359358
v 0.066164 0.583841 0.359309
v 0.066790 0.582540 0.359976
v 0.066753 0.582524 0.359309
v 0.065990 0.583378 0.359999
v 0.066927 0.582248 0.359975
v 0.066890 0.582232 0.359309
v 0.065953 0.583361 0.359332
v 0.065973 0.582362 0.360025
v 0.067018 0.580762 0.360007
v 0.066981 0.580746 0.359341
v 0.065936 0.582345 0.359358
v 0.065907 0.582873 0.360016
v 0.067360 0.580783 0.359988
v 0.067324 0.580766 0.359322
v 0.067728 0.581156 0.359959
v 0.065871 0.582857 0.359349
v 0.067615 0.580938 0.359970
v 0.067579 0.580922 0.359304
v 0.067692 0.581140 0.359292
vn -0.7984085948579648 -0.5992727888756343 0.05844518945259371
vn -0.7973124839417187 -0.6007321702700487 0.058426556918269784
vn -0.054519903064752885 -0.024718005236510188 -0.9982066922170667
vn -0.8017816229987781 -0.5947470203947678 0.05849966455451409
vn 0.054521302689502726 0.02471800059879379 0.9982066158864294
vn -0.8566090762520591 0.5148418882358181 0.03403998531684842
vn -0.7048800715173111 0.7090180057242569 0.020917751708737064
vn -0.310305959089025 0.9506134934343647 -0.006648146685615529
vn -0.807733628816436 -0.5866261585210751 0.05861855523499772
vn -0.0953833774889925 0.995249661660954 -0.019496724405625672
vn -0.8167271373932341 -0.5740203800415119 0.05879954372656175
vn 0.7984122937089715 0.5992667824835761 -0.058456245741247574
vn 0.7973124334270122 0.6007319650082652 -0.058429356662595876
vn -0.8296001061925636 -0.5552292912916852 0.05902624752616537
vn 0.8017929694216389 0.5947289519560129 -0.05852783860124196
vn -0.8473308380236255 -0.5277428217915702 0.05931243530366672
vn 0.8077373642907543 0.5866194088404331 -0.058634627144087965
vn -0.8830148165287275 -0.46552782449557767 0.05973841654372992
vn 0.816754132267323 0.5739818355938324 -0.05880084891042879
vn -0.9401482581116145 -0.33550221925328816 0.05966165976416936
vn 0.8296827262209849 0.5551041798493426 -0.059041708345057106
vn -0.9870669928681154 -0.1495949938045234 0.05762021710233641
vn 0.8480277304275953 0.5266189259410591 -0.059342019400314396
vn -0.9960707414725309 0.07122799482610548 0.05262747129983245
vn 0.8845879409601572 0.4625300111511361 -0.059750845118703946
vn -0.9470317782195014 0.31813200739831893 0.04385016432267104
vn 0.5032910201929636 -0.864095401463137 -0.006106239709160009
vn 0.6517588990658821 -0.7582396977425903 -0.016819579532631263
vn 0.9412928354555162 0.332285069833536 -0.05961904297988006
vn 0.8258631331377639 -0.5630078326028763 -0.031181176239638626
vn 0.9453506243329298 -0.3231198865324328 -0.04365473629066689
vn 0.49108626762357677 -0.8710948780075262 -0.005290676761791786
vn -0.827154131985975 0.5611019976355159 0.03131437669763784
vn 0.9875776329703251 0.14621099231536971 -0.057556620669430694
vn 0.9957018162510644 -0.07629399965675329 -0.05250827297395045
vn 0.6015454338676425 -0.7987312541902715 -0.013094829996060644
vn -0.6457817582241436 0.7633462970310788 0.01638143931020483
vn -0.49637530639227273 0.8680899464488349 0.005603577289220066
vn 0.7404606642894931 -0.6716779319012645 -0.02380673091381524
vn -0.4927555157067597 0.8701514448537278 0.005335237533148676
vn 0.8633256664617865 -0.5034538472387842 -0.034684540198463065
vn -0.603430505572784 0.7973068640906847 0.013167741569939528
vn 0.9567840297847106 -0.2872751109930696 -0.045136802643181886
vn -0.740903057373806 0.6711891589892931 0.02382797577202226
vn 0.9983082575118942 -0.021592997781859424 -0.05398486297433736
vn -0.863933107267575 0.5024070011188603 0.034738903174196874
vn 0.9592540172311821 0.2762681216519315 -0.05922546230087941
vn -0.9573891670395265 0.2852389079241823 0.045218892529356694
vn 0.8581838677421758 0.5098852265392522 -0.05947692749373668
vn -0.998362911575418 0.01868399538468004 0.05405927401583925
vn -0.9601136728436285 -0.2732699643102618 0.05920525166390536
vn -0.8611722546726924 -0.5048117890298585 0.05956009938226429
vn -0.8057943550937092 -0.5892847967023784 0.05864201287942014
vn 0.8044246987051762 0.5911625535225811 -0.05854689936920713
vn 0.060766976391356045 -0.99792256929771 0.021399071627284622
vn 0.2993368694556216 -0.9541198656460975 0.007260892781252513
vn 0.7305748043653736 -0.6824440951545517 -0.023032850782772292
vn 0.8869117426322131 -0.46045008106776925 -0.037057841623273795
vn 0.7984085948579648 0.5992727888756343 -0.05844518945259371
vn 0.7973124839417187 0.6007321702700487 -0.058426556918269784
vn 0.054519903064752885 0.024718005236510188 0.9982066922170667
vn 0.8017816229987781 0.5947470203947678 -0.05849966455451409
vn -0.054521302689502726 -0.02471800059879379 -0.9982066158864294
vn 0.8566090762520591 -0.5148418882358181 -0.03403998531684842
vn 0.7048800715173111 -0.7090180057242569 -0.020917751708737064
vn 0.310305959089025 -0.9506134934343647 0.006648146685615529
vn 0.807733628816436 0.5866261585210751 -0.05861855523499772
vn 0.0953833774889925 -0.995249661660954 0.019496724405625672
vn 0.8167271373932341 0.5740203800415119 -0.05879954372656175
vn -0.7973124334270122 -0.6007319650082652 0.058429356662595876
vn -0.7984122937089715 -0.5992667824835761 0.058456245741247574
vn 0.8296001061925636 0.5552292912916852 -0.05902624752616537
vn -0.8017929694216389 -0.5947289519560129 0.05852783860124196
vn 0.8473308380236255 0.5277428217915702 -0.05931243530366672
vn -0.8077373642907543 -0.5866194088404331 0.058634627144087965
vn 0.8830148165287275 0.46552782449557767 -0.05973841654372992
vn -0.816754132267323 -0.5739818355938324 0.05880084891042879
vn 0.9401482581116145 0.33550221925328816 -0.05966165976416936
vn -0.8296827262209849 -0.5551041798493426 0.059041708345057106
vn 0.9870669928681154 0.1495949938045234 -0.05762021710233641
vn -0.8480277304275953 -0.5266189259410591 0.059342019400314396
vn 0.9960707414725309 -0.07122799482610548 -0.05262747129983245
vn -0.8845879409601572 -0.4625300111511361 0.059750845118703946
vn 0.9470317782195014 -0.31813200739831893 -0.04385016432267104
vn -0.6517588990658821 0.7582396977425903 0.016819579532631263
vn -0.5032910201929636 0.864095401463137 0.006106239709160009
vn -0.9412928354555162 -0.332285069833536 0.05961904297988006
vn -0.8258631331377639 0.5630078326028763 0.031181176239638626
vn -0.9453506243329298 0.3231198865324328 0.04365473629066689
vn -0.49108626762357677 0.8710948780075262 0.005290676761791786
vn 0.827154131985975 -0.5611019976355159 -0.03131437669763784
vn -0.9875776329703251 -0.14621099231536971 0.057556620669430694
vn -0.9957018162510644 0.07629399965675329 0.05250827297395045
vn -0.6015454338676425 0.7987312541902715 0.013094829996060644
vn 0.6457817582241436 -0.7633462970310788 -0.01638143931020483
vn 0.49637530639227273 -0.8680899464488349 -0.005603577289220066
vn -0.7404606642894931 0.6716779319012645 0.02380673091381524
vn 0.4927555157067597 -0.8701514448537278 -0.005335237533148676
vn -0.8633256664617865 0.5034538472387842 0.034684540198463065
vn 0.603430505572784 -0.7973068640906847 -0.013167741569939528
vn -0.9567840297847106 0.2872751109930696 0.045136802643181886
vn 0.740903057373806 -0.6711891589892931 -0.02382797577202226
vn -0.9983082575118942 0.021592997781859424 0.05398486297433736
vn 0.863933107267575 -0.5024070011188603 -0.034738903174196874
vn -0.9592540172311821 -0.2762681216519315 0.05922546230087941
vn 0.9573891670395265 -0.2852389079241823 -0.045218892529356694
vn -0.8581838677421758 -0.5098852265392522 0.05947692749373668
vn 0.998362911575418 -0.01868399538468004 -0.05405927401583925
vn 0.9601136728436285 0.2732699643102618 -0.05920525166390536
vn 0.8611722546726924 0.5048117890298585 -0.05956009938226429
vn 0.8057943550937092 0.5892847967023784 -0.05864201287942014
vn -0.8044246987051762 -0.5911625535225811 0.05854689936920713
vn -0.2993368694556216 0.9541198656460975 -0.007260892781252513
vn -0.060766976391356045 0.99792256929771 -0.021399071627284622
vn -0.7305748043653736 0.6824440951545517 0.023032850782772292
vn -0.8869117426322131 0.46045008106776925 0.037057841623273795
usemtl material_0_0
f 1//1 2//2 3//1
f 2//2 1//1 4//2
f 5//3 3//3 2//3
f 3//1 6//4 1//1
f 1//5 7//5 4//5
f 4//6 5//7 2//6
f 8//3 3//3 5//3
f 6//4 3//1 9//4
f 6//5 10//5 1//5
f 1//5 10//5 7//5
f 5//7 4//6 7//7
f 8//3 9//3 3//3
f 7//7 8//8 5//7
f 9//4 11//9 6//4
f 6//5 12//5 10//5
f 8//8 7//7 10//8
f 13//3 9//3 8//3
f 11//9 9//4 14//9
f 11//5 12//5 6//5
f 13//10 10//8 12//10
f 10//8 13//10 8//8
f 13//3 14//3 9//3
f 14//9 15//11 11//9
f 11//5 16//5 12//5
f 16//12 13//13 12//13
f 17//3 14//3 13//3
f 15//11 14//9 18//11
f 15//5 16//5 11//5
f 13//13 16//12 17//12
f 17//3 18//3 14//3
f 18//11 19//14 15//11
f 15//5 20//5 16//5
f 20//15 17//12 16//12
f 21//3 18//3 17//3
f 19//14 18//11 22//14
f 19//5 20//5 15//5
f 17//12 20//15 21//15
f 21//3 22//3 18//3
f 22//14 23//16 19//14
f 19//5 24//5 20//5
f 24//17 21//15 20//15
f 25//3 22//3 21//3
f 23//16 22//14 26//16
f 23//5 24//5 19//5
f 21//15 24//17 25//17
f 25//3 26//3 22//3
f 26//16 27//18 23//16
f 27//5 24//5 23//5
f 28//19 25//17 24//17
f 25//3 29//3 26//3
f 27//18 26//16 29//18
f 27//5 28//5 24//5
f 25//17 28//19 30//19
f 30//3 29//3 25//3
f 29//18 31//20 27//18
f 31//5 28//5 27//5
f 32//21 30//19 28//19
f 30//3 33//3 29//3
f 31//20 29//18 33//20
f 34//5 28//5 31//5
f 30//19 32//21 35//21
f 34//5 32//5 28//5
f 30//3 36//3 33//3
f 33//20 34//22 31//20
f 37//23 35//21 32//21
f 35//3 36//3 30//3
f 32//5 34//5 38//5
f 34//22 33//20 36//22
f 35//21 37//23 39//23
f 40//5 37//5 32//5
f 36//3 35//3 41//3
f 36//22 38//24 34//22
f 40//5 32//5 38//5
f 42//25 39//23 37//23
f 39//3 43//3 35//3
f 40//5 42//5 37//5
f 35//3 43//3 41//3
f 38//24 36//22 41//24
f 40//5 38//5 44//5
f 39//23 42//25 45//25
f 45//3 43//3 39//3
f 46//5 42//5 40//5
f 41//3 43//3 47//3
f 41//24 48//26 38//24
f 44//5 38//5 48//5
f 44//27 43//28 40//28
f 49//29 45//25 42//25
f 45//3 50//3 43//3
f 46//5 49//5 42//5
f 40//28 50//30 46//30
f 43//28 44//27 47//27
f 41//3 47//3 51//3
f 48//26 41//24 51//26
f 44//5 48//5 52//5
f 50//30 40//28 43//28
f 45//25 49//29 53//29
f 53//3 50//3 45//3
f 54//5 49//5 46//5
f 55//31 46//30 50//30
f 56//32 47//27 44//27
f 51//3 47//3 57//3
f 51//26 52//33 48//26
f 44//5 52//5 56//5
f 58//34 53//29 49//29
f 53//3 55//3 50//3
f 54//5 58//5 49//5
f 46//30 55//31 54//31
f 47//27 56//32 59//32
f 57//3 47//3 59//3
f 52//33 51//26 57//33
f 56//5 52//5 60//5
f 53//29 58//34 61//34
f 61//3 55//3 53//3
f 58//5 54//5 62//5
f 63//35 54//31 55//31
f 64//36 59//32 56//32
f 57//3 59//3 65//3
f 57//33 60//37 52//33
f 56//5 60//5 66//5
f 62//35 61//34 58//34
f 55//3 61//3 63//3
f 54//31 63//35 62//35
f 59//32 64//36 67//36
f 56//5 68//5 64//5
f 65//3 59//3 69//3
f 60//37 57//33 65//37
f 65//37 66//38 60//37
f 56//5 66//5 68//5
f 61//34 62//35 63//35
f 70//39 67//36 64//36
f 71//3 59//3 67//3
f 64//5 68//5 70//5
f 69//3 59//3 71//3
f 66//38 65//37 69//38
f 69//38 68//40 66//38
f 67//36 70//39 72//39
f 71//3 67//3 72//3
f 70//5 68//5 73//5
f 68//40 69//38 71//40
f 74//41 72//39 70//39
f 71//3 72//3 75//3
f 71//40 73//42 68//40
f 70//5 73//5 74//5
f 72//39 74//41 76//41
f 75//3 72//3 76//3
f 73//42 71//40 75//42
f 74//5 73//5 77//5
f 78//43 76//41 74//41
f 75//3 76//3 79//3
f 75//42 77//44 73//42
f 74//5 77//5 78//5
f 76//41 78//43 80//43
f 79//3 76//3 80//3
f 77//44 75//42 79//44
f 78//5 77//5 81//5
f 81//45 80//43 78//43
f 79//3 80//3 82//3
f 79//44 83//46 77//44
f 84//5 81//5 77//5
f 80//43 81//45 82//45
f 82//3 85//3 79//3
f 83//46 79//44 86//46
f 84//5 77//5 83//5
f 84//5 87//5 81//5
f 87//47 82//45 81//45
f 88//3 85//3 82//3
f 79//3 85//3 86//3
f 86//46 89//48 83//46
f 84//5 83//5 89//5
f 84//5 90//5 87//5
f 82//45 87//47 88//47
f 91//3 85//3 88//3
f 86//3 85//3 92//3
f 89//48 86//46 92//48
f 84//5 89//5 93//5
f 94//5 90//5 84//5
f 90//49 88//47 87//47
f 91//3 95//3 85//3
f 88//47 90//49 91//49
f 92//3 85//3 96//3
f 92//48 97//50 89//48
f 93//5 89//5 97//5
f 96//51 84//52 93//51
f 98//5 90//5 94//5
f 85//52 94//53 84//52
f 91//3 99//3 95//3
f 94//53 85//52 95//53
f 100//54 91//49 90//49
f 84//52 96//51 85//52
f 92//3 96//3 101//3
f 97//50 92//48 101//50
f 101//50 93//51 97//50
f 93//51 101//50 96//51
f 102//5 90//5 98//5
f 94//55 99//56 98//56
f 91//3 103//3 99//3
f 99//56 94//55 95//55
f 91//49 100//54 104//54
f 90//5 102//5 100//5
f 98//56 103//57 102//57
f 103//57 98//56 99//56
f 103//3 91//3 104//3
f 102//57 104//58 100//58
f 104//58 102//57 103//57
usemtl material_1_0
f 3//59 2//60 1//59
f 4//60 1//59 2//60
f 2//61 3//61 5//61
f 1//59 6//62 3//59
f 4//63 7//63 1//63
f 2//64 5//65 4//64
f 5//61 3//61 8//61
f 9//62 3//59 6//62
f 1//63 10//63 6//63
f 7//63 10//63 1//63
f 7//65 4//64 5//65
f 3//61 9//61 8//61
f 5//65 8//66 7//65
f 6//62 11//67 9//62
f 10//63 12//63 6//63
f 10//66 7//65 8//66
f 8//61 9//61 13//61
f 14//67 9//62 11//67
f 6//63 12//63 11//63
f 12//68 10//66 13//68
f 8//66 13//68 10//66
f 9//61 14//61 13//61
f 11//67 15//69 14//67
f 12//63 16//63 11//63
f 12//70 13//70 16//71
f 13//61 14//61 17//61
f 18//69 14//67 15//69
f 11//63 16//63 15//63
f 17//71 16//71 13//70
f 14//61 18//61 17//61
f 15//69 19//72 18//69
f 16//63 20//63 15//63
f 16//71 17//71 20//73
f 17//61 18//61 21//61
f 22//72 18//69 19//72
f 15//63 20//63 19//63
f 21//73 20//73 17//71
f 18//61 22//61 21//61
f 19//72 23//74 22//72
f 20//63 24//63 19//63
f 20//73 21//73 24//75
f 21//61 22//61 25//61
f 26//74 22//72 23//74
f 19//63 24//63 23//63
f 25//75 24//75 21//73
f 22//61 26//61 25//61
f 23//74 27//76 26//74
f 23//63 24//63 27//63
f 24//75 25//75 28//77
f 26//61 29//61 25//61
f 29//76 26//74 27//76
f 24//63 28//63 27//63
f 30//77 28//77 25//75
f 25//61 29//61 30//61
f 27//76 31//78 29//76
f 27//63 28//63 31//63
f 28//77 30//77 32//79
f 29//61 33//61 30//61
f 33//78 29//76 31//78
f 31//63 28//63 34//63
f 35//79 32//79 30//77
f 28//63 32//63 34//63
f 33//61 36//61 30//61
f 31//78 34//80 33//78
f 32//79 35//79 37//81
f 30//61 36//61 35//61
f 38//63 34//63 32//63
f 36//80 33//78 34//80
f 39//81 37//81 35//79
f 32//63 37//63 40//63
f 41//61 35//61 36//61
f 34//80 38//82 36//80
f 38//63 32//63 40//63
f 37//81 39//81 42//83
f 35//61 43//61 39//61
f 37//63 42//63 40//63
f 41//61 43//61 35//61
f 41//82 36//80 38//82
f 44//63 38//63 40//63
f 45//83 42//83 39//81
f 39//61 43//61 45//61
f 40//63 42//63 46//63
f 47//61 43//61 41//61
f 38//82 48//84 41//82
f 48//63 38//63 44//63
f 40//85 43//85 44//86
f 42//83 45//83 49//87
f 43//61 50//61 45//61
f 42//63 49//63 46//63
f 46//88 50//88 40//85
f 47//86 44//86 43//85
f 51//61 47//61 41//61
f 51//84 41//82 48//84
f 52//63 48//63 44//63
f 43//85 40//85 50//88
f 53//87 49//87 45//83
f 45//61 50//61 53//61
f 46//63 49//63 54//63
f 50//88 46//88 55//89
f 44//86 47//86 56//90
f 57//61 47//61 51//61
f 48//84 52//91 51//84
f 56//63 52//63 44//63
f 49//87 53//87 58//92
f 50//61 55//61 53//61
f 49//63 58//63 54//63
f 54//89 55//89 46//88
f 59//90 56//90 47//86
f 59//61 47//61 57//61
f 57//91 51//84 52//91
f 60//63 52//63 56//63
f 61//92 58//92 53//87
f 53//61 55//61 61//61
f 62//63 54//63 58//63
f 55//89 54//89 63//93
f 56//90 59//90 64//94
f 65//61 59//61 57//61
f 52//91 60//95 57//91
f 66//63 60//63 56//63
f 58//92 61//92 62//93
f 63//61 61//61 55//61
f 62//93 63//93 54//89
f 67//94 64//94 59//90
f 64//63 68//63 56//63
f 69//61 59//61 65//61
f 65//95 57//91 60//95
f 60//95 66//96 65//95
f 68//63 66//63 56//63
f 63//93 62//93 61//92
f 64//94 67//94 70//97
f 67//61 59//61 71//61
f 70//63 68//63 64//63
f 71//61 59//61 69//61
f 69//96 65//95 66//96
f 66//96 68//98 69//96
f 72//97 70//97 67//94
f 72//61 67//61 71//61
f 73//63 68//63 70//63
f 71//98 69//96 68//98
f 70//97 72//97 74//99
f 75//61 72//61 71//61
f 68//98 73//100 71//98
f 74//63 73//63 70//63
f 76//99 74//99 72//97
f 76//61 72//61 75//61
f 75//100 71//98 73//100
f 77//63 73//63 74//63
f 74//99 76//99 78//101
f 79//61 76//61 75//61
f 73//100 77//102 75//100
f 78//63 77//63 74//63
f 80//101 78//101 76//99
f 80//61 76//61 79//61
f 79//102 75//100 77//102
f 81//63 77//63 78//63
f 78//101 80//101 81//103
f 82//61 80//61 79//61
f 77//102 83//104 79//102
f 77//63 81//63 84//63
f 82//103 81//103 80//101
f 79//61 85//61 82//61
f 86//104 79//102 83//104
f 83//63 77//63 84//63
f 81//63 87//63 84//63
f 81//103 82//103 87//105
f 82//61 85//61 88//61
f 86//61 85//61 79//61
f 83//104 89//106 86//104
f 89//63 83//63 84//63
f 87//63 90//63 84//63
f 88//105 87//105 82//103
f 88//61 85//61 91//61
f 92//61 85//61 86//61
f 92//106 86//104 89//106
f 93//63 89//63 84//63
f 84//63 90//63 94//63
f 87//105 88//105 90//107
f 85//61 95//61 91//61
f 91//107 90//107 88//105
f 96//61 85//61 92//61
f 89//106 97//108 92//106
f 97//63 89//63 93//63
f 93//109 84//110 96//109
f 94//63 90//63 98//63
f 84//110 94//111 85//110
f 95//61 99//61 91//61
f 95//111 85//110 94//111
f 90//107 91//107 100//112
f 85//110 96//109 84//110
f 101//61 96//61 92//61
f 101//108 92//106 97//108
f 97//108 93//109 101//108
f 96//109 101//108 93//109
f 98//63 90//63 102//63
f 98//113 99//113 94//114
f 99//61 103//61 91//61
f 95//114 94//114 99//113
f 104//112 100//112 91//107
f 100//63 102//63 90//63
f 102//115 103//115 98//113
f 99//113 98//113 103//115
f 104//61 91//61 103//61
f 100//116 104//116 102//115
f 103//115 102//115 104//116
