# SSTK version 0.8.0
# 32
mtllib original-32.mtl
o mesh24/mesh24-geometry#mesh24-geometry
v -0.077193 0.648131 0.356279
v -0.082895 0.636247 0.356946
v -0.075517 0.647938 0.356282
v -0.078869 0.647938 0.356297
v -0.075514 0.633699 0.357053
v -0.075523 0.647938 0.355122
v -0.077199 0.648131 0.355119
v -0.080407 0.647387 0.356335
v -0.073979 0.647387 0.356305
v -0.077189 0.633506 0.357070
v -0.073984 0.647387 0.355145
v -0.078874 0.647938 0.355138
v -0.081765 0.646524 0.356388
v -0.072620 0.646524 0.356346
v -0.078865 0.633699 0.357066
v -0.075519 0.633699 0.355894
v -0.080413 0.647387 0.355175
v -0.082897 0.645391 0.356455
v -0.072617 0.635114 0.356967
v -0.072626 0.646524 0.355187
v -0.080404 0.634250 0.357043
v -0.077195 0.633506 0.355910
v -0.073981 0.634250 0.355859
v -0.081771 0.646524 0.355229
v -0.083761 0.644033 0.356533
v -0.071485 0.636247 0.356902
v -0.073975 0.634250 0.357018
v -0.071493 0.645391 0.355244
v -0.081762 0.635114 0.357002
v -0.078870 0.633699 0.355906
v -0.082903 0.645391 0.355296
v -0.083766 0.644033 0.355373
v -0.083759 0.637604 0.356878
v -0.071487 0.645391 0.356404
v -0.071491 0.636247 0.355742
v -0.072623 0.635114 0.355807
v -0.081767 0.635114 0.355842
v -0.080409 0.634250 0.355883
v -0.084317 0.642494 0.355459
v -0.084311 0.642494 0.356619
v -0.082901 0.636247 0.355787
v -0.070621 0.637604 0.356825
v -0.070627 0.637604 0.355665
v -0.070623 0.644033 0.356474
v -0.084310 0.639143 0.356798
v -0.083765 0.637604 0.355718
v -0.070629 0.644033 0.355315
v -0.084504 0.640819 0.356710
v -0.084316 0.639143 0.355638
v -0.070071 0.639143 0.356739
v -0.070077 0.639143 0.355579
v -0.070072 0.642494 0.356556
v -0.084509 0.640819 0.355550
v -0.070078 0.642494 0.355397
v -0.069878 0.640819 0.356647
v -0.069884 0.640819 0.355487
vn 0.005096486801172181 0.05365198331246548 0.998546689198319
vn 0.004632596403643659 0.05385698705186652 0.9985379131491483
vn 0.0037670718195806736 0.05420600788011786 0.998522667684418
vn 0.22726929049049754 0.9738312086969195 -0.001202733487734391
vn 0.000020880134263556097 1 -0.00003098418937411576
vn -0.2272675492748302 0.9738316833328731 0.0011461167809009138
vn 0.004168704642629937 0.0540629739869848 0.9985288261964624
vn 0.43953393986062134 0.8982231891788479 -0.0022401187422548185
vn -0.43955424240183166 0.8982133091066903 0.0022179563028103502
vn 0.00002239780792364373 -1 0.00003084377081523953
vn 0.22725026535027518 -0.9738357522825096 -0.0011155602126406464
vn -0.6256520197463162 0.780095886629453 0.0031556063066576516
vn 0.0033660847666795585 0.05434899068670361 0.998516327700594
vn 0.6256370379471453 0.7801078311452883 -0.003173095415649277
vn -0.22727062755364846 -0.973830896794381 0.001202622144612624
vn 0.43950776779030837 -0.8982361921462154 -0.002159900610522491
vn -0.7800891211117172 0.625656095958134 0.003925902899326621
vn 0.7800901125507246 0.6256546190950144 -0.0039640769001253
vn -0.4395343764555581 -0.8982229809477925 0.002237947963004625
vn -0.8982121825684033 0.43953892423008906 0.004517651199614027
vn 0.6256659949793713 -0.7800847938602801 -0.0031268377696623507
vn 0.7800906494875053 -0.6256541910153819 -0.0039257925378500935
vn -0.7800797114062121 -0.6256677523676349 0.00393795627613572
vn -0.6256495379356696 -0.7800979335387793 0.0031416189153831093
vn -0.9738252994922498 0.2272449681880927 0.004900051226528898
vn -0.8982059931515687 -0.4395512667819861 0.004547277972069411
vn 0.8982063220405196 -0.43955092462097883 -0.004515275327701403
vn 0.8982213492056556 0.43952004528375255 -0.004531845643906439
vn -0.9999873213583573 0.0000029999987246734315 0.005035584726490424
vn -0.9738263949017717 -0.22723993899062936 0.004915558986908592
vn 0.9738248578907691 -0.2272468910304833 -0.0048986397094730825
vn 0.9738260035333347 0.2272420586038029 -0.004895063206872344
vn 0.9999873497286134 0.000003000000141294393 -0.005029947688012152
vn -0.004632596403643659 -0.05385698705186652 -0.9985379131491483
vn -0.005096486801172181 -0.05365198331246548 -0.998546689198319
vn -0.0037670718195806736 -0.05420600788011786 -0.998522667684418
vn -0.22726929049049754 -0.9738312086969195 0.001202733487734391
vn -0.000020880134263556097 -1 0.00003098418937411576
vn 0.2272675492748302 -0.9738316833328731 -0.0011461167809009138
vn -0.004168704642629937 -0.0540629739869848 -0.9985288261964624
vn -0.43953393986062134 -0.8982231891788479 0.0022401187422548185
vn 0.43955424240183166 -0.8982133091066903 -0.0022179563028103502
vn -0.22725026535027518 0.9738357522825096 0.0011155602126406464
vn -0.00002239780792364373 1 -0.00003084377081523953
vn 0.6256520197463162 -0.780095886629453 -0.0031556063066576516
vn -0.0033660847666795585 -0.05434899068670361 -0.998516327700594
vn -0.6256370379471453 -0.7801078311452883 0.003173095415649277
vn 0.22727062755364846 0.973830896794381 -0.001202622144612624
vn -0.43950776779030837 0.8982361921462154 0.002159900610522491
vn 0.7800891211117172 -0.625656095958134 -0.003925902899326621
vn -0.7800901125507246 -0.6256546190950144 0.0039640769001253
vn 0.4395343764555581 0.8982229809477925 -0.002237947963004625
vn 0.8982121825684033 -0.43953892423008906 -0.004517651199614027
vn -0.7800906494875053 0.6256541910153819 0.0039257925378500935
vn -0.6256659949793713 0.7800847938602801 0.0031268377696623507
vn 0.6256495379356696 0.7800979335387793 -0.0031416189153831093
vn 0.7800797114062121 0.6256677523676349 -0.00393795627613572
vn 0.9738252994922498 -0.2272449681880927 -0.004900051226528898
vn 0.8982059931515687 0.4395512667819861 -0.004547277972069411
vn -0.8982063220405196 0.43955092462097883 0.004515275327701403
vn -0.8982213492056556 -0.43952004528375255 0.004531845643906439
vn 0.9999873213583573 -0.0000029999987246734315 -0.005035584726490424
vn 0.9738263949017717 0.22723993899062936 -0.004915558986908592
vn -0.9738248578907691 0.2272468910304833 0.0048986397094730825
vn -0.9738260035333347 -0.2272420586038029 0.004895063206872344
vn -0.9999873497286134 -0.000003000000141294393 0.005029947688012152
usemtl material_0_0
f 1//1 2//2 3//2
f 2//2 1//1 4//1
f 5//3 3//2 2//2
f 6//4 1//5 3//4
f 7//5 4//6 1//5
f 2//2 4//1 8//1
f 5//3 9//7 3//2
f 5//3 2//2 10//7
f 1//5 6//4 7//5
f 3//4 11//8 6//4
f 4//6 7//5 12//6
f 12//6 8//9 4//6
f 2//2 8//1 13//1
f 9//7 5//3 14//3
f 11//8 3//4 9//8
f 10//7 2//2 15//7
f 10//10 16//11 5//11
f 8//9 12//6 17//9
f 17//9 13//12 8//9
f 2//2 13//1 18//1
f 19//13 14//3 5//3
f 20//14 9//8 14//14
f 9//8 20//14 11//8
f 15//7 2//2 21//7
f 15//15 22//10 10//10
f 16//11 10//10 22//10
f 23//16 5//11 16//11
f 13//12 17//9 24//12
f 24//12 18//17 13//12
f 2//2 18//1 25//1
f 26//13 14//3 19//13
f 19//13 5//3 27//13
f 14//14 28//18 20//14
f 21//7 2//2 29//7
f 21//19 30//15 15//15
f 22//10 15//15 30//15
f 5//11 23//16 27//16
f 18//17 24//12 31//17
f 18//17 32//20 25//20
f 2//2 25//1 33//1
f 26//13 34//13 14//3
f 19//21 35//22 26//22
f 27//16 36//21 19//21
f 28//18 14//14 34//18
f 2//23 37//24 29//24
f 29//24 38//19 21//19
f 30//15 21//19 38//19
f 36//21 27//16 23//16
f 32//20 18//17 31//17
f 39//25 25//20 32//20
f 33//1 25//1 40//1
f 33//26 41//23 2//23
f 42//13 34//13 26//13
f 35//22 19//21 36//21
f 43//27 26//22 35//22
f 44//28 28//18 34//18
f 37//24 2//23 41//23
f 38//19 29//24 37//24
f 25//20 39//25 40//25
f 33//1 40//1 45//1
f 41//23 33//26 46//26
f 42//13 44//13 34//13
f 26//22 43//27 42//27
f 28//18 44//28 47//28
f 39//25 48//29 40//25
f 45//1 40//1 48//1
f 49//30 33//26 45//30
f 33//26 49//30 46//26
f 50//13 44//13 42//13
f 51//31 42//27 43//27
f 52//32 47//28 44//28
f 48//29 39//25 53//29
f 48//29 49//30 45//30
f 50//13 52//13 44//13
f 42//27 51//31 50//31
f 47//28 52//32 54//32
f 49//30 48//29 53//29
f 52//13 50//13 55//13
f 56//33 50//31 51//31
f 55//33 54//32 52//32
f 50//31 56//33 55//33
f 54//32 55//33 56//33
usemtl material_1_0
f 3//34 2//34 1//35
f 4//35 1//35 2//34
f 2//34 3//34 5//36
f 3//37 1//38 6//37
f 1//38 4//39 7//38
f 8//35 4//35 2//34
f 3//34 9//40 5//36
f 10//40 2//34 5//36
f 7//38 6//37 1//38
f 6//37 11//41 3//37
f 12//39 7//38 4//39
f 4//39 8//42 12//39
f 13//35 8//35 2//34
f 14//36 5//36 9//40
f 9//41 3//37 11//41
f 15//40 2//34 10//40
f 5//43 16//43 10//44
f 17//42 12//39 8//42
f 8//42 13//45 17//42
f 18//35 13//35 2//34
f 5//36 14//36 19//46
f 14//47 9//41 20//47
f 11//41 20//47 9//41
f 21//40 2//34 15//40
f 10//44 22//44 15//48
f 22//44 10//44 16//43
f 16//43 5//43 23//49
f 24//45 17//42 13//45
f 13//45 18//50 24//45
f 25//35 18//35 2//34
f 19//46 14//36 26//46
f 27//46 5//36 19//46
f 20//47 28//51 14//47
f 29//40 2//34 21//40
f 15//48 30//48 21//52
f 30//48 15//48 22//44
f 27//49 23//49 5//43
f 31//50 24//45 18//50
f 25//53 32//53 18//50
f 33//35 25//35 2//34
f 14//36 34//46 26//46
f 26//54 35//54 19//55
f 19//55 36//55 27//49
f 34//51 14//47 28//51
f 29//56 37//56 2//57
f 21//52 38//52 29//56
f 38//52 21//52 30//48
f 23//49 27//49 36//55
f 31//50 18//50 32//53
f 32//53 25//53 39//58
f 40//35 25//35 33//35
f 2//57 41//57 33//59
f 26//46 34//46 42//46
f 36//55 19//55 35//54
f 35//54 26//54 43//60
f 34//51 28//51 44//61
f 41//57 2//57 37//56
f 37//56 29//56 38//52
f 40//58 39//58 25//53
f 45//35 40//35 33//35
f 46//59 33//59 41//57
f 34//46 44//46 42//46
f 42//60 43//60 26//54
f 47//61 44//61 28//51
f 40//58 48//62 39//58
f 48//35 40//35 45//35
f 45//63 33//59 49//63
f 46//59 49//63 33//59
f 42//46 44//46 50//46
f 43//60 42//60 51//64
f 44//61 47//61 52//65
f 53//62 39//58 48//62
f 45//63 49//63 48//62
f 44//46 52//46 50//46
f 50//64 51//64 42//60
f 54//65 52//65 47//61
f 53//62 48//62 49//63
f 55//46 50//46 52//46
f 51//64 50//64 56//66
f 52//65 54//65 55//66
f 55//66 56//66 50//64
f 56//66 55//66 54//65
