# SSTK version 0.8.0
# 44
mtllib original-44.mtl
o mesh35/mesh35-geometry#mesh35-geometry
v 0.123343 0.591101 0.353938
v 0.097499 0.595068 0.357303
v 0.123353 0.591102 0.355925
v 0.097489 0.595066 0.355317
v 0.122291 0.590417 0.357099
v 0.123355 0.552175 0.356191
v 0.071643 0.598153 0.358404
v 0.097504 0.594221 0.358394
v 0.123345 0.552155 0.354204
v 0.071633 0.598151 0.356417
v 0.097508 0.554040 0.359015
v 0.122292 0.551765 0.357360
v 0.045786 0.600356 0.359228
v 0.071649 0.597311 0.359502
v 0.071653 0.555900 0.360403
v 0.045776 0.600354 0.357241
v 0.019928 0.601678 0.359775
v 0.045792 0.599518 0.360330
v 0.045797 0.557228 0.361431
v 0.019918 0.601676 0.357787
v -0.005932 0.602118 0.360044
v 0.019933 0.600843 0.360878
v 0.019939 0.558025 0.362100
v -0.005942 0.602117 0.358056
v -0.005927 0.601284 0.361148
v -0.031793 0.601678 0.360035
v -0.031788 0.600843 0.361139
v -0.005920 0.558291 0.362410
v -0.031803 0.601676 0.358048
v -0.031782 0.558025 0.362360
v -0.057656 0.600356 0.359749
v -0.057651 0.599518 0.360851
v -0.057666 0.600354 0.357762
v -0.057645 0.557228 0.361952
v -0.083520 0.598153 0.359186
v -0.083515 0.597311 0.360283
v -0.083530 0.598151 0.357199
v -0.083510 0.555900 0.361184
v -0.109386 0.595068 0.358345
v -0.109380 0.594221 0.359437
v -0.109396 0.595066 0.356359
v -0.109377 0.554040 0.360057
v -0.135252 0.591102 0.357228
v -0.134178 0.590417 0.358391
v -0.135262 0.591101 0.355241
v -0.134177 0.551765 0.358652
v -0.135251 0.552175 0.357494
v -0.135261 0.552155 0.355507
vn 0.15153297372065036 0.9884509248292985 -0.0015896790497397927
vn 0.14609219166646356 0.9129326714931054 0.38106562276667133
vn 0.16027525115977836 0.9357108127217102 0.31425645390563817
vn 0.13498295632848697 0.9908467593932061 -0.0015168720459462894
vn 0.1520585300881798 0.7840430466431142 0.6017929082649658
vn 0.8795996221638199 0.0032570003438791052 0.4757035806445285
vn 0.999987363906335 0 -0.005027129166739421
vn 0.9336584933236437 0.0024739989321469137 0.3581559676647971
vn 0.11157002945043809 0.9171639789396222 0.38257334494717266
vn 0.1303793199338354 0.7846468698137561 0.6060779839468392
vn 0.4320503534926921 0.008459998360786845 0.9018098028268351
vn 0.10164037030821652 0.9948202762571524 -0.0013612755972251334
vn 0.058823065363521256 0.01253399927409994 0.9981897343909302
vn 0.05153338778767786 0.01752999668411401 0.9985174055365184
vn 0.4346497254554788 0.006094000229314386 0.9005789689542402
vn 0.0764546512263679 0.9212589235474888 0.3813616159106426
vn 0.0979231008144492 0.7907519779063901 0.6042535690949746
vn 0.04696861150155251 0.019630993327250042 0.9987034462915413
vn 0.06795627490034586 0.9976876075157586 -0.001175802343239203
vn 0.040141968986432824 0.023160001888038392 0.9989255410882427
vn 0.04104377352469803 0.9238259427260266 0.38060614314698255
vn 0.0646710071467415 0.7949670715514119 0.6031956697321346
vn 0.033904527885546445 0.024591997437059258 0.9991224732989012
vn 0.034036675248116384 0.9994200951522932 -0.0009890115446135111
vn 0.02784413079903283 0.026852005574141503 0.9992515570048879
vn 0.0016008239227159643 0.9481937604839157 0.3176885738299993
vn 0.03673121711754843 0.7970879458853027 0.6027450739851903
vn 0.02053122664275306 0.027685004254230566 0.9994058281158796
vn -0.0000037612310648353635 0.9999996659201673 -0.000817401618975125
vn 0.003037854644190067 0.797650759871263 0.6031119603489532
vn 0.015286698024941557 0.02878799382087392 0.9994686429674837
vn -0.03409318601001288 0.9475597597647308 0.3177548683219385
vn -0.036213388510515074 0.7964139668954612 0.6036666164584733
vn 0.006996214676890291 0.029061993865188335 0.9995531268986029
vn 0.002625997692032384 0.029061984925363642 0.9995741619151225
vn -0.03404484722553877 0.9994200970297041 -0.0006465528023898619
vn -0.00805794639458355 0.028096994193518146 0.9995727229257465
vn -0.006717960101951566 0.028515985062917668 0.9995707616812128
vn -0.06557640389372113 0.9221787842272501 0.3811640397171783
vn -0.017775854038252506 0.026852003405143262 0.9994813599694298
vn -0.06796482473774099 0.99768759715528 -0.0004909998901639725
vn -0.06965771244644835 0.7930648754107074 0.6051412285463014
vn -0.023835689192029212 0.024591995060354217 0.9994133747852749
vn -0.10076054642172812 0.9185640068405461 0.3822139160494237
vn -0.030076122209168114 0.023161000462687528 0.9992792377160783
vn -0.10164929565122803 0.9948202386773002 -0.00033676645994487354
vn -0.10271635620167711 0.7878508757835014 0.6072399424410586
vn -0.03690308452313329 0.01963099314731248 0.9991260113022424
vn -0.13553428709790163 0.9134157867822911 0.38379950166428256
vn -0.04147053870357188 0.01752999766255049 0.9989859326344824
vn -0.1349909600218403 0.9908468176614129 -0.00015697972110606843
vn -0.1352452999297755 0.7843658886306406 0.6053749760269006
vn -0.04876332827979411 0.012533005416208613 0.9987317265363679
vn -0.1550001430258454 0.8934800873805697 0.4215071637782409
vn -0.4229381552100122 0.008459999529252 0.9061190568989907
vn -0.15154122570997064 0.9884509360368477 -0.00006291422145075387
vn -0.1460304803144606 0.7872598356118973 0.599080169970144
vn -0.42555069823929126 0.006093999756017782 0.9049140657515636
vn -0.9999873284583976 0 0.005034175467407644
vn -0.8747610829738337 0.0032570013318305637 0.4845435374213241
vn -0.9300032845833003 0.0024740001383894675 0.36754288183501554
vn -0.16027525115977836 -0.9357108127217102 -0.31425645390563817
vn -0.14609219166646356 -0.9129326714931054 -0.38106562276667133
vn -0.15153297372065036 -0.9884509248292985 0.0015896790497397927
vn -0.13498295632848697 -0.9908467593932061 0.0015168720459462894
vn -0.1520585300881798 -0.7840430466431142 -0.6017929082649658
vn -0.9336584933236437 -0.0024739989321469137 -0.3581559676647971
vn -0.999987363906335 0 0.005027129166739421
vn -0.8795996221638199 -0.0032570003438791052 -0.4757035806445285
vn -0.11157002945043809 -0.9171639789396222 -0.38257334494717266
vn -0.1303793199338354 -0.7846468698137561 -0.6060779839468392
vn -0.4320503534926921 -0.008459998360786845 -0.9018098028268351
vn -0.10164037030821652 -0.9948202762571524 0.0013612755972251334
vn -0.05153338778767786 -0.01752999668411401 -0.9985174055365184
vn -0.058823065363521256 -0.01253399927409994 -0.9981897343909302
vn -0.4346497254554788 -0.006094000229314386 -0.9005789689542402
vn -0.0764546512263679 -0.9212589235474888 -0.3813616159106426
vn -0.0979231008144492 -0.7907519779063901 -0.6042535690949746
vn -0.04696861150155251 -0.019630993327250042 -0.9987034462915413
vn -0.06795627490034586 -0.9976876075157586 0.001175802343239203
vn -0.040141968986432824 -0.023160001888038392 -0.9989255410882427
vn -0.04104377352469803 -0.9238259427260266 -0.38060614314698255
vn -0.0646710071467415 -0.7949670715514119 -0.6031956697321346
vn -0.033904527885546445 -0.024591997437059258 -0.9991224732989012
vn -0.034036675248116384 -0.9994200951522932 0.0009890115446135111
vn -0.02784413079903283 -0.026852005574141503 -0.9992515570048879
vn -0.0016008239227159643 -0.9481937604839157 -0.3176885738299993
vn -0.03673121711754843 -0.7970879458853027 -0.6027450739851903
vn -0.02053122664275306 -0.027685004254230566 -0.9994058281158796
vn 0.0000037612310648353635 -0.9999996659201673 0.000817401618975125
vn -0.003037854644190067 -0.797650759871263 -0.6031119603489532
vn -0.015286698024941557 -0.02878799382087392 -0.9994686429674837
vn 0.03409318601001288 -0.9475597597647308 -0.3177548683219385
vn 0.036213388510515074 -0.7964139668954612 -0.6036666164584733
vn -0.002625997692032384 -0.029061984925363642 -0.9995741619151225
vn -0.006996214676890291 -0.029061993865188335 -0.9995531268986029
vn 0.03404484722553877 -0.9994200970297041 0.0006465528023898619
vn 0.006717960101951566 -0.028515985062917668 -0.9995707616812128
vn 0.00805794639458355 -0.028096994193518146 -0.9995727229257465
vn 0.06557640389372113 -0.9221787842272501 -0.3811640397171783
vn 0.017775854038252506 -0.026852003405143262 -0.9994813599694298
vn 0.06796482473774099 -0.99768759715528 0.0004909998901639725
vn 0.06965771244644835 -0.7930648754107074 -0.6051412285463014
vn 0.023835689192029212 -0.024591995060354217 -0.9994133747852749
vn 0.10076054642172812 -0.9185640068405461 -0.3822139160494237
vn 0.030076122209168114 -0.023161000462687528 -0.9992792377160783
vn 0.10164929565122803 -0.9948202386773002 0.00033676645994487354
vn 0.10271635620167711 -0.7878508757835014 -0.6072399424410586
vn 0.03690308452313329 -0.01963099314731248 -0.9991260113022424
vn 0.13553428709790163 -0.9134157867822911 -0.38379950166428256
vn 0.04147053870357188 -0.01752999766255049 -0.9989859326344824
vn 0.1349909600218403 -0.9908468176614129 0.00015697972110606843
vn 0.1352452999297755 -0.7843658886306406 -0.6053749760269006
vn 0.04876332827979411 -0.012533005416208613 -0.9987317265363679
vn 0.1550001430258454 -0.8934800873805697 -0.4215071637782409
vn 0.4229381552100122 -0.008459999529252 -0.9061190568989907
vn 0.15154122570997064 -0.9884509360368477 0.00006291422145075387
vn 0.1460304803144606 -0.7872598356118973 -0.599080169970144
vn 0.42555069823929126 -0.006093999756017782 -0.9049140657515636
vn 0.9300032845833003 -0.0024740001383894675 -0.36754288183501554
vn 0.8747610829738337 -0.0032570013318305637 -0.4845435374213241
vn 0.9999873284583976 0 -0.005034175467407644
usemtl material_0_0
f 1//1 2//2 3//3
f 2//2 1//1 4//4
f 2//2 5//5 3//3
f 6//6 1//7 3//8
f 4//4 7//9 2//2
f 2//2 8//10 5//5
f 5//11 6//6 3//8
f 1//7 6//6 9//7
f 7//9 4//4 10//12
f 7//9 8//10 2//2
f 11//13 5//11 8//14
f 12//15 6//6 5//11
f 10//12 13//16 7//9
f 7//9 14//17 8//10
f 11//13 12//15 5//11
f 15//18 11//13 8//14
f 13//16 10//12 16//19
f 13//16 14//17 7//9
f 15//18 8//14 14//20
f 16//19 17//21 13//16
f 13//16 18//22 14//17
f 19//23 15//18 14//20
f 17//21 16//19 20//24
f 17//21 18//22 13//16
f 19//23 14//20 18//25
f 20//24 21//26 17//21
f 17//21 22//27 18//22
f 23//28 19//23 18//25
f 21//26 20//24 24//29
f 25//30 17//21 21//26
f 17//21 25//30 22//27
f 23//28 18//25 22//31
f 24//29 26//32 21//26
f 21//26 27//33 25//30
f 28//34 22//31 25//35
f 28//34 23//28 22//31
f 26//32 24//29 29//36
f 27//33 21//26 26//32
f 30//37 25//35 27//38
f 30//37 28//34 25//35
f 29//36 31//39 26//32
f 31//39 27//33 26//32
f 32//40 30//37 27//38
f 31//39 29//36 33//41
f 31//39 32//42 27//33
f 34//43 30//37 32//40
f 33//41 35//44 31//39
f 35//44 32//42 31//39
f 36//45 34//43 32//40
f 35//44 33//41 37//46
f 35//44 36//47 32//42
f 38//48 34//43 36//45
f 37//46 39//49 35//44
f 39//49 36//47 35//44
f 40//50 38//48 36//45
f 39//49 37//46 41//51
f 39//49 40//52 36//47
f 42//53 38//48 40//50
f 41//51 43//54 39//49
f 43//54 40//52 39//49
f 44//55 42//53 40//50
f 43//54 41//51 45//56
f 43//54 44//57 40//52
f 46//58 42//53 44//55
f 45//59 47//60 43//61
f 43//61 47//60 44//55
f 44//55 47//60 46//58
f 47//60 45//59 48//59
usemtl material_1_0
f 3//62 2//63 1//64
f 4//65 1//64 2//63
f 3//62 5//66 2//63
f 3//67 1//68 6//69
f 2//63 7//70 4//65
f 5//66 8//71 2//63
f 3//67 6//69 5//72
f 9//68 6//69 1//68
f 10//73 4//65 7//70
f 2//63 8//71 7//70
f 8//74 5//72 11//75
f 5//72 6//69 12//76
f 7//70 13//77 10//73
f 8//71 14//78 7//70
f 5//72 12//76 11//75
f 8//74 11//75 15//79
f 16//80 10//73 13//77
f 7//70 14//78 13//77
f 14//81 8//74 15//79
f 13//77 17//82 16//80
f 14//78 18//83 13//77
f 14//81 15//79 19//84
f 20//85 16//80 17//82
f 13//77 18//83 17//82
f 18//86 14//81 19//84
f 17//82 21//87 20//85
f 18//83 22//88 17//82
f 18//86 19//84 23//89
f 24//90 20//85 21//87
f 21//87 17//82 25//91
f 22//88 25//91 17//82
f 22//92 18//86 23//89
f 21//87 26//93 24//90
f 25//91 27//94 21//87
f 25//95 22//92 28//96
f 22//92 23//89 28//96
f 29//97 24//90 26//93
f 26//93 21//87 27//94
f 27//98 25//95 30//99
f 25//95 28//96 30//99
f 26//93 31//100 29//97
f 26//93 27//94 31//100
f 27//98 30//99 32//101
f 33//102 29//97 31//100
f 27//94 32//103 31//100
f 32//101 30//99 34//104
f 31//100 35//105 33//102
f 31//100 32//103 35//105
f 32//101 34//104 36//106
f 37//107 33//102 35//105
f 32//103 36//108 35//105
f 36//106 34//104 38//109
f 35//105 39//110 37//107
f 35//105 36//108 39//110
f 36//106 38//109 40//111
f 41//112 37//107 39//110
f 36//108 40//113 39//110
f 40//111 38//109 42//114
f 39//110 43//115 41//112
f 39//110 40//113 43//115
f 40//111 42//114 44//116
f 45//117 41//112 43//115
f 40//113 44//118 43//115
f 44//116 42//114 46//119
f 43//120 47//121 45//122
f 44//116 47//121 43//120
f 46//119 47//121 44//116
f 48//122 45//122 47//121
