# SSTK version 0.8.0
# 42
mtllib original-42.mtl
o mesh33/mesh33-geometry#mesh33-geometry
v -0.031767 0.455534 0.365284
v -0.005920 0.556078 0.362475
v -0.031781 0.555811 0.362424
v -0.005905 0.455391 0.365429
v -0.057645 0.555013 0.362010
v 0.019940 0.555811 0.362163
v -0.057632 0.455966 0.364589
v 0.019954 0.455534 0.365024
v -0.083510 0.553682 0.361232
v 0.045811 0.455966 0.364067
v -0.083499 0.456684 0.363342
v 0.045798 0.555013 0.361488
v -0.109377 0.551819 0.360092
v 0.071664 0.456684 0.362561
v -0.109369 0.457691 0.361546
v 0.071654 0.553682 0.360451
v -0.134177 0.549511 0.358667
v 0.097515 0.457691 0.360504
v -0.134173 0.458934 0.359279
v 0.097508 0.551819 0.359049
v -0.135248 0.458707 0.358131
v 0.122295 0.458934 0.357987
v -0.135251 0.549925 0.357509
v 0.122292 0.549511 0.357375
v -0.135261 0.549941 0.355522
v 0.123355 0.549925 0.356206
v -0.135258 0.458700 0.356146
v 0.123358 0.458707 0.356828
v 0.123345 0.549941 0.354220
v 0.123348 0.458700 0.354843
vn -0.012761676952821927 0.028095992029154363 0.9995237640162687
vn 0.0015449223033390856 0.029062008291145344 0.9995764167331891
vn -0.009573817576435596 0.028515007443601505 0.9995475158127823
vn 0.007474553385572072 0.029061994749195727 0.9995496643553456
vn -0.02489655614746727 0.026847002697130785 0.9993294751673126
vn 0.022804969267882842 0.02809598506275968 0.9993450600268378
vn -0.035107155896794424 0.024583000003109964 0.9990811597241164
vn 0.025998261458543847 0.02851200777886108 0.9992553006181911
vn -0.041494085765158506 0.023149995270572418 0.9988705214218138
vn 0.040266662781278356 0.026843004525341937 0.9988283380924426
vn -0.05392973210139861 0.019616007798973382 0.998352040231051
vn 0.04184461175636583 0.02458499410799812 0.9988216089631166
vn -0.057679824653470005 0.01751600212509427 0.9981814602052567
vn 0.059043281730506506 0.023140998238299227 0.9979871667927535
vn -0.07271001605659938 0.012517002785521812 0.9972745751328047
vn 0.058303329040721184 0.01961899575074201 0.9981061150140809
vn -0.43284466847149927 0.008413001315398296 0.9014292619971159
vn 0.07799834565460233 0.01750200918970384 0.9967998483895695
vn -0.43940028142820703 0.006048999655512704 0.8982710071487224
vn 0.07451855870407972 0.012517999060918742 0.9971410552716089
vn -0.8740689382102474 0.003265000694841304 0.48579093345437524
vn 0.44163487627016285 0.008409002382783859 0.8971554629721453
vn -0.9297692297445473 0.002478000856267231 0.36813453917282396
vn 0.43496534960756594 0.006093000868624559 0.90042657667418
vn -0.9999872923656576 0 0.005041339821961683
vn 0.8789258914199781 0.0032650006626826645 0.4769471848771825
vn 0.9329347604923757 0.0024869995559289393 0.3600368696373226
vn 0.9999873033178615 0 -0.00503916690248443
vn 0.009573817576435596 -0.028515007443601505 -0.9995475158127823
vn -0.0015449223033390856 -0.029062008291145344 -0.9995764167331891
vn 0.012761676952821927 -0.028095992029154363 -0.9995237640162687
vn -0.007474553385572072 -0.029061994749195727 -0.9995496643553456
vn 0.02489655614746727 -0.026847002697130785 -0.9993294751673126
vn -0.022804969267882842 -0.02809598506275968 -0.9993450600268378
vn 0.035107155896794424 -0.024583000003109964 -0.9990811597241164
vn -0.025998261458543847 -0.02851200777886108 -0.9992553006181911
vn 0.041494085765158506 -0.023149995270572418 -0.9988705214218138
vn -0.040266662781278356 -0.026843004525341937 -0.9988283380924426
vn 0.05392973210139861 -0.019616007798973382 -0.998352040231051
vn -0.04184461175636583 -0.02458499410799812 -0.9988216089631166
vn 0.057679824653470005 -0.01751600212509427 -0.9981814602052567
vn -0.059043281730506506 -0.023140998238299227 -0.9979871667927535
vn 0.07271001605659938 -0.012517002785521812 -0.9972745751328047
vn -0.058303329040721184 -0.01961899575074201 -0.9981061150140809
vn 0.43284466847149927 -0.008413001315398296 -0.9014292619971159
vn -0.07799834565460233 -0.01750200918970384 -0.9967998483895695
vn 0.43940028142820703 -0.006048999655512704 -0.8982710071487224
vn -0.07451855870407972 -0.012517999060918742 -0.9971410552716089
vn 0.8740689382102474 -0.003265000694841304 -0.48579093345437524
vn -0.44163487627016285 -0.008409002382783859 -0.8971554629721453
vn 0.9297692297445473 -0.002478000856267231 -0.36813453917282396
vn -0.43496534960756594 -0.006093000868624559 -0.90042657667418
vn 0.9999872923656576 0 -0.005041339821961683
vn -0.8789258914199781 -0.0032650006626826645 -0.4769471848771825
vn -0.9329347604923757 -0.0024869995559289393 -0.3600368696373226
vn -0.9999873033178615 0 0.00503916690248443
usemtl material_0_0
f 1//1 2//2 3//3
f 1//1 4//4 2//2
f 5//5 1//1 3//3
f 4//4 6//6 2//2
f 7//7 1//1 5//5
f 4//4 8//8 6//6
f 9//9 7//7 5//5
f 8//8 10//10 6//6
f 11//11 7//7 9//9
f 6//6 10//10 12//12
f 13//13 11//11 9//9
f 10//10 14//14 12//12
f 15//15 11//11 13//13
f 12//12 14//14 16//16
f 17//17 15//15 13//13
f 14//14 18//18 16//16
f 17//17 19//19 15//15
f 16//16 18//18 20//20
f 17//17 21//21 19//19
f 18//18 22//22 20//20
f 23//23 21//21 17//17
f 20//20 22//22 24//24
f 25//25 21//21 23//23
f 22//22 26//26 24//24
f 21//21 25//25 27//25
f 22//22 28//27 26//26
f 28//27 29//28 26//26
f 29//28 28//27 30//28
usemtl material_1_0
f 3//29 2//30 1//31
f 2//30 4//32 1//31
f 3//29 1//31 5//33
f 2//30 6//34 4//32
f 5//33 1//31 7//35
f 6//34 8//36 4//32
f 5//33 7//35 9//37
f 6//34 10//38 8//36
f 9//37 7//35 11//39
f 12//40 10//38 6//34
f 9//37 11//39 13//41
f 12//40 14//42 10//38
f 13//41 11//39 15//43
f 16//44 14//42 12//40
f 13//41 15//43 17//45
f 16//44 18//46 14//42
f 15//43 19//47 17//45
f 20//48 18//46 16//44
f 19//47 21//49 17//45
f 20//48 22//50 18//46
f 17//45 21//49 23//51
f 24//52 22//50 20//48
f 23//51 21//49 25//53
f 24//52 26//54 22//50
f 27//53 25//53 21//49
f 26//54 28//55 22//50
f 26//54 29//56 28//55
f 30//56 28//55 29//56
