# SSTK version 0.8.0
# 38
mtllib original-38.mtl
o instance_37/lwsash_2/ID265#ID265
v -0.628709 0.678794 0.031354
v -0.628709 -0.585731 0.037658
v -0.628709 0.678794 0.037658
v -0.628709 -0.585731 0.031354
v -0.628709 -0.585731 0.031354
v -0.628709 0.678794 0.031354
v -0.628709 -0.585731 0.037658
v -0.628709 0.678794 0.037658
v -0.553252 0.678794 0.037658
v -0.628709 0.678794 0.031354
v -0.628709 0.678794 0.037658
v -0.561319 0.678794 0.034068
v -0.553252 0.678794 0.034068
v -0.548520 0.678794 0.014761
v -0.561319 0.678794 0.004718
v -0.561319 0.678794 0.014761
v -0.550488 0.678794 0.013025
v -0.553428 0.678794 0.006340
v -0.548520 0.678794 0.013025
v -0.553428 0.678794 0.004718
v -0.634650 0.678794 0.002830
v -0.634650 0.678794 0.031354
v -0.561319 0.678794 0.002830
v -0.561319 0.678794 0.004718
v -0.561319 0.678794 0.014761
v -0.561319 0.678794 0.002830
v -0.561319 0.678794 0.034068
v -0.628709 0.678794 0.031354
v -0.634650 0.678794 0.002830
v -0.634650 0.678794 0.031354
v -0.553428 0.678794 0.006340
v -0.553428 0.678794 0.004718
v -0.548520 0.678794 0.013025
v -0.548520 0.678794 0.014761
v -0.550488 0.678794 0.013025
v -0.553252 0.678794 0.034068
v -0.553252 0.678794 0.037658
v -0.628709 0.678794 0.037658
v -0.628709 0.678794 0.031354
v -0.634650 -0.585731 0.031354
v -0.628709 -0.585731 0.031354
v -0.634650 0.678794 0.031354
v -0.634650 0.678794 0.031354
v -0.628709 0.678794 0.031354
v -0.634650 -0.585731 0.031354
v -0.628709 -0.585731 0.031354
v -0.561319 -0.585731 0.002830
v -0.634650 -0.585731 0.031354
v -0.634650 -0.585731 0.002830
v -0.628709 -0.585731 0.031354
v -0.628709 -0.585731 0.037658
v -0.561319 -0.585731 0.014761
v -0.561319 -0.585731 0.004718
v -0.548520 -0.585731 0.014761
v -0.550488 -0.585731 0.013025
v -0.553428 -0.585731 0.006340
v -0.553428 -0.585731 0.004718
v -0.548520 -0.585731 0.013025
v -0.561319 -0.585731 0.034068
v -0.553252 -0.585731 0.037658
v -0.553252 -0.585731 0.034068
v -0.553252 -0.585731 0.034068
v -0.561319 -0.585731 0.034068
v -0.553252 -0.585731 0.037658
v -0.561319 -0.585731 0.014761
v -0.628709 -0.585731 0.037658
v -0.548520 -0.585731 0.013025
v -0.550488 -0.585731 0.013025
v -0.548520 -0.585731 0.014761
v -0.553428 -0.585731 0.004718
v -0.561319 -0.585731 0.004718
v -0.553428 -0.585731 0.006340
v -0.561319 -0.585731 0.002830
v -0.628709 -0.585731 0.031354
v -0.634650 -0.585731 0.031354
v -0.634650 -0.585731 0.002830
v -0.553252 0.678794 0.037658
v -0.628709 -0.585731 0.037658
v -0.553252 -0.585731 0.037658
v -0.628709 0.678794 0.037658
v -0.628709 0.678794 0.037658
v -0.553252 0.678794 0.037658
v -0.628709 -0.585731 0.037658
v -0.553252 -0.585731 0.037658
v -0.561319 -0.585731 0.002830
v -0.561319 0.678794 0.004718
v -0.561319 -0.585731 0.004718
v -0.561319 0.678794 0.002830
v -0.561319 0.678794 0.002830
v -0.561319 -0.585731 0.002830
v -0.561319 0.678794 0.004718
v -0.561319 -0.585731 0.004718
v -0.634650 0.678794 0.002830
v -0.561319 -0.585731 0.002830
v -0.634650 -0.585731 0.002830
v -0.561319 0.678794 0.002830
v -0.561319 0.678794 0.002830
v -0.634650 0.678794 0.002830
v -0.561319 -0.585731 0.002830
v -0.634650 -0.585731 0.002830
v -0.634650 0.678794 0.002830
v -0.634650 -0.585731 0.031354
v -0.634650 0.678794 0.031354
v -0.634650 -0.585731 0.002830
v -0.634650 -0.585731 0.002830
v -0.634650 0.678794 0.002830
v -0.634650 -0.585731 0.031354
v -0.634650 0.678794 0.031354
v -0.553252 -0.585731 0.034068
v -0.553252 0.678794 0.037658
v -0.553252 -0.585731 0.037658
v -0.553252 0.678794 0.034068
v -0.553252 0.678794 0.034068
v -0.553252 -0.585731 0.034068
v -0.553252 0.678794 0.037658
v -0.553252 -0.585731 0.037658
v -0.561319 0.678794 0.034068
v -0.553252 -0.585731 0.034068
v -0.561319 -0.585731 0.034068
v -0.553252 0.678794 0.034068
v -0.553252 0.678794 0.034068
v -0.561319 0.678794 0.034068
v -0.553252 -0.585731 0.034068
v -0.561319 -0.585731 0.034068
v -0.561319 -0.585731 0.014761
v -0.561319 0.678794 0.034068
v -0.561319 -0.585731 0.034068
v -0.561319 0.678794 0.014761
v -0.561319 0.678794 0.014761
v -0.561319 -0.585731 0.014761
v -0.561319 0.678794 0.034068
v -0.561319 -0.585731 0.034068
v -0.548520 0.678794 0.014761
v -0.561319 -0.585731 0.014761
v -0.548520 -0.585731 0.014761
v -0.561319 0.678794 0.014761
v -0.561319 0.678794 0.014761
v -0.548520 0.678794 0.014761
v -0.561319 -0.585731 0.014761
v -0.548520 -0.585731 0.014761
v -0.548520 -0.585731 0.013025
v -0.548520 0.678794 0.014761
v -0.548520 -0.585731 0.014761
v -0.548520 0.678794 0.013025
v -0.548520 0.678794 0.013025
v -0.548520 -0.585731 0.013025
v -0.548520 0.678794 0.014761
v -0.548520 -0.585731 0.014761
v -0.550488 0.678794 0.013025
v -0.548520 -0.585731 0.013025
v -0.550488 -0.585731 0.013025
v -0.548520 0.678794 0.013025
v -0.548520 0.678794 0.013025
v -0.550488 0.678794 0.013025
v -0.548520 -0.585731 0.013025
v -0.550488 -0.585731 0.013025
v -0.553428 -0.585731 0.006340
v -0.550488 0.678794 0.013025
v -0.550488 -0.585731 0.013025
v -0.553428 0.678794 0.006340
v -0.553428 0.678794 0.006340
v -0.553428 -0.585731 0.006340
v -0.550488 0.678794 0.013025
v -0.550488 -0.585731 0.013025
v -0.553428 -0.585731 0.004718
v -0.553428 0.678794 0.004718
v -0.553428 0.678794 0.004718
v -0.553428 -0.585731 0.004718
v -0.561319 0.678794 0.004718
v -0.553428 -0.585731 0.004718
v -0.561319 -0.585731 0.004718
v -0.553428 0.678794 0.004718
v -0.553428 0.678794 0.004718
v -0.561319 0.678794 0.004718
v -0.553428 -0.585731 0.004718
v -0.561319 -0.585731 0.004718
vn -1 0 0
vn 1 0 0
vn 0 1 0
vn 0 -1 0
vn 0 0 1
vn 0 0 -1
vn 0.978622028266135 0 -0.20566702650710988
vn 0.91540216598692 0 -0.40254052529708767
vn -0.978622028266135 0 0.20566702650710988
vn -0.91540216598692 0 0.40254052529708767
usemtl material_0_0
f 1//1 2//1 3//1
f 2//1 1//1 4//1
f 5//2 6//2 7//2
f 8//2 7//2 6//2
f 9//3 10//3 11//3
f 10//3 9//3 12//3
f 12//3 9//3 13//3
f 14//3 15//3 16//3
f 15//3 14//3 17//3
f 15//3 17//3 18//3
f 17//3 14//3 19//3
f 20//3 15//3 18//3
f 10//3 21//3 22//3
f 21//3 10//3 23//3
f 23//3 10//3 16//3
f 16//3 10//3 12//3
f 23//3 16//3 15//3
f 24//4 25//4 26//4
f 27//4 28//4 25//4
f 25//4 28//4 26//4
f 26//4 28//4 29//4
f 30//4 29//4 28//4
f 31//4 24//4 32//4
f 33//4 34//4 35//4
f 31//4 35//4 24//4
f 35//4 34//4 24//4
f 25//4 24//4 34//4
f 36//4 37//4 27//4
f 27//4 37//4 28//4
f 38//4 28//4 37//4
f 39//5 40//5 41//5
f 40//5 39//5 42//5
f 43//6 44//6 45//6
f 46//6 45//6 44//6
f 47//4 48//4 49//4
f 48//4 47//4 50//4
f 50//4 47//4 51//4
f 51//4 47//4 52//4
f 52//4 47//4 53//4
f 52//4 53//4 54//4
f 54//4 53//4 55//4
f 55//4 53//4 56//4
f 56//4 53//4 57//4
f 54//4 55//4 58//4
f 51//4 59//4 60//4
f 59//4 51//4 52//4
f 60//4 59//4 61//4
f 62//3 63//3 64//3
f 65//3 66//3 63//3
f 64//3 63//3 66//3
f 67//3 68//3 69//3
f 70//3 71//3 72//3
f 72//3 71//3 68//3
f 68//3 71//3 69//3
f 69//3 71//3 65//3
f 71//3 73//3 65//3
f 65//3 73//3 66//3
f 66//3 73//3 74//3
f 74//3 73//3 75//3
f 76//3 75//3 73//3
f 77//5 78//5 79//5
f 78//5 77//5 80//5
f 81//6 82//6 83//6
f 84//6 83//6 82//6
f 85//2 86//2 87//2
f 86//2 85//2 88//2
f 89//1 90//1 91//1
f 92//1 91//1 90//1
f 93//6 94//6 95//6
f 94//6 93//6 96//6
f 97//5 98//5 99//5
f 100//5 99//5 98//5
f 101//1 102//1 103//1
f 102//1 101//1 104//1
f 105//2 106//2 107//2
f 108//2 107//2 106//2
f 109//2 110//2 111//2
f 110//2 109//2 112//2
f 113//1 114//1 115//1
f 116//1 115//1 114//1
f 117//6 118//6 119//6
f 118//6 117//6 120//6
f 121//5 122//5 123//5
f 124//5 123//5 122//5
f 125//2 126//2 127//2
f 126//2 125//2 128//2
f 129//1 130//1 131//1
f 132//1 131//1 130//1
f 133//5 134//5 135//5
f 134//5 133//5 136//5
f 137//6 138//6 139//6
f 140//6 139//6 138//6
f 141//2 142//2 143//2
f 142//2 141//2 144//2
f 145//1 146//1 147//1
f 148//1 147//1 146//1
f 149//6 150//6 151//6
f 150//6 149//6 152//6
f 153//5 154//5 155//5
f 156//5 155//5 154//5
f 157//7 158//8 159//8
f 158//8 157//7 160//7
f 161//9 162//9 163//10
f 164//10 163//10 162//9
f 165//2 160//7 157//7
f 160//7 165//2 166//2
f 167//1 168//1 161//9
f 162//9 161//9 168//1
f 169//6 170//6 171//6
f 170//6 169//6 172//6
f 173//5 174//5 175//5
f 176//5 175//5 174//5
