# SSTK version 0.8.0
# 151
mtllib original-151.mtl
o instance_104/blwsash_1/ID281#ID281
v -0.005363 -0.585731 -0.046818
v 0.080768 -0.739100 -0.046818
v -0.005363 -0.739100 -0.046818
v 0.067969 -0.598530 -0.046818
v 0.067969 -0.585731 -0.046818
v 0.080768 -0.598530 -0.046818
v 0.067969 -0.598530 -0.046818
v 0.080768 -0.739100 -0.046818
v 0.080768 -0.598530 -0.046818
v 0.067969 -0.585731 -0.046818
v -0.005363 -0.585731 -0.046818
v -0.005363 -0.739100 -0.046818
v -0.005363 -0.585731 -0.046818
v -0.005363 -0.739100 -0.018294
v -0.005363 -0.585731 -0.018294
v -0.005363 -0.739100 -0.046818
v -0.005363 -0.739100 -0.046818
v -0.005363 -0.585731 -0.046818
v -0.005363 -0.739100 -0.018294
v -0.005363 -0.585731 -0.018294
v 0.076036 -0.585731 -0.011990
v 0.000579 -0.585731 -0.018294
v 0.000579 -0.585731 -0.011990
v 0.067969 -0.585731 -0.015580
v 0.076036 -0.585731 -0.015580
v 0.080768 -0.585731 -0.034887
v 0.067969 -0.585731 -0.044930
v 0.067969 -0.585731 -0.034887
v 0.078799 -0.585731 -0.036623
v 0.075860 -0.585731 -0.043309
v 0.080768 -0.585731 -0.036623
v 0.075860 -0.585731 -0.044930
v -0.005363 -0.585731 -0.046818
v -0.005363 -0.585731 -0.018294
v 0.067969 -0.585731 -0.046818
v 0.067969 -0.585731 -0.044930
v 0.067969 -0.585731 -0.034887
v 0.067969 -0.585731 -0.046818
v 0.067969 -0.585731 -0.015580
v 0.000579 -0.585731 -0.018294
v -0.005363 -0.585731 -0.046818
v -0.005363 -0.585731 -0.018294
v 0.075860 -0.585731 -0.043309
v 0.075860 -0.585731 -0.044930
v 0.080768 -0.585731 -0.036623
v 0.080768 -0.585731 -0.034887
v 0.078799 -0.585731 -0.036623
v 0.076036 -0.585731 -0.015580
v 0.076036 -0.585731 -0.011990
v 0.000579 -0.585731 -0.011990
v 0.067969 -0.598530 -0.046818
v 0.067969 -0.585731 -0.044930
v 0.067969 -0.598530 -0.044930
v 0.067969 -0.585731 -0.046818
v 0.067969 -0.585731 -0.046818
v 0.067969 -0.598530 -0.046818
v 0.067969 -0.585731 -0.044930
v 0.067969 -0.598530 -0.044930
v 0.080768 -0.598530 -0.044930
v 0.067969 -0.598530 -0.046818
v 0.067969 -0.598530 -0.044930
v 0.080768 -0.598530 -0.046818
v 0.080768 -0.598530 -0.046818
v 0.080768 -0.598530 -0.044930
v 0.067969 -0.598530 -0.046818
v 0.067969 -0.598530 -0.044930
v 0.080768 -0.733158 -0.018294
v 0.080768 -0.590463 -0.011990
v 0.080768 -0.733158 -0.011990
v 0.080768 -0.598530 -0.015580
v 0.080768 -0.598530 -0.034887
v 0.080768 -0.739100 -0.046818
v 0.080768 -0.739100 -0.018294
v 0.080768 -0.585731 -0.034887
v 0.080768 -0.587700 -0.036623
v 0.080768 -0.590640 -0.043309
v 0.080768 -0.598530 -0.044930
v 0.080768 -0.598530 -0.046818
v 0.080768 -0.590640 -0.044930
v 0.080768 -0.585731 -0.036623
v 0.080768 -0.590463 -0.015580
v 0.080768 -0.598530 -0.015580
v 0.080768 -0.590463 -0.011990
v 0.080768 -0.590463 -0.015580
v 0.080768 -0.587700 -0.036623
v 0.080768 -0.585731 -0.034887
v 0.080768 -0.585731 -0.036623
v 0.080768 -0.598530 -0.044930
v 0.080768 -0.590640 -0.043309
v 0.080768 -0.590640 -0.044930
v 0.080768 -0.598530 -0.046818
v 0.080768 -0.739100 -0.046818
v 0.080768 -0.598530 -0.034887
v 0.080768 -0.733158 -0.018294
v 0.080768 -0.739100 -0.018294
v 0.080768 -0.733158 -0.011990
v 0.080768 -0.739100 -0.046818
v -0.005363 -0.739100 -0.018294
v -0.005363 -0.739100 -0.046818
v 0.080768 -0.739100 -0.018294
v 0.080768 -0.739100 -0.018294
v 0.080768 -0.739100 -0.046818
v -0.005363 -0.739100 -0.018294
v -0.005363 -0.739100 -0.046818
v 0.080768 -0.733158 -0.018294
v -0.005363 -0.739100 -0.018294
v 0.080768 -0.739100 -0.018294
v 0.000579 -0.733158 -0.018294
v -0.005363 -0.585731 -0.018294
v 0.000579 -0.585731 -0.018294
v 0.000579 -0.585731 -0.018294
v 0.000579 -0.733158 -0.018294
v -0.005363 -0.585731 -0.018294
v -0.005363 -0.739100 -0.018294
v 0.080768 -0.733158 -0.018294
v 0.080768 -0.739100 -0.018294
v 0.000579 -0.585731 -0.018294
v 0.000579 -0.733158 -0.011990
v 0.000579 -0.585731 -0.011990
v 0.000579 -0.733158 -0.018294
v 0.000579 -0.733158 -0.018294
v 0.000579 -0.585731 -0.018294
v 0.000579 -0.733158 -0.011990
v 0.000579 -0.585731 -0.011990
v 0.080768 -0.590463 -0.011990
v 0.000579 -0.733158 -0.011990
v 0.080768 -0.733158 -0.011990
v 0.076036 -0.590463 -0.011990
v 0.000579 -0.585731 -0.011990
v 0.076036 -0.585731 -0.011990
v 0.076036 -0.585731 -0.011990
v 0.076036 -0.590463 -0.011990
v 0.000579 -0.585731 -0.011990
v 0.000579 -0.733158 -0.011990
v 0.080768 -0.590463 -0.011990
v 0.080768 -0.733158 -0.011990
v 0.076036 -0.590463 -0.015580
v 0.076036 -0.585731 -0.011990
v 0.076036 -0.590463 -0.011990
v 0.076036 -0.585731 -0.015580
v 0.076036 -0.585731 -0.015580
v 0.076036 -0.590463 -0.015580
v 0.076036 -0.585731 -0.011990
v 0.076036 -0.590463 -0.011990
v 0.067969 -0.585731 -0.015580
v 0.080768 -0.598530 -0.015580
v 0.067969 -0.598530 -0.015580
v 0.076036 -0.590463 -0.015580
v 0.076036 -0.585731 -0.015580
v 0.080768 -0.590463 -0.015580
v 0.076036 -0.590463 -0.015580
v 0.080768 -0.598530 -0.015580
v 0.080768 -0.590463 -0.015580
v 0.076036 -0.585731 -0.015580
v 0.067969 -0.585731 -0.015580
v 0.067969 -0.598530 -0.015580
v 0.067969 -0.598530 -0.034887
v 0.067969 -0.585731 -0.015580
v 0.067969 -0.598530 -0.015580
v 0.067969 -0.585731 -0.034887
v 0.067969 -0.585731 -0.034887
v 0.067969 -0.598530 -0.034887
v 0.067969 -0.585731 -0.015580
v 0.067969 -0.598530 -0.015580
v 0.080768 -0.585731 -0.034887
v 0.067969 -0.598530 -0.034887
v 0.080768 -0.598530 -0.034887
v 0.067969 -0.585731 -0.034887
v 0.067969 -0.585731 -0.034887
v 0.080768 -0.585731 -0.034887
v 0.067969 -0.598530 -0.034887
v 0.080768 -0.598530 -0.034887
v 0.078799 -0.585731 -0.036623
v 0.080768 -0.587700 -0.036623
v 0.078799 -0.587700 -0.036623
v 0.080768 -0.585731 -0.036623
v 0.080768 -0.585731 -0.036623
v 0.078799 -0.585731 -0.036623
v 0.080768 -0.587700 -0.036623
v 0.078799 -0.587700 -0.036623
v 0.075860 -0.590640 -0.043309
v 0.078799 -0.585731 -0.036623
v 0.078799 -0.587700 -0.036623
v 0.075860 -0.585731 -0.043309
v 0.075860 -0.585731 -0.043309
v 0.075860 -0.590640 -0.043309
v 0.078799 -0.585731 -0.036623
v 0.078799 -0.587700 -0.036623
v 0.075860 -0.590640 -0.044930
v 0.075860 -0.585731 -0.044930
v 0.075860 -0.585731 -0.044930
v 0.075860 -0.590640 -0.044930
v 0.067969 -0.585731 -0.044930
v 0.080768 -0.598530 -0.044930
v 0.067969 -0.598530 -0.044930
v 0.075860 -0.590640 -0.044930
v 0.075860 -0.585731 -0.044930
v 0.080768 -0.590640 -0.044930
v 0.075860 -0.590640 -0.044930
v 0.080768 -0.598530 -0.044930
v 0.080768 -0.590640 -0.044930
v 0.075860 -0.585731 -0.044930
v 0.067969 -0.585731 -0.044930
v 0.067969 -0.598530 -0.044930
v 0.080768 -0.590640 -0.043309
v 0.075860 -0.590640 -0.044930
v 0.075860 -0.590640 -0.043309
v 0.080768 -0.590640 -0.044930
v 0.080768 -0.590640 -0.044930
v 0.080768 -0.590640 -0.043309
v 0.075860 -0.590640 -0.044930
v 0.075860 -0.590640 -0.043309
v 0.078799 -0.587700 -0.036623
v 0.080768 -0.587700 -0.036623
v 0.080768 -0.587700 -0.036623
v 0.078799 -0.587700 -0.036623
v 0.080768 -0.598530 -0.015580
v 0.067969 -0.598530 -0.034887
v 0.067969 -0.598530 -0.015580
v 0.080768 -0.598530 -0.034887
v 0.080768 -0.598530 -0.034887
v 0.080768 -0.598530 -0.015580
v 0.067969 -0.598530 -0.034887
v 0.067969 -0.598530 -0.015580
v 0.080768 -0.590463 -0.011990
v 0.076036 -0.590463 -0.015580
v 0.076036 -0.590463 -0.011990
v 0.080768 -0.590463 -0.015580
v 0.080768 -0.590463 -0.015580
v 0.080768 -0.590463 -0.011990
v 0.076036 -0.590463 -0.015580
v 0.076036 -0.590463 -0.011990
v 0.080768 -0.733158 -0.018294
v 0.000579 -0.733158 -0.011990
v 0.000579 -0.733158 -0.018294
v 0.080768 -0.733158 -0.011990
v 0.080768 -0.733158 -0.011990
v 0.080768 -0.733158 -0.018294
v 0.000579 -0.733158 -0.011990
v 0.000579 -0.733158 -0.018294
vn 0 0 -1
vn 0 0 1
vn -1 0 0
vn 1 0 0
vn 0 1 0
vn 0 -1 0
vn 0.984199501386806 0 -0.1770631002494943
vn 0.9154021808199948 0 -0.40254049156575233
vn 0.9786220324056013 0 -0.20566700681035455
vn -0.9786220324056013 0 0.20566700681035455
vn -0.984199501386806 0 0.1770631002494943
vn -0.9154021808199948 0 0.40254049156575233
vn 0 0.9786220324056013 -0.20566700681035432
vn 0 0.9841995013868062 -0.17706310024949412
vn 0 -0.9786220324056013 0.20566700681035432
vn 0 -0.9841995013868062 0.17706310024949412
vn 0 0.9154021808199949 -0.4025404915657521
vn 0 -0.9154021808199949 0.4025404915657521
usemtl material_0_0
f 1//1 2//1 3//1
f 2//1 1//1 4//1
f 4//1 1//1 5//1
f 6//1 2//1 4//1
f 7//2 8//2 9//2
f 10//2 11//2 7//2
f 7//2 11//2 8//2
f 12//2 8//2 11//2
f 13//3 14//3 15//3
f 14//3 13//3 16//3
f 17//4 18//4 19//4
f 20//4 19//4 18//4
f 21//5 22//5 23//5
f 22//5 21//5 24//5
f 24//5 21//5 25//5
f 26//5 27//5 28//5
f 27//5 26//5 29//5
f 27//5 29//5 30//5
f 29//5 26//5 31//5
f 32//5 27//5 30//5
f 22//5 33//5 34//5
f 33//5 22//5 35//5
f 35//5 22//5 28//5
f 28//5 22//5 24//5
f 35//5 28//5 27//5
f 36//6 37//6 38//6
f 39//6 40//6 37//6
f 37//6 40//6 38//6
f 38//6 40//6 41//6
f 42//6 41//6 40//6
f 43//6 36//6 44//6
f 45//6 46//6 47//6
f 43//6 47//6 36//6
f 47//6 46//6 36//6
f 37//6 36//6 46//6
f 48//6 49//6 39//6
f 39//6 49//6 40//6
f 50//6 40//6 49//6
f 51//4 52//4 53//4
f 52//4 51//4 54//4
f 55//3 56//3 57//3
f 58//3 57//3 56//3
f 59//5 60//5 61//5
f 60//5 59//5 62//5
f 63//6 64//6 65//6
f 66//6 65//6 64//6
f 67//4 68//4 69//4
f 68//4 67//4 70//4
f 70//4 67//4 71//4
f 72//4 67//4 73//4
f 67//4 72//4 71//4
f 71//4 72//4 74//4
f 74//4 72//4 75//4
f 75//4 72//4 76//4
f 76//4 72//4 77//4
f 77//4 72//4 78//4
f 79//4 76//4 77//4
f 80//4 74//4 75//4
f 81//4 68//4 70//4
f 82//3 83//3 84//3
f 85//3 86//3 87//3
f 88//3 89//3 90//3
f 91//3 92//3 88//3
f 88//3 92//3 89//3
f 89//3 92//3 85//3
f 85//3 92//3 86//3
f 86//3 92//3 93//3
f 93//3 92//3 94//3
f 95//3 94//3 92//3
f 93//3 94//3 82//3
f 82//3 94//3 83//3
f 96//3 83//3 94//3
f 97//6 98//6 99//6
f 98//6 97//6 100//6
f 101//5 102//5 103//5
f 104//5 103//5 102//5
f 105//2 106//2 107//2
f 106//2 105//2 108//2
f 106//2 108//2 109//2
f 109//2 108//2 110//2
f 111//1 112//1 113//1
f 113//1 112//1 114//1
f 112//1 115//1 114//1
f 116//1 114//1 115//1
f 117//3 118//3 119//3
f 118//3 117//3 120//3
f 121//4 122//4 123//4
f 124//4 123//4 122//4
f 125//2 126//2 127//2
f 126//2 125//2 128//2
f 126//2 128//2 129//2
f 129//2 128//2 130//2
f 131//1 132//1 133//1
f 133//1 132//1 134//1
f 132//1 135//1 134//1
f 136//1 134//1 135//1
f 137//4 138//4 139//4
f 138//4 137//4 140//4
f 141//3 142//3 143//3
f 144//3 143//3 142//3
f 145//1 146//1 147//1
f 146//1 145//1 148//1
f 148//1 145//1 149//1
f 150//1 146//1 148//1
f 151//2 152//2 153//2
f 154//2 155//2 151//2
f 151//2 155//2 152//2
f 156//2 152//2 155//2
f 157//4 158//4 159//4
f 158//4 157//4 160//4
f 161//3 162//3 163//3
f 164//3 163//3 162//3
f 165//2 166//2 167//2
f 166//2 165//2 168//2
f 169//1 170//1 171//1
f 172//1 171//1 170//1
f 173//1 174//1 175//1
f 174//1 173//1 176//1
f 177//2 178//2 179//2
f 180//2 179//2 178//2
f 181//7 182//8 183//8
f 182//8 181//7 184//9
f 185//10 186//11 187//12
f 188//12 187//12 186//11
f 189//4 184//9 181//7
f 184//9 189//4 190//4
f 191//3 192//3 185//10
f 186//11 185//10 192//3
f 193//1 194//1 195//1
f 194//1 193//1 196//1
f 196//1 193//1 197//1
f 198//1 194//1 196//1
f 199//2 200//2 201//2
f 202//2 203//2 199//2
f 199//2 203//2 200//2
f 204//2 200//2 203//2
f 205//13 206//5 207//14
f 206//5 205//13 208//5
f 209//6 210//15 211//6
f 212//16 211//6 210//15
f 213//17 205//13 207//14
f 205//13 213//17 214//17
f 215//18 216//18 210//15
f 212//16 210//15 216//18
f 217//5 218//5 219//5
f 218//5 217//5 220//5
f 221//6 222//6 223//6
f 224//6 223//6 222//6
f 225//5 226//5 227//5
f 226//5 225//5 228//5
f 229//6 230//6 231//6
f 232//6 231//6 230//6
f 233//6 234//6 235//6
f 234//6 233//6 236//6
f 237//5 238//5 239//5
f 240//5 239//5 238//5
