# SSTK version 0.8.0
# 143
mtllib original-143.mtl
o instance_96/lasash/ID223#ID223
v 0.078679 0.678793 -0.016067
v 0.075397 -0.585629 -0.009478
v 0.075397 0.678793 -0.009478
v 0.078679 -0.585629 -0.016067
v 0.078679 -0.585629 -0.016067
v 0.078679 0.678793 -0.016067
v 0.075397 -0.585629 -0.009478
v 0.075397 0.678793 -0.009478
v 0.080751 -0.585629 -0.018614
v 0.076803 -0.585629 -0.016916
v 0.076803 -0.585629 -0.018614
v 0.078679 -0.585629 -0.016067
v 0.075397 -0.585629 -0.008892
v 0.075397 -0.585629 -0.009478
v 0.076426 -0.585629 -0.009354
v 0.080751 -0.585629 -0.017541
v 0.073432 -0.585629 -0.016067
v 0.073432 -0.585629 -0.016916
v -0.001322 -0.585629 -0.012570
v -0.005318 -0.585629 -0.007854
v -0.005318 -0.585629 -0.012570
v -0.001322 -0.585629 -0.008892
v 0.076426 -0.585629 -0.007854
v 0.076426 -0.585629 -0.009354
v 0.075397 -0.585629 -0.008892
v 0.076426 -0.585629 -0.007854
v -0.001322 -0.585629 -0.008892
v -0.005318 -0.585629 -0.007854
v -0.001322 -0.585629 -0.012570
v -0.005318 -0.585629 -0.012570
v 0.078679 -0.585629 -0.016067
v 0.076803 -0.585629 -0.016916
v 0.073432 -0.585629 -0.016067
v 0.073432 -0.585629 -0.016916
v 0.080751 -0.585629 -0.018614
v 0.080751 -0.585629 -0.017541
v 0.075397 -0.585629 -0.009478
v 0.076803 -0.585629 -0.018614
v 0.075397 -0.585629 -0.008892
v 0.075397 0.678793 -0.008892
v 0.075397 -0.585629 -0.008892
v 0.075397 0.678793 -0.008892
v -0.005318 0.678793 -0.007854
v -0.001322 0.678793 -0.008892
v -0.005318 0.678793 -0.012570
v 0.076426 0.678793 -0.007854
v 0.075397 0.678793 -0.008892
v 0.075397 0.678793 -0.009478
v 0.076426 0.678793 -0.009354
v 0.078679 0.678793 -0.016067
v 0.080751 0.678793 -0.017541
v 0.073432 0.678793 -0.016916
v 0.073432 0.678793 -0.016067
v 0.076803 0.678793 -0.016916
v 0.076803 0.678793 -0.018614
v 0.080751 0.678793 -0.018614
v -0.001322 0.678793 -0.012570
v -0.001322 0.678793 -0.008892
v -0.005318 0.678793 -0.012570
v -0.001322 0.678793 -0.012570
v 0.080751 0.678793 -0.017541
v 0.078679 0.678793 -0.016067
v 0.080751 0.678793 -0.018614
v 0.076803 0.678793 -0.018614
v 0.076803 0.678793 -0.016916
v 0.073432 0.678793 -0.016916
v 0.073432 0.678793 -0.016067
v 0.076426 0.678793 -0.009354
v 0.075397 0.678793 -0.009478
v 0.076426 0.678793 -0.007854
v 0.075397 0.678793 -0.008892
v -0.005318 0.678793 -0.007854
v 0.078679 0.678793 -0.016067
v 0.073432 -0.585629 -0.016067
v 0.078679 -0.585629 -0.016067
v 0.073432 0.678793 -0.016067
v 0.073432 0.678793 -0.016067
v 0.078679 0.678793 -0.016067
v 0.073432 -0.585629 -0.016067
v 0.078679 -0.585629 -0.016067
v -0.005318 0.678793 -0.012570
v -0.005318 -0.585629 -0.007854
v -0.005318 0.678793 -0.007854
v -0.005318 -0.585629 -0.012570
v -0.005318 -0.585629 -0.012570
v -0.005318 0.678793 -0.012570
v -0.005318 -0.585629 -0.007854
v -0.005318 0.678793 -0.007854
v -0.005318 0.678793 -0.012570
v -0.001322 -0.585629 -0.012570
v -0.005318 -0.585629 -0.012570
v -0.001322 0.678793 -0.012570
v -0.001322 0.678793 -0.012570
v -0.005318 0.678793 -0.012570
v -0.001322 -0.585629 -0.012570
v -0.005318 -0.585629 -0.012570
v -0.001322 -0.585629 -0.012570
v -0.001322 0.678793 -0.008892
v -0.001322 -0.585629 -0.008892
v -0.001322 0.678793 -0.012570
v -0.001322 0.678793 -0.012570
v -0.001322 -0.585629 -0.012570
v -0.001322 0.678793 -0.008892
v -0.001322 -0.585629 -0.008892
v -0.001322 0.678793 -0.008892
v 0.075397 -0.585629 -0.008892
v -0.001322 -0.585629 -0.008892
v 0.075397 0.678793 -0.008892
v 0.075397 0.678793 -0.008892
v -0.001322 0.678793 -0.008892
v 0.075397 -0.585629 -0.008892
v -0.001322 -0.585629 -0.008892
v 0.073432 0.678793 -0.016916
v 0.073432 -0.585629 -0.016067
v 0.073432 0.678793 -0.016067
v 0.073432 -0.585629 -0.016916
v 0.073432 -0.585629 -0.016916
v 0.073432 0.678793 -0.016916
v 0.073432 -0.585629 -0.016067
v 0.073432 0.678793 -0.016067
v 0.073432 0.678793 -0.016916
v 0.076803 -0.585629 -0.016916
v 0.073432 -0.585629 -0.016916
v 0.076803 0.678793 -0.016916
v 0.076803 0.678793 -0.016916
v 0.073432 0.678793 -0.016916
v 0.076803 -0.585629 -0.016916
v 0.073432 -0.585629 -0.016916
v 0.076803 0.678793 -0.018614
v 0.076803 -0.585629 -0.016916
v 0.076803 0.678793 -0.016916
v 0.076803 -0.585629 -0.018614
v 0.076803 -0.585629 -0.018614
v 0.076803 0.678793 -0.018614
v 0.076803 -0.585629 -0.016916
v 0.076803 0.678793 -0.016916
v 0.076803 0.678793 -0.018614
v 0.080751 -0.585629 -0.018614
v 0.076803 -0.585629 -0.018614
v 0.080751 0.678793 -0.018614
v 0.080751 0.678793 -0.018614
v 0.076803 0.678793 -0.018614
v 0.080751 -0.585629 -0.018614
v 0.076803 -0.585629 -0.018614
v 0.080751 -0.585629 -0.018614
v 0.080751 0.678793 -0.017541
v 0.080751 -0.585629 -0.017541
v 0.080751 0.678793 -0.018614
v 0.080751 0.678793 -0.018614
v 0.080751 -0.585629 -0.018614
v 0.080751 0.678793 -0.017541
v 0.080751 -0.585629 -0.017541
v 0.076426 0.678793 -0.009354
v 0.076426 -0.585629 -0.009354
v 0.076426 0.678793 -0.009354
v 0.076426 -0.585629 -0.009354
v 0.076426 0.678793 -0.007854
v 0.076426 -0.585629 -0.007854
v 0.076426 0.678793 -0.007854
v 0.076426 -0.585629 -0.007854
v 0.076426 0.678793 -0.007854
v -0.005318 -0.585629 -0.007854
v 0.076426 -0.585629 -0.007854
v -0.005318 0.678793 -0.007854
v -0.005318 0.678793 -0.007854
v 0.076426 0.678793 -0.007854
v -0.005318 -0.585629 -0.007854
v 0.076426 -0.585629 -0.007854
vn -0.8950659046966132 0 -0.4459338810290529
vn -0.9734129349363163 0 -0.22905732491816763
vn 0.8950659046966132 0 0.4459338810290529
vn 0.9734129349363163 0 0.22905732491816763
vn 0 -1 0
vn 0 1 0
vn -1 0 0
vn 1 0 0
vn 0 0 1
vn 0 0 -1
vn 0.9706188730581485 0 0.2406221171532858
vn -0.9706188730581485 0 -0.2406221171532858
usemtl material_0_0
f 1//1 2//2 3//2
f 2//2 1//1 4//1
f 5//3 6//3 7//4
f 8//4 7//4 6//3
f 9//5 10//5 11//5
f 10//5 9//5 12//5
f 12//5 13//5 14//5
f 13//5 12//5 15//5
f 15//5 12//5 16//5
f 16//5 12//5 9//5
f 10//5 17//5 18//5
f 17//5 10//5 12//5
f 19//5 20//5 21//5
f 20//5 19//5 22//5
f 20//5 22//5 23//5
f 23//5 22//5 13//5
f 23//5 13//5 15//5
f 24//6 25//6 26//6
f 25//6 27//6 26//6
f 26//6 27//6 28//6
f 27//6 29//6 28//6
f 30//6 28//6 29//6
f 31//6 32//6 33//6
f 34//6 33//6 32//6
f 35//6 31//6 36//6
f 36//6 31//6 24//6
f 24//6 31//6 25//6
f 37//6 25//6 31//6
f 31//6 35//6 32//6
f 38//6 32//6 35//6
f 3//2 39//7 40//7
f 39//7 3//2 2//2
f 7//4 8//4 41//8
f 42//8 41//8 8//4
f 43//6 44//6 45//6
f 44//6 43//6 46//6
f 44//6 46//6 47//6
f 47//6 46//6 48//6
f 48//6 46//6 49//6
f 49//6 50//6 48//6
f 50//6 49//6 51//6
f 50//6 52//6 53//6
f 52//6 50//6 54//6
f 54//6 50//6 55//6
f 55//6 50//6 56//6
f 56//6 50//6 51//6
f 57//6 45//6 44//6
f 58//5 59//5 60//5
f 61//5 62//5 63//5
f 63//5 62//5 64//5
f 64//5 62//5 65//5
f 65//5 62//5 66//5
f 67//5 66//5 62//5
f 61//5 68//5 62//5
f 69//5 62//5 68//5
f 68//5 70//5 69//5
f 69//5 70//5 71//5
f 71//5 70//5 58//5
f 70//5 72//5 58//5
f 59//5 58//5 72//5
f 73//9 74//9 75//9
f 74//9 73//9 76//9
f 77//10 78//10 79//10
f 80//10 79//10 78//10
f 81//7 82//7 83//7
f 82//7 81//7 84//7
f 85//8 86//8 87//8
f 88//8 87//8 86//8
f 89//10 90//10 91//10
f 90//10 89//10 92//10
f 93//9 94//9 95//9
f 96//9 95//9 94//9
f 97//8 98//8 99//8
f 98//8 97//8 100//8
f 101//7 102//7 103//7
f 104//7 103//7 102//7
f 105//10 106//10 107//10
f 106//10 105//10 108//10
f 109//9 110//9 111//9
f 112//9 111//9 110//9
f 113//7 114//7 115//7
f 114//7 113//7 116//7
f 117//8 118//8 119//8
f 120//8 119//8 118//8
f 121//10 122//10 123//10
f 122//10 121//10 124//10
f 125//9 126//9 127//9
f 128//9 127//9 126//9
f 129//7 130//7 131//7
f 130//7 129//7 132//7
f 133//8 134//8 135//8
f 136//8 135//8 134//8
f 137//10 138//10 139//10
f 138//10 137//10 140//10
f 141//9 142//9 143//9
f 144//9 143//9 142//9
f 145//8 146//11 147//11
f 146//11 145//8 148//8
f 149//7 150//7 151//12
f 152//12 151//12 150//7
f 147//11 153//11 154//11
f 153//11 147//11 146//11
f 151//12 152//12 155//12
f 156//12 155//12 152//12
f 154//11 157//8 158//8
f 157//8 154//11 153//11
f 155//12 156//12 159//7
f 160//7 159//7 156//12
f 161//9 162//9 163//9
f 162//9 161//9 164//9
f 165//10 166//10 167//10
f 168//10 167//10 166//10
