# SSTK version 0.8.0
# 5
mtllib original-5.mtl
o instance_4/tstop/ID33#ID33
v -0.632347 0.760104 -0.017528
v -0.632347 0.755908 -0.007165
v -0.632347 0.760104 -0.007165
v -0.632347 0.761689 -0.041975
v -0.632347 0.761689 -0.017528
v -0.632347 0.744364 -0.019344
v -0.632347 0.747232 -0.034759
v -0.632347 0.747232 -0.041975
v -0.632347 0.744364 0.002859
v -0.632347 0.755908 0.002859
v -0.632347 0.760104 -0.017528
v -0.632347 0.755908 -0.007165
v -0.632347 0.744364 -0.019344
v -0.632347 0.744364 0.002859
v -0.632347 0.755908 0.002859
v -0.632347 0.747232 -0.041975
v -0.632347 0.761689 -0.041975
v -0.632347 0.747232 -0.034759
v -0.632347 0.761689 -0.017528
v -0.632347 0.760104 -0.007165
v -0.632347 0.761689 -0.041975
v -0.024013 0.747232 -0.041975
v -0.632347 0.747232 -0.041975
v -0.024013 0.761689 -0.041975
v -0.024013 0.761689 -0.041975
v -0.632347 0.761689 -0.041975
v -0.024013 0.747232 -0.041975
v -0.632347 0.747232 -0.041975
v -0.024013 0.747232 -0.041975
v -0.632347 0.747232 -0.034759
v -0.632347 0.747232 -0.041975
v -0.024013 0.747232 -0.034759
v -0.024013 0.747232 -0.034759
v -0.024013 0.747232 -0.041975
v -0.632347 0.747232 -0.034759
v -0.632347 0.747232 -0.041975
v -0.632347 0.744364 -0.019344
v -0.024013 0.744364 -0.019344
v -0.024013 0.744364 -0.019344
v -0.632347 0.744364 -0.019344
v -0.632347 0.744364 0.002859
v -0.024013 0.744364 0.002859
v -0.024013 0.744364 0.002859
v -0.632347 0.744364 0.002859
v -0.024013 0.755908 0.002859
v -0.632347 0.744364 0.002859
v -0.024013 0.744364 0.002859
v -0.632347 0.755908 0.002859
v -0.632347 0.755908 0.002859
v -0.024013 0.755908 0.002859
v -0.632347 0.744364 0.002859
v -0.024013 0.744364 0.002859
v -0.024013 0.755908 0.002859
v -0.632347 0.755908 -0.007165
v -0.632347 0.755908 0.002859
v -0.024013 0.755908 -0.007165
v -0.024013 0.755908 -0.007165
v -0.024013 0.755908 0.002859
v -0.632347 0.755908 -0.007165
v -0.632347 0.755908 0.002859
v -0.024013 0.760104 -0.007165
v -0.632347 0.755908 -0.007165
v -0.024013 0.755908 -0.007165
v -0.632347 0.760104 -0.007165
v -0.632347 0.760104 -0.007165
v -0.024013 0.760104 -0.007165
v -0.632347 0.755908 -0.007165
v -0.024013 0.755908 -0.007165
v -0.024013 0.760104 -0.007165
v -0.632347 0.760104 -0.017528
v -0.632347 0.760104 -0.007165
v -0.024013 0.760104 -0.017528
v -0.024013 0.760104 -0.017528
v -0.024013 0.760104 -0.007165
v -0.632347 0.760104 -0.017528
v -0.632347 0.760104 -0.007165
v -0.024013 0.761689 -0.017528
v -0.632347 0.760104 -0.017528
v -0.024013 0.760104 -0.017528
v -0.632347 0.761689 -0.017528
v -0.632347 0.761689 -0.017528
v -0.024013 0.761689 -0.017528
v -0.632347 0.760104 -0.017528
v -0.024013 0.760104 -0.017528
v -0.024013 0.761689 -0.017528
v -0.632347 0.761689 -0.041975
v -0.632347 0.761689 -0.017528
v -0.024013 0.761689 -0.041975
v -0.024013 0.761689 -0.041975
v -0.024013 0.761689 -0.017528
v -0.632347 0.761689 -0.041975
v -0.632347 0.761689 -0.017528
v -0.024013 0.744364 -0.019344
v -0.024013 0.755908 0.002859
v -0.024013 0.744364 0.002859
v -0.024013 0.755908 -0.007165
v -0.024013 0.760104 -0.007165
v -0.024013 0.760104 -0.017528
v -0.024013 0.761689 -0.017528
v -0.024013 0.761689 -0.041975
v -0.024013 0.747232 -0.034759
v -0.024013 0.747232 -0.041975
v -0.024013 0.747232 -0.041975
v -0.024013 0.747232 -0.034759
v -0.024013 0.761689 -0.041975
v -0.024013 0.744364 -0.019344
v -0.024013 0.761689 -0.017528
v -0.024013 0.760104 -0.017528
v -0.024013 0.760104 -0.007165
v -0.024013 0.755908 -0.007165
v -0.024013 0.755908 0.002859
v -0.024013 0.744364 0.002859
vn -1 0 0
vn 1 0 0
vn 0 0 -1
vn 0 0 1
vn 0 -1 0
vn 0 -0.9957745604584612 -0.09183150191387697
vn 0 0.9957745604584612 0.09183150191387697
vn 0 1 0
usemtl material_0_0
f 1//1 2//1 3//1
f 4//1 1//1 5//1
f 1//1 4//1 6//1
f 6//1 4//1 7//1
f 7//1 4//1 8//1
f 2//1 9//1 10//1
f 9//1 2//1 6//1
f 6//1 2//1 1//1
f 11//2 12//2 13//2
f 13//2 12//2 14//2
f 15//2 14//2 12//2
f 16//2 17//2 18//2
f 18//2 17//2 13//2
f 13//2 17//2 11//2
f 19//2 11//2 17//2
f 20//2 12//2 11//2
f 21//3 22//3 23//3
f 22//3 21//3 24//3
f 25//4 26//4 27//4
f 28//4 27//4 26//4
f 29//5 30//6 31//5
f 30//6 29//5 32//6
f 33//7 34//8 35//7
f 36//8 35//7 34//8
f 32//6 37//6 30//6
f 37//6 32//6 38//6
f 39//7 33//7 40//7
f 35//7 40//7 33//7
f 38//6 41//5 37//6
f 41//5 38//6 42//5
f 43//8 39//7 44//8
f 40//7 44//8 39//7
f 45//4 46//4 47//4
f 46//4 45//4 48//4
f 49//3 50//3 51//3
f 52//3 51//3 50//3
f 53//8 54//8 55//8
f 54//8 53//8 56//8
f 57//5 58//5 59//5
f 60//5 59//5 58//5
f 61//4 62//4 63//4
f 62//4 61//4 64//4
f 65//3 66//3 67//3
f 68//3 67//3 66//3
f 69//8 70//8 71//8
f 70//8 69//8 72//8
f 73//5 74//5 75//5
f 76//5 75//5 74//5
f 77//4 78//4 79//4
f 78//4 77//4 80//4
f 81//3 82//3 83//3
f 84//3 83//3 82//3
f 85//8 86//8 87//8
f 86//8 85//8 88//8
f 89//5 90//5 91//5
f 92//5 91//5 90//5
f 93//2 94//2 95//2
f 94//2 93//2 96//2
f 96//2 93//2 97//2
f 97//2 93//2 98//2
f 98//2 93//2 99//2
f 99//2 93//2 100//2
f 100//2 93//2 101//2
f 100//2 101//2 102//2
f 103//1 104//1 105//1
f 104//1 106//1 105//1
f 105//1 106//1 107//1
f 107//1 106//1 108//1
f 108//1 106//1 109//1
f 109//1 106//1 110//1
f 110//1 106//1 111//1
f 112//1 111//1 106//1
