# SSTK version 0.8.0
# 15
mtllib original-15.mtl
o instance_14/trwframe_2/ID99#ID99
v 0.652280 0.762633 -0.043391
v 0.652280 0.756970 -0.002842
v 0.652280 0.762633 -0.002842
v 0.652280 0.756970 -0.043391
v 0.652280 0.756970 -0.043391
v 0.652280 0.762633 -0.043391
v 0.652280 0.756970 -0.002842
v 0.652280 0.762633 -0.002842
v 0.656641 0.756970 -0.043391
v 0.652280 0.756970 -0.002842
v 0.652280 0.756970 -0.043391
v 0.658095 0.756970 -0.002842
v 0.670214 0.756970 -0.065363
v 0.646617 0.756970 -0.050678
v 0.646617 0.756970 -0.065363
v 0.654168 0.756970 -0.050678
v 0.654168 0.756970 -0.046789
v 0.656641 0.756970 -0.046789
v 0.658095 0.756970 0.030196
v 0.668459 0.756970 -0.006427
v 0.670214 0.756970 -0.008182
v 0.668459 0.756970 0.030196
v 0.668459 0.756970 -0.006427
v 0.658095 0.756970 0.030196
v 0.668459 0.756970 0.030196
v 0.670214 0.756970 -0.008182
v 0.670214 0.756970 -0.065363
v 0.658095 0.756970 -0.002842
v 0.656641 0.756970 -0.043391
v 0.656641 0.756970 -0.046789
v 0.654168 0.756970 -0.046789
v 0.654168 0.756970 -0.050678
v 0.646617 0.756970 -0.050678
v 0.646617 0.756970 -0.065363
v 0.652280 0.756970 -0.002842
v 0.652280 0.756970 -0.043391
v 0.658095 0.768448 -0.002842
v 0.652280 0.756970 -0.002842
v 0.658095 0.756970 -0.002842
v 0.652280 0.762633 -0.002842
v 0.646617 0.762633 -0.002842
v 0.646617 0.768448 -0.002842
v 0.646617 0.768448 -0.002842
v 0.658095 0.768448 -0.002842
v 0.646617 0.762633 -0.002842
v 0.652280 0.762633 -0.002842
v 0.652280 0.756970 -0.002842
v 0.658095 0.756970 -0.002842
v 0.652280 0.762633 -0.043391
v 0.646617 0.762633 -0.002842
v 0.646617 0.762633 -0.043391
v 0.652280 0.762633 -0.002842
v 0.652280 0.762633 -0.002842
v 0.652280 0.762633 -0.043391
v 0.646617 0.762633 -0.002842
v 0.646617 0.762633 -0.043391
v 0.646617 0.766994 -0.043391
v 0.652280 0.762633 -0.043391
v 0.646617 0.762633 -0.043391
v 0.656641 0.756970 -0.043391
v 0.652280 0.756970 -0.043391
v 0.656641 0.766994 -0.043391
v 0.646617 0.766994 -0.043391
v 0.652280 0.762633 -0.043391
v 0.656641 0.766994 -0.043391
v 0.656641 0.756970 -0.043391
v 0.652280 0.756970 -0.043391
v 0.646617 0.762633 -0.043391
v 0.656641 0.766994 -0.046789
v 0.654168 0.756970 -0.046789
v 0.656641 0.756970 -0.046789
v 0.654168 0.764521 -0.046789
v 0.646617 0.764521 -0.046789
v 0.646617 0.766994 -0.046789
v 0.646617 0.766994 -0.046789
v 0.656641 0.766994 -0.046789
v 0.646617 0.764521 -0.046789
v 0.654168 0.764521 -0.046789
v 0.654168 0.756970 -0.046789
v 0.656641 0.756970 -0.046789
v 0.654168 0.764521 -0.050678
v 0.654168 0.756970 -0.046789
v 0.654168 0.764521 -0.046789
v 0.654168 0.756970 -0.050678
v 0.654168 0.756970 -0.050678
v 0.654168 0.764521 -0.050678
v 0.654168 0.756970 -0.046789
v 0.654168 0.764521 -0.046789
v 0.654168 0.764521 -0.050678
v 0.646617 0.756970 -0.050678
v 0.654168 0.756970 -0.050678
v 0.646617 0.764521 -0.050678
v 0.646617 0.764521 -0.050678
v 0.654168 0.764521 -0.050678
v 0.646617 0.756970 -0.050678
v 0.654168 0.756970 -0.050678
v 0.646617 0.780567 -0.065363
v 0.646617 0.766994 -0.043391
v 0.646617 0.780567 -0.008182
v 0.646617 0.766994 -0.046789
v 0.646617 0.764521 -0.046789
v 0.646617 0.764521 -0.050678
v 0.646617 0.756970 -0.050678
v 0.646617 0.756970 -0.065363
v 0.646617 0.778811 -0.006427
v 0.646617 0.768448 0.030196
v 0.646617 0.778811 0.030196
v 0.646617 0.768448 -0.002842
v 0.646617 0.762633 -0.002842
v 0.646617 0.762633 -0.043391
v 0.646617 0.766994 -0.043391
v 0.646617 0.780567 -0.008182
v 0.646617 0.762633 -0.043391
v 0.646617 0.778811 -0.006427
v 0.646617 0.762633 -0.002842
v 0.646617 0.768448 -0.002842
v 0.646617 0.768448 0.030196
v 0.646617 0.778811 0.030196
v 0.646617 0.756970 -0.065363
v 0.646617 0.780567 -0.065363
v 0.646617 0.756970 -0.050678
v 0.646617 0.764521 -0.050678
v 0.646617 0.764521 -0.046789
v 0.646617 0.766994 -0.046789
v 0.646617 0.780567 -0.065363
v 0.670214 0.756970 -0.065363
v 0.646617 0.756970 -0.065363
v 0.670214 0.780567 -0.065363
v 0.670214 0.780567 -0.065363
v 0.646617 0.780567 -0.065363
v 0.670214 0.756970 -0.065363
v 0.646617 0.756970 -0.065363
v 0.670214 0.756970 -0.065363
v 0.670214 0.780567 -0.008182
v 0.670214 0.756970 -0.008182
v 0.670214 0.780567 -0.065363
v 0.670214 0.780567 -0.065363
v 0.670214 0.756970 -0.065363
v 0.670214 0.780567 -0.008182
v 0.670214 0.756970 -0.008182
v 0.668459 0.778811 -0.006427
v 0.668459 0.756970 -0.006427
v 0.668459 0.778811 -0.006427
v 0.668459 0.756970 -0.006427
v 0.668459 0.778811 0.030196
v 0.668459 0.756970 0.030196
v 0.668459 0.778811 0.030196
v 0.668459 0.756970 0.030196
v 0.668459 0.778811 0.030196
v 0.658095 0.756970 0.030196
v 0.668459 0.756970 0.030196
v 0.658095 0.768448 0.030196
v 0.646617 0.768448 0.030196
v 0.646617 0.778811 0.030196
v 0.646617 0.778811 0.030196
v 0.668459 0.778811 0.030196
v 0.646617 0.768448 0.030196
v 0.658095 0.768448 0.030196
v 0.658095 0.756970 0.030196
v 0.668459 0.756970 0.030196
v 0.658095 0.768448 -0.002842
v 0.658095 0.756970 0.030196
v 0.658095 0.768448 0.030196
v 0.658095 0.756970 -0.002842
v 0.658095 0.756970 -0.002842
v 0.658095 0.768448 -0.002842
v 0.658095 0.756970 0.030196
v 0.658095 0.768448 0.030196
v 0.656641 0.766994 -0.046789
v 0.656641 0.756970 -0.043391
v 0.656641 0.766994 -0.043391
v 0.656641 0.756970 -0.046789
v 0.656641 0.756970 -0.046789
v 0.656641 0.766994 -0.046789
v 0.656641 0.756970 -0.043391
v 0.656641 0.766994 -0.043391
v 0.658095 0.768448 -0.002842
v 0.646617 0.768448 0.030196
v 0.646617 0.768448 -0.002842
v 0.658095 0.768448 0.030196
v 0.658095 0.768448 0.030196
v 0.658095 0.768448 -0.002842
v 0.646617 0.768448 0.030196
v 0.646617 0.768448 -0.002842
v 0.656641 0.766994 -0.046789
v 0.646617 0.766994 -0.043391
v 0.646617 0.766994 -0.046789
v 0.656641 0.766994 -0.043391
v 0.656641 0.766994 -0.043391
v 0.656641 0.766994 -0.046789
v 0.646617 0.766994 -0.043391
v 0.646617 0.766994 -0.046789
v 0.654168 0.764521 -0.050678
v 0.646617 0.764521 -0.046789
v 0.646617 0.764521 -0.050678
v 0.654168 0.764521 -0.046789
v 0.654168 0.764521 -0.046789
v 0.654168 0.764521 -0.050678
v 0.646617 0.764521 -0.046789
v 0.646617 0.764521 -0.050678
v 0.668459 0.778811 0.030196
v 0.646617 0.778811 -0.006427
v 0.646617 0.778811 0.030196
v 0.668459 0.778811 -0.006427
v 0.668459 0.778811 -0.006427
v 0.668459 0.778811 0.030196
v 0.646617 0.778811 -0.006427
v 0.646617 0.778811 0.030196
v 0.670214 0.780567 -0.008182
v 0.646617 0.780567 -0.008182
v 0.646617 0.780567 -0.008182
v 0.670214 0.780567 -0.008182
v 0.646617 0.780567 -0.065363
v 0.670214 0.780567 -0.065363
v 0.670214 0.780567 -0.065363
v 0.646617 0.780567 -0.065363
vn -1 0 0
vn 1 0 0
vn 0 -1 0
vn 0 1 0
vn 0 0 1
vn 0 0 -1
vn 0.9576361484621265 0 0.2879809145735596
vn 0.9238795391929066 0 0.38268341623423263
vn -0.9576361484621265 0 -0.2879809145735596
vn -0.9238795391929066 0 -0.38268341623423263
vn 0.8958520818768364 0 0.4443523910107134
vn -0.8958520818768364 0 -0.4443523910107134
vn 0 0.9238795391929064 0.38268341623423285
vn 0 0.8958520818768363 0.4443523910107136
vn 0 -0.8958520818768363 -0.4443523910107136
vn 0 -0.9238795391929064 -0.38268341623423285
vn 0 0.9576361484621266 0.2879809145735599
vn 0 -0.9576361484621266 -0.2879809145735599
usemtl material_0_0
f 1//1 2//1 3//1
f 2//1 1//1 4//1
f 5//2 6//2 7//2
f 8//2 7//2 6//2
f 9//3 10//3 11//3
f 10//3 9//3 12//3
f 13//3 14//3 15//3
f 14//3 13//3 16//3
f 16//3 13//3 17//3
f 17//3 13//3 18//3
f 18//3 13//3 9//3
f 9//3 13//3 12//3
f 12//3 13//3 19//3
f 19//3 13//3 20//3
f 20//3 13//3 21//3
f 22//3 19//3 20//3
f 23//4 24//4 25//4
f 26//4 27//4 23//4
f 23//4 27//4 24//4
f 24//4 27//4 28//4
f 28//4 27//4 29//4
f 29//4 27//4 30//4
f 30//4 27//4 31//4
f 31//4 27//4 32//4
f 32//4 27//4 33//4
f 34//4 33//4 27//4
f 28//4 29//4 35//4
f 36//4 35//4 29//4
f 37//5 38//5 39//5
f 38//5 37//5 40//5
f 40//5 37//5 41//5
f 41//5 37//5 42//5
f 43//6 44//6 45//6
f 45//6 44//6 46//6
f 46//6 44//6 47//6
f 48//6 47//6 44//6
f 49//3 50//3 51//3
f 50//3 49//3 52//3
f 53//4 54//4 55//4
f 56//4 55//4 54//4
f 57//6 58//6 59//6
f 58//6 60//6 61//6
f 60//6 58//6 62//6
f 62//6 58//6 57//6
f 63//5 64//5 65//5
f 65//5 64//5 66//5
f 67//5 66//5 64//5
f 68//5 64//5 63//5
f 69//5 70//5 71//5
f 70//5 69//5 72//5
f 72//5 69//5 73//5
f 73//5 69//5 74//5
f 75//6 76//6 77//6
f 77//6 76//6 78//6
f 78//6 76//6 79//6
f 80//6 79//6 76//6
f 81//1 82//1 83//1
f 82//1 81//1 84//1
f 85//2 86//2 87//2
f 88//2 87//2 86//2
f 89//5 90//5 91//5
f 90//5 89//5 92//5
f 93//6 94//6 95//6
f 96//6 95//6 94//6
f 97//1 98//1 99//1
f 98//1 97//1 100//1
f 100//1 97//1 101//1
f 101//1 97//1 102//1
f 102//1 97//1 103//1
f 103//1 97//1 104//1
f 105//1 106//1 107//1
f 106//1 105//1 108//1
f 108//1 105//1 109//1
f 109//1 105//1 110//1
f 110//1 105//1 99//1
f 110//1 99//1 98//1
f 111//2 112//2 113//2
f 112//2 114//2 113//2
f 113//2 114//2 115//2
f 115//2 114//2 116//2
f 116//2 114//2 117//2
f 118//2 117//2 114//2
f 119//2 120//2 121//2
f 121//2 120//2 122//2
f 122//2 120//2 123//2
f 123//2 120//2 124//2
f 124//2 120//2 111//2
f 112//2 111//2 120//2
f 125//6 126//6 127//6
f 126//6 125//6 128//6
f 129//5 130//5 131//5
f 132//5 131//5 130//5
f 133//2 134//7 135//8
f 134//7 133//2 136//2
f 137//1 138//1 139//9
f 140//10 139//9 138//1
f 135//8 141//11 142//8
f 141//11 135//8 134//7
f 139//9 140//10 143//12
f 144//10 143//12 140//10
f 142//8 145//2 146//2
f 145//2 142//8 141//11
f 143//12 144//10 147//1
f 148//1 147//1 144//10
f 149//5 150//5 151//5
f 150//5 149//5 152//5
f 152//5 149//5 153//5
f 153//5 149//5 154//5
f 155//6 156//6 157//6
f 157//6 156//6 158//6
f 158//6 156//6 159//6
f 160//6 159//6 156//6
f 161//1 162//1 163//1
f 162//1 161//1 164//1
f 165//2 166//2 167//2
f 168//2 167//2 166//2
f 169//1 170//1 171//1
f 170//1 169//1 172//1
f 173//2 174//2 175//2
f 176//2 175//2 174//2
f 177//3 178//3 179//3
f 178//3 177//3 180//3
f 181//4 182//4 183//4
f 184//4 183//4 182//4
f 185//3 186//3 187//3
f 186//3 185//3 188//3
f 189//4 190//4 191//4
f 192//4 191//4 190//4
f 193//3 194//3 195//3
f 194//3 193//3 196//3
f 197//4 198//4 199//4
f 200//4 199//4 198//4
f 201//4 202//13 203//4
f 202//13 201//4 204//14
f 205//15 206//3 207//16
f 208//3 207//16 206//3
f 209//17 202//13 204//14
f 202//13 209//17 210//13
f 211//16 212//18 207//16
f 205//15 207//16 212//18
f 209//17 213//4 210//13
f 213//4 209//17 214//4
f 215//3 212//18 216//3
f 211//16 216//3 212//18
