# SSTK version 0.8.0
# 141
mtllib original-141.mtl
o instance_94/rasash/ID207#ID207
v 0.565235 0.678793 -0.017541
v 0.569561 -0.585629 -0.009354
v 0.569561 0.678793 -0.009354
v 0.565235 -0.585629 -0.017541
v 0.565235 -0.585629 -0.017541
v 0.565235 0.678793 -0.017541
v 0.569561 -0.585629 -0.009354
v 0.569561 0.678793 -0.009354
v 0.569183 -0.585629 -0.018614
v 0.565235 -0.585629 -0.017541
v 0.565235 -0.585629 -0.018614
v 0.567307 -0.585629 -0.016067
v 0.569183 -0.585629 -0.016916
v 0.572554 -0.585629 -0.016067
v 0.572554 -0.585629 -0.016916
v 0.569561 -0.585629 -0.009354
v 0.570589 -0.585629 -0.009478
v 0.651305 -0.585629 -0.012570
v 0.647308 -0.585629 -0.008892
v 0.647308 -0.585629 -0.012570
v 0.569561 -0.585629 -0.007854
v 0.570589 -0.585629 -0.008892
v 0.651305 -0.585629 -0.007854
v 0.651305 -0.585629 -0.012570
v 0.647308 -0.585629 -0.008892
v 0.651305 -0.585629 -0.007854
v 0.570589 -0.585629 -0.008892
v 0.570589 -0.585629 -0.009478
v 0.569561 -0.585629 -0.009354
v 0.569561 -0.585629 -0.007854
v 0.647308 -0.585629 -0.012570
v 0.567307 -0.585629 -0.016067
v 0.565235 -0.585629 -0.017541
v 0.572554 -0.585629 -0.016916
v 0.569183 -0.585629 -0.016916
v 0.572554 -0.585629 -0.016067
v 0.569183 -0.585629 -0.018614
v 0.565235 -0.585629 -0.018614
v 0.569561 -0.585629 -0.007854
v 0.569561 0.678793 -0.007854
v 0.569561 -0.585629 -0.007854
v 0.569561 0.678793 -0.007854
v 0.569561 0.678793 -0.007854
v 0.570589 0.678793 -0.008892
v 0.569561 0.678793 -0.009354
v 0.651305 0.678793 -0.007854
v 0.647308 0.678793 -0.008892
v 0.647308 0.678793 -0.012570
v 0.651305 0.678793 -0.012570
v 0.565235 0.678793 -0.018614
v 0.565235 0.678793 -0.017541
v 0.567307 0.678793 -0.016067
v 0.570589 0.678793 -0.009478
v 0.572554 0.678793 -0.016067
v 0.569183 0.678793 -0.016916
v 0.572554 0.678793 -0.016916
v 0.569183 0.678793 -0.018614
v 0.569183 0.678793 -0.016916
v 0.567307 0.678793 -0.016067
v 0.569183 0.678793 -0.018614
v 0.565235 0.678793 -0.018614
v 0.572554 0.678793 -0.016916
v 0.572554 0.678793 -0.016067
v 0.570589 0.678793 -0.008892
v 0.569561 0.678793 -0.009354
v 0.570589 0.678793 -0.009478
v 0.565235 0.678793 -0.017541
v 0.651305 0.678793 -0.012570
v 0.651305 0.678793 -0.007854
v 0.647308 0.678793 -0.012570
v 0.647308 0.678793 -0.008892
v 0.569561 0.678793 -0.007854
v 0.565235 0.678793 -0.018614
v 0.565235 -0.585629 -0.018614
v 0.565235 -0.585629 -0.018614
v 0.565235 0.678793 -0.018614
v 0.651305 -0.585629 -0.012570
v 0.651305 0.678793 -0.007854
v 0.651305 -0.585629 -0.007854
v 0.651305 0.678793 -0.012570
v 0.651305 0.678793 -0.012570
v 0.651305 -0.585629 -0.012570
v 0.651305 0.678793 -0.007854
v 0.651305 -0.585629 -0.007854
v 0.651305 0.678793 -0.007854
v 0.569561 -0.585629 -0.007854
v 0.651305 -0.585629 -0.007854
v 0.569561 0.678793 -0.007854
v 0.569561 0.678793 -0.007854
v 0.651305 0.678793 -0.007854
v 0.569561 -0.585629 -0.007854
v 0.651305 -0.585629 -0.007854
v 0.565235 0.678793 -0.018614
v 0.569183 -0.585629 -0.018614
v 0.565235 -0.585629 -0.018614
v 0.569183 0.678793 -0.018614
v 0.569183 0.678793 -0.018614
v 0.565235 0.678793 -0.018614
v 0.569183 -0.585629 -0.018614
v 0.565235 -0.585629 -0.018614
v 0.569183 -0.585629 -0.018614
v 0.569183 0.678793 -0.016916
v 0.569183 -0.585629 -0.016916
v 0.569183 0.678793 -0.018614
v 0.569183 0.678793 -0.018614
v 0.569183 -0.585629 -0.018614
v 0.569183 0.678793 -0.016916
v 0.569183 -0.585629 -0.016916
v 0.569183 0.678793 -0.016916
v 0.572554 -0.585629 -0.016916
v 0.569183 -0.585629 -0.016916
v 0.572554 0.678793 -0.016916
v 0.572554 0.678793 -0.016916
v 0.569183 0.678793 -0.016916
v 0.572554 -0.585629 -0.016916
v 0.569183 -0.585629 -0.016916
v 0.572554 -0.585629 -0.016916
v 0.572554 0.678793 -0.016067
v 0.572554 -0.585629 -0.016067
v 0.572554 0.678793 -0.016916
v 0.572554 0.678793 -0.016916
v 0.572554 -0.585629 -0.016916
v 0.572554 0.678793 -0.016067
v 0.572554 -0.585629 -0.016067
v 0.572554 0.678793 -0.016067
v 0.567307 -0.585629 -0.016067
v 0.572554 -0.585629 -0.016067
v 0.567307 0.678793 -0.016067
v 0.567307 0.678793 -0.016067
v 0.572554 0.678793 -0.016067
v 0.567307 -0.585629 -0.016067
v 0.572554 -0.585629 -0.016067
v 0.567307 -0.585629 -0.016067
v 0.570589 0.678793 -0.009478
v 0.570589 -0.585629 -0.009478
v 0.567307 0.678793 -0.016067
v 0.567307 0.678793 -0.016067
v 0.567307 -0.585629 -0.016067
v 0.570589 0.678793 -0.009478
v 0.570589 -0.585629 -0.009478
v 0.570589 0.678793 -0.008892
v 0.570589 -0.585629 -0.008892
v 0.570589 0.678793 -0.008892
v 0.570589 -0.585629 -0.008892
v 0.570589 0.678793 -0.008892
v 0.647308 -0.585629 -0.008892
v 0.570589 -0.585629 -0.008892
v 0.647308 0.678793 -0.008892
v 0.647308 0.678793 -0.008892
v 0.570589 0.678793 -0.008892
v 0.647308 -0.585629 -0.008892
v 0.570589 -0.585629 -0.008892
v 0.647308 0.678793 -0.012570
v 0.647308 -0.585629 -0.008892
v 0.647308 0.678793 -0.008892
v 0.647308 -0.585629 -0.012570
v 0.647308 -0.585629 -0.012570
v 0.647308 0.678793 -0.012570
v 0.647308 -0.585629 -0.008892
v 0.647308 0.678793 -0.008892
v 0.647308 0.678793 -0.012570
v 0.651305 -0.585629 -0.012570
v 0.647308 -0.585629 -0.012570
v 0.651305 0.678793 -0.012570
v 0.651305 0.678793 -0.012570
v 0.647308 0.678793 -0.012570
v 0.651305 -0.585629 -0.012570
v 0.647308 -0.585629 -0.012570
vn -0.9706190301651367 0 0.24062148341594358
vn 0.9706190301651367 0 -0.24062148341594358
vn 0 -1 0
vn 0 1 0
vn -1 0 0
vn 1 0 0
vn 0 0 1
vn 0 0 -1
vn 0.8950659539036206 0 -0.4459337822621219
vn 0.9734130657434305 0 -0.22905676903330313
vn -0.8950659539036206 0 0.4459337822621219
vn -0.9734130657434305 0 0.22905676903330313
usemtl material_0_0
f 1//1 2//1 3//1
f 2//1 1//1 4//1
f 5//2 6//2 7//2
f 8//2 7//2 6//2
f 9//3 10//3 11//3
f 10//3 9//3 12//3
f 12//3 9//3 13//3
f 12//3 13//3 14//3
f 14//3 13//3 15//3
f 12//3 16//3 10//3
f 16//3 12//3 17//3
f 18//3 19//3 20//3
f 21//3 22//3 23//3
f 22//3 21//3 16//3
f 22//3 16//3 17//3
f 23//3 22//3 19//3
f 23//3 19//3 18//3
f 24//4 25//4 26//4
f 25//4 27//4 26//4
f 28//4 29//4 27//4
f 29//4 30//4 27//4
f 26//4 27//4 30//4
f 31//4 25//4 24//4
f 28//4 32//4 29//4
f 33//4 29//4 32//4
f 34//4 35//4 36//4
f 36//4 35//4 32//4
f 35//4 37//4 32//4
f 32//4 37//4 33//4
f 38//4 33//4 37//4
f 3//1 39//5 40//5
f 39//5 3//1 2//1
f 7//2 8//2 41//6
f 42//6 41//6 8//2
f 43//4 44//4 45//4
f 44//4 43//4 46//4
f 44//4 46//4 47//4
f 47//4 46//4 48//4
f 48//4 46//4 49//4
f 45//4 50//4 51//4
f 50//4 45//4 52//4
f 52//4 45//4 53//4
f 53//4 45//4 44//4
f 54//4 55//4 52//4
f 55//4 54//4 56//4
f 52//4 57//4 50//4
f 57//4 52//4 55//4
f 58//3 59//3 60//3
f 61//3 60//3 59//3
f 62//3 63//3 58//3
f 59//3 58//3 63//3
f 64//3 65//3 66//3
f 66//3 65//3 59//3
f 59//3 65//3 61//3
f 67//3 61//3 65//3
f 68//3 69//3 70//3
f 70//3 69//3 71//3
f 71//3 69//3 64//3
f 69//3 72//3 64//3
f 65//3 64//3 72//3
f 73//5 4//1 1//1
f 4//1 73//5 74//5
f 75//6 76//6 5//2
f 6//2 5//2 76//6
f 77//6 78//6 79//6
f 78//6 77//6 80//6
f 81//5 82//5 83//5
f 84//5 83//5 82//5
f 85//7 86//7 87//7
f 86//7 85//7 88//7
f 89//8 90//8 91//8
f 92//8 91//8 90//8
f 93//8 94//8 95//8
f 94//8 93//8 96//8
f 97//7 98//7 99//7
f 100//7 99//7 98//7
f 101//6 102//6 103//6
f 102//6 101//6 104//6
f 105//5 106//5 107//5
f 108//5 107//5 106//5
f 109//8 110//8 111//8
f 110//8 109//8 112//8
f 113//7 114//7 115//7
f 116//7 115//7 114//7
f 117//6 118//6 119//6
f 118//6 117//6 120//6
f 121//5 122//5 123//5
f 124//5 123//5 122//5
f 125//7 126//7 127//7
f 126//7 125//7 128//7
f 129//8 130//8 131//8
f 132//8 131//8 130//8
f 133//9 134//10 135//10
f 134//10 133//9 136//9
f 137//11 138//11 139//12
f 140//12 139//12 138//11
f 135//10 141//6 142//6
f 141//6 135//10 134//10
f 139//12 140//12 143//5
f 144//5 143//5 140//12
f 145//8 146//8 147//8
f 146//8 145//8 148//8
f 149//7 150//7 151//7
f 152//7 151//7 150//7
f 153//5 154//5 155//5
f 154//5 153//5 156//5
f 157//6 158//6 159//6
f 160//6 159//6 158//6
f 161//8 162//8 163//8
f 162//8 161//8 164//8
f 165//7 166//7 167//7
f 168//7 167//7 166//7
