# SSTK version 0.8.0
# 10
mtllib original-10.mtl
o instance_9/traframe_2/ID65#ID65
v 0.657206 0.767717 0.021599
v 0.640712 0.767717 0.042607
v 0.640712 0.767717 0.021599
v 0.657206 0.767717 0.042607
v 0.657206 0.767717 0.042607
v 0.657206 0.767717 0.021599
v 0.640712 0.767717 0.042607
v 0.640712 0.767717 0.021599
v 0.640712 0.780567 0.044573
v 0.640712 0.779729 0.037368
v 0.640712 0.779031 0.044573
v 0.640712 0.780567 0.023115
v 0.640712 0.779031 0.038217
v 0.640712 0.777011 0.038217
v 0.640712 0.779729 0.023115
v 0.640712 0.762701 -0.013655
v 0.640712 0.761854 -0.002804
v 0.640712 0.762701 -0.002615
v 0.640712 0.761854 -0.013655
v 0.640712 0.761977 0.045297
v 0.640712 0.762084 0.044390
v 0.640712 0.751224 0.045297
v 0.640712 0.767790 0.043579
v 0.640712 0.767717 0.042607
v 0.640712 0.768610 0.042729
v 0.640712 0.776161 0.042729
v 0.640712 0.768610 -0.002615
v 0.640712 0.767717 0.021599
v 0.640712 0.767717 0.020089
v 0.640712 0.753958 0.021599
v 0.640712 0.767717 -0.001766
v 0.640712 0.757604 -0.001766
v 0.640712 0.758643 -0.002804
v 0.640712 0.757604 -0.007764
v 0.640712 0.758643 -0.007764
v 0.640712 0.753958 0.020089
v 0.640712 0.777011 0.045334
v 0.640712 0.769813 0.043579
v 0.640712 0.773689 0.045334
v 0.640712 0.776161 0.037368
v 0.640712 0.752073 0.044390
v 0.640712 0.751224 0.042611
v 0.640712 0.752073 0.042611
v 0.640712 0.752073 0.042611
v 0.640712 0.752073 0.044390
v 0.640712 0.751224 0.042611
v 0.640712 0.762084 0.044390
v 0.640712 0.751224 0.045297
v 0.640712 0.779729 0.037368
v 0.640712 0.777011 0.038217
v 0.640712 0.776161 0.037368
v 0.640712 0.776161 0.042729
v 0.640712 0.767790 0.043579
v 0.640712 0.769813 0.043579
v 0.640712 0.777011 0.045334
v 0.640712 0.773689 0.045334
v 0.640712 0.767717 0.020089
v 0.640712 0.753958 0.021599
v 0.640712 0.753958 0.020089
v 0.640712 0.758643 -0.007764
v 0.640712 0.758643 -0.002804
v 0.640712 0.757604 -0.007764
v 0.640712 0.761854 -0.002804
v 0.640712 0.762701 -0.002615
v 0.640712 0.757604 -0.001766
v 0.640712 0.768610 -0.002615
v 0.640712 0.767717 -0.001766
v 0.640712 0.767717 0.021599
v 0.640712 0.767717 0.042607
v 0.640712 0.768610 0.042729
v 0.640712 0.761977 0.045297
v 0.640712 0.761854 -0.013655
v 0.640712 0.762701 -0.013655
v 0.640712 0.779729 0.023115
v 0.640712 0.780567 0.023115
v 0.640712 0.779031 0.038217
v 0.640712 0.779031 0.044573
v 0.640712 0.780567 0.044573
v 0.657206 0.767717 0.021599
v 0.640712 0.753958 0.021599
v 0.657206 0.753958 0.021599
v 0.640712 0.767717 0.021599
v 0.640712 0.767717 0.021599
v 0.657206 0.767717 0.021599
v 0.640712 0.753958 0.021599
v 0.657206 0.753958 0.021599
v 0.657206 0.767717 -0.001766
v 0.657206 0.753958 0.020089
v 0.657206 0.767717 0.020089
v 0.657206 0.767717 0.021599
v 0.657206 0.751224 0.042607
v 0.657206 0.767717 0.042607
v 0.657206 0.753958 0.021599
v 0.657206 0.751224 -0.001766
v 0.657206 0.767717 -0.001766
v 0.657206 0.753958 0.020089
v 0.657206 0.751224 -0.001766
v 0.657206 0.753958 0.021599
v 0.657206 0.751224 0.042607
v 0.657206 0.767717 0.021599
v 0.657206 0.767717 0.042607
v 0.657206 0.767717 0.020089
v 0.640712 0.767717 0.042607
v 0.651573 0.762084 0.044390
v 0.640712 0.762084 0.044390
v 0.657206 0.767717 0.042607
v 0.657206 0.767717 0.042607
v 0.640712 0.767717 0.042607
v 0.651573 0.762084 0.044390
v 0.640712 0.762084 0.044390
v 0.657206 0.767717 -0.001766
v 0.640712 0.767717 0.020089
v 0.640712 0.767717 -0.001766
v 0.657206 0.767717 0.020089
v 0.657206 0.767717 0.020089
v 0.657206 0.767717 -0.001766
v 0.640712 0.767717 0.020089
v 0.640712 0.767717 -0.001766
v 0.640712 0.767717 0.020089
v 0.657206 0.753958 0.020089
v 0.640712 0.753958 0.020089
v 0.657206 0.767717 0.020089
v 0.657206 0.767717 0.020089
v 0.640712 0.767717 0.020089
v 0.657206 0.753958 0.020089
v 0.640712 0.753958 0.020089
v 0.657206 0.753958 0.020089
v 0.640712 0.753958 0.021599
v 0.640712 0.753958 0.020089
v 0.657206 0.753958 0.021599
v 0.657206 0.753958 0.021599
v 0.657206 0.753958 0.020089
v 0.640712 0.753958 0.021599
v 0.640712 0.753958 0.020089
v 0.641562 0.752073 0.044390
v 0.640712 0.752073 0.044390
v 0.651573 0.751224 0.044390
v 0.641562 0.751224 0.044390
v 0.641562 0.752073 0.044390
v 0.651573 0.751224 0.044390
v 0.641562 0.751224 0.044390
v 0.640712 0.752073 0.044390
v 0.641562 0.752073 0.044390
v 0.640712 0.752073 0.042611
v 0.640712 0.752073 0.044390
v 0.641562 0.752073 0.042611
v 0.641562 0.752073 0.042611
v 0.641562 0.752073 0.044390
v 0.640712 0.752073 0.042611
v 0.640712 0.752073 0.044390
v 0.640712 0.752073 0.042611
v 0.641562 0.751224 0.042611
v 0.640712 0.751224 0.042611
v 0.641562 0.752073 0.042611
v 0.641562 0.752073 0.042611
v 0.640712 0.752073 0.042611
v 0.641562 0.751224 0.042611
v 0.640712 0.751224 0.042611
v 0.652190 0.751224 -0.013655
v 0.651343 0.751224 -0.002804
v 0.651343 0.751224 -0.013655
v 0.670056 0.751224 0.023115
v 0.669218 0.751224 0.037368
v 0.669218 0.751224 0.023115
v 0.665650 0.751224 0.037368
v 0.666499 0.751224 0.038217
v 0.665650 0.751224 0.042729
v 0.668519 0.751224 0.038217
v 0.668519 0.751224 0.044573
v 0.670056 0.751224 0.044573
v 0.648131 0.751224 -0.007764
v 0.647093 0.751224 -0.001766
v 0.647093 0.751224 -0.007764
v 0.648131 0.751224 -0.002804
v 0.657206 0.751224 -0.001766
v 0.652190 0.751224 -0.002615
v 0.658099 0.751224 -0.002615
v 0.657206 0.751224 0.042607
v 0.657279 0.751224 0.043579
v 0.658099 0.751224 0.042729
v 0.659302 0.751224 0.043579
v 0.663178 0.751224 0.045334
v 0.666499 0.751224 0.045334
v 0.641562 0.751224 0.042611
v 0.640712 0.751224 0.045297
v 0.640712 0.751224 0.042611
v 0.641562 0.751224 0.044390
v 0.651465 0.751224 0.045297
v 0.651573 0.751224 0.044390
v 0.657206 0.751224 0.042607
v 0.651573 0.751224 0.044390
v 0.657279 0.751224 0.043579
v 0.651465 0.751224 0.045297
v 0.641562 0.751224 0.044390
v 0.640712 0.751224 0.045297
v 0.641562 0.751224 0.042611
v 0.640712 0.751224 0.042611
v 0.666499 0.751224 0.038217
v 0.665650 0.751224 0.042729
v 0.666499 0.751224 0.045334
v 0.663178 0.751224 0.045334
v 0.659302 0.751224 0.043579
v 0.658099 0.751224 0.042729
v 0.658099 0.751224 -0.002615
v 0.657206 0.751224 -0.001766
v 0.652190 0.751224 -0.002615
v 0.652190 0.751224 -0.013655
v 0.651343 0.751224 -0.002804
v 0.648131 0.751224 -0.002804
v 0.647093 0.751224 -0.001766
v 0.648131 0.751224 -0.007764
v 0.647093 0.751224 -0.007764
v 0.670056 0.751224 0.023115
v 0.669218 0.751224 0.037368
v 0.670056 0.751224 0.044573
v 0.668519 0.751224 0.044573
v 0.668519 0.751224 0.038217
v 0.665650 0.751224 0.037368
v 0.669218 0.751224 0.023115
v 0.651343 0.751224 -0.013655
v 0.651465 0.751224 0.045297
v 0.640712 0.761977 0.045297
v 0.640712 0.751224 0.045297
v 0.651465 0.761977 0.045297
v 0.651465 0.761977 0.045297
v 0.651465 0.751224 0.045297
v 0.640712 0.761977 0.045297
v 0.640712 0.751224 0.045297
v 0.657279 0.767790 0.043579
v 0.640712 0.767790 0.043579
v 0.640712 0.767790 0.043579
v 0.657279 0.767790 0.043579
v 0.659302 0.751224 0.043579
v 0.657279 0.751224 0.043579
v 0.659302 0.769813 0.043579
v 0.640712 0.769813 0.043579
v 0.640712 0.769813 0.043579
v 0.659302 0.769813 0.043579
v 0.659302 0.751224 0.043579
v 0.657279 0.751224 0.043579
v 0.663178 0.773689 0.045334
v 0.640712 0.773689 0.045334
v 0.640712 0.773689 0.045334
v 0.663178 0.773689 0.045334
v 0.666499 0.751224 0.045334
v 0.663178 0.751224 0.045334
v 0.666499 0.777011 0.045334
v 0.640712 0.777011 0.045334
v 0.640712 0.777011 0.045334
v 0.666499 0.777011 0.045334
v 0.666499 0.751224 0.045334
v 0.663178 0.751224 0.045334
v 0.666499 0.777011 0.045334
v 0.640712 0.777011 0.038217
v 0.640712 0.777011 0.045334
v 0.666499 0.777011 0.038217
v 0.666499 0.777011 0.038217
v 0.666499 0.777011 0.045334
v 0.640712 0.777011 0.038217
v 0.640712 0.777011 0.045334
v 0.668519 0.779031 0.038217
v 0.666499 0.751224 0.038217
v 0.668519 0.751224 0.038217
v 0.666499 0.777011 0.038217
v 0.640712 0.777011 0.038217
v 0.640712 0.779031 0.038217
v 0.640712 0.779031 0.038217
v 0.668519 0.779031 0.038217
v 0.640712 0.777011 0.038217
v 0.666499 0.777011 0.038217
v 0.666499 0.751224 0.038217
v 0.668519 0.751224 0.038217
v 0.668519 0.779031 0.038217
v 0.640712 0.779031 0.044573
v 0.640712 0.779031 0.038217
v 0.668519 0.779031 0.044573
v 0.668519 0.779031 0.044573
v 0.668519 0.779031 0.038217
v 0.640712 0.779031 0.044573
v 0.640712 0.779031 0.038217
v 0.670056 0.780567 0.044573
v 0.668519 0.751224 0.044573
v 0.670056 0.751224 0.044573
v 0.668519 0.779031 0.044573
v 0.640712 0.779031 0.044573
v 0.640712 0.780567 0.044573
v 0.640712 0.780567 0.044573
v 0.670056 0.780567 0.044573
v 0.640712 0.779031 0.044573
v 0.668519 0.779031 0.044573
v 0.668519 0.751224 0.044573
v 0.670056 0.751224 0.044573
v 0.670056 0.780567 0.044573
v 0.640712 0.780567 0.023115
v 0.640712 0.780567 0.044573
v 0.670056 0.780567 0.023115
v 0.670056 0.780567 0.023115
v 0.670056 0.780567 0.044573
v 0.640712 0.780567 0.023115
v 0.640712 0.780567 0.044573
v 0.640712 0.780567 0.023115
v 0.669218 0.779729 0.023115
v 0.640712 0.779729 0.023115
v 0.670056 0.751224 0.023115
v 0.669218 0.751224 0.023115
v 0.670056 0.780567 0.023115
v 0.640712 0.780567 0.023115
v 0.669218 0.779729 0.023115
v 0.670056 0.780567 0.023115
v 0.670056 0.751224 0.023115
v 0.669218 0.751224 0.023115
v 0.640712 0.779729 0.023115
v 0.669218 0.779729 0.023115
v 0.640712 0.779729 0.037368
v 0.640712 0.779729 0.023115
v 0.669218 0.779729 0.037368
v 0.669218 0.779729 0.037368
v 0.669218 0.779729 0.023115
v 0.640712 0.779729 0.037368
v 0.640712 0.779729 0.023115
v 0.640712 0.779729 0.037368
v 0.665650 0.776161 0.037368
v 0.640712 0.776161 0.037368
v 0.669218 0.751224 0.037368
v 0.665650 0.751224 0.037368
v 0.669218 0.779729 0.037368
v 0.640712 0.779729 0.037368
v 0.665650 0.776161 0.037368
v 0.669218 0.779729 0.037368
v 0.669218 0.751224 0.037368
v 0.665650 0.751224 0.037368
v 0.640712 0.776161 0.037368
v 0.665650 0.776161 0.037368
v 0.640712 0.776161 0.042729
v 0.640712 0.776161 0.037368
v 0.665650 0.776161 0.042729
v 0.665650 0.776161 0.042729
v 0.665650 0.776161 0.037368
v 0.640712 0.776161 0.042729
v 0.640712 0.776161 0.037368
v 0.640712 0.776161 0.042729
v 0.658099 0.768610 0.042729
v 0.640712 0.768610 0.042729
v 0.665650 0.751224 0.042729
v 0.658099 0.751224 0.042729
v 0.665650 0.776161 0.042729
v 0.640712 0.776161 0.042729
v 0.658099 0.768610 0.042729
v 0.665650 0.776161 0.042729
v 0.665650 0.751224 0.042729
v 0.658099 0.751224 0.042729
v 0.640712 0.768610 0.042729
v 0.658099 0.768610 0.042729
v 0.640712 0.768610 -0.002615
v 0.640712 0.768610 0.042729
v 0.658099 0.768610 -0.002615
v 0.658099 0.768610 -0.002615
v 0.658099 0.768610 0.042729
v 0.640712 0.768610 -0.002615
v 0.640712 0.768610 0.042729
v 0.640712 0.768610 -0.002615
v 0.652190 0.762701 -0.002615
v 0.640712 0.762701 -0.002615
v 0.658099 0.751224 -0.002615
v 0.652190 0.751224 -0.002615
v 0.658099 0.768610 -0.002615
v 0.640712 0.768610 -0.002615
v 0.652190 0.762701 -0.002615
v 0.658099 0.768610 -0.002615
v 0.658099 0.751224 -0.002615
v 0.652190 0.751224 -0.002615
v 0.640712 0.762701 -0.002615
v 0.652190 0.762701 -0.002615
v 0.640712 0.762701 -0.013655
v 0.640712 0.762701 -0.002615
v 0.652190 0.762701 -0.013655
v 0.652190 0.762701 -0.013655
v 0.652190 0.762701 -0.002615
v 0.640712 0.762701 -0.013655
v 0.640712 0.762701 -0.002615
v 0.640712 0.762701 -0.013655
v 0.651343 0.761854 -0.013655
v 0.640712 0.761854 -0.013655
v 0.652190 0.751224 -0.013655
v 0.651343 0.751224 -0.013655
v 0.652190 0.762701 -0.013655
v 0.640712 0.762701 -0.013655
v 0.651343 0.761854 -0.013655
v 0.652190 0.762701 -0.013655
v 0.652190 0.751224 -0.013655
v 0.651343 0.751224 -0.013655
v 0.640712 0.761854 -0.013655
v 0.651343 0.761854 -0.013655
v 0.640712 0.761854 -0.002804
v 0.640712 0.761854 -0.013655
v 0.651343 0.761854 -0.002804
v 0.651343 0.761854 -0.002804
v 0.651343 0.761854 -0.013655
v 0.640712 0.761854 -0.002804
v 0.640712 0.761854 -0.013655
v 0.640712 0.761854 -0.002804
v 0.648131 0.758643 -0.002804
v 0.640712 0.758643 -0.002804
v 0.651343 0.751224 -0.002804
v 0.648131 0.751224 -0.002804
v 0.651343 0.761854 -0.002804
v 0.640712 0.761854 -0.002804
v 0.648131 0.758643 -0.002804
v 0.651343 0.761854 -0.002804
v 0.651343 0.751224 -0.002804
v 0.648131 0.751224 -0.002804
v 0.640712 0.758643 -0.002804
v 0.648131 0.758643 -0.002804
v 0.640712 0.758643 -0.007764
v 0.640712 0.758643 -0.002804
v 0.648131 0.758643 -0.007764
v 0.648131 0.758643 -0.007764
v 0.648131 0.758643 -0.002804
v 0.640712 0.758643 -0.007764
v 0.640712 0.758643 -0.002804
v 0.640712 0.758643 -0.007764
v 0.647093 0.757604 -0.007764
v 0.640712 0.757604 -0.007764
v 0.648131 0.751224 -0.007764
v 0.647093 0.751224 -0.007764
v 0.648131 0.758643 -0.007764
v 0.640712 0.758643 -0.007764
v 0.647093 0.757604 -0.007764
v 0.648131 0.758643 -0.007764
v 0.648131 0.751224 -0.007764
v 0.647093 0.751224 -0.007764
v 0.640712 0.757604 -0.007764
v 0.647093 0.757604 -0.007764
v 0.640712 0.757604 -0.001766
v 0.640712 0.757604 -0.007764
v 0.647093 0.757604 -0.001766
v 0.647093 0.757604 -0.001766
v 0.647093 0.757604 -0.007764
v 0.640712 0.757604 -0.001766
v 0.640712 0.757604 -0.007764
v 0.657206 0.751224 -0.001766
v 0.647093 0.757604 -0.001766
v 0.647093 0.751224 -0.001766
v 0.657206 0.767717 -0.001766
v 0.640712 0.757604 -0.001766
v 0.640712 0.767717 -0.001766
v 0.640712 0.767717 -0.001766
v 0.657206 0.767717 -0.001766
v 0.640712 0.757604 -0.001766
v 0.647093 0.757604 -0.001766
v 0.657206 0.751224 -0.001766
v 0.647093 0.751224 -0.001766
v 0.657206 0.751224 0.042607
v 0.657206 0.751224 0.042607
v 0.641562 0.751224 0.042611
v 0.641562 0.752073 0.044390
v 0.641562 0.751224 0.044390
v 0.641562 0.752073 0.042611
v 0.641562 0.752073 0.042611
v 0.641562 0.751224 0.042611
v 0.641562 0.752073 0.044390
v 0.641562 0.751224 0.044390
v 0.670056 0.751224 0.023115
v 0.670056 0.780567 0.044573
v 0.670056 0.751224 0.044573
v 0.670056 0.780567 0.023115
v 0.670056 0.780567 0.023115
v 0.670056 0.751224 0.023115
v 0.670056 0.780567 0.044573
v 0.670056 0.751224 0.044573
v 0.668519 0.779031 0.038217
v 0.668519 0.751224 0.044573
v 0.668519 0.779031 0.044573
v 0.668519 0.751224 0.038217
v 0.668519 0.751224 0.038217
v 0.668519 0.779031 0.038217
v 0.668519 0.751224 0.044573
v 0.668519 0.779031 0.044573
v 0.666499 0.751224 0.038217
v 0.666499 0.777011 0.045334
v 0.666499 0.751224 0.045334
v 0.666499 0.777011 0.038217
v 0.666499 0.777011 0.038217
v 0.666499 0.751224 0.038217
v 0.666499 0.777011 0.045334
v 0.666499 0.751224 0.045334
v 0.647093 0.757604 -0.007764
v 0.647093 0.751224 -0.001766
v 0.647093 0.757604 -0.001766
v 0.647093 0.751224 -0.007764
v 0.647093 0.751224 -0.007764
v 0.647093 0.757604 -0.007764
v 0.647093 0.751224 -0.001766
v 0.647093 0.757604 -0.001766
v 0.648131 0.751224 -0.007764
v 0.648131 0.758643 -0.002804
v 0.648131 0.751224 -0.002804
v 0.648131 0.758643 -0.007764
v 0.648131 0.758643 -0.007764
v 0.648131 0.751224 -0.007764
v 0.648131 0.758643 -0.002804
v 0.648131 0.751224 -0.002804
v 0.651343 0.761854 -0.013655
v 0.651343 0.751224 -0.002804
v 0.651343 0.761854 -0.002804
v 0.651343 0.751224 -0.013655
v 0.651343 0.751224 -0.013655
v 0.651343 0.761854 -0.013655
v 0.651343 0.751224 -0.002804
v 0.651343 0.761854 -0.002804
v 0.652190 0.751224 -0.013655
v 0.652190 0.762701 -0.002615
v 0.652190 0.751224 -0.002615
v 0.652190 0.762701 -0.013655
v 0.652190 0.762701 -0.013655
v 0.652190 0.751224 -0.013655
v 0.652190 0.762701 -0.002615
v 0.652190 0.751224 -0.002615
v 0.658099 0.751224 -0.002615
v 0.658099 0.768610 0.042729
v 0.658099 0.751224 0.042729
v 0.658099 0.768610 -0.002615
v 0.658099 0.768610 -0.002615
v 0.658099 0.751224 -0.002615
v 0.658099 0.768610 0.042729
v 0.658099 0.751224 0.042729
v 0.665650 0.776161 0.037368
v 0.665650 0.751224 0.042729
v 0.665650 0.776161 0.042729
v 0.665650 0.751224 0.037368
v 0.665650 0.751224 0.037368
v 0.665650 0.776161 0.037368
v 0.665650 0.751224 0.042729
v 0.665650 0.776161 0.042729
v 0.669218 0.779729 0.023115
v 0.669218 0.751224 0.037368
v 0.669218 0.779729 0.037368
v 0.669218 0.751224 0.023115
v 0.669218 0.751224 0.023115
v 0.669218 0.779729 0.023115
v 0.669218 0.751224 0.037368
v 0.669218 0.779729 0.037368
vn 0 -1 0
vn 0 1 0
vn -1 0 0
vn 1 0 0
vn 0 0 1
vn 0 0 -1
vn 0 -0.30190651152550757 -0.9533375363943764
vn -0.11544049881369016 -0.11544049881368994 -0.9865834898614981
vn 0 -0.1527456063534832 -0.9882655411070986
vn -0.15451520479375086 -0.15451520479375064 -0.9758330302746933
vn 0.15451520479375086 0.15451520479375064 0.9758330302746933
vn 0 0.30190651152550757 0.9533375363943764
vn 0.11544049881369016 0.11544049881368994 0.9865834898614981
vn 0 0.1527456063534832 0.9882655411070986
vn -0.15274560635348342 0 -0.9882655411070986
vn 0.15274560635348342 0 0.9882655411070986
vn 0.14319869417770664 0 0.9896939597601876
vn 0 0.14319869417770642 0.9896939597601876
vn 0.10812569791008869 0.10812569791008847 0.988239680898775
vn -0.10812569791008869 -0.10812569791008847 -0.988239680898775
vn -0.14319869417770664 0 -0.9896939597601876
vn 0 -0.14319869417770642 -0.9896939597601876
vn 0.036467491336853765 0.03646749133685354 0.9986692366099965
vn -0.036467491336853765 -0.03646749133685354 -0.9986692366099965
vn -0.21104909201062488 0 0.9774754629971489
vn -0.16059830182321874 -0.16059830182321896 0.9738667110559827
vn 0 -0.2110490920106251 0.9774754629971489
vn 0 0.2110490920106251 -0.9774754629971489
vn 0.16059830182321874 0.16059830182321896 -0.9738667110559827
vn 0.21104909201062488 0 -0.9774754629971489
vn -0.05494918084233401 -0.05494918084233423 0.9969760152829721
vn 0.05494918084233401 0.05494918084233423 -0.9969760152829721
vn -0.3019065115255078 0 -0.9533375363943762
vn 0.3019065115255078 0 0.9533375363943762
usemtl material_0_0
f 1//1 2//1 3//1
f 2//1 1//1 4//1
f 5//2 6//2 7//2
f 8//2 7//2 6//2
f 9//3 10//3 11//3
f 10//3 9//3 12//3
f 11//3 10//3 13//3
f 13//3 10//3 14//3
f 10//3 12//3 15//3
f 16//3 17//3 18//3
f 17//3 16//3 19//3
f 20//3 21//3 22//3
f 21//3 20//3 23//3
f 21//3 23//3 24//3
f 24//3 23//3 25//3
f 25//3 23//3 26//3
f 24//3 25//3 27//3
f 24//3 27//3 28//3
f 28//3 27//3 29//3
f 28//3 29//3 30//3
f 29//3 27//3 31//3
f 31//3 27//3 32//3
f 32//3 27//3 18//3
f 32//3 18//3 33//3
f 32//3 33//3 34//3
f 33//3 18//3 17//3
f 34//3 33//3 35//3
f 36//3 30//3 29//3
f 37//3 38//3 39//3
f 38//3 37//3 26//3
f 26//3 37//3 14//3
f 38//3 26//3 23//3
f 26//3 14//3 40//3
f 40//3 14//3 10//3
f 22//3 41//3 42//3
f 41//3 22//3 21//3
f 42//3 41//3 43//3
f 44//4 45//4 46//4
f 47//4 48//4 45//4
f 46//4 45//4 48//4
f 49//4 50//4 51//4
f 51//4 50//4 52//4
f 53//4 52//4 54//4
f 50//4 55//4 52//4
f 52//4 55//4 54//4
f 56//4 54//4 55//4
f 57//4 58//4 59//4
f 60//4 61//4 62//4
f 63//4 64//4 61//4
f 62//4 61//4 65//4
f 61//4 64//4 65//4
f 64//4 66//4 65//4
f 65//4 66//4 67//4
f 67//4 66//4 57//4
f 58//4 57//4 68//4
f 57//4 66//4 68//4
f 68//4 66//4 69//4
f 66//4 70//4 69//4
f 52//4 53//4 70//4
f 70//4 53//4 69//4
f 69//4 53//4 47//4
f 53//4 71//4 47//4
f 48//4 47//4 71//4
f 72//4 73//4 63//4
f 64//4 63//4 73//4
f 74//4 75//4 49//4
f 50//4 49//4 76//4
f 76//4 49//4 77//4
f 75//4 78//4 49//4
f 77//4 49//4 78//4
f 79//5 80//5 81//5
f 80//5 79//5 82//5
f 83//6 84//6 85//6
f 86//6 85//6 84//6
f 87//3 88//3 89//3
f 90//3 91//3 92//3
f 91//3 90//3 93//3
f 91//3 93//3 94//3
f 94//3 93//3 88//3
f 94//3 88//3 87//3
f 95//4 96//4 97//4
f 96//4 98//4 97//4
f 97//4 98//4 99//4
f 98//4 100//4 99//4
f 101//4 99//4 100//4
f 102//4 96//4 95//4
f 103//7 104//8 105//9
f 104//8 103//7 106//10
f 107//11 108//12 109//13
f 110//14 109//13 108//12
f 111//1 112//1 113//1
f 112//1 111//1 114//1
f 115//2 116//2 117//2
f 118//2 117//2 116//2
f 119//6 120//6 121//6
f 120//6 119//6 122//6
f 123//5 124//5 125//5
f 126//5 125//5 124//5
f 127//1 128//1 129//1
f 128//1 127//1 130//1
f 131//2 132//2 133//2
f 134//2 133//2 132//2
f 105//9 135//6 136//6
f 135//6 137//15 138//6
f 137//15 135//6 104//8
f 104//8 135//6 105//9
f 110//14 139//5 109//13
f 109//13 139//5 140//16
f 141//5 140//16 139//5
f 142//5 139//5 110//14
f 143//2 144//2 145//2
f 144//2 143//2 146//2
f 147//1 148//1 149//1
f 150//1 149//1 148//1
f 151//6 152//6 153//6
f 152//6 151//6 154//6
f 155//5 156//5 157//5
f 158//5 157//5 156//5
f 159//1 160//1 161//1
f 162//1 163//1 164//1
f 165//1 166//1 167//1
f 166//1 165//1 163//1
f 166//1 163//1 168//1
f 168//1 163//1 169//1
f 169//1 163//1 170//1
f 170//1 163//1 162//1
f 171//1 172//1 173//1
f 172//1 171//1 174//1
f 172//1 174//1 175//1
f 175//1 174//1 176//1
f 176//1 174//1 160//1
f 176//1 160//1 159//1
f 175//1 176//1 177//1
f 175//1 177//1 178//1
f 178//1 177//1 179//1
f 179//1 177//1 180//1
f 179//1 180//1 181//1
f 181//1 180//1 167//1
f 181//1 167//1 182//1
f 182//1 167//1 183//1
f 183//1 167//1 166//1
f 184//1 185//1 186//1
f 185//1 184//1 187//1
f 185//1 187//1 188//1
f 188//1 187//1 189//1
f 188//1 189//1 179//1
f 179//1 189//1 178//1
f 190//2 191//2 192//2
f 192//2 191//2 193//2
f 191//2 194//2 193//2
f 193//2 194//2 195//2
f 194//2 196//2 195//2
f 197//2 195//2 196//2
f 198//2 199//2 200//2
f 200//2 199//2 201//2
f 201//2 199//2 202//2
f 199//2 203//2 202//2
f 202//2 203//2 192//2
f 203//2 204//2 192//2
f 192//2 204//2 190//2
f 190//2 204//2 205//2
f 204//2 206//2 205//2
f 207//2 208//2 206//2
f 208//2 209//2 206//2
f 206//2 209//2 205//2
f 205//2 209//2 210//2
f 209//2 211//2 210//2
f 212//2 210//2 211//2
f 213//2 214//2 215//2
f 215//2 214//2 216//2
f 216//2 214//2 217//2
f 217//2 214//2 198//2
f 214//2 218//2 198//2
f 199//2 198//2 218//2
f 219//2 214//2 213//2
f 220//2 208//2 207//2
f 221//17 222//18 223//5
f 222//18 221//17 224//19
f 225//20 226//21 227//22
f 228//6 227//22 226//21
f 229//23 222//18 224//19
f 222//18 229//23 230//18
f 231//22 232//24 227//22
f 225//20 227//22 232//24
f 233//25 229//23 234//17
f 229//23 233//25 235//26
f 229//23 235//26 230//18
f 230//18 235//26 236//27
f 237//28 238//29 231//22
f 231//22 238//29 232//24
f 238//29 239//30 232//24
f 240//21 232//24 239//30
f 241//31 236//27 235//26
f 236//27 241//31 242//27
f 243//28 244//32 237//28
f 238//29 237//28 244//32
f 245//5 241//31 246//25
f 241//31 245//5 247//5
f 241//31 247//5 242//27
f 242//27 247//5 248//5
f 249//6 250//6 243//28
f 243//28 250//6 244//32
f 250//6 251//6 244//32
f 252//30 244//32 251//6
f 253//2 254//2 255//2
f 254//2 253//2 256//2
f 257//1 258//1 259//1
f 260//1 259//1 258//1
f 261//5 262//5 263//5
f 262//5 261//5 264//5
f 264//5 261//5 265//5
f 265//5 261//5 266//5
f 267//6 268//6 269//6
f 269//6 268//6 270//6
f 270//6 268//6 271//6
f 272//6 271//6 268//6
f 273//1 274//1 275//1
f 274//1 273//1 276//1
f 277//2 278//2 279//2
f 280//2 279//2 278//2
f 281//5 282//5 283//5
f 282//5 281//5 284//5
f 284//5 281//5 285//5
f 285//5 281//5 286//5
f 287//6 288//6 289//6
f 289//6 288//6 290//6
f 290//6 288//6 291//6
f 292//6 291//6 288//6
f 293//2 294//2 295//2
f 294//2 293//2 296//2
f 297//1 298//1 299//1
f 300//1 299//1 298//1
f 301//6 302//6 303//6
f 302//6 304//6 305//6
f 304//6 302//6 306//6
f 306//6 302//6 301//6
f 307//5 308//5 309//5
f 309//5 308//5 310//5
f 311//5 310//5 308//5
f 312//5 308//5 307//5
f 313//1 314//1 315//1
f 314//1 313//1 316//1
f 317//2 318//2 319//2
f 320//2 319//2 318//2
f 321//6 322//6 323//6
f 322//6 324//6 325//6
f 324//6 322//6 326//6
f 326//6 322//6 321//6
f 327//5 328//5 329//5
f 329//5 328//5 330//5
f 331//5 330//5 328//5
f 332//5 328//5 327//5
f 333//1 334//1 335//1
f 334//1 333//1 336//1
f 337//2 338//2 339//2
f 340//2 339//2 338//2
f 341//6 342//6 343//6
f 342//6 344//6 345//6
f 344//6 342//6 346//6
f 346//6 342//6 341//6
f 347//5 348//5 349//5
f 349//5 348//5 350//5
f 351//5 350//5 348//5
f 352//5 348//5 347//5
f 353//2 354//2 355//2
f 354//2 353//2 356//2
f 357//1 358//1 359//1
f 360//1 359//1 358//1
f 361//6 362//6 363//6
f 362//6 364//6 365//6
f 364//6 362//6 366//6
f 366//6 362//6 361//6
f 367//5 368//5 369//5
f 369//5 368//5 370//5
f 371//5 370//5 368//5
f 372//5 368//5 367//5
f 373//2 374//2 375//2
f 374//2 373//2 376//2
f 377//1 378//1 379//1
f 380//1 379//1 378//1
f 381//6 382//6 383//6
f 382//6 384//6 385//6
f 384//6 382//6 386//6
f 386//6 382//6 381//6
f 387//5 388//5 389//5
f 389//5 388//5 390//5
f 391//5 390//5 388//5
f 392//5 388//5 387//5
f 393//1 394//1 395//1
f 394//1 393//1 396//1
f 397//2 398//2 399//2
f 400//2 399//2 398//2
f 401//6 402//6 403//6
f 402//6 404//6 405//6
f 404//6 402//6 406//6
f 406//6 402//6 401//6
f 407//5 408//5 409//5
f 409//5 408//5 410//5
f 411//5 410//5 408//5
f 412//5 408//5 407//5
f 413//2 414//2 415//2
f 414//2 413//2 416//2
f 417//1 418//1 419//1
f 420//1 419//1 418//1
f 421//6 422//6 423//6
f 422//6 424//6 425//6
f 424//6 422//6 426//6
f 426//6 422//6 421//6
f 427//5 428//5 429//5
f 429//5 428//5 430//5
f 431//5 430//5 428//5
f 432//5 428//5 427//5
f 433//1 434//1 435//1
f 434//1 433//1 436//1
f 437//2 438//2 439//2
f 440//2 439//2 438//2
f 441//5 442//5 443//5
f 442//5 441//5 444//5
f 442//5 444//5 445//5
f 445//5 444//5 446//5
f 447//6 448//6 449//6
f 449//6 448//6 450//6
f 448//6 451//6 450//6
f 452//6 450//6 451//6
f 104//8 453//33 137//15
f 453//33 104//8 106//10
f 107//11 109//13 454//34
f 140//16 454//34 109//13
f 455//4 456//4 457//4
f 456//4 455//4 458//4
f 459//3 460//3 461//3
f 462//3 461//3 460//3
f 463//4 464//4 465//4
f 464//4 463//4 466//4
f 467//3 468//3 469//3
f 470//3 469//3 468//3
f 471//3 472//3 473//3
f 472//3 471//3 474//3
f 475//4 476//4 477//4
f 478//4 477//4 476//4
f 479//4 480//4 481//4
f 480//4 479//4 482//4
f 483//3 484//3 485//3
f 486//3 485//3 484//3
f 241//31 233//25 246//25
f 233//25 241//31 235//26
f 238//29 244//32 239//30
f 252//30 239//30 244//32
f 229//23 221//17 234//17
f 221//17 229//23 224//19
f 225//20 232//24 226//21
f 240//21 226//21 232//24
f 487//3 488//3 489//3
f 488//3 487//3 490//3
f 491//4 492//4 493//4
f 494//4 493//4 492//4
f 495//4 496//4 497//4
f 496//4 495//4 498//4
f 499//3 500//3 501//3
f 502//3 501//3 500//3
f 503//3 504//3 505//3
f 504//3 503//3 506//3
f 507//4 508//4 509//4
f 510//4 509//4 508//4
f 511//4 512//4 513//4
f 512//4 511//4 514//4
f 515//3 516//3 517//3
f 518//3 517//3 516//3
f 519//4 520//4 521//4
f 520//4 519//4 522//4
f 523//3 524//3 525//3
f 526//3 525//3 524//3
f 527//3 528//3 529//3
f 528//3 527//3 530//3
f 531//4 532//4 533//4
f 534//4 533//4 532//4
f 535//3 536//3 537//3
f 536//3 535//3 538//3
f 539//4 540//4 541//4
f 542//4 541//4 540//4
