# SSTK version 0.8.0
# 13
mtllib original-13.mtl
o instance_12/tlaframe_2/ID89#ID89
v -0.645316 0.773689 0.045334
v -0.663905 0.769813 0.043579
v -0.645316 0.769813 0.043579
v -0.667781 0.773689 0.045334
v -0.667781 0.773689 0.045334
v -0.645316 0.773689 0.045334
v -0.663905 0.769813 0.043579
v -0.645316 0.769813 0.043579
v -0.667781 0.751224 0.045334
v -0.663905 0.751224 0.043579
v -0.667781 0.751224 0.045334
v -0.663905 0.751224 0.043579
v -0.661882 0.767790 0.043579
v -0.645316 0.767790 0.043579
v -0.661882 0.751224 0.043579
v -0.661882 0.767790 0.043579
v -0.661882 0.751224 0.043579
v -0.645316 0.767790 0.043579
v -0.645316 0.751224 0.045297
v -0.645316 0.752073 0.044390
v -0.645316 0.761977 0.045297
v -0.645316 0.751224 0.042611
v -0.645316 0.752073 0.042611
v -0.645316 0.753958 0.020089
v -0.645316 0.767717 0.021599
v -0.645316 0.753958 0.021599
v -0.645316 0.757604 -0.001766
v -0.645316 0.758643 -0.002804
v -0.645316 0.767717 -0.001766
v -0.645316 0.757604 -0.007764
v -0.645316 0.762701 -0.002615
v -0.645316 0.758643 -0.007764
v -0.645316 0.761854 -0.002804
v -0.645316 0.762701 -0.013655
v -0.645316 0.761854 -0.013655
v -0.645316 0.762084 0.044390
v -0.645316 0.767790 0.043579
v -0.645316 0.767717 0.042607
v -0.645316 0.769813 0.043579
v -0.645316 0.768610 0.042729
v -0.645316 0.768610 -0.002615
v -0.645316 0.767717 0.038083
v -0.645316 0.767717 0.037066
v -0.645316 0.767717 0.020089
v -0.645316 0.777011 0.045334
v -0.645316 0.773689 0.045334
v -0.645316 0.776161 0.042729
v -0.645316 0.777011 0.038217
v -0.645316 0.776161 0.037368
v -0.645316 0.779031 0.038217
v -0.645316 0.780567 0.044573
v -0.645316 0.779031 0.044573
v -0.645316 0.779729 0.037368
v -0.645316 0.780567 0.023115
v -0.645316 0.779729 0.023115
v -0.645316 0.779729 0.023115
v -0.645316 0.779729 0.037368
v -0.645316 0.780567 0.023115
v -0.645316 0.776161 0.037368
v -0.645316 0.779031 0.038217
v -0.645316 0.780567 0.044573
v -0.645316 0.779031 0.044573
v -0.645316 0.777011 0.038217
v -0.645316 0.776161 0.042729
v -0.645316 0.768610 0.042729
v -0.645316 0.769813 0.043579
v -0.645316 0.777011 0.045334
v -0.645316 0.773689 0.045334
v -0.645316 0.762701 -0.002615
v -0.645316 0.767717 -0.001766
v -0.645316 0.768610 -0.002615
v -0.645316 0.767717 0.020089
v -0.645316 0.753958 0.020089
v -0.645316 0.767717 0.021599
v -0.645316 0.767717 0.037066
v -0.645316 0.767717 0.038083
v -0.645316 0.767717 0.042607
v -0.645316 0.767790 0.043579
v -0.645316 0.762084 0.044390
v -0.645316 0.752073 0.044390
v -0.645316 0.761977 0.045297
v -0.645316 0.761854 -0.013655
v -0.645316 0.761854 -0.002804
v -0.645316 0.762701 -0.013655
v -0.645316 0.758643 -0.002804
v -0.645316 0.758643 -0.007764
v -0.645316 0.757604 -0.007764
v -0.645316 0.757604 -0.001766
v -0.645316 0.753958 0.021599
v -0.645316 0.752073 0.042611
v -0.645316 0.751224 0.042611
v -0.645316 0.751224 0.045297
v -0.645316 0.777011 0.045334
v -0.671103 0.751224 0.045334
v -0.671103 0.777011 0.045334
v -0.645316 0.777011 0.045334
v -0.671103 0.777011 0.045334
v -0.671103 0.751224 0.045334
v -0.670253 0.751224 0.037368
v -0.673123 0.751224 0.038217
v -0.673821 0.751224 0.037368
v -0.671103 0.751224 0.038217
v -0.671103 0.751224 0.045334
v -0.670253 0.751224 0.042729
v -0.667781 0.751224 0.045334
v -0.662702 0.751224 0.042729
v -0.663905 0.751224 0.043579
v -0.661882 0.751224 0.043579
v -0.673821 0.751224 0.023115
v -0.674659 0.751224 0.044573
v -0.674659 0.751224 0.023115
v -0.673123 0.751224 0.044573
v -0.655946 0.751224 -0.013655
v -0.656793 0.751224 -0.002615
v -0.656793 0.751224 -0.013655
v -0.651696 0.751224 -0.007764
v -0.652735 0.751224 -0.002804
v -0.652735 0.751224 -0.007764
v -0.662702 0.751224 -0.002615
v -0.661809 0.751224 -0.001766
v -0.651696 0.751224 -0.001766
v -0.655946 0.751224 -0.002804
v -0.645316 0.751224 0.042611
v -0.646165 0.751224 0.044390
v -0.646165 0.751224 0.042611
v -0.661809 0.751224 0.042607
v -0.656069 0.751224 0.045297
v -0.656176 0.751224 0.044390
v -0.645316 0.751224 0.045297
v -0.645316 0.751224 0.042611
v -0.646165 0.751224 0.044390
v -0.645316 0.751224 0.045297
v -0.656069 0.751224 0.045297
v -0.656176 0.751224 0.044390
v -0.661809 0.751224 0.042607
v -0.661809 0.751224 -0.001766
v -0.661882 0.751224 0.043579
v -0.646165 0.751224 0.042611
v -0.651696 0.751224 -0.007764
v -0.652735 0.751224 -0.002804
v -0.651696 0.751224 -0.001766
v -0.655946 0.751224 -0.002804
v -0.655946 0.751224 -0.013655
v -0.656793 0.751224 -0.002615
v -0.662702 0.751224 0.042729
v -0.662702 0.751224 -0.002615
v -0.652735 0.751224 -0.007764
v -0.656793 0.751224 -0.013655
v -0.673123 0.751224 0.038217
v -0.673821 0.751224 0.037368
v -0.673123 0.751224 0.044573
v -0.674659 0.751224 0.044573
v -0.673821 0.751224 0.023115
v -0.674659 0.751224 0.023115
v -0.663905 0.751224 0.043579
v -0.667781 0.751224 0.045334
v -0.670253 0.751224 0.042729
v -0.671103 0.751224 0.045334
v -0.670253 0.751224 0.037368
v -0.671103 0.751224 0.038217
v -0.656069 0.761977 0.045297
v -0.645316 0.761977 0.045297
v -0.656069 0.761977 0.045297
v -0.645316 0.761977 0.045297
v -0.656069 0.751224 0.045297
v -0.656069 0.751224 0.045297
v -0.645316 0.767717 -0.001766
v -0.661809 0.767717 0.020089
v -0.661809 0.767717 -0.001766
v -0.645316 0.767717 0.020089
v -0.645316 0.767717 0.020089
v -0.645316 0.767717 -0.001766
v -0.661809 0.767717 0.020089
v -0.661809 0.767717 -0.001766
v -0.645316 0.767717 -0.001766
v -0.651696 0.757604 -0.001766
v -0.645316 0.757604 -0.001766
v -0.661809 0.751224 -0.001766
v -0.651696 0.751224 -0.001766
v -0.661809 0.767717 -0.001766
v -0.645316 0.767717 -0.001766
v -0.651696 0.757604 -0.001766
v -0.661809 0.767717 -0.001766
v -0.661809 0.751224 -0.001766
v -0.651696 0.751224 -0.001766
v -0.645316 0.757604 -0.001766
v -0.645316 0.757604 -0.007764
v -0.651696 0.757604 -0.001766
v -0.651696 0.757604 -0.007764
v -0.645316 0.757604 -0.001766
v -0.645316 0.757604 -0.001766
v -0.645316 0.757604 -0.007764
v -0.651696 0.757604 -0.001766
v -0.651696 0.757604 -0.007764
v -0.652735 0.758643 -0.007764
v -0.651696 0.751224 -0.007764
v -0.652735 0.751224 -0.007764
v -0.651696 0.757604 -0.007764
v -0.645316 0.757604 -0.007764
v -0.645316 0.758643 -0.007764
v -0.645316 0.758643 -0.007764
v -0.652735 0.758643 -0.007764
v -0.645316 0.757604 -0.007764
v -0.651696 0.757604 -0.007764
v -0.651696 0.751224 -0.007764
v -0.652735 0.751224 -0.007764
v -0.645316 0.758643 -0.002804
v -0.652735 0.758643 -0.007764
v -0.652735 0.758643 -0.002804
v -0.645316 0.758643 -0.007764
v -0.645316 0.758643 -0.007764
v -0.645316 0.758643 -0.002804
v -0.652735 0.758643 -0.007764
v -0.652735 0.758643 -0.002804
v -0.655946 0.751224 -0.002804
v -0.652735 0.758643 -0.002804
v -0.652735 0.751224 -0.002804
v -0.655946 0.761854 -0.002804
v -0.645316 0.758643 -0.002804
v -0.645316 0.761854 -0.002804
v -0.645316 0.761854 -0.002804
v -0.655946 0.761854 -0.002804
v -0.645316 0.758643 -0.002804
v -0.652735 0.758643 -0.002804
v -0.655946 0.751224 -0.002804
v -0.652735 0.751224 -0.002804
v -0.645316 0.761854 -0.013655
v -0.655946 0.761854 -0.002804
v -0.655946 0.761854 -0.013655
v -0.645316 0.761854 -0.002804
v -0.645316 0.761854 -0.002804
v -0.645316 0.761854 -0.013655
v -0.655946 0.761854 -0.002804
v -0.655946 0.761854 -0.013655
v -0.656793 0.762701 -0.013655
v -0.655946 0.751224 -0.013655
v -0.656793 0.751224 -0.013655
v -0.655946 0.761854 -0.013655
v -0.645316 0.761854 -0.013655
v -0.645316 0.762701 -0.013655
v -0.645316 0.762701 -0.013655
v -0.656793 0.762701 -0.013655
v -0.645316 0.761854 -0.013655
v -0.655946 0.761854 -0.013655
v -0.655946 0.751224 -0.013655
v -0.656793 0.751224 -0.013655
v -0.645316 0.762701 -0.002615
v -0.656793 0.762701 -0.013655
v -0.656793 0.762701 -0.002615
v -0.645316 0.762701 -0.013655
v -0.645316 0.762701 -0.013655
v -0.645316 0.762701 -0.002615
v -0.656793 0.762701 -0.013655
v -0.656793 0.762701 -0.002615
v -0.662702 0.751224 -0.002615
v -0.656793 0.762701 -0.002615
v -0.656793 0.751224 -0.002615
v -0.662702 0.768610 -0.002615
v -0.645316 0.762701 -0.002615
v -0.645316 0.768610 -0.002615
v -0.645316 0.768610 -0.002615
v -0.662702 0.768610 -0.002615
v -0.645316 0.762701 -0.002615
v -0.656793 0.762701 -0.002615
v -0.662702 0.751224 -0.002615
v -0.656793 0.751224 -0.002615
v -0.645316 0.768610 0.042729
v -0.662702 0.768610 -0.002615
v -0.662702 0.768610 0.042729
v -0.645316 0.768610 -0.002615
v -0.645316 0.768610 -0.002615
v -0.645316 0.768610 0.042729
v -0.662702 0.768610 -0.002615
v -0.662702 0.768610 0.042729
v -0.670253 0.751224 0.042729
v -0.662702 0.768610 0.042729
v -0.662702 0.751224 0.042729
v -0.670253 0.776161 0.042729
v -0.645316 0.768610 0.042729
v -0.645316 0.776161 0.042729
v -0.645316 0.776161 0.042729
v -0.670253 0.776161 0.042729
v -0.645316 0.768610 0.042729
v -0.662702 0.768610 0.042729
v -0.670253 0.751224 0.042729
v -0.662702 0.751224 0.042729
v -0.645316 0.776161 0.037368
v -0.670253 0.776161 0.042729
v -0.670253 0.776161 0.037368
v -0.645316 0.776161 0.042729
v -0.645316 0.776161 0.042729
v -0.645316 0.776161 0.037368
v -0.670253 0.776161 0.042729
v -0.670253 0.776161 0.037368
v -0.673821 0.779729 0.037368
v -0.670253 0.751224 0.037368
v -0.673821 0.751224 0.037368
v -0.670253 0.776161 0.037368
v -0.645316 0.776161 0.037368
v -0.645316 0.779729 0.037368
v -0.645316 0.779729 0.037368
v -0.673821 0.779729 0.037368
v -0.645316 0.776161 0.037368
v -0.670253 0.776161 0.037368
v -0.670253 0.751224 0.037368
v -0.673821 0.751224 0.037368
v -0.645316 0.779729 0.023115
v -0.673821 0.779729 0.037368
v -0.673821 0.779729 0.023115
v -0.645316 0.779729 0.037368
v -0.645316 0.779729 0.037368
v -0.645316 0.779729 0.023115
v -0.673821 0.779729 0.037368
v -0.673821 0.779729 0.023115
v -0.674659 0.780567 0.023115
v -0.673821 0.751224 0.023115
v -0.674659 0.751224 0.023115
v -0.673821 0.779729 0.023115
v -0.645316 0.779729 0.023115
v -0.645316 0.780567 0.023115
v -0.645316 0.780567 0.023115
v -0.674659 0.780567 0.023115
v -0.645316 0.779729 0.023115
v -0.673821 0.779729 0.023115
v -0.673821 0.751224 0.023115
v -0.674659 0.751224 0.023115
v -0.645316 0.780567 0.044573
v -0.674659 0.780567 0.023115
v -0.674659 0.780567 0.044573
v -0.645316 0.780567 0.023115
v -0.645316 0.780567 0.023115
v -0.645316 0.780567 0.044573
v -0.674659 0.780567 0.023115
v -0.674659 0.780567 0.044573
v -0.645316 0.780567 0.044573
v -0.673123 0.779031 0.044573
v -0.645316 0.779031 0.044573
v -0.674659 0.751224 0.044573
v -0.673123 0.751224 0.044573
v -0.674659 0.780567 0.044573
v -0.645316 0.780567 0.044573
v -0.673123 0.779031 0.044573
v -0.674659 0.780567 0.044573
v -0.674659 0.751224 0.044573
v -0.673123 0.751224 0.044573
v -0.645316 0.779031 0.044573
v -0.645316 0.779031 0.038217
v -0.673123 0.779031 0.044573
v -0.673123 0.779031 0.038217
v -0.645316 0.779031 0.044573
v -0.645316 0.779031 0.044573
v -0.645316 0.779031 0.038217
v -0.673123 0.779031 0.044573
v -0.673123 0.779031 0.038217
v -0.645316 0.779031 0.038217
v -0.671103 0.777011 0.038217
v -0.645316 0.777011 0.038217
v -0.673123 0.751224 0.038217
v -0.671103 0.751224 0.038217
v -0.673123 0.779031 0.038217
v -0.645316 0.779031 0.038217
v -0.671103 0.777011 0.038217
v -0.673123 0.779031 0.038217
v -0.673123 0.751224 0.038217
v -0.671103 0.751224 0.038217
v -0.645316 0.777011 0.038217
v -0.645316 0.777011 0.045334
v -0.671103 0.777011 0.038217
v -0.671103 0.777011 0.045334
v -0.645316 0.777011 0.038217
v -0.645316 0.777011 0.038217
v -0.645316 0.777011 0.045334
v -0.671103 0.777011 0.038217
v -0.671103 0.777011 0.045334
v -0.645316 0.751224 0.045297
v -0.645316 0.751224 0.045297
v -0.646165 0.752073 0.042611
v -0.645316 0.751224 0.042611
v -0.646165 0.751224 0.042611
v -0.645316 0.752073 0.042611
v -0.645316 0.752073 0.042611
v -0.646165 0.752073 0.042611
v -0.645316 0.751224 0.042611
v -0.646165 0.751224 0.042611
v -0.645316 0.752073 0.044390
v -0.646165 0.752073 0.042611
v -0.646165 0.752073 0.044390
v -0.645316 0.752073 0.042611
v -0.645316 0.752073 0.042611
v -0.645316 0.752073 0.044390
v -0.646165 0.752073 0.042611
v -0.646165 0.752073 0.044390
v -0.656176 0.751224 0.044390
v -0.646165 0.752073 0.044390
v -0.646165 0.751224 0.044390
v -0.656176 0.762084 0.044390
v -0.645316 0.752073 0.044390
v -0.645316 0.762084 0.044390
v -0.645316 0.762084 0.044390
v -0.656176 0.762084 0.044390
v -0.645316 0.752073 0.044390
v -0.646165 0.752073 0.044390
v -0.656176 0.751224 0.044390
v -0.646165 0.751224 0.044390
v -0.661809 0.767717 0.042607
v -0.645316 0.767717 0.042607
v -0.645316 0.767717 0.042607
v -0.661809 0.767717 0.042607
v -0.645316 0.767717 0.021599
v -0.654378 0.767717 0.035933
v -0.661809 0.767717 0.021599
v -0.653623 0.767717 0.035933
v -0.653623 0.767717 0.037066
v -0.645316 0.767717 0.037066
v -0.661809 0.767717 0.042607
v -0.654378 0.767717 0.037830
v -0.645316 0.767717 0.042607
v -0.645665 0.767717 0.037830
v -0.645316 0.767717 0.038083
v -0.645316 0.767717 0.038083
v -0.645665 0.767717 0.037830
v -0.645316 0.767717 0.042607
v -0.654378 0.767717 0.037830
v -0.654378 0.767717 0.035933
v -0.661809 0.767717 0.021599
v -0.661809 0.767717 0.042607
v -0.645316 0.767717 0.037066
v -0.645316 0.767717 0.021599
v -0.653623 0.767717 0.037066
v -0.653623 0.767717 0.035933
v -0.645316 0.767717 0.021599
v -0.661809 0.753958 0.021599
v -0.645316 0.753958 0.021599
v -0.661809 0.767717 0.021599
v -0.661809 0.767717 0.021599
v -0.645316 0.767717 0.021599
v -0.661809 0.753958 0.021599
v -0.645316 0.753958 0.021599
v -0.645316 0.753958 0.020089
v -0.661809 0.753958 0.021599
v -0.661809 0.753958 0.020089
v -0.645316 0.753958 0.021599
v -0.645316 0.753958 0.021599
v -0.645316 0.753958 0.020089
v -0.661809 0.753958 0.021599
v -0.661809 0.753958 0.020089
v -0.661809 0.767717 0.020089
v -0.645316 0.753958 0.020089
v -0.661809 0.753958 0.020089
v -0.645316 0.767717 0.020089
v -0.645316 0.767717 0.020089
v -0.661809 0.767717 0.020089
v -0.645316 0.753958 0.020089
v -0.661809 0.753958 0.020089
v -0.671103 0.777011 0.038217
v -0.671103 0.751224 0.045334
v -0.671103 0.777011 0.045334
v -0.671103 0.751224 0.038217
v -0.671103 0.751224 0.038217
v -0.671103 0.777011 0.038217
v -0.671103 0.751224 0.045334
v -0.671103 0.777011 0.045334
v -0.674659 0.780567 0.023115
v -0.674659 0.751224 0.044573
v -0.674659 0.780567 0.044573
v -0.674659 0.751224 0.023115
v -0.674659 0.751224 0.023115
v -0.674659 0.780567 0.023115
v -0.674659 0.751224 0.044573
v -0.674659 0.780567 0.044573
v -0.673821 0.751224 0.023115
v -0.673821 0.779729 0.037368
v -0.673821 0.751224 0.037368
v -0.673821 0.779729 0.023115
v -0.673821 0.779729 0.023115
v -0.673821 0.751224 0.023115
v -0.673821 0.779729 0.037368
v -0.673821 0.751224 0.037368
v -0.670253 0.751224 0.037368
v -0.670253 0.776161 0.042729
v -0.670253 0.751224 0.042729
v -0.670253 0.776161 0.037368
v -0.670253 0.776161 0.037368
v -0.670253 0.751224 0.037368
v -0.670253 0.776161 0.042729
v -0.670253 0.751224 0.042729
v -0.662702 0.768610 -0.002615
v -0.662702 0.751224 0.042729
v -0.662702 0.768610 0.042729
v -0.662702 0.751224 -0.002615
v -0.662702 0.751224 -0.002615
v -0.662702 0.768610 -0.002615
v -0.662702 0.751224 0.042729
v -0.662702 0.768610 0.042729
v -0.656793 0.762701 -0.013655
v -0.656793 0.751224 -0.002615
v -0.656793 0.762701 -0.002615
v -0.656793 0.751224 -0.013655
v -0.656793 0.751224 -0.013655
v -0.656793 0.762701 -0.013655
v -0.656793 0.751224 -0.002615
v -0.656793 0.762701 -0.002615
v -0.655946 0.751224 -0.013655
v -0.655946 0.761854 -0.002804
v -0.655946 0.751224 -0.002804
v -0.655946 0.761854 -0.013655
v -0.655946 0.761854 -0.013655
v -0.655946 0.751224 -0.013655
v -0.655946 0.761854 -0.002804
v -0.655946 0.751224 -0.002804
v -0.652735 0.758643 -0.007764
v -0.652735 0.751224 -0.002804
v -0.652735 0.758643 -0.002804
v -0.652735 0.751224 -0.007764
v -0.652735 0.751224 -0.007764
v -0.652735 0.758643 -0.007764
v -0.652735 0.751224 -0.002804
v -0.652735 0.758643 -0.002804
v -0.651696 0.751224 -0.007764
v -0.651696 0.757604 -0.001766
v -0.651696 0.751224 -0.001766
v -0.651696 0.757604 -0.007764
v -0.651696 0.757604 -0.007764
v -0.651696 0.751224 -0.007764
v -0.651696 0.757604 -0.001766
v -0.651696 0.751224 -0.001766
v -0.661809 0.751224 0.042607
v -0.661809 0.753958 0.021599
v -0.661809 0.767717 0.042607
v -0.661809 0.751224 -0.001766
v -0.661809 0.753958 0.020089
v -0.661809 0.767717 0.020089
v -0.661809 0.767717 -0.001766
v -0.661809 0.767717 0.021599
v -0.661809 0.753958 0.021599
v -0.661809 0.767717 0.042607
v -0.661809 0.767717 0.021599
v -0.661809 0.767717 -0.001766
v -0.661809 0.751224 -0.001766
v -0.661809 0.767717 0.020089
v -0.661809 0.753958 0.020089
v -0.661809 0.751224 0.042607
v -0.661809 0.751224 0.042607
v -0.661809 0.751224 0.042607
v -0.646165 0.752073 0.042611
v -0.646165 0.751224 0.044390
v -0.646165 0.752073 0.044390
v -0.646165 0.751224 0.042611
v -0.646165 0.751224 0.042611
v -0.646165 0.752073 0.042611
v -0.646165 0.751224 0.044390
v -0.646165 0.752073 0.044390
v -0.673123 0.751224 0.038217
v -0.673123 0.779031 0.044573
v -0.673123 0.751224 0.044573
v -0.673123 0.779031 0.038217
v -0.673123 0.779031 0.038217
v -0.673123 0.751224 0.038217
v -0.673123 0.779031 0.044573
v -0.673123 0.751224 0.044573
vn 0 -0.2110490920106251 0.9774754629971489
vn 0.16059830182321874 -0.16059830182321896 0.9738667110559827
vn 0.05494918084233401 -0.05494918084233423 0.9969760152829721
vn -0.05494918084233401 0.05494918084233423 -0.9969760152829721
vn 0 0.2110490920106251 -0.9774754629971489
vn -0.16059830182321874 0.16059830182321896 -0.9738667110559827
vn 0.21104909201062488 0 0.9774754629971489
vn -0.21104909201062488 0 -0.9774754629971489
vn -0.036467491336853765 0.03646749133685354 0.9986692366099965
vn 0 0.14319869417770642 0.9896939597601876
vn -0.14319869417770664 0 0.9896939597601876
vn 0.036467491336853765 -0.03646749133685354 -0.9986692366099965
vn 0.14319869417770664 0 -0.9896939597601876
vn 0 -0.14319869417770642 -0.9896939597601876
vn 1 0 0
vn -1 0 0
vn 0 0 1
vn 0 0 -1
vn 0 -1 0
vn 0 1 0
vn -0.10812569791008869 0.10812569791008847 0.988239680898775
vn 0.10812569791008869 -0.10812569791008847 -0.988239680898775
vn 0.15274560635348342 0 -0.9882655411070986
vn 0.11544049881369016 -0.11544049881368994 -0.9865834898614981
vn 0 -0.1527456063534832 -0.9882655411070986
vn 0 0.1527456063534832 0.9882655411070986
vn -0.11544049881369016 0.11544049881368994 0.9865834898614981
vn -0.15274560635348342 0 0.9882655411070986
vn 0.15451520479375086 -0.15451520479375064 -0.9758330302746933
vn 0 -0.30190651152550757 -0.9533375363943764
vn 0 0.30190651152550757 0.9533375363943764
vn -0.15451520479375086 0.15451520479375064 0.9758330302746933
vn 0.3019065115255078 0 -0.9533375363943762
vn -0.3019065115255078 0 0.9533375363943762
usemtl material_0_0
f 1//1 2//2 3//1
f 2//2 1//1 4//3
f 5//4 6//5 7//6
f 8//5 7//6 6//5
f 2//2 9//7 10//7
f 9//7 2//2 4//3
f 5//4 7//6 11//8
f 12//8 11//8 7//6
f 3//1 13//9 14//10
f 13//9 10//7 15//11
f 10//7 13//9 2//2
f 2//2 13//9 3//1
f 8//5 16//12 7//6
f 7//6 16//12 12//8
f 17//13 12//8 16//12
f 18//14 16//12 8//5
f 19//15 20//15 21//15
f 20//15 19//15 22//15
f 20//15 22//15 23//15
f 24//15 25//15 26//15
f 27//15 28//15 29//15
f 28//15 27//15 30//15
f 29//15 28//15 31//15
f 28//15 30//15 32//15
f 31//15 33//15 34//15
f 33//15 31//15 28//15
f 34//15 33//15 35//15
f 21//15 36//15 37//15
f 36//15 21//15 20//15
f 37//15 36//15 38//15
f 37//15 38//15 39//15
f 39//15 38//15 40//15
f 40//15 38//15 41//15
f 41//15 38//15 42//15
f 41//15 42//15 43//15
f 41//15 43//15 25//15
f 41//15 25//15 44//15
f 44//15 25//15 24//15
f 41//15 44//15 29//15
f 41//15 29//15 31//15
f 39//15 45//15 46//15
f 45//15 39//15 47//15
f 45//15 47//15 48//15
f 47//15 39//15 40//15
f 48//15 47//15 49//15
f 48//15 49//15 50//15
f 50//15 51//15 52//15
f 51//15 50//15 53//15
f 51//15 53//15 54//15
f 53//15 50//15 49//15
f 54//15 53//15 55//15
f 56//16 57//16 58//16
f 59//16 60//16 57//16
f 58//16 57//16 61//16
f 57//16 60//16 61//16
f 62//16 61//16 60//16
f 60//16 59//16 63//16
f 59//16 64//16 63//16
f 65//16 66//16 64//16
f 63//16 64//16 67//16
f 64//16 66//16 67//16
f 68//16 67//16 66//16
f 69//16 70//16 71//16
f 70//16 72//16 71//16
f 73//16 74//16 72//16
f 72//16 74//16 71//16
f 74//16 75//16 71//16
f 75//16 76//16 71//16
f 76//16 77//16 71//16
f 71//16 77//16 65//16
f 65//16 77//16 66//16
f 66//16 77//16 78//16
f 77//16 79//16 78//16
f 80//16 81//16 79//16
f 78//16 79//16 81//16
f 82//16 83//16 84//16
f 85//16 69//16 83//16
f 84//16 83//16 69//16
f 86//16 87//16 85//16
f 69//16 85//16 70//16
f 87//16 88//16 85//16
f 70//16 85//16 88//16
f 89//16 74//16 73//16
f 90//16 91//16 80//16
f 91//16 92//16 80//16
f 81//16 80//16 92//16
f 93//17 4//3 1//1
f 4//3 94//17 9//7
f 94//17 4//3 95//17
f 95//17 4//3 93//17
f 96//18 5//4 97//18
f 97//18 5//4 98//18
f 11//8 98//18 5//4
f 6//5 5//4 96//18
f 99//19 100//19 101//19
f 100//19 99//19 102//19
f 102//19 99//19 103//19
f 103//19 99//19 104//19
f 103//19 104//19 105//19
f 105//19 104//19 106//19
f 105//19 106//19 107//19
f 107//19 106//19 108//19
f 109//19 110//19 111//19
f 110//19 109//19 101//19
f 110//19 101//19 112//19
f 112//19 101//19 100//19
f 113//19 114//19 115//19
f 116//19 117//19 118//19
f 119//19 120//19 106//19
f 120//19 119//19 114//19
f 106//19 120//19 108//19
f 120//19 114//19 121//19
f 121//19 114//19 122//19
f 122//19 114//19 113//19
f 121//19 122//19 117//19
f 121//19 117//19 116//19
f 123//19 124//19 125//19
f 108//19 126//19 127//19
f 126//19 108//19 120//19
f 127//19 126//19 128//19
f 127//19 128//19 124//19
f 127//19 124//19 129//19
f 129//19 124//19 123//19
f 130//20 131//20 132//20
f 132//20 131//20 133//20
f 131//20 134//20 133//20
f 134//20 135//20 133//20
f 136//20 137//20 135//20
f 133//20 135//20 137//20
f 138//20 131//20 130//20
f 139//20 140//20 141//20
f 140//20 142//20 141//20
f 143//20 144//20 142//20
f 142//20 144//20 141//20
f 141//20 144//20 136//20
f 137//20 136//20 145//20
f 144//20 146//20 136//20
f 145//20 136//20 146//20
f 147//20 140//20 139//20
f 148//20 144//20 143//20
f 149//20 150//20 151//20
f 151//20 150//20 152//20
f 150//20 153//20 152//20
f 154//20 152//20 153//20
f 137//20 145//20 155//20
f 155//20 145//20 156//20
f 145//20 157//20 156//20
f 156//20 157//20 158//20
f 157//20 159//20 158//20
f 158//20 159//20 160//20
f 160//20 159//20 149//20
f 150//20 149//20 159//20
f 14//10 161//21 162//10
f 161//21 14//10 13//9
f 16//12 18//14 163//22
f 164//14 163//22 18//14
f 161//21 15//11 165//11
f 15//11 161//21 13//9
f 16//12 163//22 17//13
f 166//13 17//13 163//22
f 167//19 168//19 169//19
f 168//19 167//19 170//19
f 171//20 172//20 173//20
f 174//20 173//20 172//20
f 175//17 176//17 177//17
f 176//17 178//17 179//17
f 178//17 176//17 180//17
f 180//17 176//17 175//17
f 181//18 182//18 183//18
f 183//18 182//18 184//18
f 185//18 184//18 182//18
f 186//18 182//18 181//18
f 187//19 188//19 189//19
f 188//19 187//19 190//19
f 191//20 192//20 193//20
f 194//20 193//20 192//20
f 195//18 196//18 197//18
f 196//18 195//18 198//18
f 198//18 195//18 199//18
f 199//18 195//18 200//18
f 201//17 202//17 203//17
f 203//17 202//17 204//17
f 204//17 202//17 205//17
f 206//17 205//17 202//17
f 207//20 208//20 209//20
f 208//20 207//20 210//20
f 211//19 212//19 213//19
f 214//19 213//19 212//19
f 215//18 216//18 217//18
f 216//18 215//18 218//18
f 216//18 218//18 219//18
f 219//18 218//18 220//18
f 221//17 222//17 223//17
f 223//17 222//17 224//17
f 222//17 225//17 224//17
f 226//17 224//17 225//17
f 227//19 228//19 229//19
f 228//19 227//19 230//19
f 231//20 232//20 233//20
f 234//20 233//20 232//20
f 235//18 236//18 237//18
f 236//18 235//18 238//18
f 238//18 235//18 239//18
f 239//18 235//18 240//18
f 241//17 242//17 243//17
f 243//17 242//17 244//17
f 244//17 242//17 245//17
f 246//17 245//17 242//17
f 247//20 248//20 249//20
f 248//20 247//20 250//20
f 251//19 252//19 253//19
f 254//19 253//19 252//19
f 255//18 256//18 257//18
f 256//18 255//18 258//18
f 256//18 258//18 259//18
f 259//18 258//18 260//18
f 261//17 262//17 263//17
f 263//17 262//17 264//17
f 262//17 265//17 264//17
f 266//17 264//17 265//17
f 267//20 268//20 269//20
f 268//20 267//20 270//20
f 271//19 272//19 273//19
f 274//19 273//19 272//19
f 275//18 276//18 277//18
f 276//18 275//18 278//18
f 276//18 278//18 279//18
f 279//18 278//18 280//18
f 281//17 282//17 283//17
f 283//17 282//17 284//17
f 282//17 285//17 284//17
f 286//17 284//17 285//17
f 287//19 288//19 289//19
f 288//19 287//19 290//19
f 291//20 292//20 293//20
f 294//20 293//20 292//20
f 295//18 296//18 297//18
f 296//18 295//18 298//18
f 298//18 295//18 299//18
f 299//18 295//18 300//18
f 301//17 302//17 303//17
f 303//17 302//17 304//17
f 304//17 302//17 305//17
f 306//17 305//17 302//17
f 307//19 308//19 309//19
f 308//19 307//19 310//19
f 311//20 312//20 313//20
f 314//20 313//20 312//20
f 315//18 316//18 317//18
f 316//18 315//18 318//18
f 318//18 315//18 319//18
f 319//18 315//18 320//18
f 321//17 322//17 323//17
f 323//17 322//17 324//17
f 324//17 322//17 325//17
f 326//17 325//17 322//17
f 327//20 328//20 329//20
f 328//20 327//20 330//20
f 331//19 332//19 333//19
f 334//19 333//19 332//19
f 335//17 336//17 337//17
f 336//17 338//17 339//17
f 338//17 336//17 340//17
f 340//17 336//17 335//17
f 341//18 342//18 343//18
f 343//18 342//18 344//18
f 345//18 344//18 342//18
f 346//18 342//18 341//18
f 347//19 348//19 349//19
f 348//19 347//19 350//19
f 351//20 352//20 353//20
f 354//20 353//20 352//20
f 355//17 356//17 357//17
f 356//17 358//17 359//17
f 358//17 356//17 360//17
f 360//17 356//17 355//17
f 361//18 362//18 363//18
f 363//18 362//18 364//18
f 365//18 364//18 362//18
f 366//18 362//18 361//18
f 367//20 368//20 369//20
f 368//20 367//20 370//20
f 371//19 372//19 373//19
f 374//19 373//19 372//19
f 162//10 165//11 375//17
f 165//11 162//10 161//21
f 163//22 164//14 166//13
f 376//18 166//13 164//14
f 377//18 378//18 379//18
f 378//18 377//18 380//18
f 381//17 382//17 383//17
f 384//17 383//17 382//17
f 385//20 386//20 387//20
f 386//20 385//20 388//20
f 389//19 390//19 391//19
f 392//19 391//19 390//19
f 393//23 394//18 395//18
f 394//18 393//23 396//24
f 394//18 396//24 397//18
f 397//18 396//24 398//25
f 399//26 400//27 401//17
f 401//17 400//27 402//17
f 400//27 403//28 402//17
f 404//17 402//17 403//28
f 405//29 398//25 396//24
f 398//25 405//29 406//30
f 407//31 408//32 399//26
f 400//27 399//26 408//32
f 409//19 410//19 411//19
f 410//19 409//19 412//19
f 412//19 409//19 413//19
f 413//19 409//19 414//19
f 415//19 416//19 417//19
f 416//19 415//19 411//19
f 416//19 411//19 410//19
f 417//19 416//19 418//19
f 417//19 418//19 419//19
f 420//20 421//20 422//20
f 421//20 423//20 422//20
f 424//20 425//20 423//20
f 425//20 426//20 423//20
f 422//20 423//20 426//20
f 427//20 428//20 429//20
f 429//20 428//20 430//20
f 430//20 428//20 424//20
f 425//20 424//20 428//20
f 431//17 432//17 433//17
f 432//17 431//17 434//17
f 435//18 436//18 437//18
f 438//18 437//18 436//18
f 439//19 440//19 441//19
f 440//19 439//19 442//19
f 443//20 444//20 445//20
f 446//20 445//20 444//20
f 447//18 448//18 449//18
f 448//18 447//18 450//18
f 451//17 452//17 453//17
f 454//17 453//17 452//17
f 455//16 456//16 457//16
f 456//16 455//16 458//16
f 459//15 460//15 461//15
f 462//15 461//15 460//15
f 463//16 464//16 465//16
f 464//16 463//16 466//16
f 467//15 468//15 469//15
f 470//15 469//15 468//15
f 471//15 472//15 473//15
f 472//15 471//15 474//15
f 475//16 476//16 477//16
f 478//16 477//16 476//16
f 479//15 480//15 481//15
f 480//15 479//15 482//15
f 483//16 484//16 485//16
f 486//16 485//16 484//16
f 487//16 488//16 489//16
f 488//16 487//16 490//16
f 491//15 492//15 493//15
f 494//15 493//15 492//15
f 495//16 496//16 497//16
f 496//16 495//16 498//16
f 499//15 500//15 501//15
f 502//15 501//15 500//15
f 503//15 504//15 505//15
f 504//15 503//15 506//15
f 507//16 508//16 509//16
f 510//16 509//16 508//16
f 511//16 512//16 513//16
f 512//16 511//16 514//16
f 515//15 516//15 517//15
f 518//15 517//15 516//15
f 519//15 520//15 521//15
f 520//15 519//15 522//15
f 523//16 524//16 525//16
f 526//16 525//16 524//16
f 527//15 528//15 529//15
f 528//15 527//15 530//15
f 528//15 530//15 531//15
f 531//15 530//15 532//15
f 532//15 530//15 533//15
f 534//15 529//15 528//15
f 535//16 536//16 537//16
f 538//16 539//16 540//16
f 540//16 539//16 541//16
f 541//16 539//16 535//16
f 539//16 542//16 535//16
f 536//16 535//16 542//16
f 405//29 393//23 543//33
f 393//23 405//29 396//24
f 400//27 408//32 403//28
f 544//34 403//28 408//32
f 545//16 546//16 547//16
f 546//16 545//16 548//16
f 549//15 550//15 551//15
f 552//15 551//15 550//15
f 553//15 554//15 555//15
f 554//15 553//15 556//15
f 557//16 558//16 559//16
f 560//16 559//16 558//16
