# SSTK version 0.8.0
# 19
mtllib original-19.mtl
o instance_18/blwframe_2/ID131#ID131
v -0.651224 -0.739067 -0.035145
v -0.656888 -0.740116 -0.035145
v -0.651224 -0.740116 -0.035145
v -0.656888 -0.739067 -0.035145
v -0.656888 -0.739067 -0.035145
v -0.651224 -0.739067 -0.035145
v -0.656888 -0.740116 -0.035145
v -0.651224 -0.740116 -0.035145
v -0.656888 -0.757965 -0.002842
v -0.656888 -0.750122 -0.003871
v -0.656888 -0.739067 -0.002842
v -0.656888 -0.755984 -0.009732
v -0.656888 -0.757965 -0.011724
v -0.656888 -0.747980 -0.003871
v -0.656888 -0.755984 -0.011724
v -0.656888 -0.743984 -0.014965
v -0.656888 -0.740116 -0.014965
v -0.656888 -0.743984 -0.007075
v -0.656888 -0.739067 -0.035145
v -0.656888 -0.740116 -0.035145
v -0.656888 -0.740116 -0.035145
v -0.656888 -0.740116 -0.014965
v -0.656888 -0.739067 -0.035145
v -0.656888 -0.747980 -0.003871
v -0.656888 -0.739067 -0.002842
v -0.656888 -0.743984 -0.007075
v -0.656888 -0.743984 -0.014965
v -0.656888 -0.755984 -0.011724
v -0.656888 -0.757965 -0.011724
v -0.656888 -0.755984 -0.009732
v -0.656888 -0.750122 -0.003871
v -0.656888 -0.757965 -0.002842
v -0.651224 -0.740116 -0.014965
v -0.656888 -0.740116 -0.035145
v -0.656888 -0.740116 -0.014965
v -0.651224 -0.740116 -0.035145
v -0.651224 -0.740116 -0.035145
v -0.651224 -0.740116 -0.014965
v -0.656888 -0.740116 -0.035145
v -0.656888 -0.740116 -0.014965
v -0.651224 -0.755984 -0.009732
v -0.651224 -0.747980 -0.003871
v -0.651224 -0.750122 -0.003871
v -0.651224 -0.743984 -0.007075
v -0.651224 -0.743984 -0.014965
v -0.651224 -0.755984 -0.011724
v -0.651224 -0.757965 -0.060463
v -0.651224 -0.757965 -0.011724
v -0.651224 -0.740116 -0.014965
v -0.651224 -0.750297 -0.046789
v -0.651224 -0.740116 -0.035145
v -0.651224 -0.739067 -0.035145
v -0.651224 -0.750297 -0.050678
v -0.651224 -0.739067 -0.050678
v -0.651224 -0.753246 -0.060463
v -0.651224 -0.739067 -0.065363
v -0.651224 -0.753246 -0.065363
v -0.651224 -0.739067 -0.046789
v -0.651224 -0.750297 -0.046789
v -0.651224 -0.739067 -0.035145
v -0.651224 -0.739067 -0.046789
v -0.651224 -0.753246 -0.065363
v -0.651224 -0.753246 -0.060463
v -0.651224 -0.739067 -0.065363
v -0.651224 -0.739067 -0.050678
v -0.651224 -0.757965 -0.060463
v -0.651224 -0.750297 -0.050678
v -0.651224 -0.740116 -0.035145
v -0.651224 -0.740116 -0.014965
v -0.651224 -0.743984 -0.014965
v -0.651224 -0.755984 -0.011724
v -0.651224 -0.757965 -0.011724
v -0.651224 -0.755984 -0.009732
v -0.651224 -0.743984 -0.007075
v -0.651224 -0.747980 -0.003871
v -0.651224 -0.750122 -0.003871
v -0.662702 -0.739067 0.030196
v -0.673066 -0.739067 -0.006427
v -0.673066 -0.739067 0.030196
v -0.656888 -0.739067 -0.002842
v -0.658775 -0.739067 -0.046789
v -0.662702 -0.739067 -0.002842
v -0.656888 -0.739067 -0.035145
v -0.651224 -0.739067 -0.046789
v -0.651224 -0.739067 -0.035145
v -0.674822 -0.739067 -0.065363
v -0.658775 -0.739067 -0.050678
v -0.651224 -0.739067 -0.065363
v -0.674822 -0.739067 -0.008182
v -0.651224 -0.739067 -0.050678
v -0.651224 -0.739067 -0.050678
v -0.658775 -0.739067 -0.050678
v -0.651224 -0.739067 -0.065363
v -0.658775 -0.739067 -0.046789
v -0.662702 -0.739067 -0.002842
v -0.662702 -0.739067 0.030196
v -0.673066 -0.739067 -0.006427
v -0.674822 -0.739067 -0.008182
v -0.674822 -0.739067 -0.065363
v -0.651224 -0.739067 -0.035145
v -0.656888 -0.739067 -0.035145
v -0.651224 -0.739067 -0.046789
v -0.656888 -0.739067 -0.002842
v -0.673066 -0.739067 0.030196
v -0.651224 -0.757965 -0.060463
v -0.674822 -0.757965 -0.008182
v -0.674822 -0.757965 -0.060463
v -0.673066 -0.757965 -0.006427
v -0.673066 -0.757965 0.030196
v -0.662702 -0.757965 -0.002842
v -0.656888 -0.757965 -0.011724
v -0.651224 -0.757965 -0.011724
v -0.656888 -0.757965 -0.002842
v -0.662702 -0.757965 0.030196
v -0.662702 -0.757965 -0.002842
v -0.673066 -0.757965 0.030196
v -0.662702 -0.757965 0.030196
v -0.656888 -0.757965 -0.011724
v -0.656888 -0.757965 -0.002842
v -0.651224 -0.757965 -0.011724
v -0.651224 -0.757965 -0.060463
v -0.673066 -0.757965 -0.006427
v -0.674822 -0.757965 -0.008182
v -0.674822 -0.757965 -0.060463
v -0.651224 -0.755984 -0.011724
v -0.656888 -0.757965 -0.011724
v -0.651224 -0.757965 -0.011724
v -0.656888 -0.755984 -0.011724
v -0.656888 -0.755984 -0.011724
v -0.651224 -0.755984 -0.011724
v -0.656888 -0.757965 -0.011724
v -0.651224 -0.757965 -0.011724
v -0.651224 -0.755984 -0.011724
v -0.656888 -0.755984 -0.009732
v -0.656888 -0.755984 -0.011724
v -0.651224 -0.755984 -0.009732
v -0.651224 -0.755984 -0.009732
v -0.651224 -0.755984 -0.011724
v -0.656888 -0.755984 -0.009732
v -0.656888 -0.755984 -0.011724
v -0.656888 -0.750122 -0.003871
v -0.651224 -0.750122 -0.003871
v -0.651224 -0.750122 -0.003871
v -0.656888 -0.750122 -0.003871
v -0.656888 -0.747980 -0.003871
v -0.651224 -0.747980 -0.003871
v -0.651224 -0.747980 -0.003871
v -0.656888 -0.747980 -0.003871
v -0.651224 -0.743984 -0.007075
v -0.656888 -0.743984 -0.007075
v -0.656888 -0.743984 -0.007075
v -0.651224 -0.743984 -0.007075
v -0.651224 -0.743984 -0.007075
v -0.656888 -0.743984 -0.014965
v -0.656888 -0.743984 -0.007075
v -0.651224 -0.743984 -0.014965
v -0.651224 -0.743984 -0.014965
v -0.651224 -0.743984 -0.007075
v -0.656888 -0.743984 -0.014965
v -0.656888 -0.743984 -0.007075
v -0.651224 -0.740116 -0.014965
v -0.656888 -0.743984 -0.014965
v -0.651224 -0.743984 -0.014965
v -0.656888 -0.740116 -0.014965
v -0.656888 -0.740116 -0.014965
v -0.651224 -0.740116 -0.014965
v -0.656888 -0.743984 -0.014965
v -0.651224 -0.743984 -0.014965
v -0.656888 -0.739067 -0.002842
v -0.662702 -0.757965 -0.002842
v -0.656888 -0.757965 -0.002842
v -0.662702 -0.739067 -0.002842
v -0.662702 -0.739067 -0.002842
v -0.656888 -0.739067 -0.002842
v -0.662702 -0.757965 -0.002842
v -0.656888 -0.757965 -0.002842
v -0.674822 -0.753246 -0.060463
v -0.651224 -0.757965 -0.060463
v -0.674822 -0.757965 -0.060463
v -0.651224 -0.753246 -0.060463
v -0.651224 -0.753246 -0.060463
v -0.674822 -0.753246 -0.060463
v -0.651224 -0.757965 -0.060463
v -0.674822 -0.757965 -0.060463
v -0.651224 -0.753246 -0.065363
v -0.674822 -0.753246 -0.060463
v -0.674822 -0.753246 -0.065363
v -0.651224 -0.753246 -0.060463
v -0.651224 -0.753246 -0.060463
v -0.651224 -0.753246 -0.065363
v -0.674822 -0.753246 -0.060463
v -0.674822 -0.753246 -0.065363
v -0.674822 -0.739067 -0.065363
v -0.651224 -0.753246 -0.065363
v -0.674822 -0.753246 -0.065363
v -0.651224 -0.739067 -0.065363
v -0.651224 -0.739067 -0.065363
v -0.674822 -0.739067 -0.065363
v -0.651224 -0.753246 -0.065363
v -0.674822 -0.753246 -0.065363
v -0.651224 -0.739067 -0.050678
v -0.658775 -0.750297 -0.050678
v -0.651224 -0.750297 -0.050678
v -0.658775 -0.739067 -0.050678
v -0.658775 -0.739067 -0.050678
v -0.651224 -0.739067 -0.050678
v -0.658775 -0.750297 -0.050678
v -0.651224 -0.750297 -0.050678
v -0.651224 -0.750297 -0.046789
v -0.658775 -0.750297 -0.050678
v -0.658775 -0.750297 -0.046789
v -0.651224 -0.750297 -0.050678
v -0.651224 -0.750297 -0.050678
v -0.651224 -0.750297 -0.046789
v -0.658775 -0.750297 -0.050678
v -0.658775 -0.750297 -0.046789
v -0.658775 -0.739067 -0.046789
v -0.651224 -0.750297 -0.046789
v -0.658775 -0.750297 -0.046789
v -0.651224 -0.739067 -0.046789
v -0.651224 -0.739067 -0.046789
v -0.658775 -0.739067 -0.046789
v -0.651224 -0.750297 -0.046789
v -0.658775 -0.750297 -0.046789
v -0.658775 -0.750297 -0.050678
v -0.658775 -0.739067 -0.046789
v -0.658775 -0.750297 -0.046789
v -0.658775 -0.739067 -0.050678
v -0.658775 -0.739067 -0.050678
v -0.658775 -0.750297 -0.050678
v -0.658775 -0.739067 -0.046789
v -0.658775 -0.750297 -0.046789
v -0.674822 -0.739067 -0.065363
v -0.674822 -0.757965 -0.008182
v -0.674822 -0.739067 -0.008182
v -0.674822 -0.753246 -0.060463
v -0.674822 -0.753246 -0.065363
v -0.674822 -0.757965 -0.060463
v -0.674822 -0.753246 -0.060463
v -0.674822 -0.757965 -0.008182
v -0.674822 -0.757965 -0.060463
v -0.674822 -0.753246 -0.065363
v -0.674822 -0.739067 -0.065363
v -0.674822 -0.739067 -0.008182
v -0.673066 -0.757965 -0.006427
v -0.673066 -0.739067 -0.006427
v -0.673066 -0.757965 -0.006427
v -0.673066 -0.739067 -0.006427
v -0.673066 -0.757965 0.030196
v -0.673066 -0.739067 0.030196
v -0.673066 -0.757965 0.030196
v -0.673066 -0.739067 0.030196
v -0.662702 -0.739067 0.030196
v -0.673066 -0.757965 0.030196
v -0.662702 -0.757965 0.030196
v -0.673066 -0.739067 0.030196
v -0.673066 -0.739067 0.030196
v -0.662702 -0.739067 0.030196
v -0.673066 -0.757965 0.030196
v -0.662702 -0.757965 0.030196
v -0.662702 -0.757965 -0.002842
v -0.662702 -0.739067 0.030196
v -0.662702 -0.757965 0.030196
v -0.662702 -0.739067 -0.002842
v -0.662702 -0.739067 -0.002842
v -0.662702 -0.757965 -0.002842
v -0.662702 -0.739067 0.030196
v -0.662702 -0.757965 0.030196
vn 0 0 1
vn 0 0 -1
vn 1 0 0
vn -1 0 0
vn 0 1 0
vn 0 -1 0
vn 0 -0.9238795391929067 0.3826834162342324
vn 0 0.9238795391929067 -0.3826834162342324
vn 0 -0.38268341623423285 0.9238795391929064
vn 0 0.38268341623423285 -0.9238795391929064
vn 0 0.3315424061895899 0.9434403176131584
vn 0 -0.3315424061895899 -0.9434403176131584
vn 0 0.6255810109771824 0.7801592136895944
vn 0 -0.6255810109771824 -0.7801592136895944
vn -0.9238795391929066 0 0.38268341623423263
vn 0.9238795391929066 0 -0.38268341623423263
usemtl material_0_0
f 1//1 2//1 3//1
f 2//1 1//1 4//1
f 5//2 6//2 7//2
f 8//2 7//2 6//2
f 9//3 10//3 11//3
f 10//3 9//3 12//3
f 12//3 9//3 13//3
f 11//3 10//3 14//3
f 12//3 13//3 15//3
f 16//3 17//3 18//3
f 11//3 17//3 19//3
f 17//3 11//3 18//3
f 18//3 11//3 14//3
f 19//3 17//3 20//3
f 21//4 22//4 23//4
f 24//4 25//4 26//4
f 26//4 25//4 22//4
f 23//4 22//4 25//4
f 26//4 22//4 27//4
f 28//4 29//4 30//4
f 24//4 31//4 25//4
f 29//4 32//4 30//4
f 30//4 32//4 31//4
f 25//4 31//4 32//4
f 33//5 34//5 35//5
f 34//5 33//5 36//5
f 37//6 38//6 39//6
f 40//6 39//6 38//6
f 41//3 42//3 43//3
f 42//3 41//3 44//3
f 44//3 41//3 45//3
f 45//3 41//3 46//3
f 47//3 46//3 48//3
f 46//3 47//3 45//3
f 45//3 47//3 49//3
f 49//3 47//3 50//3
f 49//3 50//3 51//3
f 51//3 50//3 52//3
f 50//3 47//3 53//3
f 53//3 47//3 54//3
f 54//3 47//3 55//3
f 54//3 55//3 56//3
f 56//3 55//3 57//3
f 58//3 52//3 50//3
f 59//4 60//4 61//4
f 62//4 63//4 64//4
f 64//4 63//4 65//4
f 63//4 66//4 65//4
f 65//4 66//4 67//4
f 67//4 66//4 59//4
f 60//4 59//4 68//4
f 68//4 59//4 69//4
f 59//4 66//4 69//4
f 69//4 66//4 70//4
f 70//4 66//4 71//4
f 72//4 71//4 66//4
f 71//4 73//4 70//4
f 70//4 73//4 74//4
f 74//4 73//4 75//4
f 76//4 75//4 73//4
f 77//5 78//5 79//5
f 80//5 81//5 82//5
f 81//5 80//5 83//5
f 81//5 83//5 84//5
f 84//5 83//5 85//5
f 86//5 87//5 88//5
f 87//5 86//5 89//5
f 87//5 89//5 78//5
f 87//5 78//5 82//5
f 82//5 78//5 77//5
f 87//5 82//5 81//5
f 88//5 87//5 90//5
f 91//6 92//6 93//6
f 94//6 95//6 92//6
f 96//6 97//6 95//6
f 95//6 97//6 92//6
f 97//6 98//6 92//6
f 98//6 99//6 92//6
f 93//6 92//6 99//6
f 100//6 101//6 102//6
f 102//6 101//6 94//6
f 101//6 103//6 94//6
f 95//6 94//6 103//6
f 104//6 97//6 96//6
f 105//6 106//6 107//6
f 106//6 105//6 108//6
f 108//6 105//6 109//6
f 109//6 105//6 110//6
f 110//6 105//6 111//6
f 111//6 105//6 112//6
f 113//6 110//6 111//6
f 114//6 109//6 110//6
f 115//5 116//5 117//5
f 118//5 115//5 119//5
f 120//5 121//5 118//5
f 118//5 121//5 115//5
f 115//5 121//5 116//5
f 116//5 121//5 122//5
f 122//5 121//5 123//5
f 124//5 123//5 121//5
f 125//1 126//1 127//1
f 126//1 125//1 128//1
f 129//2 130//2 131//2
f 132//2 131//2 130//2
f 133//6 134//7 135//6
f 134//7 133//6 136//7
f 137//8 138//5 139//8
f 140//5 139//8 138//5
f 136//7 141//9 134//7
f 141//9 136//7 142//9
f 143//10 137//8 144//10
f 139//8 144//10 137//8
f 142//9 145//11 141//9
f 145//11 142//9 146//11
f 147//12 143//10 148//12
f 144//10 148//12 143//10
f 149//13 145//11 146//11
f 145//11 149//13 150//13
f 151//14 152//14 148//12
f 147//12 148//12 152//14
f 153//5 154//5 155//5
f 154//5 153//5 156//5
f 157//6 158//6 159//6
f 160//6 159//6 158//6
f 161//1 162//1 163//1
f 162//1 161//1 164//1
f 165//2 166//2 167//2
f 168//2 167//2 166//2
f 169//1 170//1 171//1
f 170//1 169//1 172//1
f 173//2 174//2 175//2
f 176//2 175//2 174//2
f 177//2 178//2 179//2
f 178//2 177//2 180//2
f 181//1 182//1 183//1
f 184//1 183//1 182//1
f 185//6 186//6 187//6
f 186//6 185//6 188//6
f 189//5 190//5 191//5
f 192//5 191//5 190//5
f 193//2 194//2 195//2
f 194//2 193//2 196//2
f 197//1 198//1 199//1
f 200//1 199//1 198//1
f 201//1 202//1 203//1
f 202//1 201//1 204//1
f 205//2 206//2 207//2
f 208//2 207//2 206//2
f 209//5 210//5 211//5
f 210//5 209//5 212//5
f 213//6 214//6 215//6
f 216//6 215//6 214//6
f 217//2 218//2 219//2
f 218//2 217//2 220//2
f 221//1 222//1 223//1
f 224//1 223//1 222//1
f 225//3 226//3 227//3
f 226//3 225//3 228//3
f 229//4 230//4 231//4
f 232//4 231//4 230//4
f 233//4 234//15 235//15
f 234//15 233//4 236//4
f 236//4 233//4 237//4
f 238//4 234//15 236//4
f 239//3 240//16 241//3
f 242//3 243//3 239//3
f 239//3 243//3 240//16
f 244//16 240//16 243//3
f 235//15 245//15 246//15
f 245//15 235//15 234//15
f 240//16 244//16 247//16
f 248//16 247//16 244//16
f 246//15 249//4 250//4
f 249//4 246//15 245//15
f 247//16 248//16 251//3
f 252//3 251//3 248//16
f 253//1 254//1 255//1
f 254//1 253//1 256//1
f 257//2 258//2 259//2
f 260//2 259//2 258//2
f 261//3 262//3 263//3
f 262//3 261//3 264//3
f 265//4 266//4 267//4
f 268//4 267//4 266//4
