# SSTK version 0.8.0
# 91
mtllib original-91.mtl
o instance_80/RIVGrille/ID369#ID369
v -0.216740 0.688216 0.008089
v -0.216740 -0.595165 0.017460
v -0.216740 0.688216 0.017460
v -0.216740 -0.595165 0.008089
v -0.216740 -0.595165 0.008089
v -0.216740 0.688216 0.008089
v -0.216740 -0.595165 0.017460
v -0.216740 0.688216 0.017460
v -0.216740 -0.595165 0.017460
v -0.213795 -0.595165 0.014308
v -0.212021 -0.595165 0.017460
v -0.216740 -0.595165 0.008089
v -0.212021 -0.595165 0.014308
v -0.212021 -0.595165 0.014308
v -0.213795 -0.595165 0.014308
v -0.212021 -0.595165 0.017460
v -0.216740 -0.595165 0.008089
v -0.216740 -0.595165 0.017460
v -0.212021 0.688216 0.017460
v -0.216740 -0.595165 0.017460
v -0.212021 -0.595165 0.017460
v -0.216740 0.688216 0.017460
v -0.216740 0.688216 0.017460
v -0.212021 0.688216 0.017460
v -0.216740 -0.595165 0.017460
v -0.212021 -0.595165 0.017460
v -0.216740 0.688216 0.017460
v -0.213795 0.688216 0.014308
v -0.216740 0.688216 0.008089
v -0.212021 0.688216 0.017460
v -0.212021 0.688216 0.014308
v -0.212021 0.688216 0.014308
v -0.212021 0.688216 0.017460
v -0.213795 0.688216 0.014308
v -0.216740 0.688216 0.017460
v -0.216740 0.688216 0.008089
v -0.216740 -0.595165 0.008089
v -0.213795 0.688216 0.014308
v -0.213795 -0.595165 0.014308
v -0.216740 0.688216 0.008089
v -0.216740 0.688216 0.008089
v -0.216740 -0.595165 0.008089
v -0.213795 0.688216 0.014308
v -0.213795 -0.595165 0.014308
v -0.213795 0.688216 0.014308
v -0.212021 -0.595165 0.014308
v -0.213795 -0.595165 0.014308
v -0.212021 0.688216 0.014308
v -0.212021 0.688216 0.014308
v -0.213795 0.688216 0.014308
v -0.212021 -0.595165 0.014308
v -0.213795 -0.595165 0.014308
v -0.212021 -0.595165 0.014308
v -0.212021 0.688216 0.017460
v -0.212021 -0.595165 0.017460
v -0.212021 0.688216 0.014308
v -0.212021 0.688216 0.014308
v -0.212021 -0.595165 0.014308
v -0.212021 0.688216 0.017460
v -0.212021 -0.595165 0.017460
vn -1 0 0
vn 1 0 0
vn 0 -1 0
vn 0 1 0
vn -0.000003999999999968 0 1
vn 0.000003999999999968 0 -1
vn 0.9037927986380159 0 -0.42797029935506375
vn -0.9037927986380159 0 0.42797029935506375
vn 0 0 -1
vn 0 0 1
usemtl material_0_0
f 1//1 2//1 3//1
f 2//1 1//1 4//1
f 5//2 6//2 7//2
f 8//2 7//2 6//2
f 9//3 10//3 11//3
f 10//3 9//3 12//3
f 11//3 10//3 13//3
f 14//4 15//4 16//4
f 17//4 18//4 15//4
f 16//4 15//4 18//4
f 19//5 20//5 21//5
f 20//5 19//5 22//5
f 23//6 24//6 25//6
f 26//6 25//6 24//6
f 27//4 28//4 29//4
f 28//4 27//4 30//4
f 28//4 30//4 31//4
f 32//3 33//3 34//3
f 33//3 35//3 34//3
f 36//3 34//3 35//3
f 37//7 38//7 39//7
f 38//7 37//7 40//7
f 41//8 42//8 43//8
f 44//8 43//8 42//8
f 45//9 46//9 47//9
f 46//9 45//9 48//9
f 49//10 50//10 51//10
f 52//10 51//10 50//10
f 53//2 54//2 55//2
f 54//2 53//2 56//2
f 57//1 58//1 59//1
f 60//1 59//1 58//1
