# SSTK version 0.8.0
# 152
mtllib original-152.mtl
o instance_105/trwsash_2/ID289#ID289
v 0.578023 0.678794 -0.044930
v 0.570132 0.678794 -0.043309
v 0.570132 0.678794 -0.044930
v 0.651355 0.678794 -0.046818
v 0.578023 0.678794 -0.046818
v 0.578023 0.678794 -0.034887
v 0.578023 0.678794 -0.015580
v 0.645413 0.678794 -0.018294
v 0.651355 0.678794 -0.018294
v 0.569956 0.678794 -0.011990
v 0.569956 0.678794 -0.015580
v 0.645413 0.678794 -0.011990
v 0.567193 0.678794 -0.036623
v 0.565224 0.678794 -0.034887
v 0.565224 0.678794 -0.036623
v 0.578023 0.678794 -0.044930
v 0.570132 0.678794 -0.043309
v 0.578023 0.678794 -0.034887
v 0.567193 0.678794 -0.036623
v 0.565224 0.678794 -0.034887
v 0.565224 0.678794 -0.036623
v 0.645413 0.678794 -0.018294
v 0.578023 0.678794 -0.015580
v 0.645413 0.678794 -0.011990
v 0.569956 0.678794 -0.011990
v 0.569956 0.678794 -0.015580
v 0.651355 0.678794 -0.018294
v 0.651355 0.678794 -0.046818
v 0.578023 0.678794 -0.046818
v 0.570132 0.678794 -0.044930
v 0.578023 0.691593 -0.046818
v 0.578023 0.678794 -0.044930
v 0.578023 0.691593 -0.044930
v 0.578023 0.678794 -0.046818
v 0.578023 0.678794 -0.046818
v 0.578023 0.691593 -0.046818
v 0.578023 0.678794 -0.044930
v 0.578023 0.691593 -0.044930
v 0.565224 0.764924 -0.046818
v 0.578023 0.691593 -0.046818
v 0.565224 0.691593 -0.046818
v 0.651355 0.678794 -0.046818
v 0.578023 0.678794 -0.046818
v 0.651355 0.764924 -0.046818
v 0.565224 0.764924 -0.046818
v 0.578023 0.691593 -0.046818
v 0.651355 0.764924 -0.046818
v 0.651355 0.678794 -0.046818
v 0.578023 0.678794 -0.046818
v 0.565224 0.691593 -0.046818
v 0.651355 0.678794 -0.046818
v 0.651355 0.764924 -0.018294
v 0.651355 0.678794 -0.018294
v 0.651355 0.764924 -0.046818
v 0.651355 0.764924 -0.046818
v 0.651355 0.678794 -0.046818
v 0.651355 0.764924 -0.018294
v 0.651355 0.678794 -0.018294
v 0.651355 0.764924 -0.018294
v 0.645413 0.678794 -0.018294
v 0.651355 0.678794 -0.018294
v 0.645413 0.758982 -0.018294
v 0.565224 0.758982 -0.018294
v 0.565224 0.764924 -0.018294
v 0.565224 0.764924 -0.018294
v 0.651355 0.764924 -0.018294
v 0.565224 0.758982 -0.018294
v 0.645413 0.758982 -0.018294
v 0.645413 0.678794 -0.018294
v 0.651355 0.678794 -0.018294
v 0.645413 0.678794 -0.018294
v 0.645413 0.758982 -0.011990
v 0.645413 0.678794 -0.011990
v 0.645413 0.758982 -0.018294
v 0.645413 0.758982 -0.018294
v 0.645413 0.678794 -0.018294
v 0.645413 0.758982 -0.011990
v 0.645413 0.678794 -0.011990
v 0.645413 0.758982 -0.011990
v 0.569956 0.678794 -0.011990
v 0.645413 0.678794 -0.011990
v 0.569956 0.683525 -0.011990
v 0.565224 0.683525 -0.011990
v 0.565224 0.758982 -0.011990
v 0.565224 0.758982 -0.011990
v 0.645413 0.758982 -0.011990
v 0.565224 0.683525 -0.011990
v 0.569956 0.683525 -0.011990
v 0.569956 0.678794 -0.011990
v 0.645413 0.678794 -0.011990
v 0.569956 0.683525 -0.015580
v 0.569956 0.678794 -0.011990
v 0.569956 0.683525 -0.011990
v 0.569956 0.678794 -0.015580
v 0.569956 0.678794 -0.015580
v 0.569956 0.683525 -0.015580
v 0.569956 0.678794 -0.011990
v 0.569956 0.683525 -0.011990
v 0.565224 0.691593 -0.015580
v 0.569956 0.683525 -0.015580
v 0.565224 0.683525 -0.015580
v 0.578023 0.678794 -0.015580
v 0.569956 0.678794 -0.015580
v 0.578023 0.691593 -0.015580
v 0.565224 0.691593 -0.015580
v 0.569956 0.683525 -0.015580
v 0.578023 0.691593 -0.015580
v 0.578023 0.678794 -0.015580
v 0.569956 0.678794 -0.015580
v 0.565224 0.683525 -0.015580
v 0.578023 0.691593 -0.034887
v 0.578023 0.678794 -0.015580
v 0.578023 0.691593 -0.015580
v 0.578023 0.678794 -0.034887
v 0.578023 0.678794 -0.034887
v 0.578023 0.691593 -0.034887
v 0.578023 0.678794 -0.015580
v 0.578023 0.691593 -0.015580
v 0.578023 0.691593 -0.034887
v 0.565224 0.678794 -0.034887
v 0.578023 0.678794 -0.034887
v 0.565224 0.691593 -0.034887
v 0.565224 0.691593 -0.034887
v 0.578023 0.691593 -0.034887
v 0.565224 0.678794 -0.034887
v 0.578023 0.678794 -0.034887
v 0.565224 0.758982 -0.018294
v 0.565224 0.683525 -0.011990
v 0.565224 0.758982 -0.011990
v 0.565224 0.691593 -0.015580
v 0.565224 0.691593 -0.034887
v 0.565224 0.764924 -0.046818
v 0.565224 0.764924 -0.018294
v 0.565224 0.678794 -0.034887
v 0.565224 0.680762 -0.036623
v 0.565224 0.683702 -0.043309
v 0.565224 0.691593 -0.044930
v 0.565224 0.691593 -0.046818
v 0.565224 0.683702 -0.044930
v 0.565224 0.678794 -0.036623
v 0.565224 0.683525 -0.015580
v 0.565224 0.691593 -0.015580
v 0.565224 0.683525 -0.011990
v 0.565224 0.683525 -0.015580
v 0.565224 0.680762 -0.036623
v 0.565224 0.678794 -0.034887
v 0.565224 0.678794 -0.036623
v 0.565224 0.691593 -0.044930
v 0.565224 0.683702 -0.043309
v 0.565224 0.683702 -0.044930
v 0.565224 0.691593 -0.046818
v 0.565224 0.764924 -0.046818
v 0.565224 0.691593 -0.034887
v 0.565224 0.758982 -0.018294
v 0.565224 0.764924 -0.018294
v 0.565224 0.758982 -0.011990
v 0.565224 0.680762 -0.036623
v 0.567193 0.678794 -0.036623
v 0.565224 0.678794 -0.036623
v 0.567193 0.680762 -0.036623
v 0.567193 0.680762 -0.036623
v 0.565224 0.680762 -0.036623
v 0.567193 0.678794 -0.036623
v 0.565224 0.678794 -0.036623
v 0.570132 0.683702 -0.043309
v 0.567193 0.678794 -0.036623
v 0.567193 0.680762 -0.036623
v 0.570132 0.678794 -0.043309
v 0.570132 0.678794 -0.043309
v 0.570132 0.683702 -0.043309
v 0.567193 0.678794 -0.036623
v 0.567193 0.680762 -0.036623
v 0.570132 0.683702 -0.044930
v 0.570132 0.678794 -0.044930
v 0.570132 0.678794 -0.044930
v 0.570132 0.683702 -0.044930
v 0.565224 0.691593 -0.044930
v 0.570132 0.683702 -0.044930
v 0.565224 0.683702 -0.044930
v 0.578023 0.678794 -0.044930
v 0.570132 0.678794 -0.044930
v 0.578023 0.691593 -0.044930
v 0.565224 0.691593 -0.044930
v 0.570132 0.683702 -0.044930
v 0.578023 0.691593 -0.044930
v 0.578023 0.678794 -0.044930
v 0.570132 0.678794 -0.044930
v 0.565224 0.683702 -0.044930
v 0.578023 0.691593 -0.046818
v 0.565224 0.691593 -0.044930
v 0.565224 0.691593 -0.046818
v 0.578023 0.691593 -0.044930
v 0.578023 0.691593 -0.044930
v 0.578023 0.691593 -0.046818
v 0.565224 0.691593 -0.044930
v 0.565224 0.691593 -0.046818
v 0.651355 0.764924 -0.018294
v 0.565224 0.764924 -0.046818
v 0.565224 0.764924 -0.018294
v 0.651355 0.764924 -0.046818
v 0.651355 0.764924 -0.046818
v 0.651355 0.764924 -0.018294
v 0.565224 0.764924 -0.046818
v 0.565224 0.764924 -0.018294
v 0.645413 0.758982 -0.011990
v 0.565224 0.758982 -0.018294
v 0.565224 0.758982 -0.011990
v 0.645413 0.758982 -0.018294
v 0.645413 0.758982 -0.018294
v 0.645413 0.758982 -0.011990
v 0.565224 0.758982 -0.018294
v 0.565224 0.758982 -0.011990
v 0.569956 0.683525 -0.015580
v 0.565224 0.683525 -0.011990
v 0.565224 0.683525 -0.015580
v 0.569956 0.683525 -0.011990
v 0.569956 0.683525 -0.011990
v 0.569956 0.683525 -0.015580
v 0.565224 0.683525 -0.011990
v 0.565224 0.683525 -0.015580
v 0.578023 0.691593 -0.034887
v 0.565224 0.691593 -0.015580
v 0.565224 0.691593 -0.034887
v 0.578023 0.691593 -0.015580
v 0.578023 0.691593 -0.015580
v 0.578023 0.691593 -0.034887
v 0.565224 0.691593 -0.015580
v 0.565224 0.691593 -0.034887
v 0.570132 0.683702 -0.044930
v 0.565224 0.683702 -0.043309
v 0.565224 0.683702 -0.044930
v 0.570132 0.683702 -0.043309
v 0.570132 0.683702 -0.043309
v 0.570132 0.683702 -0.044930
v 0.565224 0.683702 -0.043309
v 0.565224 0.683702 -0.044930
v 0.565224 0.680762 -0.036623
v 0.567193 0.680762 -0.036623
v 0.567193 0.680762 -0.036623
v 0.565224 0.680762 -0.036623
vn 0 -1 0
vn 0 1 0
vn -1 0 0
vn 1 0 0
vn 0 0 -1
vn 0 0 1
vn -0.984199501386806 0 -0.1770631002494943
vn -0.9154021808199948 0 -0.40254049156575233
vn -0.9786220324056013 0 -0.20566700681035455
vn 0.9786220324056013 0 0.20566700681035455
vn 0.984199501386806 0 0.1770631002494943
vn 0.9154021808199948 0 0.40254049156575233
vn 0 -0.9786220324056011 -0.2056670068103547
vn 0 -0.984199501386806 -0.1770631002494945
vn 0 0.984199501386806 0.1770631002494945
vn 0 0.9786220324056011 0.2056670068103547
vn 0 -0.9154021808199947 -0.40254049156575256
vn 0 0.9154021808199947 0.40254049156575256
usemtl material_0_0
f 1//1 2//1 3//1
f 4//1 1//1 5//1
f 1//1 4//1 6//1
f 6//1 4//1 7//1
f 7//1 4//1 8//1
f 8//1 4//1 9//1
f 7//1 10//1 11//1
f 10//1 7//1 12//1
f 12//1 7//1 8//1
f 13//1 14//1 15//1
f 14//1 13//1 6//1
f 6//1 13//1 2//1
f 6//1 2//1 1//1
f 16//2 17//2 18//2
f 17//2 19//2 18//2
f 18//2 19//2 20//2
f 21//2 20//2 19//2
f 22//2 23//2 24//2
f 24//2 23//2 25//2
f 26//2 25//2 23//2
f 27//2 28//2 22//2
f 22//2 28//2 23//2
f 23//2 28//2 18//2
f 18//2 28//2 16//2
f 29//2 16//2 28//2
f 30//2 17//2 16//2
f 31//3 32//3 33//3
f 32//3 31//3 34//3
f 35//4 36//4 37//4
f 38//4 37//4 36//4
f 39//5 40//5 41//5
f 40//5 42//5 43//5
f 42//5 40//5 44//5
f 44//5 40//5 39//5
f 45//6 46//6 47//6
f 47//6 46//6 48//6
f 49//6 48//6 46//6
f 50//6 46//6 45//6
f 51//4 52//4 53//4
f 52//4 51//4 54//4
f 55//3 56//3 57//3
f 58//3 57//3 56//3
f 59//6 60//6 61//6
f 60//6 59//6 62//6
f 62//6 59//6 63//6
f 63//6 59//6 64//6
f 65//5 66//5 67//5
f 67//5 66//5 68//5
f 68//5 66//5 69//5
f 70//5 69//5 66//5
f 71//4 72//4 73//4
f 72//4 71//4 74//4
f 75//3 76//3 77//3
f 78//3 77//3 76//3
f 79//6 80//6 81//6
f 80//6 79//6 82//6
f 82//6 79//6 83//6
f 83//6 79//6 84//6
f 85//5 86//5 87//5
f 87//5 86//5 88//5
f 88//5 86//5 89//5
f 90//5 89//5 86//5
f 91//3 92//3 93//3
f 92//3 91//3 94//3
f 95//4 96//4 97//4
f 98//4 97//4 96//4
f 99//5 100//5 101//5
f 100//5 102//5 103//5
f 102//5 100//5 104//5
f 104//5 100//5 99//5
f 105//6 106//6 107//6
f 107//6 106//6 108//6
f 109//6 108//6 106//6
f 110//6 106//6 105//6
f 111//3 112//3 113//3
f 112//3 111//3 114//3
f 115//4 116//4 117//4
f 118//4 117//4 116//4
f 119//6 120//6 121//6
f 120//6 119//6 122//6
f 123//5 124//5 125//5
f 126//5 125//5 124//5
f 127//3 128//3 129//3
f 128//3 127//3 130//3
f 130//3 127//3 131//3
f 132//3 127//3 133//3
f 127//3 132//3 131//3
f 131//3 132//3 134//3
f 134//3 132//3 135//3
f 135//3 132//3 136//3
f 136//3 132//3 137//3
f 137//3 132//3 138//3
f 139//3 136//3 137//3
f 140//3 134//3 135//3
f 141//3 128//3 130//3
f 142//4 143//4 144//4
f 145//4 146//4 147//4
f 148//4 149//4 150//4
f 151//4 152//4 148//4
f 148//4 152//4 149//4
f 149//4 152//4 145//4
f 145//4 152//4 146//4
f 146//4 152//4 153//4
f 153//4 152//4 154//4
f 155//4 154//4 152//4
f 153//4 154//4 142//4
f 142//4 154//4 143//4
f 156//4 143//4 154//4
f 157//5 158//5 159//5
f 158//5 157//5 160//5
f 161//6 162//6 163//6
f 164//6 163//6 162//6
f 165//7 166//8 167//8
f 166//8 165//7 168//9
f 169//10 170//11 171//12
f 172//12 171//12 170//11
f 173//3 168//9 165//7
f 168//9 173//3 174//3
f 175//4 176//4 169//10
f 170//11 169//10 176//4
f 177//5 178//5 179//5
f 178//5 180//5 181//5
f 180//5 178//5 182//5
f 182//5 178//5 177//5
f 183//6 184//6 185//6
f 185//6 184//6 186//6
f 187//6 186//6 184//6
f 188//6 184//6 183//6
f 189//1 190//1 191//1
f 190//1 189//1 192//1
f 193//2 194//2 195//2
f 196//2 195//2 194//2
f 197//2 198//2 199//2
f 198//2 197//2 200//2
f 201//1 202//1 203//1
f 204//1 203//1 202//1
f 205//2 206//2 207//2
f 206//2 205//2 208//2
f 209//1 210//1 211//1
f 212//1 211//1 210//1
f 213//1 214//1 215//1
f 214//1 213//1 216//1
f 217//2 218//2 219//2
f 220//2 219//2 218//2
f 221//1 222//1 223//1
f 222//1 221//1 224//1
f 225//2 226//2 227//2
f 228//2 227//2 226//2
f 229//1 230//13 231//1
f 230//13 229//1 232//14
f 233//15 234//2 235//16
f 236//2 235//16 234//2
f 232//14 237//17 230//13
f 237//17 232//14 238//17
f 239//18 233//15 240//18
f 235//16 240//18 233//15
