# SSTK version 0.8.0
# 95
mtllib original-95.mtl
o instance_84/wdoorend/ID461#ID461
v -0.645505 0.767715 0.037066
v -0.654378 0.767715 0.002859
v -0.654378 0.767715 0.037066
v -0.636444 0.767715 0.002859
v -0.641542 0.767715 0.040596
v -0.637482 0.767715 0.029888
v -0.637482 0.767715 0.040596
v -0.636444 0.767715 0.029888
v -0.636444 0.767715 0.029888
v -0.637482 0.767715 0.029888
v -0.636444 0.767715 0.002859
v -0.637482 0.767715 0.040596
v -0.641542 0.767715 0.040596
v -0.645505 0.767715 0.037066
v -0.654378 0.767715 0.002859
v -0.654378 0.767715 0.037066
v -0.636444 -0.755829 0.002859
v -0.636444 0.767715 0.029888
v -0.636444 -0.755829 0.029888
v -0.636444 0.767715 0.002859
v -0.636444 0.767715 0.002859
v -0.636444 -0.755829 0.002859
v -0.636444 0.767715 0.029888
v -0.636444 -0.755829 0.029888
v -0.654378 0.767715 0.002859
v -0.636444 -0.755829 0.002859
v -0.654378 -0.755829 0.002859
v -0.636444 0.767715 0.002859
v -0.636444 0.767715 0.002859
v -0.654378 0.767715 0.002859
v -0.636444 -0.755829 0.002859
v -0.654378 -0.755829 0.002859
v -0.654378 0.767715 0.002859
v -0.654378 -0.755829 0.037066
v -0.654378 0.767715 0.037066
v -0.654378 -0.755829 0.002859
v -0.654378 -0.755829 0.002859
v -0.654378 0.767715 0.002859
v -0.654378 -0.755829 0.037066
v -0.654378 0.767715 0.037066
v -0.645505 0.767715 0.037066
v -0.654378 -0.755829 0.037066
v -0.645505 -0.755829 0.037066
v -0.654378 0.767715 0.037066
v -0.654378 0.767715 0.037066
v -0.645505 0.767715 0.037066
v -0.654378 -0.755829 0.037066
v -0.645505 -0.755829 0.037066
v -0.641542 0.767715 0.040596
v -0.641542 -0.755829 0.040596
v -0.641542 0.767715 0.040596
v -0.641542 -0.755829 0.040596
v -0.637482 0.767715 0.040596
v -0.637482 -0.755829 0.040596
v -0.637482 0.767715 0.040596
v -0.637482 -0.755829 0.040596
v -0.637482 -0.755829 0.029888
v -0.637482 0.767715 0.040596
v -0.637482 -0.755829 0.040596
v -0.637482 0.767715 0.029888
v -0.637482 0.767715 0.029888
v -0.637482 -0.755829 0.029888
v -0.637482 0.767715 0.040596
v -0.637482 -0.755829 0.040596
v -0.636444 0.767715 0.029888
v -0.637482 -0.755829 0.029888
v -0.636444 -0.755829 0.029888
v -0.637482 0.767715 0.029888
v -0.637482 0.767715 0.029888
v -0.636444 0.767715 0.029888
v -0.637482 -0.755829 0.029888
v -0.636444 -0.755829 0.029888
v -0.636444 -0.755829 0.002859
v -0.654378 -0.755829 0.037066
v -0.654378 -0.755829 0.002859
v -0.645505 -0.755829 0.037066
v -0.641542 -0.755829 0.040596
v -0.637482 -0.755829 0.029888
v -0.636444 -0.755829 0.029888
v -0.637482 -0.755829 0.040596
v -0.637482 -0.755829 0.029888
v -0.641542 -0.755829 0.040596
v -0.637482 -0.755829 0.040596
v -0.636444 -0.755829 0.029888
v -0.636444 -0.755829 0.002859
v -0.645505 -0.755829 0.037066
v -0.654378 -0.755829 0.037066
v -0.654378 -0.755829 0.002859
vn 0 1 0
vn 0 -1 0
vn 1 0 0
vn -1 0 0
vn 0 0 -1
vn 0 0 1
vn -0.35587540426325925 0 0.9345334111953738
vn 0.35587540426325925 0 -0.9345334111953738
usemtl material_0_0
f 1//1 2//1 3//1
f 2//1 1//1 4//1
f 4//1 1//1 5//1
f 4//1 5//1 6//1
f 6//1 5//1 7//1
f 4//1 6//1 8//1
f 9//2 10//2 11//2
f 12//2 13//2 10//2
f 10//2 13//2 11//2
f 13//2 14//2 11//2
f 11//2 14//2 15//2
f 16//2 15//2 14//2
f 17//3 18//3 19//3
f 18//3 17//3 20//3
f 21//4 22//4 23//4
f 24//4 23//4 22//4
f 25//5 26//5 27//5
f 26//5 25//5 28//5
f 29//6 30//6 31//6
f 32//6 31//6 30//6
f 33//4 34//4 35//4
f 34//4 33//4 36//4
f 37//3 38//3 39//3
f 40//3 39//3 38//3
f 41//7 42//6 43//7
f 42//6 41//7 44//6
f 45//5 46//8 47//5
f 48//8 47//5 46//8
f 49//7 43//7 50//7
f 43//7 49//7 41//7
f 46//8 51//8 48//8
f 52//8 48//8 51//8
f 53//6 50//7 54//6
f 50//7 53//6 49//7
f 51//8 55//5 52//8
f 56//5 52//8 55//5
f 57//3 58//3 59//3
f 58//3 57//3 60//3
f 61//4 62//4 63//4
f 64//4 63//4 62//4
f 65//6 66//6 67//6
f 66//6 65//6 68//6
f 69//5 70//5 71//5
f 72//5 71//5 70//5
f 73//2 74//2 75//2
f 74//2 73//2 76//2
f 76//2 73//2 77//2
f 77//2 73//2 78//2
f 78//2 73//2 79//2
f 80//2 77//2 78//2
f 81//1 82//1 83//1
f 84//1 85//1 81//1
f 81//1 85//1 82//1
f 82//1 85//1 86//1
f 86//1 85//1 87//1
f 88//1 87//1 85//1
