# SSTK version 0.8.0
# 96
mtllib original-96.mtl
o instance_85/adoorend/ID469#ID469
v -0.634839 -0.754353 0.037077
v -0.635594 -0.754353 0.040968
v -0.635594 -0.754353 0.037077
v -0.653623 -0.754353 0.035933
v -0.654378 -0.754353 0.037830
v -0.654378 -0.754353 0.035933
v -0.653623 -0.754353 0.037066
v -0.645665 -0.754353 0.037830
v -0.644130 -0.754353 0.037066
v -0.640186 -0.754353 0.041804
v -0.639436 -0.754353 0.040968
v -0.634839 -0.754353 0.041804
v -0.634839 -0.754353 0.037077
v -0.635594 -0.754353 0.040968
v -0.634839 -0.754353 0.041804
v -0.639436 -0.754353 0.040968
v -0.640186 -0.754353 0.041804
v -0.644130 -0.754353 0.037066
v -0.645665 -0.754353 0.037830
v -0.653623 -0.754353 0.037066
v -0.654378 -0.754353 0.037830
v -0.653623 -0.754353 0.035933
v -0.654378 -0.754353 0.035933
v -0.635594 -0.754353 0.037077
v -0.635594 0.769190 0.037077
v -0.634839 -0.754353 0.037077
v -0.635594 -0.754353 0.037077
v -0.634839 0.769190 0.037077
v -0.634839 0.769190 0.037077
v -0.635594 0.769190 0.037077
v -0.634839 -0.754353 0.037077
v -0.635594 -0.754353 0.037077
v -0.634839 -0.754353 0.037077
v -0.634839 0.769190 0.041804
v -0.634839 -0.754353 0.041804
v -0.634839 0.769190 0.037077
v -0.634839 0.769190 0.037077
v -0.634839 -0.754353 0.037077
v -0.634839 0.769190 0.041804
v -0.634839 -0.754353 0.041804
v -0.634839 0.769190 0.041804
v -0.640186 -0.754353 0.041804
v -0.634839 -0.754353 0.041804
v -0.640186 0.769190 0.041804
v -0.640186 0.769190 0.041804
v -0.634839 0.769190 0.041804
v -0.640186 -0.754353 0.041804
v -0.634839 -0.754353 0.041804
v -0.645665 -0.754353 0.037830
v -0.645665 0.769190 0.037830
v -0.645665 0.769190 0.037830
v -0.645665 -0.754353 0.037830
v -0.654378 -0.754353 0.037830
v -0.654378 0.769190 0.037830
v -0.654378 0.769190 0.037830
v -0.654378 -0.754353 0.037830
v -0.654378 0.769190 0.035933
v -0.654378 -0.754353 0.037830
v -0.654378 0.769190 0.037830
v -0.654378 -0.754353 0.035933
v -0.654378 -0.754353 0.035933
v -0.654378 0.769190 0.035933
v -0.654378 -0.754353 0.037830
v -0.654378 0.769190 0.037830
v -0.654378 0.769190 0.035933
v -0.653623 -0.754353 0.035933
v -0.654378 -0.754353 0.035933
v -0.653623 0.769190 0.035933
v -0.653623 0.769190 0.035933
v -0.654378 0.769190 0.035933
v -0.653623 -0.754353 0.035933
v -0.654378 -0.754353 0.035933
v -0.653623 -0.754353 0.035933
v -0.653623 0.769190 0.037066
v -0.653623 -0.754353 0.037066
v -0.653623 0.769190 0.035933
v -0.653623 0.769190 0.035933
v -0.653623 -0.754353 0.035933
v -0.653623 0.769190 0.037066
v -0.653623 -0.754353 0.037066
v -0.653623 0.769190 0.037066
v -0.644130 -0.754353 0.037066
v -0.653623 -0.754353 0.037066
v -0.644130 0.769190 0.037066
v -0.644130 0.769190 0.037066
v -0.653623 0.769190 0.037066
v -0.644130 -0.754353 0.037066
v -0.653623 -0.754353 0.037066
v -0.639436 -0.754353 0.040968
v -0.639436 0.769190 0.040968
v -0.639436 0.769190 0.040968
v -0.639436 -0.754353 0.040968
v -0.635594 -0.754353 0.040968
v -0.635594 0.769190 0.040968
v -0.635594 0.769190 0.040968
v -0.635594 -0.754353 0.040968
v -0.635594 0.769190 0.037077
v -0.635594 -0.754353 0.040968
v -0.635594 0.769190 0.040968
v -0.635594 -0.754353 0.037077
v -0.635594 -0.754353 0.037077
v -0.635594 0.769190 0.037077
v -0.635594 -0.754353 0.040968
v -0.635594 0.769190 0.040968
v -0.654378 0.769190 0.037830
v -0.653623 0.769190 0.037066
v -0.654378 0.769190 0.035933
v -0.645665 0.769190 0.037830
v -0.644130 0.769190 0.037066
v -0.640186 0.769190 0.041804
v -0.639436 0.769190 0.040968
v -0.634839 0.769190 0.041804
v -0.635594 0.769190 0.040968
v -0.635594 0.769190 0.037077
v -0.634839 0.769190 0.037077
v -0.653623 0.769190 0.035933
v -0.653623 0.769190 0.037066
v -0.654378 0.769190 0.035933
v -0.653623 0.769190 0.035933
v -0.634839 0.769190 0.037077
v -0.634839 0.769190 0.041804
v -0.635594 0.769190 0.037077
v -0.635594 0.769190 0.040968
v -0.639436 0.769190 0.040968
v -0.640186 0.769190 0.041804
v -0.644130 0.769190 0.037066
v -0.645665 0.769190 0.037830
v -0.654378 0.769190 0.037830
vn 0 -1 0
vn 0 1 0
vn 0 0 -1
vn 0 0 1
vn 1 0 0
vn -1 0 0
vn -0.30865369444825524 0 0.9511744828912533
vn 0.30865369444825524 0 -0.9511744828912533
vn 0.3398744997615968 0 -0.9404707993403116
vn -0.3398744997615968 0 0.9404707993403116
usemtl material_0_0
f 1//1 2//1 3//1
f 4//1 5//1 6//1
f 5//1 4//1 7//1
f 5//1 7//1 8//1
f 8//1 7//1 9//1
f 8//1 9//1 10//1
f 10//1 9//1 11//1
f 10//1 11//1 12//1
f 12//1 11//1 2//1
f 12//1 2//1 1//1
f 13//2 14//2 15//2
f 14//2 16//2 15//2
f 15//2 16//2 17//2
f 16//2 18//2 17//2
f 17//2 18//2 19//2
f 18//2 20//2 19//2
f 19//2 20//2 21//2
f 20//2 22//2 21//2
f 23//2 21//2 22//2
f 24//2 14//2 13//2
f 25//3 26//3 27//3
f 26//3 25//3 28//3
f 29//4 30//4 31//4
f 32//4 31//4 30//4
f 33//5 34//5 35//5
f 34//5 33//5 36//5
f 37//6 38//6 39//6
f 40//6 39//6 38//6
f 41//4 42//7 43//4
f 42//7 41//4 44//7
f 45//8 46//3 47//8
f 48//3 47//8 46//3
f 44//7 49//7 42//7
f 49//7 44//7 50//7
f 51//8 45//8 52//8
f 47//8 52//8 45//8
f 50//7 53//4 49//7
f 53//4 50//7 54//4
f 55//3 51//8 56//3
f 52//8 56//3 51//8
f 57//6 58//6 59//6
f 58//6 57//6 60//6
f 61//5 62//5 63//5
f 64//5 63//5 62//5
f 65//3 66//3 67//3
f 66//3 65//3 68//3
f 69//4 70//4 71//4
f 72//4 71//4 70//4
f 73//5 74//5 75//5
f 74//5 73//5 76//5
f 77//6 78//6 79//6
f 80//6 79//6 78//6
f 81//3 82//9 83//3
f 82//9 81//3 84//9
f 85//10 86//4 87//10
f 88//4 87//10 86//4
f 84//9 89//9 82//9
f 89//9 84//9 90//9
f 91//10 85//10 92//10
f 87//10 92//10 85//10
f 90//9 93//3 89//9
f 93//3 90//9 94//3
f 95//4 91//10 96//4
f 92//10 96//4 91//10
f 97//6 98//6 99//6
f 98//6 97//6 100//6
f 101//5 102//5 103//5
f 104//5 103//5 102//5
f 105//2 106//2 107//2
f 106//2 105//2 108//2
f 106//2 108//2 109//2
f 109//2 108//2 110//2
f 109//2 110//2 111//2
f 111//2 110//2 112//2
f 111//2 112//2 113//2
f 113//2 112//2 114//2
f 114//2 112//2 115//2
f 116//2 107//2 106//2
f 117//1 118//1 119//1
f 120//1 121//1 122//1
f 122//1 121//1 123//1
f 123//1 121//1 124//1
f 121//1 125//1 124//1
f 124//1 125//1 126//1
f 125//1 127//1 126//1
f 126//1 127//1 117//1
f 127//1 128//1 117//1
f 118//1 117//1 128//1
