# SSTK version 0.8.0
# 105
mtllib original-105.mtl
o #ID533
v -0.653193 -0.757965 0.012958
v -0.654156 -0.757965 0.013789
v -0.654156 -0.757965 0.012958
v -0.653554 -0.757965 0.013789
v -0.653193 -0.757965 0.013789
v -0.653193 -0.757965 0.013789
v -0.653193 -0.757965 0.012958
v -0.653554 -0.757965 0.013789
v -0.654156 -0.757965 0.013789
v -0.654156 -0.757965 0.012958
vn 0 -1 0
vn 0 1 0
usemtl material_0_0
f 1//1 2//1 3//1
f 2//1 1//1 4//1
f 4//1 1//1 5//1
usemtl material_1_0
f 6//2 7//2 8//2
f 8//2 7//2 9//2
f 10//2 9//2 7//2
