# SSTK version 0.8.0
# 37
mtllib original-37.mtl
o instance_36/bwsash_2/ID257#ID257
v -0.548520 -0.585731 0.013025
v -0.548520 -0.598530 0.014761
v -0.548520 -0.585731 0.014761
v -0.548520 -0.590463 0.034068
v -0.548520 -0.733158 0.037658
v -0.548520 -0.590463 0.037658
v -0.548520 -0.598530 0.034068
v -0.548520 -0.733158 0.031354
v -0.548520 -0.739100 0.031354
v -0.548520 -0.739100 0.002830
v -0.548520 -0.587700 0.013025
v -0.548520 -0.590640 0.006340
v -0.548520 -0.598530 0.004718
v -0.548520 -0.590640 0.004718
v -0.548520 -0.598530 0.002830
v -0.548520 -0.598530 0.002830
v -0.548520 -0.598530 0.004718
v -0.548520 -0.739100 0.002830
v -0.548520 -0.590640 0.004718
v -0.548520 -0.590640 0.006340
v -0.548520 -0.587700 0.013025
v -0.548520 -0.585731 0.013025
v -0.548520 -0.598530 0.014761
v -0.548520 -0.739100 0.031354
v -0.548520 -0.733158 0.031354
v -0.548520 -0.598530 0.034068
v -0.548520 -0.733158 0.037658
v -0.548520 -0.590463 0.034068
v -0.548520 -0.590463 0.037658
v -0.548520 -0.585731 0.014761
v -0.064064 -0.739100 0.002830
v -0.548520 -0.739100 0.031354
v -0.548520 -0.739100 0.002830
v -0.064064 -0.739100 0.031354
v -0.064064 -0.739100 0.031354
v -0.064064 -0.739100 0.002830
v -0.548520 -0.739100 0.031354
v -0.548520 -0.739100 0.002830
v -0.064064 -0.733158 0.031354
v -0.548520 -0.739100 0.031354
v -0.064064 -0.739100 0.031354
v -0.548520 -0.733158 0.031354
v -0.548520 -0.733158 0.031354
v -0.064064 -0.733158 0.031354
v -0.548520 -0.739100 0.031354
v -0.064064 -0.739100 0.031354
v -0.064064 -0.733158 0.031354
v -0.548520 -0.733158 0.037658
v -0.548520 -0.733158 0.031354
v -0.064064 -0.733158 0.037658
v -0.064064 -0.733158 0.037658
v -0.064064 -0.733158 0.031354
v -0.548520 -0.733158 0.037658
v -0.548520 -0.733158 0.031354
v -0.064064 -0.590463 0.037658
v -0.548520 -0.733158 0.037658
v -0.064064 -0.733158 0.037658
v -0.548520 -0.590463 0.037658
v -0.548520 -0.590463 0.037658
v -0.064064 -0.590463 0.037658
v -0.548520 -0.733158 0.037658
v -0.064064 -0.733158 0.037658
v -0.064064 -0.590463 0.037658
v -0.548520 -0.590463 0.034068
v -0.548520 -0.590463 0.037658
v -0.064064 -0.590463 0.034068
v -0.064064 -0.590463 0.034068
v -0.064064 -0.590463 0.037658
v -0.548520 -0.590463 0.034068
v -0.548520 -0.590463 0.037658
v -0.548520 -0.590463 0.034068
v -0.064064 -0.598530 0.034068
v -0.548520 -0.598530 0.034068
v -0.064064 -0.590463 0.034068
v -0.064064 -0.590463 0.034068
v -0.548520 -0.590463 0.034068
v -0.064064 -0.598530 0.034068
v -0.548520 -0.598530 0.034068
v -0.064064 -0.598530 0.034068
v -0.548520 -0.598530 0.014761
v -0.548520 -0.598530 0.034068
v -0.064064 -0.598530 0.014761
v -0.064064 -0.598530 0.014761
v -0.064064 -0.598530 0.034068
v -0.548520 -0.598530 0.014761
v -0.548520 -0.598530 0.034068
v -0.064064 -0.585731 0.014761
v -0.548520 -0.598530 0.014761
v -0.064064 -0.598530 0.014761
v -0.548520 -0.585731 0.014761
v -0.548520 -0.585731 0.014761
v -0.064064 -0.585731 0.014761
v -0.548520 -0.598530 0.014761
v -0.064064 -0.598530 0.014761
v -0.064064 -0.585731 0.014761
v -0.548520 -0.585731 0.013025
v -0.548520 -0.585731 0.014761
v -0.064064 -0.585731 0.013025
v -0.064064 -0.585731 0.013025
v -0.064064 -0.585731 0.014761
v -0.548520 -0.585731 0.013025
v -0.548520 -0.585731 0.014761
v -0.548520 -0.585731 0.013025
v -0.064064 -0.587700 0.013025
v -0.548520 -0.587700 0.013025
v -0.064064 -0.585731 0.013025
v -0.064064 -0.585731 0.013025
v -0.548520 -0.585731 0.013025
v -0.064064 -0.587700 0.013025
v -0.548520 -0.587700 0.013025
v -0.064064 -0.587700 0.013025
v -0.548520 -0.590640 0.006340
v -0.548520 -0.587700 0.013025
v -0.064064 -0.590640 0.006340
v -0.064064 -0.590640 0.006340
v -0.064064 -0.587700 0.013025
v -0.548520 -0.590640 0.006340
v -0.548520 -0.587700 0.013025
v -0.548520 -0.590640 0.004718
v -0.064064 -0.590640 0.004718
v -0.064064 -0.590640 0.004718
v -0.548520 -0.590640 0.004718
v -0.548520 -0.590640 0.004718
v -0.064064 -0.598530 0.004718
v -0.548520 -0.598530 0.004718
v -0.064064 -0.590640 0.004718
v -0.064064 -0.590640 0.004718
v -0.548520 -0.590640 0.004718
v -0.064064 -0.598530 0.004718
v -0.548520 -0.598530 0.004718
v -0.064064 -0.598530 0.004718
v -0.548520 -0.598530 0.002830
v -0.548520 -0.598530 0.004718
v -0.064064 -0.598530 0.002830
v -0.064064 -0.598530 0.002830
v -0.064064 -0.598530 0.004718
v -0.548520 -0.598530 0.002830
v -0.548520 -0.598530 0.004718
v -0.548520 -0.598530 0.002830
v -0.064064 -0.739100 0.002830
v -0.548520 -0.739100 0.002830
v -0.064064 -0.598530 0.002830
v -0.064064 -0.598530 0.002830
v -0.548520 -0.598530 0.002830
v -0.064064 -0.739100 0.002830
v -0.548520 -0.739100 0.002830
v -0.064064 -0.733158 0.031354
v -0.064064 -0.590463 0.037658
v -0.064064 -0.733158 0.037658
v -0.064064 -0.598530 0.034068
v -0.064064 -0.598530 0.014761
v -0.064064 -0.739100 0.002830
v -0.064064 -0.739100 0.031354
v -0.064064 -0.585731 0.014761
v -0.064064 -0.587700 0.013025
v -0.064064 -0.590640 0.006340
v -0.064064 -0.598530 0.004718
v -0.064064 -0.598530 0.002830
v -0.064064 -0.590640 0.004718
v -0.064064 -0.585731 0.013025
v -0.064064 -0.590463 0.034068
v -0.064064 -0.598530 0.034068
v -0.064064 -0.590463 0.037658
v -0.064064 -0.590463 0.034068
v -0.064064 -0.587700 0.013025
v -0.064064 -0.585731 0.014761
v -0.064064 -0.585731 0.013025
v -0.064064 -0.598530 0.004718
v -0.064064 -0.590640 0.006340
v -0.064064 -0.590640 0.004718
v -0.064064 -0.598530 0.002830
v -0.064064 -0.739100 0.002830
v -0.064064 -0.598530 0.014761
v -0.064064 -0.733158 0.031354
v -0.064064 -0.739100 0.031354
v -0.064064 -0.733158 0.037658
vn -1 0 0
vn 1 0 0
vn 0 -1 0
vn 0 1 0
vn 0 0 1
vn 0 0 -1
vn 0 0.9154021511538447 -0.40254055902842123
vn 0 0.9786220241266683 -0.20566704620386472
vn 0 -0.9786220241266683 0.20566704620386472
vn 0 -0.9154021511538447 0.40254055902842123
usemtl material_0_0
f 1//1 2//1 3//1
f 4//1 5//1 6//1
f 5//1 4//1 7//1
f 5//1 7//1 8//1
f 8//1 7//1 2//1
f 8//1 2//1 9//1
f 9//1 2//1 10//1
f 10//1 2//1 11//1
f 11//1 2//1 1//1
f 10//1 11//1 12//1
f 10//1 12//1 13//1
f 13//1 12//1 14//1
f 10//1 13//1 15//1
f 16//2 17//2 18//2
f 19//2 20//2 17//2
f 17//2 20//2 18//2
f 20//2 21//2 18//2
f 22//2 23//2 21//2
f 21//2 23//2 18//2
f 18//2 23//2 24//2
f 24//2 23//2 25//2
f 23//2 26//2 25//2
f 25//2 26//2 27//2
f 26//2 28//2 27//2
f 29//2 27//2 28//2
f 30//2 23//2 22//2
f 31//3 32//3 33//3
f 32//3 31//3 34//3
f 35//4 36//4 37//4
f 38//4 37//4 36//4
f 39//5 40//5 41//5
f 40//5 39//5 42//5
f 43//6 44//6 45//6
f 46//6 45//6 44//6
f 47//3 48//3 49//3
f 48//3 47//3 50//3
f 51//4 52//4 53//4
f 54//4 53//4 52//4
f 55//5 56//5 57//5
f 56//5 55//5 58//5
f 59//6 60//6 61//6
f 62//6 61//6 60//6
f 63//4 64//4 65//4
f 64//4 63//4 66//4
f 67//3 68//3 69//3
f 70//3 69//3 68//3
f 71//6 72//6 73//6
f 72//6 71//6 74//6
f 75//5 76//5 77//5
f 78//5 77//5 76//5
f 79//4 80//4 81//4
f 80//4 79//4 82//4
f 83//3 84//3 85//3
f 86//3 85//3 84//3
f 87//5 88//5 89//5
f 88//5 87//5 90//5
f 91//6 92//6 93//6
f 94//6 93//6 92//6
f 95//4 96//4 97//4
f 96//4 95//4 98//4
f 99//3 100//3 101//3
f 102//3 101//3 100//3
f 103//6 104//6 105//6
f 104//6 103//6 106//6
f 107//5 108//5 109//5
f 110//5 109//5 108//5
f 111//7 112//8 113//7
f 112//8 111//7 114//8
f 115//9 116//10 117//9
f 118//10 117//9 116//10
f 114//8 119//4 112//8
f 119//4 114//8 120//4
f 121//3 115//9 122//3
f 117//9 122//3 115//9
f 123//6 124//6 125//6
f 124//6 123//6 126//6
f 127//5 128//5 129//5
f 130//5 129//5 128//5
f 131//4 132//4 133//4
f 132//4 131//4 134//4
f 135//3 136//3 137//3
f 138//3 137//3 136//3
f 139//6 140//6 141//6
f 140//6 139//6 142//6
f 143//5 144//5 145//5
f 146//5 145//5 144//5
f 147//2 148//2 149//2
f 148//2 147//2 150//2
f 150//2 147//2 151//2
f 152//2 147//2 153//2
f 147//2 152//2 151//2
f 151//2 152//2 154//2
f 154//2 152//2 155//2
f 155//2 152//2 156//2
f 156//2 152//2 157//2
f 157//2 152//2 158//2
f 159//2 156//2 157//2
f 160//2 154//2 155//2
f 161//2 148//2 150//2
f 162//1 163//1 164//1
f 165//1 166//1 167//1
f 168//1 169//1 170//1
f 171//1 172//1 168//1
f 168//1 172//1 169//1
f 169//1 172//1 165//1
f 165//1 172//1 166//1
f 166//1 172//1 173//1
f 173//1 172//1 174//1
f 175//1 174//1 172//1
f 173//1 174//1 162//1
f 162//1 174//1 163//1
f 176//1 163//1 174//1
