# SSTK version 0.8.0
# 145
mtllib original-145.mtl
o instance_98/tlwsash_2/ID233#ID233
v 0.067969 0.678794 -0.034887
v 0.067969 0.691593 -0.015580
v 0.067969 0.678794 -0.015580
v 0.067969 0.691593 -0.034887
v 0.067969 0.691593 -0.034887
v 0.067969 0.678794 -0.034887
v 0.067969 0.691593 -0.015580
v 0.067969 0.678794 -0.015580
v 0.067969 0.678794 -0.046818
v -0.005363 0.678794 -0.018294
v -0.005363 0.678794 -0.046818
v 0.000579 0.678794 -0.018294
v 0.000579 0.678794 -0.011990
v 0.067969 0.678794 -0.034887
v 0.067969 0.678794 -0.044930
v 0.080768 0.678794 -0.034887
v 0.078799 0.678794 -0.036623
v 0.075860 0.678794 -0.043309
v 0.075860 0.678794 -0.044930
v 0.080768 0.678794 -0.036623
v 0.067969 0.678794 -0.015580
v 0.076036 0.678794 -0.011990
v 0.076036 0.678794 -0.015580
v 0.076036 0.678794 -0.015580
v 0.067969 0.678794 -0.015580
v 0.076036 0.678794 -0.011990
v 0.067969 0.678794 -0.034887
v 0.000579 0.678794 -0.011990
v 0.080768 0.678794 -0.036623
v 0.078799 0.678794 -0.036623
v 0.080768 0.678794 -0.034887
v 0.075860 0.678794 -0.044930
v 0.067969 0.678794 -0.044930
v 0.075860 0.678794 -0.043309
v 0.067969 0.678794 -0.046818
v 0.000579 0.678794 -0.018294
v -0.005363 0.678794 -0.018294
v -0.005363 0.678794 -0.046818
v 0.080768 0.691593 -0.034887
v 0.067969 0.678794 -0.034887
v 0.080768 0.678794 -0.034887
v 0.067969 0.691593 -0.034887
v 0.067969 0.691593 -0.034887
v 0.080768 0.691593 -0.034887
v 0.067969 0.678794 -0.034887
v 0.080768 0.678794 -0.034887
v 0.080768 0.691593 -0.034887
v 0.067969 0.691593 -0.015580
v 0.067969 0.691593 -0.034887
v 0.080768 0.691593 -0.015580
v 0.080768 0.691593 -0.015580
v 0.080768 0.691593 -0.034887
v 0.067969 0.691593 -0.015580
v 0.067969 0.691593 -0.034887
v 0.067969 0.691593 -0.015580
v 0.076036 0.678794 -0.015580
v 0.067969 0.678794 -0.015580
v 0.076036 0.683525 -0.015580
v 0.080768 0.683525 -0.015580
v 0.080768 0.691593 -0.015580
v 0.080768 0.691593 -0.015580
v 0.067969 0.691593 -0.015580
v 0.080768 0.683525 -0.015580
v 0.076036 0.683525 -0.015580
v 0.076036 0.678794 -0.015580
v 0.067969 0.678794 -0.015580
v 0.067969 0.678794 -0.046818
v 0.067969 0.691593 -0.044930
v 0.067969 0.678794 -0.044930
v 0.067969 0.691593 -0.046818
v 0.067969 0.691593 -0.046818
v 0.067969 0.678794 -0.046818
v 0.067969 0.691593 -0.044930
v 0.067969 0.678794 -0.044930
v 0.067969 0.691593 -0.044930
v 0.075860 0.678794 -0.044930
v 0.067969 0.678794 -0.044930
v 0.075860 0.683702 -0.044930
v 0.080768 0.683702 -0.044930
v 0.080768 0.691593 -0.044930
v 0.080768 0.691593 -0.044930
v 0.067969 0.691593 -0.044930
v 0.080768 0.683702 -0.044930
v 0.075860 0.683702 -0.044930
v 0.075860 0.678794 -0.044930
v 0.067969 0.678794 -0.044930
v 0.075860 0.678794 -0.044930
v 0.075860 0.683702 -0.043309
v 0.075860 0.678794 -0.043309
v 0.075860 0.683702 -0.044930
v 0.075860 0.683702 -0.044930
v 0.075860 0.678794 -0.044930
v 0.075860 0.683702 -0.043309
v 0.075860 0.678794 -0.043309
v 0.078799 0.680762 -0.036623
v 0.078799 0.678794 -0.036623
v 0.078799 0.680762 -0.036623
v 0.078799 0.678794 -0.036623
v 0.078799 0.680762 -0.036623
v 0.080768 0.678794 -0.036623
v 0.078799 0.678794 -0.036623
v 0.080768 0.680762 -0.036623
v 0.080768 0.680762 -0.036623
v 0.078799 0.680762 -0.036623
v 0.080768 0.678794 -0.036623
v 0.078799 0.678794 -0.036623
v 0.080768 0.678794 -0.036623
v 0.080768 0.691593 -0.034887
v 0.080768 0.678794 -0.034887
v 0.080768 0.683525 -0.015580
v 0.080768 0.758982 -0.011990
v 0.080768 0.683525 -0.011990
v 0.080768 0.691593 -0.015580
v 0.080768 0.758982 -0.018294
v 0.080768 0.764924 -0.018294
v 0.080768 0.764924 -0.046818
v 0.080768 0.680762 -0.036623
v 0.080768 0.683702 -0.043309
v 0.080768 0.691593 -0.044930
v 0.080768 0.683702 -0.044930
v 0.080768 0.691593 -0.046818
v 0.080768 0.691593 -0.046818
v 0.080768 0.691593 -0.044930
v 0.080768 0.764924 -0.046818
v 0.080768 0.683702 -0.044930
v 0.080768 0.683702 -0.043309
v 0.080768 0.680762 -0.036623
v 0.080768 0.678794 -0.036623
v 0.080768 0.691593 -0.034887
v 0.080768 0.764924 -0.018294
v 0.080768 0.758982 -0.018294
v 0.080768 0.691593 -0.015580
v 0.080768 0.758982 -0.011990
v 0.080768 0.683525 -0.015580
v 0.080768 0.683525 -0.011990
v 0.080768 0.678794 -0.034887
v 0.076036 0.678794 -0.015580
v 0.076036 0.683525 -0.011990
v 0.076036 0.678794 -0.011990
v 0.076036 0.683525 -0.015580
v 0.076036 0.683525 -0.015580
v 0.076036 0.678794 -0.015580
v 0.076036 0.683525 -0.011990
v 0.076036 0.678794 -0.011990
v 0.080768 0.758982 -0.011990
v 0.076036 0.683525 -0.011990
v 0.080768 0.683525 -0.011990
v 0.000579 0.678794 -0.011990
v 0.076036 0.678794 -0.011990
v 0.000579 0.758982 -0.011990
v 0.080768 0.758982 -0.011990
v 0.076036 0.683525 -0.011990
v 0.000579 0.758982 -0.011990
v 0.000579 0.678794 -0.011990
v 0.076036 0.678794 -0.011990
v 0.080768 0.683525 -0.011990
v 0.000579 0.758982 -0.018294
v 0.000579 0.678794 -0.011990
v 0.000579 0.758982 -0.011990
v 0.000579 0.678794 -0.018294
v 0.000579 0.678794 -0.018294
v 0.000579 0.758982 -0.018294
v 0.000579 0.678794 -0.011990
v 0.000579 0.758982 -0.011990
v 0.080768 0.764924 -0.018294
v 0.000579 0.758982 -0.018294
v 0.080768 0.758982 -0.018294
v -0.005363 0.678794 -0.018294
v 0.000579 0.678794 -0.018294
v -0.005363 0.764924 -0.018294
v 0.080768 0.764924 -0.018294
v 0.000579 0.758982 -0.018294
v -0.005363 0.764924 -0.018294
v -0.005363 0.678794 -0.018294
v 0.000579 0.678794 -0.018294
v 0.080768 0.758982 -0.018294
v -0.005363 0.764924 -0.046818
v -0.005363 0.678794 -0.018294
v -0.005363 0.764924 -0.018294
v -0.005363 0.678794 -0.046818
v -0.005363 0.678794 -0.046818
v -0.005363 0.764924 -0.046818
v -0.005363 0.678794 -0.018294
v -0.005363 0.764924 -0.018294
v -0.005363 0.764924 -0.046818
v 0.067969 0.678794 -0.046818
v -0.005363 0.678794 -0.046818
v 0.067969 0.691593 -0.046818
v 0.080768 0.691593 -0.046818
v 0.080768 0.764924 -0.046818
v 0.080768 0.764924 -0.046818
v -0.005363 0.764924 -0.046818
v 0.080768 0.691593 -0.046818
v 0.067969 0.691593 -0.046818
v 0.067969 0.678794 -0.046818
v -0.005363 0.678794 -0.046818
v 0.080768 0.683525 -0.015580
v 0.076036 0.683525 -0.011990
v 0.076036 0.683525 -0.015580
v 0.080768 0.683525 -0.011990
v 0.080768 0.683525 -0.011990
v 0.080768 0.683525 -0.015580
v 0.076036 0.683525 -0.011990
v 0.076036 0.683525 -0.015580
v 0.080768 0.691593 -0.046818
v 0.067969 0.691593 -0.044930
v 0.067969 0.691593 -0.046818
v 0.080768 0.691593 -0.044930
v 0.080768 0.691593 -0.044930
v 0.080768 0.691593 -0.046818
v 0.067969 0.691593 -0.044930
v 0.067969 0.691593 -0.046818
v 0.080768 0.683702 -0.044930
v 0.075860 0.683702 -0.043309
v 0.075860 0.683702 -0.044930
v 0.080768 0.683702 -0.043309
v 0.080768 0.683702 -0.043309
v 0.080768 0.683702 -0.044930
v 0.075860 0.683702 -0.043309
v 0.075860 0.683702 -0.044930
v 0.078799 0.680762 -0.036623
v 0.080768 0.680762 -0.036623
v 0.080768 0.680762 -0.036623
v 0.078799 0.680762 -0.036623
v 0.080768 0.764924 -0.018294
v -0.005363 0.764924 -0.046818
v -0.005363 0.764924 -0.018294
v 0.080768 0.764924 -0.046818
v 0.080768 0.764924 -0.046818
v 0.080768 0.764924 -0.018294
v -0.005363 0.764924 -0.046818
v -0.005363 0.764924 -0.018294
v 0.080768 0.758982 -0.011990
v 0.000579 0.758982 -0.018294
v 0.000579 0.758982 -0.011990
v 0.080768 0.758982 -0.018294
v 0.080768 0.758982 -0.018294
v 0.080768 0.758982 -0.011990
v 0.000579 0.758982 -0.018294
v 0.000579 0.758982 -0.011990
vn 1 0 0
vn -1 0 0
vn 0 -1 0
vn 0 1 0
vn 0 0 1
vn 0 0 -1
vn 0.984199501386806 0 -0.1770631002494943
vn 0.9786220324056013 0 -0.20566700681035455
vn -0.984199501386806 0 0.1770631002494943
vn -0.9786220324056013 0 0.20566700681035455
vn 0.9154021808199948 0 -0.40254049156575233
vn -0.9154021808199948 0 0.40254049156575233
vn 0 -0.984199501386806 -0.1770631002494945
vn 0 -0.9786220324056011 -0.2056670068103547
vn 0 0.9786220324056011 0.2056670068103547
vn 0 0.984199501386806 0.1770631002494945
vn 0 -0.9154021808199947 -0.40254049156575256
vn 0 0.9154021808199947 0.40254049156575256
usemtl material_0_0
f 1//1 2//1 3//1
f 2//1 1//1 4//1
f 5//2 6//2 7//2
f 8//2 7//2 6//2
f 9//3 10//3 11//3
f 10//3 9//3 12//3
f 12//3 9//3 13//3
f 13//3 9//3 14//3
f 14//3 9//3 15//3
f 14//3 15//3 16//3
f 16//3 15//3 17//3
f 17//3 15//3 18//3
f 18//3 15//3 19//3
f 16//3 17//3 20//3
f 13//3 21//3 22//3
f 21//3 13//3 14//3
f 22//3 21//3 23//3
f 24//4 25//4 26//4
f 27//4 28//4 25//4
f 26//4 25//4 28//4
f 29//4 30//4 31//4
f 32//4 33//4 34//4
f 34//4 33//4 30//4
f 30//4 33//4 31//4
f 31//4 33//4 27//4
f 33//4 35//4 27//4
f 27//4 35//4 28//4
f 28//4 35//4 36//4
f 36//4 35//4 37//4
f 38//4 37//4 35//4
f 39//5 40//5 41//5
f 40//5 39//5 42//5
f 43//6 44//6 45//6
f 46//6 45//6 44//6
f 47//3 48//3 49//3
f 48//3 47//3 50//3
f 51//4 52//4 53//4
f 54//4 53//4 52//4
f 55//6 56//6 57//6
f 56//6 55//6 58//6
f 58//6 55//6 59//6
f 59//6 55//6 60//6
f 61//5 62//5 63//5
f 63//5 62//5 64//5
f 64//5 62//5 65//5
f 66//5 65//5 62//5
f 67//1 68//1 69//1
f 68//1 67//1 70//1
f 71//2 72//2 73//2
f 74//2 73//2 72//2
f 75//6 76//6 77//6
f 76//6 75//6 78//6
f 78//6 75//6 79//6
f 79//6 75//6 80//6
f 81//5 82//5 83//5
f 83//5 82//5 84//5
f 84//5 82//5 85//5
f 86//5 85//5 82//5
f 87//1 88//7 89//8
f 88//7 87//1 90//1
f 91//2 92//2 93//9
f 94//10 93//9 92//2
f 89//8 95//11 96//11
f 95//11 89//8 88//7
f 93//9 94//10 97//12
f 98//12 97//12 94//10
f 99//6 100//6 101//6
f 100//6 99//6 102//6
f 103//5 104//5 105//5
f 106//5 105//5 104//5
f 107//1 108//1 109//1
f 110//1 111//1 112//1
f 111//1 110//1 113//1
f 111//1 113//1 114//1
f 114//1 113//1 108//1
f 114//1 108//1 115//1
f 115//1 108//1 116//1
f 116//1 108//1 117//1
f 117//1 108//1 107//1
f 116//1 117//1 118//1
f 116//1 118//1 119//1
f 119//1 118//1 120//1
f 116//1 119//1 121//1
f 122//2 123//2 124//2
f 125//2 126//2 123//2
f 123//2 126//2 124//2
f 126//2 127//2 124//2
f 128//2 129//2 127//2
f 127//2 129//2 124//2
f 124//2 129//2 130//2
f 130//2 129//2 131//2
f 129//2 132//2 131//2
f 131//2 132//2 133//2
f 132//2 134//2 133//2
f 135//2 133//2 134//2
f 136//2 129//2 128//2
f 137//1 138//1 139//1
f 138//1 137//1 140//1
f 141//2 142//2 143//2
f 144//2 143//2 142//2
f 145//5 146//5 147//5
f 146//5 148//5 149//5
f 148//5 146//5 150//5
f 150//5 146//5 145//5
f 151//6 152//6 153//6
f 153//6 152//6 154//6
f 155//6 154//6 152//6
f 156//6 152//6 151//6
f 157//2 158//2 159//2
f 158//2 157//2 160//2
f 161//1 162//1 163//1
f 164//1 163//1 162//1
f 165//5 166//5 167//5
f 166//5 168//5 169//5
f 168//5 166//5 170//5
f 170//5 166//5 165//5
f 171//6 172//6 173//6
f 173//6 172//6 174//6
f 175//6 174//6 172//6
f 176//6 172//6 171//6
f 177//2 178//2 179//2
f 178//2 177//2 180//2
f 181//1 182//1 183//1
f 184//1 183//1 182//1
f 185//6 186//6 187//6
f 186//6 185//6 188//6
f 188//6 185//6 189//6
f 189//6 185//6 190//6
f 191//5 192//5 193//5
f 193//5 192//5 194//5
f 194//5 192//5 195//5
f 196//5 195//5 192//5
f 197//3 198//3 199//3
f 198//3 197//3 200//3
f 201//4 202//4 203//4
f 204//4 203//4 202//4
f 205//3 206//3 207//3
f 206//3 205//3 208//3
f 209//4 210//4 211//4
f 212//4 211//4 210//4
f 213//3 214//13 215//3
f 214//13 213//3 216//14
f 217//15 218//4 219//16
f 220//4 219//16 218//4
f 216//14 221//17 214//13
f 221//17 216//14 222//17
f 223//18 217//15 224//18
f 219//16 224//18 217//15
f 225//4 226//4 227//4
f 226//4 225//4 228//4
f 229//3 230//3 231//3
f 232//3 231//3 230//3
f 233//4 234//4 235//4
f 234//4 233//4 236//4
f 237//3 238//3 239//3
f 240//3 239//3 238//3
