# SSTK version 0.8.0
# 9
mtllib original-9.mtl
o instance_8/raframe_2/ID55#ID55
v 0.652190 -0.757965 -0.013655
v 0.651343 -0.757965 -0.002804
v 0.651343 -0.757965 -0.013655
v 0.670056 -0.757965 0.023115
v 0.669218 -0.757965 0.037368
v 0.669218 -0.757965 0.023115
v 0.665650 -0.757965 0.037368
v 0.666499 -0.757965 0.038217
v 0.665650 -0.757965 0.042729
v 0.668519 -0.757965 0.038217
v 0.668519 -0.757965 0.044573
v 0.670056 -0.757965 0.044573
v 0.648131 -0.757965 -0.007764
v 0.647093 -0.757965 -0.001766
v 0.647093 -0.757965 -0.007764
v 0.648131 -0.757965 -0.002804
v 0.657206 -0.757965 -0.001766
v 0.652190 -0.757965 -0.002615
v 0.658099 -0.757965 -0.002615
v 0.657206 -0.757965 0.042607
v 0.657279 -0.757965 0.043579
v 0.658099 -0.757965 0.042729
v 0.659302 -0.757965 0.043579
v 0.663178 -0.757965 0.045334
v 0.666499 -0.757965 0.045334
v 0.641562 -0.757965 0.042611
v 0.640712 -0.757965 0.045297
v 0.640712 -0.757965 0.042611
v 0.641562 -0.757965 0.044390
v 0.651465 -0.757965 0.045297
v 0.651573 -0.757965 0.044390
v 0.657206 -0.757965 0.042607
v 0.651573 -0.757965 0.044390
v 0.657279 -0.757965 0.043579
v 0.651465 -0.757965 0.045297
v 0.641562 -0.757965 0.044390
v 0.640712 -0.757965 0.045297
v 0.641562 -0.757965 0.042611
v 0.640712 -0.757965 0.042611
v 0.666499 -0.757965 0.038217
v 0.665650 -0.757965 0.042729
v 0.666499 -0.757965 0.045334
v 0.663178 -0.757965 0.045334
v 0.659302 -0.757965 0.043579
v 0.658099 -0.757965 0.042729
v 0.658099 -0.757965 -0.002615
v 0.657206 -0.757965 -0.001766
v 0.652190 -0.757965 -0.002615
v 0.652190 -0.757965 -0.013655
v 0.651343 -0.757965 -0.002804
v 0.648131 -0.757965 -0.002804
v 0.647093 -0.757965 -0.001766
v 0.648131 -0.757965 -0.007764
v 0.647093 -0.757965 -0.007764
v 0.670056 -0.757965 0.023115
v 0.669218 -0.757965 0.037368
v 0.670056 -0.757965 0.044573
v 0.668519 -0.757965 0.044573
v 0.668519 -0.757965 0.038217
v 0.665650 -0.757965 0.037368
v 0.669218 -0.757965 0.023115
v 0.651343 -0.757965 -0.013655
v 0.670056 -0.757965 0.044573
v 0.670056 0.751224 0.023115
v 0.670056 0.751224 0.044573
v 0.670056 -0.757965 0.023115
v 0.670056 -0.757965 0.023115
v 0.670056 -0.757965 0.044573
v 0.670056 0.751224 0.023115
v 0.670056 0.751224 0.044573
v 0.670056 0.751224 0.044573
v 0.668519 -0.757965 0.044573
v 0.670056 -0.757965 0.044573
v 0.668519 0.751224 0.044573
v 0.668519 0.751224 0.044573
v 0.670056 0.751224 0.044573
v 0.668519 -0.757965 0.044573
v 0.670056 -0.757965 0.044573
v 0.668519 0.751224 0.038217
v 0.668519 -0.757965 0.044573
v 0.668519 0.751224 0.044573
v 0.668519 -0.757965 0.038217
v 0.668519 -0.757965 0.038217
v 0.668519 0.751224 0.038217
v 0.668519 -0.757965 0.044573
v 0.668519 0.751224 0.044573
v 0.668519 0.751224 0.038217
v 0.666499 -0.757965 0.038217
v 0.668519 -0.757965 0.038217
v 0.666499 0.751224 0.038217
v 0.666499 0.751224 0.038217
v 0.668519 0.751224 0.038217
v 0.666499 -0.757965 0.038217
v 0.668519 -0.757965 0.038217
v 0.666499 -0.757965 0.045334
v 0.666499 0.751224 0.038217
v 0.666499 0.751224 0.045334
v 0.666499 -0.757965 0.038217
v 0.666499 -0.757965 0.038217
v 0.666499 -0.757965 0.045334
v 0.666499 0.751224 0.038217
v 0.666499 0.751224 0.045334
v 0.666499 -0.757965 0.045334
v 0.663178 0.751224 0.045334
v 0.663178 -0.757965 0.045334
v 0.666499 0.751224 0.045334
v 0.666499 0.751224 0.045334
v 0.666499 -0.757965 0.045334
v 0.663178 0.751224 0.045334
v 0.663178 -0.757965 0.045334
v 0.659302 -0.757965 0.043579
v 0.659302 0.751224 0.043579
v 0.659302 0.751224 0.043579
v 0.659302 -0.757965 0.043579
v 0.657279 0.751224 0.043579
v 0.657279 -0.757965 0.043579
v 0.657279 0.751224 0.043579
v 0.657279 -0.757965 0.043579
v 0.651465 -0.757965 0.045297
v 0.651465 0.751224 0.045297
v 0.651465 0.751224 0.045297
v 0.651465 -0.757965 0.045297
v 0.640712 0.751224 0.045297
v 0.640712 -0.757965 0.045297
v 0.640712 0.751224 0.045297
v 0.640712 -0.757965 0.045297
v 0.640712 0.751224 0.042611
v 0.640712 -0.757965 0.045297
v 0.640712 0.751224 0.045297
v 0.640712 -0.757965 0.042611
v 0.640712 -0.757965 0.042611
v 0.640712 0.751224 0.042611
v 0.640712 -0.757965 0.045297
v 0.640712 0.751224 0.045297
v 0.640712 0.751224 0.042611
v 0.641562 -0.757965 0.042611
v 0.640712 -0.757965 0.042611
v 0.641562 0.751224 0.042611
v 0.641562 0.751224 0.042611
v 0.640712 0.751224 0.042611
v 0.641562 -0.757965 0.042611
v 0.640712 -0.757965 0.042611
v 0.641562 -0.757965 0.044390
v 0.641562 0.751224 0.042611
v 0.641562 0.751224 0.044390
v 0.641562 -0.757965 0.042611
v 0.641562 -0.757965 0.042611
v 0.641562 -0.757965 0.044390
v 0.641562 0.751224 0.042611
v 0.641562 0.751224 0.044390
v 0.641562 0.751224 0.044390
v 0.651573 -0.757965 0.044390
v 0.641562 -0.757965 0.044390
v 0.651573 0.751224 0.044390
v 0.651573 0.751224 0.044390
v 0.641562 0.751224 0.044390
v 0.651573 -0.757965 0.044390
v 0.641562 -0.757965 0.044390
v 0.657206 -0.757965 0.042607
v 0.657206 0.751224 0.042607
v 0.657206 0.751224 0.042607
v 0.657206 -0.757965 0.042607
v 0.657206 0.751224 -0.001766
v 0.657206 -0.757965 0.042607
v 0.657206 0.751224 0.042607
v 0.657206 -0.757965 -0.001766
v 0.657206 -0.757965 -0.001766
v 0.657206 0.751224 -0.001766
v 0.657206 -0.757965 0.042607
v 0.657206 0.751224 0.042607
v 0.657206 -0.757965 -0.001766
v 0.647093 0.751224 -0.001766
v 0.647093 -0.757965 -0.001766
v 0.657206 0.751224 -0.001766
v 0.657206 0.751224 -0.001766
v 0.657206 -0.757965 -0.001766
v 0.647093 0.751224 -0.001766
v 0.647093 -0.757965 -0.001766
v 0.647093 0.751224 -0.007764
v 0.647093 -0.757965 -0.001766
v 0.647093 0.751224 -0.001766
v 0.647093 -0.757965 -0.007764
v 0.647093 -0.757965 -0.007764
v 0.647093 0.751224 -0.007764
v 0.647093 -0.757965 -0.001766
v 0.647093 0.751224 -0.001766
v 0.647093 0.751224 -0.007764
v 0.648131 -0.757965 -0.007764
v 0.647093 -0.757965 -0.007764
v 0.648131 0.751224 -0.007764
v 0.648131 0.751224 -0.007764
v 0.647093 0.751224 -0.007764
v 0.648131 -0.757965 -0.007764
v 0.647093 -0.757965 -0.007764
v 0.648131 -0.757965 -0.002804
v 0.648131 0.751224 -0.007764
v 0.648131 0.751224 -0.002804
v 0.648131 -0.757965 -0.007764
v 0.648131 -0.757965 -0.007764
v 0.648131 -0.757965 -0.002804
v 0.648131 0.751224 -0.007764
v 0.648131 0.751224 -0.002804
v 0.648131 0.751224 -0.002804
v 0.651343 -0.757965 -0.002804
v 0.648131 -0.757965 -0.002804
v 0.651343 0.751224 -0.002804
v 0.651343 0.751224 -0.002804
v 0.648131 0.751224 -0.002804
v 0.651343 -0.757965 -0.002804
v 0.648131 -0.757965 -0.002804
v 0.651343 0.751224 -0.013655
v 0.651343 -0.757965 -0.002804
v 0.651343 0.751224 -0.002804
v 0.651343 -0.757965 -0.013655
v 0.651343 -0.757965 -0.013655
v 0.651343 0.751224 -0.013655
v 0.651343 -0.757965 -0.002804
v 0.651343 0.751224 -0.002804
v 0.651343 0.751224 -0.013655
v 0.652190 -0.757965 -0.013655
v 0.651343 -0.757965 -0.013655
v 0.652190 0.751224 -0.013655
v 0.652190 0.751224 -0.013655
v 0.651343 0.751224 -0.013655
v 0.652190 -0.757965 -0.013655
v 0.651343 -0.757965 -0.013655
v 0.652190 -0.757965 -0.002615
v 0.652190 0.751224 -0.013655
v 0.652190 0.751224 -0.002615
v 0.652190 -0.757965 -0.013655
v 0.652190 -0.757965 -0.013655
v 0.652190 -0.757965 -0.002615
v 0.652190 0.751224 -0.013655
v 0.652190 0.751224 -0.002615
v 0.652190 0.751224 -0.002615
v 0.658099 -0.757965 -0.002615
v 0.652190 -0.757965 -0.002615
v 0.658099 0.751224 -0.002615
v 0.658099 0.751224 -0.002615
v 0.652190 0.751224 -0.002615
v 0.658099 -0.757965 -0.002615
v 0.652190 -0.757965 -0.002615
v 0.658099 -0.757965 0.042729
v 0.658099 0.751224 -0.002615
v 0.658099 0.751224 0.042729
v 0.658099 -0.757965 -0.002615
v 0.658099 -0.757965 -0.002615
v 0.658099 -0.757965 0.042729
v 0.658099 0.751224 -0.002615
v 0.658099 0.751224 0.042729
v 0.658099 0.751224 0.042729
v 0.665650 -0.757965 0.042729
v 0.658099 -0.757965 0.042729
v 0.665650 0.751224 0.042729
v 0.665650 0.751224 0.042729
v 0.658099 0.751224 0.042729
v 0.665650 -0.757965 0.042729
v 0.658099 -0.757965 0.042729
v 0.665650 0.751224 0.037368
v 0.665650 -0.757965 0.042729
v 0.665650 0.751224 0.042729
v 0.665650 -0.757965 0.037368
v 0.665650 -0.757965 0.037368
v 0.665650 0.751224 0.037368
v 0.665650 -0.757965 0.042729
v 0.665650 0.751224 0.042729
v 0.665650 0.751224 0.037368
v 0.669218 -0.757965 0.037368
v 0.665650 -0.757965 0.037368
v 0.669218 0.751224 0.037368
v 0.669218 0.751224 0.037368
v 0.665650 0.751224 0.037368
v 0.669218 -0.757965 0.037368
v 0.665650 -0.757965 0.037368
v 0.669218 0.751224 0.023115
v 0.669218 -0.757965 0.037368
v 0.669218 0.751224 0.037368
v 0.669218 -0.757965 0.023115
v 0.669218 -0.757965 0.023115
v 0.669218 0.751224 0.023115
v 0.669218 -0.757965 0.037368
v 0.669218 0.751224 0.037368
v 0.669218 0.751224 0.023115
v 0.670056 -0.757965 0.023115
v 0.669218 -0.757965 0.023115
v 0.670056 0.751224 0.023115
v 0.670056 0.751224 0.023115
v 0.669218 0.751224 0.023115
v 0.670056 -0.757965 0.023115
v 0.669218 -0.757965 0.023115
v 0.640712 0.751224 0.045297
v 0.641562 0.751224 0.044390
v 0.640712 0.751224 0.042611
v 0.651465 0.751224 0.045297
v 0.651573 0.751224 0.044390
v 0.657279 0.751224 0.043579
v 0.657206 0.751224 0.042607
v 0.657206 0.751224 -0.001766
v 0.670056 0.751224 0.044573
v 0.668519 0.751224 0.038217
v 0.668519 0.751224 0.044573
v 0.669218 0.751224 0.037368
v 0.669218 0.751224 0.023115
v 0.670056 0.751224 0.023115
v 0.659302 0.751224 0.043579
v 0.658099 0.751224 0.042729
v 0.665650 0.751224 0.042729
v 0.663178 0.751224 0.045334
v 0.666499 0.751224 0.045334
v 0.665650 0.751224 0.037368
v 0.666499 0.751224 0.038217
v 0.647093 0.751224 -0.001766
v 0.648131 0.751224 -0.002804
v 0.647093 0.751224 -0.007764
v 0.652190 0.751224 -0.002615
v 0.651343 0.751224 -0.002804
v 0.651343 0.751224 -0.013655
v 0.658099 0.751224 -0.002615
v 0.652190 0.751224 -0.013655
v 0.648131 0.751224 -0.007764
v 0.641562 0.751224 0.042611
v 0.641562 0.751224 0.044390
v 0.640712 0.751224 0.042611
v 0.641562 0.751224 0.042611
v 0.648131 0.751224 -0.002804
v 0.647093 0.751224 -0.007764
v 0.648131 0.751224 -0.007764
v 0.652190 0.751224 -0.002615
v 0.651343 0.751224 -0.013655
v 0.652190 0.751224 -0.013655
v 0.658099 0.751224 0.042729
v 0.657279 0.751224 0.043579
v 0.658099 0.751224 -0.002615
v 0.657206 0.751224 -0.001766
v 0.651343 0.751224 -0.002804
v 0.647093 0.751224 -0.001766
v 0.668519 0.751224 0.038217
v 0.666499 0.751224 0.038217
v 0.669218 0.751224 0.037368
v 0.665650 0.751224 0.037368
v 0.666499 0.751224 0.045334
v 0.665650 0.751224 0.042729
v 0.663178 0.751224 0.045334
v 0.659302 0.751224 0.043579
v 0.670056 0.751224 0.023115
v 0.670056 0.751224 0.044573
v 0.669218 0.751224 0.023115
v 0.668519 0.751224 0.044573
v 0.657206 0.751224 0.042607
v 0.651573 0.751224 0.044390
v 0.651465 0.751224 0.045297
v 0.640712 0.751224 0.045297
vn 0 -1 0
vn 0 1 0
vn 1 0 0
vn -1 0 0
vn 0 0 1
vn 0 0 -1
vn -0.2110491525052226 0 0.9774754499356121
vn 0.2110491525052226 0 -0.9774754499356121
vn 0.14319873625640311 0 0.9896939536718253
vn -0.14319873625640311 0 -0.9896939536718253
vn -0.15274565110805582 0 -0.9882655341898633
vn 0.15274565110805582 0 0.9882655341898633
vn -0.3019065938420716 0 -0.9533375103260536
vn 0.3019065938420716 0 0.9533375103260536
usemtl material_0_0
f 1//1 2//1 3//1
f 4//1 5//1 6//1
f 7//1 8//1 9//1
f 8//1 7//1 5//1
f 8//1 5//1 10//1
f 10//1 5//1 11//1
f 11//1 5//1 12//1
f 12//1 5//1 4//1
f 13//1 14//1 15//1
f 14//1 13//1 16//1
f 14//1 16//1 17//1
f 17//1 16//1 18//1
f 18//1 16//1 2//1
f 18//1 2//1 1//1
f 17//1 18//1 19//1
f 17//1 19//1 20//1
f 20//1 19//1 21//1
f 21//1 19//1 22//1
f 21//1 22//1 23//1
f 23//1 22//1 9//1
f 23//1 9//1 24//1
f 24//1 9//1 25//1
f 25//1 9//1 8//1
f 26//1 27//1 28//1
f 27//1 26//1 29//1
f 27//1 29//1 30//1
f 30//1 29//1 31//1
f 30//1 31//1 21//1
f 21//1 31//1 20//1
f 32//2 33//2 34//2
f 34//2 33//2 35//2
f 33//2 36//2 35//2
f 35//2 36//2 37//2
f 36//2 38//2 37//2
f 39//2 37//2 38//2
f 40//2 41//2 42//2
f 42//2 41//2 43//2
f 43//2 41//2 44//2
f 41//2 45//2 44//2
f 44//2 45//2 34//2
f 45//2 46//2 34//2
f 34//2 46//2 32//2
f 32//2 46//2 47//2
f 46//2 48//2 47//2
f 49//2 50//2 48//2
f 50//2 51//2 48//2
f 48//2 51//2 47//2
f 47//2 51//2 52//2
f 51//2 53//2 52//2
f 54//2 52//2 53//2
f 55//2 56//2 57//2
f 57//2 56//2 58//2
f 58//2 56//2 59//2
f 59//2 56//2 40//2
f 56//2 60//2 40//2
f 41//2 40//2 60//2
f 61//2 56//2 55//2
f 62//2 50//2 49//2
f 63//3 64//3 65//3
f 64//3 63//3 66//3
f 67//4 68//4 69//4
f 70//4 69//4 68//4
f 71//5 72//5 73//5
f 72//5 71//5 74//5
f 75//6 76//6 77//6
f 78//6 77//6 76//6
f 79//4 80//4 81//4
f 80//4 79//4 82//4
f 83//3 84//3 85//3
f 86//3 85//3 84//3
f 87//5 88//5 89//5
f 88//5 87//5 90//5
f 91//6 92//6 93//6
f 94//6 93//6 92//6
f 95//3 96//3 97//3
f 96//3 95//3 98//3
f 99//4 100//4 101//4
f 102//4 101//4 100//4
f 103//5 104//7 105//7
f 104//7 103//5 106//5
f 107//6 108//6 109//8
f 110//8 109//8 108//6
f 104//7 111//7 105//7
f 111//7 104//7 112//7
f 113//8 109//8 114//8
f 110//8 114//8 109//8
f 111//7 115//9 116//9
f 115//9 111//7 112//7
f 113//8 114//8 117//10
f 118//10 117//10 114//8
f 115//9 119//9 116//9
f 119//9 115//9 120//9
f 121//10 117//10 122//10
f 118//10 122//10 117//10
f 119//9 123//5 124//5
f 123//5 119//9 120//9
f 121//10 122//10 125//6
f 126//6 125//6 122//10
f 127//4 128//4 129//4
f 128//4 127//4 130//4
f 131//3 132//3 133//3
f 134//3 133//3 132//3
f 135//6 136//6 137//6
f 136//6 135//6 138//6
f 139//5 140//5 141//5
f 142//5 141//5 140//5
f 143//3 144//3 145//3
f 144//3 143//3 146//3
f 147//4 148//4 149//4
f 150//4 149//4 148//4
f 151//6 152//11 153//6
f 152//11 151//6 154//11
f 155//12 156//5 157//12
f 158//5 157//12 156//5
f 154//11 159//13 152//11
f 159//13 154//11 160//13
f 161//14 155//12 162//14
f 157//12 162//14 155//12
f 163//4 164//4 165//4
f 164//4 163//4 166//4
f 167//3 168//3 169//3
f 170//3 169//3 168//3
f 171//5 172//5 173//5
f 172//5 171//5 174//5
f 175//6 176//6 177//6
f 178//6 177//6 176//6
f 179//4 180//4 181//4
f 180//4 179//4 182//4
f 183//3 184//3 185//3
f 186//3 185//3 184//3
f 187//6 188//6 189//6
f 188//6 187//6 190//6
f 191//5 192//5 193//5
f 194//5 193//5 192//5
f 195//3 196//3 197//3
f 196//3 195//3 198//3
f 199//4 200//4 201//4
f 202//4 201//4 200//4
f 203//6 204//6 205//6
f 204//6 203//6 206//6
f 207//5 208//5 209//5
f 210//5 209//5 208//5
f 211//4 212//4 213//4
f 212//4 211//4 214//4
f 215//3 216//3 217//3
f 218//3 217//3 216//3
f 219//6 220//6 221//6
f 220//6 219//6 222//6
f 223//5 224//5 225//5
f 226//5 225//5 224//5
f 227//3 228//3 229//3
f 228//3 227//3 230//3
f 231//4 232//4 233//4
f 234//4 233//4 232//4
f 235//6 236//6 237//6
f 236//6 235//6 238//6
f 239//5 240//5 241//5
f 242//5 241//5 240//5
f 243//3 244//3 245//3
f 244//3 243//3 246//3
f 247//4 248//4 249//4
f 250//4 249//4 248//4
f 251//6 252//6 253//6
f 252//6 251//6 254//6
f 255//5 256//5 257//5
f 258//5 257//5 256//5
f 259//4 260//4 261//4
f 260//4 259//4 262//4
f 263//3 264//3 265//3
f 266//3 265//3 264//3
f 267//6 268//6 269//6
f 268//6 267//6 270//6
f 271//5 272//5 273//5
f 274//5 273//5 272//5
f 275//4 276//4 277//4
f 276//4 275//4 278//4
f 279//3 280//3 281//3
f 282//3 281//3 280//3
f 283//6 284//6 285//6
f 284//6 283//6 286//6
f 287//5 288//5 289//5
f 290//5 289//5 288//5
f 291//2 292//2 293//2
f 292//2 291//2 294//2
f 292//2 294//2 295//2
f 295//2 294//2 296//2
f 295//2 296//2 297//2
f 297//2 296//2 298//2
f 299//2 300//2 301//2
f 300//2 299//2 302//2
f 302//2 299//2 303//2
f 303//2 299//2 304//2
f 305//2 306//2 296//2
f 306//2 305//2 307//2
f 307//2 305//2 308//2
f 307//2 308//2 309//2
f 307//2 309//2 310//2
f 310//2 309//2 311//2
f 310//2 311//2 302//2
f 302//2 311//2 300//2
f 312//2 313//2 314//2
f 313//2 312//2 298//2
f 313//2 298//2 315//2
f 313//2 315//2 316//2
f 316//2 315//2 317//2
f 315//2 298//2 318//2
f 318//2 298//2 296//2
f 318//2 296//2 306//2
f 319//2 317//2 315//2
f 320//2 314//2 313//2
f 321//2 293//2 292//2
f 322//1 323//1 324//1
f 325//1 326//1 327//1
f 328//1 329//1 330//1
f 331//1 332//1 333//1
f 332//1 334//1 333//1
f 333//1 334//1 328//1
f 329//1 328//1 335//1
f 335//1 328//1 325//1
f 328//1 334//1 325//1
f 334//1 336//1 325//1
f 326//1 325//1 336//1
f 337//1 338//1 339//1
f 339//1 338//1 340//1
f 338//1 341//1 340//1
f 340//1 341//1 342//1
f 341//1 343//1 342//1
f 343//1 344//1 342//1
f 342//1 344//1 331//1
f 332//1 331//1 344//1
f 345//1 346//1 347//1
f 347//1 346//1 339//1
f 339//1 346//1 337//1
f 348//1 337//1 346//1
f 334//1 332//1 349//1
f 349//1 332//1 350//1
f 332//1 351//1 350//1
f 350//1 351//1 322//1
f 351//1 352//1 322//1
f 323//1 322//1 352//1
