# SSTK version 0.8.0
# 35
mtllib original-35.mtl
o instance_34/rwsash_2/ID241#ID241
v -0.051265 -0.585731 0.004718
v -0.059155 -0.585731 0.006340
v -0.059155 -0.585731 0.004718
v 0.022067 -0.585731 0.002830
v -0.051265 -0.585731 0.002830
v -0.051265 -0.585731 0.014761
v -0.051265 -0.585731 0.034068
v 0.016125 -0.585731 0.031354
v 0.022067 -0.585731 0.031354
v -0.059332 -0.585731 0.037658
v -0.059332 -0.585731 0.034068
v 0.016125 -0.585731 0.037658
v -0.062095 -0.585731 0.013025
v -0.064064 -0.585731 0.014761
v -0.064064 -0.585731 0.013025
v -0.051265 -0.585731 0.004718
v -0.059155 -0.585731 0.006340
v -0.051265 -0.585731 0.014761
v -0.062095 -0.585731 0.013025
v -0.064064 -0.585731 0.014761
v -0.064064 -0.585731 0.013025
v 0.016125 -0.585731 0.031354
v -0.051265 -0.585731 0.034068
v 0.016125 -0.585731 0.037658
v -0.059332 -0.585731 0.037658
v -0.059332 -0.585731 0.034068
v 0.022067 -0.585731 0.031354
v 0.022067 -0.585731 0.002830
v -0.051265 -0.585731 0.002830
v -0.059155 -0.585731 0.004718
v -0.051265 0.678794 0.002830
v -0.051265 -0.585731 0.004718
v -0.051265 0.678794 0.004718
v -0.051265 -0.585731 0.002830
v -0.051265 -0.585731 0.002830
v -0.051265 0.678794 0.002830
v -0.051265 -0.585731 0.004718
v -0.051265 0.678794 0.004718
v -0.051265 0.678794 0.002830
v 0.022067 -0.585731 0.002830
v -0.051265 -0.585731 0.002830
v 0.022067 0.678794 0.002830
v 0.022067 0.678794 0.002830
v -0.051265 0.678794 0.002830
v 0.022067 -0.585731 0.002830
v -0.051265 -0.585731 0.002830
v 0.022067 -0.585731 0.002830
v 0.022067 0.678794 0.031354
v 0.022067 -0.585731 0.031354
v 0.022067 0.678794 0.002830
v 0.022067 0.678794 0.002830
v 0.022067 -0.585731 0.002830
v 0.022067 0.678794 0.031354
v 0.022067 -0.585731 0.031354
v 0.022067 0.678794 0.031354
v 0.016125 -0.585731 0.031354
v 0.022067 -0.585731 0.031354
v 0.016125 0.678794 0.031354
v 0.016125 0.678794 0.031354
v 0.022067 0.678794 0.031354
v 0.016125 -0.585731 0.031354
v 0.022067 -0.585731 0.031354
v 0.016125 -0.585731 0.031354
v 0.016125 0.678794 0.037658
v 0.016125 -0.585731 0.037658
v 0.016125 0.678794 0.031354
v 0.016125 0.678794 0.031354
v 0.016125 -0.585731 0.031354
v 0.016125 0.678794 0.037658
v 0.016125 -0.585731 0.037658
v 0.016125 0.678794 0.037658
v -0.059332 -0.585731 0.037658
v 0.016125 -0.585731 0.037658
v -0.059332 0.678794 0.037658
v -0.059332 0.678794 0.037658
v 0.016125 0.678794 0.037658
v -0.059332 -0.585731 0.037658
v 0.016125 -0.585731 0.037658
v -0.059332 0.678794 0.034068
v -0.059332 -0.585731 0.037658
v -0.059332 0.678794 0.037658
v -0.059332 -0.585731 0.034068
v -0.059332 -0.585731 0.034068
v -0.059332 0.678794 0.034068
v -0.059332 -0.585731 0.037658
v -0.059332 0.678794 0.037658
v -0.059332 0.678794 0.034068
v -0.051265 -0.585731 0.034068
v -0.059332 -0.585731 0.034068
v -0.051265 0.678794 0.034068
v -0.051265 0.678794 0.034068
v -0.059332 0.678794 0.034068
v -0.051265 -0.585731 0.034068
v -0.059332 -0.585731 0.034068
v -0.051265 0.678794 0.014761
v -0.051265 -0.585731 0.034068
v -0.051265 0.678794 0.034068
v -0.051265 -0.585731 0.014761
v -0.051265 -0.585731 0.014761
v -0.051265 0.678794 0.014761
v -0.051265 -0.585731 0.034068
v -0.051265 0.678794 0.034068
v -0.051265 0.678794 0.014761
v -0.064064 -0.585731 0.014761
v -0.051265 -0.585731 0.014761
v -0.064064 0.678794 0.014761
v -0.064064 0.678794 0.014761
v -0.051265 0.678794 0.014761
v -0.064064 -0.585731 0.014761
v -0.051265 -0.585731 0.014761
v -0.064064 0.678794 0.013025
v -0.064064 -0.585731 0.014761
v -0.064064 0.678794 0.014761
v -0.064064 -0.585731 0.013025
v -0.064064 -0.585731 0.013025
v -0.064064 0.678794 0.013025
v -0.064064 -0.585731 0.014761
v -0.064064 0.678794 0.014761
v -0.064064 0.678794 0.013025
v -0.062095 -0.585731 0.013025
v -0.064064 -0.585731 0.013025
v -0.062095 0.678794 0.013025
v -0.062095 0.678794 0.013025
v -0.064064 0.678794 0.013025
v -0.062095 -0.585731 0.013025
v -0.064064 -0.585731 0.013025
v -0.059155 0.678794 0.006340
v -0.062095 -0.585731 0.013025
v -0.062095 0.678794 0.013025
v -0.059155 -0.585731 0.006340
v -0.059155 -0.585731 0.006340
v -0.059155 0.678794 0.006340
v -0.062095 -0.585731 0.013025
v -0.062095 0.678794 0.013025
v -0.059155 0.678794 0.004718
v -0.059155 -0.585731 0.004718
v -0.059155 -0.585731 0.004718
v -0.059155 0.678794 0.004718
v -0.059155 0.678794 0.004718
v -0.051265 -0.585731 0.004718
v -0.059155 -0.585731 0.004718
v -0.051265 0.678794 0.004718
v -0.051265 0.678794 0.004718
v -0.059155 0.678794 0.004718
v -0.051265 -0.585731 0.004718
v -0.059155 -0.585731 0.004718
v 0.016125 0.678794 0.037658
v -0.059332 0.678794 0.034068
v -0.059332 0.678794 0.037658
v -0.051265 0.678794 0.034068
v -0.051265 0.678794 0.014761
v -0.064064 0.678794 0.013025
v -0.064064 0.678794 0.014761
v -0.062095 0.678794 0.013025
v -0.059155 0.678794 0.006340
v -0.059155 0.678794 0.004718
v -0.051265 0.678794 0.004718
v -0.051265 0.678794 0.002830
v 0.022067 0.678794 0.002830
v 0.016125 0.678794 0.031354
v 0.022067 0.678794 0.031354
v 0.022067 0.678794 0.031354
v 0.016125 0.678794 0.031354
v 0.022067 0.678794 0.002830
v 0.016125 0.678794 0.037658
v -0.051265 0.678794 0.014761
v -0.051265 0.678794 0.002830
v -0.051265 0.678794 0.004718
v -0.059155 0.678794 0.004718
v -0.059155 0.678794 0.006340
v -0.062095 0.678794 0.013025
v -0.064064 0.678794 0.013025
v -0.064064 0.678794 0.014761
v -0.051265 0.678794 0.034068
v -0.059332 0.678794 0.034068
v -0.059332 0.678794 0.037658
vn 0 -1 0
vn 0 1 0
vn -1 0 0
vn 1 0 0
vn 0 0 -1
vn 0 0 1
vn -0.978622028266135 0 -0.20566702650710988
vn -0.91540216598692 0 -0.40254052529708767
vn 0.978622028266135 0 0.20566702650710988
vn 0.91540216598692 0 0.40254052529708767
usemtl material_0_0
f 1//1 2//1 3//1
f 4//1 1//1 5//1
f 1//1 4//1 6//1
f 6//1 4//1 7//1
f 7//1 4//1 8//1
f 8//1 4//1 9//1
f 7//1 10//1 11//1
f 10//1 7//1 12//1
f 12//1 7//1 8//1
f 13//1 14//1 15//1
f 14//1 13//1 6//1
f 6//1 13//1 2//1
f 6//1 2//1 1//1
f 16//2 17//2 18//2
f 17//2 19//2 18//2
f 18//2 19//2 20//2
f 21//2 20//2 19//2
f 22//2 23//2 24//2
f 24//2 23//2 25//2
f 26//2 25//2 23//2
f 27//2 28//2 22//2
f 22//2 28//2 23//2
f 23//2 28//2 18//2
f 18//2 28//2 16//2
f 29//2 16//2 28//2
f 30//2 17//2 16//2
f 31//3 32//3 33//3
f 32//3 31//3 34//3
f 35//4 36//4 37//4
f 38//4 37//4 36//4
f 39//5 40//5 41//5
f 40//5 39//5 42//5
f 43//6 44//6 45//6
f 46//6 45//6 44//6
f 47//4 48//4 49//4
f 48//4 47//4 50//4
f 51//3 52//3 53//3
f 54//3 53//3 52//3
f 55//6 56//6 57//6
f 56//6 55//6 58//6
f 59//5 60//5 61//5
f 62//5 61//5 60//5
f 63//4 64//4 65//4
f 64//4 63//4 66//4
f 67//3 68//3 69//3
f 70//3 69//3 68//3
f 71//6 72//6 73//6
f 72//6 71//6 74//6
f 75//5 76//5 77//5
f 78//5 77//5 76//5
f 79//3 80//3 81//3
f 80//3 79//3 82//3
f 83//4 84//4 85//4
f 86//4 85//4 84//4
f 87//5 88//5 89//5
f 88//5 87//5 90//5
f 91//6 92//6 93//6
f 94//6 93//6 92//6
f 95//3 96//3 97//3
f 96//3 95//3 98//3
f 99//4 100//4 101//4
f 102//4 101//4 100//4
f 103//6 104//6 105//6
f 104//6 103//6 106//6
f 107//5 108//5 109//5
f 110//5 109//5 108//5
f 111//3 112//3 113//3
f 112//3 111//3 114//3
f 115//4 116//4 117//4
f 118//4 117//4 116//4
f 119//5 120//5 121//5
f 120//5 119//5 122//5
f 123//6 124//6 125//6
f 126//6 125//6 124//6
f 127//7 128//8 129//8
f 128//8 127//7 130//7
f 131//9 132//9 133//10
f 134//10 133//10 132//9
f 135//3 130//7 127//7
f 130//7 135//3 136//3
f 137//4 138//4 131//9
f 132//9 131//9 138//4
f 139//5 140//5 141//5
f 140//5 139//5 142//5
f 143//6 144//6 145//6
f 146//6 145//6 144//6
f 147//2 148//2 149//2
f 148//2 147//2 150//2
f 150//2 147//2 151//2
f 151//2 152//2 153//2
f 152//2 151//2 154//2
f 154//2 151//2 155//2
f 155//2 151//2 156//2
f 156//2 151//2 157//2
f 157//2 151//2 158//2
f 158//2 151//2 159//2
f 159//2 151//2 160//2
f 160//2 151//2 147//2
f 159//2 160//2 161//2
f 162//1 163//1 164//1
f 165//1 166//1 163//1
f 163//1 166//1 164//1
f 164//1 166//1 167//1
f 167//1 166//1 168//1
f 168//1 166//1 169//1
f 169//1 166//1 170//1
f 170//1 166//1 171//1
f 171//1 166//1 172//1
f 173//1 172//1 166//1
f 166//1 165//1 174//1
f 174//1 165//1 175//1
f 176//1 175//1 165//1
