# SSTK version 0.8.0
# 8
mtllib original-8.mtl
o instance_7/baframe_4/ID45#ID45
v 0.647931 -0.754353 0.045297
v -0.652545 -0.753903 0.039623
v -0.652545 -0.754353 0.045297
v 0.647931 -0.753903 0.039623
v 0.647931 -0.753903 0.039623
v 0.647931 -0.754353 0.045297
v -0.652545 -0.753903 0.039623
v -0.652545 -0.754353 0.045297
v 0.647931 -0.757965 0.045297
v 0.647931 -0.756795 0.044032
v 0.647931 -0.754353 0.045297
v 0.647931 -0.757965 0.041219
v 0.647931 -0.756795 0.041219
v 0.647931 -0.755703 0.044032
v 0.647931 -0.753903 0.039623
v 0.647931 -0.755368 0.039514
v 0.647931 -0.755368 0.039514
v 0.647931 -0.755703 0.044032
v 0.647931 -0.753903 0.039623
v 0.647931 -0.756795 0.044032
v 0.647931 -0.754353 0.045297
v 0.647931 -0.756795 0.041219
v 0.647931 -0.757965 0.041219
v 0.647931 -0.757965 0.045297
v 0.657195 -0.751109 0.039831
v 0.647931 -0.755368 0.039514
v 0.657195 -0.755368 0.039514
v 0.647931 -0.753903 0.039623
v -0.652545 -0.753903 0.039623
v -0.661809 -0.755368 0.039514
v -0.652545 -0.755368 0.039514
v -0.661809 -0.751109 0.039831
v 0.657195 -0.751109 0.039831
v -0.652545 -0.753903 0.039623
v -0.661809 -0.751109 0.039831
v -0.661809 -0.755368 0.039514
v -0.652545 -0.755368 0.039514
v 0.647931 -0.753903 0.039623
v 0.647931 -0.755368 0.039514
v 0.657195 -0.755368 0.039514
v -0.652545 -0.754353 0.045297
v -0.652545 -0.755703 0.044032
v -0.652545 -0.757965 0.045297
v -0.652545 -0.753903 0.039623
v -0.652545 -0.755368 0.039514
v -0.652545 -0.756795 0.044032
v -0.652545 -0.757965 0.041219
v -0.652545 -0.756795 0.041219
v -0.652545 -0.756795 0.041219
v -0.652545 -0.756795 0.044032
v -0.652545 -0.757965 0.041219
v -0.652545 -0.755703 0.044032
v -0.652545 -0.757965 0.045297
v -0.652545 -0.755368 0.039514
v -0.652545 -0.753903 0.039623
v -0.652545 -0.754353 0.045297
v 0.647931 -0.754353 0.045297
v -0.652545 -0.757965 0.045297
v 0.647931 -0.757965 0.045297
v -0.652545 -0.754353 0.045297
v -0.652545 -0.754353 0.045297
v 0.647931 -0.754353 0.045297
v -0.652545 -0.757965 0.045297
v 0.647931 -0.757965 0.045297
v 0.657195 -0.753940 0.020263
v -0.661809 -0.755368 0.039514
v -0.661809 -0.753940 0.020263
v -0.652545 -0.755368 0.039514
v -0.652545 -0.755703 0.044032
v 0.647931 -0.755368 0.039514
v 0.657195 -0.755368 0.039514
v 0.647931 -0.755703 0.044032
v 0.647931 -0.755368 0.039514
v -0.652545 -0.755703 0.044032
v 0.647931 -0.755703 0.044032
v 0.657195 -0.755368 0.039514
v 0.657195 -0.753940 0.020263
v -0.652545 -0.755368 0.039514
v -0.661809 -0.755368 0.039514
v -0.661809 -0.753940 0.020263
v 0.647931 -0.757965 0.041219
v -0.652545 -0.757965 0.045297
v -0.652545 -0.757965 0.041219
v 0.647931 -0.757965 0.045297
v 0.647931 -0.757965 0.045297
v 0.647931 -0.757965 0.041219
v -0.652545 -0.757965 0.045297
v -0.652545 -0.757965 0.041219
v -0.652545 -0.756795 0.041219
v 0.647931 -0.757965 0.041219
v -0.652545 -0.757965 0.041219
v 0.647931 -0.756795 0.041219
v 0.647931 -0.756795 0.041219
v -0.652545 -0.756795 0.041219
v 0.647931 -0.757965 0.041219
v -0.652545 -0.757965 0.041219
v 0.647931 -0.756795 0.044032
v -0.652545 -0.756795 0.041219
v -0.652545 -0.756795 0.044032
v 0.647931 -0.756795 0.041219
v 0.647931 -0.756795 0.041219
v 0.647931 -0.756795 0.044032
v -0.652545 -0.756795 0.041219
v -0.652545 -0.756795 0.044032
v -0.652545 -0.755703 0.044032
v 0.647931 -0.756795 0.044032
v -0.652545 -0.756795 0.044032
v 0.647931 -0.755703 0.044032
v 0.647931 -0.755703 0.044032
v -0.652545 -0.755703 0.044032
v 0.647931 -0.756795 0.044032
v -0.652545 -0.756795 0.044032
v 0.657195 -0.755368 0.039514
v 0.657195 -0.750094 0.026498
v 0.657195 -0.751109 0.039831
v 0.657195 -0.752744 0.023580
v 0.657195 -0.753940 0.020263
v 0.657195 -0.741883 0.023994
v 0.657195 -0.752512 0.020432
v 0.657195 -0.747164 0.020432
v 0.657195 -0.743864 0.019750
v 0.657195 -0.745442 0.021665
v 0.657195 -0.742064 0.026933
v 0.657195 -0.757965 -0.011246
v 0.657195 -0.756795 0.024972
v 0.657195 -0.757965 0.024972
v 0.657195 -0.756795 0.020263
v 0.657195 -0.756794 0.002846
v 0.657195 -0.752567 0.018941
v 0.657195 -0.751632 0.005399
v 0.657195 -0.756794 -0.011246
v 0.657195 -0.748734 0.001665
v 0.657195 -0.740130 -0.003210
v 0.657195 -0.740194 -0.001508
v 0.657195 -0.739073 -0.003517
v 0.657195 -0.740130 -0.034421
v 0.657195 -0.739073 -0.034421
v 0.657195 -0.747246 0.018941
v 0.657195 -0.745442 0.017691
v 0.657195 -0.752567 0.018941
v 0.657195 -0.743864 0.019750
v 0.657195 -0.747246 0.018941
v 0.657195 -0.745442 0.017691
v 0.657195 -0.739073 -0.034421
v 0.657195 -0.740130 -0.034421
v 0.657195 -0.739073 -0.003517
v 0.657195 -0.740130 -0.003210
v 0.657195 -0.740194 -0.001508
v 0.657195 -0.748734 0.001665
v 0.657195 -0.756794 0.002846
v 0.657195 -0.751632 0.005399
v 0.657195 -0.756794 -0.011246
v 0.657195 -0.757965 -0.011246
v 0.657195 -0.753940 0.020263
v 0.657195 -0.756795 0.020263
v 0.657195 -0.756795 0.024972
v 0.657195 -0.757965 0.024972
v 0.657195 -0.750094 0.026498
v 0.657195 -0.742064 0.026933
v 0.657195 -0.741883 0.023994
v 0.657195 -0.747164 0.020432
v 0.657195 -0.745442 0.021665
v 0.657195 -0.752512 0.020432
v 0.657195 -0.752744 0.023580
v 0.657195 -0.755368 0.039514
v 0.657195 -0.751109 0.039831
v 0.657195 -0.751109 0.039831
v -0.661809 -0.750094 0.026498
v -0.661809 -0.751109 0.039831
v 0.657195 -0.750094 0.026498
v 0.657195 -0.750094 0.026498
v 0.657195 -0.751109 0.039831
v -0.661809 -0.750094 0.026498
v -0.661809 -0.751109 0.039831
v -0.661809 -0.741883 0.023994
v -0.661809 -0.750094 0.026498
v -0.661809 -0.742064 0.026933
v -0.661809 -0.743864 0.019750
v -0.661809 -0.747164 0.020432
v -0.661809 -0.745442 0.021665
v -0.661809 -0.752512 0.020432
v -0.661809 -0.753940 0.020263
v -0.661809 -0.756795 0.020263
v -0.661809 -0.745442 0.017691
v -0.661809 -0.747246 0.018941
v -0.661809 -0.748734 0.001665
v -0.661809 -0.756794 0.002846
v -0.661809 -0.751632 0.005399
v -0.661809 -0.740130 -0.003210
v -0.661809 -0.740194 -0.001508
v -0.661809 -0.739073 -0.003517
v -0.661809 -0.740130 -0.034421
v -0.661809 -0.739073 -0.034421
v -0.661809 -0.757965 0.024972
v -0.661809 -0.756795 0.024972
v -0.661809 -0.757965 -0.011246
v -0.661809 -0.752567 0.018941
v -0.661809 -0.756794 -0.011246
v -0.661809 -0.755368 0.039514
v -0.661809 -0.751109 0.039831
v -0.661809 -0.752744 0.023580
v -0.661809 -0.752512 0.020432
v -0.661809 -0.752744 0.023580
v -0.661809 -0.753940 0.020263
v -0.661809 -0.741883 0.023994
v -0.661809 -0.750094 0.026498
v -0.661809 -0.755368 0.039514
v -0.661809 -0.751109 0.039831
v -0.661809 -0.756794 -0.011246
v -0.661809 -0.756794 0.002846
v -0.661809 -0.757965 -0.011246
v -0.661809 -0.751632 0.005399
v -0.661809 -0.752567 0.018941
v -0.661809 -0.747246 0.018941
v -0.661809 -0.743864 0.019750
v -0.661809 -0.756795 0.020263
v -0.661809 -0.757965 0.024972
v -0.661809 -0.756795 0.024972
v -0.661809 -0.739073 -0.034421
v -0.661809 -0.739073 -0.003517
v -0.661809 -0.740130 -0.034421
v -0.661809 -0.740130 -0.003210
v -0.661809 -0.740194 -0.001508
v -0.661809 -0.748734 0.001665
v -0.661809 -0.745442 0.017691
v -0.661809 -0.747164 0.020432
v -0.661809 -0.745442 0.021665
v -0.661809 -0.742064 0.026933
v 0.657195 -0.753940 0.020263
v -0.661809 -0.756795 0.020263
v 0.657195 -0.756795 0.020263
v -0.661809 -0.753940 0.020263
v -0.661809 -0.753940 0.020263
v 0.657195 -0.753940 0.020263
v -0.661809 -0.756795 0.020263
v 0.657195 -0.756795 0.020263
v 0.657195 -0.756795 0.024972
v -0.661809 -0.756795 0.020263
v -0.661809 -0.756795 0.024972
v 0.657195 -0.756795 0.020263
v 0.657195 -0.756795 0.020263
v 0.657195 -0.756795 0.024972
v -0.661809 -0.756795 0.020263
v -0.661809 -0.756795 0.024972
v 0.657195 -0.756795 0.024972
v -0.661809 -0.757965 0.024972
v 0.657195 -0.757965 0.024972
v -0.661809 -0.756795 0.024972
v -0.661809 -0.756795 0.024972
v 0.657195 -0.756795 0.024972
v -0.661809 -0.757965 0.024972
v 0.657195 -0.757965 0.024972
v 0.657195 -0.757965 -0.011246
v -0.661809 -0.757965 0.024972
v -0.661809 -0.757965 -0.011246
v 0.657195 -0.757965 0.024972
v 0.657195 -0.757965 0.024972
v 0.657195 -0.757965 -0.011246
v -0.661809 -0.757965 0.024972
v -0.661809 -0.757965 -0.011246
v -0.661809 -0.756794 -0.011246
v 0.657195 -0.757965 -0.011246
v -0.661809 -0.757965 -0.011246
v 0.657195 -0.756794 -0.011246
v 0.657195 -0.756794 -0.011246
v -0.661809 -0.756794 -0.011246
v 0.657195 -0.757965 -0.011246
v -0.661809 -0.757965 -0.011246
v 0.657195 -0.756794 0.002846
v -0.661809 -0.756794 -0.011246
v -0.661809 -0.756794 0.002846
v 0.657195 -0.756794 -0.011246
v 0.657195 -0.756794 -0.011246
v 0.657195 -0.756794 0.002846
v -0.661809 -0.756794 -0.011246
v -0.661809 -0.756794 0.002846
v -0.661809 -0.740130 -0.003210
v 0.657195 -0.756794 0.002846
v -0.661809 -0.756794 0.002846
v 0.657195 -0.740130 -0.003210
v 0.657195 -0.740130 -0.003210
v -0.661809 -0.740130 -0.003210
v 0.657195 -0.756794 0.002846
v -0.661809 -0.756794 0.002846
v 0.657195 -0.740130 -0.034421
v -0.661809 -0.740130 -0.003210
v -0.661809 -0.740130 -0.034421
v 0.657195 -0.740130 -0.003210
v 0.657195 -0.740130 -0.003210
v 0.657195 -0.740130 -0.034421
v -0.661809 -0.740130 -0.003210
v -0.661809 -0.740130 -0.034421
v -0.661809 -0.739073 -0.034421
v 0.657195 -0.740130 -0.034421
v -0.661809 -0.740130 -0.034421
v 0.657195 -0.739073 -0.034421
v 0.657195 -0.739073 -0.034421
v -0.661809 -0.739073 -0.034421
v 0.657195 -0.740130 -0.034421
v -0.661809 -0.740130 -0.034421
v 0.657195 -0.739073 -0.003517
v -0.661809 -0.739073 -0.034421
v -0.661809 -0.739073 -0.003517
v 0.657195 -0.739073 -0.034421
v 0.657195 -0.739073 -0.034421
v 0.657195 -0.739073 -0.003517
v -0.661809 -0.739073 -0.034421
v -0.661809 -0.739073 -0.003517
v 0.657195 -0.740194 -0.001508
v -0.661809 -0.740194 -0.001508
v 0.657195 -0.740194 -0.001508
v -0.661809 -0.740194 -0.001508
v -0.661809 -0.748734 0.001665
v 0.657195 -0.748734 0.001665
v -0.661809 -0.748734 0.001665
v 0.657195 -0.748734 0.001665
v 0.657195 -0.751632 0.005399
v -0.661809 -0.751632 0.005399
v 0.657195 -0.751632 0.005399
v -0.661809 -0.751632 0.005399
v 0.657195 -0.752567 0.018941
v -0.661809 -0.752567 0.018941
v 0.657195 -0.752567 0.018941
v -0.661809 -0.752567 0.018941
v -0.661809 -0.747246 0.018941
v 0.657195 -0.752567 0.018941
v -0.661809 -0.752567 0.018941
v 0.657195 -0.747246 0.018941
v 0.657195 -0.747246 0.018941
v -0.661809 -0.747246 0.018941
v 0.657195 -0.752567 0.018941
v -0.661809 -0.752567 0.018941
v -0.661809 -0.745442 0.017691
v 0.657195 -0.745442 0.017691
v 0.657195 -0.745442 0.017691
v -0.661809 -0.745442 0.017691
v 0.657195 -0.743864 0.019750
v -0.661809 -0.745442 0.017691
v -0.661809 -0.743864 0.019750
v 0.657195 -0.745442 0.017691
v 0.657195 -0.745442 0.017691
v 0.657195 -0.743864 0.019750
v -0.661809 -0.745442 0.017691
v -0.661809 -0.743864 0.019750
v 0.657195 -0.745442 0.021665
v -0.661809 -0.743864 0.019750
v -0.661809 -0.745442 0.021665
v 0.657195 -0.743864 0.019750
v 0.657195 -0.743864 0.019750
v 0.657195 -0.745442 0.021665
v -0.661809 -0.743864 0.019750
v -0.661809 -0.745442 0.021665
v 0.657195 -0.745442 0.021665
v -0.661809 -0.747164 0.020432
v 0.657195 -0.747164 0.020432
v -0.661809 -0.745442 0.021665
v -0.661809 -0.745442 0.021665
v 0.657195 -0.745442 0.021665
v -0.661809 -0.747164 0.020432
v 0.657195 -0.747164 0.020432
v -0.661809 -0.752512 0.020432
v 0.657195 -0.752512 0.020432
v -0.661809 -0.752512 0.020432
v 0.657195 -0.752512 0.020432
v 0.657195 -0.752744 0.023580
v -0.661809 -0.752512 0.020432
v -0.661809 -0.752744 0.023580
v 0.657195 -0.752512 0.020432
v 0.657195 -0.752512 0.020432
v 0.657195 -0.752744 0.023580
v -0.661809 -0.752512 0.020432
v -0.661809 -0.752744 0.023580
v -0.661809 -0.741883 0.023994
v 0.657195 -0.752744 0.023580
v -0.661809 -0.752744 0.023580
v 0.657195 -0.741883 0.023994
v 0.657195 -0.741883 0.023994
v -0.661809 -0.741883 0.023994
v 0.657195 -0.752744 0.023580
v -0.661809 -0.752744 0.023580
v 0.657195 -0.742064 0.026933
v -0.661809 -0.741883 0.023994
v -0.661809 -0.742064 0.026933
v 0.657195 -0.741883 0.023994
v 0.657195 -0.741883 0.023994
v 0.657195 -0.742064 0.026933
v -0.661809 -0.741883 0.023994
v -0.661809 -0.742064 0.026933
v 0.657195 -0.742064 0.026933
v -0.661809 -0.750094 0.026498
v 0.657195 -0.750094 0.026498
v -0.661809 -0.742064 0.026933
v -0.661809 -0.742064 0.026933
v 0.657195 -0.742064 0.026933
v -0.661809 -0.750094 0.026498
v 0.657195 -0.750094 0.026498
vn 0 0.996867713566875 0.07908705107633575
vn 0 -0.996867713566875 -0.07908705107633575
vn 1 0 0
vn -1 0 0
vn 0 -0.07436772898933673 0.9972308864475511
vn 0 0.07436772898933673 -0.9972308864475511
vn 0 0 1
vn 0 0 -1
vn 0 -0.9972597529537852 -0.07397962650997529
vn 0 0.9972597529537852 0.07397962650997529
vn 0 -1 0
vn 0 1 0
vn 0 0.9971139897694907 0.07591897922106237
vn 0 -0.9971139897694907 -0.07591897922106237
vn 0 -0.34158258657819546 -0.9398517630704055
vn 0 0.34158258657819546 0.9398517630704055
vn 0 0.9677824692559274 0.25178779200132034
vn 0 -0.9677824692559274 -0.25178779200132034
vn 0 0.6508778645223863 0.7591824586189925
vn 0 -0.6508778645223863 -0.7591824586189925
vn 0 0.5918144945801953 0.806074192618017
vn 0 -0.5918144945801953 -0.806074192618017
vn 0 0.9343338148076727 0.35639910564834704
vn 0 -0.9343338148076727 -0.35639910564834704
vn 0 0.9976270881694927 0.06884905918354356
vn 0 -0.9976270881694927 -0.06884905918354356
vn 0 -0.298350311783189 -0.9544564376957568
vn 0 0.298350311783189 0.9544564376957568
vn 0 -0.5695247087206392 -0.8219742125861805
vn 0 0.5695247087206392 0.8219742125861805
vn 0 0.7937802146793262 -0.6082047112474902
vn 0 -0.7937802146793262 0.6082047112474902
vn 0 0.7718018384261427 0.6358631316580844
vn 0 -0.7718018384261427 -0.6358631316580844
vn 0 -0.5823159010506233 0.8129626014667591
vn 0 -0.30580830192406966 0.9520931059903319
vn 0 0.5823159010506233 -0.8129626014667591
vn 0 0.30580830192406966 -0.9520931059903319
vn 0 0.9972783119468703 0.07372902088323517
vn 0 -0.9972783119468703 -0.07372902088323517
vn 0 0.03815423854709471 -0.9992718619479343
vn 0 -0.03815423854709471 0.9992718619479343
vn 0 0.9981173589282598 0.06133300747619545
vn 0 -0.9981173589282598 -0.06133300747619545
vn 0 -0.05398989901402968 0.9985414817645059
vn 0 0.05398989901402968 -0.9985414817645059
usemtl material_0_0
f 1//1 2//1 3//1
f 2//1 1//1 4//1
f 5//2 6//2 7//2
f 8//2 7//2 6//2
f 9//3 10//3 11//3
f 10//3 9//3 12//3
f 10//3 12//3 13//3
f 11//3 14//3 15//3
f 14//3 11//3 10//3
f 15//3 14//3 16//3
f 17//4 18//4 19//4
f 20//4 21//4 18//4
f 19//4 18//4 21//4
f 22//4 23//4 20//4
f 23//4 24//4 20//4
f 21//4 20//4 24//4
f 25//5 26//5 27//5
f 26//5 25//5 28//5
f 28//5 25//5 29//5
f 29//5 30//5 31//5
f 30//5 29//5 32//5
f 32//5 29//5 25//5
f 33//6 34//6 35//6
f 35//6 34//6 36//6
f 37//6 36//6 34//6
f 34//6 33//6 38//6
f 38//6 33//6 39//6
f 40//6 39//6 33//6
f 41//4 42//4 43//4
f 42//4 41//4 44//4
f 42//4 44//4 45//4
f 43//4 46//4 47//4
f 46//4 43//4 42//4
f 47//4 46//4 48//4
f 49//3 50//3 51//3
f 52//3 53//3 50//3
f 51//3 50//3 53//3
f 54//3 55//3 52//3
f 55//3 56//3 52//3
f 53//3 52//3 56//3
f 57//7 58//7 59//7
f 58//7 57//7 60//7
f 61//8 62//8 63//8
f 64//8 63//8 62//8
f 65//9 66//9 67//9
f 66//9 65//9 68//9
f 68//9 65//9 69//9
f 69//9 65//9 70//9
f 70//9 65//9 71//9
f 72//9 69//9 70//9
f 73//10 74//10 75//10
f 76//10 77//10 73//10
f 73//10 77//10 74//10
f 74//10 77//10 78//10
f 78//10 77//10 79//10
f 80//10 79//10 77//10
f 81//11 82//11 83//11
f 82//11 81//11 84//11
f 85//12 86//12 87//12
f 88//12 87//12 86//12
f 89//8 90//8 91//8
f 90//8 89//8 92//8
f 93//7 94//7 95//7
f 96//7 95//7 94//7
f 97//12 98//12 99//12
f 98//12 97//12 100//12
f 101//11 102//11 103//11
f 104//11 103//11 102//11
f 105//8 106//8 107//8
f 106//8 105//8 108//8
f 109//7 110//7 111//7
f 112//7 111//7 110//7
f 113//3 114//3 115//3
f 114//3 113//3 116//3
f 116//3 113//3 117//3
f 114//3 116//3 118//3
f 116//3 117//3 119//3
f 119//3 117//3 120//3
f 120//3 121//3 122//3
f 121//3 120//3 117//3
f 118//3 123//3 114//3
f 124//3 125//3 126//3
f 125//3 124//3 127//3
f 127//3 124//3 128//3
f 127//3 128//3 117//3
f 117//3 128//3 129//3
f 117//3 129//3 121//3
f 129//3 128//3 130//3
f 128//3 124//3 131//3
f 128//3 132//3 130//3
f 132//3 128//3 133//3
f 132//3 133//3 134//3
f 134//3 133//3 135//3
f 135//3 133//3 136//3
f 135//3 136//3 137//3
f 121//3 138//3 139//3
f 138//3 121//3 129//3
f 140//4 141//4 142//4
f 143//4 142//4 141//4
f 144//4 145//4 146//4
f 145//4 147//4 146//4
f 146//4 147//4 148//4
f 148//4 147//4 149//4
f 147//4 150//4 149//4
f 151//4 149//4 150//4
f 152//4 153//4 150//4
f 151//4 150//4 140//4
f 141//4 140//4 154//4
f 140//4 150//4 154//4
f 154//4 150//4 155//4
f 150//4 153//4 155//4
f 155//4 153//4 156//4
f 157//4 156//4 153//4
f 158//4 159//4 160//4
f 154//4 161//4 141//4
f 162//4 141//4 161//4
f 161//4 154//4 163//4
f 163//4 154//4 164//4
f 160//4 164//4 158//4
f 154//4 165//4 164//4
f 164//4 165//4 158//4
f 166//4 158//4 165//4
f 167//13 168//13 169//13
f 168//13 167//13 170//13
f 171//14 172//14 173//14
f 174//14 173//14 172//14
f 175//4 176//4 177//4
f 178//4 179//4 180//4
f 179//4 178//4 181//4
f 181//4 178//4 182//4
f 182//4 178//4 183//4
f 184//4 185//4 178//4
f 186//4 187//4 188//4
f 187//4 186//4 189//4
f 189//4 186//4 190//4
f 189//4 190//4 191//4
f 189//4 191//4 192//4
f 192//4 191//4 193//4
f 183//4 194//4 195//4
f 194//4 183//4 196//4
f 196//4 183//4 187//4
f 187//4 183//4 197//4
f 197//4 183//4 178//4
f 197//4 178//4 185//4
f 187//4 197//4 188//4
f 196//4 187//4 198//4
f 176//4 199//4 200//4
f 199//4 176//4 201//4
f 199//4 201//4 182//4
f 201//4 176//4 175//4
f 182//4 201//4 181//4
f 202//3 203//3 204//3
f 205//3 206//3 203//3
f 204//3 203//3 207//3
f 203//3 206//3 207//3
f 208//3 207//3 206//3
f 209//3 210//3 211//3
f 212//3 213//3 210//3
f 214//3 215//3 213//3
f 215//3 216//3 213//3
f 213//3 216//3 210//3
f 210//3 216//3 211//3
f 211//3 216//3 217//3
f 218//3 217//3 216//3
f 219//3 220//3 221//3
f 221//3 220//3 222//3
f 220//3 223//3 222//3
f 223//3 224//3 222//3
f 222//3 224//3 210//3
f 212//3 210//3 224//3
f 215//3 214//3 225//3
f 216//3 215//3 204//3
f 204//3 215//3 202//3
f 202//3 215//3 226//3
f 227//3 226//3 215//3
f 228//3 206//3 205//3
f 229//7 230//7 231//7
f 230//7 229//7 232//7
f 233//8 234//8 235//8
f 236//8 235//8 234//8
f 237//12 238//12 239//12
f 238//12 237//12 240//12
f 241//11 242//11 243//11
f 244//11 243//11 242//11
f 245//7 246//7 247//7
f 246//7 245//7 248//7
f 249//8 250//8 251//8
f 252//8 251//8 250//8
f 253//11 254//11 255//11
f 254//11 253//11 256//11
f 257//12 258//12 259//12
f 260//12 259//12 258//12
f 261//8 262//8 263//8
f 262//8 261//8 264//8
f 265//7 266//7 267//7
f 268//7 267//7 266//7
f 269//12 270//12 271//12
f 270//12 269//12 272//12
f 273//11 274//11 275//11
f 276//11 275//11 274//11
f 277//15 278//15 279//15
f 278//15 277//15 280//15
f 281//16 282//16 283//16
f 284//16 283//16 282//16
f 285//11 286//11 287//11
f 286//11 285//11 288//11
f 289//12 290//12 291//12
f 292//12 291//12 290//12
f 293//8 294//8 295//8
f 294//8 293//8 296//8
f 297//7 298//7 299//7
f 300//7 299//7 298//7
f 301//17 302//12 303//17
f 302//12 301//17 304//12
f 305//11 306//18 307//11
f 308//18 307//11 306//18
f 309//19 303//17 310//19
f 303//17 309//19 301//17
f 306//18 311//20 308//18
f 312//20 308//18 311//20
f 309//19 313//21 314//21
f 313//21 309//19 310//19
f 312//20 311//20 315//22
f 316//22 315//22 311//20
f 317//23 313//21 318//23
f 313//21 317//23 314//21
f 316//22 319//24 315//22
f 320//24 315//22 319//24
f 321//25 318//23 322//25
f 318//23 321//25 317//23
f 319//24 323//26 320//24
f 324//26 320//24 323//26
f 325//27 326//8 327//8
f 326//8 325//27 328//27
f 329//28 330//28 331//7
f 332//7 331//7 330//28
f 333//29 328//27 325//27
f 328//27 333//29 334//29
f 335//30 336//30 329//28
f 330//28 329//28 336//30
f 337//31 338//31 339//31
f 338//31 337//31 340//31
f 341//32 342//32 343//32
f 344//32 343//32 342//32
f 345//33 346//33 347//33
f 346//33 345//33 348//33
f 349//34 350//34 351//34
f 352//34 351//34 350//34
f 353//35 354//36 355//36
f 354//36 353//35 356//35
f 357//37 358//37 359//38
f 360//38 359//38 358//37
f 355//36 361//7 362//7
f 361//7 355//36 354//36
f 359//38 360//38 363//8
f 364//8 363//8 360//38
f 365//39 366//39 367//39
f 366//39 365//39 368//39
f 369//40 370//40 371//40
f 372//40 371//40 370//40
f 373//41 374//41 375//41
f 374//41 373//41 376//41
f 377//42 378//42 379//42
f 380//42 379//42 378//42
f 381//43 382//43 383//43
f 382//43 381//43 384//43
f 385//44 386//44 387//44
f 388//44 387//44 386//44
f 389//45 390//45 391//45
f 390//45 389//45 392//45
f 393//46 394//46 395//46
f 396//46 395//46 394//46
