# SSTK version 0.8.0
# 29
mtllib original-29.mtl
o instance_28/blasash/ID199#ID199
v -0.634606 -0.585629 0.041795
v -0.630610 -0.585629 0.040756
v -0.634606 -0.585629 0.037078
v -0.552862 -0.585629 0.041795
v -0.553891 -0.585629 0.040756
v -0.553891 -0.585629 0.040170
v -0.552862 -0.585629 0.040295
v -0.550608 -0.585629 0.033581
v -0.548537 -0.585629 0.032107
v -0.555856 -0.585629 0.032732
v -0.555856 -0.585629 0.033581
v -0.552485 -0.585629 0.032732
v -0.552485 -0.585629 0.031034
v -0.548537 -0.585629 0.031034
v -0.630610 -0.585629 0.037078
v -0.630610 -0.585629 0.040756
v -0.634606 -0.585629 0.037078
v -0.630610 -0.585629 0.037078
v -0.548537 -0.585629 0.032107
v -0.550608 -0.585629 0.033581
v -0.548537 -0.585629 0.031034
v -0.552485 -0.585629 0.031034
v -0.552485 -0.585629 0.032732
v -0.555856 -0.585629 0.032732
v -0.555856 -0.585629 0.033581
v -0.552862 -0.585629 0.040295
v -0.553891 -0.585629 0.040170
v -0.552862 -0.585629 0.041795
v -0.553891 -0.585629 0.040756
v -0.634606 -0.585629 0.041795
v -0.634606 -0.585629 0.037078
v -0.634606 -0.739067 0.041795
v -0.634606 -0.585629 0.041795
v -0.634606 -0.739067 0.037078
v -0.634606 -0.739067 0.037078
v -0.634606 -0.585629 0.037078
v -0.634606 -0.739067 0.041795
v -0.634606 -0.585629 0.041795
v -0.548537 -0.589955 0.041795
v -0.634606 -0.739067 0.041795
v -0.548537 -0.739067 0.041795
v -0.552862 -0.589955 0.041795
v -0.634606 -0.585629 0.041795
v -0.552862 -0.585629 0.041795
v -0.552862 -0.585629 0.041795
v -0.552862 -0.589955 0.041795
v -0.634606 -0.585629 0.041795
v -0.634606 -0.739067 0.041795
v -0.548537 -0.589955 0.041795
v -0.548537 -0.739067 0.041795
v -0.552862 -0.589955 0.040295
v -0.552862 -0.585629 0.041795
v -0.552862 -0.589955 0.041795
v -0.552862 -0.585629 0.040295
v -0.552862 -0.585629 0.040295
v -0.552862 -0.589955 0.040295
v -0.552862 -0.585629 0.041795
v -0.552862 -0.589955 0.041795
v -0.548537 -0.585629 0.032107
v -0.548537 -0.585629 0.032107
v -0.548537 -0.739067 0.041795
v -0.548537 -0.735071 0.040756
v -0.548537 -0.589955 0.041795
v -0.548537 -0.739067 0.037078
v -0.548537 -0.735071 0.037078
v -0.548537 -0.592948 0.032732
v -0.548537 -0.587701 0.033581
v -0.548537 -0.592948 0.033581
v -0.548537 -0.590983 0.040756
v -0.548537 -0.589955 0.040295
v -0.548537 -0.590983 0.040170
v -0.548537 -0.585629 0.032107
v -0.548537 -0.589577 0.032732
v -0.548537 -0.589577 0.031034
v -0.548537 -0.585629 0.031034
v -0.548537 -0.585629 0.031034
v -0.548537 -0.589577 0.031034
v -0.548537 -0.585629 0.032107
v -0.548537 -0.589577 0.032732
v -0.548537 -0.592948 0.032732
v -0.548537 -0.587701 0.033581
v -0.548537 -0.590983 0.040170
v -0.548537 -0.589955 0.040295
v -0.548537 -0.590983 0.040756
v -0.548537 -0.735071 0.040756
v -0.548537 -0.589955 0.041795
v -0.548537 -0.592948 0.033581
v -0.548537 -0.735071 0.037078
v -0.548537 -0.739067 0.037078
v -0.548537 -0.739067 0.041795
v -0.552485 -0.585629 0.031034
v -0.548537 -0.589577 0.031034
v -0.552485 -0.589577 0.031034
v -0.548537 -0.585629 0.031034
v -0.548537 -0.585629 0.031034
v -0.552485 -0.585629 0.031034
v -0.548537 -0.589577 0.031034
v -0.552485 -0.589577 0.031034
v -0.552485 -0.585629 0.031034
v -0.552485 -0.589577 0.032732
v -0.552485 -0.585629 0.032732
v -0.552485 -0.589577 0.031034
v -0.552485 -0.589577 0.031034
v -0.552485 -0.585629 0.031034
v -0.552485 -0.589577 0.032732
v -0.552485 -0.585629 0.032732
v -0.555856 -0.592948 0.032732
v -0.552485 -0.589577 0.032732
v -0.548537 -0.592948 0.032732
v -0.555856 -0.585629 0.032732
v -0.552485 -0.585629 0.032732
v -0.548537 -0.589577 0.032732
v -0.552485 -0.589577 0.032732
v -0.548537 -0.592948 0.032732
v -0.548537 -0.589577 0.032732
v -0.552485 -0.585629 0.032732
v -0.555856 -0.585629 0.032732
v -0.555856 -0.592948 0.032732
v -0.555856 -0.585629 0.032732
v -0.555856 -0.592948 0.033581
v -0.555856 -0.585629 0.033581
v -0.555856 -0.592948 0.032732
v -0.555856 -0.592948 0.032732
v -0.555856 -0.585629 0.032732
v -0.555856 -0.592948 0.033581
v -0.555856 -0.585629 0.033581
v -0.548537 -0.587701 0.033581
v -0.555856 -0.592948 0.033581
v -0.548537 -0.592948 0.033581
v -0.550608 -0.587701 0.033581
v -0.555856 -0.585629 0.033581
v -0.550608 -0.585629 0.033581
v -0.550608 -0.585629 0.033581
v -0.550608 -0.587701 0.033581
v -0.555856 -0.585629 0.033581
v -0.555856 -0.592948 0.033581
v -0.548537 -0.587701 0.033581
v -0.548537 -0.592948 0.033581
v -0.550608 -0.585629 0.033581
v -0.553891 -0.590983 0.040170
v -0.553891 -0.585629 0.040170
v -0.550608 -0.587701 0.033581
v -0.550608 -0.587701 0.033581
v -0.550608 -0.585629 0.033581
v -0.553891 -0.590983 0.040170
v -0.553891 -0.585629 0.040170
v -0.553891 -0.590983 0.040756
v -0.553891 -0.585629 0.040756
v -0.553891 -0.590983 0.040756
v -0.553891 -0.585629 0.040756
v -0.630610 -0.585629 0.040756
v -0.548537 -0.735071 0.040756
v -0.630610 -0.735071 0.040756
v -0.553891 -0.590983 0.040756
v -0.553891 -0.585629 0.040756
v -0.548537 -0.590983 0.040756
v -0.553891 -0.590983 0.040756
v -0.548537 -0.735071 0.040756
v -0.548537 -0.590983 0.040756
v -0.553891 -0.585629 0.040756
v -0.630610 -0.585629 0.040756
v -0.630610 -0.735071 0.040756
v -0.630610 -0.735071 0.037078
v -0.630610 -0.585629 0.040756
v -0.630610 -0.735071 0.040756
v -0.630610 -0.585629 0.037078
v -0.630610 -0.585629 0.037078
v -0.630610 -0.735071 0.037078
v -0.630610 -0.585629 0.040756
v -0.630610 -0.735071 0.040756
v -0.634606 -0.739067 0.037078
v -0.630610 -0.735071 0.037078
v -0.548537 -0.739067 0.037078
v -0.634606 -0.585629 0.037078
v -0.630610 -0.585629 0.037078
v -0.548537 -0.735071 0.037078
v -0.630610 -0.735071 0.037078
v -0.548537 -0.739067 0.037078
v -0.548537 -0.735071 0.037078
v -0.630610 -0.585629 0.037078
v -0.634606 -0.585629 0.037078
v -0.634606 -0.739067 0.037078
v -0.548537 -0.739067 0.037078
v -0.634606 -0.739067 0.041795
v -0.634606 -0.739067 0.037078
v -0.548537 -0.739067 0.041795
v -0.548537 -0.739067 0.041795
v -0.548537 -0.739067 0.037078
v -0.634606 -0.739067 0.041795
v -0.634606 -0.739067 0.037078
v -0.552862 -0.589955 0.041795
v -0.548537 -0.589955 0.040295
v -0.552862 -0.589955 0.040295
v -0.548537 -0.589955 0.041795
v -0.548537 -0.589955 0.041795
v -0.552862 -0.589955 0.041795
v -0.548537 -0.589955 0.040295
v -0.552862 -0.589955 0.040295
v -0.548537 -0.585629 0.032107
v -0.548537 -0.585629 0.032107
v -0.550608 -0.587701 0.033581
v -0.548537 -0.590983 0.040170
v -0.553891 -0.590983 0.040170
v -0.548537 -0.587701 0.033581
v -0.548537 -0.587701 0.033581
v -0.550608 -0.587701 0.033581
v -0.548537 -0.590983 0.040170
v -0.553891 -0.590983 0.040170
v -0.548537 -0.592948 0.032732
v -0.555856 -0.592948 0.033581
v -0.555856 -0.592948 0.032732
v -0.548537 -0.592948 0.033581
v -0.548537 -0.592948 0.033581
v -0.548537 -0.592948 0.032732
v -0.555856 -0.592948 0.033581
v -0.555856 -0.592948 0.032732
v -0.548537 -0.589577 0.031034
v -0.552485 -0.589577 0.032732
v -0.552485 -0.589577 0.031034
v -0.548537 -0.589577 0.032732
v -0.548537 -0.589577 0.032732
v -0.548537 -0.589577 0.031034
v -0.552485 -0.589577 0.032732
v -0.552485 -0.589577 0.031034
v -0.548537 -0.735071 0.040756
v -0.630610 -0.735071 0.037078
v -0.630610 -0.735071 0.040756
v -0.548537 -0.735071 0.037078
v -0.548537 -0.735071 0.037078
v -0.548537 -0.735071 0.040756
v -0.630610 -0.735071 0.037078
v -0.630610 -0.735071 0.040756
v -0.553891 -0.590983 0.040756
v -0.548537 -0.590983 0.040756
v -0.548537 -0.590983 0.040756
v -0.553891 -0.590983 0.040756
vn 0 1 0
vn 0 -1 0
vn -1 0 0
vn 1 0 0
vn 0 0 1
vn 0 0 -1
vn 0.9794715612147292 0 0.20158239201770833
vn 0.9706190245453781 0 0.2406215060849269
vn -0.9706190245453781 0 -0.2406215060849269
vn -0.9794715612147292 0 -0.20158239201770833
vn 0.8842025538444289 0 0.46710367561708366
vn -0.8842025538444289 0 -0.46710367561708366
vn -0.895065936104611 0 -0.4459338179878
vn -0.981074052272407 0 -0.19363291031691568
vn -0.9734130606362231 0 -0.22905679073718982
vn 0.895065936104611 0 0.4459338179878
vn 0.981074052272407 0 0.19363291031691568
vn 0.9734130606362231 0 0.22905679073718982
vn 0 0.9706190245453781 0.24062150608492713
vn 0 0.9794715612147292 0.20158239201770856
vn 0 -0.9706190245453781 -0.24062150608492713
vn 0 -0.9794715612147292 -0.20158239201770856
vn 0 0.8842025538444288 0.4671036756170839
vn 0 -0.8842025538444288 -0.4671036756170839
vn 0 -0.8950659361046109 -0.44593381798780024
vn 0 -0.9734130606362231 -0.22905679073719004
vn 0 -0.981074052272407 -0.1936329103169159
vn 0 0.8950659361046109 0.44593381798780024
vn 0 0.9734130606362231 0.22905679073719004
vn 0 0.981074052272407 0.1936329103169159
usemtl material_0_0
f 1//1 2//1 3//1
f 2//1 1//1 4//1
f 2//1 4//1 5//1
f 5//1 4//1 6//1
f 6//1 4//1 7//1
f 7//1 8//1 6//1
f 8//1 7//1 9//1
f 8//1 10//1 11//1
f 10//1 8//1 12//1
f 12//1 8//1 13//1
f 13//1 8//1 14//1
f 14//1 8//1 9//1
f 15//1 3//1 2//1
f 16//2 17//2 18//2
f 19//2 20//2 21//2
f 21//2 20//2 22//2
f 22//2 20//2 23//2
f 23//2 20//2 24//2
f 25//2 24//2 20//2
f 19//2 26//2 20//2
f 27//2 20//2 26//2
f 26//2 28//2 27//2
f 27//2 28//2 29//2
f 29//2 28//2 16//2
f 28//2 30//2 16//2
f 17//2 16//2 30//2
f 31//3 32//3 33//3
f 32//3 31//3 34//3
f 35//4 36//4 37//4
f 38//4 37//4 36//4
f 39//5 40//5 41//5
f 40//5 39//5 42//5
f 40//5 42//5 43//5
f 43//5 42//5 44//5
f 45//6 46//6 47//6
f 47//6 46//6 48//6
f 46//6 49//6 48//6
f 50//6 48//6 49//6
f 51//7 52//4 53//4
f 52//4 51//7 54//8
f 55//9 56//10 57//3
f 58//3 57//3 56//10
f 59//11 54//8 51//7
f 56//10 55//9 60//12
f 61//4 62//4 63//4
f 62//4 61//4 64//4
f 62//4 64//4 65//4
f 66//4 67//4 68//4
f 63//4 69//4 70//4
f 69//4 63//4 62//4
f 70//4 69//4 71//4
f 70//4 71//4 72//4
f 72//4 71//4 67//4
f 72//4 67//4 73//4
f 73//4 67//4 66//4
f 72//4 73//4 74//4
f 72//4 74//4 75//4
f 76//3 77//3 78//3
f 77//3 79//3 78//3
f 80//3 81//3 79//3
f 79//3 81//3 78//3
f 81//3 82//3 78//3
f 78//3 82//3 83//3
f 82//3 84//3 83//3
f 85//3 86//3 84//3
f 83//3 84//3 86//3
f 87//3 81//3 80//3
f 88//3 89//3 85//3
f 89//3 90//3 85//3
f 86//3 85//3 90//3
f 91//6 92//6 93//6
f 92//6 91//6 94//6
f 95//5 96//5 97//5
f 98//5 97//5 96//5
f 99//3 100//3 101//3
f 100//3 99//3 102//3
f 103//4 104//4 105//4
f 106//4 105//4 104//4
f 107//6 108//6 109//6
f 108//6 107//6 110//6
f 108//6 110//6 111//6
f 112//6 109//6 108//6
f 113//5 114//5 115//5
f 116//5 117//5 113//5
f 117//5 118//5 113//5
f 114//5 113//5 118//5
f 119//3 120//3 121//3
f 120//3 119//3 122//3
f 123//4 124//4 125//4
f 126//4 125//4 124//4
f 127//5 128//5 129//5
f 128//5 127//5 130//5
f 128//5 130//5 131//5
f 131//5 130//5 132//5
f 133//6 134//6 135//6
f 135//6 134//6 136//6
f 134//6 137//6 136//6
f 138//6 136//6 137//6
f 139//13 140//14 141//15
f 140//14 139//13 142//13
f 143//16 144//16 145//17
f 146//18 145//17 144//16
f 141//15 147//3 148//3
f 147//3 141//15 140//14
f 145//17 146//18 149//4
f 150//4 149//4 146//18
f 151//6 152//6 153//6
f 152//6 151//6 154//6
f 154//6 151//6 155//6
f 156//6 152//6 154//6
f 157//5 158//5 159//5
f 160//5 161//5 157//5
f 157//5 161//5 158//5
f 162//5 158//5 161//5
f 163//4 164//4 165//4
f 164//4 163//4 166//4
f 167//3 168//3 169//3
f 170//3 169//3 168//3
f 171//6 172//6 173//6
f 172//6 171//6 174//6
f 172//6 174//6 175//6
f 176//6 173//6 172//6
f 177//5 178//5 179//5
f 180//5 181//5 177//5
f 181//5 182//5 177//5
f 178//5 177//5 182//5
f 183//2 184//2 185//2
f 184//2 183//2 186//2
f 187//1 188//1 189//1
f 190//1 189//1 188//1
f 191//1 192//19 193//20
f 192//19 191//1 194//1
f 195//2 196//2 197//21
f 198//22 197//21 196//2
f 199//23 193//20 192//19
f 197//21 198//22 200//24
f 201//25 202//26 203//27
f 202//26 201//25 204//25
f 205//28 206//28 207//29
f 208//30 207//29 206//28
f 209//2 210//2 211//2
f 210//2 209//2 212//2
f 213//1 214//1 215//1
f 216//1 215//1 214//1
f 217//2 218//2 219//2
f 218//2 217//2 220//2
f 221//1 222//1 223//1
f 224//1 223//1 222//1
f 225//1 226//1 227//1
f 226//1 225//1 228//1
f 229//2 230//2 231//2
f 232//2 231//2 230//2
f 202//26 233//2 203//27
f 233//2 202//26 234//2
f 235//1 207//29 236//1
f 208//30 236//1 207//29
