# SSTK version 0.8.0
# 207
mtllib original-207.mtl
o #ID858
v -0.582445 -0.112833 0.071744
v -0.600698 -0.135060 0.068743
v -0.582445 -0.135060 0.068743
v -0.600698 -0.112833 0.071744
v -0.600698 -0.112833 0.071744
v -0.582445 -0.112833 0.071744
v -0.600698 -0.135060 0.068743
v -0.582445 -0.135060 0.068743
v -0.582445 -0.066804 0.073260
v -0.582445 -0.089932 0.073260
v -0.582445 -0.043903 0.071744
v -0.582445 -0.021676 0.068743
v -0.582445 -0.156178 0.064315
v -0.582445 -0.000558 0.064315
v -0.582445 -0.126689 0.063296
v -0.582445 -0.175775 0.058546
v -0.582445 -0.149577 0.052545
v -0.582445 -0.185182 0.049858
v -0.582445 -0.149577 0.041795
v -0.582445 -0.185182 0.041795
v -0.582445 -0.030047 0.063296
v -0.582445 0.019039 0.058546
v -0.582445 -0.007159 0.052545
v -0.582445 0.028446 0.049858
v -0.582445 -0.007159 0.041795
v -0.582445 0.028446 0.041795
v -0.582445 0.028446 0.041795
v -0.582445 -0.007159 0.041795
v -0.582445 0.028446 0.049858
v -0.582445 -0.007159 0.052545
v -0.582445 0.019039 0.058546
v -0.582445 -0.030047 0.063296
v -0.582445 -0.126689 0.063296
v -0.582445 -0.000558 0.064315
v -0.582445 -0.185182 0.041795
v -0.582445 -0.185182 0.049858
v -0.582445 -0.149577 0.041795
v -0.582445 -0.149577 0.052545
v -0.582445 -0.175775 0.058546
v -0.582445 -0.156178 0.064315
v -0.582445 -0.021676 0.068743
v -0.582445 -0.043903 0.071744
v -0.582445 -0.066804 0.073260
v -0.582445 -0.089932 0.073260
v -0.600698 -0.089932 0.073260
v -0.600698 -0.089932 0.073260
v -0.600698 -0.043903 0.071744
v -0.600698 -0.066804 0.073260
v -0.600698 -0.021676 0.068743
v -0.600698 -0.000558 0.064315
v -0.600698 -0.156178 0.064315
v -0.600698 -0.030047 0.063296
v -0.600698 0.019039 0.058546
v -0.600698 -0.007159 0.052545
v -0.600698 0.028446 0.049858
v -0.600698 -0.007159 0.041795
v -0.600698 0.028446 0.041795
v -0.600698 -0.126689 0.063296
v -0.600698 -0.175775 0.058546
v -0.600698 -0.149577 0.052545
v -0.600698 -0.185182 0.049858
v -0.600698 -0.149577 0.041795
v -0.600698 -0.185182 0.041795
v -0.600698 -0.185182 0.041795
v -0.600698 -0.149577 0.041795
v -0.600698 -0.185182 0.049858
v -0.600698 -0.149577 0.052545
v -0.600698 -0.175775 0.058546
v -0.600698 -0.126689 0.063296
v -0.600698 -0.030047 0.063296
v -0.600698 -0.156178 0.064315
v -0.600698 0.028446 0.041795
v -0.600698 0.028446 0.049858
v -0.600698 -0.007159 0.041795
v -0.600698 -0.007159 0.052545
v -0.600698 0.019039 0.058546
v -0.600698 -0.000558 0.064315
v -0.600698 -0.021676 0.068743
v -0.600698 -0.043903 0.071744
v -0.600698 -0.066804 0.073260
vn 0.6995198763623548 -0.07144561758576402 0.711032675973323
vn -0.6990416912507312 -0.12129999848179845 0.70471769117969
vn 0.6990416912507312 -0.12129999848179845 0.70471769117969
vn -0.6995198763623548 -0.07144561758576402 0.711032675973323
vn 0.6995198763623548 0.07144561758576402 -0.711032675973323
vn -0.6995198763623548 0.07144561758576402 -0.711032675973323
vn 0.6990416912507312 0.12129999848179845 -0.70471769117969
vn -0.6990416912507312 0.12129999848179845 -0.70471769117969
vn 0.6997469956426711 0.02359794985305526 0.714000895553912
vn 0.6997469956426711 -0.023597949853055578 0.714000895553912
vn 0.6995198763623548 0.07144561758576372 0.711032675973323
vn 0.6990416912507312 0.12129999848179815 0.70471769117969
vn 0.6982602129418971 -0.1746703032374252 0.6942067128667675
vn 0.6982602129418971 0.17467030323742486 0.6942067128667675
vn 0.7595709138116009 0.14166030257586962 -0.6348105115430295
vn 0.6592709680232327 -0.3709851820060228 0.654012068278306
vn 0.8496795391893539 0.44511322052973945 -0.2826993130388021
vn 0.6270146978713917 -0.7136473975772886 0.3123458989396386
vn 0.5773502691896257 0.5773502691896258 -0.5773502691896256
vn 0.5773502691896257 -0.5773502691896256 -0.5773502691896258
vn 0.7595709138116009 -0.14166030257586934 -0.6348105115430295
vn 0.6592709680232327 0.3709851820060225 0.6540120682783063
vn 0.8496795391893539 -0.44511322052973934 -0.2826993130388023
vn 0.6270146978713917 0.7136473975772883 0.31234589893963893
vn -0.5773502691896257 -0.5773502691896258 0.5773502691896256
vn -0.5773502691896257 0.5773502691896256 0.5773502691896258
vn -0.6270146978713917 -0.7136473975772883 -0.31234589893963893
vn -0.8496795391893539 0.44511322052973934 0.2826993130388023
vn -0.6592709680232327 -0.3709851820060225 -0.6540120682783063
vn -0.7595709138116009 0.14166030257586934 0.6348105115430295
vn -0.7595709138116009 -0.14166030257586962 0.6348105115430295
vn -0.6982602129418971 -0.17467030323742486 -0.6942067128667675
vn -0.6270146978713917 0.7136473975772886 -0.3123458989396386
vn -0.8496795391893539 -0.44511322052973945 0.2826993130388021
vn -0.6592709680232327 0.3709851820060228 -0.654012068278306
vn -0.6982602129418971 0.1746703032374252 -0.6942067128667675
vn -0.6990416912507312 -0.12129999848179815 -0.70471769117969
vn -0.6995198763623548 -0.07144561758576372 -0.711032675973323
vn -0.6997469956426711 -0.02359794985305526 -0.714000895553912
vn -0.6997469956426711 0.023597949853055578 -0.714000895553912
vn -0.6997469956426711 -0.023597949853055578 0.714000895553912
vn 0.6997469956426711 0.023597949853055578 -0.714000895553912
vn -0.6995198763623548 0.07144561758576372 0.711032675973323
vn -0.6997469956426711 0.02359794985305526 0.714000895553912
vn -0.6990416912507312 0.12129999848179815 0.70471769117969
vn -0.6982602129418971 0.17467030323742486 0.6942067128667675
vn -0.6982602129418971 -0.1746703032374252 0.6942067128667675
vn -0.7595709138116009 -0.14166030257586934 -0.6348105115430295
vn -0.6592709680232327 0.3709851820060225 0.6540120682783063
vn -0.8496795391893539 -0.44511322052973934 -0.2826993130388023
vn -0.6270146978713917 0.7136473975772883 0.31234589893963893
vn -0.5773502691896257 -0.5773502691896256 -0.5773502691896258
vn -0.5773502691896257 0.5773502691896258 -0.5773502691896256
vn -0.7595709138116009 0.14166030257586962 -0.6348105115430295
vn -0.6592709680232327 -0.3709851820060228 0.654012068278306
vn -0.8496795391893539 0.44511322052973945 -0.2826993130388021
vn -0.6270146978713917 -0.7136473975772886 0.3123458989396386
vn 0.5773502691896257 0.5773502691896256 0.5773502691896258
vn 0.5773502691896257 -0.5773502691896258 0.5773502691896256
vn 0.6270146978713917 0.7136473975772886 -0.3123458989396386
vn 0.8496795391893539 -0.44511322052973945 0.2826993130388021
vn 0.6592709680232327 0.3709851820060228 -0.654012068278306
vn 0.7595709138116009 -0.14166030257586962 0.6348105115430295
vn 0.7595709138116009 0.14166030257586934 0.6348105115430295
vn 0.6982602129418971 0.1746703032374252 -0.6942067128667675
vn 0.6270146978713917 -0.7136473975772883 -0.31234589893963893
vn 0.8496795391893539 0.44511322052973934 0.2826993130388023
vn 0.6592709680232327 -0.3709851820060225 -0.6540120682783063
vn 0.6982602129418971 -0.17467030323742486 -0.6942067128667675
vn 0.6990416912507312 -0.12129999848179815 -0.70471769117969
vn 0.6995198763623548 -0.07144561758576372 -0.711032675973323
vn 0.6997469956426711 -0.02359794985305526 -0.714000895553912
usemtl material_0_0
f 1//1 2//2 3//3
f 2//2 1//1 4//4
f 5//5 6//6 7//7
f 8//8 7//7 6//6
f 1//1 9//9 10//10
f 9//9 1//1 11//11
f 11//11 1//1 3//3
f 11//11 3//3 12//12
f 12//12 3//3 13//13
f 12//12 13//13 14//14
f 14//14 13//13 15//15
f 15//15 13//13 16//16
f 15//15 16//16 17//17
f 17//17 16//16 18//18
f 17//17 18//18 19//19
f 19//19 18//18 20//20
f 14//14 21//21 22//22
f 21//21 14//14 15//15
f 22//22 21//21 23//23
f 22//22 23//23 24//24
f 24//24 23//23 25//20
f 24//24 25//20 26//19
f 27//25 28//26 29//27
f 28//26 30//28 29//27
f 29//27 30//28 31//29
f 30//28 32//30 31//29
f 33//31 34//32 32//30
f 31//29 32//30 34//32
f 35//26 36//33 37//25
f 37//25 36//33 38//34
f 36//33 39//35 38//34
f 38//34 39//35 33//31
f 39//35 40//36 33//31
f 33//31 40//36 34//32
f 34//32 40//36 41//37
f 40//36 8//8 41//37
f 41//37 8//8 42//38
f 8//8 6//6 42//38
f 42//38 6//6 43//39
f 44//40 43//39 6//6
f 10//10 4//4 1//1
f 4//4 10//10 45//41
f 46//42 44//40 5//5
f 6//6 5//5 44//40
f 47//43 45//41 48//44
f 45//41 47//43 4//4
f 4//4 47//43 49//45
f 4//4 49//45 2//2
f 2//2 49//45 50//46
f 2//2 50//46 51//47
f 51//47 50//46 52//48
f 52//48 50//46 53//49
f 52//48 53//49 54//50
f 54//50 53//49 55//51
f 54//50 55//51 56//52
f 56//52 55//51 57//53
f 51//47 58//54 59//55
f 58//54 51//47 52//48
f 59//55 58//54 60//56
f 59//55 60//56 61//57
f 61//57 60//56 62//53
f 61//57 62//53 63//52
f 64//58 65//59 66//60
f 65//59 67//61 66//60
f 66//60 67//61 68//62
f 67//61 69//63 68//62
f 70//64 71//65 69//63
f 68//62 69//63 71//65
f 72//59 73//66 74//58
f 74//58 73//66 75//67
f 73//66 76//68 75//67
f 75//67 76//68 70//64
f 76//68 77//69 70//64
f 70//64 77//69 71//65
f 71//65 77//69 7//7
f 77//69 78//70 7//7
f 7//7 78//70 5//5
f 78//70 79//71 5//5
f 5//5 79//71 46//42
f 80//72 46//42 79//71
f 3//3 51//47 13//13
f 51//47 3//3 2//2
f 7//7 8//8 71//65
f 40//36 71//65 8//8
f 24//24 57//53 55//51
f 57//53 24//24 26//19
f 27//25 29//27 72//59
f 73//66 72//59 29//27
f 24//24 53//49 22//22
f 53//49 24//24 55//51
f 73//66 29//27 76//68
f 31//29 76//68 29//27
f 22//22 50//46 14//14
f 50//46 22//22 53//49
f 76//68 31//29 77//69
f 34//32 77//69 31//29
f 14//14 49//45 12//12
f 49//45 14//14 50//46
f 77//69 34//32 78//70
f 41//37 78//70 34//32
f 12//12 47//43 11//11
f 47//43 12//12 49//45
f 78//70 41//37 79//71
f 42//38 79//71 41//37
f 11//11 48//44 9//9
f 48//44 11//11 47//43
f 79//71 42//38 80//72
f 43//39 80//72 42//38
f 9//9 45//41 10//10
f 45//41 9//9 48//44
f 80//72 43//39 46//42
f 44//40 46//42 43//39
f 13//13 59//55 16//16
f 59//55 13//13 51//47
f 71//65 40//36 68//62
f 39//35 68//62 40//36
f 16//16 61//57 18//18
f 61//57 16//16 59//55
f 68//62 39//35 66//60
f 36//33 66//60 39//35
f 20//20 61//57 63//52
f 61//57 20//20 18//18
f 36//33 35//26 66//60
f 64//58 66//60 35//26
f 62//53 20//20 63//52
f 20//20 62//53 19//19
f 37//25 65//59 35//26
f 64//58 35//26 65//59
f 17//17 62//53 60//56
f 62//53 17//17 19//19
f 37//25 38//34 65//59
f 67//61 65//59 38//34
f 58//54 17//17 60//56
f 17//17 58//54 15//15
f 33//31 69//63 38//34
f 67//61 38//34 69//63
f 52//48 15//15 58//54
f 15//15 52//48 21//21
f 32//30 70//64 33//31
f 69//63 33//31 70//64
f 54//50 21//21 52//48
f 21//21 54//50 23//23
f 30//28 75//67 32//30
f 70//64 32//30 75//67
f 25//20 54//50 56//52
f 54//50 25//20 23//23
f 30//28 28//26 75//67
f 74//58 75//67 28//26
f 57//53 25//20 56//52
f 25//20 57//53 26//19
f 27//25 72//59 28//26
f 74//58 28//26 72//59
