# SSTK version 0.8.0
# 36
mtllib original-36.mtl
o instance_35/brwsash_2/ID249#ID249
v -0.064064 -0.590640 0.004718
v -0.051265 -0.598530 0.004718
v -0.064064 -0.598530 0.004718
v -0.059155 -0.590640 0.004718
v -0.051265 -0.585731 0.004718
v -0.059155 -0.585731 0.004718
v -0.059155 -0.585731 0.004718
v -0.059155 -0.590640 0.004718
v -0.051265 -0.585731 0.004718
v -0.051265 -0.598530 0.004718
v -0.064064 -0.590640 0.004718
v -0.064064 -0.598530 0.004718
v 0.016125 -0.585731 0.037658
v -0.059332 -0.585731 0.034068
v -0.059332 -0.585731 0.037658
v -0.051265 -0.585731 0.034068
v -0.051265 -0.585731 0.014761
v -0.064064 -0.585731 0.013025
v -0.064064 -0.585731 0.014761
v -0.062095 -0.585731 0.013025
v -0.059155 -0.585731 0.006340
v -0.059155 -0.585731 0.004718
v -0.051265 -0.585731 0.004718
v -0.051265 -0.585731 0.002830
v 0.022067 -0.585731 0.002830
v 0.016125 -0.585731 0.031354
v 0.022067 -0.585731 0.031354
v 0.022067 -0.585731 0.031354
v 0.016125 -0.585731 0.031354
v 0.022067 -0.585731 0.002830
v 0.016125 -0.585731 0.037658
v -0.051265 -0.585731 0.014761
v -0.051265 -0.585731 0.002830
v -0.051265 -0.585731 0.004718
v -0.059155 -0.585731 0.004718
v -0.059155 -0.585731 0.006340
v -0.062095 -0.585731 0.013025
v -0.064064 -0.585731 0.013025
v -0.064064 -0.585731 0.014761
v -0.051265 -0.585731 0.034068
v -0.059332 -0.585731 0.034068
v -0.059332 -0.585731 0.037658
v -0.051265 -0.585731 0.002830
v -0.051265 -0.598530 0.004718
v -0.051265 -0.585731 0.004718
v -0.051265 -0.598530 0.002830
v -0.051265 -0.598530 0.002830
v -0.051265 -0.585731 0.002830
v -0.051265 -0.598530 0.004718
v -0.051265 -0.585731 0.004718
v -0.051265 -0.598530 0.004718
v -0.064064 -0.598530 0.002830
v -0.064064 -0.598530 0.004718
v -0.051265 -0.598530 0.002830
v -0.051265 -0.598530 0.002830
v -0.051265 -0.598530 0.004718
v -0.064064 -0.598530 0.002830
v -0.064064 -0.598530 0.004718
v -0.064064 -0.585731 0.013025
v -0.064064 -0.598530 0.014761
v -0.064064 -0.585731 0.014761
v -0.064064 -0.590463 0.034068
v -0.064064 -0.733158 0.037658
v -0.064064 -0.590463 0.037658
v -0.064064 -0.598530 0.034068
v -0.064064 -0.733158 0.031354
v -0.064064 -0.739100 0.031354
v -0.064064 -0.739100 0.002830
v -0.064064 -0.587700 0.013025
v -0.064064 -0.590640 0.006340
v -0.064064 -0.598530 0.004718
v -0.064064 -0.590640 0.004718
v -0.064064 -0.598530 0.002830
v -0.064064 -0.598530 0.002830
v -0.064064 -0.598530 0.004718
v -0.064064 -0.739100 0.002830
v -0.064064 -0.590640 0.004718
v -0.064064 -0.590640 0.006340
v -0.064064 -0.587700 0.013025
v -0.064064 -0.585731 0.013025
v -0.064064 -0.598530 0.014761
v -0.064064 -0.739100 0.031354
v -0.064064 -0.733158 0.031354
v -0.064064 -0.598530 0.034068
v -0.064064 -0.733158 0.037658
v -0.064064 -0.590463 0.034068
v -0.064064 -0.590463 0.037658
v -0.064064 -0.585731 0.014761
v -0.059155 -0.590640 0.006340
v -0.064064 -0.590640 0.004718
v -0.064064 -0.590640 0.006340
v -0.059155 -0.590640 0.004718
v -0.059155 -0.590640 0.004718
v -0.059155 -0.590640 0.006340
v -0.064064 -0.590640 0.004718
v -0.064064 -0.590640 0.006340
v -0.059155 -0.585731 0.004718
v -0.059155 -0.590640 0.006340
v -0.059155 -0.585731 0.006340
v -0.059155 -0.590640 0.004718
v -0.059155 -0.590640 0.004718
v -0.059155 -0.585731 0.004718
v -0.059155 -0.590640 0.006340
v -0.059155 -0.585731 0.006340
v -0.062095 -0.587700 0.013025
v -0.062095 -0.585731 0.013025
v -0.062095 -0.587700 0.013025
v -0.062095 -0.585731 0.013025
v -0.064064 -0.585731 0.013025
v -0.062095 -0.587700 0.013025
v -0.064064 -0.587700 0.013025
v -0.062095 -0.585731 0.013025
v -0.062095 -0.585731 0.013025
v -0.064064 -0.585731 0.013025
v -0.062095 -0.587700 0.013025
v -0.064064 -0.587700 0.013025
v -0.051265 -0.585731 0.014761
v -0.064064 -0.598530 0.014761
v -0.051265 -0.598530 0.014761
v -0.064064 -0.585731 0.014761
v -0.064064 -0.585731 0.014761
v -0.051265 -0.585731 0.014761
v -0.064064 -0.598530 0.014761
v -0.051265 -0.598530 0.014761
v -0.051265 -0.585731 0.014761
v -0.051265 -0.598530 0.034068
v -0.051265 -0.585731 0.034068
v -0.051265 -0.598530 0.014761
v -0.051265 -0.598530 0.014761
v -0.051265 -0.585731 0.014761
v -0.051265 -0.598530 0.034068
v -0.051265 -0.585731 0.034068
v -0.064064 -0.590463 0.034068
v -0.051265 -0.598530 0.034068
v -0.064064 -0.598530 0.034068
v -0.059332 -0.590463 0.034068
v -0.051265 -0.585731 0.034068
v -0.059332 -0.585731 0.034068
v -0.059332 -0.585731 0.034068
v -0.059332 -0.590463 0.034068
v -0.051265 -0.585731 0.034068
v -0.051265 -0.598530 0.034068
v -0.064064 -0.590463 0.034068
v -0.064064 -0.598530 0.034068
v -0.059332 -0.585731 0.034068
v -0.059332 -0.590463 0.037658
v -0.059332 -0.585731 0.037658
v -0.059332 -0.590463 0.034068
v -0.059332 -0.590463 0.034068
v -0.059332 -0.585731 0.034068
v -0.059332 -0.590463 0.037658
v -0.059332 -0.585731 0.037658
v -0.064064 -0.590463 0.037658
v -0.064064 -0.733158 0.037658
v -0.059332 -0.590463 0.037658
v 0.016125 -0.585731 0.037658
v 0.016125 -0.733158 0.037658
v -0.059332 -0.585731 0.037658
v -0.059332 -0.585731 0.037658
v 0.016125 -0.585731 0.037658
v -0.059332 -0.590463 0.037658
v -0.064064 -0.733158 0.037658
v 0.016125 -0.733158 0.037658
v -0.064064 -0.590463 0.037658
v 0.016125 -0.733158 0.031354
v 0.016125 -0.585731 0.037658
v 0.016125 -0.733158 0.037658
v 0.016125 -0.585731 0.031354
v 0.016125 -0.585731 0.031354
v 0.016125 -0.733158 0.031354
v 0.016125 -0.585731 0.037658
v 0.016125 -0.733158 0.037658
v 0.022067 -0.739100 0.031354
v 0.016125 -0.733158 0.031354
v -0.064064 -0.739100 0.031354
v 0.022067 -0.585731 0.031354
v 0.016125 -0.585731 0.031354
v -0.064064 -0.733158 0.031354
v 0.016125 -0.733158 0.031354
v -0.064064 -0.739100 0.031354
v -0.064064 -0.733158 0.031354
v 0.016125 -0.585731 0.031354
v 0.022067 -0.585731 0.031354
v 0.022067 -0.739100 0.031354
v 0.022067 -0.739100 0.002830
v 0.022067 -0.585731 0.031354
v 0.022067 -0.739100 0.031354
v 0.022067 -0.585731 0.002830
v 0.022067 -0.585731 0.002830
v 0.022067 -0.739100 0.002830
v 0.022067 -0.585731 0.031354
v 0.022067 -0.739100 0.031354
v -0.064064 -0.598530 0.002830
v 0.022067 -0.739100 0.002830
v -0.064064 -0.739100 0.002830
v -0.051265 -0.598530 0.002830
v 0.022067 -0.585731 0.002830
v -0.051265 -0.585731 0.002830
v -0.051265 -0.585731 0.002830
v -0.051265 -0.598530 0.002830
v 0.022067 -0.585731 0.002830
v 0.022067 -0.739100 0.002830
v -0.064064 -0.598530 0.002830
v -0.064064 -0.739100 0.002830
v 0.022067 -0.739100 0.002830
v -0.064064 -0.739100 0.031354
v -0.064064 -0.739100 0.002830
v 0.022067 -0.739100 0.031354
v 0.022067 -0.739100 0.031354
v 0.022067 -0.739100 0.002830
v -0.064064 -0.739100 0.031354
v -0.064064 -0.739100 0.002830
v 0.016125 -0.733158 0.031354
v -0.064064 -0.733158 0.037658
v -0.064064 -0.733158 0.031354
v 0.016125 -0.733158 0.037658
v 0.016125 -0.733158 0.037658
v 0.016125 -0.733158 0.031354
v -0.064064 -0.733158 0.037658
v -0.064064 -0.733158 0.031354
v -0.059332 -0.590463 0.037658
v -0.064064 -0.590463 0.034068
v -0.064064 -0.590463 0.037658
v -0.059332 -0.590463 0.034068
v -0.059332 -0.590463 0.034068
v -0.059332 -0.590463 0.037658
v -0.064064 -0.590463 0.034068
v -0.064064 -0.590463 0.037658
v -0.051265 -0.598530 0.034068
v -0.064064 -0.598530 0.014761
v -0.064064 -0.598530 0.034068
v -0.051265 -0.598530 0.014761
v -0.051265 -0.598530 0.014761
v -0.051265 -0.598530 0.034068
v -0.064064 -0.598530 0.014761
v -0.064064 -0.598530 0.034068
v -0.062095 -0.587700 0.013025
v -0.064064 -0.587700 0.013025
v -0.062095 -0.587700 0.013025
v -0.064064 -0.587700 0.013025
vn 0 0 -1
vn 0 0 1
vn 0 1 0
vn 0 -1 0
vn -1 0 0
vn 1 0 0
vn 0 0.9841995013868062 -0.17706310024949412
vn 0 0.9786220324056013 -0.20566700681035432
vn 0 -0.9841995013868062 0.17706310024949412
vn 0 -0.9786220324056013 0.20566700681035432
vn -0.984199501386806 0 -0.1770631002494943
vn -0.9786220324056013 0 -0.20566700681035455
vn 0.984199501386806 0 0.1770631002494943
vn 0.9786220324056013 0 0.20566700681035455
vn -0.9154021808199948 0 -0.40254049156575233
vn 0.9154021808199948 0 0.40254049156575233
vn 0 0.9154021808199949 -0.4025404915657521
vn 0 -0.9154021808199949 0.4025404915657521
usemtl material_0_0
f 1//1 2//1 3//1
f 2//1 1//1 4//1
f 2//1 4//1 5//1
f 5//1 4//1 6//1
f 7//2 8//2 9//2
f 9//2 8//2 10//2
f 8//2 11//2 10//2
f 12//2 10//2 11//2
f 13//3 14//3 15//3
f 14//3 13//3 16//3
f 16//3 13//3 17//3
f 17//3 18//3 19//3
f 18//3 17//3 20//3
f 20//3 17//3 21//3
f 21//3 17//3 22//3
f 22//3 17//3 23//3
f 23//3 17//3 24//3
f 24//3 17//3 25//3
f 25//3 17//3 26//3
f 26//3 17//3 13//3
f 25//3 26//3 27//3
f 28//4 29//4 30//4
f 31//4 32//4 29//4
f 29//4 32//4 30//4
f 30//4 32//4 33//4
f 33//4 32//4 34//4
f 34//4 32//4 35//4
f 35//4 32//4 36//4
f 36//4 32//4 37//4
f 37//4 32//4 38//4
f 39//4 38//4 32//4
f 32//4 31//4 40//4
f 40//4 31//4 41//4
f 42//4 41//4 31//4
f 43//5 44//5 45//5
f 44//5 43//5 46//5
f 47//6 48//6 49//6
f 50//6 49//6 48//6
f 51//3 52//3 53//3
f 52//3 51//3 54//3
f 55//4 56//4 57//4
f 58//4 57//4 56//4
f 59//5 60//5 61//5
f 62//5 63//5 64//5
f 63//5 62//5 65//5
f 63//5 65//5 66//5
f 66//5 65//5 60//5
f 66//5 60//5 67//5
f 67//5 60//5 68//5
f 68//5 60//5 69//5
f 69//5 60//5 59//5
f 68//5 69//5 70//5
f 68//5 70//5 71//5
f 71//5 70//5 72//5
f 68//5 71//5 73//5
f 74//6 75//6 76//6
f 77//6 78//6 75//6
f 75//6 78//6 76//6
f 78//6 79//6 76//6
f 80//6 81//6 79//6
f 79//6 81//6 76//6
f 76//6 81//6 82//6
f 82//6 81//6 83//6
f 81//6 84//6 83//6
f 83//6 84//6 85//6
f 84//6 86//6 85//6
f 87//6 85//6 86//6
f 88//6 81//6 80//6
f 89//7 90//3 91//8
f 90//3 89//7 92//3
f 93//4 94//9 95//4
f 96//10 95//4 94//9
f 97//5 98//11 99//12
f 98//11 97//5 100//5
f 101//6 102//6 103//13
f 104//14 103//13 102//6
f 99//12 105//15 106//15
f 105//15 99//12 98//11
f 103//13 104//14 107//16
f 108//16 107//16 104//14
f 109//1 110//1 111//1
f 110//1 109//1 112//1
f 113//2 114//2 115//2
f 116//2 115//2 114//2
f 117//2 118//2 119//2
f 118//2 117//2 120//2
f 121//1 122//1 123//1
f 124//1 123//1 122//1
f 125//5 126//5 127//5
f 126//5 125//5 128//5
f 129//6 130//6 131//6
f 132//6 131//6 130//6
f 133//1 134//1 135//1
f 134//1 133//1 136//1
f 134//1 136//1 137//1
f 137//1 136//1 138//1
f 139//2 140//2 141//2
f 141//2 140//2 142//2
f 140//2 143//2 142//2
f 144//2 142//2 143//2
f 145//5 146//5 147//5
f 146//5 145//5 148//5
f 149//6 150//6 151//6
f 152//6 151//6 150//6
f 153//2 154//2 155//2
f 156//2 154//2 157//2
f 154//2 156//2 155//2
f 155//2 156//2 158//2
f 159//1 160//1 161//1
f 161//1 160//1 162//1
f 163//1 162//1 160//1
f 161//1 162//1 164//1
f 165//6 166//6 167//6
f 166//6 165//6 168//6
f 169//5 170//5 171//5
f 172//5 171//5 170//5
f 173//2 174//2 175//2
f 174//2 173//2 176//2
f 174//2 176//2 177//2
f 178//2 175//2 174//2
f 179//1 180//1 181//1
f 182//1 183//1 179//1
f 183//1 184//1 179//1
f 180//1 179//1 184//1
f 185//6 186//6 187//6
f 186//6 185//6 188//6
f 189//5 190//5 191//5
f 192//5 191//5 190//5
f 193//1 194//1 195//1
f 194//1 193//1 196//1
f 194//1 196//1 197//1
f 197//1 196//1 198//1
f 199//2 200//2 201//2
f 201//2 200//2 202//2
f 200//2 203//2 202//2
f 204//2 202//2 203//2
f 205//4 206//4 207//4
f 206//4 205//4 208//4
f 209//3 210//3 211//3
f 212//3 211//3 210//3
f 213//4 214//4 215//4
f 214//4 213//4 216//4
f 217//3 218//3 219//3
f 220//3 219//3 218//3
f 221//3 222//3 223//3
f 222//3 221//3 224//3
f 225//4 226//4 227//4
f 228//4 227//4 226//4
f 229//3 230//3 231//3
f 230//3 229//3 232//3
f 233//4 234//4 235//4
f 236//4 235//4 234//4
f 237//17 91//8 238//17
f 91//8 237//17 89//7
f 94//9 239//18 96//10
f 240//18 96//10 239//18
