# SSTK version 0.8.0
# 20
mtllib original-20.mtl
o instance_19/lwframe_2/ID139#ID139
v -0.662702 0.756970 0.030196
v -0.673066 -0.739067 0.030196
v -0.662702 -0.739067 0.030196
v -0.673066 0.756970 0.030196
v -0.673066 0.756970 0.030196
v -0.662702 0.756970 0.030196
v -0.673066 -0.739067 0.030196
v -0.662702 -0.739067 0.030196
v -0.662702 0.756970 0.030196
v -0.673066 0.756970 -0.006427
v -0.673066 0.756970 0.030196
v -0.656888 0.756970 -0.002842
v -0.661248 0.756970 -0.043391
v -0.662702 0.756970 -0.002842
v -0.656888 0.756970 -0.043391
v -0.674822 0.756970 -0.065363
v -0.661248 0.756970 -0.046789
v -0.651224 0.756970 -0.065363
v -0.674822 0.756970 -0.008182
v -0.658775 0.756970 -0.050678
v -0.658775 0.756970 -0.046789
v -0.651224 0.756970 -0.050678
v -0.651224 0.756970 -0.050678
v -0.658775 0.756970 -0.050678
v -0.651224 0.756970 -0.065363
v -0.658775 0.756970 -0.046789
v -0.661248 0.756970 -0.046789
v -0.661248 0.756970 -0.043391
v -0.662702 0.756970 -0.002842
v -0.662702 0.756970 0.030196
v -0.673066 0.756970 -0.006427
v -0.674822 0.756970 -0.008182
v -0.674822 0.756970 -0.065363
v -0.656888 0.756970 -0.043391
v -0.656888 0.756970 -0.002842
v -0.673066 0.756970 0.030196
v -0.673066 0.756970 -0.006427
v -0.673066 -0.739067 0.030196
v -0.673066 0.756970 0.030196
v -0.673066 -0.739067 -0.006427
v -0.673066 -0.739067 -0.006427
v -0.673066 0.756970 -0.006427
v -0.673066 -0.739067 0.030196
v -0.673066 0.756970 0.030196
v -0.674822 -0.739067 -0.065363
v -0.661248 -0.739067 -0.046789
v -0.674822 -0.739067 -0.008182
v -0.651224 -0.739067 -0.065363
v -0.673066 -0.739067 -0.006427
v -0.673066 -0.739067 0.030196
v -0.662702 -0.739067 -0.002842
v -0.658775 -0.739067 -0.050678
v -0.651224 -0.739067 -0.050678
v -0.658775 -0.739067 -0.046789
v -0.661248 -0.739067 -0.043391
v -0.656888 -0.739067 -0.002842
v -0.656888 -0.739067 -0.043391
v -0.662702 -0.739067 0.030196
v -0.662702 -0.739067 -0.002842
v -0.673066 -0.739067 0.030196
v -0.662702 -0.739067 0.030196
v -0.656888 -0.739067 -0.043391
v -0.661248 -0.739067 -0.043391
v -0.656888 -0.739067 -0.002842
v -0.661248 -0.739067 -0.046789
v -0.658775 -0.739067 -0.050678
v -0.658775 -0.739067 -0.046789
v -0.651224 -0.739067 -0.050678
v -0.651224 -0.739067 -0.065363
v -0.673066 -0.739067 -0.006427
v -0.674822 -0.739067 -0.008182
v -0.674822 -0.739067 -0.065363
v -0.662702 -0.739067 -0.002842
v -0.662702 0.756970 0.030196
v -0.662702 -0.739067 0.030196
v -0.662702 0.756970 -0.002842
v -0.662702 0.756970 -0.002842
v -0.662702 -0.739067 -0.002842
v -0.662702 0.756970 0.030196
v -0.662702 -0.739067 0.030196
v -0.658775 0.756970 -0.046789
v -0.661248 -0.739067 -0.046789
v -0.658775 -0.739067 -0.046789
v -0.661248 0.756970 -0.046789
v -0.661248 0.756970 -0.046789
v -0.658775 0.756970 -0.046789
v -0.661248 -0.739067 -0.046789
v -0.658775 -0.739067 -0.046789
v -0.658775 -0.739067 -0.050678
v -0.658775 0.756970 -0.046789
v -0.658775 -0.739067 -0.046789
v -0.658775 0.756970 -0.050678
v -0.658775 0.756970 -0.050678
v -0.658775 -0.739067 -0.050678
v -0.658775 0.756970 -0.046789
v -0.658775 -0.739067 -0.046789
v -0.651224 0.756970 -0.050678
v -0.658775 -0.739067 -0.050678
v -0.651224 -0.739067 -0.050678
v -0.658775 0.756970 -0.050678
v -0.658775 0.756970 -0.050678
v -0.651224 0.756970 -0.050678
v -0.658775 -0.739067 -0.050678
v -0.651224 -0.739067 -0.050678
v -0.651224 -0.739067 -0.065363
v -0.651224 0.756970 -0.050678
v -0.651224 -0.739067 -0.050678
v -0.651224 0.756970 -0.065363
v -0.651224 0.756970 -0.065363
v -0.651224 -0.739067 -0.065363
v -0.651224 0.756970 -0.050678
v -0.651224 -0.739067 -0.050678
v -0.674822 0.756970 -0.065363
v -0.651224 -0.739067 -0.065363
v -0.674822 -0.739067 -0.065363
v -0.651224 0.756970 -0.065363
v -0.651224 0.756970 -0.065363
v -0.674822 0.756970 -0.065363
v -0.651224 -0.739067 -0.065363
v -0.674822 -0.739067 -0.065363
v -0.674822 0.756970 -0.065363
v -0.674822 -0.739067 -0.008182
v -0.674822 0.756970 -0.008182
v -0.674822 -0.739067 -0.065363
v -0.674822 -0.739067 -0.065363
v -0.674822 0.756970 -0.065363
v -0.674822 -0.739067 -0.008182
v -0.674822 0.756970 -0.008182
v -0.656888 0.756970 -0.002842
v -0.662702 -0.739067 -0.002842
v -0.656888 -0.739067 -0.002842
v -0.662702 0.756970 -0.002842
v -0.662702 0.756970 -0.002842
v -0.656888 0.756970 -0.002842
v -0.662702 -0.739067 -0.002842
v -0.656888 -0.739067 -0.002842
v -0.656888 -0.739067 -0.043391
v -0.656888 0.756970 -0.002842
v -0.656888 -0.739067 -0.002842
v -0.656888 0.756970 -0.043391
v -0.656888 0.756970 -0.043391
v -0.656888 -0.739067 -0.043391
v -0.656888 0.756970 -0.002842
v -0.656888 -0.739067 -0.002842
v -0.661248 0.756970 -0.043391
v -0.656888 -0.739067 -0.043391
v -0.661248 -0.739067 -0.043391
v -0.656888 0.756970 -0.043391
v -0.656888 0.756970 -0.043391
v -0.661248 0.756970 -0.043391
v -0.656888 -0.739067 -0.043391
v -0.661248 -0.739067 -0.043391
v -0.661248 -0.739067 -0.046789
v -0.661248 0.756970 -0.043391
v -0.661248 -0.739067 -0.043391
v -0.661248 0.756970 -0.046789
v -0.661248 0.756970 -0.046789
v -0.661248 -0.739067 -0.046789
v -0.661248 0.756970 -0.043391
v -0.661248 -0.739067 -0.043391
vn 0 0 1
vn 0 0 -1
vn 0 1 0
vn 0 -1 0
vn -0.9238795391929066 0 0.38268341623423263
vn -1 0 0
vn 0.9238795391929066 0 -0.38268341623423263
vn 1 0 0
usemtl material_0_0
f 1//1 2//1 3//1
f 2//1 1//1 4//1
f 5//2 6//2 7//2
f 8//2 7//2 6//2
f 9//3 10//3 11//3
f 12//3 13//3 14//3
f 13//3 12//3 15//3
f 16//3 17//3 18//3
f 17//3 16//3 19//3
f 17//3 19//3 10//3
f 17//3 10//3 14//3
f 14//3 10//3 9//3
f 17//3 14//3 13//3
f 18//3 17//3 20//3
f 20//3 17//3 21//3
f 18//3 20//3 22//3
f 23//4 24//4 25//4
f 26//4 27//4 24//4
f 24//4 27//4 25//4
f 28//4 29//4 27//4
f 30//4 31//4 29//4
f 29//4 31//4 27//4
f 31//4 32//4 27//4
f 32//4 33//4 27//4
f 25//4 27//4 33//4
f 34//4 35//4 28//4
f 29//4 28//4 35//4
f 36//4 31//4 30//4
f 37//5 38//6 39//6
f 38//6 37//5 40//5
f 41//7 42//7 43//8
f 44//8 43//8 42//7
f 45//4 46//4 47//4
f 46//4 45//4 48//4
f 47//4 46//4 49//4
f 49//4 46//4 50//4
f 50//4 46//4 51//4
f 46//4 48//4 52//4
f 52//4 48//4 53//4
f 54//4 46//4 52//4
f 51//4 55//4 56//4
f 55//4 51//4 46//4
f 56//4 55//4 57//4
f 58//4 50//4 51//4
f 59//3 60//3 61//3
f 62//3 63//3 64//3
f 65//3 59//3 63//3
f 64//3 63//3 59//3
f 66//3 65//3 67//3
f 68//3 69//3 66//3
f 66//3 69//3 65//3
f 59//3 65//3 60//3
f 60//3 65//3 70//3
f 70//3 65//3 71//3
f 69//3 72//3 65//3
f 71//3 65//3 72//3
f 73//8 74//8 75//8
f 74//8 73//8 76//8
f 77//6 78//6 79//6
f 80//6 79//6 78//6
f 81//1 82//1 83//1
f 82//1 81//1 84//1
f 85//2 86//2 87//2
f 88//2 87//2 86//2
f 89//8 90//8 91//8
f 90//8 89//8 92//8
f 93//6 94//6 95//6
f 96//6 95//6 94//6
f 97//1 98//1 99//1
f 98//1 97//1 100//1
f 101//2 102//2 103//2
f 104//2 103//2 102//2
f 105//8 106//8 107//8
f 106//8 105//8 108//8
f 109//6 110//6 111//6
f 112//6 111//6 110//6
f 113//2 114//2 115//2
f 114//2 113//2 116//2
f 117//1 118//1 119//1
f 120//1 119//1 118//1
f 121//6 122//5 123//5
f 122//5 121//6 124//6
f 125//8 126//8 127//7
f 128//7 127//7 126//8
f 123//5 40//5 37//5
f 40//5 123//5 122//5
f 127//7 128//7 41//7
f 42//7 41//7 128//7
f 129//1 130//1 131//1
f 130//1 129//1 132//1
f 133//2 134//2 135//2
f 136//2 135//2 134//2
f 137//8 138//8 139//8
f 138//8 137//8 140//8
f 141//6 142//6 143//6
f 144//6 143//6 142//6
f 145//2 146//2 147//2
f 146//2 145//2 148//2
f 149//1 150//1 151//1
f 152//1 151//1 150//1
f 153//8 154//8 155//8
f 154//8 153//8 156//8
f 157//6 158//6 159//6
f 160//6 159//6 158//6
