# SSTK version 0.8.0
# 16
mtllib original-16.mtl
o instance_15/brwframe_2/ID107#ID107
v 0.646617 -0.739067 -0.065363
v 0.670214 -0.753246 -0.065363
v 0.646617 -0.753246 -0.065363
v 0.670214 -0.739067 -0.065363
v 0.670214 -0.739067 -0.065363
v 0.646617 -0.739067 -0.065363
v 0.670214 -0.753246 -0.065363
v 0.646617 -0.753246 -0.065363
v 0.646617 -0.740116 -0.035145
v 0.646617 -0.743984 -0.014965
v 0.646617 -0.740116 -0.014965
v 0.646617 -0.739067 -0.046789
v 0.646617 -0.739067 -0.035145
v 0.646617 -0.739067 -0.065363
v 0.646617 -0.753246 -0.060463
v 0.646617 -0.739067 -0.050678
v 0.646617 -0.753246 -0.065363
v 0.646617 -0.743984 -0.007075
v 0.646617 -0.750122 -0.003871
v 0.646617 -0.747980 -0.003871
v 0.646617 -0.755984 -0.009732
v 0.646617 -0.755984 -0.011724
v 0.646617 -0.757965 -0.011724
v 0.646617 -0.757965 -0.060463
v 0.646617 -0.750297 -0.046789
v 0.646617 -0.750297 -0.050678
v 0.646617 -0.753246 -0.060463
v 0.646617 -0.739067 -0.050678
v 0.646617 -0.757965 -0.060463
v 0.646617 -0.750297 -0.050678
v 0.646617 -0.750297 -0.046789
v 0.646617 -0.739067 -0.046789
v 0.646617 -0.740116 -0.035145
v 0.646617 -0.743984 -0.014965
v 0.646617 -0.757965 -0.011724
v 0.646617 -0.755984 -0.011724
v 0.646617 -0.755984 -0.009732
v 0.646617 -0.743984 -0.007075
v 0.646617 -0.750122 -0.003871
v 0.646617 -0.747980 -0.003871
v 0.646617 -0.753246 -0.065363
v 0.646617 -0.739067 -0.065363
v 0.646617 -0.739067 -0.035145
v 0.646617 -0.740116 -0.014965
v 0.658095 -0.739067 -0.002842
v 0.652280 -0.739067 -0.035145
v 0.652280 -0.739067 -0.002842
v 0.654168 -0.739067 -0.046789
v 0.654168 -0.739067 -0.050678
v 0.668459 -0.739067 0.030196
v 0.658095 -0.739067 0.030196
v 0.646617 -0.739067 -0.065363
v 0.646617 -0.739067 -0.050678
v 0.670214 -0.739067 -0.065363
v 0.668459 -0.739067 -0.006427
v 0.670214 -0.739067 -0.008182
v 0.646617 -0.739067 -0.046789
v 0.646617 -0.739067 -0.035145
v 0.654168 -0.739067 -0.046789
v 0.652280 -0.739067 -0.035145
v 0.646617 -0.739067 -0.046789
v 0.646617 -0.739067 -0.035145
v 0.670214 -0.739067 -0.008182
v 0.668459 -0.739067 -0.006427
v 0.670214 -0.739067 -0.065363
v 0.668459 -0.739067 0.030196
v 0.658095 -0.739067 -0.002842
v 0.654168 -0.739067 -0.050678
v 0.646617 -0.739067 -0.065363
v 0.646617 -0.739067 -0.050678
v 0.658095 -0.739067 0.030196
v 0.652280 -0.739067 -0.002842
v 0.670214 -0.757965 -0.060463
v 0.670214 -0.739067 -0.008182
v 0.670214 -0.757965 -0.008182
v 0.670214 -0.753246 -0.060463
v 0.670214 -0.739067 -0.065363
v 0.670214 -0.753246 -0.065363
v 0.670214 -0.753246 -0.065363
v 0.670214 -0.753246 -0.060463
v 0.670214 -0.739067 -0.065363
v 0.670214 -0.739067 -0.008182
v 0.670214 -0.757965 -0.060463
v 0.670214 -0.757965 -0.008182
v 0.670214 -0.753246 -0.065363
v 0.646617 -0.753246 -0.060463
v 0.646617 -0.753246 -0.065363
v 0.670214 -0.753246 -0.060463
v 0.670214 -0.753246 -0.060463
v 0.670214 -0.753246 -0.065363
v 0.646617 -0.753246 -0.060463
v 0.646617 -0.753246 -0.065363
v 0.670214 -0.757965 -0.060463
v 0.646617 -0.757965 -0.011724
v 0.646617 -0.757965 -0.060463
v 0.652280 -0.757965 -0.011724
v 0.652280 -0.757965 -0.002842
v 0.658095 -0.757965 -0.002842
v 0.658095 -0.757965 0.030196
v 0.668459 -0.757965 -0.006427
v 0.670214 -0.757965 -0.008182
v 0.668459 -0.757965 0.030196
v 0.668459 -0.757965 -0.006427
v 0.658095 -0.757965 0.030196
v 0.668459 -0.757965 0.030196
v 0.670214 -0.757965 -0.008182
v 0.670214 -0.757965 -0.060463
v 0.658095 -0.757965 -0.002842
v 0.652280 -0.757965 -0.002842
v 0.652280 -0.757965 -0.011724
v 0.646617 -0.757965 -0.011724
v 0.646617 -0.757965 -0.060463
v 0.652280 -0.757965 -0.011724
v 0.646617 -0.755984 -0.011724
v 0.646617 -0.757965 -0.011724
v 0.652280 -0.755984 -0.011724
v 0.652280 -0.755984 -0.011724
v 0.652280 -0.757965 -0.011724
v 0.646617 -0.755984 -0.011724
v 0.646617 -0.757965 -0.011724
v 0.652280 -0.755984 -0.011724
v 0.646617 -0.755984 -0.009732
v 0.646617 -0.755984 -0.011724
v 0.652280 -0.755984 -0.009732
v 0.652280 -0.755984 -0.009732
v 0.652280 -0.755984 -0.011724
v 0.646617 -0.755984 -0.009732
v 0.646617 -0.755984 -0.011724
v 0.652280 -0.750122 -0.003871
v 0.646617 -0.750122 -0.003871
v 0.646617 -0.750122 -0.003871
v 0.652280 -0.750122 -0.003871
v 0.652280 -0.747980 -0.003871
v 0.646617 -0.747980 -0.003871
v 0.646617 -0.747980 -0.003871
v 0.652280 -0.747980 -0.003871
v 0.652280 -0.743984 -0.007075
v 0.646617 -0.743984 -0.007075
v 0.646617 -0.743984 -0.007075
v 0.652280 -0.743984 -0.007075
v 0.652280 -0.743984 -0.007075
v 0.646617 -0.743984 -0.014965
v 0.646617 -0.743984 -0.007075
v 0.652280 -0.743984 -0.014965
v 0.652280 -0.743984 -0.014965
v 0.652280 -0.743984 -0.007075
v 0.646617 -0.743984 -0.014965
v 0.646617 -0.743984 -0.007075
v 0.652280 -0.740116 -0.014965
v 0.646617 -0.743984 -0.014965
v 0.652280 -0.743984 -0.014965
v 0.646617 -0.740116 -0.014965
v 0.646617 -0.740116 -0.014965
v 0.652280 -0.740116 -0.014965
v 0.646617 -0.743984 -0.014965
v 0.652280 -0.743984 -0.014965
v 0.652280 -0.740116 -0.014965
v 0.646617 -0.740116 -0.035145
v 0.646617 -0.740116 -0.014965
v 0.652280 -0.740116 -0.035145
v 0.652280 -0.740116 -0.035145
v 0.652280 -0.740116 -0.014965
v 0.646617 -0.740116 -0.035145
v 0.646617 -0.740116 -0.014965
v 0.652280 -0.739067 -0.035145
v 0.646617 -0.740116 -0.035145
v 0.652280 -0.740116 -0.035145
v 0.646617 -0.739067 -0.035145
v 0.646617 -0.739067 -0.035145
v 0.652280 -0.739067 -0.035145
v 0.646617 -0.740116 -0.035145
v 0.652280 -0.740116 -0.035145
v 0.646617 -0.739067 -0.046789
v 0.654168 -0.750297 -0.046789
v 0.646617 -0.750297 -0.046789
v 0.654168 -0.739067 -0.046789
v 0.654168 -0.739067 -0.046789
v 0.646617 -0.739067 -0.046789
v 0.654168 -0.750297 -0.046789
v 0.646617 -0.750297 -0.046789
v 0.654168 -0.750297 -0.046789
v 0.646617 -0.750297 -0.050678
v 0.646617 -0.750297 -0.046789
v 0.654168 -0.750297 -0.050678
v 0.654168 -0.750297 -0.050678
v 0.654168 -0.750297 -0.046789
v 0.646617 -0.750297 -0.050678
v 0.646617 -0.750297 -0.046789
v 0.654168 -0.739067 -0.050678
v 0.646617 -0.750297 -0.050678
v 0.654168 -0.750297 -0.050678
v 0.646617 -0.739067 -0.050678
v 0.646617 -0.739067 -0.050678
v 0.654168 -0.739067 -0.050678
v 0.646617 -0.750297 -0.050678
v 0.654168 -0.750297 -0.050678
v 0.646617 -0.753246 -0.060463
v 0.670214 -0.757965 -0.060463
v 0.646617 -0.757965 -0.060463
v 0.670214 -0.753246 -0.060463
v 0.670214 -0.753246 -0.060463
v 0.646617 -0.753246 -0.060463
v 0.670214 -0.757965 -0.060463
v 0.646617 -0.757965 -0.060463
v 0.652280 -0.739067 -0.002842
v 0.652280 -0.747980 -0.003871
v 0.652280 -0.757965 -0.002842
v 0.652280 -0.743984 -0.007075
v 0.652280 -0.740116 -0.014965
v 0.652280 -0.739067 -0.035145
v 0.652280 -0.740116 -0.035145
v 0.652280 -0.743984 -0.014965
v 0.652280 -0.755984 -0.009732
v 0.652280 -0.757965 -0.011724
v 0.652280 -0.750122 -0.003871
v 0.652280 -0.755984 -0.011724
v 0.652280 -0.755984 -0.011724
v 0.652280 -0.755984 -0.009732
v 0.652280 -0.757965 -0.011724
v 0.652280 -0.747980 -0.003871
v 0.652280 -0.757965 -0.002842
v 0.652280 -0.750122 -0.003871
v 0.652280 -0.740116 -0.014965
v 0.652280 -0.743984 -0.007075
v 0.652280 -0.743984 -0.014965
v 0.652280 -0.740116 -0.035145
v 0.652280 -0.739067 -0.035145
v 0.652280 -0.739067 -0.002842
v 0.658095 -0.739067 -0.002842
v 0.652280 -0.757965 -0.002842
v 0.658095 -0.757965 -0.002842
v 0.652280 -0.739067 -0.002842
v 0.652280 -0.739067 -0.002842
v 0.658095 -0.739067 -0.002842
v 0.652280 -0.757965 -0.002842
v 0.658095 -0.757965 -0.002842
v 0.658095 -0.739067 -0.002842
v 0.658095 -0.757965 0.030196
v 0.658095 -0.739067 0.030196
v 0.658095 -0.757965 -0.002842
v 0.658095 -0.757965 -0.002842
v 0.658095 -0.739067 -0.002842
v 0.658095 -0.757965 0.030196
v 0.658095 -0.739067 0.030196
v 0.668459 -0.739067 0.030196
v 0.658095 -0.757965 0.030196
v 0.668459 -0.757965 0.030196
v 0.658095 -0.739067 0.030196
v 0.658095 -0.739067 0.030196
v 0.668459 -0.739067 0.030196
v 0.658095 -0.757965 0.030196
v 0.668459 -0.757965 0.030196
v 0.668459 -0.757965 -0.006427
v 0.668459 -0.739067 0.030196
v 0.668459 -0.757965 0.030196
v 0.668459 -0.739067 -0.006427
v 0.668459 -0.739067 -0.006427
v 0.668459 -0.757965 -0.006427
v 0.668459 -0.739067 0.030196
v 0.668459 -0.757965 0.030196
v 0.654168 -0.739067 -0.050678
v 0.654168 -0.750297 -0.046789
v 0.654168 -0.739067 -0.046789
v 0.654168 -0.750297 -0.050678
v 0.654168 -0.750297 -0.050678
v 0.654168 -0.739067 -0.050678
v 0.654168 -0.750297 -0.046789
v 0.654168 -0.739067 -0.046789
vn 0 0 -1
vn 0 0 1
vn -1 0 0
vn 1 0 0
vn 0 1 0
vn 0 -1 0
vn 0.9238795391929066 0 0.38268341623423263
vn -0.9238795391929066 0 -0.38268341623423263
vn 0 -0.9238795391929067 0.3826834162342324
vn 0 0.9238795391929067 -0.3826834162342324
vn 0 -0.38268341623423285 0.9238795391929064
vn 0 0.38268341623423285 -0.9238795391929064
vn 0 0.3315424061895899 0.9434403176131584
vn 0 -0.3315424061895899 -0.9434403176131584
vn 0 0.6255810109771824 0.7801592136895944
vn 0 -0.6255810109771824 -0.7801592136895944
usemtl material_0_0
f 1//1 2//1 3//1
f 2//1 1//1 4//1
f 5//2 6//2 7//2
f 8//2 7//2 6//2
f 9//3 10//3 11//3
f 12//3 9//3 13//3
f 14//3 15//3 16//3
f 15//3 14//3 17//3
f 18//3 19//3 20//3
f 19//3 18//3 21//3
f 21//3 18//3 10//3
f 21//3 10//3 22//3
f 22//3 10//3 23//3
f 23//3 10//3 24//3
f 24//3 10//3 25//3
f 25//3 10//3 9//3
f 25//3 9//3 12//3
f 24//3 25//3 26//3
f 24//3 26//3 16//3
f 24//3 16//3 15//3
f 27//4 28//4 29//4
f 28//4 30//4 29//4
f 30//4 31//4 29//4
f 32//4 33//4 31//4
f 33//4 34//4 31//4
f 31//4 34//4 29//4
f 29//4 34//4 35//4
f 35//4 34//4 36//4
f 36//4 34//4 37//4
f 34//4 38//4 37//4
f 37//4 38//4 39//4
f 40//4 39//4 38//4
f 41//4 42//4 27//4
f 28//4 27//4 42//4
f 43//4 33//4 32//4
f 44//4 34//4 33//4
f 45//5 46//5 47//5
f 46//5 45//5 48//5
f 48//5 45//5 49//5
f 50//5 45//5 51//5
f 49//5 52//5 53//5
f 52//5 49//5 54//5
f 54//5 49//5 45//5
f 54//5 45//5 55//5
f 55//5 45//5 50//5
f 54//5 55//5 56//5
f 46//5 57//5 58//5
f 57//5 46//5 48//5
f 59//6 60//6 61//6
f 62//6 61//6 60//6
f 63//6 64//6 65//6
f 66//6 67//6 64//6
f 64//6 67//6 65//6
f 67//6 68//6 65//6
f 65//6 68//6 69//6
f 70//6 69//6 68//6
f 71//6 67//6 66//6
f 68//6 67//6 59//6
f 59//6 67//6 60//6
f 72//6 60//6 67//6
f 73//4 74//7 75//7
f 74//7 73//4 76//4
f 74//7 76//4 77//4
f 77//4 76//4 78//4
f 79//3 80//3 81//3
f 81//3 80//3 82//8
f 80//3 83//3 82//8
f 84//8 82//8 83//3
f 85//6 86//6 87//6
f 86//6 85//6 88//6
f 89//5 90//5 91//5
f 92//5 91//5 90//5
f 93//6 94//6 95//6
f 94//6 93//6 96//6
f 96//6 93//6 97//6
f 97//6 93//6 98//6
f 98//6 93//6 99//6
f 99//6 93//6 100//6
f 100//6 93//6 101//6
f 102//6 99//6 100//6
f 103//5 104//5 105//5
f 106//5 107//5 103//5
f 103//5 107//5 104//5
f 104//5 107//5 108//5
f 108//5 107//5 109//5
f 109//5 107//5 110//5
f 110//5 107//5 111//5
f 112//5 111//5 107//5
f 113//2 114//2 115//2
f 114//2 113//2 116//2
f 117//1 118//1 119//1
f 120//1 119//1 118//1
f 121//6 122//9 123//6
f 122//9 121//6 124//9
f 125//10 126//5 127//10
f 128//5 127//10 126//5
f 129//11 122//9 124//9
f 122//9 129//11 130//11
f 131//12 132//12 127//10
f 125//10 127//10 132//12
f 133//13 130//11 129//11
f 130//11 133//13 134//13
f 135//14 136//14 131//12
f 132//12 131//12 136//14
f 137//15 134//13 133//13
f 134//13 137//15 138//15
f 139//16 140//16 135//14
f 136//14 135//14 140//16
f 141//5 142//5 143//5
f 142//5 141//5 144//5
f 145//6 146//6 147//6
f 148//6 147//6 146//6
f 149//2 150//2 151//2
f 150//2 149//2 152//2
f 153//1 154//1 155//1
f 156//1 155//1 154//1
f 157//5 158//5 159//5
f 158//5 157//5 160//5
f 161//6 162//6 163//6
f 164//6 163//6 162//6
f 165//2 166//2 167//2
f 166//2 165//2 168//2
f 169//1 170//1 171//1
f 172//1 171//1 170//1
f 173//1 174//1 175//1
f 174//1 173//1 176//1
f 177//2 178//2 179//2
f 180//2 179//2 178//2
f 181//5 182//5 183//5
f 182//5 181//5 184//5
f 185//6 186//6 187//6
f 188//6 187//6 186//6
f 189//2 190//2 191//2
f 190//2 189//2 192//2
f 193//1 194//1 195//1
f 196//1 195//1 194//1
f 197//1 198//1 199//1
f 198//1 197//1 200//1
f 201//2 202//2 203//2
f 204//2 203//2 202//2
f 205//3 206//3 207//3
f 206//3 205//3 208//3
f 208//3 205//3 209//3
f 209//3 205//3 210//3
f 209//3 210//3 211//3
f 212//3 208//3 209//3
f 207//3 213//3 214//3
f 213//3 207//3 215//3
f 215//3 207//3 206//3
f 214//3 213//3 216//3
f 217//4 218//4 219//4
f 220//4 221//4 222//4
f 222//4 221//4 218//4
f 219//4 218//4 221//4
f 223//4 224//4 225//4
f 226//4 227//4 223//4
f 227//4 228//4 223//4
f 223//4 228//4 224//4
f 224//4 228//4 220//4
f 221//4 220//4 228//4
f 229//2 230//2 231//2
f 230//2 229//2 232//2
f 233//1 234//1 235//1
f 236//1 235//1 234//1
f 237//3 238//3 239//3
f 238//3 237//3 240//3
f 241//4 242//4 243//4
f 244//4 243//4 242//4
f 245//2 246//2 247//2
f 246//2 245//2 248//2
f 249//1 250//1 251//1
f 252//1 251//1 250//1
f 253//7 254//4 255//4
f 254//4 253//7 256//7
f 257//8 258//8 259//3
f 260//3 259//3 258//8
f 75//7 256//7 253//7
f 256//7 75//7 74//7
f 82//8 84//8 257//8
f 258//8 257//8 84//8
f 261//3 262//3 263//3
f 262//3 261//3 264//3
f 265//4 266//4 267//4
f 268//4 267//4 266//4
