# SSTK version 0.8.0
# 159
mtllib original-159.mtl
o instance_110/BEHGrille/ID325#ID325
v 0.574703 -0.341234 -0.009703
v 0.071329 -0.341234 -0.019076
v 0.071329 -0.341234 -0.009703
v 0.574703 -0.341234 -0.019076
v 0.574703 -0.341234 -0.019076
v 0.574703 -0.341234 -0.009703
v 0.071329 -0.341234 -0.019076
v 0.071329 -0.341234 -0.009703
v 0.574703 -0.344179 -0.015925
v 0.574703 -0.341234 -0.019076
v 0.574703 -0.341234 -0.009703
v 0.574703 -0.345954 -0.015925
v 0.574703 -0.345954 -0.019076
v 0.574703 -0.345954 -0.019076
v 0.574703 -0.345954 -0.015925
v 0.574703 -0.341234 -0.019076
v 0.574703 -0.344179 -0.015925
v 0.574703 -0.341234 -0.009703
v 0.071329 -0.341234 -0.019076
v 0.574703 -0.345954 -0.019076
v 0.071329 -0.345954 -0.019076
v 0.574703 -0.341234 -0.019076
v 0.574703 -0.341234 -0.019076
v 0.071329 -0.341234 -0.019076
v 0.574703 -0.345954 -0.019076
v 0.071329 -0.345954 -0.019076
v 0.071329 -0.341234 -0.019076
v 0.071329 -0.344179 -0.015925
v 0.071329 -0.341234 -0.009703
v 0.071329 -0.345954 -0.015925
v 0.071329 -0.345954 -0.019076
v 0.071329 -0.345954 -0.019076
v 0.071329 -0.341234 -0.019076
v 0.071329 -0.345954 -0.015925
v 0.071329 -0.344179 -0.015925
v 0.071329 -0.341234 -0.009703
v 0.071329 -0.344179 -0.015925
v 0.574703 -0.341234 -0.009703
v 0.071329 -0.341234 -0.009703
v 0.574703 -0.344179 -0.015925
v 0.574703 -0.344179 -0.015925
v 0.071329 -0.344179 -0.015925
v 0.574703 -0.341234 -0.009703
v 0.071329 -0.341234 -0.009703
v 0.574703 -0.345954 -0.015925
v 0.071329 -0.344179 -0.015925
v 0.071329 -0.345954 -0.015925
v 0.574703 -0.344179 -0.015925
v 0.574703 -0.344179 -0.015925
v 0.574703 -0.345954 -0.015925
v 0.071329 -0.344179 -0.015925
v 0.071329 -0.345954 -0.015925
v 0.574703 -0.345954 -0.019076
v 0.071329 -0.345954 -0.015925
v 0.071329 -0.345954 -0.019076
v 0.574703 -0.345954 -0.015925
v 0.574703 -0.345954 -0.015925
v 0.574703 -0.345954 -0.019076
v 0.071329 -0.345954 -0.015925
v 0.071329 -0.345954 -0.019076
vn 0 1 0
vn 0 -1 0
vn 1 0 0
vn -1 0 0
vn 0 0 -1
vn 0 0 1
vn 0 -0.9038596952433977 0.4278289977485304
vn 0 0.9038596952433977 -0.4278289977485304
usemtl material_0_0
f 1//1 2//1 3//1
f 2//1 1//1 4//1
f 5//2 6//2 7//2
f 8//2 7//2 6//2
f 9//3 10//3 11//3
f 10//3 9//3 12//3
f 10//3 12//3 13//3
f 14//4 15//4 16//4
f 15//4 17//4 16//4
f 18//4 16//4 17//4
f 19//5 20//5 21//5
f 20//5 19//5 22//5
f 23//6 24//6 25//6
f 26//6 25//6 24//6
f 27//4 28//4 29//4
f 28//4 27//4 30//4
f 30//4 27//4 31//4
f 32//3 33//3 34//3
f 34//3 33//3 35//3
f 36//3 35//3 33//3
f 37//7 38//7 39//7
f 38//7 37//7 40//7
f 41//8 42//8 43//8
f 44//8 43//8 42//8
f 45//6 46//6 47//6
f 46//6 45//6 48//6
f 49//5 50//5 51//5
f 52//5 51//5 50//5
f 53//2 54//2 55//2
f 54//2 53//2 56//2
f 57//1 58//1 59//1
f 60//1 59//1 58//1
