# SSTK version 0.8.0
# 12
mtllib original-12.mtl
o instance_11/taframe_2/ID81#ID81
v 0.325394 0.767598 0.020089
v 0.325394 0.753958 0.021599
v 0.325394 0.767598 0.021599
v 0.325394 0.753958 0.020089
v 0.325394 0.753958 0.020089
v 0.325394 0.767598 0.020089
v 0.325394 0.753958 0.021599
v 0.325394 0.767598 0.021599
v 0.325394 0.753958 0.020089
v -0.645316 0.753958 0.021599
v -0.645316 0.753958 0.020089
v 0.325394 0.753958 0.021599
v 0.325394 0.753958 0.021599
v 0.325394 0.753958 0.020089
v -0.645316 0.753958 0.021599
v -0.645316 0.753958 0.020089
v 0.640712 0.753958 0.020089
v 0.640712 0.753958 0.021599
v 0.640712 0.753958 0.021599
v 0.640712 0.753958 0.020089
v -0.645316 0.767717 0.020089
v 0.325394 0.753958 0.020089
v -0.645316 0.753958 0.020089
v 0.640712 0.753958 0.020089
v 0.640712 0.767717 0.020089
v 0.640712 0.767717 0.020089
v -0.645316 0.767717 0.020089
v 0.640712 0.753958 0.020089
v 0.325394 0.753958 0.020089
v -0.645316 0.753958 0.020089
v 0.640712 0.767717 0.021599
v 0.325394 0.753958 0.021599
v 0.640712 0.753958 0.021599
v -0.645316 0.753958 0.021599
v -0.645316 0.767717 0.021599
v -0.645316 0.767717 0.021599
v 0.640712 0.767717 0.021599
v -0.645316 0.753958 0.021599
v 0.325394 0.753958 0.021599
v 0.640712 0.753958 0.021599
v -0.645316 0.751224 0.044390
v -0.645316 0.751224 0.045297
v -0.645316 0.762084 0.044390
v -0.645316 0.780567 0.044573
v -0.645316 0.779729 0.037368
v -0.645316 0.779031 0.044573
v -0.645316 0.780567 0.023115
v -0.645316 0.779031 0.038217
v -0.645316 0.777011 0.038217
v -0.645316 0.779729 0.023115
v -0.645316 0.762701 -0.013655
v -0.645316 0.761854 -0.002804
v -0.645316 0.762701 -0.002615
v -0.645316 0.761854 -0.013655
v -0.645316 0.761977 0.045297
v -0.645316 0.767790 0.043579
v -0.645316 0.767717 0.042607
v -0.645316 0.768610 0.042729
v -0.645316 0.776161 0.042729
v -0.645316 0.768610 -0.002615
v -0.645316 0.767717 0.038083
v -0.645316 0.767717 0.037066
v -0.645316 0.767717 0.021599
v -0.645316 0.767717 0.020089
v -0.645316 0.753958 0.021599
v -0.645316 0.767717 -0.001766
v -0.645316 0.757604 -0.001766
v -0.645316 0.758643 -0.002804
v -0.645316 0.757604 -0.007764
v -0.645316 0.758643 -0.007764
v -0.645316 0.753958 0.020089
v -0.645316 0.777011 0.045334
v -0.645316 0.769813 0.043579
v -0.645316 0.773689 0.045334
v -0.645316 0.776161 0.037368
v -0.645316 0.779729 0.037368
v -0.645316 0.777011 0.038217
v -0.645316 0.776161 0.037368
v -0.645316 0.776161 0.042729
v -0.645316 0.767790 0.043579
v -0.645316 0.769813 0.043579
v -0.645316 0.777011 0.045334
v -0.645316 0.773689 0.045334
v -0.645316 0.767717 0.020089
v -0.645316 0.753958 0.021599
v -0.645316 0.753958 0.020089
v -0.645316 0.758643 -0.007764
v -0.645316 0.758643 -0.002804
v -0.645316 0.757604 -0.007764
v -0.645316 0.761854 -0.002804
v -0.645316 0.762701 -0.002615
v -0.645316 0.757604 -0.001766
v -0.645316 0.768610 -0.002615
v -0.645316 0.767717 -0.001766
v -0.645316 0.767717 0.021599
v -0.645316 0.767717 0.037066
v -0.645316 0.767717 0.038083
v -0.645316 0.767717 0.042607
v -0.645316 0.768610 0.042729
v -0.645316 0.762084 0.044390
v -0.645316 0.761977 0.045297
v -0.645316 0.751224 0.045297
v -0.645316 0.761854 -0.013655
v -0.645316 0.762701 -0.013655
v -0.645316 0.779729 0.023115
v -0.645316 0.780567 0.023115
v -0.645316 0.779031 0.038217
v -0.645316 0.779031 0.044573
v -0.645316 0.780567 0.044573
v -0.645316 0.751224 0.044390
v 0.640712 0.753958 0.020089
v 0.640712 0.767717 0.021599
v 0.640712 0.753958 0.021599
v 0.640712 0.757604 -0.001766
v 0.640712 0.758643 -0.002804
v 0.640712 0.767717 -0.001766
v 0.640712 0.757604 -0.007764
v 0.640712 0.762701 -0.002615
v 0.640712 0.758643 -0.007764
v 0.640712 0.761854 -0.002804
v 0.640712 0.762701 -0.013655
v 0.640712 0.761854 -0.013655
v 0.640712 0.751224 0.044390
v 0.640712 0.761977 0.045297
v 0.640712 0.751224 0.045297
v 0.640712 0.762084 0.044390
v 0.640712 0.767790 0.043579
v 0.640712 0.767717 0.042607
v 0.640712 0.769813 0.043579
v 0.640712 0.768610 0.042729
v 0.640712 0.768610 -0.002615
v 0.640712 0.767717 0.020089
v 0.640712 0.777011 0.045334
v 0.640712 0.773689 0.045334
v 0.640712 0.776161 0.042729
v 0.640712 0.777011 0.038217
v 0.640712 0.776161 0.037368
v 0.640712 0.779031 0.038217
v 0.640712 0.780567 0.044573
v 0.640712 0.779031 0.044573
v 0.640712 0.779729 0.037368
v 0.640712 0.780567 0.023115
v 0.640712 0.779729 0.023115
v 0.640712 0.779729 0.023115
v 0.640712 0.779729 0.037368
v 0.640712 0.780567 0.023115
v 0.640712 0.776161 0.037368
v 0.640712 0.779031 0.038217
v 0.640712 0.780567 0.044573
v 0.640712 0.779031 0.044573
v 0.640712 0.777011 0.038217
v 0.640712 0.776161 0.042729
v 0.640712 0.768610 0.042729
v 0.640712 0.769813 0.043579
v 0.640712 0.777011 0.045334
v 0.640712 0.773689 0.045334
v 0.640712 0.762701 -0.002615
v 0.640712 0.767717 -0.001766
v 0.640712 0.768610 -0.002615
v 0.640712 0.767717 0.020089
v 0.640712 0.753958 0.020089
v 0.640712 0.767717 0.021599
v 0.640712 0.767717 0.042607
v 0.640712 0.767790 0.043579
v 0.640712 0.762084 0.044390
v 0.640712 0.761977 0.045297
v 0.640712 0.751224 0.044390
v 0.640712 0.751224 0.045297
v 0.640712 0.761854 -0.013655
v 0.640712 0.761854 -0.002804
v 0.640712 0.762701 -0.013655
v 0.640712 0.758643 -0.002804
v 0.640712 0.758643 -0.007764
v 0.640712 0.757604 -0.007764
v 0.640712 0.757604 -0.001766
v 0.640712 0.753958 0.021599
v 0.640712 0.767717 -0.001766
v -0.645316 0.767717 0.020089
v -0.645316 0.767717 -0.001766
v 0.640712 0.767717 0.020089
v 0.640712 0.767717 0.020089
v 0.640712 0.767717 -0.001766
v -0.645316 0.767717 0.020089
v -0.645316 0.767717 -0.001766
v 0.640712 0.767717 0.021599
v -0.645316 0.767717 0.037066
v -0.645316 0.767717 0.021599
v -0.643372 0.767717 0.037066
v -0.629376 0.767717 0.037077
v -0.635676 0.767717 0.040968
v -0.628138 0.767717 0.037077
v -0.628138 0.767717 0.041804
v -0.636905 0.767717 0.041804
v -0.645316 0.767717 0.042607
v -0.645316 0.767717 0.038083
v 0.640712 0.767717 0.042607
v -0.629376 0.767717 0.040968
v -0.629376 0.767717 0.037077
v -0.635676 0.767717 0.040968
v -0.629376 0.767717 0.040968
v 0.640712 0.767717 0.021599
v -0.628138 0.767717 0.041804
v 0.640712 0.767717 0.042607
v -0.636905 0.767717 0.041804
v -0.645316 0.767717 0.042607
v -0.645316 0.767717 0.038083
v -0.628138 0.767717 0.037077
v -0.643372 0.767717 0.037066
v -0.645316 0.767717 0.037066
v -0.645316 0.767717 0.021599
v -0.645316 0.762084 0.044390
v 0.640712 0.751224 0.044390
v -0.645316 0.751224 0.044390
v 0.640712 0.762084 0.044390
v 0.640712 0.762084 0.044390
v -0.645316 0.762084 0.044390
v 0.640712 0.751224 0.044390
v -0.645316 0.751224 0.044390
v 0.640712 0.751224 0.044390
v -0.645316 0.751224 0.045297
v -0.645316 0.751224 0.044390
v 0.640712 0.751224 0.045297
v 0.640712 0.751224 0.045297
v 0.640712 0.751224 0.044390
v -0.645316 0.751224 0.045297
v -0.645316 0.751224 0.044390
v 0.640712 0.761977 0.045297
v -0.645316 0.751224 0.045297
v 0.640712 0.751224 0.045297
v -0.645316 0.761977 0.045297
v -0.645316 0.761977 0.045297
v 0.640712 0.761977 0.045297
v -0.645316 0.751224 0.045297
v 0.640712 0.751224 0.045297
v 0.640712 0.767790 0.043579
v -0.645316 0.767790 0.043579
v -0.645316 0.767790 0.043579
v 0.640712 0.767790 0.043579
v 0.640712 0.769813 0.043579
v -0.645316 0.769813 0.043579
v -0.645316 0.769813 0.043579
v 0.640712 0.769813 0.043579
v 0.640712 0.773689 0.045334
v -0.645316 0.773689 0.045334
v -0.645316 0.773689 0.045334
v 0.640712 0.773689 0.045334
v 0.640712 0.777011 0.045334
v -0.645316 0.777011 0.045334
v -0.645316 0.777011 0.045334
v 0.640712 0.777011 0.045334
v 0.640712 0.777011 0.045334
v -0.645316 0.777011 0.038217
v -0.645316 0.777011 0.045334
v 0.640712 0.777011 0.038217
v 0.640712 0.777011 0.038217
v 0.640712 0.777011 0.045334
v -0.645316 0.777011 0.038217
v -0.645316 0.777011 0.045334
v 0.640712 0.779031 0.038217
v -0.645316 0.777011 0.038217
v 0.640712 0.777011 0.038217
v -0.645316 0.779031 0.038217
v -0.645316 0.779031 0.038217
v 0.640712 0.779031 0.038217
v -0.645316 0.777011 0.038217
v 0.640712 0.777011 0.038217
v 0.640712 0.779031 0.038217
v -0.645316 0.779031 0.044573
v -0.645316 0.779031 0.038217
v 0.640712 0.779031 0.044573
v 0.640712 0.779031 0.044573
v 0.640712 0.779031 0.038217
v -0.645316 0.779031 0.044573
v -0.645316 0.779031 0.038217
v 0.640712 0.780567 0.044573
v -0.645316 0.779031 0.044573
v 0.640712 0.779031 0.044573
v -0.645316 0.780567 0.044573
v -0.645316 0.780567 0.044573
v 0.640712 0.780567 0.044573
v -0.645316 0.779031 0.044573
v 0.640712 0.779031 0.044573
v 0.640712 0.780567 0.044573
v -0.645316 0.780567 0.023115
v -0.645316 0.780567 0.044573
v 0.640712 0.780567 0.023115
v 0.640712 0.780567 0.023115
v 0.640712 0.780567 0.044573
v -0.645316 0.780567 0.023115
v -0.645316 0.780567 0.044573
v -0.645316 0.780567 0.023115
v 0.640712 0.779729 0.023115
v -0.645316 0.779729 0.023115
v 0.640712 0.780567 0.023115
v 0.640712 0.780567 0.023115
v -0.645316 0.780567 0.023115
v 0.640712 0.779729 0.023115
v -0.645316 0.779729 0.023115
v 0.640712 0.779729 0.023115
v -0.645316 0.779729 0.037368
v -0.645316 0.779729 0.023115
v 0.640712 0.779729 0.037368
v 0.640712 0.779729 0.037368
v 0.640712 0.779729 0.023115
v -0.645316 0.779729 0.037368
v -0.645316 0.779729 0.023115
v -0.645316 0.779729 0.037368
v 0.640712 0.776161 0.037368
v -0.645316 0.776161 0.037368
v 0.640712 0.779729 0.037368
v 0.640712 0.779729 0.037368
v -0.645316 0.779729 0.037368
v 0.640712 0.776161 0.037368
v -0.645316 0.776161 0.037368
v 0.640712 0.776161 0.037368
v -0.645316 0.776161 0.042729
v -0.645316 0.776161 0.037368
v 0.640712 0.776161 0.042729
v 0.640712 0.776161 0.042729
v 0.640712 0.776161 0.037368
v -0.645316 0.776161 0.042729
v -0.645316 0.776161 0.037368
v -0.645316 0.776161 0.042729
v 0.640712 0.768610 0.042729
v -0.645316 0.768610 0.042729
v 0.640712 0.776161 0.042729
v 0.640712 0.776161 0.042729
v -0.645316 0.776161 0.042729
v 0.640712 0.768610 0.042729
v -0.645316 0.768610 0.042729
v 0.640712 0.768610 0.042729
v -0.645316 0.768610 -0.002615
v -0.645316 0.768610 0.042729
v 0.640712 0.768610 -0.002615
v 0.640712 0.768610 -0.002615
v 0.640712 0.768610 0.042729
v -0.645316 0.768610 -0.002615
v -0.645316 0.768610 0.042729
v -0.645316 0.768610 -0.002615
v 0.640712 0.762701 -0.002615
v -0.645316 0.762701 -0.002615
v 0.640712 0.768610 -0.002615
v 0.640712 0.768610 -0.002615
v -0.645316 0.768610 -0.002615
v 0.640712 0.762701 -0.002615
v -0.645316 0.762701 -0.002615
v 0.640712 0.762701 -0.002615
v -0.645316 0.762701 -0.013655
v -0.645316 0.762701 -0.002615
v 0.640712 0.762701 -0.013655
v 0.640712 0.762701 -0.013655
v 0.640712 0.762701 -0.002615
v -0.645316 0.762701 -0.013655
v -0.645316 0.762701 -0.002615
v -0.645316 0.762701 -0.013655
v 0.640712 0.761854 -0.013655
v -0.645316 0.761854 -0.013655
v 0.640712 0.762701 -0.013655
v 0.640712 0.762701 -0.013655
v -0.645316 0.762701 -0.013655
v 0.640712 0.761854 -0.013655
v -0.645316 0.761854 -0.013655
v 0.640712 0.761854 -0.013655
v -0.645316 0.761854 -0.002804
v -0.645316 0.761854 -0.013655
v 0.640712 0.761854 -0.002804
v 0.640712 0.761854 -0.002804
v 0.640712 0.761854 -0.013655
v -0.645316 0.761854 -0.002804
v -0.645316 0.761854 -0.013655
v -0.645316 0.761854 -0.002804
v 0.640712 0.758643 -0.002804
v -0.645316 0.758643 -0.002804
v 0.640712 0.761854 -0.002804
v 0.640712 0.761854 -0.002804
v -0.645316 0.761854 -0.002804
v 0.640712 0.758643 -0.002804
v -0.645316 0.758643 -0.002804
v 0.640712 0.758643 -0.002804
v -0.645316 0.758643 -0.007764
v -0.645316 0.758643 -0.002804
v 0.640712 0.758643 -0.007764
v 0.640712 0.758643 -0.007764
v 0.640712 0.758643 -0.002804
v -0.645316 0.758643 -0.007764
v -0.645316 0.758643 -0.002804
v -0.645316 0.758643 -0.007764
v 0.640712 0.757604 -0.007764
v -0.645316 0.757604 -0.007764
v 0.640712 0.758643 -0.007764
v 0.640712 0.758643 -0.007764
v -0.645316 0.758643 -0.007764
v 0.640712 0.757604 -0.007764
v -0.645316 0.757604 -0.007764
v 0.640712 0.757604 -0.007764
v -0.645316 0.757604 -0.001766
v -0.645316 0.757604 -0.007764
v 0.640712 0.757604 -0.001766
v 0.640712 0.757604 -0.001766
v 0.640712 0.757604 -0.007764
v -0.645316 0.757604 -0.001766
v -0.645316 0.757604 -0.007764
v 0.640712 0.767717 -0.001766
v -0.645316 0.757604 -0.001766
v 0.640712 0.757604 -0.001766
v -0.645316 0.767717 -0.001766
v -0.645316 0.767717 -0.001766
v 0.640712 0.767717 -0.001766
v -0.645316 0.757604 -0.001766
v 0.640712 0.757604 -0.001766
v -0.645316 0.767717 0.042607
v 0.640712 0.767717 0.042607
v 0.640712 0.767717 0.042607
v -0.645316 0.767717 0.042607
vn -1 0 0
vn 1 0 0
vn 0 -1 0
vn 0 1 0
vn 0 0 -1
vn 0 0 1
vn 0 -0.15274565110805563 -0.9882655341898634
vn 0 0.15274565110805563 0.9882655341898634
vn 0 0.1431987362564029 0.9896939536718252
vn 0 -0.1431987362564029 -0.9896939536718252
vn 0 -0.21104915250522283 0.977475449935612
vn 0 0.21104915250522283 -0.977475449935612
vn 0 -0.30190659384207147 -0.9533375103260538
vn 0 0.30190659384207147 0.9533375103260538
usemtl material_0_0
f 1//1 2//1 3//1
f 2//1 1//1 4//1
f 5//2 6//2 7//2
f 8//2 7//2 6//2
f 9//3 10//3 11//3
f 10//3 9//3 12//3
f 13//4 14//4 15//4
f 16//4 15//4 14//4
f 17//3 12//3 9//3
f 12//3 17//3 18//3
f 19//4 20//4 13//4
f 14//4 13//4 20//4
f 21//5 22//5 23//5
f 22//5 21//5 24//5
f 24//5 21//5 25//5
f 26//6 27//6 28//6
f 28//6 27//6 29//6
f 30//6 29//6 27//6
f 31//6 32//6 33//6
f 32//6 31//6 34//6
f 34//6 31//6 35//6
f 36//5 37//5 38//5
f 38//5 37//5 39//5
f 40//5 39//5 37//5
f 41//1 42//1 43//1
f 44//1 45//1 46//1
f 45//1 44//1 47//1
f 46//1 45//1 48//1
f 48//1 45//1 49//1
f 45//1 47//1 50//1
f 51//1 52//1 53//1
f 52//1 51//1 54//1
f 55//1 43//1 42//1
f 43//1 55//1 56//1
f 43//1 56//1 57//1
f 57//1 56//1 58//1
f 58//1 56//1 59//1
f 57//1 58//1 60//1
f 57//1 60//1 61//1
f 61//1 60//1 62//1
f 62//1 60//1 63//1
f 63//1 60//1 64//1
f 63//1 64//1 65//1
f 64//1 60//1 66//1
f 66//1 60//1 67//1
f 67//1 60//1 53//1
f 67//1 53//1 68//1
f 67//1 68//1 69//1
f 68//1 53//1 52//1
f 69//1 68//1 70//1
f 71//1 65//1 64//1
f 72//1 73//1 74//1
f 73//1 72//1 59//1
f 59//1 72//1 49//1
f 73//1 59//1 56//1
f 59//1 49//1 75//1
f 75//1 49//1 45//1
f 76//2 77//2 78//2
f 78//2 77//2 79//2
f 80//2 79//2 81//2
f 77//2 82//2 79//2
f 79//2 82//2 81//2
f 83//2 81//2 82//2
f 84//2 85//2 86//2
f 87//2 88//2 89//2
f 90//2 91//2 88//2
f 89//2 88//2 92//2
f 88//2 91//2 92//2
f 91//2 93//2 92//2
f 92//2 93//2 94//2
f 94//2 93//2 84//2
f 85//2 84//2 95//2
f 84//2 93//2 95//2
f 95//2 93//2 96//2
f 96//2 93//2 97//2
f 97//2 93//2 98//2
f 93//2 99//2 98//2
f 79//2 80//2 99//2
f 99//2 80//2 98//2
f 98//2 80//2 100//2
f 80//2 101//2 100//2
f 102//2 100//2 101//2
f 103//2 104//2 90//2
f 91//2 90//2 104//2
f 105//2 106//2 76//2
f 77//2 76//2 107//2
f 107//2 76//2 108//2
f 106//2 109//2 76//2
f 108//2 76//2 109//2
f 100//2 102//2 110//2
f 111//2 112//2 113//2
f 114//2 115//2 116//2
f 115//2 114//2 117//2
f 116//2 115//2 118//2
f 115//2 117//2 119//2
f 118//2 120//2 121//2
f 120//2 118//2 115//2
f 121//2 120//2 122//2
f 123//2 124//2 125//2
f 124//2 123//2 126//2
f 124//2 126//2 127//2
f 127//2 126//2 128//2
f 127//2 128//2 129//2
f 129//2 128//2 130//2
f 130//2 128//2 131//2
f 131//2 128//2 112//2
f 131//2 112//2 132//2
f 132//2 112//2 111//2
f 131//2 132//2 116//2
f 131//2 116//2 118//2
f 129//2 133//2 134//2
f 133//2 129//2 135//2
f 133//2 135//2 136//2
f 135//2 129//2 130//2
f 136//2 135//2 137//2
f 136//2 137//2 138//2
f 138//2 139//2 140//2
f 139//2 138//2 141//2
f 139//2 141//2 142//2
f 141//2 138//2 137//2
f 142//2 141//2 143//2
f 144//1 145//1 146//1
f 147//1 148//1 145//1
f 146//1 145//1 149//1
f 145//1 148//1 149//1
f 150//1 149//1 148//1
f 148//1 147//1 151//1
f 147//1 152//1 151//1
f 153//1 154//1 152//1
f 151//1 152//1 155//1
f 152//1 154//1 155//1
f 156//1 155//1 154//1
f 157//1 158//1 159//1
f 158//1 160//1 159//1
f 161//1 162//1 160//1
f 160//1 162//1 159//1
f 162//1 163//1 159//1
f 159//1 163//1 153//1
f 153//1 163//1 154//1
f 154//1 163//1 164//1
f 163//1 165//1 164//1
f 164//1 165//1 166//1
f 165//1 167//1 166//1
f 168//1 166//1 167//1
f 169//1 170//1 171//1
f 172//1 157//1 170//1
f 171//1 170//1 157//1
f 173//1 174//1 172//1
f 157//1 172//1 158//1
f 174//1 175//1 172//1
f 158//1 172//1 175//1
f 176//1 162//1 161//1
f 177//3 178//3 179//3
f 178//3 177//3 180//3
f 181//4 182//4 183//4
f 184//4 183//4 182//4
f 185//3 186//3 187//3
f 186//3 185//3 188//3
f 188//3 185//3 189//3
f 188//3 189//3 190//3
f 189//3 185//3 191//3
f 191//3 185//3 192//3
f 193//3 194//3 195//3
f 194//3 193//3 196//3
f 196//3 193//3 192//3
f 196//3 192//3 185//3
f 197//3 190//3 189//3
f 198//4 199//4 200//4
f 201//4 202//4 203//4
f 202//4 204//4 203//4
f 203//4 204//4 205//4
f 206//4 205//4 204//4
f 202//4 201//4 207//4
f 207//4 201//4 198//4
f 199//4 198//4 208//4
f 198//4 201//4 208//4
f 208//4 201//4 209//4
f 210//4 209//4 201//4
f 211//7 212//5 213//5
f 212//5 211//7 214//7
f 215//8 216//8 217//6
f 218//6 217//6 216//8
f 219//3 220//3 221//3
f 220//3 219//3 222//3
f 223//4 224//4 225//4
f 226//4 225//4 224//4
f 227//9 228//6 229//6
f 228//6 227//9 230//9
f 231//10 232//10 233//5
f 234//5 233//5 232//10
f 235//9 230//9 227//9
f 230//9 235//9 236//9
f 237//10 238//10 231//10
f 232//10 231//10 238//10
f 239//11 236//9 235//9
f 236//9 239//11 240//11
f 241//12 242//12 237//10
f 238//10 237//10 242//12
f 243//11 240//11 239//11
f 240//11 243//11 244//11
f 245//12 246//12 241//12
f 242//12 241//12 246//12
f 247//6 244//11 243//11
f 244//11 247//6 248//6
f 249//5 250//5 245//12
f 246//12 245//12 250//5
f 251//4 252//4 253//4
f 252//4 251//4 254//4
f 255//3 256//3 257//3
f 258//3 257//3 256//3
f 259//6 260//6 261//6
f 260//6 259//6 262//6
f 263//5 264//5 265//5
f 266//5 265//5 264//5
f 267//3 268//3 269//3
f 268//3 267//3 270//3
f 271//4 272//4 273//4
f 274//4 273//4 272//4
f 275//6 276//6 277//6
f 276//6 275//6 278//6
f 279//5 280//5 281//5
f 282//5 281//5 280//5
f 283//4 284//4 285//4
f 284//4 283//4 286//4
f 287//3 288//3 289//3
f 290//3 289//3 288//3
f 291//5 292//5 293//5
f 292//5 291//5 294//5
f 295//6 296//6 297//6
f 298//6 297//6 296//6
f 299//3 300//3 301//3
f 300//3 299//3 302//3
f 303//4 304//4 305//4
f 306//4 305//4 304//4
f 307//5 308//5 309//5
f 308//5 307//5 310//5
f 311//6 312//6 313//6
f 314//6 313//6 312//6
f 315//3 316//3 317//3
f 316//3 315//3 318//3
f 319//4 320//4 321//4
f 322//4 321//4 320//4
f 323//5 324//5 325//5
f 324//5 323//5 326//5
f 327//6 328//6 329//6
f 330//6 329//6 328//6
f 331//4 332//4 333//4
f 332//4 331//4 334//4
f 335//3 336//3 337//3
f 338//3 337//3 336//3
f 339//5 340//5 341//5
f 340//5 339//5 342//5
f 343//6 344//6 345//6
f 346//6 345//6 344//6
f 347//4 348//4 349//4
f 348//4 347//4 350//4
f 351//3 352//3 353//3
f 354//3 353//3 352//3
f 355//5 356//5 357//5
f 356//5 355//5 358//5
f 359//6 360//6 361//6
f 362//6 361//6 360//6
f 363//3 364//3 365//3
f 364//3 363//3 366//3
f 367//4 368//4 369//4
f 370//4 369//4 368//4
f 371//5 372//5 373//5
f 372//5 371//5 374//5
f 375//6 376//6 377//6
f 378//6 377//6 376//6
f 379//4 380//4 381//4
f 380//4 379//4 382//4
f 383//3 384//3 385//3
f 386//3 385//3 384//3
f 387//5 388//5 389//5
f 388//5 387//5 390//5
f 391//6 392//6 393//6
f 394//6 393//6 392//6
f 395//3 396//3 397//3
f 396//3 395//3 398//3
f 399//4 400//4 401//4
f 402//4 401//4 400//4
f 403//6 404//6 405//6
f 404//6 403//6 406//6
f 407//5 408//5 409//5
f 410//5 409//5 408//5
f 411//13 214//7 211//7
f 214//7 411//13 412//13
f 413//14 414//14 215//8
f 216//8 215//8 414//14
