# SSTK version 0.8.0
# 3
mtllib original-3.mtl
o instance_2/bstop/ID17#ID17
v -0.632347 -0.726345 -0.019344
v -0.632347 -0.733235 0.002859
v -0.632347 -0.726345 0.002859
v -0.632347 -0.733235 -0.007165
v -0.632347 -0.737483 -0.007165
v -0.632347 -0.737483 -0.017528
v -0.632347 -0.739087 -0.017528
v -0.632347 -0.739087 -0.041046
v -0.632347 -0.729283 -0.034759
v -0.632347 -0.729283 -0.041046
v -0.632347 -0.729283 -0.041046
v -0.632347 -0.729283 -0.034759
v -0.632347 -0.739087 -0.041046
v -0.632347 -0.726345 -0.019344
v -0.632347 -0.739087 -0.017528
v -0.632347 -0.737483 -0.017528
v -0.632347 -0.737483 -0.007165
v -0.632347 -0.733235 -0.007165
v -0.632347 -0.733235 0.002859
v -0.632347 -0.726345 0.002859
v -0.024013 -0.726345 0.002859
v -0.632347 -0.726345 -0.019344
v -0.632347 -0.726345 0.002859
v -0.024013 -0.726345 -0.019344
v -0.024013 -0.726345 -0.019344
v -0.024013 -0.726345 0.002859
v -0.632347 -0.726345 -0.019344
v -0.632347 -0.726345 0.002859
v -0.632347 -0.729283 -0.034759
v -0.024013 -0.729283 -0.034759
v -0.024013 -0.729283 -0.034759
v -0.632347 -0.729283 -0.034759
v -0.632347 -0.729283 -0.041046
v -0.024013 -0.729283 -0.041046
v -0.024013 -0.729283 -0.041046
v -0.632347 -0.729283 -0.041046
v -0.632347 -0.729283 -0.041046
v -0.024013 -0.739087 -0.041046
v -0.632347 -0.739087 -0.041046
v -0.024013 -0.729283 -0.041046
v -0.024013 -0.729283 -0.041046
v -0.632347 -0.729283 -0.041046
v -0.024013 -0.739087 -0.041046
v -0.632347 -0.739087 -0.041046
v -0.024013 -0.739087 -0.041046
v -0.632347 -0.739087 -0.017528
v -0.632347 -0.739087 -0.041046
v -0.024013 -0.739087 -0.017528
v -0.024013 -0.739087 -0.017528
v -0.024013 -0.739087 -0.041046
v -0.632347 -0.739087 -0.017528
v -0.632347 -0.739087 -0.041046
v -0.024013 -0.737483 -0.017528
v -0.632347 -0.739087 -0.017528
v -0.024013 -0.739087 -0.017528
v -0.632347 -0.737483 -0.017528
v -0.632347 -0.737483 -0.017528
v -0.024013 -0.737483 -0.017528
v -0.632347 -0.739087 -0.017528
v -0.024013 -0.739087 -0.017528
v -0.024013 -0.737483 -0.017528
v -0.632347 -0.737483 -0.007165
v -0.632347 -0.737483 -0.017528
v -0.024013 -0.737483 -0.007165
v -0.024013 -0.737483 -0.007165
v -0.024013 -0.737483 -0.017528
v -0.632347 -0.737483 -0.007165
v -0.632347 -0.737483 -0.017528
v -0.024013 -0.733235 -0.007165
v -0.632347 -0.737483 -0.007165
v -0.024013 -0.737483 -0.007165
v -0.632347 -0.733235 -0.007165
v -0.632347 -0.733235 -0.007165
v -0.024013 -0.733235 -0.007165
v -0.632347 -0.737483 -0.007165
v -0.024013 -0.737483 -0.007165
v -0.024013 -0.733235 -0.007165
v -0.632347 -0.733235 0.002859
v -0.632347 -0.733235 -0.007165
v -0.024013 -0.733235 0.002859
v -0.024013 -0.733235 0.002859
v -0.024013 -0.733235 -0.007165
v -0.632347 -0.733235 0.002859
v -0.632347 -0.733235 -0.007165
v -0.024013 -0.733235 0.002859
v -0.632347 -0.726345 0.002859
v -0.632347 -0.733235 0.002859
v -0.024013 -0.726345 0.002859
v -0.024013 -0.726345 0.002859
v -0.024013 -0.733235 0.002859
v -0.632347 -0.726345 0.002859
v -0.632347 -0.733235 0.002859
v -0.024013 -0.737483 -0.017528
v -0.024013 -0.733235 -0.007165
v -0.024013 -0.737483 -0.007165
v -0.024013 -0.739087 -0.041046
v -0.024013 -0.739087 -0.017528
v -0.024013 -0.726345 -0.019344
v -0.024013 -0.729283 -0.034759
v -0.024013 -0.729283 -0.041046
v -0.024013 -0.726345 0.002859
v -0.024013 -0.733235 0.002859
v -0.024013 -0.737483 -0.017528
v -0.024013 -0.733235 -0.007165
v -0.024013 -0.726345 -0.019344
v -0.024013 -0.726345 0.002859
v -0.024013 -0.733235 0.002859
v -0.024013 -0.729283 -0.041046
v -0.024013 -0.739087 -0.041046
v -0.024013 -0.729283 -0.034759
v -0.024013 -0.739087 -0.017528
v -0.024013 -0.737483 -0.007165
vn -1 0 0
vn 1 0 0
vn 0 1 0
vn 0 0.9955692963133032 -0.09403071965179423
vn 0 -0.9955692963133032 0.09403071965179423
vn 0 -1 0
vn 0 0 -1
vn 0 0 1
usemtl material_0_0
f 1//1 2//1 3//1
f 2//1 1//1 4//1
f 4//1 1//1 5//1
f 5//1 1//1 6//1
f 6//1 1//1 7//1
f 7//1 1//1 8//1
f 8//1 1//1 9//1
f 8//1 9//1 10//1
f 11//2 12//2 13//2
f 12//2 14//2 13//2
f 13//2 14//2 15//2
f 15//2 14//2 16//2
f 16//2 14//2 17//2
f 17//2 14//2 18//2
f 18//2 14//2 19//2
f 20//2 19//2 14//2
f 21//3 22//4 23//3
f 22//4 21//3 24//4
f 25//5 26//6 27//5
f 28//6 27//5 26//6
f 24//4 29//4 22//4
f 29//4 24//4 30//4
f 31//5 25//5 32//5
f 27//5 32//5 25//5
f 30//4 33//3 29//4
f 33//3 30//4 34//3
f 35//6 31//5 36//6
f 32//5 36//6 31//5
f 37//7 38//7 39//7
f 38//7 37//7 40//7
f 41//8 42//8 43//8
f 44//8 43//8 42//8
f 45//6 46//6 47//6
f 46//6 45//6 48//6
f 49//3 50//3 51//3
f 52//3 51//3 50//3
f 53//8 54//8 55//8
f 54//8 53//8 56//8
f 57//7 58//7 59//7
f 60//7 59//7 58//7
f 61//6 62//6 63//6
f 62//6 61//6 64//6
f 65//3 66//3 67//3
f 68//3 67//3 66//3
f 69//8 70//8 71//8
f 70//8 69//8 72//8
f 73//7 74//7 75//7
f 76//7 75//7 74//7
f 77//6 78//6 79//6
f 78//6 77//6 80//6
f 81//3 82//3 83//3
f 84//3 83//3 82//3
f 85//8 86//8 87//8
f 86//8 85//8 88//8
f 89//7 90//7 91//7
f 92//7 91//7 90//7
f 93//2 94//2 95//2
f 96//2 93//2 97//2
f 93//2 96//2 98//2
f 98//2 96//2 99//2
f 99//2 96//2 100//2
f 94//2 101//2 102//2
f 101//2 94//2 98//2
f 98//2 94//2 93//2
f 103//1 104//1 105//1
f 105//1 104//1 106//1
f 107//1 106//1 104//1
f 108//1 109//1 110//1
f 110//1 109//1 105//1
f 105//1 109//1 103//1
f 111//1 103//1 109//1
f 112//1 104//1 103//1
