# SSTK version 0.8.0
# 22
mtllib original-22.mtl
o instance_21/rwframe_2/ID155#ID155
v 0.652280 -0.739067 -0.035145
v 0.646617 -0.739067 -0.046789
v 0.646617 -0.739067 -0.035145
v 0.652280 -0.739067 -0.043391
v 0.654168 -0.739067 -0.046789
v 0.656641 -0.739067 -0.043391
v 0.656641 -0.739067 -0.046789
v 0.656641 -0.739067 -0.046789
v 0.656641 -0.739067 -0.043391
v 0.654168 -0.739067 -0.046789
v 0.652280 -0.739067 -0.043391
v 0.646617 -0.739067 -0.046789
v 0.652280 -0.739067 -0.035145
v 0.646617 -0.739067 -0.035145
v 0.652280 0.756970 -0.043391
v 0.652280 -0.739067 -0.002842
v 0.652280 0.756970 -0.002842
v 0.652280 -0.739067 -0.035145
v 0.652280 -0.739067 -0.043391
v 0.652280 -0.739067 -0.043391
v 0.652280 0.756970 -0.043391
v 0.652280 -0.739067 -0.035145
v 0.652280 -0.739067 -0.002842
v 0.652280 0.756970 -0.002842
v 0.652280 0.756970 -0.043391
v 0.656641 -0.739067 -0.043391
v 0.652280 -0.739067 -0.043391
v 0.656641 0.756970 -0.043391
v 0.656641 0.756970 -0.043391
v 0.652280 0.756970 -0.043391
v 0.656641 -0.739067 -0.043391
v 0.652280 -0.739067 -0.043391
v 0.656641 0.756970 -0.046789
v 0.656641 -0.739067 -0.043391
v 0.656641 0.756970 -0.043391
v 0.656641 -0.739067 -0.046789
v 0.656641 -0.739067 -0.046789
v 0.656641 0.756970 -0.046789
v 0.656641 -0.739067 -0.043391
v 0.656641 0.756970 -0.043391
v 0.656641 0.756970 -0.046789
v 0.654168 -0.739067 -0.046789
v 0.656641 -0.739067 -0.046789
v 0.654168 0.756970 -0.046789
v 0.654168 0.756970 -0.046789
v 0.656641 0.756970 -0.046789
v 0.654168 -0.739067 -0.046789
v 0.656641 -0.739067 -0.046789
v 0.656641 0.756970 -0.046789
v 0.654168 0.756970 -0.050678
v 0.654168 0.756970 -0.046789
v 0.658095 0.756970 -0.002842
v 0.652280 0.756970 -0.043391
v 0.652280 0.756970 -0.002842
v 0.656641 0.756970 -0.043391
v 0.668459 0.756970 0.030196
v 0.658095 0.756970 0.030196
v 0.646617 0.756970 -0.065363
v 0.646617 0.756970 -0.050678
v 0.670214 0.756970 -0.065363
v 0.668459 0.756970 -0.006427
v 0.670214 0.756970 -0.008182
v 0.670214 0.756970 -0.008182
v 0.668459 0.756970 -0.006427
v 0.670214 0.756970 -0.065363
v 0.668459 0.756970 0.030196
v 0.658095 0.756970 -0.002842
v 0.656641 0.756970 -0.046789
v 0.654168 0.756970 -0.050678
v 0.646617 0.756970 -0.065363
v 0.646617 0.756970 -0.050678
v 0.658095 0.756970 0.030196
v 0.656641 0.756970 -0.043391
v 0.652280 0.756970 -0.043391
v 0.652280 0.756970 -0.002842
v 0.654168 0.756970 -0.046789
v 0.658095 0.756970 -0.002842
v 0.652280 -0.739067 -0.002842
v 0.658095 -0.739067 -0.002842
v 0.652280 0.756970 -0.002842
v 0.652280 0.756970 -0.002842
v 0.658095 0.756970 -0.002842
v 0.652280 -0.739067 -0.002842
v 0.658095 -0.739067 -0.002842
v 0.654168 0.756970 -0.050678
v 0.654168 -0.739067 -0.046789
v 0.654168 0.756970 -0.046789
v 0.654168 -0.739067 -0.050678
v 0.654168 -0.739067 -0.050678
v 0.654168 0.756970 -0.050678
v 0.654168 -0.739067 -0.046789
v 0.654168 0.756970 -0.046789
v 0.658095 0.756970 -0.002842
v 0.658095 -0.739067 0.030196
v 0.658095 0.756970 0.030196
v 0.658095 -0.739067 -0.002842
v 0.658095 -0.739067 -0.002842
v 0.658095 0.756970 -0.002842
v 0.658095 -0.739067 0.030196
v 0.658095 0.756970 0.030196
v 0.668459 0.756970 0.030196
v 0.658095 -0.739067 0.030196
v 0.668459 -0.739067 0.030196
v 0.658095 0.756970 0.030196
v 0.658095 0.756970 0.030196
v 0.668459 0.756970 0.030196
v 0.658095 -0.739067 0.030196
v 0.668459 -0.739067 0.030196
v 0.668459 -0.739067 0.030196
v 0.668459 0.756970 -0.006427
v 0.668459 0.756970 0.030196
v 0.668459 -0.739067 -0.006427
v 0.668459 -0.739067 -0.006427
v 0.668459 -0.739067 0.030196
v 0.668459 0.756970 -0.006427
v 0.668459 0.756970 0.030196
v 0.670214 0.756970 -0.008182
v 0.670214 -0.739067 -0.008182
v 0.670214 -0.739067 -0.008182
v 0.670214 0.756970 -0.008182
v 0.670214 0.756970 -0.065363
v 0.670214 -0.739067 -0.065363
v 0.670214 -0.739067 -0.065363
v 0.670214 0.756970 -0.065363
v 0.646617 0.756970 -0.065363
v 0.670214 -0.739067 -0.065363
v 0.646617 -0.739067 -0.065363
v 0.670214 0.756970 -0.065363
v 0.670214 0.756970 -0.065363
v 0.646617 0.756970 -0.065363
v 0.670214 -0.739067 -0.065363
v 0.646617 -0.739067 -0.065363
v 0.646617 0.756970 -0.065363
v 0.646617 -0.739067 -0.050678
v 0.646617 0.756970 -0.050678
v 0.646617 -0.739067 -0.065363
v 0.646617 -0.739067 -0.065363
v 0.646617 0.756970 -0.065363
v 0.646617 -0.739067 -0.050678
v 0.646617 0.756970 -0.050678
v 0.654168 0.756970 -0.050678
v 0.646617 -0.739067 -0.050678
v 0.654168 -0.739067 -0.050678
v 0.646617 0.756970 -0.050678
v 0.646617 0.756970 -0.050678
v 0.654168 0.756970 -0.050678
v 0.646617 -0.739067 -0.050678
v 0.654168 -0.739067 -0.050678
vn 0 1 0
vn 0 -1 0
vn -1 0 0
vn 1 0 0
vn 0 0 -1
vn 0 0 1
vn 0.9238795391929066 0 0.38268341623423263
vn -0.9238795391929066 0 -0.38268341623423263
usemtl material_0_0
f 1//1 2//1 3//1
f 2//1 1//1 4//1
f 2//1 4//1 5//1
f 5//1 4//1 6//1
f 5//1 6//1 7//1
f 8//2 9//2 10//2
f 9//2 11//2 10//2
f 10//2 11//2 12//2
f 11//2 13//2 12//2
f 14//2 12//2 13//2
f 15//3 16//3 17//3
f 16//3 15//3 18//3
f 18//3 15//3 19//3
f 20//4 21//4 22//4
f 22//4 21//4 23//4
f 24//4 23//4 21//4
f 25//5 26//5 27//5
f 26//5 25//5 28//5
f 29//6 30//6 31//6
f 32//6 31//6 30//6
f 33//3 34//3 35//3
f 34//3 33//3 36//3
f 37//4 38//4 39//4
f 40//4 39//4 38//4
f 41//6 42//6 43//6
f 42//6 41//6 44//6
f 45//5 46//5 47//5
f 48//5 47//5 46//5
f 49//1 50//1 51//1
f 52//1 53//1 54//1
f 53//1 52//1 55//1
f 55//1 52//1 49//1
f 56//1 52//1 57//1
f 50//1 58//1 59//1
f 58//1 50//1 60//1
f 60//1 50//1 49//1
f 60//1 49//1 52//1
f 60//1 52//1 61//1
f 61//1 52//1 56//1
f 60//1 61//1 62//1
f 63//2 64//2 65//2
f 66//2 67//2 64//2
f 64//2 67//2 65//2
f 67//2 68//2 65//2
f 68//2 69//2 65//2
f 65//2 69//2 70//2
f 71//2 70//2 69//2
f 72//2 67//2 66//2
f 68//2 67//2 73//2
f 73//2 67//2 74//2
f 75//2 74//2 67//2
f 76//2 69//2 68//2
f 77//6 78//6 79//6
f 78//6 77//6 80//6
f 81//5 82//5 83//5
f 84//5 83//5 82//5
f 85//3 86//3 87//3
f 86//3 85//3 88//3
f 89//4 90//4 91//4
f 92//4 91//4 90//4
f 93//3 94//3 95//3
f 94//3 93//3 96//3
f 97//4 98//4 99//4
f 100//4 99//4 98//4
f 101//6 102//6 103//6
f 102//6 101//6 104//6
f 105//5 106//5 107//5
f 108//5 107//5 106//5
f 109//4 110//7 111//4
f 110//7 109//4 112//7
f 113//8 114//3 115//8
f 116//3 115//8 114//3
f 112//7 117//7 110//7
f 117//7 112//7 118//7
f 119//8 113//8 120//8
f 115//8 120//8 113//8
f 118//7 121//4 117//7
f 121//4 118//7 122//4
f 123//3 119//8 124//3
f 120//8 124//3 119//8
f 125//5 126//5 127//5
f 126//5 125//5 128//5
f 129//6 130//6 131//6
f 132//6 131//6 130//6
f 133//3 134//3 135//3
f 134//3 133//3 136//3
f 137//4 138//4 139//4
f 140//4 139//4 138//4
f 141//6 142//6 143//6
f 142//6 141//6 144//6
f 145//5 146//5 147//5
f 148//5 147//5 146//5
