# SSTK version 0.8.0
# 21
mtllib original-21.mtl
o instance_20/tlwframe_2/ID147#ID147
v -0.674822 0.780567 -0.008182
v -0.651224 0.780567 -0.065363
v -0.674822 0.780567 -0.065363
v -0.651224 0.780567 -0.008182
v -0.651224 0.780567 -0.008182
v -0.674822 0.780567 -0.008182
v -0.651224 0.780567 -0.065363
v -0.674822 0.780567 -0.065363
v -0.674822 0.780567 -0.065363
v -0.674822 0.756970 -0.008182
v -0.674822 0.780567 -0.008182
v -0.674822 0.756970 -0.065363
v -0.674822 0.756970 -0.065363
v -0.674822 0.780567 -0.065363
v -0.674822 0.756970 -0.008182
v -0.674822 0.780567 -0.008182
v -0.673066 0.778811 -0.006427
v -0.651224 0.778811 -0.006427
v -0.673066 0.778811 -0.006427
v -0.651224 0.778811 -0.006427
v -0.651224 0.764521 -0.050678
v -0.651224 0.766994 -0.046789
v -0.651224 0.764521 -0.046789
v -0.651224 0.756970 -0.065363
v -0.651224 0.756970 -0.050678
v -0.651224 0.762633 -0.043391
v -0.651224 0.768448 -0.002842
v -0.651224 0.762633 -0.002842
v -0.651224 0.778811 -0.006427
v -0.651224 0.780567 -0.008182
v -0.651224 0.766994 -0.043391
v -0.651224 0.780567 -0.065363
v -0.651224 0.778811 0.030196
v -0.651224 0.768448 0.030196
v -0.651224 0.778811 -0.006427
v -0.651224 0.768448 -0.002842
v -0.651224 0.778811 0.030196
v -0.651224 0.768448 0.030196
v -0.651224 0.756970 -0.065363
v -0.651224 0.764521 -0.050678
v -0.651224 0.780567 -0.065363
v -0.651224 0.766994 -0.046789
v -0.651224 0.766994 -0.043391
v -0.651224 0.780567 -0.008182
v -0.651224 0.762633 -0.043391
v -0.651224 0.762633 -0.002842
v -0.651224 0.756970 -0.050678
v -0.651224 0.764521 -0.046789
v -0.674822 0.780567 -0.065363
v -0.651224 0.756970 -0.065363
v -0.674822 0.756970 -0.065363
v -0.651224 0.780567 -0.065363
v -0.651224 0.780567 -0.065363
v -0.674822 0.780567 -0.065363
v -0.651224 0.756970 -0.065363
v -0.674822 0.756970 -0.065363
v -0.674822 0.756970 -0.065363
v -0.661248 0.756970 -0.046789
v -0.674822 0.756970 -0.008182
v -0.651224 0.756970 -0.065363
v -0.673066 0.756970 -0.006427
v -0.673066 0.756970 0.030196
v -0.662702 0.756970 -0.002842
v -0.658775 0.756970 -0.050678
v -0.651224 0.756970 -0.050678
v -0.658775 0.756970 -0.046789
v -0.661248 0.756970 -0.043391
v -0.656888 0.756970 -0.002842
v -0.656888 0.756970 -0.043391
v -0.662702 0.756970 0.030196
v -0.662702 0.756970 -0.002842
v -0.673066 0.756970 0.030196
v -0.662702 0.756970 0.030196
v -0.656888 0.756970 -0.043391
v -0.661248 0.756970 -0.043391
v -0.656888 0.756970 -0.002842
v -0.661248 0.756970 -0.046789
v -0.658775 0.756970 -0.050678
v -0.658775 0.756970 -0.046789
v -0.651224 0.756970 -0.050678
v -0.651224 0.756970 -0.065363
v -0.673066 0.756970 -0.006427
v -0.674822 0.756970 -0.008182
v -0.674822 0.756970 -0.065363
v -0.673066 0.756970 -0.006427
v -0.673066 0.778811 -0.006427
v -0.673066 0.756970 -0.006427
v -0.673066 0.778811 -0.006427
v -0.651224 0.778811 0.030196
v -0.673066 0.778811 0.030196
v -0.651224 0.778811 0.030196
v -0.673066 0.778811 0.030196
v -0.651224 0.766994 -0.046789
v -0.658775 0.764521 -0.046789
v -0.651224 0.764521 -0.046789
v -0.661248 0.756970 -0.046789
v -0.658775 0.756970 -0.046789
v -0.661248 0.766994 -0.046789
v -0.651224 0.766994 -0.046789
v -0.658775 0.764521 -0.046789
v -0.661248 0.766994 -0.046789
v -0.661248 0.756970 -0.046789
v -0.658775 0.756970 -0.046789
v -0.651224 0.764521 -0.046789
v -0.651224 0.764521 -0.050678
v -0.658775 0.764521 -0.046789
v -0.658775 0.764521 -0.050678
v -0.651224 0.764521 -0.046789
v -0.651224 0.764521 -0.046789
v -0.651224 0.764521 -0.050678
v -0.658775 0.764521 -0.046789
v -0.658775 0.764521 -0.050678
v -0.651224 0.764521 -0.050678
v -0.658775 0.756970 -0.050678
v -0.651224 0.756970 -0.050678
v -0.658775 0.764521 -0.050678
v -0.658775 0.764521 -0.050678
v -0.651224 0.764521 -0.050678
v -0.658775 0.756970 -0.050678
v -0.651224 0.756970 -0.050678
v -0.651224 0.778811 0.030196
v -0.662702 0.768448 0.030196
v -0.651224 0.768448 0.030196
v -0.673066 0.756970 0.030196
v -0.662702 0.756970 0.030196
v -0.673066 0.778811 0.030196
v -0.651224 0.778811 0.030196
v -0.662702 0.768448 0.030196
v -0.673066 0.778811 0.030196
v -0.673066 0.756970 0.030196
v -0.662702 0.756970 0.030196
v -0.651224 0.768448 0.030196
v -0.651224 0.768448 -0.002842
v -0.662702 0.768448 0.030196
v -0.662702 0.768448 -0.002842
v -0.651224 0.768448 0.030196
v -0.651224 0.768448 0.030196
v -0.651224 0.768448 -0.002842
v -0.662702 0.768448 0.030196
v -0.662702 0.768448 -0.002842
v -0.651224 0.768448 -0.002842
v -0.656888 0.762633 -0.002842
v -0.651224 0.762633 -0.002842
v -0.662702 0.756970 -0.002842
v -0.656888 0.756970 -0.002842
v -0.662702 0.768448 -0.002842
v -0.651224 0.768448 -0.002842
v -0.656888 0.762633 -0.002842
v -0.662702 0.768448 -0.002842
v -0.662702 0.756970 -0.002842
v -0.656888 0.756970 -0.002842
v -0.651224 0.762633 -0.002842
v -0.651224 0.762633 -0.043391
v -0.656888 0.762633 -0.002842
v -0.656888 0.762633 -0.043391
v -0.651224 0.762633 -0.002842
v -0.651224 0.762633 -0.002842
v -0.651224 0.762633 -0.043391
v -0.656888 0.762633 -0.002842
v -0.656888 0.762633 -0.043391
v -0.661248 0.766994 -0.043391
v -0.656888 0.756970 -0.043391
v -0.661248 0.756970 -0.043391
v -0.656888 0.762633 -0.043391
v -0.651224 0.762633 -0.043391
v -0.651224 0.766994 -0.043391
v -0.651224 0.766994 -0.043391
v -0.661248 0.766994 -0.043391
v -0.651224 0.762633 -0.043391
v -0.656888 0.762633 -0.043391
v -0.656888 0.756970 -0.043391
v -0.661248 0.756970 -0.043391
v -0.651224 0.766994 -0.046789
v -0.661248 0.766994 -0.043391
v -0.661248 0.766994 -0.046789
v -0.651224 0.766994 -0.043391
v -0.651224 0.766994 -0.043391
v -0.651224 0.766994 -0.046789
v -0.661248 0.766994 -0.043391
v -0.661248 0.766994 -0.046789
v -0.661248 0.756970 -0.046789
v -0.661248 0.766994 -0.043391
v -0.661248 0.756970 -0.043391
v -0.661248 0.766994 -0.046789
v -0.661248 0.766994 -0.046789
v -0.661248 0.756970 -0.046789
v -0.661248 0.766994 -0.043391
v -0.661248 0.756970 -0.043391
v -0.656888 0.756970 -0.043391
v -0.656888 0.762633 -0.002842
v -0.656888 0.756970 -0.002842
v -0.656888 0.762633 -0.043391
v -0.656888 0.762633 -0.043391
v -0.656888 0.756970 -0.043391
v -0.656888 0.762633 -0.002842
v -0.656888 0.756970 -0.002842
v -0.662702 0.756970 -0.002842
v -0.662702 0.768448 0.030196
v -0.662702 0.756970 0.030196
v -0.662702 0.768448 -0.002842
v -0.662702 0.768448 -0.002842
v -0.662702 0.756970 -0.002842
v -0.662702 0.768448 0.030196
v -0.662702 0.756970 0.030196
v -0.673066 0.756970 0.030196
v -0.673066 0.778811 0.030196
v -0.673066 0.756970 0.030196
v -0.673066 0.778811 0.030196
v -0.658775 0.756970 -0.050678
v -0.658775 0.764521 -0.046789
v -0.658775 0.756970 -0.046789
v -0.658775 0.764521 -0.050678
v -0.658775 0.764521 -0.050678
v -0.658775 0.756970 -0.050678
v -0.658775 0.764521 -0.046789
v -0.658775 0.756970 -0.046789
vn 0 0.9576361484621266 0.2879809145735599
vn 0 1 0
vn 0 0.9238795391929064 0.38268341623423285
vn 0 -0.9238795391929064 -0.38268341623423285
vn 0 -0.9576361484621266 -0.2879809145735599
vn 0 -1 0
vn -1 0 0
vn -0.9238795391929066 0 0.38268341623423263
vn -0.9576361484621265 0 0.2879809145735596
vn 1 0 0
vn 0.9238795391929066 0 -0.38268341623423263
vn 0.9576361484621265 0 -0.2879809145735596
vn 0 0.8958520818768363 0.4443523910107136
vn 0 -0.8958520818768363 -0.4443523910107136
vn 0 0 -1
vn 0 0 1
vn -0.8958520818768364 0 0.4443523910107134
vn 0.8958520818768364 0 -0.4443523910107134
usemtl material_0_0
f 1//1 2//2 3//2
f 2//2 1//1 4//3
f 5//4 6//5 7//6
f 8//6 7//6 6//5
f 9//7 10//8 11//9
f 10//8 9//7 12//7
f 13//10 14//10 15//11
f 16//12 15//11 14//10
f 4//3 17//13 18//3
f 17//13 4//3 1//1
f 6//5 5//4 19//14
f 20//4 19//14 5//4
f 21//10 22//10 23//10
f 24//10 21//10 25//10
f 26//10 27//10 28//10
f 27//10 26//10 29//10
f 29//10 26//10 30//10
f 30//10 26//10 31//10
f 30//10 31//10 32//10
f 32//10 31//10 22//10
f 32//10 22//10 21//10
f 32//10 21//10 24//10
f 27//10 33//10 34//10
f 33//10 27//10 29//10
f 35//7 36//7 37//7
f 38//7 37//7 36//7
f 39//7 40//7 41//7
f 40//7 42//7 41//7
f 42//7 43//7 41//7
f 41//7 43//7 44//7
f 43//7 45//7 44//7
f 44//7 45//7 35//7
f 35//7 45//7 36//7
f 46//7 36//7 45//7
f 47//7 40//7 39//7
f 48//7 42//7 40//7
f 49//15 50//15 51//15
f 50//15 49//15 52//15
f 53//16 54//16 55//16
f 56//16 55//16 54//16
f 57//6 58//6 59//6
f 58//6 57//6 60//6
f 59//6 58//6 61//6
f 61//6 58//6 62//6
f 62//6 58//6 63//6
f 58//6 60//6 64//6
f 64//6 60//6 65//6
f 66//6 58//6 64//6
f 63//6 67//6 68//6
f 67//6 63//6 58//6
f 68//6 67//6 69//6
f 70//6 62//6 63//6
f 71//2 72//2 73//2
f 74//2 75//2 76//2
f 77//2 71//2 75//2
f 76//2 75//2 71//2
f 78//2 77//2 79//2
f 80//2 81//2 78//2
f 78//2 81//2 77//2
f 71//2 77//2 72//2
f 72//2 77//2 82//2
f 82//2 77//2 83//2
f 81//2 84//2 77//2
f 83//2 77//2 84//2
f 11//9 85//8 86//17
f 85//8 11//9 10//8
f 15//11 16//12 87//11
f 88//18 87//11 16//12
f 89//2 17//13 90//2
f 17//13 89//2 18//3
f 20//4 91//6 19//14
f 92//6 19//14 91//6
f 93//16 94//16 95//16
f 94//16 96//16 97//16
f 96//16 94//16 98//16
f 98//16 94//16 93//16
f 99//15 100//15 101//15
f 101//15 100//15 102//15
f 103//15 102//15 100//15
f 104//15 100//15 99//15
f 105//6 106//6 107//6
f 106//6 105//6 108//6
f 109//2 110//2 111//2
f 112//2 111//2 110//2
f 113//16 114//16 115//16
f 114//16 113//16 116//16
f 117//15 118//15 119//15
f 120//15 119//15 118//15
f 121//16 122//16 123//16
f 122//16 124//16 125//16
f 124//16 122//16 126//16
f 126//16 122//16 121//16
f 127//15 128//15 129//15
f 129//15 128//15 130//15
f 131//15 130//15 128//15
f 132//15 128//15 127//15
f 133//6 134//6 135//6
f 134//6 133//6 136//6
f 137//2 138//2 139//2
f 140//2 139//2 138//2
f 141//16 142//16 143//16
f 142//16 144//16 145//16
f 144//16 142//16 146//16
f 146//16 142//16 141//16
f 147//15 148//15 149//15
f 149//15 148//15 150//15
f 151//15 150//15 148//15
f 152//15 148//15 147//15
f 153//6 154//6 155//6
f 154//6 153//6 156//6
f 157//2 158//2 159//2
f 160//2 159//2 158//2
f 161//15 162//15 163//15
f 162//15 161//15 164//15
f 164//15 161//15 165//15
f 165//15 161//15 166//15
f 167//16 168//16 169//16
f 169//16 168//16 170//16
f 170//16 168//16 171//16
f 172//16 171//16 168//16
f 173//6 174//6 175//6
f 174//6 173//6 176//6
f 177//2 178//2 179//2
f 180//2 179//2 178//2
f 181//10 182//10 183//10
f 182//10 181//10 184//10
f 185//7 186//7 187//7
f 188//7 187//7 186//7
f 189//10 190//10 191//10
f 190//10 189//10 192//10
f 193//7 194//7 195//7
f 196//7 195//7 194//7
f 197//10 198//10 199//10
f 198//10 197//10 200//10
f 201//7 202//7 203//7
f 204//7 203//7 202//7
f 86//17 205//7 206//7
f 205//7 86//17 85//8
f 87//11 88//18 207//10
f 208//10 207//10 88//18
f 209//10 210//10 211//10
f 210//10 209//10 212//10
f 213//7 214//7 215//7
f 216//7 215//7 214//7
