# SSTK version 0.8.0
# 206
mtllib original-206.mtl
o #ID850
v -0.582445 -0.185182 -0.005233
v -0.600698 -0.185182 0.002830
v -0.600698 -0.185182 -0.005233
v -0.582445 -0.185182 0.002830
v -0.582445 -0.185182 0.002830
v -0.582445 -0.185182 -0.005233
v -0.600698 -0.185182 0.002830
v -0.600698 -0.185182 -0.005233
v -0.582445 -0.149577 0.002830
v -0.600698 -0.149577 0.002830
v -0.600698 -0.149577 0.002830
v -0.582445 -0.149577 0.002830
v -0.600698 0.028446 -0.005233
v -0.600698 -0.007159 0.002830
v -0.600698 0.028446 0.002830
v -0.600698 -0.007159 -0.007921
v -0.600698 0.019039 -0.013921
v -0.600698 -0.030047 -0.018671
v -0.600698 -0.000558 -0.019690
v -0.600698 -0.126689 -0.018671
v -0.600698 -0.149577 -0.007921
v -0.600698 -0.175775 -0.013921
v -0.600698 -0.156178 -0.019690
v -0.600698 -0.021676 -0.024118
v -0.600698 -0.135060 -0.024118
v -0.600698 -0.043903 -0.027119
v -0.600698 -0.112833 -0.027119
v -0.600698 -0.066804 -0.028635
v -0.600698 -0.089932 -0.028635
v -0.600698 -0.089932 -0.028635
v -0.600698 -0.066804 -0.028635
v -0.600698 -0.112833 -0.027119
v -0.600698 -0.043903 -0.027119
v -0.600698 -0.135060 -0.024118
v -0.600698 -0.021676 -0.024118
v -0.600698 -0.156178 -0.019690
v -0.600698 -0.000558 -0.019690
v -0.600698 -0.126689 -0.018671
v -0.600698 -0.175775 -0.013921
v -0.600698 -0.149577 -0.007921
v -0.600698 -0.030047 -0.018671
v -0.600698 0.019039 -0.013921
v -0.600698 -0.007159 -0.007921
v -0.600698 0.028446 -0.005233
v -0.600698 -0.007159 0.002830
v -0.600698 0.028446 0.002830
v -0.582445 -0.175775 -0.013921
v -0.582445 -0.175775 -0.013921
v -0.582445 -0.149577 -0.007921
v -0.582445 -0.126689 -0.018671
v -0.582445 -0.156178 -0.019690
v -0.582445 -0.030047 -0.018671
v -0.582445 -0.007159 -0.007921
v -0.582445 0.028446 0.002830
v -0.582445 -0.007159 0.002830
v -0.582445 0.028446 -0.005233
v -0.582445 0.019039 -0.013921
v -0.582445 -0.000558 -0.019690
v -0.582445 -0.135060 -0.024118
v -0.582445 -0.021676 -0.024118
v -0.582445 -0.112833 -0.027119
v -0.582445 -0.043903 -0.027119
v -0.582445 -0.089932 -0.028635
v -0.582445 -0.066804 -0.028635
v -0.582445 -0.066804 -0.028635
v -0.582445 -0.089932 -0.028635
v -0.582445 -0.043903 -0.027119
v -0.582445 -0.112833 -0.027119
v -0.582445 -0.021676 -0.024118
v -0.582445 -0.135060 -0.024118
v -0.582445 -0.000558 -0.019690
v -0.582445 -0.156178 -0.019690
v -0.582445 -0.030047 -0.018671
v -0.582445 0.019039 -0.013921
v -0.582445 -0.007159 -0.007921
v -0.582445 0.028446 -0.005233
v -0.582445 0.028446 0.002830
v -0.582445 -0.007159 0.002830
v -0.582445 -0.126689 -0.018671
v -0.582445 -0.149577 -0.007921
vn 0.6270146978713917 -0.7136473975772883 -0.31234589893963893
vn -0.5773502691896257 -0.5773502691896258 0.5773502691896256
vn -0.6270146978713917 -0.7136473975772883 -0.31234589893963893
vn 0.5773502691896257 -0.5773502691896258 0.5773502691896256
vn -0.5773502691896257 0.5773502691896258 -0.5773502691896256
vn -0.6270146978713917 0.7136473975772883 0.31234589893963893
vn 0.5773502691896257 0.5773502691896258 -0.5773502691896256
vn 0.6270146978713917 0.7136473975772883 0.31234589893963893
vn 0.5773502691896257 0.5773502691896256 0.5773502691896258
vn -0.5773502691896257 0.5773502691896256 0.5773502691896258
vn 0.5773502691896257 -0.5773502691896256 -0.5773502691896258
vn -0.5773502691896257 -0.5773502691896256 -0.5773502691896258
vn -0.6270146978713917 0.7136473975772886 -0.3123458989396386
vn -0.8496795391893539 -0.44511322052973945 0.2826993130388021
vn -0.6592709680232327 0.3709851820060228 -0.654012068278306
vn -0.7595709138116009 -0.14166030257586962 0.6348105115430295
vn -0.6982602129418971 0.1746703032374252 -0.6942067128667675
vn -0.7595709138116009 0.14166030257586934 0.6348105115430295
vn -0.8496795391893539 0.44511322052973934 0.2826993130388023
vn -0.6592709680232327 -0.3709851820060225 -0.6540120682783063
vn -0.6982602129418971 -0.17467030323742486 -0.6942067128667675
vn -0.6990416912507312 0.12129999848179845 -0.70471769117969
vn -0.6990416912507312 -0.12129999848179815 -0.70471769117969
vn -0.6995198763623548 0.07144561758576402 -0.711032675973323
vn -0.6995198763623548 -0.07144561758576372 -0.711032675973323
vn -0.6997469956426711 0.023597949853055578 -0.714000895553912
vn -0.6997469956426711 -0.02359794985305526 -0.714000895553912
vn 0.6997469956426711 0.02359794985305526 0.714000895553912
vn 0.6997469956426711 -0.023597949853055578 0.714000895553912
vn 0.6995198763623548 0.07144561758576372 0.711032675973323
vn 0.6995198763623548 -0.07144561758576402 0.711032675973323
vn 0.6990416912507312 0.12129999848179815 0.70471769117969
vn 0.6990416912507312 -0.12129999848179845 0.70471769117969
vn 0.6982602129418971 0.17467030323742486 0.6942067128667675
vn 0.6982602129418971 -0.1746703032374252 0.6942067128667675
vn 0.7595709138116009 -0.14166030257586934 -0.6348105115430295
vn 0.6592709680232327 0.3709851820060225 0.6540120682783063
vn 0.8496795391893539 -0.44511322052973934 -0.2826993130388023
vn 0.7595709138116009 0.14166030257586962 -0.6348105115430295
vn 0.6592709680232327 -0.3709851820060228 0.654012068278306
vn 0.8496795391893539 0.44511322052973945 -0.2826993130388021
vn 0.6270146978713917 -0.7136473975772886 0.3123458989396386
vn 0.6592709680232327 -0.3709851820060225 -0.6540120682783063
vn -0.6592709680232327 0.3709851820060225 0.6540120682783063
vn 0.8496795391893539 0.44511322052973934 0.2826993130388023
vn 0.7595709138116009 0.14166030257586934 0.6348105115430295
vn 0.6982602129418971 -0.17467030323742486 -0.6942067128667675
vn 0.7595709138116009 -0.14166030257586962 0.6348105115430295
vn 0.8496795391893539 -0.44511322052973945 0.2826993130388021
vn 0.6270146978713917 0.7136473975772886 -0.3123458989396386
vn 0.6592709680232327 0.3709851820060228 -0.654012068278306
vn 0.6982602129418971 0.1746703032374252 -0.6942067128667675
vn 0.6990416912507312 -0.12129999848179815 -0.70471769117969
vn 0.6990416912507312 0.12129999848179845 -0.70471769117969
vn 0.6995198763623548 -0.07144561758576372 -0.711032675973323
vn 0.6995198763623548 0.07144561758576402 -0.711032675973323
vn 0.6997469956426711 -0.02359794985305526 -0.714000895553912
vn 0.6997469956426711 0.023597949853055578 -0.714000895553912
vn -0.6997469956426711 -0.023597949853055578 0.714000895553912
vn -0.6997469956426711 0.02359794985305526 0.714000895553912
vn -0.6995198763623548 -0.07144561758576402 0.711032675973323
vn -0.6995198763623548 0.07144561758576372 0.711032675973323
vn -0.6990416912507312 -0.12129999848179845 0.70471769117969
vn -0.6990416912507312 0.12129999848179815 0.70471769117969
vn -0.6982602129418971 -0.1746703032374252 0.6942067128667675
vn -0.6982602129418971 0.17467030323742486 0.6942067128667675
vn -0.7595709138116009 0.14166030257586962 -0.6348105115430295
vn -0.6592709680232327 -0.3709851820060228 0.654012068278306
vn -0.8496795391893539 0.44511322052973945 -0.2826993130388021
vn -0.6270146978713917 -0.7136473975772886 0.3123458989396386
vn -0.7595709138116009 -0.14166030257586934 -0.6348105115430295
vn -0.8496795391893539 -0.44511322052973934 -0.2826993130388023
usemtl material_0_0
f 1//1 2//2 3//3
f 2//2 1//1 4//4
f 5//5 6//6 7//7
f 8//8 7//7 6//6
f 9//9 2//2 4//4
f 2//2 9//9 10//10
f 11//11 12//12 7//7
f 5//5 7//7 12//12
f 13//13 14//2 15//10
f 14//2 13//13 16//14
f 16//14 13//13 17//15
f 16//14 17//15 18//16
f 18//16 17//15 19//17
f 18//16 19//17 20//18
f 21//19 2//2 10//10
f 2//2 21//19 3//3
f 3//3 21//19 22//20
f 22//20 21//19 20//18
f 22//20 20//18 23//21
f 23//21 20//18 19//17
f 23//21 19//17 24//22
f 23//21 24//22 25//23
f 25//23 24//22 26//24
f 25//23 26//24 27//25
f 27//25 26//24 28//26
f 27//25 28//26 29//27
f 30//28 31//29 32//30
f 31//29 33//31 32//30
f 32//30 33//31 34//32
f 33//31 35//33 34//32
f 34//32 35//33 36//34
f 35//33 37//35 36//34
f 37//35 38//36 36//34
f 36//34 38//36 39//37
f 38//36 40//38 39//37
f 39//37 40//38 8//8
f 8//8 40//38 7//7
f 11//11 7//7 40//38
f 38//36 37//35 41//39
f 37//35 42//40 41//39
f 41//39 42//40 43//41
f 42//40 44//42 43//41
f 43//41 44//42 45//7
f 46//11 45//7 44//42
f 22//20 1//1 3//3
f 1//1 22//20 47//43
f 48//44 39//37 6//6
f 8//8 6//6 39//37
f 1//1 9//9 4//4
f 9//9 1//1 49//45
f 49//45 1//1 47//43
f 49//45 47//43 50//46
f 50//46 47//43 51//47
f 50//46 51//47 52//48
f 53//49 54//9 55//4
f 54//9 53//49 56//50
f 56//50 53//49 57//51
f 57//51 53//49 52//48
f 57//51 52//48 58//52
f 58//52 52//48 51//47
f 58//52 51//47 59//53
f 58//52 59//53 60//54
f 60//54 59//53 61//55
f 60//54 61//55 62//56
f 62//56 61//55 63//57
f 62//56 63//57 64//58
f 65//59 66//60 67//61
f 66//60 68//62 67//61
f 67//61 68//62 69//63
f 68//62 70//64 69//63
f 69//63 70//64 71//65
f 70//64 72//66 71//65
f 72//66 73//67 71//65
f 71//65 73//67 74//68
f 73//67 75//69 74//68
f 74//68 75//69 76//70
f 76//70 75//69 77//12
f 78//5 77//12 75//69
f 73//67 72//66 79//71
f 72//66 48//44 79//71
f 79//71 48//44 80//72
f 48//44 6//6 80//72
f 80//72 6//6 12//12
f 5//5 12//12 6//6
f 9//9 21//19 10//10
f 21//19 9//9 49//45
f 80//72 12//12 40//38
f 11//11 40//38 12//12
f 50//46 21//19 49//45
f 21//19 50//46 20//18
f 38//36 79//71 40//38
f 80//72 40//38 79//71
f 52//48 20//18 50//46
f 20//18 52//48 18//16
f 41//39 73//67 38//36
f 79//71 38//36 73//67
f 53//49 18//16 52//48
f 18//16 53//49 16//14
f 43//41 75//69 41//39
f 73//67 41//39 75//69
f 53//49 14//2 16//14
f 14//2 53//49 55//4
f 78//5 75//69 45//7
f 43//41 45//7 75//69
f 54//9 14//2 55//4
f 14//2 54//9 15//10
f 46//11 77//12 45//7
f 78//5 45//7 77//12
f 54//9 13//13 15//10
f 13//13 54//9 56//50
f 76//70 77//12 44//42
f 46//11 44//42 77//12
f 13//13 57//51 17//15
f 57//51 13//13 56//50
f 76//70 44//42 74//68
f 42//40 74//68 44//42
f 17//15 58//52 19//17
f 58//52 17//15 57//51
f 74//68 42//40 71//65
f 37//35 71//65 42//40
f 19//17 60//54 24//22
f 60//54 19//17 58//52
f 71//65 37//35 69//63
f 35//33 69//63 37//35
f 24//22 62//56 26//24
f 62//56 24//22 60//54
f 69//63 35//33 67//61
f 33//31 67//61 35//33
f 26//24 64//58 28//26
f 64//58 26//24 62//56
f 67//61 33//31 65//59
f 31//29 65//59 33//31
f 28//26 63//57 29//27
f 63//57 28//26 64//58
f 65//59 31//29 66//60
f 30//28 66//60 31//29
f 29//27 61//55 27//25
f 61//55 29//27 63//57
f 66//60 30//28 68//62
f 32//30 68//62 30//28
f 27//25 59//53 25//23
f 59//53 27//25 61//55
f 68//62 32//30 70//64
f 34//32 70//64 32//30
f 25//23 51//47 23//21
f 51//47 25//23 59//53
f 70//64 34//32 72//66
f 36//34 72//66 34//32
f 23//21 47//43 22//20
f 47//43 23//21 51//47
f 72//66 36//34 48//44
f 39//37 48//44 36//34
