# SSTK version 0.8.0
# 27
mtllib original-27.mtl
o instance_26/basash/ID183#ID183
v -0.064052 -0.587701 0.033581
v -0.548537 -0.592948 0.033581
v -0.064052 -0.592948 0.033581
v -0.548537 -0.587701 0.033581
v -0.548537 -0.587701 0.033581
v -0.064052 -0.587701 0.033581
v -0.548537 -0.592948 0.033581
v -0.064052 -0.592948 0.033581
v -0.548537 -0.589955 0.041795
v -0.548537 -0.590983 0.040756
v -0.548537 -0.739067 0.041795
v -0.548537 -0.589955 0.040295
v -0.548537 -0.590983 0.040170
v -0.548537 -0.585629 0.032107
v -0.548537 -0.587701 0.033581
v -0.548537 -0.592948 0.033581
v -0.548537 -0.589577 0.032732
v -0.548537 -0.589577 0.031034
v -0.548537 -0.585629 0.031034
v -0.548537 -0.592948 0.032732
v -0.548537 -0.735071 0.040756
v -0.548537 -0.739067 0.037078
v -0.548537 -0.735071 0.037078
v -0.548537 -0.735071 0.037078
v -0.548537 -0.735071 0.040756
v -0.548537 -0.739067 0.037078
v -0.548537 -0.590983 0.040756
v -0.548537 -0.739067 0.041795
v -0.548537 -0.589577 0.032732
v -0.548537 -0.592948 0.033581
v -0.548537 -0.592948 0.032732
v -0.548537 -0.585629 0.031034
v -0.548537 -0.585629 0.032107
v -0.548537 -0.589577 0.031034
v -0.548537 -0.587701 0.033581
v -0.548537 -0.590983 0.040170
v -0.548537 -0.589955 0.040295
v -0.548537 -0.589955 0.041795
v -0.064052 -0.592948 0.032732
v -0.548537 -0.592948 0.033581
v -0.548537 -0.592948 0.032732
v -0.064052 -0.592948 0.033581
v -0.064052 -0.592948 0.033581
v -0.064052 -0.592948 0.032732
v -0.548537 -0.592948 0.033581
v -0.548537 -0.592948 0.032732
v -0.064052 -0.739067 0.041795
v -0.064052 -0.735071 0.040756
v -0.064052 -0.589955 0.041795
v -0.064052 -0.739067 0.037078
v -0.064052 -0.735071 0.037078
v -0.064052 -0.592948 0.032732
v -0.064052 -0.587701 0.033581
v -0.064052 -0.592948 0.033581
v -0.064052 -0.590983 0.040756
v -0.064052 -0.589955 0.040295
v -0.064052 -0.590983 0.040170
v -0.064052 -0.585629 0.032107
v -0.064052 -0.589577 0.032732
v -0.064052 -0.589577 0.031034
v -0.064052 -0.585629 0.031034
v -0.064052 -0.585629 0.031034
v -0.064052 -0.589577 0.031034
v -0.064052 -0.585629 0.032107
v -0.064052 -0.589577 0.032732
v -0.064052 -0.592948 0.032732
v -0.064052 -0.587701 0.033581
v -0.064052 -0.590983 0.040170
v -0.064052 -0.589955 0.040295
v -0.064052 -0.590983 0.040756
v -0.064052 -0.735071 0.040756
v -0.064052 -0.589955 0.041795
v -0.064052 -0.592948 0.033581
v -0.064052 -0.735071 0.037078
v -0.064052 -0.739067 0.037078
v -0.064052 -0.739067 0.041795
v -0.064052 -0.587701 0.033581
v -0.548537 -0.590983 0.040170
v -0.548537 -0.587701 0.033581
v -0.064052 -0.590983 0.040170
v -0.064052 -0.590983 0.040170
v -0.064052 -0.587701 0.033581
v -0.548537 -0.590983 0.040170
v -0.548537 -0.587701 0.033581
v -0.548537 -0.590983 0.040756
v -0.064052 -0.590983 0.040756
v -0.064052 -0.590983 0.040756
v -0.548537 -0.590983 0.040756
v -0.548537 -0.590983 0.040756
v -0.064052 -0.735071 0.040756
v -0.548537 -0.735071 0.040756
v -0.064052 -0.590983 0.040756
v -0.064052 -0.590983 0.040756
v -0.548537 -0.590983 0.040756
v -0.064052 -0.735071 0.040756
v -0.548537 -0.735071 0.040756
v -0.064052 -0.735071 0.040756
v -0.548537 -0.735071 0.037078
v -0.548537 -0.735071 0.040756
v -0.064052 -0.735071 0.037078
v -0.064052 -0.735071 0.037078
v -0.064052 -0.735071 0.040756
v -0.548537 -0.735071 0.037078
v -0.548537 -0.735071 0.040756
v -0.548537 -0.735071 0.037078
v -0.064052 -0.739067 0.037078
v -0.548537 -0.739067 0.037078
v -0.064052 -0.735071 0.037078
v -0.064052 -0.735071 0.037078
v -0.548537 -0.735071 0.037078
v -0.064052 -0.739067 0.037078
v -0.548537 -0.739067 0.037078
v -0.064052 -0.739067 0.037078
v -0.548537 -0.739067 0.041795
v -0.548537 -0.739067 0.037078
v -0.064052 -0.739067 0.041795
v -0.064052 -0.739067 0.041795
v -0.064052 -0.739067 0.037078
v -0.548537 -0.739067 0.041795
v -0.548537 -0.739067 0.037078
v -0.064052 -0.589955 0.041795
v -0.548537 -0.739067 0.041795
v -0.064052 -0.739067 0.041795
v -0.548537 -0.589955 0.041795
v -0.548537 -0.589955 0.041795
v -0.064052 -0.589955 0.041795
v -0.548537 -0.739067 0.041795
v -0.064052 -0.739067 0.041795
v -0.064052 -0.589955 0.041795
v -0.548537 -0.589955 0.040295
v -0.548537 -0.589955 0.041795
v -0.064052 -0.589955 0.040295
v -0.064052 -0.589955 0.040295
v -0.064052 -0.589955 0.041795
v -0.548537 -0.589955 0.040295
v -0.548537 -0.589955 0.041795
v -0.548537 -0.585629 0.032107
v -0.064052 -0.585629 0.032107
v -0.064052 -0.585629 0.032107
v -0.548537 -0.585629 0.032107
v -0.548537 -0.585629 0.031034
v -0.064052 -0.585629 0.031034
v -0.064052 -0.585629 0.031034
v -0.548537 -0.585629 0.031034
v -0.548537 -0.585629 0.031034
v -0.064052 -0.589577 0.031034
v -0.548537 -0.589577 0.031034
v -0.064052 -0.585629 0.031034
v -0.064052 -0.585629 0.031034
v -0.548537 -0.585629 0.031034
v -0.064052 -0.589577 0.031034
v -0.548537 -0.589577 0.031034
v -0.064052 -0.589577 0.031034
v -0.548537 -0.589577 0.032732
v -0.548537 -0.589577 0.031034
v -0.064052 -0.589577 0.032732
v -0.064052 -0.589577 0.032732
v -0.064052 -0.589577 0.031034
v -0.548537 -0.589577 0.032732
v -0.548537 -0.589577 0.031034
v -0.548537 -0.589577 0.032732
v -0.064052 -0.592948 0.032732
v -0.548537 -0.592948 0.032732
v -0.064052 -0.589577 0.032732
v -0.064052 -0.589577 0.032732
v -0.548537 -0.589577 0.032732
v -0.064052 -0.592948 0.032732
v -0.548537 -0.592948 0.032732
vn 0 0 1
vn 0 0 -1
vn -1 0 0
vn 1 0 0
vn 0 -1 0
vn 0 1 0
vn 0 -0.8950659361046109 -0.44593381798780024
vn 0 -0.9734130606362231 -0.22905679073719004
vn 0 0.9734130606362231 0.22905679073719004
vn 0 0.8950659361046109 0.44593381798780024
vn 0 0.9706190245453781 0.24062150608492713
vn 0 -0.9706190245453781 -0.24062150608492713
usemtl material_0_0
f 1//1 2//1 3//1
f 2//1 1//1 4//1
f 5//2 6//2 7//2
f 8//2 7//2 6//2
f 9//3 10//3 11//3
f 10//3 9//3 12//3
f 10//3 12//3 13//3
f 13//3 12//3 14//3
f 13//3 14//3 15//3
f 15//3 14//3 16//3
f 16//3 14//3 17//3
f 17//3 14//3 18//3
f 18//3 14//3 19//3
f 20//3 16//3 17//3
f 11//3 21//3 22//3
f 21//3 11//3 10//3
f 22//3 21//3 23//3
f 24//4 25//4 26//4
f 27//4 28//4 25//4
f 26//4 25//4 28//4
f 29//4 30//4 31//4
f 32//4 33//4 34//4
f 34//4 33//4 29//4
f 29//4 33//4 30//4
f 30//4 33//4 35//4
f 35//4 33//4 36//4
f 33//4 37//4 36//4
f 36//4 37//4 27//4
f 37//4 38//4 27//4
f 28//4 27//4 38//4
f 39//5 40//5 41//5
f 40//5 39//5 42//5
f 43//6 44//6 45//6
f 46//6 45//6 44//6
f 47//4 48//4 49//4
f 48//4 47//4 50//4
f 48//4 50//4 51//4
f 52//4 53//4 54//4
f 49//4 55//4 56//4
f 55//4 49//4 48//4
f 56//4 55//4 57//4
f 56//4 57//4 58//4
f 58//4 57//4 53//4
f 58//4 53//4 59//4
f 59//4 53//4 52//4
f 58//4 59//4 60//4
f 58//4 60//4 61//4
f 62//3 63//3 64//3
f 63//3 65//3 64//3
f 66//3 67//3 65//3
f 65//3 67//3 64//3
f 67//3 68//3 64//3
f 64//3 68//3 69//3
f 68//3 70//3 69//3
f 71//3 72//3 70//3
f 69//3 70//3 72//3
f 73//3 67//3 66//3
f 74//3 75//3 71//3
f 75//3 76//3 71//3
f 72//3 71//3 76//3
f 77//7 78//8 79//7
f 78//8 77//7 80//8
f 81//9 82//10 83//9
f 84//10 83//9 82//10
f 80//8 85//5 78//8
f 85//5 80//8 86//5
f 87//6 81//9 88//6
f 83//9 88//6 81//9
f 89//2 90//2 91//2
f 90//2 89//2 92//2
f 93//1 94//1 95//1
f 96//1 95//1 94//1
f 97//6 98//6 99//6
f 98//6 97//6 100//6
f 101//5 102//5 103//5
f 104//5 103//5 102//5
f 105//2 106//2 107//2
f 106//2 105//2 108//2
f 109//1 110//1 111//1
f 112//1 111//1 110//1
f 113//5 114//5 115//5
f 114//5 113//5 116//5
f 117//6 118//6 119//6
f 120//6 119//6 118//6
f 121//1 122//1 123//1
f 122//1 121//1 124//1
f 125//2 126//2 127//2
f 128//2 127//2 126//2
f 129//6 130//11 131//6
f 130//11 129//6 132//11
f 133//12 134//5 135//12
f 136//5 135//12 134//5
f 132//11 137//11 130//11
f 137//11 132//11 138//11
f 139//12 133//12 140//12
f 135//12 140//12 133//12
f 138//11 141//6 137//11
f 141//6 138//11 142//6
f 143//5 139//12 144//5
f 140//12 144//5 139//12
f 145//2 146//2 147//2
f 146//2 145//2 148//2
f 149//1 150//1 151//1
f 152//1 151//1 150//1
f 153//5 154//5 155//5
f 154//5 153//5 156//5
f 157//6 158//6 159//6
f 160//6 159//6 158//6
f 161//2 162//2 163//2
f 162//2 161//2 164//2
f 165//1 166//1 167//1
f 168//1 167//1 166//1
