# SSTK version 0.8.0
# 65
mtllib original-65.mtl
o instance_61/TEHGrille/ID333#ID333
v -0.054585 -0.076920 0.030572
v -0.054585 -0.073976 0.033723
v -0.054585 -0.076920 0.039942
v -0.054585 -0.072201 0.030572
v -0.054585 -0.072201 0.033723
v -0.054585 -0.076920 0.030572
v -0.054585 -0.073976 0.033723
v -0.054585 -0.072201 0.030572
v -0.054585 -0.072201 0.033723
v -0.054585 -0.076920 0.039942
v -0.054585 -0.076920 0.039942
v -0.557959 -0.073976 0.033723
v -0.557959 -0.076920 0.039942
v -0.054585 -0.073976 0.033723
v -0.054585 -0.073976 0.033723
v -0.054585 -0.076920 0.039942
v -0.557959 -0.073976 0.033723
v -0.557959 -0.076920 0.039942
v -0.054585 -0.076920 0.030572
v -0.557959 -0.076920 0.039942
v -0.557959 -0.076920 0.030572
v -0.054585 -0.076920 0.039942
v -0.054585 -0.076920 0.039942
v -0.054585 -0.076920 0.030572
v -0.557959 -0.076920 0.039942
v -0.557959 -0.076920 0.030572
v -0.557959 -0.072201 0.030572
v -0.054585 -0.076920 0.030572
v -0.557959 -0.076920 0.030572
v -0.054585 -0.072201 0.030572
v -0.054585 -0.072201 0.030572
v -0.557959 -0.072201 0.030572
v -0.054585 -0.076920 0.030572
v -0.557959 -0.076920 0.030572
v -0.054585 -0.072201 0.033723
v -0.557959 -0.072201 0.030572
v -0.557959 -0.072201 0.033723
v -0.054585 -0.072201 0.030572
v -0.054585 -0.072201 0.030572
v -0.054585 -0.072201 0.033723
v -0.557959 -0.072201 0.030572
v -0.557959 -0.072201 0.033723
v -0.054585 -0.073976 0.033723
v -0.557959 -0.072201 0.033723
v -0.557959 -0.073976 0.033723
v -0.054585 -0.072201 0.033723
v -0.054585 -0.072201 0.033723
v -0.054585 -0.073976 0.033723
v -0.557959 -0.072201 0.033723
v -0.557959 -0.073976 0.033723
v -0.557959 -0.072201 0.030572
v -0.557959 -0.073976 0.033723
v -0.557959 -0.072201 0.033723
v -0.557959 -0.076920 0.030572
v -0.557959 -0.076920 0.039942
v -0.557959 -0.073976 0.033723
v -0.557959 -0.076920 0.039942
v -0.557959 -0.076920 0.030572
v -0.557959 -0.072201 0.030572
v -0.557959 -0.072201 0.033723
vn 1 0 0
vn -1 0 0
vn 0 0.9037927986380158 0.427970299355064
vn 0 -0.9037927986380158 -0.427970299355064
vn 0 -1 0
vn 0 1 0
vn 0 -0.000003999999999745955 -1
vn 0 0.000003999999999745955 1
vn 0 0 1
vn 0 0 -1
usemtl material_0_0
f 1//1 2//1 3//1
f 2//1 4//1 5//1
f 4//1 2//1 1//1
f 6//2 7//2 8//2
f 9//2 8//2 7//2
f 10//2 7//2 6//2
f 11//3 12//3 13//3
f 12//3 11//3 14//3
f 15//4 16//4 17//4
f 18//4 17//4 16//4
f 19//5 20//5 21//5
f 20//5 19//5 22//5
f 23//6 24//6 25//6
f 26//6 25//6 24//6
f 27//7 28//7 29//7
f 28//7 27//7 30//7
f 31//8 32//8 33//8
f 34//8 33//8 32//8
f 35//6 36//6 37//6
f 36//6 35//6 38//6
f 39//5 40//5 41//5
f 42//5 41//5 40//5
f 43//9 44//9 45//9
f 44//9 43//9 46//9
f 47//10 48//10 49//10
f 50//10 49//10 48//10
f 51//2 52//2 53//2
f 52//2 51//2 54//2
f 54//2 55//2 52//2
f 56//1 57//1 58//1
f 58//1 59//1 56//1
f 60//1 56//1 59//1
