# SSTK version 0.8.0
# 31
mtllib original-31.mtl
o instance_30/tasash/ID215#ID215
v -0.064052 0.683118 0.041795
v -0.064052 0.684147 0.040756
v -0.064052 0.764862 0.041795
v -0.064052 0.683118 0.040295
v -0.064052 0.684147 0.040170
v -0.064052 0.678793 0.032107
v -0.064052 0.680864 0.033581
v -0.064052 0.686111 0.033581
v -0.064052 0.682741 0.032732
v -0.064052 0.682741 0.031034
v -0.064052 0.678793 0.031034
v -0.064052 0.686111 0.032732
v -0.064052 0.760866 0.040756
v -0.064052 0.764862 0.037078
v -0.064052 0.760866 0.037078
v -0.064052 0.760866 0.037078
v -0.064052 0.760866 0.040756
v -0.064052 0.764862 0.037078
v -0.064052 0.684147 0.040756
v -0.064052 0.764862 0.041795
v -0.064052 0.682741 0.032732
v -0.064052 0.686111 0.033581
v -0.064052 0.686111 0.032732
v -0.064052 0.678793 0.031034
v -0.064052 0.678793 0.032107
v -0.064052 0.682741 0.031034
v -0.064052 0.680864 0.033581
v -0.064052 0.684147 0.040170
v -0.064052 0.683118 0.040295
v -0.064052 0.683118 0.041795
v -0.548537 0.764862 0.037078
v -0.064052 0.760866 0.037078
v -0.548537 0.760866 0.037078
v -0.064052 0.764862 0.037078
v -0.064052 0.764862 0.037078
v -0.548537 0.764862 0.037078
v -0.064052 0.760866 0.037078
v -0.548537 0.760866 0.037078
v -0.064052 0.764862 0.041795
v -0.548537 0.764862 0.037078
v -0.548537 0.764862 0.041795
v -0.064052 0.764862 0.037078
v -0.064052 0.764862 0.037078
v -0.064052 0.764862 0.041795
v -0.548537 0.764862 0.037078
v -0.548537 0.764862 0.041795
v -0.064052 0.764862 0.041795
v -0.548537 0.683118 0.041795
v -0.064052 0.683118 0.041795
v -0.548537 0.764862 0.041795
v -0.548537 0.764862 0.041795
v -0.064052 0.764862 0.041795
v -0.548537 0.683118 0.041795
v -0.064052 0.683118 0.041795
v -0.064052 0.683118 0.040295
v -0.548537 0.683118 0.041795
v -0.548537 0.683118 0.040295
v -0.064052 0.683118 0.041795
v -0.064052 0.683118 0.041795
v -0.064052 0.683118 0.040295
v -0.548537 0.683118 0.041795
v -0.548537 0.683118 0.040295
v -0.064052 0.678793 0.032107
v -0.548537 0.678793 0.032107
v -0.064052 0.678793 0.032107
v -0.548537 0.678793 0.032107
v -0.064052 0.678793 0.031034
v -0.548537 0.678793 0.031034
v -0.064052 0.678793 0.031034
v -0.548537 0.678793 0.031034
v -0.548537 0.682741 0.031034
v -0.064052 0.678793 0.031034
v -0.548537 0.678793 0.031034
v -0.064052 0.682741 0.031034
v -0.064052 0.682741 0.031034
v -0.548537 0.682741 0.031034
v -0.064052 0.678793 0.031034
v -0.548537 0.678793 0.031034
v -0.064052 0.682741 0.032732
v -0.548537 0.682741 0.031034
v -0.548537 0.682741 0.032732
v -0.064052 0.682741 0.031034
v -0.064052 0.682741 0.031034
v -0.064052 0.682741 0.032732
v -0.548537 0.682741 0.031034
v -0.548537 0.682741 0.032732
v -0.548537 0.686111 0.032732
v -0.064052 0.682741 0.032732
v -0.548537 0.682741 0.032732
v -0.064052 0.686111 0.032732
v -0.064052 0.686111 0.032732
v -0.548537 0.686111 0.032732
v -0.064052 0.682741 0.032732
v -0.548537 0.682741 0.032732
v -0.064052 0.686111 0.033581
v -0.548537 0.686111 0.032732
v -0.548537 0.686111 0.033581
v -0.064052 0.686111 0.032732
v -0.064052 0.686111 0.032732
v -0.064052 0.686111 0.033581
v -0.548537 0.686111 0.032732
v -0.548537 0.686111 0.033581
v -0.064052 0.686111 0.033581
v -0.548537 0.680864 0.033581
v -0.064052 0.680864 0.033581
v -0.548537 0.686111 0.033581
v -0.548537 0.686111 0.033581
v -0.064052 0.686111 0.033581
v -0.548537 0.680864 0.033581
v -0.064052 0.680864 0.033581
v -0.064052 0.684147 0.040170
v -0.548537 0.680864 0.033581
v -0.548537 0.684147 0.040170
v -0.064052 0.680864 0.033581
v -0.064052 0.680864 0.033581
v -0.064052 0.684147 0.040170
v -0.548537 0.680864 0.033581
v -0.548537 0.684147 0.040170
v -0.064052 0.684147 0.040756
v -0.548537 0.684147 0.040756
v -0.064052 0.684147 0.040756
v -0.548537 0.684147 0.040756
v -0.548537 0.760866 0.040756
v -0.064052 0.684147 0.040756
v -0.548537 0.684147 0.040756
v -0.064052 0.760866 0.040756
v -0.064052 0.760866 0.040756
v -0.548537 0.760866 0.040756
v -0.064052 0.684147 0.040756
v -0.548537 0.684147 0.040756
v -0.064052 0.760866 0.037078
v -0.548537 0.760866 0.040756
v -0.548537 0.760866 0.037078
v -0.064052 0.760866 0.040756
v -0.064052 0.760866 0.040756
v -0.064052 0.760866 0.037078
v -0.548537 0.760866 0.040756
v -0.548537 0.760866 0.037078
v -0.548537 0.764862 0.041795
v -0.548537 0.760866 0.040756
v -0.548537 0.683118 0.041795
v -0.548537 0.764862 0.037078
v -0.548537 0.760866 0.037078
v -0.548537 0.686111 0.032732
v -0.548537 0.680864 0.033581
v -0.548537 0.686111 0.033581
v -0.548537 0.684147 0.040756
v -0.548537 0.683118 0.040295
v -0.548537 0.684147 0.040170
v -0.548537 0.678793 0.032107
v -0.548537 0.682741 0.032732
v -0.548537 0.682741 0.031034
v -0.548537 0.678793 0.031034
v -0.548537 0.678793 0.031034
v -0.548537 0.682741 0.031034
v -0.548537 0.678793 0.032107
v -0.548537 0.682741 0.032732
v -0.548537 0.686111 0.032732
v -0.548537 0.680864 0.033581
v -0.548537 0.684147 0.040170
v -0.548537 0.683118 0.040295
v -0.548537 0.684147 0.040756
v -0.548537 0.760866 0.040756
v -0.548537 0.683118 0.041795
v -0.548537 0.686111 0.033581
v -0.548537 0.760866 0.037078
v -0.548537 0.764862 0.037078
v -0.548537 0.764862 0.041795
vn 1 0 0
vn -1 0 0
vn 0 0 -1
vn 0 0 1
vn 0 1 0
vn 0 -1 0
vn 0 -0.970619030165137 0.24062148341594344
vn 0 0.970619030165137 -0.24062148341594344
vn 0 0.9734130657434305 -0.2290567690333029
vn 0 0.8950659539036209 -0.44593378226212177
vn 0 -0.8950659539036209 0.44593378226212177
vn 0 -0.9734130657434305 0.2290567690333029
usemtl material_0_0
f 1//1 2//1 3//1
f 2//1 1//1 4//1
f 2//1 4//1 5//1
f 5//1 4//1 6//1
f 5//1 6//1 7//1
f 7//1 6//1 8//1
f 8//1 6//1 9//1
f 9//1 6//1 10//1
f 10//1 6//1 11//1
f 12//1 8//1 9//1
f 3//1 13//1 14//1
f 13//1 3//1 2//1
f 14//1 13//1 15//1
f 16//2 17//2 18//2
f 19//2 20//2 17//2
f 18//2 17//2 20//2
f 21//2 22//2 23//2
f 24//2 25//2 26//2
f 26//2 25//2 21//2
f 21//2 25//2 22//2
f 22//2 25//2 27//2
f 27//2 25//2 28//2
f 25//2 29//2 28//2
f 28//2 29//2 19//2
f 29//2 30//2 19//2
f 20//2 19//2 30//2
f 31//3 32//3 33//3
f 32//3 31//3 34//3
f 35//4 36//4 37//4
f 38//4 37//4 36//4
f 39//5 40//5 41//5
f 40//5 39//5 42//5
f 43//6 44//6 45//6
f 46//6 45//6 44//6
f 47//4 48//4 49//4
f 48//4 47//4 50//4
f 51//3 52//3 53//3
f 54//3 53//3 52//3
f 55//7 56//6 57//7
f 56//6 55//7 58//6
f 59//5 60//8 61//5
f 62//8 61//5 60//8
f 63//7 57//7 64//7
f 57//7 63//7 55//7
f 60//8 65//8 62//8
f 66//8 62//8 65//8
f 67//6 64//7 68//6
f 64//7 67//6 63//7
f 65//8 69//5 66//8
f 70//5 66//8 69//5
f 71//3 72//3 73//3
f 72//3 71//3 74//3
f 75//4 76//4 77//4
f 78//4 77//4 76//4
f 79//5 80//5 81//5
f 80//5 79//5 82//5
f 83//6 84//6 85//6
f 86//6 85//6 84//6
f 87//3 88//3 89//3
f 88//3 87//3 90//3
f 91//4 92//4 93//4
f 94//4 93//4 92//4
f 95//5 96//5 97//5
f 96//5 95//5 98//5
f 99//6 100//6 101//6
f 102//6 101//6 100//6
f 103//4 104//4 105//4
f 104//4 103//4 106//4
f 107//3 108//3 109//3
f 110//3 109//3 108//3
f 111//9 112//10 113//9
f 112//10 111//9 114//10
f 115//11 116//12 117//11
f 118//12 117//11 116//12
f 119//5 113//9 120//5
f 113//9 119//5 111//9
f 116//12 121//6 118//12
f 122//6 118//12 121//6
f 123//3 124//3 125//3
f 124//3 123//3 126//3
f 127//4 128//4 129//4
f 130//4 129//4 128//4
f 131//6 132//6 133//6
f 132//6 131//6 134//6
f 135//5 136//5 137//5
f 138//5 137//5 136//5
f 139//2 140//2 141//2
f 140//2 139//2 142//2
f 140//2 142//2 143//2
f 144//2 145//2 146//2
f 141//2 147//2 148//2
f 147//2 141//2 140//2
f 148//2 147//2 149//2
f 148//2 149//2 150//2
f 150//2 149//2 145//2
f 150//2 145//2 151//2
f 151//2 145//2 144//2
f 150//2 151//2 152//2
f 150//2 152//2 153//2
f 154//1 155//1 156//1
f 155//1 157//1 156//1
f 158//1 159//1 157//1
f 157//1 159//1 156//1
f 159//1 160//1 156//1
f 156//1 160//1 161//1
f 160//1 162//1 161//1
f 163//1 164//1 162//1
f 161//1 162//1 164//1
f 165//1 159//1 158//1
f 166//1 167//1 163//1
f 167//1 168//1 163//1
f 164//1 163//1 168//1
