# SSTK version 0.8.0
# 97
mtllib original-97.mtl
o instance_86/aendcover_3/ID477#ID477
v 0.023747 0.764919 0.001361
v 0.022916 -0.739067 0.003076
v 0.022916 0.764919 0.003076
v 0.023747 -0.739067 0.001361
v 0.023747 -0.739067 0.001361
v 0.023747 0.764919 0.001361
v 0.022916 -0.739067 0.003076
v 0.022916 0.764919 0.003076
v 0.023954 0.764919 0.042635
v 0.019708 0.764919 0.041786
v 0.019708 0.764919 0.042635
v 0.022916 0.764919 0.041786
v 0.022916 0.764919 0.003076
v 0.023747 0.764919 0.001361
v 0.023747 0.764919 -0.003059
v 0.023954 0.764919 0.002247
v 0.029368 0.764919 -0.003059
v 0.029368 0.764919 -0.000649
v 0.029368 0.764919 -0.000649
v 0.023954 0.764919 0.002247
v 0.029368 0.764919 -0.003059
v 0.023747 0.764919 -0.003059
v 0.023954 0.764919 0.042635
v 0.023747 0.764919 0.001361
v 0.022916 0.764919 0.003076
v 0.022916 0.764919 0.041786
v 0.019708 0.764919 0.041786
v 0.019708 0.764919 0.042635
v 0.023747 0.764919 -0.003059
v 0.023747 -0.739067 -0.003059
v 0.023747 -0.739067 -0.003059
v 0.023747 0.764919 -0.003059
v 0.023747 -0.739067 0.001361
v 0.022916 -0.739067 0.041786
v 0.022916 -0.739067 0.003076
v 0.029368 -0.739067 -0.003059
v 0.023747 -0.739067 -0.003059
v 0.023954 -0.739067 0.002247
v 0.029368 -0.739067 -0.000649
v 0.019708 -0.739067 0.042635
v 0.019708 -0.739067 0.041786
v 0.023954 -0.739067 0.042635
v 0.023954 -0.739067 0.002247
v 0.023747 -0.739067 0.001361
v 0.023954 -0.739067 0.042635
v 0.022916 -0.739067 0.041786
v 0.019708 -0.739067 0.042635
v 0.019708 -0.739067 0.041786
v 0.029368 -0.739067 -0.000649
v 0.029368 -0.739067 -0.003059
v 0.023747 -0.739067 -0.003059
v 0.022916 -0.739067 0.003076
v 0.022916 -0.739067 0.041786
v 0.022916 0.764919 0.041786
v 0.022916 -0.739067 0.041786
v 0.022916 0.764919 0.041786
v 0.019708 0.764919 0.041786
v 0.019708 -0.739067 0.042635
v 0.019708 0.764919 0.042635
v 0.019708 -0.739067 0.041786
v 0.019708 -0.739067 0.041786
v 0.019708 0.764919 0.041786
v 0.019708 -0.739067 0.042635
v 0.019708 0.764919 0.042635
v 0.023954 0.764919 0.042635
v 0.019708 -0.739067 0.042635
v 0.023954 -0.739067 0.042635
v 0.019708 0.764919 0.042635
v 0.019708 0.764919 0.042635
v 0.023954 0.764919 0.042635
v 0.019708 -0.739067 0.042635
v 0.023954 -0.739067 0.042635
v 0.023954 -0.739067 0.002247
v 0.023954 0.764919 0.042635
v 0.023954 -0.739067 0.042635
v 0.023954 0.764919 0.002247
v 0.023954 0.764919 0.002247
v 0.023954 -0.739067 0.002247
v 0.023954 0.764919 0.042635
v 0.023954 -0.739067 0.042635
v 0.029368 0.764919 -0.000649
v 0.023954 -0.739067 0.002247
v 0.029368 -0.739067 -0.000649
v 0.023954 0.764919 0.002247
v 0.023954 0.764919 0.002247
v 0.029368 0.764919 -0.000649
v 0.023954 -0.739067 0.002247
v 0.029368 -0.739067 -0.000649
v 0.029368 -0.739067 -0.003059
v 0.029368 0.764919 -0.000649
v 0.029368 -0.739067 -0.000649
v 0.029368 0.764919 -0.003059
v 0.029368 0.764919 -0.003059
v 0.029368 -0.739067 -0.003059
v 0.029368 0.764919 -0.000649
v 0.029368 -0.739067 -0.000649
v 0.023747 0.764919 -0.003059
v 0.029368 -0.739067 -0.003059
v 0.023747 -0.739067 -0.003059
v 0.029368 0.764919 -0.003059
v 0.029368 0.764919 -0.003059
v 0.023747 0.764919 -0.003059
v 0.029368 -0.739067 -0.003059
v 0.023747 -0.739067 -0.003059
v 0.019708 0.764919 0.041786
v 0.022916 -0.739067 0.041786
v 0.019708 -0.739067 0.041786
v 0.022916 0.764919 0.041786
v 0.022916 0.764919 0.041786
v 0.019708 0.764919 0.041786
v 0.022916 -0.739067 0.041786
v 0.019708 -0.739067 0.041786
vn -0.9746662169349232 0 -0.22366440388619144
vn 0.9746662169349232 0 0.22366440388619144
vn 0 1 0
vn 0 -1 0
vn -1 0 0
vn 1 0 0
vn 0 0 1
vn 0 0 -1
vn 0.47177972468326823 0 0.8817164461309428
vn -0.47177972468326823 0 -0.8817164461309428
usemtl material_0_0
f 1//1 2//1 3//1
f 2//1 1//1 4//1
f 5//2 6//2 7//2
f 8//2 7//2 6//2
f 9//3 10//3 11//3
f 10//3 9//3 12//3
f 12//3 9//3 13//3
f 13//3 9//3 14//3
f 14//3 9//3 15//3
f 15//3 9//3 16//3
f 15//3 16//3 17//3
f 17//3 16//3 18//3
f 19//4 20//4 21//4
f 21//4 20//4 22//4
f 20//4 23//4 22//4
f 22//4 23//4 24//4
f 24//4 23//4 25//4
f 25//4 23//4 26//4
f 26//4 23//4 27//4
f 28//4 27//4 23//4
f 29//5 4//1 1//1
f 4//1 29//5 30//5
f 31//6 32//6 5//2
f 6//2 5//2 32//6
f 33//4 34//4 35//4
f 36//4 33//4 37//4
f 33//4 36//4 38//4
f 38//4 36//4 39//4
f 34//4 40//4 41//4
f 40//4 34//4 42//4
f 42//4 34//4 33//4
f 42//4 33//4 38//4
f 43//3 44//3 45//3
f 44//3 46//3 45//3
f 45//3 46//3 47//3
f 48//3 47//3 46//3
f 49//3 50//3 43//3
f 43//3 50//3 44//3
f 51//3 44//3 50//3
f 52//3 46//3 44//3
f 3//1 53//5 54//5
f 53//5 3//1 2//1
f 7//2 8//2 55//6
f 56//6 55//6 8//2
f 57//5 58//5 59//5
f 58//5 57//5 60//5
f 61//6 62//6 63//6
f 64//6 63//6 62//6
f 65//7 66//7 67//7
f 66//7 65//7 68//7
f 69//8 70//8 71//8
f 72//8 71//8 70//8
f 73//6 74//6 75//6
f 74//6 73//6 76//6
f 77//5 78//5 79//5
f 80//5 79//5 78//5
f 81//9 82//9 83//9
f 82//9 81//9 84//9
f 85//10 86//10 87//10
f 88//10 87//10 86//10
f 89//6 90//6 91//6
f 90//6 89//6 92//6
f 93//5 94//5 95//5
f 96//5 95//5 94//5
f 97//8 98//8 99//8
f 98//8 97//8 100//8
f 101//7 102//7 103//7
f 104//7 103//7 102//7
f 105//8 106//8 107//8
f 106//8 105//8 108//8
f 109//7 110//7 111//7
f 112//7 111//7 110//7
