# SSTK version 0.8.0
# 26
mtllib original-26.mtl
o instance_25/trasash/ID175#ID175
v -0.061981 0.678793 0.033581
v -0.058698 0.684147 0.040170
v -0.058698 0.678793 0.040170
v -0.061981 0.680864 0.033581
v -0.061981 0.680864 0.033581
v -0.061981 0.678793 0.033581
v -0.058698 0.684147 0.040170
v -0.058698 0.678793 0.040170
v -0.060105 0.678793 0.031034
v -0.064052 0.678793 0.032107
v -0.064052 0.678793 0.031034
v -0.061981 0.678793 0.033581
v -0.060105 0.678793 0.032732
v -0.056734 0.678793 0.033581
v -0.056734 0.678793 0.032732
v -0.059727 0.678793 0.040295
v -0.058698 0.678793 0.040170
v 0.022017 0.678793 0.037078
v 0.018020 0.678793 0.040756
v 0.018020 0.678793 0.037078
v -0.059727 0.678793 0.041795
v -0.058698 0.678793 0.040756
v 0.022017 0.678793 0.041795
v 0.022017 0.678793 0.037078
v 0.018020 0.678793 0.040756
v 0.022017 0.678793 0.041795
v -0.058698 0.678793 0.040756
v -0.058698 0.678793 0.040170
v -0.059727 0.678793 0.040295
v -0.059727 0.678793 0.041795
v 0.018020 0.678793 0.037078
v -0.061981 0.678793 0.033581
v -0.064052 0.678793 0.032107
v -0.056734 0.678793 0.032732
v -0.060105 0.678793 0.032732
v -0.056734 0.678793 0.033581
v -0.060105 0.678793 0.031034
v -0.064052 0.678793 0.031034
v -0.056734 0.686111 0.033581
v -0.061981 0.678793 0.033581
v -0.056734 0.678793 0.033581
v -0.061981 0.680864 0.033581
v -0.064052 0.680864 0.033581
v -0.064052 0.686111 0.033581
v -0.064052 0.686111 0.033581
v -0.056734 0.686111 0.033581
v -0.064052 0.680864 0.033581
v -0.061981 0.680864 0.033581
v -0.061981 0.678793 0.033581
v -0.056734 0.678793 0.033581
v -0.058698 0.684147 0.040170
v -0.064052 0.680864 0.033581
v -0.064052 0.684147 0.040170
v -0.061981 0.680864 0.033581
v -0.061981 0.680864 0.033581
v -0.058698 0.684147 0.040170
v -0.064052 0.680864 0.033581
v -0.064052 0.684147 0.040170
v -0.058698 0.684147 0.040756
v -0.058698 0.678793 0.040756
v -0.058698 0.684147 0.040756
v -0.058698 0.678793 0.040756
v 0.022017 0.678793 0.037078
v 0.022017 0.764862 0.041795
v 0.022017 0.678793 0.041795
v 0.022017 0.764862 0.037078
v 0.022017 0.764862 0.037078
v 0.022017 0.678793 0.037078
v 0.022017 0.764862 0.041795
v 0.022017 0.678793 0.041795
v 0.022017 0.764862 0.041795
v -0.059727 0.678793 0.041795
v 0.022017 0.678793 0.041795
v -0.059727 0.683118 0.041795
v -0.064052 0.683118 0.041795
v -0.064052 0.764862 0.041795
v -0.064052 0.764862 0.041795
v 0.022017 0.764862 0.041795
v -0.064052 0.683118 0.041795
v -0.059727 0.683118 0.041795
v -0.059727 0.678793 0.041795
v 0.022017 0.678793 0.041795
v -0.059727 0.683118 0.040295
v -0.059727 0.678793 0.041795
v -0.059727 0.683118 0.041795
v -0.059727 0.678793 0.040295
v -0.059727 0.678793 0.040295
v -0.059727 0.683118 0.040295
v -0.059727 0.678793 0.041795
v -0.059727 0.683118 0.041795
v -0.064052 0.678793 0.032107
v -0.064052 0.678793 0.032107
v -0.064052 0.764862 0.041795
v -0.064052 0.760866 0.040756
v -0.064052 0.683118 0.041795
v -0.064052 0.764862 0.037078
v -0.064052 0.760866 0.037078
v -0.064052 0.686111 0.032732
v -0.064052 0.680864 0.033581
v -0.064052 0.686111 0.033581
v -0.064052 0.684147 0.040756
v -0.064052 0.683118 0.040295
v -0.064052 0.684147 0.040170
v -0.064052 0.678793 0.032107
v -0.064052 0.682741 0.032732
v -0.064052 0.682741 0.031034
v -0.064052 0.678793 0.031034
v -0.064052 0.678793 0.031034
v -0.064052 0.682741 0.031034
v -0.064052 0.678793 0.032107
v -0.064052 0.682741 0.032732
v -0.064052 0.686111 0.032732
v -0.064052 0.680864 0.033581
v -0.064052 0.684147 0.040170
v -0.064052 0.683118 0.040295
v -0.064052 0.684147 0.040756
v -0.064052 0.760866 0.040756
v -0.064052 0.683118 0.041795
v -0.064052 0.686111 0.033581
v -0.064052 0.760866 0.037078
v -0.064052 0.764862 0.037078
v -0.064052 0.764862 0.041795
v -0.064052 0.682741 0.031034
v -0.060105 0.678793 0.031034
v -0.064052 0.678793 0.031034
v -0.060105 0.682741 0.031034
v -0.060105 0.682741 0.031034
v -0.064052 0.682741 0.031034
v -0.060105 0.678793 0.031034
v -0.064052 0.678793 0.031034
v -0.060105 0.678793 0.031034
v -0.060105 0.682741 0.032732
v -0.060105 0.678793 0.032732
v -0.060105 0.682741 0.031034
v -0.060105 0.682741 0.031034
v -0.060105 0.678793 0.031034
v -0.060105 0.682741 0.032732
v -0.060105 0.678793 0.032732
v -0.064052 0.686111 0.032732
v -0.060105 0.682741 0.032732
v -0.064052 0.682741 0.032732
v -0.056734 0.678793 0.032732
v -0.060105 0.678793 0.032732
v -0.056734 0.686111 0.032732
v -0.064052 0.686111 0.032732
v -0.060105 0.682741 0.032732
v -0.056734 0.686111 0.032732
v -0.056734 0.678793 0.032732
v -0.060105 0.678793 0.032732
v -0.064052 0.682741 0.032732
v -0.056734 0.678793 0.032732
v -0.056734 0.686111 0.033581
v -0.056734 0.678793 0.033581
v -0.056734 0.686111 0.032732
v -0.056734 0.686111 0.032732
v -0.056734 0.678793 0.032732
v -0.056734 0.686111 0.033581
v -0.056734 0.678793 0.033581
v -0.064052 0.760866 0.040756
v -0.058698 0.684147 0.040756
v -0.064052 0.684147 0.040756
v 0.018020 0.678793 0.040756
v -0.058698 0.678793 0.040756
v 0.018020 0.760866 0.040756
v -0.064052 0.760866 0.040756
v -0.058698 0.684147 0.040756
v 0.018020 0.760866 0.040756
v 0.018020 0.678793 0.040756
v -0.058698 0.678793 0.040756
v -0.064052 0.684147 0.040756
v 0.018020 0.760866 0.037078
v 0.018020 0.678793 0.040756
v 0.018020 0.760866 0.040756
v 0.018020 0.678793 0.037078
v 0.018020 0.678793 0.037078
v 0.018020 0.760866 0.037078
v 0.018020 0.678793 0.040756
v 0.018020 0.760866 0.040756
v -0.064052 0.764862 0.037078
v 0.018020 0.760866 0.037078
v -0.064052 0.760866 0.037078
v 0.022017 0.678793 0.037078
v 0.018020 0.678793 0.037078
v 0.022017 0.764862 0.037078
v -0.064052 0.764862 0.037078
v 0.018020 0.760866 0.037078
v 0.022017 0.764862 0.037078
v 0.022017 0.678793 0.037078
v 0.018020 0.678793 0.037078
v -0.064052 0.760866 0.037078
v -0.056734 0.686111 0.033581
v -0.064052 0.686111 0.032732
v -0.064052 0.686111 0.033581
v -0.056734 0.686111 0.032732
v -0.056734 0.686111 0.032732
v -0.056734 0.686111 0.033581
v -0.064052 0.686111 0.032732
v -0.064052 0.686111 0.033581
v -0.058698 0.684147 0.040756
v -0.064052 0.684147 0.040756
v -0.058698 0.684147 0.040756
v -0.064052 0.684147 0.040756
v 0.022017 0.764862 0.041795
v -0.064052 0.764862 0.037078
v -0.064052 0.764862 0.041795
v 0.022017 0.764862 0.037078
v 0.022017 0.764862 0.037078
v 0.022017 0.764862 0.041795
v -0.064052 0.764862 0.037078
v -0.064052 0.764862 0.041795
v -0.059727 0.683118 0.040295
v -0.064052 0.683118 0.041795
v -0.064052 0.683118 0.040295
v -0.059727 0.683118 0.041795
v -0.059727 0.683118 0.041795
v -0.059727 0.683118 0.040295
v -0.064052 0.683118 0.041795
v -0.064052 0.683118 0.040295
v -0.064052 0.678793 0.032107
v -0.064052 0.678793 0.032107
v 0.018020 0.760866 0.037078
v -0.064052 0.760866 0.040756
v -0.064052 0.760866 0.037078
v 0.018020 0.760866 0.040756
v 0.018020 0.760866 0.040756
v 0.018020 0.760866 0.037078
v -0.064052 0.760866 0.040756
v -0.064052 0.760866 0.037078
v -0.060105 0.682741 0.032732
v -0.064052 0.682741 0.031034
v -0.064052 0.682741 0.032732
v -0.060105 0.682741 0.031034
v -0.060105 0.682741 0.031034
v -0.060105 0.682741 0.032732
v -0.064052 0.682741 0.031034
v -0.064052 0.682741 0.032732
vn 0.895065936104611 0 -0.4459338179878
vn 0.981074052272407 0 -0.19363291031691568
vn 0.9734130606362231 0 -0.22905679073718982
vn -0.895065936104611 0 0.4459338179878
vn -0.981074052272407 0 0.19363291031691568
vn -0.9734130606362231 0 0.22905679073718982
vn 0 -1 0
vn 0 1 0
vn 0 0 1
vn 0 0 -1
vn 0 0.981074052272407 -0.19363291031691546
vn 0 0.8950659361046112 -0.4459338179877998
vn 0 0.9734130606362231 -0.2290567907371896
vn 0 -0.8950659361046112 0.4459338179877998
vn 0 -0.981074052272407 0.19363291031691546
vn 0 -0.9734130606362231 0.2290567907371896
vn 1 0 0
vn -1 0 0
vn -0.9794715612147292 0 0.20158239201770833
vn -0.9706190245453781 0 0.2406215060849269
vn 0.9706190245453781 0 -0.2406215060849269
vn 0.9794715612147292 0 -0.20158239201770833
vn -0.8842025538444289 0 0.46710367561708366
vn 0.8842025538444289 0 -0.46710367561708366
vn 0 -0.9794715612147292 0.2015823920177081
vn 0 -0.9706190245453783 0.24062150608492675
vn 0 0.9794715612147292 -0.2015823920177081
vn 0 0.9706190245453783 -0.24062150608492675
vn 0 -0.8842025538444293 0.46710367561708355
vn 0 0.8842025538444293 -0.46710367561708355
usemtl material_0_0
f 1//1 2//2 3//3
f 2//2 1//1 4//1
f 5//4 6//4 7//5
f 8//6 7//5 6//4
f 9//7 10//7 11//7
f 10//7 9//7 12//7
f 12//7 9//7 13//7
f 12//7 13//7 14//7
f 14//7 13//7 15//7
f 12//7 16//7 10//7
f 16//7 12//7 17//7
f 18//7 19//7 20//7
f 21//7 22//7 23//7
f 22//7 21//7 16//7
f 22//7 16//7 17//7
f 23//7 22//7 19//7
f 23//7 19//7 18//7
f 24//8 25//8 26//8
f 25//8 27//8 26//8
f 28//8 29//8 27//8
f 29//8 30//8 27//8
f 26//8 27//8 30//8
f 31//8 25//8 24//8
f 28//8 32//8 29//8
f 33//8 29//8 32//8
f 34//8 35//8 36//8
f 36//8 35//8 32//8
f 35//8 37//8 32//8
f 32//8 37//8 33//8
f 38//8 33//8 37//8
f 39//9 40//9 41//9
f 40//9 39//9 42//9
f 42//9 39//9 43//9
f 43//9 39//9 44//9
f 45//10 46//10 47//10
f 47//10 46//10 48//10
f 48//10 46//10 49//10
f 50//10 49//10 46//10
f 51//11 52//12 53//13
f 52//12 51//11 54//12
f 55//14 56//15 57//14
f 58//16 57//14 56//15
f 3//3 59//17 60//17
f 59//17 3//3 2//2
f 7//5 8//6 61//18
f 62//18 61//18 8//6
f 63//17 64//17 65//17
f 64//17 63//17 66//17
f 67//18 68//18 69//18
f 70//18 69//18 68//18
f 71//9 72//9 73//9
f 72//9 71//9 74//9
f 74//9 71//9 75//9
f 75//9 71//9 76//9
f 77//10 78//10 79//10
f 79//10 78//10 80//10
f 80//10 78//10 81//10
f 82//10 81//10 78//10
f 83//19 84//18 85//18
f 84//18 83//19 86//20
f 87//21 88//22 89//17
f 90//17 89//17 88//22
f 91//23 86//20 83//19
f 88//22 87//21 92//24
f 93//18 94//18 95//18
f 94//18 93//18 96//18
f 94//18 96//18 97//18
f 98//18 99//18 100//18
f 95//18 101//18 102//18
f 101//18 95//18 94//18
f 102//18 101//18 103//18
f 102//18 103//18 104//18
f 104//18 103//18 99//18
f 104//18 99//18 105//18
f 105//18 99//18 98//18
f 104//18 105//18 106//18
f 104//18 106//18 107//18
f 108//17 109//17 110//17
f 109//17 111//17 110//17
f 112//17 113//17 111//17
f 111//17 113//17 110//17
f 113//17 114//17 110//17
f 110//17 114//17 115//17
f 114//17 116//17 115//17
f 117//17 118//17 116//17
f 115//17 116//17 118//17
f 119//17 113//17 112//17
f 120//17 121//17 117//17
f 121//17 122//17 117//17
f 118//17 117//17 122//17
f 123//10 124//10 125//10
f 124//10 123//10 126//10
f 127//9 128//9 129//9
f 130//9 129//9 128//9
f 131//17 132//17 133//17
f 132//17 131//17 134//17
f 135//18 136//18 137//18
f 138//18 137//18 136//18
f 139//10 140//10 141//10
f 140//10 142//10 143//10
f 142//10 140//10 144//10
f 144//10 140//10 139//10
f 145//9 146//9 147//9
f 147//9 146//9 148//9
f 149//9 148//9 146//9
f 150//9 146//9 145//9
f 151//17 152//17 153//17
f 152//17 151//17 154//17
f 155//18 156//18 157//18
f 158//18 157//18 156//18
f 159//10 160//10 161//10
f 160//10 162//10 163//10
f 162//10 160//10 164//10
f 164//10 160//10 159//10
f 165//9 166//9 167//9
f 167//9 166//9 168//9
f 169//9 168//9 166//9
f 170//9 166//9 165//9
f 171//18 172//18 173//18
f 172//18 171//18 174//18
f 175//17 176//17 177//17
f 178//17 177//17 176//17
f 179//10 180//10 181//10
f 180//10 182//10 183//10
f 182//10 180//10 184//10
f 184//10 180//10 179//10
f 185//9 186//9 187//9
f 187//9 186//9 188//9
f 189//9 188//9 186//9
f 190//9 186//9 185//9
f 191//8 192//8 193//8
f 192//8 191//8 194//8
f 195//7 196//7 197//7
f 198//7 197//7 196//7
f 199//8 53//13 200//8
f 53//13 199//8 51//11
f 56//15 201//7 58//16
f 202//7 58//16 201//7
f 203//8 204//8 205//8
f 204//8 203//8 206//8
f 207//7 208//7 209//7
f 210//7 209//7 208//7
f 211//25 212//7 213//26
f 212//7 211//25 214//7
f 215//8 216//27 217//8
f 218//28 217//8 216//27
f 211//25 213//26 219//29
f 220//30 218//28 216//27
f 221//7 222//7 223//7
f 222//7 221//7 224//7
f 225//8 226//8 227//8
f 228//8 227//8 226//8
f 229//8 230//8 231//8
f 230//8 229//8 232//8
f 233//7 234//7 235//7
f 236//7 235//7 234//7
