# SSTK version 0.8.0
# 25
mtllib original-25.mtl
o instance_24/brasash/ID167#ID167
v -0.064052 -0.735071 0.037078
v 0.022017 -0.739067 0.037078
v -0.064052 -0.739067 0.037078
v 0.018020 -0.735071 0.037078
v 0.022017 -0.585629 0.037078
v 0.018020 -0.585629 0.037078
v 0.018020 -0.585629 0.037078
v 0.018020 -0.735071 0.037078
v 0.022017 -0.585629 0.037078
v 0.022017 -0.739067 0.037078
v -0.064052 -0.735071 0.037078
v -0.064052 -0.739067 0.037078
v 0.022017 -0.739067 0.037078
v 0.022017 -0.585629 0.041795
v 0.022017 -0.739067 0.041795
v 0.022017 -0.585629 0.037078
v 0.022017 -0.585629 0.037078
v 0.022017 -0.739067 0.037078
v 0.022017 -0.585629 0.041795
v 0.022017 -0.739067 0.041795
v 0.022017 -0.739067 0.037078
v -0.064052 -0.739067 0.041795
v -0.064052 -0.739067 0.037078
v 0.022017 -0.739067 0.041795
v 0.022017 -0.739067 0.041795
v 0.022017 -0.739067 0.037078
v -0.064052 -0.739067 0.041795
v -0.064052 -0.739067 0.037078
v -0.064052 -0.589955 0.041795
v -0.064052 -0.590983 0.040756
v -0.064052 -0.739067 0.041795
v -0.064052 -0.589955 0.040295
v -0.064052 -0.590983 0.040170
v -0.064052 -0.585629 0.032107
v -0.064052 -0.587701 0.033581
v -0.064052 -0.592948 0.033581
v -0.064052 -0.589577 0.032732
v -0.064052 -0.589577 0.031034
v -0.064052 -0.585629 0.031034
v -0.064052 -0.592948 0.032732
v -0.064052 -0.735071 0.040756
v -0.064052 -0.739067 0.037078
v -0.064052 -0.735071 0.037078
v -0.064052 -0.735071 0.037078
v -0.064052 -0.735071 0.040756
v -0.064052 -0.739067 0.037078
v -0.064052 -0.590983 0.040756
v -0.064052 -0.739067 0.041795
v -0.064052 -0.589577 0.032732
v -0.064052 -0.592948 0.033581
v -0.064052 -0.592948 0.032732
v -0.064052 -0.585629 0.031034
v -0.064052 -0.585629 0.032107
v -0.064052 -0.589577 0.031034
v -0.064052 -0.587701 0.033581
v -0.064052 -0.590983 0.040170
v -0.064052 -0.589955 0.040295
v -0.064052 -0.589955 0.041795
v 0.018020 -0.735071 0.040756
v -0.064052 -0.735071 0.037078
v -0.064052 -0.735071 0.040756
v 0.018020 -0.735071 0.037078
v 0.018020 -0.735071 0.037078
v 0.018020 -0.735071 0.040756
v -0.064052 -0.735071 0.037078
v -0.064052 -0.735071 0.040756
v 0.018020 -0.585629 0.037078
v 0.018020 -0.735071 0.040756
v 0.018020 -0.585629 0.040756
v 0.018020 -0.735071 0.037078
v 0.018020 -0.735071 0.037078
v 0.018020 -0.585629 0.037078
v 0.018020 -0.735071 0.040756
v 0.018020 -0.585629 0.040756
v -0.059727 -0.585629 0.041795
v -0.058698 -0.585629 0.040756
v -0.059727 -0.585629 0.040295
v 0.022017 -0.585629 0.041795
v 0.018020 -0.585629 0.040756
v 0.018020 -0.585629 0.037078
v 0.022017 -0.585629 0.037078
v -0.064052 -0.585629 0.031034
v -0.064052 -0.585629 0.032107
v -0.061981 -0.585629 0.033581
v -0.058698 -0.585629 0.040170
v -0.056734 -0.585629 0.033581
v -0.060105 -0.585629 0.032732
v -0.056734 -0.585629 0.032732
v -0.060105 -0.585629 0.031034
v -0.060105 -0.585629 0.032732
v -0.061981 -0.585629 0.033581
v -0.060105 -0.585629 0.031034
v -0.064052 -0.585629 0.031034
v -0.056734 -0.585629 0.032732
v -0.056734 -0.585629 0.033581
v -0.058698 -0.585629 0.040756
v -0.059727 -0.585629 0.040295
v -0.058698 -0.585629 0.040170
v -0.064052 -0.585629 0.032107
v 0.022017 -0.585629 0.037078
v 0.022017 -0.585629 0.041795
v 0.018020 -0.585629 0.037078
v 0.018020 -0.585629 0.040756
v -0.059727 -0.585629 0.041795
v 0.022017 -0.585629 0.041795
v -0.064052 -0.739067 0.041795
v 0.022017 -0.739067 0.041795
v -0.059727 -0.589955 0.041795
v -0.059727 -0.585629 0.041795
v -0.064052 -0.589955 0.041795
v -0.059727 -0.589955 0.041795
v -0.064052 -0.739067 0.041795
v -0.064052 -0.589955 0.041795
v -0.059727 -0.585629 0.041795
v 0.022017 -0.585629 0.041795
v 0.022017 -0.739067 0.041795
v -0.061981 -0.587701 0.033581
v -0.064052 -0.590983 0.040170
v -0.064052 -0.587701 0.033581
v -0.058698 -0.590983 0.040170
v -0.058698 -0.590983 0.040170
v -0.061981 -0.587701 0.033581
v -0.064052 -0.590983 0.040170
v -0.064052 -0.587701 0.033581
v -0.064052 -0.590983 0.040756
v -0.058698 -0.590983 0.040756
v -0.058698 -0.590983 0.040756
v -0.064052 -0.590983 0.040756
v -0.064052 -0.590983 0.040756
v 0.018020 -0.735071 0.040756
v -0.064052 -0.735071 0.040756
v -0.058698 -0.590983 0.040756
v 0.018020 -0.585629 0.040756
v -0.058698 -0.585629 0.040756
v -0.058698 -0.585629 0.040756
v -0.058698 -0.590983 0.040756
v 0.018020 -0.585629 0.040756
v 0.018020 -0.735071 0.040756
v -0.064052 -0.590983 0.040756
v -0.064052 -0.735071 0.040756
v -0.059727 -0.589955 0.041795
v -0.064052 -0.589955 0.040295
v -0.064052 -0.589955 0.041795
v -0.059727 -0.589955 0.040295
v -0.059727 -0.589955 0.040295
v -0.059727 -0.589955 0.041795
v -0.064052 -0.589955 0.040295
v -0.064052 -0.589955 0.041795
v -0.064052 -0.585629 0.032107
v -0.064052 -0.585629 0.032107
v -0.064052 -0.585629 0.031034
v -0.060105 -0.589577 0.031034
v -0.064052 -0.589577 0.031034
v -0.060105 -0.585629 0.031034
v -0.060105 -0.585629 0.031034
v -0.064052 -0.585629 0.031034
v -0.060105 -0.589577 0.031034
v -0.064052 -0.589577 0.031034
v -0.060105 -0.589577 0.031034
v -0.064052 -0.589577 0.032732
v -0.064052 -0.589577 0.031034
v -0.060105 -0.589577 0.032732
v -0.060105 -0.589577 0.032732
v -0.060105 -0.589577 0.031034
v -0.064052 -0.589577 0.032732
v -0.064052 -0.589577 0.031034
v -0.064052 -0.589577 0.032732
v -0.056734 -0.592948 0.032732
v -0.064052 -0.592948 0.032732
v -0.060105 -0.589577 0.032732
v -0.056734 -0.585629 0.032732
v -0.060105 -0.585629 0.032732
v -0.060105 -0.585629 0.032732
v -0.060105 -0.589577 0.032732
v -0.056734 -0.585629 0.032732
v -0.056734 -0.592948 0.032732
v -0.064052 -0.589577 0.032732
v -0.064052 -0.592948 0.032732
v -0.056734 -0.592948 0.032732
v -0.064052 -0.592948 0.033581
v -0.064052 -0.592948 0.032732
v -0.056734 -0.592948 0.033581
v -0.056734 -0.592948 0.033581
v -0.056734 -0.592948 0.032732
v -0.064052 -0.592948 0.033581
v -0.064052 -0.592948 0.032732
v -0.056734 -0.585629 0.033581
v -0.064052 -0.592948 0.033581
v -0.056734 -0.592948 0.033581
v -0.061981 -0.587701 0.033581
v -0.061981 -0.585629 0.033581
v -0.064052 -0.587701 0.033581
v -0.061981 -0.587701 0.033581
v -0.064052 -0.592948 0.033581
v -0.064052 -0.587701 0.033581
v -0.061981 -0.585629 0.033581
v -0.056734 -0.585629 0.033581
v -0.056734 -0.592948 0.033581
v -0.058698 -0.590983 0.040170
v -0.058698 -0.585629 0.040756
v -0.058698 -0.590983 0.040756
v -0.058698 -0.585629 0.040170
v -0.058698 -0.585629 0.040170
v -0.058698 -0.590983 0.040170
v -0.058698 -0.585629 0.040756
v -0.058698 -0.590983 0.040756
v -0.061981 -0.587701 0.033581
v -0.061981 -0.585629 0.033581
v -0.061981 -0.585629 0.033581
v -0.061981 -0.587701 0.033581
v -0.056734 -0.592948 0.032732
v -0.056734 -0.585629 0.033581
v -0.056734 -0.592948 0.033581
v -0.056734 -0.585629 0.032732
v -0.056734 -0.585629 0.032732
v -0.056734 -0.592948 0.032732
v -0.056734 -0.585629 0.033581
v -0.056734 -0.592948 0.033581
v -0.060105 -0.589577 0.031034
v -0.060105 -0.585629 0.032732
v -0.060105 -0.589577 0.032732
v -0.060105 -0.585629 0.031034
v -0.060105 -0.585629 0.031034
v -0.060105 -0.589577 0.031034
v -0.060105 -0.585629 0.032732
v -0.060105 -0.589577 0.032732
v -0.064052 -0.585629 0.032107
v -0.059727 -0.589955 0.040295
v -0.059727 -0.585629 0.040295
v -0.059727 -0.585629 0.040295
v -0.059727 -0.589955 0.040295
v -0.064052 -0.585629 0.032107
v -0.059727 -0.589955 0.041795
v -0.059727 -0.585629 0.041795
v -0.059727 -0.589955 0.041795
v -0.059727 -0.585629 0.041795
vn 0 0 -1
vn 0 0 1
vn 1 0 0
vn -1 0 0
vn 0 -1 0
vn 0 1 0
vn 0 -0.8950659361046109 -0.44593381798780024
vn 0 -0.9734130606362231 -0.22905679073719004
vn 0 -0.981074052272407 -0.1936329103169159
vn 0 0.981074052272407 0.1936329103169159
vn 0 0.8950659361046109 0.44593381798780024
vn 0 0.9734130606362231 0.22905679073719004
vn 0 0.9706190245453781 0.24062150608492713
vn 0 0.9794715612147292 0.20158239201770856
vn 0 -0.9794715612147292 -0.20158239201770856
vn 0 -0.9706190245453781 -0.24062150608492713
vn 0 0.8842025538444288 0.4671036756170839
vn 0 -0.8842025538444288 -0.4671036756170839
vn 0.981074052272407 0 -0.19363291031691568
vn 0.9734130606362231 0 -0.22905679073718982
vn -0.9734130606362231 0 0.22905679073718982
vn -0.981074052272407 0 0.19363291031691568
vn 0.895065936104611 0 -0.4459338179878
vn -0.895065936104611 0 0.4459338179878
vn -0.8842025538444289 0 0.46710367561708366
vn -0.9794715612147292 0 0.20158239201770833
vn -0.9706190245453781 0 0.2406215060849269
vn 0.9706190245453781 0 -0.2406215060849269
vn 0.9794715612147292 0 -0.20158239201770833
vn 0.8842025538444289 0 -0.46710367561708366
usemtl material_0_0
f 1//1 2//1 3//1
f 2//1 1//1 4//1
f 2//1 4//1 5//1
f 5//1 4//1 6//1
f 7//2 8//2 9//2
f 9//2 8//2 10//2
f 8//2 11//2 10//2
f 12//2 10//2 11//2
f 13//3 14//3 15//3
f 14//3 13//3 16//3
f 17//4 18//4 19//4
f 20//4 19//4 18//4
f 21//5 22//5 23//5
f 22//5 21//5 24//5
f 25//6 26//6 27//6
f 28//6 27//6 26//6
f 29//4 30//4 31//4
f 30//4 29//4 32//4
f 30//4 32//4 33//4
f 33//4 32//4 34//4
f 33//4 34//4 35//4
f 35//4 34//4 36//4
f 36//4 34//4 37//4
f 37//4 34//4 38//4
f 38//4 34//4 39//4
f 40//4 36//4 37//4
f 31//4 41//4 42//4
f 41//4 31//4 30//4
f 42//4 41//4 43//4
f 44//3 45//3 46//3
f 47//3 48//3 45//3
f 46//3 45//3 48//3
f 49//3 50//3 51//3
f 52//3 53//3 54//3
f 54//3 53//3 49//3
f 49//3 53//3 50//3
f 50//3 53//3 55//3
f 55//3 53//3 56//3
f 53//3 57//3 56//3
f 56//3 57//3 47//3
f 57//3 58//3 47//3
f 48//3 47//3 58//3
f 59//6 60//6 61//6
f 60//6 59//6 62//6
f 63//5 64//5 65//5
f 66//5 65//5 64//5
f 67//4 68//4 69//4
f 68//4 67//4 70//4
f 71//3 72//3 73//3
f 74//3 73//3 72//3
f 75//6 76//6 77//6
f 76//6 75//6 78//6
f 76//6 78//6 79//6
f 79//6 78//6 80//6
f 80//6 78//6 81//6
f 77//6 82//6 83//6
f 82//6 77//6 84//6
f 84//6 77//6 85//6
f 85//6 77//6 76//6
f 86//6 87//6 84//6
f 87//6 86//6 88//6
f 84//6 89//6 82//6
f 89//6 84//6 87//6
f 90//5 91//5 92//5
f 93//5 92//5 91//5
f 94//5 95//5 90//5
f 91//5 90//5 95//5
f 96//5 97//5 98//5
f 98//5 97//5 91//5
f 91//5 97//5 93//5
f 99//5 93//5 97//5
f 100//5 101//5 102//5
f 102//5 101//5 103//5
f 103//5 101//5 96//5
f 101//5 104//5 96//5
f 97//5 96//5 104//5
f 105//2 106//2 107//2
f 106//2 105//2 108//2
f 108//2 105//2 109//2
f 110//2 106//2 108//2
f 111//1 112//1 113//1
f 114//1 115//1 111//1
f 111//1 115//1 112//1
f 116//1 112//1 115//1
f 117//7 118//8 119//7
f 118//8 117//7 120//9
f 121//10 122//11 123//12
f 124//11 123//12 122//11
f 120//9 125//5 118//8
f 125//5 120//9 126//5
f 127//6 121//10 128//6
f 123//12 128//6 121//10
f 129//1 130//1 131//1
f 130//1 129//1 132//1
f 130//1 132//1 133//1
f 133//1 132//1 134//1
f 135//2 136//2 137//2
f 137//2 136//2 138//2
f 136//2 139//2 138//2
f 140//2 138//2 139//2
f 141//6 142//13 143//6
f 142//13 141//6 144//14
f 145//15 146//5 147//16
f 148//5 147//16 146//5
f 144//14 149//17 142//13
f 147//16 150//18 145//15
f 151//1 152//1 153//1
f 152//1 151//1 154//1
f 155//2 156//2 157//2
f 158//2 157//2 156//2
f 159//5 160//5 161//5
f 160//5 159//5 162//5
f 163//6 164//6 165//6
f 166//6 165//6 164//6
f 167//1 168//1 169//1
f 168//1 167//1 170//1
f 168//1 170//1 171//1
f 171//1 170//1 172//1
f 173//2 174//2 175//2
f 175//2 174//2 176//2
f 174//2 177//2 176//2
f 178//2 176//2 177//2
f 179//5 180//5 181//5
f 180//5 179//5 182//5
f 183//6 184//6 185//6
f 186//6 185//6 184//6
f 187//2 188//2 189//2
f 188//2 187//2 190//2
f 190//2 187//2 191//2
f 192//2 188//2 190//2
f 193//1 194//1 195//1
f 196//1 197//1 193//1
f 193//1 197//1 194//1
f 198//1 194//1 197//1
f 199//19 200//3 201//3
f 200//3 199//19 202//20
f 203//21 204//22 205//4
f 206//4 205//4 204//22
f 207//23 202//20 199//19
f 202//20 207//23 208//23
f 209//24 210//24 203//21
f 204//22 203//21 210//24
f 211//3 212//3 213//3
f 212//3 211//3 214//3
f 215//4 216//4 217//4
f 218//4 217//4 216//4
f 219//3 220//3 221//3
f 220//3 219//3 222//3
f 223//4 224//4 225//4
f 226//4 225//4 224//4
f 227//25 228//26 229//27
f 230//28 231//29 232//30
f 229//27 233//4 234//4
f 233//4 229//27 228//26
f 231//29 230//28 235//3
f 236//3 235//3 230//28
