# SSTK version 0.8.0
# 150
mtllib original-150.mtl
o instance_103/twsash_2/ID273#ID273
v 0.080768 0.758982 -0.018294
v 0.080768 0.683525 -0.011990
v 0.080768 0.758982 -0.011990
v 0.080768 0.691593 -0.015580
v 0.080768 0.691593 -0.034887
v 0.080768 0.764924 -0.046818
v 0.080768 0.764924 -0.018294
v 0.080768 0.678794 -0.034887
v 0.080768 0.680762 -0.036623
v 0.080768 0.683702 -0.043309
v 0.080768 0.691593 -0.044930
v 0.080768 0.691593 -0.046818
v 0.080768 0.683702 -0.044930
v 0.080768 0.678794 -0.036623
v 0.080768 0.683525 -0.015580
v 0.080768 0.691593 -0.015580
v 0.080768 0.683525 -0.011990
v 0.080768 0.683525 -0.015580
v 0.080768 0.680762 -0.036623
v 0.080768 0.678794 -0.034887
v 0.080768 0.678794 -0.036623
v 0.080768 0.691593 -0.044930
v 0.080768 0.683702 -0.043309
v 0.080768 0.683702 -0.044930
v 0.080768 0.691593 -0.046818
v 0.080768 0.764924 -0.046818
v 0.080768 0.691593 -0.034887
v 0.080768 0.758982 -0.018294
v 0.080768 0.764924 -0.018294
v 0.080768 0.758982 -0.011990
v 0.565224 0.691593 -0.046818
v 0.080768 0.691593 -0.044930
v 0.080768 0.691593 -0.046818
v 0.565224 0.691593 -0.044930
v 0.565224 0.691593 -0.044930
v 0.565224 0.691593 -0.046818
v 0.080768 0.691593 -0.044930
v 0.080768 0.691593 -0.046818
v 0.080768 0.691593 -0.044930
v 0.565224 0.683702 -0.044930
v 0.080768 0.683702 -0.044930
v 0.565224 0.691593 -0.044930
v 0.565224 0.691593 -0.044930
v 0.080768 0.691593 -0.044930
v 0.565224 0.683702 -0.044930
v 0.080768 0.683702 -0.044930
v 0.565224 0.683702 -0.044930
v 0.080768 0.683702 -0.043309
v 0.080768 0.683702 -0.044930
v 0.565224 0.683702 -0.043309
v 0.565224 0.683702 -0.043309
v 0.565224 0.683702 -0.044930
v 0.080768 0.683702 -0.043309
v 0.080768 0.683702 -0.044930
v 0.080768 0.680762 -0.036623
v 0.565224 0.680762 -0.036623
v 0.565224 0.680762 -0.036623
v 0.080768 0.680762 -0.036623
v 0.080768 0.680762 -0.036623
v 0.565224 0.678794 -0.036623
v 0.080768 0.678794 -0.036623
v 0.565224 0.680762 -0.036623
v 0.565224 0.680762 -0.036623
v 0.080768 0.680762 -0.036623
v 0.565224 0.678794 -0.036623
v 0.080768 0.678794 -0.036623
v 0.565224 0.678794 -0.036623
v 0.080768 0.678794 -0.034887
v 0.080768 0.678794 -0.036623
v 0.565224 0.678794 -0.034887
v 0.565224 0.678794 -0.034887
v 0.565224 0.678794 -0.036623
v 0.080768 0.678794 -0.034887
v 0.080768 0.678794 -0.036623
v 0.565224 0.691593 -0.034887
v 0.080768 0.678794 -0.034887
v 0.565224 0.678794 -0.034887
v 0.080768 0.691593 -0.034887
v 0.080768 0.691593 -0.034887
v 0.565224 0.691593 -0.034887
v 0.080768 0.678794 -0.034887
v 0.565224 0.678794 -0.034887
v 0.565224 0.691593 -0.034887
v 0.080768 0.691593 -0.015580
v 0.080768 0.691593 -0.034887
v 0.565224 0.691593 -0.015580
v 0.565224 0.691593 -0.015580
v 0.565224 0.691593 -0.034887
v 0.080768 0.691593 -0.015580
v 0.080768 0.691593 -0.034887
v 0.080768 0.691593 -0.015580
v 0.565224 0.683525 -0.015580
v 0.080768 0.683525 -0.015580
v 0.565224 0.691593 -0.015580
v 0.565224 0.691593 -0.015580
v 0.080768 0.691593 -0.015580
v 0.565224 0.683525 -0.015580
v 0.080768 0.683525 -0.015580
v 0.565224 0.683525 -0.015580
v 0.080768 0.683525 -0.011990
v 0.080768 0.683525 -0.015580
v 0.565224 0.683525 -0.011990
v 0.565224 0.683525 -0.011990
v 0.565224 0.683525 -0.015580
v 0.080768 0.683525 -0.011990
v 0.080768 0.683525 -0.015580
v 0.565224 0.758982 -0.011990
v 0.080768 0.683525 -0.011990
v 0.565224 0.683525 -0.011990
v 0.080768 0.758982 -0.011990
v 0.080768 0.758982 -0.011990
v 0.565224 0.758982 -0.011990
v 0.080768 0.683525 -0.011990
v 0.565224 0.683525 -0.011990
v 0.565224 0.758982 -0.011990
v 0.080768 0.758982 -0.018294
v 0.080768 0.758982 -0.011990
v 0.565224 0.758982 -0.018294
v 0.565224 0.758982 -0.018294
v 0.565224 0.758982 -0.011990
v 0.080768 0.758982 -0.018294
v 0.080768 0.758982 -0.011990
v 0.565224 0.764924 -0.018294
v 0.080768 0.758982 -0.018294
v 0.565224 0.758982 -0.018294
v 0.080768 0.764924 -0.018294
v 0.080768 0.764924 -0.018294
v 0.565224 0.764924 -0.018294
v 0.080768 0.758982 -0.018294
v 0.565224 0.758982 -0.018294
v 0.565224 0.764924 -0.018294
v 0.080768 0.764924 -0.046818
v 0.080768 0.764924 -0.018294
v 0.565224 0.764924 -0.046818
v 0.565224 0.764924 -0.046818
v 0.565224 0.764924 -0.018294
v 0.080768 0.764924 -0.046818
v 0.080768 0.764924 -0.018294
v 0.080768 0.764924 -0.046818
v 0.565224 0.691593 -0.046818
v 0.080768 0.691593 -0.046818
v 0.565224 0.764924 -0.046818
v 0.565224 0.764924 -0.046818
v 0.080768 0.764924 -0.046818
v 0.565224 0.691593 -0.046818
v 0.080768 0.691593 -0.046818
v 0.565224 0.678794 -0.036623
v 0.565224 0.691593 -0.034887
v 0.565224 0.678794 -0.034887
v 0.565224 0.683525 -0.015580
v 0.565224 0.758982 -0.011990
v 0.565224 0.683525 -0.011990
v 0.565224 0.691593 -0.015580
v 0.565224 0.758982 -0.018294
v 0.565224 0.764924 -0.018294
v 0.565224 0.764924 -0.046818
v 0.565224 0.680762 -0.036623
v 0.565224 0.683702 -0.043309
v 0.565224 0.691593 -0.044930
v 0.565224 0.683702 -0.044930
v 0.565224 0.691593 -0.046818
v 0.565224 0.691593 -0.046818
v 0.565224 0.691593 -0.044930
v 0.565224 0.764924 -0.046818
v 0.565224 0.683702 -0.044930
v 0.565224 0.683702 -0.043309
v 0.565224 0.680762 -0.036623
v 0.565224 0.678794 -0.036623
v 0.565224 0.691593 -0.034887
v 0.565224 0.764924 -0.018294
v 0.565224 0.758982 -0.018294
v 0.565224 0.691593 -0.015580
v 0.565224 0.758982 -0.011990
v 0.565224 0.683525 -0.015580
v 0.565224 0.683525 -0.011990
v 0.565224 0.678794 -0.034887
vn -1 0 0
vn 1 0 0
vn 0 -1 0
vn 0 1 0
vn 0 0 -1
vn 0 0 1
vn 0 -0.9786220282661349 -0.20566702650711008
vn 0 0.9786220282661349 0.20566702650711008
vn 0 -0.9154021659869199 -0.40254052529708795
vn 0 0.9154021659869199 0.40254052529708795
usemtl material_0_0
f 1//1 2//1 3//1
f 2//1 1//1 4//1
f 4//1 1//1 5//1
f 6//1 1//1 7//1
f 1//1 6//1 5//1
f 5//1 6//1 8//1
f 8//1 6//1 9//1
f 9//1 6//1 10//1
f 10//1 6//1 11//1
f 11//1 6//1 12//1
f 13//1 10//1 11//1
f 14//1 8//1 9//1
f 15//1 2//1 4//1
f 16//2 17//2 18//2
f 19//2 20//2 21//2
f 22//2 23//2 24//2
f 25//2 26//2 22//2
f 22//2 26//2 23//2
f 23//2 26//2 19//2
f 19//2 26//2 20//2
f 20//2 26//2 27//2
f 27//2 26//2 28//2
f 29//2 28//2 26//2
f 27//2 28//2 16//2
f 16//2 28//2 17//2
f 30//2 17//2 28//2
f 31//3 32//3 33//3
f 32//3 31//3 34//3
f 35//4 36//4 37//4
f 38//4 37//4 36//4
f 39//5 40//5 41//5
f 40//5 39//5 42//5
f 43//6 44//6 45//6
f 46//6 45//6 44//6
f 47//3 48//7 49//3
f 48//7 47//3 50//7
f 51//8 52//4 53//8
f 54//4 53//8 52//4
f 50//7 55//9 48//7
f 55//9 50//7 56//9
f 57//10 51//8 58//10
f 53//8 58//10 51//8
f 59//5 60//5 61//5
f 60//5 59//5 62//5
f 63//6 64//6 65//6
f 66//6 65//6 64//6
f 67//3 68//3 69//3
f 68//3 67//3 70//3
f 71//4 72//4 73//4
f 74//4 73//4 72//4
f 75//6 76//6 77//6
f 76//6 75//6 78//6
f 79//5 80//5 81//5
f 82//5 81//5 80//5
f 83//3 84//3 85//3
f 84//3 83//3 86//3
f 87//4 88//4 89//4
f 90//4 89//4 88//4
f 91//5 92//5 93//5
f 92//5 91//5 94//5
f 95//6 96//6 97//6
f 98//6 97//6 96//6
f 99//3 100//3 101//3
f 100//3 99//3 102//3
f 103//4 104//4 105//4
f 106//4 105//4 104//4
f 107//6 108//6 109//6
f 108//6 107//6 110//6
f 111//5 112//5 113//5
f 114//5 113//5 112//5
f 115//4 116//4 117//4
f 116//4 115//4 118//4
f 119//3 120//3 121//3
f 122//3 121//3 120//3
f 123//6 124//6 125//6
f 124//6 123//6 126//6
f 127//5 128//5 129//5
f 130//5 129//5 128//5
f 131//4 132//4 133//4
f 132//4 131//4 134//4
f 135//3 136//3 137//3
f 138//3 137//3 136//3
f 139//5 140//5 141//5
f 140//5 139//5 142//5
f 143//6 144//6 145//6
f 146//6 145//6 144//6
f 147//2 148//2 149//2
f 150//2 151//2 152//2
f 151//2 150//2 153//2
f 151//2 153//2 154//2
f 154//2 153//2 148//2
f 154//2 148//2 155//2
f 155//2 148//2 156//2
f 156//2 148//2 157//2
f 157//2 148//2 147//2
f 156//2 157//2 158//2
f 156//2 158//2 159//2
f 159//2 158//2 160//2
f 156//2 159//2 161//2
f 162//1 163//1 164//1
f 165//1 166//1 163//1
f 163//1 166//1 164//1
f 166//1 167//1 164//1
f 168//1 169//1 167//1
f 167//1 169//1 164//1
f 164//1 169//1 170//1
f 170//1 169//1 171//1
f 169//1 172//1 171//1
f 171//1 172//1 173//1
f 172//1 174//1 173//1
f 175//1 173//1 174//1
f 176//1 169//1 168//1
