# SSTK version 0.8.0
# 18
mtllib original-18.mtl
o instance_17/twframe_2/ID123#ID123
v -0.651224 0.780567 -0.065363
v -0.651224 0.766994 -0.043391
v -0.651224 0.780567 -0.008182
v -0.651224 0.766994 -0.046789
v -0.651224 0.764521 -0.046789
v -0.651224 0.764521 -0.050678
v -0.651224 0.756970 -0.050678
v -0.651224 0.756970 -0.065363
v -0.651224 0.778811 -0.006427
v -0.651224 0.768448 0.030196
v -0.651224 0.778811 0.030196
v -0.651224 0.768448 -0.002842
v -0.651224 0.762633 -0.002842
v -0.651224 0.762633 -0.043391
v -0.651224 0.766994 -0.043391
v -0.651224 0.780567 -0.008182
v -0.651224 0.762633 -0.043391
v -0.651224 0.778811 -0.006427
v -0.651224 0.762633 -0.002842
v -0.651224 0.768448 -0.002842
v -0.651224 0.768448 0.030196
v -0.651224 0.778811 0.030196
v -0.651224 0.756970 -0.065363
v -0.651224 0.780567 -0.065363
v -0.651224 0.756970 -0.050678
v -0.651224 0.764521 -0.050678
v -0.651224 0.764521 -0.046789
v -0.651224 0.766994 -0.046789
v 0.646617 0.766994 -0.046789
v -0.651224 0.764521 -0.046789
v 0.646617 0.764521 -0.046789
v -0.651224 0.766994 -0.046789
v -0.651224 0.766994 -0.046789
v 0.646617 0.766994 -0.046789
v -0.651224 0.764521 -0.046789
v 0.646617 0.764521 -0.046789
v 0.646617 0.766994 -0.046789
v -0.651224 0.766994 -0.043391
v -0.651224 0.766994 -0.046789
v 0.646617 0.766994 -0.043391
v 0.646617 0.766994 -0.043391
v 0.646617 0.766994 -0.046789
v -0.651224 0.766994 -0.043391
v -0.651224 0.766994 -0.046789
v -0.651224 0.766994 -0.043391
v 0.646617 0.762633 -0.043391
v -0.651224 0.762633 -0.043391
v 0.646617 0.766994 -0.043391
v 0.646617 0.766994 -0.043391
v -0.651224 0.766994 -0.043391
v 0.646617 0.762633 -0.043391
v -0.651224 0.762633 -0.043391
v 0.646617 0.762633 -0.043391
v -0.651224 0.762633 -0.002842
v -0.651224 0.762633 -0.043391
v 0.646617 0.762633 -0.002842
v 0.646617 0.762633 -0.002842
v 0.646617 0.762633 -0.043391
v -0.651224 0.762633 -0.002842
v -0.651224 0.762633 -0.043391
v 0.646617 0.768448 -0.002842
v -0.651224 0.762633 -0.002842
v 0.646617 0.762633 -0.002842
v -0.651224 0.768448 -0.002842
v -0.651224 0.768448 -0.002842
v 0.646617 0.768448 -0.002842
v -0.651224 0.762633 -0.002842
v 0.646617 0.762633 -0.002842
v 0.646617 0.768448 -0.002842
v -0.651224 0.768448 0.030196
v -0.651224 0.768448 -0.002842
v 0.646617 0.768448 0.030196
v 0.646617 0.768448 0.030196
v 0.646617 0.768448 -0.002842
v -0.651224 0.768448 0.030196
v -0.651224 0.768448 -0.002842
v 0.646617 0.778811 0.030196
v -0.651224 0.768448 0.030196
v 0.646617 0.768448 0.030196
v -0.651224 0.778811 0.030196
v -0.651224 0.778811 0.030196
v 0.646617 0.778811 0.030196
v -0.651224 0.768448 0.030196
v 0.646617 0.768448 0.030196
v 0.646617 0.778811 0.030196
v -0.651224 0.778811 -0.006427
v -0.651224 0.778811 0.030196
v 0.646617 0.778811 -0.006427
v 0.646617 0.778811 -0.006427
v 0.646617 0.778811 0.030196
v -0.651224 0.778811 -0.006427
v -0.651224 0.778811 0.030196
v 0.646617 0.780567 -0.008182
v -0.651224 0.780567 -0.008182
v -0.651224 0.780567 -0.008182
v 0.646617 0.780567 -0.008182
v -0.651224 0.780567 -0.065363
v 0.646617 0.780567 -0.065363
v 0.646617 0.780567 -0.065363
v -0.651224 0.780567 -0.065363
v -0.651224 0.780567 -0.065363
v 0.646617 0.756970 -0.065363
v -0.651224 0.756970 -0.065363
v 0.646617 0.780567 -0.065363
v 0.646617 0.780567 -0.065363
v -0.651224 0.780567 -0.065363
v 0.646617 0.756970 -0.065363
v -0.651224 0.756970 -0.065363
v 0.646617 0.756970 -0.065363
v -0.651224 0.756970 -0.050678
v -0.651224 0.756970 -0.065363
v 0.646617 0.756970 -0.050678
v 0.646617 0.756970 -0.050678
v 0.646617 0.756970 -0.065363
v -0.651224 0.756970 -0.050678
v -0.651224 0.756970 -0.065363
v 0.646617 0.764521 -0.050678
v -0.651224 0.756970 -0.050678
v 0.646617 0.756970 -0.050678
v -0.651224 0.764521 -0.050678
v -0.651224 0.764521 -0.050678
v 0.646617 0.764521 -0.050678
v -0.651224 0.756970 -0.050678
v 0.646617 0.756970 -0.050678
v 0.646617 0.764521 -0.050678
v -0.651224 0.764521 -0.046789
v -0.651224 0.764521 -0.050678
v 0.646617 0.764521 -0.046789
v 0.646617 0.764521 -0.046789
v 0.646617 0.764521 -0.050678
v -0.651224 0.764521 -0.046789
v -0.651224 0.764521 -0.050678
v 0.646617 0.764521 -0.050678
v 0.646617 0.766994 -0.046789
v 0.646617 0.764521 -0.046789
v 0.646617 0.756970 -0.065363
v 0.646617 0.756970 -0.050678
v 0.646617 0.762633 -0.043391
v 0.646617 0.768448 -0.002842
v 0.646617 0.762633 -0.002842
v 0.646617 0.778811 -0.006427
v 0.646617 0.780567 -0.008182
v 0.646617 0.766994 -0.043391
v 0.646617 0.780567 -0.065363
v 0.646617 0.778811 0.030196
v 0.646617 0.768448 0.030196
v 0.646617 0.778811 -0.006427
v 0.646617 0.768448 -0.002842
v 0.646617 0.778811 0.030196
v 0.646617 0.768448 0.030196
v 0.646617 0.756970 -0.065363
v 0.646617 0.764521 -0.050678
v 0.646617 0.780567 -0.065363
v 0.646617 0.766994 -0.046789
v 0.646617 0.766994 -0.043391
v 0.646617 0.780567 -0.008182
v 0.646617 0.762633 -0.043391
v 0.646617 0.762633 -0.002842
v 0.646617 0.756970 -0.050678
v 0.646617 0.764521 -0.046789
vn -1 0 0
vn 1 0 0
vn 0 0 1
vn 0 0 -1
vn 0 -1 0
vn 0 1 0
vn 0 0.9238795391929064 0.38268341623423285
vn 0 -0.9238795391929064 -0.38268341623423285
usemtl material_0_0
f 1//1 2//1 3//1
f 2//1 1//1 4//1
f 4//1 1//1 5//1
f 5//1 1//1 6//1
f 6//1 1//1 7//1
f 7//1 1//1 8//1
f 9//1 10//1 11//1
f 10//1 9//1 12//1
f 12//1 9//1 13//1
f 13//1 9//1 14//1
f 14//1 9//1 3//1
f 14//1 3//1 2//1
f 15//2 16//2 17//2
f 16//2 18//2 17//2
f 17//2 18//2 19//2
f 19//2 18//2 20//2
f 20//2 18//2 21//2
f 22//2 21//2 18//2
f 23//2 24//2 25//2
f 25//2 24//2 26//2
f 26//2 24//2 27//2
f 27//2 24//2 28//2
f 28//2 24//2 15//2
f 16//2 15//2 24//2
f 29//3 30//3 31//3
f 30//3 29//3 32//3
f 33//4 34//4 35//4
f 36//4 35//4 34//4
f 37//5 38//5 39//5
f 38//5 37//5 40//5
f 41//6 42//6 43//6
f 44//6 43//6 42//6
f 45//4 46//4 47//4
f 46//4 45//4 48//4
f 49//3 50//3 51//3
f 52//3 51//3 50//3
f 53//5 54//5 55//5
f 54//5 53//5 56//5
f 57//6 58//6 59//6
f 60//6 59//6 58//6
f 61//3 62//3 63//3
f 62//3 61//3 64//3
f 65//4 66//4 67//4
f 68//4 67//4 66//4
f 69//5 70//5 71//5
f 70//5 69//5 72//5
f 73//6 74//6 75//6
f 76//6 75//6 74//6
f 77//3 78//3 79//3
f 78//3 77//3 80//3
f 81//4 82//4 83//4
f 84//4 83//4 82//4
f 85//6 86//7 87//6
f 86//7 85//6 88//7
f 89//8 90//5 91//8
f 92//5 91//8 90//5
f 93//7 86//7 88//7
f 86//7 93//7 94//7
f 95//8 96//8 91//8
f 89//8 91//8 96//8
f 93//7 97//6 94//7
f 97//6 93//7 98//6
f 99//5 96//8 100//5
f 95//8 100//5 96//8
f 101//4 102//4 103//4
f 102//4 101//4 104//4
f 105//3 106//3 107//3
f 108//3 107//3 106//3
f 109//5 110//5 111//5
f 110//5 109//5 112//5
f 113//6 114//6 115//6
f 116//6 115//6 114//6
f 117//3 118//3 119//3
f 118//3 117//3 120//3
f 121//4 122//4 123//4
f 124//4 123//4 122//4
f 125//5 126//5 127//5
f 126//5 125//5 128//5
f 129//6 130//6 131//6
f 132//6 131//6 130//6
f 133//2 134//2 135//2
f 136//2 133//2 137//2
f 138//2 139//2 140//2
f 139//2 138//2 141//2
f 141//2 138//2 142//2
f 142//2 138//2 143//2
f 142//2 143//2 144//2
f 144//2 143//2 134//2
f 144//2 134//2 133//2
f 144//2 133//2 136//2
f 139//2 145//2 146//2
f 145//2 139//2 141//2
f 147//1 148//1 149//1
f 150//1 149//1 148//1
f 151//1 152//1 153//1
f 152//1 154//1 153//1
f 154//1 155//1 153//1
f 153//1 155//1 156//1
f 155//1 157//1 156//1
f 156//1 157//1 147//1
f 147//1 157//1 148//1
f 158//1 148//1 157//1
f 159//1 152//1 151//1
f 160//1 154//1 152//1
