# SSTK version 0.8.0
# 17
mtllib original-17.mtl
o instance_16/bwframe_2/ID115#ID115
v -0.651224 -0.740116 -0.035145
v -0.651224 -0.743984 -0.014965
v -0.651224 -0.740116 -0.014965
v -0.651224 -0.739067 -0.046789
v -0.651224 -0.739067 -0.035145
v -0.651224 -0.739067 -0.065363
v -0.651224 -0.753246 -0.060463
v -0.651224 -0.739067 -0.050678
v -0.651224 -0.753246 -0.065363
v -0.651224 -0.743984 -0.007075
v -0.651224 -0.750122 -0.003871
v -0.651224 -0.747980 -0.003871
v -0.651224 -0.755984 -0.009732
v -0.651224 -0.755984 -0.011724
v -0.651224 -0.757965 -0.011724
v -0.651224 -0.757965 -0.060463
v -0.651224 -0.750297 -0.046789
v -0.651224 -0.750297 -0.050678
v -0.651224 -0.753246 -0.060463
v -0.651224 -0.739067 -0.050678
v -0.651224 -0.757965 -0.060463
v -0.651224 -0.750297 -0.050678
v -0.651224 -0.750297 -0.046789
v -0.651224 -0.739067 -0.046789
v -0.651224 -0.740116 -0.035145
v -0.651224 -0.743984 -0.014965
v -0.651224 -0.757965 -0.011724
v -0.651224 -0.755984 -0.011724
v -0.651224 -0.755984 -0.009732
v -0.651224 -0.743984 -0.007075
v -0.651224 -0.750122 -0.003871
v -0.651224 -0.747980 -0.003871
v -0.651224 -0.753246 -0.065363
v -0.651224 -0.739067 -0.065363
v -0.651224 -0.739067 -0.035145
v -0.651224 -0.740116 -0.014965
v 0.646617 -0.757965 -0.060463
v -0.651224 -0.757965 -0.011724
v -0.651224 -0.757965 -0.060463
v 0.646617 -0.757965 -0.011724
v 0.646617 -0.757965 -0.011724
v 0.646617 -0.757965 -0.060463
v -0.651224 -0.757965 -0.011724
v -0.651224 -0.757965 -0.060463
v 0.646617 -0.755984 -0.011724
v -0.651224 -0.757965 -0.011724
v 0.646617 -0.757965 -0.011724
v -0.651224 -0.755984 -0.011724
v -0.651224 -0.755984 -0.011724
v 0.646617 -0.755984 -0.011724
v -0.651224 -0.757965 -0.011724
v 0.646617 -0.757965 -0.011724
v 0.646617 -0.755984 -0.011724
v -0.651224 -0.755984 -0.009732
v -0.651224 -0.755984 -0.011724
v 0.646617 -0.755984 -0.009732
v 0.646617 -0.755984 -0.009732
v 0.646617 -0.755984 -0.011724
v -0.651224 -0.755984 -0.009732
v -0.651224 -0.755984 -0.011724
v 0.646617 -0.750122 -0.003871
v -0.651224 -0.750122 -0.003871
v -0.651224 -0.750122 -0.003871
v 0.646617 -0.750122 -0.003871
v 0.646617 -0.747980 -0.003871
v -0.651224 -0.747980 -0.003871
v -0.651224 -0.747980 -0.003871
v 0.646617 -0.747980 -0.003871
v 0.646617 -0.743984 -0.007075
v -0.651224 -0.743984 -0.007075
v -0.651224 -0.743984 -0.007075
v 0.646617 -0.743984 -0.007075
v 0.646617 -0.743984 -0.007075
v -0.651224 -0.743984 -0.014965
v -0.651224 -0.743984 -0.007075
v 0.646617 -0.743984 -0.014965
v 0.646617 -0.743984 -0.014965
v 0.646617 -0.743984 -0.007075
v -0.651224 -0.743984 -0.014965
v -0.651224 -0.743984 -0.007075
v 0.646617 -0.740116 -0.014965
v -0.651224 -0.743984 -0.014965
v 0.646617 -0.743984 -0.014965
v -0.651224 -0.740116 -0.014965
v -0.651224 -0.740116 -0.014965
v 0.646617 -0.740116 -0.014965
v -0.651224 -0.743984 -0.014965
v 0.646617 -0.743984 -0.014965
v 0.646617 -0.740116 -0.014965
v -0.651224 -0.740116 -0.035145
v -0.651224 -0.740116 -0.014965
v 0.646617 -0.740116 -0.035145
v 0.646617 -0.740116 -0.035145
v 0.646617 -0.740116 -0.014965
v -0.651224 -0.740116 -0.035145
v -0.651224 -0.740116 -0.014965
v 0.646617 -0.739067 -0.035145
v -0.651224 -0.740116 -0.035145
v 0.646617 -0.740116 -0.035145
v -0.651224 -0.739067 -0.035145
v -0.651224 -0.739067 -0.035145
v 0.646617 -0.739067 -0.035145
v -0.651224 -0.740116 -0.035145
v 0.646617 -0.740116 -0.035145
v 0.646617 -0.739067 -0.035145
v -0.651224 -0.739067 -0.046789
v -0.651224 -0.739067 -0.035145
v 0.646617 -0.739067 -0.046789
v 0.646617 -0.739067 -0.046789
v 0.646617 -0.739067 -0.035145
v -0.651224 -0.739067 -0.046789
v -0.651224 -0.739067 -0.035145
v -0.651224 -0.739067 -0.046789
v 0.646617 -0.750297 -0.046789
v -0.651224 -0.750297 -0.046789
v 0.646617 -0.739067 -0.046789
v 0.646617 -0.739067 -0.046789
v -0.651224 -0.739067 -0.046789
v 0.646617 -0.750297 -0.046789
v -0.651224 -0.750297 -0.046789
v 0.646617 -0.750297 -0.046789
v -0.651224 -0.750297 -0.050678
v -0.651224 -0.750297 -0.046789
v 0.646617 -0.750297 -0.050678
v 0.646617 -0.750297 -0.050678
v 0.646617 -0.750297 -0.046789
v -0.651224 -0.750297 -0.050678
v -0.651224 -0.750297 -0.046789
v 0.646617 -0.739067 -0.050678
v -0.651224 -0.750297 -0.050678
v 0.646617 -0.750297 -0.050678
v -0.651224 -0.739067 -0.050678
v -0.651224 -0.739067 -0.050678
v 0.646617 -0.739067 -0.050678
v -0.651224 -0.750297 -0.050678
v 0.646617 -0.750297 -0.050678
v 0.646617 -0.739067 -0.050678
v -0.651224 -0.739067 -0.065363
v -0.651224 -0.739067 -0.050678
v 0.646617 -0.739067 -0.065363
v 0.646617 -0.739067 -0.065363
v 0.646617 -0.739067 -0.050678
v -0.651224 -0.739067 -0.065363
v -0.651224 -0.739067 -0.050678
v -0.651224 -0.739067 -0.065363
v 0.646617 -0.753246 -0.065363
v -0.651224 -0.753246 -0.065363
v 0.646617 -0.739067 -0.065363
v 0.646617 -0.739067 -0.065363
v -0.651224 -0.739067 -0.065363
v 0.646617 -0.753246 -0.065363
v -0.651224 -0.753246 -0.065363
v 0.646617 -0.753246 -0.065363
v -0.651224 -0.753246 -0.060463
v -0.651224 -0.753246 -0.065363
v 0.646617 -0.753246 -0.060463
v 0.646617 -0.753246 -0.060463
v 0.646617 -0.753246 -0.065363
v -0.651224 -0.753246 -0.060463
v -0.651224 -0.753246 -0.065363
v -0.651224 -0.753246 -0.060463
v 0.646617 -0.757965 -0.060463
v -0.651224 -0.757965 -0.060463
v 0.646617 -0.753246 -0.060463
v 0.646617 -0.753246 -0.060463
v -0.651224 -0.753246 -0.060463
v 0.646617 -0.757965 -0.060463
v -0.651224 -0.757965 -0.060463
v 0.646617 -0.755984 -0.009732
v 0.646617 -0.747980 -0.003871
v 0.646617 -0.750122 -0.003871
v 0.646617 -0.743984 -0.007075
v 0.646617 -0.743984 -0.014965
v 0.646617 -0.755984 -0.011724
v 0.646617 -0.757965 -0.060463
v 0.646617 -0.757965 -0.011724
v 0.646617 -0.740116 -0.014965
v 0.646617 -0.750297 -0.046789
v 0.646617 -0.740116 -0.035145
v 0.646617 -0.739067 -0.035145
v 0.646617 -0.750297 -0.050678
v 0.646617 -0.739067 -0.050678
v 0.646617 -0.753246 -0.060463
v 0.646617 -0.739067 -0.065363
v 0.646617 -0.753246 -0.065363
v 0.646617 -0.739067 -0.046789
v 0.646617 -0.750297 -0.046789
v 0.646617 -0.739067 -0.035145
v 0.646617 -0.739067 -0.046789
v 0.646617 -0.753246 -0.065363
v 0.646617 -0.753246 -0.060463
v 0.646617 -0.739067 -0.065363
v 0.646617 -0.739067 -0.050678
v 0.646617 -0.757965 -0.060463
v 0.646617 -0.750297 -0.050678
v 0.646617 -0.740116 -0.035145
v 0.646617 -0.740116 -0.014965
v 0.646617 -0.743984 -0.014965
v 0.646617 -0.755984 -0.011724
v 0.646617 -0.757965 -0.011724
v 0.646617 -0.755984 -0.009732
v 0.646617 -0.743984 -0.007075
v 0.646617 -0.747980 -0.003871
v 0.646617 -0.750122 -0.003871
vn -1 0 0
vn 1 0 0
vn 0 -1 0
vn 0 1 0
vn 0 0 1
vn 0 0 -1
vn 0 -0.9238795391929067 0.3826834162342324
vn 0 0.9238795391929067 -0.3826834162342324
vn 0 -0.38268341623423285 0.9238795391929064
vn 0 0.38268341623423285 -0.9238795391929064
vn 0 0.3315424061895899 0.9434403176131584
vn 0 -0.3315424061895899 -0.9434403176131584
vn 0 0.6255810109771824 0.7801592136895944
vn 0 -0.6255810109771824 -0.7801592136895944
usemtl material_0_0
f 1//1 2//1 3//1
f 4//1 1//1 5//1
f 6//1 7//1 8//1
f 7//1 6//1 9//1
f 10//1 11//1 12//1
f 11//1 10//1 13//1
f 13//1 10//1 2//1
f 13//1 2//1 14//1
f 14//1 2//1 15//1
f 15//1 2//1 16//1
f 16//1 2//1 17//1
f 17//1 2//1 1//1
f 17//1 1//1 4//1
f 16//1 17//1 18//1
f 16//1 18//1 8//1
f 16//1 8//1 7//1
f 19//2 20//2 21//2
f 20//2 22//2 21//2
f 22//2 23//2 21//2
f 24//2 25//2 23//2
f 25//2 26//2 23//2
f 23//2 26//2 21//2
f 21//2 26//2 27//2
f 27//2 26//2 28//2
f 28//2 26//2 29//2
f 26//2 30//2 29//2
f 29//2 30//2 31//2
f 32//2 31//2 30//2
f 33//2 34//2 19//2
f 20//2 19//2 34//2
f 35//2 25//2 24//2
f 36//2 26//2 25//2
f 37//3 38//3 39//3
f 38//3 37//3 40//3
f 41//4 42//4 43//4
f 44//4 43//4 42//4
f 45//5 46//5 47//5
f 46//5 45//5 48//5
f 49//6 50//6 51//6
f 52//6 51//6 50//6
f 53//3 54//7 55//3
f 54//7 53//3 56//7
f 57//8 58//4 59//8
f 60//4 59//8 58//4
f 61//9 54//7 56//7
f 54//7 61//9 62//9
f 63//10 64//10 59//8
f 57//8 59//8 64//10
f 65//11 62//9 61//9
f 62//9 65//11 66//11
f 67//12 68//12 63//10
f 64//10 63//10 68//12
f 69//13 66//11 65//11
f 66//11 69//13 70//13
f 71//14 72//14 67//12
f 68//12 67//12 72//14
f 73//4 74//4 75//4
f 74//4 73//4 76//4
f 77//3 78//3 79//3
f 80//3 79//3 78//3
f 81//5 82//5 83//5
f 82//5 81//5 84//5
f 85//6 86//6 87//6
f 88//6 87//6 86//6
f 89//4 90//4 91//4
f 90//4 89//4 92//4
f 93//3 94//3 95//3
f 96//3 95//3 94//3
f 97//5 98//5 99//5
f 98//5 97//5 100//5
f 101//6 102//6 103//6
f 104//6 103//6 102//6
f 105//4 106//4 107//4
f 106//4 105//4 108//4
f 109//3 110//3 111//3
f 112//3 111//3 110//3
f 113//6 114//6 115//6
f 114//6 113//6 116//6
f 117//5 118//5 119//5
f 120//5 119//5 118//5
f 121//4 122//4 123//4
f 122//4 121//4 124//4
f 125//3 126//3 127//3
f 128//3 127//3 126//3
f 129//5 130//5 131//5
f 130//5 129//5 132//5
f 133//6 134//6 135//6
f 136//6 135//6 134//6
f 137//4 138//4 139//4
f 138//4 137//4 140//4
f 141//3 142//3 143//3
f 144//3 143//3 142//3
f 145//6 146//6 147//6
f 146//6 145//6 148//6
f 149//5 150//5 151//5
f 152//5 151//5 150//5
f 153//3 154//3 155//3
f 154//3 153//3 156//3
f 157//4 158//4 159//4
f 160//4 159//4 158//4
f 161//6 162//6 163//6
f 162//6 161//6 164//6
f 165//5 166//5 167//5
f 168//5 167//5 166//5
f 169//2 170//2 171//2
f 170//2 169//2 172//2
f 172//2 169//2 173//2
f 173//2 169//2 174//2
f 175//2 174//2 176//2
f 174//2 175//2 173//2
f 173//2 175//2 177//2
f 177//2 175//2 178//2
f 177//2 178//2 179//2
f 179//2 178//2 180//2
f 178//2 175//2 181//2
f 181//2 175//2 182//2
f 182//2 175//2 183//2
f 182//2 183//2 184//2
f 184//2 183//2 185//2
f 186//2 180//2 178//2
f 187//1 188//1 189//1
f 190//1 191//1 192//1
f 192//1 191//1 193//1
f 191//1 194//1 193//1
f 193//1 194//1 195//1
f 195//1 194//1 187//1
f 188//1 187//1 196//1
f 196//1 187//1 197//1
f 187//1 194//1 197//1
f 197//1 194//1 198//1
f 198//1 194//1 199//1
f 200//1 199//1 194//1
f 199//1 201//1 198//1
f 198//1 201//1 202//1
f 202//1 201//1 203//1
f 204//1 203//1 201//1
