# SSTK version 0.8.0
# 11
mtllib original-11.mtl
o instance_10/laframe_2/ID73#ID73
v -0.674659 0.751224 0.023115
v -0.674659 -0.757965 0.044573
v -0.674659 0.751224 0.044573
v -0.674659 -0.757965 0.023115
v -0.674659 -0.757965 0.023115
v -0.674659 0.751224 0.023115
v -0.674659 -0.757965 0.044573
v -0.674659 0.751224 0.044573
v -0.674659 0.751224 0.023115
v -0.673821 -0.757965 0.023115
v -0.674659 -0.757965 0.023115
v -0.673821 0.751224 0.023115
v -0.673821 0.751224 0.023115
v -0.674659 0.751224 0.023115
v -0.673821 -0.757965 0.023115
v -0.674659 -0.757965 0.023115
v -0.670253 -0.757965 0.037368
v -0.673123 -0.757965 0.038217
v -0.673821 -0.757965 0.037368
v -0.671103 -0.757965 0.038217
v -0.671103 -0.757965 0.045334
v -0.670253 -0.757965 0.042729
v -0.667781 -0.757965 0.045334
v -0.662702 -0.757965 0.042729
v -0.663905 -0.757965 0.043579
v -0.661882 -0.757965 0.043579
v -0.673821 -0.757965 0.023115
v -0.674659 -0.757965 0.044573
v -0.674659 -0.757965 0.023115
v -0.673123 -0.757965 0.044573
v -0.655946 -0.757965 -0.013655
v -0.656793 -0.757965 -0.002615
v -0.656793 -0.757965 -0.013655
v -0.651696 -0.757965 -0.007764
v -0.652735 -0.757965 -0.002804
v -0.652735 -0.757965 -0.007764
v -0.662702 -0.757965 -0.002615
v -0.661809 -0.757965 -0.001766
v -0.651696 -0.757965 -0.001766
v -0.655946 -0.757965 -0.002804
v -0.645316 -0.757965 0.042611
v -0.646165 -0.757965 0.044390
v -0.646165 -0.757965 0.042611
v -0.661809 -0.757965 0.042607
v -0.656069 -0.757965 0.045297
v -0.656176 -0.757965 0.044390
v -0.645316 -0.757965 0.045297
v -0.645316 -0.757965 0.042611
v -0.646165 -0.757965 0.044390
v -0.645316 -0.757965 0.045297
v -0.656069 -0.757965 0.045297
v -0.656176 -0.757965 0.044390
v -0.661809 -0.757965 0.042607
v -0.661809 -0.757965 -0.001766
v -0.661882 -0.757965 0.043579
v -0.646165 -0.757965 0.042611
v -0.651696 -0.757965 -0.007764
v -0.652735 -0.757965 -0.002804
v -0.651696 -0.757965 -0.001766
v -0.655946 -0.757965 -0.002804
v -0.655946 -0.757965 -0.013655
v -0.656793 -0.757965 -0.002615
v -0.662702 -0.757965 0.042729
v -0.662702 -0.757965 -0.002615
v -0.652735 -0.757965 -0.007764
v -0.656793 -0.757965 -0.013655
v -0.673123 -0.757965 0.038217
v -0.673821 -0.757965 0.037368
v -0.673123 -0.757965 0.044573
v -0.674659 -0.757965 0.044573
v -0.673821 -0.757965 0.023115
v -0.674659 -0.757965 0.023115
v -0.663905 -0.757965 0.043579
v -0.667781 -0.757965 0.045334
v -0.670253 -0.757965 0.042729
v -0.671103 -0.757965 0.045334
v -0.670253 -0.757965 0.037368
v -0.671103 -0.757965 0.038217
v -0.673123 0.751224 0.044573
v -0.674659 -0.757965 0.044573
v -0.673123 -0.757965 0.044573
v -0.674659 0.751224 0.044573
v -0.674659 0.751224 0.044573
v -0.673123 0.751224 0.044573
v -0.674659 -0.757965 0.044573
v -0.673123 -0.757965 0.044573
v -0.656069 0.751224 0.045297
v -0.661809 0.751224 0.042607
v -0.661882 0.751224 0.043579
v -0.656176 0.751224 0.044390
v -0.646165 0.751224 0.044390
v -0.645316 0.751224 0.045297
v -0.646165 0.751224 0.042611
v -0.645316 0.751224 0.042611
v -0.671103 0.751224 0.045334
v -0.670253 0.751224 0.042729
v -0.671103 0.751224 0.038217
v -0.667781 0.751224 0.045334
v -0.662702 0.751224 0.042729
v -0.663905 0.751224 0.043579
v -0.662702 0.751224 -0.002615
v -0.661809 0.751224 -0.001766
v -0.656793 0.751224 -0.002615
v -0.651696 0.751224 -0.001766
v -0.655946 0.751224 -0.002804
v -0.656793 0.751224 -0.013655
v -0.652735 0.751224 -0.002804
v -0.652735 0.751224 -0.007764
v -0.651696 0.751224 -0.007764
v -0.655946 0.751224 -0.013655
v -0.674659 0.751224 0.044573
v -0.673821 0.751224 0.037368
v -0.674659 0.751224 0.023115
v -0.673123 0.751224 0.044573
v -0.673123 0.751224 0.038217
v -0.670253 0.751224 0.037368
v -0.673821 0.751224 0.023115
v -0.673821 0.751224 0.037368
v -0.674659 0.751224 0.023115
v -0.673821 0.751224 0.023115
v -0.670253 0.751224 0.042729
v -0.671103 0.751224 0.038217
v -0.670253 0.751224 0.037368
v -0.673123 0.751224 0.038217
v -0.673123 0.751224 0.044573
v -0.674659 0.751224 0.044573
v -0.655946 0.751224 -0.002804
v -0.656793 0.751224 -0.013655
v -0.655946 0.751224 -0.013655
v -0.651696 0.751224 -0.007764
v -0.651696 0.751224 -0.001766
v -0.652735 0.751224 -0.007764
v -0.652735 0.751224 -0.002804
v -0.656793 0.751224 -0.002615
v -0.661809 0.751224 -0.001766
v -0.661809 0.751224 0.042607
v -0.661882 0.751224 0.043579
v -0.662702 0.751224 -0.002615
v -0.662702 0.751224 0.042729
v -0.663905 0.751224 0.043579
v -0.667781 0.751224 0.045334
v -0.671103 0.751224 0.045334
v -0.645316 0.751224 0.042611
v -0.645316 0.751224 0.045297
v -0.646165 0.751224 0.042611
v -0.646165 0.751224 0.044390
v -0.656069 0.751224 0.045297
v -0.656176 0.751224 0.044390
v -0.673821 -0.757965 0.037368
v -0.673821 0.751224 0.023115
v -0.673821 0.751224 0.037368
v -0.673821 -0.757965 0.023115
v -0.673821 -0.757965 0.023115
v -0.673821 -0.757965 0.037368
v -0.673821 0.751224 0.023115
v -0.673821 0.751224 0.037368
v -0.673821 0.751224 0.037368
v -0.670253 -0.757965 0.037368
v -0.673821 -0.757965 0.037368
v -0.670253 0.751224 0.037368
v -0.670253 0.751224 0.037368
v -0.673821 0.751224 0.037368
v -0.670253 -0.757965 0.037368
v -0.673821 -0.757965 0.037368
v -0.670253 -0.757965 0.042729
v -0.670253 0.751224 0.037368
v -0.670253 0.751224 0.042729
v -0.670253 -0.757965 0.037368
v -0.670253 -0.757965 0.037368
v -0.670253 -0.757965 0.042729
v -0.670253 0.751224 0.037368
v -0.670253 0.751224 0.042729
v -0.670253 -0.757965 0.042729
v -0.662702 0.751224 0.042729
v -0.662702 -0.757965 0.042729
v -0.670253 0.751224 0.042729
v -0.670253 0.751224 0.042729
v -0.670253 -0.757965 0.042729
v -0.662702 0.751224 0.042729
v -0.662702 -0.757965 0.042729
v -0.662702 0.751224 -0.002615
v -0.662702 -0.757965 0.042729
v -0.662702 0.751224 0.042729
v -0.662702 -0.757965 -0.002615
v -0.662702 -0.757965 -0.002615
v -0.662702 0.751224 -0.002615
v -0.662702 -0.757965 0.042729
v -0.662702 0.751224 0.042729
v -0.662702 -0.757965 -0.002615
v -0.656793 0.751224 -0.002615
v -0.656793 -0.757965 -0.002615
v -0.662702 0.751224 -0.002615
v -0.662702 0.751224 -0.002615
v -0.662702 -0.757965 -0.002615
v -0.656793 0.751224 -0.002615
v -0.656793 -0.757965 -0.002615
v -0.656793 0.751224 -0.013655
v -0.656793 -0.757965 -0.002615
v -0.656793 0.751224 -0.002615
v -0.656793 -0.757965 -0.013655
v -0.656793 -0.757965 -0.013655
v -0.656793 0.751224 -0.013655
v -0.656793 -0.757965 -0.002615
v -0.656793 0.751224 -0.002615
v -0.656793 0.751224 -0.013655
v -0.655946 -0.757965 -0.013655
v -0.656793 -0.757965 -0.013655
v -0.655946 0.751224 -0.013655
v -0.655946 0.751224 -0.013655
v -0.656793 0.751224 -0.013655
v -0.655946 -0.757965 -0.013655
v -0.656793 -0.757965 -0.013655
v -0.655946 -0.757965 -0.002804
v -0.655946 0.751224 -0.013655
v -0.655946 0.751224 -0.002804
v -0.655946 -0.757965 -0.013655
v -0.655946 -0.757965 -0.013655
v -0.655946 -0.757965 -0.002804
v -0.655946 0.751224 -0.013655
v -0.655946 0.751224 -0.002804
v -0.655946 -0.757965 -0.002804
v -0.652735 0.751224 -0.002804
v -0.652735 -0.757965 -0.002804
v -0.655946 0.751224 -0.002804
v -0.655946 0.751224 -0.002804
v -0.655946 -0.757965 -0.002804
v -0.652735 0.751224 -0.002804
v -0.652735 -0.757965 -0.002804
v -0.652735 0.751224 -0.007764
v -0.652735 -0.757965 -0.002804
v -0.652735 0.751224 -0.002804
v -0.652735 -0.757965 -0.007764
v -0.652735 -0.757965 -0.007764
v -0.652735 0.751224 -0.007764
v -0.652735 -0.757965 -0.002804
v -0.652735 0.751224 -0.002804
v -0.652735 0.751224 -0.007764
v -0.651696 -0.757965 -0.007764
v -0.652735 -0.757965 -0.007764
v -0.651696 0.751224 -0.007764
v -0.651696 0.751224 -0.007764
v -0.652735 0.751224 -0.007764
v -0.651696 -0.757965 -0.007764
v -0.652735 -0.757965 -0.007764
v -0.651696 -0.757965 -0.001766
v -0.651696 0.751224 -0.007764
v -0.651696 0.751224 -0.001766
v -0.651696 -0.757965 -0.007764
v -0.651696 -0.757965 -0.007764
v -0.651696 -0.757965 -0.001766
v -0.651696 0.751224 -0.007764
v -0.651696 0.751224 -0.001766
v -0.651696 0.751224 -0.001766
v -0.661809 -0.757965 -0.001766
v -0.651696 -0.757965 -0.001766
v -0.661809 0.751224 -0.001766
v -0.661809 0.751224 -0.001766
v -0.651696 0.751224 -0.001766
v -0.661809 -0.757965 -0.001766
v -0.651696 -0.757965 -0.001766
v -0.661809 -0.757965 0.042607
v -0.661809 0.751224 -0.001766
v -0.661809 0.751224 0.042607
v -0.661809 -0.757965 -0.001766
v -0.661809 -0.757965 -0.001766
v -0.661809 -0.757965 0.042607
v -0.661809 0.751224 -0.001766
v -0.661809 0.751224 0.042607
v -0.661809 0.751224 0.042607
v -0.656176 -0.757965 0.044390
v -0.661809 -0.757965 0.042607
v -0.656176 0.751224 0.044390
v -0.656176 0.751224 0.044390
v -0.661809 0.751224 0.042607
v -0.656176 -0.757965 0.044390
v -0.661809 -0.757965 0.042607
v -0.646165 0.751224 0.044390
v -0.646165 -0.757965 0.044390
v -0.646165 0.751224 0.044390
v -0.646165 -0.757965 0.044390
v -0.646165 0.751224 0.042611
v -0.646165 -0.757965 0.044390
v -0.646165 0.751224 0.044390
v -0.646165 -0.757965 0.042611
v -0.646165 -0.757965 0.042611
v -0.646165 0.751224 0.042611
v -0.646165 -0.757965 0.044390
v -0.646165 0.751224 0.044390
v -0.646165 0.751224 0.042611
v -0.645316 -0.757965 0.042611
v -0.646165 -0.757965 0.042611
v -0.645316 0.751224 0.042611
v -0.645316 0.751224 0.042611
v -0.646165 0.751224 0.042611
v -0.645316 -0.757965 0.042611
v -0.646165 -0.757965 0.042611
v -0.645316 -0.757965 0.045297
v -0.645316 0.751224 0.042611
v -0.645316 0.751224 0.045297
v -0.645316 -0.757965 0.042611
v -0.645316 -0.757965 0.042611
v -0.645316 -0.757965 0.045297
v -0.645316 0.751224 0.042611
v -0.645316 0.751224 0.045297
v -0.645316 0.751224 0.045297
v -0.656069 -0.757965 0.045297
v -0.645316 -0.757965 0.045297
v -0.656069 0.751224 0.045297
v -0.656069 0.751224 0.045297
v -0.645316 0.751224 0.045297
v -0.656069 -0.757965 0.045297
v -0.645316 -0.757965 0.045297
v -0.661882 -0.757965 0.043579
v -0.661882 0.751224 0.043579
v -0.661882 0.751224 0.043579
v -0.661882 -0.757965 0.043579
v -0.663905 -0.757965 0.043579
v -0.663905 0.751224 0.043579
v -0.663905 0.751224 0.043579
v -0.663905 -0.757965 0.043579
v -0.667781 -0.757965 0.045334
v -0.667781 0.751224 0.045334
v -0.667781 0.751224 0.045334
v -0.667781 -0.757965 0.045334
v -0.671103 -0.757965 0.045334
v -0.671103 0.751224 0.045334
v -0.671103 0.751224 0.045334
v -0.671103 -0.757965 0.045334
v -0.671103 0.751224 0.038217
v -0.671103 -0.757965 0.045334
v -0.671103 0.751224 0.045334
v -0.671103 -0.757965 0.038217
v -0.671103 -0.757965 0.038217
v -0.671103 0.751224 0.038217
v -0.671103 -0.757965 0.045334
v -0.671103 0.751224 0.045334
v -0.671103 0.751224 0.038217
v -0.673123 -0.757965 0.038217
v -0.671103 -0.757965 0.038217
v -0.673123 0.751224 0.038217
v -0.673123 0.751224 0.038217
v -0.671103 0.751224 0.038217
v -0.673123 -0.757965 0.038217
v -0.671103 -0.757965 0.038217
v -0.673123 -0.757965 0.044573
v -0.673123 0.751224 0.038217
v -0.673123 0.751224 0.044573
v -0.673123 -0.757965 0.038217
v -0.673123 -0.757965 0.038217
v -0.673123 -0.757965 0.044573
v -0.673123 0.751224 0.038217
v -0.673123 0.751224 0.044573
vn -1 0 0
vn 1 0 0
vn 0 0 -1
vn 0 0 1
vn 0 -1 0
vn 0 1 0
vn 0.3019065938420716 0 -0.9533375103260536
vn 0.15274565110805582 0 -0.9882655341898633
vn -0.15274565110805582 0 0.9882655341898633
vn -0.3019065938420716 0 0.9533375103260536
vn -0.14319873625640311 0 0.9896939536718253
vn 0.14319873625640311 0 -0.9896939536718253
vn 0.2110491525052226 0 0.9774754499356121
vn -0.2110491525052226 0 -0.9774754499356121
usemtl material_0_0
f 1//1 2//1 3//1
f 2//1 1//1 4//1
f 5//2 6//2 7//2
f 8//2 7//2 6//2
f 9//3 10//3 11//3
f 10//3 9//3 12//3
f 13//4 14//4 15//4
f 16//4 15//4 14//4
f 17//5 18//5 19//5
f 18//5 17//5 20//5
f 20//5 17//5 21//5
f 21//5 17//5 22//5
f 21//5 22//5 23//5
f 23//5 22//5 24//5
f 23//5 24//5 25//5
f 25//5 24//5 26//5
f 27//5 28//5 29//5
f 28//5 27//5 19//5
f 28//5 19//5 30//5
f 30//5 19//5 18//5
f 31//5 32//5 33//5
f 34//5 35//5 36//5
f 37//5 38//5 24//5
f 38//5 37//5 32//5
f 24//5 38//5 26//5
f 38//5 32//5 39//5
f 39//5 32//5 40//5
f 40//5 32//5 31//5
f 39//5 40//5 35//5
f 39//5 35//5 34//5
f 41//5 42//5 43//5
f 26//5 44//5 45//5
f 44//5 26//5 38//5
f 45//5 44//5 46//5
f 45//5 46//5 42//5
f 45//5 42//5 47//5
f 47//5 42//5 41//5
f 48//6 49//6 50//6
f 50//6 49//6 51//6
f 49//6 52//6 51//6
f 52//6 53//6 51//6
f 54//6 55//6 53//6
f 51//6 53//6 55//6
f 56//6 49//6 48//6
f 57//6 58//6 59//6
f 58//6 60//6 59//6
f 61//6 62//6 60//6
f 60//6 62//6 59//6
f 59//6 62//6 54//6
f 55//6 54//6 63//6
f 62//6 64//6 54//6
f 63//6 54//6 64//6
f 65//6 58//6 57//6
f 66//6 62//6 61//6
f 67//6 68//6 69//6
f 69//6 68//6 70//6
f 68//6 71//6 70//6
f 72//6 70//6 71//6
f 55//6 63//6 73//6
f 73//6 63//6 74//6
f 63//6 75//6 74//6
f 74//6 75//6 76//6
f 75//6 77//6 76//6
f 76//6 77//6 78//6
f 78//6 77//6 67//6
f 68//6 67//6 77//6
f 79//4 80//4 81//4
f 80//4 79//4 82//4
f 83//3 84//3 85//3
f 86//3 85//3 84//3
f 87//6 88//6 89//6
f 88//6 87//6 90//6
f 90//6 87//6 91//6
f 91//6 87//6 92//6
f 91//6 92//6 93//6
f 93//6 92//6 94//6
f 95//6 96//6 97//6
f 96//6 95//6 98//6
f 96//6 98//6 99//6
f 99//6 98//6 100//6
f 99//6 100//6 89//6
f 99//6 89//6 101//6
f 101//6 89//6 102//6
f 101//6 102//6 103//6
f 102//6 89//6 88//6
f 103//6 102//6 104//6
f 103//6 104//6 105//6
f 103//6 105//6 106//6
f 105//6 104//6 107//6
f 107//6 104//6 108//6
f 108//6 104//6 109//6
f 110//6 106//6 105//6
f 111//6 112//6 113//6
f 112//6 111//6 114//6
f 112//6 114//6 115//6
f 112//6 115//6 116//6
f 116//6 115//6 97//6
f 116//6 97//6 96//6
f 117//6 113//6 112//6
f 118//5 119//5 120//5
f 121//5 122//5 123//5
f 122//5 124//5 123//5
f 123//5 124//5 118//5
f 124//5 125//5 118//5
f 125//5 126//5 118//5
f 119//5 118//5 126//5
f 127//5 128//5 129//5
f 130//5 131//5 132//5
f 132//5 131//5 133//5
f 133//5 131//5 127//5
f 128//5 127//5 134//5
f 127//5 131//5 134//5
f 131//5 135//5 134//5
f 136//5 137//5 135//5
f 134//5 135//5 138//5
f 135//5 137//5 138//5
f 138//5 137//5 139//5
f 137//5 140//5 139//5
f 140//5 141//5 139//5
f 139//5 141//5 121//5
f 141//5 142//5 121//5
f 122//5 121//5 142//5
f 143//5 144//5 145//5
f 145//5 144//5 146//5
f 144//5 147//5 146//5
f 146//5 147//5 148//5
f 148//5 147//5 136//5
f 137//5 136//5 147//5
f 149//2 150//2 151//2
f 150//2 149//2 152//2
f 153//1 154//1 155//1
f 156//1 155//1 154//1
f 157//3 158//3 159//3
f 158//3 157//3 160//3
f 161//4 162//4 163//4
f 164//4 163//4 162//4
f 165//2 166//2 167//2
f 166//2 165//2 168//2
f 169//1 170//1 171//1
f 172//1 171//1 170//1
f 173//3 174//3 175//3
f 174//3 173//3 176//3
f 177//4 178//4 179//4
f 180//4 179//4 178//4
f 181//1 182//1 183//1
f 182//1 181//1 184//1
f 185//2 186//2 187//2
f 188//2 187//2 186//2
f 189//3 190//3 191//3
f 190//3 189//3 192//3
f 193//4 194//4 195//4
f 196//4 195//4 194//4
f 197//1 198//1 199//1
f 198//1 197//1 200//1
f 201//2 202//2 203//2
f 204//2 203//2 202//2
f 205//3 206//3 207//3
f 206//3 205//3 208//3
f 209//4 210//4 211//4
f 212//4 211//4 210//4
f 213//2 214//2 215//2
f 214//2 213//2 216//2
f 217//1 218//1 219//1
f 220//1 219//1 218//1
f 221//3 222//3 223//3
f 222//3 221//3 224//3
f 225//4 226//4 227//4
f 228//4 227//4 226//4
f 229//1 230//1 231//1
f 230//1 229//1 232//1
f 233//2 234//2 235//2
f 236//2 235//2 234//2
f 237//3 238//3 239//3
f 238//3 237//3 240//3
f 241//4 242//4 243//4
f 244//4 243//4 242//4
f 245//2 246//2 247//2
f 246//2 245//2 248//2
f 249//1 250//1 251//1
f 252//1 251//1 250//1
f 253//4 254//4 255//4
f 254//4 253//4 256//4
f 257//3 258//3 259//3
f 260//3 259//3 258//3
f 261//2 262//2 263//2
f 262//2 261//2 264//2
f 265//1 266//1 267//1
f 268//1 267//1 266//1
f 269//7 270//8 271//7
f 270//8 269//7 272//8
f 273//9 274//10 275//9
f 276//10 275//9 274//10
f 270//8 277//3 278//3
f 277//3 270//8 272//8
f 273//9 275//9 279//4
f 280//4 279//4 275//9
f 281//1 282//1 283//1
f 282//1 281//1 284//1
f 285//2 286//2 287//2
f 288//2 287//2 286//2
f 289//3 290//3 291//3
f 290//3 289//3 292//3
f 293//4 294//4 295//4
f 296//4 295//4 294//4
f 297//2 298//2 299//2
f 298//2 297//2 300//2
f 301//1 302//1 303//1
f 304//1 303//1 302//1
f 305//4 306//11 307//4
f 306//11 305//4 308//11
f 309//12 310//3 311//12
f 312//3 311//12 310//3
f 308//11 313//11 306//11
f 313//11 308//11 314//11
f 315//12 309//12 316//12
f 311//12 316//12 309//12
f 314//11 317//13 313//11
f 317//13 314//11 318//13
f 319//14 315//12 320//14
f 316//12 320//14 315//12
f 318//13 321//13 317//13
f 321//13 318//13 322//13
f 323//14 319//14 324//14
f 320//14 324//14 319//14
f 322//13 325//4 321//13
f 325//4 322//13 326//4
f 327//3 323//14 328//3
f 324//14 328//3 323//14
f 329//1 330//1 331//1
f 330//1 329//1 332//1
f 333//2 334//2 335//2
f 336//2 335//2 334//2
f 337//4 338//4 339//4
f 338//4 337//4 340//4
f 341//3 342//3 343//3
f 344//3 343//3 342//3
f 345//2 346//2 347//2
f 346//2 345//2 348//2
f 349//1 350//1 351//1
f 352//1 351//1 350//1
