# SSTK version 0.8.0
# 139
mtllib original-139.mtl
o instance_92/tlasash/ID191#ID191
v 0.080751 0.686111 -0.016067
v 0.078679 0.680864 -0.016067
v 0.080751 0.680864 -0.016067
v 0.073432 0.678793 -0.016067
v 0.078679 0.678793 -0.016067
v 0.073432 0.686111 -0.016067
v 0.080751 0.686111 -0.016067
v 0.078679 0.680864 -0.016067
v 0.073432 0.686111 -0.016067
v 0.073432 0.678793 -0.016067
v 0.078679 0.678793 -0.016067
v 0.080751 0.680864 -0.016067
v 0.080751 0.678793 -0.018614
v 0.076803 0.678793 -0.016916
v 0.076803 0.678793 -0.018614
v 0.078679 0.678793 -0.016067
v 0.075397 0.678793 -0.008892
v 0.075397 0.678793 -0.009478
v 0.076426 0.678793 -0.009354
v 0.080751 0.678793 -0.017541
v 0.073432 0.678793 -0.016067
v 0.073432 0.678793 -0.016916
v -0.001322 0.678793 -0.012570
v -0.005318 0.678793 -0.007854
v -0.005318 0.678793 -0.012570
v -0.001322 0.678793 -0.008892
v 0.076426 0.678793 -0.007854
v 0.076426 0.678793 -0.009354
v 0.075397 0.678793 -0.008892
v 0.076426 0.678793 -0.007854
v -0.001322 0.678793 -0.008892
v -0.005318 0.678793 -0.007854
v -0.001322 0.678793 -0.012570
v -0.005318 0.678793 -0.012570
v 0.078679 0.678793 -0.016067
v 0.076803 0.678793 -0.016916
v 0.073432 0.678793 -0.016067
v 0.073432 0.678793 -0.016916
v 0.080751 0.678793 -0.018614
v 0.080751 0.678793 -0.017541
v 0.075397 0.678793 -0.009478
v 0.076803 0.678793 -0.018614
v 0.078679 0.680864 -0.016067
v 0.075397 0.678793 -0.009478
v 0.075397 0.684147 -0.009478
v 0.078679 0.678793 -0.016067
v 0.078679 0.678793 -0.016067
v 0.078679 0.680864 -0.016067
v 0.075397 0.678793 -0.009478
v 0.075397 0.684147 -0.009478
v 0.080751 0.684147 -0.009478
v 0.078679 0.680864 -0.016067
v 0.075397 0.684147 -0.009478
v 0.080751 0.680864 -0.016067
v 0.080751 0.680864 -0.016067
v 0.080751 0.684147 -0.009478
v 0.078679 0.680864 -0.016067
v 0.075397 0.684147 -0.009478
v 0.080751 0.683118 -0.007854
v 0.080751 0.684147 -0.008892
v 0.080751 0.764862 -0.007854
v 0.080751 0.683118 -0.009354
v 0.080751 0.684147 -0.009478
v 0.080751 0.678793 -0.017541
v 0.080751 0.680864 -0.016067
v 0.080751 0.686111 -0.016067
v 0.080751 0.682741 -0.016916
v 0.080751 0.682741 -0.018614
v 0.080751 0.678793 -0.018614
v 0.080751 0.686111 -0.016916
v 0.080751 0.760866 -0.008892
v 0.080751 0.764862 -0.012570
v 0.080751 0.760866 -0.012570
v 0.080751 0.760866 -0.012570
v 0.080751 0.760866 -0.008892
v 0.080751 0.764862 -0.012570
v 0.080751 0.684147 -0.008892
v 0.080751 0.764862 -0.007854
v 0.080751 0.682741 -0.016916
v 0.080751 0.686111 -0.016067
v 0.080751 0.686111 -0.016916
v 0.080751 0.678793 -0.018614
v 0.080751 0.678793 -0.017541
v 0.080751 0.682741 -0.018614
v 0.080751 0.680864 -0.016067
v 0.080751 0.684147 -0.009478
v 0.080751 0.683118 -0.009354
v 0.080751 0.683118 -0.007854
v 0.080751 0.686111 -0.016067
v 0.073432 0.686111 -0.016916
v 0.073432 0.686111 -0.016067
v 0.080751 0.686111 -0.016916
v 0.080751 0.686111 -0.016916
v 0.080751 0.686111 -0.016067
v 0.073432 0.686111 -0.016916
v 0.073432 0.686111 -0.016067
v 0.073432 0.686111 -0.016916
v 0.073432 0.678793 -0.016067
v 0.073432 0.686111 -0.016067
v 0.073432 0.678793 -0.016916
v 0.073432 0.678793 -0.016916
v 0.073432 0.686111 -0.016916
v 0.073432 0.678793 -0.016067
v 0.073432 0.686111 -0.016067
v -0.005318 0.764862 -0.012570
v -0.005318 0.678793 -0.007854
v -0.005318 0.764862 -0.007854
v -0.005318 0.678793 -0.012570
v -0.005318 0.678793 -0.012570
v -0.005318 0.764862 -0.012570
v -0.005318 0.678793 -0.007854
v -0.005318 0.764862 -0.007854
v -0.005318 0.764862 -0.012570
v -0.001322 0.678793 -0.012570
v -0.005318 0.678793 -0.012570
v -0.001322 0.760866 -0.012570
v 0.080751 0.760866 -0.012570
v 0.080751 0.764862 -0.012570
v 0.080751 0.764862 -0.012570
v -0.005318 0.764862 -0.012570
v 0.080751 0.760866 -0.012570
v -0.001322 0.760866 -0.012570
v -0.001322 0.678793 -0.012570
v -0.005318 0.678793 -0.012570
v -0.001322 0.678793 -0.012570
v -0.001322 0.760866 -0.008892
v -0.001322 0.678793 -0.008892
v -0.001322 0.760866 -0.012570
v -0.001322 0.760866 -0.012570
v -0.001322 0.678793 -0.012570
v -0.001322 0.760866 -0.008892
v -0.001322 0.678793 -0.008892
v -0.001322 0.760866 -0.008892
v 0.075397 0.678793 -0.008892
v -0.001322 0.678793 -0.008892
v 0.075397 0.684147 -0.008892
v 0.080751 0.684147 -0.008892
v 0.080751 0.760866 -0.008892
v 0.080751 0.760866 -0.008892
v -0.001322 0.760866 -0.008892
v 0.080751 0.684147 -0.008892
v 0.075397 0.684147 -0.008892
v 0.075397 0.678793 -0.008892
v -0.001322 0.678793 -0.008892
v 0.075397 0.678793 -0.008892
v 0.075397 0.684147 -0.008892
v 0.075397 0.678793 -0.008892
v 0.075397 0.684147 -0.008892
v 0.073432 0.686111 -0.016916
v 0.076803 0.678793 -0.016916
v 0.073432 0.678793 -0.016916
v 0.076803 0.682741 -0.016916
v 0.080751 0.682741 -0.016916
v 0.080751 0.686111 -0.016916
v 0.080751 0.686111 -0.016916
v 0.073432 0.686111 -0.016916
v 0.080751 0.682741 -0.016916
v 0.076803 0.682741 -0.016916
v 0.076803 0.678793 -0.016916
v 0.073432 0.678793 -0.016916
v 0.076803 0.682741 -0.018614
v 0.076803 0.678793 -0.016916
v 0.076803 0.682741 -0.016916
v 0.076803 0.678793 -0.018614
v 0.076803 0.678793 -0.018614
v 0.076803 0.682741 -0.018614
v 0.076803 0.678793 -0.016916
v 0.076803 0.682741 -0.016916
v 0.076803 0.682741 -0.018614
v 0.080751 0.678793 -0.018614
v 0.076803 0.678793 -0.018614
v 0.080751 0.682741 -0.018614
v 0.080751 0.682741 -0.018614
v 0.076803 0.682741 -0.018614
v 0.080751 0.678793 -0.018614
v 0.076803 0.678793 -0.018614
v 0.080751 0.678793 -0.017541
v 0.076426 0.683118 -0.009354
v 0.076426 0.678793 -0.009354
v 0.076426 0.678793 -0.009354
v 0.076426 0.683118 -0.009354
v 0.080751 0.678793 -0.017541
v 0.076426 0.683118 -0.007854
v 0.076426 0.678793 -0.007854
v 0.076426 0.683118 -0.007854
v 0.076426 0.678793 -0.007854
v 0.080751 0.764862 -0.007854
v 0.076426 0.683118 -0.007854
v 0.080751 0.683118 -0.007854
v -0.005318 0.678793 -0.007854
v 0.076426 0.678793 -0.007854
v -0.005318 0.764862 -0.007854
v 0.080751 0.764862 -0.007854
v 0.076426 0.683118 -0.007854
v -0.005318 0.764862 -0.007854
v -0.005318 0.678793 -0.007854
v 0.076426 0.678793 -0.007854
v 0.080751 0.683118 -0.007854
v 0.080751 0.684147 -0.008892
v 0.075397 0.684147 -0.008892
v 0.080751 0.684147 -0.008892
v 0.075397 0.684147 -0.008892
v 0.080751 0.764862 -0.007854
v -0.005318 0.764862 -0.012570
v -0.005318 0.764862 -0.007854
v 0.080751 0.764862 -0.012570
v 0.080751 0.764862 -0.012570
v 0.080751 0.764862 -0.007854
v -0.005318 0.764862 -0.012570
v -0.005318 0.764862 -0.007854
v 0.080751 0.683118 -0.009354
v 0.076426 0.683118 -0.007854
v 0.076426 0.683118 -0.009354
v 0.080751 0.683118 -0.007854
v 0.080751 0.683118 -0.007854
v 0.080751 0.683118 -0.009354
v 0.076426 0.683118 -0.007854
v 0.076426 0.683118 -0.009354
v 0.080751 0.678793 -0.017541
v 0.080751 0.678793 -0.017541
v 0.080751 0.682741 -0.016916
v 0.076803 0.682741 -0.018614
v 0.076803 0.682741 -0.016916
v 0.080751 0.682741 -0.018614
v 0.080751 0.682741 -0.018614
v 0.080751 0.682741 -0.016916
v 0.076803 0.682741 -0.018614
v 0.076803 0.682741 -0.016916
v 0.080751 0.760866 -0.012570
v -0.001322 0.760866 -0.008892
v -0.001322 0.760866 -0.012570
v 0.080751 0.760866 -0.008892
v 0.080751 0.760866 -0.008892
v 0.080751 0.760866 -0.012570
v -0.001322 0.760866 -0.008892
v -0.001322 0.760866 -0.012570
vn 0 0 1
vn 0 0 -1
vn 0 -1 0
vn 0 1 0
vn -0.895065936104611 0 -0.4459338179878
vn -0.9734130606362231 0 -0.22905679073718982
vn -0.981074052272407 0 -0.19363291031691568
vn 0.895065936104611 0 0.4459338179878
vn 0.9734130606362231 0 0.22905679073718982
vn 0.981074052272407 0 0.19363291031691568
vn 0 0.9734130606362231 -0.2290567907371896
vn 0 0.8950659361046112 -0.4459338179877998
vn 0 0.981074052272407 -0.19363291031691546
vn 0 -0.8950659361046112 0.4459338179877998
vn 0 -0.9734130606362231 0.2290567907371896
vn 0 -0.981074052272407 0.19363291031691546
vn 1 0 0
vn -1 0 0
vn 0.8842025538444289 0 0.46710367561708366
vn 0.9794715612147292 0 0.20158239201770833
vn 0.9706190245453781 0 0.2406215060849269
vn -0.9706190245453781 0 -0.2406215060849269
vn -0.9794715612147292 0 -0.20158239201770833
vn -0.8842025538444289 0 -0.46710367561708366
vn 0 -0.9706190245453783 0.24062150608492675
vn 0 -0.9794715612147292 0.2015823920177081
vn 0 0.9706190245453783 -0.24062150608492675
vn 0 0.9794715612147292 -0.2015823920177081
vn 0 -0.8842025538444293 0.46710367561708355
vn 0 0.8842025538444293 -0.46710367561708355
usemtl material_0_0
f 1//1 2//1 3//1
f 2//1 4//1 5//1
f 4//1 2//1 6//1
f 6//1 2//1 1//1
f 7//2 8//2 9//2
f 9//2 8//2 10//2
f 11//2 10//2 8//2
f 12//2 8//2 7//2
f 13//3 14//3 15//3
f 14//3 13//3 16//3
f 16//3 17//3 18//3
f 17//3 16//3 19//3
f 19//3 16//3 20//3
f 20//3 16//3 13//3
f 14//3 21//3 22//3
f 21//3 14//3 16//3
f 23//3 24//3 25//3
f 24//3 23//3 26//3
f 24//3 26//3 27//3
f 27//3 26//3 17//3
f 27//3 17//3 19//3
f 28//4 29//4 30//4
f 29//4 31//4 30//4
f 30//4 31//4 32//4
f 31//4 33//4 32//4
f 34//4 32//4 33//4
f 35//4 36//4 37//4
f 38//4 37//4 36//4
f 39//4 35//4 40//4
f 40//4 35//4 28//4
f 28//4 35//4 29//4
f 41//4 29//4 35//4
f 35//4 39//4 36//4
f 42//4 36//4 39//4
f 43//5 44//6 45//7
f 44//6 43//5 46//5
f 47//8 48//8 49//9
f 50//10 49//9 48//8
f 51//11 52//12 53//13
f 52//12 51//11 54//12
f 55//14 56//15 57//14
f 58//16 57//14 56//15
f 59//17 60//17 61//17
f 60//17 59//17 62//17
f 60//17 62//17 63//17
f 63//17 62//17 64//17
f 63//17 64//17 65//17
f 65//17 64//17 66//17
f 66//17 64//17 67//17
f 67//17 64//17 68//17
f 68//17 64//17 69//17
f 70//17 66//17 67//17
f 61//17 71//17 72//17
f 71//17 61//17 60//17
f 72//17 71//17 73//17
f 74//18 75//18 76//18
f 77//18 78//18 75//18
f 76//18 75//18 78//18
f 79//18 80//18 81//18
f 82//18 83//18 84//18
f 84//18 83//18 79//18
f 79//18 83//18 80//18
f 80//18 83//18 85//18
f 85//18 83//18 86//18
f 83//18 87//18 86//18
f 86//18 87//18 77//18
f 87//18 88//18 77//18
f 78//18 77//18 88//18
f 89//4 90//4 91//4
f 90//4 89//4 92//4
f 93//3 94//3 95//3
f 96//3 95//3 94//3
f 97//18 98//18 99//18
f 98//18 97//18 100//18
f 101//17 102//17 103//17
f 104//17 103//17 102//17
f 105//18 106//18 107//18
f 106//18 105//18 108//18
f 109//17 110//17 111//17
f 112//17 111//17 110//17
f 113//2 114//2 115//2
f 114//2 113//2 116//2
f 116//2 113//2 117//2
f 117//2 113//2 118//2
f 119//1 120//1 121//1
f 121//1 120//1 122//1
f 122//1 120//1 123//1
f 124//1 123//1 120//1
f 125//17 126//17 127//17
f 126//17 125//17 128//17
f 129//18 130//18 131//18
f 132//18 131//18 130//18
f 133//2 134//2 135//2
f 134//2 133//2 136//2
f 136//2 133//2 137//2
f 137//2 133//2 138//2
f 139//1 140//1 141//1
f 141//1 140//1 142//1
f 142//1 140//1 143//1
f 144//1 143//1 140//1
f 45//7 145//18 146//18
f 145//18 45//7 44//6
f 49//9 50//10 147//17
f 148//17 147//17 50//10
f 149//2 150//2 151//2
f 150//2 149//2 152//2
f 152//2 149//2 153//2
f 153//2 149//2 154//2
f 155//1 156//1 157//1
f 157//1 156//1 158//1
f 158//1 156//1 159//1
f 160//1 159//1 156//1
f 161//18 162//18 163//18
f 162//18 161//18 164//18
f 165//17 166//17 167//17
f 168//17 167//17 166//17
f 169//2 170//2 171//2
f 170//2 169//2 172//2
f 173//1 174//1 175//1
f 176//1 175//1 174//1
f 177//19 178//20 179//21
f 180//22 181//23 182//24
f 179//21 183//17 184//17
f 183//17 179//21 178//20
f 181//23 180//22 185//18
f 186//18 185//18 180//22
f 187//1 188//1 189//1
f 188//1 190//1 191//1
f 190//1 188//1 192//1
f 192//1 188//1 187//1
f 193//2 194//2 195//2
f 195//2 194//2 196//2
f 197//2 196//2 194//2
f 198//2 194//2 193//2
f 199//4 53//13 200//4
f 53//13 199//4 51//11
f 56//15 201//3 58//16
f 202//3 58//16 201//3
f 203//4 204//4 205//4
f 204//4 203//4 206//4
f 207//3 208//3 209//3
f 210//3 209//3 208//3
f 211//25 212//3 213//26
f 212//3 211//25 214//3
f 215//4 216//27 217//4
f 218//28 217//4 216//27
f 211//25 213//26 219//29
f 220//30 218//28 216//27
f 221//4 222//4 223//4
f 222//4 221//4 224//4
f 225//3 226//3 227//3
f 228//3 227//3 226//3
f 229//3 230//3 231//3
f 230//3 229//3 232//3
f 233//4 234//4 235//4
f 236//4 235//4 234//4
