# SSTK version 0.8.0
# 65
mtllib original-65.mtl
o #ID505
v -0.102103 0.471561 0.468412
v -0.106259 0.471331 0.468499
v -0.105054 0.471173 0.468558
v -0.108006 0.471561 0.468412
v -0.099352 0.472701 0.467985
v -0.110756 0.472701 0.467985
v -0.103849 0.473426 0.467712
v -0.102645 0.473584 0.467653
v -0.096990 0.474513 0.467304
v -0.106259 0.473426 0.467712
v -0.100399 0.474514 0.467303
v -0.095178 0.476875 0.466417
v -0.098471 0.475994 0.466748
v -0.096992 0.477922 0.466024
v -0.094039 0.479625 0.465384
v -0.096062 0.480167 0.465181
v -0.093650 0.482577 0.464276
v -0.095744 0.482577 0.464276
v -0.096062 0.484986 0.463371
v -0.094039 0.485528 0.463168
v -0.096992 0.487232 0.462528
v -0.095178 0.488279 0.462135
v -0.098471 0.489160 0.461804
v -0.096990 0.490641 0.461248
v -0.100399 0.490639 0.461248
v -0.102645 0.491569 0.460899
v -0.099352 0.492453 0.460567
v -0.103849 0.491728 0.460840
v -0.106259 0.491728 0.460840
v -0.107464 0.473584 0.467653
v -0.113118 0.474513 0.467304
v -0.109709 0.474514 0.467303
v -0.114930 0.476875 0.466417
v -0.111637 0.475994 0.466748
v -0.113116 0.477922 0.466024
v -0.116070 0.479625 0.465384
v -0.114047 0.480167 0.465181
v -0.116458 0.482577 0.464276
v -0.114364 0.482577 0.464276
v -0.114047 0.484986 0.463371
v -0.116070 0.485528 0.463168
v -0.113116 0.487232 0.462528
v -0.114930 0.488279 0.462135
v -0.111637 0.489160 0.461804
v -0.113118 0.490641 0.461248
v -0.109709 0.490639 0.461248
v -0.107464 0.491569 0.460899
v -0.110756 0.492453 0.460567
v -0.102103 0.493592 0.460140
v -0.108006 0.493592 0.460140
v -0.105054 0.493981 0.459994
vn 0 0.3515416202868696 0.9361722540249108
usemtl material_0_0
f 1//1 2//1 3//1
f 2//1 1//1 4//1
f 4//1 1//1 5//1
f 4//1 5//1 6//1
f 6//1 5//1 7//1
f 7//1 5//1 8//1
f 8//1 5//1 9//1
f 6//1 7//1 10//1
f 8//1 9//1 11//1
f 11//1 9//1 12//1
f 11//1 12//1 13//1
f 13//1 12//1 14//1
f 14//1 12//1 15//1
f 14//1 15//1 16//1
f 16//1 15//1 17//1
f 16//1 17//1 18//1
f 18//1 17//1 19//1
f 19//1 17//1 20//1
f 19//1 20//1 21//1
f 21//1 20//1 22//1
f 21//1 22//1 23//1
f 23//1 22//1 24//1
f 23//1 24//1 25//1
f 25//1 24//1 26//1
f 26//1 24//1 27//1
f 26//1 27//1 28//1
f 28//1 27//1 29//1
f 6//1 30//1 31//1
f 30//1 6//1 10//1
f 31//1 30//1 32//1
f 31//1 32//1 33//1
f 33//1 32//1 34//1
f 33//1 34//1 35//1
f 33//1 35//1 36//1
f 36//1 35//1 37//1
f 36//1 37//1 38//1
f 38//1 37//1 39//1
f 38//1 39//1 40//1
f 38//1 40//1 41//1
f 41//1 40//1 42//1
f 41//1 42//1 43//1
f 43//1 42//1 44//1
f 43//1 44//1 45//1
f 45//1 44//1 46//1
f 45//1 46//1 47//1
f 45//1 47//1 48//1
f 48//1 47//1 29//1
f 48//1 29//1 27//1
f 48//1 27//1 49//1
f 48//1 49//1 50//1
f 50//1 49//1 51//1
f 7//1 29//1 10//1
f 29//1 7//1 28//1
