# SSTK version 0.8.0
# 85
mtllib original-85.mtl
o #ID633
v 0.292944 -0.025082 0.389712
v 0.290593 -0.062445 0.475242
v 0.292944 -0.025082 0.475242
v 0.290593 -0.062445 0.389712
v 0.290593 0.012281 0.389712
v 0.290593 0.012281 0.475242
v 0.285569 -0.088782 0.389712
v 0.285569 -0.088782 0.475242
v 0.283578 0.049055 0.389712
v 0.283578 0.049055 0.475242
v 0.285569 -0.088782 0.389712
v 0.283578 -0.099219 0.475242
v 0.285569 -0.088782 0.475242
v 0.283578 -0.099219 0.389712
v 0.272009 0.084660 0.389712
v 0.272009 0.084660 0.475242
v 0.272009 -0.134824 0.475242
v 0.272009 -0.134824 0.389712
v 0.256069 0.118534 0.475242
v 0.256069 0.118534 0.389712
v 0.256069 -0.168698 0.475242
v 0.256069 -0.168698 0.389712
v 0.236010 0.150143 0.389712
v 0.236010 0.150143 0.475242
v 0.236010 -0.200307 0.475242
v 0.236010 -0.200307 0.389712
v 0.212146 0.178989 0.389712
v 0.212146 0.178989 0.475242
v 0.212146 -0.229153 0.475242
v 0.212146 -0.229153 0.389712
v 0.184856 0.204616 0.475242
v 0.184856 0.204616 0.389712
v 0.184856 -0.254781 0.389712
v 0.184856 -0.254781 0.475242
v 0.154569 0.226621 0.475242
v 0.154569 0.226621 0.389712
v 0.154569 -0.276786 0.389712
v 0.154569 -0.276786 0.475242
v 0.121762 0.244657 0.475242
v 0.121762 0.244657 0.389712
v 0.121762 -0.294821 0.389712
v 0.121762 -0.294821 0.475242
v 0.086954 0.258438 0.475242
v 0.086954 0.258438 0.389712
v 0.086954 -0.308603 0.389712
v 0.086954 -0.308603 0.475242
v 0.050693 0.267749 0.475242
v 0.050693 0.267749 0.389712
v 0.050693 -0.317913 0.389712
v 0.050693 -0.317913 0.475242
v 0.013551 0.272441 0.475242
v 0.013551 0.272441 0.389712
v 0.013551 -0.322605 0.389712
v 0.013551 -0.322605 0.475242
v -0.023886 0.272441 0.475242
v -0.023886 0.272441 0.389712
v -0.023886 -0.322605 0.389712
v -0.023886 -0.322605 0.475242
v -0.061028 0.267749 0.475242
v -0.061028 0.267749 0.389712
v -0.061028 -0.317913 0.389712
v -0.061028 -0.317913 0.475242
v -0.097289 0.258438 0.475242
v -0.097289 0.258438 0.389712
v -0.097289 -0.308603 0.389712
v -0.097289 -0.308603 0.475242
v -0.132097 0.244657 0.475242
v -0.132097 0.244657 0.389712
v -0.132097 -0.294821 0.389712
v -0.132097 -0.294821 0.475242
v -0.164903 0.226621 0.475242
v -0.164903 0.226621 0.389712
v -0.164903 -0.276786 0.389712
v -0.164903 -0.276786 0.475242
v -0.195190 0.204616 0.475242
v -0.195190 0.204616 0.389712
v -0.195190 -0.254781 0.389712
v -0.195190 -0.254781 0.475242
v -0.222481 0.178989 0.475242
v -0.222481 0.178989 0.389712
v -0.222481 -0.229153 0.389712
v -0.222481 -0.229153 0.475242
v -0.246344 0.150143 0.389712
v -0.246344 0.150143 0.475242
v -0.246344 -0.200307 0.475242
v -0.246344 -0.200307 0.389712
v -0.266404 0.118534 0.389712
v -0.266404 0.118534 0.475242
v -0.266404 -0.168698 0.475242
v -0.266404 -0.168698 0.389712
v -0.282344 0.084660 0.389712
v -0.282344 0.084660 0.475242
v -0.282344 -0.134824 0.475242
v -0.282344 -0.134824 0.389712
v -0.293913 0.049055 0.389712
v -0.293913 0.049055 0.475242
v -0.293913 -0.099219 0.389712
v -0.293913 -0.099219 0.475242
v -0.300928 0.012281 0.389712
v -0.300928 0.012281 0.475242
v -0.295904 -0.088782 0.475242
v -0.295904 -0.088782 0.389712
v -0.303278 -0.025082 0.389712
v -0.303278 -0.025082 0.475242
v -0.295904 -0.088782 0.389712
v -0.300928 -0.062445 0.475242
v -0.295904 -0.088782 0.475242
v -0.300928 -0.062445 0.389712
vn -1 0 0
vn -0.9921147054673806 0.1253332006906906 0
vn -0.9921147054673806 -0.1253332006906906 0
vn -0.9822872551433722 0.18738129144314172 0
vn -0.9685831604410063 -0.24868988984297663 0
vn -0.9685831604410063 0.24868988984297663 0
vn -0.9297764716058311 -0.368124588757952 0
vn -0.9297764716058311 0.368124588757952 0
vn -0.8763066737420931 -0.4817536855645931 0
vn -0.8763066737420931 0.4817536855645931 0
vn -0.8090169736320784 -0.5877852808425821 0
vn -0.8090169736320784 0.5877852808425821 0
vn -0.7289686175301027 -0.6845471164618626 0
vn -0.7289686175301027 0.6845471164618626 0
vn -0.6374240168438534 -0.7705132203607198 0
vn -0.6374240168438534 0.7705132203607198 0
vn -0.5358268100958747 -0.8443279159085524 0
vn -0.5358268100958747 0.8443279159085524 0
vn -0.42577928015806865 -0.9048270578337482 0
vn -0.42577928015806865 0.9048270578337482 0
vn -0.3090170042518809 -0.9510565130859434 0
vn -0.3090170042518809 0.9510565130859434 0
vn -0.18738129144314172 -0.9822872551433722 0
vn -0.18738129144314172 0.9822872551433722 0
vn -0.0627905217796479 -0.9980267282866925 0
vn -0.0627905217796479 0.9980267282866925 0
vn 0.0627905217796479 -0.9980267282866925 0
vn 0.0627905217796479 0.9980267282866925 0
vn 0.18738129144314172 -0.9822872551433722 0
vn 0.18738129144314172 0.9822872551433722 0
vn 0.3090170042518809 -0.9510565130859434 0
vn 0.3090170042518809 0.9510565130859434 0
vn 0.42577928015806865 -0.9048270578337482 0
vn 0.42577928015806865 0.9048270578337482 0
vn 0.5358268100958747 -0.8443279159085524 0
vn 0.5358268100958747 0.8443279159085524 0
vn 0.6374240168438534 -0.7705132203607198 0
vn 0.6374240168438534 0.7705132203607198 0
vn 0.7289686175301027 -0.6845471164618626 0
vn 0.7289686175301027 0.6845471164618626 0
vn 0.8090169736320784 -0.5877852808425821 0
vn 0.8090169736320784 0.5877852808425821 0
vn 0.8763066737420931 -0.4817536855645931 0
vn 0.8763066737420931 0.4817536855645931 0
vn 0.9297764716058311 -0.368124588757952 0
vn 0.9297764716058311 0.368124588757952 0
vn 0.9685831604410063 -0.24868988984297663 0
vn 0.9685831604410063 0.24868988984297663 0
vn 0.9921147054673806 -0.1253332006906906 0
vn 0.9822872551433722 0.18738129144314172 0
vn 1 0 0
vn 0.9921147054673806 0.1253332006906906 0
usemtl material_0_0
f 1//1 2//2 3//1
f 2//2 1//1 4//2
f 5//3 3//1 6//3
f 3//1 5//3 1//1
f 2//2 7//4 8//4
f 7//4 2//2 4//2
f 9//5 6//3 10//5
f 6//3 9//5 5//3
f 11//4 12//6 13//4
f 12//6 11//4 14//6
f 15//7 10//5 16//7
f 10//5 15//7 9//5
f 14//6 17//8 12//6
f 17//8 14//6 18//8
f 19//9 15//7 16//7
f 15//7 19//9 20//9
f 18//8 21//10 17//8
f 21//10 18//8 22//10
f 23//11 19//9 24//11
f 19//9 23//11 20//9
f 22//10 25//12 21//10
f 25//12 22//10 26//12
f 27//13 24//11 28//13
f 24//11 27//13 23//11
f 26//12 29//14 25//12
f 29//14 26//12 30//14
f 27//13 31//15 32//15
f 31//15 27//13 28//13
f 29//14 33//16 34//16
f 33//16 29//14 30//14
f 32//15 35//17 36//17
f 35//17 32//15 31//15
f 34//16 37//18 38//18
f 37//18 34//16 33//16
f 36//17 39//19 40//19
f 39//19 36//17 35//17
f 38//18 41//20 42//20
f 41//20 38//18 37//18
f 40//19 43//21 44//21
f 43//21 40//19 39//19
f 42//20 45//22 46//22
f 45//22 42//20 41//20
f 44//21 47//23 48//23
f 47//23 44//21 43//21
f 46//22 49//24 50//24
f 49//24 46//22 45//22
f 48//23 51//25 52//25
f 51//25 48//23 47//23
f 50//24 53//26 54//26
f 53//26 50//24 49//24
f 52//25 55//27 56//27
f 55//27 52//25 51//25
f 54//26 57//28 58//28
f 57//28 54//26 53//26
f 56//27 59//29 60//29
f 59//29 56//27 55//27
f 58//28 61//30 62//30
f 61//30 58//28 57//28
f 60//29 63//31 64//31
f 63//31 60//29 59//29
f 62//30 65//32 66//32
f 65//32 62//30 61//30
f 64//31 67//33 68//33
f 67//33 64//31 63//31
f 66//32 69//34 70//34
f 69//34 66//32 65//32
f 68//33 71//35 72//35
f 71//35 68//33 67//33
f 70//34 73//36 74//36
f 73//36 70//34 69//34
f 72//35 75//37 76//37
f 75//37 72//35 71//35
f 74//36 77//38 78//38
f 77//38 74//36 73//36
f 76//37 79//39 80//39
f 79//39 76//37 75//37
f 78//38 81//40 82//40
f 81//40 78//38 77//38
f 83//41 79//39 84//41
f 79//39 83//41 80//39
f 81//40 85//42 82//40
f 85//42 81//40 86//42
f 87//43 84//41 88//43
f 84//41 87//43 83//41
f 86//42 89//44 85//42
f 89//44 86//42 90//44
f 91//45 88//43 92//45
f 88//43 91//45 87//43
f 90//44 93//46 89//44
f 93//46 90//44 94//46
f 95//47 92//45 96//47
f 92//45 95//47 91//45
f 93//46 97//48 98//48
f 97//48 93//46 94//46
f 99//49 96//47 100//49
f 96//47 99//49 95//47
f 97//48 101//50 98//48
f 101//50 97//48 102//50
f 103//51 100//49 104//51
f 100//49 103//51 99//49
f 105//50 106//52 107//50
f 106//52 105//50 108//52
f 108//52 104//51 106//52
f 104//51 108//52 103//51
