# SSTK version 0.8.0
# 97
mtllib original-97.mtl
o #ID723
v 0.466925 0.626401 -0.566109
v -0.456229 0.625171 -0.565947
v 0.466763 0.625171 -0.565947
v -0.456391 0.626401 -0.566109
v -0.456391 0.626401 -0.566109
v 0.466925 0.626401 -0.566109
v -0.456229 0.625171 -0.565947
v 0.466763 0.625171 -0.565947
v 0.467399 0.627547 -0.566584
v -0.456866 0.627547 -0.566584
v -0.456866 0.627547 -0.566584
v 0.467399 0.627547 -0.566584
v -0.456229 0.625171 0.345561
v -0.456391 0.626401 0.345723
v -0.456229 0.625171 0.345561
v -0.456391 0.626401 0.345723
v -0.456067 0.623941 -0.565786
v 0.466601 0.623941 -0.565786
v -0.456229 0.625171 -0.565947
v -0.456229 0.625171 -0.565947
v -0.456067 0.623941 -0.565786
v 0.466601 0.623941 -0.565786
v 0.466763 0.625171 0.345561
v 0.466925 0.626401 0.345723
v 0.466763 0.625171 0.345561
v 0.466925 0.626401 0.345723
v 0.468154 0.628531 -0.567339
v -0.457621 0.628531 -0.567339
v -0.457621 0.628531 -0.567339
v 0.468154 0.628531 -0.567339
v -0.456866 0.627547 0.346197
v -0.456866 0.627547 0.346197
v 0.467399 0.627547 0.346197
v 0.467399 0.627547 0.346197
v 0.005267 0.625171 0.345561
v 0.005267 0.626401 0.345723
v 0.005267 0.626401 0.345723
v 0.005267 0.625171 0.345561
v -0.456067 0.623941 0.345398
v -0.456229 0.625171 0.345561
v -0.456067 0.623941 0.345398
v -0.456229 0.625171 0.345561
v -0.455593 0.622796 -0.565310
v 0.466126 0.622796 -0.565310
v -0.455593 0.622796 -0.565310
v 0.466126 0.622796 -0.565310
v 0.466601 0.623941 0.345398
v 0.466763 0.625171 0.345561
v 0.466601 0.623941 0.345398
v 0.466763 0.625171 0.345561
v 0.005267 0.625171 0.345561
v 0.005267 0.625171 0.345561
v 0.469139 0.629286 -0.568323
v -0.458605 0.629286 -0.568323
v 0.469139 0.629286 -0.568323
v -0.458605 0.629286 -0.568323
v -0.457621 0.628531 0.346953
v -0.457621 0.628531 0.346953
v 0.468154 0.628531 0.346953
v 0.468154 0.628531 0.346953
v 0.005267 0.627547 0.346197
v 0.005267 0.627547 0.346197
v 0.005267 0.625171 0.345561
v 0.005267 0.625171 0.345561
v -0.455593 0.622796 0.344924
v -0.455593 0.622796 0.344924
v -0.454837 0.621811 -0.564556
v 0.465371 0.621811 -0.564556
v -0.454837 0.621811 -0.564556
v 0.465371 0.621811 -0.564556
v 0.466126 0.622796 0.344924
v 0.466126 0.622796 0.344924
v 0.470285 0.629761 -0.569469
v -0.459751 0.629761 -0.569469
v 0.470285 0.629761 -0.569469
v -0.459751 0.629761 -0.569469
v -0.458605 0.629286 0.347936
v -0.458605 0.629286 0.347936
v 0.469139 0.629286 0.347936
v 0.469139 0.629286 0.347936
v 0.005267 0.628531 0.346953
v 0.005267 0.628531 0.346953
v -0.454837 0.621811 0.344168
v -0.454837 0.621811 0.344168
v -0.453853 0.621056 -0.563571
v 0.464387 0.621056 -0.563571
v 0.464387 0.621056 -0.563571
v -0.453853 0.621056 -0.563571
v 0.465371 0.621811 0.344168
v 0.465371 0.621811 0.344168
v 0.471514 0.629923 -0.570699
v -0.460981 0.629923 -0.570699
v 0.471514 0.629923 -0.570699
v -0.460981 0.629923 -0.570699
v -0.459751 0.629761 0.349083
v -0.459751 0.629761 0.349083
v 0.470285 0.629761 0.349083
v 0.470285 0.629761 0.349083
v 0.005267 0.629286 0.347936
v 0.005267 0.629286 0.347936
v -0.453853 0.621056 0.343185
v -0.453853 0.621056 0.343185
v -0.452707 0.620581 -0.562426
v 0.463241 0.620581 -0.562426
v 0.463241 0.620581 -0.562426
v -0.452707 0.620581 -0.562426
v 0.464387 0.621056 0.343185
v 0.464387 0.621056 0.343185
v -0.460981 0.629923 0.350313
v -0.460981 0.629923 0.350313
v 0.471514 0.629923 0.350313
v 0.471514 0.629923 0.350313
v 0.005267 0.629761 0.349083
v 0.005267 0.629761 0.349083
v -0.452707 0.620581 0.342038
v -0.452707 0.620581 0.342038
v -0.451477 0.620419 -0.561196
v 0.462011 0.620419 -0.561196
v 0.462011 0.620419 -0.561196
v -0.451477 0.620419 -0.561196
v 0.463241 0.620581 0.342038
v 0.463241 0.620581 0.342038
v 0.005267 0.629923 0.350313
v 0.005267 0.629923 0.350313
v 0.005267 0.629923 0.350313
v 0.005267 0.629923 0.350313
v -0.451477 0.620419 0.340809
v -0.451477 0.620419 0.340809
v -0.451477 0.620419 0.340809
v 0.462011 0.620419 -0.561196
v -0.451477 0.620419 -0.561196
v 0.462011 0.620419 0.340809
v 0.462011 0.620419 0.340809
v -0.451477 0.620419 0.340809
v 0.462011 0.620419 -0.561196
v -0.451477 0.620419 -0.561196
v 0.462011 0.620419 0.340809
v 0.462011 0.620419 0.340809
vt 11.75769 27.02449
vt 2.043746 27.00436
vt 11.75599 27.00436
vt 2.042042 27.02449
vt 11.76269 38.06839
vt 2.042042 38.04825
vt 11.75769 38.04825
vt 2.037047 38.06839
vt 22.35253 20.16044
vt 31.94563 20.18058
vt 22.35082 20.18058
vt 31.94393 20.16044
vt 2.04545 26.98422
vt 11.75428 26.98422
vt -31.94563 22.95936
vt -22.35253 22.93922
vt -22.35082 22.95936
vt -31.94393 22.93922
vt 11.77063 46.51867
vt 2.037047 46.49854
vt 11.76269 46.49854
vt 2.029101 46.51867
vt 22.35082 17.98292
vt 31.95063 18.00305
vt 22.34583 18.00305
vt 31.94563 17.98292
vt -31.95063 26.15002
vt -22.35082 26.12988
vt -22.34583 26.15002
vt -31.94563 26.12988
vt -2.042042 16.09111
vt -6.899867 16.07098
vt -2.043746 16.07098
vt -6.899867 16.09111
vt 22.35423 20.14031
vt 31.94222 20.14031
vt 11.75428 38.00935
vt 2.050445 37.98921
vt 11.74929 37.98921
vt 2.04545 38.00935
vt -22.35423 22.91909
vt -31.94222 22.91909
vt -11.75599 16.07098
vt -11.75769 16.09111
vt 2.029101 51.77934
vt 11.78099 51.79947
vt 2.018746 51.79947
vt 11.77063 51.77934
vt 22.34583 14.5792
vt 31.95857 14.59934
vt 22.33788 14.59934
vt 31.95063 14.5792
vt -31.95857 27.55928
vt -22.34583 27.53914
vt -22.33788 27.55928
vt -31.95063 27.53914
vt -2.037047 6.013341
vt -6.899867 5.993204
vt -2.042042 5.993204
vt -6.899867 6.013341
vt -11.75769 5.993204
vt -11.76269 6.013341
vt -11.75428 16.05084
vt -2.04545 16.05084
vt 22.35923 17.92388
vt 31.94222 17.94402
vt 22.35423 17.94402
vt 31.93723 17.92388
vt 11.74929 46.42476
vt 2.058391 46.40462
vt 11.74134 46.40462
vt 2.050445 46.42476
vt -31.94222 26.09098
vt -22.35923 26.07084
vt -22.35423 26.09098
vt -31.93723 26.07084
vt 2.018746 53.53077
vt 11.79305 53.55091
vt 2.006687 53.55091
vt 11.78099 53.53077
vt 22.33788 10.18125
vt 31.96893 10.20138
vt 22.32753 10.20138
vt 31.95857 10.18125
vt -22.32753 27.09111
vt -31.95857 27.07097
vt -22.33788 27.07097
vt -31.96893 27.09111
vt -2.029101 -4.473544
vt -6.899867 -4.493681
vt -2.037047 -4.493681
vt -6.899867 -4.473544
vt -11.76269 -4.493681
vt -11.77063 -4.473544
vt -2.04545 5.954304
vt -11.74929 5.934167
vt -2.050445 5.934167
vt -11.75428 5.954304
vt 22.36717 14.48528
vt 31.93723 14.50542
vt 22.35923 14.50542
vt 31.92928 14.48528
vt 2.068746 51.65694
vt 11.74134 51.67708
vt 2.058391 51.67708
vt 11.73099 51.65694
vt -31.93723 27.46537
vt -22.36717 27.44523
vt -22.35923 27.46537
vt -31.92928 27.44523
vt 2.006687 51.63349
vt 11.80599 51.65363
vt 1.993746 51.65363
vt 11.79305 51.63349
vt 22.32753 5.088771
vt 31.98099 5.108908
vt 22.31547 5.108908
vt 31.96893 5.088771
vt -22.31547 24.77741
vt -31.96893 24.75728
vt -22.32753 24.75728
vt -31.98099 24.77741
vt -6.899867 -14.65488
vt -2.029101 -14.67502
vt -2.018746 -14.65488
vt -6.899867 -14.67502
vt -11.78099 -14.65488
vt -11.77063 -14.67502
vt -2.050445 -4.567459
vt -11.74134 -4.587595
vt -2.058391 -4.587595
vt -11.74929 -4.567459
vt 22.36717 10.07899
vt 31.91893 10.05885
vt 31.92928 10.07899
vt 22.37753 10.05885
vt 2.080805 53.38824
vt 11.73099 53.40838
vt 2.068746 53.40838
vt 11.71893 53.38824
vt -22.36717 26.96872
vt -31.91893 26.94858
vt -22.37753 26.94858
vt -31.92928 26.96872
vt 22.31547 -0.3511807
vt 31.99393 -0.3310443
vt 22.30253 -0.3310443
vt 31.98099 -0.3511807
vt -22.30253 20.77586
vt -31.98099 20.75572
vt -22.31547 20.75572
vt -31.99393 20.77586
vt -6.899867 -23.83682
vt -2.018746 -23.85696
vt -2.006687 -23.83682
vt -6.899867 -23.85696
vt -11.79305 -23.83682
vt -11.78099 -23.85696
vt -11.74134 -14.77727
vt -2.068746 -14.79741
vt -2.058391 -14.77727
vt -11.73099 -14.79741
vt 22.37753 4.96638
vt 31.90687 4.946243
vt 31.91893 4.96638
vt 22.38959 4.946243
vt 2.093746 51.48054
vt 11.71893 51.50067
vt 2.080805 51.50067
vt 11.70599 51.48054
vt -22.37753 24.63488
vt -31.90687 24.61475
vt -22.38959 24.61475
vt -31.91893 24.63488
vt -6.899867 -31.39364
vt -2.006687 -31.41377
vt -1.993746 -31.39364
vt -6.899867 -31.41377
vt -11.80599 -31.39364
vt -11.79305 -31.41377
vt -11.73099 -23.97935
vt -2.080805 -23.99949
vt -2.068746 -23.97935
vt -11.71893 -23.99949
vt 22.38959 -0.4839958
vt 31.89393 -0.5041323
vt 31.90687 -0.4839958
vt 22.40253 -0.5041323
vt 2.093746 34.56068
vt 11.70599 49.20319
vt 2.093746 49.20319
vt 11.70599 34.56068
vt -22.38959 20.62291
vt -31.89393 20.60277
vt -22.40253 20.60277
vt -31.90687 20.62291
vt -11.71893 -31.54659
vt -2.093746 -31.56673
vt -2.080805 -31.54659
vt -11.70599 -31.56673
vn -0.6546294342268818 0.37804841976602 0.6546294342268819
vn 0.6951606330447362 0.1830393087008459 0.6951606330447362
vn -0.6951606330447362 0.1830393087008459 0.6951606330447362
vn 0.6546294342268818 0.37804841976602 0.6546294342268819
vn -0.5292288119237792 0.6631996149422056 0.5292288119237794
vn 0.5292288119237792 0.6631996149422056 0.5292288119237794
vn 0.695160633044736 0.18303930870084617 -0.695160633044736
vn 0.6546294342268818 0.3780484197660203 -0.6546294342268817
vn 0.6684175644059102 0.3262451826270268 0.6684175644059103
vn -0.6684175644059102 0.3262451826270268 0.6684175644059103
vn -0.695160633044736 0.18303930870084617 -0.695160633044736
vn -0.6546294342268818 0.3780484197660203 -0.6546294342268817
vn -0.381563792361009 0.8419133831447089 0.3815637923610092
vn 0.381563792361009 0.8419133831447089 0.3815637923610092
vn 0.5292288119237792 0.6631996149422058 -0.5292288119237791
vn -0.5292288119237792 0.6631996149422058 -0.5292288119237791
vn 0 0.13052619486885572 -0.9914448610250887
vn 0 0.25881900959356186 -0.9659258358036644
vn 0.6684175644059102 0.3262451826270271 -0.66841756440591
vn 0.56792917401901 0.5957456727464917 0.5679291740190101
vn -0.56792917401901 0.5957456727464917 0.5679291740190101
vn -0.6684175644059102 0.3262451826270271 -0.66841756440591
vn -0.2367719124448433 0.942272849526305 0.23677191244484352
vn 0.2367719124448433 0.942272849526305 0.23677191244484352
vn 0.381563792361009 0.8419133831447091 -0.38156379236100885
vn -0.381563792361009 0.8419133831447091 -0.38156379236100885
vn 0 0.5000000016387103 -0.8660254028383289
vn 0.56792917401901 0.5957456727464919 -0.5679291740190099
vn 0.43711397600282587 0.786042456846958 0.43711397600282603
vn -0.43711397600282587 0.786042456846958 0.43711397600282603
vn -0.56792917401901 0.5957456727464919 -0.5679291740190099
vn -0.09962510881869358 0.9900250882607606 0.0996251088186938
vn 0.09962510881869358 0.9900250882607606 0.0996251088186938
vn 0.23677191244484336 0.9422728495263052 -0.23677191244484314
vn -0.23677191244484336 0.9422728495263052 -0.23677191244484314
vn 0 0.7071067811865477 -0.7071067811865475
vn 0.43711397600282587 0.7860424568469582 -0.4371139760028257
vn 0.29955459021686476 0.9058333704164426 0.299554590216865
vn -0.29955459021686476 0.9058333704164426 0.299554590216865
vn -0.43711397600282587 0.7860424568469582 -0.4371139760028257
vn -0.06554285780824787 0.9956948667039796 0.06554285780824809
vn 0.06554285780824787 0.9956948667039796 0.06554285780824809
vn 0.09962510881869358 0.9900250882607606 -0.09962510881869335
vn -0.09962510881869358 0.9900250882607606 -0.09962510881869335
vn 0 0.8660254028383291 -0.5000000016387098
vn 0.29955459021686476 0.9058333704164429 -0.29955459021686454
vn 0.16461650656690568 0.9725239387960667 0.1646165065669059
vn -0.16461650656690568 0.9725239387960667 0.1646165065669059
vn -0.29955459021686476 0.9058333704164429 -0.29955459021686454
vn 0.06554285780824787 0.9956948667039796 -0.06554285780824765
vn -0.06554285780824787 0.9956948667039796 -0.06554285780824765
vn 0 0.9659258358036646 -0.2588190095935614
vn 0.16461650656690568 0.9725239387960667 -0.16461650656690546
vn -0.16461650656690568 0.9725239387960667 -0.16461650656690546
vn 0 0.9914448610250887 -0.13052619486885528
vn 0 1 0
vn -0.6546294342268818 -0.37804841976602 -0.6546294342268819
vn 0.6546294342268818 -0.37804841976602 -0.6546294342268819
vn -0.6951606330447362 -0.1830393087008459 -0.6951606330447362
vn 0.6951606330447362 -0.1830393087008459 -0.6951606330447362
vn -0.5292288119237792 -0.6631996149422056 -0.5292288119237794
vn 0.5292288119237792 -0.6631996149422056 -0.5292288119237794
vn -0.695160633044736 -0.18303930870084617 0.695160633044736
vn -0.6546294342268818 -0.3780484197660203 0.6546294342268817
vn -0.6684175644059102 -0.3262451826270268 -0.6684175644059103
vn 0.6684175644059102 -0.3262451826270268 -0.6684175644059103
vn 0.695160633044736 -0.18303930870084617 0.695160633044736
vn 0.6546294342268818 -0.3780484197660203 0.6546294342268817
vn -0.381563792361009 -0.8419133831447089 -0.3815637923610092
vn 0.381563792361009 -0.8419133831447089 -0.3815637923610092
vn -0.5292288119237792 -0.6631996149422058 0.5292288119237791
vn 0.5292288119237792 -0.6631996149422058 0.5292288119237791
vn 0 -0.25881900959356186 0.9659258358036644
vn 0 -0.13052619486885572 0.9914448610250887
vn -0.6684175644059102 -0.3262451826270271 0.66841756440591
vn -0.56792917401901 -0.5957456727464917 -0.5679291740190101
vn 0.56792917401901 -0.5957456727464917 -0.5679291740190101
vn 0.6684175644059102 -0.3262451826270271 0.66841756440591
vn 0.2367719124448433 -0.942272849526305 -0.23677191244484352
vn -0.2367719124448433 -0.942272849526305 -0.23677191244484352
vn -0.381563792361009 -0.8419133831447091 0.38156379236100885
vn 0.381563792361009 -0.8419133831447091 0.38156379236100885
vn 0 -0.5000000016387103 0.8660254028383289
vn -0.56792917401901 -0.5957456727464919 0.5679291740190099
vn -0.43711397600282587 -0.786042456846958 -0.43711397600282603
vn 0.43711397600282587 -0.786042456846958 -0.43711397600282603
vn 0.56792917401901 -0.5957456727464919 0.5679291740190099
vn 0.09962510881869358 -0.9900250882607606 -0.0996251088186938
vn -0.09962510881869358 -0.9900250882607606 -0.0996251088186938
vn -0.23677191244484336 -0.9422728495263052 0.23677191244484314
vn 0.23677191244484336 -0.9422728495263052 0.23677191244484314
vn 0 -0.7071067811865477 0.7071067811865475
vn -0.43711397600282587 -0.7860424568469582 0.4371139760028257
vn 0.29955459021686476 -0.9058333704164426 -0.299554590216865
vn -0.29955459021686476 -0.9058333704164426 -0.299554590216865
vn 0.43711397600282587 -0.7860424568469582 0.4371139760028257
vn 0.06554285780824787 -0.9956948667039796 -0.06554285780824809
vn -0.06554285780824787 -0.9956948667039796 -0.06554285780824809
vn -0.09962510881869358 -0.9900250882607606 0.09962510881869335
vn 0.09962510881869358 -0.9900250882607606 0.09962510881869335
vn 0 -0.8660254028383291 0.5000000016387098
vn -0.29955459021686476 -0.9058333704164429 0.29955459021686454
vn 0.16461650656690568 -0.9725239387960667 -0.1646165065669059
vn -0.16461650656690568 -0.9725239387960667 -0.1646165065669059
vn 0.29955459021686476 -0.9058333704164429 0.29955459021686454
vn -0.06554285780824787 -0.9956948667039796 0.06554285780824765
vn 0.06554285780824787 -0.9956948667039796 0.06554285780824765
vn 0 -0.9659258358036646 0.2588190095935614
vn -0.16461650656690568 -0.9725239387960667 0.16461650656690546
vn 0.16461650656690568 -0.9725239387960667 0.16461650656690546
vn 0 -0.9914448610250887 0.13052619486885528
vn 0 -1 0
usemtl material_0_0
f 1/1/1 2/2/2 3/3/3
f 2/2/2 1/1/1 4/4/4
f 9/5/5 4/6/4 1/7/1
f 4/6/4 9/5/5 10/8/6
f 13/9/7 4/10/4 14/11/8
f 4/10/4 13/9/7 2/12/2
f 3/3/3 17/13/9 18/14/10
f 17/13/9 3/3/3 19/2/2
f 1/15/1 23/16/11 24/17/12
f 23/16/11 1/15/1 3/18/3
f 27/19/13 10/20/6 9/21/5
f 10/20/6 27/19/13 28/22/14
f 14/23/8 10/24/6 31/25/15
f 10/24/6 14/23/8 4/26/4
f 9/27/5 24/28/12 33/29/16
f 24/28/12 9/27/5 1/30/1
f 14/31/8 35/32/17 13/33/7
f 35/32/17 14/31/8 36/34/18
f 39/35/19 19/12/2 40/9/7
f 19/12/2 39/35/19 17/36/9
f 18/37/10 43/38/20 44/39/21
f 43/38/20 18/37/10 17/40/9
f 3/18/3 47/41/22 48/16/11
f 47/41/22 3/18/3 18/42/10
f 36/34/18 23/43/11 51/32/17
f 23/43/11 36/34/18 24/44/12
f 28/45/14 53/46/23 54/47/24
f 53/46/23 28/45/14 27/48/13
f 31/49/15 28/50/14 57/51/25
f 28/50/14 31/49/15 10/52/6
f 27/53/13 33/54/16 59/55/26
f 33/54/16 27/53/13 9/56/5
f 31/57/15 36/58/18 14/59/8
f 36/58/18 31/57/15 61/60/27
f 61/60/27 24/61/12 36/58/18
f 24/61/12 61/60/27 33/62/16
f 40/33/7 47/63/22 39/64/19
f 47/63/22 40/33/7 48/43/11
f 48/43/11 40/33/7 63/32/17
f 65/65/28 17/66/9 39/67/19
f 17/66/9 65/65/28 43/68/20
f 44/69/21 67/70/29 68/71/30
f 67/70/29 44/69/21 43/72/20
f 18/73/10 71/74/31 47/75/22
f 71/74/31 18/73/10 44/76/21
f 54/77/24 73/78/32 74/79/33
f 73/78/32 54/77/24 53/80/23
f 57/81/25 54/82/24 77/83/34
f 54/82/24 57/81/25 28/84/14
f 79/85/35 27/86/13 59/87/26
f 27/86/13 79/85/35 53/88/23
f 57/89/25 61/90/27 31/91/15
f 61/90/27 57/89/25 81/92/36
f 81/92/36 33/93/16 61/90/27
f 33/93/16 81/92/36 59/94/26
f 39/95/19 71/96/31 65/97/28
f 71/96/31 39/95/19 47/98/22
f 83/99/37 43/100/20 65/101/28
f 43/100/20 83/99/37 67/102/29
f 85/103/38 68/104/30 67/105/29
f 68/104/30 85/103/38 86/106/39
f 44/107/21 89/108/40 71/109/31
f 89/108/40 44/107/21 68/110/30
f 74/111/33 91/112/41 92/113/42
f 91/112/41 74/111/33 73/114/32
f 77/115/34 74/116/33 95/117/43
f 74/116/33 77/115/34 54/118/24
f 97/119/44 53/120/23 79/121/35
f 53/120/23 97/119/44 73/122/32
f 99/123/45 57/124/25 77/125/34
f 57/124/25 99/123/45 81/126/36
f 79/127/35 81/126/36 99/123/45
f 81/126/36 79/127/35 59/128/26
f 65/129/28 89/130/40 83/131/37
f 89/130/40 65/129/28 71/132/31
f 83/133/37 85/134/38 67/135/29
f 85/134/38 83/133/37 101/136/46
f 103/137/47 86/138/39 85/139/38
f 86/138/39 103/137/47 104/140/48
f 89/141/40 86/142/39 107/143/49
f 86/142/39 89/141/40 68/144/30
f 95/145/43 92/146/42 109/147/50
f 92/146/42 95/145/43 74/148/33
f 111/149/51 73/150/32 97/151/44
f 73/150/32 111/149/51 91/152/41
f 113/153/52 77/154/34 95/155/43
f 77/154/34 113/153/52 99/156/45
f 97/157/44 99/156/45 113/153/52
f 99/156/45 97/157/44 79/158/35
f 89/159/40 101/160/46 83/161/37
f 101/160/46 89/159/40 107/162/49
f 101/163/46 103/164/47 85/165/38
f 103/164/47 101/163/46 115/166/53
f 117/167/42 104/168/48 103/169/47
f 104/168/48 117/167/42 118/170/41
f 107/171/49 104/172/48 121/173/54
f 104/172/48 107/171/49 86/174/39
f 123/175/55 95/176/43 109/177/50
f 95/176/43 123/175/55 113/178/52
f 111/179/51 113/178/52 125/175/55
f 113/178/52 111/179/51 97/180/44
f 107/181/49 115/182/53 101/183/46
f 115/182/53 107/181/49 121/184/54
f 115/185/53 117/186/42 103/187/47
f 117/186/42 115/185/53 127/188/50
f 129/189/56 130/190/56 131/191/56
f 130/190/56 129/189/56 132/192/56
f 121/193/54 118/194/41 137/195/51
f 118/194/41 121/193/54 104/196/48
f 121/197/54 127/198/50 115/199/53
f 127/198/50 121/197/54 137/200/51
usemtl material_1_0
f 5//57 6//58 7//59
f 8//60 7//59 6//58
f 11//61 12//62 5//57
f 6//58 5//57 12//62
f 7//59 15//63 5//57
f 16//64 5//57 15//63
f 20//59 8//60 21//65
f 22//66 21//65 8//60
f 8//60 6//58 25//67
f 26//68 25//67 6//58
f 29//69 30//70 11//61
f 12//62 11//61 30//70
f 5//57 16//64 11//61
f 32//71 11//61 16//64
f 6//58 12//62 26//68
f 34//72 26//68 12//62
f 37//73 16//64 38//74
f 15//63 38//74 16//64
f 21//65 41//75 20//59
f 42//63 20//59 41//75
f 21//65 22//66 45//76
f 46//77 45//76 22//66
f 22//66 8//60 49//78
f 50//67 49//78 8//60
f 26//68 37//73 25//67
f 52//74 25//67 37//73
f 30//70 29//69 55//79
f 56//80 55//79 29//69
f 11//61 32//71 29//69
f 58//81 29//69 32//71
f 12//62 30//70 34//72
f 60//82 34//72 30//70
f 62//83 32//71 37//73
f 16//64 37//73 32//71
f 34//72 62//83 26//68
f 37//73 26//68 62//83
f 64//74 42//63 50//67
f 50//67 42//63 49//78
f 41//75 49//78 42//63
f 45//76 66//84 21//65
f 41//75 21//65 66//84
f 45//76 46//77 69//85
f 70//86 69//85 46//77
f 46//77 22//66 72//87
f 49//78 72//87 22//66
f 55//79 56//80 75//88
f 76//89 75//88 56//80
f 29//69 58//81 56//80
f 78//90 56//80 58//81
f 55//79 80//91 30//70
f 60//82 30//70 80//91
f 82//92 58//81 62//83
f 32//71 62//83 58//81
f 60//82 82//92 34//72
f 62//83 34//72 82//92
f 49//78 41//75 72//87
f 66//84 72//87 41//75
f 69//85 84//93 45//76
f 66//84 45//76 84//93
f 87//94 88//95 70//86
f 69//85 70//86 88//95
f 70//86 46//77 90//96
f 72//87 90//96 46//77
f 75//88 76//89 93//97
f 94//98 93//97 76//89
f 56//80 78//90 76//89
f 96//99 76//89 78//90
f 75//88 98//100 55//79
f 80//91 55//79 98//100
f 82//92 100//101 58//81
f 78//90 58//81 100//101
f 60//82 80//91 82//92
f 100//101 82//92 80//91
f 72//87 66//84 90//96
f 84//93 90//96 66//84
f 102//102 84//93 88//95
f 69//85 88//95 84//93
f 105//103 106//104 87//94
f 88//95 87//94 106//104
f 70//86 90//96 87//94
f 108//105 87//94 90//96
f 76//89 96//99 94//98
f 110//106 94//98 96//99
f 93//97 112//107 75//88
f 98//100 75//88 112//107
f 100//101 114//108 78//90
f 96//99 78//90 114//108
f 80//91 98//100 100//101
f 114//108 100//101 98//100
f 108//105 90//96 102//102
f 84//93 102//102 90//96
f 116//109 102//102 106//104
f 88//95 106//104 102//102
f 119//97 120//98 105//103
f 106//104 105//103 120//98
f 87//94 108//105 105//103
f 122//110 105//103 108//105
f 114//108 124//111 96//99
f 110//106 96//99 124//111
f 98//100 112//107 114//108
f 126//111 114//108 112//107
f 122//110 108//105 116//109
f 102//102 116//109 108//105
f 128//106 116//109 120//98
f 106//104 120//98 116//109
f 133//112 134//112 135//112
f 136//112 135//112 134//112
f 105//103 122//110 119//97
f 138//107 119//97 122//110
f 138//107 122//110 128//106
f 116//109 128//106 122//110
