# SSTK version 0.8.0
# 43
mtllib original-43.mtl
o #ID340
v 0.359167 0.576005 0.419041
v 0.192419 0.502647 0.446587
v 0.359167 0.502647 0.446587
v 0.192419 0.576005 0.419041
v 0.192419 0.576005 0.419041
v 0.359167 0.576005 0.419041
v 0.192419 0.502647 0.446587
v 0.359167 0.502647 0.446587
vt 1 1
vt 2.664535e-15 0
vt 1 3.552714e-15
vt 8.881784e-16 1
vn 0 0.3515416202868696 0.9361722540249108
vn 0 -0.3515416202868696 -0.9361722540249108
usemtl material_0_0
f 5//2 6//2 7//2
f 8//2 7//2 6//2
usemtl material_1_0
f 1/1/1 2/2/1 3/3/1
f 2/2/1 1/1/1 4/4/1
