# SSTK version 0.8.0
# 105
mtllib original-105.mtl
o #ID773
v -0.123785 0.474839 0.457030
v -0.125075 0.479500 0.455366
v -0.124383 0.474713 0.457164
v -0.124455 0.479471 0.455290
v -0.124821 0.479488 0.455335
v -0.124821 0.479488 0.455335
v -0.124455 0.479471 0.455290
v -0.125075 0.479500 0.455366
v -0.123785 0.474839 0.457030
v -0.124383 0.474713 0.457164
v -0.123785 0.484103 0.453551
v -0.124383 0.484286 0.453569
v -0.124383 0.484286 0.453569
v -0.123785 0.484103 0.453551
v -0.125654 0.479583 0.455589
v -0.124941 0.474653 0.457440
v -0.125654 0.479583 0.455589
v -0.124941 0.474653 0.457440
v -0.121827 0.470537 0.458646
v -0.122360 0.470269 0.458833
v -0.121827 0.470537 0.458646
v -0.122360 0.470269 0.458833
v -0.121827 0.488406 0.451936
v -0.122360 0.488730 0.451900
v -0.122360 0.488730 0.451900
v -0.121827 0.488406 0.451936
v -0.124941 0.484513 0.453737
v -0.124941 0.484513 0.453737
v -0.125419 0.474662 0.457839
v -0.126150 0.479716 0.455942
v -0.126150 0.479716 0.455942
v -0.125419 0.474662 0.457839
v -0.122857 0.470076 0.459159
v -0.122857 0.470076 0.459159
v -0.118727 0.466861 0.460026
v -0.119160 0.466473 0.460258
v -0.118727 0.466861 0.460026
v -0.119160 0.466473 0.460258
v -0.118727 0.492081 0.450556
v -0.119160 0.492526 0.450475
v -0.119160 0.492526 0.450475
v -0.118727 0.492081 0.450556
v -0.122857 0.489090 0.452018
v -0.122857 0.489090 0.452018
v -0.125419 0.484769 0.454045
v -0.125419 0.484769 0.454045
v -0.126531 0.479889 0.456403
v -0.125786 0.474741 0.458336
v -0.126531 0.479889 0.456403
v -0.125786 0.474741 0.458336
v -0.123284 0.469972 0.459602
v -0.123284 0.469972 0.459602
v -0.119563 0.466169 0.460626
v -0.119563 0.466169 0.460626
v -0.114709 0.464054 0.461080
v -0.115013 0.463577 0.461346
v -0.114709 0.464054 0.461080
v -0.115013 0.463577 0.461346
v -0.114709 0.494888 0.449502
v -0.115013 0.495422 0.449387
v -0.115013 0.495422 0.449387
v -0.114709 0.494888 0.449502
v -0.119563 0.492997 0.450552
v -0.119563 0.492997 0.450552
v -0.123284 0.489460 0.452283
v -0.123284 0.489460 0.452283
v -0.125786 0.485037 0.454470
v -0.125786 0.485037 0.454470
v -0.126771 0.480090 0.456939
v -0.126017 0.474883 0.458894
v -0.126771 0.480090 0.456939
v -0.126017 0.474883 0.458894
v -0.123612 0.469963 0.460130
v -0.123612 0.469963 0.460130
v -0.119909 0.465969 0.461104
v -0.119909 0.465969 0.461104
v -0.115296 0.463189 0.461745
v -0.115296 0.463189 0.461745
v -0.110047 0.462297 0.461740
v -0.110203 0.461764 0.462026
v -0.110047 0.462297 0.461740
v -0.110203 0.461764 0.462026
v -0.110047 0.496645 0.448842
v -0.110203 0.497235 0.448707
v -0.110203 0.497235 0.448707
v -0.110047 0.496645 0.448842
v -0.115296 0.495977 0.449432
v -0.115296 0.495977 0.449432
v -0.119909 0.493463 0.450780
v -0.119909 0.493463 0.450780
v -0.123612 0.489815 0.452675
v -0.123612 0.489815 0.452675
v -0.126017 0.485298 0.454984
v -0.126017 0.485298 0.454984
v -0.126852 0.480306 0.457515
v -0.126096 0.475078 0.459478
v -0.126852 0.480306 0.457515
v -0.126096 0.475078 0.459478
v -0.123818 0.470050 0.460710
v -0.123818 0.470050 0.460710
v -0.120175 0.465886 0.461661
v -0.120175 0.465886 0.461661
v -0.115539 0.462916 0.462251
v -0.115539 0.462916 0.462251
v -0.110349 0.461324 0.462445
v -0.110349 0.461324 0.462445
v -0.105054 0.461492 0.462075
v -0.105054 0.461147 0.462258
v -0.105054 0.461699 0.461965
v -0.105054 0.461699 0.461965
v -0.105054 0.461492 0.462075
v -0.105054 0.461147 0.462258
v -0.105054 0.497243 0.448617
v -0.105054 0.497852 0.448475
v -0.105054 0.497472 0.448564
v -0.105054 0.497472 0.448564
v -0.105054 0.497243 0.448617
v -0.105054 0.497852 0.448475
v -0.110349 0.497842 0.448732
v -0.110349 0.497842 0.448732
v -0.115539 0.496515 0.449634
v -0.115539 0.496515 0.449634
v -0.120175 0.493891 0.451145
v -0.120175 0.493891 0.451145
v -0.123818 0.490131 0.453169
v -0.123818 0.490131 0.453169
v -0.126096 0.485534 0.455552
v -0.126096 0.485534 0.455552
v -0.126096 0.475078 0.459478
v -0.126934 0.480522 0.458090
v -0.126175 0.475274 0.460061
v -0.126852 0.480306 0.457515
v -0.126852 0.480306 0.457515
v -0.126096 0.475078 0.459478
v -0.126934 0.480522 0.458090
v -0.126175 0.475274 0.460061
v -0.123888 0.470227 0.461300
v -0.123888 0.470227 0.461300
v -0.120342 0.465927 0.462258
v -0.120342 0.465927 0.462258
v -0.115725 0.462779 0.462828
v -0.115725 0.462779 0.462828
v -0.110474 0.461007 0.462968
v -0.110474 0.461007 0.462968
v -0.105054 0.460690 0.462683
v -0.105054 0.460690 0.462683
v -0.099905 0.461764 0.462026
v -0.100061 0.462297 0.461740
v -0.100061 0.462297 0.461740
v -0.099905 0.461764 0.462026
v -0.099905 0.497235 0.448707
v -0.100061 0.496645 0.448842
v -0.099905 0.497235 0.448707
v -0.100061 0.496645 0.448842
v -0.105054 0.498476 0.448494
v -0.105054 0.498476 0.448494
v -0.110474 0.498424 0.448917
v -0.110474 0.498424 0.448917
v -0.115725 0.496999 0.449978
v -0.115725 0.496999 0.449978
v -0.120342 0.494253 0.451621
v -0.120342 0.494253 0.451621
v -0.123888 0.490386 0.453730
v -0.123888 0.490386 0.453730
v -0.126175 0.485771 0.456120
v -0.126096 0.485534 0.455552
v -0.126096 0.485534 0.455552
v -0.126175 0.485771 0.456120
v -0.127174 0.480724 0.458628
v -0.126406 0.475416 0.460620
v -0.127174 0.480724 0.458628
v -0.126406 0.475416 0.460620
v -0.123888 0.470227 0.461300
v -0.123958 0.470404 0.461890
v -0.123888 0.470227 0.461300
v -0.123958 0.470404 0.461890
v -0.120399 0.466088 0.462854
v -0.120399 0.466088 0.462854
v -0.115842 0.462785 0.463437
v -0.115842 0.462785 0.463437
v -0.110570 0.460835 0.463558
v -0.110570 0.460835 0.463558
v -0.105054 0.460358 0.463212
v -0.105054 0.460358 0.463212
v -0.099759 0.461324 0.462445
v -0.099759 0.461324 0.462445
v -0.095096 0.463577 0.461346
v -0.095399 0.464054 0.461080
v -0.095399 0.464054 0.461080
v -0.095096 0.463577 0.461346
v -0.095096 0.495422 0.449387
v -0.095399 0.494888 0.449502
v -0.095096 0.495422 0.449387
v -0.095399 0.494888 0.449502
v -0.099759 0.497842 0.448732
v -0.099759 0.497842 0.448732
v -0.105054 0.499074 0.448673
v -0.105054 0.499074 0.448673
v -0.110570 0.498942 0.449249
v -0.110570 0.498942 0.449249
v -0.115842 0.497396 0.450441
v -0.115842 0.497396 0.450441
v -0.120399 0.494524 0.452175
v -0.120399 0.494524 0.452175
v -0.123958 0.490641 0.454291
v -0.123888 0.490386 0.453730
v -0.123888 0.490386 0.453730
v -0.123958 0.490641 0.454291
v -0.126406 0.486032 0.456634
v -0.126406 0.486032 0.456634
v -0.127555 0.480897 0.459087
v -0.126773 0.475495 0.461116
v -0.127555 0.480897 0.459087
v -0.126773 0.475495 0.461116
v -0.124164 0.470491 0.462469
v -0.124164 0.470491 0.462469
v -0.120399 0.466088 0.462854
v -0.120456 0.466250 0.463450
v -0.120399 0.466088 0.462854
v -0.120456 0.466250 0.463450
v -0.115882 0.462934 0.464038
v -0.115882 0.462934 0.464038
v -0.110631 0.460820 0.464176
v -0.110631 0.460820 0.464176
v -0.105054 0.460175 0.463805
v -0.105054 0.460175 0.463805
v -0.099634 0.461007 0.462968
v -0.099634 0.461007 0.462968
v -0.094813 0.463189 0.461745
v -0.094813 0.463189 0.461745
v -0.090948 0.466473 0.460258
v -0.091381 0.466861 0.460026
v -0.091381 0.466861 0.460026
v -0.090948 0.466473 0.460258
v -0.090948 0.492526 0.450475
v -0.091381 0.492081 0.450556
v -0.090948 0.492526 0.450475
v -0.091381 0.492081 0.450556
v -0.094813 0.495977 0.449432
v -0.094813 0.495977 0.449432
v -0.099634 0.498424 0.448917
v -0.099634 0.498424 0.448917
v -0.105054 0.499603 0.449000
v -0.105054 0.499603 0.449000
v -0.110631 0.499360 0.449704
v -0.110631 0.499360 0.449704
v -0.115882 0.497678 0.450991
v -0.115882 0.497678 0.450991
v -0.120456 0.494795 0.452731
v -0.120399 0.494524 0.452175
v -0.120399 0.494524 0.452175
v -0.120456 0.494795 0.452731
v -0.124164 0.490957 0.454785
v -0.124164 0.490957 0.454785
v -0.126773 0.486299 0.457059
v -0.126773 0.486299 0.457059
v -0.127252 0.475504 0.461516
v -0.128051 0.481030 0.459441
v -0.128051 0.481030 0.459441
v -0.127252 0.475504 0.461516
v -0.124492 0.470482 0.462999
v -0.124492 0.470482 0.462999
v -0.120622 0.466290 0.464047
v -0.120622 0.466290 0.464047
v -0.115922 0.463084 0.464639
v -0.115882 0.462934 0.464038
v -0.115882 0.462934 0.464038
v -0.115922 0.463084 0.464639
v -0.110651 0.460962 0.464779
v -0.110651 0.460962 0.464779
v -0.105054 0.460152 0.464426
v -0.105054 0.460152 0.464426
v -0.099538 0.460835 0.463558
v -0.099538 0.460835 0.463558
v -0.094570 0.462916 0.462251
v -0.094570 0.462916 0.462251
v -0.090545 0.466169 0.460626
v -0.090545 0.466169 0.460626
v -0.087748 0.470269 0.458833
v -0.088281 0.470537 0.458646
v -0.088281 0.470537 0.458646
v -0.087748 0.470269 0.458833
v -0.087748 0.488730 0.451900
v -0.088281 0.488406 0.451936
v -0.087748 0.488730 0.451900
v -0.088281 0.488406 0.451936
v -0.090545 0.492997 0.450552
v -0.090545 0.492997 0.450552
v -0.094570 0.496515 0.449634
v -0.094570 0.496515 0.449634
v -0.099538 0.498942 0.449249
v -0.099538 0.498942 0.449249
v -0.105054 0.500028 0.449452
v -0.105054 0.500028 0.449452
v -0.110651 0.499650 0.450251
v -0.110651 0.499650 0.450251
v -0.115922 0.497961 0.451542
v -0.115882 0.497678 0.450991
v -0.115882 0.497678 0.450991
v -0.115922 0.497961 0.451542
v -0.120622 0.495157 0.453207
v -0.120622 0.495157 0.453207
v -0.124492 0.491312 0.455177
v -0.124492 0.491312 0.455177
v -0.127252 0.486555 0.457366
v -0.127252 0.486555 0.457366
v -0.128629 0.481113 0.459663
v -0.127809 0.475444 0.461792
v -0.128629 0.481113 0.459663
v -0.127809 0.475444 0.461792
v -0.124919 0.470378 0.463441
v -0.124919 0.470378 0.463441
v -0.120888 0.466208 0.464603
v -0.120888 0.466208 0.464603
v -0.116040 0.463090 0.465249
v -0.116040 0.463090 0.465249
v -0.110672 0.461105 0.465382
v -0.110651 0.460962 0.464779
v -0.110651 0.460962 0.464779
v -0.110672 0.461105 0.465382
v -0.105054 0.460292 0.465030
v -0.105054 0.460292 0.465030
v -0.099477 0.460820 0.464176
v -0.099477 0.460820 0.464176
v -0.094383 0.462779 0.462828
v -0.094383 0.462779 0.462828
v -0.090199 0.465969 0.461104
v -0.090199 0.465969 0.461104
v -0.087251 0.470076 0.459159
v -0.087251 0.470076 0.459159
v -0.085725 0.474713 0.457164
v -0.086323 0.474839 0.457030
v -0.086323 0.474839 0.457030
v -0.085725 0.474713 0.457164
v -0.085725 0.484286 0.453569
v -0.086323 0.484103 0.453551
v -0.085725 0.484286 0.453569
v -0.086323 0.484103 0.453551
v -0.087251 0.489090 0.452018
v -0.087251 0.489090 0.452018
v -0.090199 0.493463 0.450780
v -0.090199 0.493463 0.450780
v -0.094383 0.496999 0.449978
v -0.094383 0.496999 0.449978
v -0.099477 0.499360 0.449704
v -0.099477 0.499360 0.449704
v -0.105054 0.500321 0.449999
v -0.105054 0.500321 0.449999
v -0.110672 0.499940 0.450799
v -0.110651 0.499650 0.450251
v -0.110651 0.499650 0.450251
v -0.110672 0.499940 0.450799
v -0.116040 0.498358 0.452005
v -0.116040 0.498358 0.452005
v -0.120888 0.495586 0.453572
v -0.120888 0.495586 0.453572
v -0.124919 0.491681 0.455441
v -0.124919 0.491681 0.455441
v -0.127809 0.486783 0.457534
v -0.127809 0.486783 0.457534
v -0.129250 0.481141 0.459739
v -0.128408 0.475318 0.461926
v -0.129250 0.481141 0.459739
v -0.128408 0.475318 0.461926
v -0.125416 0.470185 0.463767
v -0.125416 0.470185 0.463767
v -0.121234 0.466008 0.465082
v -0.121234 0.466008 0.465082
v -0.116226 0.462952 0.465826
v -0.116226 0.462952 0.465826
v -0.110732 0.461089 0.466000
v -0.110732 0.461089 0.466000
v -0.105054 0.460432 0.465635
v -0.105054 0.460292 0.465030
v -0.105054 0.460292 0.465030
v -0.105054 0.460432 0.465635
v -0.099457 0.460962 0.464779
v -0.099457 0.460962 0.464779
v -0.094266 0.462785 0.463437
v -0.094266 0.462785 0.463437
v -0.089934 0.465886 0.461661
v -0.089934 0.465886 0.461661
v -0.086824 0.469972 0.459602
v -0.086824 0.469972 0.459602
v -0.085168 0.474653 0.457440
v -0.085168 0.474653 0.457440
v -0.085033 0.479500 0.455366
v -0.085653 0.479471 0.455290
v -0.085287 0.479488 0.455335
v -0.085287 0.479488 0.455335
v -0.085033 0.479500 0.455366
v -0.085653 0.479471 0.455290
v -0.085168 0.484513 0.453737
v -0.085168 0.484513 0.453737
v -0.086824 0.489460 0.452283
v -0.086824 0.489460 0.452283
v -0.089934 0.493891 0.451145
v -0.089934 0.493891 0.451145
v -0.094266 0.497396 0.450441
v -0.094266 0.497396 0.450441
v -0.099457 0.499650 0.450251
v -0.099457 0.499650 0.450251
v -0.105054 0.500613 0.450546
v -0.105054 0.500321 0.449999
v -0.105054 0.500321 0.449999
v -0.105054 0.500613 0.450546
v -0.110732 0.500359 0.451254
v -0.110732 0.500359 0.451254
v -0.116226 0.498842 0.452349
v -0.116226 0.498842 0.452349
v -0.121234 0.496052 0.453800
v -0.121234 0.496052 0.453800
v -0.125416 0.492041 0.455560
v -0.125416 0.492041 0.455560
v -0.128408 0.486965 0.457552
v -0.128408 0.486965 0.457552
v -0.125950 0.469917 0.463954
v -0.125950 0.469917 0.463954
v -0.121637 0.465703 0.465450
v -0.121637 0.465703 0.465450
v -0.116469 0.462680 0.466331
v -0.116469 0.462680 0.466331
v -0.110828 0.460917 0.466590
v -0.110828 0.460917 0.466590
v -0.105054 0.460409 0.466255
v -0.105054 0.460409 0.466255
v -0.099457 0.460962 0.464779
v -0.099436 0.461105 0.465382
v -0.099436 0.461105 0.465382
v -0.099457 0.460962 0.464779
v -0.094226 0.462934 0.464038
v -0.094226 0.462934 0.464038
v -0.089766 0.465927 0.462258
v -0.089766 0.465927 0.462258
v -0.086496 0.469963 0.460130
v -0.086496 0.469963 0.460130
v -0.084689 0.474662 0.457839
v -0.084689 0.474662 0.457839
v -0.084455 0.479583 0.455589
v -0.084455 0.479583 0.455589
v -0.084689 0.484769 0.454045
v -0.084689 0.484769 0.454045
v -0.086496 0.489815 0.452675
v -0.086496 0.489815 0.452675
v -0.089766 0.494253 0.451621
v -0.089766 0.494253 0.451621
v -0.094226 0.497678 0.450991
v -0.094226 0.497678 0.450991
v -0.099457 0.499650 0.450251
v -0.099436 0.499940 0.450799
v -0.099436 0.499940 0.450799
v -0.099457 0.499650 0.450251
v -0.105054 0.501039 0.450999
v -0.105054 0.501039 0.450999
v -0.110828 0.500876 0.451585
v -0.110828 0.500876 0.451585
v -0.116469 0.499379 0.452551
v -0.116469 0.499379 0.452551
v -0.121637 0.496523 0.453877
v -0.121637 0.496523 0.453877
v -0.125950 0.492366 0.455525
v -0.125950 0.492366 0.455525
v -0.122070 0.465316 0.465682
v -0.122070 0.465316 0.465682
v -0.116752 0.462292 0.466731
v -0.116752 0.462292 0.466731
v -0.110953 0.460601 0.467112
v -0.110953 0.460601 0.467112
v -0.105054 0.460226 0.466850
v -0.105054 0.460226 0.466850
v -0.099376 0.461089 0.466000
v -0.099376 0.461089 0.466000
v -0.094226 0.462934 0.464038
v -0.094186 0.463084 0.464639
v -0.094186 0.463084 0.464639
v -0.094226 0.462934 0.464038
v -0.089710 0.466088 0.462854
v -0.089710 0.466088 0.462854
v -0.086290 0.470050 0.460710
v -0.086290 0.470050 0.460710
v -0.084322 0.474741 0.458336
v -0.084322 0.474741 0.458336
v -0.083958 0.479716 0.455942
v -0.083958 0.479716 0.455942
v -0.084322 0.485037 0.454470
v -0.084322 0.485037 0.454470
v -0.086290 0.490131 0.453169
v -0.086290 0.490131 0.453169
v -0.089710 0.494524 0.452175
v -0.089710 0.494524 0.452175
v -0.094226 0.497678 0.450991
v -0.094186 0.497961 0.451542
v -0.094186 0.497961 0.451542
v -0.094226 0.497678 0.450991
v -0.099376 0.500359 0.451254
v -0.099376 0.500359 0.451254
v -0.105054 0.501568 0.451326
v -0.105054 0.501568 0.451326
v -0.110953 0.501459 0.451770
v -0.110953 0.501459 0.451770
v -0.116752 0.499934 0.452595
v -0.116752 0.499934 0.452595
v -0.122070 0.496967 0.453796
v -0.122070 0.496967 0.453796
v -0.117056 0.461814 0.466996
v -0.117056 0.461814 0.466996
v -0.111099 0.460161 0.467531
v -0.111099 0.460161 0.467531
v -0.105054 0.459894 0.467378
v -0.105054 0.459894 0.467378
v -0.099280 0.460917 0.466590
v -0.099280 0.460917 0.466590
v -0.094069 0.463090 0.465249
v -0.094069 0.463090 0.465249
v -0.089710 0.466088 0.462854
v -0.089653 0.466250 0.463450
v -0.089653 0.466250 0.463450
v -0.089710 0.466088 0.462854
v -0.086220 0.470227 0.461300
v -0.086220 0.470227 0.461300
v -0.084091 0.474883 0.458894
v -0.084091 0.474883 0.458894
v -0.083577 0.479889 0.456403
v -0.083577 0.479889 0.456403
v -0.084091 0.485298 0.454984
v -0.084091 0.485298 0.454984
v -0.086220 0.490386 0.453730
v -0.086220 0.490386 0.453730
v -0.089710 0.494524 0.452175
v -0.089653 0.494795 0.452731
v -0.089653 0.494795 0.452731
v -0.089710 0.494524 0.452175
v -0.094069 0.498358 0.452005
v -0.094069 0.498358 0.452005
v -0.099280 0.500876 0.451585
v -0.099280 0.500876 0.451585
v -0.105054 0.502165 0.451504
v -0.105054 0.502165 0.451504
v -0.111099 0.502065 0.451795
v -0.111099 0.502065 0.451795
v -0.117056 0.500469 0.452482
v -0.117056 0.500469 0.452482
v -0.111256 0.459628 0.467818
v -0.111256 0.459628 0.467818
v -0.105054 0.459437 0.467803
v -0.105054 0.459437 0.467803
v -0.099155 0.460601 0.467112
v -0.099155 0.460601 0.467112
v -0.093882 0.462952 0.465826
v -0.093882 0.462952 0.465826
v -0.089486 0.466290 0.464047
v -0.089486 0.466290 0.464047
v -0.086150 0.470404 0.461890
v -0.086220 0.470227 0.461300
v -0.086220 0.470227 0.461300
v -0.086150 0.470404 0.461890
v -0.084012 0.475078 0.459478
v -0.084012 0.475078 0.459478
v -0.083337 0.480090 0.456939
v -0.083337 0.480090 0.456939
v -0.084012 0.485534 0.455552
v -0.084012 0.485534 0.455552
v -0.086220 0.490386 0.453730
v -0.086150 0.490641 0.454291
v -0.086220 0.490386 0.453730
v -0.086150 0.490641 0.454291
v -0.089486 0.495157 0.453207
v -0.089486 0.495157 0.453207
v -0.093882 0.498842 0.452349
v -0.093882 0.498842 0.452349
v -0.099155 0.501459 0.451770
v -0.099155 0.501459 0.451770
v -0.106507 0.502616 0.451589
v -0.105054 0.502611 0.451518
v -0.105054 0.502611 0.451518
v -0.106507 0.502616 0.451589
v -0.111346 0.502621 0.451673
v -0.111247 0.502621 0.451668
v -0.111247 0.502621 0.451668
v -0.111346 0.502621 0.451673
v -0.105054 0.458885 0.468097
v -0.105054 0.458885 0.468097
v -0.099009 0.460161 0.467531
v -0.099009 0.460161 0.467531
v -0.093639 0.462680 0.466331
v -0.093639 0.462680 0.466331
v -0.089220 0.466208 0.464603
v -0.089220 0.466208 0.464603
v -0.085944 0.470491 0.462469
v -0.085944 0.470491 0.462469
v -0.083933 0.475274 0.460061
v -0.084012 0.475078 0.459478
v -0.084012 0.475078 0.459478
v -0.083933 0.475274 0.460061
v -0.083256 0.480306 0.457515
v -0.083256 0.480306 0.457515
v -0.084012 0.485534 0.455552
v -0.083933 0.485771 0.456120
v -0.084012 0.485534 0.455552
v -0.083933 0.485771 0.456120
v -0.085944 0.490957 0.454785
v -0.085944 0.490957 0.454785
v -0.089220 0.495586 0.453572
v -0.089220 0.495586 0.453572
v -0.093639 0.499379 0.452551
v -0.093639 0.499379 0.452551
v -0.099009 0.502065 0.451795
v -0.103601 0.502616 0.451589
v -0.103601 0.502616 0.451589
v -0.099009 0.502065 0.451795
v -0.098852 0.459628 0.467818
v -0.098852 0.459628 0.467818
v -0.093356 0.462292 0.466731
v -0.093356 0.462292 0.466731
v -0.088874 0.466008 0.465082
v -0.088874 0.466008 0.465082
v -0.085616 0.470482 0.462999
v -0.085616 0.470482 0.462999
v -0.083702 0.475416 0.460620
v -0.083702 0.475416 0.460620
v -0.083174 0.480522 0.458090
v -0.083256 0.480306 0.457515
v -0.083256 0.480306 0.457515
v -0.083174 0.480522 0.458090
v -0.083702 0.486032 0.456634
v -0.083702 0.486032 0.456634
v -0.085616 0.491312 0.455177
v -0.085616 0.491312 0.455177
v -0.088874 0.496052 0.453800
v -0.088874 0.496052 0.453800
v -0.093356 0.499934 0.452595
v -0.093356 0.499934 0.452595
v -0.098862 0.502621 0.451668
v -0.098862 0.502621 0.451668
v -0.093052 0.461814 0.466996
v -0.093052 0.461814 0.466996
v -0.088471 0.465703 0.465450
v -0.088471 0.465703 0.465450
v -0.085189 0.470378 0.463441
v -0.085189 0.470378 0.463441
v -0.083335 0.475495 0.461116
v -0.083335 0.475495 0.461116
v -0.082935 0.480724 0.458628
v -0.082935 0.480724 0.458628
v -0.083335 0.486299 0.457059
v -0.083335 0.486299 0.457059
v -0.085189 0.491681 0.455441
v -0.085189 0.491681 0.455441
v -0.088471 0.496523 0.453877
v -0.088471 0.496523 0.453877
v -0.093052 0.500469 0.452482
v -0.098762 0.502621 0.451673
v -0.098762 0.502621 0.451673
v -0.093052 0.500469 0.452482
v -0.088038 0.465316 0.465682
v -0.088038 0.465316 0.465682
v -0.084692 0.470185 0.463767
v -0.084692 0.470185 0.463767
v -0.082856 0.475504 0.461516
v -0.082856 0.475504 0.461516
v -0.082553 0.480897 0.459087
v -0.082553 0.480897 0.459087
v -0.082856 0.486555 0.457366
v -0.082856 0.486555 0.457366
v -0.084692 0.492041 0.455560
v -0.084692 0.492041 0.455560
v -0.088038 0.496967 0.453796
v -0.088038 0.496967 0.453796
v -0.084159 0.469917 0.463954
v -0.084159 0.469917 0.463954
v -0.082299 0.475444 0.461792
v -0.082299 0.475444 0.461792
v -0.082057 0.481030 0.459441
v -0.082057 0.481030 0.459441
v -0.082299 0.486783 0.457534
v -0.082299 0.486783 0.457534
v -0.084159 0.492366 0.455525
v -0.084159 0.492366 0.455525
v -0.081701 0.475318 0.461926
v -0.081701 0.475318 0.461926
v -0.081479 0.481113 0.459663
v -0.081479 0.481113 0.459663
v -0.081701 0.486965 0.457552
v -0.081701 0.486965 0.457552
v -0.080858 0.481141 0.459739
v -0.080858 0.481141 0.459739
vn 0.12473189751219364 0.38074069240603914 0.9162305817255706
vn 0.2670127140850158 0.33877821787067147 0.9021826475904563
vn 0.2574098901225713 0.40513568445398157 0.8772714663370109
vn 0.12936530111841413 0.3485876030136773 0.9283056080255687
vn 0.12473190425045115 0.3164338107830184 0.9403784320449897
vn 0.2574099128887373 0.2724251136405612 0.927105546420978
vn 0.5050019879725469 0.303421992773506 0.8080272807555013
vn 0.48687541215107155 0.42893031070492094 0.7609015189900098
vn 0.11128460070493176 0.4103987025996684 0.9050904057332908
vn 0.22956399645829928 0.46629669280600017 0.8543229868195522
vn 0.11128460175729737 0.2867736045284475 0.9515128150253581
vn 0.22956399335737085 0.21127609388654653 0.9500856725084641
vn 0.48687541415549157 0.17791620517276324 0.8551597248630468
vn 0.6840859209512604 0.4240610129875683 0.5934633181757938
vn 0.7095434858847856 0.24771789507205494 0.6596846868766454
vn 0.43429121164577733 0.5446519146051652 0.7174576192390533
vn 0.09026306651454252 0.4354243831863324 0.8956886654134868
vn 0.1860971983626117 0.5178334954438081 0.8349947926532443
vn 0.090263072829818 0.26174500820591073 0.9609069301251848
vn 0.1860971978589992 0.1597552981620558 0.9694565888466492
vn 0.4342912160719556 0.062201622301915366 0.8986223332556075
vn 0.6840858943855601 0.07137289941422711 0.7259010940423737
vn 0.8669011070737613 0.17523650142989905 0.46666330380789095
vn 0.8357984095677147 0.39068670447234494 0.3857524044158603
vn 0.6102287586176492 0.5866634602157178 0.5323972638957523
vn 0.35215230105798695 0.642227901929474 0.6808319020454541
vn 0.06340872255281753 0.4542464182878342 0.8886166357754586
vn 0.1306611028511749 0.5565335121441984 0.8204865179039557
vn 0.06340872292483399 0.2429202112051031 0.9679716446493202
vn 0.13066109416325017 0.1210709945916484 0.9840068560435193
vn 0.3521523155920609 -0.03536457156581855 0.9352743414106449
vn 0.6102287653618022 -0.09123429482130044 0.7869543553303906
vn 0.8357984093853222 -0.04021847045162015 0.5475614061486599
vn 0.9661027782122198 0.09075325795331084 0.2416800945495729
vn 0.9314382501800985 0.330857782303387 0.15151209189606246
vn 0.7455634286677867 0.5893477226611098 0.311134111963471
vn 0.49484328436603287 0.7237870771328342 0.48089748480663347
vn 0.24731349324256077 0.7155552804486149 0.6533120821493092
vn 0.03266725074742895 0.46587691065929554 0.8842463202316169
vn 0.06728894896783355 0.5804146910968353 0.8115361875515901
vn 0.03266724921132046 0.23128779441605998 0.9723367765250474
vn 0.06728894847261756 0.09720116779364406 0.992987477460316
vn 0.24731350259994625 -0.10868180114254535 0.9628210101219015
vn 0.49484327093872393 -0.2283635865886079 0.8384391507599416
vn 0.7455634042470348 -0.23889210136082747 0.6221461035439994
vn 0.9314380080325678 -0.14935520128801472 0.3318377028617136
vn 0.991289874785665 0.04629759882237959 0.12329199686395899
vn 0.9557213112154996 0.2926602034344012 0.030769800361087216
vn 0.8308712033810965 0.5522497022472911 0.06836161027818669
vn 0.6045903918706171 0.756879989822916 0.24819979666268088
vn 0.34754420045267637 0.8268506010769728 0.4421890005759514
vn 0.1273867977551612 0.7608338865924141 0.6363209887866088
vn 0 0.4698050084487288 0.8827702158752807
vn 0 0.5884741327701213 0.8085160450235068
vn 0 0.2273590024325138 0.9738110104188042
vn 0 0.08914588816137246 0.9960185794571907
vn 0.1273867979370033 -0.15395289750677232 0.9798321841318678
vn 0.3475442127947467 -0.3314317122015695 0.8771351322914936
vn 0.6045903997141466 -0.40644039980783314 0.6850376996761107
vn 0.8308710133570326 -0.37075740596027396 0.4149606066708818
vn 0.9557210694230381 -0.20007179359898222 0.21579739309586352
vn 0.9557207972550152 0.29266149915942885 0.030773439911613763
vn 0.9645711226925293 0.09274480218191695 0.24698370581054613
vn 0.929967212975907 0.3324626046388773 0.1569382021897714
vn 0.9912896199261851 0.046297980930648415 0.12329390247836464
vn 0.852531705190747 0.5198204031649921 -0.05455676033217561
vn 0.6737613794373941 0.7389468774479899 -0.0017651879461278493
vn 0.4246250829269001 0.8827997645048558 0.20089329192258937
vn 0.17902139365365502 0.8904998684315976 0.4182837851717545
vn 0 0.7761201085505074 0.6305851069471501
vn -0.06728894896783355 0.5804146910968353 0.8115361875515901
vn -0.03266725074742895 0.46587691065929554 0.8842463202316169
vn -0.06728894847261756 0.09720116779364406 0.992987477460316
vn -0.03266724921132046 0.23128779441605998 0.9723367765250474
vn 0 -0.1692363978604113 0.9855754875397584
vn 0.17902139495401265 -0.3950838888639664 0.9010327746030355
vn 0.4246251050394444 -0.5323749063182176 0.7323049086909836
vn 0.6737611628013238 -0.5574675692219488 0.48505237322002626
vn 0.8525315258303715 -0.42724881294497064 0.30107880912221674
vn 0.92996748222396 -0.14699269719028027 0.33697719355878536
vn 0.8612204303973743 0.1786646063060915 0.47579231679342093
vn 0.8303431880264138 0.3926951943373176 0.3953740942986879
vn 0.852531280055728 0.5198214878392015 -0.05455306872377546
vn 0.8295731799487467 0.5534916866217927 0.07385994821476337
vn 0.6913254065361846 0.7113797067257893 -0.12652310119622137
vn 0.47320200526285755 0.8792680097790421 -0.05447595060587038
vn 0.2187269104628687 0.9605653459489373 0.171676308212189
vn 0 0.9119898831540422 0.41021269242269504
vn -0.1273867977551612 0.7608338865924141 0.6363209887866088
vn -0.1306611028511749 0.5565335121441984 0.8204865179039557
vn -0.06340872255281753 0.4542464182878342 0.8886166357754586
vn -0.13066109416325017 0.1210709945916484 0.9840068560435193
vn -0.06340872292483399 0.2429202112051031 0.9679716446493202
vn -0.1273867979370033 -0.15395289750677232 0.9798321841318678
vn 0 -0.41657481677192765 0.9091014366017882
vn 0.21872690013255072 -0.6101506003697577 0.7614951004614736
vn 0.47320180221597336 -0.697800803267756 0.5377305025181569
vn 0.6913252845363153 -0.6188298861579051 0.37298649165697284
vn 0.829573401908977 -0.36807430084699616 0.41991580096629133
vn 0.8303431789102629 -0.035397469100946176 0.5561269858750307
vn 0.6982755836919344 0.2516436941229193 0.6701392843490513
vn 0.6732645216307137 0.4251823136603022 0.6049255194351111
vn 0.7407491630737848 0.5900525705859834 0.321136483991403
vn 0.6913250382890451 0.7113807393998304 -0.1265193070072731
vn 0.6727240811217904 0.7398838792371295 0.003762435894417422
vn 0.48553731835374303 0.8553538323331367 -0.18061930682757046
vn 0.24374770345705662 0.9659259136996596 -0.08702980123433737
vn 0 0.9868217015982317 0.1618114002620659
vn -0.17902139365365502 0.8904998684315976 0.4182837851717545
vn -0.24731349324256077 0.7155552804486149 0.6533120821493092
vn -0.1860971983626117 0.5178334954438081 0.8349947926532443
vn -0.09026306651454252 0.4354243831863324 0.8956886654134868
vn -0.1860971978589992 0.1597552981620558 0.9694565888466492
vn -0.090263072829818 0.26174500820591073 0.9609069301251848
vn -0.24731350259994625 -0.10868180114254535 0.9628210101219015
vn -0.17902139495401265 -0.3950838888639664 0.9010327746030355
vn 0 -0.6364104173903861 0.7713506210777266
vn 0.24374760331299794 -0.7844672106624158 0.57026160775095
vn 0.48553709019975677 -0.7628250846028832 0.4270264913807541
vn 0.6727243720767558 -0.5545361769824766 0.4898280796683609
vn 0.6913252950757106 -0.6188308955920861 0.37298479734324036
vn 0.7407491646494173 -0.23283908888827992 0.630140169927982
vn 0.6732645015371865 0.07807327017825545 0.7352683016787526
vn 0.4707752966076426 0.428139296914873 0.7714060944413288
vn 0.4882386178170578 0.3067940111956866 0.817007029814646
vn 0.6006772027622201 0.5852285026911791 0.5446967025047934
vn 0.6007426366548507 0.75650924615909 0.25846091577022473
vn 0.47248390015776315 0.8799791002938264 -0.048946370016343076
vn 0.4855370834432586 0.8553547708325311 -0.18061549384103867
vn 0.25010150533408243 0.9442671201390178 -0.21403000456476115
vn 6.281878850391233e-8 0.9951843762987617 -0.09802069766554602
vn -0.2187269104628687 0.9605653459489373 0.171676308212189
vn -0.34754420045267637 0.8268506010769728 0.4421890005759514
vn -0.35215230105798695 0.642227901929474 0.6808319020454541
vn -0.22956399645829928 0.46629669280600017 0.8543229868195522
vn -0.11128460070493176 0.4103987025996684 0.9050904057332908
vn -0.22956399335737085 0.21127609388654653 0.9500856725084641
vn -0.11128460175729737 0.2867736045284475 0.9515128150253581
vn -0.3521523155920609 -0.03536457156581855 0.9352743414106449
vn -0.3475442127947467 -0.3314317122015695 0.8771351322914936
vn -0.21872690013255072 -0.6101506003697577 0.7614951004614736
vn -6.281946975737947e-8 -0.813728896857227 0.5812445977551246
vn 0.25010140471409636 -0.851753416054479 0.46039700867790345
vn 0.472484195242422 -0.694698693004881 0.5423581945388407
vn 0.4855373183476932 -0.7628268288260287 0.42702311613653315
vn 0.6007426378185494 -0.39940732514388827 0.6925186435961238
vn 0.6006772148303989 -0.08205847202597993 0.7952693196347738
vn 0.47077531056113336 0.1854258041597478 0.862547319349947
vn 0.2462835022565701 0.34071340312178294 0.9073361083134581
vn 0.23749999386355838 0.40193128961503993 0.8843330771509119
vn 0.4200779069294099 0.5400824089089482 0.7292774120298212
vn 0.4872074977504315 0.7202574966743767 0.49381979771990087
vn 0.42196101358180915 0.881645028377822 0.21130770680143646
vn 0.2433815994668714 0.9664997978828774 -0.08150789982145633
vn 0.2501013970991176 0.9442679890476008 -0.2140262975175462
vn 2.530149007098986e-7 0.9742871027336139 -0.22531010063216542
vn -0.24374749901024106 0.965926096077769 -0.08702834964661324
vn -0.4246250829269001 0.8827997645048558 0.20089329192258937
vn -0.49484328436603287 0.7237870771328342 0.48089748480663347
vn -0.43429121164577733 0.5446519146051652 0.7174576192390533
vn -0.2574098901225713 0.40513568445398157 0.8772714663370109
vn -0.12473189751219364 0.38074069240603914 0.9162305817255706
vn -0.2574099128887373 0.2724251136405612 0.927105546420978
vn -0.12473190425045115 0.3164338107830184 0.9403784320449897
vn -0.4342912160719556 0.062201622301915366 0.8986223332556075
vn -0.49484327093872393 -0.2283635865886079 0.8384391507599416
vn -0.4246251050394444 -0.5323749063182176 0.7323049086909836
vn -0.24374769208050848 -0.7844680745122171 0.5702603814719381
vn -2.5301590133647625e-7 -0.8817791046577187 0.4716626024914079
vn 0.243381799107794 -0.7812668971359773 0.5747932978928824
vn 0.2501015065088605 -0.8517552221668236 0.4603936119816862
vn 0.4219609954764347 -0.5246507943755652 0.7393851920735393
vn 0.48720747939398634 -0.21720079081368296 0.8458443642257535
vn 0.420077914330248 0.07342154250465162 0.9045130308559332
vn 0.23750000849905548 0.2794855100015272 0.9303126332916987
vn 0.2119852057668435 0.4584413124714329 0.8630723234790113
vn 0.3407873125571931 0.6345736233825121 0.6936716255601317
vn 0.34225631210096846 0.8218030290560382 0.4555221161056454
vn 0.21736868993170202 0.9589401555828614 0.1821664915622325
vn 4.4015640807977184e-8 0.9957123182778853 -0.09250394169805695
vn -3.906246780271669e-8 0.9742875451958393 -0.22530818732630176
vn -0.25010120866624214 0.9442678327197684 -0.21402720741624381
vn -0.47320188181837736 0.8792681662162755 -0.05447449790695072
vn -0.6045903918706171 0.756879989822916 0.24819979666268088
vn -0.6102287586176492 0.5866634602157178 0.5323972638957523
vn -0.48687541215107155 0.42893031070492094 0.7609015189900098
vn -0.2670127140850158 0.33877821787067147 0.9021826475904563
vn -0.12936530111841413 0.3485876030136773 0.9283056080255687
vn -0.48687541415549157 0.17791620517276324 0.8551597248630468
vn -0.6102287653618022 -0.09123429482130044 0.7869543553303906
vn -0.6045903997141466 -0.40644039980783314 0.6850376996761107
vn -0.4732020013384945 -0.6978019019737955 0.5377289015210145
vn -0.2501017083951217 -0.8517547285907068 0.4603944154539812
vn -4.401628144365963e-8 -0.8104963265829096 0.5857437192114037
vn 3.906188052755391e-8 -0.8817800119089632 0.4716609063700606
vn 0.21736870799516683 -0.6020223221433388 0.7683228282601356
vn 0.3422562824707323 -0.31885578366923095 0.8838504547320178
vn 0.34078729074057634 -0.02115090942531554 0.9399024744622072
vn 0.21198520546450383 0.22294880574712067 0.9515020245275911
vn 0.17203888840785322 0.5061911658923491 0.845087643057177
vn 0.2394412906041252 0.705672572308823 0.6668538738321012
vn 0.176325204469099 0.8845454224194894 0.4318435109454088
vn 0 0.985040359771642 0.17232379296241726
vn -0.2501015062777542 0.9442673237018891 -0.21402910537230693
vn -0.2433816884999459 0.9664996543318217 -0.08150933614859346
vn -0.4855373999157399 0.8553543998515619 -0.18061639996865567
vn -0.6737612215775438 0.7389470236651521 -0.0017642320565002595
vn -0.7455634286677867 0.5893477226611098 0.311134111963471
vn -0.6840859209512604 0.4240610129875683 0.5934633181757938
vn -0.5050019879725469 0.303421992773506 0.8080272807555013
vn -0.6840858943855601 0.07137289941422711 0.7259010940423737
vn -0.7455634042470348 -0.23889210136082747 0.6221461035439994
vn -0.6737613963819922 -0.55746839700647 0.48505109739534097
vn -0.4855373183476932 -0.7628268288260287 0.42702311613653315
vn -0.2501014018329456 -0.8517539062423426 0.4603961033741554
vn -0.24338170326430117 -0.7812661104785522 0.5747944077092977
vn 0 -0.6281500332288741 0.7780922411607538
vn 0.17632520053900144 -0.3816760011667304 0.9073218027735557
vn 0.2394412999412804 -0.09232845997735796 0.9665108997629769
vn 0.17203889770436973 0.17516329766267855 0.969391787064756
vn 0.12092189967038566 0.5421617985221509 0.8315277977333844
vn 0.12337229587848327 0.7496229749572332 0.6502650782764975
vn 0 0.9057352050471912 0.4238440023618624
vn -0.21736868993170202 0.9589401555828614 0.1821664915622325
vn -0.4855372050336759 0.8553541088676528 -0.1806183018725113
vn -0.4724841060560773 0.8799789112791526 -0.04894778062738926
vn -0.6913252224139669 0.711380223064185 -0.1265212041020375
vn -0.8308708944462304 0.5522499963086092 0.06836298954304311
vn -0.8357984095677147 0.39068670447234494 0.3857524044158603
vn -0.7095434858847856 0.24771789507205494 0.6596846868766454
vn -0.8357984093853222 -0.04021847045162015 0.5475614061486599
vn -0.8308711970845187 -0.37075789869903103 0.41495979854392884
vn -0.6913254082253689 -0.6188313073628364 0.3729839044377512
vn -0.48553709019975677 -0.7628250846028832 0.4270264913807541
vn -0.4724839132623851 -0.6946976194998118 0.5423598152237662
vn -0.21736870799516683 -0.6020223221433388 0.7683228282601356
vn 0 -0.4028938129048243 0.9152467293156598
vn 0.12337230118876492 -0.1363348013136665 0.98295070947131
vn 0.12092189708724727 0.13915799664797798 0.9828595763249918
vn 0.06232172903303935 0.5644190912426841 0.8231324872285842
vn 0 0.7644700515846673 0.644659243500112
vn -0.176325204469099 0.8845454224194894 0.4318435109454088
vn -0.42196101358180915 0.881645028377822 0.21130770680143646
vn -0.6727242924911349 0.7398836917415099 0.003761513958014612
vn -0.8525312778635079 0.5198213865025222 -0.05455406858347038
vn -0.9314377758566955 0.33085829142399764 0.15151389607268875
vn -0.8669011070737613 0.17523650142989905 0.46666330380789095
vn -0.9314381031747371 -0.14935550050906712 0.33183730113104254
vn -0.8525317254269893 -0.42724961274283535 0.3010771089797061
vn -0.6913250241894907 -0.6188296216528738 0.3729874130508447
vn -0.6727240735553686 -0.5545354782013355 0.48982928074492144
vn -0.4219609954764347 -0.5246507943755652 0.7393851920735393
vn -0.17632520053900144 -0.3816760011667304 0.9073218027735557
vn 0 -0.15120199787467398 0.9885028861054009
vn 0.06232172913987186 0.11687599838694544 0.9911891863201853
vn 0 0.5719420965144675 0.8202939950009603
vn -0.12337229587848327 0.7496229749572332 0.6502650782764975
vn -0.34225631210096846 0.8218030290560382 0.4555221161056454
vn -0.6007426366548507 0.75650924615909 0.25846091577022473
vn -0.8295734957946203 0.5534913971941708 0.07385856962558685
vn -0.8525316329593883 0.5198206200965794 -0.05455582210916095
vn -0.9557207972550152 0.29266149915942885 0.030773439911613763
vn -0.9661025296669364 0.09075347278684444 0.2416810074215054
vn -0.9557211196885577 -0.20007240412163868 0.21579660444556864
vn -0.8525313005626495 -0.42724800028197313 0.3010806001987056
vn -0.8295732135385354 -0.36807380600692047 0.4199166068529886
vn -0.6007426378185494 -0.39940732514388827 0.6925186435961238
vn -0.3422562824707323 -0.31885578366923095 0.8838504547320178
vn -0.12337230118876492 -0.1363348013136665 0.98295070947131
vn 0.047383950464266175 -0.02046375020050328 0.998667109784903
vn 0 -0.030613040338309045 0.9995313110459548
vn 0.04875523040954192 0.23518380197553398 0.9707273081540693
vn 0.0352080311110146 0.23190720731799755 0.9721005306753274
vn -0.06232172903303935 0.5644190912426841 0.8231324872285842
vn -0.2394412906041252 0.705672572308823 0.6668538738321012
vn -0.4872074977504315 0.7202574966743767 0.49381979771990087
vn -0.7407491630737848 0.5900525705859834 0.321136483991403
vn -0.9299676978496079 0.3324620992312379 0.15693639963711137
vn -0.9557213112154996 0.2926602034344012 0.030769800361087216
vn -0.9912896168831055 0.04629778078851858 0.12329400209987638
vn -0.9557209429703327 -0.2000714089954449 0.21579830970254466
vn -0.9299673121726492 -0.14699260192403477 0.3369777044108124
vn -0.7407491646494173 -0.23283908888827992 0.630140169927982
vn -0.48720747939398634 -0.21720079081368296 0.8458443642257535
vn -0.2394412999412804 -0.09232845997735796 0.9665108997629769
vn -0.06232172913987186 0.11687599838694544 0.9911891863201853
vn -0.047383950464266175 -0.02046375020050328 0.998667109784903
vn -0.12092189967038566 0.5421617985221509 0.8315277977333844
vn -0.3407873125571931 0.6345736233825121 0.6936716255601317
vn -0.6006772027622201 0.5852285026911791 0.5446967025047934
vn -0.8303431880264138 0.3926951943373176 0.3953740942986879
vn -0.9645713708377082 0.09274438719601989 0.2469828925328624
vn -0.9912898717426976 0.04629739868026533 0.1232920964854861
vn -0.8303431789102629 -0.035397469100946176 0.5561269858750307
vn -0.6006772148303989 -0.08205847202597993 0.7952693196347738
vn -0.34078729074057634 -0.02115090942531554 0.9399024744622072
vn -0.12092189708724727 0.13915799664797798 0.9828595763249918
vn -0.0352080311110146 0.23190720731799755 0.9721005306753274
vn -0.17203888840785322 0.5061911658923491 0.845087643057177
vn -0.4200779069294099 0.5400824089089482 0.7292774120298212
vn -0.6732645216307137 0.4251823136603022 0.6049255194351111
vn -0.8612204303973743 0.1786646063060915 0.47579231679342093
vn -0.6732645015371865 0.07807327017825545 0.7352683016787526
vn -0.420077914330248 0.07342154250465162 0.9045130308559332
vn -0.17203889770436973 0.17516329766267855 0.969391787064756
vn -0.04875523040954192 0.23518380197553398 0.9707273081540693
vn -0.2119852057668435 0.4584413124714329 0.8630723234790113
vn -0.4707752966076426 0.428139296914873 0.7714060944413288
vn -0.6982755836919344 0.2516436941229193 0.6701392843490513
vn -0.47077531056113336 0.1854258041597478 0.862547319349947
vn -0.21198520546450383 0.22294880574712067 0.9515020245275911
vn -0.23749999386355838 0.40193128961503993 0.8843330771509119
vn -0.4882386178170578 0.3067940111956866 0.817007029814646
vn -0.23750000849905548 0.2794855100015272 0.9303126332916987
vn -0.2462835022565701 0.34071340312178294 0.9073361083134581
vn -0.12936530111841413 -0.3485876030136773 -0.9283056080255687
vn -0.2670127140850158 -0.33877821787067147 -0.9021826475904563
vn -0.12473189751219364 -0.38074069240603914 -0.9162305817255706
vn -0.2574098901225713 -0.40513568445398157 -0.8772714663370109
vn -0.2574099128887373 -0.2724251136405612 -0.927105546420978
vn -0.12473190425045115 -0.3164338107830184 -0.9403784320449897
vn -0.5050019879725469 -0.303421992773506 -0.8080272807555013
vn -0.48687541215107155 -0.42893031070492094 -0.7609015189900098
vn -0.11128460070493176 -0.4103987025996684 -0.9050904057332908
vn -0.22956399645829928 -0.46629669280600017 -0.8543229868195522
vn -0.22956399335737085 -0.21127609388654653 -0.9500856725084641
vn -0.11128460175729737 -0.2867736045284475 -0.9515128150253581
vn -0.48687541415549157 -0.17791620517276324 -0.8551597248630468
vn -0.7095434858847856 -0.24771789507205494 -0.6596846868766454
vn -0.6840859209512604 -0.4240610129875683 -0.5934633181757938
vn -0.43429121164577733 -0.5446519146051652 -0.7174576192390533
vn -0.09026306651454252 -0.4354243831863324 -0.8956886654134868
vn -0.1860971983626117 -0.5178334954438081 -0.8349947926532443
vn -0.1860971978589992 -0.1597552981620558 -0.9694565888466492
vn -0.090263072829818 -0.26174500820591073 -0.9609069301251848
vn -0.4342912160719556 -0.062201622301915366 -0.8986223332556075
vn -0.6840858943855601 -0.07137289941422711 -0.7259010940423737
vn -0.8669011070737613 -0.17523650142989905 -0.46666330380789095
vn -0.8357984095677147 -0.39068670447234494 -0.3857524044158603
vn -0.6102287586176492 -0.5866634602157178 -0.5323972638957523
vn -0.35215230105798695 -0.642227901929474 -0.6808319020454541
vn -0.06340872255281753 -0.4542464182878342 -0.8886166357754586
vn -0.1306611028511749 -0.5565335121441984 -0.8204865179039557
vn -0.13066109416325017 -0.1210709945916484 -0.9840068560435193
vn -0.06340872292483399 -0.2429202112051031 -0.9679716446493202
vn -0.3521523155920609 0.03536457156581855 -0.9352743414106449
vn -0.6102287653618022 0.09123429482130044 -0.7869543553303906
vn -0.8357984093853222 0.04021847045162015 -0.5475614061486599
vn -0.9661027782122198 -0.09075325795331084 -0.2416800945495729
vn -0.9314382501800985 -0.330857782303387 -0.15151209189606246
vn -0.7455634286677867 -0.5893477226611098 -0.311134111963471
vn -0.49484328436603287 -0.7237870771328342 -0.48089748480663347
vn -0.24731349324256077 -0.7155552804486149 -0.6533120821493092
vn -0.03266725074742895 -0.46587691065929554 -0.8842463202316169
vn -0.06728894896783355 -0.5804146910968353 -0.8115361875515901
vn -0.06728894847261756 -0.09720116779364406 -0.992987477460316
vn -0.03266724921132046 -0.23128779441605998 -0.9723367765250474
vn -0.24731350259994625 0.10868180114254535 -0.9628210101219015
vn -0.49484327093872393 0.2283635865886079 -0.8384391507599416
vn -0.7455634042470348 0.23889210136082747 -0.6221461035439994
vn -0.9314380080325678 0.14935520128801472 -0.3318377028617136
vn -0.991289874785665 -0.04629759882237959 -0.12329199686395899
vn -0.9557213112154996 -0.2926602034344012 -0.030769800361087216
vn -0.8308712033810965 -0.5522497022472911 -0.06836161027818669
vn -0.6045903918706171 -0.756879989822916 -0.24819979666268088
vn -0.34754420045267637 -0.8268506010769728 -0.4421890005759514
vn -0.1273867977551612 -0.7608338865924141 -0.6363209887866088
vn 0 -0.4698050084487288 -0.8827702158752807
vn 0 -0.5884741327701213 -0.8085160450235068
vn 0 -0.2273590024325138 -0.9738110104188042
vn 0 -0.08914588816137246 -0.9960185794571907
vn -0.1273867979370033 0.15395289750677232 -0.9798321841318678
vn -0.3475442127947467 0.3314317122015695 -0.8771351322914936
vn -0.6045903997141466 0.40644039980783314 -0.6850376996761107
vn -0.8308710133570326 0.37075740596027396 -0.4149606066708818
vn -0.9557210694230381 0.20007179359898222 -0.21579739309586352
vn -0.9912896199261851 -0.046297980930648415 -0.12329390247836464
vn -0.9557207972550152 -0.29266149915942885 -0.030773439911613763
vn -0.9645711226925293 -0.09274480218191695 -0.24698370581054613
vn -0.929967212975907 -0.3324626046388773 -0.1569382021897714
vn -0.852531705190747 -0.5198204031649921 0.05455676033217561
vn -0.6737613794373941 -0.7389468774479899 0.0017651879461278493
vn -0.4246250829269001 -0.8827997645048558 -0.20089329192258937
vn -0.17902139365365502 -0.8904998684315976 -0.4182837851717545
vn 0 -0.7761201085505074 -0.6305851069471501
vn 0.03266725074742895 -0.46587691065929554 -0.8842463202316169
vn 0.06728894896783355 -0.5804146910968353 -0.8115361875515901
vn 0.06728894847261756 -0.09720116779364406 -0.992987477460316
vn 0.03266724921132046 -0.23128779441605998 -0.9723367765250474
vn 0 0.1692363978604113 -0.9855754875397584
vn -0.17902139495401265 0.3950838888639664 -0.9010327746030355
vn -0.4246251050394444 0.5323749063182176 -0.7323049086909836
vn -0.6737611628013238 0.5574675692219488 -0.48505237322002626
vn -0.8525315258303715 0.42724881294497064 -0.30107880912221674
vn -0.92996748222396 0.14699269719028027 -0.33697719355878536
vn -0.8612204303973743 -0.1786646063060915 -0.47579231679342093
vn -0.8303431880264138 -0.3926951943373176 -0.3953740942986879
vn -0.852531280055728 -0.5198214878392015 0.05455306872377546
vn -0.8295731799487467 -0.5534916866217927 -0.07385994821476337
vn -0.6913254065361846 -0.7113797067257893 0.12652310119622137
vn -0.47320200526285755 -0.8792680097790421 0.05447595060587038
vn -0.2187269104628687 -0.9605653459489373 -0.171676308212189
vn 0 -0.9119898831540422 -0.41021269242269504
vn 0.1273867977551612 -0.7608338865924141 -0.6363209887866088
vn 0.06340872255281753 -0.4542464182878342 -0.8886166357754586
vn 0.1306611028511749 -0.5565335121441984 -0.8204865179039557
vn 0.13066109416325017 -0.1210709945916484 -0.9840068560435193
vn 0.06340872292483399 -0.2429202112051031 -0.9679716446493202
vn 0.1273867979370033 0.15395289750677232 -0.9798321841318678
vn 0 0.41657481677192765 -0.9091014366017882
vn -0.21872690013255072 0.6101506003697577 -0.7614951004614736
vn -0.47320180221597336 0.697800803267756 -0.5377305025181569
vn -0.6913252845363153 0.6188298861579051 -0.37298649165697284
vn -0.829573401908977 0.36807430084699616 -0.41991580096629133
vn -0.8303431789102629 0.035397469100946176 -0.5561269858750307
vn -0.6982755836919344 -0.2516436941229193 -0.6701392843490513
vn -0.6732645216307137 -0.4251823136603022 -0.6049255194351111
vn -0.7407491630737848 -0.5900525705859834 -0.321136483991403
vn -0.6913250382890451 -0.7113807393998304 0.1265193070072731
vn -0.6727240811217904 -0.7398838792371295 -0.003762435894417422
vn -0.48553731835374303 -0.8553538323331367 0.18061930682757046
vn -0.24374770345705662 -0.9659259136996596 0.08702980123433737
vn 0 -0.9868217015982317 -0.1618114002620659
vn 0.17902139365365502 -0.8904998684315976 -0.4182837851717545
vn 0.24731349324256077 -0.7155552804486149 -0.6533120821493092
vn 0.09026306651454252 -0.4354243831863324 -0.8956886654134868
vn 0.1860971983626117 -0.5178334954438081 -0.8349947926532443
vn 0.1860971978589992 -0.1597552981620558 -0.9694565888466492
vn 0.090263072829818 -0.26174500820591073 -0.9609069301251848
vn 0.24731350259994625 0.10868180114254535 -0.9628210101219015
vn 0.17902139495401265 0.3950838888639664 -0.9010327746030355
vn 0 0.6364104173903861 -0.7713506210777266
vn -0.24374760331299794 0.7844672106624158 -0.57026160775095
vn -0.48553709019975677 0.7628250846028832 -0.4270264913807541
vn -0.6913252950757106 0.6188308955920861 -0.37298479734324036
vn -0.6727243720767558 0.5545361769824766 -0.4898280796683609
vn -0.7407491646494173 0.23283908888827992 -0.630140169927982
vn -0.6732645015371865 -0.07807327017825545 -0.7352683016787526
vn -0.4882386178170578 -0.3067940111956866 -0.817007029814646
vn -0.4707752966076426 -0.428139296914873 -0.7714060944413288
vn -0.6006772027622201 -0.5852285026911791 -0.5446967025047934
vn -0.6007426366548507 -0.75650924615909 -0.25846091577022473
vn -0.4855370834432586 -0.8553547708325311 0.18061549384103867
vn -0.47248390015776315 -0.8799791002938264 0.048946370016343076
vn -0.25010150533408243 -0.9442671201390178 0.21403000456476115
vn -6.281878850391233e-8 -0.9951843762987617 0.09802069766554602
vn 0.2187269104628687 -0.9605653459489373 -0.171676308212189
vn 0.34754420045267637 -0.8268506010769728 -0.4421890005759514
vn 0.35215230105798695 -0.642227901929474 -0.6808319020454541
vn 0.11128460070493176 -0.4103987025996684 -0.9050904057332908
vn 0.22956399645829928 -0.46629669280600017 -0.8543229868195522
vn 0.22956399335737085 -0.21127609388654653 -0.9500856725084641
vn 0.11128460175729737 -0.2867736045284475 -0.9515128150253581
vn 0.3521523155920609 0.03536457156581855 -0.9352743414106449
vn 0.3475442127947467 0.3314317122015695 -0.8771351322914936
vn 0.21872690013255072 0.6101506003697577 -0.7614951004614736
vn 6.281946975737947e-8 0.813728896857227 -0.5812445977551246
vn -0.25010140471409636 0.851753416054479 -0.46039700867790345
vn -0.4855373183476932 0.7628268288260287 -0.42702311613653315
vn -0.472484195242422 0.694698693004881 -0.5423581945388407
vn -0.6007426378185494 0.39940732514388827 -0.6925186435961238
vn -0.6006772148303989 0.08205847202597993 -0.7952693196347738
vn -0.47077531056113336 -0.1854258041597478 -0.862547319349947
vn -0.2462835022565701 -0.34071340312178294 -0.9073361083134581
vn -0.23749999386355838 -0.40193128961503993 -0.8843330771509119
vn -0.4200779069294099 -0.5400824089089482 -0.7292774120298212
vn -0.4872074977504315 -0.7202574966743767 -0.49381979771990087
vn -0.42196101358180915 -0.881645028377822 -0.21130770680143646
vn -0.2501013970991176 -0.9442679890476008 0.2140262975175462
vn -0.2433815994668714 -0.9664997978828774 0.08150789982145633
vn -2.530149007098986e-7 -0.9742871027336139 0.22531010063216542
vn 0.24374749901024106 -0.965926096077769 0.08702834964661324
vn 0.4246250829269001 -0.8827997645048558 -0.20089329192258937
vn 0.49484328436603287 -0.7237870771328342 -0.48089748480663347
vn 0.43429121164577733 -0.5446519146051652 -0.7174576192390533
vn 0.12473189751219364 -0.38074069240603914 -0.9162305817255706
vn 0.2574098901225713 -0.40513568445398157 -0.8772714663370109
vn 0.2574099128887373 -0.2724251136405612 -0.927105546420978
vn 0.12473190425045115 -0.3164338107830184 -0.9403784320449897
vn 0.4342912160719556 -0.062201622301915366 -0.8986223332556075
vn 0.49484327093872393 0.2283635865886079 -0.8384391507599416
vn 0.4246251050394444 0.5323749063182176 -0.7323049086909836
vn 0.24374769208050848 0.7844680745122171 -0.5702603814719381
vn 2.5301590133647625e-7 0.8817791046577187 -0.4716626024914079
vn -0.2501015065088605 0.8517552221668236 -0.4603936119816862
vn -0.243381799107794 0.7812668971359773 -0.5747932978928824
vn -0.4219609954764347 0.5246507943755652 -0.7393851920735393
vn -0.48720747939398634 0.21720079081368296 -0.8458443642257535
vn -0.420077914330248 -0.07342154250465162 -0.9045130308559332
vn -0.23750000849905548 -0.2794855100015272 -0.9303126332916987
vn -0.2119852057668435 -0.4584413124714329 -0.8630723234790113
vn -0.3407873125571931 -0.6345736233825121 -0.6936716255601317
vn -0.34225631210096846 -0.8218030290560382 -0.4555221161056454
vn -0.21736868993170202 -0.9589401555828614 -0.1821664915622325
vn 3.906246780271669e-8 -0.9742875451958393 0.22530818732630176
vn -4.4015640807977184e-8 -0.9957123182778853 0.09250394169805695
vn 0.25010120866624214 -0.9442678327197684 0.21402720741624381
vn 0.47320188181837736 -0.8792681662162755 0.05447449790695072
vn 0.6045903918706171 -0.756879989822916 -0.24819979666268088
vn 0.6102287586176492 -0.5866634602157178 -0.5323972638957523
vn 0.48687541215107155 -0.42893031070492094 -0.7609015189900098
vn 0.12936530111841413 -0.3485876030136773 -0.9283056080255687
vn 0.2670127140850158 -0.33877821787067147 -0.9021826475904563
vn 0.48687541415549157 -0.17791620517276324 -0.8551597248630468
vn 0.6102287653618022 0.09123429482130044 -0.7869543553303906
vn 0.6045903997141466 0.40644039980783314 -0.6850376996761107
vn 0.4732020013384945 0.6978019019737955 -0.5377289015210145
vn 0.2501017083951217 0.8517547285907068 -0.4603944154539812
vn -3.906188052755391e-8 0.8817800119089632 -0.4716609063700606
vn 4.401628144365963e-8 0.8104963265829096 -0.5857437192114037
vn -0.21736870799516683 0.6020223221433388 -0.7683228282601356
vn -0.3422562824707323 0.31885578366923095 -0.8838504547320178
vn -0.34078729074057634 0.02115090942531554 -0.9399024744622072
vn -0.21198520546450383 -0.22294880574712067 -0.9515020245275911
vn -0.17203888840785322 -0.5061911658923491 -0.845087643057177
vn -0.2394412906041252 -0.705672572308823 -0.6668538738321012
vn -0.176325204469099 -0.8845454224194894 -0.4318435109454088
vn 0 -0.985040359771642 -0.17232379296241726
vn 0.2433816884999459 -0.9664996543318217 0.08150933614859346
vn 0.2501015062777542 -0.9442673237018891 0.21402910537230693
vn 0.4855373999157399 -0.8553543998515619 0.18061639996865567
vn 0.6737612215775438 -0.7389470236651521 0.0017642320565002595
vn 0.7455634286677867 -0.5893477226611098 -0.311134111963471
vn 0.6840859209512604 -0.4240610129875683 -0.5934633181757938
vn 0.5050019879725469 -0.303421992773506 -0.8080272807555013
vn 0.6840858943855601 -0.07137289941422711 -0.7259010940423737
vn 0.7455634042470348 0.23889210136082747 -0.6221461035439994
vn 0.6737613963819922 0.55746839700647 -0.48505109739534097
vn 0.4855373183476932 0.7628268288260287 -0.42702311613653315
vn 0.24338170326430117 0.7812661104785522 -0.5747944077092977
vn 0.2501014018329456 0.8517539062423426 -0.4603961033741554
vn 0 0.6281500332288741 -0.7780922411607538
vn -0.17632520053900144 0.3816760011667304 -0.9073218027735557
vn -0.2394412999412804 0.09232845997735796 -0.9665108997629769
vn -0.17203889770436973 -0.17516329766267855 -0.969391787064756
vn -0.12092189967038566 -0.5421617985221509 -0.8315277977333844
vn -0.12337229587848327 -0.7496229749572332 -0.6502650782764975
vn 0 -0.9057352050471912 -0.4238440023618624
vn 0.21736868993170202 -0.9589401555828614 -0.1821664915622325
vn 0.4724841060560773 -0.8799789112791526 0.04894778062738926
vn 0.4855372050336759 -0.8553541088676528 0.1806183018725113
vn 0.6913252224139669 -0.711380223064185 0.1265212041020375
vn 0.8308708944462304 -0.5522499963086092 -0.06836298954304311
vn 0.8357984095677147 -0.39068670447234494 -0.3857524044158603
vn 0.7095434858847856 -0.24771789507205494 -0.6596846868766454
vn 0.8357984093853222 0.04021847045162015 -0.5475614061486599
vn 0.8308711970845187 0.37075789869903103 -0.41495979854392884
vn 0.6913254082253689 0.6188313073628364 -0.3729839044377512
vn 0.4724839132623851 0.6946976194998118 -0.5423598152237662
vn 0.48553709019975677 0.7628250846028832 -0.4270264913807541
vn 0.21736870799516683 0.6020223221433388 -0.7683228282601356
vn 0 0.4028938129048243 -0.9152467293156598
vn -0.12337230118876492 0.1363348013136665 -0.98295070947131
vn -0.12092189708724727 -0.13915799664797798 -0.9828595763249918
vn -0.06232172903303935 -0.5644190912426841 -0.8231324872285842
vn 0 -0.7644700515846673 -0.644659243500112
vn 0.176325204469099 -0.8845454224194894 -0.4318435109454088
vn 0.42196101358180915 -0.881645028377822 -0.21130770680143646
vn 0.6727242924911349 -0.7398836917415099 -0.003761513958014612
vn 0.8525312778635079 -0.5198213865025222 0.05455406858347038
vn 0.9314377758566955 -0.33085829142399764 -0.15151389607268875
vn 0.8669011070737613 -0.17523650142989905 -0.46666330380789095
vn 0.9314381031747371 0.14935550050906712 -0.33183730113104254
vn 0.8525317254269893 0.42724961274283535 -0.3010771089797061
vn 0.6727240735553686 0.5545354782013355 -0.48982928074492144
vn 0.6913250241894907 0.6188296216528738 -0.3729874130508447
vn 0.4219609954764347 0.5246507943755652 -0.7393851920735393
vn 0.17632520053900144 0.3816760011667304 -0.9073218027735557
vn 0 0.15120199787467398 -0.9885028861054009
vn -0.06232172913987186 -0.11687599838694544 -0.9911891863201853
vn 0 -0.5719420965144675 -0.8202939950009603
vn 0.12337229587848327 -0.7496229749572332 -0.6502650782764975
vn 0.34225631210096846 -0.8218030290560382 -0.4555221161056454
vn 0.6007426366548507 -0.75650924615909 -0.25846091577022473
vn 0.8525316329593883 -0.5198206200965794 0.05455582210916095
vn 0.8295734957946203 -0.5534913971941708 -0.07385856962558685
vn 0.9557207972550152 -0.29266149915942885 -0.030773439911613763
vn 0.9661025296669364 -0.09075347278684444 -0.2416810074215054
vn 0.9557211196885577 0.20007240412163868 -0.21579660444556864
vn 0.8525313005626495 0.42724800028197313 -0.3010806001987056
vn 0.8295732135385354 0.36807380600692047 -0.4199166068529886
vn 0.6007426378185494 0.39940732514388827 -0.6925186435961238
vn 0.3422562824707323 0.31885578366923095 -0.8838504547320178
vn 0.12337230118876492 0.1363348013136665 -0.98295070947131
vn 0 0.030613040338309045 -0.9995313110459548
vn -0.047383950464266175 0.02046375020050328 -0.998667109784903
vn -0.0352080311110146 -0.23190720731799755 -0.9721005306753274
vn -0.04875523040954192 -0.23518380197553398 -0.9707273081540693
vn 0.06232172903303935 -0.5644190912426841 -0.8231324872285842
vn 0.2394412906041252 -0.705672572308823 -0.6668538738321012
vn 0.4872074977504315 -0.7202574966743767 -0.49381979771990087
vn 0.7407491630737848 -0.5900525705859834 -0.321136483991403
vn 0.9557213112154996 -0.2926602034344012 -0.030769800361087216
vn 0.9299676978496079 -0.3324620992312379 -0.15693639963711137
vn 0.9912896168831055 -0.04629778078851858 -0.12329400209987638
vn 0.9557209429703327 0.2000714089954449 -0.21579830970254466
vn 0.9299673121726492 0.14699260192403477 -0.3369777044108124
vn 0.7407491646494173 0.23283908888827992 -0.630140169927982
vn 0.48720747939398634 0.21720079081368296 -0.8458443642257535
vn 0.2394412999412804 0.09232845997735796 -0.9665108997629769
vn 0.047383950464266175 0.02046375020050328 -0.998667109784903
vn 0.06232172913987186 -0.11687599838694544 -0.9911891863201853
vn 0.12092189967038566 -0.5421617985221509 -0.8315277977333844
vn 0.3407873125571931 -0.6345736233825121 -0.6936716255601317
vn 0.6006772027622201 -0.5852285026911791 -0.5446967025047934
vn 0.8303431880264138 -0.3926951943373176 -0.3953740942986879
vn 0.9912898717426976 -0.04629739868026533 -0.1232920964854861
vn 0.9645713708377082 -0.09274438719601989 -0.2469828925328624
vn 0.8303431789102629 0.035397469100946176 -0.5561269858750307
vn 0.6006772148303989 0.08205847202597993 -0.7952693196347738
vn 0.34078729074057634 0.02115090942531554 -0.9399024744622072
vn 0.12092189708724727 -0.13915799664797798 -0.9828595763249918
vn 0.0352080311110146 -0.23190720731799755 -0.9721005306753274
vn 0.17203888840785322 -0.5061911658923491 -0.845087643057177
vn 0.4200779069294099 -0.5400824089089482 -0.7292774120298212
vn 0.6732645216307137 -0.4251823136603022 -0.6049255194351111
vn 0.8612204303973743 -0.1786646063060915 -0.47579231679342093
vn 0.6732645015371865 -0.07807327017825545 -0.7352683016787526
vn 0.420077914330248 -0.07342154250465162 -0.9045130308559332
vn 0.17203889770436973 -0.17516329766267855 -0.969391787064756
vn 0.04875523040954192 -0.23518380197553398 -0.9707273081540693
vn 0.2119852057668435 -0.4584413124714329 -0.8630723234790113
vn 0.4707752966076426 -0.428139296914873 -0.7714060944413288
vn 0.6982755836919344 -0.2516436941229193 -0.6701392843490513
vn 0.47077531056113336 -0.1854258041597478 -0.862547319349947
vn 0.21198520546450383 -0.22294880574712067 -0.9515020245275911
vn 0.23749999386355838 -0.40193128961503993 -0.8843330771509119
vn 0.4882386178170578 -0.3067940111956866 -0.817007029814646
vn 0.23750000849905548 -0.2794855100015272 -0.9303126332916987
vn 0.2462835022565701 -0.34071340312178294 -0.9073361083134581
usemtl material_0_0
f 6//316 7//316 8//317
f 7//316 9//318 8//317
f 10//319 8//317 9//318
f 13//320 14//321 8//317
f 8//317 14//321 6//316
f 7//316 6//316 14//321
f 8//317 10//319 17//322
f 18//323 17//322 10//319
f 9//318 21//324 10//319
f 22//325 10//319 21//324
f 25//326 26//327 13//320
f 14//321 13//320 26//327
f 28//328 13//320 17//322
f 8//317 17//322 13//320
f 31//329 17//322 32//330
f 18//323 32//330 17//322
f 10//319 22//325 18//323
f 34//331 18//323 22//325
f 21//324 37//332 22//325
f 38//333 22//325 37//332
f 41//334 42//335 25//326
f 26//327 25//326 42//335
f 44//336 25//326 28//328
f 13//320 28//328 25//326
f 46//337 28//328 31//329
f 17//322 31//329 28//328
f 31//329 32//330 49//338
f 50//339 49//338 32//330
f 18//323 34//331 32//330
f 52//340 32//330 34//331
f 22//325 38//333 34//331
f 54//341 34//331 38//333
f 37//332 57//342 38//333
f 58//343 38//333 57//342
f 61//344 62//345 41//334
f 42//335 41//334 62//345
f 64//346 41//334 44//336
f 25//326 44//336 41//334
f 66//347 44//336 46//337
f 28//328 46//337 44//336
f 46//337 31//329 68//348
f 49//338 68//348 31//329
f 49//338 50//339 71//349
f 72//350 71//349 50//339
f 32//330 52//340 50//339
f 74//351 50//339 52//340
f 54//341 76//352 34//331
f 52//340 34//331 76//352
f 38//333 58//343 54//341
f 78//353 54//341 58//343
f 57//342 81//354 58//343
f 82//355 58//343 81//354
f 85//356 86//357 61//344
f 62//345 61//344 86//357
f 88//358 61//344 64//346
f 41//334 64//346 61//344
f 90//359 64//346 66//347
f 44//336 66//347 64//346
f 66//347 46//337 92//360
f 68//348 92//360 46//337
f 68//348 49//338 94//361
f 71//349 94//361 49//338
f 71//349 72//350 97//362
f 98//363 97//362 72//350
f 50//339 74//351 72//350
f 100//364 72//350 74//351
f 76//352 102//365 52//340
f 74//351 52//340 102//365
f 78//353 104//366 54//341
f 76//352 54//341 104//366
f 58//343 82//355 78//353
f 106//367 78//353 82//355
f 81//354 110//368 82//355
f 110//368 111//368 82//355
f 112//369 82//355 111//368
f 116//370 117//370 118//371
f 118//371 117//370 85//356
f 86//357 85//356 117//370
f 120//372 85//356 88//358
f 61//344 88//358 85//356
f 122//373 88//358 90//359
f 64//346 90//359 88//358
f 124//374 90//359 92//360
f 66//347 92//360 90//359
f 92//360 68//348 126//375
f 94//361 126//375 68//348
f 94//361 71//349 128//376
f 97//362 128//376 71//349
f 133//377 134//378 135//379
f 136//380 135//379 134//378
f 72//350 100//364 98//363
f 138//381 98//363 100//364
f 74//351 102//365 100//364
f 140//382 100//364 102//365
f 104//366 142//383 76//352
f 102//365 76//352 142//383
f 106//367 144//384 78//353
f 104//366 78//353 144//384
f 82//355 112//369 106//367
f 146//385 106//367 112//369
f 149//386 150//387 110//368
f 110//368 150//387 111//368
f 112//369 111//368 150//387
f 118//371 153//388 116//370
f 116//370 153//388 117//370
f 154//389 117//370 153//388
f 156//390 118//371 120//372
f 85//356 120//372 118//371
f 158//391 120//372 122//373
f 88//358 122//373 120//372
f 160//392 122//373 124//374
f 90//359 124//374 122//373
f 124//374 92//360 162//393
f 126//375 162//393 92//360
f 126//375 94//361 164//394
f 128//376 164//394 94//361
f 167//376 133//377 168//395
f 135//379 168//395 133//377
f 135//379 136//380 171//396
f 172//397 171//396 136//380
f 134//378 175//398 136//380
f 176//399 136//380 175//398
f 100//364 140//382 138//381
f 178//400 138//381 140//382
f 142//383 180//401 102//365
f 140//382 102//365 180//401
f 144//384 182//402 104//366
f 142//383 104//366 182//402
f 146//385 184//403 106//367
f 144//384 106//367 184//403
f 150//387 186//404 112//369
f 146//385 112//369 186//404
f 189//405 190//406 149//386
f 150//387 149//386 190//406
f 153//388 193//407 154//389
f 194//408 154//389 193//407
f 156//390 196//409 118//371
f 153//388 118//371 196//409
f 198//410 156//390 158//391
f 120//372 158//391 156//390
f 200//411 158//391 160//392
f 122//373 160//392 158//391
f 202//412 160//392 162//393
f 124//374 162//393 160//392
f 162//393 126//375 204//413
f 164//394 204//413 126//375
f 207//394 167//376 208//414
f 168//395 208//414 167//376
f 168//395 135//379 210//415
f 171//396 210//415 135//379
f 171//396 172//397 213//416
f 214//417 213//416 172//397
f 136//380 176//399 172//397
f 216//418 172//397 176//399
f 175//398 219//419 176//399
f 220//420 176//399 219//419
f 180//401 222//421 140//382
f 178//400 140//382 222//421
f 182//402 224//422 142//383
f 180//401 142//383 224//422
f 184//403 226//423 144//384
f 182//402 144//384 226//423
f 186//404 228//424 146//385
f 184//403 146//385 228//424
f 190//406 230//425 150//387
f 186//404 150//387 230//425
f 233//426 234//427 189//405
f 190//406 189//405 234//427
f 193//407 237//428 194//408
f 238//429 194//408 237//428
f 196//409 240//430 153//388
f 193//407 153//388 240//430
f 198//410 242//431 156//390
f 196//409 156//390 242//431
f 244//432 198//410 200//411
f 158//391 200//411 198//410
f 200//411 160//392 246//433
f 202//412 246//433 160//392
f 202//412 162//393 248//434
f 204//413 248//434 162//393
f 251//435 207//394 252//436
f 208//414 252//436 207//394
f 208//414 168//395 254//437
f 210//415 254//437 168//395
f 210//415 171//396 256//438
f 213//416 256//438 171//396
f 259//439 213//416 260//440
f 214//417 260//440 213//416
f 172//397 216//418 214//417
f 262//441 214//417 216//418
f 176//399 220//420 216//418
f 264//442 216//418 220//420
f 267//443 268//444 219//419
f 220//420 219//419 268//444
f 224//422 270//445 180//401
f 222//421 180//401 270//445
f 226//423 272//446 182//402
f 224//422 182//402 272//446
f 228//424 274//447 184//403
f 226//423 184//403 274//447
f 276//448 228//424 230//425
f 186//404 230//425 228//424
f 234//427 278//449 190//406
f 230//425 190//406 278//449
f 281//450 282//451 233//426
f 234//427 233//426 282//451
f 237//428 285//452 238//429
f 286//453 238//429 285//452
f 240//430 288//454 193//407
f 237//428 193//407 288//454
f 242//431 290//455 196//409
f 240//430 196//409 290//455
f 244//432 292//456 198//410
f 242//431 198//410 292//456
f 244//432 200//411 294//457
f 246//433 294//457 200//411
f 246//433 202//412 296//458
f 248//434 296//458 202//412
f 299//459 251//435 300//460
f 252//436 300//460 251//435
f 252//436 208//414 302//461
f 254//437 302//461 208//414
f 254//437 210//415 304//462
f 256//438 304//462 210//415
f 306//463 256//438 259//439
f 213//416 259//439 256//438
f 259//439 260//440 309//464
f 310//465 309//464 260//440
f 214//417 262//441 260//440
f 312//466 260//440 262//441
f 264//442 314//467 216//418
f 262//441 216//418 314//467
f 268//444 316//468 220//420
f 264//442 220//420 316//468
f 319//469 320//470 267//443
f 268//444 267//443 320//470
f 272//446 322//471 224//422
f 270//445 224//422 322//471
f 274//447 324//472 226//423
f 272//446 226//423 324//472
f 326//473 274//447 276//448
f 228//424 276//448 274//447
f 328//474 276//448 278//449
f 230//425 278//449 276//448
f 282//451 330//475 234//427
f 278//449 234//427 330//475
f 333//476 334//477 281//450
f 282//451 281//450 334//477
f 285//452 337//478 286//453
f 338//479 286//453 337//478
f 288//454 340//480 237//428
f 285//452 237//428 340//480
f 290//455 342//481 240//430
f 288//454 240//430 342//481
f 292//456 344//482 242//431
f 290//455 242//431 344//482
f 346//483 292//456 294//457
f 244//432 294//457 292//456
f 294//457 246//433 348//484
f 296//458 348//484 246//433
f 351//485 299//459 352//486
f 300//460 352//486 299//459
f 354//487 300//460 302//461
f 252//436 302//461 300//460
f 356//488 302//461 304//462
f 254//437 304//462 302//461
f 358//489 304//462 306//463
f 256//438 306//463 304//462
f 360//490 306//463 309//464
f 259//439 309//464 306//463
f 309//464 310//465 363//316
f 364//318 363//316 310//465
f 260//440 312//466 310//465
f 366//491 310//465 312//466
f 314//467 368//492 262//441
f 312//466 262//441 368//492
f 316//468 370//493 264//442
f 314//467 264//442 370//493
f 320//470 372//494 268//444
f 316//468 268//444 372//494
f 375//495 376//496 319//469
f 320//470 319//469 376//496
f 324//472 378//497 272//446
f 322//471 272//446 378//497
f 380//498 324//472 326//473
f 274//447 326//473 324//472
f 382//499 326//473 328//474
f 276//448 328//474 326//473
f 384//500 328//474 330//475
f 278//449 330//475 328//474
f 334//477 386//501 282//451
f 330//475 282//451 386//501
f 390//502 391//503 392//502
f 392//502 391//503 333//476
f 334//477 333//476 391//503
f 337//478 391//503 338//479
f 391//503 390//502 338//479
f 392//502 338//479 390//502
f 340//480 394//504 285//452
f 337//478 285//452 394//504
f 342//481 396//505 288//454
f 340//480 288//454 396//505
f 344//482 398//506 290//455
f 342//481 290//455 398//506
f 400//507 344//482 346//483
f 292//456 346//483 344//482
f 346//483 294//457 402//508
f 348//484 402//508 294//457
f 405//509 351//485 406//510
f 352//486 406//510 351//485
f 352//486 300//460 408//511
f 354//487 408//511 300//460
f 410//512 354//487 356//488
f 302//461 356//488 354//487
f 412//513 356//488 358//489
f 304//462 358//489 356//488
f 414//514 358//489 360//490
f 306//463 360//490 358//489
f 416//321 360//490 363//316
f 309//464 363//316 360//490
f 310//465 366//491 364//318
f 418//324 364//318 366//491
f 312//466 368//492 366//491
f 420//515 366//491 368//492
f 370//493 422//516 314//467
f 368//492 314//467 422//516
f 372//494 424//517 316//468
f 370//493 316//468 424//517
f 376//496 426//518 320//470
f 372//494 320//470 426//518
f 429//519 376//496 430//520
f 375//495 430//520 376//496
f 432//521 378//497 380//498
f 324//472 380//498 378//497
f 434//522 380//498 382//499
f 326//473 382//499 380//498
f 436//523 382//499 384//500
f 328//474 384//500 382//499
f 386//501 438//524 330//475
f 384//500 330//475 438//524
f 391//503 440//525 334//477
f 386//501 334//477 440//525
f 394//504 440//525 337//478
f 391//503 337//478 440//525
f 396//505 442//526 340//480
f 394//504 340//480 442//526
f 398//506 444//527 342//481
f 396//505 342//481 444//527
f 400//507 446//528 344//482
f 398//506 344//482 446//528
f 448//529 400//507 402//508
f 346//483 402//508 400//507
f 451//530 452//531 406//510
f 405//509 406//510 452//531
f 406//510 352//486 454//532
f 408//511 454//532 352//486
f 456//533 408//511 410//512
f 354//487 410//512 408//511
f 458//534 410//512 412//513
f 356//488 412//513 410//512
f 460//535 412//513 414//514
f 358//489 414//514 412//513
f 462//327 414//514 416//321
f 360//490 416//321 414//514
f 366//491 420//515 418//324
f 464//332 418//324 420//515
f 368//492 422//516 420//515
f 466//536 420//515 422//516
f 424//517 468//537 370//493
f 422//516 370//493 468//537
f 426//518 470//538 372//494
f 424//517 372//494 470//538
f 429//519 472//539 376//496
f 426//518 376//496 472//539
f 475//540 429//519 476//541
f 430//520 476//541 429//519
f 478//542 432//521 434//522
f 380//498 434//522 432//521
f 436//523 480//543 382//499
f 434//522 382//499 480//543
f 438//524 482//544 384//500
f 436//523 384//500 482//544
f 484//545 438//524 440//525
f 386//501 440//525 438//524
f 442//526 484//545 394//504
f 440//525 394//504 484//545
f 396//505 444//527 442//526
f 486//546 442//526 444//527
f 398//506 446//528 444//527
f 488//547 444//527 446//528
f 490//548 446//528 448//529
f 400//507 448//529 446//528
f 493//549 494//550 451//530
f 452//531 451//530 494//550
f 496//551 451//530 454//532
f 406//510 454//532 451//530
f 498//552 454//532 456//533
f 408//511 456//533 454//532
f 500//553 456//533 458//534
f 410//512 458//534 456//533
f 502//554 458//534 460//535
f 412//513 460//535 458//534
f 504//335 460//535 462//327
f 414//514 462//327 460//535
f 420//515 466//536 464//332
f 506//342 464//332 466//536
f 422//516 468//537 466//536
f 508//555 466//536 468//537
f 470//538 510//556 424//517
f 468//537 424//517 510//556
f 472//539 512//557 426//518
f 470//538 426//518 512//557
f 514//558 472//539 475//540
f 429//519 475//540 472//539
f 517//559 475//540 518//542
f 476//541 518//542 475//540
f 480//543 520//560 434//522
f 478//542 434//522 520//560
f 482//544 522//561 436//523
f 480//543 436//523 522//561
f 484//545 524//562 438//524
f 482//544 438//524 524//562
f 442//526 486//546 484//545
f 524//562 484//545 486//546
f 444//527 488//547 486//546
f 526//563 486//546 488//547
f 446//528 490//548 488//547
f 528//564 488//547 490//548
f 531//565 532//566 493//549
f 494//550 493//549 532//566
f 534//567 493//549 496//551
f 451//530 496//551 493//549
f 498//552 536//568 454//532
f 496//551 454//532 536//568
f 538//569 498//552 500//553
f 456//533 500//553 498//552
f 540//570 500//553 502//554
f 458//534 502//554 500//553
f 542//345 502//554 504//335
f 460//535 504//335 502//554
f 466//536 508//555 506//342
f 544//354 506//342 508//555
f 468//537 510//556 508//555
f 546//571 508//555 510//556
f 512//557 548//572 470//538
f 510//556 470//538 548//572
f 550//573 512//557 514//558
f 472//539 514//558 512//557
f 552//574 514//558 517//559
f 475//540 517//559 514//558
f 555//575 556//576 518//542
f 517//559 518//542 556//576
f 522//561 558//577 480//543
f 520//560 480//543 558//577
f 524//562 560//578 482//544
f 522//561 482//544 560//578
f 486//546 526//563 524//562
f 560//578 524//562 526//563
f 488//547 528//564 526//563
f 562//579 526//563 528//564
f 532//566 531//565 565//580
f 566//581 565//580 531//565
f 534//567 568//582 493//549
f 531//565 493//549 568//582
f 536//568 570//583 496//551
f 534//567 496//551 570//583
f 538//569 572//584 498//552
f 536//568 498//552 572//584
f 575//585 538//569 576//586
f 576//586 538//569 540//570
f 500//553 540//570 538//569
f 579//587 540//570 580//588
f 580//588 540//570 542//345
f 502//554 542//345 540//570
f 508//555 546//571 544//354
f 582//368 544//354 546//571
f 548//572 584//589 510//556
f 546//571 510//556 584//589
f 586//590 548//572 550//573
f 512//557 550//573 548//572
f 588//591 550//573 552//574
f 514//558 552//574 550//573
f 556//576 590//592 517//559
f 552//574 517//559 590//592
f 593//593 594//594 555//575
f 556//576 555//575 594//594
f 560//578 596//595 522//561
f 558//577 522//561 596//595
f 526//563 562//579 560//578
f 596//595 560//578 562//579
f 565//580 566//581 599//596
f 600//597 599//596 566//581
f 531//565 568//582 566//581
f 602//598 566//581 568//582
f 570//583 604//599 534//567
f 568//582 534//567 604//599
f 572//584 606//600 536//568
f 570//583 536//568 606//600
f 575//585 609//601 538//569
f 609//601 610//602 538//569
f 572//584 538//569 610//602
f 576//586 540//570 579//587
f 584//589 612//386 546//571
f 582//368 546//571 612//386
f 586//590 614//603 548//572
f 584//589 548//572 614//603
f 616//604 586//590 588//591
f 550//573 588//591 586//590
f 618//605 588//591 590//592
f 552//574 590//592 588//591
f 594//594 620//606 556//576
f 590//592 556//576 620//606
f 623//607 624//608 593//593
f 594//594 593//593 624//608
f 599//596 600//597 623//607
f 624//608 623//607 600//597
f 566//581 602//598 600//597
f 626//609 600//597 602//598
f 604//599 628//610 568//582
f 602//598 568//582 628//610
f 606//600 630//611 570//583
f 604//599 570//583 630//611
f 610//602 632//612 572//584
f 606//600 572//584 632//612
f 610//602 609//601 634//613
f 614//603 636//405 584//589
f 612//386 584//589 636//405
f 616//604 638//614 586//590
f 614//603 586//590 638//614
f 640//615 616//604 618//605
f 588//591 618//605 616//604
f 620//606 642//616 590//592
f 618//605 590//592 642//616
f 624//608 644//617 594//594
f 620//606 594//594 644//617
f 600//597 626//609 624//608
f 644//617 624//608 626//609
f 602//598 628//610 626//609
f 646//618 626//609 628//610
f 630//611 648//619 604//599
f 628//610 604//599 648//619
f 632//612 650//620 606//600
f 630//611 606//600 650//620
f 634//613 653//621 610//602
f 653//621 654//408 610//602
f 632//612 610//602 654//408
f 638//614 656//426 614//603
f 636//405 614//603 656//426
f 640//615 658//622 616//604
f 638//614 616//604 658//622
f 642//616 660//623 618//605
f 640//615 618//605 660//623
f 644//617 662//624 620//606
f 642//616 620//606 662//624
f 626//609 646//618 644//617
f 662//624 644//617 646//618
f 648//619 664//625 628//610
f 646//618 628//610 664//625
f 650//620 666//626 630//611
f 648//619 630//611 666//626
f 654//408 668//429 632//612
f 650//620 632//612 668//429
f 658//622 670//450 638//614
f 656//426 638//614 670//450
f 660//623 672//627 640//615
f 658//622 640//615 672//627
f 674//628 660//623 662//624
f 642//616 662//624 660//623
f 664//625 674//628 646//618
f 662//624 646//618 674//628
f 666//626 676//629 648//619
f 664//625 648//619 676//629
f 668//429 678//453 650//620
f 666//626 650//620 678//453
f 672//627 680//476 658//622
f 670//450 658//622 680//476
f 674//628 682//630 660//623
f 672//627 660//623 682//630
f 676//629 682//630 664//625
f 674//628 664//625 682//630
f 678//453 684//479 666//626
f 676//629 666//626 684//479
f 682//630 686//502 672//627
f 680//476 672//627 686//502
f 684//479 686//502 676//629
f 682//630 676//629 686//502
usemtl material_1_0
f 1//1 2//2 3//3
f 2//2 1//1 4//4
f 2//2 4//4 5//4
f 11//5 5//4 4//4
f 5//4 11//5 2//2
f 2//2 11//5 12//6
f 3//3 15//7 16//8
f 15//7 3//3 2//2
f 19//9 3//3 20//10
f 3//3 19//9 1//1
f 23//11 12//6 11//5
f 12//6 23//11 24//12
f 12//6 15//7 2//2
f 15//7 12//6 27//13
f 15//7 29//14 16//8
f 29//14 15//7 30//15
f 20//10 16//8 33//16
f 16//8 20//10 3//3
f 35//17 20//10 36//18
f 20//10 35//17 19//9
f 39//19 24//12 23//11
f 24//12 39//19 40//20
f 24//12 27//13 12//6
f 27//13 24//12 43//21
f 27//13 30//15 15//7
f 30//15 27//13 45//22
f 29//14 47//23 48//24
f 47//23 29//14 30//15
f 33//16 29//14 51//25
f 29//14 33//16 16//8
f 36//18 33//16 53//26
f 33//16 36//18 20//10
f 55//27 36//18 56//28
f 36//18 55//27 35//17
f 59//29 40//20 39//19
f 40//20 59//29 60//30
f 40//20 43//21 24//12
f 43//21 40//20 63//31
f 43//21 45//22 27//13
f 45//22 43//21 65//32
f 30//15 67//33 47//23
f 67//33 30//15 45//22
f 48//24 69//34 70//35
f 69//34 48//24 47//23
f 51//25 48//24 73//36
f 48//24 51//25 29//14
f 75//37 33//16 51//25
f 33//16 75//37 53//26
f 56//28 53//26 77//38
f 53//26 56//28 36//18
f 79//39 56//28 80//40
f 56//28 79//39 55//27
f 83//41 60//30 59//29
f 60//30 83//41 84//42
f 60//30 63//31 40//20
f 63//31 60//30 87//43
f 63//31 65//32 43//21
f 65//32 63//31 89//44
f 45//22 91//45 67//33
f 91//45 45//22 65//32
f 47//23 93//46 69//34
f 93//46 47//23 67//33
f 70//35 95//47 96//48
f 95//47 70//35 69//34
f 73//36 70//35 99//49
f 70//35 73//36 48//24
f 101//50 51//25 73//36
f 51//25 101//50 75//37
f 103//51 53//26 75//37
f 53//26 103//51 77//38
f 80//40 77//38 105//52
f 77//38 80//40 56//28
f 107//53 80//40 108//54
f 80//40 107//53 109//53
f 80//40 109//53 79//39
f 113//55 84//42 83//41
f 84//42 113//55 114//56
f 114//56 113//55 115//55
f 84//42 87//43 60//30
f 87//43 84//42 119//57
f 87//43 89//44 63//31
f 89//44 87//43 121//58
f 89//44 91//45 65//32
f 91//45 89//44 123//59
f 67//33 125//60 93//46
f 125//60 67//33 91//45
f 69//34 127//61 95//47
f 127//61 69//34 93//46
f 129//62 130//63 131//64
f 130//63 129//62 132//65
f 99//49 96//48 137//66
f 96//48 99//49 70//35
f 101//50 99//49 139//67
f 99//49 101//50 73//36
f 141//68 75//37 101//50
f 75//37 141//68 103//51
f 143//69 77//38 103//51
f 77//38 143//69 105//52
f 108//54 105//52 145//70
f 105//52 108//54 80//40
f 147//71 107//53 108//54
f 107//53 147//71 109//53
f 109//53 147//71 148//72
f 151//73 113//55 152//74
f 113//55 151//73 115//55
f 115//55 151//73 114//56
f 114//56 119//57 84//42
f 119//57 114//56 155//75
f 119//57 121//58 87//43
f 121//58 119//57 157//76
f 121//58 123//59 89//44
f 123//59 121//58 159//77
f 91//45 161//78 125//60
f 161//78 91//45 123//59
f 93//46 163//79 127//61
f 163//79 93//46 125//60
f 132//65 165//80 130//63
f 165//80 132//65 166//61
f 131//64 169//81 170//82
f 169//81 131//64 130//63
f 173//83 131//64 174//84
f 131//64 173//83 129//62
f 139//67 137//66 177//85
f 137//66 139//67 99//49
f 179//86 101//50 139//67
f 101//50 179//86 141//68
f 181//87 103//51 141//68
f 103//51 181//87 143//69
f 183//88 105//52 143//69
f 105//52 183//88 145//70
f 185//89 108//54 145//70
f 108//54 185//89 147//71
f 187//90 148//72 147//71
f 148//72 187//90 188//91
f 191//92 152//74 192//93
f 152//74 191//92 151//73
f 195//94 114//56 151//73
f 114//56 195//94 155//75
f 155//75 157//76 119//57
f 157//76 155//75 197//95
f 157//76 159//77 121//58
f 159//77 157//76 199//96
f 159//77 161//78 123//59
f 161//78 159//77 201//97
f 125//60 203//98 163//79
f 203//98 125//60 161//78
f 166//61 205//99 165//80
f 205//99 166//61 206//79
f 130//63 209//100 169//81
f 209//100 130//63 165//80
f 170//82 211//101 212//102
f 211//101 170//82 169//81
f 174//84 170//82 215//103
f 170//82 174//84 131//64
f 217//104 174//84 218//105
f 174//84 217//104 173//83
f 221//106 139//67 177//85
f 139//67 221//106 179//86
f 223//107 141//68 179//86
f 141//68 223//107 181//87
f 225//108 143//69 181//87
f 143//69 225//108 183//88
f 227//109 145//70 183//88
f 145//70 227//109 185//89
f 229//110 147//71 185//89
f 147//71 229//110 187//90
f 231//111 188//91 187//90
f 188//91 231//111 232//112
f 235//113 192//93 236//114
f 192//93 235//113 191//92
f 239//115 151//73 191//92
f 151//73 239//115 195//94
f 241//116 155//75 195//94
f 155//75 241//116 197//95
f 197//95 199//96 157//76
f 199//96 197//95 243//117
f 159//77 245//118 201//97
f 245//118 159//77 199//96
f 161//78 247//119 203//98
f 247//119 161//78 201//97
f 206//79 249//120 205//99
f 249//120 206//79 250//121
f 165//80 253//122 209//100
f 253//122 165//80 205//99
f 169//81 255//123 211//101
f 255//123 169//81 209//100
f 211//101 257//124 212//102
f 257//124 211//101 258//125
f 215//103 212//102 261//126
f 212//102 215//103 170//82
f 218//105 215//103 263//127
f 215//103 218//105 174//84
f 265//128 217//104 218//105
f 217//104 265//128 266//129
f 269//130 179//86 221//106
f 179//86 269//130 223//107
f 271//131 181//87 223//107
f 181//87 271//131 225//108
f 273//132 183//88 225//108
f 183//88 273//132 227//109
f 227//109 229//110 185//89
f 229//110 227//109 275//133
f 277//134 187//90 229//110
f 187//90 277//134 231//111
f 279//135 232//112 231//111
f 232//112 279//135 280//136
f 283//137 236//114 284//138
f 236//114 283//137 235//113
f 287//139 191//92 235//113
f 191//92 287//139 239//115
f 289//140 195//94 239//115
f 195//94 289//140 241//116
f 291//141 197//95 241//116
f 197//95 291//141 243//117
f 199//96 293//142 245//118
f 293//142 199//96 243//117
f 201//97 295//143 247//119
f 295//143 201//97 245//118
f 250//121 297//144 249//120
f 297//144 250//121 298//145
f 205//99 301//146 253//122
f 301//146 205//99 249//120
f 209//100 303//147 255//123
f 303//147 209//100 253//122
f 255//123 258//125 211//101
f 258//125 255//123 305//148
f 257//124 307//149 308//150
f 307//149 257//124 258//125
f 261//126 257//124 311//151
f 257//124 261//126 212//102
f 313//152 215//103 261//126
f 215//103 313//152 263//127
f 315//153 218//105 263//127
f 218//105 315//153 265//128
f 317//154 266//129 265//128
f 266//129 317//154 318//155
f 321//156 223//107 269//130
f 223//107 321//156 271//131
f 323//157 225//108 271//131
f 225//108 323//157 273//132
f 273//132 275//133 227//109
f 275//133 273//132 325//158
f 275//133 277//134 229//110
f 277//134 275//133 327//159
f 329//160 231//111 277//134
f 231//111 329//160 279//135
f 331//161 280//136 279//135
f 280//136 331//161 332//162
f 335//163 284//138 336//164
f 284//138 335//163 283//137
f 339//165 235//113 283//137
f 235//113 339//165 287//139
f 341//166 239//115 287//139
f 239//115 341//166 289//140
f 343//167 241//116 289//140
f 241//116 343//167 291//141
f 291//141 293//142 243//117
f 293//142 291//141 345//168
f 245//118 347//169 295//143
f 347//169 245//118 293//142
f 298//145 349//170 297//144
f 349//170 298//145 350//171
f 297//144 301//146 249//120
f 301//146 297//144 353//172
f 301//146 303//147 253//122
f 303//147 301//146 355//173
f 303//147 305//148 255//123
f 305//148 303//147 357//174
f 305//148 307//149 258//125
f 307//149 305//148 359//175
f 308//150 361//4 362//1
f 361//4 308//150 307//149
f 311//151 308//150 365//176
f 308//150 311//151 257//124
f 367//177 261//126 311//151
f 261//126 367//177 313//152
f 369//178 263//127 313//152
f 263//127 369//178 315//153
f 371//179 265//128 315//153
f 265//128 371//179 317//154
f 373//180 318//155 317//154
f 318//155 373//180 374//181
f 377//182 271//131 321//156
f 271//131 377//182 323//157
f 323//157 325//158 273//132
f 325//158 323//157 379//183
f 325//158 327//159 275//133
f 327//159 325//158 381//184
f 327//159 329//160 277//134
f 329//160 327//159 383//185
f 385//186 279//135 329//160
f 279//135 385//186 331//161
f 387//187 332//162 331//161
f 332//162 387//187 388//188
f 388//188 387//187 389//188
f 389//188 336//164 388//188
f 336//164 389//188 387//187
f 336//164 387//187 335//163
f 393//189 283//137 335//163
f 283//137 393//189 339//165
f 395//190 287//139 339//165
f 287//139 395//190 341//166
f 397//191 289//140 341//166
f 289//140 397//191 343//167
f 343//167 345//168 291//141
f 345//168 343//167 399//192
f 293//142 401//193 347//169
f 401//193 293//142 345//168
f 350//171 403//194 349//170
f 403//194 350//171 404//195
f 297//144 407//196 353//172
f 407//196 297//144 349//170
f 353//172 355//173 301//146
f 355//173 353//172 409//197
f 355//173 357//174 303//147
f 357//174 355//173 411//198
f 357//174 359//175 305//148
f 359//175 357//174 413//199
f 359//175 361//4 307//149
f 361//4 359//175 415//5
f 365//176 362//1 417//9
f 362//1 365//176 308//150
f 367//177 365//176 419//200
f 365//176 367//177 311//151
f 421//201 313//152 367//177
f 313//152 421//201 369//178
f 423//202 315//153 369//178
f 315//153 423//202 371//179
f 425//203 317//154 371//179
f 317//154 425//203 373//180
f 373//180 427//204 374//181
f 427//204 373//180 428//205
f 377//182 379//183 323//157
f 379//183 377//182 431//206
f 379//183 381//184 325//158
f 381//184 379//183 433//207
f 381//184 383//185 327//159
f 383//185 381//184 435//208
f 437//209 329//160 383//185
f 329//160 437//209 385//186
f 439//210 331//161 385//186
f 331//161 439//210 387//187
f 439//210 335//163 387//187
f 335//163 439//210 393//189
f 441//211 339//165 393//189
f 339//165 441//211 395//190
f 443//212 341//166 395//190
f 341//166 443//212 397//191
f 445//213 343//167 397//191
f 343//167 445//213 399//192
f 399//192 401//193 345//168
f 401//193 399//192 447//214
f 449//215 403//194 404//195
f 403//194 449//215 450//216
f 349//170 453//217 407//196
f 453//217 349//170 403//194
f 407//196 409//197 353//172
f 409//197 407//196 455//218
f 409//197 411//198 355//173
f 411//198 409//197 457//219
f 411//198 413//199 357//174
f 413//199 411//198 459//220
f 413//199 415//5 359//175
f 415//5 413//199 461//11
f 419//200 417//9 463//17
f 417//9 419//200 365//176
f 421//201 419//200 465//221
f 419//200 421//201 367//177
f 467//222 369//178 421//201
f 369//178 467//222 423//202
f 469//223 371//179 423//202
f 371//179 469//223 425//203
f 471//224 373//180 425//203
f 373//180 471//224 428//205
f 428//205 473//225 427//204
f 473//225 428//205 474//226
f 431//206 433//207 379//183
f 433//207 431//206 477//227
f 479//228 381//184 433//207
f 381//184 479//228 435//208
f 481//229 383//185 435//208
f 383//185 481//229 437//209
f 437//209 439//210 385//186
f 439//210 437//209 483//230
f 483//230 393//189 439//210
f 393//189 483//230 441//211
f 443//212 441//211 485//231
f 441//211 443//212 395//190
f 445//213 443//212 487//232
f 443//212 445//213 397//191
f 445//213 447//214 399//192
f 447//214 445//213 489//233
f 491//234 450//216 449//215
f 450//216 491//234 492//235
f 450//216 453//217 403//194
f 453//217 450//216 495//236
f 453//217 455//218 407//196
f 455//218 453//217 497//237
f 455//218 457//219 409//197
f 457//219 455//218 499//238
f 457//219 459//220 411//198
f 459//220 457//219 501//239
f 459//220 461//11 413//199
f 461//11 459//220 503//19
f 465//221 463//17 505//27
f 463//17 465//221 419//200
f 467//222 465//221 507//240
f 465//221 467//222 421//201
f 509//241 423//202 467//222
f 423//202 509//241 469//223
f 511//242 425//203 469//223
f 425//203 511//242 471//224
f 471//224 474//226 428//205
f 474//226 471//224 513//243
f 474//226 515//227 473//225
f 515//227 474//226 516//244
f 519//245 433//207 477//227
f 433//207 519//245 479//228
f 521//246 435//208 479//228
f 435//208 521//246 481//229
f 523//247 437//209 481//229
f 437//209 523//247 483//230
f 485//231 483//230 523//247
f 483//230 485//231 441//211
f 487//232 485//231 525//248
f 485//231 487//232 443//212
f 489//233 487//232 527//249
f 487//232 489//233 445//213
f 529//250 492//235 491//234
f 492//235 529//250 530//251
f 492//235 495//236 450//216
f 495//236 492//235 533//252
f 535//253 453//217 495//236
f 453//217 535//253 497//237
f 497//237 499//238 455//218
f 499//238 497//237 537//254
f 499//238 501//239 457//219
f 501//239 499//238 539//255
f 501//239 503//19 459//220
f 503//19 501//239 541//29
f 507//240 505//27 543//39
f 505//27 507//240 465//221
f 509//241 507//240 545//256
f 507//240 509//241 467//222
f 547//257 469//223 509//241
f 469//223 547//257 511//242
f 511//242 513//243 471//224
f 513//243 511//242 549//258
f 513//243 516//244 474//226
f 516//244 513//243 551//259
f 553//260 515//227 516//244
f 515//227 553//260 554//261
f 557//262 479//228 519//245
f 479//228 557//262 521//246
f 559//263 481//229 521//246
f 481//229 559//263 523//247
f 525//248 523//247 559//263
f 523//247 525//248 485//231
f 527//249 525//248 561//264
f 525//248 527//249 487//232
f 530//251 563//265 564//266
f 563//265 530//251 529//250
f 567//267 492//235 530//251
f 492//235 567//267 533//252
f 569//268 495//236 533//252
f 495//236 569//268 535//253
f 571//269 497//237 535//253
f 497//237 571//269 537//254
f 537//254 539//255 499//238
f 539//255 537//254 573//270
f 573//270 537//254 574//271
f 539//255 541//29 501//239
f 541//29 539//255 577//272
f 577//272 539//255 578//273
f 545//256 543//39 581//53
f 543//39 545//256 507//240
f 583//274 509//241 545//256
f 509//241 583//274 547//257
f 547//257 549//258 511//242
f 549//258 547//257 585//275
f 549//258 551//259 513//243
f 551//259 549//258 587//276
f 589//277 516//244 551//259
f 516//244 589//277 553//260
f 591//278 554//261 553//260
f 554//261 591//278 592//279
f 595//280 521//246 557//262
f 521//246 595//280 559//263
f 561//264 559//263 595//280
f 559//263 561//264 525//248
f 564//266 597//281 598//282
f 597//281 564//266 563//265
f 567//267 564//266 601//283
f 564//266 567//267 530//251
f 603//284 533//252 567//267
f 533//252 603//284 569//268
f 605//285 535//253 569//268
f 535//253 605//285 571//269
f 607//286 537//254 571//269
f 537//254 607//286 608//287
f 537//254 608//287 574//271
f 578//273 539//255 573//270
f 611//72 545//256 581//53
f 545//256 611//72 583//274
f 613//288 547//257 583//274
f 547//257 613//288 585//275
f 585//275 587//276 549//258
f 587//276 585//275 615//289
f 587//276 589//277 551//259
f 589//277 587//276 617//290
f 619//291 553//260 589//277
f 553//260 619//291 591//278
f 621//292 592//279 591//278
f 592//279 621//292 622//293
f 598//282 622//293 621//292
f 622//293 598//282 597//281
f 601//283 598//282 625//294
f 598//282 601//283 564//266
f 627//295 567//267 601//283
f 567//267 627//295 603//284
f 629//296 569//268 603//284
f 569//268 629//296 605//285
f 631//297 571//269 605//285
f 571//269 631//297 607//286
f 633//298 608//287 607//286
f 635//91 583//274 611//72
f 583//274 635//91 613//288
f 637//299 585//275 613//288
f 585//275 637//299 615//289
f 615//289 617//290 587//276
f 617//290 615//289 639//300
f 641//301 589//277 617//290
f 589//277 641//301 619//291
f 643//302 591//278 619//291
f 591//278 643//302 621//292
f 625//294 621//292 643//302
f 621//292 625//294 598//282
f 627//295 625//294 645//303
f 625//294 627//295 601//283
f 647//304 603//284 627//295
f 603//284 647//304 629//296
f 649//305 605//285 629//296
f 605//285 649//305 631//297
f 651//93 607//286 631//297
f 607//286 651//93 652//306
f 607//286 652//306 633//298
f 655//112 613//288 635//91
f 613//288 655//112 637//299
f 657//307 615//289 637//299
f 615//289 657//307 639//300
f 659//308 617//290 639//300
f 617//290 659//308 641//301
f 661//309 619//291 641//301
f 619//291 661//309 643//302
f 645//303 643//302 661//309
f 643//302 645//303 625//294
f 663//310 627//295 645//303
f 627//295 663//310 647//304
f 665//311 629//296 647//304
f 629//296 665//311 649//305
f 667//114 631//297 649//305
f 631//297 667//114 651//93
f 669//136 637//299 655//112
f 637//299 669//136 657//307
f 671//312 639//300 657//307
f 639//300 671//312 659//308
f 659//308 661//309 641//301
f 661//309 659//308 673//313
f 673//313 645//303 661//309
f 645//303 673//313 663//310
f 675//314 647//304 663//310
f 647//304 675//314 665//311
f 677//138 649//305 665//311
f 649//305 677//138 667//114
f 679//162 657//307 669//136
f 657//307 679//162 671//312
f 681//315 659//308 671//312
f 659//308 681//315 673//313
f 681//315 663//310 673//313
f 663//310 681//315 675//314
f 683//164 665//311 675//314
f 665//311 683//164 677//138
f 685//188 671//312 679//162
f 671//312 685//188 681//315
f 685//188 675//314 681//315
f 675//314 685//188 683//164
