# SSTK version 0.8.0
# 5
mtllib original-5.mtl
o #ID104
v 0.513685 -0.196900 0.523432
v 0.513685 -0.016280 0.523432
v 0.513685 -0.106590 0.526025
v 0.513685 -0.286913 0.515663
v 0.513685 0.073733 0.515663
v 0.513685 -0.376331 0.502744
v 0.513685 0.163152 0.502744
v 0.513685 -0.464862 0.484717
v 0.513685 0.251682 0.484717
v 0.513685 -0.552212 0.461639
v 0.513685 0.339032 0.461639
v 0.513685 -0.653035 0.428710
v 0.513685 0.425207 0.433494
v 0.513685 0.585107 0.373450
v 0.513685 -0.653035 -0.593888
v 0.513685 0.585664 0.373214
v 0.513685 0.585690 0.372608
v 0.513685 0.585690 -0.593888
v 0.513685 0.345960 -0.593888
v 0.513685 0.388725 -0.593888
v 0.513685 0.388725 -0.593888
v 0.513685 0.345960 -0.593888
v 0.513685 0.585690 -0.593888
v 0.513685 -0.653035 -0.593888
v 0.513685 0.585690 0.372608
v 0.513685 0.585664 0.373214
v 0.513685 0.585107 0.373450
v 0.513685 -0.653035 0.428710
v 0.513685 0.425207 0.433494
v 0.513685 0.339032 0.461639
v 0.513685 -0.552212 0.461639
v 0.513685 0.251682 0.484717
v 0.513685 -0.464862 0.484717
v 0.513685 0.163152 0.502744
v 0.513685 -0.376331 0.502744
v 0.513685 0.073733 0.515663
v 0.513685 -0.286913 0.515663
v 0.513685 -0.016280 0.523432
v 0.513685 -0.196900 0.523432
v 0.513685 -0.106590 0.526025
v -0.503152 -0.653035 -0.593888
v -0.502895 -0.653035 0.434728
v -0.503152 -0.653035 0.428710
v 0.513685 -0.653035 -0.593888
v -0.502126 -0.653035 0.440683
v -0.500853 -0.653035 0.446515
v -0.499090 -0.653035 0.452162
v -0.496854 -0.653035 0.457568
v -0.494170 -0.653035 0.462676
v -0.491063 -0.653035 0.467433
v -0.487567 -0.653035 0.471790
v -0.484170 -0.653035 0.475242
v 0.005267 -0.653035 0.475242
v 0.494704 -0.653035 0.475242
v 0.498101 -0.653035 0.471790
v 0.501597 -0.653035 0.467433
v 0.504703 -0.653035 0.462676
v 0.507388 -0.653035 0.457568
v 0.509624 -0.653035 0.452162
v 0.511387 -0.653035 0.446515
v 0.512659 -0.653035 0.440683
v 0.513428 -0.653035 0.434728
v 0.513685 -0.653035 0.428710
v 0.513685 -0.653035 0.428710
v 0.513685 -0.653035 -0.593888
v 0.513428 -0.653035 0.434728
v 0.512659 -0.653035 0.440683
v 0.511387 -0.653035 0.446515
v 0.509624 -0.653035 0.452162
v 0.507388 -0.653035 0.457568
v 0.504703 -0.653035 0.462676
v 0.501597 -0.653035 0.467433
v 0.498101 -0.653035 0.471790
v 0.494704 -0.653035 0.475242
v 0.005267 -0.653035 0.475242
v -0.484170 -0.653035 0.475242
v -0.487567 -0.653035 0.471790
v -0.491063 -0.653035 0.467433
v -0.494170 -0.653035 0.462676
v -0.496854 -0.653035 0.457568
v -0.499090 -0.653035 0.452162
v -0.500853 -0.653035 0.446515
v -0.502126 -0.653035 0.440683
v -0.502895 -0.653035 0.434728
v -0.503152 -0.653035 -0.593888
v -0.503152 -0.653035 0.428710
v 0.494704 -0.653035 0.475242
v 0.444928 -0.602628 0.491706
v 0.005267 -0.653035 0.475242
v 0.448483 -0.601921 0.491936
v 0.451915 -0.600756 0.492317
v 0.455166 -0.599152 0.492840
v 0.458180 -0.597139 0.493498
v 0.460905 -0.594749 0.494279
v 0.494704 -0.564738 0.504081
v 0.441311 -0.602865 0.491629
v 0.463295 -0.592024 0.495169
v 0.465308 -0.589010 0.496153
v 0.466911 -0.585759 0.497216
v 0.468077 -0.582327 0.498336
v 0.468784 -0.578772 0.499497
v 0.469021 -0.575155 0.500678
v 0.469021 -0.564738 0.504081
v 0.252429 -0.602628 0.491706
v 0.005267 -0.564738 0.504081
v 0.256046 -0.602865 0.491629
v 0.248874 -0.601921 0.491936
v 0.245442 -0.600756 0.492317
v 0.242191 -0.599152 0.492840
v 0.239177 -0.597139 0.493498
v 0.236452 -0.594749 0.494279
v 0.234062 -0.592024 0.495169
v 0.232048 -0.589010 0.496153
v 0.230445 -0.585759 0.497216
v 0.229280 -0.582327 0.498336
v 0.228573 -0.578772 0.499497
v 0.228336 -0.575155 0.500678
v 0.228336 -0.564738 0.504081
v 0.228336 -0.564738 0.504081
v 0.228336 -0.575155 0.500678
v 0.005267 -0.564738 0.504081
v 0.228573 -0.578772 0.499497
v 0.229280 -0.582327 0.498336
v 0.230445 -0.585759 0.497216
v 0.232048 -0.589010 0.496153
v 0.234062 -0.592024 0.495169
v 0.236452 -0.594749 0.494279
v 0.239177 -0.597139 0.493498
v 0.242191 -0.599152 0.492840
v 0.245442 -0.600756 0.492317
v 0.248874 -0.601921 0.491936
v 0.252429 -0.602628 0.491706
v 0.441311 -0.602865 0.491629
v 0.005267 -0.653035 0.475242
v 0.256046 -0.602865 0.491629
v 0.469021 -0.564738 0.504081
v 0.494704 -0.564738 0.504081
v 0.469021 -0.575155 0.500678
v 0.468784 -0.578772 0.499497
v 0.468077 -0.582327 0.498336
v 0.466911 -0.585759 0.497216
v 0.465308 -0.589010 0.496153
v 0.463295 -0.592024 0.495169
v 0.460905 -0.594749 0.494279
v 0.444928 -0.602628 0.491706
v 0.494704 -0.653035 0.475242
v 0.458180 -0.597139 0.493498
v 0.455166 -0.599152 0.492840
v 0.451915 -0.600756 0.492317
v 0.448483 -0.601921 0.491936
v 0.005267 -0.653035 0.475242
v -0.484170 -0.564738 0.504081
v -0.484170 -0.653035 0.475242
v 0.005267 -0.653035 0.475242
v -0.484170 -0.564738 0.504081
v -0.484170 -0.653035 0.475242
v -0.503152 -0.016280 0.523432
v -0.503152 -0.196900 0.523432
v -0.503152 -0.106590 0.526025
v -0.503152 0.073733 0.515663
v -0.503152 -0.286913 0.515663
v -0.503152 0.163152 0.502744
v -0.503152 -0.376331 0.502744
v -0.503152 0.251682 0.484717
v -0.503152 -0.464862 0.484717
v -0.503152 0.339032 0.461639
v -0.503152 -0.552212 0.461639
v -0.503152 0.425207 0.433494
v -0.503152 -0.653035 0.428710
v -0.503152 0.585107 0.373450
v -0.503152 -0.653035 -0.593888
v -0.503152 0.585664 0.373214
v -0.503152 0.585690 0.372608
v -0.503152 0.585690 -0.593888
v -0.503152 0.585690 -0.593888
v -0.503152 0.585690 0.372608
v -0.503152 -0.653035 -0.593888
v -0.503152 0.585664 0.373214
v -0.503152 0.585107 0.373450
v -0.503152 -0.653035 0.428710
v -0.503152 0.425207 0.433494
v -0.503152 -0.552212 0.461639
v -0.503152 0.339032 0.461639
v -0.503152 -0.464862 0.484717
v -0.503152 0.251682 0.484717
v -0.503152 -0.376331 0.502744
v -0.503152 0.163152 0.502744
v -0.503152 -0.286913 0.515663
v -0.503152 0.073733 0.515663
v -0.503152 -0.196900 0.523432
v -0.503152 -0.016280 0.523432
v -0.503152 -0.106590 0.526025
v 0.494704 -0.474932 0.527806
v 0.469021 -0.527337 0.513962
v 0.469021 -0.479696 0.526548
v 0.468784 -0.476079 0.527503
v 0.468556 -0.474932 0.527806
v 0.468556 -0.474932 0.527806
v 0.494704 -0.474932 0.527806
v 0.468784 -0.476079 0.527503
v 0.469021 -0.479696 0.526548
v 0.469021 -0.527337 0.513962
v 0.228336 -0.527337 0.513962
v 0.040307 -0.493313 0.522950
v 0.022786 -0.493490 0.522904
v 0.057822 -0.492330 0.523210
v 0.228336 -0.479696 0.526548
v 0.075321 -0.490541 0.523682
v 0.092794 -0.487948 0.524368
v 0.110232 -0.484552 0.525265
v 0.127626 -0.480354 0.526374
v 0.144966 -0.475357 0.527694
v 0.228573 -0.476079 0.527503
v 0.228801 -0.474932 0.527806
v 0.146235 -0.474932 0.527806
v 0.005267 -0.493478 0.522906
v 0.022786 -0.493490 0.522904
v 0.228336 -0.527337 0.513962
v 0.005267 -0.493478 0.522906
v 0.146235 -0.474932 0.527806
v 0.228801 -0.474932 0.527806
v 0.144966 -0.475357 0.527694
v 0.228573 -0.476079 0.527503
v 0.228336 -0.479696 0.526548
v 0.127626 -0.480354 0.526374
v 0.110232 -0.484552 0.525265
v 0.092794 -0.487948 0.524368
v 0.075321 -0.490541 0.523682
v 0.057822 -0.492330 0.523210
v 0.040307 -0.493313 0.522950
v -0.484170 -0.474932 0.527806
v -0.029774 -0.493313 0.522950
v -0.014912 -0.493463 0.522911
v -0.011570 -0.493466 0.522910
v 0.005267 -0.493478 0.522906
v -0.047288 -0.492330 0.523210
v -0.064787 -0.490541 0.523682
v -0.082260 -0.487948 0.524368
v -0.099698 -0.484552 0.525265
v -0.117092 -0.480354 0.526374
v -0.134433 -0.475357 0.527694
v -0.135701 -0.474932 0.527806
v -0.135701 -0.474932 0.527806
v -0.134433 -0.475357 0.527694
v -0.484170 -0.474932 0.527806
v -0.117092 -0.480354 0.526374
v -0.099698 -0.484552 0.525265
v -0.082260 -0.487948 0.524368
v -0.064787 -0.490541 0.523682
v -0.047288 -0.492330 0.523210
v -0.029774 -0.493313 0.522950
v 0.005267 -0.493478 0.522906
v -0.011570 -0.493466 0.522910
v -0.014912 -0.493463 0.522911
v 0.468077 -0.472524 0.528296
v 0.494704 -0.383913 0.546341
v 0.466911 -0.469092 0.528995
v 0.465308 -0.465841 0.529658
v 0.463295 -0.462828 0.530271
v 0.460905 -0.460103 0.530826
v 0.458180 -0.457713 0.531313
v 0.455166 -0.455699 0.531723
v 0.451915 -0.454096 0.532049
v 0.448483 -0.452931 0.532287
v 0.444928 -0.452224 0.532430
v 0.441311 -0.451987 0.532478
v 0.256046 -0.451987 0.532478
v 0.213606 -0.447439 0.533405
v 0.236611 -0.436343 0.535665
v 0.259724 -0.426171 0.537736
v 0.282935 -0.416926 0.539619
v 0.306236 -0.408612 0.541312
v 0.329616 -0.401233 0.542815
v 0.353066 -0.394792 0.544125
v 0.376576 -0.389292 0.545245
v 0.400138 -0.384734 0.546173
v 0.405496 -0.383913 0.546341
v 0.229280 -0.472524 0.528296
v 0.162244 -0.469564 0.528900
v 0.230445 -0.469092 0.528995
v 0.166235 -0.468036 0.529210
v 0.232048 -0.465841 0.529658
v 0.179449 -0.462978 0.530241
v 0.234062 -0.462828 0.530271
v 0.196573 -0.455602 0.531742
v 0.236452 -0.460103 0.530826
v 0.239177 -0.457713 0.531313
v 0.242191 -0.455699 0.531723
v 0.245442 -0.454096 0.532049
v 0.248874 -0.452931 0.532287
v 0.252429 -0.452224 0.532430
v 0.256046 -0.451987 0.532478
v 0.252429 -0.452224 0.532430
v 0.213606 -0.447439 0.533405
v 0.248874 -0.452931 0.532287
v 0.245442 -0.454096 0.532049
v 0.196573 -0.455602 0.531742
v 0.242191 -0.455699 0.531723
v 0.239177 -0.457713 0.531313
v 0.236452 -0.460103 0.530826
v 0.234062 -0.462828 0.530271
v 0.179449 -0.462978 0.530241
v 0.232048 -0.465841 0.529658
v 0.166235 -0.468036 0.529210
v 0.230445 -0.469092 0.528995
v 0.162244 -0.469564 0.528900
v 0.229280 -0.472524 0.528296
v 0.405496 -0.383913 0.546341
v 0.494704 -0.383913 0.546341
v 0.400138 -0.384734 0.546173
v 0.376576 -0.389292 0.545245
v 0.353066 -0.394792 0.544125
v 0.329616 -0.401233 0.542815
v 0.306236 -0.408612 0.541312
v 0.282935 -0.416926 0.539619
v 0.259724 -0.426171 0.537736
v 0.236611 -0.436343 0.535665
v 0.441311 -0.451987 0.532478
v 0.444928 -0.452224 0.532430
v 0.448483 -0.452931 0.532287
v 0.451915 -0.454096 0.532049
v 0.455166 -0.455699 0.531723
v 0.458180 -0.457713 0.531313
v 0.460905 -0.460103 0.530826
v 0.463295 -0.462828 0.530271
v 0.465308 -0.465841 0.529658
v 0.466911 -0.469092 0.528995
v 0.468077 -0.472524 0.528296
v -0.151710 -0.469564 0.528900
v -0.484170 -0.383913 0.546341
v -0.155701 -0.468036 0.529210
v -0.168915 -0.462978 0.530241
v -0.186039 -0.455602 0.531742
v -0.203072 -0.447439 0.533405
v -0.226077 -0.436343 0.535665
v -0.249190 -0.426171 0.537736
v -0.272402 -0.416926 0.539619
v -0.295702 -0.408612 0.541312
v -0.319082 -0.401233 0.542815
v -0.342532 -0.394792 0.544125
v -0.366043 -0.389292 0.545245
v -0.389605 -0.384734 0.546173
v -0.394963 -0.383913 0.546341
v -0.394963 -0.383913 0.546341
v -0.389605 -0.384734 0.546173
v -0.484170 -0.383913 0.546341
v -0.366043 -0.389292 0.545245
v -0.342532 -0.394792 0.544125
v -0.319082 -0.401233 0.542815
v -0.295702 -0.408612 0.541312
v -0.272402 -0.416926 0.539619
v -0.249190 -0.426171 0.537736
v -0.226077 -0.436343 0.535665
v -0.203072 -0.447439 0.533405
v -0.186039 -0.455602 0.531742
v -0.168915 -0.462978 0.530241
v -0.155701 -0.468036 0.529210
v -0.151710 -0.469564 0.528900
v 0.423742 -0.381120 0.546744
v 0.494704 -0.375959 0.547490
v 0.447377 -0.378453 0.547131
v 0.471034 -0.376732 0.547379
v 0.471034 -0.376732 0.547379
v 0.494704 -0.375959 0.547490
v 0.447377 -0.378453 0.547131
v 0.423742 -0.381120 0.546744
v -0.413208 -0.381120 0.546744
v -0.484170 -0.375959 0.547490
v -0.436843 -0.378453 0.547131
v -0.460500 -0.376732 0.547379
v -0.460500 -0.376732 0.547379
v -0.436843 -0.378453 0.547131
v -0.484170 -0.375959 0.547490
v -0.413208 -0.381120 0.546744
vt 20.48086 7.404573
vt 20.48086 10.33663
vt 20.45358 8.870603
vt 20.56261 5.94337
vt 20.56261 11.79784
vt 20.69855 4.491809
vt 20.69855 13.2494
vt 20.88826 3.054669
vt 20.88826 14.68654
vt 21.13108 1.636685
vt 21.13108 16.10452
vt 21.47758 4.542005e-15
vt 21.42724 17.50342
vt 22.05906 20.09912
vt 32.23794 4.548615e-15
vt 22.06154 20.10818
vt 22.06791 20.10858
vt 32.23794 20.10858
vt 32.23794 16.21698
vt 32.23794 16.9112
vt -1.55 49.73391
vt -1.552706 33.03607
vt -1.55 33.13376
vt -12.24973 49.73391
vt -1.560796 32.9394
vt -1.574187 32.84473
vt -1.59274 32.75304
vt -1.616263 32.66529
vt -1.644515 32.58238
vt -1.677202 32.50515
vt -1.713988 32.43442
vt -1.749733 32.37838
vt -6.899867 32.37838
vt -12.05 32.37838
vt -12.08575 32.43442
vt -12.12253 32.50515
vt -12.15522 32.58238
vt -12.18347 32.66529
vt -12.20699 32.75304
vt -12.22555 32.84473
vt -12.23894 32.9394
vt -12.24703 33.03607
vt -12.24973 33.13376
vt 12.05 -10.05238
vt 11.52623 -9.191578
vt 6.899867 -10.05238
vt 11.56364 -9.179503
vt 11.59975 -9.159606
vt 11.63396 -9.13223
vt 11.66567 -9.097841
vt 11.69435 -9.057029
vt 12.05 -8.544524
vt 11.48817 -9.195627
vt 11.71949 -9.010492
vt 11.74068 -8.959026
vt 11.75755 -8.903512
vt 11.76981 -8.8449
vt 11.77725 -8.784191
vt 11.77975 -8.722426
vt 11.77975 -8.544524
vt 9.500644 -9.191578
vt 6.899867 -8.544524
vt 9.538702 -9.195627
vt 9.463237 -9.179503
vt 9.427121 -9.159606
vt 9.392914 -9.13223
vt 9.361202 -9.097841
vt 9.332527 -9.057029
vt 9.30738 -9.010492
vt 9.28619 -8.959026
vt 9.269322 -8.903512
vt 9.257062 -8.8449
vt 9.249621 -8.784191
vt 9.247127 -8.722426
vt 9.247127 -8.544524
vt 1.749733 -8.544524
vt 1.749733 -10.05238
vt -20.48086 10.33663
vt -20.48086 7.404573
vt -20.45358 8.870603
vt -20.56261 11.79784
vt -20.56261 5.94337
vt -20.69855 13.2494
vt -20.69855 4.491809
vt -20.88826 14.68654
vt -20.88826 3.054669
vt -21.13108 16.10452
vt -21.13108 1.636685
vt -21.42724 17.50342
vt -21.47758 -5.311115e-16
vt -22.05906 20.09912
vt -32.23794 -5.245011e-16
vt -22.06154 20.10818
vt -22.06791 20.10858
vt -32.23794 20.10858
vt 12.05 -5.256979
vt 11.77975 -6.764838
vt 12.05 -6.764838
vt 11.77975 -6.136871
vt 11.77975 -5.336967
vt 11.77725 -5.27624
vt 11.77485 -5.256979
vt 9.247127 -6.136871
vt 7.268582 -5.565599
vt 7.084211 -5.568572
vt 7.452883 -5.549093
vt 9.247127 -5.336967
vt 7.637013 -5.519062
vt 7.820875 -5.475522
vt 8.004369 -5.418497
vt 8.187398 -5.348017
vt 8.369862 -5.26412
vt 9.249621 -5.27624
vt 9.252022 -5.256979
vt 8.383211 -5.256979
vt 9.247127 -6.764838
vt 6.899867 -5.568362
vt 6.899867 -6.764838
vt 1.749733 -5.256979
vt 1.749733 -6.764838
vt 6.531151 -5.565599
vt 6.68753 -5.56812
vt 6.722701 -5.56816
vt 6.346851 -5.549093
vt 6.16272 -5.519062
vt 5.978859 -5.475522
vt 5.795364 -5.418497
vt 5.612336 -5.348017
vt 5.429871 -5.26412
vt 5.416522 -5.256979
vt 12.05 -3.457496
vt 11.76981 -3.417608
vt 11.77485 -3.457496
vt 12.05 -1.949636
vt 11.75755 -3.360748
vt 11.74068 -3.306894
vt 11.71949 -3.256967
vt 11.69435 -3.211822
vt 11.66567 -3.17223
vt 11.63396 -3.13887
vt 11.59975 -3.112313
vt 11.56364 -3.093011
vt 11.52623 -3.081297
vt 11.48817 -3.07737
vt 9.538702 -3.07737
vt 9.09213 -3.002039
vt 9.334201 -2.818215
vt 9.577407 -2.649691
vt 9.82165 -2.496534
vt 10.06683 -2.358807
vt 10.31285 -2.236566
vt 10.5596 -2.129861
vt 10.807 -2.038735
vt 11.05493 -1.963226
vt 11.11131 -1.949636
vt 9.257062 -3.417608
vt 8.383211 -3.457496
vt 9.252022 -3.457496
vt 8.551665 -3.36857
vt 9.269322 -3.360748
vt 8.593665 -3.343256
vt 9.28619 -3.306894
vt 8.732709 -3.259455
vt 9.30738 -3.256967
vt 8.912896 -3.137256
vt 9.332527 -3.211822
vt 9.361202 -3.17223
vt 9.392914 -3.13887
vt 9.427121 -3.112313
vt 9.463237 -3.093011
vt 9.500644 -3.081297
vt 5.248068 -3.36857
vt 1.749733 -3.457496
vt 5.416522 -3.457496
vt 1.749733 -1.949636
vt 5.206068 -3.343256
vt 5.067025 -3.259455
vt 4.886837 -3.137256
vt 4.707603 -3.002039
vt 4.465532 -2.818215
vt 4.222326 -2.649691
vt 3.978083 -2.496534
vt 3.732903 -2.358807
vt 3.486886 -2.236566
vt 3.24013 -2.129861
vt 2.992737 -2.038735
vt 2.744807 -1.963226
vt 2.688425 -1.949636
vt 12.05 -0.1412489
vt 11.30329 -0.09543519
vt 11.11131 -0.1412489
vt 12.05 -0.01078781
vt 11.55199 -0.05168237
vt 11.80093 -0.02346276
vt 2.49644 -0.09543519
vt 1.749733 -0.1412489
vt 2.688425 -0.1412489
vt 1.749733 -0.01078781
vt 2.247738 -0.05168237
vt 1.998802 -0.02346276
vn 1 0 0
vn 0 -1 0
vn 0 -0.3104659051687826 0.9505845158257779
vn 0 -0.283061489307991 0.9591017637720942
vn -1 0 0
vn 0 -0.22757609964187508 0.973760298467642
vn 0 -0.2554240091463753 0.9668291346207935
vn 0 -0.2241741027549184 0.9745491119764194
vn 0 -0.24959021304255052 0.9683515506020395
vn 0 -0.1995408036840333 0.9798895180912642
vn 0 -0.17134119163198103 0.9852117518838944
vn 0 -0.19679249229957999 0.9804451616355295
vn 0 -0.14300040433642175 0.9897226300128839
vn 0 1 0
vn 0 0.283061489307991 -0.9591017637720942
vn 0 0.3104659051687826 -0.9505845158257779
vn 0 0.2241741027549184 -0.9745491119764194
vn 0 0.22757609964187508 -0.973760298467642
vn 0 0.2554240091463753 -0.9668291346207935
vn 0 0.24959021304255052 -0.9683515506020395
vn 0 0.1995408036840333 -0.9798895180912642
vn 0 0.19679249229957999 -0.9804451616355295
vn 0 0.17134119163198103 -0.9852117518838944
vn 0 0.14300040433642175 -0.9897226300128839
usemtl material_0_0
f 1/1/1 2/2/1 3/3/1
f 2/2/1 1/1/1 4/4/1
f 2/2/1 4/4/1 5/5/1
f 5/5/1 4/4/1 6/6/1
f 5/5/1 6/6/1 7/7/1
f 7/7/1 6/6/1 8/8/1
f 7/7/1 8/8/1 9/9/1
f 9/9/1 8/8/1 10/10/1
f 9/9/1 10/10/1 11/11/1
f 11/11/1 10/10/1 12/12/1
f 11/11/1 12/12/1 13/13/1
f 13/13/1 12/12/1 14/14/1
f 14/14/1 12/12/1 15/15/1
f 14/14/1 15/15/1 16/16/1
f 16/16/1 15/15/1 17/17/1
f 17/17/1 15/15/1 18/18/1
f 18/18/1 15/15/1 19/19/1
f 18/18/1 19/19/1 20/20/1
f 41/21/2 42/22/2 43/23/2
f 42/22/2 41/21/2 44/24/2
f 42/22/2 44/24/2 45/25/2
f 45/25/2 44/24/2 46/26/2
f 46/26/2 44/24/2 47/27/2
f 47/27/2 44/24/2 48/28/2
f 48/28/2 44/24/2 49/29/2
f 49/29/2 44/24/2 50/30/2
f 50/30/2 44/24/2 51/31/2
f 51/31/2 44/24/2 52/32/2
f 52/32/2 44/24/2 53/33/2
f 53/33/2 44/24/2 54/34/2
f 54/34/2 44/24/2 55/35/2
f 55/35/2 44/24/2 56/36/2
f 56/36/2 44/24/2 57/37/2
f 57/37/2 44/24/2 58/38/2
f 58/38/2 44/24/2 59/39/2
f 59/39/2 44/24/2 60/40/2
f 60/40/2 44/24/2 61/41/2
f 61/41/2 44/24/2 62/42/2
f 62/42/2 44/24/2 63/43/2
f 87/44/3 88/45/3 89/46/3
f 88/45/3 87/44/3 90/47/3
f 90/47/3 87/44/3 91/48/3
f 91/48/3 87/44/3 92/49/3
f 92/49/3 87/44/3 93/50/3
f 93/50/3 87/44/3 94/51/3
f 94/51/3 87/44/3 95/52/4
f 89/46/3 88/45/3 96/53/3
f 94/51/3 95/52/4 97/54/3
f 97/54/3 95/52/4 98/55/3
f 98/55/3 95/52/4 99/56/3
f 99/56/3 95/52/4 100/57/3
f 100/57/3 95/52/4 101/58/3
f 101/58/3 95/52/4 102/59/3
f 102/59/3 95/52/4 103/60/4
f 89/46/3 104/61/3 105/62/4
f 104/61/3 89/46/3 106/63/3
f 106/63/3 89/46/3 96/53/3
f 105/62/4 104/61/3 107/64/3
f 105/62/4 107/64/3 108/65/3
f 105/62/4 108/65/3 109/66/3
f 105/62/4 109/66/3 110/67/3
f 105/62/4 110/67/3 111/68/3
f 105/62/4 111/68/3 112/69/3
f 105/62/4 112/69/3 113/70/3
f 105/62/4 113/70/3 114/71/3
f 105/62/4 114/71/3 115/72/3
f 105/62/4 115/72/3 116/73/3
f 105/62/4 116/73/3 117/74/3
f 105/62/4 117/74/3 118/75/4
f 151/46/3 152/76/4 153/77/3
f 152/76/4 151/46/3 105/62/4
f 157/78/5 158/79/5 159/80/5
f 158/79/5 157/78/5 160/81/5
f 158/79/5 160/81/5 161/82/5
f 161/82/5 160/81/5 162/83/5
f 161/82/5 162/83/5 163/84/5
f 163/84/5 162/83/5 164/85/5
f 163/84/5 164/85/5 165/86/5
f 165/86/5 164/85/5 166/87/5
f 165/86/5 166/87/5 167/88/5
f 167/88/5 166/87/5 168/89/5
f 167/88/5 168/89/5 169/90/5
f 169/90/5 168/89/5 170/91/5
f 169/90/5 170/91/5 171/92/5
f 171/92/5 170/91/5 172/93/5
f 171/92/5 172/93/5 173/94/5
f 171/92/5 173/94/5 174/95/5
f 193/96/6 103/97/4 95/98/4
f 103/97/4 193/96/6 194/99/7
f 194/99/7 193/96/6 195/100/7
f 195/100/7 193/96/6 196/101/7
f 196/101/7 193/96/6 197/102/8
f 203/103/7 204/104/7 205/105/7
f 204/104/7 203/103/7 206/106/7
f 206/106/7 203/103/7 207/107/7
f 206/106/7 207/107/7 208/108/7
f 208/108/7 207/107/7 209/109/7
f 209/109/7 207/107/7 210/110/7
f 210/110/7 207/107/7 211/111/7
f 211/111/7 207/107/7 212/112/7
f 212/112/7 207/107/7 213/113/7
f 212/112/7 213/113/7 214/114/8
f 212/112/7 214/114/8 215/115/9
f 118/116/4 216/117/7 105/118/4
f 216/117/7 118/116/4 203/103/7
f 216/117/7 203/103/7 205/105/7
f 105/118/4 231/119/6 152/120/4
f 231/119/6 105/118/4 232/121/7
f 232/121/7 105/118/4 233/122/7
f 233/122/7 105/118/4 234/123/7
f 234/123/7 105/118/4 235/117/7
f 231/119/6 232/121/7 236/124/7
f 231/119/6 236/124/7 237/125/7
f 231/119/6 237/125/7 238/126/7
f 231/119/6 238/126/7 239/127/7
f 231/119/6 239/127/7 240/128/7
f 231/119/6 240/128/7 241/129/7
f 231/119/6 241/129/7 242/130/9
f 193/131/6 255/132/10 197/133/8
f 255/132/10 193/131/6 256/134/11
f 255/132/10 256/134/11 257/135/10
f 257/135/10 256/134/11 258/136/10
f 258/136/10 256/134/11 259/137/10
f 259/137/10 256/134/11 260/138/10
f 260/138/10 256/134/11 261/139/10
f 261/139/10 256/134/11 262/140/10
f 262/140/10 256/134/11 263/141/10
f 263/141/10 256/134/11 264/142/10
f 264/142/10 256/134/11 265/143/10
f 265/143/10 256/134/11 266/144/10
f 266/144/10 256/134/11 267/145/10
f 267/145/10 256/134/11 268/146/10
f 268/146/10 256/134/11 269/147/10
f 269/147/10 256/134/11 270/148/10
f 270/148/10 256/134/11 271/149/10
f 271/149/10 256/134/11 272/150/10
f 272/150/10 256/134/11 273/151/10
f 273/151/10 256/134/11 274/152/10
f 274/152/10 256/134/11 275/153/10
f 275/153/10 256/134/11 276/154/10
f 276/154/10 256/134/11 277/155/12
f 278/156/10 215/157/9 214/158/8
f 215/157/9 278/156/10 279/159/10
f 279/159/10 278/156/10 280/160/10
f 279/159/10 280/160/10 281/161/10
f 281/161/10 280/160/10 282/162/10
f 281/161/10 282/162/10 283/163/10
f 283/163/10 282/162/10 284/164/10
f 283/163/10 284/164/10 285/165/10
f 285/165/10 284/164/10 286/166/10
f 285/165/10 286/166/10 287/167/10
f 285/165/10 287/167/10 288/168/10
f 285/165/10 288/168/10 289/169/10
f 285/165/10 289/169/10 268/146/10
f 268/146/10 289/169/10 290/170/10
f 268/146/10 290/170/10 291/171/10
f 268/146/10 291/171/10 267/145/10
f 329/172/10 231/173/6 242/174/9
f 231/173/6 329/172/10 330/175/11
f 330/175/11 329/172/10 331/176/10
f 330/175/11 331/176/10 332/177/10
f 330/175/11 332/177/10 333/178/10
f 330/175/11 333/178/10 334/179/10
f 330/175/11 334/179/10 335/180/10
f 330/175/11 335/180/10 336/181/10
f 330/175/11 336/181/10 337/182/10
f 330/175/11 337/182/10 338/183/10
f 330/175/11 338/183/10 339/184/10
f 330/175/11 339/184/10 340/185/10
f 330/175/11 340/185/10 341/186/10
f 330/175/11 341/186/10 342/187/10
f 330/175/11 342/187/10 343/188/12
f 256/189/11 359/190/13 277/191/12
f 359/190/13 256/189/11 360/192/13
f 359/190/13 360/192/13 361/193/13
f 361/193/13 360/192/13 362/194/13
f 367/195/13 330/196/11 343/197/12
f 330/196/11 367/195/13 368/198/13
f 368/198/13 367/195/13 369/199/13
f 368/198/13 369/199/13 370/200/13
usemtl material_1_0
f 21//5 22//5 23//5
f 22//5 24//5 23//5
f 23//5 24//5 25//5
f 25//5 24//5 26//5
f 26//5 24//5 27//5
f 24//5 28//5 27//5
f 27//5 28//5 29//5
f 29//5 28//5 30//5
f 28//5 31//5 30//5
f 30//5 31//5 32//5
f 31//5 33//5 32//5
f 32//5 33//5 34//5
f 33//5 35//5 34//5
f 34//5 35//5 36//5
f 35//5 37//5 36//5
f 36//5 37//5 38//5
f 37//5 39//5 38//5
f 40//5 38//5 39//5
f 64//14 65//14 66//14
f 66//14 65//14 67//14
f 67//14 65//14 68//14
f 68//14 65//14 69//14
f 69//14 65//14 70//14
f 70//14 65//14 71//14
f 71//14 65//14 72//14
f 72//14 65//14 73//14
f 73//14 65//14 74//14
f 74//14 65//14 75//14
f 75//14 65//14 76//14
f 76//14 65//14 77//14
f 77//14 65//14 78//14
f 78//14 65//14 79//14
f 79//14 65//14 80//14
f 80//14 65//14 81//14
f 81//14 65//14 82//14
f 82//14 65//14 83//14
f 83//14 65//14 84//14
f 65//14 85//14 84//14
f 86//14 84//14 85//14
f 119//15 120//16 121//15
f 120//16 122//16 121//15
f 122//16 123//16 121//15
f 123//16 124//16 121//15
f 124//16 125//16 121//15
f 125//16 126//16 121//15
f 126//16 127//16 121//15
f 127//16 128//16 121//15
f 128//16 129//16 121//15
f 129//16 130//16 121//15
f 130//16 131//16 121//15
f 131//16 132//16 121//15
f 133//16 134//16 135//16
f 135//16 134//16 132//16
f 121//15 132//16 134//16
f 136//15 137//15 138//16
f 138//16 137//15 139//16
f 139//16 137//15 140//16
f 140//16 137//15 141//16
f 141//16 137//15 142//16
f 142//16 137//15 143//16
f 143//16 137//15 144//16
f 133//16 145//16 134//16
f 137//15 146//16 144//16
f 144//16 146//16 147//16
f 147//16 146//16 148//16
f 148//16 146//16 149//16
f 149//16 146//16 150//16
f 150//16 146//16 145//16
f 134//16 145//16 146//16
f 121//15 154//16 155//15
f 156//16 155//15 154//16
f 175//1 176//1 177//1
f 176//1 178//1 177//1
f 178//1 179//1 177//1
f 177//1 179//1 180//1
f 179//1 181//1 180//1
f 180//1 181//1 182//1
f 181//1 183//1 182//1
f 182//1 183//1 184//1
f 183//1 185//1 184//1
f 184//1 185//1 186//1
f 185//1 187//1 186//1
f 186//1 187//1 188//1
f 187//1 189//1 188//1
f 188//1 189//1 190//1
f 189//1 191//1 190//1
f 192//1 190//1 191//1
f 198//17 199//18 200//19
f 200//19 199//18 201//19
f 201//19 199//18 202//19
f 202//19 199//18 136//15
f 137//15 136//15 199//18
f 217//19 218//19 219//19
f 218//19 119//15 219//19
f 121//15 219//19 119//15
f 220//20 221//17 222//19
f 221//17 223//19 222//19
f 223//19 224//19 222//19
f 222//19 224//19 225//19
f 225//19 224//19 226//19
f 226//19 224//19 227//19
f 227//19 224//19 228//19
f 228//19 224//19 229//19
f 224//19 218//19 229//19
f 229//19 218//19 230//19
f 217//19 230//19 218//19
f 243//20 244//19 245//18
f 244//19 246//19 245//18
f 246//19 247//19 245//18
f 247//19 248//19 245//18
f 248//19 249//19 245//18
f 249//19 250//19 245//18
f 250//19 251//19 245//18
f 252//19 121//15 253//19
f 253//19 121//15 254//19
f 254//19 121//15 251//19
f 251//19 121//15 245//18
f 155//15 245//18 121//15
f 292//21 293//21 294//21
f 293//21 295//21 294//21
f 295//21 296//21 294//21
f 294//21 296//21 297//21
f 296//21 298//21 297//21
f 298//21 299//21 297//21
f 299//21 300//21 297//21
f 300//21 301//21 297//21
f 297//21 301//21 302//21
f 301//21 303//21 302//21
f 302//21 303//21 304//21
f 303//21 305//21 304//21
f 304//21 305//21 306//21
f 305//21 307//21 306//21
f 306//21 307//21 220//20
f 221//17 220//20 307//21
f 308//22 309//23 310//21
f 310//21 309//23 311//21
f 311//21 309//23 312//21
f 312//21 309//23 313//21
f 313//21 309//23 314//21
f 314//21 309//23 315//21
f 315//21 309//23 316//21
f 316//21 309//23 317//21
f 317//21 309//23 294//21
f 294//21 309//23 292//21
f 292//21 309//23 318//21
f 318//21 309//23 319//21
f 319//21 309//23 320//21
f 320//21 309//23 321//21
f 321//21 309//23 322//21
f 322//21 309//23 323//21
f 323//21 309//23 324//21
f 324//21 309//23 325//21
f 325//21 309//23 326//21
f 326//21 309//23 327//21
f 327//21 309//23 328//21
f 309//23 199//18 328//21
f 198//17 328//21 199//18
f 344//22 345//21 346//23
f 345//21 347//21 346//23
f 347//21 348//21 346//23
f 348//21 349//21 346//23
f 349//21 350//21 346//23
f 350//21 351//21 346//23
f 351//21 352//21 346//23
f 352//21 353//21 346//23
f 353//21 354//21 346//23
f 354//21 355//21 346//23
f 355//21 356//21 346//23
f 356//21 357//21 346//23
f 357//21 358//21 346//23
f 346//23 358//21 245//18
f 243//20 245//18 358//21
f 363//24 364//24 365//24
f 365//24 364//24 366//24
f 364//24 309//23 366//24
f 308//22 366//24 309//23
f 371//24 372//24 373//24
f 372//24 374//24 373//24
f 373//24 374//24 346//23
f 344//22 346//23 374//24
