# SSTK version 0.8.0
# 80
mtllib original-80.mtl
o #ID601
v 0.233305 -0.474932 0.527806
v 0.463801 -0.473670 0.528063
v 0.464052 -0.474932 0.527806
v 0.233556 -0.473670 0.528063
v 0.234535 -0.470786 0.528650
v 0.462822 -0.470786 0.528650
v 0.461475 -0.468055 0.529206
v 0.235882 -0.468055 0.529206
v 0.459783 -0.465522 0.529723
v 0.237574 -0.465522 0.529723
v 0.239582 -0.463233 0.530189
v 0.457775 -0.463233 0.530189
v 0.455485 -0.461225 0.530598
v 0.241872 -0.461225 0.530598
v 0.244404 -0.459533 0.530942
v 0.452953 -0.459533 0.530942
v 0.450221 -0.458186 0.531216
v 0.247136 -0.458186 0.531216
v 0.447337 -0.457207 0.531416
v 0.250019 -0.457207 0.531416
v 0.253007 -0.456612 0.531537
v 0.444350 -0.456612 0.531537
v 0.256190 -0.456404 0.531579
v 0.441167 -0.456404 0.531579
v 0.441167 -0.456404 0.531579
v 0.256190 -0.456404 0.531579
v 0.444350 -0.456612 0.531537
v 0.253007 -0.456612 0.531537
v 0.447337 -0.457207 0.531416
v 0.250019 -0.457207 0.531416
v 0.247136 -0.458186 0.531216
v 0.450221 -0.458186 0.531216
v 0.244404 -0.459533 0.530942
v 0.452953 -0.459533 0.530942
v 0.455485 -0.461225 0.530598
v 0.241872 -0.461225 0.530598
v 0.239582 -0.463233 0.530189
v 0.457775 -0.463233 0.530189
v 0.459783 -0.465522 0.529723
v 0.237574 -0.465522 0.529723
v 0.235882 -0.468055 0.529206
v 0.461475 -0.468055 0.529206
v 0.234535 -0.470786 0.528650
v 0.462822 -0.470786 0.528650
v 0.463801 -0.473670 0.528063
v 0.233556 -0.473670 0.528063
v 0.233305 -0.474932 0.527806
v 0.464052 -0.474932 0.527806
v 0.232753 -0.564738 0.504081
v 0.464604 -0.527337 0.513962
v 0.464604 -0.564738 0.504081
v 0.232753 -0.527337 0.513962
v 0.464604 -0.479841 0.526509
v 0.232753 -0.479841 0.526509
v 0.232962 -0.476657 0.527350
v 0.464395 -0.476657 0.527350
v 0.232962 -0.476657 0.527350
v 0.464395 -0.476657 0.527350
v 0.464604 -0.479841 0.526509
v 0.232753 -0.479841 0.526509
v 0.232753 -0.527337 0.513962
v 0.464604 -0.527337 0.513962
v 0.232753 -0.564738 0.504081
v 0.464604 -0.564738 0.504081
v 0.256190 -0.598448 0.493071
v 0.444350 -0.598239 0.493139
v 0.441167 -0.598448 0.493071
v 0.253007 -0.598239 0.493139
v 0.447337 -0.597645 0.493333
v 0.250019 -0.597645 0.493333
v 0.247136 -0.596666 0.493653
v 0.450221 -0.596666 0.493653
v 0.452953 -0.595319 0.494093
v 0.244404 -0.595319 0.494093
v 0.455485 -0.593627 0.494646
v 0.241872 -0.593627 0.494646
v 0.239582 -0.591619 0.495301
v 0.457775 -0.591619 0.495301
v 0.459783 -0.589329 0.496050
v 0.237574 -0.589329 0.496050
v 0.235882 -0.586797 0.496876
v 0.461475 -0.586797 0.496876
v 0.234535 -0.584065 0.497768
v 0.462822 -0.584065 0.497768
v 0.463801 -0.581181 0.498710
v 0.233556 -0.581181 0.498710
v 0.232962 -0.578194 0.499686
v 0.464395 -0.578194 0.499686
v 0.464604 -0.575011 0.500725
v 0.232753 -0.575011 0.500725
v 0.464604 -0.575011 0.500725
v 0.232753 -0.575011 0.500725
v 0.232962 -0.578194 0.499686
v 0.464395 -0.578194 0.499686
v 0.463801 -0.581181 0.498710
v 0.233556 -0.581181 0.498710
v 0.234535 -0.584065 0.497768
v 0.462822 -0.584065 0.497768
v 0.461475 -0.586797 0.496876
v 0.235882 -0.586797 0.496876
v 0.459783 -0.589329 0.496050
v 0.237574 -0.589329 0.496050
v 0.239582 -0.591619 0.495301
v 0.457775 -0.591619 0.495301
v 0.455485 -0.593627 0.494646
v 0.241872 -0.593627 0.494646
v 0.244404 -0.595319 0.494093
v 0.452953 -0.595319 0.494093
v 0.247136 -0.596666 0.493653
v 0.450221 -0.596666 0.493653
v 0.447337 -0.597645 0.493333
v 0.250019 -0.597645 0.493333
v 0.253007 -0.598239 0.493139
v 0.444350 -0.598239 0.493139
v 0.256190 -0.598448 0.493071
v 0.441167 -0.598448 0.493071
vn 0 0.23098070723993122 -0.972958330496708
vn 0 0.1995408036840333 -0.9798895180912642
vn 0 0.283061489307991 -0.9591017637720942
vn 0 0.2554240091463753 -0.9668291346207935
vn 0 0.3104659051687826 -0.9505845158257779
vn 0 -0.1995408036840333 0.9798895180912642
vn 0 -0.23098070723993122 0.972958330496708
vn 0 -0.2554240091463753 0.9668291346207935
vn 0 -0.283061489307991 0.9591017637720942
vn 0 -0.3104659051687826 0.9505845158257779
usemtl material_0_0
f 1//1 2//2 3//1
f 2//2 1//1 4//2
f 2//2 4//2 5//2
f 2//2 5//2 6//2
f 6//2 5//2 7//2
f 7//2 5//2 8//2
f 7//2 8//2 9//2
f 9//2 8//2 10//2
f 9//2 10//2 11//2
f 9//2 11//2 12//2
f 12//2 11//2 13//2
f 13//2 11//2 14//2
f 13//2 14//2 15//2
f 13//2 15//2 16//2
f 16//2 15//2 17//2
f 17//2 15//2 18//2
f 17//2 18//2 19//2
f 19//2 18//2 20//2
f 19//2 20//2 21//2
f 19//2 21//2 22//2
f 22//2 21//2 23//2
f 22//2 23//2 24//2
f 49//3 50//4 51//3
f 50//4 49//3 52//4
f 50//4 52//4 53//4
f 53//4 52//4 54//4
f 53//4 54//4 55//4
f 53//4 55//4 56//4
f 56//4 55//4 3//1
f 3//1 55//4 1//1
f 65//5 66//5 67//5
f 66//5 65//5 68//5
f 66//5 68//5 69//5
f 69//5 68//5 70//5
f 69//5 70//5 71//5
f 69//5 71//5 72//5
f 72//5 71//5 73//5
f 73//5 71//5 74//5
f 73//5 74//5 75//5
f 75//5 74//5 76//5
f 75//5 76//5 77//5
f 75//5 77//5 78//5
f 78//5 77//5 79//5
f 79//5 77//5 80//5
f 79//5 80//5 81//5
f 79//5 81//5 82//5
f 82//5 81//5 83//5
f 82//5 83//5 84//5
f 84//5 83//5 85//5
f 85//5 83//5 86//5
f 85//5 86//5 87//5
f 85//5 87//5 88//5
f 88//5 87//5 89//5
f 89//5 87//5 90//5
f 89//5 90//5 49//3
f 89//5 49//3 51//3
usemtl material_1_0
f 25//6 26//6 27//6
f 26//6 28//6 27//6
f 27//6 28//6 29//6
f 28//6 30//6 29//6
f 30//6 31//6 29//6
f 29//6 31//6 32//6
f 31//6 33//6 32//6
f 32//6 33//6 34//6
f 34//6 33//6 35//6
f 33//6 36//6 35//6
f 36//6 37//6 35//6
f 35//6 37//6 38//6
f 38//6 37//6 39//6
f 37//6 40//6 39//6
f 40//6 41//6 39//6
f 39//6 41//6 42//6
f 41//6 43//6 42//6
f 42//6 43//6 44//6
f 44//6 43//6 45//6
f 43//6 46//6 45//6
f 46//6 47//7 45//6
f 48//7 45//6 47//7
f 47//7 57//8 48//7
f 48//7 57//8 58//8
f 58//8 57//8 59//8
f 57//8 60//8 59//8
f 60//8 61//8 59//8
f 59//8 61//8 62//8
f 61//8 63//9 62//8
f 64//9 62//8 63//9
f 64//9 63//9 91//10
f 63//9 92//10 91//10
f 92//10 93//10 91//10
f 91//10 93//10 94//10
f 94//10 93//10 95//10
f 93//10 96//10 95//10
f 96//10 97//10 95//10
f 95//10 97//10 98//10
f 98//10 97//10 99//10
f 97//10 100//10 99//10
f 99//10 100//10 101//10
f 100//10 102//10 101//10
f 102//10 103//10 101//10
f 101//10 103//10 104//10
f 104//10 103//10 105//10
f 103//10 106//10 105//10
f 106//10 107//10 105//10
f 105//10 107//10 108//10
f 107//10 109//10 108//10
f 108//10 109//10 110//10
f 110//10 109//10 111//10
f 109//10 112//10 111//10
f 112//10 113//10 111//10
f 111//10 113//10 114//10
f 113//10 115//10 114//10
f 116//10 114//10 115//10
