# SSTK version 0.8.0
# 1
mtllib original-1.mtl
o #ID67
v -0.460500 0.392883 0.490583
v -0.484170 0.439855 0.475242
v -0.484170 0.392420 0.490736
v -0.436843 0.393914 0.490247
v -0.413208 0.395512 0.489725
v -0.389605 0.397678 0.489018
v -0.366043 0.400409 0.488126
v -0.342532 0.403705 0.487050
v -0.319082 0.407564 0.485788
v -0.295702 0.411986 0.484345
v -0.272402 0.416968 0.482718
v -0.249190 0.422507 0.480909
v -0.226077 0.428603 0.478917
v -0.203072 0.435252 0.476746
v -0.187042 0.439855 0.475242
v -0.187042 0.439855 0.475242
v -0.203072 0.435252 0.476746
v -0.484170 0.439855 0.475242
v -0.226077 0.428603 0.478917
v -0.249190 0.422507 0.480909
v -0.272402 0.416968 0.482718
v -0.295702 0.411986 0.484345
v -0.319082 0.407564 0.485788
v -0.342532 0.403705 0.487050
v -0.366043 0.400409 0.488126
v -0.389605 0.397678 0.489018
v -0.413208 0.395512 0.489725
v -0.436843 0.393914 0.490247
v -0.460500 0.392883 0.490583
v -0.484170 0.392420 0.490736
v -0.168915 0.444563 0.473475
v -0.203292 0.443980 0.473694
v -0.186039 0.440143 0.475135
v -0.201654 0.444087 0.473654
v -0.200045 0.444407 0.473533
v -0.198491 0.444935 0.473335
v -0.155701 0.447594 0.472337
v -0.197019 0.445661 0.473062
v -0.195654 0.446572 0.472720
v -0.194421 0.447654 0.472314
v -0.155701 0.448509 0.471993
v -0.193339 0.448888 0.471851
v -0.192427 0.450253 0.471338
v -0.191701 0.451725 0.470785
v -0.191173 0.453279 0.470202
v -0.155701 0.601492 0.414546
v -0.190853 0.454888 0.469597
v -0.190746 0.456526 0.468983
v -0.183483 0.503926 0.451183
v -0.190746 0.496478 0.453980
v -0.190746 0.496953 0.453801
v -0.190746 0.500525 0.452460
v -0.190746 0.501000 0.452282
v -0.191221 0.501000 0.452282
v -0.413600 0.501000 0.452282
v -0.414075 0.501000 0.452282
v -0.378302 0.503926 0.451183
v -0.183483 0.529368 0.441629
v -0.378302 0.529368 0.441629
v -0.364781 0.546646 0.435142
v -0.364781 0.584660 0.420866
v -0.445560 0.584660 0.420866
v -0.484170 0.601492 0.414546
v -0.413120 0.451725 0.470785
v -0.412395 0.450253 0.471338
v -0.411483 0.448888 0.471851
v -0.410401 0.447654 0.472314
v -0.409167 0.446572 0.472720
v -0.407802 0.445661 0.473062
v -0.406331 0.444935 0.473335
v -0.404777 0.444407 0.473533
v -0.403167 0.444087 0.473654
v -0.401529 0.443980 0.473694
v -0.413648 0.453279 0.470202
v -0.413968 0.454888 0.469597
v -0.414075 0.456526 0.468983
v -0.414075 0.496478 0.453980
v -0.414075 0.496953 0.453801
v -0.414075 0.500525 0.452460
v -0.445560 0.546646 0.435142
v -0.445560 0.584660 0.420866
v -0.445560 0.546646 0.435142
v -0.484170 0.601492 0.414546
v -0.364781 0.546646 0.435142
v -0.378302 0.529368 0.441629
v -0.378302 0.503926 0.451183
v -0.414075 0.501000 0.452282
v -0.414075 0.500525 0.452460
v -0.414075 0.496953 0.453801
v -0.414075 0.496478 0.453980
v -0.414075 0.456526 0.468983
v -0.413968 0.454888 0.469597
v -0.413648 0.453279 0.470202
v -0.413120 0.451725 0.470785
v -0.203292 0.443980 0.473694
v -0.186039 0.440143 0.475135
v -0.401529 0.443980 0.473694
v -0.403167 0.444087 0.473654
v -0.404777 0.444407 0.473533
v -0.406331 0.444935 0.473335
v -0.407802 0.445661 0.473062
v -0.409167 0.446572 0.472720
v -0.410401 0.447654 0.472314
v -0.411483 0.448888 0.471851
v -0.412395 0.450253 0.471338
v -0.155701 0.601492 0.414546
v -0.364781 0.584660 0.420866
v -0.183483 0.529368 0.441629
v -0.183483 0.503926 0.451183
v -0.413600 0.501000 0.452282
v -0.191221 0.501000 0.452282
v -0.190746 0.501000 0.452282
v -0.190746 0.500525 0.452460
v -0.190746 0.496953 0.453801
v -0.190746 0.496478 0.453980
v -0.190746 0.456526 0.468983
v -0.190853 0.454888 0.469597
v -0.191173 0.453279 0.470202
v -0.155701 0.448509 0.471993
v -0.191701 0.451725 0.470785
v -0.192427 0.450253 0.471338
v -0.193339 0.448888 0.471851
v -0.194421 0.447654 0.472314
v -0.155701 0.447594 0.472337
v -0.195654 0.446572 0.472720
v -0.197019 0.445661 0.473062
v -0.198491 0.444935 0.473335
v -0.168915 0.444563 0.473475
v -0.200045 0.444407 0.473533
v -0.201654 0.444087 0.473654
vt 1.998802 26.11475
vt 1.749733 26.9169
vt 1.749733 26.10684
vt 2.247738 26.13235
vt 2.49644 26.15965
vt 2.744807 26.19663
vt 2.992737 26.24327
vt 3.24013 26.29956
vt 3.486886 26.36547
vt 3.732903 26.44097
vt 3.978083 26.52605
vt 4.222326 26.62065
vt 4.465532 26.72475
vt 4.707603 26.83829
vt 4.876289 26.9169
vt 5.067025 28.07281
vt 4.705293 28.0627
vt 4.886837 27.99616
vt 4.722525 28.06456
vt 4.739461 28.07011
vt 4.755814 28.07926
vt 5.206068 28.12537
vt 4.771301 28.09185
vt 4.78566 28.10766
vt 4.798643 28.12642
vt 5.206068 28.14124
vt 4.810029 28.14781
vt 4.819623 28.17147
vt 4.827261 28.197
vt 4.832812 28.22394
vt 5.206068 30.79398
vt 4.836181 28.25185
vt 4.83731 28.28025
vt 4.913738 29.10218
vt 4.83731 28.97302
vt 4.83731 28.98126
vt 4.83731 29.0432
vt 4.83731 29.05144
vt 4.83231 29.05144
vt 2.49231 29.05144
vt 2.48731 29.05144
vt 2.863738 29.10218
vt 4.913738 29.54334
vt 2.863738 29.54334
vt 3.006014 29.84294
vt 3.006014 30.5021
vt 2.156014 30.5021
vt 1.749733 30.79398
vt 1.749733 27.99117
vt 2.497359 28.197
vt 2.504997 28.17147
vt 2.514591 28.14781
vt 2.525977 28.12642
vt 2.53896 28.10766
vt 2.553319 28.09185
vt 2.568806 28.07926
vt 2.585159 28.07011
vt 2.602095 28.06456
vt 2.619327 28.0627
vt 4.876289 27.99117
vt 2.491808 28.22394
vt 2.488439 28.25185
vt 2.48731 28.28025
vt 2.48731 28.97302
vt 2.48731 28.98126
vt 2.48731 29.0432
vt 2.156014 29.84294
vn 0 0.31046590516878214 0.9505845158257781
vn 0 0.3310822051581861 0.9436019147011059
vn 0 0.34772890705207765 0.9375951190147949
vn 0 0.3515416202868696 0.9361722540249108
vn 0 -0.34772890705207765 -0.9375951190147949
vn 0 -0.31046590516878214 -0.9505845158257781
vn 0 -0.3310822051581861 -0.9436019147011059
vn 0 -0.3515416202868696 -0.9361722540249108
usemtl material_0_0
f 1/1/1 2/2/2 3/3/1
f 2/2/2 1/1/1 4/4/1
f 2/2/2 4/4/1 5/5/1
f 2/2/2 5/5/1 6/6/1
f 2/2/2 6/6/1 7/7/1
f 2/2/2 7/7/1 8/8/1
f 2/2/2 8/8/1 9/9/1
f 2/2/2 9/9/1 10/10/1
f 2/2/2 10/10/1 11/11/1
f 2/2/2 11/11/1 12/12/1
f 2/2/2 12/12/1 13/13/1
f 2/2/2 13/13/1 14/14/1
f 2/2/2 14/14/1 15/15/3
f 31/16/4 32/17/4 33/18/4
f 32/17/4 31/16/4 34/19/4
f 34/19/4 31/16/4 35/20/4
f 35/20/4 31/16/4 36/21/4
f 36/21/4 31/16/4 37/22/4
f 36/21/4 37/22/4 38/23/4
f 38/23/4 37/22/4 39/24/4
f 39/24/4 37/22/4 40/25/4
f 40/25/4 37/22/4 41/26/4
f 40/25/4 41/26/4 42/27/4
f 42/27/4 41/26/4 43/28/4
f 43/28/4 41/26/4 44/29/4
f 44/29/4 41/26/4 45/30/4
f 45/30/4 41/26/4 46/31/4
f 45/30/4 46/31/4 47/32/4
f 47/32/4 46/31/4 48/33/4
f 48/33/4 46/31/4 49/34/4
f 48/33/4 49/34/4 50/35/4
f 50/35/4 49/34/4 51/36/4
f 51/36/4 49/34/4 52/37/4
f 52/37/4 49/34/4 53/38/4
f 53/38/4 49/34/4 54/39/4
f 54/39/4 49/34/4 55/40/4
f 55/40/4 49/34/4 56/41/4
f 56/41/4 49/34/4 57/42/4
f 49/34/4 46/31/4 58/43/4
f 58/43/4 46/31/4 59/44/4
f 59/44/4 46/31/4 60/45/4
f 60/45/4 46/31/4 61/46/4
f 61/46/4 46/31/4 62/47/4
f 62/47/4 46/31/4 63/48/4
f 2/49/2 64/50/4 63/48/4
f 64/50/4 2/49/2 65/51/4
f 65/51/4 2/49/2 66/52/4
f 66/52/4 2/49/2 67/53/4
f 67/53/4 2/49/2 68/54/4
f 68/54/4 2/49/2 69/55/4
f 69/55/4 2/49/2 70/56/4
f 70/56/4 2/49/2 71/57/4
f 71/57/4 2/49/2 72/58/4
f 72/58/4 2/49/2 73/59/4
f 73/59/4 2/49/2 15/60/3
f 73/59/4 15/60/3 33/18/4
f 73/59/4 33/18/4 32/17/4
f 63/48/4 64/50/4 74/61/4
f 63/48/4 74/61/4 75/62/4
f 63/48/4 75/62/4 76/63/4
f 63/48/4 76/63/4 77/64/4
f 63/48/4 77/64/4 78/65/4
f 63/48/4 78/65/4 79/66/4
f 63/48/4 79/66/4 56/41/4
f 63/48/4 56/41/4 80/67/4
f 80/67/4 56/41/4 57/42/4
f 80/67/4 57/42/4 59/44/4
f 80/67/4 59/44/4 60/45/4
f 63/48/4 80/67/4 62/47/4
usemtl material_1_0
f 16//5 17//6 18//7
f 17//6 19//6 18//7
f 19//6 20//6 18//7
f 20//6 21//6 18//7
f 21//6 22//6 18//7
f 22//6 23//6 18//7
f 23//6 24//6 18//7
f 24//6 25//6 18//7
f 25//6 26//6 18//7
f 26//6 27//6 18//7
f 27//6 28//6 18//7
f 28//6 29//6 18//7
f 30//6 18//7 29//6
f 81//8 82//8 83//8
f 84//8 85//8 82//8
f 85//8 86//8 82//8
f 86//8 87//8 82//8
f 82//8 87//8 83//8
f 87//8 88//8 83//8
f 88//8 89//8 83//8
f 89//8 90//8 83//8
f 90//8 91//8 83//8
f 91//8 92//8 83//8
f 92//8 93//8 83//8
f 93//8 94//8 83//8
f 95//8 96//8 97//8
f 96//8 16//5 97//8
f 16//5 18//7 97//8
f 97//8 18//7 98//8
f 98//8 18//7 99//8
f 99//8 18//7 100//8
f 100//8 18//7 101//8
f 101//8 18//7 102//8
f 102//8 18//7 103//8
f 103//8 18//7 104//8
f 104//8 18//7 105//8
f 105//8 18//7 94//8
f 83//8 94//8 18//7
f 83//8 106//8 81//8
f 81//8 106//8 107//8
f 107//8 106//8 84//8
f 84//8 106//8 85//8
f 85//8 106//8 108//8
f 108//8 106//8 109//8
f 86//8 109//8 87//8
f 87//8 109//8 110//8
f 110//8 109//8 111//8
f 111//8 109//8 112//8
f 112//8 109//8 113//8
f 113//8 109//8 114//8
f 114//8 109//8 115//8
f 115//8 109//8 116//8
f 109//8 106//8 116//8
f 116//8 106//8 117//8
f 117//8 106//8 118//8
f 106//8 119//8 118//8
f 118//8 119//8 120//8
f 120//8 119//8 121//8
f 121//8 119//8 122//8
f 122//8 119//8 123//8
f 119//8 124//8 123//8
f 123//8 124//8 125//8
f 125//8 124//8 126//8
f 126//8 124//8 127//8
f 124//8 128//8 127//8
f 127//8 128//8 129//8
f 129//8 128//8 130//8
f 130//8 128//8 95//8
f 96//8 95//8 128//8
