# SSTK version 0.8.0
# 40
mtllib original-40.mtl
o #ID322
v 0.077398 0.472175 0.463192
v 0.080540 0.468421 0.464516
v 0.080540 0.468449 0.464592
v 0.077398 0.472147 0.463117
v 0.077398 0.472147 0.463117
v 0.080426 0.467907 0.463482
v 0.080540 0.468421 0.464516
v 0.077258 0.471665 0.462071
v 0.084633 0.465590 0.465665
v 0.084633 0.465562 0.465589
v 0.084554 0.465025 0.464564
v 0.084633 0.465562 0.465589
v 0.075424 0.476485 0.461488
v 0.075266 0.476041 0.460427
v 0.089360 0.463213 0.465244
v 0.074789 0.480838 0.459854
v 0.089401 0.463793 0.466340
v 0.089401 0.463765 0.466264
v 0.074750 0.481170 0.459815
v 0.074789 0.480838 0.459854
v 0.075424 0.476485 0.461488
v 0.074587 0.480738 0.458664
v 0.094517 0.462595 0.465477
v 0.094517 0.463152 0.466494
v 0.094517 0.463152 0.466494
v 0.089401 0.463793 0.466340
v 0.089401 0.463765 0.466264
v 0.094517 0.463180 0.466570
v 0.074750 0.481170 0.459815
v 0.074750 0.481141 0.459739
v 0.099633 0.463765 0.466264
v 0.099674 0.463213 0.465244
v 0.099633 0.463765 0.466264
v 0.099633 0.463793 0.466340
v 0.075424 0.485826 0.458066
v 0.074750 0.481141 0.459739
v 0.074750 0.481170 0.459815
v 0.075424 0.485826 0.458066
v 0.075375 0.485496 0.458105
v 0.104401 0.465562 0.465589
v 0.104480 0.465025 0.464564
v 0.104401 0.465590 0.465665
v 0.104401 0.465562 0.465589
v 0.075424 0.485798 0.457990
v 0.108494 0.468449 0.464592
v 0.108232 0.468231 0.464587
v 0.108494 0.468449 0.464592
v 0.104401 0.465590 0.465665
v 0.104401 0.465562 0.465589
v 0.075266 0.485434 0.456900
v 0.108494 0.468421 0.464516
v 0.108494 0.468449 0.464592
v 0.108232 0.468231 0.464587
v 0.108494 0.468421 0.464516
v 0.077398 0.490136 0.456361
v 0.077258 0.489811 0.455257
v 0.108608 0.467907 0.463482
v 0.077398 0.490136 0.456361
v 0.075424 0.485798 0.457990
v 0.075556 0.486104 0.457961
v 0.080331 0.493623 0.455053
v 0.111636 0.472147 0.463117
v 0.111776 0.471665 0.462071
v 0.077398 0.490136 0.456361
v 0.075556 0.486104 0.457961
v 0.077398 0.490165 0.456437
v 0.080540 0.493891 0.455038
v 0.080331 0.493623 0.455053
v 0.077398 0.490136 0.456361
v 0.080540 0.493862 0.454962
v 0.113611 0.476514 0.461563
v 0.113487 0.476202 0.461594
v 0.080426 0.493568 0.453846
v 0.113768 0.476041 0.460427
v 0.113611 0.476514 0.461563
v 0.111636 0.472175 0.463192
v 0.111636 0.472147 0.463117
v 0.084554 0.496451 0.452763
v 0.084633 0.496721 0.453889
v 0.113611 0.476485 0.461488
v 0.089360 0.498262 0.452082
v 0.114284 0.481141 0.459739
v 0.114447 0.480738 0.458664
v 0.084941 0.496843 0.453843
v 0.113611 0.485798 0.457990
v 0.113768 0.485434 0.456900
v 0.114284 0.481141 0.459739
v 0.114284 0.481170 0.459815
v 0.113611 0.476485 0.461488
v 0.089401 0.498547 0.453289
v 0.089401 0.498518 0.453214
v 0.112660 0.487895 0.457203
v 0.094188 0.499115 0.453076
v 0.089401 0.498518 0.453214
v 0.089401 0.498547 0.453289
v 0.094517 0.498880 0.451851
v 0.094517 0.499131 0.452984
v 0.111883 0.489609 0.456560
v 0.112660 0.487895 0.457203
v 0.112624 0.487981 0.457214
v 0.113611 0.485798 0.457990
v 0.099633 0.498518 0.453214
v 0.099674 0.498262 0.452082
v 0.111769 0.489857 0.456467
v 0.111875 0.489627 0.456559
v 0.094517 0.499160 0.453060
v 0.099633 0.498518 0.453214
v 0.094517 0.499131 0.452984
v 0.099633 0.498547 0.453289
v 0.104401 0.496721 0.453889
v 0.104480 0.496451 0.452763
v 0.111636 0.490136 0.456361
v 0.111754 0.489899 0.456537
v 0.104401 0.496721 0.453889
v 0.099633 0.498518 0.453214
v 0.099938 0.498426 0.453334
v 0.108494 0.493862 0.454962
v 0.108608 0.493568 0.453846
v 0.111776 0.489811 0.455257
v 0.111636 0.490136 0.456361
v 0.111636 0.490165 0.456437
v 0.111769 0.489857 0.456467
v 0.104401 0.496750 0.453964
v 0.104401 0.496721 0.453889
v 0.099938 0.498426 0.453334
v 0.108494 0.493891 0.455038
v 0.108494 0.493862 0.454962
v 0.108494 0.493891 0.455038
v 0.108494 0.493862 0.454962
v 0.104401 0.496750 0.453964
vn -0.8600187059801833 -0.4776936033216665 0.17937850124731727
vn -0.6973937093038285 -0.6709436089509616 0.2519458033611723
vn -0.8514553984841837 -0.4234520992461431 0.30937359944923293
vn -0.6718831331605342 -0.5521890272530776 0.493619624362407
vn -0.6904530286790581 -0.6147930255364004 0.38118781583323846
vn -0.8285356782970137 -0.3659601904138963 0.42379448889896204
vn -0.489797290845069 -0.8161889847443956 0.30648679427137393
vn -0.4903674065520981 -0.8158889109015897 0.3063741040936511
vn -0.47189351075495817 -0.6921765157754437 0.5460844124458482
vn -0.48446918989331145 -0.7590427841653317 0.4349064909272568
vn -0.9543645144024916 -0.19706970297401544 0.22439230338634575
vn -0.9287885395327472 -0.14543580619029714 0.34088161450920856
vn -0.24339429807712545 -0.7792127938440283 0.5775695954370585
vn -0.9817973378087217 -0.07750851298482969 0.17339670667745527
vn -0.3711562928447247 -0.8129072843285012 0.44880369134781195
vn -0.2911248042704384 -0.8381813122950763 0.4611924067651182
vn -0.9883950680373697 -0.10188099670538157 0.11267409635635524
vn -0.9883948756313321 -0.10188009748816763 0.11267659722198216
vn -0.9883974627988107 -0.10189259616497828 0.11264259576037097
vn -0.963726145143206 0.09346529437813482 0.24999231171022962
vn 0 -0.8078302363430392 0.5894152265168837
vn 0 -0.8774128882503843 0.47973599357575675
vn 0 -0.9361722540249108 0.3515416202868696
vn -0.12694939448966452 -0.9285978596935005 0.34869738486452334
vn -0.9818203706775054 -0.07821715766401043 0.17294749483484742
vn -0.9895212274012646 0.0060632431678998835 0.14426010399476955
vn 0.24978619238712643 -0.8474251741725488 0.46848418572174516
vn 0.2430776025026565 -0.7786369080166199 0.5784789059558508
vn 0.25229509752004897 -0.9058873910955212 0.3401693966562826
vn -0.990954253199993 0.12563440674476095 -0.04717694253272336
vn -0.9811297191532515 0.1726956033712997 0.08695230169745072
vn -0.9770109245987784 0.19337770486878414 0.08974807225964002
vn 0.48474031778756327 -0.7587478278422787 0.4351190159667076
vn 0.47164780970031217 -0.6924344142411984 0.5459697112288798
vn 0.3735284094545775 -0.8684109219808138 0.32609660825400566
vn -0.9549072090557276 0.29491880279682076 0.03428005032509007
vn 0.5907224130820915 -0.6950024153914683 0.40990080907763055
vn 0.5999557892887075 -0.7051166874112207 0.3779728932518722
vn 0.59792081301305 -0.7503937163314452 0.2817800061326134
vn -0.928803769522006 0.3337001890498804 0.16114509471214558
vn 0.691671966348012 -0.6163188700141742 0.376484981682837
vn 0.710172705279676 -0.6590910048999166 0.2474950018399656
vn 0.6104977017720703 -0.7414653021522255 0.278427300808181
vn 0.7030862069774944 -0.6657164066066329 0.24998290248085395
vn -0.851739935383079 0.5219730216838637 -0.04564260189609013
vn -0.8286723436374306 0.554263129187192 0.07806747411099045
vn 0.6718831331605342 -0.5521890272530776 0.493619624362407
vn -0.918018906865897 0.38907940290993914 -0.07654087057245189
vn -0.9144904384808942 0.3822053160828389 -0.13276420558659233
vn -0.9178166271406091 0.3884960114881536 -0.08175260241749308
vn -0.7735383920965648 0.6154886937113981 -0.1510364984568222
vn 0.8513613063033727 -0.42365000313665174 0.30936160229047455
vn 0.8284041987622731 -0.36634469945264087 0.42371929936691677
vn -0.9204069401259007 0.3660075159564 -0.13743930599177998
vn -0.7837246846408067 0.602286488196576 -0.15174519702614453
vn -0.6901874106138505 0.7131391109668067 -0.12277600188807561
vn 0.9099523313982606 -0.3147863108618246 0.26999320931622106
vn 0.9115151950633386 -0.3000287983750786 0.28128769847657814
vn -0.6718831261145869 0.7406122287859328 0.008160356317174874
vn 0.9292266391908777 -0.14491700611199088 0.33990721433585896
vn 0.9199717504836765 -0.36696518024856034 0.13779889258314768
vn -0.4718934900494358 0.8805326814326809 -0.044482929062012205
vn -0.48614842356859034 0.8558976414941198 -0.17634890854943655
vn 0.9566270176843795 -0.18926580349880182 0.22145700409389402
vn -0.24323200858853944 0.9668085341380777 -0.07822690276219726
vn 0.9900378850235733 0.04949750925124497 0.13181419800603017
vn 0.9633641137784325 0.09428239134846575 0.25107850359102873
vn -0.3859257906664543 0.8871087785454342 -0.253178393876926
vn 0.954737489092744 0.29478919663222475 0.039694539546515716
vn 0.9289434145443138 0.3333801052196773 0.1610026025207913
vn 1 0 0
vn 0.9999999357740884 0.00012655750452747954 0.00033531331199552887
vn 0.9887152960301648 -0.10348059958451043 0.10832279956506824
vn -0.3702003097721148 0.9077680239621987 -0.19725350520686713
vn -0.29046460979266886 0.9347719315147238 -0.20452810689542167
vn 0.9115682263584801 0.411100411887187 -0.006310312182465942
vn -0.12587229650807533 0.9287263742354545 -0.3487455903251677
vn 0 0.9961217130056388 -0.08798598114876893
vn 0 0.9763144748794581 -0.21635629443315887
vn 0.9118683504955698 0.4096843226866557 -0.02559037141709086
vn 0.9155787706759386 0.4002884871796021 -0.0385310487659315
vn 0.24978619069896038 0.9463325647623567 -0.2050890923633015
vn 0.24307760670304818 0.9669455266642516 -0.07700406212344484
vn 0.9123356173887485 0.404623207711955 -0.06264009119389476
vn 0.9120449450849474 0.40909232022258424 -0.02859181141337358
vn -0.008423892880011268 0.9585861863460348 -0.28467799594508686
vn 0.12694939448966452 0.9285978596935005 -0.34869738486452334
vn -0.006690224180244476 0.9378850252680017 -0.34688170934550305
vn 0.4849249038173823 0.8575316067505833 -0.17171890135178994
vn 0.4718934900494358 0.8805326814326809 -0.044482929062012205
vn 0.8515160005944273 0.5218481003642924 -0.05094174003556135
vn 0.9136566142450735 0.4041237063008047 -0.04376781068239597
vn 0.37273549596738403 0.8894606903769473 -0.264438897139042
vn 0.690453016051455 0.7137394165928107 -0.11768890273599794
vn 0.6718831261145869 0.7406122287859328 0.008160356317174874
vn 0.8285357193960767 0.5544528129797776 0.0781705818299787
vn 0.8558659193744509 0.48418621096064446 -0.1818165041158256
vn 0.8504921033692203 0.4924152019507005 -0.18490660073250648
vn 0.9135830053227173 0.38069660221801455 -0.14295520083288552
vn 0.3725172961571507 0.8687914910376383 -0.32623949663454743
vn 0.784943069548091 0.5800222774980043 -0.21780389155028607
vn 0.59792081301305 0.7503937163314452 -0.2817800061326134
usemtl material_0_0
f 1//1 2//2 3//2
f 2//2 1//1 4//1
f 5//3 6//4 7//5
f 6//4 5//3 8//6
f 2//2 9//7 3//2
f 9//7 2//2 10//8
f 11//9 7//5 6//4
f 7//5 11//9 12//10
f 13//11 8//6 5//3
f 8//6 13//11 14//12
f 15//13 12//10 11//9
f 16//14 14//12 13//11
f 15//13 17//15 12//10
f 17//15 15//13 18//16
f 19//17 20//18 21//19
f 22//20 14//12 16//14
f 23//21 18//16 15//13
f 18//16 23//21 24//22
f 25//23 26//24 27//24
f 26//24 25//23 28//23
f 29//25 22//20 16//14
f 22//20 29//25 30//26
f 23//21 31//27 24//22
f 31//27 23//21 32//28
f 33//29 28//23 25//23
f 28//23 33//29 34//29
f 35//30 36//30 37//30
f 38//31 22//20 30//26
f 22//20 38//31 39//32
f 32//28 40//33 31//27
f 40//33 32//28 41//34
f 33//29 42//35 34//29
f 42//35 33//29 43//35
f 44//36 22//20 39//32
f 41//34 45//37 40//33
f 45//37 41//34 46//38
f 47//39 48//39 49//39
f 50//40 22//20 44//36
f 51//41 46//38 41//34
f 52//42 53//43 54//44
f 55//45 50//40 44//36
f 50//40 55//45 56//46
f 57//47 51//41 41//34
f 58//48 59//49 60//50
f 61//51 56//46 55//45
f 57//47 62//52 51//41
f 62//52 57//47 63//53
f 64//54 65//54 66//54
f 67//55 68//55 69//55
f 70//56 56//46 61//51
f 63//53 71//57 62//52
f 71//57 63//53 72//58
f 73//59 56//46 70//56
f 74//60 72//58 63//53
f 75//61 76//61 77//61
f 70//56 78//62 73//59
f 78//62 70//56 79//63
f 74//60 80//64 72//58
f 81//65 78//62 79//63
f 74//60 82//66 80//64
f 82//66 74//60 83//67
f 81//65 79//63 84//68
f 83//67 85//69 82//66
f 85//69 83//67 86//70
f 87//71 88//72 89//73
f 90//74 81//65 84//68
f 81//65 90//74 91//75
f 86//70 92//76 85//69
f 93//77 94//77 95//77
f 91//75 96//78 81//65
f 96//78 91//75 97//79
f 98//80 92//76 86//70
f 99//81 100//81 101//81
f 102//82 96//78 97//79
f 96//78 102//82 103//83
f 104//84 98//80 86//70
f 98//80 104//84 105//85
f 106//86 107//87 108//88
f 107//87 106//86 109//87
f 110//89 103//83 102//82
f 103//83 110//89 111//90
f 112//91 104//84 86//70
f 104//84 113//92 105//85
f 114//93 115//93 116//93
f 117//94 111//90 110//89
f 111//90 117//94 118//95
f 119//96 112//91 86//70
f 120//97 121//98 122//99
f 123//100 124//100 125//100
f 119//96 117//94 112//91
f 117//94 119//96 118//95
f 120//97 126//101 121//98
f 126//101 120//97 127//101
f 128//102 129//102 130//102
