# SSTK version 0.8.0
# 16
mtllib original-16.mtl
o #ID174
v 0.404303 0.510821 0.448594
v 0.402451 0.514647 0.451725
v 0.404303 0.512324 0.452598
v 0.402451 0.513144 0.447722
v 0.400930 0.517169 0.450779
v 0.400930 0.515666 0.446774
v 0.402438 0.514682 0.451843
v 0.404290 0.512358 0.452716
v 0.406454 0.508733 0.449379
v 0.406454 0.510236 0.453382
v 0.399765 0.519851 0.449771
v 0.399765 0.518348 0.445768
v 0.400915 0.517206 0.450896
v 0.402398 0.514698 0.451960
v 0.404254 0.512369 0.452834
v 0.406443 0.510268 0.453502
v 0.408869 0.506911 0.450062
v 0.408869 0.508415 0.454065
v 0.398977 0.522650 0.448720
v 0.398977 0.521146 0.444717
v 0.399750 0.519890 0.449888
v 0.400872 0.517227 0.451011
v 0.404196 0.512358 0.452944
v 0.402334 0.514694 0.452067
v 0.406411 0.510276 0.453621
v 0.408860 0.508445 0.454186
v 0.411511 0.506887 0.454640
v 0.411511 0.505383 0.450636
v 0.398579 0.525519 0.447643
v 0.398579 0.524016 0.443639
v 0.398961 0.522690 0.448837
v 0.399705 0.519916 0.450000
v 0.400804 0.517231 0.451114
v 0.404121 0.512325 0.453037
v 0.402252 0.514670 0.452156
v 0.406360 0.510258 0.453732
v 0.408833 0.508449 0.454307
v 0.411503 0.506916 0.454759
v 0.414336 0.505675 0.455095
v 0.414336 0.504171 0.451092
v 0.398563 0.525562 0.447758
v 0.398914 0.522722 0.448947
v 0.399633 0.519928 0.450102
v 0.400716 0.517217 0.451200
v 0.402155 0.514628 0.452222
v 0.404034 0.512272 0.453108
v 0.406293 0.510216 0.453829
v 0.408789 0.508426 0.454420
v 0.411481 0.506918 0.454881
v 0.414330 0.505704 0.455216
v 0.417302 0.503293 0.451421
v 0.417302 0.504796 0.455424
v 0.398515 0.525599 0.447867
v 0.398840 0.522743 0.449045
v 0.399539 0.519925 0.450183
v 0.400612 0.517187 0.451262
v 0.402052 0.514571 0.452262
v 0.403940 0.512203 0.453151
v 0.406216 0.510154 0.453904
v 0.408732 0.508377 0.454519
v 0.411445 0.506890 0.454997
v 0.414313 0.505703 0.455339
v 0.417298 0.504825 0.455545
v 0.420362 0.502761 0.451621
v 0.420362 0.504264 0.455625
v 0.398440 0.525629 0.447961
v 0.398743 0.522752 0.449122
v 0.399430 0.519908 0.450241
v 0.400501 0.517143 0.451295
v 0.406133 0.510074 0.453951
v 0.408666 0.508306 0.454596
v 0.411398 0.506835 0.455099
v 0.414286 0.505671 0.455455
v 0.417286 0.504822 0.455668
v 0.420360 0.504292 0.455745
v 0.423469 0.504086 0.455691
v 0.423469 0.502583 0.451688
v 0.398342 0.525650 0.448033
v 0.398630 0.522748 0.449174
v 0.399313 0.519877 0.450270
v 0.408594 0.508218 0.454647
v 0.411344 0.506757 0.455178
v 0.414250 0.505611 0.455558
v 0.417268 0.504788 0.455786
v 0.420354 0.504288 0.455869
v 0.423469 0.504114 0.455812
v 0.426577 0.502761 0.451621
v 0.426577 0.504264 0.455625
v 0.398227 0.525659 0.448080
v 0.398440 0.528539 0.446867
v 0.398342 0.528572 0.446936
v 0.398510 0.522731 0.449198
v 0.411286 0.506661 0.455232
v 0.414209 0.505528 0.455640
v 0.417244 0.504725 0.455891
v 0.420345 0.504253 0.455988
v 0.423469 0.504110 0.455936
v 0.426579 0.504292 0.455745
v 0.429637 0.504796 0.455424
v 0.429637 0.503293 0.451421
v 0.398104 0.525658 0.448098
v 0.398227 0.528596 0.446978
v 0.398840 0.531426 0.445783
v 0.398743 0.531470 0.445847
v 0.414165 0.505426 0.455696
v 0.417216 0.504637 0.455975
v 0.420333 0.504188 0.456093
v 0.423469 0.504074 0.456054
v 0.426585 0.504288 0.455869
v 0.429641 0.504825 0.455545
v 0.432603 0.505675 0.455095
v 0.432603 0.504171 0.451092
v 0.398104 0.528609 0.446990
v 0.398630 0.531507 0.445885
v 0.398515 0.528500 0.446777
v 0.398914 0.531377 0.445697
v 0.399633 0.534240 0.444727
v 0.399539 0.534296 0.444787
v 0.417186 0.504531 0.456031
v 0.420319 0.504098 0.456178
v 0.423469 0.504008 0.456161
v 0.426594 0.504253 0.455988
v 0.429653 0.504822 0.455668
v 0.432609 0.505704 0.455216
v 0.435428 0.505383 0.450636
v 0.435428 0.506887 0.454640
v 0.398510 0.531535 0.445892
v 0.399430 0.534347 0.444818
v 0.398563 0.528457 0.446671
v 0.398961 0.531329 0.445593
v 0.399705 0.534183 0.444643
v 0.400804 0.536938 0.443714
v 0.400716 0.537004 0.443770
v 0.420304 0.503989 0.456235
v 0.423469 0.503917 0.456245
v 0.426606 0.504188 0.456093
v 0.429671 0.504788 0.455786
v 0.432626 0.505703 0.455339
v 0.435436 0.506916 0.454759
v 0.438070 0.506911 0.450062
v 0.438070 0.508415 0.454065
v 0.399313 0.534389 0.444820
v 0.400612 0.537068 0.443797
v 0.398579 0.528413 0.446556
v 0.398977 0.531282 0.445479
v 0.399750 0.534129 0.444541
v 0.400872 0.536872 0.443634
v 0.402334 0.539474 0.442761
v 0.402252 0.539551 0.442813
v 0.423469 0.503807 0.456303
v 0.426620 0.504098 0.456178
v 0.429695 0.504725 0.455891
v 0.432653 0.505671 0.455455
v 0.435458 0.506918 0.454881
v 0.438079 0.508445 0.454186
v 0.440485 0.510236 0.453382
v 0.440485 0.508733 0.449379
v 0.400501 0.537124 0.443793
v 0.402155 0.539627 0.442836
v 0.398579 0.526909 0.442552
v 0.398977 0.529779 0.441475
v 0.399765 0.534081 0.444428
v 0.400915 0.536813 0.443534
v 0.402398 0.539401 0.442684
v 0.404196 0.541811 0.441884
v 0.404121 0.541897 0.441932
v 0.426635 0.503989 0.456235
v 0.429723 0.504637 0.455975
v 0.432688 0.505611 0.455558
v 0.435494 0.506890 0.454997
v 0.438106 0.508449 0.454307
v 0.440496 0.510268 0.453502
v 0.442636 0.512324 0.452598
v 0.442636 0.510821 0.448594
v 0.402052 0.539695 0.442828
v 0.404034 0.541983 0.441950
v 0.399765 0.532578 0.440425
v 0.400930 0.536763 0.443421
v 0.402438 0.539337 0.442586
v 0.404254 0.541730 0.441809
v 0.406360 0.543911 0.441096
v 0.406293 0.544005 0.441140
v 0.429753 0.504531 0.456031
v 0.432730 0.505528 0.455640
v 0.435541 0.506835 0.455099
v 0.438150 0.508426 0.454420
v 0.440528 0.510276 0.453621
v 0.442649 0.512358 0.452716
v 0.444488 0.514647 0.451725
v 0.444488 0.513144 0.447722
v 0.403940 0.542064 0.441938
v 0.406216 0.544101 0.441156
v 0.400930 0.535259 0.439417
v 0.402451 0.539285 0.442474
v 0.404290 0.541661 0.441712
v 0.406411 0.543824 0.441023
v 0.408789 0.545742 0.440408
v 0.408732 0.545844 0.440450
v 0.432774 0.505426 0.455696
v 0.435595 0.506757 0.455178
v 0.438207 0.508377 0.454519
v 0.440579 0.510258 0.453732
v 0.442685 0.512369 0.452834
v 0.444501 0.514682 0.451843
v 0.446009 0.517169 0.450779
v 0.446009 0.515666 0.446774
v 0.406133 0.544192 0.441139
v 0.408666 0.545949 0.440462
v 0.402451 0.537782 0.438471
v 0.404303 0.541608 0.441601
v 0.406443 0.543751 0.440928
v 0.408833 0.545650 0.440338
v 0.411445 0.547279 0.439831
v 0.411398 0.547387 0.439871
v 0.435653 0.506661 0.455232
v 0.438273 0.508306 0.454596
v 0.440646 0.510216 0.453829
v 0.442742 0.512358 0.452944
v 0.444541 0.514698 0.451960
v 0.446024 0.517206 0.450896
v 0.447174 0.519851 0.449771
v 0.447174 0.518348 0.445768
v 0.408594 0.546049 0.440442
v 0.411344 0.547498 0.439880
v 0.404303 0.540105 0.437598
v 0.406454 0.543696 0.440817
v 0.408860 0.545573 0.440244
v 0.411481 0.547182 0.439762
v 0.414286 0.548497 0.439373
v 0.414250 0.548610 0.439412
v 0.438345 0.508218 0.454647
v 0.440723 0.510154 0.453904
v 0.442818 0.512325 0.453037
v 0.444605 0.514694 0.452067
v 0.446066 0.517227 0.451011
v 0.447189 0.519890 0.449888
v 0.447962 0.522650 0.448720
v 0.447962 0.521146 0.444717
v 0.411286 0.547606 0.439857
v 0.414209 0.548727 0.439418
v 0.406454 0.542193 0.436814
v 0.408869 0.545518 0.440134
v 0.411503 0.547102 0.439669
v 0.414313 0.548397 0.439306
v 0.417268 0.549381 0.439042
v 0.417244 0.549497 0.439079
v 0.440806 0.510074 0.453951
v 0.442905 0.512272 0.453108
v 0.444687 0.514670 0.452156
v 0.446135 0.517231 0.451114
v 0.447234 0.519916 0.450000
v 0.447978 0.522690 0.448837
v 0.448360 0.525519 0.447643
v 0.448360 0.524016 0.443639
v 0.414165 0.548840 0.439393
v 0.417216 0.549618 0.439084
v 0.408869 0.544014 0.436129
v 0.411511 0.547046 0.439559
v 0.414330 0.548315 0.439214
v 0.417286 0.549277 0.438975
v 0.420345 0.549916 0.438841
v 0.420333 0.550034 0.438877
v 0.442999 0.512203 0.453151
v 0.444784 0.514628 0.452222
v 0.446223 0.517217 0.451200
v 0.447306 0.519928 0.450102
v 0.448025 0.522722 0.448947
v 0.448376 0.525562 0.447758
v 0.417186 0.549735 0.439057
v 0.420319 0.550157 0.438881
v 0.411511 0.545542 0.435556
v 0.414336 0.548258 0.439104
v 0.417298 0.549194 0.438885
v 0.420354 0.549811 0.438775
v 0.423469 0.550095 0.438774
v 0.423469 0.550214 0.438810
v 0.444887 0.514571 0.452262
v 0.446327 0.517187 0.451262
v 0.447400 0.519925 0.450183
v 0.448099 0.522743 0.449045
v 0.448423 0.525599 0.447867
v 0.420304 0.550277 0.438853
v 0.423469 0.550338 0.438813
v 0.414336 0.546754 0.435101
v 0.417302 0.549136 0.438775
v 0.420360 0.549726 0.438684
v 0.423469 0.549989 0.438708
v 0.426606 0.550034 0.438877
v 0.426594 0.549916 0.438841
v 0.446438 0.517143 0.451295
v 0.447509 0.519908 0.450241
v 0.448196 0.522752 0.449122
v 0.448499 0.525629 0.447961
v 0.423469 0.550459 0.438786
v 0.426620 0.550157 0.438881
v 0.417302 0.547633 0.434771
v 0.420362 0.549668 0.438574
v 0.423469 0.549905 0.438618
v 0.426585 0.549811 0.438775
v 0.429695 0.549497 0.439079
v 0.429671 0.549381 0.439042
v 0.447625 0.519877 0.450270
v 0.448308 0.522748 0.449174
v 0.448597 0.525650 0.448033
v 0.426635 0.550277 0.438853
v 0.429723 0.549618 0.439084
v 0.420362 0.548165 0.434571
v 0.423469 0.549846 0.438508
v 0.426579 0.549726 0.438684
v 0.429653 0.549277 0.438975
v 0.432688 0.548610 0.439412
v 0.432653 0.548497 0.439373
v 0.448429 0.522731 0.449198
v 0.448712 0.525659 0.448080
v 0.448499 0.528539 0.446867
v 0.448597 0.528572 0.446936
v 0.429753 0.549735 0.439057
v 0.432730 0.548727 0.439418
v 0.423469 0.548343 0.434505
v 0.426577 0.549668 0.438574
v 0.429641 0.549194 0.438885
v 0.432626 0.548397 0.439306
v 0.435541 0.547387 0.439871
v 0.435494 0.547279 0.439831
v 0.448835 0.525658 0.448098
v 0.448712 0.528596 0.446978
v 0.448099 0.531426 0.445783
v 0.448196 0.531470 0.445847
v 0.432774 0.548840 0.439393
v 0.435595 0.547498 0.439880
v 0.426577 0.548165 0.434571
v 0.429637 0.549136 0.438775
v 0.432609 0.548315 0.439214
v 0.435458 0.547182 0.439762
v 0.438207 0.545844 0.440450
v 0.438150 0.545742 0.440408
v 0.448835 0.528609 0.446990
v 0.448308 0.531507 0.445885
v 0.447306 0.534240 0.444727
v 0.447400 0.534296 0.444787
v 0.448423 0.528500 0.446777
v 0.448025 0.531377 0.445697
v 0.435653 0.547606 0.439857
v 0.438273 0.545949 0.440462
v 0.429637 0.547633 0.434771
v 0.432603 0.548258 0.439104
v 0.435436 0.547102 0.439669
v 0.438106 0.545650 0.440338
v 0.440646 0.544005 0.441140
v 0.440579 0.543911 0.441096
v 0.448429 0.531535 0.445892
v 0.447509 0.534347 0.444818
v 0.446135 0.536938 0.443714
v 0.446223 0.537004 0.443770
v 0.447234 0.534183 0.444643
v 0.448376 0.528457 0.446671
v 0.447978 0.531329 0.445593
v 0.438345 0.546049 0.440442
v 0.440723 0.544101 0.441156
v 0.432603 0.546754 0.435101
v 0.435428 0.547046 0.439559
v 0.438079 0.545573 0.440244
v 0.440528 0.543824 0.441023
v 0.442818 0.541897 0.441932
v 0.442742 0.541811 0.441884
v 0.447625 0.534389 0.444820
v 0.446327 0.537068 0.443797
v 0.444605 0.539474 0.442761
v 0.444687 0.539551 0.442813
v 0.446066 0.536872 0.443634
v 0.447189 0.534129 0.444541
v 0.448360 0.528413 0.446556
v 0.447962 0.531282 0.445479
v 0.440806 0.544192 0.441139
v 0.442905 0.541983 0.441950
v 0.435428 0.545542 0.435556
v 0.438070 0.545518 0.440134
v 0.440496 0.543751 0.440928
v 0.442685 0.541730 0.441809
v 0.446438 0.537124 0.443793
v 0.444784 0.539627 0.442836
v 0.444541 0.539401 0.442684
v 0.446024 0.536813 0.443534
v 0.447174 0.534081 0.444428
v 0.448360 0.526909 0.442552
v 0.447962 0.529779 0.441475
v 0.442999 0.542064 0.441938
v 0.438070 0.544014 0.436129
v 0.440485 0.543696 0.440817
v 0.442649 0.541661 0.441712
v 0.444887 0.539695 0.442828
v 0.444501 0.539337 0.442586
v 0.446009 0.536763 0.443421
v 0.447174 0.532578 0.440425
v 0.440485 0.542193 0.436814
v 0.442636 0.541608 0.441601
v 0.444488 0.539285 0.442474
v 0.446009 0.535259 0.439417
v 0.442636 0.540105 0.437598
v 0.444488 0.537782 0.438471
vn 0.762149358573594 0.6060790670567491 -0.22758848762949402
vn 0.8360103137911022 0.53309310879408 -0.1299942021444272
vn 0.7605024365129814 0.6278673301449503 -0.16558580795004874
vn 0.8378209051841216 0.5110987031624872 -0.19192250118754436
vn 0.8984593833060521 0.4295030920195589 -0.09109242830744453
vn 0.9004053816071403 0.407283491680294 -0.15293889687586967
vn 0.808866239617868 0.5850554286557252 0.058698822875039414
vn 0.7358128627816818 0.6767505657691253 0.024250828773363448
vn 0.6748765109384491 0.690830211197028 -0.2594134042045918
vn 0.6734182950455606 0.7124344947585125 -0.19734459854810601
vn 0.9465497494426217 0.31873758297549964 -0.04949671735626751
vn 0.9486000318844587 0.29627740995851204 -0.11125500373951654
vn 0.8692846228962792 0.4848312127700762 0.09634801253773163
vn 0.7241003980984401 0.6185629983755917 0.3050547991988958
vn 0.6587107266965615 0.7006513283963512 0.27420411111308307
vn 0.6515585171173285 0.7585706199286819 -0.006489480170487302
vn 0.5776070158499265 0.7642114209704775 -0.286968707874615
vn 0.5763590975413962 0.7856562966485866 -0.2248429990408758
vn 0.9792309282276688 0.20266200584200908 -0.005907672170296673
vn 0.9813520949942475 0.17994989908209844 -0.06757291965531907
vn 0.915810779785634 0.37766469166394134 0.13660159698484153
vn 0.7781787030642422 0.5288415020824244 0.33876920133397503
vn 0.5363851114526509 0.6762877144397876 0.5049019107804361
vn 0.5896194654155352 0.6094382642530523 0.5300319689106737
vn 0.5832922814107057 0.7739013753360692 0.24667139213868047
vn 0.5576520846969809 0.8294142772393168 -0.033107539091466846
vn 0.47098949109038374 0.84663558398436 -0.247743995313475
vn 0.47200918833134303 0.8253234795969723 -0.309916892338467
vn 0.9931891699412371 0.1132329965730156 0.027451069169196384
vn 0.9963007681793257 0.08044971743053068 -0.030209639035139655
vn 0.9474286662084128 0.2653605905354821 0.17878109362348102
vn 0.8198212926618698 0.43290719612509526 0.3748124966450947
vn 0.6336424984482698 0.5363765986864646 0.5574919986347552
vn 0.3775112176204648 0.6055928282662517 0.7005302326974876
vn 0.41496410700697817 0.5585359094312949 0.7182217121277089
vn 0.47498230051807744 0.735943000802715 0.4824725005262474
vn 0.4992308887030092 0.837326581052313 0.22282889495765199
vn 0.45570412281341754 0.8884133444756663 -0.055276412767242454
vn 0.35899620492236034 0.8946933122675473 -0.2657924036444004
vn 0.3597733953856076 0.8734858887968187 -0.3280022957930982
vn 0.9653181711096059 0.12038819639697812 0.2316624930667205
vn 0.84811979230319 0.3323750969836477 0.4125767962558059
vn 0.6675403916216973 0.45825919424838646 0.586846092634492
vn 0.44593337106420267 0.5071108670945073 0.7375513521416477
vn 0.21231840044438136 0.46958760098284436 0.8569763017936474
vn 0.19317030117146777 0.49367640299386584 0.8479203051421534
vn 0.3343070913471197 0.6475897832384144 0.6847380822769041
vn 0.4065384253696532 0.7875999491494439 0.463047328896039
vn 0.40796779845754305 0.8901490966344975 0.20297009923260473
vn 0.34734650778074766 0.9349107209425005 -0.0727485216296056
vn 0.24258479114935708 0.9082089668642326 -0.3410411875572009
vn 0.24206080674253003 0.9293409258865085 -0.2788046077660172
vn 0.8652342723704183 0.20216699354418827 0.458800785349085
vn 0.6905750211088449 0.37640051150545517 0.6175992188781896
vn 0.4697778009990835 0.45213170096155514 0.7582122016125014
vn 0.22814810611601083 0.4432684118827827 0.8668688232383219
vn 0.05248393950696656 0.38286819640334097 0.9223108913358238
vn 0.047757589899470085 0.3888287991815136 0.9200713980632461
vn 0.17107669733872324 0.5151801919858336 0.8398345869354957
vn 0.2861437814471975 0.6839595556538796 0.671059656490275
vn 0.332226408836284 0.8306238220922473 0.4468665118853871
vn 0.3109637939680301 0.9317797819256527 0.18731779636647328
vn 0.23420619297446899 0.9684335709497003 -0.08534563743986927
vn 0.12211079618376845 0.9291663709615028 -0.3489108890957654
vn 0.12184709508681207 0.9502527616833674 -0.28665828844120106
vn 0.7349345071637189 0.2662483025952352 0.6236851060793237
vn 0.48597982201555223 0.39452291787242894 0.7798559353285432
vn 0.2403336957028889 0.415135592577471 0.8774406843115627
vn 0.05638959741164254 0.3763584827246452 0.9247564575524497
vn 0.0423017390818222 0.39415209144475577 0.9180711800728625
vn 0.14644120626939053 0.5338070228531624 0.8328295356548117
vn 0.23384600352237914 0.7142539107586745 0.6596646099364063
vn 0.25323570245007315 0.8645336083644231 0.43411210420006513
vn 0.20967581031958313 0.9617945473364989 0.1760321086637463
vn 0.11789349863432184 0.9886665885472873 -0.09294890892327971
vn 0 0.9572434067345663 -0.289283702035219
vn 0 0.9361722540249108 -0.3515416202868696
vn 0.49417501006755815 0.33529720683082714 0.8021015163407772
vn 0.2486124067570951 0.3856616104819874 0.888513924149129
vn 0.059395059394683175 0.36940279623528044 0.9273692905488397
vn 0.03621545998272646 0.3987653998098023 0.9163375995629384
vn 0.11968500425917708 0.5493258195486137 0.8269925294298159
vn 0.1782510005333805 0.7381328022087148 0.6506816019470347
vn 0.17075310348199219 0.8889827181281089 0.42491540866486255
vn 0.10554589994168061 0.9799104994585505 0.1692201999064976
vn 0 0.9954303266797666 -0.09549065255936356
vn -0.12211079618376845 0.9291663709615028 -0.3489108890957654
vn -0.12184709508681207 0.9502527616833674 -0.28665828844120106
vn 0.25279950223357206 0.355363203139758 0.8998941079508794
vn 0.6858398672135699 0.20363459026529127 0.6986820665996514
vn 0.49417502804279045 0.27552471563511177 0.824546646790282
vn 0.06143637962620188 0.3621175977967632 0.9301055943409473
vn 0.029602480132217106 0.4026105017982273 0.9148926040862946
vn 0.09123626495617859 0.5615605305053507 0.8223902446742635
vn 0.12019439768282872 0.7553506854379491 0.6442038875806964
vn 0.08595380299947446 0.9037398315372263 0.4193641146342795
vn 0 0.985966566390387 0.16694289430925344
vn -0.11789349863432184 0.9886665885472873 -0.09294890892327971
vn -0.24206080674253003 0.9293409258865085 -0.2788046077660172
vn -0.24258479114935708 0.9082089668642326 -0.3410411875572009
vn 0.06246861735443929 0.3546300849813318 0.9329175604907208
vn 0.2527995008083681 0.32478610103855693 0.9113761029142756
vn 0.6905750065611498 0.12313990116995142 0.7127010067713687
vn 0.485979812710671 0.2162953056571452 0.846782122147358
vn 0.022568589683017296 0.4056430943026192 0.913752887166063
vn 0.06152323226531982 0.570383821001851 0.8190709301586498
vn 0.06050422254784107 0.7657436322455687 0.6402936269628523
vn 0 0.9086731076180882 0.4175083035002855
vn -0.10554589994168061 0.9799104994585505 0.1692201999064976
vn -0.23420619297446899 0.9684335709497003 -0.08534563743986927
vn -0.35899620492236034 0.8946933122675473 -0.2657924036444004
vn -0.3597733953856076 0.8734858887968187 -0.3280022957930982
vn 0.06246862175136299 0.3470743097305346 0.9357548262347132
vn 0.24861240329571918 0.2944858039038376 0.9227513122324115
vn 0.8616421023696103 0.09773053026876956 0.4980177013696033
vn 0.8481197904619234 0.021336689760044412 0.5293746940465764
vn 0.6675404249324575 0.041271771541489526 0.743428827766869
vn 0.46977782026842124 0.15867910684616163 0.8684064374671318
vn 0.015219930082688474 0.40783070221570633 0.9129307049598683
vn 0.03097083140632465 0.5757102261418707 0.81706703710141
vn 0 0.7692181088632002 0.6389863073626242
vn -0.08595380299947446 0.9037398315372263 0.4193641146342795
vn -0.20967581031958313 0.9617945473364989 0.1760321086637463
vn -0.34734650778074766 0.9349107209425005 -0.0727485216296056
vn -0.47200918833134303 0.8253234795969723 -0.309916892338467
vn -0.47098949109038374 0.84663558398436 -0.247743995313475
vn 0.06143638210259279 0.3395865116219757 0.9385662321214
vn 0.24033368946762504 0.2650081883862905 0.9338149590765269
vn 0.9613174047855672 0.003870867019269635 0.27541580137105687
vn 0.9474286773139682 -0.08209827803416961 0.30925519259493267
vn 0.8198212781441679 -0.07920432788847102 0.5671152848811238
vn 0.6336425181431642 -0.03685893105538648 0.772747422126172
vn 0.445933378837416 0.1036896950792157 0.8890398578089878
vn 0.007662127347468426 0.4091516185545424 0.9124342413778153
vn 0 0.5774909769091938 0.8163970673566048
vn -0.06050422254784107 0.7657436322455687 0.6402936269628523
vn -0.17075310348199219 0.8889827181281089 0.42491540866486255
vn -0.3109637939680301 0.9317797819256527 0.18731779636647328
vn -0.45570412281341754 0.8884133444756663 -0.055276412767242454
vn -0.5776070158499265 0.7642114209704775 -0.286968707874615
vn -0.5763590975413962 0.7856562966485866 -0.2248429990408758
vn 0.059395060387993075 0.3323009021707266 0.9413014061489698
vn 0.22814809182286913 0.2368703915102501 0.9443732661524069
vn 0.9931891720431081 -0.06717747810904758 0.09519692732033906
vn 0.9792309232430108 -0.15645990371373 0.1289461030606628
vn 0.91581076326173 -0.19440789220121685 0.3514202859025752
vn 0.7781786985059203 -0.17515109966371528 0.6031251988420178
vn 0.589619493006081 -0.10993689869595617 0.8001641905086524
vn 0.41496410917871823 0.05225209115577981 0.9083361200917649
vn 0 0.40959327489402575 0.9122682440826201
vn -0.03097083140632465 0.5757102261418707 0.81706703710141
vn -0.12019439768282872 0.7553506854379491 0.6442038875806964
vn -0.25323570245007315 0.8645336083644231 0.43411210420006513
vn -0.40796779845754305 0.8901490966344975 0.20297009923260473
vn -0.5576520846969809 0.8294142772393168 -0.033107539091466846
vn -0.6734182950455606 0.7124344947585125 -0.19734459854810601
vn -0.6748765109384491 0.690830211197028 -0.2594134042045918
vn 0.05638960120546843 0.32534470695505474 0.9439126201784878
vn 0.21231839718104337 0.21054499720458864 0.9542492873304086
vn 0.9963007681793257 -0.08044971743053068 0.030209639035139655
vn 0.9813520949942475 -0.17994989908209844 0.06757291965531907
vn 0.9465497542049538 -0.2725364868144058 0.1725323916527062
vn 0.8692846091585826 -0.3015819031773977 0.39165370412637324
vn 0.7241004162026268 -0.26488790592718897 0.6367990142491518
vn 0.5363850833785502 -0.17680439452120247 0.8252461744273503
vn 0.3775112079722553 0.005181269109417473 0.9259905195550031
vn -0.007662127347468426 0.4091516185545424 0.9124342413778153
vn -0.06152323226531982 0.570383821001851 0.8190709301586498
vn -0.1782510005333805 0.7381328022087148 0.6506816019470347
vn -0.332226408836284 0.8306238220922473 0.4468665118853871
vn -0.4992308887030092 0.837326581052313 0.22282889495765199
vn -0.6515585171173285 0.7585706199286819 -0.006489480170487302
vn -0.7605024365129814 0.6278673301449503 -0.16558580795004874
vn -0.762149358573594 0.6060790670567491 -0.22758848762949402
vn 0.05248393848853465 0.31883419081801295 0.9463562727462391
vn 0.1931703083689367 0.18644920807775062 0.9632870417335788
vn 0.9486000318844587 -0.29627740995851204 0.11125500373951654
vn 0.8984593822166813 -0.3833034924132262 0.21412419576181296
vn 0.8088662330928053 -0.40181541643930585 0.4292782175628797
vn 0.6587107101830452 -0.34699320536418726 0.6676046103205363
vn 0.4749822982045242 -0.23647829910609094 0.8476259967958975
vn 0.3343070970331742 -0.03683006967314983 0.9417442916424409
vn -0.015219930082688474 0.40783070221570633 0.9129307049598683
vn -0.09123626495617859 0.5615605305053507 0.8223902446742635
vn -0.23384600352237914 0.7142539107586745 0.6596646099364063
vn -0.4065384253696532 0.7875999491494439 0.463047328896039
vn -0.5832922814107057 0.7739013753360692 0.24667139213868047
vn -0.7358128627816818 0.6767505657691253 0.024250828773363448
vn -0.8360103137911022 0.53309310879408 -0.1299942021444272
vn -0.8378209051841216 0.5110987031624872 -0.19192250118754436
vn 0.04775759013507261 0.31287280088489666 0.9485936026829037
vn 0.1710767065367436 0.1649384063022024 0.9713537371148734
vn 0.9004053816071403 -0.407283491680294 0.15293889687586967
vn 0.8360103073077251 -0.48689530425604444 0.2530212022117063
vn 0.7358128728852004 -0.4935207818136954 0.46369888291263606
vn 0.5832922870420832 -0.4202606906638523 0.6950906845584667
vn 0.40653840061296853 -0.28815330043447057 0.8670030013072455
vn 0.286143801240765 -0.07321382031746697 0.9553855041427034
vn -0.022568589683017296 0.4056430943026192 0.913752887166063
vn -0.11968500425917708 0.5493258195486137 0.8269925294298159
vn -0.2861437814471975 0.6839595556538796 0.671059656490275
vn -0.47498230051807744 0.735943000802715 0.4824725005262474
vn -0.6587107266965615 0.7006513283963512 0.27420411111308307
vn -0.808866239617868 0.5850554286557252 0.058698822875039414
vn -0.8984593833060521 0.4295030920195589 -0.09109242830744453
vn -0.9004053816071403 0.407283491680294 -0.15293889687586967
vn 0.042301739364008634 0.3075486953761163 0.9505915857081991
vn 0.14644120005046657 0.1463046000504193 0.9783404003371557
vn 0.8378209051841216 -0.5110987031624872 0.19192250118754436
vn 0.7605024071883563 -0.581671505498026 0.28860760272795216
vn 0.6515585165087957 -0.5753514145779063 0.49441101252708713
vn 0.49923087820736695 -0.48370287888520175 0.7188880686188002
vn 0.3322263970488446 -0.33119359705801915 0.8831400921550976
vn 0.2338460112523137 -0.10352090498126838 0.9667468465183849
vn -0.029602480132217106 0.4026105017982273 0.9148926040862946
vn -0.14644120626939053 0.5338070228531624 0.8328295356548117
vn -0.3343070913471197 0.6475897832384144 0.6847380822769041
vn -0.5363851114526509 0.6762877144397876 0.5049019107804361
vn -0.7241003980984401 0.6185629983755917 0.3050547991988958
vn -0.8692846228962792 0.4848312127700762 0.09634801253773163
vn -0.9465497494426217 0.31873758297549964 -0.04949671735626751
vn -0.9486000318844587 0.29627740995851204 -0.11125500373951654
vn 0.036215459497525505 0.3029345957969078 0.9523229867869133
vn 0.11968499639330825 0.13077949605897674 0.9841606703424466
vn 0.762149358573594 -0.6060790670567491 0.22758848762949402
vn 0.673418307321249 -0.6662406072432148 0.3203611034828921
vn 0.5576521206929677 -0.6462053239789386 0.5210017193329699
vn 0.40796779696979474 -0.5365407960148112 0.7387057945132183
vn 0.2532356889448481 -0.3651171840605963 0.8958577608908062
vn 0.17825099545539105 -0.12741039675160082 0.9757013751239473
vn -0.03621545998272646 0.3987653998098023 0.9163375995629384
vn -0.17107669733872324 0.5151801919858336 0.8398345869354957
vn -0.3775112176204648 0.6055928282662517 0.7005302326974876
vn -0.5896194654155352 0.6094382642530523 0.5300319689106737
vn -0.7781787030642422 0.5288415020824244 0.33876920133397503
vn -0.915810779785634 0.37766469166394134 0.13660159698484153
vn -0.9792309282276688 0.20266200584200908 -0.005907672170296673
vn -0.9813520949942475 0.17994989908209844 -0.06757291965531907
vn 0.02960248088739595 0.299088708965806 0.953766028591121
vn 0.09123625747046352 0.11853949671347762 0.9887488725868157
vn 0.6748765109384491 -0.690830211197028 0.2594134042045918
vn 0.5763590727325884 -0.7394643650161156 0.34785438354309106
vn 0.4557041115105984 -0.7052137178129443 0.5431458137192822
vn 0.3109637874743416 -0.5781843767106647 0.7543237696157485
vn 0.17075310392259244 -0.3895767089494753 0.90502672079055
vn 0.12019440401244506 -0.14463640482839163 0.9821576327873295
vn -0.0423017390818222 0.39415209144475577 0.9180711800728625
vn -0.19317030117146777 0.49367640299386584 0.8479203051421534
vn -0.41496410700697817 0.5585359094312949 0.7182217121277089
vn -0.6336424984482698 0.5363765986864646 0.5574919986347552
vn -0.8198212926618698 0.43290719612509526 0.3748124966450947
vn -0.9474286662084128 0.2653605905354821 0.17878109362348102
vn -0.9931891699412371 0.1132329965730156 0.027451069169196384
vn -0.9963007681793257 0.08044971743053068 -0.030209639035139655
vn 0.02256858954262894 0.2960554940001913 0.9549040806480822
vn 0.06152323061808782 0.10971230110221493 0.9920575099666201
vn 0.5776070158499265 -0.7642114209704775 0.286968707874615
vn 0.4709895106227517 -0.8004454180533382 0.37075060836195173
vn 0.34734649926920563 -0.7517188984184325 0.56059709882054
vn 0.20967580529427113 -0.6082089153571508 0.7655834193308244
vn 0.08595380333831598 -0.4043403157039678 0.9105607353648045
vn 0.06050421791274191 -0.1550342946516692 0.9860545659833572
vn -0.047757589899470085 0.3888287991815136 0.9200713980632461
vn -0.21231840044438136 0.46958760098284436 0.8569763017936474
vn -0.44593337106420267 0.5071108670945073 0.7375513521416477
vn -0.6675403916216973 0.45825919424838646 0.586846092634492
vn -0.84811979230319 0.3323750969836477 0.4125767962558059
vn -0.9613174078126218 0.17836650144958363 0.20989100170578315
vn 0.015219930223147275 0.2938674043085419 0.9557250140123792
vn 0.03097082950586834 0.10438339833458936 0.9940547841401102
vn 0.47200918833134303 -0.8253234795969723 0.309916892338467
vn 0.3589962076071997 -0.8485046179799786 0.38879510823864405
vn 0.23420618977268667 -0.7852476657098136 0.5731784749704485
vn 0.10554590201095237 -0.6263309119334018 0.7723792147160409
vn 0 -0.4092758069699407 0.9124107155382952
vn 0 -0.15851049869438572 0.9873572918673652
vn -0.05248393950696656 0.38286819640334097 0.9223108913358238
vn -0.22814810611601083 0.4432684118827827 0.8668688232383219
vn -0.4697778009990835 0.45213170096155514 0.7582122016125014
vn -0.6905750211088449 0.37640051150545517 0.6175992188781896
vn -0.8616421235666145 0.2542236069532228 0.4392530120139281
vn 0.0076621269447058995 0.2925461978888263 0.9562206930993884
vn 0 0.10260180095576174 0.994722509266094
vn 0.3597733953856076 -0.8734858887968187 0.3280022957930982
vn 0.24206079342481923 -0.8831533760106005 0.4018042890856514
vn 0.11789350024667919 -0.8054844016853876 0.5807719012152012
vn 0 -0.632388993953729 0.7746509925935617
vn -0.06050421791274191 -0.1550342946516692 0.9860545659833572
vn -0.08595380333831598 -0.4043403157039678 0.9105607353648045
vn -0.05638959741164254 0.3763584827246452 0.9247564575524497
vn -0.2403336957028889 0.415135592577471 0.8774406843115627
vn -0.48597982201555223 0.39452291787242894 0.7798559353285432
vn -0.6858398890165451 0.30657379509034166 0.6600273894299223
vn 0 0.2921045021871016 0.956386407160843
vn -0.03097082950586834 0.10438339833458936 0.9940547841401102
vn 0.24258479114935708 -0.9082089668642326 0.3410411875572009
vn 0.1218471007561569 -0.9040659056104386 0.4096561025422375
vn 0 -0.8122493551035194 0.5833103677579518
vn -0.10554590201095237 -0.6263309119334018 0.7723792147160409
vn -0.12019440401244506 -0.14463640482839163 0.9821576327873295
vn -0.17075310392259244 -0.3895767089494753 0.90502672079055
vn -0.059395059394683175 0.36940279623528044 0.9273692905488397
vn -0.2486124067570951 0.3856616104819874 0.888513924149129
vn -0.49417501006755815 0.33529720683082714 0.8021015163407772
vn -0.0076621269447058995 0.2925461978888263 0.9562206930993884
vn -0.06152323061808782 0.10971230110221493 0.9920575099666201
vn 0.12211079618376845 -0.9291663709615028 0.3489108890957654
vn 0 -0.9110567848167606 0.4122808931291223
vn -0.11789350024667919 -0.8054844016853876 0.5807719012152012
vn -0.20967580529427113 -0.6082089153571508 0.7655834193308244
vn -0.17825099545539105 -0.12741039675160082 0.9757013751239473
vn -0.2532356889448481 -0.3651171840605963 0.8958577608908062
vn -0.06143637962620188 0.3621175977967632 0.9301055943409473
vn -0.25279950223357206 0.355363203139758 0.8998941079508794
vn -0.7349345176201915 0.21007230503652233 0.6447797154587133
vn -0.49417502804279045 0.27552471563511177 0.824546646790282
vn -0.015219930223147275 0.2938674043085419 0.9557250140123792
vn -0.09123625747046352 0.11853949671347762 0.9887488725868157
vn 0.034464491249379704 -0.9365569339513274 0.3488170126450405
vn -0.1218471007561569 -0.9040659056104386 0.4096561025422375
vn -0.23420618977268667 -0.7852476657098136 0.5731784749704485
vn -0.3109637874743416 -0.5781843767106647 0.7543237696157485
vn -0.2338460112523137 -0.10352090498126838 0.9667468465183849
vn -0.3322263970488446 -0.33119359705801915 0.8831400921550976
vn -0.06246861735443929 0.3546300849813318 0.9329175604907208
vn -0.2527995008083681 0.32478610103855693 0.9113761029142756
vn -0.6905750065611498 0.12313990116995142 0.7127010067713687
vn -0.485979812710671 0.2162953056571452 0.846782122147358
vn -0.02256858954262894 0.2960554940001913 0.9549040806480822
vn -0.11968499639330825 0.13077949605897674 0.9841606703424466
vn -0.1221171959535967 -0.9291762692113639 0.34888228843964225
vn -0.24206079342481923 -0.8831533760106005 0.4018042890856514
vn -0.34734649926920563 -0.7517188984184325 0.56059709882054
vn -0.40796779696979474 -0.5365407960148112 0.7387057945132183
vn -0.286143801240765 -0.07321382031746697 0.9553855041427034
vn -0.40653840061296853 -0.28815330043447057 0.8670030013072455
vn -0.06246862175136299 0.3470743097305346 0.9357548262347132
vn -0.24861240329571918 0.2944858039038376 0.9227513122324115
vn -0.6675404249324575 0.041271771541489526 0.743428827766869
vn -0.46977782026842124 0.15867910684616163 0.8684064374671318
vn -0.865234293757806 0.1497870989193676 0.47846989654810046
vn -0.8481197904619234 0.021336689760044412 0.5293746940465764
vn -0.02960248088739595 0.299088708965806 0.953766028591121
vn -0.14644120005046657 0.1463046000504193 0.9783404003371557
vn -0.24258479114935708 -0.9082089668642326 0.3410411875572009
vn -0.3589962076071997 -0.8485046179799786 0.38879510823864405
vn -0.4557041115105984 -0.7052137178129443 0.5431458137192822
vn -0.49923087820736695 -0.48370287888520175 0.7188880686188002
vn -0.3343070970331742 -0.03683006967314983 0.9417442916424409
vn -0.4749822982045242 -0.23647829910609094 0.8476259967958975
vn -0.06143638210259279 0.3395865116219757 0.9385662321214
vn -0.24033368946762504 0.2650081883862905 0.9338149590765269
vn -0.6336425181431642 -0.03685893105538648 0.772747422126172
vn -0.445933378837416 0.1036896950792157 0.8890398578089878
vn -0.8198212781441679 -0.07920432788847102 0.5671152848811238
vn -0.9653181837439337 0.06184920895845235 0.2536443957286
vn -0.9474286773139682 -0.08209827803416961 0.30925519259493267
vn -0.036215459497525505 0.3029345957969078 0.9523229867869133
vn -0.1710767065367436 0.1649384063022024 0.9713537371148734
vn -0.3597733953856076 -0.8734858887968187 0.3280022957930982
vn -0.4709895106227517 -0.8004454180533382 0.37075060836195173
vn -0.5576521206929677 -0.6462053239789386 0.5210017193329699
vn -0.5832922870420832 -0.4202606906638523 0.6950906845584667
vn -0.3775112079722553 0.005181269109417473 0.9259905195550031
vn -0.5363850833785502 -0.17680439452120247 0.8252461744273503
vn -0.059395060387993075 0.3323009021707266 0.9413014061489698
vn -0.22814809182286913 0.2368703915102501 0.9443732661524069
vn -0.589619493006081 -0.10993689869595617 0.8001641905086524
vn -0.41496410917871823 0.05225209115577981 0.9083361200917649
vn -0.7781786985059203 -0.17515109966371528 0.6031251988420178
vn -0.91581076326173 -0.19440789220121685 0.3514202859025752
vn -0.9931891720431081 -0.06717747810904758 0.09519692732033906
vn -0.9792309232430108 -0.15645990371373 0.1289461030606628
vn -0.042301739364008634 0.3075486953761163 0.9505915857081991
vn -0.1931703083689367 0.18644920807775062 0.9632870417335788
vn -0.47200918833134303 -0.8253234795969723 0.309916892338467
vn -0.5763590727325884 -0.7394643650161156 0.34785438354309106
vn -0.6515585165087957 -0.5753514145779063 0.49441101252708713
vn -0.6587107101830452 -0.34699320536418726 0.6676046103205363
vn -0.05638960120546843 0.32534470695505474 0.9439126201784878
vn -0.21231839718104337 0.21054499720458864 0.9542492873304086
vn -0.7241004162026268 -0.26488790592718897 0.6367990142491518
vn -0.8692846091585826 -0.3015819031773977 0.39165370412637324
vn -0.9465497542049538 -0.2725364868144058 0.1725323916527062
vn -0.9963007681793257 -0.08044971743053068 0.030209639035139655
vn -0.9813520949942475 -0.17994989908209844 0.06757291965531907
vn -0.04775759013507261 0.31287280088489666 0.9485936026829037
vn -0.5776070158499265 -0.7642114209704775 0.286968707874615
vn -0.673418307321249 -0.6662406072432148 0.3203611034828921
vn -0.7358128728852004 -0.4935207818136954 0.46369888291263606
vn -0.05248393848853465 0.31883419081801295 0.9463562727462391
vn -0.8088662330928053 -0.40181541643930585 0.4292782175628797
vn -0.8984593822166813 -0.3833034924132262 0.21412419576181296
vn -0.9486000318844587 -0.29627740995851204 0.11125500373951654
vn -0.6748765109384491 -0.690830211197028 0.2594134042045918
vn -0.7605024071883563 -0.581671505498026 0.28860760272795216
vn -0.8360103073077251 -0.48689530425604444 0.2530212022117063
vn -0.9004053816071403 -0.407283491680294 0.15293889687586967
vn -0.762149358573594 -0.6060790670567491 0.22758848762949402
vn -0.8378209051841216 -0.5110987031624872 0.19192250118754436
usemtl material_0_0
f 1//1 2//2 3//3
f 2//2 1//1 4//4
f 4//4 5//5 2//2
f 5//5 4//4 6//6
f 3//3 7//7 8//8
f 7//7 3//3 2//2
f 9//9 3//3 10//10
f 3//3 9//9 1//1
f 6//6 11//11 5//5
f 11//11 6//6 12//12
f 2//2 13//13 7//7
f 13//13 2//2 5//5
f 8//8 14//14 15//15
f 14//14 8//8 7//7
f 10//10 8//8 16//16
f 8//8 10//10 3//3
f 10//10 17//17 9//9
f 17//17 10//10 18//18
f 12//12 19//19 11//11
f 19//19 12//12 20//20
f 5//5 21//21 13//13
f 21//21 5//5 11//11
f 7//7 22//22 14//14
f 22//22 7//7 13//13
f 23//23 14//14 24//24
f 14//14 23//23 15//15
f 25//25 8//8 15//15
f 8//8 25//25 16//16
f 26//26 10//10 16//16
f 10//10 26//26 18//18
f 27//27 17//17 18//18
f 17//17 27//27 28//28
f 20//20 29//29 19//19
f 29//29 20//20 30//30
f 11//11 31//31 21//21
f 31//31 11//11 19//19
f 13//13 32//32 22//22
f 32//32 13//13 21//21
f 14//14 33//33 24//24
f 33//33 14//14 22//22
f 34//34 24//24 35//35
f 24//24 34//34 23//23
f 36//36 15//15 23//23
f 15//15 36//36 25//25
f 37//37 16//16 25//25
f 16//16 37//37 26//26
f 38//38 18//18 26//26
f 18//18 38//38 27//27
f 39//39 28//28 27//27
f 28//28 39//39 40//40
f 19//19 41//41 31//31
f 41//41 19//19 29//29
f 21//21 42//42 32//32
f 42//42 21//21 31//31
f 22//22 43//43 33//33
f 43//43 22//22 32//32
f 24//24 44//44 35//35
f 44//44 24//24 33//33
f 34//34 45//45 46//46
f 45//45 34//34 35//35
f 47//47 23//23 34//34
f 23//23 47//47 36//36
f 48//48 25//25 36//36
f 25//25 48//48 37//37
f 49//49 26//26 37//37
f 26//26 49//49 38//38
f 50//50 27//27 38//38
f 27//27 50//50 39//39
f 39//39 51//51 40//40
f 51//51 39//39 52//52
f 31//31 53//53 42//42
f 53//53 31//31 41//41
f 32//32 54//54 43//43
f 54//54 32//32 42//42
f 33//33 55//55 44//44
f 55//55 33//33 43//43
f 35//35 56//56 45//45
f 56//56 35//35 44//44
f 46//46 57//57 58//58
f 57//57 46//46 45//45
f 47//47 46//46 59//59
f 46//46 47//47 34//34
f 60//60 36//36 47//47
f 36//36 60//60 48//48
f 61//61 37//37 48//48
f 37//37 61//61 49//49
f 62//62 38//38 49//49
f 38//38 62//62 50//50
f 63//63 39//39 50//50
f 39//39 63//63 52//52
f 52//52 64//64 51//51
f 64//64 52//52 65//65
f 42//42 66//66 54//54
f 66//66 42//42 53//53
f 43//43 67//67 55//55
f 67//67 43//43 54//54
f 44//44 68//68 56//56
f 68//68 44//44 55//55
f 45//45 69//69 57//57
f 69//69 45//45 56//56
f 59//59 58//58 70//70
f 58//58 59//59 46//46
f 60//60 59//59 71//71
f 59//59 60//60 47//47
f 72//72 48//48 60//60
f 48//48 72//72 61//61
f 73//73 49//49 61//61
f 49//49 73//73 62//62
f 74//74 50//50 62//62
f 50//50 74//74 63//63
f 75//75 52//52 63//63
f 52//52 75//75 65//65
f 76//76 64//64 65//65
f 64//64 76//76 77//77
f 66//66 67//67 54//54
f 67//67 66//66 78//78
f 55//55 79//79 68//68
f 79//79 55//55 67//67
f 56//56 80//80 69//69
f 80//80 56//56 68//68
f 71//71 70//70 81//81
f 70//70 71//71 59//59
f 72//72 71//71 82//82
f 71//71 72//72 60//60
f 83//83 61//61 72//72
f 61//61 83//83 73//73
f 84//84 62//62 73//73
f 62//62 84//84 74//74
f 85//85 63//63 74//74
f 63//63 85//85 75//75
f 86//86 65//65 75//75
f 65//65 86//86 76//76
f 76//76 87//87 77//77
f 87//87 76//76 88//88
f 67//67 89//89 79//79
f 89//89 67//67 78//78
f 90//90 78//78 66//66
f 78//78 90//90 91//91
f 68//68 92//92 80//80
f 92//92 68//68 79//79
f 82//82 81//81 93//93
f 81//81 82//82 71//71
f 83//83 82//82 94//94
f 82//82 83//83 72//72
f 95//95 73//73 83//83
f 73//73 95//95 84//84
f 96//96 74//74 84//84
f 74//74 96//96 85//85
f 97//97 75//75 85//85
f 75//75 97//97 86//86
f 98//98 76//76 86//86
f 76//76 98//98 88//88
f 99//99 87//87 88//88
f 87//87 99//99 100//100
f 79//79 101//101 92//92
f 101//101 79//79 89//89
f 91//91 89//89 78//78
f 89//89 91//91 102//102
f 103//103 91//91 90//90
f 91//91 103//103 104//104
f 94//94 93//93 105//105
f 93//93 94//94 82//82
f 95//95 94//94 106//106
f 94//94 95//95 83//83
f 107//107 84//84 95//95
f 84//84 107//107 96//96
f 108//108 85//85 96//96
f 85//85 108//108 97//97
f 109//109 86//86 97//97
f 86//86 109//109 98//98
f 98//98 99//99 88//88
f 99//99 98//98 110//110
f 111//111 100//100 99//99
f 100//100 111//111 112//112
f 89//89 113//113 101//101
f 113//113 89//89 102//102
f 104//104 102//102 91//91
f 102//102 104//104 114//114
f 115//115 103//103 90//90
f 103//103 115//115 116//116
f 117//117 104//104 103//103
f 104//104 117//117 118//118
f 106//106 105//105 119//119
f 105//105 106//106 94//94
f 107//107 106//106 120//120
f 106//106 107//107 95//95
f 121//121 96//96 107//107
f 96//96 121//121 108//108
f 122//122 97//97 108//108
f 97//97 122//122 109//109
f 109//109 110//110 98//98
f 110//110 109//109 123//123
f 110//110 111//111 99//99
f 111//111 110//110 124//124
f 111//111 125//125 112//112
f 125//125 111//111 126//126
f 114//114 113//113 102//102
f 113//113 114//114 127//127
f 118//118 114//114 104//104
f 114//114 118//118 128//128
f 129//129 116//116 115//115
f 116//116 129//129 130//130
f 116//116 117//117 103//103
f 117//117 116//116 131//131
f 132//132 118//118 117//117
f 118//118 132//132 133//133
f 120//120 119//119 134//134
f 119//119 120//120 106//106
f 121//121 120//120 135//135
f 120//120 121//121 107//107
f 136//136 108//108 121//121
f 108//108 136//136 122//122
f 122//122 123//123 109//109
f 123//123 122//122 137//137
f 123//123 124//124 110//110
f 124//124 123//123 138//138
f 124//124 126//126 111//111
f 126//126 124//124 139//139
f 126//126 140//140 125//125
f 140//140 126//126 141//141
f 128//128 127//127 114//114
f 127//127 128//128 142//142
f 133//133 128//128 118//118
f 128//128 133//133 143//143
f 144//144 130//130 129//129
f 130//130 144//144 145//145
f 130//130 131//131 116//116
f 131//131 130//130 146//146
f 131//131 132//132 117//117
f 132//132 131//131 147//147
f 148//148 133//133 132//132
f 133//133 148//148 149//149
f 135//135 134//134 150//150
f 134//134 135//135 120//120
f 151//151 121//121 135//135
f 121//121 151//151 136//136
f 136//136 137//137 122//122
f 137//137 136//136 152//152
f 137//137 138//138 123//123
f 138//138 137//137 153//153
f 138//138 139//139 124//124
f 139//139 138//138 154//154
f 139//139 141//141 126//126
f 141//141 139//139 155//155
f 156//156 140//140 141//141
f 140//140 156//156 157//157
f 143//143 142//142 128//128
f 142//142 143//143 158//158
f 149//149 143//143 133//133
f 143//143 149//149 159//159
f 160//160 145//145 144//144
f 145//145 160//160 161//161
f 145//145 146//146 130//130
f 146//146 145//145 162//162
f 146//146 147//147 131//131
f 147//147 146//146 163//163
f 164//164 132//132 147//147
f 132//132 164//164 148//148
f 165//165 149//149 148//148
f 149//149 165//165 166//166
f 167//167 135//135 150//150
f 135//135 167//167 151//151
f 168//168 136//136 151//151
f 136//136 168//168 152//152
f 152//152 153//153 137//137
f 153//153 152//152 169//169
f 153//153 154//154 138//138
f 154//154 153//153 170//170
f 154//154 155//155 139//139
f 155//155 154//154 171//171
f 155//155 156//156 141//141
f 156//156 155//155 172//172
f 173//173 157//157 156//156
f 157//157 173//173 174//174
f 159//159 158//158 143//143
f 158//158 159//159 175//175
f 166//166 159//159 149//149
f 159//159 166//166 176//176
f 161//161 162//162 145//145
f 162//162 161//161 177//177
f 162//162 163//163 146//146
f 163//163 162//162 178//178
f 163//163 164//164 147//147
f 164//164 163//163 179//179
f 180//180 148//148 164//164
f 148//148 180//180 165//165
f 181//181 166//166 165//165
f 166//166 181//181 182//182
f 183//183 151//151 167//167
f 151//151 183//183 168//168
f 184//184 152//152 168//168
f 152//152 184//184 169//169
f 169//169 170//170 153//153
f 170//170 169//169 185//185
f 170//170 171//171 154//154
f 171//171 170//170 186//186
f 171//171 172//172 155//155
f 172//172 171//171 187//187
f 188//188 156//156 172//172
f 156//156 188//188 173//173
f 189//189 174//174 173//173
f 174//174 189//189 190//190
f 176//176 175//175 159//159
f 175//175 176//176 191//191
f 182//182 176//176 166//166
f 176//176 182//182 192//192
f 177//177 178//178 162//162
f 178//178 177//177 193//193
f 178//178 179//179 163//163
f 179//179 178//178 194//194
f 179//179 180//180 164//164
f 180//180 179//179 195//195
f 196//196 165//165 180//180
f 165//165 196//196 181//181
f 197//197 182//182 181//181
f 182//182 197//197 198//198
f 199//199 168//168 183//183
f 168//168 199//199 184//184
f 200//200 169//169 184//184
f 169//169 200//200 185//185
f 185//185 186//186 170//170
f 186//186 185//185 201//201
f 186//186 187//187 171//171
f 187//187 186//186 202//202
f 187//187 188//188 172//172
f 188//188 187//187 203//203
f 204//204 173//173 188//188
f 173//173 204//204 189//189
f 205//205 190//190 189//189
f 190//190 205//205 206//206
f 192//192 191//191 176//176
f 191//191 192//192 207//207
f 198//198 192//192 182//182
f 192//192 198//198 208//208
f 193//193 194//194 178//178
f 194//194 193//193 209//209
f 194//194 195//195 179//179
f 195//195 194//194 210//210
f 195//195 196//196 180//180
f 196//196 195//195 211//211
f 212//212 181//181 196//196
f 181//181 212//212 197//197
f 213//213 198//198 197//197
f 198//198 213//213 214//214
f 215//215 184//184 199//199
f 184//184 215//215 200//200
f 216//216 185//185 200//200
f 185//185 216//216 201//201
f 201//201 202//202 186//186
f 202//202 201//201 217//217
f 202//202 203//203 187//187
f 203//203 202//202 218//218
f 219//219 188//188 203//203
f 188//188 219//219 204//204
f 220//220 189//189 204//204
f 189//189 220//220 205//205
f 221//221 206//206 205//205
f 206//206 221//221 222//222
f 208//208 207//207 192//192
f 207//207 208//208 223//223
f 214//214 208//208 198//198
f 208//208 214//214 224//224
f 209//209 210//210 194//194
f 210//210 209//209 225//225
f 210//210 211//211 195//195
f 211//211 210//210 226//226
f 227//227 196//196 211//211
f 196//196 227//227 212//212
f 228//228 197//197 212//212
f 197//197 228//228 213//213
f 229//229 214//214 213//213
f 214//214 229//229 230//230
f 231//231 200//200 215//215
f 200//200 231//231 216//216
f 232//232 201//201 216//216
f 201//201 232//232 217//217
f 217//217 218//218 202//202
f 218//218 217//217 233//233
f 218//218 219//219 203//203
f 219//219 218//218 234//234
f 235//235 204//204 219//219
f 204//204 235//235 220//220
f 236//236 205//205 220//220
f 205//205 236//236 221//221
f 237//237 222//222 221//221
f 222//222 237//237 238//238
f 224//224 223//223 208//208
f 223//223 224//224 239//239
f 230//230 224//224 214//214
f 224//224 230//230 240//240
f 225//225 226//226 210//210
f 226//226 225//225 241//241
f 226//226 227//227 211//211
f 227//227 226//226 242//242
f 243//243 212//212 227//227
f 212//212 243//243 228//228
f 244//244 213//213 228//228
f 213//213 244//244 229//229
f 245//245 230//230 229//229
f 230//230 245//245 246//246
f 247//247 216//216 231//231
f 216//216 247//247 232//232
f 248//248 217//217 232//232
f 217//217 248//248 233//233
f 233//233 234//234 218//218
f 234//234 233//233 249//249
f 250//250 219//219 234//234
f 219//219 250//250 235//235
f 251//251 220//220 235//235
f 220//220 251//251 236//236
f 252//252 221//221 236//236
f 221//221 252//252 237//237
f 253//253 238//238 237//237
f 238//238 253//253 254//254
f 240//240 239//239 224//224
f 239//239 240//240 255//255
f 246//246 240//240 230//230
f 240//240 246//246 256//256
f 257//257 226//226 241//241
f 226//226 257//257 242//242
f 242//242 243//243 227//227
f 243//243 242//242 258//258
f 259//259 228//228 243//243
f 228//228 259//259 244//244
f 260//260 229//229 244//244
f 229//229 260//260 245//245
f 261//261 246//246 245//245
f 246//246 261//261 262//262
f 263//263 232//232 247//247
f 232//232 263//263 248//248
f 264//264 233//233 248//248
f 233//233 264//264 249//249
f 265//265 234//234 249//249
f 234//234 265//265 250//250
f 266//266 235//235 250//250
f 235//235 266//266 251//251
f 267//267 236//236 251//251
f 236//236 267//267 252//252
f 268//268 237//237 252//252
f 237//237 268//268 253//253
f 256//256 255//255 240//240
f 255//255 256//256 269//269
f 262//262 256//256 246//246
f 256//256 262//262 270//270
f 271//271 242//242 257//257
f 242//242 271//271 258//258
f 258//258 259//259 243//243
f 259//259 258//258 272//272
f 259//259 260//260 244//244
f 260//260 259//259 273//273
f 274//274 245//245 260//260
f 245//245 274//274 261//261
f 275//275 262//262 261//261
f 262//262 275//275 276//276
f 277//277 248//248 263//263
f 248//248 277//277 264//264
f 278//278 249//249 264//264
f 249//249 278//278 265//265
f 279//279 250//250 265//265
f 250//250 279//279 266//266
f 280//280 251//251 266//266
f 251//251 280//280 267//267
f 281//281 252//252 267//267
f 252//252 281//281 268//268
f 270//270 269//269 256//256
f 269//269 270//270 282//282
f 276//276 270//270 262//262
f 270//270 276//276 283//283
f 284//284 258//258 271//271
f 258//258 284//284 272//272
f 272//272 273//273 259//259
f 273//273 272//272 285//285
f 273//273 274//274 260//260
f 274//274 273//273 286//286
f 287//287 261//261 274//274
f 261//261 287//287 275//275
f 288//288 275//275 289//289
f 275//275 288//288 276//276
f 290//290 264//264 277//277
f 264//264 290//290 278//278
f 291//291 265//265 278//278
f 265//265 291//291 279//279
f 292//292 266//266 279//279
f 266//266 292//292 280//280
f 293//293 267//267 280//280
f 267//267 293//293 281//281
f 283//283 282//282 270//270
f 282//282 283//283 294//294
f 295//295 276//276 288//288
f 276//276 295//295 283//283
f 296//296 272//272 284//284
f 272//272 296//296 285//285
f 285//285 286//286 273//273
f 286//286 285//285 297//297
f 286//286 287//287 274//274
f 287//287 286//286 298//298
f 289//289 287//287 299//299
f 287//287 289//289 275//275
f 300//300 289//289 301//301
f 289//289 300//300 288//288
f 302//302 278//278 290//290
f 278//278 302//302 291//291
f 303//303 279//279 291//291
f 279//279 303//303 292//292
f 292//292 293//293 280//280
f 293//293 292//292 304//304
f 305//305 283//283 295//295
f 283//283 305//305 294//294
f 306//306 288//288 300//300
f 288//288 306//306 295//295
f 296//296 297//297 285//285
f 297//297 296//296 307//307
f 297//297 298//298 286//286
f 298//298 297//297 308//308
f 309//309 287//287 298//298
f 287//287 309//309 299//299
f 301//301 299//299 310//310
f 299//299 301//301 289//289
f 311//311 301//301 312//312
f 301//301 311//311 300//300
f 313//313 291//291 302//302
f 291//291 313//313 303//303
f 314//314 292//292 303//303
f 292//292 314//314 304//304
f 304//304 315//315 293//293
f 315//315 304//304 316//316
f 317//317 295//295 306//306
f 295//295 317//317 305//305
f 318//318 300//300 311//311
f 300//300 318//318 306//306
f 319//319 297//297 307//307
f 297//297 319//319 308//308
f 320//320 298//298 308//308
f 298//298 320//320 309//309
f 321//321 299//299 309//309
f 299//299 321//321 310//310
f 312//312 310//310 322//322
f 310//310 312//312 301//301
f 323//323 312//312 324//324
f 312//312 323//323 311//311
f 325//325 303//303 313//313
f 303//303 325//325 314//314
f 314//314 316//316 304//304
f 316//316 314//314 326//326
f 316//316 327//327 315//315
f 327//327 316//316 328//328
f 329//329 306//306 318//318
f 306//306 329//329 317//317
f 330//330 311//311 323//323
f 311//311 330//330 318//318
f 319//319 320//320 308//308
f 320//320 319//319 331//331
f 332//332 309//309 320//320
f 309//309 332//332 321//321
f 333//333 310//310 321//321
f 310//310 333//333 322//322
f 324//324 322//322 334//334
f 322//322 324//324 312//312
f 335//335 324//324 336//336
f 324//324 335//335 323//323
f 337//337 314//314 325//325
f 314//314 337//337 326//326
f 326//326 328//328 316//316
f 328//328 326//326 338//338
f 328//328 339//339 327//327
f 339//339 328//328 340//340
f 327//327 341//341 315//315
f 341//341 327//327 342//342
f 343//343 318//318 330//330
f 318//318 343//343 329//329
f 344//344 323//323 335//335
f 323//323 344//344 330//330
f 331//331 332//332 320//320
f 332//332 331//331 345//345
f 346//346 321//321 332//332
f 321//321 346//346 333//333
f 334//334 333//333 347//347
f 333//333 334//334 322//322
f 336//336 334//334 348//348
f 334//334 336//336 324//324
f 349//349 336//336 350//350
f 336//336 349//349 335//335
f 337//337 338//338 326//326
f 338//338 337//337 351//351
f 338//338 340//340 328//328
f 340//340 338//338 352//352
f 340//340 353//353 339//339
f 353//353 340//340 354//354
f 339//339 342//342 327//327
f 342//342 339//339 355//355
f 342//342 356//356 341//341
f 356//356 342//342 357//357
f 358//358 330//330 344//344
f 330//330 358//358 343//343
f 359//359 335//335 349//349
f 335//335 359//359 344//344
f 360//360 332//332 345//345
f 332//332 360//360 346//346
f 361//361 333//333 346//346
f 333//333 361//361 347//347
f 348//348 347//347 362//362
f 347//347 348//348 334//334
f 350//350 348//348 363//363
f 348//348 350//350 336//336
f 364//364 350//350 365//365
f 350//350 364//364 349//349
f 351//351 352//352 338//338
f 352//352 351//351 366//366
f 352//352 354//354 340//340
f 354//354 352//352 367//367
f 354//354 368//368 353//353
f 368//368 354//354 369//369
f 353//353 355//355 339//339
f 355//355 353//353 370//370
f 355//355 357//357 342//342
f 357//357 355//355 371//371
f 357//357 372//372 356//356
f 372//372 357//357 373//373
f 374//374 344//344 359//359
f 344//344 374//374 358//358
f 375//375 349//349 364//364
f 349//349 375//375 359//359
f 376//376 346//346 360//360
f 346//346 376//376 361//361
f 377//377 347//347 361//361
f 347//347 377//377 362//362
f 363//363 362//362 378//378
f 362//362 363//363 348//348
f 365//365 363//363 379//379
f 363//363 365//365 350//350
f 369//369 365//365 368//368
f 365//365 369//369 364//364
f 366//366 367//367 352//352
f 367//367 366//366 380//380
f 367//367 369//369 354//354
f 369//369 367//367 381//381
f 353//353 382//382 370//370
f 382//382 353//353 368//368
f 370//370 371//371 355//355
f 371//371 370//370 383//383
f 371//371 373//373 357//357
f 373//373 371//371 384//384
f 373//373 385//385 372//372
f 385//385 373//373 386//386
f 387//387 359//359 375//375
f 359//359 387//387 374//374
f 381//381 364//364 369//369
f 364//364 381//381 375//375
f 376//376 377//377 361//361
f 377//377 376//376 388//388
f 389//389 362//362 377//377
f 362//362 389//389 378//378
f 363//363 390//390 379//379
f 390//390 363//363 378//378
f 368//368 379//379 382//382
f 379//379 368//368 365//365
f 380//380 381//381 367//367
f 381//381 380//380 391//391
f 382//382 383//383 370//370
f 383//383 382//382 392//392
f 383//383 384//384 371//371
f 384//384 383//383 393//393
f 384//384 386//386 373//373
f 386//386 384//384 394//394
f 391//391 375//375 381//381
f 375//375 391//391 387//387
f 395//395 377//377 388//388
f 377//377 395//395 389//389
f 378//378 396//396 390//390
f 396//396 378//378 389//389
f 379//379 392//392 382//382
f 392//392 379//379 390//390
f 392//392 393//393 383//383
f 393//393 392//392 397//397
f 393//393 394//394 384//384
f 394//394 393//393 398//398
f 389//389 399//399 396//396
f 399//399 389//389 395//395
f 390//390 397//397 392//392
f 397//397 390//390 396//396
f 397//397 398//398 393//393
f 398//398 397//397 400//400
f 396//396 400//400 397//397
f 400//400 396//396 399//399
