# SSTK version 0.8.0
# 126
mtllib original-126.mtl
o #ID29
v 0.077790 -0.058890 0.216538
v 0.085650 -0.046896 0.217225
v 0.077535 -0.058744 0.217225
v 0.085891 -0.047063 0.216538
v 0.085268 -0.046630 0.217816
v 0.077129 -0.058512 0.217816
v 0.070863 -0.071300 0.216538
v 0.070596 -0.071177 0.217225
v 0.077877 -0.058940 0.215800
v 0.085973 -0.047120 0.215800
v 0.094881 -0.035720 0.217225
v 0.095105 -0.035907 0.216538
v 0.076600 -0.058210 0.218269
v 0.084769 -0.046284 0.218269
v 0.070170 -0.070981 0.217816
v 0.094524 -0.035423 0.217816
v 0.065163 -0.084200 0.216538
v 0.064885 -0.084101 0.217225
v 0.070955 -0.071342 0.215800
v 0.077877 -0.058940 0.204396
v 0.085973 -0.047120 0.215800
v 0.077877 -0.058940 0.215800
v 0.085973 -0.047120 0.204396
v 0.095181 -0.035971 0.215800
v 0.105157 -0.025302 0.217225
v 0.105364 -0.025507 0.216538
v 0.075984 -0.057858 0.218554
v 0.084188 -0.045880 0.218554
v 0.069615 -0.070726 0.218269
v 0.094059 -0.035036 0.218269
v 0.064442 -0.083943 0.217816
v 0.104829 -0.024976 0.217816
v 0.060732 -0.097493 0.216538
v 0.060445 -0.097419 0.217225
v 0.065258 -0.084234 0.215800
v 0.070955 -0.071342 0.204396
v 0.070955 -0.071342 0.215800
v 0.095181 -0.035971 0.215800
v 0.095181 -0.035971 0.204396
v 0.019318 -0.317137 0.204396
v -0.051190 -0.313236 0.204396
v -0.019039 -0.317137 0.204396
v 0.055437 -0.312755 0.204396
v -0.051190 -0.138721 0.204396
v 0.055437 -0.138721 0.204396
v 0.055901 -0.124865 0.204396
v -0.051149 -0.125299 0.204396
v -0.051190 -0.124841 0.204396
v 0.057703 -0.111096 0.204396
v -0.052348 -0.111920 0.204396
v -0.054777 -0.098675 0.204396
v 0.060830 -0.097519 0.204396
v -0.058421 -0.085655 0.204396
v 0.065258 -0.084234 0.204396
v -0.063255 -0.072949 0.204396
v 0.070955 -0.071342 0.204396
v -0.069245 -0.060643 0.204396
v 0.077877 -0.058940 0.204396
v -0.076352 -0.048822 0.204396
v 0.085973 -0.047120 0.204396
v -0.084525 -0.037567 0.204396
v 0.095181 -0.035971 0.204396
v -0.093709 -0.026954 0.204396
v 0.105434 -0.025577 0.204396
v -0.103842 -0.017056 0.204396
v 0.116653 -0.016015 0.204396
v -0.114854 -0.007940 0.204396
v 0.128756 -0.007358 0.204396
v -0.126670 0.000330 0.204396
v 0.141650 0.000330 0.204396
v 0.285870 0.078468 0.204396
v 0.024206 0.062968 0.204396
v 0.008022 0.062240 0.204396
v 0.040226 0.065147 0.204396
v 0.055921 0.068752 0.204396
v 0.071132 0.073749 0.204396
v 0.085706 0.080087 0.204396
v 0.284126 0.083623 0.204396
v 0.099495 0.087702 0.204396
v 0.267794 0.116956 0.204396
v 0.229965 0.168119 0.204396
v 0.247241 0.148061 0.204396
v -0.008162 0.062968 0.204396
v -0.277274 0.097037 0.204396
v -0.024182 0.065147 0.204396
v -0.039877 0.068752 0.204396
v -0.055088 0.073749 0.204396
v -0.069662 0.080087 0.204396
v -0.083451 0.087702 0.204396
v -0.148995 0.135669 0.204396
v -0.267515 0.116956 0.204396
v -0.246962 0.148061 0.204396
v -0.214540 0.183637 0.204396
v -0.222513 0.176446 0.204396
v 0.105434 -0.025577 0.215800
v 0.116402 -0.015718 0.217225
v 0.116589 -0.015940 0.216538
v 0.075324 -0.057480 0.218651
v 0.083565 -0.045447 0.218651
v 0.068968 -0.070429 0.218554
v 0.093518 -0.034585 0.218554
v 0.063865 -0.083737 0.218269
v 0.104401 -0.024552 0.218269
v 0.059989 -0.097301 0.217816
v 0.116104 -0.015367 0.217816
v 0.057603 -0.111080 0.216538
v 0.057310 -0.111031 0.217225
v 0.060830 -0.097519 0.215800
v 0.065258 -0.084234 0.204396
v 0.065258 -0.084234 0.215800
v 0.105434 -0.025577 0.215800
v 0.105434 -0.025577 0.204396
v -0.083451 0.087702 0.215800
v -0.214540 0.183637 0.204396
v -0.214540 0.183637 0.215800
v -0.148995 0.135669 0.204396
v -0.083451 0.087702 0.204396
v -0.214540 0.183637 0.215800
v -0.222513 0.176446 0.204396
v -0.222513 0.176446 0.215800
v -0.214540 0.183637 0.204396
v -0.246962 0.148061 0.215800
v -0.246962 0.148061 0.204396
v -0.267515 0.116956 0.215800
v -0.267515 0.116956 0.204396
v -0.277274 0.097037 0.204396
v -0.277274 0.097037 0.215800
v -0.126670 0.000330 0.204396
v -0.277274 0.097037 0.215800
v -0.277274 0.097037 0.204396
v -0.126670 0.000330 0.215800
v -0.126670 0.000330 0.204396
v -0.114854 -0.007940 0.215800
v -0.126670 0.000330 0.215800
v -0.114854 -0.007940 0.204396
v -0.103842 -0.017056 0.204396
v -0.103842 -0.017056 0.215800
v -0.093709 -0.026954 0.215800
v -0.093709 -0.026954 0.204396
v -0.084525 -0.037567 0.215800
v -0.084525 -0.037567 0.204396
v -0.076352 -0.048822 0.215800
v -0.076352 -0.048822 0.204396
v -0.069245 -0.060643 0.215800
v -0.069245 -0.060643 0.204396
v -0.063255 -0.072949 0.215800
v -0.063255 -0.072949 0.204396
v -0.058421 -0.085655 0.215800
v -0.058421 -0.085655 0.204396
v -0.054777 -0.098675 0.215800
v -0.054777 -0.098675 0.204396
v -0.052348 -0.111920 0.215800
v -0.052348 -0.111920 0.204396
v -0.051190 -0.124841 0.215800
v -0.051190 -0.124841 0.204396
v -0.051190 -0.124841 0.204396
v -0.051190 -0.138721 0.204396
v -0.051149 -0.125299 0.204396
v -0.051190 -0.124841 0.204396
v -0.051149 -0.125299 0.215800
v -0.051190 -0.124841 0.215800
v -0.051149 -0.125299 0.204396
v -0.051190 -0.138721 0.215800
v -0.051190 -0.138721 0.204396
v -0.051190 -0.138721 0.215800
v -0.051190 -0.313236 0.204396
v -0.051190 -0.313236 0.215800
v -0.051190 -0.138721 0.204396
v -0.019039 -0.317137 0.204396
v -0.051190 -0.313236 0.215800
v -0.051190 -0.313236 0.204396
v -0.019039 -0.317137 0.215800
v 0.019318 -0.317137 0.204396
v 0.019318 -0.317137 0.215800
v 0.055437 -0.312755 0.215800
v 0.055437 -0.312755 0.204396
v 0.055437 -0.312755 0.215800
v 0.055437 -0.138721 0.204396
v 0.055437 -0.138721 0.215800
v 0.055437 -0.312755 0.204396
v 0.055437 -0.138721 0.204396
v 0.055901 -0.124865 0.215800
v 0.055437 -0.138721 0.215800
v 0.055901 -0.124865 0.204396
v 0.057703 -0.111096 0.215800
v 0.057703 -0.111096 0.204396
v 0.060830 -0.097519 0.215800
v 0.060830 -0.097519 0.204396
v 0.116653 -0.016015 0.215800
v 0.116653 -0.016015 0.204396
v 0.128756 -0.007358 0.204396
v 0.128756 -0.007358 0.215800
v 0.141650 0.000330 0.215800
v 0.141650 0.000330 0.204396
v 0.141650 0.000330 0.204396
v 0.285870 0.078468 0.215800
v 0.141650 0.000330 0.215800
v 0.285870 0.078468 0.204396
v 0.285870 0.078468 0.204396
v 0.284126 0.083623 0.215800
v 0.285870 0.078468 0.215800
v 0.284126 0.083623 0.204396
v 0.267794 0.116956 0.215800
v 0.267794 0.116956 0.204396
v 0.247241 0.148061 0.215800
v 0.247241 0.148061 0.204396
v 0.229965 0.168119 0.204396
v 0.229965 0.168119 0.215800
v 0.099495 0.087702 0.215800
v 0.229965 0.168119 0.204396
v 0.099495 0.087702 0.204396
v 0.229965 0.168119 0.215800
v 0.099495 0.087702 0.215800
v 0.085706 0.080087 0.204396
v 0.085706 0.080087 0.215800
v 0.099495 0.087702 0.204396
v 0.071132 0.073749 0.204396
v 0.071132 0.073749 0.215800
v 0.055921 0.068752 0.204396
v 0.055921 0.068752 0.215800
v 0.040226 0.065147 0.215800
v 0.040226 0.065147 0.204396
v 0.024206 0.062968 0.204396
v 0.024206 0.062968 0.215800
v 0.008022 0.062240 0.204396
v 0.008022 0.062240 0.215800
v -0.008162 0.062968 0.204396
v -0.008162 0.062968 0.215800
v -0.024182 0.065147 0.204396
v -0.024182 0.065147 0.215800
v -0.039877 0.068752 0.204396
v -0.039877 0.068752 0.215800
v -0.055088 0.073749 0.204396
v -0.055088 0.073749 0.215800
v -0.069662 0.080087 0.204396
v -0.069662 0.080087 0.215800
v -0.083451 0.087702 0.204396
v -0.083451 0.087702 0.215800
v 0.116653 -0.016015 0.215800
v 0.128531 -0.007042 0.217225
v 0.128698 -0.007278 0.216538
v 0.075324 -0.057480 0.218651
v 0.000708 -0.062112 0.218651
v 0.068275 -0.070109 0.218651
v 0.018044 -0.060070 0.218651
v 0.034234 -0.054070 0.218651
v 0.083565 -0.045447 0.218651
v 0.048190 -0.044490 0.218651
v 0.092937 -0.034101 0.218651
v 0.058952 -0.031943 0.218651
v 0.103368 -0.023526 0.218651
v 0.065748 -0.017265 0.218651
v 0.114778 -0.013801 0.218651
v 0.068072 -0.001470 0.218651
v 0.127083 -0.004999 0.218651
v 0.140137 0.002784 0.218651
v 0.065748 0.014325 0.218651
v 0.282296 0.079806 0.218651
v 0.058952 0.029003 0.218651
v 0.048190 0.041550 0.218651
v 0.034234 0.051131 0.218651
v 0.018044 0.057131 0.218651
v 0.024484 0.060127 0.218651
v 0.008022 0.059386 0.218651
v 0.000708 0.059172 0.218651
v 0.040781 0.062343 0.218651
v 0.056749 0.066011 0.218651
v 0.072227 0.071096 0.218651
v 0.087061 0.077547 0.218651
v 0.101037 0.085265 0.218651
v 0.281360 0.082572 0.218651
v 0.265188 0.115580 0.218651
v 0.229354 0.164355 0.218651
v 0.244835 0.146382 0.218651
v 0.019131 -0.314286 0.218651
v -0.048222 -0.310723 0.218651
v -0.018852 -0.314286 0.218651
v 0.052469 -0.310241 0.218651
v -0.048222 -0.138725 0.218651
v 0.052469 -0.138675 0.218651
v -0.048180 -0.125181 0.218651
v 0.052938 -0.124641 0.218651
v -0.048233 -0.124597 0.218651
v 0.054774 -0.110609 0.218651
v -0.049401 -0.111550 0.218651
v -0.051876 -0.098057 0.218651
v 0.057961 -0.096775 0.218651
v -0.055588 -0.084794 0.218651
v 0.062472 -0.083241 0.218651
v -0.060511 -0.071854 0.218651
v -0.066611 -0.059324 0.218651
v -0.016628 -0.060070 0.218651
v -0.032817 -0.054070 0.218651
v -0.073844 -0.047291 0.218651
v -0.046774 -0.044490 0.218651
v -0.082162 -0.035837 0.218651
v -0.057535 -0.031943 0.218651
v -0.091506 -0.025040 0.218651
v -0.064331 -0.017265 0.218651
v -0.101811 -0.014973 0.218651
v -0.066655 -0.001470 0.218651
v -0.113008 -0.005705 0.218651
v -0.124971 0.002668 0.218651
v -0.064331 0.014325 0.218651
v -0.273501 0.098044 0.218651
v -0.057535 0.029003 0.218651
v -0.046774 0.041550 0.218651
v -0.032817 0.051131 0.218651
v -0.016628 0.057131 0.218651
v -0.024737 0.062343 0.218651
v -0.008440 0.060127 0.218651
v -0.040704 0.066011 0.218651
v -0.056183 0.071096 0.218651
v -0.071017 0.077547 0.218651
v -0.085097 0.085322 0.218651
v -0.214340 0.179906 0.218651
v -0.264909 0.115580 0.218651
v -0.244556 0.146382 0.218651
v -0.220345 0.174490 0.218651
v 0.068275 -0.070109 0.218651
v 0.092937 -0.034101 0.218651
v 0.063193 -0.083498 0.218554
v 0.103902 -0.024057 0.218554
v 0.059395 -0.097147 0.218269
v 0.115716 -0.014908 0.218269
v 0.056845 -0.110954 0.217816
v 0.128266 -0.006667 0.217816
v 0.055800 -0.124857 0.216538
v 0.055504 -0.124835 0.217225
v 0.057703 -0.111096 0.215800
v -0.214533 0.183510 0.216538
v -0.083451 0.087702 0.215800
v -0.214540 0.183637 0.215800
v -0.083507 0.087620 0.216538
v -0.222439 0.176379 0.216538
v -0.222513 0.176446 0.215800
v -0.246880 0.148004 0.216538
v -0.246962 0.148061 0.215800
v -0.267426 0.116910 0.216538
v -0.267515 0.116956 0.215800
v -0.277274 0.097037 0.215800
v -0.277146 0.097072 0.216538
v -0.126670 0.000330 0.215800
v -0.126613 0.000410 0.216538
v -0.114854 -0.007940 0.215800
v -0.114791 -0.007864 0.216538
v -0.103842 -0.017056 0.215800
v -0.103773 -0.016985 0.216538
v -0.093634 -0.026889 0.216538
v -0.093709 -0.026954 0.215800
v -0.084444 -0.037508 0.216538
v -0.084525 -0.037567 0.215800
v -0.076266 -0.048770 0.216538
v -0.076352 -0.048822 0.215800
v -0.069156 -0.060598 0.216538
v -0.069245 -0.060643 0.215800
v -0.063162 -0.072912 0.216538
v -0.063255 -0.072949 0.215800
v -0.058325 -0.085626 0.216538
v -0.058421 -0.085655 0.215800
v -0.054678 -0.098654 0.216538
v -0.054777 -0.098675 0.215800
v -0.052247 -0.111908 0.216538
v -0.052348 -0.111920 0.215800
v -0.051090 -0.124833 0.216538
v -0.051190 -0.124841 0.215800
v -0.051190 -0.124841 0.215800
v -0.051048 -0.125295 0.216538
v -0.051149 -0.125299 0.215800
v -0.051089 -0.138721 0.216538
v -0.051190 -0.138721 0.215800
v -0.051190 -0.313236 0.215800
v -0.051089 -0.313150 0.216538
v -0.019039 -0.317137 0.215800
v -0.019033 -0.317040 0.216538
v 0.019318 -0.317137 0.215800
v 0.019312 -0.317040 0.216538
v 0.055336 -0.312669 0.216538
v 0.055437 -0.312755 0.215800
v 0.055437 -0.138721 0.215800
v 0.055336 -0.138720 0.216538
v 0.055901 -0.124865 0.215800
v 0.128756 -0.007358 0.215800
v 0.141598 0.000414 0.216538
v 0.141650 0.000330 0.215800
v 0.285748 0.078514 0.216538
v 0.285870 0.078468 0.215800
v 0.284031 0.083588 0.216538
v 0.284126 0.083623 0.215800
v 0.267705 0.116910 0.216538
v 0.267794 0.116956 0.215800
v 0.247160 0.148004 0.216538
v 0.247241 0.148061 0.215800
v 0.229965 0.168119 0.215800
v 0.229944 0.167990 0.216538
v 0.099548 0.087619 0.216538
v 0.099495 0.087702 0.215800
v 0.085752 0.080001 0.216538
v 0.085706 0.080087 0.215800
v 0.071170 0.073659 0.216538
v 0.071132 0.073749 0.215800
v 0.055949 0.068659 0.216538
v 0.055921 0.068752 0.215800
v 0.040245 0.065051 0.216538
v 0.040226 0.065147 0.215800
v 0.024215 0.062872 0.216538
v 0.024206 0.062968 0.215800
v 0.008022 0.062240 0.215800
v 0.008022 0.062143 0.216538
v -0.008162 0.062968 0.215800
v -0.008171 0.062872 0.216538
v -0.024182 0.065147 0.215800
v -0.024201 0.065051 0.216538
v -0.039877 0.068752 0.215800
v -0.039905 0.068659 0.216538
v -0.055088 0.073749 0.215800
v -0.055126 0.073659 0.216538
v -0.069662 0.080087 0.215800
v -0.069708 0.080001 0.216538
v 0.141447 0.000659 0.217225
v -0.082162 -0.035837 0.218651
v -0.092076 -0.025535 0.218554
v -0.082773 -0.036285 0.218554
v -0.091506 -0.025040 0.218651
v -0.073844 -0.047291 0.218651
v -0.074493 -0.047688 0.218554
v -0.066611 -0.059324 0.218651
v -0.067293 -0.059666 0.218554
v -0.060511 -0.071854 0.218651
v -0.061221 -0.072137 0.218554
v -0.055588 -0.084794 0.218651
v -0.056322 -0.085017 0.218554
v -0.051876 -0.098057 0.218651
v -0.052627 -0.098217 0.218554
v -0.049401 -0.111550 0.218651
v -0.050164 -0.111646 0.218554
v -0.048233 -0.124597 0.218651
v -0.048998 -0.124660 0.218554
v -0.048180 -0.125181 0.218651
v -0.048949 -0.125212 0.218554
v -0.048233 -0.124597 0.218651
v -0.048990 -0.138724 0.218554
v -0.048222 -0.138725 0.218651
v -0.048222 -0.310723 0.218651
v -0.048990 -0.311373 0.218554
v -0.018852 -0.314286 0.218651
v -0.018900 -0.315024 0.218554
v 0.019180 -0.315024 0.218554
v 0.019131 -0.314286 0.218651
v 0.053237 -0.310892 0.218554
v 0.052469 -0.310241 0.218651
v 0.053237 -0.138687 0.218554
v 0.052469 -0.138675 0.218651
v 0.053705 -0.124699 0.218554
v 0.052938 -0.124641 0.218651
v 0.055532 -0.110735 0.218554
v 0.054774 -0.110609 0.218651
v 0.058703 -0.096967 0.218554
v 0.057961 -0.096775 0.218651
v 0.062472 -0.083241 0.218651
v 0.103368 -0.023526 0.218651
v 0.115264 -0.014374 0.218554
v 0.114778 -0.013801 0.218651
v 0.127516 -0.005610 0.218554
v 0.127083 -0.004999 0.218651
v 0.140528 0.002149 0.218554
v 0.140137 0.002784 0.218651
v 0.283221 0.079460 0.218554
v 0.282296 0.079806 0.218651
v 0.282076 0.082844 0.218554
v 0.281360 0.082572 0.218651
v 0.265188 0.115580 0.218651
v 0.265862 0.115936 0.218554
v 0.244835 0.146382 0.218651
v 0.245458 0.146816 0.218554
v 0.229354 0.164355 0.218651
v 0.229512 0.165329 0.218554
v 0.100638 0.085895 0.218554
v 0.101037 0.085265 0.218651
v 0.086710 0.078204 0.218554
v 0.087061 0.077547 0.218651
v 0.071944 0.071783 0.218554
v 0.072227 0.071096 0.218651
v 0.056535 0.066721 0.218554
v 0.056749 0.066011 0.218651
v 0.040637 0.063068 0.218554
v 0.040781 0.062343 0.218651
v 0.024412 0.060862 0.218554
v 0.024484 0.060127 0.218651
v 0.008022 0.060125 0.218554
v 0.008022 0.059386 0.218651
v -0.008440 0.060127 0.218651
v -0.008368 0.060862 0.218554
v -0.024737 0.062343 0.218651
v -0.024593 0.063068 0.218554
v -0.040704 0.066011 0.218651
v -0.040490 0.066721 0.218554
v -0.056183 0.071096 0.218651
v -0.055900 0.071783 0.218554
v -0.071017 0.077547 0.218651
v -0.070666 0.078204 0.218554
v -0.085097 0.085322 0.218651
v -0.084671 0.085938 0.218554
v -0.214340 0.179906 0.218651
v -0.214392 0.180872 0.218554
v -0.220906 0.174997 0.218554
v -0.220345 0.174490 0.218651
v -0.245179 0.146816 0.218554
v -0.244556 0.146382 0.218651
v -0.265583 0.115936 0.218554
v -0.264909 0.115580 0.218651
v -0.273501 0.098044 0.218651
v -0.274477 0.097783 0.218554
v -0.124971 0.002668 0.218651
v -0.125411 0.002063 0.218554
v -0.113008 -0.005705 0.218651
v -0.113486 -0.006284 0.218554
v -0.101811 -0.014973 0.218651
v -0.102337 -0.015512 0.218554
v 0.056239 -0.110853 0.218269
v 0.127919 -0.006179 0.218269
v 0.055033 -0.124799 0.217816
v 0.141207 0.001049 0.217816
v 0.055039 -0.138715 0.217225
v -0.214513 0.183137 0.217225
v -0.083672 0.087383 0.217225
v -0.222222 0.176184 0.217225
v -0.246640 0.147836 0.217225
v -0.267166 0.116772 0.217225
v -0.276769 0.097172 0.217225
v -0.126443 0.000643 0.217225
v -0.114607 -0.007641 0.217225
v -0.103570 -0.016777 0.217225
v -0.093414 -0.026697 0.217225
v -0.084208 -0.037335 0.217225
v -0.076016 -0.048617 0.217225
v -0.068892 -0.060466 0.217225
v -0.062887 -0.072802 0.217225
v -0.058042 -0.085540 0.217225
v -0.054389 -0.098592 0.217225
v -0.051953 -0.111870 0.217225
v -0.050794 -0.124809 0.217225
v -0.050752 -0.125283 0.217225
v -0.050793 -0.138722 0.217225
v -0.050793 -0.312899 0.217225
v -0.019014 -0.316755 0.217225
v 0.019293 -0.316755 0.217225
v 0.055039 -0.312418 0.217225
v 0.285391 0.078648 0.217225
v 0.283755 0.083483 0.217225
v 0.267445 0.116772 0.217225
v 0.246919 0.147836 0.217225
v 0.229883 0.167614 0.217225
v 0.099702 0.087375 0.217225
v 0.085888 0.079747 0.217225
v 0.071279 0.073394 0.217225
v 0.056032 0.068385 0.217225
v 0.040300 0.064771 0.217225
v 0.024243 0.062588 0.217225
v 0.008022 0.061858 0.217225
v -0.008199 0.062588 0.217225
v -0.024256 0.064771 0.217225
v -0.039988 0.068385 0.217225
v -0.055235 0.073394 0.217225
v -0.069843 0.079747 0.217225
v -0.092607 -0.025997 0.218269
v -0.083343 -0.036702 0.218269
v -0.075098 -0.048057 0.218269
v -0.067928 -0.059984 0.218269
v -0.061883 -0.072401 0.218269
v -0.057005 -0.085225 0.218269
v -0.053327 -0.098366 0.218269
v -0.050875 -0.111735 0.218269
v -0.049712 -0.124719 0.218269
v -0.049665 -0.125240 0.218269
v -0.049706 -0.138723 0.218269
v -0.049706 -0.311979 0.218269
v -0.018945 -0.315712 0.218269
v 0.019225 -0.315712 0.218269
v 0.053953 -0.311498 0.218269
v 0.053953 -0.138698 0.218269
v 0.054419 -0.124753 0.218269
v 0.140893 0.001557 0.218269
v 0.284083 0.079137 0.218269
v 0.282743 0.083098 0.218269
v 0.266491 0.116268 0.218269
v 0.246038 0.147221 0.218269
v 0.229660 0.166237 0.218269
v 0.100266 0.086483 0.218269
v 0.086384 0.078817 0.218269
v 0.071680 0.072423 0.218269
v 0.056335 0.067382 0.218269
v 0.040503 0.063745 0.218269
v 0.024345 0.061548 0.218269
v 0.008022 0.060813 0.218269
v -0.008301 0.061548 0.218269
v -0.024459 0.063745 0.218269
v -0.040291 0.067382 0.218269
v -0.055636 0.072423 0.218269
v -0.070339 0.078817 0.218269
v -0.084274 0.086512 0.218269
v -0.214440 0.181771 0.218269
v -0.221429 0.175468 0.218269
v -0.245759 0.147221 0.218269
v -0.266212 0.116268 0.218269
v -0.275388 0.097541 0.218269
v -0.125821 0.001499 0.218269
v -0.113931 -0.006823 0.218269
v -0.102827 -0.016014 0.218269
v 0.054568 -0.138708 0.217816
v 0.284823 0.078860 0.217816
v -0.214481 0.182544 0.217816
v -0.083933 0.087005 0.217816
v -0.221878 0.175873 0.217816
v -0.246258 0.147569 0.217816
v -0.266752 0.116553 0.217816
v -0.276169 0.097332 0.217816
v -0.126173 0.001015 0.217816
v -0.114314 -0.007286 0.217816
v -0.103247 -0.016446 0.217816
v -0.093064 -0.026393 0.217816
v -0.083833 -0.037060 0.217816
v -0.075617 -0.048374 0.217816
v -0.068474 -0.060257 0.217816
v -0.062451 -0.072628 0.217816
v -0.057592 -0.085403 0.217816
v -0.053928 -0.098494 0.217816
v -0.051485 -0.111812 0.217816
v -0.050324 -0.124770 0.217816
v -0.050280 -0.125265 0.217816
v -0.050321 -0.138723 0.217816
v -0.050321 -0.312500 0.217816
v -0.018984 -0.316302 0.217816
v 0.019263 -0.316302 0.217816
v 0.054568 -0.312019 0.217816
v 0.283316 0.083315 0.217816
v 0.267031 0.116553 0.217816
v 0.246537 0.147569 0.217816
v 0.229786 0.167016 0.217816
v 0.099947 0.086988 0.217816
v 0.086103 0.079343 0.217816
v 0.071453 0.072972 0.217816
v 0.056164 0.067949 0.217816
v 0.040389 0.064325 0.217816
v 0.024287 0.062136 0.217816
v 0.008022 0.061404 0.217816
v -0.008243 0.062136 0.217816
v -0.024344 0.064325 0.217816
v -0.040119 0.067949 0.217816
v -0.055409 0.072972 0.217816
v -0.070059 0.079343 0.217816
vn 0.8190562491004948 -0.5076783368707086 0.2672256856696596
vn 0.6862327022968863 -0.516857075066417 0.5118041053490107
vn 0.729550919681672 -0.4522000213223885 0.5130990121873729
vn 0.7699180079564777 -0.5798872116429418 0.2663777070201318
vn 0.5556222660382822 -0.4184838315929306 0.7184394060585654
vn 0.590177659300596 -0.36581184301210135 0.7196332579686401
vn 0.8621378897573412 -0.4299871249249036 0.2680099465385084
vn 0.7674578869306513 -0.38276588977995957 0.514294337329214
vn 0.8422434521617572 -0.5220505639478072 0.1344960072731607
vn 0.7915694954306617 -0.5961947686542208 0.13405048203191153
vn 0.6381726649060024 -0.5763414846300431 0.5104567982319456
vn 0.7155102597957834 -0.6461859387069561 0.26549727069101975
vn 0.4129448853854189 -0.2559570108186778 0.8740495010277111
vn 0.38910325782143235 -0.2930650149704204 0.873333585609265
vn 0.6203398576200704 -0.3093915391457897 0.7207324999976829
vn 0.5171810340299469 -0.46707250010175183 0.7171938773361174
vn 0.8983934294892031 -0.34740468851569284 0.26869914076517387
vn 0.7993038329118514 -0.3090871858219446 0.515343084025675
vn 0.8866950212599651 -0.44223488013405876 0.13490830243392962
vn 0.8499660954860478 -0.5268373909701196 0
vn 0.7987789299489706 -0.6016246513147357 0
vn 0.7354927433487412 -0.664232362629008 0.13358814662098112
vn 0.586030681297608 -0.6303831550095319 0.50910226719009
vn 0.6566020525960768 -0.706295454145836 0.26461382424118685
vn 0.21091899149894394 -0.1307346447186539 0.9687216482020807
vn 0.19887666775920224 -0.14979007461628502 0.9685096822269996
vn 0.4337034032457776 -0.2163074473119088 0.8747070631076648
vn 0.36251009099915277 -0.3273872502789185 0.872584679145007
vn 0.6456213915287787 -0.24965888695648825 0.7216948516957087
vn 0.47536019073121794 -0.5113366941926984 0.7159381776662443
vn 0.9271123239794008 -0.26069070372772424 0.2692639888946505
vn 0.824492846546074 -0.23183559224864883 0.5162013213476603
vn 0.9241213250618262 -0.35735359811219275 0.13527077467895357
vn 0.8948758916940892 -0.4463150663653522 0
vn 0.7421446246746332 -0.6702397750555752 0
vn 0 0 1
vn 0.6748118575934838 -0.7258834698115312 0.13312454734422133
vn 0.5304345096504072 -0.6788203013297557 0.5077816750085729
vn 0.5939178473316007 -0.7600626531703994 0.26375434380607016
vn 0.10766492629545497 -0.06673428826346454 0.9919449573518498
vn 0.10151793724718124 -0.0764613392497865 0.9918910081340622
vn 0.22138350869470627 -0.1104139233825318 0.9689159445490084
vn 0.18541643067092733 -0.1674518183115802 0.9682874757949723
vn 0.45106384422351903 -0.1744244038645126 0.8752814037615619
vn 0.33350001158156456 -0.35874018684796105 0.8718275176979597
vn 0.6655794380989615 -0.18715144985005552 0.7224806892913421
vn 0.4306474475856908 -0.5511183788337083 0.7147106466253564
vn 0.9476882705186319 -0.17076359861699755 0.2696789485828978
vn 0.8425191398053076 -0.1518132943008248 0.5168309421225238
vn 0.953779780179055 -0.26818921685080954 0.1355679714628161
vn 0.9326940321011797 -0.3606686047923265 0
vn 0.6808721074788905 -0.7324023301828402 0
vn 0.5905761543544538 0.8069819117600497 0
vn -0.6697469719126798 0.7425893842587545 0
vn -0.7150172573284195 0.6991068028009346 0
vn -0.7975151775606997 0.6032988824457789 0
vn -0.8678788511955271 0.49677590485804773 0
vn -0.89800817313209 0.43997877333794894 0
vn -0.5403249946188542 -0.8414564160966006 0
vn -0.5734220296288116 -0.8192601393552442 0
vn -0.6059760637227888 -0.7954828786309827 0
vn -0.6687190730932223 -0.7435151654682919 0
vn -0.7280543026318937 -0.6855194617362709 0
vn -0.783332873574457 -0.6216024526798326 0
vn -0.8338603631066873 -0.5519754476782311 0
vn -0.8789168733221515 -0.47697497815882656 0
vn -0.917784812616469 -0.39707812547476445 0
vn -0.9497826311060626 -0.3129104562798194 0
vn -0.974302437821267 -0.22524377828374317 0
vn -0.9908481215025737 -0.13498148063649668 0
vn -0.9960126803856731 -0.08921177338752351 0
vn -0.999069408192698 -0.04313139939176984 0
vn -0.9999953328112547 0.0030552177840091795 0
vn -1 0 0
vn -0.06031537310595318 -0.9981793705377253 0
vn -0.1204476645501833 -0.9927196785117169 0
vn 0.06031537310595318 -0.9981793705377253 0
vn 0.1204476645501833 -0.9927196785117169 0
vn 1 0 0
vn 0.9994410268920847 -0.03343102997060076 0
vn 0.9966561605080004 -0.08170983858416846 0
vn 0.9841507653712485 -0.17733378420139295 0
vn 0.9626670711652998 -0.2706882156541418 0
vn 0.6157205884891908 -0.7879645657709011 0
vn 0.5473814055048544 -0.8368832636082111 0
vn 0.5121137022121262 -0.8589176654409837 0
vn 0.47637377096981554 -0.8792428733472895 0
vn 0.947260961073004 0.3204632141557733 0
vn 0.9245237365400113 0.38112446861110305 0
vn 0.8678788511955271 0.49677590485804773 0
vn 0.7975151775606997 0.6032988824457789 0
vn 0.7576784343486518 0.652628064155209 0
vn -0.5247034416884723 0.8512850863725219 0
vn -0.48340337878903306 0.875397722966736 0
vn -0.44152558867406 0.8972486581466838 0
vn -0.3557745896469169 0.9345717957233503 0
vn -0.26824017165872466 0.9633520697587657 0
vn -0.17946875280277813 0.9837636742467244 0
vn -0.08992112036060043 0.9959488903116939 0
vn 0 1 0
vn 0.08992112036060043 0.9959488903116939 0
vn 0.17946875280277813 0.9837636742467244 0
vn 0.26824017165872466 0.9633520697587657 0
vn 0.3557745896469169 0.9345717957233503 0
vn 0.44152558867406 0.8972486581466838 0
vn 0.48340337878903306 0.875397722966736 0
vn 0.610277444481234 -0.7809987895975287 0.13267377813513012
vn 0.47196395068095703 -0.7215786160294395 0.5065316674667654
vn 0.5281199334524961 -0.8074346515620598 0.262942235760986
vn 0.11300641571288908 -0.056361419071973985 0.9919944256133292
vn 0.09464720903667106 -0.0854770358414322 0.9918344530037918
vn 0.23011967043723536 -0.08898623367988935 0.9690853355062835
vn 0.17070123782604654 -0.18362034496875637 0.9680623204722981
vn 0.4647427118255653 -0.1306789793683521 0.875749516789056
vn 0.30239986912557243 -0.3869942978102375 0.8710853761917933
vn 0.6798405021942391 -0.12250024703540387 0.7230564162308152
vn 0.38350016141085663 -0.5863277273507351 0.7135456694126655
vn 0.9596618633757623 -0.07867689780463735 0.26992416293099486
vn 0.8530008964832916 -0.06993240542693303 0.5172029865245406
vn 0.9750356931758976 -0.1756913201474261 0.13578643915300034
vn -0.04696436165960787 0.9499812129042551 0.30875563778312753
vn 0.5332191567471493 0.8355602996509981 0.13234922185261797
vn -0.048658044472590534 0.984240638701106 0.17000811697487334
vn 0.5189253392169377 0.8131616708516061 0.26359929699528867
vn -0.6898278438324995 0.6744778365728746 0.26309160732600184
vn -0.7086158189641293 0.6928477906082839 0.13351239703868728
vn -0.7691516466594128 0.5818426448634256 0.2643196569675578
vn -0.790304311394925 0.597843989383547 0.13417026402507723
vn -0.8367394936795963 0.47895168134034094 0.2654662062449257
vn -0.859959365687981 0.4922427351196607 0.13478493642629674
vn -0.945418950064515 -0.27330303550368673 0.1774498792430717
vn -0.9098591339692151 -0.26302334096369195 0.3208973020159052
vn -0.5520819378140324 -0.8232404092521154 0.13221483469683903
vn -0.537452088579391 -0.8014250115164714 0.2624179936617807
vn -0.6006250889656475 -0.7884585294527662 0.13259958460790783
vn -0.5845486023678891 -0.7673542955809717 0.2635722225940709
vn -0.6627758412072817 -0.736907170875631 0.13302633507713307
vn -0.6449241027107345 -0.7170587253949201 0.2643854876459116
vn -0.7019801713992604 -0.660968718994372 0.26522479422784684
vn -0.7215406106991975 -0.679386263229575 0.1334670462952706
vn -0.7550971595216842 -0.5991963982866699 0.26606757781166523
vn -0.7762778162906057 -0.6160040020342232 0.1339097510001021
vn -0.8036141061481681 -0.5319538851603888 0.2668884269923463
vn -0.826301525676753 -0.5469718666738332 0.13434122871111787
vn -0.8468480038229289 -0.45957171527109436 0.26766078708676183
vn -0.8709010972351136 -0.47262501944916224 0.1347474297541679
vn -0.8841199728576599 -0.382513134880741 0.26835717847279394
vn -0.9093687647050714 -0.393437001197907 0.1351139366134032
vn -0.9147867162894399 -0.30138097284302895 0.2689512463413648
vn -0.9410326360962943 -0.3100277413143757 0.13542664958259182
vn -0.9382756683131203 -0.21691502558903436 0.26941908233322376
vn -0.9652936926189979 -0.22316116335372882 0.135673070874768
vn -0.9541202897345522 -0.12997807057444688 0.26974093846985525
vn -0.9816633989871352 -0.13373017916681726 0.13584259372168736
vn -0.9593975293711252 -0.08593219037809117 0.26864854232510627
vn -0.9867906725740279 -0.0883857697470969 0.13576495949659112
vn -0.961991546413135 -0.04153069135777162 0.26990269784685456
vn -0.9897967902916807 -0.042731085398707326 0.1359278053561351
vn -0.9632243773298574 0.0014714339439867372 0.26869431292764084
vn -0.9907342656760227 0.001513458549266795 0.13580620110514682
vn -0.7251023891497336 -0.6655988842378526 0.17664838111535092
vn -0.6982067503802772 -0.6409103023798927 0.31896914902028956
vn -0.05979719309798985 -0.9896038453565195 0.13079956021788242
vn -0.05827311124944016 -0.9643812521592086 0.25801752845329634
vn 0.05979719309798985 -0.9896038453565195 0.13079956021788242
vn 0.05827311124944016 -0.9643812521592086 0.25801752845329634
vn 0.6982067503802772 -0.6409103023798927 0.31896914902028956
vn 0.7251023891497336 -0.6655988842378526 0.17664838111535092
vn 0.9905948185390915 -0.016563289976046634 0.13582180571864708
vn 0.9629779064486975 -0.016101521532135545 0.26909903882406133
vn 0.9874076162223835 -0.08095160050260813 0.1359155539373489
vn 0.5425735870479863 -0.8295325894061152 0.13224819753428277
vn 0.47709686045487876 -0.8389584626231084 0.26177716427749875
vn 0.49001842359999 -0.8616805352486565 0.1318658398000389
vn 0.8793719999162082 -0.35671735826766854 0.31536900937458057
vn 0.9126131999366748 -0.37020161791768885 0.17345866767754287
vn 0.891099903710524 0.36734587519668077 0.26645444185278555
vn 0.9160205434855547 0.3776191062108685 0.13531509352963494
vn 0.8367394936795963 0.47895168134034094 0.2654662062449257
vn 0.859959365687981 0.4922427351196607 0.13478493642629674
vn 0.7691516466594128 0.5818426448634256 0.2643196569675578
vn 0.790304311394925 0.597843989383547 0.13417026402507723
vn 0.14573289465914618 0.974009547063918 0.17339932422765517
vn 0.14051996110926623 0.9391688726456133 0.31339427114007357
vn -0.48657246071584753 0.8334393689397483 0.2619657587820188
vn -0.4997729586374145 0.8560501811116871 0.1319283033827579
vn -0.4260925008861691 0.865886268343326 0.262080428462408
vn -0.43767828590847657 0.8894303832171238 0.1317243768421718
vn -0.34340717699750045 0.9020843000513836 0.2613721989566074
vn -0.35269193191759357 0.9264741690179881 0.1313545404722043
vn -0.25895680531731274 0.930011971634291 0.2608047269447974
vn -0.2659264921851574 0.9550428317136783 0.13105834710698905
vn -0.17327767665750837 0.949827080199831 0.2603907918710638
vn -0.17792585234471528 0.9753064555308337 0.1308423053423026
vn -0.08682524194389017 0.9616595093398473 0.2601391271178342
vn -0.08914964034004288 0.987404153546868 0.13071105227039645
vn 0 0.9914263132748563 0.1306670017495863
vn 0 0.9655938871048317 0.26005469652706087
vn 0.08914964034004288 0.987404153546868 0.13071105227039645
vn 0.08682524194389017 0.9616595093398473 0.2601391271178342
vn 0.17792585234471528 0.9753064555308337 0.1308423053423026
vn 0.17327767665750837 0.949827080199831 0.2603907918710638
vn 0.2659264921851574 0.9550428317136783 0.13105834710698905
vn 0.25895680531731274 0.930011971634291 0.2608047269447974
vn 0.35269193191759357 0.9264741690179881 0.1313545404722043
vn 0.34340717699750045 0.9020843000513836 0.2613721989566074
vn 0.43767828590847657 0.8894303832171238 0.1317243768421718
vn 0.4260925008861691 0.865886268343326 0.262080428462408
vn 0.4267695006975601 -0.7504594901776306 0.5046566623722368
vn -0.09965972364685652 -0.07908352487798961 0.9918738506360093
vn -0.18217098280853267 -0.17152813049992321 0.9681899779845764
vn -0.1953552467007881 -0.155021253265787 0.9684031901136939
vn -0.09293465972324848 -0.08750516616865502 0.9918195374743938
vn -0.10574669369153515 -0.06999923077509196 0.9919262797527869
vn -0.2072887055337456 -0.13721512903697994 0.968609003118136
vn -0.11112386121281442 -0.060305253106221215 0.9919751831154597
vn -0.2178308767032066 -0.11821353875603836 0.9688009436460552
vn -0.11572258272324869 -0.050067188892844554 0.9920189314948726
vn -0.22684708908626616 -0.09814504354570704 0.9689726253101781
vn -0.11947990404982708 -0.03936323432764129 0.992055990512386
vn -0.23421373475281818 -0.07716286442496323 0.9691180623674658
vn -0.12234121462510418 -0.02828342151019106 0.9920850141352459
vn -0.23982386616133503 -0.055443608979311866 0.9692319224224816
vn -0.12426317242221452 -0.016928139683223268 0.9921048846097029
vn -0.24359207081948359 -0.033184109055608445 0.9693099184162209
vn -0.12498249709546147 -0.011194544475294266 0.9920957905332396
vn -0.24830512317834258 -0.02224042039731223 0.9684265225116148
vn -0.1252153843634421 -0.005405746942201002 0.9921148549531513
vn -0.24545923261885808 -0.010596862730324935 0.9693489937181737
vn -0.24933656009984798 0.0003808896033096469 0.9684168186894964
vn -0.12544442001626818 0.00019163045843141417 0.9921006303619353
vn -0.07081608259299915 -0.06500475205501367 0.9953690092907492
vn -0.17463976938488965 -0.1603083784240849 0.971494814580208
vn -0.007856283501072564 -0.13001623308886803 0.9914807400766452
vn -0.015873337428433644 -0.2626931884932653 0.9647488408275622
vn 0.015873337428433644 -0.2626931884932653 0.9647488408275622
vn 0.007856283501072564 -0.13001623308886803 0.9914807400766452
vn 0.17463976938488965 -0.1603083784240849 0.971494814580208
vn 0.07081608259299915 -0.06500475205501367 0.9953690092907492
vn 0.2479599554351492 -0.004146027234618396 0.9687614107502264
vn 0.12541257413632148 -0.0020969674173694484 0.9921024589104455
vn 0.24473148750686005 -0.02006406435403613 0.9693832742235018
vn 0.12492427884640771 -0.010241793347547505 0.9921134160083369
vn 0.24189115844570702 -0.04358629126179311 0.9693239410433625
vn 0.1234744715651876 -0.0222488273444333 0.992098303875929
vn 0.23699288835803023 -0.06663899977828869 0.9692232016291538
vn 0.12097417722012521 -0.034016200608431045 0.9920726518466684
vn 0.11746577568262012 -0.04542349037420795 0.9920375487175395
vn 0.08713584093491539 -0.09373051789423839 0.9917771600716782
vn 0.15489200573288736 -0.19822215266967588 0.9678411257799716
vn 0.07906601727190085 -0.1011842867774712 0.9917208806020441
vn 0.13814388683456172 -0.21120615053273675 0.9676302126883919
vn 0.07051687961425653 -0.10781222954197126 0.9916672288881275
vn 0.12591115658591487 -0.22141042758749632 0.9670179952838104
vn 0.06386793695233553 -0.11230955416000503 0.991618601415803
vn 0.22142380659537617 -0.08982059543835708 0.9710323158926856
vn 0.09075202514670548 -0.03681357209762289 0.9951928611285277
vn 0.23559131420738702 0.09711985080059767 0.966987314937743
vn 0.11639861628399886 0.047983998605758096 0.992042790410259
vn 0.10969773175528694 0.06279124256757343 0.9919796709129504
vn 0.22198499217535772 0.1270647451577923 0.9667353380253004
vn 0.10126674295167651 0.07660555514354547 0.9919055578496919
vn 0.20487657626164596 0.15498359608957685 0.9664396895008238
vn 0.014496870335856022 0.09689018634565437 0.995189495794831
vn 0.03574201145967947 0.23888263408517255 0.9703904346959248
vn -0.12822898343939093 0.21964068648376625 0.9671170025633096
vn -0.0651089979690303 0.1115237700029297 0.9916265764428677
vn -0.11164677439221002 0.22688351262706954 0.9675013537281576
vn -0.05710626896600455 0.11604880447149372 0.99160049870173
vn -0.09021854190056099 0.23699194902498133 0.967313512153468
vn -0.046144984280267295 0.12121665630333353 0.9915529046200274
vn -0.06817623284165518 0.2448466447445033 0.9671618901884418
vn -0.03487019374912767 0.12523210273428736 0.9915144931026713
vn -0.04568985676057865 0.2504503856988272 0.9670506922041401
vn -0.02336876814957536 0.12809663726487275 0.9914863348511683
vn -0.02291563409998938 0.2538091013491313 0.966982840481744
vn -0.01172046449779223 0.12981355264308023 0.9914691484167011
vn 0 0.2549280093324045 0.9669600353984737
vn 0 0.1303854966002104 0.9914633741476873
vn 0.01172046449779223 0.12981355264308023 0.9914691484167011
vn 0.02291563409998938 0.2538091013491313 0.966982840481744
vn 0.02336876814957536 0.12809663726487275 0.9914863348511683
vn 0.04568985676057865 0.2504503856988272 0.9670506922041401
vn 0.03487019374912767 0.12523210273428736 0.9915144931026713
vn 0.06817623284165518 0.2448466447445033 0.9671618901884418
vn 0.046144984280267295 0.12121665630333353 0.9915529046200274
vn 0.09021854190056099 0.23699194902498133 0.967313512153468
vn 0.05710626896600455 0.11604880447149372 0.99160049870173
vn 0.11164677439221002 0.22688351262706954 0.9675013537281576
vn 0.06924911784573348 0.10851417459222376 0.9916800056420197
vn 0.1347442462643263 0.2111456913146002 0.9681226601717048
vn -0.0049358540379667425 0.09984100647979413 0.9949911611517047
vn -0.012084820558423129 0.24444829253103015 0.9695870200197271
vn -0.18454377962186638 0.18043731504488594 0.9661190241074173
vn -0.09123945810654724 0.08920921394321792 0.9918251244206595
vn -0.20487657626164596 0.15498359608957685 0.9664396895008238
vn -0.10126674295167651 0.07660555514354547 0.9919055578496919
vn -0.22198499217535772 0.1270647451577923 0.9667353380253004
vn -0.10969773175528694 0.06279124256757343 0.9919796709129504
vn -0.09191992475683254 -0.026572343768847168 0.9954117931687008
vn -0.2260172196759154 -0.06533738382041404 0.971929649041263
vn -0.07177044394488712 -0.10702097109527538 0.9916630048165447
vn -0.14154095401065944 -0.2110596518728554 0.967171123270883
vn -0.07785832203051114 -0.10220693968788722 0.9917115624869108
vn -0.15261563119850433 -0.20034310759222224 0.9677660400913918
vn -0.08564384593613124 -0.09522308522317557 0.991764939738166
vn -0.16787804280324484 -0.18665517614221605 0.9679756236413549
vn 0.4745024269419812 -0.08550044254443818 0.8760919593004348
vn 0.2695207915223458 -0.41206628897688674 0.8703791796831912
vn 0.6881244606090613 -0.056415178366618975 0.7233961945997165
vn 0.34729436097700755 -0.6107052102899619 0.711635983462237
vn 0.8565665667960187 -0.014322261819077909 0.5158377549808343
vn -0.040511296265631234 0.8194507264186521 0.5717161374728038
vn 0.463486894225144 0.7262890988291891 0.5076258896110547
vn -0.6165712643751083 0.6028514539759091 0.5063694307380853
vn -0.6868253674854946 0.5195649691340971 0.5082550122006668
vn -0.7465216496919392 0.4273107330943297 0.5100107488314458
vn -0.7768884699786077 -0.2245840493603126 0.5882230104197067
vn -0.4805236527686656 -0.7165358023235845 0.5056416350720694
vn -0.5221423172047331 -0.6854318485728307 0.5074944152856307
vn -0.5757120359735232 -0.6401053313536939 0.5087443527035936
vn -0.6262398815647399 -0.5896532612418937 0.5100320011965719
vn -0.673187664898724 -0.5341983233785876 0.5113223241045801
vn -0.7159870388067396 -0.47394897362505023 0.5125767558722477
vn -0.7540553736360153 -0.40921449519178904 0.513754796002508
vn -0.7868179418814876 -0.3404155892042501 0.5148152610015588
vn -0.8137339472939351 -0.2680885746892078 0.5157185076594986
vn -0.834324445349366 -0.19288300805804887 0.51642895454743
vn -0.8482010845979109 -0.11554890800251226 0.5169171790010024
vn -0.8537161209277762 -0.07646642328775581 0.5150938467673719
vn -0.8550908037361811 -0.03691561874570135 0.5171624062694754
vn -0.8570943464966756 0.0013093077523635254 0.5151578077799521
vn -0.5971116746931712 -0.5481113955637581 0.5856889498686704
vn -0.05228600183646393 -0.8652987357768915 0.4985220876499563
vn 0.05228600183646393 -0.8652987357768915 0.4985220876499563
vn 0.5971116746931712 -0.5481113955637581 0.5856889498686704
vn 0.7544108723974253 -0.306026844766281 0.5806994109614285
vn 0.7944166935938415 0.3274892286216347 0.5115202069090088
vn 0.7465216496919392 0.4273107330943297 0.5100107488314458
vn 0.6868253674854946 0.5195649691340971 0.5082550122006668
vn 0.12073583890596115 0.806940692951182 0.5781605099478345
vn -0.4351790606700697 0.7454087938513446 0.5049603105229153
vn -0.3810306097119247 0.7743135087828281 0.5052269436391768
vn -0.30725629375511004 0.8071208558313397 0.5041324171583883
vn -0.23179668390833436 0.8324696712297178 0.5032539555848374
vn -0.15515287885915796 0.8504752899462299 0.5026125400073022
vn -0.07775825683181908 0.8612353786439636 0.5022223372834639
vn 0 0.8648145713196704 0.5020913833488627
vn 0.07775825683181908 0.8612353786439636 0.5022223372834639
vn 0.15515287885915796 0.8504752899462299 0.5026125400073022
vn 0.23179668390833436 0.8324696712297178 0.5032539555848374
vn 0.30725629375511004 0.8071208558313397 0.5041324171583883
vn 0.3810306097119247 0.7743135087828281 0.5052269436391768
vn -0.35597306547585394 -0.33517619743901084 0.8723188025750958
vn -0.38199516431560454 -0.3031267026964746 0.8730371679097388
vn -0.40559614447692466 -0.26848517489753404 0.8737319259622451
vn -0.42648535346130134 -0.2314471433963198 0.8743811886681188
vn -0.44438205003711245 -0.1922611933308888 0.8749629861564407
vn -0.4590268308933127 -0.15122859090586624 0.8754566133239663
vn -0.47019358116355264 -0.10870154381406971 0.8758435765620659
vn -0.4777011332009465 -0.06507634929972447 0.8761088380448814
vn -0.4831223409151571 -0.0432727473965719 0.8744828603474234
vn -0.48142306779466637 -0.02078379637296086 0.8762418978818004
vn -0.48503143789189773 0.0007409401457605478 0.8744964009441197
vn -0.3185804431923173 -0.29243698153192016 0.9016579800832942
vn -0.030346009009957913 -0.5022062421588523 0.8642152567930352
vn 0.030346009009957913 -0.5022062421588523 0.8642152567930352
vn 0.3185804431923173 -0.29243698153192016 0.9016579800832942
vn 0.4838410868706389 -0.008090089296633313 0.8751184794706436
vn 0.4801660132869909 -0.03936592451357682 0.8762938569174546
vn 0.2445998894333353 -0.43012039412723074 0.8690036482345952
vn 0.4046860668818954 -0.16416092003248092 0.8996001220574349
vn 0.4531975194811977 0.18682551704106276 0.8716124336644291
vn 0.42672342209467373 0.2442575363661591 0.8707728618670575
vn 0.3935115952677237 0.2976809793746095 0.8697900085126437
vn 0.06501625960720049 0.4345378179814777 0.8983038298541229
vn -0.24927373868697741 0.42697543684535494 0.8692264259280978
vn -0.2178999565726594 0.44280663905440276 0.8697366781589569
vn -0.1759719476879192 0.4622545795949459 0.8691113721902503
vn -0.13291328031165497 0.47734175769869364 0.8686074523476741
vn -0.08904293844797735 0.4880916320510061 0.8682383968901256
vn -0.044649514232886434 0.49452933998189635 0.8680133367499817
vn 0 0.49667297675624145 0.8679377593814512
vn 0.044649514232886434 0.49452933998189635 0.8680133367499817
vn 0.08904293844797735 0.4880916320510061 0.8682383968901256
vn 0.13291328031165497 0.47734175769869364 0.8686074523476741
vn 0.1759719476879192 0.4622545795949459 0.8691113721902503
vn 0.2178999565726594 0.44280663905440276 0.8697366781589569
vn 0.2639760738978513 0.4136534155155431 0.871325131189157
vn -0.021980360540669153 0.44461240407661834 0.8954533342903537
vn -0.35414207378401186 0.34626175552270316 0.8687267627040709
vn -0.3935115952677237 0.2976809793746095 0.8697900085126437
vn -0.42672342209467373 0.2442575363661591 0.8707728618670575
vn -0.4131318004932406 -0.11942871745714556 0.9028061236321753
vn -0.2750591473905514 -0.4101561138036335 0.8695484044872279
vn -0.2978185251615472 -0.39095525477517745 0.87089500792821
vn -0.32782016672393943 -0.3644866943981202 0.871598180296299
vn 0.6918757683106365 -0.01156854148842556 0.72192388107916
vn 0.5867697391534522 -0.2380231357076578 0.7739807879280232
vn -0.03170202791368654 0.64125929449861 0.7666690933155613
vn 0.37624206103930286 0.5895754727266066 0.7147325887799548
vn -0.5016333187155219 0.4904710227817027 0.7126024062307973
vn -0.5580875209956799 0.42217825577602514 0.7143555412109642
vn -0.605882571100172 0.34680861038656585 0.7159819116421756
vn -0.6011630975839705 -0.17378512311851183 0.7800010647979457
vn -0.39078366136017545 -0.582719427897746 0.7125490848807956
vn -0.424006391432717 -0.556605878064301 0.7144287763860537
vn -0.4671131877719837 -0.5193596457232907 0.7155912438003093
vn -0.5076675802977239 -0.4780082932907833 0.7167856719130806
vn -0.5452499806406058 -0.4326752800960574 0.7179794987360136
vn -0.5794230265602893 -0.38355018071408287 0.7191371323787339
vn -0.6097434222316434 -0.3308986628071394 0.7202215173109526
vn -0.6357785501560735 -0.275068600195122 0.7211954661172914
vn -0.6571248299169339 -0.21649300390585738 0.7220233633106751
vn -0.6734277552090144 -0.15568614073891715 0.72267342838655
vn -0.6844013548753645 -0.09323474196891311 0.7231196777399683
vn -0.6900434808873618 -0.06180645087289938 0.7211240927297803
vn -0.689845670141577 -0.029781729058893865 0.7233436251196113
vn -0.6927556512460942 0.0010582619110607245 0.7211716076970359
vn -0.4628433748993277 -0.42486136983220296 0.7779902484839413
vn -0.04276201631763051 -0.7076829647743877 0.705234876710294
vn 0.04276201631763051 -0.7076829647743877 0.705234876710294
vn 0.4628433748993277 -0.42486136983220296 0.7779902484839413
vn 0.6441032704191976 0.2655242567728338 0.7173756659523155
vn 0.605882571100172 0.34680861038656585 0.7159819116421756
vn 0.5580875209956799 0.42217825577602514 0.7143555412109642
vn 0.09406720505449455 0.628700467847594 0.7719372271509208
vn -0.35405269932051137 0.606449096172493 0.711945348924639
vn -0.30986151943969265 0.62968688785437 0.7123764889683004
vn -0.2500516113263805 0.6568517761229195 0.7113507825800481
vn -0.18875286047928796 0.6778829344795171 0.7105259212740416
vn -0.12639619109305783 0.6928446136261133 0.7099227734383853
vn -0.06336288891949128 0.7017950653211135 0.7095553752870247
vn 0 0.7047738955087542 0.7094319954790702
vn 0.06336288891949128 0.7017950653211135 0.7095553752870247
vn 0.12639619109305783 0.6928446136261133 0.7099227734383853
vn 0.18875286047928796 0.6778829344795171 0.7105259212740416
vn 0.2500516113263805 0.6568517761229195 0.7113507825800481
vn 0.30986151943969265 0.62968688785437 0.7123764889683004
usemtl material_0_0
f 1//1 2//2 3//3
f 2//2 1//1 4//4
f 3//3 5//5 6//6
f 5//5 3//3 2//2
f 7//7 3//3 8//8
f 3//3 7//7 1//1
f 9//9 4//4 1//1
f 4//4 9//9 10//10
f 4//4 11//11 2//2
f 11//11 4//4 12//12
f 5//5 13//13 6//6
f 13//13 5//5 14//14
f 8//8 6//6 15//15
f 6//6 8//8 3//3
f 2//2 16//16 5//5
f 16//16 2//2 11//11
f 17//17 8//8 18//18
f 8//8 17//17 7//7
f 19//19 1//1 7//7
f 1//1 19//19 9//9
f 20//20 21//21 22//20
f 21//21 20//20 23//21
f 10//10 12//12 4//4
f 12//12 10//10 24//22
f 12//12 25//23 11//11
f 25//23 12//12 26//24
f 14//14 27//25 13//13
f 27//25 14//14 28//26
f 6//6 29//27 15//15
f 29//27 6//6 13//13
f 16//16 14//14 5//5
f 14//14 16//16 30//28
f 18//18 15//15 31//29
f 15//15 18//18 8//8
f 25//23 16//16 11//11
f 16//16 25//23 32//30
f 33//31 18//18 34//32
f 18//18 33//31 17//17
f 35//33 7//7 17//17
f 7//7 35//33 19//19
f 36//34 22//20 37//34
f 22//20 36//34 20//20
f 23//21 38//35 21//21
f 38//35 23//21 39//35
f 40//36 41//36 42//36
f 41//36 40//36 43//36
f 41//36 43//36 44//36
f 44//36 43//36 45//36
f 44//36 45//36 46//36
f 44//36 46//36 47//36
f 47//36 46//36 48//36
f 48//36 46//36 49//36
f 48//36 49//36 50//36
f 50//36 49//36 51//36
f 51//36 49//36 52//36
f 51//36 52//36 53//36
f 53//36 52//36 54//36
f 53//36 54//36 55//36
f 55//36 54//36 56//36
f 55//36 56//36 57//36
f 57//36 56//36 58//36
f 57//36 58//36 59//36
f 59//36 58//36 60//36
f 59//36 60//36 61//36
f 61//36 60//36 62//36
f 61//36 62//36 63//36
f 63//36 62//36 64//36
f 63//36 64//36 65//36
f 65//36 64//36 66//36
f 65//36 66//36 67//36
f 67//36 66//36 68//36
f 67//36 68//36 69//36
f 69//36 68//36 70//36
f 69//36 70//36 71//36
f 69//36 71//36 72//36
f 69//36 72//36 73//36
f 72//36 71//36 74//36
f 74//36 71//36 75//36
f 75//36 71//36 76//36
f 76//36 71//36 77//36
f 77//36 71//36 78//36
f 77//36 78//36 79//36
f 79//36 78//36 80//36
f 79//36 80//36 81//36
f 81//36 80//36 82//36
f 69//36 83//36 84//36
f 83//36 69//36 73//36
f 84//36 83//36 85//36
f 84//36 85//36 86//36
f 84//36 86//36 87//36
f 84//36 87//36 88//36
f 84//36 88//36 89//36
f 84//36 89//36 90//36
f 84//36 90//36 91//36
f 91//36 90//36 92//36
f 92//36 90//36 93//36
f 92//36 93//36 94//36
f 24//22 26//24 12//12
f 26//24 24//22 95//37
f 26//24 96//38 25//23
f 96//38 26//24 97//39
f 28//26 98//40 27//25
f 98//40 28//26 99//41
f 13//13 100//42 29//27
f 100//42 13//13 27//25
f 30//28 28//26 14//14
f 28//26 30//28 101//43
f 15//15 102//44 31//29
f 102//44 15//15 29//27
f 32//30 30//28 16//16
f 30//28 32//30 103//45
f 34//32 31//29 104//46
f 31//29 34//32 18//18
f 96//38 32//30 25//23
f 32//30 96//38 105//47
f 106//48 34//32 107//49
f 34//32 106//48 33//31
f 108//50 17//17 33//31
f 17//17 108//50 35//33
f 109//51 37//34 110//51
f 37//34 109//51 36//34
f 39//35 111//52 38//35
f 111//52 39//35 112//52
f 113//53 114//53 115//53
f 114//53 113//53 116//53
f 116//53 113//53 117//53
f 118//54 119//55 120//55
f 119//55 118//54 121//54
f 119//55 122//56 120//55
f 122//56 119//55 123//56
f 123//56 124//57 122//56
f 124//57 123//56 125//57
f 124//57 126//58 127//58
f 126//58 124//57 125//57
f 128//59 129//59 130//59
f 129//59 128//59 131//59
f 132//60 133//61 134//60
f 133//61 132//60 135//61
f 136//62 133//61 135//61
f 133//61 136//62 137//62
f 136//62 138//63 137//62
f 138//63 136//62 139//63
f 139//63 140//64 138//63
f 140//64 139//63 141//64
f 141//64 142//65 140//64
f 142//65 141//64 143//65
f 143//65 144//66 142//65
f 144//66 143//65 145//66
f 145//66 146//67 144//66
f 146//67 145//66 147//67
f 147//67 148//68 146//67
f 148//68 147//67 149//68
f 149//68 150//69 148//68
f 150//69 149//68 151//69
f 151//69 152//70 150//69
f 152//70 151//69 153//70
f 153//70 154//71 152//70
f 154//71 153//70 155//71
f 156//36 157//36 158//36
f 159//71 160//72 161//71
f 160//72 159//71 162//72
f 162//72 163//73 160//72
f 163//73 162//72 164//73
f 165//74 166//74 167//74
f 166//74 165//74 168//74
f 169//75 170//76 171//76
f 170//76 169//75 172//75
f 173//77 172//75 169//75
f 172//75 173//77 174//77
f 173//77 175//78 174//77
f 175//78 173//77 176//78
f 177//79 178//79 179//79
f 178//79 177//79 180//79
f 181//80 182//81 183//80
f 182//81 181//80 184//81
f 184//81 185//82 182//81
f 185//82 184//81 186//82
f 186//82 187//83 185//82
f 187//83 186//82 188//83
f 188//83 110//51 187//83
f 110//51 188//83 109//51
f 112//52 189//84 111//52
f 189//84 112//52 190//84
f 191//85 189//84 190//84
f 189//84 191//85 192//85
f 191//85 193//86 192//85
f 193//86 191//85 194//86
f 195//87 196//87 197//87
f 196//87 195//87 198//87
f 199//88 200//89 201//88
f 200//89 199//88 202//89
f 202//89 203//90 200//89
f 203//90 202//89 204//90
f 204//90 205//91 203//90
f 205//91 204//90 206//91
f 205//91 207//92 208//92
f 207//92 205//91 206//91
f 209//93 210//93 211//93
f 210//93 209//93 212//93
f 213//94 214//95 215//95
f 214//95 213//94 216//94
f 215//95 217//96 218//96
f 217//96 215//95 214//95
f 218//96 219//97 220//97
f 219//97 218//96 217//96
f 221//98 219//97 222//98
f 219//97 221//98 220//97
f 221//98 223//99 224//99
f 223//99 221//98 222//98
f 224//99 225//100 226//100
f 225//100 224//99 223//99
f 226//100 227//101 228//101
f 227//101 226//100 225//100
f 228//101 229//102 230//102
f 229//102 228//101 227//101
f 230//102 231//103 232//103
f 231//103 230//102 229//102
f 232//103 233//104 234//104
f 233//104 232//103 231//103
f 234//104 235//105 236//105
f 235//105 234//104 233//104
f 236//105 237//106 238//106
f 237//106 236//105 235//105
f 95//37 97//39 26//24
f 97//39 95//37 239//107
f 97//39 240//108 96//38
f 240//108 97//39 241//109
f 242//36 243//36 244//36
f 243//36 242//36 245//36
f 245//36 242//36 246//36
f 246//36 242//36 247//36
f 246//36 247//36 248//36
f 248//36 247//36 249//36
f 248//36 249//36 250//36
f 250//36 249//36 251//36
f 250//36 251//36 252//36
f 252//36 251//36 253//36
f 252//36 253//36 254//36
f 254//36 253//36 255//36
f 254//36 255//36 256//36
f 254//36 256//36 257//36
f 257//36 256//36 258//36
f 257//36 258//36 259//36
f 259//36 258//36 260//36
f 260//36 258//36 261//36
f 261//36 258//36 262//36
f 262//36 258//36 263//36
f 262//36 263//36 264//36
f 262//36 264//36 265//36
f 263//36 258//36 266//36
f 266//36 258//36 267//36
f 267//36 258//36 268//36
f 268//36 258//36 269//36
f 269//36 258//36 270//36
f 270//36 258//36 271//36
f 270//36 271//36 272//36
f 270//36 272//36 273//36
f 273//36 272//36 274//36
f 275//36 276//36 277//36
f 276//36 275//36 278//36
f 276//36 278//36 279//36
f 279//36 278//36 280//36
f 279//36 280//36 281//36
f 281//36 280//36 282//36
f 281//36 282//36 283//36
f 283//36 282//36 284//36
f 283//36 284//36 285//36
f 285//36 284//36 286//36
f 286//36 284//36 287//36
f 286//36 287//36 288//36
f 288//36 287//36 289//36
f 288//36 289//36 290//36
f 290//36 289//36 244//36
f 290//36 244//36 291//36
f 291//36 244//36 243//36
f 291//36 243//36 292//36
f 291//36 292//36 293//36
f 291//36 293//36 294//36
f 294//36 293//36 295//36
f 294//36 295//36 296//36
f 296//36 295//36 297//36
f 296//36 297//36 298//36
f 298//36 297//36 299//36
f 298//36 299//36 300//36
f 300//36 299//36 301//36
f 300//36 301//36 302//36
f 302//36 301//36 303//36
f 303//36 301//36 304//36
f 303//36 304//36 305//36
f 305//36 304//36 306//36
f 305//36 306//36 307//36
f 305//36 307//36 308//36
f 305//36 308//36 309//36
f 305//36 309//36 310//36
f 310//36 309//36 311//36
f 311//36 309//36 265//36
f 311//36 265//36 264//36
f 305//36 310//36 312//36
f 305//36 312//36 313//36
f 305//36 313//36 314//36
f 305//36 314//36 315//36
f 305//36 315//36 316//36
f 305//36 316//36 317//36
f 317//36 316//36 318//36
f 318//36 316//36 319//36
f 27//25 320//110 100//42
f 320//110 27//25 98//40
f 101//43 99//41 28//26
f 99//41 101//43 321//111
f 29//27 322//112 102//44
f 322//112 29//27 100//42
f 103//45 101//43 30//28
f 101//43 103//45 323//113
f 31//29 324//114 104//46
f 324//114 31//29 102//44
f 105//47 103//45 32//30
f 103//45 105//47 325//115
f 107//49 104//46 326//116
f 104//46 107//49 34//32
f 96//38 327//117 105//47
f 327//117 96//38 240//108
f 328//118 107//49 329//119
f 107//49 328//118 106//48
f 330//120 33//31 106//48
f 33//31 330//120 108//50
f 331//121 332//122 333//123
f 332//122 331//121 334//124
f 335//125 333//123 336//126
f 333//123 335//125 331//121
f 336//126 337//127 335//125
f 337//127 336//126 338//128
f 338//128 339//129 337//127
f 339//129 338//128 340//130
f 339//129 341//131 342//132
f 341//131 339//129 340//130
f 343//133 342//132 341//131
f 342//132 343//133 344//134
f 345//135 344//134 343//133
f 344//134 345//135 346//136
f 347//137 346//136 345//135
f 346//136 347//137 348//138
f 347//137 349//139 348//138
f 349//139 347//137 350//140
f 350//140 351//141 349//139
f 351//141 350//140 352//142
f 352//142 353//143 351//141
f 353//143 352//142 354//144
f 354//144 355//145 353//143
f 355//145 354//144 356//146
f 356//146 357//147 355//145
f 357//147 356//146 358//148
f 358//148 359//149 357//147
f 359//149 358//148 360//150
f 360//150 361//151 359//149
f 361//151 360//150 362//152
f 362//152 363//153 361//151
f 363//153 362//152 364//154
f 364//154 365//155 363//153
f 365//155 364//154 366//156
f 367//156 368//157 365//155
f 368//157 367//156 369//158
f 369//158 370//159 368//157
f 370//159 369//158 371//160
f 370//159 372//161 373//162
f 372//161 370//159 371//160
f 374//163 373//162 372//161
f 373//162 374//163 375//164
f 376//165 375//164 374//163
f 375//164 376//165 377//166
f 376//165 378//167 377//166
f 378//167 376//165 379//168
f 378//167 380//169 381//170
f 380//169 378//167 379//168
f 380//169 328//118 381//170
f 328//118 380//169 382//171
f 382//171 106//48 328//118
f 106//48 382//171 330//120
f 239//107 241//109 97//39
f 241//109 239//107 383//172
f 383//172 384//173 241//109
f 384//173 383//172 385//174
f 385//174 386//175 384//173
f 386//175 385//174 387//176
f 387//176 388//177 386//175
f 388//177 387//176 389//178
f 389//178 390//179 388//177
f 390//179 389//178 391//180
f 391//180 392//181 390//179
f 392//181 391//180 393//182
f 392//181 394//183 395//184
f 394//183 392//181 393//182
f 396//185 394//183 397//186
f 394//183 396//185 395//184
f 398//187 397//186 399//188
f 397//186 398//187 396//185
f 400//189 399//188 401//190
f 399//188 400//189 398//187
f 402//191 401//190 403//192
f 401//190 402//191 400//189
f 404//193 403//192 405//194
f 403//192 404//193 402//191
f 406//195 405//194 407//196
f 405//194 406//195 404//193
f 406//195 408//197 409//198
f 408//197 406//195 407//196
f 409//198 410//199 411//200
f 410//199 409//198 408//197
f 411//200 412//201 413//202
f 412//201 411//200 410//199
f 413//202 414//203 415//204
f 414//203 413//202 412//201
f 415//204 416//205 417//206
f 416//205 415//204 414//203
f 417//206 418//207 419//208
f 418//207 417//206 416//205
f 419//208 332//122 334//124
f 332//122 419//208 418//207
f 241//109 420//209 240//108
f 420//209 241//109 384//173
f 421//210 422//211 423//212
f 422//211 421//210 424//213
f 425//214 423//212 426//215
f 423//212 425//214 421//210
f 427//216 426//215 428//217
f 426//215 427//216 425//214
f 429//218 428//217 430//219
f 428//217 429//218 427//216
f 431//220 430//219 432//221
f 430//219 431//220 429//218
f 433//222 432//221 434//223
f 432//221 433//222 431//220
f 435//224 434//223 436//225
f 434//223 435//224 433//222
f 437//226 436//225 438//227
f 436//225 437//226 435//224
f 439//228 438//227 440//229
f 438//227 439//228 441//226
f 439//228 442//230 443//231
f 442//230 439//228 440//229
f 444//232 442//230 445//233
f 442//230 444//232 443//231
f 446//234 445//233 447//235
f 445//233 446//234 444//232
f 448//236 446//234 447//235
f 446//234 448//236 449//237
f 450//238 449//237 448//236
f 449//237 450//238 451//239
f 452//240 451//239 450//238
f 451//239 452//240 453//241
f 454//242 453//241 452//240
f 453//241 454//242 455//243
f 456//244 455//243 454//242
f 455//243 456//244 457//245
f 458//246 457//245 456//244
f 457//245 458//246 459//247
f 322//112 459//247 458//246
f 459//247 322//112 460//248
f 100//42 460//248 322//112
f 460//248 100//42 320//110
f 323//113 321//111 101//43
f 321//111 323//113 461//249
f 462//250 461//249 323//113
f 461//249 462//250 463//251
f 464//252 463//251 462//250
f 463//251 464//252 465//253
f 466//254 465//253 464//252
f 465//253 466//254 467//255
f 468//256 467//255 466//254
f 467//255 468//256 469//257
f 470//258 469//257 468//256
f 469//257 470//258 471//259
f 470//258 472//260 471//259
f 472//260 470//258 473//261
f 473//261 474//262 472//260
f 474//262 473//261 475//263
f 475//263 476//264 474//262
f 476//264 475//263 477//265
f 476//264 478//266 479//267
f 478//266 476//264 477//265
f 479//267 480//268 481//269
f 480//268 479//267 478//266
f 481//269 482//270 483//271
f 482//270 481//269 480//268
f 483//271 484//272 485//273
f 484//272 483//271 482//270
f 485//273 486//274 487//275
f 486//274 485//273 484//272
f 487//275 488//276 489//277
f 488//276 487//275 486//274
f 489//277 490//278 491//279
f 490//278 489//277 488//276
f 490//278 492//280 491//279
f 492//280 490//278 493//281
f 493//281 494//282 492//280
f 494//282 493//281 495//283
f 495//283 496//284 494//282
f 496//284 495//283 497//285
f 497//285 498//286 496//284
f 498//286 497//285 499//287
f 499//287 500//288 498//286
f 500//288 499//287 501//289
f 501//289 502//290 500//288
f 502//290 501//289 503//291
f 503//291 504//292 502//290
f 504//292 503//291 505//293
f 504//292 506//294 507//295
f 506//294 504//292 505//293
f 507//295 508//296 509//297
f 508//296 507//295 506//294
f 509//297 510//298 511//299
f 510//298 509//297 508//296
f 512//300 510//298 513//301
f 510//298 512//300 511//299
f 514//302 513//301 515//303
f 513//301 514//302 512//300
f 516//304 515//303 517//305
f 515//303 516//304 514//302
f 518//306 517//305 519//307
f 517//305 518//306 516//304
f 424//213 519//307 422//211
f 519//307 424//213 518//306
f 102//44 458//246 324//114
f 458//246 102//44 322//112
f 325//115 323//113 103//45
f 323//113 325//115 462//250
f 104//46 520//308 326//116
f 520//308 104//46 324//114
f 327//117 325//115 105//47
f 325//115 327//117 521//309
f 329//119 326//116 522//310
f 326//116 329//119 107//49
f 240//108 523//311 327//117
f 523//311 240//108 420//209
f 381//170 329//119 524//312
f 329//119 381//170 328//118
f 525//313 334//124 331//121
f 334//124 525//313 526//314
f 527//315 331//121 335//125
f 331//121 527//315 525//313
f 335//125 528//316 527//315
f 528//316 335//125 337//127
f 337//127 529//317 528//316
f 529//317 337//127 339//129
f 529//317 342//132 530//318
f 342//132 529//317 339//129
f 344//134 530//318 342//132
f 530//318 344//134 531//319
f 346//136 531//319 344//134
f 531//319 346//136 532//320
f 348//138 532//320 346//136
f 532//320 348//138 533//321
f 348//138 534//322 533//321
f 534//322 348//138 349//139
f 349//139 535//323 534//322
f 535//323 349//139 351//141
f 351//141 536//324 535//323
f 536//324 351//141 353//143
f 353//143 537//325 536//324
f 537//325 353//143 355//145
f 355//145 538//326 537//325
f 538//326 355//145 357//147
f 357//147 539//327 538//326
f 539//327 357//147 359//149
f 359//149 540//328 539//327
f 540//328 359//149 361//151
f 361//151 541//329 540//328
f 541//329 361//151 363//153
f 363//153 542//330 541//329
f 542//330 363//153 365//155
f 365//155 543//331 542//330
f 543//331 365//155 368//157
f 368//157 544//332 543//331
f 544//332 368//157 370//159
f 544//332 373//162 545//333
f 373//162 544//332 370//159
f 375//164 545//333 373//162
f 545//333 375//164 546//334
f 377//166 546//334 375//164
f 546//334 377//166 547//335
f 377//166 548//336 547//335
f 548//336 377//166 378//167
f 548//336 381//170 524//312
f 381//170 548//336 378//167
f 384//173 549//337 420//209
f 549//337 384//173 386//175
f 386//175 550//338 549//337
f 550//338 386//175 388//177
f 388//177 551//339 550//338
f 551//339 388//177 390//179
f 390//179 552//340 551//339
f 552//340 390//179 392//181
f 552//340 395//184 553//341
f 395//184 552//340 392//181
f 554//342 395//184 396//185
f 395//184 554//342 553//341
f 555//343 396//185 398//187
f 396//185 555//343 554//342
f 556//344 398//187 400//189
f 398//187 556//344 555//343
f 557//345 400//189 402//191
f 400//189 557//345 556//344
f 558//346 402//191 404//193
f 402//191 558//346 557//345
f 559//347 404//193 406//195
f 404//193 559//347 558//346
f 560//348 406//195 409//198
f 406//195 560//348 559//347
f 560//348 411//200 561//349
f 411//200 560//348 409//198
f 561//349 413//202 562//350
f 413//202 561//349 411//200
f 562//350 415//204 563//351
f 415//204 562//350 413//202
f 563//351 417//206 564//352
f 417//206 563//351 415//204
f 564//352 419//208 565//353
f 419//208 564//352 417//206
f 565//353 334//124 526//314
f 334//124 565//353 419//208
f 423//212 566//354 567//355
f 566//354 423//212 422//211
f 426//215 567//355 568//356
f 567//355 426//215 423//212
f 428//217 568//356 569//357
f 568//356 428//217 426//215
f 430//219 569//357 570//358
f 569//357 430//219 428//217
f 432//221 570//358 571//359
f 570//358 432//221 430//219
f 434//223 571//359 572//360
f 571//359 434//223 432//221
f 436//225 572//360 573//361
f 572//360 436//225 434//223
f 438//227 573//361 574//362
f 573//361 438//227 436//225
f 440//229 574//362 575//363
f 574//362 440//229 438//227
f 440//229 576//364 442//230
f 576//364 440//229 575//363
f 445//233 576//364 577//365
f 576//364 445//233 442//230
f 447//235 577//365 578//366
f 577//365 447//235 445//233
f 579//367 447//235 578//366
f 447//235 579//367 448//236
f 580//368 448//236 579//367
f 448//236 580//368 450//238
f 581//369 450//238 580//368
f 450//238 581//369 452//240
f 582//370 452//240 581//369
f 452//240 582//370 454//242
f 520//308 454//242 582//370
f 454//242 520//308 456//244
f 324//114 456//244 520//308
f 456//244 324//114 458//246
f 521//309 462//250 325//115
f 462//250 521//309 464//252
f 583//371 464//252 521//309
f 464//252 583//371 466//254
f 584//372 466//254 583//371
f 466//254 584//372 468//256
f 585//373 468//256 584//372
f 468//256 585//373 470//258
f 585//373 473//261 470//258
f 473//261 585//373 586//374
f 586//374 475//263 473//261
f 475//263 586//374 587//375
f 587//375 477//265 475//263
f 477//265 587//375 588//376
f 477//265 589//377 478//266
f 589//377 477//265 588//376
f 478//266 590//378 480//268
f 590//378 478//266 589//377
f 480//268 591//379 482//270
f 591//379 480//268 590//378
f 482//270 592//380 484//272
f 592//380 482//270 591//379
f 484//272 593//381 486//274
f 593//381 484//272 592//380
f 486//274 594//382 488//276
f 594//382 486//274 593//381
f 488//276 595//383 490//278
f 595//383 488//276 594//382
f 595//383 493//281 490//278
f 493//281 595//383 596//384
f 596//384 495//283 493//281
f 495//283 596//384 597//385
f 597//385 497//285 495//283
f 497//285 597//385 598//386
f 598//386 499//287 497//285
f 499//287 598//386 599//387
f 599//387 501//289 499//287
f 501//289 599//387 600//388
f 600//388 503//291 501//289
f 503//291 600//388 601//389
f 601//389 505//293 503//291
f 505//293 601//389 602//390
f 505//293 603//391 506//294
f 603//391 505//293 602//390
f 506//294 604//392 508//296
f 604//392 506//294 603//391
f 508//296 605//393 510//298
f 605//393 508//296 604//392
f 513//301 605//393 606//394
f 605//393 513//301 510//298
f 515//303 606//394 607//395
f 606//394 515//303 513//301
f 517//305 607//395 608//396
f 607//395 517//305 515//303
f 519//307 608//396 609//397
f 608//396 519//307 517//305
f 422//211 609//397 566//354
f 609//397 422//211 519//307
f 326//116 582//370 522//310
f 582//370 326//116 520//308
f 523//311 521//309 327//117
f 521//309 523//311 583//371
f 524//312 522//310 610//398
f 522//310 524//312 329//119
f 420//209 611//399 523//311
f 611//399 420//209 549//337
f 612//400 526//314 525//313
f 526//314 612//400 613//401
f 612//400 527//315 614//402
f 527//315 612//400 525//313
f 527//315 615//403 614//402
f 615//403 527//315 528//316
f 528//316 616//404 615//403
f 616//404 528//316 529//317
f 616//404 530//318 617//405
f 530//318 616//404 529//317
f 531//319 617//405 530//318
f 617//405 531//319 618//406
f 532//320 618//406 531//319
f 618//406 532//320 619//407
f 620//408 532//320 533//321
f 532//320 620//408 619//407
f 621//409 533//321 534//322
f 533//321 621//409 620//408
f 534//322 622//410 621//409
f 622//410 534//322 535//323
f 535//323 623//411 622//410
f 623//411 535//323 536//324
f 536//324 624//412 623//411
f 624//412 536//324 537//325
f 537//325 625//413 624//412
f 625//413 537//325 538//326
f 538//326 626//414 625//413
f 626//414 538//326 539//327
f 539//327 627//415 626//414
f 627//415 539//327 540//328
f 540//328 628//416 627//415
f 628//416 540//328 541//329
f 541//329 629//417 628//416
f 629//417 541//329 542//330
f 542//330 630//418 629//417
f 630//418 542//330 543//331
f 543//331 631//419 630//418
f 631//419 543//331 544//332
f 631//419 545//333 632//420
f 545//333 631//419 544//332
f 546//334 632//420 545//333
f 632//420 546//334 633//421
f 547//335 633//421 546//334
f 633//421 547//335 634//422
f 547//335 635//423 634//422
f 635//423 547//335 548//336
f 635//423 524//312 610//398
f 524//312 635//423 548//336
f 549//337 636//424 611//399
f 636//424 549//337 550//338
f 550//338 637//425 636//424
f 637//425 550//338 551//339
f 551//339 638//426 637//425
f 638//426 551//339 552//340
f 638//426 553//341 639//427
f 553//341 638//426 552//340
f 640//428 553//341 554//342
f 553//341 640//428 639//427
f 641//429 554//342 555//343
f 554//342 641//429 640//428
f 642//430 555//343 556//344
f 555//343 642//430 641//429
f 643//431 556//344 557//345
f 556//344 643//431 642//430
f 644//432 557//345 558//346
f 557//345 644//432 643//431
f 645//433 558//346 559//347
f 558//346 645//433 644//432
f 645//433 560//348 646//434
f 560//348 645//433 559//347
f 646//434 561//349 647//435
f 561//349 646//434 560//348
f 647//435 562//350 648//436
f 562//350 647//435 561//349
f 648//436 563//351 649//437
f 563//351 648//436 562//350
f 649//437 564//352 650//438
f 564//352 649//437 563//351
f 650//438 565//353 651//439
f 565//353 650//438 564//352
f 651//439 526//314 613//401
f 526//314 651//439 565//353
f 567//355 621//409 622//410
f 621//409 567//355 566//354
f 568//356 622//410 623//411
f 622//410 568//356 567//355
f 569//357 623//411 624//412
f 623//411 569//357 568//356
f 570//358 624//412 625//413
f 624//412 570//358 569//357
f 571//359 625//413 626//414
f 625//413 571//359 570//358
f 572//360 626//414 627//415
f 626//414 572//360 571//359
f 573//361 627//415 628//416
f 627//415 573//361 572//360
f 574//362 628//416 629//417
f 628//416 574//362 573//361
f 575//363 629//417 630//418
f 629//417 575//363 574//362
f 575//363 631//419 576//364
f 631//419 575//363 630//418
f 577//365 631//419 632//420
f 631//419 577//365 576//364
f 578//366 632//420 633//421
f 632//420 578//366 577//365
f 634//422 578//366 633//421
f 578//366 634//422 579//367
f 635//423 579//367 634//422
f 579//367 635//423 580//368
f 610//398 580//368 635//423
f 580//368 610//398 581//369
f 522//310 581//369 610//398
f 581//369 522//310 582//370
f 611//399 583//371 523//311
f 583//371 611//399 584//372
f 636//424 584//372 611//399
f 584//372 636//424 585//373
f 636//424 586//374 585//373
f 586//374 636//424 637//425
f 637//425 587//375 586//374
f 587//375 637//425 638//426
f 638//426 588//376 587//375
f 588//376 638//426 639//427
f 588//376 640//428 589//377
f 640//428 588//376 639//427
f 589//377 641//429 590//378
f 641//429 589//377 640//428
f 590//378 642//430 591//379
f 642//430 590//378 641//429
f 591//379 643//431 592//380
f 643//431 591//379 642//430
f 592//380 644//432 593//381
f 644//432 592//380 643//431
f 593//381 645//433 594//382
f 645//433 593//381 644//432
f 594//382 646//434 595//383
f 646//434 594//382 645//433
f 646//434 596//384 595//383
f 596//384 646//434 647//435
f 647//435 597//385 596//384
f 597//385 647//435 648//436
f 648//436 598//386 597//385
f 598//386 648//436 649//437
f 649//437 599//387 598//386
f 599//387 649//437 650//438
f 650//438 600//388 599//387
f 600//388 650//438 651//439
f 651//439 601//389 600//388
f 601//389 651//439 613//401
f 613//401 602//390 601//389
f 602//390 613//401 612//400
f 602//390 614//402 603//391
f 614//402 602//390 612//400
f 603//391 615//403 604//392
f 615//403 603//391 614//402
f 604//392 616//404 605//393
f 616//404 604//392 615//403
f 606//394 616//404 617//405
f 616//404 606//394 605//393
f 607//395 617//405 618//406
f 617//405 607//395 606//394
f 608//396 618//406 619//407
f 618//406 608//396 607//395
f 609//397 619//407 620//408
f 619//407 609//397 608//396
f 566//354 620//408 621//409
f 620//408 566//354 609//397
