# SSTK version 0.8.0
# 35
mtllib original-35.mtl
o #ID290
v -0.122173 0.472147 0.463117
v -0.119032 0.466750 0.460067
v -0.119032 0.468421 0.464516
v -0.122173 0.470476 0.458669
v -0.122173 0.470476 0.458669
v -0.122173 0.472147 0.463117
v -0.119032 0.466750 0.460067
v -0.119032 0.468421 0.464516
v -0.114938 0.463891 0.461142
v -0.114938 0.465562 0.465589
v -0.114938 0.465562 0.465589
v -0.114938 0.463891 0.461142
v -0.122032 0.472657 0.464239
v -0.119032 0.468421 0.464516
v -0.118918 0.468963 0.465627
v -0.122173 0.472147 0.463117
v -0.122173 0.472147 0.463117
v -0.122032 0.472657 0.464239
v -0.119032 0.468421 0.464516
v -0.118918 0.468963 0.465627
v -0.124148 0.476485 0.461488
v -0.124148 0.474815 0.457039
v -0.124148 0.474815 0.457039
v -0.124148 0.476485 0.461488
v -0.110170 0.463765 0.466264
v -0.110170 0.462094 0.461816
v -0.110170 0.462094 0.461816
v -0.110170 0.463765 0.466264
v -0.114938 0.465562 0.465589
v -0.114858 0.466128 0.466691
v -0.114858 0.466128 0.466691
v -0.114938 0.465562 0.465589
v -0.121620 0.473289 0.465226
v -0.118584 0.469687 0.466579
v -0.121620 0.473289 0.465226
v -0.118584 0.469687 0.466579
v -0.123990 0.476958 0.462624
v -0.124148 0.476485 0.461488
v -0.124148 0.476485 0.461488
v -0.123990 0.476958 0.462624
v -0.124821 0.481141 0.459739
v -0.124821 0.479488 0.455335
v -0.124821 0.479471 0.455290
v -0.124821 0.479471 0.455290
v -0.124821 0.479488 0.455335
v -0.124821 0.481141 0.459739
v -0.105054 0.461481 0.462046
v -0.105054 0.463152 0.466494
v -0.105054 0.461492 0.462075
v -0.105054 0.461492 0.462075
v -0.105054 0.461481 0.462046
v -0.105054 0.463152 0.466494
v -0.110170 0.463765 0.466264
v -0.110129 0.464345 0.467360
v -0.110129 0.464345 0.467360
v -0.110170 0.463765 0.466264
v -0.114623 0.466921 0.467617
v -0.114623 0.466921 0.467617
v -0.118053 0.470544 0.467308
v -0.120965 0.473999 0.466010
v -0.120965 0.473999 0.466010
v -0.118053 0.470544 0.467308
v -0.123528 0.477480 0.463652
v -0.123528 0.477480 0.463652
v -0.124658 0.481574 0.460891
v -0.124821 0.481141 0.459739
v -0.124821 0.481141 0.459739
v -0.124658 0.481574 0.460891
v -0.124148 0.485798 0.457990
v -0.124148 0.484127 0.453543
v -0.124148 0.484127 0.453543
v -0.124148 0.485798 0.457990
v -0.099938 0.462094 0.461816
v -0.099938 0.463765 0.466264
v -0.099938 0.463765 0.466264
v -0.099938 0.462094 0.461816
v -0.105054 0.463152 0.466494
v -0.105054 0.463737 0.467588
v -0.105054 0.463737 0.467588
v -0.105054 0.463152 0.466494
v -0.110008 0.465181 0.468270
v -0.110008 0.465181 0.468270
v -0.114250 0.467888 0.468305
v -0.114250 0.467888 0.468305
v -0.122794 0.478016 0.464502
v -0.122794 0.478016 0.464502
v -0.124179 0.481977 0.461964
v -0.124179 0.481977 0.461964
v -0.123990 0.486189 0.459157
v -0.124148 0.485798 0.457990
v -0.124148 0.485798 0.457990
v -0.123990 0.486189 0.459157
v -0.122173 0.490136 0.456361
v -0.122173 0.488466 0.451913
v -0.122173 0.488466 0.451913
v -0.122173 0.490136 0.456361
v -0.095170 0.465562 0.465589
v -0.095170 0.463891 0.461142
v -0.095170 0.463891 0.461142
v -0.095170 0.465562 0.465589
v -0.099938 0.463765 0.466264
v -0.099979 0.464345 0.467360
v -0.099979 0.464345 0.467360
v -0.099938 0.463765 0.466264
v -0.105054 0.464588 0.468493
v -0.105054 0.464588 0.468493
v -0.109816 0.466217 0.468932
v -0.109816 0.466217 0.468932
v -0.123417 0.482323 0.462884
v -0.123417 0.482323 0.462884
v -0.123528 0.486473 0.460275
v -0.123528 0.486473 0.460275
v -0.122032 0.490491 0.457543
v -0.122173 0.490136 0.456361
v -0.122173 0.490136 0.456361
v -0.122032 0.490491 0.457543
v -0.119032 0.493862 0.454962
v -0.119032 0.492192 0.450513
v -0.119032 0.492192 0.450513
v -0.119032 0.493862 0.454962
v -0.091077 0.466750 0.460067
v -0.091077 0.468421 0.464516
v -0.091077 0.468421 0.464516
v -0.091077 0.466750 0.460067
v -0.095251 0.466128 0.466691
v -0.095170 0.465562 0.465589
v -0.095170 0.465562 0.465589
v -0.095251 0.466128 0.466691
v -0.100100 0.465181 0.468270
v -0.100100 0.465181 0.468270
v -0.105054 0.465646 0.469147
v -0.105054 0.465646 0.469147
v -0.122794 0.486630 0.461267
v -0.122794 0.486630 0.461267
v -0.121620 0.490665 0.458701
v -0.121620 0.490665 0.458701
v -0.118918 0.494185 0.456155
v -0.119032 0.493862 0.454962
v -0.119032 0.493862 0.454962
v -0.118918 0.494185 0.456155
v -0.114938 0.496721 0.453889
v -0.114938 0.495051 0.449440
v -0.114938 0.495051 0.449440
v -0.114938 0.496721 0.453889
v -0.087935 0.472147 0.463117
v -0.087935 0.470476 0.458669
v -0.087935 0.470476 0.458669
v -0.087935 0.472147 0.463117
v -0.091191 0.468963 0.465627
v -0.091077 0.468421 0.464516
v -0.091077 0.468421 0.464516
v -0.091191 0.468963 0.465627
v -0.095485 0.466921 0.467617
v -0.095485 0.466921 0.467617
v -0.100292 0.466217 0.468932
v -0.100292 0.466217 0.468932
v -0.120965 0.490647 0.459758
v -0.120965 0.490647 0.459758
v -0.118584 0.494267 0.457348
v -0.118584 0.494267 0.457348
v -0.114938 0.496721 0.453889
v -0.114858 0.497020 0.455090
v -0.114858 0.497020 0.455090
v -0.114938 0.496721 0.453889
v -0.110170 0.496848 0.448766
v -0.110170 0.498518 0.453214
v -0.110170 0.498518 0.453214
v -0.110170 0.496848 0.448766
v -0.085961 0.476485 0.461488
v -0.085961 0.474815 0.457039
v -0.085961 0.474815 0.457039
v -0.085961 0.476485 0.461488
v -0.088076 0.472657 0.464239
v -0.087935 0.472147 0.463117
v -0.087935 0.472147 0.463117
v -0.088076 0.472657 0.464239
v -0.091524 0.469687 0.466579
v -0.091524 0.469687 0.466579
v -0.095858 0.467888 0.468305
v -0.095858 0.467888 0.468305
v -0.118053 0.494102 0.458461
v -0.118053 0.494102 0.458461
v -0.114623 0.497032 0.456310
v -0.114623 0.497032 0.456310
v -0.110170 0.498518 0.453214
v -0.110129 0.498803 0.454420
v -0.110129 0.498803 0.454420
v -0.110170 0.498518 0.453214
v -0.105054 0.497461 0.448535
v -0.105054 0.497472 0.448564
v -0.105054 0.499131 0.452984
v -0.105054 0.499131 0.452984
v -0.105054 0.497472 0.448564
v -0.105054 0.497461 0.448535
v -0.085287 0.481141 0.459739
v -0.085287 0.479488 0.455335
v -0.085287 0.479471 0.455290
v -0.085287 0.479471 0.455290
v -0.085287 0.479488 0.455335
v -0.085287 0.481141 0.459739
v -0.086118 0.476958 0.462624
v -0.085961 0.476485 0.461488
v -0.085961 0.476485 0.461488
v -0.086118 0.476958 0.462624
v -0.088488 0.473289 0.465226
v -0.088488 0.473289 0.465226
v -0.092056 0.470544 0.467308
v -0.092056 0.470544 0.467308
v -0.114250 0.496757 0.457464
v -0.114250 0.496757 0.457464
v -0.110008 0.498772 0.455656
v -0.110008 0.498772 0.455656
v -0.105054 0.499131 0.452984
v -0.105054 0.499411 0.454192
v -0.105054 0.499411 0.454192
v -0.105054 0.499131 0.452984
v -0.099938 0.498518 0.453214
v -0.099938 0.496848 0.448766
v -0.099938 0.496848 0.448766
v -0.099938 0.498518 0.453214
v -0.085961 0.485798 0.457990
v -0.085961 0.484127 0.453543
v -0.085961 0.484127 0.453543
v -0.085961 0.485798 0.457990
v -0.085450 0.481574 0.460891
v -0.085287 0.481141 0.459739
v -0.085287 0.481141 0.459739
v -0.085450 0.481574 0.460891
v -0.086580 0.477480 0.463652
v -0.086580 0.477480 0.463652
v -0.089143 0.473999 0.466010
v -0.089143 0.473999 0.466010
v -0.109816 0.498428 0.456836
v -0.109816 0.498428 0.456836
v -0.105054 0.499366 0.455434
v -0.105054 0.499366 0.455434
v -0.099938 0.498518 0.453214
v -0.099979 0.498803 0.454420
v -0.099979 0.498803 0.454420
v -0.099938 0.498518 0.453214
v -0.095170 0.496721 0.453889
v -0.095170 0.495051 0.449440
v -0.095170 0.495051 0.449440
v -0.095170 0.496721 0.453889
v -0.087935 0.490136 0.456361
v -0.087935 0.488466 0.451913
v -0.087935 0.488466 0.451913
v -0.087935 0.490136 0.456361
v -0.086118 0.486189 0.459157
v -0.085961 0.485798 0.457990
v -0.085961 0.485798 0.457990
v -0.086118 0.486189 0.459157
v -0.085929 0.481977 0.461964
v -0.085929 0.481977 0.461964
v -0.087315 0.478016 0.464502
v -0.087315 0.478016 0.464502
v -0.105054 0.498999 0.456623
v -0.105054 0.498999 0.456623
v -0.100100 0.498772 0.455656
v -0.100100 0.498772 0.455656
v -0.095251 0.497020 0.455090
v -0.095170 0.496721 0.453889
v -0.095170 0.496721 0.453889
v -0.095251 0.497020 0.455090
v -0.091077 0.493862 0.454962
v -0.091077 0.492192 0.450513
v -0.091077 0.492192 0.450513
v -0.091077 0.493862 0.454962
v -0.088076 0.490491 0.457543
v -0.087935 0.490136 0.456361
v -0.087935 0.490136 0.456361
v -0.088076 0.490491 0.457543
v -0.086580 0.486473 0.460275
v -0.086580 0.486473 0.460275
v -0.086691 0.482323 0.462884
v -0.086691 0.482323 0.462884
v -0.100292 0.498428 0.456836
v -0.100292 0.498428 0.456836
v -0.095485 0.497032 0.456310
v -0.095485 0.497032 0.456310
v -0.091191 0.494185 0.456155
v -0.091077 0.493862 0.454962
v -0.091077 0.493862 0.454962
v -0.091191 0.494185 0.456155
v -0.088488 0.490665 0.458701
v -0.088488 0.490665 0.458701
v -0.087315 0.486630 0.461267
v -0.087315 0.486630 0.461267
v -0.095858 0.496757 0.457464
v -0.095858 0.496757 0.457464
v -0.091524 0.494267 0.457348
v -0.091524 0.494267 0.457348
v -0.089143 0.490647 0.459758
v -0.089143 0.490647 0.459758
v -0.092056 0.494102 0.458461
v -0.092056 0.494102 0.458461
vn -0.8600187059801833 -0.4776936033216665 0.17937850124731727
vn -0.6973937093038285 -0.6709436089509616 0.2519458033611723
vn 0.8600187059801833 0.4776936033216665 -0.17937850124731727
vn 0.6973937093038285 0.6709436089509616 -0.2519458033611723
vn -0.489797290845069 -0.8161889847443956 0.30648679427137393
vn 0.489797290845069 0.8161889847443956 -0.30648679427137393
vn -0.8308711970845187 -0.37075789869903103 0.41495979854392884
vn -0.6913254082253689 -0.6188313073628364 0.3729839044377512
vn -0.6737613963819922 -0.55746839700647 0.48505109739534097
vn -0.8525317254269893 -0.42724961274283535 0.3010771089797061
vn 0.8525317254269893 0.42724961274283535 -0.3010771089797061
vn 0.8308711970845187 0.37075789869903103 -0.41495979854392884
vn 0.6913254082253689 0.6188313073628364 -0.3729839044377512
vn 0.6737613963819922 0.55746839700647 -0.48505109739534097
vn -0.9641176050170868 -0.2485308012933076 0.0933256904856493
vn 0.9641176050170868 0.2485308012933076 -0.0933256904856493
vn -0.25229509752004897 -0.9058873910955212 0.3401693966562826
vn 0.25229509752004897 0.9058873910955212 -0.3401693966562826
vn -0.4855373183476932 -0.7628268288260287 0.42702311613653315
vn -0.4732020013384945 -0.6978019019737955 0.5377289015210145
vn 0.4732020013384945 0.6978019019737955 -0.5377289015210145
vn 0.4855373183476932 0.7628268288260287 -0.42702311613653315
vn -0.7455634042470348 -0.23889210136082747 0.6221461035439994
vn -0.6045903997141466 -0.40644039980783314 0.6850376996761107
vn 0.7455634042470348 0.23889210136082747 -0.6221461035439994
vn 0.6045903997141466 0.40644039980783314 -0.6850376996761107
vn -0.9314382702906172 -0.1493555952361175 0.33183678941565253
vn -0.9557213035034691 -0.20007250073342286 0.21579570079106064
vn 0.9557213035034691 0.20007250073342286 -0.21579570079106064
vn 0.9314382702906172 0.1493555952361175 -0.33183678941565253
vn -1 0 0
vn 1 0 0
vn 0 -0.9361722540249108 0.3515416202868696
vn 0 0.9361722540249108 -0.3515416202868696
vn -0.2501015065088605 -0.8517552221668236 0.4603936119816862
vn -0.24374769031665405 -0.7844683688354848 0.570259977345325
vn 0.24374769031665405 0.7844683688354848 -0.570259977345325
vn 0.2501015065088605 0.8517552221668236 -0.4603936119816862
vn -0.4246251050394444 -0.5323749063182176 0.7323049086909836
vn 0.4246251050394444 0.5323749063182176 -0.7323049086909836
vn -0.49484327093872393 -0.2283635865886079 0.8384391507599416
vn -0.6102287653618022 -0.09123429482130044 0.7869543553303906
vn 0.6102287653618022 0.09123429482130044 -0.7869543553303906
vn 0.49484327093872393 0.2283635865886079 -0.8384391507599416
vn -0.8357984093853222 -0.04021847045162015 0.5475614061486599
vn 0.8357984093853222 0.04021847045162015 -0.5475614061486599
vn -0.966102897560715 0.09075303977086024 0.24167969938979003
vn -0.9912900009128194 0.046297020042632114 0.12329120011353147
vn 0.9912900009128194 -0.046297020042632114 -0.12329120011353147
vn 0.966102897560715 -0.09075303977086024 -0.24167969938979003
vn -0.9641176050170868 0.2485308012933076 -0.0933256904856493
vn 0.9641176050170868 -0.2485308012933076 0.0933256904856493
vn 0.25229509752004897 -0.9058873910955212 0.3401693966562826
vn -0.25229509752004897 0.9058873910955212 -0.3401693966562826
vn 0 -0.8817804558614842 0.4716600763905224
vn 0 -0.8137297684876644 0.5812433774908854
vn 0 0.8137297684876644 -0.5812433774908854
vn 0 0.8817804558614842 -0.4716600763905224
vn -0.21872690013255072 -0.6101506003697577 0.7614951004614736
vn 0.21872690013255072 0.6101506003697577 -0.7614951004614736
vn -0.3475442127947467 -0.3314317122015695 0.8771351322914936
vn 0.3475442127947467 0.3314317122015695 -0.8771351322914936
vn -0.6840858943855601 0.07137289941422711 0.7259010940423737
vn 0.6840858943855601 -0.07137289941422711 -0.7259010940423737
vn -0.8669011070737613 0.17523650142989905 0.46666330380789095
vn 0.8669011070737613 -0.17523650142989905 -0.46666330380789095
vn -0.9314382501800985 0.330857782303387 0.15151209189606246
vn -0.9557213112154996 0.2926602034344012 0.030769800361087216
vn 0.9557213112154996 -0.2926602034344012 -0.030769800361087216
vn 0.9314382501800985 -0.330857782303387 -0.15151209189606246
vn -0.8600187059801833 0.4776936033216665 -0.17937850124731727
vn 0.8600187059801833 -0.4776936033216665 0.17937850124731727
vn 0.489797290845069 -0.8161889847443956 0.30648679427137393
vn -0.489797290845069 0.8161889847443956 -0.30648679427137393
vn 0.2501015065088605 -0.8517552221668236 0.4603936119816862
vn 0.24374769031665405 -0.7844683688354848 0.570259977345325
vn -0.24374769031665405 0.7844683688354848 -0.570259977345325
vn -0.2501015065088605 0.8517552221668236 -0.4603936119816862
vn 0 -0.6364104173903861 0.7713506210777266
vn 0 0.6364104173903861 -0.7713506210777266
vn -0.17902139495401265 -0.3950838888639664 0.9010327746030355
vn 0.17902139495401265 0.3950838888639664 -0.9010327746030355
vn -0.7095434858847856 0.24771789507205494 0.6596846868766454
vn 0.7095434858847856 -0.24771789507205494 -0.6596846868766454
vn -0.8357984095677147 0.39068670447234494 0.3857524044158603
vn 0.8357984095677147 -0.39068670447234494 -0.3857524044158603
vn -0.8308712033810965 0.5522497022472911 0.06836161027818669
vn -0.852531705190747 0.5198204031649921 -0.05455676033217561
vn 0.852531705190747 -0.5198204031649921 0.05455676033217561
vn 0.8308712033810965 -0.5522497022472911 -0.06836161027818669
vn -0.6973937093038285 0.6709436089509616 -0.2519458033611723
vn 0.6973937093038285 -0.6709436089509616 0.2519458033611723
vn 0.4732020013384945 -0.6978019019737955 0.5377289015210145
vn 0.4855373183476932 -0.7628268288260287 0.42702311613653315
vn -0.4855373183476932 0.7628268288260287 -0.42702311613653315
vn -0.4732020013384945 0.6978019019737955 -0.5377289015210145
vn 0.21872690013255072 -0.6101506003697577 0.7614951004614736
vn -0.21872690013255072 0.6101506003697577 -0.7614951004614736
vn 0 -0.41657481677192765 0.9091014366017882
vn 0 0.41657481677192765 -0.9091014366017882
vn -0.6840859209512604 0.4240610129875683 0.5934633181757938
vn 0.6840859209512604 -0.4240610129875683 -0.5934633181757938
vn -0.7455634286677867 0.5893477226611098 0.311134111963471
vn 0.7455634286677867 -0.5893477226611098 -0.311134111963471
vn -0.6737613794373941 0.7389468774479899 -0.0017651879461278493
vn -0.6913254065361846 0.7113797067257893 -0.12652310119622137
vn 0.6913254065361846 -0.7113797067257893 0.12652310119622137
vn 0.6737613794373941 -0.7389468774479899 0.0017651879461278493
vn 0.6737613963819922 -0.55746839700647 0.48505109739534097
vn 0.6913254082253689 -0.6188313073628364 0.3729839044377512
vn -0.6913254082253689 0.6188313073628364 -0.3729839044377512
vn -0.6737613963819922 0.55746839700647 -0.48505109739534097
vn 0.4246251050394444 -0.5323749063182176 0.7323049086909836
vn -0.4246251050394444 0.5323749063182176 -0.7323049086909836
vn 0.17902139495401265 -0.3950838888639664 0.9010327746030355
vn -0.17902139495401265 0.3950838888639664 -0.9010327746030355
vn -0.6102287586176492 0.5866634602157178 0.5323972638957523
vn 0.6102287586176492 -0.5866634602157178 -0.5323972638957523
vn -0.6045903918706171 0.756879989822916 0.24819979666268088
vn 0.6045903918706171 -0.756879989822916 -0.24819979666268088
vn -0.48553731835374303 0.8553538323331367 -0.18061930682757046
vn -0.47320200526285755 0.8792680097790421 -0.05447595060587038
vn 0.47320200526285755 -0.8792680097790421 0.05447595060587038
vn 0.48553731835374303 -0.8553538323331367 0.18061930682757046
vn 0.8308711970845187 -0.37075789869903103 0.41495979854392884
vn 0.8525317254269893 -0.42724961274283535 0.3010771089797061
vn -0.8525317254269893 0.42724961274283535 -0.3010771089797061
vn -0.8308711970845187 0.37075789869903103 -0.41495979854392884
vn 0.6045903997141466 -0.40644039980783314 0.6850376996761107
vn -0.6045903997141466 0.40644039980783314 -0.6850376996761107
vn 0.3475442127947467 -0.3314317122015695 0.8771351322914936
vn -0.3475442127947467 0.3314317122015695 -0.8771351322914936
vn -0.49484328436603287 0.7237870771328342 0.48089748480663347
vn 0.49484328436603287 -0.7237870771328342 -0.48089748480663347
vn -0.4246250829269001 0.8827997645048558 0.20089329192258937
vn 0.4246250829269001 -0.8827997645048558 -0.20089329192258937
vn -0.25010150533408243 0.9442671201390178 -0.21403000456476115
vn -0.24374770345705662 0.9659259136996596 -0.08702980123433737
vn 0.24374770345705662 -0.9659259136996596 0.08702980123433737
vn 0.25010150533408243 -0.9442671201390178 0.21403000456476115
vn 0.9314382702906172 -0.1493555952361175 0.33183678941565253
vn 0.9557213035034691 -0.20007250073342286 0.21579570079106064
vn -0.9557213035034691 0.20007250073342286 -0.21579570079106064
vn -0.9314382702906172 0.1493555952361175 -0.33183678941565253
vn 0.7455634042470348 -0.23889210136082747 0.6221461035439994
vn -0.7455634042470348 0.23889210136082747 -0.6221461035439994
vn 0.49484327093872393 -0.2283635865886079 0.8384391507599416
vn -0.49484327093872393 0.2283635865886079 -0.8384391507599416
vn -0.34754420045267637 0.8268506010769728 0.4421890005759514
vn 0.34754420045267637 -0.8268506010769728 -0.4421890005759514
vn -0.2187269104628687 0.9605653459489373 0.171676308212189
vn 0.2187269104628687 -0.9605653459489373 -0.171676308212189
vn 0 0.9742868950152511 -0.22531099884724
vn 0 0.9951843275389868 -0.09802119271246645
vn 0 -0.9951843275389868 0.09802119271246645
vn 0 -0.9742868950152511 0.22531099884724
vn 0.966102897560715 0.09075303977086024 0.24167969938979003
vn 0.9912900009128194 0.046297020042632114 0.12329120011353147
vn -0.9912900009128194 -0.046297020042632114 -0.12329120011353147
vn -0.966102897560715 -0.09075303977086024 -0.24167969938979003
vn 0.8357984093853222 -0.04021847045162015 0.5475614061486599
vn -0.8357984093853222 0.04021847045162015 -0.5475614061486599
vn 0.6102287653618022 -0.09123429482130044 0.7869543553303906
vn -0.6102287653618022 0.09123429482130044 -0.7869543553303906
vn -0.17902139365365502 0.8904998684315976 0.4182837851717545
vn 0.17902139365365502 -0.8904998684315976 -0.4182837851717545
vn 0 0.9868217015982317 0.1618114002620659
vn 0 -0.9868217015982317 -0.1618114002620659
vn 0.25010150533408243 0.9442671201390178 -0.21403000456476115
vn 0.24374770345705662 0.9659259136996596 -0.08702980123433737
vn -0.24374770345705662 -0.9659259136996596 0.08702980123433737
vn -0.25010150533408243 -0.9442671201390178 0.21403000456476115
vn 0.9314382501800985 0.330857782303387 0.15151209189606246
vn 0.9557213112154996 0.2926602034344012 0.030769800361087216
vn -0.9557213112154996 -0.2926602034344012 -0.030769800361087216
vn -0.9314382501800985 -0.330857782303387 -0.15151209189606246
vn 0.8669011070737613 0.17523650142989905 0.46666330380789095
vn -0.8669011070737613 -0.17523650142989905 -0.46666330380789095
vn 0.6840858943855601 0.07137289941422711 0.7259010940423737
vn -0.6840858943855601 -0.07137289941422711 -0.7259010940423737
vn 0 0.9119898831540422 0.41021269242269504
vn 0 -0.9119898831540422 -0.41021269242269504
vn 0.2187269104628687 0.9605653459489373 0.171676308212189
vn -0.2187269104628687 -0.9605653459489373 -0.171676308212189
vn 0.47320200526285755 0.8792680097790421 -0.05447595060587038
vn 0.48553731835374303 0.8553538323331367 -0.18061930682757046
vn -0.48553731835374303 -0.8553538323331367 0.18061930682757046
vn -0.47320200526285755 -0.8792680097790421 0.05447595060587038
vn 0.8308712033810965 0.5522497022472911 0.06836161027818669
vn 0.852531705190747 0.5198204031649921 -0.05455676033217561
vn -0.852531705190747 -0.5198204031649921 0.05455676033217561
vn -0.8308712033810965 -0.5522497022472911 -0.06836161027818669
vn 0.8357984095677147 0.39068670447234494 0.3857524044158603
vn -0.8357984095677147 -0.39068670447234494 -0.3857524044158603
vn 0.7095434858847856 0.24771789507205494 0.6596846868766454
vn -0.7095434858847856 -0.24771789507205494 -0.6596846868766454
vn 0.17902139365365502 0.8904998684315976 0.4182837851717545
vn -0.17902139365365502 -0.8904998684315976 -0.4182837851717545
vn 0.4246250829269001 0.8827997645048558 0.20089329192258937
vn -0.4246250829269001 -0.8827997645048558 -0.20089329192258937
vn 0.6737613794373941 0.7389468774479899 -0.0017651879461278493
vn 0.6913254065361846 0.7113797067257893 -0.12652310119622137
vn -0.6913254065361846 -0.7113797067257893 0.12652310119622137
vn -0.6737613794373941 -0.7389468774479899 0.0017651879461278493
vn 0.7455634286677867 0.5893477226611098 0.311134111963471
vn -0.7455634286677867 -0.5893477226611098 -0.311134111963471
vn 0.6840859209512604 0.4240610129875683 0.5934633181757938
vn -0.6840859209512604 -0.4240610129875683 -0.5934633181757938
vn 0.34754420045267637 0.8268506010769728 0.4421890005759514
vn -0.34754420045267637 -0.8268506010769728 -0.4421890005759514
vn 0.6045903918706171 0.756879989822916 0.24819979666268088
vn -0.6045903918706171 -0.756879989822916 -0.24819979666268088
vn 0.6102287586176492 0.5866634602157178 0.5323972638957523
vn -0.6102287586176492 -0.5866634602157178 -0.5323972638957523
vn 0.49484328436603287 0.7237870771328342 0.48089748480663347
vn -0.49484328436603287 -0.7237870771328342 -0.48089748480663347
usemtl material_0_0
f 1//1 2//2 3//2
f 2//2 1//1 4//1
f 5//3 6//3 7//4
f 8//4 7//4 6//3
f 9//5 3//2 2//2
f 3//2 9//5 10//5
f 11//6 12//6 8//4
f 7//4 8//4 12//6
f 13//7 14//8 15//9
f 14//8 13//7 16//10
f 17//11 18//12 19//13
f 20//14 19//13 18//12
f 21//15 4//1 1//1
f 4//1 21//15 22//15
f 23//16 24//16 5//3
f 6//3 5//3 24//16
f 9//5 25//17 10//5
f 25//17 9//5 26//17
f 27//18 12//6 28//18
f 11//6 28//18 12//6
f 29//19 15//9 14//8
f 15//9 29//19 30//20
f 31//21 32//22 20//14
f 19//13 20//14 32//22
f 33//23 15//9 34//24
f 15//9 33//23 13//7
f 18//12 35//25 20//14
f 36//26 20//14 35//25
f 37//27 16//10 13//7
f 16//10 37//27 38//28
f 39//29 40//30 17//11
f 18//12 17//11 40//30
f 41//31 22//15 21//15
f 22//15 41//31 42//31
f 22//15 42//31 43//31
f 44//32 45//32 23//16
f 45//32 46//32 23//16
f 24//16 23//16 46//32
f 47//33 25//17 26//17
f 25//17 47//33 48//33
f 48//33 47//33 49//33
f 50//34 51//34 52//34
f 52//34 51//34 28//18
f 27//18 28//18 51//34
f 53//35 30//20 29//19
f 30//20 53//35 54//36
f 55//37 56//38 31//21
f 32//22 31//21 56//38
f 57//39 15//9 30//20
f 15//9 57//39 34//24
f 36//26 58//40 20//14
f 31//21 20//14 58//40
f 59//41 33//23 34//24
f 33//23 59//41 60//42
f 61//43 62//44 35//25
f 36//26 35//25 62//44
f 63//45 13//7 33//23
f 13//7 63//45 37//27
f 40//30 64//46 18//12
f 35//25 18//12 64//46
f 65//47 38//28 37//27
f 38//28 65//47 66//48
f 67//49 68//50 39//29
f 40//30 39//29 68//50
f 69//51 42//31 41//31
f 42//31 69//51 70//51
f 42//31 70//51 43//31
f 44//32 71//52 45//32
f 71//52 72//52 45//32
f 46//32 45//32 72//52
f 73//53 49//33 47//33
f 49//33 73//53 74//53
f 74//53 48//33 49//33
f 50//34 52//34 75//54
f 75//54 76//54 50//34
f 51//34 50//34 76//54
f 77//55 54//36 53//35
f 54//36 77//55 78//56
f 79//57 80//58 55//37
f 56//38 55//37 80//58
f 54//36 57//39 30//20
f 57//39 54//36 81//59
f 82//60 55//37 58//40
f 31//21 58//40 55//37
f 83//61 34//24 57//39
f 34//24 83//61 59//41
f 62//44 84//62 36//26
f 58//40 36//26 84//62
f 85//63 33//23 60//42
f 33//23 85//63 63//45
f 64//46 86//64 35//25
f 61//43 35//25 86//64
f 87//65 37//27 63//45
f 37//27 87//65 65//47
f 68//50 88//66 40//30
f 64//46 40//30 88//66
f 89//67 66//48 65//47
f 66//48 89//67 90//68
f 91//69 92//70 67//49
f 68//50 67//49 92//70
f 93//71 70//51 69//51
f 70//51 93//71 94//71
f 95//72 96//72 71//52
f 72//52 71//52 96//72
f 73//53 97//73 74//53
f 97//73 73//53 98//73
f 99//74 76//54 100//74
f 75//54 100//74 76//54
f 101//75 78//56 77//55
f 78//56 101//75 102//76
f 103//77 104//78 79//57
f 80//58 79//57 104//78
f 78//56 81//59 54//36
f 81//59 78//56 105//79
f 106//80 79//57 82//60
f 55//37 82//60 79//57
f 107//81 57//39 81//59
f 57//39 107//81 83//61
f 84//62 108//82 58//40
f 82//60 58//40 108//82
f 109//83 63//45 85//63
f 63//45 109//83 87//65
f 88//66 110//84 64//46
f 86//64 64//46 110//84
f 111//85 65//47 87//65
f 65//47 111//85 89//67
f 92//70 112//86 68//50
f 88//66 68//50 112//86
f 113//87 90//68 89//67
f 90//68 113//87 114//88
f 115//89 116//90 91//69
f 92//70 91//69 116//90
f 117//91 94//71 93//71
f 94//71 117//91 118//91
f 119//92 120//92 95//72
f 96//72 95//72 120//92
f 121//92 97//73 98//73
f 97//73 121//92 122//92
f 123//91 124//91 100//74
f 99//74 100//74 124//91
f 101//75 125//93 102//76
f 125//93 101//75 126//94
f 127//95 104//78 128//96
f 103//77 128//96 104//78
f 102//76 105//79 78//56
f 105//79 102//76 129//97
f 130//98 103//77 106//80
f 79//57 106//80 103//77
f 131//99 81//59 105//79
f 81//59 131//99 107//81
f 108//82 132//100 82//60
f 106//80 82//60 132//100
f 133//101 87//65 109//83
f 87//65 133//101 111//85
f 112//86 134//102 88//66
f 110//84 88//66 134//102
f 135//103 89//67 111//85
f 89//67 135//103 113//87
f 116//90 136//104 92//70
f 112//86 92//70 136//104
f 137//105 114//88 113//87
f 114//88 137//105 138//106
f 139//107 140//108 115//89
f 116//90 115//89 140//108
f 141//74 118//91 117//91
f 118//91 141//74 142//74
f 143//73 144//73 119//92
f 120//92 119//92 144//73
f 121//92 145//72 122//92
f 145//72 121//92 146//72
f 147//71 124//91 148//71
f 123//91 148//71 124//91
f 126//94 149//109 125//93
f 149//109 126//94 150//110
f 151//111 127//95 152//112
f 128//96 152//112 127//95
f 102//76 153//113 129//97
f 153//113 102//76 125//93
f 128//96 103//77 154//114
f 130//98 154//114 103//77
f 129//97 131//99 105//79
f 131//99 129//97 155//115
f 156//116 130//98 132//100
f 106//80 132//100 130//98
f 157//117 111//85 133//101
f 111//85 157//117 135//103
f 136//104 158//118 112//86
f 134//102 112//86 158//118
f 159//119 113//87 135//103
f 113//87 159//119 137//105
f 140//108 160//120 116//90
f 136//104 116//90 160//120
f 137//105 161//121 138//106
f 161//121 137//105 162//122
f 163//123 140//108 164//124
f 139//107 164//124 140//108
f 141//74 165//54 142//74
f 165//54 141//74 166//54
f 167//53 144//73 168//53
f 143//73 168//53 144//73
f 146//72 169//52 145//72
f 169//52 146//72 170//52
f 171//51 147//71 172//51
f 148//71 172//51 147//71
f 150//110 173//125 149//109
f 173//125 150//110 174//126
f 175//127 151//111 176//128
f 152//112 176//128 151//111
f 149//109 153//113 125//93
f 153//113 149//109 177//129
f 178//130 152//112 154//114
f 128//96 154//114 152//112
f 153//113 155//115 129//97
f 155//115 153//113 179//131
f 180//132 154//114 156//116
f 130//98 156//116 154//114
f 157//117 159//119 135//103
f 159//119 157//117 181//133
f 182//134 158//118 160//120
f 136//104 160//120 158//118
f 159//119 162//122 137//105
f 162//122 159//119 183//135
f 184//136 160//120 163//123
f 140//108 163//123 160//120
f 162//122 185//137 161//121
f 185//137 162//122 186//138
f 187//139 163//123 188//140
f 164//124 188//140 163//123
f 166//54 189//34 165//54
f 189//34 166//54 190//34
f 190//34 166//54 191//34
f 192//33 167//53 193//33
f 193//33 167//53 194//33
f 168//53 194//33 167//53
f 170//52 195//32 169//52
f 195//32 170//52 196//32
f 196//32 170//52 197//32
f 198//31 171//51 199//31
f 199//31 171//51 200//31
f 172//51 200//31 171//51
f 174//126 201//141 173//125
f 201//141 174//126 202//142
f 203//143 175//127 204//144
f 176//128 204//144 175//127
f 149//109 205//145 177//129
f 205//145 149//109 173//125
f 176//128 152//112 206//146
f 178//130 206//146 152//112
f 177//129 179//131 153//113
f 179//131 177//129 207//147
f 208//148 178//130 180//132
f 154//114 180//132 178//130
f 181//133 183//135 159//119
f 183//135 181//133 209//149
f 210//150 182//134 184//136
f 160//120 184//136 182//134
f 183//135 186//138 162//122
f 186//138 183//135 211//151
f 212//152 184//136 187//139
f 163//123 187//139 184//136
f 186//138 213//153 185//137
f 213//153 186//138 214//154
f 215//155 187//139 216//156
f 188//140 216//156 187//139
f 217//18 190//34 191//34
f 190//34 217//18 189//34
f 189//34 217//18 218//18
f 219//17 220//17 194//33
f 194//33 220//17 193//33
f 192//33 193//33 220//17
f 196//32 221//16 195//32
f 221//16 196//32 222//16
f 222//16 196//32 197//32
f 198//31 199//31 223//15
f 223//15 199//31 224//15
f 200//31 224//15 199//31
f 202//142 225//157 201//141
f 225//157 202//142 226//158
f 227//159 203//143 228//160
f 204//144 228//160 203//143
f 173//125 229//161 205//145
f 229//161 173//125 201//141
f 204//144 176//128 230//162
f 206//146 230//162 176//128
f 205//145 207//147 177//129
f 207//147 205//145 231//163
f 232//164 206//146 208//148
f 178//130 208//148 206//146
f 209//149 211//151 183//135
f 211//151 209//149 233//165
f 234//166 210//150 212//152
f 184//136 212//152 210//150
f 211//151 214//154 186//138
f 214//154 211//151 235//167
f 236//168 212//152 215//155
f 187//139 215//155 212//152
f 214//154 237//169 213//153
f 237//169 214//154 238//170
f 239//171 215//155 240//172
f 216//156 240//172 215//155
f 241//6 218//18 217//18
f 218//18 241//6 242//6
f 243//5 244//5 219//17
f 220//17 219//17 244//5
f 222//16 245//3 221//16
f 245//3 222//16 246//3
f 247//1 223//15 248//1
f 224//15 248//1 223//15
f 226//158 249//173 225//157
f 249//173 226//158 250//174
f 251//175 227//159 252//176
f 228//160 252//176 227//159
f 201//141 253//177 229//161
f 253//177 201//141 225//157
f 228//160 204//144 254//178
f 230//162 254//178 204//144
f 205//145 255//179 231//163
f 255//179 205//145 229//161
f 230//162 206//146 256//180
f 232//164 256//180 206//146
f 233//165 235//167 211//151
f 235//167 233//165 257//181
f 258//182 234//166 236//168
f 212//152 236//168 234//166
f 235//167 238//170 214//154
f 238//170 235//167 259//183
f 260//184 236//168 239//171
f 215//155 239//171 236//168
f 261//185 237//169 238//170
f 237//169 261//185 262//186
f 263//187 264//188 240//172
f 239//171 240//172 264//188
f 265//4 242//6 241//6
f 242//6 265//4 266//4
f 267//2 268//2 243//5
f 244//5 243//5 268//2
f 246//3 265//4 245//3
f 265//4 246//3 266//4
f 267//2 247//1 268//2
f 248//1 268//2 247//1
f 250//174 269//189 249//173
f 269//189 250//174 270//190
f 271//191 251//175 272//192
f 252//176 272//192 251//175
f 225//157 273//193 253//177
f 273//193 225//157 249//173
f 252//176 228//160 274//194
f 254//178 274//194 228//160
f 229//161 275//195 255//179
f 275//195 229//161 253//177
f 254//178 230//162 276//196
f 256//180 276//196 230//162
f 257//181 259//183 235//167
f 259//183 257//181 277//197
f 278//198 258//182 260//184
f 236//168 260//184 258//182
f 279//199 238//170 259//183
f 238//170 279//199 261//185
f 264//188 280//200 239//171
f 260//184 239//171 280//200
f 281//201 262//186 261//185
f 262//186 281//201 282//202
f 283//203 284//204 263//187
f 264//188 263//187 284//204
f 270//190 281//201 269//189
f 281//201 270//190 282//202
f 283//203 271//191 284//204
f 272//192 284//204 271//191
f 249//173 285//205 273//193
f 285//205 249//173 269//189
f 272//192 252//176 286//206
f 274//194 286//206 252//176
f 253//177 287//207 275//195
f 287//207 253//177 273//193
f 274//194 254//178 288//208
f 276//196 288//208 254//178
f 289//209 259//183 277//197
f 259//183 289//209 279//199
f 280//200 290//210 260//184
f 278//198 260//184 290//210
f 291//211 261//185 279//199
f 261//185 291//211 281//201
f 284//204 292//212 264//188
f 280//200 264//188 292//212
f 269//189 291//211 285//205
f 291//211 269//189 281//201
f 284//204 272//192 292//212
f 286//206 292//212 272//192
f 273//193 293//213 287//207
f 293//213 273//193 285//205
f 286//206 274//194 294//214
f 288//208 294//214 274//194
f 295//215 279//199 289//209
f 279//199 295//215 291//211
f 292//212 296//216 280//200
f 290//210 280//200 296//216
f 293//213 291//211 295//215
f 291//211 293//213 285//205
f 286//206 294//214 292//212
f 296//216 292//212 294//214
