# SSTK version 0.8.0
# 37
mtllib original-37.mtl
o #ID302
v 0.089401 0.463793 0.466340
v 0.084633 0.465590 0.465665
v 0.084633 0.465562 0.465589
v 0.084633 0.465562 0.465589
v 0.084633 0.465590 0.465665
v 0.089401 0.463793 0.466340
v 0.089401 0.463793 0.466340
v 0.084633 0.465562 0.465589
v 0.089401 0.463765 0.466264
v 0.089401 0.463765 0.466264
v 0.084633 0.465562 0.465589
v 0.089401 0.463793 0.466340
v 0.089401 0.463793 0.466340
v 0.084714 0.466128 0.466691
v 0.084633 0.465590 0.465665
v 0.089442 0.464345 0.467360
v 0.089442 0.464345 0.467360
v 0.089401 0.463793 0.466340
v 0.084714 0.466128 0.466691
v 0.084633 0.465590 0.465665
v 0.080654 0.468963 0.465627
v 0.080540 0.468449 0.464592
v 0.080654 0.468963 0.465627
v 0.080540 0.468449 0.464592
v 0.094517 0.463180 0.466570
v 0.094517 0.463737 0.467588
v 0.094517 0.463737 0.467588
v 0.094517 0.463180 0.466570
v 0.084948 0.466921 0.467617
v 0.089563 0.465181 0.468270
v 0.089563 0.465181 0.468270
v 0.084948 0.466921 0.467617
v 0.077539 0.472657 0.464239
v 0.077398 0.472175 0.463192
v 0.077398 0.472175 0.463192
v 0.077539 0.472657 0.464239
v 0.080987 0.469687 0.466579
v 0.080987 0.469687 0.466579
v 0.099592 0.464345 0.467360
v 0.099633 0.463793 0.466340
v 0.099633 0.463793 0.466340
v 0.099592 0.464345 0.467360
v 0.094517 0.464588 0.468493
v 0.094517 0.464588 0.468493
v 0.089755 0.466217 0.468932
v 0.085321 0.467888 0.468305
v 0.085321 0.467888 0.468305
v 0.089755 0.466217 0.468932
v 0.075581 0.476958 0.462624
v 0.075424 0.476514 0.461563
v 0.075424 0.476514 0.461563
v 0.075581 0.476958 0.462624
v 0.077951 0.473289 0.465226
v 0.077951 0.473289 0.465226
v 0.081519 0.470544 0.467308
v 0.081519 0.470544 0.467308
v 0.104321 0.466128 0.466691
v 0.104401 0.465590 0.465665
v 0.104401 0.465590 0.465665
v 0.104321 0.466128 0.466691
v 0.099471 0.465181 0.468270
v 0.099471 0.465181 0.468270
v 0.094517 0.465646 0.469147
v 0.094517 0.465646 0.469147
v 0.090005 0.467381 0.469302
v 0.085807 0.468964 0.468708
v 0.085807 0.468964 0.468708
v 0.090005 0.467381 0.469302
v 0.074913 0.481574 0.460891
v 0.074913 0.481574 0.460891
v 0.075424 0.476514 0.461563
v 0.077398 0.472147 0.463117
v 0.077398 0.472175 0.463192
v 0.075424 0.476485 0.461488
v 0.075424 0.476485 0.461488
v 0.075424 0.476514 0.461563
v 0.077398 0.472147 0.463117
v 0.077398 0.472175 0.463192
v 0.076043 0.477480 0.463652
v 0.076043 0.477480 0.463652
v 0.078606 0.473999 0.466010
v 0.078606 0.473999 0.466010
v 0.082211 0.471475 0.467764
v 0.082211 0.471475 0.467764
v 0.108381 0.468963 0.465627
v 0.108494 0.468449 0.464592
v 0.108494 0.468449 0.464592
v 0.108381 0.468963 0.465627
v 0.104086 0.466921 0.467617
v 0.104086 0.466921 0.467617
v 0.099279 0.466217 0.468932
v 0.099279 0.466217 0.468932
v 0.094517 0.466841 0.469504
v 0.094517 0.466841 0.469504
v 0.090297 0.468595 0.469354
v 0.086373 0.470074 0.468798
v 0.086373 0.470074 0.468798
v 0.090297 0.468595 0.469354
v 0.075392 0.481977 0.461964
v 0.075392 0.481977 0.461964
v 0.075385 0.476814 0.461449
v 0.075385 0.476814 0.461449
v 0.075385 0.476814 0.461449
v 0.075424 0.476485 0.461488
v 0.075424 0.476514 0.461563
v 0.075424 0.476514 0.461563
v 0.075424 0.476485 0.461488
v 0.075385 0.476814 0.461449
v 0.076777 0.478016 0.464502
v 0.076777 0.478016 0.464502
v 0.079460 0.474738 0.466539
v 0.079460 0.474738 0.466539
v 0.083017 0.472418 0.467917
v 0.083017 0.472418 0.467917
v 0.108494 0.468449 0.464592
v 0.104401 0.465590 0.465665
v 0.104401 0.465562 0.465589
v 0.104401 0.465562 0.465589
v 0.104401 0.465590 0.465665
v 0.108494 0.468449 0.464592
v 0.111495 0.472657 0.464239
v 0.111636 0.472175 0.463192
v 0.111636 0.472175 0.463192
v 0.111495 0.472657 0.464239
v 0.108047 0.469687 0.466579
v 0.108047 0.469687 0.466579
v 0.103713 0.467888 0.468305
v 0.103713 0.467888 0.468305
v 0.099029 0.467381 0.469302
v 0.099029 0.467381 0.469302
v 0.094517 0.468089 0.469543
v 0.094517 0.468089 0.469543
v 0.090610 0.469775 0.469083
v 0.086980 0.471143 0.468569
v 0.086980 0.471143 0.468569
v 0.090610 0.469775 0.469083
v 0.076154 0.482323 0.462884
v 0.076154 0.482323 0.462884
v 0.076043 0.486473 0.460275
v 0.075581 0.486189 0.459157
v 0.075581 0.486189 0.459157
v 0.076043 0.486473 0.460275
v 0.074750 0.481170 0.459815
v 0.074750 0.481170 0.459815
v 0.074750 0.481170 0.459815
v 0.075424 0.476485 0.461488
v 0.075385 0.476814 0.461449
v 0.075385 0.476814 0.461449
v 0.075424 0.476485 0.461488
v 0.074750 0.481170 0.459815
v 0.077735 0.478528 0.465116
v 0.077735 0.478528 0.465116
v 0.080454 0.475457 0.466777
v 0.080454 0.475457 0.466777
v 0.083882 0.473307 0.467757
v 0.083882 0.473307 0.467757
v 0.108494 0.468449 0.464592
v 0.104401 0.465562 0.465589
v 0.108232 0.468231 0.464587
v 0.108232 0.468231 0.464587
v 0.104401 0.465562 0.465589
v 0.108494 0.468449 0.464592
v 0.108494 0.468421 0.464516
v 0.111636 0.472175 0.463192
v 0.108494 0.468449 0.464592
v 0.111636 0.472147 0.463117
v 0.111636 0.472147 0.463117
v 0.108494 0.468421 0.464516
v 0.111636 0.472175 0.463192
v 0.108494 0.468449 0.464592
v 0.113453 0.476958 0.462624
v 0.113611 0.476514 0.461563
v 0.113611 0.476514 0.461563
v 0.113453 0.476958 0.462624
v 0.111083 0.473289 0.465226
v 0.111083 0.473289 0.465226
v 0.107516 0.470544 0.467308
v 0.107516 0.470544 0.467308
v 0.103227 0.468964 0.468708
v 0.103227 0.468964 0.468708
v 0.098737 0.468595 0.469354
v 0.098737 0.468595 0.469354
v 0.094517 0.469307 0.469258
v 0.094517 0.469307 0.469258
v 0.096837 0.477294 0.466260
v 0.095269 0.483836 0.463803
v 0.087092 0.477294 0.466260
v 0.096837 0.490639 0.461249
v 0.087092 0.490639 0.461249
v 0.108988 0.479348 0.465489
v 0.105057 0.477294 0.466260
v 0.107513 0.476107 0.466706
v 0.105057 0.490639 0.461249
v 0.109489 0.482812 0.464188
v 0.108988 0.486276 0.462887
v 0.107513 0.489517 0.461670
v 0.105152 0.492317 0.460618
v 0.101588 0.490639 0.461249
v 0.100305 0.490639 0.461249
v 0.083882 0.492317 0.460618
v 0.086980 0.494481 0.459806
v 0.102054 0.494481 0.459806
v 0.090610 0.495849 0.459291
v 0.098424 0.495849 0.459291
v 0.094517 0.496317 0.459116
v 0.098424 0.469775 0.469083
v 0.090610 0.469775 0.469083
v 0.094517 0.469307 0.469258
v 0.086980 0.471143 0.468569
v 0.102054 0.471143 0.468569
v 0.105152 0.473307 0.467757
v 0.083882 0.473307 0.467757
v 0.081521 0.476107 0.466706
v 0.080046 0.479348 0.465489
v 0.101588 0.477294 0.466260
v 0.100305 0.477294 0.466260
v 0.079545 0.482812 0.464188
v 0.080046 0.486276 0.462887
v 0.081521 0.489517 0.461670
v 0.100305 0.490639 0.461249
v 0.101588 0.490639 0.461249
v 0.100305 0.477294 0.466260
v 0.101588 0.477294 0.466260
v 0.096837 0.490639 0.461249
v 0.087092 0.490639 0.461249
v 0.083882 0.492317 0.460618
v 0.081521 0.489517 0.461670
v 0.080046 0.486276 0.462887
v 0.079545 0.482812 0.464188
v 0.080046 0.479348 0.465489
v 0.087092 0.477294 0.466260
v 0.096837 0.477294 0.466260
v 0.105057 0.477294 0.466260
v 0.107513 0.476107 0.466706
v 0.081521 0.476107 0.466706
v 0.083882 0.473307 0.467757
v 0.105152 0.473307 0.467757
v 0.086980 0.471143 0.468569
v 0.102054 0.471143 0.468569
v 0.098424 0.469775 0.469083
v 0.090610 0.469775 0.469083
v 0.094517 0.469307 0.469258
v 0.094517 0.496317 0.459116
v 0.098424 0.495849 0.459291
v 0.090610 0.495849 0.459291
v 0.102054 0.494481 0.459806
v 0.086980 0.494481 0.459806
v 0.105152 0.492317 0.460618
v 0.105057 0.490639 0.461249
v 0.107513 0.489517 0.461670
v 0.108988 0.486276 0.462887
v 0.109489 0.482812 0.464188
v 0.108988 0.479348 0.465489
v 0.095269 0.483836 0.463803
v 0.077148 0.482588 0.463592
v 0.077148 0.482588 0.463592
v 0.076777 0.486630 0.461267
v 0.076777 0.486630 0.461267
v 0.077951 0.490665 0.458701
v 0.077539 0.490491 0.457543
v 0.077539 0.490491 0.457543
v 0.077951 0.490665 0.458701
v 0.075424 0.485826 0.458066
v 0.075424 0.485826 0.458066
v 0.078850 0.478982 0.465453
v 0.078850 0.478982 0.465453
v 0.081521 0.476107 0.466706
v 0.081521 0.476107 0.466706
v 0.113611 0.476514 0.461563
v 0.111636 0.472175 0.463192
v 0.111636 0.472147 0.463117
v 0.111636 0.472147 0.463117
v 0.111636 0.472175 0.463192
v 0.113611 0.476514 0.461563
v 0.114121 0.481574 0.460891
v 0.114121 0.481574 0.460891
v 0.112991 0.477480 0.463652
v 0.112991 0.477480 0.463652
v 0.110428 0.473999 0.466010
v 0.110428 0.473999 0.466010
v 0.106823 0.471475 0.467764
v 0.106823 0.471475 0.467764
v 0.102661 0.470074 0.468798
v 0.102661 0.470074 0.468798
v 0.098424 0.469775 0.469083
v 0.098424 0.469775 0.469083
v 0.102054 0.471143 0.468569
v 0.102054 0.471143 0.468569
v 0.106017 0.472418 0.467917
v 0.105152 0.473307 0.467757
v 0.105152 0.473307 0.467757
v 0.106017 0.472418 0.467917
v 0.108580 0.475457 0.466777
v 0.107513 0.476107 0.466706
v 0.107513 0.476107 0.466706
v 0.108580 0.475457 0.466777
v 0.110184 0.478982 0.465453
v 0.108988 0.479348 0.465489
v 0.108988 0.479348 0.465489
v 0.110184 0.478982 0.465453
v 0.110730 0.482755 0.464036
v 0.109489 0.482812 0.464188
v 0.109489 0.482812 0.464188
v 0.110730 0.482755 0.464036
v 0.110184 0.486528 0.462619
v 0.108988 0.486276 0.462887
v 0.108988 0.486276 0.462887
v 0.110184 0.486528 0.462619
v 0.107513 0.489517 0.461670
v 0.108580 0.490053 0.461296
v 0.108580 0.490053 0.461296
v 0.107513 0.489517 0.461670
v 0.105152 0.492317 0.460618
v 0.106017 0.493092 0.460154
v 0.106017 0.493092 0.460154
v 0.105152 0.492317 0.460618
v 0.102054 0.494481 0.459806
v 0.102661 0.495436 0.459274
v 0.102661 0.495436 0.459274
v 0.102054 0.494481 0.459806
v 0.098424 0.495849 0.459291
v 0.098737 0.496915 0.458718
v 0.098737 0.496915 0.458718
v 0.098424 0.495849 0.459291
v 0.094517 0.496317 0.459116
v 0.094517 0.497421 0.458529
v 0.094517 0.497421 0.458529
v 0.094517 0.496317 0.459116
v 0.090297 0.496915 0.458718
v 0.090610 0.495849 0.459291
v 0.090297 0.496915 0.458718
v 0.090610 0.495849 0.459291
v 0.086373 0.495436 0.459274
v 0.086980 0.494481 0.459806
v 0.086373 0.495436 0.459274
v 0.086980 0.494481 0.459806
v 0.083017 0.493092 0.460154
v 0.083882 0.492317 0.460618
v 0.083017 0.493092 0.460154
v 0.083882 0.492317 0.460618
v 0.080454 0.490053 0.461296
v 0.081521 0.489517 0.461670
v 0.080454 0.490053 0.461296
v 0.081521 0.489517 0.461670
v 0.078850 0.486528 0.462619
v 0.080046 0.486276 0.462887
v 0.078850 0.486528 0.462619
v 0.080046 0.486276 0.462887
v 0.079545 0.482812 0.464188
v 0.078304 0.482755 0.464036
v 0.079545 0.482812 0.464188
v 0.078304 0.482755 0.464036
v 0.080046 0.479348 0.465489
v 0.080046 0.479348 0.465489
v 0.077735 0.486648 0.462067
v 0.077735 0.486648 0.462067
v 0.078606 0.490647 0.459758
v 0.078606 0.490647 0.459758
v 0.080987 0.494267 0.457348
v 0.080654 0.494185 0.456155
v 0.080654 0.494185 0.456155
v 0.080987 0.494267 0.457348
v 0.113611 0.476514 0.461563
v 0.111636 0.472147 0.463117
v 0.113487 0.476202 0.461594
v 0.113487 0.476202 0.461594
v 0.111636 0.472147 0.463117
v 0.113611 0.476514 0.461563
v 0.113649 0.476814 0.461449
v 0.113649 0.476814 0.461449
v 0.113642 0.481977 0.461964
v 0.113642 0.481977 0.461964
v 0.112257 0.478016 0.464502
v 0.112257 0.478016 0.464502
v 0.109574 0.474738 0.466539
v 0.109574 0.474738 0.466539
v 0.111299 0.478528 0.465116
v 0.111299 0.478528 0.465116
v 0.111887 0.482588 0.463592
v 0.111887 0.482588 0.463592
v 0.111299 0.486648 0.462067
v 0.111299 0.486648 0.462067
v 0.109574 0.490438 0.460644
v 0.109574 0.490438 0.460644
v 0.106823 0.493701 0.459418
v 0.106823 0.493701 0.459418
v 0.103227 0.496212 0.458476
v 0.103227 0.496212 0.458476
v 0.099029 0.497795 0.457882
v 0.099029 0.497795 0.457882
v 0.094517 0.498336 0.457678
v 0.094517 0.498336 0.457678
v 0.090005 0.497795 0.457882
v 0.090005 0.497795 0.457882
v 0.085807 0.496212 0.458476
v 0.085807 0.496212 0.458476
v 0.082211 0.493701 0.459418
v 0.082211 0.493701 0.459418
v 0.079460 0.490438 0.460644
v 0.079460 0.490438 0.460644
v 0.081519 0.494102 0.458461
v 0.081519 0.494102 0.458461
v 0.084714 0.497020 0.455090
v 0.084948 0.497032 0.456310
v 0.084948 0.497032 0.456310
v 0.084714 0.497020 0.455090
v 0.077398 0.490165 0.456437
v 0.080540 0.493891 0.455038
v 0.080540 0.493891 0.455038
v 0.077398 0.490165 0.456437
v 0.075556 0.486104 0.457961
v 0.075556 0.486104 0.457961
v 0.114284 0.481170 0.459815
v 0.114284 0.481170 0.459815
v 0.112880 0.482323 0.462884
v 0.112880 0.482323 0.462884
v 0.112991 0.486473 0.460275
v 0.113453 0.486189 0.459157
v 0.113453 0.486189 0.459157
v 0.112991 0.486473 0.460275
v 0.112257 0.486630 0.461267
v 0.112257 0.486630 0.461267
v 0.110428 0.490647 0.459758
v 0.110428 0.490647 0.459758
v 0.107516 0.494102 0.458461
v 0.107516 0.494102 0.458461
v 0.103713 0.496757 0.457464
v 0.103713 0.496757 0.457464
v 0.099279 0.498428 0.456836
v 0.099279 0.498428 0.456836
v 0.094517 0.498999 0.456623
v 0.094517 0.498999 0.456623
v 0.089755 0.498428 0.456836
v 0.089755 0.498428 0.456836
v 0.085321 0.496757 0.457464
v 0.085321 0.496757 0.457464
v 0.089442 0.498803 0.454420
v 0.089563 0.498772 0.455656
v 0.089563 0.498772 0.455656
v 0.089442 0.498803 0.454420
v 0.084633 0.496750 0.453964
v 0.084633 0.496750 0.453964
v 0.080540 0.493891 0.455038
v 0.077398 0.490136 0.456361
v 0.077398 0.490165 0.456437
v 0.077398 0.490165 0.456437
v 0.077398 0.490136 0.456361
v 0.080540 0.493891 0.455038
v 0.077398 0.490136 0.456361
v 0.077398 0.490136 0.456361
v 0.075556 0.486104 0.457961
v 0.075424 0.485798 0.457990
v 0.075424 0.485826 0.458066
v 0.075424 0.485826 0.458066
v 0.075424 0.485798 0.457990
v 0.075556 0.486104 0.457961
v 0.114284 0.481170 0.459815
v 0.113649 0.476814 0.461449
v 0.113611 0.476485 0.461488
v 0.113611 0.476485 0.461488
v 0.113649 0.476814 0.461449
v 0.114284 0.481170 0.459815
v 0.113611 0.485826 0.458066
v 0.113611 0.485826 0.458066
v 0.111083 0.490665 0.458701
v 0.111495 0.490491 0.457543
v 0.111495 0.490491 0.457543
v 0.111083 0.490665 0.458701
v 0.108047 0.494267 0.457348
v 0.108047 0.494267 0.457348
v 0.104086 0.497032 0.456310
v 0.104086 0.497032 0.456310
v 0.099471 0.498772 0.455656
v 0.099471 0.498772 0.455656
v 0.094517 0.499366 0.455434
v 0.094517 0.499366 0.455434
v 0.094517 0.499411 0.454192
v 0.094517 0.499411 0.454192
v 0.089401 0.498547 0.453289
v 0.089401 0.498547 0.453289
v 0.084633 0.496750 0.453964
v 0.080540 0.493862 0.454962
v 0.080540 0.493891 0.455038
v 0.084633 0.496721 0.453889
v 0.084633 0.496721 0.453889
v 0.084633 0.496750 0.453964
v 0.080540 0.493862 0.454962
v 0.080540 0.493891 0.455038
v 0.080540 0.493891 0.455038
v 0.080331 0.493623 0.455053
v 0.077398 0.490136 0.456361
v 0.077398 0.490136 0.456361
v 0.080331 0.493623 0.455053
v 0.080540 0.493891 0.455038
v 0.114284 0.481141 0.459739
v 0.113611 0.485826 0.458066
v 0.113611 0.485798 0.457990
v 0.113611 0.485798 0.457990
v 0.114284 0.481141 0.459739
v 0.113611 0.485826 0.458066
v 0.108381 0.494185 0.456155
v 0.108381 0.494185 0.456155
v 0.104321 0.497020 0.455090
v 0.104321 0.497020 0.455090
v 0.099592 0.498803 0.454420
v 0.099592 0.498803 0.454420
v 0.089401 0.498518 0.453214
v 0.094188 0.499115 0.453076
v 0.094188 0.499115 0.453076
v 0.089401 0.498518 0.453214
v 0.089401 0.498547 0.453289
v 0.084941 0.496843 0.453843
v 0.084633 0.496750 0.453964
v 0.084633 0.496750 0.453964
v 0.084941 0.496843 0.453843
v 0.089401 0.498547 0.453289
v 0.113479 0.486104 0.457961
v 0.113611 0.485826 0.458066
v 0.113611 0.485798 0.457990
v 0.113611 0.485798 0.457990
v 0.113611 0.485826 0.458066
v 0.113479 0.486104 0.457961
v 0.113479 0.486104 0.457961
v 0.113479 0.486104 0.457961
v 0.111636 0.490165 0.456437
v 0.108494 0.493891 0.455038
v 0.108494 0.493891 0.455038
v 0.111636 0.490165 0.456437
v 0.104401 0.496750 0.453964
v 0.104401 0.496750 0.453964
v 0.099633 0.498547 0.453289
v 0.099633 0.498547 0.453289
v 0.094517 0.499160 0.453060
v 0.094517 0.499160 0.453060
v 0.094208 0.499116 0.453070
v 0.094208 0.499116 0.453070
v 0.089401 0.498518 0.453214
v 0.094517 0.499131 0.452984
v 0.089401 0.498518 0.453214
v 0.094517 0.499131 0.452984
v 0.089401 0.498518 0.453214
v 0.084941 0.496843 0.453843
v 0.089401 0.498547 0.453289
v 0.089401 0.498547 0.453289
v 0.084941 0.496843 0.453843
v 0.089401 0.498518 0.453214
v 0.112624 0.487981 0.457214
v 0.113479 0.486104 0.457961
v 0.113611 0.485798 0.457990
v 0.113611 0.485798 0.457990
v 0.113479 0.486104 0.457961
v 0.112624 0.487981 0.457214
v 0.112624 0.487981 0.457214
v 0.113479 0.486104 0.457961
v 0.113611 0.485798 0.457990
v 0.113611 0.485798 0.457990
v 0.113479 0.486104 0.457961
v 0.112624 0.487981 0.457214
v 0.111754 0.489899 0.456537
v 0.111754 0.489899 0.456537
v 0.108494 0.493862 0.454962
v 0.108494 0.493862 0.454962
v 0.104401 0.496721 0.453889
v 0.099938 0.498426 0.453334
v 0.104401 0.496721 0.453889
v 0.099938 0.498426 0.453334
v 0.112660 0.487895 0.457203
v 0.112624 0.487981 0.457214
v 0.113611 0.485798 0.457990
v 0.113611 0.485798 0.457990
v 0.112624 0.487981 0.457214
v 0.112660 0.487895 0.457203
v 0.111754 0.489899 0.456537
v 0.113479 0.486104 0.457961
v 0.112624 0.487981 0.457214
v 0.112624 0.487981 0.457214
v 0.113479 0.486104 0.457961
v 0.111754 0.489899 0.456537
v 0.108494 0.493862 0.454962
v 0.104401 0.496721 0.453889
v 0.104401 0.496750 0.453964
v 0.104401 0.496750 0.453964
v 0.104401 0.496721 0.453889
v 0.108494 0.493862 0.454962
v 0.112624 0.487981 0.457214
v 0.112352 0.488578 0.456977
v 0.111754 0.489899 0.456537
v 0.112365 0.488548 0.456986
v 0.112365 0.488548 0.456986
v 0.112624 0.487981 0.457214
v 0.112352 0.488578 0.456977
v 0.111754 0.489899 0.456537
vn -0.3735284094545775 -0.8684109219808138 0.32609660825400566
vn -0.489797290845069 -0.8161889847443956 0.30648679427137393
vn -0.4903674065520981 -0.8158889109015897 0.3063741040936511
vn 0.4903674065520981 0.8158889109015897 -0.3063741040936511
vn 0.489797290845069 0.8161889847443956 -0.30648679427137393
vn 0.3735284094545775 0.8684109219808138 -0.32609660825400566
vn -0.24978619238712643 -0.8474251741725488 0.46848418572174516
vn -0.47261019791545344 -0.695240696933495 0.5415532976113654
vn -0.4849248945022561 -0.758608091399425 0.4351569950664901
vn -0.2434430031802737 -0.7817995102132179 0.5740427074991388
vn 0.2434430031802737 0.7817995102132179 -0.5740427074991388
vn 0.24978619238712643 0.8474251741725488 -0.46848418572174516
vn 0.47261019791545344 0.695240696933495 -0.5415532976113654
vn 0.4849248945022561 0.758608091399425 -0.4351569950664901
vn -0.6729184240887002 -0.5550817198704578 0.4889428175028598
vn -0.6904530286790581 -0.6147930255364004 0.38118781583323846
vn 0.6729184240887002 0.5550817198704578 -0.4889428175028598
vn 0.6904530286790581 0.6147930255364004 -0.38118781583323846
vn 0 -0.8774128882503843 0.47973599357575675
vn 0 -0.8110246235403309 0.5850120169802195
vn 0 0.8110246235403309 -0.5850120169802195
vn 0 0.8774128882503843 -0.47973599357575675
vn -0.4246251050394444 -0.5323749063182176 0.7323049086909836
vn -0.21872690013255072 -0.6101506003697577 0.7614951004614736
vn 0.21872690013255072 0.6101506003697577 -0.7614951004614736
vn 0.4246251050394444 0.5323749063182176 -0.7323049086909836
vn -0.8298312801324867 -0.3686038911750222 0.41894058996987943
vn -0.8514553984841837 -0.4234520992461431 0.30937359944923293
vn 0.8514553984841837 0.4234520992461431 -0.30937359944923293
vn 0.8298312801324867 0.3686038911750222 -0.41894058996987943
vn -0.6045903997141466 -0.40644039980783314 0.6850376996761107
vn 0.6045903997141466 0.40644039980783314 -0.6850376996761107
vn 0.2434430031802737 -0.7817995102132179 0.5740427074991388
vn 0.24978619238712643 -0.8474251741725488 0.46848418572174516
vn -0.24978619238712643 0.8474251741725488 -0.46848418572174516
vn -0.2434430031802737 0.7817995102132179 -0.5740427074991388
vn 0 -0.6364104173903861 0.7713506210777266
vn 0 0.6364104173903861 -0.7713506210777266
vn -0.17902139495401265 -0.3950838888639664 0.9010327746030355
vn -0.3475442127947467 -0.3314317122015695 0.8771351322914936
vn 0.3475442127947467 0.3314317122015695 -0.8771351322914936
vn 0.17902139495401265 0.3950838888639664 -0.9010327746030355
vn -0.9302719961841871 -0.14747819939507034 0.33592289862210306
vn -0.9555485090763636 -0.19738310187486122 0.21901360208032036
vn 0.9555485090763636 0.19738310187486122 -0.21901360208032036
vn 0.9302719961841871 0.14747819939507034 -0.33592289862210306
vn -0.7455634042470348 -0.23889210136082747 0.6221461035439994
vn 0.7455634042470348 0.23889210136082747 -0.6221461035439994
vn -0.49484327093872393 -0.2283635865886079 0.8384391507599416
vn 0.49484327093872393 0.2283635865886079 -0.8384391507599416
vn 0.47261019791545344 -0.695240696933495 0.5415532976113654
vn 0.4849248945022561 -0.758608091399425 0.4351569950664901
vn -0.4849248945022561 0.758608091399425 -0.4351569950664901
vn -0.47261019791545344 0.695240696933495 -0.5415532976113654
vn 0.21872690013255072 -0.6101506003697577 0.7614951004614736
vn -0.21872690013255072 0.6101506003697577 -0.7614951004614736
vn 0 -0.41657481677192765 0.9091014366017882
vn 0 0.41657481677192765 -0.9091014366017882
vn -0.1273867979370033 -0.15395289750677232 0.9798321841318678
vn -0.24731350259994625 -0.10868180114254535 0.9628210101219015
vn 0.24731350259994625 0.10868180114254535 -0.9628210101219015
vn 0.1273867979370033 0.15395289750677232 -0.9798321841318678
vn -0.9649378863241245 0.09207671869501466 0.24579819651635035
vn 0.9649378863241245 -0.09207671869501466 -0.24579819651635035
vn -0.9199717504836765 -0.36696518024856034 0.13779889258314768
vn -0.8600187059801833 -0.4776936033216665 0.17937850124731727
vn 0.9199717504836765 0.36696518024856034 -0.13779889258314768
vn 0.8600187059801833 0.4776936033216665 -0.17937850124731727
vn -0.8357984093853222 -0.04021847045162015 0.5475614061486599
vn 0.8357984093853222 0.04021847045162015 -0.5475614061486599
vn -0.6102287653618022 -0.09123429482130044 0.7869543553303906
vn 0.6102287653618022 0.09123429482130044 -0.7869543553303906
vn -0.3521523155920609 -0.03536457156581855 0.9352743414106449
vn 0.3521523155920609 0.03536457156581855 -0.9352743414106449
vn 0.6729184240887002 -0.5550817198704578 0.4889428175028598
vn 0.6904530286790581 -0.6147930255364004 0.38118781583323846
vn -0.6904530286790581 0.6147930255364004 -0.38118781583323846
vn -0.6729184240887002 0.5550817198704578 -0.4889428175028598
vn 0.4246251050394444 -0.5323749063182176 0.7323049086909836
vn -0.4246251050394444 0.5323749063182176 -0.7323049086909836
vn 0.17902139495401265 -0.3950838888639664 0.9010327746030355
vn -0.17902139495401265 0.3950838888639664 -0.9010327746030355
vn 0 -0.1692363978604113 0.9855754875397584
vn 0 0.1692363978604113 -0.9855754875397584
vn -0.06728894847261756 0.09720116779364406 0.992987477460316
vn -0.13066109416325017 0.1210709945916484 0.9840068560435193
vn 0.13066109416325017 -0.1210709945916484 -0.9840068560435193
vn 0.06728894847261756 -0.09720116779364406 -0.992987477460316
vn -0.8669011070737613 0.17523650142989905 0.46666330380789095
vn 0.8669011070737613 -0.17523650142989905 -0.46666330380789095
vn -0.9900546472072712 -0.08499805546764487 0.11210319402231629
vn 0.9900546472072712 0.08499805546764487 -0.11210319402231629
vn -0.992998066612465 -0.11059059628161674 0.04152781860371176
vn 0.992998066612465 0.11059059628161674 -0.04152781860371176
vn -0.6840858943855601 0.07137289941422711 0.7259010940423737
vn 0.6840858943855601 -0.07137289941422711 -0.7259010940423737
vn -0.4342912160719556 0.062201622301915366 0.8986223332556075
vn 0.4342912160719556 -0.062201622301915366 -0.8986223332556075
vn -0.1860971978589992 0.1597552981620558 0.9694565888466492
vn 0.1860971978589992 -0.1597552981620558 -0.9694565888466492
vn 0.59792081301305 -0.7503937163314452 0.2817800061326134
vn -0.59792081301305 0.7503937163314452 -0.2817800061326134
vn 0.8298312801324867 -0.3686038911750222 0.41894058996987943
vn 0.8514553984841837 -0.4234520992461431 0.30937359944923293
vn -0.8514553984841837 0.4234520992461431 -0.30937359944923293
vn -0.8298312801324867 0.3686038911750222 -0.41894058996987943
vn 0.6045903997141466 -0.40644039980783314 0.6850376996761107
vn -0.6045903997141466 0.40644039980783314 -0.6850376996761107
vn 0.3475442127947467 -0.3314317122015695 0.8771351322914936
vn -0.3475442127947467 0.3314317122015695 -0.8771351322914936
vn 0.1273867979370033 -0.15395289750677232 0.9798321841318678
vn -0.1273867979370033 0.15395289750677232 -0.9798321841318678
vn 0 0.08914588816137246 0.9960185794571907
vn 0 -0.08914588816137246 -0.9960185794571907
vn -0.03266724921132046 0.23128779441605998 0.9723367765250474
vn -0.06340872292483399 0.2429202112051031 0.9679716446493202
vn 0.06340872292483399 -0.2429202112051031 -0.9679716446493202
vn 0.03266724921132046 -0.23128779441605998 -0.9723367765250474
vn -0.7095434858847856 0.24771789507205494 0.6596846868766454
vn 0.7095434858847856 -0.24771789507205494 -0.6596846868766454
vn -0.8357984095677147 0.39068670447234494 0.3857524044158603
vn -0.9302719956628767 0.33213389845152197 0.15582389927351634
vn 0.9302719956628767 -0.33213389845152197 -0.15582389927351634
vn 0.8357984095677147 -0.39068670447234494 -0.3857524044158603
vn -0.9900377237997243 0.048971041177225096 0.1320119031734618
vn 0.9900377237997243 -0.048971041177225096 -0.1320119031734618
vn -0.9883950680373697 -0.10188099670538157 0.11267409635635524
vn -0.9883974627988107 -0.10189259616497828 0.11264259576037097
vn -0.9883976517399694 -0.10189340533384685 0.11264020589641302
vn 0.9883976517399694 0.10189340533384685 -0.11264020589641302
vn 0.9883974627988107 0.10189259616497828 -0.11264259576037097
vn 0.9883950680373697 0.10188099670538157 -0.11267409635635524
vn -0.48687541415549157 0.17791620517276324 0.8551597248630468
vn 0.48687541415549157 -0.17791620517276324 -0.8551597248630468
vn -0.22956399335737085 0.21127609388654653 0.9500856725084641
vn 0.22956399335737085 -0.21127609388654653 -0.9500856725084641
vn -0.090263072829818 0.26174500820591073 0.9609069301251848
vn 0.090263072829818 -0.26174500820591073 -0.9609069301251848
vn 0.5955822754787168 -0.7246968701628174 0.34654898573190257
vn -0.5955822754787168 0.7246968701628174 -0.34654898573190257
vn 0.7030862069774944 -0.6657164066066329 0.24998290248085395
vn 0.784943069548091 -0.5800222774980043 0.21780389155028607
vn 0.710172705279676 -0.6590910048999166 0.2474950018399656
vn -0.784943069548091 0.5800222774980043 -0.21780389155028607
vn -0.7030862069774944 0.6657164066066329 -0.24998290248085395
vn -0.710172705279676 0.6590910048999166 -0.2474950018399656
vn 0.9302719961841871 -0.14747819939507034 0.33592289862210306
vn 0.9555485090763636 -0.19738310187486122 0.21901360208032036
vn -0.9555485090763636 0.19738310187486122 -0.21901360208032036
vn -0.9302719961841871 0.14747819939507034 -0.33592289862210306
vn 0.7455634042470348 -0.23889210136082747 0.6221461035439994
vn -0.7455634042470348 0.23889210136082747 -0.6221461035439994
vn 0.49484327093872393 -0.2283635865886079 0.8384391507599416
vn -0.49484327093872393 0.2283635865886079 -0.8384391507599416
vn 0.24731350259994625 -0.10868180114254535 0.9628210101219015
vn -0.24731350259994625 0.10868180114254535 -0.9628210101219015
vn 0.06728894847261756 0.09720116779364406 0.992987477460316
vn -0.06728894847261756 -0.09720116779364406 -0.992987477460316
vn 0 0.2273590024325138 0.9738110104188042
vn 0 -0.2273590024325138 -0.9738110104188042
vn 0 0.3515416202868696 0.9361722540249108
vn 0 -0.3515416202868696 -0.9361722540249108
vn -0.5050019879725469 0.303421992773506 0.8080272807555013
vn 0.5050019879725469 -0.303421992773506 -0.8080272807555013
vn -0.6840859209512604 0.4240610129875683 0.5934633181757938
vn 0.6840859209512604 -0.4240610129875683 -0.5934633181757938
vn -0.7455634286677867 0.5893477226611098 0.311134111963471
vn -0.8301086408584825 0.5529948272187619 0.07152877352069248
vn 0.8301086408584825 -0.5529948272187619 -0.07152877352069248
vn 0.7455634286677867 -0.5893477226611098 -0.311134111963471
vn -0.9548630869681967 0.2950814959727797 0.034108589534492036
vn 0.9548630869681967 -0.2950814959727797 -0.034108589534492036
vn -0.2574099128887373 0.2724251136405612 0.927105546420978
vn 0.2574099128887373 -0.2724251136405612 -0.927105546420978
vn -0.11128460175729737 0.2867736045284475 0.9515128150253581
vn 0.11128460175729737 -0.2867736045284475 -0.9515128150253581
vn 0.9199717504836765 -0.36696518024856034 0.13779889258314768
vn -0.9199717504836765 0.36696518024856034 -0.13779889258314768
vn 0.9649378863241245 0.09207671869501466 0.24579819651635035
vn -0.9649378863241245 -0.09207671869501466 -0.24579819651635035
vn 0.8357984093853222 -0.04021847045162015 0.5475614061486599
vn -0.8357984093853222 0.04021847045162015 -0.5475614061486599
vn 0.6102287653618022 -0.09123429482130044 0.7869543553303906
vn -0.6102287653618022 0.09123429482130044 -0.7869543553303906
vn 0.3521523155920609 -0.03536457156581855 0.9352743414106449
vn -0.3521523155920609 0.03536457156581855 -0.9352743414106449
vn 0.13066109416325017 0.1210709945916484 0.9840068560435193
vn -0.13066109416325017 -0.1210709945916484 -0.9840068560435193
vn 0.03266724921132046 0.23128779441605998 0.9723367765250474
vn -0.03266724921132046 -0.23128779441605998 -0.9723367765250474
vn 0.06340872292483399 0.2429202112051031 0.9679716446493202
vn -0.06340872292483399 -0.2429202112051031 -0.9679716446493202
vn 0.1860971978589992 0.1597552981620558 0.9694565888466492
vn 0.090263072829818 0.26174500820591073 0.9609069301251848
vn -0.090263072829818 -0.26174500820591073 -0.9609069301251848
vn -0.1860971978589992 -0.1597552981620558 -0.9694565888466492
vn 0.22956399335737085 0.21127609388654653 0.9500856725084641
vn 0.11128460175729737 0.2867736045284475 0.9515128150253581
vn -0.11128460175729737 -0.2867736045284475 -0.9515128150253581
vn -0.22956399335737085 -0.21127609388654653 -0.9500856725084641
vn 0.2574099128887373 0.2724251136405612 0.927105546420978
vn 0.12473190425045115 0.3164338107830184 0.9403784320449897
vn -0.12473190425045115 -0.3164338107830184 -0.9403784320449897
vn -0.2574099128887373 -0.2724251136405612 -0.927105546420978
vn 0.2670127140850158 0.33877821787067147 0.9021826475904563
vn 0.12936530111841413 0.3485876030136773 0.9283056080255687
vn -0.12936530111841413 -0.3485876030136773 -0.9283056080255687
vn -0.2670127140850158 -0.33877821787067147 -0.9021826475904563
vn 0.2574098901225713 0.40513568445398157 0.8772714663370109
vn 0.12473189751219364 0.38074069240603914 0.9162305817255706
vn -0.12473189751219364 -0.38074069240603914 -0.9162305817255706
vn -0.2574098901225713 -0.40513568445398157 -0.8772714663370109
vn 0.11128460070493176 0.4103987025996684 0.9050904057332908
vn 0.22956399645829928 0.46629669280600017 0.8543229868195522
vn -0.22956399645829928 -0.46629669280600017 -0.8543229868195522
vn -0.11128460070493176 -0.4103987025996684 -0.9050904057332908
vn 0.09026306651454252 0.4354243831863324 0.8956886654134868
vn 0.1860971983626117 0.5178334954438081 0.8349947926532443
vn -0.1860971983626117 -0.5178334954438081 -0.8349947926532443
vn -0.09026306651454252 -0.4354243831863324 -0.8956886654134868
vn 0.06340872255281753 0.4542464182878342 0.8886166357754586
vn 0.1306611028511749 0.5565335121441984 0.8204865179039557
vn -0.1306611028511749 -0.5565335121441984 -0.8204865179039557
vn -0.06340872255281753 -0.4542464182878342 -0.8886166357754586
vn 0.03266725074742895 0.46587691065929554 0.8842463202316169
vn 0.06728894896783355 0.5804146910968353 0.8115361875515901
vn -0.06728894896783355 -0.5804146910968353 -0.8115361875515901
vn -0.03266725074742895 -0.46587691065929554 -0.8842463202316169
vn 0 0.4698050084487288 0.8827702158752807
vn 0 0.5884741327701213 0.8085160450235068
vn 0 -0.5884741327701213 -0.8085160450235068
vn 0 -0.4698050084487288 -0.8827702158752807
vn -0.06728894896783355 0.5804146910968353 0.8115361875515901
vn -0.03266725074742895 0.46587691065929554 0.8842463202316169
vn 0.06728894896783355 -0.5804146910968353 -0.8115361875515901
vn 0.03266725074742895 -0.46587691065929554 -0.8842463202316169
vn -0.1306611028511749 0.5565335121441984 0.8204865179039557
vn -0.06340872255281753 0.4542464182878342 0.8886166357754586
vn 0.1306611028511749 -0.5565335121441984 -0.8204865179039557
vn 0.06340872255281753 -0.4542464182878342 -0.8886166357754586
vn -0.1860971983626117 0.5178334954438081 0.8349947926532443
vn -0.09026306651454252 0.4354243831863324 0.8956886654134868
vn 0.1860971983626117 -0.5178334954438081 -0.8349947926532443
vn 0.09026306651454252 -0.4354243831863324 -0.8956886654134868
vn -0.22956399645829928 0.46629669280600017 0.8543229868195522
vn -0.11128460070493176 0.4103987025996684 0.9050904057332908
vn 0.22956399645829928 -0.46629669280600017 -0.8543229868195522
vn 0.11128460070493176 -0.4103987025996684 -0.9050904057332908
vn -0.2574098901225713 0.40513568445398157 0.8772714663370109
vn -0.12473189751219364 0.38074069240603914 0.9162305817255706
vn 0.2574098901225713 -0.40513568445398157 -0.8772714663370109
vn 0.12473189751219364 -0.38074069240603914 -0.9162305817255706
vn -0.12936530111841413 0.3485876030136773 0.9283056080255687
vn -0.2670127140850158 0.33877821787067147 0.9021826475904563
vn 0.12936530111841413 -0.3485876030136773 -0.9283056080255687
vn 0.2670127140850158 -0.33877821787067147 -0.9021826475904563
vn -0.12473190425045115 0.3164338107830184 0.9403784320449897
vn 0.12473190425045115 -0.3164338107830184 -0.9403784320449897
vn -0.48687541215107155 0.42893031070492094 0.7609015189900098
vn 0.48687541215107155 -0.42893031070492094 -0.7609015189900098
vn -0.6102287586176492 0.5866634602157178 0.5323972638957523
vn 0.6102287586176492 -0.5866634602157178 -0.5323972638957523
vn -0.6045903918706171 0.756879989822916 0.24819979666268088
vn -0.6729184312127612 0.7397116343109084 0.002735507126884385
vn 0.6729184312127612 -0.7397116343109084 -0.002735507126884385
vn 0.6045903918706171 -0.756879989822916 -0.24819979666268088
vn 0.9099523313982606 -0.3147863108618246 0.26999320931622106
vn 0.9172968388162422 -0.3425460144951433 0.20304860859218474
vn 0.9115151950633386 -0.3000287983750786 0.28128769847657814
vn -0.9115151950633386 0.3000287983750786 -0.28128769847657814
vn -0.9172968388162422 0.3425460144951433 -0.20304860859218474
vn -0.9099523313982606 0.3147863108618246 -0.26999320931622106
vn 0.9900546472072712 -0.08499805546764487 0.11210319402231629
vn -0.9900546472072712 0.08499805546764487 -0.11210319402231629
vn 0.8669011070737613 0.17523650142989905 0.46666330380789095
vn -0.8669011070737613 -0.17523650142989905 -0.46666330380789095
vn 0.6840858943855601 0.07137289941422711 0.7259010940423737
vn -0.6840858943855601 -0.07137289941422711 -0.7259010940423737
vn 0.4342912160719556 0.062201622301915366 0.8986223332556075
vn -0.4342912160719556 -0.062201622301915366 -0.8986223332556075
vn 0.48687541415549157 0.17791620517276324 0.8551597248630468
vn -0.48687541415549157 -0.17791620517276324 -0.8551597248630468
vn 0.5050019879725469 0.303421992773506 0.8080272807555013
vn -0.5050019879725469 -0.303421992773506 -0.8080272807555013
vn 0.48687541215107155 0.42893031070492094 0.7609015189900098
vn -0.48687541215107155 -0.42893031070492094 -0.7609015189900098
vn 0.43429121164577733 0.5446519146051652 0.7174576192390533
vn -0.43429121164577733 -0.5446519146051652 -0.7174576192390533
vn 0.35215230105798695 0.642227901929474 0.6808319020454541
vn -0.35215230105798695 -0.642227901929474 -0.6808319020454541
vn 0.24731349324256077 0.7155552804486149 0.6533120821493092
vn -0.24731349324256077 -0.7155552804486149 -0.6533120821493092
vn 0.1273867977551612 0.7608338865924141 0.6363209887866088
vn -0.1273867977551612 -0.7608338865924141 -0.6363209887866088
vn 0 0.7761201085505074 0.6305851069471501
vn 0 -0.7761201085505074 -0.6305851069471501
vn -0.1273867977551612 0.7608338865924141 0.6363209887866088
vn 0.1273867977551612 -0.7608338865924141 -0.6363209887866088
vn -0.24731349324256077 0.7155552804486149 0.6533120821493092
vn 0.24731349324256077 -0.7155552804486149 -0.6533120821493092
vn -0.35215230105798695 0.642227901929474 0.6808319020454541
vn 0.35215230105798695 -0.642227901929474 -0.6808319020454541
vn -0.43429121164577733 0.5446519146051652 0.7174576192390533
vn 0.43429121164577733 -0.5446519146051652 -0.7174576192390533
vn -0.49484328436603287 0.7237870771328342 0.48089748480663347
vn 0.49484328436603287 -0.7237870771328342 -0.48089748480663347
vn -0.4726101935058893 0.8798570879099321 -0.049911019314175235
vn -0.4246250829269001 0.8827997645048558 0.20089329192258937
vn 0.4246250829269001 -0.8827997645048558 -0.20089329192258937
vn 0.4726101935058893 -0.8798570879099321 0.049911019314175235
vn -0.8736759979415366 0.48519949885682406 -0.03566085991597953
vn -0.690453016051455 0.7137394165928107 -0.11768890273599794
vn 0.690453016051455 -0.7137394165928107 0.11768890273599794
vn 0.8736759979415366 -0.48519949885682406 0.03566085991597953
vn -0.911431638498814 0.40509741711128894 -0.07203090304258064
vn 0.911431638498814 -0.40509741711128894 0.07203090304258064
vn 0.9900377237997243 0.048971041177225096 0.1320119031734618
vn -0.9900377237997243 -0.048971041177225096 -0.1320119031734618
vn 0.7095434858847856 0.24771789507205494 0.6596846868766454
vn -0.7095434858847856 -0.24771789507205494 -0.6596846868766454
vn 0.8357984095677147 0.39068670447234494 0.3857524044158603
vn 0.9302719956628767 0.33213389845152197 0.15582389927351634
vn -0.9302719956628767 -0.33213389845152197 -0.15582389927351634
vn -0.8357984095677147 -0.39068670447234494 -0.3857524044158603
vn 0.6840859209512604 0.4240610129875683 0.5934633181757938
vn -0.6840859209512604 -0.4240610129875683 -0.5934633181757938
vn 0.6102287586176492 0.5866634602157178 0.5323972638957523
vn -0.6102287586176492 -0.5866634602157178 -0.5323972638957523
vn 0.49484328436603287 0.7237870771328342 0.48089748480663347
vn -0.49484328436603287 -0.7237870771328342 -0.48089748480663347
vn 0.34754420045267637 0.8268506010769728 0.4421890005759514
vn -0.34754420045267637 -0.8268506010769728 -0.4421890005759514
vn 0.17902139365365502 0.8904998684315976 0.4182837851717545
vn -0.17902139365365502 -0.8904998684315976 -0.4182837851717545
vn 0 0.9119898831540422 0.41021269242269504
vn 0 -0.9119898831540422 -0.41021269242269504
vn -0.17902139365365502 0.8904998684315976 0.4182837851717545
vn 0.17902139365365502 -0.8904998684315976 -0.4182837851717545
vn -0.34754420045267637 0.8268506010769728 0.4421890005759514
vn 0.34754420045267637 -0.8268506010769728 -0.4421890005759514
vn -0.24350650356152517 0.9662827141328474 -0.08367974122389937
vn -0.2187269104628687 0.9605653459489373 0.171676308212189
vn 0.2187269104628687 -0.9605653459489373 -0.171676308212189
vn 0.24350650356152517 -0.9662827141328474 0.08367974122389937
vn -0.4849249038173823 0.8575316067505833 -0.17171890135178994
vn 0.4849249038173823 -0.8575316067505833 0.17171890135178994
vn -0.9115929466057413 0.41095432101028845 -0.010716610547893109
vn 0.9115929466057413 -0.41095432101028845 0.010716610547893109
vn -0.9178166271406091 0.3884960114881536 -0.08175260241749308
vn -0.9144904384808942 0.3822053160828389 -0.13276420558659233
vn -0.9135266440796439 0.3808151183751563 -0.14299970690004624
vn 0.9135266440796439 -0.3808151183751563 0.14299970690004624
vn 0.9144904384808942 -0.3822053160828389 0.13276420558659233
vn 0.9178166271406091 -0.3884960114881536 0.08175260241749308
vn 0.9999999357740884 0.00012655750452747954 0.00033531331199552887
vn 0.9883978951301092 -0.10189469949795925 0.11263689944503177
vn 0.9887152960301648 -0.10348059958451043 0.10832279956506824
vn -0.9887152960301648 0.10348059958451043 -0.10832279956506824
vn -0.9883978951301092 0.10189469949795925 -0.11263689944503177
vn -0.9999999357740884 -0.00012655750452747954 -0.00033531331199552887
vn 0.9548630869681967 0.2950814959727797 0.034108589534492036
vn -0.9548630869681967 -0.2950814959727797 -0.034108589534492036
vn 0.7455634286677867 0.5893477226611098 0.311134111963471
vn 0.8302065107763297 0.5527405071747377 0.07235386093917497
vn -0.8302065107763297 -0.5527405071747377 -0.07235386093917497
vn -0.7455634286677867 -0.5893477226611098 -0.311134111963471
vn 0.6045903918706171 0.756879989822916 0.24819979666268088
vn -0.6045903918706171 -0.756879989822916 -0.24819979666268088
vn 0.4246250829269001 0.8827997645048558 0.20089329192258937
vn -0.4246250829269001 -0.8827997645048558 -0.20089329192258937
vn 0.2187269104628687 0.9605653459489373 0.171676308212189
vn -0.2187269104628687 -0.9605653459489373 -0.171676308212189
vn 0 0.9868217015982317 0.1618114002620659
vn 0 -0.9868217015982317 -0.1618114002620659
vn -0.0007463228743700038 0.9955291658118361 -0.09445169675636796
vn 0.0007463228743700038 -0.9955291658118361 0.09445169675636796
vn -0.20832289282814917 0.9548283671284968 -0.21190649270477774
vn 0.20832289282814917 -0.9548283671284968 0.21190649270477774
vn -0.7837246846408067 0.602286488196576 -0.15174519702614453
vn 0.7837246846408067 -0.602286488196576 0.15174519702614453
vn 1 0 0
vn 0.990954253199993 0.12563440674476095 -0.04717694253272336
vn -0.990954253199993 -0.12563440674476095 0.04717694253272336
vn -1 0 0
vn 0.673286119489021 0.7393801214021859 0.0016844520487585156
vn -0.673286119489021 -0.7393801214021859 -0.0016844520487585156
vn 0.4728029236319626 0.879680543968801 -0.05118140255818405
vn -0.4728029236319626 -0.879680543968801 0.05118140255818405
vn 0.2434430045757667 0.9664065181646244 -0.08242539154927152
vn -0.2434430045757667 -0.9664065181646244 0.08242539154927152
vn -0.1257990006192041 0.9674855047621284 -0.21942290108003665
vn -0.122327995347245 0.9600345634850093 -0.2517329904253155
vn 0.122327995347245 -0.9600345634850093 0.2517329904253155
vn 0.1257990006192041 -0.9674855047621284 0.21942290108003665
vn -0.37273549596738403 0.8894606903769473 -0.264438897139042
vn 0.37273549596738403 -0.8894606903769473 0.264438897139042
vn 0.9135266440796439 0.3808151183751563 -0.14299970690004624
vn -0.9135266440796439 -0.3808151183751563 0.14299970690004624
vn 0.911425392661538 0.40509029673836194 -0.07214987941907562
vn -0.911425392661538 -0.40509029673836194 0.07214987941907562
vn 0.8539205101692761 0.5185107061749056 -0.044344220528091914
vn 0.6592874752867743 0.7403089722497038 -0.13146349507212368
vn -0.6592874752867743 -0.7403089722497038 0.13146349507212368
vn -0.8539205101692761 -0.5185107061749056 0.044344220528091914
vn 0.44768588349977384 0.8753731677366301 -0.18248059327436655
vn -0.44768588349977384 -0.8753731677366301 0.18248059327436655
vn 0.25115168646496633 0.9449108490769887 -0.20991978868703012
vn -0.25115168646496633 -0.9449108490769887 0.20991978868703012
vn -0.008423892880011268 0.9585861863460348 -0.28467799594508686
vn 0.008423892880011268 -0.9585861863460348 0.28467799594508686
vn -0.12671209557975885 0.9576162665943904 -0.2586795909761875
vn 0.12671209557975885 -0.9576162665943904 0.2586795909761875
vn -0.1266797948480361 0.949524261383623 -0.28697718832887165
vn -0.006690224180244476 0.9378850252680017 -0.34688170934550305
vn 0.1266797948480361 -0.949524261383623 0.28697718832887165
vn 0.006690224180244476 -0.9378850252680017 0.34688170934550305
vn -0.3725167886607213 0.8687916735542902 -0.3262395900693827
vn 0.3725167886607213 -0.8687916735542902 0.3262395900693827
vn 0.918177164323111 0.38958768486209727 -0.07191752720555704
vn -0.918177164323111 -0.38958768486209727 0.07191752720555704
vn 0.9181770187623369 0.38958880796098827 -0.07191330146950042
vn -0.9181770187623369 -0.38958880796098827 0.07191330146950042
vn 0.9128778012367397 0.40819190055300625 -0.005787256007840313
vn -0.9128778012367397 -0.40819190055300625 0.005787256007840313
vn 0.5933686011575258 0.7902383015415733 -0.15309190029864694
vn -0.5933686011575258 -0.7902383015415733 0.15309190029864694
vn 0.3701991982324247 0.9077691956657108 -0.19725019905819716
vn 0.386025506302928 0.8870801144840225 -0.25312680413299093
vn -0.3701991982324247 -0.9077691956657108 0.19725019905819716
vn -0.386025506302928 -0.8870801144840225 0.25312680413299093
vn 0.9155787706759386 0.4002884871796021 -0.0385310487659315
vn -0.9155787706759386 -0.4002884871796021 0.0385310487659315
vn 0.9153591762887667 0.40052138962499495 -0.04123341893189982
vn -0.9153591762887667 -0.40052138962499495 0.04123341893189982
vn 0.59792081301305 0.7503937163314452 -0.2817800061326134
vn -0.59792081301305 -0.7503937163314452 0.2817800061326134
vn 0.9145821169865979 0.40304390748576285 -0.03309320061464226
vn -0.9145821169865979 -0.40304390748576285 0.03309320061464226
usemtl material_0_0
f 1//1 2//2 3//3
f 4//4 5//5 6//6
f 7//1 8//1 9//1
f 10//6 11//6 12//6
f 13//7 14//8 15//9
f 14//8 13//7 16//10
f 17//11 18//12 19//13
f 20//14 19//13 18//12
f 15//9 21//15 22//16
f 21//15 15//9 14//8
f 19//13 20//14 23//17
f 24//18 23//17 20//14
f 25//19 16//10 13//7
f 16//10 25//19 26//20
f 27//21 28//22 17//11
f 18//12 17//11 28//22
f 16//10 29//23 14//8
f 29//23 16//10 30//24
f 31//25 17//11 32//26
f 19//13 32//26 17//11
f 33//27 22//16 21//15
f 22//16 33//27 34//28
f 35//29 36//30 24//18
f 23//17 24//18 36//30
f 29//23 21//15 14//8
f 21//15 29//23 37//31
f 38//32 32//26 23//17
f 19//13 23//17 32//26
f 25//19 39//33 26//20
f 39//33 25//19 40//34
f 41//35 28//22 42//36
f 27//21 42//36 28//22
f 26//20 30//24 16//10
f 30//24 26//20 43//37
f 44//38 27//21 31//25
f 17//11 31//25 27//21
f 45//39 29//23 30//24
f 29//23 45//39 46//40
f 47//41 48//42 32//26
f 31//25 32//26 48//42
f 49//43 34//28 33//27
f 34//28 49//43 50//44
f 51//45 52//46 35//29
f 36//30 35//29 52//46
f 53//47 21//15 37//31
f 21//15 53//47 33//27
f 36//30 54//48 23//17
f 38//32 23//17 54//48
f 46//40 37//31 29//23
f 37//31 46//40 55//49
f 56//50 47//41 38//32
f 32//26 38//32 47//41
f 40//34 57//51 39//33
f 57//51 40//34 58//52
f 59//53 41//35 60//54
f 42//36 60//54 41//35
f 39//33 43//37 26//20
f 43//37 39//33 61//55
f 62//56 42//36 44//38
f 27//21 44//38 42//36
f 63//57 30//24 43//37
f 30//24 63//57 45//39
f 48//42 64//58 31//25
f 44//38 31//25 64//58
f 65//59 46//40 45//39
f 46//40 65//59 66//60
f 67//61 68//62 47//41
f 48//42 47//41 68//62
f 69//63 50//44 49//43
f 52//46 51//45 70//64
f 71//65 72//66 73//66
f 72//66 71//65 74//65
f 75//67 76//67 77//68
f 78//68 77//68 76//67
f 79//69 33//27 53//47
f 33//27 79//69 49//43
f 52//46 80//70 36//30
f 54//48 36//30 80//70
f 55//49 53//47 37//31
f 53//47 55//49 81//71
f 82//72 56//50 54//48
f 38//32 54//48 56//50
f 66//60 55//49 46//40
f 55//49 66//60 83//73
f 84//74 67//61 56//50
f 47//41 56//50 67//61
f 58//52 85//75 57//51
f 85//75 58//52 86//76
f 87//77 59//53 88//78
f 60//54 88//78 59//53
f 39//33 89//79 61//55
f 89//79 39//33 57//51
f 60//54 42//36 90//80
f 62//56 90//80 42//36
f 61//55 63//57 43//37
f 63//57 61//55 91//81
f 92//82 62//56 64//58
f 44//38 64//58 62//56
f 93//83 45//39 63//57
f 45//39 93//83 65//59
f 68//62 94//84 48//42
f 64//58 48//42 94//84
f 95//85 66//60 65//59
f 66//60 95//85 96//86
f 97//87 98//88 67//61
f 68//62 67//61 98//88
f 99//89 49//43 79//69
f 49//43 99//89 69//63
f 70//64 100//90 52//46
f 80//70 52//46 100//90
f 69//63 101//91 50//44
f 51//45 102//92 70//64
f 103//93 104//93 105//93
f 106//94 107//94 108//94
f 109//95 53//47 81//71
f 53//47 109//95 79//69
f 80//70 110//96 54//48
f 82//72 54//48 110//96
f 83//73 81//71 55//49
f 81//71 83//73 111//97
f 112//98 84//74 82//72
f 56//50 82//72 84//74
f 96//86 83//73 66//60
f 83//73 96//86 113//99
f 114//100 97//87 84//74
f 67//61 84//74 97//87
f 115//101 116//101 117//101
f 118//102 119//102 120//102
f 86//76 121//103 85//75
f 121//103 86//76 122//104
f 123//105 87//77 124//106
f 88//78 124//106 87//77
f 85//75 89//79 57//51
f 89//79 85//75 125//107
f 126//108 88//78 90//80
f 60//54 90//80 88//78
f 89//79 91//81 61//55
f 91//81 89//79 127//109
f 128//110 90//80 92//82
f 62//56 92//82 90//80
f 91//81 93//83 63//57
f 93//83 91//81 129//111
f 130//112 92//82 94//84
f 64//58 94//84 92//82
f 131//113 65//59 93//83
f 65//59 131//113 95//85
f 98//88 132//114 68//62
f 94//84 68//62 132//114
f 133//115 96//86 95//85
f 96//86 133//115 134//116
f 135//117 136//118 97//87
f 98//88 97//87 136//118
f 137//119 79//69 109//95
f 79//69 137//119 99//89
f 100//90 138//120 80//70
f 110//96 80//70 138//120
f 139//121 69//63 99//89
f 69//63 139//121 140//122
f 141//123 142//124 70//64
f 100//90 70//64 142//124
f 143//125 101//91 69//63
f 70//64 102//92 144//126
f 145//127 146//128 147//129
f 148//130 149//131 150//132
f 111//97 109//95 81//71
f 109//95 111//97 151//133
f 152//134 112//98 110//96
f 82//72 110//96 112//98
f 113//99 111//97 83//73
f 111//97 113//99 153//135
f 154//136 114//100 112//98
f 84//74 112//98 114//100
f 134//116 113//99 96//86
f 113//99 134//116 155//137
f 156//138 135//117 114//100
f 97//87 114//100 135//117
f 157//139 158//139 159//139
f 160//140 161//140 162//140
f 163//141 164//142 165//143
f 164//142 163//141 166//142
f 167//144 168//145 169//144
f 170//146 169//144 168//145
f 122//104 171//147 121//103
f 171//147 122//104 172//148
f 173//149 123//105 174//150
f 124//106 174//150 123//105
f 85//75 175//151 125//107
f 175//151 85//75 121//103
f 124//106 88//78 176//152
f 126//108 176//152 88//78
f 125//107 127//109 89//79
f 127//109 125//107 177//153
f 178//154 126//108 128//110
f 90//80 128//110 126//108
f 127//109 129//111 91//81
f 129//111 127//109 179//155
f 180//156 128//110 130//112
f 92//82 130//112 128//110
f 129//111 131//113 93//83
f 131//113 129//111 181//157
f 182//158 130//112 132//114
f 94//84 132//114 130//112
f 183//159 95//85 131//113
f 95//85 183//159 133//115
f 136//118 184//160 98//88
f 132//114 98//88 184//160
f 185//161 186//161 187//161
f 186//161 185//161 188//161
f 186//161 188//161 189//161
f 190//161 191//161 192//161
f 191//161 190//161 193//161
f 193//161 190//161 194//161
f 193//161 194//161 195//161
f 193//161 195//161 196//161
f 193//161 196//161 197//161
f 193//161 197//161 198//161
f 198//161 197//161 199//161
f 199//161 197//161 188//161
f 188//161 197//161 200//161
f 200//161 197//161 201//161
f 201//161 197//161 202//161
f 201//161 202//161 203//161
f 203//161 202//161 204//161
f 203//161 204//161 205//161
f 206//161 207//161 208//161
f 207//161 206//161 209//161
f 209//161 206//161 210//161
f 209//161 210//161 211//161
f 209//161 211//161 212//161
f 212//161 211//161 192//161
f 212//161 192//161 213//161
f 213//161 192//161 187//161
f 213//161 187//161 214//161
f 187//161 192//161 191//161
f 187//161 191//161 215//161
f 187//161 215//161 216//161
f 187//161 216//161 185//161
f 214//161 187//161 189//161
f 214//161 189//161 217//161
f 217//161 189//161 218//161
f 218//161 189//161 219//161
f 219//161 189//161 200//161
f 200//161 189//161 188//161
f 198//161 216//161 215//161
f 216//161 198//161 199//161
f 220//162 221//162 222//162
f 223//162 222//162 221//162
f 224//162 225//162 226//162
f 226//162 225//162 227//162
f 227//162 225//162 228//162
f 228//162 225//162 229//162
f 229//162 225//162 230//162
f 225//162 231//162 230//162
f 232//162 222//162 231//162
f 222//162 223//162 231//162
f 223//162 233//162 231//162
f 233//162 234//162 231//162
f 230//162 231//162 235//162
f 231//162 234//162 235//162
f 235//162 234//162 236//162
f 234//162 237//162 236//162
f 236//162 237//162 238//162
f 237//162 239//162 238//162
f 239//162 240//162 238//162
f 238//162 240//162 241//162
f 242//162 241//162 240//162
f 243//162 244//162 245//162
f 244//162 246//162 245//162
f 245//162 246//162 247//162
f 246//162 248//162 247//162
f 247//162 248//162 226//162
f 226//162 248//162 224//162
f 224//162 248//162 220//162
f 220//162 248//162 221//162
f 221//162 248//162 249//162
f 248//162 250//162 249//162
f 250//162 251//162 249//162
f 251//162 252//162 249//162
f 252//162 253//162 249//162
f 249//162 253//162 233//162
f 234//162 233//162 253//162
f 225//162 224//162 254//162
f 224//162 232//162 254//162
f 231//162 254//162 232//162
f 151//133 137//119 109//95
f 137//119 151//133 255//163
f 256//164 152//134 138//120
f 110//96 138//120 152//134
f 257//165 99//89 137//119
f 99//89 257//165 139//121
f 142//124 258//166 100//90
f 138//120 100//90 258//166
f 259//167 140//122 139//121
f 140//122 259//167 260//168
f 261//169 262//170 141//123
f 142//124 141//123 262//170
f 140//122 143//125 69//63
f 143//125 140//122 263//171
f 264//172 141//123 144//126
f 70//64 144//126 141//123
f 153//135 151//133 111//97
f 151//133 153//135 265//173
f 266//174 154//136 152//134
f 112//98 152//134 154//136
f 155//137 153//135 113//99
f 153//135 155//137 267//175
f 268//176 156//138 154//136
f 114//100 154//136 156//138
f 269//177 270//177 271//177
f 272//178 273//178 274//178
f 275//179 171//147 172//148
f 173//149 174//150 276//180
f 121//103 277//181 175//151
f 277//181 121//103 171//147
f 174//150 124//106 278//182
f 176//152 278//182 124//106
f 175//151 177//153 125//107
f 177//153 175//151 279//183
f 280//184 176//152 178//154
f 126//108 178//154 176//152
f 177//153 179//155 127//109
f 179//155 177//153 281//185
f 282//186 178//154 180//156
f 128//110 180//156 178//154
f 179//155 181//157 129//111
f 181//157 179//155 283//187
f 284//188 180//156 182//158
f 130//112 182//158 180//156
f 181//157 183//159 131//113
f 183//159 181//157 285//189
f 286//190 182//158 184//160
f 132//114 184//160 182//158
f 283//187 285//189 181//157
f 285//189 283//187 287//191
f 288//192 284//188 286//190
f 182//158 286//190 284//188
f 289//193 287//191 283//187
f 287//191 289//193 290//194
f 291//195 292//196 288//192
f 284//188 288//192 292//196
f 293//197 290//194 289//193
f 290//194 293//197 294//198
f 295//199 296//200 291//195
f 292//196 291//195 296//200
f 297//201 294//198 293//197
f 294//198 297//201 298//202
f 299//203 300//204 295//199
f 296//200 295//199 300//204
f 301//205 298//202 297//201
f 298//202 301//205 302//206
f 303//207 304//208 299//203
f 300//204 299//203 304//208
f 305//209 302//206 301//205
f 302//206 305//209 306//210
f 307//211 308//212 303//207
f 304//208 303//207 308//212
f 305//209 309//213 306//210
f 309//213 305//209 310//214
f 311//215 308//212 312//216
f 307//211 312//216 308//212
f 310//214 313//217 309//213
f 313//217 310//214 314//218
f 315//219 311//215 316//220
f 312//216 316//220 311//215
f 314//218 317//221 313//217
f 317//221 314//218 318//222
f 319//223 315//219 320//224
f 316//220 320//224 315//219
f 318//222 321//225 317//221
f 321//225 318//222 322//226
f 323//227 319//223 324//228
f 320//224 324//228 319//223
f 322//226 325//229 321//225
f 325//229 322//226 326//230
f 327//231 323//227 328//232
f 324//228 328//232 323//227
f 325//229 329//233 330//234
f 329//233 325//229 326//230
f 327//231 328//232 331//235
f 332//236 331//235 328//232
f 330//234 333//237 334//238
f 333//237 330//234 329//233
f 331//235 332//236 335//239
f 336//240 335//239 332//236
f 334//238 337//241 338//242
f 337//241 334//238 333//237
f 335//239 336//240 339//243
f 340//244 339//243 336//240
f 338//242 341//245 342//246
f 341//245 338//242 337//241
f 339//243 340//244 343//247
f 344//248 343//247 340//244
f 342//246 345//249 346//250
f 345//249 342//246 341//245
f 343//247 344//248 347//251
f 348//252 347//251 344//248
f 349//253 345//249 350//254
f 345//249 349//253 346//250
f 348//252 351//255 347//251
f 352//256 347//251 351//255
f 353//257 350//254 265//173
f 350//254 353//257 349//253
f 351//255 354//258 352//256
f 266//174 352//256 354//258
f 267//175 265//173 153//135
f 265//173 267//175 353//257
f 354//258 268//176 266//174
f 154//136 266//174 268//176
f 265//173 255//163 151//133
f 255//163 265//173 350//254
f 352//256 266//174 256//164
f 152//134 256//164 266//174
f 255//163 257//165 137//119
f 257//165 255//163 355//259
f 356//260 256//164 258//166
f 138//120 258//166 256//164
f 357//261 139//121 257//165
f 139//121 357//261 259//167
f 262//170 358//262 142//124
f 258//166 142//124 358//262
f 359//263 260//168 259//167
f 260//168 359//263 360//264
f 361//265 362//266 261//169
f 262//170 261//169 362//266
f 260//168 263//171 140//122
f 141//123 264//172 261//169
f 363//267 364//268 365//269
f 366//270 367//271 368//272
f 275//179 172//148 369//273
f 370//274 173//149 276//180
f 171//147 371//275 277//181
f 371//275 171//147 275//179
f 276//180 174//150 372//276
f 278//182 372//276 174//150
f 175//151 373//277 279//183
f 373//277 175//151 277//181
f 278//182 176//152 374//278
f 280//184 374//278 176//152
f 279//183 281//185 177//153
f 281//185 279//183 375//279
f 376//280 280//184 282//186
f 178//154 282//186 280//184
f 281//185 283//187 179//155
f 283//187 281//185 289//193
f 292//196 282//186 284//188
f 180//156 284//188 282//186
f 375//279 289//193 281//185
f 289//193 375//279 293//197
f 296//200 376//280 292//196
f 282//186 292//196 376//280
f 377//281 293//197 375//279
f 293//197 377//281 297//201
f 300//204 378//282 296//200
f 376//280 296//200 378//282
f 379//283 297//201 377//281
f 297//201 379//283 301//205
f 304//208 380//284 300//204
f 378//282 300//204 380//284
f 381//285 301//205 379//283
f 301//205 381//285 305//209
f 308//212 382//286 304//208
f 380//284 304//208 382//286
f 381//285 310//214 305//209
f 310//214 381//285 383//287
f 384//288 382//286 311//215
f 308//212 311//215 382//286
f 383//287 314//218 310//214
f 314//218 383//287 385//289
f 386//290 384//288 315//219
f 311//215 315//219 384//288
f 385//289 318//222 314//218
f 318//222 385//289 387//291
f 388//292 386//290 319//223
f 315//219 319//223 386//290
f 387//291 322//226 318//222
f 322//226 387//291 389//293
f 390//294 388//292 323//227
f 319//223 323//227 388//292
f 389//293 326//230 322//226
f 326//230 389//293 391//295
f 392//296 390//294 327//231
f 323//227 327//231 390//294
f 326//230 393//297 329//233
f 393//297 326//230 391//295
f 392//296 327//231 394//298
f 331//235 394//298 327//231
f 329//233 395//299 333//237
f 395//299 329//233 393//297
f 394//298 331//235 396//300
f 335//239 396//300 331//235
f 333//237 397//301 337//241
f 397//301 333//237 395//299
f 396//300 335//239 398//302
f 339//243 398//302 335//239
f 337//241 399//303 341//245
f 399//303 337//241 397//301
f 398//302 339//243 400//304
f 343//247 400//304 339//243
f 341//245 355//259 345//249
f 355//259 341//245 399//303
f 400//304 343//247 356//260
f 347//251 356//260 343//247
f 350//254 355//259 255//163
f 355//259 350//254 345//249
f 347//251 352//256 356//260
f 256//164 356//260 352//256
f 355//259 357//261 257//165
f 357//261 355//259 399//303
f 400//304 356//260 358//262
f 258//166 358//262 356//260
f 357//261 359//263 259//167
f 359//263 357//261 401//305
f 402//306 358//262 362//266
f 262//170 362//266 358//262
f 359//263 403//307 360//264
f 403//307 359//263 404//308
f 405//309 362//266 406//310
f 361//265 406//310 362//266
f 360//264 407//311 260//168
f 407//311 360//264 408//312
f 409//313 361//265 410//314
f 261//169 410//314 361//265
f 260//168 411//315 263//171
f 264//172 412//316 261//169
f 413//317 275//179 369//273
f 370//274 276//180 414//318
f 277//181 415//319 373//277
f 415//319 277//181 371//275
f 372//276 278//182 416//320
f 374//278 416//320 278//182
f 275//179 417//321 371//275
f 417//321 275//179 418//322
f 419//323 276//180 420//324
f 372//276 420//324 276//180
f 373//277 375//279 279//183
f 375//279 373//277 377//281
f 378//282 374//278 376//280
f 280//184 376//280 374//278
f 415//319 377//281 373//277
f 377//281 415//319 379//283
f 380//284 416//320 378//282
f 374//278 378//282 416//320
f 421//325 379//283 415//319
f 379//283 421//325 381//285
f 382//286 422//326 380//284
f 416//320 380//284 422//326
f 423//327 381//285 421//325
f 381//285 423//327 383//287
f 384//288 424//328 382//286
f 422//326 382//286 424//328
f 383//287 425//329 385//289
f 425//329 383//287 423//327
f 424//328 384//288 426//330
f 386//290 426//330 384//288
f 385//289 427//331 387//291
f 427//331 385//289 425//329
f 426//330 386//290 428//332
f 388//292 428//332 386//290
f 387//291 429//333 389//293
f 429//333 387//291 427//331
f 428//332 388//292 430//334
f 390//294 430//334 388//292
f 389//293 431//335 391//295
f 431//335 389//293 429//333
f 430//334 390//294 432//336
f 392//296 432//336 390//294
f 393//297 431//335 433//337
f 431//335 393//297 391//295
f 392//296 394//298 432//336
f 434//338 432//336 394//298
f 395//299 433//337 435//339
f 433//337 395//299 393//297
f 394//298 396//300 434//338
f 436//340 434//338 396//300
f 397//301 435//339 401//305
f 435//339 397//301 395//299
f 396//300 398//302 436//340
f 402//306 436//340 398//302
f 399//303 401//305 357//261
f 401//305 399//303 397//301
f 398//302 400//304 402//306
f 358//262 402//306 400//304
f 401//305 404//308 359//263
f 404//308 401//305 435//339
f 436//340 402//306 405//309
f 362//266 405//309 402//306
f 404//308 437//341 403//307
f 437//341 404//308 438//342
f 439//343 405//309 440//344
f 406//310 440//344 405//309
f 360//264 441//345 408//312
f 441//345 360//264 403//307
f 406//310 361//265 442//346
f 409//313 442//346 361//265
f 443//144 444//144 445//144
f 446//142 447//142 448//142
f 260//168 449//347 411//315
f 449//347 260//168 407//311
f 410//314 261//169 450//348
f 412//316 450//348 261//169
f 451//349 452//350 453//351
f 454//352 455//353 456//354
f 457//355 458//356 459//357
f 460//358 461//359 462//360
f 413//317 418//322 275//179
f 418//322 413//317 463//361
f 464//362 414//318 419//323
f 276//180 419//323 414//318
f 371//275 421//325 415//319
f 421//325 371//275 417//321
f 420//324 372//276 422//326
f 416//320 422//326 372//276
f 418//322 465//363 417//321
f 465//363 418//322 466//364
f 467//365 419//323 468//366
f 420//324 468//366 419//323
f 417//321 423//327 421//325
f 423//327 417//321 465//363
f 468//366 420//324 424//328
f 422//326 424//328 420//324
f 423//327 469//367 425//329
f 469//367 423//327 465//363
f 468//366 424//328 470//368
f 426//330 470//368 424//328
f 425//329 471//369 427//331
f 471//369 425//329 469//367
f 470//368 426//330 472//370
f 428//332 472//370 426//330
f 427//331 473//371 429//333
f 473//371 427//331 471//369
f 472//370 428//332 474//372
f 430//334 474//372 428//332
f 429//333 475//373 431//335
f 475//373 429//333 473//371
f 474//372 430//334 476//374
f 432//336 476//374 430//334
f 433//337 475//373 438//342
f 475//373 433//337 431//335
f 432//336 434//338 476//374
f 439//343 476//374 434//338
f 435//339 438//342 404//308
f 438//342 435//339 433//337
f 434//338 436//340 439//343
f 405//309 439//343 436//340
f 438//342 477//375 437//341
f 477//375 438//342 475//373
f 476//374 439//343 478//376
f 440//344 478//376 439//343
f 403//307 479//377 441//345
f 479//377 403//307 437//341
f 440//344 406//310 480//378
f 442//346 480//378 406//310
f 481//102 482//102 483//102
f 482//102 481//102 484//102
f 485//101 486//101 487//101
f 488//101 487//101 486//101
f 489//379 490//379 491//379
f 492//380 493//380 494//380
f 495//381 496//382 457//355
f 496//382 495//381 497//382
f 498//383 499//384 500//383
f 462//360 500//383 499//384
f 466//364 418//322 463//361
f 464//362 419//323 467//365
f 466//364 469//367 465//363
f 469//367 466//364 501//385
f 502//386 467//365 470//368
f 468//366 470//368 467//365
f 469//367 503//387 471//369
f 503//387 469//367 501//385
f 502//386 470//368 504//388
f 472//370 504//388 470//368
f 471//369 505//389 473//371
f 505//389 471//369 503//387
f 504//388 472//370 506//390
f 474//372 506//390 472//370
f 473//371 477//375 475//373
f 477//375 473//371 505//389
f 506//390 474//372 478//376
f 476//374 478//376 474//372
f 437//341 507//391 479//377
f 507//391 437//341 508//392
f 508//392 437//341 477//375
f 478//376 440//344 509//393
f 509//393 440//344 510//394
f 480//378 510//394 440//344
f 511//395 512//395 513//395
f 514//396 515//396 516//396
f 517//397 518//397 519//397
f 520//398 521//398 522//398
f 466//364 463//361 523//399
f 524//400 464//362 467//365
f 525//401 501//385 466//364
f 501//385 525//401 526//402
f 527//403 528//404 502//386
f 467//365 502//386 528//404
f 501//385 529//405 503//387
f 504//388 530//406 502//386
f 503//387 531//407 505//389
f 506//390 532//408 504//388
f 505//389 533//409 477//375
f 533//409 505//389 531//407
f 532//408 506//390 534//410
f 478//376 534//410 506//390
f 477//375 535//411 508//392
f 509//393 536//412 478//376
f 537//413 535//411 538//414
f 535//411 537//413 508//392
f 509//393 539//415 536//412
f 540//416 536//412 539//415
f 541//417 542//417 543//417
f 544//418 545//418 546//418
f 547//419 548//419 549//419
f 550//420 551//420 552//420
f 553//421 554//421 555//421
f 556//422 557//422 558//422
f 559//423 466//364 523//399
f 524//400 467//365 560//424
f 525//401 466//364 559//423
f 560//424 467//365 528//404
f 501//385 561//425 529//405
f 561//425 501//385 526//402
f 527//403 502//386 562//426
f 530//406 562//426 502//386
f 503//387 563//427 564//428
f 563//427 503//387 529//405
f 530//406 504//388 565//429
f 566//430 565//429 504//388
f 503//387 564//428 531//407
f 532//408 566//430 504//388
f 533//409 535//411 477//375
f 478//376 536//412 534//410
f 533//409 538//414 535//411
f 536//412 540//416 534//410
f 567//431 568//431 569//431
f 570//432 571//432 572//432
f 573//433 574//433 575//433
f 576//434 577//434 578//434
f 579//435 580//435 581//435
f 582//436 583//436 584//436
f 585//437 586//437 587//437
f 586//437 585//437 588//437
f 589//438 590//438 591//438
f 592//438 591//438 590//438
