# SSTK version 0.8.0
# 119
mtllib original-119.mtl
o instance_2/Componente_17/ID19#ID19
v 0.219406 -0.245478 0.582666
v 0.252443 -0.060610 0.574272
v 0.290790 -0.245478 0.582666
v 0.249128 -0.038182 0.573253
v 0.219406 0.201781 0.562356
v 0.257933 -0.082609 0.575271
v 0.265545 -0.103967 0.576240
v 0.275207 -0.124482 0.577172
v 0.290790 -0.150598 0.578358
v 0.248019 -0.015537 0.572225
v 0.249128 0.007108 0.571197
v 0.252443 0.029537 0.570178
v 0.257933 0.051535 0.569179
v 0.265545 0.072894 0.568209
v 0.275207 0.093408 0.567278
v 0.290790 0.119525 0.566092
v 0.290790 0.201781 0.562356
v 0.290790 0.201781 0.562356
v 0.219406 0.201781 0.562356
v 0.290790 0.119525 0.566092
v 0.275207 0.093408 0.567278
v 0.265545 0.072894 0.568209
v 0.257933 0.051535 0.569179
v 0.252443 0.029537 0.570178
v 0.249128 0.007108 0.571197
v 0.248019 -0.015537 0.572225
v 0.249128 -0.038182 0.573253
v 0.290790 -0.150598 0.578358
v 0.275207 -0.124482 0.577172
v 0.290790 -0.245478 0.582666
v 0.265545 -0.103967 0.576240
v 0.257933 -0.082609 0.575271
v 0.252443 -0.060610 0.574272
v 0.219406 -0.245478 0.582666
v 0.290790 0.120171 0.580332
v 0.290790 0.201781 0.562356
v 0.290790 0.202428 0.576597
v 0.290790 0.119525 0.566092
v 0.290790 0.119525 0.566092
v 0.290790 0.120171 0.580332
v 0.290790 0.201781 0.562356
v 0.290790 0.202428 0.576597
v 0.275207 0.093408 0.567278
v 0.290628 0.116861 0.566375
v 0.276295 0.092838 0.567466
v 0.290790 0.119525 0.566092
v 0.290790 0.119525 0.566092
v 0.275207 0.093408 0.567278
v 0.290628 0.116861 0.566375
v 0.276295 0.092838 0.567466
v 0.265545 0.072894 0.568209
v 0.266684 0.072433 0.568392
v 0.265545 0.072894 0.568209
v 0.266684 0.072433 0.568392
v 0.257933 0.051535 0.569179
v 0.259111 0.051187 0.569357
v 0.257933 0.051535 0.569179
v 0.259111 0.051187 0.569357
v 0.252443 0.029537 0.570178
v 0.253651 0.029305 0.570351
v 0.252443 0.029537 0.570178
v 0.253651 0.029305 0.570351
v 0.249128 0.007108 0.571197
v 0.250353 0.006995 0.571364
v 0.249128 0.007108 0.571197
v 0.250353 0.006995 0.571364
v 0.249250 -0.015529 0.572387
v 0.248019 -0.015537 0.572225
v 0.249250 -0.015529 0.572387
v 0.248019 -0.015537 0.572225
v 0.250353 -0.038054 0.573409
v 0.249128 -0.038182 0.573253
v 0.250353 -0.038054 0.573409
v 0.249128 -0.038182 0.573253
v 0.253651 -0.060364 0.574422
v 0.252443 -0.060610 0.574272
v 0.253651 -0.060364 0.574422
v 0.252443 -0.060610 0.574272
v 0.259111 -0.082246 0.575416
v 0.257933 -0.082609 0.575271
v 0.259111 -0.082246 0.575416
v 0.257933 -0.082609 0.575271
v 0.266684 -0.103491 0.576381
v 0.265545 -0.103967 0.576240
v 0.266684 -0.103491 0.576381
v 0.265545 -0.103967 0.576240
v 0.276295 -0.123897 0.577308
v 0.275207 -0.124482 0.577172
v 0.276295 -0.123897 0.577308
v 0.275207 -0.124482 0.577172
v 0.290628 -0.147920 0.578398
v 0.290790 -0.150598 0.578358
v 0.290628 -0.147920 0.578398
v 0.290790 -0.150598 0.578358
v 0.290790 -0.244832 0.596907
v 0.290790 -0.150598 0.578358
v 0.290790 -0.149951 0.592598
v 0.290790 -0.245478 0.582666
v 0.290790 -0.245478 0.582666
v 0.290790 -0.244832 0.596907
v 0.290790 -0.150598 0.578358
v 0.290790 -0.149951 0.592598
v 0.290790 -0.245478 0.582666
v 0.219406 -0.245047 0.592160
v 0.219406 -0.245478 0.582666
v 0.219568 -0.244991 0.593389
v 0.220043 -0.244939 0.594533
v 0.220798 -0.244895 0.595517
v 0.221782 -0.244860 0.596271
v 0.222928 -0.244839 0.596745
v 0.224158 -0.244832 0.596907
v 0.290790 -0.244832 0.596907
v 0.290790 -0.244832 0.596907
v 0.290790 -0.245478 0.582666
v 0.224158 -0.244832 0.596907
v 0.222928 -0.244839 0.596745
v 0.221782 -0.244860 0.596271
v 0.220798 -0.244895 0.595517
v 0.220043 -0.244939 0.594533
v 0.219568 -0.244991 0.593389
v 0.219406 -0.245047 0.592160
v 0.219406 -0.245478 0.582666
v 0.219406 0.201781 0.562356
v 0.219406 -0.245047 0.592160
v 0.219406 0.202212 0.571850
v 0.219406 -0.245478 0.582666
v 0.219406 -0.245478 0.582666
v 0.219406 0.201781 0.562356
v 0.219406 -0.245047 0.592160
v 0.219406 0.202212 0.571850
v 0.219568 0.202268 0.573079
v 0.219406 0.201781 0.562356
v 0.219406 0.202212 0.571850
v 0.290790 0.201781 0.562356
v 0.220043 0.202320 0.574223
v 0.220798 0.202365 0.575207
v 0.221782 0.202399 0.575961
v 0.222928 0.202421 0.576435
v 0.224158 0.202428 0.576597
v 0.290790 0.202428 0.576597
v 0.290790 0.202428 0.576597
v 0.224158 0.202428 0.576597
v 0.290790 0.201781 0.562356
v 0.222928 0.202421 0.576435
v 0.221782 0.202399 0.575961
v 0.220798 0.202365 0.575207
v 0.220043 0.202320 0.574223
v 0.219568 0.202268 0.573079
v 0.219406 0.201781 0.562356
v 0.219406 0.202212 0.571850
v 0.290790 -0.149951 0.592598
v 0.224158 -0.244832 0.596907
v 0.290790 -0.244832 0.596907
v 0.275207 -0.123835 0.591412
v 0.265545 -0.103321 0.590481
v 0.257933 -0.081962 0.589511
v 0.252443 -0.059964 0.588512
v 0.249128 -0.037535 0.587494
v 0.224158 0.202428 0.576597
v 0.248019 -0.014890 0.586465
v 0.249128 0.007755 0.585437
v 0.252443 0.030184 0.584418
v 0.257933 0.052182 0.583419
v 0.265545 0.073541 0.582450
v 0.275207 0.094055 0.581518
v 0.290790 0.120171 0.580332
v 0.290790 0.202428 0.576597
v 0.290790 0.202428 0.576597
v 0.290790 0.120171 0.580332
v 0.224158 0.202428 0.576597
v 0.275207 0.094055 0.581518
v 0.265545 0.073541 0.582450
v 0.257933 0.052182 0.583419
v 0.252443 0.030184 0.584418
v 0.249128 0.007755 0.585437
v 0.248019 -0.014890 0.586465
v 0.249128 -0.037535 0.587494
v 0.224158 -0.244832 0.596907
v 0.252443 -0.059964 0.588512
v 0.257933 -0.081962 0.589511
v 0.265545 -0.103321 0.590481
v 0.275207 -0.123835 0.591412
v 0.290790 -0.149951 0.592598
v 0.290790 -0.244832 0.596907
v 0.290628 0.117493 0.580292
v 0.290790 0.120171 0.580332
v 0.290628 0.117493 0.580292
v 0.290790 0.120171 0.580332
v 0.290153 0.113851 0.566987
v 0.277308 0.092322 0.567964
v 0.290153 0.113851 0.566987
v 0.277308 0.092322 0.567964
v 0.267744 0.072017 0.568886
v 0.267744 0.072017 0.568886
v 0.260210 0.050878 0.569846
v 0.260210 0.050878 0.569846
v 0.254776 0.029104 0.570835
v 0.254776 0.029104 0.570835
v 0.251495 0.006905 0.571843
v 0.251495 0.006905 0.571843
v 0.250398 -0.015508 0.572861
v 0.250398 -0.015508 0.572861
v 0.251495 -0.037921 0.573879
v 0.251495 -0.037921 0.573879
v 0.254776 -0.060120 0.574887
v 0.254776 -0.060120 0.574887
v 0.260210 -0.081893 0.575875
v 0.260210 -0.081893 0.575875
v 0.267744 -0.103033 0.576835
v 0.267744 -0.103033 0.576835
v 0.277308 -0.123338 0.577757
v 0.277308 -0.123338 0.577757
v 0.290153 -0.144867 0.578735
v 0.290153 -0.144867 0.578735
v 0.290628 -0.147288 0.592315
v 0.290790 -0.149951 0.592598
v 0.290628 -0.147288 0.592315
v 0.290790 -0.149951 0.592598
v 0.224158 0.202428 0.576597
v 0.222928 -0.244839 0.596745
v 0.224158 -0.244832 0.596907
v 0.222928 0.202421 0.576435
v 0.222928 0.202421 0.576435
v 0.224158 0.202428 0.576597
v 0.222928 -0.244839 0.596745
v 0.224158 -0.244832 0.596907
v 0.221782 -0.244860 0.596271
v 0.221782 0.202399 0.575961
v 0.221782 0.202399 0.575961
v 0.221782 -0.244860 0.596271
v 0.220798 0.202365 0.575207
v 0.220798 -0.244895 0.595517
v 0.220798 0.202365 0.575207
v 0.220798 -0.244895 0.595517
v 0.220043 -0.244939 0.594533
v 0.220043 0.202320 0.574223
v 0.220043 0.202320 0.574223
v 0.220043 -0.244939 0.594533
v 0.219568 -0.244991 0.593389
v 0.219568 0.202268 0.573079
v 0.219568 0.202268 0.573079
v 0.219568 -0.244991 0.593389
v 0.219406 -0.245047 0.592160
v 0.219406 0.202212 0.571850
v 0.219406 0.202212 0.571850
v 0.219406 -0.245047 0.592160
v 0.275207 -0.123835 0.591412
v 0.276295 -0.123265 0.591224
v 0.276295 -0.123265 0.591224
v 0.275207 -0.123835 0.591412
v 0.265545 -0.103321 0.590481
v 0.266684 -0.102859 0.590298
v 0.266684 -0.102859 0.590298
v 0.265545 -0.103321 0.590481
v 0.257933 -0.081962 0.589511
v 0.259111 -0.081614 0.589333
v 0.259111 -0.081614 0.589333
v 0.257933 -0.081962 0.589511
v 0.252443 -0.059964 0.588512
v 0.253651 -0.059732 0.588339
v 0.253651 -0.059732 0.588339
v 0.252443 -0.059964 0.588512
v 0.249128 -0.037535 0.587494
v 0.250353 -0.037422 0.587326
v 0.250353 -0.037422 0.587326
v 0.249128 -0.037535 0.587494
v 0.248019 -0.014890 0.586465
v 0.249250 -0.014897 0.586303
v 0.249250 -0.014897 0.586303
v 0.248019 -0.014890 0.586465
v 0.249128 0.007755 0.585437
v 0.250353 0.007627 0.585281
v 0.250353 0.007627 0.585281
v 0.249128 0.007755 0.585437
v 0.253651 0.029937 0.584268
v 0.252443 0.030184 0.584418
v 0.252443 0.030184 0.584418
v 0.253651 0.029937 0.584268
v 0.259111 0.051819 0.583274
v 0.257933 0.052182 0.583419
v 0.257933 0.052182 0.583419
v 0.259111 0.051819 0.583274
v 0.266684 0.073065 0.582309
v 0.265545 0.073541 0.582450
v 0.265545 0.073541 0.582450
v 0.266684 0.073065 0.582309
v 0.276295 0.093470 0.581383
v 0.275207 0.094055 0.581518
v 0.275207 0.094055 0.581518
v 0.276295 0.093470 0.581383
v 0.290153 0.114440 0.579955
v 0.290153 0.114440 0.579955
v 0.278178 0.091894 0.568740
v 0.289398 0.110700 0.567886
v 0.289398 0.110700 0.567886
v 0.278178 0.091894 0.568740
v 0.268655 0.071677 0.569658
v 0.268655 0.071677 0.569658
v 0.261153 0.050627 0.570613
v 0.261153 0.050627 0.570613
v 0.255743 0.028947 0.571598
v 0.255743 0.028947 0.571598
v 0.252476 0.006843 0.572602
v 0.252476 0.006843 0.572602
v 0.251383 -0.015474 0.573615
v 0.251383 -0.015474 0.573615
v 0.252476 -0.037791 0.574629
v 0.252476 -0.037791 0.574629
v 0.255743 -0.059894 0.575632
v 0.255743 -0.059894 0.575632
v 0.261153 -0.081574 0.576617
v 0.261153 -0.081574 0.576617
v 0.268655 -0.102624 0.577573
v 0.268655 -0.102624 0.577573
v 0.278178 -0.122841 0.578491
v 0.278178 -0.122841 0.578491
v 0.289398 -0.141647 0.579345
v 0.289398 -0.141647 0.579345
v 0.290153 -0.144278 0.591703
v 0.290153 -0.144278 0.591703
v 0.277308 -0.122749 0.590726
v 0.277308 -0.122749 0.590726
v 0.267744 -0.102444 0.589804
v 0.267744 -0.102444 0.589804
v 0.260210 -0.081304 0.588844
v 0.260210 -0.081304 0.588844
v 0.254776 -0.059531 0.587855
v 0.254776 -0.059531 0.587855
v 0.251495 -0.037332 0.586847
v 0.251495 -0.037332 0.586847
v 0.250398 -0.014919 0.585829
v 0.250398 -0.014919 0.585829
v 0.251495 0.007494 0.584812
v 0.251495 0.007494 0.584812
v 0.254776 0.029693 0.583803
v 0.254776 0.029693 0.583803
v 0.260210 0.051466 0.582815
v 0.260210 0.051466 0.582815
v 0.267744 0.072606 0.581855
v 0.267744 0.072606 0.581855
v 0.277308 0.092911 0.580933
v 0.277308 0.092911 0.580933
v 0.289398 0.111220 0.579345
v 0.289398 0.111220 0.579345
v 0.278845 0.091584 0.569739
v 0.288414 0.107622 0.569011
v 0.288414 0.107622 0.569011
v 0.278845 0.091584 0.569739
v 0.269354 0.071433 0.570654
v 0.269354 0.071433 0.570654
v 0.261877 0.050454 0.571607
v 0.261877 0.050454 0.571607
v 0.256484 0.028845 0.572588
v 0.256484 0.028845 0.572588
v 0.253228 0.006814 0.573588
v 0.253228 0.006814 0.573588
v 0.252139 -0.015429 0.574598
v 0.252139 -0.015429 0.574598
v 0.253228 -0.037672 0.575608
v 0.253228 -0.037672 0.575608
v 0.256484 -0.059703 0.576609
v 0.256484 -0.059703 0.576609
v 0.261877 -0.081312 0.577590
v 0.261877 -0.081312 0.577590
v 0.269354 -0.102291 0.578543
v 0.269354 -0.102291 0.578543
v 0.278845 -0.122442 0.579458
v 0.278845 -0.122442 0.579458
v 0.288414 -0.138479 0.580186
v 0.288414 -0.138479 0.580186
v 0.289398 -0.141126 0.590804
v 0.289398 -0.141126 0.590804
v 0.278178 -0.122321 0.589950
v 0.278178 -0.122321 0.589950
v 0.268655 -0.102103 0.589032
v 0.268655 -0.102103 0.589032
v 0.261153 -0.081054 0.588077
v 0.261153 -0.081054 0.588077
v 0.255743 -0.059374 0.587092
v 0.255743 -0.059374 0.587092
v 0.252476 -0.037270 0.586088
v 0.252476 -0.037270 0.586088
v 0.251383 -0.014953 0.585075
v 0.251383 -0.014953 0.585075
v 0.252476 0.007364 0.584062
v 0.252476 0.007364 0.584062
v 0.255743 0.029468 0.583058
v 0.255743 0.029468 0.583058
v 0.261153 0.051148 0.582073
v 0.261153 0.051148 0.582073
v 0.268655 0.072197 0.581117
v 0.268655 0.072197 0.581117
v 0.278178 0.092414 0.580199
v 0.278178 0.092414 0.580199
v 0.288414 0.108053 0.578504
v 0.288414 0.108053 0.578504
v 0.279265 0.091413 0.570894
v 0.287268 0.104827 0.570285
v 0.287268 0.104827 0.570285
v 0.279265 0.091413 0.570894
v 0.269794 0.071305 0.571807
v 0.269794 0.071305 0.571807
v 0.262332 0.050369 0.572758
v 0.262332 0.050369 0.572758
v 0.256951 0.028805 0.573737
v 0.256951 0.028805 0.573737
v 0.253701 0.006820 0.574735
v 0.253701 0.006820 0.574735
v 0.252614 -0.015377 0.575743
v 0.252614 -0.015377 0.575743
v 0.253701 -0.037574 0.576751
v 0.253701 -0.037574 0.576751
v 0.256951 -0.059559 0.577749
v 0.256951 -0.059559 0.577749
v 0.262332 -0.081122 0.578729
v 0.262332 -0.081122 0.578729
v 0.269794 -0.102058 0.579679
v 0.269794 -0.102058 0.579679
v 0.279265 -0.122167 0.580592
v 0.279265 -0.122167 0.580592
v 0.287268 -0.135580 0.581201
v 0.287268 -0.135580 0.581201
v 0.288414 -0.138048 0.589680
v 0.288414 -0.138048 0.589680
v 0.278845 -0.122011 0.588951
v 0.278845 -0.122011 0.588951
v 0.269354 -0.101860 0.588036
v 0.269354 -0.101860 0.588036
v 0.261877 -0.080880 0.587084
v 0.261877 -0.080880 0.587084
v 0.256484 -0.059272 0.586102
v 0.256484 -0.059272 0.586102
v 0.253228 -0.037241 0.585102
v 0.253228 -0.037241 0.585102
v 0.252139 -0.014998 0.584092
v 0.252139 -0.014998 0.584092
v 0.253228 0.007245 0.583082
v 0.253228 0.007245 0.583082
v 0.256484 0.029276 0.582081
v 0.256484 0.029276 0.582081
v 0.261877 0.050885 0.581100
v 0.261877 0.050885 0.581100
v 0.269354 0.071865 0.580147
v 0.269354 0.071865 0.580147
v 0.278845 0.092015 0.579232
v 0.278845 0.092015 0.579232
v 0.287268 0.105154 0.577489
v 0.287268 0.105154 0.577489
v 0.279408 0.091393 0.572126
v 0.286038 0.102505 0.571621
v 0.286038 0.102505 0.571621
v 0.279408 0.091393 0.572126
v 0.269944 0.071299 0.573038
v 0.269944 0.071299 0.573038
v 0.262487 0.050378 0.573988
v 0.262487 0.050378 0.573988
v 0.257110 0.028829 0.574967
v 0.257110 0.028829 0.574967
v 0.253862 0.006860 0.575964
v 0.253862 0.006860 0.575964
v 0.252776 -0.015321 0.576972
v 0.252776 -0.015321 0.576972
v 0.253862 -0.037502 0.577979
v 0.253862 -0.037502 0.577979
v 0.257110 -0.059472 0.578976
v 0.257110 -0.059472 0.578976
v 0.262487 -0.081020 0.579955
v 0.262487 -0.081020 0.579955
v 0.269944 -0.101941 0.580905
v 0.269944 -0.101941 0.580905
v 0.279408 -0.122035 0.581817
v 0.279408 -0.122035 0.581817
v 0.286038 -0.133148 0.582322
v 0.286038 -0.133148 0.582322
v 0.287268 -0.135253 0.588405
v 0.287268 -0.135253 0.588405
v 0.279265 -0.121840 0.587796
v 0.279265 -0.121840 0.587796
v 0.269794 -0.101731 0.586883
v 0.269794 -0.101731 0.586883
v 0.262332 -0.080795 0.585932
v 0.262332 -0.080795 0.585932
v 0.256951 -0.059232 0.584953
v 0.256951 -0.059232 0.584953
v 0.253701 -0.037247 0.583955
v 0.253701 -0.037247 0.583955
v 0.252614 -0.015050 0.582947
v 0.252614 -0.015050 0.582947
v 0.253701 0.007147 0.581939
v 0.253701 0.007147 0.581939
v 0.256951 0.029132 0.580941
v 0.256951 0.029132 0.580941
v 0.262332 0.050696 0.579962
v 0.262332 0.050696 0.579962
v 0.269794 0.071632 0.579011
v 0.269794 0.071632 0.579011
v 0.279265 0.091740 0.578098
v 0.279265 0.091740 0.578098
v 0.286038 0.102721 0.576368
v 0.286038 0.102721 0.576368
v 0.286038 0.102505 0.571621
v 0.279408 0.091609 0.576873
v 0.279408 0.091393 0.572126
v 0.286038 0.102721 0.576368
v 0.286038 0.102721 0.576368
v 0.286038 0.102505 0.571621
v 0.279408 0.091609 0.576873
v 0.279408 0.091393 0.572126
v 0.269944 0.071299 0.573038
v 0.269944 0.071514 0.577785
v 0.269944 0.071299 0.573038
v 0.269944 0.071514 0.577785
v 0.262487 0.050593 0.578735
v 0.262487 0.050378 0.573988
v 0.262487 0.050593 0.578735
v 0.262487 0.050378 0.573988
v 0.257110 0.029045 0.579714
v 0.257110 0.028829 0.574967
v 0.257110 0.029045 0.579714
v 0.257110 0.028829 0.574967
v 0.253862 0.006860 0.575964
v 0.253862 0.007076 0.580711
v 0.253862 0.006860 0.575964
v 0.253862 0.007076 0.580711
v 0.252776 -0.015321 0.576972
v 0.252776 -0.015106 0.581718
v 0.252776 -0.015321 0.576972
v 0.252776 -0.015106 0.581718
v 0.253862 -0.037502 0.577979
v 0.253862 -0.037287 0.582726
v 0.253862 -0.037502 0.577979
v 0.253862 -0.037287 0.582726
v 0.257110 -0.059472 0.578976
v 0.257110 -0.059256 0.583723
v 0.257110 -0.059472 0.578976
v 0.257110 -0.059256 0.583723
v 0.262487 -0.080804 0.584702
v 0.262487 -0.081020 0.579955
v 0.262487 -0.081020 0.579955
v 0.262487 -0.080804 0.584702
v 0.269944 -0.101725 0.585652
v 0.269944 -0.101941 0.580905
v 0.269944 -0.101941 0.580905
v 0.269944 -0.101725 0.585652
v 0.279408 -0.121820 0.586564
v 0.279408 -0.122035 0.581817
v 0.279408 -0.122035 0.581817
v 0.279408 -0.121820 0.586564
v 0.286038 -0.132932 0.587069
v 0.286038 -0.133148 0.582322
v 0.286038 -0.133148 0.582322
v 0.286038 -0.132932 0.587069
v 0.286038 -0.132932 0.587069
v 0.286038 -0.132932 0.587069
v 0.279408 -0.121820 0.586564
v 0.279408 -0.121820 0.586564
v 0.269944 -0.101725 0.585652
v 0.269944 -0.101725 0.585652
v 0.262487 -0.080804 0.584702
v 0.262487 -0.080804 0.584702
v 0.257110 -0.059256 0.583723
v 0.257110 -0.059256 0.583723
v 0.253862 -0.037287 0.582726
v 0.253862 -0.037287 0.582726
v 0.252776 -0.015106 0.581718
v 0.252776 -0.015106 0.581718
v 0.253862 0.007076 0.580711
v 0.253862 0.007076 0.580711
v 0.257110 0.029045 0.579714
v 0.257110 0.029045 0.579714
v 0.262487 0.050593 0.578735
v 0.262487 0.050593 0.578735
v 0.269944 0.071514 0.577785
v 0.269944 0.071514 0.577785
v 0.279408 0.091609 0.576873
v 0.279408 0.091609 0.576873
vn 0 -0.045362987085742254 -0.9989705698381003
vn 1 0 0
vn 0.11709415219869557 -0.10239296412731658 -0.9878282443917519
vn 0.7939407086044155 -0.1510705035347553 -0.5889277155835629
vn 0.2207480054011935 -0.1576196029827227 -0.9625104564974676
vn 0.870088411574517 -0.10408391339111081 -0.4817807540956007
vn 0.122041904356527 -0.09095243051063899 -0.9883488397146221
vn 0.23204787590488757 -0.13607154794242987 -0.963139822210971
vn 0.12582321256494522 -0.07925864209986394 -0.988881482702716
vn 0.2400989596508495 -0.11329328024850777 -0.9641146831290937
vn 0.12843077336594458 -0.06754181720387255 -0.9894158071212649
vn 0.2441855432199114 -0.08983737799474308 -0.9655582147117936
vn 0.12990841044371879 -0.05607713427462424 -0.9899389677689894
vn 0.24448271225674154 -0.06655392717388582 -0.9673669304794952
vn 0.24373877886202086 -0.04399488107241357 -0.9688425352544526
vn 0.1303730798552245 -0.0449758143072142 -0.9904443629888892
vn 0.24448271225674154 -0.02139494114298486 -0.9694175879883115
vn 0.12990841044371879 -0.03387437767377832 -0.9909471890233105
vn 0.24418554321991146 0.001956612852965785 -0.9697265553487439
vn 0.12843077336594458 -0.022409463409017553 -0.9914652552673469
vn 0.2400989596508495 0.025446810956326213 -0.9704148336596738
vn 0.12582321256494522 -0.010692433091961934 -0.991995055962685
vn 0.23204787590488757 0.048219686542829585 -0.9715084380064546
vn 0.12204190435652697 0.0010015031564863904 -0.9925244433123346
vn 0.2207480054011935 0.06973609941924892 -0.9728346182929467
vn 0.11709415219869557 0.012442134995610856 -0.9930428756089131
vn 0.7939407086044155 0.09707272040191241 -0.6001958331865447
vn 0.870088411574517 0.05999051368187601 -0.489231330059634
vn 0 -0.9989705698380998 0.045362987085749006
vn -1 0 0
vn 0 0.9989705698380998 -0.045362987085748714
vn 0 0.045362987085741796 0.9989705698381003
vn 0.7939407086044155 -0.09707272040191241 0.6001958331865447
vn 0.870088411574517 -0.05999051368187601 0.489231330059634
vn 0.8343945816204936 -0.25723292057785346 -0.4874596462614613
vn 0.43353510849947424 -0.2679696756404865 -0.8603717583902215
vn 0.4552880118004376 -0.22482571730435424 -0.861490698237298
vn 0.4720241326982712 -0.17959857092552606 -0.8630976604486619
vn 0.482809491006133 -0.1329926237881544 -0.8655679969894573
vn 0.4874388170173294 -0.08606350879049193 -0.8689053297796115
vn 0.488216245971484 -0.03958930820761865 -0.8718242849595058
vn 0.4874388170173294 0.0069581755331894 -0.8731294196497996
vn 0.482809491006133 0.05399662008390886 -0.8740591286714604
vn 0.4720241326982712 0.10063464869907207 -0.8758229761953377
vn 0.4552880118004376 0.14582130130838428 -0.8783216804767682
vn 0.43353510849947413 0.18888910872114367 -0.8811175939140479
vn 0.8343945816204936 0.2119945279938349 -0.5087671395275372
vn 0.7939407086044155 0.1510705035347553 0.5889277155835629
vn 0.870088411574517 0.10408391339111081 0.4817807540956007
vn -0.13052614405338198 0.04497490073038301 0.990424244464385
vn -0.2599788107926791 0.043803149997254084 0.9646202890200591
vn -0.5018948859124845 0.039235745971238814 0.8640382397399865
vn -0.7090300305962857 0.03198899350240787 0.7044523546751286
vn -0.8673004973956302 0.0225810118377987 0.4972725058975949
vn -0.966331364184217 0.011671932242840296 0.25703591303860457
vn -0.9914448587903142 0.005921058862214241 0.13039184422426073
vn 0.11709415219869557 0.10239296412731658 0.9878282443917519
vn 0.2207480054011935 0.1576196029827227 0.9625104564974676
vn 0.122041904356527 0.09095243051063899 0.9883488397146221
vn 0.23204787590488757 0.13607154794242987 0.963139822210971
vn 0.12582321256494522 0.07925864209986394 0.988881482702716
vn 0.2400989596508495 0.11329328024850777 0.9641146831290937
vn 0.12843077336594458 0.06754181720387255 0.9894158071212649
vn 0.2441855432199114 0.08983737799474308 0.9655582147117936
vn 0.12990841044371879 0.05607713427462424 0.9899389677689894
vn 0.24448271225674154 0.06655392717388582 0.9673669304794952
vn 0.1303730798552245 0.044975814307221536 0.9904443629888888
vn 0.24373877886202086 0.04399488107241457 0.9688425352544525
vn 0.12990841044371879 0.03387437767377832 0.9909471890233105
vn 0.24448271225674154 0.02139494114298486 0.9694175879883115
vn 0.24418554321991146 -0.001956612852965785 0.9697265553487439
vn 0.12843077336594458 0.022409463409017553 0.9914652552673469
vn 0.2400989596508495 -0.025446810956326213 0.9704148336596738
vn 0.12582321256494522 0.010692433091961934 0.991995055962685
vn 0.23204787590488757 -0.048219686542829585 0.9715084380064546
vn 0.12204190435652697 -0.0010015031564863904 0.9925244433123346
vn 0.2207480054011935 -0.06973609941924892 0.9728346182929467
vn 0.11709415219869557 -0.012442134995610856 0.9930428756089131
vn 0.8343945816204936 -0.2119945279938349 0.5087671395275372
vn 0.6192652622554078 -0.36049664840194623 -0.6975332977390432
vn 0.8666602371219567 -0.33550591007592573 -0.36923680436250983
vn 0.649360911046485 -0.29838671440725983 -0.6994968019012805
vn 0.6728854669340587 -0.233528264583985 -0.7019185836187315
vn 0.6889944792974255 -0.1668006386232299 -0.7053113882906983
vn 0.6972778488228304 -0.09944914084673939 -0.709868628639026
vn 0.6994149711117401 -0.03242164434846219 -0.7139800663621538
vn 0.6972778488228304 0.03470262390578118 -0.7159604244894126
vn 0.6889944792974255 0.10218996421942782 -0.7175261798084455
vn 0.6728854669340586 0.1689504645175289 -0.7201950353399037
vn 0.649360911046485 0.2337614751479155 -0.723661509230351
vn 0.6192652622554078 0.2957937468684192 -0.7273352695128174
vn 0.8666602371219567 0.30066021803646215 -0.39812493853309483
vn 0.8343945816204936 0.25723292057785346 0.4874596462614613
vn 0.43353510849947424 0.2679696756404865 0.8603717583902215
vn 0.4552880118004376 0.22482571730435424 0.861490698237298
vn 0.4720241326982712 0.17959857092552606 0.8630976604486619
vn 0.482809491006133 0.1329926237881544 0.8655679969894573
vn 0.4874388170173294 0.08606350879049193 0.8689053297796115
vn 0.488216245971484 0.03958930820761571 0.8718242849595059
vn 0.4874388170173294 -0.0069581755331894 0.8731294196497996
vn 0.482809491006133 -0.05399662008390886 0.8740591286714604
vn 0.4720241326982712 -0.10063464869907207 0.8758229761953377
vn 0.4552880118004376 -0.14582130130838428 0.8783216804767682
vn 0.43353510849947413 -0.18888910872114367 0.8811175939140479
vn 0.8666602371219567 -0.30066021803646215 0.39812493853309483
vn 0.7623240667055283 -0.4275607036061312 -0.4858537455380736
vn 0.8823569869945082 -0.3969277871914326 -0.2527735730990996
vn 0.79879438976998 -0.3509105179497504 -0.4886607527357226
vn 0.8274403153650007 -0.2709626748514932 -0.4918554191487495
vn 0.8476145749206313 -0.18874797075937313 -0.49590698312923187
vn 0.858896176316712 -0.1057046000032915 -0.5011226355361288
vn 0.862245329002431 -0.022975938401686165 -0.5059694643632672
vn 0.858896176316712 0.059851525613707005 -0.5086404950357801
vn 0.8476145749206313 0.1430258309980947 -0.5109727429613266
vn 0.8274403153650007 0.22526937584479076 -0.5143891841934144
vn 0.79879438976998 0.3051777263577175 -0.5184535448881984
vn 0.7623240667055283 0.3817668567175547 -0.5226050941519257
vn 0.8823569869945082 0.37238467010639587 -0.2877078465591854
vn 0.8666602371219567 0.33550591007592573 0.36923680436250983
vn 0.6192652622554078 0.36049664840194623 0.6975332977390432
vn 0.649360911046485 0.29838671440725983 0.6994968019012805
vn 0.6728854669340587 0.233528264583985 0.7019185836187315
vn 0.6889944792974255 0.1668006386232299 0.7053113882906983
vn 0.6972778488228304 0.09944914084673939 0.709868628639026
vn 0.6994149711117401 0.03242164434845909 0.7139800663621539
vn 0.6972778488228304 -0.03470262390578118 0.7159604244894126
vn 0.6889944792974255 -0.10218996421942782 0.7175261798084455
vn 0.6728854669340586 -0.1689504645175289 0.7201950353399037
vn 0.649360911046485 -0.2337614751479155 0.723661509230351
vn 0.6192652622554078 -0.2957937468684192 0.7273352695128174
vn 0.8823569869945082 -0.37238467010639587 0.2877078465591854
vn 0.8522555351098791 -0.4645402626862735 -0.24054697507543396
vn 0.8823157236181652 -0.45018307478849234 -0.13731046220201923
vn 0.8927243342042785 -0.3787821067470869 -0.24406429220139128
vn 0.9245702443039164 -0.2893626235658669 -0.24786919016060674
vn 0.9473221552382747 -0.19739700920855857 -0.2522204491119355
vn 0.9606593088258059 -0.10446201325162201 -0.25733515141492636
vn 0.9649262015640788 -0.011908749700679941 -0.26225103854071774
vn 0.9606593088258059 0.08070914105216878 -0.26574372413463737
vn 0.9473221552382747 0.17372521228473922 -0.26907301018744423
vn 0.9245702443039164 0.2657066986665434 -0.27307474000998944
vn 0.8927243342042785 0.3551030146274715 -0.2773898197879825
vn 0.8522555351098792 0.4408270077168024 -0.2816594613039366
vn 0.8823157236181651 0.4358854995962331 -0.1775465997925495
vn 0.8823569869945082 0.3969277871914326 0.2527735730990996
vn 0.7623240667055283 0.4275607036061312 0.4858537455380736
vn 0.79879438976998 0.3509105179497504 0.4886607527357226
vn 0.8274403153650007 0.2709626748514932 0.4918554191487495
vn 0.8476145749206313 0.18874797075937313 0.49590698312923187
vn 0.858896176316712 0.1057046000032915 0.5011226355361288
vn 0.862245329002431 0.022975938401683688 0.5059694643632673
vn 0.858896176316712 -0.059851525613707005 0.5086404950357801
vn 0.8476145749206313 -0.1430258309980947 0.5109727429613266
vn 0.8274403153650007 -0.22526937584479076 0.5143891841934144
vn 0.79879438976998 -0.3051777263577175 0.5184535448881984
vn 0.7623240667055283 -0.3817668567175547 0.5226050941519257
vn 0.8823157236181651 -0.4358854995962331 0.1775465997925495
vn 0.8753454470526475 -0.4709519902715079 -0.1094283838110862
vn 0.8720137624279475 -0.48747653008681885 -0.044256420446867034
vn 0.9168136560825432 -0.3828664792851551 -0.1134282992041669
vn 0.9494612385780429 -0.29102212192047466 -0.11759881373021168
vn 0.9728900526993364 -0.19654003716897972 -0.12188912645637698
vn 0.9868441273009183 -0.10102232169064666 -0.1262266173670216
vn 0.9914246614916435 -0.005928014009694937 -0.1305450084686543
vn 0.9868441273009183 0.08916631034382 -0.13486303241199402
vn 0.9728900526993364 0.18468403098200872 -0.1392004096937901
vn 0.9494612385780429 0.2791661072559258 -0.14349090911072238
vn 0.9168136560825432 0.371010454357282 -0.14766164965272227
vn 0.8753454470526475 0.4590959631537108 -0.15166161327167643
vn 0.8720137624279475 0.4814591976138754 -0.08825553336340088
vn 0.8823157236181652 0.45018307478849234 0.13731046220201923
vn 0.8522555351098791 0.4645402626862735 0.24054697507543396
vn 0.8927243342042785 0.3787821067470869 0.24406429220139128
vn 0.9245702443039164 0.2893626235658669 0.24786919016060674
vn 0.9473221552382747 0.19739700920855857 0.2522204491119355
vn 0.9606593088258059 0.10446201325162201 0.25733515141492636
vn 0.9649262015640788 0.011908749700680088 0.2622510385407177
vn 0.9606593088258059 -0.08070914105216878 0.26574372413463737
vn 0.9473221552382747 -0.17372521228473922 0.26907301018744423
vn 0.9245702443039164 -0.2657066986665434 0.27307474000998944
vn 0.8927243342042785 -0.3551030146274715 0.2773898197879825
vn 0.8522555351098792 -0.4408270077168024 0.2816594613039366
vn 0.8720137624279475 -0.4814591976138754 0.08825553336340088
vn 0.8589865365861518 -0.5114711074265083 0.023225766545558645
vn 0.8846190171649828 -0.4658344420368535 0.02115341774449025
vn 0.9261092907271081 -0.37686696882751813 0.017113428519473603
vn 0.9586374140251093 -0.28433711882019236 0.01291167271437641
vn 0.9818370280355075 -0.18953094123237882 0.008606549481104285
vn 0.9955377612448844 -0.0942668664718547 0.004280633259369489
vn 0.9955377612448844 0.09426686647185512 -0.004280633259360449
vn 0.9818370280355073 0.18953094123237943 -0.008606549481090058
vn 0.9586374140251093 0.28433711882019275 -0.012911672714367991
vn 0.9261092907271081 0.37686696882751886 -0.017113428519456665
vn 0.8846190171649828 0.4658344420368547 -0.021153417744463728
vn 0.8589865365861518 0.5114711074265091 -0.023225766545538117
vn 0.8720137624279475 0.48747653008681885 0.044256420446867034
vn 0.8753454470526475 0.4709519902715079 0.1094283838110862
vn 0.9168136560825432 0.3828664792851551 0.1134282992041669
vn 0.9494612385780429 0.29102212192047466 0.11759881373021168
vn 0.9728900526993364 0.19654003716897972 0.12188912645637698
vn 0.9868441273009183 0.10102232169064666 0.1262266173670216
vn 0.9914246614916435 0.005928014009692033 0.13054500846865444
vn 0.9868441273009183 -0.08916631034382 0.13486303241199402
vn 0.9728900526993364 -0.18468403098200872 0.1392004096937901
vn 0.9494612385780429 -0.2791661072559258 0.14349090911072238
vn 0.9168136560825432 -0.371010454357282 0.14766164965272227
vn 0.8753454470526475 -0.4590959631537108 0.15166161327167643
vn 0 0.045362987085742254 0.9989705698381003
vn -0.870088411574517 0.10408391339111081 0.4817807540956007
vn -0.11709415219869557 0.10239296412731658 0.9878282443917519
vn -0.7939407086044155 0.1510705035347553 0.5889277155835629
vn -0.2207480054011935 0.1576196029827227 0.9625104564974676
vn -0.122041904356527 0.09095243051063899 0.9883488397146221
vn -0.23204787590488757 0.13607154794242987 0.963139822210971
vn -0.12582321256494522 0.07925864209986394 0.988881482702716
vn -0.2400989596508495 0.11329328024850777 0.9641146831290937
vn -0.12843077336594458 0.06754181720387255 0.9894158071212649
vn -0.2441855432199114 0.08983737799474308 0.9655582147117936
vn -0.12990841044371879 0.05607713427462424 0.9899389677689894
vn -0.24448271225674154 0.06655392717388582 0.9673669304794952
vn -0.24373877886202086 0.04399488107241357 0.9688425352544526
vn -0.1303730798552245 0.0449758143072142 0.9904443629888892
vn -0.24448271225674154 0.02139494114298486 0.9694175879883115
vn -0.12990841044371879 0.03387437767377832 0.9909471890233105
vn -0.24418554321991146 -0.001956612852965785 0.9697265553487439
vn -0.12843077336594458 0.022409463409017553 0.9914652552673469
vn -0.2400989596508495 -0.025446810956326213 0.9704148336596738
vn -0.12582321256494522 0.010692433091961934 0.991995055962685
vn -0.23204787590488757 -0.048219686542829585 0.9715084380064546
vn -0.12204190435652697 -0.0010015031564863904 0.9925244433123346
vn -0.2207480054011935 -0.06973609941924892 0.9728346182929467
vn -0.11709415219869557 -0.012442134995610856 0.9930428756089131
vn -0.7939407086044155 -0.09707272040191241 0.6001958331865447
vn -0.870088411574517 -0.05999051368187601 0.489231330059634
vn 0 0.9989705698380998 -0.045362987085749006
vn 0 -0.9989705698380998 0.045362987085748714
vn 0 -0.045362987085741796 -0.9989705698381003
vn -0.7939407086044155 0.09707272040191241 -0.6001958331865447
vn -0.870088411574517 0.05999051368187601 -0.489231330059634
vn -0.8343945816204936 0.25723292057785346 0.4874596462614613
vn -0.43353510849947424 0.2679696756404865 0.8603717583902215
vn -0.4552880118004376 0.22482571730435424 0.861490698237298
vn -0.4720241326982712 0.17959857092552606 0.8630976604486619
vn -0.482809491006133 0.1329926237881544 0.8655679969894573
vn -0.4874388170173294 0.08606350879049193 0.8689053297796115
vn -0.488216245971484 0.03958930820761865 0.8718242849595058
vn -0.4874388170173294 -0.0069581755331894 0.8731294196497996
vn -0.482809491006133 -0.05399662008390886 0.8740591286714604
vn -0.4720241326982712 -0.10063464869907207 0.8758229761953377
vn -0.4552880118004376 -0.14582130130838428 0.8783216804767682
vn -0.43353510849947413 -0.18888910872114367 0.8811175939140479
vn -0.8343945816204936 -0.2119945279938349 0.5087671395275372
vn -0.7939407086044155 -0.1510705035347553 -0.5889277155835629
vn -0.870088411574517 -0.10408391339111081 -0.4817807540956007
vn 0.2599788107926791 -0.043803149997254084 -0.9646202890200591
vn 0.13052614405338198 -0.04497490073038301 -0.990424244464385
vn 0.5018948859124845 -0.039235745971238814 -0.8640382397399865
vn 0.7090300305962857 -0.03198899350240787 -0.7044523546751286
vn 0.8673004973956302 -0.0225810118377987 -0.4972725058975949
vn 0.966331364184217 -0.011671932242840296 -0.25703591303860457
vn 0.9914448587903142 -0.005921058862214241 -0.13039184422426073
vn -0.2207480054011935 -0.1576196029827227 -0.9625104564974676
vn -0.11709415219869557 -0.10239296412731658 -0.9878282443917519
vn -0.23204787590488757 -0.13607154794242987 -0.963139822210971
vn -0.122041904356527 -0.09095243051063899 -0.9883488397146221
vn -0.2400989596508495 -0.11329328024850777 -0.9641146831290937
vn -0.12582321256494522 -0.07925864209986394 -0.988881482702716
vn -0.2441855432199114 -0.08983737799474308 -0.9655582147117936
vn -0.12843077336594458 -0.06754181720387255 -0.9894158071212649
vn -0.24448271225674154 -0.06655392717388582 -0.9673669304794952
vn -0.12990841044371879 -0.05607713427462424 -0.9899389677689894
vn -0.24373877886202086 -0.04399488107241457 -0.9688425352544525
vn -0.1303730798552245 -0.044975814307221536 -0.9904443629888888
vn -0.24448271225674154 -0.02139494114298486 -0.9694175879883115
vn -0.12990841044371879 -0.03387437767377832 -0.9909471890233105
vn -0.12843077336594458 -0.022409463409017553 -0.9914652552673469
vn -0.24418554321991146 0.001956612852965785 -0.9697265553487439
vn -0.12582321256494522 -0.010692433091961934 -0.991995055962685
vn -0.2400989596508495 0.025446810956326213 -0.9704148336596738
vn -0.12204190435652697 0.0010015031564863904 -0.9925244433123346
vn -0.23204787590488757 0.048219686542829585 -0.9715084380064546
vn -0.11709415219869557 0.012442134995610856 -0.9930428756089131
vn -0.2207480054011935 0.06973609941924892 -0.9728346182929467
vn -0.8343945816204936 0.2119945279938349 -0.5087671395275372
vn -0.8666602371219567 0.33550591007592573 0.36923680436250983
vn -0.6192652622554078 0.36049664840194623 0.6975332977390432
vn -0.649360911046485 0.29838671440725983 0.6994968019012805
vn -0.6728854669340587 0.233528264583985 0.7019185836187315
vn -0.6889944792974255 0.1668006386232299 0.7053113882906983
vn -0.6972778488228304 0.09944914084673939 0.709868628639026
vn -0.6994149711117401 0.03242164434846219 0.7139800663621538
vn -0.6972778488228304 -0.03470262390578118 0.7159604244894126
vn -0.6889944792974255 -0.10218996421942782 0.7175261798084455
vn -0.6728854669340586 -0.1689504645175289 0.7201950353399037
vn -0.649360911046485 -0.2337614751479155 0.723661509230351
vn -0.6192652622554078 -0.2957937468684192 0.7273352695128174
vn -0.8666602371219567 -0.30066021803646215 0.39812493853309483
vn -0.8343945816204936 -0.25723292057785346 -0.4874596462614613
vn -0.43353510849947424 -0.2679696756404865 -0.8603717583902215
vn -0.4552880118004376 -0.22482571730435424 -0.861490698237298
vn -0.4720241326982712 -0.17959857092552606 -0.8630976604486619
vn -0.482809491006133 -0.1329926237881544 -0.8655679969894573
vn -0.4874388170173294 -0.08606350879049193 -0.8689053297796115
vn -0.488216245971484 -0.03958930820761571 -0.8718242849595059
vn -0.4874388170173294 0.0069581755331894 -0.8731294196497996
vn -0.482809491006133 0.05399662008390886 -0.8740591286714604
vn -0.4720241326982712 0.10063464869907207 -0.8758229761953377
vn -0.4552880118004376 0.14582130130838428 -0.8783216804767682
vn -0.43353510849947413 0.18888910872114367 -0.8811175939140479
vn -0.8666602371219567 0.30066021803646215 -0.39812493853309483
vn -0.8823569869945082 0.3969277871914326 0.2527735730990996
vn -0.7623240667055283 0.4275607036061312 0.4858537455380736
vn -0.79879438976998 0.3509105179497504 0.4886607527357226
vn -0.8274403153650007 0.2709626748514932 0.4918554191487495
vn -0.8476145749206313 0.18874797075937313 0.49590698312923187
vn -0.858896176316712 0.1057046000032915 0.5011226355361288
vn -0.862245329002431 0.022975938401686165 0.5059694643632672
vn -0.858896176316712 -0.059851525613707005 0.5086404950357801
vn -0.8476145749206313 -0.1430258309980947 0.5109727429613266
vn -0.8274403153650007 -0.22526937584479076 0.5143891841934144
vn -0.79879438976998 -0.3051777263577175 0.5184535448881984
vn -0.7623240667055283 -0.3817668567175547 0.5226050941519257
vn -0.8823569869945082 -0.37238467010639587 0.2877078465591854
vn -0.8666602371219567 -0.33550591007592573 -0.36923680436250983
vn -0.6192652622554078 -0.36049664840194623 -0.6975332977390432
vn -0.649360911046485 -0.29838671440725983 -0.6994968019012805
vn -0.6728854669340587 -0.233528264583985 -0.7019185836187315
vn -0.6889944792974255 -0.1668006386232299 -0.7053113882906983
vn -0.6972778488228304 -0.09944914084673939 -0.709868628639026
vn -0.6994149711117401 -0.03242164434845909 -0.7139800663621539
vn -0.6972778488228304 0.03470262390578118 -0.7159604244894126
vn -0.6889944792974255 0.10218996421942782 -0.7175261798084455
vn -0.6728854669340586 0.1689504645175289 -0.7201950353399037
vn -0.649360911046485 0.2337614751479155 -0.723661509230351
vn -0.6192652622554078 0.2957937468684192 -0.7273352695128174
vn -0.8823569869945082 0.37238467010639587 -0.2877078465591854
vn -0.8823157236181652 0.45018307478849234 0.13731046220201923
vn -0.8522555351098791 0.4645402626862735 0.24054697507543396
vn -0.8927243342042785 0.3787821067470869 0.24406429220139128
vn -0.9245702443039164 0.2893626235658669 0.24786919016060674
vn -0.9473221552382747 0.19739700920855857 0.2522204491119355
vn -0.9606593088258059 0.10446201325162201 0.25733515141492636
vn -0.9649262015640788 0.011908749700679941 0.26225103854071774
vn -0.9606593088258059 -0.08070914105216878 0.26574372413463737
vn -0.9473221552382747 -0.17372521228473922 0.26907301018744423
vn -0.9245702443039164 -0.2657066986665434 0.27307474000998944
vn -0.8927243342042785 -0.3551030146274715 0.2773898197879825
vn -0.8522555351098792 -0.4408270077168024 0.2816594613039366
vn -0.8823157236181651 -0.4358854995962331 0.1775465997925495
vn -0.8823569869945082 -0.3969277871914326 -0.2527735730990996
vn -0.7623240667055283 -0.4275607036061312 -0.4858537455380736
vn -0.79879438976998 -0.3509105179497504 -0.4886607527357226
vn -0.8274403153650007 -0.2709626748514932 -0.4918554191487495
vn -0.8476145749206313 -0.18874797075937313 -0.49590698312923187
vn -0.858896176316712 -0.1057046000032915 -0.5011226355361288
vn -0.862245329002431 -0.022975938401683688 -0.5059694643632673
vn -0.858896176316712 0.059851525613707005 -0.5086404950357801
vn -0.8476145749206313 0.1430258309980947 -0.5109727429613266
vn -0.8274403153650007 0.22526937584479076 -0.5143891841934144
vn -0.79879438976998 0.3051777263577175 -0.5184535448881984
vn -0.7623240667055283 0.3817668567175547 -0.5226050941519257
vn -0.8823157236181651 0.4358854995962331 -0.1775465997925495
vn -0.8720137624279475 0.48747653008681885 0.044256420446867034
vn -0.8753454470526475 0.4709519902715079 0.1094283838110862
vn -0.9168136560825432 0.3828664792851551 0.1134282992041669
vn -0.9494612385780429 0.29102212192047466 0.11759881373021168
vn -0.9728900526993364 0.19654003716897972 0.12188912645637698
vn -0.9868441273009183 0.10102232169064666 0.1262266173670216
vn -0.9914246614916435 0.005928014009694937 0.1305450084686543
vn -0.9868441273009183 -0.08916631034382 0.13486303241199402
vn -0.9728900526993364 -0.18468403098200872 0.1392004096937901
vn -0.9494612385780429 -0.2791661072559258 0.14349090911072238
vn -0.9168136560825432 -0.371010454357282 0.14766164965272227
vn -0.8753454470526475 -0.4590959631537108 0.15166161327167643
vn -0.8720137624279475 -0.4814591976138754 0.08825553336340088
vn -0.8823157236181652 -0.45018307478849234 -0.13731046220201923
vn -0.8522555351098791 -0.4645402626862735 -0.24054697507543396
vn -0.8927243342042785 -0.3787821067470869 -0.24406429220139128
vn -0.9245702443039164 -0.2893626235658669 -0.24786919016060674
vn -0.9473221552382747 -0.19739700920855857 -0.2522204491119355
vn -0.9606593088258059 -0.10446201325162201 -0.25733515141492636
vn -0.9649262015640788 -0.011908749700680088 -0.2622510385407177
vn -0.9606593088258059 0.08070914105216878 -0.26574372413463737
vn -0.9473221552382747 0.17372521228473922 -0.26907301018744423
vn -0.9245702443039164 0.2657066986665434 -0.27307474000998944
vn -0.8927243342042785 0.3551030146274715 -0.2773898197879825
vn -0.8522555351098792 0.4408270077168024 -0.2816594613039366
vn -0.8720137624279475 0.4814591976138754 -0.08825553336340088
vn -0.8589865365861518 0.5114711074265083 -0.023225766545558645
vn -0.8846190171649828 0.4658344420368535 -0.02115341774449025
vn -0.9261092907271081 0.37686696882751813 -0.017113428519473603
vn -0.9586374140251093 0.28433711882019236 -0.01291167271437641
vn -0.9818370280355075 0.18953094123237882 -0.008606549481104285
vn -0.9955377612448844 0.0942668664718547 -0.004280633259369489
vn -0.9955377612448844 -0.09426686647185512 0.004280633259360449
vn -0.9818370280355073 -0.18953094123237943 0.008606549481090058
vn -0.9586374140251093 -0.28433711882019275 0.012911672714367991
vn -0.9261092907271081 -0.37686696882751886 0.017113428519456665
vn -0.8846190171649828 -0.4658344420368547 0.021153417744463728
vn -0.8589865365861518 -0.5114711074265091 0.023225766545538117
vn -0.8720137624279475 -0.48747653008681885 -0.044256420446867034
vn -0.8753454470526475 -0.4709519902715079 -0.1094283838110862
vn -0.9168136560825432 -0.3828664792851551 -0.1134282992041669
vn -0.9494612385780429 -0.29102212192047466 -0.11759881373021168
vn -0.9728900526993364 -0.19654003716897972 -0.12188912645637698
vn -0.9868441273009183 -0.10102232169064666 -0.1262266173670216
vn -0.9914246614916435 -0.005928014009692033 -0.13054500846865444
vn -0.9868441273009183 0.08916631034382 -0.13486303241199402
vn -0.9728900526993364 0.18468403098200872 -0.1392004096937901
vn -0.9494612385780429 0.2791661072559258 -0.14349090911072238
vn -0.9168136560825432 0.371010454357282 -0.14766164965272227
vn -0.8753454470526475 0.4590959631537108 -0.15166161327167643
usemtl material_0_0
f 1//1 2//1 3//1
f 2//1 1//1 4//1
f 4//1 1//1 5//1
f 3//1 2//1 6//1
f 3//1 6//1 7//1
f 3//1 7//1 8//1
f 3//1 8//1 9//1
f 4//1 5//1 10//1
f 10//1 5//1 11//1
f 11//1 5//1 12//1
f 12//1 5//1 13//1
f 13//1 5//1 14//1
f 14//1 5//1 15//1
f 15//1 5//1 16//1
f 16//1 5//1 17//1
f 35//2 36//2 37//2
f 36//2 35//2 38//2
f 43//3 44//4 45//5
f 44//4 43//3 46//6
f 51//7 45//5 52//8
f 45//5 51//7 43//3
f 55//9 52//8 56//10
f 52//8 55//9 51//7
f 59//11 56//10 60//12
f 56//10 59//11 55//9
f 63//13 60//12 64//14
f 60//12 63//13 59//11
f 63//13 67//15 68//16
f 67//15 63//13 64//14
f 68//16 71//17 72//18
f 71//17 68//16 67//15
f 72//18 75//19 76//20
f 75//19 72//18 71//17
f 76//20 79//21 80//22
f 79//21 76//20 75//19
f 80//22 83//23 84//24
f 83//23 80//22 79//21
f 84//24 87//25 88//26
f 87//25 84//24 83//23
f 88//26 91//27 92//28
f 91//27 88//26 87//25
f 95//2 96//2 97//2
f 96//2 95//2 98//2
f 103//29 104//29 105//29
f 104//29 103//29 106//29
f 106//29 103//29 107//29
f 107//29 103//29 108//29
f 108//29 103//29 109//29
f 109//29 103//29 110//29
f 110//29 103//29 111//29
f 111//29 103//29 112//29
f 123//30 124//30 125//30
f 124//30 123//30 126//30
f 131//31 132//31 133//31
f 132//31 131//31 134//31
f 134//31 131//31 135//31
f 134//31 135//31 136//31
f 134//31 136//31 137//31
f 134//31 137//31 138//31
f 134//31 138//31 139//31
f 134//31 139//31 140//31
f 151//32 152//32 153//32
f 152//32 151//32 154//32
f 152//32 154//32 155//32
f 152//32 155//32 156//32
f 152//32 156//32 157//32
f 152//32 157//32 158//32
f 152//32 158//32 159//32
f 159//32 158//32 160//32
f 159//32 160//32 161//32
f 159//32 161//32 162//32
f 159//32 162//32 163//32
f 159//32 163//32 164//32
f 159//32 164//32 165//32
f 159//32 165//32 166//32
f 159//32 166//32 167//32
f 185//33 46//6 186//34
f 46//6 185//33 44//4
f 45//5 189//35 190//36
f 189//35 45//5 44//4
f 52//8 190//36 193//37
f 190//36 52//8 45//5
f 56//10 193//37 195//38
f 193//37 56//10 52//8
f 60//12 195//38 197//39
f 195//38 60//12 56//10
f 64//14 197//39 199//40
f 197//39 64//14 60//12
f 64//14 201//41 67//15
f 201//41 64//14 199//40
f 67//15 203//42 71//17
f 203//42 67//15 201//41
f 71//17 205//43 75//19
f 205//43 71//17 203//42
f 75//19 207//44 79//21
f 207//44 75//19 205//43
f 79//21 209//45 83//23
f 209//45 79//21 207//44
f 83//23 211//46 87//25
f 211//46 83//23 209//45
f 87//25 213//47 91//27
f 213//47 87//25 211//46
f 92//28 215//48 216//49
f 215//48 92//28 91//27
f 219//50 220//51 221//50
f 220//51 219//50 222//51
f 222//51 227//52 220//51
f 227//52 222//51 228//52
f 227//52 231//53 232//53
f 231//53 227//52 228//52
f 231//53 235//54 232//53
f 235//54 231//53 236//54
f 236//54 239//55 235//54
f 239//55 236//54 240//55
f 240//55 243//56 239//55
f 243//56 240//55 244//56
f 215//48 247//57 216//49
f 247//57 215//48 248//58
f 248//58 251//59 247//57
f 251//59 248//58 252//60
f 252//60 255//61 251//59
f 255//61 252//60 256//62
f 256//62 259//63 255//61
f 259//63 256//62 260//64
f 260//64 263//65 259//63
f 263//65 260//64 264//66
f 264//66 267//67 263//65
f 267//67 264//66 268//68
f 268//68 271//69 267//67
f 271//69 268//68 272//70
f 275//71 271//69 272//70
f 271//69 275//71 276//72
f 279//73 276//72 275//71
f 276//72 279//73 280//74
f 283//75 280//74 279//73
f 280//74 283//75 284//76
f 287//77 284//76 283//75
f 284//76 287//77 288//78
f 185//33 288//78 287//77
f 288//78 185//33 186//34
f 291//79 44//4 185//33
f 44//4 291//79 189//35
f 189//35 293//80 190//36
f 293//80 189//35 294//81
f 190//36 297//82 193//37
f 297//82 190//36 293//80
f 195//38 297//82 299//83
f 297//82 195//38 193//37
f 197//39 299//83 301//84
f 299//83 197//39 195//38
f 199//40 301//84 303//85
f 301//84 199//40 197//39
f 199//40 305//86 201//41
f 305//86 199//40 303//85
f 201//41 307//87 203//42
f 307//87 201//41 305//86
f 203//42 309//88 205//43
f 309//88 203//42 307//87
f 205//43 311//89 207//44
f 311//89 205//43 309//88
f 207//44 313//90 209//45
f 313//90 207//44 311//89
f 313//90 211//46 209//45
f 211//46 313//90 315//91
f 315//91 213//47 211//46
f 213//47 315//91 317//92
f 91//27 319//93 215//48
f 319//93 91//27 213//47
f 319//93 248//58 215//48
f 248//58 319//93 321//94
f 321//94 252//60 248//58
f 252//60 321//94 323//95
f 323//95 256//62 252//60
f 256//62 323//95 325//96
f 325//96 260//64 256//62
f 260//64 325//96 327//97
f 327//97 264//66 260//64
f 264//66 327//97 329//98
f 329//98 268//68 264//66
f 268//68 329//98 331//99
f 333//100 268//68 331//99
f 268//68 333//100 272//70
f 335//101 272//70 333//100
f 272//70 335//101 275//71
f 337//102 275//71 335//101
f 275//71 337//102 279//73
f 339//103 279//73 337//102
f 279//73 339//103 283//75
f 341//104 283//75 339//103
f 283//75 341//104 287//77
f 291//79 287//77 341//104
f 287//77 291//79 185//33
f 343//105 189//35 291//79
f 189//35 343//105 294//81
f 294//81 345//106 293//80
f 345//106 294//81 346//107
f 293//80 349//108 297//82
f 349//108 293//80 345//106
f 297//82 351//109 299//83
f 351//109 297//82 349//108
f 299//83 353//110 301//84
f 353//110 299//83 351//109
f 355//111 301//84 353//110
f 301//84 355//111 303//85
f 305//86 355//111 357//112
f 355//111 305//86 303//85
f 359//113 305//86 357//112
f 305//86 359//113 307//87
f 309//88 359//113 361//114
f 359//113 309//88 307//87
f 361//114 311//89 309//88
f 311//89 361//114 363//115
f 363//115 313//90 311//89
f 313//90 363//115 365//116
f 365//116 315//91 313//90
f 315//91 365//116 367//117
f 367//117 317//92 315//91
f 317//92 367//117 369//118
f 213//47 371//119 319//93
f 371//119 213//47 317//92
f 319//93 373//120 321//94
f 373//120 319//93 371//119
f 321//94 375//121 323//95
f 375//121 321//94 373//120
f 375//121 325//96 323//95
f 325//96 375//121 377//122
f 377//122 327//97 325//96
f 327//97 377//122 379//123
f 379//123 329//98 327//97
f 329//98 379//123 381//124
f 381//124 331//99 329//98
f 331//99 381//124 383//125
f 383//125 333//100 331//99
f 333//100 383//125 385//126
f 387//127 333//100 385//126
f 333//100 387//127 335//101
f 389//128 335//101 387//127
f 335//101 389//128 337//102
f 391//129 337//102 389//128
f 337//102 391//129 339//103
f 391//129 341//104 339//103
f 341//104 391//129 393//130
f 393//130 291//79 341//104
f 291//79 393//130 343//105
f 294//81 395//131 346//107
f 395//131 294//81 343//105
f 346//107 397//132 345//106
f 397//132 346//107 398//133
f 345//106 401//134 349//108
f 401//134 345//106 397//132
f 349//108 403//135 351//109
f 403//135 349//108 401//134
f 351//109 405//136 353//110
f 405//136 351//109 403//135
f 407//137 353//110 405//136
f 353//110 407//137 355//111
f 357//112 407//137 409//138
f 407//137 357//112 355//111
f 359//113 409//138 411//139
f 409//138 359//113 357//112
f 413//140 359//113 411//139
f 359//113 413//140 361//114
f 413//140 363//115 361//114
f 363//115 413//140 415//141
f 415//141 365//116 363//115
f 365//116 415//141 417//142
f 417//142 367//117 365//116
f 367//117 417//142 419//143
f 419//143 369//118 367//117
f 369//118 419//143 421//144
f 371//119 369//118 423//145
f 369//118 371//119 317//92
f 371//119 425//146 373//120
f 425//146 371//119 423//145
f 373//120 427//147 375//121
f 427//147 373//120 425//146
f 375//121 429//148 377//122
f 429//148 375//121 427//147
f 377//122 431//149 379//123
f 431//149 377//122 429//148
f 431//149 381//124 379//123
f 381//124 431//149 433//150
f 433//150 383//125 381//124
f 383//125 433//150 435//151
f 435//151 385//126 383//125
f 385//126 435//151 437//152
f 385//126 439//153 387//127
f 439//153 385//126 437//152
f 439//153 389//128 387//127
f 389//128 439//153 441//154
f 441//154 391//129 389//128
f 391//129 441//154 443//155
f 443//155 393//130 391//129
f 393//130 443//155 445//156
f 445//156 343//105 393//130
f 343//105 445//156 395//131
f 346//107 447//157 398//133
f 447//157 346//107 395//131
f 398//133 449//158 397//132
f 449//158 398//133 450//159
f 397//132 453//160 401//134
f 453//160 397//132 449//158
f 401//134 455//161 403//135
f 455//161 401//134 453//160
f 403//135 457//162 405//136
f 457//162 403//135 455//161
f 407//137 457//162 459//163
f 457//162 407//137 405//136
f 409//138 459//163 461//164
f 459//163 409//138 407//137
f 411//139 461//164 463//165
f 461//164 411//139 409//138
f 413//140 463//165 465//166
f 463//165 413//140 411//139
f 465//166 415//141 413//140
f 415//141 465//166 467//167
f 467//167 417//142 415//141
f 417//142 467//167 469//168
f 469//168 419//143 417//142
f 419//143 469//168 471//169
f 471//169 421//144 419//143
f 421//144 471//169 473//170
f 423//145 421//144 475//171
f 421//144 423//145 369//118
f 423//145 477//172 425//146
f 477//172 423//145 475//171
f 425//146 479//173 427//147
f 479//173 425//146 477//172
f 427//147 481//174 429//148
f 481//174 427//147 479//173
f 429//148 483//175 431//149
f 483//175 429//148 481//174
f 483//175 433//150 431//149
f 433//150 483//175 485//176
f 485//176 435//151 433//150
f 435//151 485//176 487//177
f 487//177 437//152 435//151
f 437//152 487//177 489//178
f 489//178 439//153 437//152
f 439//153 489//178 491//179
f 491//179 441//154 439//153
f 441//154 491//179 493//180
f 493//180 443//155 441//154
f 443//155 493//180 495//181
f 495//181 445//156 443//155
f 445//156 495//181 497//182
f 497//182 395//131 445//156
f 395//131 497//182 447//157
f 398//133 499//183 450//159
f 499//183 398//133 447//157
f 501//184 502//185 503//185
f 502//185 501//184 504//184
f 509//186 502//185 510//186
f 502//185 509//186 503//185
f 509//186 513//187 514//187
f 513//187 509//186 510//186
f 514//187 517//188 518//188
f 517//188 514//187 513//187
f 521//189 517//188 522//189
f 517//188 521//189 518//188
f 525//2 522//189 526//2
f 522//189 525//2 521//189
f 529//190 526//2 530//190
f 526//2 529//190 525//2
f 533//191 530//190 534//191
f 530//190 533//191 529//190
f 537//192 533//191 534//191
f 533//191 537//192 538//192
f 541//193 538//192 537//192
f 538//192 541//193 542//193
f 545//194 542//193 541//193
f 542//193 545//194 546//194
f 549//195 546//194 545//194
f 546//194 549//195 550//195
f 475//171 473//170 553//196
f 473//170 475//171 421//144
f 475//171 555//197 477//172
f 555//197 475//171 553//196
f 477//172 557//198 479//173
f 557//198 477//172 555//197
f 479//173 559//199 481//174
f 559//199 479//173 557//198
f 481//174 561//200 483//175
f 561//200 481//174 559//199
f 561//200 485//176 483//175
f 485//176 561//200 563//201
f 563//201 487//177 485//176
f 487//177 563//201 565//202
f 565//202 489//178 487//177
f 489//178 565//202 567//203
f 489//178 569//204 491//179
f 569//204 489//178 567//203
f 569//204 493//180 491//179
f 493//180 569//204 571//205
f 571//205 495//181 493//180
f 495//181 571//205 573//206
f 573//206 497//182 495//181
f 497//182 573//206 575//207
f 575//207 447//157 497//182
f 447//157 575//207 499//183
usemtl material_1_0
f 18//208 19//208 20//208
f 20//208 19//208 21//208
f 21//208 19//208 22//208
f 22//208 19//208 23//208
f 23//208 19//208 24//208
f 24//208 19//208 25//208
f 25//208 19//208 26//208
f 26//208 19//208 27//208
f 28//208 29//208 30//208
f 29//208 31//208 30//208
f 31//208 32//208 30//208
f 32//208 33//208 30//208
f 19//208 34//208 27//208
f 27//208 34//208 33//208
f 30//208 33//208 34//208
f 39//30 40//30 41//30
f 42//30 41//30 40//30
f 47//209 48//210 49//211
f 50//212 49//211 48//210
f 48//210 53//213 50//212
f 54//214 50//212 53//213
f 53//213 57//215 54//214
f 58//216 54//214 57//215
f 57//215 61//217 58//216
f 62//218 58//216 61//217
f 61//217 65//219 62//218
f 66//220 62//218 65//219
f 66//220 65//219 69//221
f 70//222 69//221 65//219
f 69//221 70//222 73//223
f 74//224 73//223 70//222
f 73//223 74//224 77//225
f 78//226 77//225 74//224
f 77//225 78//226 81//227
f 82//228 81//227 78//226
f 81//227 82//228 85//229
f 86//230 85//229 82//228
f 85//229 86//230 89//231
f 90//232 89//231 86//230
f 89//231 90//232 93//233
f 94//234 93//233 90//232
f 99//30 100//30 101//30
f 102//30 101//30 100//30
f 113//235 114//235 115//235
f 115//235 114//235 116//235
f 116//235 114//235 117//235
f 117//235 114//235 118//235
f 118//235 114//235 119//235
f 119//235 114//235 120//235
f 120//235 114//235 121//235
f 122//235 121//235 114//235
f 127//2 128//2 129//2
f 130//2 129//2 128//2
f 141//236 142//236 143//236
f 142//236 144//236 143//236
f 144//236 145//236 143//236
f 145//236 146//236 143//236
f 146//236 147//236 143//236
f 147//236 148//236 143//236
f 143//236 148//236 149//236
f 150//236 149//236 148//236
f 168//237 169//237 170//237
f 169//237 171//237 170//237
f 171//237 172//237 170//237
f 172//237 173//237 170//237
f 173//237 174//237 170//237
f 174//237 175//237 170//237
f 175//237 176//237 170//237
f 176//237 177//237 170//237
f 170//237 177//237 178//237
f 177//237 179//237 178//237
f 179//237 180//237 178//237
f 180//237 181//237 178//237
f 181//237 182//237 178//237
f 182//237 183//237 178//237
f 184//237 178//237 183//237
f 49//211 187//238 47//209
f 188//239 47//209 187//238
f 49//211 50//212 191//240
f 192//241 191//240 50//212
f 50//212 54//214 192//241
f 194//242 192//241 54//214
f 54//214 58//216 194//242
f 196//243 194//242 58//216
f 58//216 62//218 196//243
f 198//244 196//243 62//218
f 62//218 66//220 198//244
f 200//245 198//244 66//220
f 200//245 66//220 202//246
f 69//221 202//246 66//220
f 202//246 69//221 204//247
f 73//223 204//247 69//221
f 204//247 73//223 206//248
f 77//225 206//248 73//223
f 206//248 77//225 208//249
f 81//227 208//249 77//225
f 208//249 81//227 210//250
f 85//229 210//250 81//227
f 210//250 85//229 212//251
f 89//231 212//251 85//229
f 212//251 89//231 214//252
f 93//233 214//252 89//231
f 93//233 94//234 217//253
f 218//254 217//253 94//234
f 223//255 224//256 225//255
f 226//256 225//255 224//256
f 229//257 223//255 230//257
f 225//255 230//257 223//255
f 229//257 230//257 233//258
f 234//258 233//258 230//257
f 237//259 233//258 238//259
f 234//258 238//259 233//258
f 241//260 237//259 242//260
f 238//259 242//260 237//259
f 245//261 241//260 246//261
f 242//260 246//261 241//260
f 249//262 217//253 250//263
f 218//254 250//263 217//253
f 253//264 249//262 254//265
f 250//263 254//265 249//262
f 257//266 253//264 258//267
f 254//265 258//267 253//264
f 261//268 257//266 262//269
f 258//267 262//269 257//266
f 265//270 261//268 266//271
f 262//269 266//271 261//268
f 269//272 265//270 270//273
f 266//271 270//273 265//270
f 273//274 269//272 274//275
f 270//273 274//275 269//272
f 277//276 278//277 274//275
f 273//274 274//275 278//277
f 281//278 282//279 277//276
f 278//277 277//276 282//279
f 285//280 286//281 281//278
f 282//279 281//278 286//281
f 289//282 290//283 285//280
f 286//281 285//280 290//283
f 188//239 187//238 289//282
f 290//283 289//282 187//238
f 191//240 292//284 49//211
f 187//238 49//211 292//284
f 295//285 191//240 296//286
f 192//241 296//286 191//240
f 296//286 192//241 298//287
f 194//242 298//287 192//241
f 194//242 196//243 298//287
f 300//288 298//287 196//243
f 196//243 198//244 300//288
f 302//289 300//288 198//244
f 198//244 200//245 302//289
f 304//290 302//289 200//245
f 304//290 200//245 306//291
f 202//246 306//291 200//245
f 306//291 202//246 308//292
f 204//247 308//292 202//246
f 308//292 204//247 310//293
f 206//248 310//293 204//247
f 310//293 206//248 312//294
f 208//249 312//294 206//248
f 312//294 208//249 314//295
f 210//250 314//295 208//249
f 316//296 314//295 212//251
f 210//250 212//251 314//295
f 318//297 316//296 214//252
f 212//251 214//252 316//296
f 214//252 93//233 320//298
f 217//253 320//298 93//233
f 322//299 320//298 249//262
f 217//253 249//262 320//298
f 324//300 322//299 253//264
f 249//262 253//264 322//299
f 326//301 324//300 257//266
f 253//264 257//266 324//300
f 328//302 326//301 261//268
f 257//266 261//268 326//301
f 330//303 328//302 265//270
f 261//268 265//270 328//302
f 332//304 330//303 269//272
f 265//270 269//272 330//303
f 273//274 334//305 269//272
f 332//304 269//272 334//305
f 278//277 336//306 273//274
f 334//305 273//274 336//306
f 282//279 338//307 278//277
f 336//306 278//277 338//307
f 286//281 340//308 282//279
f 338//307 282//279 340//308
f 290//283 342//309 286//281
f 340//308 286//281 342//309
f 187//238 292//284 290//283
f 342//309 290//283 292//284
f 295//285 344//310 191//240
f 292//284 191//240 344//310
f 347//311 295//285 348//312
f 296//286 348//312 295//285
f 348//312 296//286 350//313
f 298//287 350//313 296//286
f 350//313 298//287 352//314
f 300//288 352//314 298//287
f 352//314 300//288 354//315
f 302//289 354//315 300//288
f 304//290 356//316 302//289
f 354//315 302//289 356//316
f 304//290 306//291 356//316
f 358//317 356//316 306//291
f 308//292 360//318 306//291
f 358//317 306//291 360//318
f 308//292 310//293 360//318
f 362//319 360//318 310//293
f 364//320 362//319 312//294
f 310//293 312//294 362//319
f 366//321 364//320 314//295
f 312//294 314//295 364//320
f 368//322 366//321 316//296
f 314//295 316//296 366//321
f 370//323 368//322 318//297
f 316//296 318//297 368//322
f 318//297 214//252 372//324
f 320//298 372//324 214//252
f 372//324 320//298 374//325
f 322//299 374//325 320//298
f 374//325 322//299 376//326
f 324//300 376//326 322//299
f 378//327 376//326 326//301
f 324//300 326//301 376//326
f 380//328 378//327 328//302
f 326//301 328//302 378//327
f 382//329 380//328 330//303
f 328//302 330//303 380//328
f 384//330 382//329 332//304
f 330//303 332//304 382//329
f 386//331 384//330 334//305
f 332//304 334//305 384//330
f 336//306 388//332 334//305
f 386//331 334//305 388//332
f 338//307 390//333 336//306
f 388//332 336//306 390//333
f 340//308 392//334 338//307
f 390//333 338//307 392//334
f 394//335 392//334 342//309
f 340//308 342//309 392//334
f 344//310 394//335 292//284
f 342//309 292//284 394//335
f 344//310 295//285 396//336
f 347//311 396//336 295//285
f 399//337 347//311 400//338
f 348//312 400//338 347//311
f 400//338 348//312 402//339
f 350//313 402//339 348//312
f 402//339 350//313 404//340
f 352//314 404//340 350//313
f 404//340 352//314 406//341
f 354//315 406//341 352//314
f 356//316 408//342 354//315
f 406//341 354//315 408//342
f 356//316 358//317 408//342
f 410//343 408//342 358//317
f 358//317 360//318 410//343
f 412//344 410//343 360//318
f 362//319 414//345 360//318
f 412//344 360//318 414//345
f 416//346 414//345 364//320
f 362//319 364//320 414//345
f 418//347 416//346 366//321
f 364//320 366//321 416//346
f 420//348 418//347 368//322
f 366//321 368//322 418//347
f 422//349 420//348 370//323
f 368//322 370//323 420//348
f 318//297 372//324 370//323
f 424//350 370//323 372//324
f 424//350 372//324 426//351
f 374//325 426//351 372//324
f 426//351 374//325 428//352
f 376//326 428//352 374//325
f 428//352 376//326 430//353
f 378//327 430//353 376//326
f 430//353 378//327 432//354
f 380//328 432//354 378//327
f 434//355 432//354 382//329
f 380//328 382//329 432//354
f 436//356 434//355 384//330
f 382//329 384//330 434//355
f 438//357 436//356 386//331
f 384//330 386//331 436//356
f 438//357 386//331 440//358
f 388//332 440//358 386//331
f 442//359 440//358 390//333
f 388//332 390//333 440//358
f 444//360 442//359 392//334
f 390//333 392//334 442//359
f 446//361 444//360 394//335
f 392//334 394//335 444//360
f 396//336 446//361 344//310
f 394//335 344//310 446//361
f 396//336 347//311 448//362
f 399//337 448//362 347//311
f 451//363 399//337 452//364
f 400//338 452//364 399//337
f 452//364 400//338 454//365
f 402//339 454//365 400//338
f 454//365 402//339 456//366
f 404//340 456//366 402//339
f 456//366 404//340 458//367
f 406//341 458//367 404//340
f 406//341 408//342 458//367
f 460//368 458//367 408//342
f 408//342 410//343 460//368
f 462//369 460//368 410//343
f 410//343 412//344 462//369
f 464//370 462//369 412//344
f 412//344 414//345 464//370
f 466//371 464//370 414//345
f 468//372 466//371 416//346
f 414//345 416//346 466//371
f 470//373 468//372 418//347
f 416//346 418//347 468//372
f 472//374 470//373 420//348
f 418//347 420//348 470//373
f 474//375 472//374 422//349
f 420//348 422//349 472//374
f 370//323 424//350 422//349
f 476//376 422//349 424//350
f 476//376 424//350 478//377
f 426//351 478//377 424//350
f 478//377 426//351 480//378
f 428//352 480//378 426//351
f 480//378 428//352 482//379
f 430//353 482//379 428//352
f 482//379 430//353 484//380
f 432//354 484//380 430//353
f 486//381 484//380 434//355
f 432//354 434//355 484//380
f 488//382 486//381 436//356
f 434//355 436//356 486//381
f 490//383 488//382 438//357
f 436//356 438//357 488//382
f 492//384 490//383 440//358
f 438//357 440//358 490//383
f 494//385 492//384 442//359
f 440//358 442//359 492//384
f 496//386 494//385 444//360
f 442//359 444//360 494//385
f 498//387 496//386 446//361
f 444//360 446//361 496//386
f 448//362 498//387 396//336
f 446//361 396//336 498//387
f 448//362 399//337 500//388
f 451//363 500//388 399//337
f 505//389 506//389 507//390
f 508//390 507//390 506//389
f 508//390 511//391 507//390
f 512//391 507//390 511//391
f 512//391 511//391 515//392
f 516//392 515//392 511//391
f 515//392 516//392 519//393
f 520//393 519//393 516//392
f 520//393 523//394 519//393
f 524//394 519//393 523//394
f 523//394 527//30 524//394
f 528//30 524//394 527//30
f 527//30 531//395 528//30
f 532//395 528//30 531//395
f 531//395 535//396 532//395
f 536//396 532//395 535//396
f 539//397 540//397 535//396
f 536//396 535//396 540//397
f 543//398 544//398 539//397
f 540//397 539//397 544//398
f 547//399 548//399 543//398
f 544//398 543//398 548//399
f 551//400 552//400 547//399
f 548//399 547//399 552//400
f 422//349 476//376 474//375
f 554//401 474//375 476//376
f 554//401 476//376 556//402
f 478//377 556//402 476//376
f 556//402 478//377 558//403
f 480//378 558//403 478//377
f 558//403 480//378 560//404
f 482//379 560//404 480//378
f 560//404 482//379 562//405
f 484//380 562//405 482//379
f 564//406 562//405 486//381
f 484//380 486//381 562//405
f 566//407 564//406 488//382
f 486//381 488//382 564//406
f 568//408 566//407 490//383
f 488//382 490//383 566//407
f 568//408 490//383 570//409
f 492//384 570//409 490//383
f 572//410 570//409 494//385
f 492//384 494//385 570//409
f 574//411 572//410 496//386
f 494//385 496//386 572//410
f 576//412 574//411 498//387
f 496//386 498//387 574//411
f 500//388 576//412 448//362
f 498//387 448//362 576//412
