# SSTK version 0.8.0
# 93
mtllib original-93.mtl
o #ID693
v 0.285870 -0.061849 0.370705
v 0.292944 -0.025082 0.389712
v 0.290593 -0.062445 0.389712
v 0.288183 -0.025082 0.370705
v 0.278967 -0.098035 0.370705
v 0.285569 -0.088782 0.389712
v 0.283578 -0.099219 0.389712
v 0.280902 -0.087892 0.370705
v 0.285870 0.011684 0.370705
v 0.290593 0.012281 0.389712
v 0.272009 -0.134824 0.389712
v 0.267583 -0.133071 0.370705
v 0.283578 0.049055 0.389712
v 0.278967 0.047871 0.370705
v 0.251897 -0.166405 0.370705
v 0.256069 -0.168698 0.389712
v 0.272009 0.084660 0.389712
v 0.267583 0.082907 0.370705
v 0.232158 -0.197509 0.370705
v 0.236010 -0.200307 0.389712
v 0.256069 0.118534 0.389712
v 0.251897 0.116240 0.370705
v 0.208676 -0.225894 0.370705
v 0.212146 -0.229153 0.389712
v 0.236010 0.150143 0.389712
v 0.232158 0.147345 0.370705
v 0.184856 -0.254781 0.389712
v 0.181821 -0.251112 0.370705
v 0.212146 0.178989 0.389712
v 0.208676 0.175730 0.370705
v 0.154569 -0.276786 0.389712
v 0.152017 -0.272766 0.370705
v 0.184856 0.204616 0.389712
v 0.181821 0.200948 0.370705
v 0.121762 -0.294821 0.389712
v 0.119735 -0.290513 0.370705
v 0.154569 0.226621 0.389712
v 0.152017 0.222601 0.370705
v 0.086954 -0.308603 0.389712
v 0.085483 -0.304075 0.370705
v 0.121762 0.244657 0.389712
v 0.119735 0.240349 0.370705
v 0.050693 -0.317913 0.389712
v 0.049801 -0.313236 0.370705
v 0.086954 0.258438 0.389712
v 0.085483 0.253910 0.370705
v 0.013551 -0.322605 0.389712
v 0.013252 -0.317853 0.370705
v 0.050693 0.267749 0.389712
v 0.049801 0.263072 0.370705
v -0.023587 -0.317853 0.370705
v -0.023886 -0.322605 0.389712
v 0.013551 0.272441 0.389712
v 0.013252 0.267689 0.370705
v -0.060136 -0.313236 0.370705
v -0.061028 -0.317913 0.389712
v -0.023587 0.267689 0.370705
v -0.023886 0.272441 0.389712
v -0.095817 -0.304075 0.370705
v -0.097289 -0.308603 0.389712
v -0.060136 0.263072 0.370705
v -0.061028 0.267749 0.389712
v -0.130070 -0.290513 0.370705
v -0.132097 -0.294821 0.389712
v -0.095817 0.253910 0.370705
v -0.097289 0.258438 0.389712
v -0.162352 -0.272766 0.370705
v -0.164903 -0.276786 0.389712
v -0.130070 0.240349 0.370705
v -0.132097 0.244657 0.389712
v -0.192156 -0.251112 0.370705
v -0.195190 -0.254781 0.389712
v -0.162352 0.222601 0.370705
v -0.164903 0.226621 0.389712
v -0.219010 -0.225894 0.370705
v -0.222481 -0.229153 0.389712
v -0.192156 0.200948 0.370705
v -0.195190 0.204616 0.389712
v -0.242492 -0.197509 0.370705
v -0.246344 -0.200307 0.389712
v -0.219010 0.175730 0.370705
v -0.222481 0.178989 0.389712
v -0.262232 -0.166405 0.370705
v -0.266404 -0.168698 0.389712
v -0.246344 0.150143 0.389712
v -0.242492 0.147345 0.370705
v -0.277917 -0.133071 0.370705
v -0.282344 -0.134824 0.389712
v -0.266404 0.118534 0.389712
v -0.262232 0.116240 0.370705
v -0.289301 -0.098035 0.370705
v -0.293913 -0.099219 0.389712
v -0.282344 0.084660 0.389712
v -0.277917 0.082907 0.370705
v -0.296204 -0.061849 0.370705
v -0.295904 -0.088782 0.389712
v -0.300928 -0.062445 0.389712
v -0.291236 -0.087892 0.370705
v -0.293913 0.049055 0.389712
v -0.289301 0.047871 0.370705
v -0.298517 -0.025082 0.370705
v -0.303278 -0.025082 0.389712
v -0.300928 0.012281 0.389712
v -0.296204 0.011684 0.370705
vn 0.9623806021934677 -0.12157690027709925 -0.24298690055381825
vn 0.9700295716519678 0 -0.2429868928989791
vn 0.9395543163706301 -0.24123650420326262 -0.2429869042337614
vn 0.9529586102343564 -0.18178660195230809 -0.24253560260472573
vn 0.9623806021934677 0.12157690027709936 -0.2429869005538182
vn 0.9019106880248855 -0.3570916952587168 -0.24298689677374283
vn 0.9395543163706301 0.24123650420326273 -0.2429869042337613
vn 0.8500433978454545 -0.4673152988155285 -0.24298689938411822
vn 0.9019106880248855 0.3570916952587169 -0.24298689677374266
vn 0.7847703933755257 -0.5701690951870374 -0.24298689794887732
vn 0.8500433978454547 0.46731529881552875 -0.24298689938411805
vn 0.7071211283585171 -0.6640309266304197 -0.24298690974479234
vn 0.7847703933755257 0.5701690951870374 -0.24298689794887704
vn 0.6183201207322802 -0.7474206250610215 -0.24298690814735377
vn 0.7071211283585171 0.6640309266304197 -0.24298690974479206
vn 0.5197677901706558 -0.81902308451143 -0.24298689540486776
vn 0.6183201207322804 0.7474206250610216 -0.2429869081473535
vn 0.4130184992576282 -0.8777089984223795 -0.24298689956324826
vn 0.5197677901706558 0.81902308451143 -0.24298689540486737
vn 0.2997556139983807 -0.922552943082587 -0.24298691134732156
vn 0.4130184992576282 0.8777089984223795 -0.24298689956324787
vn 0.18176539694597238 -0.9528476839902249 -0.2429868959173272
vn 0.2997556139983807 0.922552943082587 -0.24298691134732117
vn 0.06090866224899863 -0.9681154357468085 -0.2429869089720775
vn 0.18176539694597238 0.9528476839902249 -0.24298689591732675
vn -0.06090866224899863 -0.9681154357468085 -0.2429869089720775
vn 0.06090866224899863 0.9681154357468085 -0.24298690897207706
vn -0.18176539694597238 -0.9528476839902249 -0.2429868959173272
vn -0.06090866224899863 0.9681154357468085 -0.24298690897207706
vn -0.2997556139983807 -0.922552943082587 -0.24298691134732156
vn -0.18176539694597238 0.9528476839902249 -0.24298689591732675
vn -0.4130184992576282 -0.8777089984223795 -0.24298689956324826
vn -0.2997556139983807 0.922552943082587 -0.24298691134732117
vn -0.5197677901706558 -0.81902308451143 -0.24298689540486776
vn -0.4130184992576282 0.8777089984223795 -0.24298689956324787
vn -0.6183201207322802 -0.7474206250610215 -0.24298690814735377
vn -0.5197677901706558 0.81902308451143 -0.24298689540486737
vn -0.7071211283585171 -0.6640309266304197 -0.24298690974479234
vn -0.6183201207322804 0.7474206250610216 -0.2429869081473535
vn -0.7847703933755257 -0.5701690951870374 -0.24298689794887732
vn -0.7071211283585171 0.6640309266304197 -0.24298690974479206
vn -0.8500433978454545 -0.4673152988155285 -0.24298689938411822
vn -0.7847703933755257 0.5701690951870374 -0.24298689794887704
vn -0.9019106880248855 -0.3570916952587168 -0.24298689677374283
vn -0.8500433978454547 0.46731529881552875 -0.24298689938411805
vn -0.9395543163706301 -0.24123650420326262 -0.2429869042337614
vn -0.9019106880248855 0.3570916952587169 -0.24298689677374266
vn -0.9623806021934677 -0.12157690027709925 -0.24298690055381825
vn -0.9529586102343564 -0.18178660195230809 -0.24253560260472573
vn -0.9395543163706301 0.24123650420326273 -0.2429869042337613
vn -0.9700295716519678 0 -0.2429868928989791
vn -0.9623806021934677 0.12157690027709936 -0.2429869005538182
usemtl material_0_0
f 1//1 2//2 3//1
f 2//2 1//1 4//2
f 5//3 6//4 7//3
f 6//4 5//3 3//1
f 3//1 5//3 8//4
f 3//1 8//4 1//1
f 2//2 9//5 10//5
f 9//5 2//2 4//2
f 11//6 5//3 7//3
f 5//3 11//6 12//6
f 9//5 13//7 10//5
f 13//7 9//5 14//7
f 15//8 11//6 16//8
f 11//6 15//8 12//6
f 14//7 17//9 13//7
f 17//9 14//7 18//9
f 19//10 16//8 20//10
f 16//8 19//10 15//8
f 18//9 21//11 17//9
f 21//11 18//9 22//11
f 23//12 20//10 24//12
f 20//10 23//12 19//10
f 22//11 25//13 21//11
f 25//13 22//11 26//13
f 23//12 27//14 28//14
f 27//14 23//12 24//12
f 26//13 29//15 25//13
f 29//15 26//13 30//15
f 28//14 31//16 32//16
f 31//16 28//14 27//14
f 33//17 30//15 34//17
f 30//15 33//17 29//15
f 32//16 35//18 36//18
f 35//18 32//16 31//16
f 37//19 34//17 38//19
f 34//17 37//19 33//17
f 36//18 39//20 40//20
f 39//20 36//18 35//18
f 41//21 38//19 42//21
f 38//19 41//21 37//19
f 40//20 43//22 44//22
f 43//22 40//20 39//20
f 45//23 42//21 46//23
f 42//21 45//23 41//21
f 44//22 47//24 48//24
f 47//24 44//22 43//22
f 49//25 46//23 50//25
f 46//23 49//25 45//23
f 51//26 47//24 52//26
f 47//24 51//26 48//24
f 53//27 50//25 54//27
f 50//25 53//27 49//25
f 55//28 52//26 56//28
f 52//26 55//28 51//26
f 53//27 57//29 58//29
f 57//29 53//27 54//27
f 59//30 56//28 60//30
f 56//28 59//30 55//28
f 58//29 61//31 62//31
f 61//31 58//29 57//29
f 63//32 60//30 64//32
f 60//30 63//32 59//30
f 62//31 65//33 66//33
f 65//33 62//31 61//31
f 67//34 64//32 68//34
f 64//32 67//34 63//32
f 66//33 69//35 70//35
f 69//35 66//33 65//33
f 71//36 68//34 72//36
f 68//34 71//36 67//34
f 70//35 73//37 74//37
f 73//37 70//35 69//35
f 75//38 72//36 76//38
f 72//36 75//38 71//36
f 74//37 77//39 78//39
f 77//39 74//37 73//37
f 79//40 76//38 80//40
f 76//38 79//40 75//38
f 78//39 81//41 82//41
f 81//41 78//39 77//39
f 83//42 80//40 84//42
f 80//40 83//42 79//40
f 81//41 85//43 82//41
f 85//43 81//41 86//43
f 87//44 84//42 88//44
f 84//42 87//44 83//42
f 86//43 89//45 85//43
f 89//45 86//43 90//45
f 91//46 88//44 92//46
f 88//44 91//46 87//44
f 90//45 93//47 89//45
f 93//47 90//45 94//47
f 95//48 96//49 97//48
f 96//49 95//48 92//46
f 92//46 95//48 91//46
f 91//46 95//48 98//49
f 94//47 99//50 93//47
f 99//50 94//47 100//50
f 101//51 97//48 102//51
f 97//48 101//51 95//48
f 100//50 103//52 99//50
f 103//52 100//50 104//52
f 104//52 102//51 103//52
f 102//51 104//52 101//51
