# SSTK version 0.8.0
# 38
mtllib original-38.mtl
o #ID308
v 0.112843 0.470323 0.460299
v 0.114230 0.475519 0.459399
v 0.112188 0.471033 0.461084
v 0.114964 0.474984 0.458549
v 0.115922 0.474471 0.457935
v 0.113697 0.469583 0.459771
v 0.114926 0.480335 0.457591
v 0.115689 0.479989 0.456670
v 0.113768 0.476041 0.460427
v 0.111776 0.471665 0.462071
v 0.108942 0.467183 0.462530
v 0.109473 0.466326 0.461799
v 0.116682 0.479723 0.455963
v 0.116233 0.479843 0.456281
v 0.110166 0.465395 0.461343
v 0.114230 0.485151 0.455783
v 0.114964 0.484994 0.454790
v 0.114447 0.480738 0.458664
v 0.108608 0.467907 0.463482
v 0.104715 0.464231 0.463638
v 0.105088 0.463264 0.462950
v 0.115922 0.484975 0.453991
v 0.105574 0.462188 0.462546
v 0.112188 0.489636 0.454098
v 0.112843 0.489654 0.453039
v 0.113768 0.485434 0.456900
v 0.104480 0.465025 0.464564
v 0.099795 0.462376 0.464334
v 0.099987 0.461341 0.463671
v 0.113697 0.489863 0.452155
v 0.100238 0.460177 0.463302
v 0.109473 0.493651 0.451539
v 0.108942 0.493486 0.452652
v 0.111776 0.489811 0.455257
v 0.099674 0.463213 0.465244
v 0.094517 0.461744 0.464572
v 0.094517 0.460685 0.463918
v 0.110166 0.494052 0.450582
v 0.094517 0.459908 0.463685
v 0.094517 0.459491 0.463560
v 0.105088 0.496714 0.450389
v 0.104715 0.496438 0.451544
v 0.108608 0.493568 0.453846
v 0.094517 0.462595 0.465477
v 0.089047 0.461341 0.463671
v 0.089239 0.462376 0.464334
v 0.105574 0.497258 0.449378
v 0.088797 0.460177 0.463302
v 0.099987 0.498637 0.449667
v 0.099795 0.498293 0.450848
v 0.104480 0.496451 0.452763
v 0.089360 0.463213 0.465244
v 0.083946 0.463264 0.462950
v 0.084319 0.464231 0.463638
v 0.100238 0.499270 0.448622
v 0.083460 0.462188 0.462546
v 0.094517 0.499292 0.449421
v 0.094517 0.498925 0.450610
v 0.099674 0.498262 0.452082
v 0.084554 0.465025 0.464564
v 0.079561 0.466326 0.461799
v 0.080092 0.467183 0.462530
v 0.094517 0.499956 0.448365
v 0.094517 0.499724 0.448734
v 0.078868 0.465395 0.461343
v 0.089239 0.498293 0.450848
v 0.089047 0.498637 0.449667
v 0.094517 0.498880 0.451851
v 0.080426 0.467907 0.463482
v 0.076191 0.470323 0.460299
v 0.076846 0.471033 0.461084
v 0.088797 0.499270 0.448622
v 0.075337 0.469583 0.459771
v 0.084319 0.496438 0.451544
v 0.083946 0.496714 0.450389
v 0.089360 0.498262 0.452082
v 0.077258 0.471665 0.462071
v 0.074804 0.475519 0.459399
v 0.074070 0.474984 0.458549
v 0.083460 0.497258 0.449378
v 0.073112 0.474471 0.457935
v 0.080092 0.493486 0.452652
v 0.079561 0.493651 0.451539
v 0.084554 0.496451 0.452763
v 0.075266 0.476041 0.460427
v 0.074108 0.480335 0.457591
v 0.073346 0.479989 0.456670
v 0.078868 0.494052 0.450582
v 0.072352 0.479723 0.455963
v 0.072801 0.479843 0.456281
v 0.076846 0.489636 0.454098
v 0.076191 0.489654 0.453039
v 0.080426 0.493568 0.453846
v 0.074587 0.480738 0.458664
v 0.074804 0.485151 0.455783
v 0.074070 0.484994 0.454790
v 0.075337 0.489863 0.452155
v 0.073112 0.484975 0.453991
v 0.077258 0.489811 0.455257
v 0.075266 0.485434 0.456900
vn 0.6006772148303989 -0.08205847202597993 0.7952693196347738
vn 0.8303431789102629 -0.035397469100946176 0.5561269858750307
vn 0.7407491646494173 -0.23283908888827992 0.630140169927982
vn 0.6732645015371865 0.07807327017825545 0.7352683016787526
vn 0.47077531056113336 0.1854258041597478 0.862547319349947
vn 0.420077914330248 0.07342154250465162 0.9045130308559332
vn 0.8612204303973743 0.1786646063060915 0.47579231679342093
vn 0.6982755836919344 0.2516436941229193 0.6701392843490513
vn 0.9292266391908777 -0.14491700611199088 0.33990721433585896
vn 0.8284041987622731 -0.36634469945264087 0.42371929936691677
vn 0.6007426378185494 -0.39940732514388827 0.6925186435961238
vn 0.48720747939398634 -0.21720079081368296 0.8458443642257535
vn 0.4882386178170578 0.3067940111956866 0.817007029814646
vn 0.6052779878716305 0.2798320943928125 0.7452063850677895
vn 0.34078729074057634 -0.02115090942531554 0.9399024744622072
vn 0.8303431880264138 0.3926951943373176 0.3953740942986879
vn 0.6732645216307137 0.4251823136603022 0.6049255194351111
vn 0.9633641137784325 0.09428239134846575 0.25107850359102873
vn 0.6718831331605342 -0.5521890272530776 0.493619624362407
vn 0.4219609954764347 -0.5246507943755652 0.7393851920735393
vn 0.3422562824707323 -0.31885578366923095 0.8838504547320178
vn 0.4707752966076426 0.428139296914873 0.7714060944413288
vn 0.2394412999412804 -0.09232845997735796 0.9665108997629769
vn 0.7407491630737848 0.5900525705859834 0.321136483991403
vn 0.6006772027622201 0.5852285026911791 0.5446967025047934
vn 0.9289434145443138 0.3333801052196773 0.1610026025207913
vn 0.47164780970031217 -0.6924344142411984 0.5459697112288798
vn 0.21736870799516683 -0.6020223221433388 0.7683228282601356
vn 0.17632520053900144 -0.3816760011667304 0.9073218027735557
vn 0.4200779069294099 0.5400824089089482 0.7292774120298212
vn 0.12337230118876492 -0.1363348013136665 0.98295070947131
vn 0.4872074977504315 0.7202574966743767 0.49381979771990087
vn 0.6007426366548507 0.75650924615909 0.25846091577022473
vn 0.8285357193960767 0.5544528129797776 0.0781705818299787
vn 0.2430776025026565 -0.7786369080166199 0.5784789059558508
vn 0 -0.6281500332288741 0.7780922411607538
vn 0 -0.4028938129048243 0.9152467293156598
vn 0.3407873125571931 0.6345736233825121 0.6936716255601317
vn 0 -0.2872568934461524 0.9578535781462978
vn 0 -0.15120199787467398 0.9885028861054009
vn 0.34225631210096846 0.8218030290560382 0.4555221161056454
vn 0.42196101358180915 0.881645028377822 0.21130770680143646
vn 0.6718831261145869 0.7406122287859328 0.008160356317174874
vn 0 -0.8078302363430392 0.5894152265168837
vn -0.17632520053900144 -0.3816760011667304 0.9073218027735557
vn -0.21736870799516683 -0.6020223221433388 0.7683228282601356
vn 0.2394412906041252 0.705672572308823 0.6668538738321012
vn -0.12337230118876492 -0.1363348013136665 0.98295070947131
vn 0.176325204469099 0.8845454224194894 0.4318435109454088
vn 0.21736868993170202 0.9589401555828614 0.1821664915622325
vn 0.4718934900494358 0.8805326814326809 -0.044482929062012205
vn -0.24339429807712545 -0.7792127938440283 0.5775695954370585
vn -0.3422562824707323 -0.31885578366923095 0.8838504547320178
vn -0.4219609954764347 -0.5246507943755652 0.7393851920735393
vn 0.12337229587848327 0.7496229749572332 0.6502650782764975
vn -0.2394412999412804 -0.09232845997735796 0.9665108997629769
vn 0 0.9057352050471912 0.4238440023618624
vn 0 0.985040359771642 0.17232379296241726
vn 0.24307760670304818 0.9669455266642516 -0.07700406212344484
vn -0.47189351075495817 -0.6921765157754437 0.5460844124458482
vn -0.48720747939398634 -0.21720079081368296 0.8458443642257535
vn -0.6007426378185494 -0.39940732514388827 0.6925186435961238
vn 0 0.7644700515846673 0.644659243500112
vn 0 0.846723613595858 0.532033008542865
vn -0.34078729074057634 -0.02115090942531554 0.9399024744622072
vn -0.21736868993170202 0.9589401555828614 0.1821664915622325
vn -0.176325204469099 0.8845454224194894 0.4318435109454088
vn 0 0.9961217130056388 -0.08798598114876893
vn -0.6718831331605342 -0.5521890272530776 0.493619624362407
vn -0.6006772148303989 -0.08205847202597993 0.7952693196347738
vn -0.7407491646494173 -0.23283908888827992 0.630140169927982
vn -0.12337229587848327 0.7496229749572332 0.6502650782764975
vn -0.420077914330248 0.07342154250465162 0.9045130308559332
vn -0.42196101358180915 0.881645028377822 0.21130770680143646
vn -0.34225631210096846 0.8218030290560382 0.4555221161056454
vn -0.24323200858853944 0.9668085341380777 -0.07822690276219726
vn -0.8285356782970137 -0.3659601904138963 0.42379448889896204
vn -0.8303431789102629 -0.035397469100946176 0.5561269858750307
vn -0.6732645015371865 0.07807327017825545 0.7352683016787526
vn -0.2394412906041252 0.705672572308823 0.6668538738321012
vn -0.47077531056113336 0.1854258041597478 0.862547319349947
vn -0.6007426366548507 0.75650924615909 0.25846091577022473
vn -0.4872074977504315 0.7202574966743767 0.49381979771990087
vn -0.4718934900494358 0.8805326814326809 -0.044482929062012205
vn -0.9287885395327472 -0.14543580619029714 0.34088161450920856
vn -0.8612204303973743 0.1786646063060915 0.47579231679342093
vn -0.6982755836919344 0.2516436941229193 0.6701392843490513
vn -0.3407873125571931 0.6345736233825121 0.6936716255601317
vn -0.4882386178170578 0.3067940111956866 0.817007029814646
vn -0.6052779878716305 0.2798320943928125 0.7452063850677895
vn -0.7407491630737848 0.5900525705859834 0.321136483991403
vn -0.6006772027622201 0.5852285026911791 0.5446967025047934
vn -0.6718831261145869 0.7406122287859328 0.008160356317174874
vn -0.963726145143206 0.09346529437813482 0.24999231171022962
vn -0.8303431880264138 0.3926951943373176 0.3953740942986879
vn -0.6732645216307137 0.4251823136603022 0.6049255194351111
vn -0.4200779069294099 0.5400824089089482 0.7292774120298212
vn -0.4707752966076426 0.428139296914873 0.7714060944413288
vn -0.8286723436374306 0.554263129187192 0.07806747411099045
vn -0.928803769522006 0.3337001890498804 0.16114509471214558
usemtl material_0_0
f 1//1 2//2 3//3
f 2//2 1//1 4//4
f 5//5 1//1 6//6
f 1//1 5//5 4//4
f 4//4 7//7 2//2
f 7//7 4//4 8//8
f 3//3 9//9 10//10
f 9//9 3//3 2//2
f 1//1 11//11 12//12
f 11//11 1//1 3//3
f 13//13 4//4 5//5
f 4//4 13//13 14//14
f 4//4 14//14 8//8
f 6//6 12//12 15//15
f 12//12 6//6 1//1
f 8//8 16//16 7//7
f 16//16 8//8 17//17
f 2//2 18//18 9//9
f 18//18 2//2 7//7
f 11//11 10//10 19//19
f 10//10 11//11 3//3
f 12//12 20//20 21//21
f 20//20 12//12 11//11
f 22//22 14//14 13//13
f 14//14 22//22 8//8
f 8//8 22//22 17//17
f 15//15 21//21 23//23
f 21//21 15//15 12//12
f 17//17 24//24 16//16
f 24//24 17//17 25//25
f 7//7 26//26 18//18
f 26//26 7//7 16//16
f 11//11 27//27 20//20
f 27//27 11//11 19//19
f 21//21 28//28 29//29
f 28//28 21//21 20//20
f 30//30 17//17 22//22
f 17//17 30//30 25//25
f 23//23 29//29 31//31
f 29//29 23//23 21//21
f 24//24 32//32 33//33
f 32//32 24//24 25//25
f 16//16 34//34 26//26
f 34//34 16//16 24//24
f 28//28 27//27 35//35
f 27//27 28//28 20//20
f 29//29 36//36 37//37
f 36//36 29//29 28//28
f 25//25 38//38 32//32
f 38//38 25//25 30//30
f 31//31 39//39 40//40
f 39//39 31//31 37//37
f 37//37 31//31 29//29
f 33//33 41//41 42//42
f 41//41 33//33 32//32
f 24//24 43//43 34//34
f 43//43 24//24 33//33
f 28//28 44//44 36//36
f 44//44 28//28 35//35
f 36//36 45//45 37//37
f 45//45 36//36 46//46
f 32//32 47//47 41//41
f 47//47 32//32 38//38
f 39//39 48//48 40//40
f 48//48 39//39 37//37
f 48//48 37//37 45//45
f 42//42 49//49 50//50
f 49//49 42//42 41//41
f 43//43 42//42 51//51
f 42//42 43//43 33//33
f 36//36 52//52 46//46
f 52//52 36//36 44//44
f 46//46 53//53 45//45
f 53//53 46//46 54//54
f 41//41 55//55 49//49
f 55//55 41//41 47//47
f 45//45 56//56 48//48
f 56//56 45//45 53//53
f 50//50 57//57 58//58
f 57//57 50//50 49//49
f 51//51 50//50 59//59
f 50//50 51//51 42//42
f 46//46 60//60 54//54
f 60//60 46//46 52//52
f 54//54 61//61 53//53
f 61//61 54//54 62//62
f 57//57 63//63 64//64
f 63//63 57//57 49//49
f 63//63 49//49 55//55
f 53//53 65//65 56//56
f 65//65 53//53 61//61
f 66//66 57//57 67//67
f 57//57 66//66 58//58
f 68//68 50//50 58//58
f 50//50 68//68 59//59
f 60//60 62//62 54//54
f 62//62 60//60 69//69
f 62//62 70//70 61//61
f 70//70 62//62 71//71
f 57//57 64//64 67//67
f 67//67 63//63 72//72
f 63//63 67//67 64//64
f 61//61 73//73 65//65
f 73//73 61//61 70//70
f 74//74 67//67 75//75
f 67//67 74//74 66//66
f 76//76 58//58 66//66
f 58//58 76//76 68//68
f 77//77 62//62 69//69
f 62//62 77//77 71//71
f 78//78 70//70 71//71
f 70//70 78//78 79//79
f 75//75 72//72 80//80
f 72//72 75//75 67//67
f 70//70 81//81 73//73
f 81//81 70//70 79//79
f 82//82 75//75 83//83
f 75//75 82//82 74//74
f 84//84 66//66 74//74
f 66//66 84//84 76//76
f 85//85 71//71 77//77
f 71//71 85//85 78//78
f 86//86 79//79 78//78
f 79//79 86//86 87//87
f 83//83 80//80 88//88
f 80//80 83//83 75//75
f 79//79 89//89 81//81
f 89//89 79//79 90//90
f 90//90 79//79 87//87
f 91//91 83//83 92//92
f 83//83 91//91 82//82
f 93//93 74//74 82//82
f 74//74 93//93 84//84
f 94//94 78//78 85//85
f 78//78 94//94 86//86
f 95//95 87//87 86//86
f 87//87 95//95 96//96
f 92//92 88//88 97//97
f 88//88 92//92 83//83
f 90//90 98//98 89//89
f 98//98 90//90 87//87
f 98//98 87//87 96//96
f 91//91 96//96 95//95
f 96//96 91//91 92//92
f 93//93 91//91 99//99
f 91//91 93//93 82//82
f 100//100 86//86 94//94
f 86//86 100//100 95//95
f 96//96 97//97 98//98
f 97//97 96//96 92//92
f 99//99 95//95 100//100
f 95//95 99//99 91//91
