# SSTK version 0.8.0
# 86
mtllib original-86.mtl
o #ID639
v -0.023587 0.267689 0.370705
v -0.060136 0.263072 0.521334
v -0.060136 0.263072 0.370705
v -0.023587 0.267689 0.521334
v -0.023587 0.267689 0.521334
v -0.023587 0.267689 0.370705
v -0.060136 0.263072 0.521334
v -0.060136 0.263072 0.370705
v 0.013252 0.267689 0.370705
v 0.013252 0.267689 0.521334
v 0.013252 0.267689 0.521334
v 0.013252 0.267689 0.370705
v -0.023587 0.267689 0.521334
v -0.060126 0.263024 0.521703
v -0.060136 0.263072 0.521334
v -0.023584 0.267640 0.521703
v -0.023584 0.267640 0.521703
v -0.023587 0.267689 0.521334
v -0.060126 0.263024 0.521703
v -0.060136 0.263072 0.521334
v -0.095817 0.253910 0.521334
v -0.095817 0.253910 0.370705
v -0.095817 0.253910 0.521334
v -0.095817 0.253910 0.370705
v 0.049801 0.263072 0.521334
v 0.049801 0.263072 0.370705
v 0.049801 0.263072 0.370705
v 0.049801 0.263072 0.521334
v 0.013252 0.267689 0.521334
v 0.013249 0.267640 0.521703
v 0.013249 0.267640 0.521703
v 0.013252 0.267689 0.521334
v -0.060100 0.262884 0.522047
v -0.023575 0.267498 0.522047
v -0.023575 0.267498 0.522047
v -0.060100 0.262884 0.522047
v -0.095802 0.253864 0.521703
v -0.095817 0.253910 0.521334
v -0.095802 0.253864 0.521703
v -0.095817 0.253910 0.521334
v -0.130070 0.240349 0.370705
v -0.130070 0.240349 0.521334
v -0.130070 0.240349 0.370705
v -0.130070 0.240349 0.521334
v 0.085483 0.253910 0.370705
v 0.085483 0.253910 0.521334
v 0.085483 0.253910 0.521334
v 0.085483 0.253910 0.370705
v 0.049792 0.263024 0.521703
v 0.049801 0.263072 0.521334
v 0.049801 0.263072 0.521334
v 0.049792 0.263024 0.521703
v 0.013240 0.267498 0.522047
v 0.013240 0.267498 0.522047
v -0.060057 0.262661 0.522341
v -0.023561 0.267272 0.522341
v -0.023561 0.267272 0.522341
v -0.060057 0.262661 0.522341
v -0.095758 0.253728 0.522047
v -0.095758 0.253728 0.522047
v -0.130049 0.240305 0.521703
v -0.130070 0.240349 0.521334
v -0.130049 0.240305 0.521703
v -0.130070 0.240349 0.521334
v -0.162352 0.222601 0.370705
v -0.162352 0.222601 0.521334
v -0.162352 0.222601 0.370705
v -0.162352 0.222601 0.521334
v 0.119735 0.240349 0.521334
v 0.119735 0.240349 0.370705
v 0.119735 0.240349 0.370705
v 0.119735 0.240349 0.521334
v 0.085468 0.253864 0.521703
v 0.085483 0.253910 0.521334
v 0.085483 0.253910 0.521334
v 0.085468 0.253864 0.521703
v 0.049765 0.262884 0.522047
v 0.049765 0.262884 0.522047
v 0.013226 0.267272 0.522341
v 0.013226 0.267272 0.522341
v -0.095688 0.253512 0.522341
v -0.095688 0.253512 0.522341
v -0.129988 0.240176 0.522047
v -0.129988 0.240176 0.522047
v -0.162326 0.222560 0.521703
v -0.162352 0.222601 0.521334
v -0.162326 0.222560 0.521703
v -0.162352 0.222601 0.521334
v -0.192156 0.200948 0.521334
v -0.192156 0.200948 0.370705
v -0.192156 0.200948 0.521334
v -0.192156 0.200948 0.370705
v 0.152017 0.222601 0.370705
v 0.152017 0.222601 0.521334
v 0.152017 0.222601 0.521334
v 0.152017 0.222601 0.370705
v 0.119714 0.240305 0.521703
v 0.119735 0.240349 0.521334
v 0.119735 0.240349 0.521334
v 0.119714 0.240305 0.521703
v 0.085424 0.253728 0.522047
v 0.085424 0.253728 0.522047
v 0.049723 0.262661 0.522341
v 0.049723 0.262661 0.522341
v -0.129891 0.239970 0.522341
v -0.129891 0.239970 0.522341
v -0.162250 0.222440 0.522047
v -0.162250 0.222440 0.522047
v -0.192125 0.200910 0.521703
v -0.192156 0.200948 0.521334
v -0.192125 0.200910 0.521703
v -0.192156 0.200948 0.521334
v -0.219010 0.175730 0.521334
v -0.219010 0.175730 0.370705
v -0.219010 0.175730 0.521334
v -0.219010 0.175730 0.370705
v 0.181821 0.200948 0.370705
v 0.181821 0.200948 0.521334
v 0.181821 0.200948 0.521334
v 0.181821 0.200948 0.370705
v 0.151991 0.222560 0.521703
v 0.152017 0.222601 0.521334
v 0.152017 0.222601 0.521334
v 0.151991 0.222560 0.521703
v 0.119654 0.240176 0.522047
v 0.119654 0.240176 0.522047
v 0.085354 0.253512 0.522341
v 0.085354 0.253512 0.522341
v -0.162128 0.222248 0.522341
v -0.162128 0.222248 0.522341
v -0.192034 0.200800 0.522047
v -0.192034 0.200800 0.522047
v -0.218975 0.175696 0.521703
v -0.219010 0.175730 0.521334
v -0.218975 0.175696 0.521703
v -0.219010 0.175730 0.521334
v -0.242492 0.147345 0.370705
v -0.242492 0.147345 0.521334
v -0.242492 0.147345 0.370705
v -0.242492 0.147345 0.521334
v 0.208676 0.175730 0.370705
v 0.208676 0.175730 0.521334
v 0.208676 0.175730 0.521334
v 0.208676 0.175730 0.370705
v 0.181790 0.200910 0.521703
v 0.181821 0.200948 0.521334
v 0.181821 0.200948 0.521334
v 0.181790 0.200910 0.521703
v 0.151915 0.222440 0.522047
v 0.151915 0.222440 0.522047
v 0.119557 0.239970 0.522341
v 0.119557 0.239970 0.522341
v -0.191889 0.200626 0.522341
v -0.191889 0.200626 0.522341
v -0.218871 0.175599 0.522047
v -0.218871 0.175599 0.522047
v -0.242492 0.147345 0.521334
v -0.242453 0.147316 0.521703
v -0.242492 0.147345 0.521334
v -0.242453 0.147316 0.521703
v -0.262232 0.116240 0.370705
v -0.262232 0.116240 0.521334
v -0.262232 0.116240 0.370705
v -0.262232 0.116240 0.521334
v 0.232158 0.147345 0.521334
v 0.232158 0.147345 0.370705
v 0.232158 0.147345 0.370705
v 0.232158 0.147345 0.521334
v 0.208640 0.175696 0.521703
v 0.208676 0.175730 0.521334
v 0.208676 0.175730 0.521334
v 0.208640 0.175696 0.521703
v 0.181699 0.200800 0.522047
v 0.181699 0.200800 0.522047
v 0.151793 0.222248 0.522341
v 0.151793 0.222248 0.522341
v -0.218705 0.175443 0.522341
v -0.218705 0.175443 0.522341
v -0.242338 0.147232 0.522047
v -0.242338 0.147232 0.522047
v -0.262232 0.116240 0.521334
v -0.262189 0.116217 0.521703
v -0.262232 0.116240 0.521334
v -0.262189 0.116217 0.521703
v -0.277917 0.082907 0.370705
v -0.277917 0.082907 0.521334
v -0.277917 0.082907 0.370705
v -0.277917 0.082907 0.521334
v 0.251897 0.116240 0.521334
v 0.251897 0.116240 0.370705
v 0.251897 0.116240 0.370705
v 0.251897 0.116240 0.521334
v 0.232119 0.147316 0.521703
v 0.232158 0.147345 0.521334
v 0.232158 0.147345 0.521334
v 0.232119 0.147316 0.521703
v 0.208536 0.175599 0.522047
v 0.208536 0.175599 0.522047
v 0.181554 0.200626 0.522341
v 0.181554 0.200626 0.522341
v -0.242154 0.147099 0.522341
v -0.242154 0.147099 0.522341
v -0.262064 0.116148 0.522047
v -0.262064 0.116148 0.522047
v -0.277917 0.082907 0.521334
v -0.277872 0.082889 0.521703
v -0.277917 0.082907 0.521334
v -0.277872 0.082889 0.521703
v -0.289301 0.047871 0.370705
v -0.289301 0.047871 0.521334
v -0.289301 0.047871 0.370705
v -0.289301 0.047871 0.521334
v 0.267583 0.082907 0.370705
v 0.267583 0.082907 0.521334
v 0.267583 0.082907 0.370705
v 0.267583 0.082907 0.521334
v 0.251855 0.116217 0.521703
v 0.251897 0.116240 0.521334
v 0.251897 0.116240 0.521334
v 0.251855 0.116217 0.521703
v 0.232003 0.147232 0.522047
v 0.232003 0.147232 0.522047
v 0.208371 0.175443 0.522341
v 0.208371 0.175443 0.522341
v -0.261865 0.116039 0.522341
v -0.261865 0.116039 0.522341
v -0.277739 0.082837 0.522047
v -0.277739 0.082837 0.522047
v -0.289301 0.047871 0.521334
v -0.289254 0.047859 0.521703
v -0.289301 0.047871 0.521334
v -0.289254 0.047859 0.521703
v -0.296204 0.011684 0.370705
v -0.296204 0.011684 0.521334
v -0.296204 0.011684 0.370705
v -0.296204 0.011684 0.521334
v 0.278967 0.047871 0.521334
v 0.278967 0.047871 0.370705
v 0.278967 0.047871 0.370705
v 0.278967 0.047871 0.521334
v 0.267583 0.082907 0.521334
v 0.267537 0.082889 0.521703
v 0.267583 0.082907 0.521334
v 0.267537 0.082889 0.521703
v 0.251730 0.116148 0.522047
v 0.251730 0.116148 0.522047
v 0.231819 0.147099 0.522341
v 0.231819 0.147099 0.522341
v -0.277528 0.082753 0.522341
v -0.277528 0.082753 0.522341
v -0.289116 0.047824 0.522047
v -0.289116 0.047824 0.522047
v -0.296204 0.011684 0.521334
v -0.296156 0.011678 0.521703
v -0.296204 0.011684 0.521334
v -0.296156 0.011678 0.521703
v -0.298517 -0.025082 0.370705
v -0.298517 -0.025082 0.521334
v -0.298517 -0.025082 0.370705
v -0.298517 -0.025082 0.521334
v 0.285870 0.011684 0.521334
v 0.285870 0.011684 0.370705
v 0.285870 0.011684 0.370705
v 0.285870 0.011684 0.521334
v 0.278919 0.047859 0.521703
v 0.278967 0.047871 0.521334
v 0.278967 0.047871 0.521334
v 0.278919 0.047859 0.521703
v 0.267405 0.082837 0.522047
v 0.267405 0.082837 0.522047
v 0.251531 0.116039 0.522341
v 0.251531 0.116039 0.522341
v -0.288896 0.047767 0.522341
v -0.288896 0.047767 0.522341
v -0.296014 0.011660 0.522047
v -0.296014 0.011660 0.522047
v -0.298517 -0.025082 0.521334
v -0.298469 -0.025082 0.521703
v -0.298517 -0.025082 0.521334
v -0.298469 -0.025082 0.521703
v -0.296204 -0.061849 0.370705
v -0.296204 -0.061849 0.521334
v -0.296204 -0.061849 0.370705
v -0.296204 -0.061849 0.521334
v 0.288183 -0.025082 0.521334
v 0.288183 -0.025082 0.370705
v 0.288183 -0.025082 0.370705
v 0.288183 -0.025082 0.521334
v 0.285821 0.011678 0.521703
v 0.285870 0.011684 0.521334
v 0.285870 0.011684 0.521334
v 0.285821 0.011678 0.521703
v 0.278781 0.047824 0.522047
v 0.278781 0.047824 0.522047
v 0.267194 0.082753 0.522341
v 0.267194 0.082753 0.522341
v -0.295789 0.011632 0.522341
v -0.295789 0.011632 0.522341
v -0.298326 -0.025082 0.522047
v -0.298326 -0.025082 0.522047
v -0.296204 -0.061849 0.521334
v -0.296156 -0.061843 0.521703
v -0.296204 -0.061849 0.521334
v -0.296156 -0.061843 0.521703
v -0.291236 -0.087892 0.370705
v -0.291236 -0.087892 0.521334
v -0.291236 -0.087892 0.370705
v -0.291236 -0.087892 0.521334
v 0.285870 -0.061849 0.521334
v 0.285870 -0.061849 0.370705
v 0.285870 -0.061849 0.370705
v 0.285870 -0.061849 0.521334
v 0.288134 -0.025082 0.521703
v 0.288183 -0.025082 0.521334
v 0.288183 -0.025082 0.521334
v 0.288134 -0.025082 0.521703
v 0.285680 0.011660 0.522047
v 0.285680 0.011660 0.522047
v 0.278561 0.047767 0.522341
v 0.278561 0.047767 0.522341
v -0.298099 -0.025082 0.522341
v -0.298099 -0.025082 0.522341
v -0.296014 -0.061825 0.522047
v -0.296014 -0.061825 0.522047
v -0.291236 -0.087892 0.521334
v -0.291188 -0.087883 0.521703
v -0.291236 -0.087892 0.521334
v -0.291188 -0.087883 0.521703
v -0.289301 -0.098035 0.370705
v -0.291236 -0.087892 0.521334
v -0.289301 -0.098035 0.521334
v -0.291236 -0.087892 0.370705
v -0.291236 -0.087892 0.370705
v -0.289301 -0.098035 0.370705
v -0.291236 -0.087892 0.521334
v -0.289301 -0.098035 0.521334
v 0.280902 -0.087892 0.370705
v 0.280902 -0.087892 0.521334
v 0.280902 -0.087892 0.370705
v 0.280902 -0.087892 0.521334
v 0.285821 -0.061843 0.521703
v 0.285870 -0.061849 0.521334
v 0.285870 -0.061849 0.521334
v 0.285821 -0.061843 0.521703
v 0.287991 -0.025082 0.522047
v 0.287991 -0.025082 0.522047
v 0.285455 0.011632 0.522341
v 0.285455 0.011632 0.522341
v -0.295789 -0.061796 0.522341
v -0.295789 -0.061796 0.522341
v -0.291049 -0.087856 0.522047
v -0.291049 -0.087856 0.522047
v -0.289301 -0.098035 0.521334
v -0.289254 -0.098023 0.521703
v -0.291236 -0.087892 0.521334
v -0.291236 -0.087892 0.521334
v -0.289301 -0.098035 0.521334
v -0.289254 -0.098023 0.521703
v -0.277917 -0.133071 0.521334
v -0.277917 -0.133071 0.370705
v -0.277917 -0.133071 0.370705
v -0.277917 -0.133071 0.521334
v 0.280902 -0.087892 0.370705
v 0.278967 -0.098035 0.521334
v 0.280902 -0.087892 0.521334
v 0.278967 -0.098035 0.370705
v 0.278967 -0.098035 0.370705
v 0.280902 -0.087892 0.370705
v 0.278967 -0.098035 0.521334
v 0.280902 -0.087892 0.521334
v 0.280902 -0.087892 0.521334
v 0.280854 -0.087883 0.521703
v 0.280902 -0.087892 0.521334
v 0.280854 -0.087883 0.521703
v 0.285680 -0.061825 0.522047
v 0.285680 -0.061825 0.522047
v 0.287764 -0.025082 0.522341
v 0.287764 -0.025082 0.522341
v -0.290826 -0.087814 0.522341
v -0.290826 -0.087814 0.522341
v -0.289116 -0.097988 0.522047
v -0.289116 -0.097988 0.522047
v -0.277872 -0.133054 0.521703
v -0.277917 -0.133071 0.521334
v -0.277917 -0.133071 0.521334
v -0.277872 -0.133054 0.521703
v -0.262232 -0.166405 0.370705
v -0.262232 -0.166405 0.521334
v -0.262232 -0.166405 0.370705
v -0.262232 -0.166405 0.521334
v 0.267583 -0.133071 0.521334
v 0.267583 -0.133071 0.370705
v 0.267583 -0.133071 0.370705
v 0.267583 -0.133071 0.521334
v 0.280902 -0.087892 0.521334
v 0.278919 -0.098023 0.521703
v 0.278967 -0.098035 0.521334
v 0.278967 -0.098035 0.521334
v 0.280902 -0.087892 0.521334
v 0.278919 -0.098023 0.521703
v 0.280714 -0.087856 0.522047
v 0.280714 -0.087856 0.522047
v 0.285455 -0.061796 0.522341
v 0.285455 -0.061796 0.522341
v -0.288896 -0.097931 0.522341
v -0.288896 -0.097931 0.522341
v -0.277739 -0.133001 0.522047
v -0.277739 -0.133001 0.522047
v -0.262232 -0.166405 0.521334
v -0.262189 -0.166381 0.521703
v -0.262232 -0.166405 0.521334
v -0.262189 -0.166381 0.521703
v -0.242492 -0.197509 0.370705
v -0.242492 -0.197509 0.521334
v -0.242492 -0.197509 0.370705
v -0.242492 -0.197509 0.521334
v 0.251897 -0.166405 0.521334
v 0.251897 -0.166405 0.370705
v 0.251897 -0.166405 0.370705
v 0.251897 -0.166405 0.521334
v 0.267537 -0.133054 0.521703
v 0.267583 -0.133071 0.521334
v 0.267583 -0.133071 0.521334
v 0.267537 -0.133054 0.521703
v 0.278781 -0.097988 0.522047
v 0.278781 -0.097988 0.522047
v 0.280491 -0.087814 0.522341
v 0.280491 -0.087814 0.522341
v -0.277528 -0.132917 0.522341
v -0.277528 -0.132917 0.522341
v -0.262064 -0.166312 0.522047
v -0.262064 -0.166312 0.522047
v -0.242492 -0.197509 0.521334
v -0.242453 -0.197480 0.521703
v -0.242492 -0.197509 0.521334
v -0.242453 -0.197480 0.521703
v -0.219010 -0.225894 0.370705
v -0.219010 -0.225894 0.521334
v -0.219010 -0.225894 0.370705
v -0.219010 -0.225894 0.521334
v 0.232158 -0.197509 0.521334
v 0.232158 -0.197509 0.370705
v 0.232158 -0.197509 0.370705
v 0.232158 -0.197509 0.521334
v 0.251855 -0.166381 0.521703
v 0.251897 -0.166405 0.521334
v 0.251897 -0.166405 0.521334
v 0.251855 -0.166381 0.521703
v 0.267405 -0.133001 0.522047
v 0.267405 -0.133001 0.522047
v 0.278561 -0.097931 0.522341
v 0.278561 -0.097931 0.522341
v -0.261865 -0.166203 0.522341
v -0.261865 -0.166203 0.522341
v -0.242338 -0.197396 0.522047
v -0.242338 -0.197396 0.522047
v -0.219010 -0.225894 0.521334
v -0.218975 -0.225861 0.521703
v -0.219010 -0.225894 0.521334
v -0.218975 -0.225861 0.521703
v -0.192156 -0.251112 0.370705
v -0.192156 -0.251112 0.521334
v -0.192156 -0.251112 0.521334
v -0.192156 -0.251112 0.370705
v 0.208676 -0.225894 0.521334
v 0.208676 -0.225894 0.370705
v 0.208676 -0.225894 0.370705
v 0.208676 -0.225894 0.521334
v 0.232119 -0.197480 0.521703
v 0.232158 -0.197509 0.521334
v 0.232158 -0.197509 0.521334
v 0.232119 -0.197480 0.521703
v 0.251730 -0.166312 0.522047
v 0.251730 -0.166312 0.522047
v 0.267194 -0.132917 0.522341
v 0.267194 -0.132917 0.522341
v -0.242154 -0.197263 0.522341
v -0.242154 -0.197263 0.522341
v -0.218871 -0.225763 0.522047
v -0.218871 -0.225763 0.522047
v -0.192156 -0.251112 0.521334
v -0.192125 -0.251075 0.521703
v -0.192125 -0.251075 0.521703
v -0.192156 -0.251112 0.521334
v -0.162352 -0.272766 0.370705
v -0.162352 -0.272766 0.521334
v -0.162352 -0.272766 0.521334
v -0.162352 -0.272766 0.370705
v 0.181821 -0.251112 0.370705
v 0.181821 -0.251112 0.521334
v 0.181821 -0.251112 0.370705
v 0.181821 -0.251112 0.521334
v 0.208640 -0.225861 0.521703
v 0.208676 -0.225894 0.521334
v 0.208676 -0.225894 0.521334
v 0.208640 -0.225861 0.521703
v 0.232003 -0.197396 0.522047
v 0.232003 -0.197396 0.522047
v 0.251531 -0.166203 0.522341
v 0.251531 -0.166203 0.522341
v -0.218705 -0.225608 0.522341
v -0.218705 -0.225608 0.522341
v -0.192034 -0.250965 0.522047
v -0.192034 -0.250965 0.522047
v -0.162352 -0.272766 0.521334
v -0.162326 -0.272725 0.521703
v -0.162326 -0.272725 0.521703
v -0.162352 -0.272766 0.521334
v -0.130070 -0.290513 0.521334
v -0.130070 -0.290513 0.370705
v -0.130070 -0.290513 0.370705
v -0.130070 -0.290513 0.521334
v 0.152017 -0.272766 0.370705
v 0.152017 -0.272766 0.521334
v 0.152017 -0.272766 0.370705
v 0.152017 -0.272766 0.521334
v 0.181821 -0.251112 0.521334
v 0.181790 -0.251075 0.521703
v 0.181821 -0.251112 0.521334
v 0.181790 -0.251075 0.521703
v 0.208536 -0.225763 0.522047
v 0.208536 -0.225763 0.522047
v 0.231819 -0.197263 0.522341
v 0.231819 -0.197263 0.522341
v -0.191889 -0.250790 0.522341
v -0.191889 -0.250790 0.522341
v -0.162250 -0.272604 0.522047
v -0.162250 -0.272604 0.522047
v -0.130070 -0.290513 0.521334
v -0.130049 -0.290469 0.521703
v -0.130049 -0.290469 0.521703
v -0.130070 -0.290513 0.521334
v -0.095817 -0.304075 0.370705
v -0.095817 -0.304075 0.521334
v -0.095817 -0.304075 0.521334
v -0.095817 -0.304075 0.370705
v 0.119735 -0.290513 0.521334
v 0.119735 -0.290513 0.370705
v 0.119735 -0.290513 0.521334
v 0.119735 -0.290513 0.370705
v 0.152017 -0.272766 0.521334
v 0.151991 -0.272725 0.521703
v 0.152017 -0.272766 0.521334
v 0.151991 -0.272725 0.521703
v 0.181699 -0.250965 0.522047
v 0.181699 -0.250965 0.522047
v 0.208371 -0.225608 0.522341
v 0.208371 -0.225608 0.522341
v -0.162128 -0.272412 0.522341
v -0.162128 -0.272412 0.522341
v -0.129988 -0.290340 0.522047
v -0.129988 -0.290340 0.522047
v -0.095817 -0.304075 0.521334
v -0.095802 -0.304028 0.521703
v -0.095802 -0.304028 0.521703
v -0.095817 -0.304075 0.521334
v -0.060136 -0.313236 0.370705
v -0.060136 -0.313236 0.521334
v -0.060136 -0.313236 0.521334
v -0.060136 -0.313236 0.370705
v 0.085483 -0.304075 0.370705
v 0.085483 -0.304075 0.521334
v 0.085483 -0.304075 0.370705
v 0.085483 -0.304075 0.521334
v 0.119735 -0.290513 0.521334
v 0.119714 -0.290469 0.521703
v 0.119735 -0.290513 0.521334
v 0.119714 -0.290469 0.521703
v 0.151915 -0.272604 0.522047
v 0.151915 -0.272604 0.522047
v 0.181554 -0.250790 0.522341
v 0.181554 -0.250790 0.522341
v -0.129891 -0.290135 0.522341
v -0.129891 -0.290135 0.522341
v -0.095758 -0.303893 0.522047
v -0.095758 -0.303893 0.522047
v -0.060136 -0.313236 0.521334
v -0.060126 -0.313188 0.521703
v -0.060126 -0.313188 0.521703
v -0.060136 -0.313236 0.521334
v -0.023587 -0.317853 0.521334
v -0.023587 -0.317853 0.370705
v -0.023587 -0.317853 0.370705
v -0.023587 -0.317853 0.521334
v 0.049801 -0.313236 0.370705
v 0.049801 -0.313236 0.521334
v 0.049801 -0.313236 0.370705
v 0.049801 -0.313236 0.521334
v 0.085483 -0.304075 0.521334
v 0.085468 -0.304028 0.521703
v 0.085483 -0.304075 0.521334
v 0.085468 -0.304028 0.521703
v 0.119654 -0.290340 0.522047
v 0.119654 -0.290340 0.522047
v 0.151793 -0.272412 0.522341
v 0.151793 -0.272412 0.522341
v -0.095688 -0.303677 0.522341
v -0.095688 -0.303677 0.522341
v -0.060100 -0.313048 0.522047
v -0.060100 -0.313048 0.522047
v -0.023587 -0.317853 0.521334
v -0.023584 -0.317805 0.521703
v -0.023584 -0.317805 0.521703
v -0.023587 -0.317853 0.521334
v 0.013252 -0.317853 0.370705
v 0.013252 -0.317853 0.521334
v 0.013252 -0.317853 0.521334
v 0.013252 -0.317853 0.370705
v 0.049801 -0.313236 0.521334
v 0.049792 -0.313188 0.521703
v 0.049801 -0.313236 0.521334
v 0.049792 -0.313188 0.521703
v 0.085424 -0.303893 0.522047
v 0.085424 -0.303893 0.522047
v 0.119557 -0.290135 0.522341
v 0.119557 -0.290135 0.522341
v -0.060057 -0.312825 0.522341
v -0.060057 -0.312825 0.522341
v -0.023575 -0.317662 0.522047
v -0.023575 -0.317662 0.522047
v 0.013252 -0.317853 0.521334
v 0.013249 -0.317805 0.521703
v 0.013249 -0.317805 0.521703
v 0.013252 -0.317853 0.521334
v 0.049765 -0.313048 0.522047
v 0.049765 -0.313048 0.522047
v 0.085354 -0.303677 0.522341
v 0.085354 -0.303677 0.522341
v -0.023561 -0.317436 0.522341
v -0.023561 -0.317436 0.522341
v 0.013240 -0.317662 0.522047
v 0.013240 -0.317662 0.522047
v 0.049723 -0.312825 0.522341
v 0.049723 -0.312825 0.522341
v 0.013226 -0.317436 0.522341
v 0.013226 -0.317436 0.522341
vt 22.08794 11.96916
vt 20.50294 11.37114
vt 22.08794 11.37114
vt 20.50294 11.96916
vt -6.983895 34.07536
vt -6.596252 31.63016
vt -6.596252 34.07536
vt -6.983895 31.63016
vt 9.359491 32.12911
vt 9.635291 31.70891
vt 9.638037 31.71321
vt 9.356791 32.12474
vt 22.08794 12.98013
vt 20.50294 12.38211
vt 22.08794 12.38211
vt 20.50294 12.98013
vt -22.08794 -8.815913
vt -20.50294 -9.413935
vt -20.50294 -8.815913
vt -22.08794 -9.413935
vt -6.983895 33.31046
vt -6.596284 33.30442
vt -6.596252 33.31046
vt -6.983863 33.30442
vt -0.3767843 36.42116
vt -0.01005818 36.22803
vt -0.008741155 36.23372
vt -0.3779222 36.41537
vt 15.21421 26.49306
vt 15.38638 25.95728
vt 15.38988 25.95997
vt 15.21074 26.49028
vt 22.08794 13.19309
vt 20.50294 13.79111
vt 20.50294 13.19309
vt 22.08794 13.79111
vt -22.08794 -7.909973
vt -20.50294 -7.311951
vt -22.08794 -7.311951
vt -20.50294 -7.909973
vt -19.19526 17.92019
vt -19.47106 17.49998
vt -19.19256 17.91581
vt -19.47381 17.50429
vt -6.983863 34.93636
vt -6.596378 34.93032
vt -6.596284 34.93636
vt -6.983768 34.93032
vt -3.206217 35.07006
vt -2.827851 34.94276
vt -2.826909 34.94863
vt -3.206866 35.0641
vt 5.2261 35.31377
vt 5.545689 34.9757
vt 5.547949 34.98064
vt 5.223996 35.30868
vt 17.34019 23.34025
vt 17.45783 22.77045
vt 17.46156 22.77229
vt 17.33648 23.33831
vt 22.08794 13.7913
vt 20.50294 14.38932
vt 20.50294 13.7913
vt 22.08794 14.38932
vt -22.08794 -5.68796
vt -20.50294 -6.285982
vt -20.50294 -5.68796
vt -22.08794 -6.285982
vt -21.56794 8.712388
vt -21.7401 8.176603
vt -21.56446 8.709606
vt -21.74361 8.179297
vt -12.62137 30.85973
vt -12.98809 30.66661
vt -12.62023 30.85395
vt -12.98941 30.6723
vt -6.983768 34.18161
vt -6.596528 34.17557
vt -6.596378 34.18161
vt -6.983618 34.17557
vt 0.4095359 34.89829
vt 0.7648168 34.66057
vt 0.7664768 34.66604
vt 0.4081523 34.89264
vt 9.254992 32.98025
vt 9.52147 32.54623
vt 9.524351 32.55033
vt 9.252242 32.97595
vt 18.33425 21.50481
vt 18.41998 20.92162
vt 18.4238 20.92296
vt 18.33045 21.50337
vt 22.08794 14.76531
vt 20.50294 14.16728
vt 22.08794 14.16728
vt 20.50294 14.76531
vt -22.08794 -4.567572
vt -20.50294 -3.96955
vt -22.08794 -3.96955
vt -20.50294 -4.567572
vt -21.91322 5.155734
vt -22.03086 4.585935
vt -21.90951 5.153795
vt -22.03459 4.587779
vt -16.86897 25.66368
vt -17.18856 25.32561
vt -16.86687 25.65858
vt -17.19082 25.33055
vt -10.19632 32.41187
vt -10.57469 32.28457
vt -10.19567 32.4059
vt -10.57563 32.29043
vt 3.602702 33.84015
vt 3.925189 33.50937
vt 3.927449 33.51431
vt 3.600692 33.83496
vt 11.97349 30.39031
vt 12.19165 29.89624
vt 12.19492 29.89957
vt 11.97033 30.38674
vt 18.88466 20.23566
vt 18.94934 19.64604
vt 18.9532 19.64706
vt 18.88081 20.23454
vt 22.08794 14.91315
vt 20.50294 14.31513
vt 22.08794 14.31513
vt 20.50294 14.91315
vt -22.08794 -2.781845
vt -20.50294 -2.183823
vt -22.08794 -2.183823
vt -20.50294 -2.781845
vt -21.91413 3.946824
vt -21.99986 3.363629
vt -21.91033 3.94538
vt -22.00368 3.364977
vt -19.40571 21.02533
vt -19.67219 20.59131
vt -19.40296 21.02103
vt -19.67507 20.59541
vt -13.32814 29.93486
vt -13.68342 29.69714
vt -13.32675 29.92921
vt -13.68508 29.70261
vt 6.259645 32.1625
vt 6.544415 31.75762
vt 6.547151 31.76195
vt 6.257132 32.15786
vt 13.79764 27.89985
vt 13.97475 27.36813
vt 13.97826 27.37082
vt 13.79422 27.8969
vt 19.2232 19.17858
vt 19.27268 18.58547
vt 19.27657 18.58626
vt 19.21933 19.1777
vt 22.08794 14.23251
vt 20.50294 14.83053
vt 20.50294 14.23251
vt 22.08794 14.83053
vt -22.08794 -0.9569618
vt -20.50294 -0.3589399
vt -22.08794 -0.3589399
vt -20.50294 -0.9569618
vt -21.8528 3.837818
vt -21.91749 3.2482
vt -21.84896 3.836701
vt -21.92135 3.249219
vt -20.82712 17.52919
vt -21.04528 17.03513
vt -20.82396 17.52562
vt -21.04855 17.03846
vt -15.84671 27.15565
vt -16.1692 26.82488
vt -15.84471 27.15046
vt -16.17146 26.82982
vt 8.385243 30.10194
vt 8.630944 29.64015
vt 8.634042 29.64385
vt 8.382338 30.09788
vt 15.04154 25.5602
vt 15.18414 25.00435
vt 15.1878 25.00649
vt 15.03795 25.55779
vt 19.48705 17.56146
vt 19.44154 18.15532
vt 19.48315 17.56086
vt 19.44543 18.15602
vt 22.08794 13.92071
vt 20.50294 14.51873
vt 20.50294 13.92071
vt 22.08794 14.51873
vt -22.08794 1.476319
vt -20.50294 0.8782975
vt -20.50294 1.476319
vt -22.08794 0.8782975
vt -21.78794 4.309629
vt -21.83743 3.716519
vt -21.78407 4.308748
vt -21.84131 3.717302
vt -21.62033 15.09987
vt -21.79745 14.56816
vt -21.61691 15.09693
vt -21.80096 14.57085
vt -17.76092 24.41791
vt -18.04569 24.01303
vt -17.7584 24.41327
vt -18.04842 24.01736
vt 10.25519 27.31625
vt 10.04126 27.81425
vt 10.25182 27.31316
vt 10.04446 27.81773
vt 16.02262 22.75416
vt 15.90194 23.32224
vt 16.01886 22.75248
vt 15.90564 23.3242
vt 19.62878 16.47675
vt 19.59288 17.07218
vt 19.62488 16.4763
vt 19.59678 17.07273
vt 22.08794 13.38466
vt 20.50294 13.98268
vt 20.50294 13.38466
vt 22.08794 13.98268
vt -22.08794 3.293012
vt -20.50294 2.69499
vt -20.50294 3.293012
vt -22.08794 2.69499
vt -21.73263 5.105194
vt -21.77035 4.510029
vt -21.72874 5.104496
vt -21.77425 4.510628
vt -22.07191 13.48854
vt -22.21452 12.93269
vt -22.06832 13.48613
vt -22.21818 12.93483
vt -19.16592 21.92494
vt -19.41162 21.46316
vt -19.16301 21.92089
vt -19.41472 21.46686
vt 11.49214 24.86426
vt 11.31446 25.3951
vt 11.48857 24.86175
vt 11.31789 25.39802
vt 16.60428 20.54637
vt 16.50903 21.12584
vt 16.60045 20.54509
vt 16.51281 21.12741
vt 19.72487 15.27891
vt 19.6972 15.87539
vt 19.72096 15.27859
vt 19.70111 15.87581
vt 22.08794 12.63281
vt 20.50294 13.23083
vt 20.50294 12.63281
vt 22.08794 13.23083
vt -20.50294 5.062487
vt -22.08794 4.464465
vt -20.50294 4.464465
vt -22.08794 5.062487
vt -21.689 6.075923
vt -21.71709 5.479493
vt -21.6851 6.075375
vt -21.721 5.479943
vt -22.33583 12.45724
vt -22.44904 11.88552
vt -22.33212 12.45528
vt -22.45281 11.8872
vt -20.17491 19.7484
vt -20.38884 19.25041
vt -20.38548 19.24731
vt -20.17812 19.75188
vt 12.41894 22.32533
vt 12.27573 22.88041
vt 12.41523 22.32337
vt 12.27933 22.8828
vt 17.00698 18.32466
vt 16.93446 18.91191
vt 17.00311 18.32373
vt 16.93829 18.91312
vt 19.78819 13.93885
vt 19.76785 14.53603
vt 19.78427 13.93865
vt 19.77176 14.53634
vt 22.08794 11.67702
vt 20.50294 12.27504
vt 20.50294 11.67702
vt 22.08794 12.27504
vt -22.08794 6.75684
vt -20.50294 6.158818
vt -20.50294 6.75684
vt -22.08794 6.158818
vt -21.65253 7.123662
vt -21.6802 6.527185
vt -21.67629 6.526864
vt -21.65644 7.124082
vt -22.49402 11.81631
vt -22.58166 11.23399
vt -22.49024 11.81474
vt -22.58549 11.23528
vt -20.90059 17.891
vt -21.07127 17.35472
vt -20.89716 17.88807
vt -21.07483 17.35723
vt 13.0948 19.71017
vt 12.98439 20.2828
vt 13.09099 19.70872
vt 12.98812 20.28469
vt 17.27628 16.04413
vt 17.22459 16.6366
vt 17.27239 16.04353
vt 17.22846 16.63749
vt 19.82606 12.4422
vt 19.8125 13.03984
vt 19.82215 12.4421
vt 19.81641 13.04004
vt 22.08794 10.53235
vt 20.50294 11.13038
vt 20.50294 10.53235
vt 22.08794 11.13038
vt -22.08794 8.349348
vt -20.50294 7.751326
vt -20.50294 8.349348
vt -22.08794 7.751326
vt -21.63387 8.178359
vt -21.64638 7.580668
vt -21.62996 8.178054
vt -21.6503 7.580874
vt -22.58706 11.41857
vt -22.65959 10.83133
vt -22.65572 10.8304
vt -22.5909 11.41979
vt -21.41274 16.29198
vt -21.54864 15.73254
vt -21.40914 16.28959
vt -21.55234 15.7345
vt 13.56359 17.01664
vt 13.4846 17.60152
vt 13.55971 17.0157
vt 13.48842 17.60292
vt 17.43983 13.6722
vt 17.40772 14.26795
vt 17.43592 13.67191
vt 17.41161 14.26854
vt 19.84253 10.78409
vt 19.83544 11.38199
vt 19.83862 10.78409
vt 19.83935 11.38209
vt 22.08794 9.216876
vt 20.50294 9.814898
vt 20.50294 9.216876
vt 22.08794 9.814898
vt -22.08794 9.814898
vt -20.50294 9.216876
vt -20.50294 9.814898
vt -22.08794 9.216876
vt -21.62038 9.182425
vt -21.62612 8.584488
vt -21.61647 9.182225
vt -21.63003 8.584589
vt -22.65104 11.15382
vt -22.69497 10.55986
vt -22.64717 11.15293
vt -22.69887 10.56046
vt -21.76775 14.88544
vt -21.87815 14.3128
vt -21.87435 14.31136
vt -21.77147 14.88732
vt 13.85562 14.23794
vt 13.80707 14.83066
vt 13.85172 14.23747
vt 13.81094 14.83158
vt 17.5134 11.18596
vt 17.50016 11.78342
vt 17.50949 11.18596
vt 17.50407 11.78371
vt 19.83935 8.965847
vt 19.83862 9.563848
vt 19.83544 8.965946
vt 19.84253 9.563848
vt 22.08794 7.918957
vt 20.50294 8.349348
vt 20.50294 7.918957
vt 22.08794 8.349348
vt -22.08794 11.13038
vt -20.50294 10.53235
vt -20.50294 11.13038
vt -22.08794 10.53235
vt -21.61536 10.08907
vt -21.61463 9.491068
vt -21.61145 10.08897
vt -21.61854 9.491068
vt -22.68818 10.92664
vt -22.71249 10.33001
vt -22.68428 10.92606
vt -22.7164 10.33031
vt -22.01572 13.60557
vt -22.08701 13.01835
vt -22.0119 13.60417
vt -22.09088 13.0193
vt 13.98977 11.36687
vt 13.97104 11.9636
vt 13.98585 11.36687
vt 13.97494 11.96407
vt 17.50407 8.569443
vt 17.50949 9.167193
vt 17.50016 8.569734
vt 17.5134 9.167193
vt 19.81912 7.160113
vt 19.82215 7.590471
vt 19.8152 7.160264
vt 19.82606 7.59037
vt 22.08794 7.751326
vt 20.50294 7.751326
vt -20.50294 12.27504
vt -22.08794 11.84465
vt -20.50294 11.84465
vt -22.08794 12.27504
vt -21.61854 10.85687
vt -21.61145 10.25897
vt -21.61463 10.85687
vt -21.61536 10.25887
vt -22.70974 10.6612
vt -22.71515 10.06345
vt -22.70582 10.66091
vt -22.71907 10.06345
vt -22.1709 12.37721
vt -22.21168 11.7831
vt -22.16703 12.37628
vt -22.21559 11.78357
vt 13.97494 8.398106
vt 13.98585 8.9953
vt 13.97104 8.398568
vt 13.98977 8.9953
vt 17.41952 5.978256
vt 17.43592 6.40775
vt 17.41562 5.978696
vt 17.43983 6.407455
vt 19.81641 6.992534
vt 19.8125 6.992734
vt 20.50294 6.158818
vt 22.08794 6.75684
vt 20.50294 6.75684
vt 22.08794 6.158818
vt -20.50294 11.67702
vt -22.08794 11.67702
vt -21.62612 11.44808
vt -21.62309 11.01773
vt -21.61917 11.01788
vt -21.63003 11.44798
vt -22.71907 10.2897
vt -22.70582 9.69224
vt -22.71515 10.2897
vt -22.70974 9.691949
vt -22.25229 11.1367
vt -22.2632 10.5395
vt -22.24838 11.13623
vt -22.26712 10.5395
vt 13.82346 5.495683
vt 13.85172 5.923474
vt 13.81957 5.49638
vt 13.85562 5.923007
vt 17.41161 5.811119
vt 17.40772 5.811704
vt 19.76785 4.871047
vt 19.78819 5.468226
vt 19.78427 5.468432
vt 19.77176 4.870741
vt 22.08794 4.464465
vt 20.50294 5.062487
vt 20.50294 4.464465
vt 22.08794 5.062487
vt -22.08794 13.23083
vt -20.50294 12.63281
vt -20.50294 13.23083
vt -22.08794 12.63281
vt -21.61647 10.85035
vt -21.62038 10.85015
vt -22.71249 9.749643
vt -22.69609 9.320149
vt -22.69219 9.320589
vt -22.7164 9.749348
vt -22.26712 9.822668
vt -22.24838 9.225937
vt -22.2632 9.822668
vt -22.25229 9.225474
vt 13.81094 5.329364
vt 13.80707 5.330291
vt 17.22459 2.902368
vt 17.27628 3.494831
vt 17.27239 3.495432
vt 17.22846 2.901478
vt 19.70111 2.606101
vt 19.72096 3.203319
vt 19.6972 2.606521
vt 19.72487 3.202998
vt 22.08794 2.69499
vt 20.50294 3.293012
vt 20.50294 2.69499
vt 22.08794 3.293012
vt -22.08794 13.98268
vt -20.50294 13.38466
vt -20.50294 13.98268
vt -22.08794 13.38466
vt -21.6503 11.8262
vt -21.62996 11.22902
vt -21.64638 11.82641
vt -21.63387 11.22872
vt -22.68428 9.153597
vt -22.68818 9.153012
vt -22.21168 8.377847
vt -22.18342 7.950056
vt -22.17953 7.950753
vt -22.21559 8.37738
vt 13.4846 2.163796
vt 13.56359 2.74867
vt 13.55971 2.749615
vt 13.48842 2.162397
vt 16.93829 -0.1692599
vt 17.00311 0.4201251
vt 16.93446 -0.1680462
vt 17.00698 0.4191976
vt 19.59678 0.1999507
vt 19.62488 0.7963806
vt 19.59288 0.2004988
vt 19.62878 0.7959313
vt 22.08794 0.8782975
vt 20.50294 1.476319
vt 20.50294 0.8782975
vt 22.08794 1.476319
vt -22.08794 14.51873
vt -20.50294 13.92071
vt -20.50294 14.51873
vt -22.08794 13.92071
vt -21.6802 11.95472
vt -21.65253 11.35825
vt -21.67629 11.95505
vt -21.65644 11.35783
vt -22.69887 8.9785
vt -22.64717 8.386037
vt -22.69497 8.979101
vt -22.65104 8.385147
vt -22.16703 7.784664
vt -22.1709 7.783737
vt 12.98812 -1.095576
vt 13.09099 -0.5196116
vt 12.98439 -1.09369
vt 13.0948 -0.5210527
vt 16.51281 -3.413325
vt 16.60045 -2.831007
vt 16.50903 -3.411758
vt 16.60428 -2.832292
vt 19.44543 -2.35588
vt 19.48315 -1.760715
vt 19.44154 -2.355182
vt 19.48705 -1.761314
vt 20.50294 -0.3589399
vt 22.08794 -0.9569618
vt 22.08794 -0.3589399
vt 20.50294 -0.9569618
vt -22.08794 14.83053
vt -20.50294 14.23251
vt -20.50294 14.83053
vt -22.08794 14.23251
vt -21.721 11.79273
vt -21.6851 11.1973
vt -21.71709 11.79318
vt -21.689 11.19675
vt -22.65959 7.912533
vt -22.58706 7.325289
vt -22.65572 7.91346
vt -22.5909 7.324075
vt -22.09088 6.746015
vt -22.0119 6.161141
vt -22.08701 6.74696
vt -22.01572 6.159742
vt 12.27933 -4.429148
vt 12.41523 -3.869711
vt 12.27573 -4.426755
vt 12.41894 -3.871672
vt 15.90564 -6.846962
vt 16.01886 -6.275238
vt 15.90194 -6.845
vt 16.02262 -6.276923
vt 19.27268 -4.49511
vt 19.2232 -5.08822
vt 19.27657 -4.495893
vt 19.21933 -5.087339
vt 20.50294 -2.183823
vt 22.08794 -2.781845
vt 22.08794 -2.183823
vt 20.50294 -2.781845
vt -20.50294 14.91315
vt -22.08794 14.31513
vt -20.50294 14.31513
vt -22.08794 14.91315
vt -21.77425 11.28951
vt -21.72874 10.69565
vt -21.77035 11.29011
vt -21.73263 10.69495
vt -22.58549 6.478808
vt -22.49024 5.899342
vt -22.58166 6.480092
vt -22.49402 5.897775
vt -21.87815 4.876314
vt -21.76775 4.303676
vt -21.87435 4.877755
vt -21.77147 4.30179
vt 11.31789 -7.809577
vt 11.48857 -7.273302
vt 11.31446 -7.806654
vt 11.49214 -7.275813
vt 15.18414 -9.933795
vt 15.04154 -10.48965
vt 15.1878 -9.93594
vt 15.03795 -10.48724
vt 18.94934 -7.47073
vt 18.88466 -8.060348
vt 18.9532 -7.47175
vt 18.88081 -8.059231
vt 20.50294 -4.567572
vt 22.08794 -3.96955
vt 20.50294 -3.96955
vt 22.08794 -4.567572
vt -20.50294 14.76531
vt -22.08794 14.16728
vt -20.50294 14.16728
vt -22.08794 14.76531
vt -21.83743 10.37385
vt -21.78794 9.780735
vt -21.78407 9.781616
vt -21.84131 10.37306
vt -22.45281 4.590038
vt -22.33212 4.021961
vt -22.44904 4.591723
vt -22.33583 4.019999
vt -21.55234 2.719153
vt -21.40914 2.16407
vt -21.54864 2.721115
vt -21.41274 2.161678
vt 10.25519 -10.68408
vt 10.04126 -11.18208
vt 10.04446 -11.18556
vt 10.25182 -10.68099
vt 13.97475 -13.824
vt 13.79764 -14.35571
vt 13.97826 -13.82669
vt 13.79422 -14.35277
vt 18.41998 -10.82683
vt 18.33425 -11.41003
vt 18.4238 -10.82818
vt 18.33045 -11.40859
vt 20.50294 -5.68796
vt 22.08794 -6.285982
vt 22.08794 -5.68796
vt 20.50294 -6.285982
vt -20.50294 13.7913
vt -22.08794 14.38932
vt -22.08794 13.7913
vt -20.50294 14.38932
vt -21.91749 8.927112
vt -21.8528 8.337495
vt -21.84896 8.338612
vt -21.92135 8.926093
vt -22.21452 2.137866
vt -22.07191 1.582011
vt -22.06832 1.584425
vt -22.21818 2.135721
vt -21.07483 0.2312109
vt -20.89716 -0.2996302
vt -21.07127 0.2337214
vt -20.90059 -0.302554
vt 8.630944 -14.00618
vt 8.385243 -14.46797
vt 8.634042 -14.00988
vt 8.382338 -14.46391
vt 12.19165 -17.92921
vt 11.97349 -18.42328
vt 12.19492 -17.93254
vt 11.97033 -18.4197
vt 17.45783 -14.86799
vt 17.34019 -15.43779
vt 17.46156 -14.86984
vt 17.33648 -15.43585
vt 20.50294 -7.311951
vt 22.08794 -7.909973
vt 22.08794 -7.311951
vt 20.50294 -7.909973
vt -20.50294 13.79111
vt -22.08794 13.19309
vt -20.50294 13.19309
vt -22.08794 13.79111
vt -21.99986 6.731152
vt -21.91413 6.147958
vt -21.91033 6.149402
vt -22.00368 6.729805
vt -21.79745 -1.024025
vt -21.62033 -1.555736
vt -21.61691 -1.552792
vt -21.80096 -1.026711
vt -20.17491 -3.116231
vt -20.38884 -2.618234
vt -20.17812 -3.119712
vt -20.38548 -2.615142
vt 6.544415 -17.10318
vt 6.259645 -17.50805
vt 6.547151 -17.1075
vt 6.257132 -17.50341
vt 9.52147 -22.10839
vt 9.254992 -22.54241
vt 9.524351 -22.11248
vt 9.252242 -22.53811
vt 15.38638 -20.26957
vt 15.21421 -20.80536
vt 15.38988 -20.27226
vt 15.21074 -20.80257
vt 20.50294 -9.413935
vt 22.08794 -8.815913
vt 20.50294 -8.815913
vt 22.08794 -9.413935
vt -20.50294 12.98013
vt -22.08794 12.38211
vt -20.50294 12.38211
vt -22.08794 12.98013
vt -22.03086 3.316522
vt -21.91322 2.746724
vt -21.90951 2.748662
vt -22.03459 3.314678
vt -21.04528 -5.068092
vt -20.82712 -5.562159
vt -20.82396 -5.558588
vt -21.04855 -5.071423
vt -19.41162 -5.829184
vt -19.16592 -6.290972
vt -19.16301 -6.286915
vt -19.41472 -5.832887
vt 3.925189 -19.74389
vt 3.602702 -20.07467
vt 3.927449 -19.74883
vt 3.600692 -20.06947
vt 5.545689 -25.87558
vt 5.2261 -26.21364
vt 5.547949 -25.88051
vt 5.223996 -26.20855
vt 9.635291 -28.03475
vt 9.359491 -28.45496
vt 9.638037 -28.03906
vt 9.356791 -28.45058
vt 6.596252 31.63016
vt 6.983895 34.07536
vt 6.596252 34.07536
vt 6.983895 31.63016
vt -20.50294 11.96916
vt -22.08794 11.37114
vt -20.50294 11.37114
vt -22.08794 11.96916
vt -21.7401 -2.488895
vt -21.56794 -3.02468
vt -21.56446 -3.021898
vt -21.74361 -2.491589
vt -19.67219 -10.15347
vt -19.40571 -10.58749
vt -19.40296 -10.58319
vt -19.67507 -10.15756
vt -18.04569 -9.358585
vt -17.76092 -9.76346
vt -17.7584 -9.758822
vt -18.04842 -9.362914
vt 0.7648168 -21.61389
vt 0.4095359 -21.85162
vt 0.7664768 -21.61937
vt 0.4081523 -21.84597
vt -0.01005818 -28.07674
vt -0.3767843 -28.26987
vt -0.008741155 -28.08244
vt -0.3779222 -28.26409
vt -6.596284 -30.64332
vt -6.983895 -30.64936
vt -6.596252 -30.64936
vt -6.983863 -30.64332
vt -19.47106 -13.82583
vt -19.19526 -14.24603
vt -19.19256 -14.24166
vt -19.47381 -13.83013
vt -17.18856 -16.22548
vt -16.86897 -16.56355
vt -16.86687 -16.55845
vt -17.19082 -16.23042
vt -16.1692 -13.0594
vt -15.84671 -13.39017
vt -15.84471 -13.38498
vt -16.17146 -13.06433
vt -2.827851 -22.36718
vt -3.206217 -22.49448
vt -2.826909 -22.37305
vt -3.206866 -22.48852
vt -6.596378 -27.12837
vt -6.983863 -27.13441
vt -6.596284 -27.13441
vt -6.983768 -27.12837
vt -12.98809 -22.51532
vt -12.62137 -22.70845
vt -12.62023 -22.70266
vt -12.98941 -22.52101
vt -13.68342 -16.65046
vt -13.32814 -16.88819
vt -13.32675 -16.88253
vt -13.68508 -16.65594
vt -6.596528 -21.76446
vt -6.983768 -21.7705
vt -6.596378 -21.7705
vt -6.983618 -21.76446
vt -10.57469 -19.70898
vt -10.19632 -19.83628
vt -10.19567 -19.83032
vt -10.57563 -19.71485
vn 0.0627905217796479 -0.9980267282866925 0
vn 0.18738129144314172 -0.9822872551433722 0
vn -0.0627905217796479 -0.9980267282866925 0
vn 0.06225124018546022 -0.9894551029478058 -0.1307799003896225
vn 0.18103849840538125 -0.949036891640717 -0.25798069772766113
vn 0.18577200010322886 -0.9738508005411446 -0.13077990007267135
vn 0.06066506962291944 -0.9642435940064764 -0.25798069839644966
vn 0.3090170042518809 -0.9510565130859434 0
vn -0.18738129144314172 -0.9822872551433722 0
vn -0.06225124018546022 -0.9894551029478058 -0.1307799003896225
vn -0.06066506962291944 -0.9642435940064764 -0.25798069839644966
vn 0.1624426980179156 -0.851554589609548 -0.49846479391785986
vn 0.054433719579973956 -0.8651992933238765 -0.4984647961537042
vn 0.29855680470441637 -0.918863314478704 -0.25798070406505125
vn 0.3063629975046887 -0.942888292320222 -0.1307798989348045
vn 0.42577928015806865 -0.9048270578337482 0
vn -0.3090170042518809 -0.9510565130859434 0
vn -0.18103849840538125 -0.949036891640717 -0.25798069772766113
vn -0.18577200010322886 -0.9738508005411446 -0.13077990007267135
vn -0.054433719579973956 -0.8651992933238765 -0.4984647961537042
vn 0.14094009527493406 -0.7388337752303394 -0.6589844779073152
vn 0.04722830034126155 -0.7506723054241966 -0.6589845047616806
vn 0.2678899106554366 -0.8244803327940603 -0.498464819826653
vn 0.4113667060629138 -0.8741987128843471 -0.25798070380223975
vn 0.4221224841756689 -0.8970558663715874 -0.13077989509738439
vn 0.5358268100958747 -0.8443279159085524 0
vn -0.42577928015806865 -0.9048270578337482 0
vn -0.29855680470441637 -0.918863314478704 -0.25798070406505125
vn -0.3063629975046887 -0.942888292320222 -0.1307798989348045
vn -0.1624426980179156 -0.851554589609548 -0.49846479391785986
vn -0.04722830034126155 -0.7506723054241966 -0.6589845047616806
vn 0.23242909561980168 -0.7153433865191321 -0.6589844875812333
vn 0.3691123188870017 -0.7844035401369183 -0.4984648255058029
vn 0.5176890923414241 -0.8157474879320151 -0.25798069618349184
vn 0.531224781456003 -0.8370763707793344 -0.13077989543473503
vn 0.6374240168438534 -0.7705132203607198 0
vn -0.5358268100958747 -0.8443279159085524 0
vn -0.4113667060629138 -0.8741987128843471 -0.25798070380223975
vn -0.4221224841756689 -0.8970558663715874 -0.13077989509738439
vn -0.2678899106554366 -0.8244803327940603 -0.498464819826653
vn -0.14094009527493406 -0.7388337752303394 -0.6589844779073152
vn 0.32025268945982766 -0.6805715776009945 -0.6589844783114703
vn 0.46451361854746254 -0.7319562292261197 -0.4984648199030927
vn 0.6158472232093455 -0.7444314280552797 -0.257980709722482
vn 0.6319494271410498 -0.7638956328078934 -0.13077990561675332
vn 0.7289686175301027 -0.6845471164618626 0
vn -0.6374240168438534 -0.7705132203607198 0
vn -0.5176890923414241 -0.8157474879320151 -0.25798069618349184
vn -0.531224781456003 -0.8370763707793344 -0.13077989543473503
vn -0.3691123188870017 -0.7844035401369183 -0.4984648255058029
vn -0.23242909561980168 -0.7153433865191321 -0.6589844875812333
vn 0.40302559073890526 -0.635066785406848 -0.6589844848572453
vn 0.5525891934852386 -0.6679655921250062 -0.49846479412333944
vn 0.7042931114605604 -0.6613752107621818 -0.25798070419797314
vn 0.722707825590474 -0.6786678240310546 -0.13077990463080616
vn 0.8090169736320784 -0.5877852808425821 0
vn -0.7289686175301027 -0.6845471164618626 0
vn -0.6158472232093455 -0.7444314280552797 -0.257980709722482
vn -0.6319494271410498 -0.7638956328078934 -0.13077990561675332
vn -0.46451361854746254 -0.7319562292261197 -0.4984648199030927
vn -0.32025268945982766 -0.6805715776009945 -0.6589844783114703
vn 0.479442590529434 -0.5795465885520511 -0.6589844869828919
vn 0.631950115752766 -0.5934407147928333 -0.4984648124253473
vn 0.80206870283423 -0.5827370020591885 -0.13077990046213053
vn 0.7816317994101925 -0.5678887995714795 -0.2579806998053318
vn 0.8763066737420931 -0.4817536855645931 0
vn -0.8090169736320784 -0.5877852808425821 0
vn -0.7042931114605604 -0.6613752107621818 -0.25798070419797314
vn -0.722707825590474 -0.6786678240310546 -0.13077990463080616
vn -0.5525891934852386 -0.6679655921250062 -0.49846479412333944
vn -0.40302559073890526 -0.635066785406848 -0.6589844848572453
vn 0.5482984925425759 -0.514886592997012 -0.6589844910371324
vn 0.7013448789832682 -0.5095568847304502 -0.49846478506284003
vn 0.868780465942299 -0.4776160812766212 -0.13077989487320144
vn 0.846643750503561 -0.4654463727891005 -0.25798068491794796
vn 0.9297764716058311 -0.368124588757952 0
vn -0.8763066737420931 -0.4817536855645931 0
vn -0.7816317994101925 -0.5678887995714795 -0.2579806998053318
vn -0.80206870283423 -0.5827370020591885 -0.13077990046213053
vn -0.631950115752766 -0.5934407147928333 -0.4984648124253473
vn -0.479442590529434 -0.5795465885520511 -0.6589844869828919
vn 0.6085074047350213 -0.4421065034401941 -0.6589845051278023
vn 0.7596789563251638 -0.41763703096502003 -0.49846483695786675
vn 0.921791023827644 -0.3649629094340322 -0.1307799033805678
vn 0.8983036019266772 -0.35566360076282555 -0.25798070055331584
vn 0.9685831604410063 -0.24868988984297663 0
vn -0.9297764716058311 -0.368124588757952 0
vn -0.846643750503561 -0.4654463727891005 -0.25798068491794796
vn -0.868780465942299 -0.4776160812766212 -0.13077989487320144
vn -0.7013448789832682 -0.5095568847304502 -0.49846478506284003
vn -0.5482984925425759 -0.514886592997012 -0.6589844910371324
vn 0.6591197840987585 -0.3623541912582178 -0.6589844841020227
vn 0.806032493791966 -0.31913079754206564 -0.4984647961608416
vn 0.9602644119709588 -0.24655400307361988 -0.13077990163034353
vn 0.9357966797967957 -0.24027179481269775 -0.25798069443037497
vn 0.9921147054673806 -0.1253332006906906 0
vn -0.9685831604410063 -0.24868988984297663 0
vn -0.921791023827644 -0.3649629094340322 -0.1307799033805678
vn -0.8983036019266772 -0.35566360076282555 -0.25798070055331584
vn -0.7596789563251638 -0.41763703096502003 -0.49846483695786675
vn -0.6085074047350213 -0.4421065034401941 -0.6589845051278023
vn 0.6993374184693966 -0.2768873073125522 -0.6589845174036825
vn 0.8396743554065775 -0.21559171422598994 -0.49846483289159693
vn 0.9835938534231633 -0.12425679411597743 -0.13077989380708438
vn 0.9585316908441676 -0.12109069884334946 -0.2579806975357852
vn 1 0 0
vn -0.9921147054673806 -0.1253332006906906 0
vn -0.9357966797967957 -0.24027179481269775 -0.25798069443037497
vn -0.9602644119709588 -0.24655400307361988 -0.13077990163034353
vn -0.806032493791966 -0.31913079754206564 -0.4984647961608416
vn -0.6591197840987585 -0.3623541912582178 -0.6589844841020227
vn 0.7285261232016815 -0.18705370595717885 -0.6589845209869605
vn 0.8600740992187904 -0.1086525999013102 -0.49846479954724193
vn 0.9914114266223862 0 -0.13077990351183474
vn 0.9661500723185931 0 -0.2579806926085308
vn 0.9921147054673806 0.1253332006906906 0
vn -1 0 0
vn -0.9585316908441676 -0.12109069884334946 -0.2579806975357852
vn -0.9835938534231633 -0.12425679411597743 -0.13077989380708438
vn -0.8396743554065775 -0.21559171422598994 -0.49846483289159693
vn -0.6993374184693966 -0.2768873073125522 -0.6589845174036825
vn 0.7462255221688889 -0.09427021280058198 -0.6589845195771307
vn 0.866909929666937 0 -0.49846481705820156
vn 0.9835938534231633 0.12425679411597748 -0.13077989380708432
vn 0.9585316908441676 0.12109069884334957 -0.2579806975357852
vn 0.9822872551433722 0.18738129144314172 0
vn -0.9921147054673806 0.1253332006906906 0
vn -0.9661500723185931 0 -0.2579806926085308
vn -0.9914114266223862 0 -0.13077990351183474
vn -0.8600740992187904 -0.1086525999013102 -0.49846479954724193
vn -0.7285261232016815 -0.18705370595717885 -0.6589845209869605
vn 0.752156510630792 0 -0.6589845093139223
vn 0.8600740992187904 0.10865259990131042 -0.49846479954724193
vn 0.9738836512113614 0.18577820976908802 -0.130526206863679
vn 0.9488166245701715 0.1809965046870123 -0.25881900670227226
vn 0.9685831604410063 0.24868988984297663 0
vn -0.9822872551433722 0.18738129144314172 0
vn -0.9585316908441676 0.12109069884334957 -0.2579806975357852
vn -0.9835938534231633 0.12425679411597748 -0.13077989380708432
vn -0.866909929666937 0 -0.49846481705820156
vn -0.7462255221688889 -0.09427021280058198 -0.6589845195771307
vn 0.7462255221688889 0.09427021280058229 -0.6589845195771307
vn 0.8506857064169393 0.16227700122409694 -0.5000000037716275
vn 0.9602644119709588 0.24655400307361994 -0.13077990163034342
vn 0.9357966797967957 0.24027179481269786 -0.25798069443037486
vn 0.9297764716058311 0.368124588757952 0
vn -0.9685831604410063 0.24868988984297663 0
vn -0.9738836512113614 0.18577820976908802 -0.130526206863679
vn -0.9488166245701715 0.1809965046870123 -0.25881900670227226
vn -0.8600740992187904 0.10865259990131042 -0.49846479954724193
vn -0.752156510630792 0 -0.6589845093139223
vn 0.7387049937401917 0.140915498805878 -0.6591340944144779
vn 0.8396743554065775 0.21559171422599016 -0.4984648328915968
vn 0.898303601926677 0.3556636007628256 -0.2579807005533157
vn 0.921791023827644 0.3649629094340323 -0.13077990338056764
vn 0.8763066737420931 0.4817536855645931 0
vn -0.9297764716058311 0.368124588757952 0
vn -0.9357966797967957 0.24027179481269786 -0.25798069443037486
vn -0.9602644119709588 0.24655400307361994 -0.13077990163034342
vn -0.8506857064169393 0.16227700122409694 -0.5000000037716275
vn -0.7462255221688889 0.09427021280058229 -0.6589845195771307
vn 0.7285261232016815 0.18705370595717913 -0.6589845209869605
vn 0.806032493791966 0.31913079754206586 -0.4984647961608415
vn 0.868780465942299 0.4776160812766213 -0.1307798948732012
vn 0.846643750503561 0.4654463727891006 -0.25798068491794773
vn 0.8090169736320784 0.5877852808425821 0
vn -0.8763066737420931 0.4817536855645931 0
vn -0.898303601926677 0.3556636007628256 -0.2579807005533157
vn -0.921791023827644 0.3649629094340323 -0.13077990338056764
vn -0.8396743554065775 0.21559171422599016 -0.4984648328915968
vn -0.7387049937401917 0.140915498805878 -0.6591340944144779
vn 0.6993374184693967 0.27688730731255257 -0.6589845174036825
vn 0.7596789563251638 0.41763703096502025 -0.49846483695786653
vn 0.8020687028342303 0.5827370020591887 -0.13077990046213028
vn 0.7816317994101923 0.5678887995714796 -0.2579806998053315
vn 0.7289686175301027 0.6845471164618626 0
vn -0.8090169736320784 0.5877852808425821 0
vn -0.846643750503561 0.4654463727891006 -0.25798068491794773
vn -0.868780465942299 0.4776160812766213 -0.1307798948732012
vn -0.806032493791966 0.31913079754206586 -0.4984647961608415
vn -0.7285261232016815 0.18705370595717913 -0.6589845209869605
vn 0.6591197840987585 0.3623541912582181 -0.6589844841020225
vn 0.7013448789832682 0.5095568847304505 -0.4984647850628398
vn 0.722707825590474 0.6786678240310546 -0.13077990463080588
vn 0.7042931114605604 0.661375210762182 -0.2579807041979728
vn 0.6374240168438534 0.7705132203607198 0
vn -0.7289686175301027 0.6845471164618626 0
vn -0.7816317994101923 0.5678887995714796 -0.2579806998053315
vn -0.8020687028342303 0.5827370020591887 -0.13077990046213028
vn -0.7596789563251638 0.41763703096502025 -0.49846483695786653
vn -0.6993374184693967 0.27688730731255257 -0.6589845174036825
vn 0.6085074047350213 0.4421065034401944 -0.658984505127802
vn 0.631950115752766 0.5934407147928336 -0.49846481242534707
vn 0.6319494271410498 0.7638956328078934 -0.13077990561675298
vn 0.6158472232093454 0.7444314280552797 -0.2579807097224816
vn 0.5358268100958747 0.8443279159085524 0
vn -0.6374240168438534 0.7705132203607198 0
vn -0.7042931114605604 0.661375210762182 -0.2579807041979728
vn -0.722707825590474 0.6786678240310546 -0.13077990463080588
vn -0.7013448789832682 0.5095568847304505 -0.4984647850628398
vn -0.6591197840987585 0.3623541912582181 -0.6589844841020225
vn 0.5482984925425759 0.5148865929970122 -0.6589844910371322
vn 0.5525891934852386 0.6679655921250064 -0.4984647941233391
vn 0.531224781456003 0.8370763707793344 -0.13077989543473464
vn 0.5176890923414241 0.8157474879320153 -0.2579806961834915
vn 0.42577928015806865 0.9048270578337482 0
vn -0.5358268100958747 0.8443279159085524 0
vn -0.6319494271410498 0.7638956328078934 -0.13077990561675298
vn -0.6158472232093454 0.7444314280552797 -0.2579807097224816
vn -0.631950115752766 0.5934407147928336 -0.49846481242534707
vn -0.6085074047350213 0.4421065034401944 -0.658984505127802
vn 0.479442590529434 0.5795465885520513 -0.6589844869828917
vn 0.46451361854746254 0.7319562292261199 -0.4984648199030924
vn 0.42212248417566894 0.8970558663715876 -0.13077989509738402
vn 0.4113667060629138 0.8741987128843474 -0.2579807038022394
vn 0.3090170042518809 0.9510565130859434 0
vn -0.42577928015806865 0.9048270578337482 0
vn -0.531224781456003 0.8370763707793344 -0.13077989543473464
vn -0.5176890923414241 0.8157474879320153 -0.2579806961834915
vn -0.5525891934852386 0.6679655921250064 -0.4984647941233391
vn -0.5482984925425759 0.5148865929970122 -0.6589844910371322
vn 0.40302559073890526 0.6350667854068482 -0.658984484857245
vn 0.3691123188870017 0.7844035401369185 -0.49846482550580257
vn 0.30636299750468876 0.9428882923202222 -0.13077989893480407
vn 0.2985568047044163 0.918863314478704 -0.25798070406505075
vn 0.18738129144314172 0.9822872551433722 0
vn -0.3090170042518809 0.9510565130859434 0
vn -0.42212248417566894 0.8970558663715876 -0.13077989509738402
vn -0.4113667060629138 0.8741987128843474 -0.2579807038022394
vn -0.46451361854746254 0.7319562292261199 -0.4984648199030924
vn -0.479442590529434 0.5795465885520513 -0.6589844869828917
vn 0.32025268945982766 0.6805715776009947 -0.6589844783114701
vn 0.2678899106554366 0.8244803327940605 -0.4984648198266527
vn 0.18577200010322886 0.9738508005411446 -0.1307799000726709
vn 0.18103849840538125 0.9490368916407173 -0.2579806977276607
vn 0.0627905217796479 0.9980267282866925 0
vn -0.18738129144314172 0.9822872551433722 0
vn -0.30636299750468876 0.9428882923202222 -0.13077989893480407
vn -0.2985568047044163 0.918863314478704 -0.25798070406505075
vn -0.3691123188870017 0.7844035401369185 -0.49846482550580257
vn -0.40302559073890526 0.6350667854068482 -0.658984484857245
vn 0.23242909561980168 0.7153433865191323 -0.6589844875812331
vn 0.1624426980179156 0.8515545896095482 -0.4984647939178595
vn 0.06225124018546022 0.9894551029478058 -0.13077990038962206
vn 0.060665069622919426 0.9642435940064764 -0.25798069839644916
vn -0.0627905217796479 0.9980267282866925 0
vn -0.18577200010322886 0.9738508005411446 -0.1307799000726709
vn -0.18103849840538125 0.9490368916407173 -0.2579806977276607
vn -0.2678899106554366 0.8244803327940605 -0.4984648198266527
vn -0.32025268945982766 0.6805715776009947 -0.6589844783114701
vn 0.14094009527493406 0.7388337752303397 -0.658984477907315
vn 0.054433719579973956 0.8651992933238767 -0.49846479615370387
vn -0.06225124018546022 0.9894551029478058 -0.13077990038962206
vn -0.060665069622919426 0.9642435940064764 -0.25798069839644916
vn -0.1624426980179156 0.8515545896095482 -0.4984647939178595
vn -0.23242909561980168 0.7153433865191323 -0.6589844875812331
vn 0.04722830034126155 0.7506723054241968 -0.6589845047616801
vn -0.054433719579973956 0.8651992933238767 -0.49846479615370387
vn -0.14094009527493406 0.7388337752303397 -0.658984477907315
vn -0.04722830034126155 0.7506723054241968 -0.6589845047616801
vn -0.06066506962291944 0.9642435940064764 0.25798069839644966
vn -0.06225124018546022 0.9894551029478058 0.1307799003896225
vn -0.18103849840538125 0.949036891640717 0.25798069772766113
vn -0.18577200010322886 0.9738508005411446 0.13077990007267135
vn 0.06066506962291944 0.9642435940064764 0.25798069839644966
vn 0.06225124018546022 0.9894551029478058 0.1307799003896225
vn -0.054433719579973956 0.8651992933238765 0.4984647961537042
vn -0.1624426980179156 0.851554589609548 0.49846479391785986
vn -0.29855680470441637 0.918863314478704 0.25798070406505125
vn -0.3063629975046887 0.942888292320222 0.1307798989348045
vn 0.18577200010322886 0.9738508005411446 0.13077990007267135
vn 0.18103849840538125 0.949036891640717 0.25798069772766113
vn 0.054433719579973956 0.8651992933238765 0.4984647961537042
vn -0.04722830034126155 0.7506723054241966 0.6589845047616806
vn -0.14094009527493406 0.7388337752303394 0.6589844779073152
vn -0.2678899106554366 0.8244803327940603 0.498464819826653
vn -0.4113667060629138 0.8741987128843471 0.25798070380223975
vn -0.4221224841756689 0.8970558663715874 0.13077989509738439
vn 0.3063629975046887 0.942888292320222 0.1307798989348045
vn 0.29855680470441637 0.918863314478704 0.25798070406505125
vn 0.1624426980179156 0.851554589609548 0.49846479391785986
vn 0.04722830034126155 0.7506723054241966 0.6589845047616806
vn -0.23242909561980168 0.7153433865191321 0.6589844875812333
vn -0.3691123188870017 0.7844035401369183 0.4984648255058029
vn -0.5176890923414241 0.8157474879320151 0.25798069618349184
vn -0.531224781456003 0.8370763707793344 0.13077989543473503
vn 0.4221224841756689 0.8970558663715874 0.13077989509738439
vn 0.4113667060629138 0.8741987128843471 0.25798070380223975
vn 0.2678899106554366 0.8244803327940603 0.498464819826653
vn 0.14094009527493406 0.7388337752303394 0.6589844779073152
vn -0.32025268945982766 0.6805715776009945 0.6589844783114703
vn -0.46451361854746254 0.7319562292261197 0.4984648199030927
vn -0.6158472232093455 0.7444314280552797 0.257980709722482
vn -0.6319494271410498 0.7638956328078934 0.13077990561675332
vn 0.531224781456003 0.8370763707793344 0.13077989543473503
vn 0.5176890923414241 0.8157474879320151 0.25798069618349184
vn 0.3691123188870017 0.7844035401369183 0.4984648255058029
vn 0.23242909561980168 0.7153433865191321 0.6589844875812333
vn -0.40302559073890526 0.635066785406848 0.6589844848572453
vn -0.5525891934852386 0.6679655921250062 0.49846479412333944
vn -0.7042931114605604 0.6613752107621818 0.25798070419797314
vn -0.722707825590474 0.6786678240310546 0.13077990463080616
vn 0.6319494271410498 0.7638956328078934 0.13077990561675332
vn 0.6158472232093455 0.7444314280552797 0.257980709722482
vn 0.46451361854746254 0.7319562292261197 0.4984648199030927
vn 0.32025268945982766 0.6805715776009945 0.6589844783114703
vn -0.479442590529434 0.5795465885520511 0.6589844869828919
vn -0.631950115752766 0.5934407147928333 0.4984648124253473
vn -0.80206870283423 0.5827370020591885 0.13077990046213053
vn -0.7816317994101925 0.5678887995714795 0.2579806998053318
vn 0.722707825590474 0.6786678240310546 0.13077990463080616
vn 0.7042931114605604 0.6613752107621818 0.25798070419797314
vn 0.5525891934852386 0.6679655921250062 0.49846479412333944
vn 0.40302559073890526 0.635066785406848 0.6589844848572453
vn -0.5482984925425759 0.514886592997012 0.6589844910371324
vn -0.7013448789832682 0.5095568847304502 0.49846478506284003
vn -0.868780465942299 0.4776160812766212 0.13077989487320144
vn -0.846643750503561 0.4654463727891005 0.25798068491794796
vn 0.80206870283423 0.5827370020591885 0.13077990046213053
vn 0.7816317994101925 0.5678887995714795 0.2579806998053318
vn 0.631950115752766 0.5934407147928333 0.4984648124253473
vn 0.479442590529434 0.5795465885520511 0.6589844869828919
vn -0.6085074047350213 0.4421065034401941 0.6589845051278023
vn -0.7596789563251638 0.41763703096502003 0.49846483695786675
vn -0.921791023827644 0.3649629094340322 0.1307799033805678
vn -0.8983036019266772 0.35566360076282555 0.25798070055331584
vn 0.868780465942299 0.4776160812766212 0.13077989487320144
vn 0.846643750503561 0.4654463727891005 0.25798068491794796
vn 0.7013448789832682 0.5095568847304502 0.49846478506284003
vn 0.5482984925425759 0.514886592997012 0.6589844910371324
vn -0.6591197840987585 0.3623541912582178 0.6589844841020227
vn -0.806032493791966 0.31913079754206564 0.4984647961608416
vn -0.9602644119709588 0.24655400307361988 0.13077990163034353
vn -0.9357966797967957 0.24027179481269775 0.25798069443037497
vn 0.921791023827644 0.3649629094340322 0.1307799033805678
vn 0.8983036019266772 0.35566360076282555 0.25798070055331584
vn 0.7596789563251638 0.41763703096502003 0.49846483695786675
vn 0.6085074047350213 0.4421065034401941 0.6589845051278023
vn -0.6993374184693966 0.2768873073125522 0.6589845174036825
vn -0.8396743554065775 0.21559171422598994 0.49846483289159693
vn -0.9835938534231633 0.12425679411597743 0.13077989380708438
vn -0.9585316908441676 0.12109069884334946 0.2579806975357852
vn 0.9602644119709588 0.24655400307361988 0.13077990163034353
vn 0.9357966797967957 0.24027179481269775 0.25798069443037497
vn 0.806032493791966 0.31913079754206564 0.4984647961608416
vn 0.6591197840987585 0.3623541912582178 0.6589844841020227
vn -0.7285261232016815 0.18705370595717885 0.6589845209869605
vn -0.8600740992187904 0.1086525999013102 0.49846479954724193
vn -0.9914114266223862 0 0.13077990351183474
vn -0.9661500723185931 0 0.2579806926085308
vn 0.9835938534231633 0.12425679411597743 0.13077989380708438
vn 0.9585316908441676 0.12109069884334946 0.2579806975357852
vn 0.8396743554065775 0.21559171422598994 0.49846483289159693
vn 0.6993374184693966 0.2768873073125522 0.6589845174036825
vn -0.7462255221688889 0.09427021280058198 0.6589845195771307
vn -0.866909929666937 0 0.49846481705820156
vn -0.9835938534231633 -0.12425679411597748 0.13077989380708432
vn -0.9585316908441676 -0.12109069884334957 0.2579806975357852
vn -0.9822872551433722 -0.18738129144314172 0
vn 0.9914114266223862 0 0.13077990351183474
vn 0.9661500723185931 0 0.2579806926085308
vn 0.8600740992187904 0.1086525999013102 0.49846479954724193
vn 0.7285261232016815 0.18705370595717885 0.6589845209869605
vn -0.752156510630792 0 0.6589845093139223
vn -0.8600740992187904 -0.10865259990131042 0.49846479954724193
vn -0.9738836512113614 -0.18577820976908802 0.130526206863679
vn -0.9488166245701715 -0.1809965046870123 0.25881900670227226
vn 0.9822872551433722 -0.18738129144314172 0
vn 0.9835938534231633 -0.12425679411597748 0.13077989380708432
vn 0.9585316908441676 -0.12109069884334957 0.2579806975357852
vn 0.866909929666937 0 0.49846481705820156
vn 0.7462255221688889 0.09427021280058198 0.6589845195771307
vn -0.7462255221688889 -0.09427021280058229 0.6589845195771307
vn -0.8506857064169393 -0.16227700122409694 0.5000000037716275
vn -0.9602644119709588 -0.24655400307361994 0.13077990163034342
vn -0.9357966797967957 -0.24027179481269786 0.25798069443037486
vn 0.9738836512113614 -0.18577820976908802 0.130526206863679
vn 0.9488166245701715 -0.1809965046870123 0.25881900670227226
vn 0.8600740992187904 -0.10865259990131042 0.49846479954724193
vn 0.752156510630792 0 0.6589845093139223
vn -0.7387049937401917 -0.140915498805878 0.6591340944144779
vn -0.8396743554065775 -0.21559171422599016 0.4984648328915968
vn -0.921791023827644 -0.3649629094340323 0.13077990338056764
vn -0.898303601926677 -0.3556636007628256 0.2579807005533157
vn 0.9602644119709588 -0.24655400307361994 0.13077990163034342
vn 0.9357966797967957 -0.24027179481269786 0.25798069443037486
vn 0.8506857064169393 -0.16227700122409694 0.5000000037716275
vn 0.7462255221688889 -0.09427021280058229 0.6589845195771307
vn -0.7285261232016815 -0.18705370595717913 0.6589845209869605
vn -0.806032493791966 -0.31913079754206586 0.4984647961608415
vn -0.868780465942299 -0.4776160812766213 0.1307798948732012
vn -0.846643750503561 -0.4654463727891006 0.25798068491794773
vn 0.921791023827644 -0.3649629094340323 0.13077990338056764
vn 0.898303601926677 -0.3556636007628256 0.2579807005533157
vn 0.8396743554065775 -0.21559171422599016 0.4984648328915968
vn 0.7387049937401917 -0.140915498805878 0.6591340944144779
vn -0.6993374184693967 -0.27688730731255257 0.6589845174036825
vn -0.7596789563251638 -0.41763703096502025 0.49846483695786653
vn -0.8020687028342303 -0.5827370020591887 0.13077990046213028
vn -0.7816317994101923 -0.5678887995714796 0.2579806998053315
vn 0.868780465942299 -0.4776160812766213 0.1307798948732012
vn 0.846643750503561 -0.4654463727891006 0.25798068491794773
vn 0.806032493791966 -0.31913079754206586 0.4984647961608415
vn 0.7285261232016815 -0.18705370595717913 0.6589845209869605
vn -0.6591197840987585 -0.3623541912582181 0.6589844841020225
vn -0.7013448789832682 -0.5095568847304505 0.4984647850628398
vn -0.722707825590474 -0.6786678240310546 0.13077990463080588
vn -0.7042931114605604 -0.661375210762182 0.2579807041979728
vn 0.8020687028342303 -0.5827370020591887 0.13077990046213028
vn 0.7816317994101923 -0.5678887995714796 0.2579806998053315
vn 0.7596789563251638 -0.41763703096502025 0.49846483695786653
vn 0.6993374184693967 -0.27688730731255257 0.6589845174036825
vn -0.6085074047350213 -0.4421065034401944 0.658984505127802
vn -0.631950115752766 -0.5934407147928336 0.49846481242534707
vn -0.6158472232093454 -0.7444314280552797 0.2579807097224816
vn -0.6319494271410498 -0.7638956328078934 0.13077990561675298
vn 0.722707825590474 -0.6786678240310546 0.13077990463080588
vn 0.7042931114605604 -0.661375210762182 0.2579807041979728
vn 0.7013448789832682 -0.5095568847304505 0.4984647850628398
vn 0.6591197840987585 -0.3623541912582181 0.6589844841020225
vn -0.5482984925425759 -0.5148865929970122 0.6589844910371322
vn -0.5525891934852386 -0.6679655921250064 0.4984647941233391
vn -0.5176890923414241 -0.8157474879320153 0.2579806961834915
vn -0.531224781456003 -0.8370763707793344 0.13077989543473464
vn 0.6319494271410498 -0.7638956328078934 0.13077990561675298
vn 0.6158472232093454 -0.7444314280552797 0.2579807097224816
vn 0.631950115752766 -0.5934407147928336 0.49846481242534707
vn 0.6085074047350213 -0.4421065034401944 0.658984505127802
vn -0.479442590529434 -0.5795465885520513 0.6589844869828917
vn -0.46451361854746254 -0.7319562292261199 0.4984648199030924
vn -0.4113667060629138 -0.8741987128843474 0.2579807038022394
vn -0.42212248417566894 -0.8970558663715876 0.13077989509738402
vn 0.531224781456003 -0.8370763707793344 0.13077989543473464
vn 0.5176890923414241 -0.8157474879320153 0.2579806961834915
vn 0.5525891934852386 -0.6679655921250064 0.4984647941233391
vn 0.5482984925425759 -0.5148865929970122 0.6589844910371322
vn -0.40302559073890526 -0.6350667854068482 0.658984484857245
vn -0.3691123188870017 -0.7844035401369185 0.49846482550580257
vn -0.2985568047044163 -0.918863314478704 0.25798070406505075
vn -0.30636299750468876 -0.9428882923202222 0.13077989893480407
vn 0.42212248417566894 -0.8970558663715876 0.13077989509738402
vn 0.4113667060629138 -0.8741987128843474 0.2579807038022394
vn 0.46451361854746254 -0.7319562292261199 0.4984648199030924
vn 0.479442590529434 -0.5795465885520513 0.6589844869828917
vn -0.32025268945982766 -0.6805715776009947 0.6589844783114701
vn -0.2678899106554366 -0.8244803327940605 0.4984648198266527
vn -0.18103849840538125 -0.9490368916407173 0.2579806977276607
vn -0.18577200010322886 -0.9738508005411446 0.1307799000726709
vn 0.30636299750468876 -0.9428882923202222 0.13077989893480407
vn 0.2985568047044163 -0.918863314478704 0.25798070406505075
vn 0.3691123188870017 -0.7844035401369185 0.49846482550580257
vn 0.40302559073890526 -0.6350667854068482 0.658984484857245
vn -0.23242909561980168 -0.7153433865191323 0.6589844875812331
vn -0.1624426980179156 -0.8515545896095482 0.4984647939178595
vn -0.060665069622919426 -0.9642435940064764 0.25798069839644916
vn -0.06225124018546022 -0.9894551029478058 0.13077990038962206
vn 0.18577200010322886 -0.9738508005411446 0.1307799000726709
vn 0.18103849840538125 -0.9490368916407173 0.2579806977276607
vn 0.2678899106554366 -0.8244803327940605 0.4984648198266527
vn 0.32025268945982766 -0.6805715776009947 0.6589844783114701
vn -0.14094009527493406 -0.7388337752303397 0.658984477907315
vn -0.054433719579973956 -0.8651992933238767 0.49846479615370387
vn 0.060665069622919426 -0.9642435940064764 0.25798069839644916
vn 0.06225124018546022 -0.9894551029478058 0.13077990038962206
vn 0.1624426980179156 -0.8515545896095482 0.4984647939178595
vn 0.23242909561980168 -0.7153433865191323 0.6589844875812331
vn -0.04722830034126155 -0.7506723054241968 0.6589845047616801
vn 0.054433719579973956 -0.8651992933238767 0.49846479615370387
vn 0.14094009527493406 -0.7388337752303397 0.658984477907315
vn 0.04722830034126155 -0.7506723054241968 0.6589845047616801
usemtl material_0_0
f 1/1/1 2/2/2 3/3/2
f 2/2/2 1/1/1 4/4/1
f 9/5/3 4/6/1 1/7/1
f 4/6/1 9/5/3 10/8/3
f 13/9/4 14/10/5 15/11/6
f 14/10/5 13/9/4 16/12/7
f 3/13/2 21/14/8 22/15/8
f 21/14/8 3/13/2 2/16/2
f 9/17/3 25/18/9 10/19/3
f 25/18/9 9/17/3 26/20/9
f 29/21/10 16/22/7 13/23/4
f 16/22/7 29/21/10 30/24/11
f 16/25/7 33/26/12 14/27/5
f 33/26/12 16/25/7 34/28/13
f 15/29/6 37/30/14 38/31/15
f 37/30/14 15/29/6 14/32/5
f 41/33/16 21/34/8 42/35/16
f 21/34/8 41/33/16 22/36/8
f 45/37/17 25/38/9 26/39/9
f 25/38/9 45/37/17 46/40/17
f 29/41/10 49/42/18 30/43/11
f 49/42/18 29/41/10 50/44/19
f 30/45/11 34/46/13 16/47/7
f 34/46/13 30/45/11 53/48/20
f 34/49/13 55/50/21 33/51/12
f 55/50/21 34/49/13 56/52/22
f 14/53/5 59/54/23 37/55/14
f 59/54/23 14/53/5 33/56/12
f 38/57/15 61/58/24 62/59/25
f 61/58/24 38/57/15 37/60/14
f 65/61/26 42/62/16 66/63/26
f 42/62/16 65/61/26 41/64/16
f 45/65/17 69/66/27 46/67/17
f 69/66/27 45/65/17 70/68/27
f 50/69/19 73/70/28 49/71/18
f 73/70/28 50/69/19 74/72/29
f 30/73/11 77/74/30 53/75/20
f 77/74/30 30/73/11 49/76/18
f 53/77/20 56/78/22 34/79/13
f 56/78/22 53/77/20 79/80/31
f 33/81/12 81/82/32 59/83/23
f 81/82/32 33/81/12 55/84/21
f 37/85/14 83/86/33 61/87/24
f 83/86/33 37/85/14 59/88/23
f 62/89/25 85/90/34 86/91/35
f 85/90/34 62/89/25 61/92/24
f 65/93/26 89/94/36 90/95/36
f 89/94/36 65/93/26 66/96/26
f 93/97/37 69/98/27 70/99/27
f 69/98/27 93/97/37 94/100/37
f 74/101/29 97/102/38 73/103/28
f 97/102/38 74/101/29 98/104/39
f 49/105/18 101/106/40 77/107/30
f 101/106/40 49/105/18 73/108/28
f 53/109/20 103/110/41 79/111/31
f 103/110/41 53/109/20 77/112/30
f 59/113/23 105/114/42 83/115/33
f 105/114/42 59/113/23 81/116/32
f 61/117/24 107/118/43 85/119/34
f 107/118/43 61/117/24 83/120/33
f 86/121/35 109/122/44 110/123/45
f 109/122/44 86/121/35 85/124/34
f 90/125/36 113/126/46 114/127/46
f 113/126/46 90/125/36 89/128/36
f 117/129/47 94/130/37 93/131/37
f 94/130/37 117/129/47 118/132/47
f 98/133/39 121/134/48 97/135/38
f 121/134/48 98/133/39 122/136/49
f 73/137/28 125/138/50 101/139/40
f 125/138/50 73/137/28 97/140/38
f 77/141/30 127/142/51 103/143/41
f 127/142/51 77/141/30 101/144/40
f 83/145/33 129/146/52 107/147/43
f 129/146/52 83/145/33 105/148/42
f 85/149/34 131/150/53 109/151/44
f 131/150/53 85/149/34 107/152/43
f 110/153/45 133/154/54 134/155/55
f 133/154/54 110/153/45 109/156/44
f 137/157/56 113/158/46 138/159/56
f 113/158/46 137/157/56 114/160/46
f 141/161/57 118/162/47 117/163/47
f 118/162/47 141/161/57 142/164/57
f 122/165/49 145/166/58 121/167/48
f 145/166/58 122/165/49 146/168/59
f 97/169/38 149/170/60 125/171/50
f 149/170/60 97/169/38 121/172/48
f 101/173/40 151/174/61 127/175/51
f 151/174/61 101/173/40 125/176/50
f 107/177/43 153/178/62 131/179/53
f 153/178/62 107/177/43 129/180/52
f 109/181/44 155/182/63 133/183/54
f 155/182/63 109/181/44 131/184/53
f 157/185/64 133/186/54 158/187/65
f 133/186/54 157/185/64 134/188/55
f 161/189/66 138/190/56 162/191/66
f 138/190/56 161/189/66 137/192/56
f 141/193/57 165/194/67 142/195/57
f 165/194/67 141/193/57 166/196/67
f 146/197/59 169/198/68 145/199/58
f 169/198/68 146/197/59 170/200/69
f 121/201/48 173/202/70 149/203/60
f 173/202/70 121/201/48 145/204/58
f 125/205/50 175/206/71 151/207/61
f 175/206/71 125/205/50 149/208/60
f 155/209/63 153/210/62 177/211/72
f 153/210/62 155/209/63 131/212/53
f 158/213/65 155/214/63 179/215/73
f 155/214/63 158/213/65 133/216/54
f 181/217/74 158/218/65 182/219/75
f 158/218/65 181/217/74 157/220/64
f 185/221/76 162/222/66 186/223/76
f 162/222/66 185/221/76 161/224/66
f 166/225/67 189/226/77 165/227/67
f 189/226/77 166/225/67 190/228/77
f 170/229/69 193/230/78 169/231/68
f 193/230/78 170/229/69 194/232/79
f 145/233/58 197/234/80 173/235/70
f 197/234/80 145/233/58 169/236/68
f 149/237/60 199/238/81 175/239/71
f 199/238/81 149/237/60 173/240/70
f 179/241/73 177/242/72 201/243/82
f 177/242/72 179/241/73 155/244/63
f 182/245/75 179/246/73 203/247/83
f 179/246/73 182/245/75 158/248/65
f 205/249/84 182/250/75 206/251/85
f 182/250/75 205/249/84 181/252/74
f 209/253/86 186/254/76 210/255/86
f 186/254/76 209/253/86 185/256/76
f 189/257/77 213/258/87 214/259/87
f 213/258/87 189/257/77 190/260/77
f 194/261/79 217/262/88 193/263/78
f 217/262/88 194/261/79 218/264/89
f 169/265/68 221/266/90 197/267/80
f 221/266/90 169/265/68 193/268/78
f 199/269/81 197/270/80 223/271/91
f 197/270/80 199/269/81 173/272/70
f 203/273/83 201/274/82 225/275/92
f 201/274/82 203/273/83 179/276/73
f 206/277/85 203/278/83 227/279/93
f 203/278/83 206/277/85 182/280/75
f 229/281/94 206/282/85 230/283/95
f 206/282/85 229/281/94 205/284/84
f 233/285/96 210/286/86 234/287/96
f 210/286/86 233/285/96 209/288/86
f 213/289/87 237/290/97 214/291/87
f 237/290/97 213/289/87 238/292/97
f 217/293/88 241/294/98 242/295/99
f 241/294/98 217/293/88 218/296/89
f 193/297/78 245/298/100 221/299/90
f 245/298/100 193/297/78 217/300/88
f 197/301/80 247/302/101 223/303/91
f 247/302/101 197/301/80 221/304/90
f 227/305/93 225/306/92 249/307/102
f 225/306/92 227/305/93 203/308/83
f 230/309/95 227/310/93 251/311/103
f 227/310/93 230/309/95 206/312/85
f 253/313/104 230/314/95 254/315/105
f 230/314/95 253/313/104 229/316/94
f 257/317/106 234/318/96 258/319/106
f 234/318/96 257/317/106 233/320/96
f 238/321/97 261/322/107 237/323/97
f 261/322/107 238/321/97 262/324/107
f 241/325/98 265/326/108 242/327/99
f 265/326/108 241/325/98 266/328/109
f 245/329/100 242/330/99 269/331/110
f 242/330/99 245/329/100 217/332/88
f 221/333/90 271/334/111 247/335/101
f 271/334/111 221/333/90 245/336/100
f 251/337/103 249/338/102 273/339/112
f 249/338/102 251/337/103 227/340/93
f 254/341/105 251/342/103 275/343/113
f 251/342/103 254/341/105 230/344/95
f 277/345/114 254/346/105 278/347/115
f 254/346/105 277/345/114 253/348/104
f 281/349/116 258/350/106 282/351/116
f 258/350/106 281/349/116 257/352/106
f 262/353/107 285/354/117 261/355/107
f 285/354/117 262/353/107 286/356/117
f 266/357/109 289/358/118 265/359/108
f 289/358/118 266/357/109 290/360/119
f 242/361/99 293/362/120 269/363/110
f 293/362/120 242/361/99 265/364/108
f 271/365/111 269/366/110 295/367/121
f 269/366/110 271/365/111 245/368/100
f 275/369/113 273/370/112 297/371/122
f 273/370/112 275/369/113 251/372/103
f 278/373/115 275/374/113 299/375/123
f 275/374/113 278/373/115 254/376/105
f 301/377/124 278/378/115 302/379/125
f 278/378/115 301/377/124 277/380/114
f 305/381/126 282/382/116 306/383/126
f 282/382/116 305/381/126 281/384/116
f 286/385/117 309/386/127 285/387/117
f 309/386/127 286/385/117 310/388/127
f 290/389/119 313/390/128 289/391/118
f 313/390/128 290/389/119 314/392/129
f 265/393/108 317/394/130 293/395/120
f 317/394/130 265/393/108 289/396/118
f 269/397/110 319/398/131 295/399/121
f 319/398/131 269/397/110 293/400/120
f 299/401/123 297/402/122 321/403/132
f 297/402/122 299/401/123 275/404/113
f 302/405/125 299/406/123 323/407/133
f 299/406/123 302/405/125 278/408/115
f 325/409/134 302/410/125 326/411/135
f 302/410/125 325/409/134 301/412/124
f 329/413/136 330/383/126 331/414/136
f 330/383/126 329/413/136 332/381/126
f 309/415/127 337/416/137 338/417/137
f 337/416/137 309/415/127 310/418/127
f 314/419/129 341/420/138 313/421/128
f 341/420/138 314/419/129 342/422/139
f 289/423/118 345/424/140 317/425/130
f 345/424/140 289/423/118 313/426/128
f 293/427/120 347/428/141 319/429/131
f 347/428/141 293/427/120 317/430/130
f 323/431/133 321/432/132 349/433/142
f 321/432/132 323/431/133 299/434/123
f 326/435/135 323/436/133 351/437/143
f 323/436/133 326/435/135 302/438/125
f 353/439/144 326/411/135 354/440/145
f 326/411/135 353/439/144 355/409/134
f 359/441/146 329/442/136 331/443/136
f 329/442/136 359/441/146 360/444/146
f 363/416/137 364/445/147 365/417/137
f 364/445/147 363/416/137 366/446/147
f 341/447/138 371/448/148 372/449/149
f 371/448/148 341/447/138 342/450/139
f 313/451/128 375/452/150 345/453/140
f 375/452/150 313/451/128 341/454/138
f 317/455/130 377/456/151 347/457/141
f 377/456/151 317/455/130 345/458/140
f 351/459/143 349/460/142 379/461/152
f 349/460/142 351/459/143 323/462/133
f 354/463/145 351/437/143 381/464/153
f 351/437/143 354/463/145 326/435/135
f 383/465/154 353/466/144 354/467/145
f 353/466/144 383/465/154 384/468/155
f 387/469/156 359/470/146 388/471/156
f 359/470/146 387/469/156 360/472/146
f 366/473/147 391/474/157 364/475/147
f 391/474/157 366/473/147 392/476/157
f 395/448/148 396/477/158 372/449/149
f 396/477/158 395/448/148 397/478/159
f 375/479/150 372/480/149 401/481/160
f 372/480/149 375/479/150 341/482/138
f 345/483/140 403/484/161 377/485/151
f 403/484/161 345/483/140 375/486/150
f 381/487/153 379/461/152 405/488/162
f 379/461/152 381/487/153 351/459/143
f 407/489/163 354/490/145 381/491/153
f 354/490/145 407/489/163 383/492/154
f 409/493/164 383/494/154 410/495/165
f 383/494/154 409/493/164 384/496/155
f 413/497/166 388/498/156 414/499/166
f 388/498/156 413/497/166 387/500/156
f 392/501/157 417/502/167 391/503/157
f 417/502/167 392/501/157 418/504/167
f 397/505/159 421/506/168 396/507/158
f 421/506/168 397/505/159 422/508/169
f 372/480/149 425/509/170 401/481/160
f 425/509/170 372/480/149 396/510/158
f 403/511/161 401/512/160 427/513/171
f 401/512/160 403/511/161 375/514/150
f 429/515/172 381/516/153 405/517/162
f 381/516/153 429/515/172 407/518/163
f 410/519/165 407/520/163 431/521/173
f 407/520/163 410/519/165 383/522/154
f 433/523/174 410/524/165 434/525/175
f 410/524/165 433/523/174 409/526/164
f 437/527/176 414/528/166 438/529/176
f 414/528/166 437/527/176 413/530/166
f 418/531/167 441/532/177 417/533/167
f 441/532/177 418/531/167 442/534/177
f 422/535/169 445/536/178 421/537/168
f 445/536/178 422/535/169 446/538/179
f 396/539/158 449/540/180 425/541/170
f 449/540/180 396/539/158 421/542/168
f 401/512/160 451/543/181 427/513/171
f 451/543/181 401/512/160 425/544/170
f 431/545/173 429/546/172 453/547/182
f 429/546/172 431/545/173 407/548/163
f 434/549/175 431/550/173 455/551/183
f 431/550/173 434/549/175 410/552/165
f 457/553/184 434/554/175 458/555/185
f 434/554/175 457/553/184 433/556/174
f 438/557/176 461/558/186 437/559/176
f 461/558/186 438/557/176 462/560/186
f 442/561/177 465/562/187 441/563/177
f 465/562/187 442/561/177 466/564/187
f 446/565/179 469/566/188 445/567/178
f 469/566/188 446/565/179 470/568/189
f 421/569/168 473/570/190 449/571/180
f 473/570/190 421/569/168 445/572/178
f 425/573/170 475/574/191 451/575/181
f 475/574/191 425/573/170 449/576/180
f 455/577/183 453/578/182 477/579/192
f 453/578/182 455/577/183 431/580/173
f 458/581/185 455/582/183 479/583/193
f 455/582/183 458/581/185 434/584/175
f 458/585/185 481/586/194 457/587/184
f 481/586/194 458/585/185 482/588/195
f 462/589/186 485/590/196 461/591/186
f 485/590/196 462/589/186 486/592/196
f 465/593/187 489/594/197 490/595/197
f 489/594/197 465/593/187 466/596/187
f 470/597/189 493/598/198 469/599/188
f 493/598/198 470/597/189 494/600/199
f 445/601/178 497/602/200 473/603/190
f 497/602/200 445/601/178 469/604/188
f 449/605/180 499/606/201 475/607/191
f 499/606/201 449/605/180 473/608/190
f 479/609/193 477/610/192 501/611/202
f 477/610/192 479/609/193 455/612/183
f 479/613/193 482/614/195 458/615/185
f 482/614/195 479/613/193 503/616/203
f 482/617/195 505/618/204 481/619/194
f 505/618/204 482/617/195 506/620/205
f 509/621/206 485/622/196 486/623/196
f 485/622/196 509/621/206 510/624/206
f 490/625/197 513/626/207 514/627/207
f 513/626/207 490/625/197 489/628/197
f 493/629/198 517/630/208 518/631/209
f 517/630/208 493/629/198 494/632/199
f 469/633/188 521/634/210 497/635/200
f 521/634/210 469/633/188 493/636/198
f 473/637/190 523/638/211 499/639/201
f 523/638/211 473/637/190 497/640/200
f 479/641/193 525/642/212 503/643/203
f 525/642/212 479/641/193 501/644/202
f 503/645/203 506/646/205 482/647/195
f 506/646/205 503/645/203 527/648/213
f 506/649/205 529/650/214 505/651/204
f 529/650/214 506/649/205 530/652/215
f 509/653/206 533/654/216 510/655/206
f 533/654/216 509/653/206 534/656/216
f 537/657/217 513/658/207 538/659/217
f 513/658/207 537/657/217 514/660/207
f 518/661/209 541/662/218 542/663/219
f 541/662/218 518/661/209 517/664/208
f 521/665/210 518/666/209 545/667/220
f 518/666/209 521/665/210 493/668/198
f 497/669/200 547/670/221 523/671/211
f 547/670/221 497/669/200 521/672/210
f 525/673/212 527/674/213 503/675/203
f 527/674/213 525/673/212 549/676/222
f 527/677/213 530/678/215 506/679/205
f 530/678/215 527/677/213 551/680/223
f 530/681/215 553/682/224 529/683/214
f 553/682/224 530/681/215 554/684/225
f 534/685/216 557/686/226 533/687/216
f 557/686/226 534/685/216 558/688/226
f 537/689/217 561/690/227 562/691/227
f 561/690/227 537/689/217 538/692/217
f 542/693/219 565/694/228 566/695/229
f 565/694/228 542/693/219 541/696/218
f 545/697/220 542/698/219 569/699/230
f 542/698/219 545/697/220 518/700/209
f 571/701/231 521/702/210 545/703/220
f 521/702/210 571/701/231 547/704/221
f 549/705/222 551/706/223 527/707/213
f 551/706/223 549/705/222 573/708/232
f 551/709/223 554/710/225 530/711/215
f 554/710/225 551/709/223 575/712/233
f 554/713/225 577/714/234 553/715/224
f 577/714/234 554/713/225 578/716/235
f 581/717/236 557/718/226 558/719/226
f 557/718/226 581/717/236 582/720/236
f 562/721/227 585/722/237 586/723/237
f 585/722/237 562/721/227 561/724/227
f 566/725/229 589/726/238 590/727/239
f 589/726/238 566/725/229 565/728/228
f 569/729/230 566/730/229 593/731/240
f 566/730/229 569/729/230 542/732/219
f 571/733/231 569/734/230 595/735/241
f 569/734/230 571/733/231 545/736/220
f 573/737/232 575/738/233 551/739/223
f 575/738/233 573/737/232 597/740/242
f 575/741/233 578/742/235 554/743/225
f 578/742/235 575/741/233 599/744/243
f 578/745/235 601/746/244 577/747/234
f 601/746/244 578/745/235 602/748/245
f 581/749/236 605/750/246 582/751/236
f 605/750/246 581/749/236 606/752/246
f 586/753/237 605/754/246 606/755/246
f 605/754/246 586/753/237 585/756/237
f 590/757/239 609/758/247 610/759/248
f 609/758/247 590/757/239 589/760/238
f 593/761/240 590/762/239 613/763/249
f 590/762/239 593/761/240 566/764/229
f 595/765/241 593/766/240 615/767/250
f 593/766/240 595/765/241 569/768/230
f 597/769/242 599/770/243 575/771/233
f 599/770/243 597/769/242 617/772/251
f 599/773/243 602/774/245 578/775/235
f 602/774/245 599/773/243 619/776/252
f 602/777/245 621/778/253 601/779/244
f 621/778/253 602/777/245 622/780/254
f 610/781/248 621/782/253 622/783/254
f 621/782/253 610/781/248 609/784/247
f 613/785/249 610/786/248 625/787/255
f 610/786/248 613/785/249 590/788/239
f 615/789/250 613/790/249 627/791/256
f 613/790/249 615/789/250 593/792/240
f 617/793/251 619/794/252 599/795/243
f 619/794/252 617/793/251 629/796/257
f 619/797/252 622/798/254 602/799/245
f 622/798/254 619/797/252 631/800/258
f 625/801/255 622/802/254 631/803/258
f 622/802/254 625/801/255 610/804/248
f 627/805/256 625/806/255 633/807/259
f 625/806/255 627/805/256 613/808/249
f 629/809/257 631/810/258 619/811/252
f 631/810/258 629/809/257 635/812/260
f 633/813/259 631/814/258 635/815/260
f 631/814/258 633/813/259 625/816/255
usemtl material_1_0
f 5//246 6//246 7//237
f 8//237 7//237 6//246
f 11//236 12//236 5//246
f 6//246 5//246 12//236
f 17//261 18//262 19//263
f 20//264 19//263 18//262
f 7//237 8//237 23//227
f 24//227 23//227 8//237
f 27//226 12//236 28//226
f 11//236 28//226 12//236
f 31//265 32//266 17//261
f 18//262 17//261 32//266
f 35//267 17//261 36//268
f 19//263 36//268 17//261
f 19//263 20//264 39//269
f 40//270 39//269 20//264
f 24//227 43//217 23//227
f 44//217 23//227 43//217
f 47//216 48//216 28//226
f 27//226 28//226 48//216
f 51//271 32//266 52//272
f 31//265 52//272 32//266
f 54//273 31//265 35//267
f 17//261 35//267 31//265
f 57//274 35//267 58//275
f 36//268 58//275 35//267
f 36//268 19//263 60//276
f 39//269 60//276 19//263
f 39//269 40//270 63//277
f 64//278 63//277 40//270
f 43//217 67//207 44//217
f 68//207 44//217 67//207
f 71//206 48//216 72//206
f 47//216 72//206 48//216
f 75//279 51//271 76//280
f 52//272 76//280 51//271
f 52//272 31//265 78//281
f 54//273 78//281 31//265
f 80//282 54//273 57//274
f 35//267 57//274 54//273
f 58//275 36//268 82//283
f 60//276 82//283 36//268
f 60//276 39//269 84//284
f 63//277 84//284 39//269
f 63//277 64//278 87//285
f 88//286 87//285 64//278
f 68//207 67//207 91//197
f 92//197 91//197 67//207
f 95//196 96//196 72//206
f 71//206 72//206 96//196
f 99//287 75//279 100//288
f 76//280 100//288 75//279
f 76//280 52//272 102//289
f 78//281 102//289 52//272
f 78//281 54//273 104//290
f 80//282 104//290 54//273
f 82//283 60//276 106//291
f 84//284 106//291 60//276
f 84//284 63//277 108//292
f 87//285 108//292 63//277
f 87//285 88//286 111//293
f 112//294 111//293 88//286
f 91//197 92//197 115//187
f 116//187 115//187 92//197
f 119//186 120//186 95//196
f 96//196 95//196 120//186
f 123//295 99//287 124//296
f 100//288 124//296 99//287
f 100//288 76//280 126//297
f 102//289 126//297 76//280
f 102//289 78//281 128//298
f 104//290 128//298 78//281
f 106//291 84//284 130//299
f 108//292 130//299 84//284
f 108//292 87//285 132//300
f 111//293 132//300 87//285
f 111//293 112//294 135//301
f 136//302 135//301 112//294
f 116//187 139//177 115//187
f 140//177 115//187 139//177
f 143//176 144//176 119//186
f 120//186 119//186 144//176
f 147//303 123//295 148//304
f 124//296 148//304 123//295
f 124//296 100//288 150//305
f 126//297 150//305 100//288
f 126//297 102//289 152//306
f 128//298 152//306 102//289
f 130//299 108//292 154//307
f 132//300 154//307 108//292
f 132//300 111//293 156//308
f 135//301 156//308 111//293
f 136//302 159//309 135//301
f 160//310 135//301 159//309
f 139//177 163//167 140//177
f 164//167 140//177 163//167
f 167//166 144//176 168//166
f 143//176 168//166 144//176
f 171//311 147//303 172//312
f 148//304 172//312 147//303
f 148//304 124//296 174//313
f 150//305 174//313 124//296
f 150//305 126//297 176//314
f 152//306 176//314 126//297
f 132//300 156//308 154//307
f 178//315 154//307 156//308
f 135//301 160//310 156//308
f 180//316 156//308 160//310
f 159//309 183//317 160//310
f 184//318 160//310 183//317
f 163//167 187//157 164//167
f 188//157 164//167 187//157
f 191//156 167//166 192//156
f 168//166 192//156 167//166
f 195//319 171//311 196//320
f 172//312 196//320 171//311
f 172//312 148//304 198//321
f 174//313 198//321 148//304
f 174//313 150//305 200//322
f 176//314 200//322 150//305
f 156//308 180//316 178//315
f 202//323 178//315 180//316
f 160//310 184//318 180//316
f 204//324 180//316 184//318
f 183//317 207//325 184//318
f 208//326 184//318 207//325
f 187//157 211//147 188//157
f 212//147 188//157 211//147
f 191//156 192//156 215//146
f 216//146 215//146 192//156
f 219//327 195//319 220//328
f 196//320 220//328 195//319
f 196//320 172//312 222//329
f 198//321 222//329 172//312
f 174//313 200//322 198//321
f 224//330 198//321 200//322
f 180//316 204//324 202//323
f 226//331 202//323 204//324
f 184//318 208//326 204//324
f 228//332 204//324 208//326
f 207//325 231//333 208//326
f 232//334 208//326 231//333
f 211//147 235//127 212//147
f 236//127 212//147 235//127
f 239//136 215//146 240//136
f 216//146 240//136 215//146
f 219//327 220//328 243//335
f 244//336 243//335 220//328
f 220//328 196//320 246//337
f 222//329 246//337 196//320
f 222//329 198//321 248//338
f 224//330 248//338 198//321
f 204//324 228//332 226//331
f 250//339 226//331 228//332
f 208//326 232//334 228//332
f 252//340 228//332 232//334
f 231//333 255//341 232//334
f 256//342 232//334 255//341
f 235//127 259//117 236//127
f 260//117 236//127 259//117
f 263//116 239//136 264//116
f 240//136 264//116 239//136
f 267//343 243//335 268//344
f 244//336 268//344 243//335
f 220//328 246//337 244//336
f 270//345 244//336 246//337
f 246//337 222//329 272//346
f 248//338 272//346 222//329
f 228//332 252//340 250//339
f 274//347 250//339 252//340
f 232//334 256//342 252//340
f 276//348 252//340 256//342
f 255//341 279//349 256//342
f 280//350 256//342 279//349
f 259//117 283//107 260//117
f 284//107 260//117 283//107
f 287//106 263//116 288//106
f 264//116 288//106 263//116
f 291//351 267//343 292//352
f 268//344 292//352 267//343
f 268//344 244//336 294//353
f 270//345 294//353 244//336
f 246//337 272//346 270//345
f 296//354 270//345 272//346
f 252//340 276//348 274//347
f 298//355 274//347 276//348
f 256//342 280//350 276//348
f 300//356 276//348 280//350
f 279//349 303//357 280//350
f 304//358 280//350 303//357
f 283//107 307//359 284//107
f 308//359 284//107 307//359
f 311//96 287//106 312//96
f 288//106 312//96 287//106
f 315//360 291//351 316//361
f 292//352 316//361 291//351
f 292//352 268//344 318//362
f 294//353 318//362 268//344
f 294//353 270//345 320//363
f 296//354 320//363 270//345
f 276//348 300//356 298//355
f 322//364 298//355 300//356
f 280//350 304//358 300//356
f 324//365 300//356 304//358
f 303//357 327//366 304//358
f 328//367 304//358 327//366
f 333//359 334//97 335//359
f 336//97 335//359 334//97
f 311//96 312//96 339//368
f 340//368 339//368 312//96
f 343//369 315//360 344//370
f 316//361 344//370 315//360
f 316//361 292//352 346//371
f 318//362 346//371 292//352
f 318//362 294//353 348//372
f 320//363 348//372 294//353
f 300//356 324//365 322//364
f 350//373 322//364 324//365
f 304//358 328//367 324//365
f 352//374 324//365 328//367
f 356//366 357//375 328//367
f 358//376 328//367 357//375
f 361//87 362//87 334//97
f 336//97 334//97 362//87
f 367//86 368//368 369//86
f 370//368 369//86 368//368
f 343//369 344//370 373//377
f 374//378 373//377 344//370
f 344//370 316//361 376//379
f 346//371 376//379 316//361
f 346//371 318//362 378//380
f 348//372 378//380 318//362
f 324//365 352//374 350//373
f 380//381 350//373 352//374
f 328//367 358//376 352//374
f 382//382 352//374 358//376
f 385//383 386//384 357//375
f 358//376 357//375 386//384
f 361//87 389//77 362//87
f 390//77 362//87 389//77
f 393//76 367//86 394//76
f 369//86 394//76 367//86
f 398//385 399//377 400//386
f 374//378 400//386 399//377
f 344//370 376//379 374//378
f 402//387 374//378 376//379
f 376//379 346//371 404//388
f 378//380 404//388 346//371
f 352//374 382//382 380//381
f 406//389 380//381 382//382
f 386//384 408//390 358//376
f 382//382 358//376 408//390
f 385//383 411//391 386//384
f 412//392 386//384 411//391
f 389//77 415//67 390//77
f 416//67 390//77 415//67
f 419//66 393//76 420//66
f 394//76 420//66 393//76
f 423//393 398//385 424//394
f 400//386 424//394 398//385
f 400//386 374//378 426//395
f 402//387 426//395 374//378
f 376//379 404//388 402//387
f 428//396 402//387 404//388
f 408//390 430//397 382//382
f 406//389 382//382 430//397
f 386//384 412//392 408//390
f 432//398 408//390 412//392
f 411//391 435//399 412//392
f 436//400 412//392 435//399
f 415//67 439//57 416//67
f 440//57 416//67 439//57
f 443//56 419//66 444//56
f 420//66 444//56 419//66
f 447//401 423//393 448//402
f 424//394 448//402 423//393
f 424//394 400//386 450//403
f 426//395 450//403 400//386
f 426//395 402//387 452//404
f 428//396 452//404 402//387
f 408//390 432//398 430//397
f 454//405 430//397 432//398
f 412//392 436//400 432//398
f 456//406 432//398 436//400
f 435//399 459//407 436//400
f 460//408 436//400 459//407
f 463//47 440//57 464//47
f 439//57 464//47 440//57
f 467//46 443//56 468//46
f 444//56 468//46 443//56
f 471//409 447//401 472//410
f 448//402 472//410 447//401
f 448//402 424//394 474//411
f 450//403 474//411 424//394
f 450//403 426//395 476//412
f 452//404 476//412 426//395
f 432//398 456//406 454//405
f 478//413 454//405 456//406
f 436//400 460//408 456//406
f 480//414 456//406 460//408
f 483//415 460//408 484//416
f 459//407 484//416 460//408
f 487//37 463//47 488//37
f 464//47 488//37 463//47
f 467//46 468//46 491//36
f 492//36 491//36 468//46
f 495//417 471//409 496//418
f 472//410 496//418 471//409
f 472//410 448//402 498//419
f 474//411 498//419 448//402
f 474//411 450//403 500//420
f 476//412 500//420 450//403
f 456//406 480//414 478//413
f 502//421 478//413 480//414
f 504//422 480//414 483//415
f 460//408 483//415 480//414
f 507//423 483//415 508//424
f 484//416 508//424 483//415
f 511//27 512//27 488//37
f 487//37 488//37 512//27
f 491//36 492//36 515//26
f 516//26 515//26 492//36
f 495//417 496//418 519//425
f 520//426 519//425 496//418
f 496//418 472//410 522//427
f 498//419 522//427 472//410
f 498//419 474//411 524//428
f 500//420 524//428 474//411
f 502//421 480//414 526//429
f 504//422 526//429 480//414
f 528//430 504//422 507//423
f 483//415 507//423 504//422
f 531//431 507//423 532//432
f 508//424 532//432 507//423
f 535//17 512//27 536//17
f 511//27 536//17 512//27
f 516//26 539//16 515//26
f 540//16 515//26 539//16
f 519//425 520//426 543//433
f 544//434 543//433 520//426
f 496//418 522//427 520//426
f 546//435 520//426 522//427
f 522//427 498//419 548//436
f 524//428 548//436 498//419
f 550//437 526//429 528//430
f 504//422 528//430 526//429
f 552//438 528//430 531//431
f 507//423 531//431 528//430
f 555//439 531//431 556//440
f 532//432 556//440 531//431
f 559//9 535//17 560//9
f 536//17 560//9 535//17
f 540//16 539//16 563//8
f 564//8 563//8 539//16
f 543//433 544//434 567//441
f 568//442 567//441 544//434
f 520//426 546//435 544//434
f 570//443 544//434 546//435
f 548//436 572//444 522//427
f 546//435 522//427 572//444
f 574//445 550//437 552//438
f 528//430 552//438 550//437
f 576//446 552//438 555//439
f 531//431 555//439 552//438
f 579//447 555//439 580//448
f 556//440 580//448 555//439
f 583//3 584//3 560//9
f 559//9 560//9 584//3
f 563//8 564//8 587//2
f 588//2 587//2 564//8
f 567//441 568//442 591//449
f 592//450 591//449 568//442
f 544//434 570//443 568//442
f 594//451 568//442 570//443
f 546//435 572//444 570//443
f 596//452 570//443 572//444
f 598//453 574//445 576//446
f 552//438 576//446 574//445
f 600//454 576//446 579//447
f 555//439 579//447 576//446
f 603//455 579//447 604//456
f 580//448 604//456 579//447
f 607//1 584//3 608//1
f 583//3 608//1 584//3
f 587//2 588//2 608//1
f 607//1 608//1 588//2
f 591//449 592//450 611//457
f 612//458 611//457 592//450
f 568//442 594//451 592//450
f 614//459 592//450 594//451
f 570//443 596//452 594//451
f 616//460 594//451 596//452
f 618//461 598//453 600//454
f 576//446 600//454 598//453
f 620//462 600//454 603//455
f 579//447 603//455 600//454
f 623//463 603//455 624//464
f 604//456 624//464 603//455
f 611//457 612//458 624//464
f 623//463 624//464 612//458
f 592//450 614//459 612//458
f 626//465 612//458 614//459
f 594//451 616//460 614//459
f 628//466 614//459 616//460
f 630//467 618//461 620//462
f 600//454 620//462 618//461
f 632//468 620//462 623//463
f 603//455 623//463 620//462
f 612//458 626//465 623//463
f 632//468 623//463 626//465
f 614//459 628//466 626//465
f 634//469 626//465 628//466
f 636//470 630//467 632//468
f 620//462 632//468 630//467
f 626//465 634//469 632//468
f 636//470 632//468 634//469
