# SSTK version 0.8.0
# 50
mtllib original-50.mtl
o #ID398
v 0.015585 0.499239 0.451921
v 0.019554 0.502145 0.452143
v 0.015508 0.499805 0.453021
v 0.019648 0.501589 0.451037
v 0.019922 0.500823 0.450102
v 0.015809 0.498443 0.450995
v 0.023246 0.504930 0.451098
v 0.023355 0.504385 0.449987
v 0.011231 0.497371 0.452622
v 0.011172 0.497945 0.453720
v 0.023676 0.503654 0.449039
v 0.011402 0.496553 0.451705
v 0.026526 0.508114 0.449901
v 0.026650 0.507583 0.448787
v 0.006655 0.496016 0.453130
v 0.006615 0.496596 0.454226
v 0.027012 0.506892 0.447822
v 0.006770 0.495181 0.452220
v 0.029343 0.511647 0.448574
v 0.029478 0.511132 0.447454
v 0.001928 0.495194 0.453439
v 0.001908 0.495777 0.454534
v 0.029877 0.510486 0.446473
v 0.001986 0.494349 0.452533
v 0.031651 0.515475 0.447138
v 0.031797 0.514976 0.446010
v -0.002874 0.495503 0.454636
v -0.002874 0.494919 0.453543
v 0.032225 0.514380 0.445011
v -0.002874 0.494070 0.452636
v 0.033415 0.519536 0.445612
v 0.033569 0.519056 0.444479
v -0.007656 0.495777 0.454534
v -0.007676 0.495194 0.453439
v 0.034020 0.518512 0.443459
v -0.007734 0.494349 0.452533
v 0.034606 0.523767 0.444024
v 0.034766 0.523305 0.442883
v -0.012363 0.496596 0.454226
v -0.012402 0.496016 0.453130
v 0.035233 0.522817 0.441843
v -0.012518 0.495181 0.452220
v 0.035207 0.528100 0.442397
v 0.035369 0.527658 0.441249
v -0.016920 0.497945 0.453720
v -0.016978 0.497371 0.452622
v 0.035844 0.527226 0.440187
v -0.017149 0.496553 0.451705
v 0.035207 0.532468 0.440757
v 0.035369 0.532045 0.439602
v -0.021256 0.499805 0.453021
v -0.021332 0.499239 0.451921
v 0.035844 0.531671 0.438518
v -0.021557 0.498443 0.450995
v 0.034606 0.536801 0.439128
v 0.034766 0.536398 0.437966
v -0.025301 0.502145 0.452143
v -0.025395 0.501589 0.451037
v 0.035233 0.536081 0.436862
v -0.025670 0.500823 0.450102
v 0.033415 0.541032 0.437540
v 0.033569 0.540648 0.436371
v -0.028993 0.504930 0.451098
v -0.029103 0.504385 0.449987
v 0.034020 0.540386 0.435245
v -0.029424 0.503654 0.449039
v 0.031651 0.545093 0.436016
v 0.031797 0.544727 0.434839
v -0.032274 0.508114 0.449901
v -0.032397 0.507583 0.448787
v 0.032225 0.544518 0.433694
v -0.032760 0.506892 0.447822
v 0.029343 0.548921 0.434578
v 0.029478 0.548571 0.433395
v -0.035090 0.511647 0.448574
v -0.035226 0.511132 0.447454
v 0.029877 0.548411 0.432231
v -0.035624 0.510486 0.446473
v 0.026526 0.552454 0.433251
v 0.026650 0.552120 0.432063
v -0.037398 0.515475 0.447138
v -0.037545 0.514976 0.446010
v 0.027012 0.552006 0.430881
v -0.037973 0.514380 0.445011
v 0.023246 0.555638 0.432056
v 0.023355 0.555317 0.430862
v -0.039162 0.519536 0.445612
v -0.039316 0.519056 0.444479
v 0.023676 0.555244 0.429666
v -0.039767 0.518512 0.443459
v 0.019648 0.558114 0.429812
v 0.019554 0.558423 0.431009
v -0.040354 0.523767 0.444024
v -0.040513 0.523305 0.442883
v 0.019922 0.558075 0.428603
v -0.040980 0.522817 0.441843
v 0.015585 0.560464 0.428930
v 0.015508 0.560763 0.430131
v -0.040955 0.528100 0.442397
v -0.041116 0.527658 0.441249
v 0.015809 0.560454 0.427710
v -0.041591 0.527226 0.440187
v 0.011231 0.562332 0.428229
v 0.011172 0.562623 0.429433
v -0.040955 0.532468 0.440757
v -0.041116 0.532045 0.439602
v 0.011402 0.562344 0.426999
v -0.041591 0.531671 0.438518
v 0.006655 0.563687 0.427719
v 0.006615 0.563972 0.428926
v -0.040354 0.536801 0.439128
v -0.040513 0.536398 0.437966
v 0.006770 0.563716 0.426485
v -0.040980 0.536081 0.436862
v 0.001928 0.564509 0.427410
v 0.001908 0.564791 0.428618
v -0.039162 0.541032 0.437540
v -0.039316 0.540648 0.436371
v 0.001986 0.564548 0.426172
v -0.039767 0.540386 0.435245
v -0.002874 0.564785 0.427308
v -0.002874 0.565065 0.428516
v -0.037398 0.545093 0.436016
v -0.037545 0.544727 0.434839
v -0.002874 0.564827 0.426067
v -0.037973 0.544518 0.433694
v -0.007656 0.564791 0.428618
v -0.007676 0.564509 0.427410
v -0.035090 0.548921 0.434578
v -0.035226 0.548571 0.433395
v -0.007734 0.564548 0.426172
v -0.035624 0.548411 0.432231
v -0.012363 0.563972 0.428926
v -0.012402 0.563687 0.427719
v -0.032274 0.552454 0.433251
v -0.032397 0.552120 0.432063
v -0.012518 0.563716 0.426485
v -0.032760 0.552006 0.430881
v -0.016920 0.562623 0.429433
v -0.016978 0.562332 0.428229
v -0.028993 0.555638 0.432056
v -0.029103 0.555317 0.430862
v -0.017149 0.562344 0.426999
v -0.029424 0.555244 0.429666
v -0.021256 0.560763 0.430131
v -0.021332 0.560464 0.428930
v -0.025395 0.558114 0.429812
v -0.025301 0.558423 0.431009
v -0.021557 0.560454 0.427710
v -0.025670 0.558075 0.428603
vn 0.4557041115105984 -0.7052137178129443 0.5431458137192822
vn 0.57264650889846 -0.7116753110588545 0.40693270632340245
vn 0.46795579773180423 -0.7722638962568139 0.4296810979173227
vn 0.5576521206929677 -0.6462053239789386 0.5210017193329699
vn 0.49923087820736695 -0.48370287888520175 0.7188880686188002
vn 0.40796779696979474 -0.5365407960148112 0.7387057945132183
vn 0.6690803850881454 -0.6389228857602683 0.37961689153944406
vn 0.6515585165087957 -0.5753514145779063 0.49441101252708713
vn 0.34734649926920563 -0.7517188984184325 0.56059709882054
vn 0.3566838968623553 -0.8200138927865759 0.44760899606251336
vn 0.5832922870420832 -0.4202606906638523 0.6950906845584667
vn 0.3109637874743416 -0.5781843767106647 0.7543237696157485
vn 0.7556033268062564 -0.554898119685913 0.3480685123482962
vn 0.7358128728852004 -0.4935207818136954 0.46369888291263606
vn 0.23420618977268667 -0.7852476657098136 0.5731784749704485
vn 0.2405016978344482 -0.8544396923063603 0.4605341958532072
vn 0.6587107101830452 -0.34699320536418726 0.6676046103205363
vn 0.20967580529427113 -0.6082089153571508 0.7655834193308244
vn 0.830624576700466 -0.4607321870761767 0.3127117912282404
vn 0.8088662330928053 -0.40181541643930585 0.4292782175628797
vn 0.11789350024667919 -0.8054844016853876 0.5807719012152012
vn 0.12106229660416208 -0.8752176754498515 0.4683352868630383
vn 0.7241004162026268 -0.26488790592718897 0.6367990142491518
vn 0.10554590201095237 -0.6263309119334018 0.7723792147160409
vn 0.8926711614891939 -0.35780748456379546 0.27406568817650767
vn 0.8692846091585826 -0.3015819031773977 0.39165370412637324
vn 0 -0.8821635493676953 0.47094317296993454
vn 0 -0.8122493551035194 0.5833103677579518
vn 0.7781786985059203 -0.17515109966371528 0.6031251988420178
vn 0 -0.632388993953729 0.7746509925935617
vn 0.9404515232863794 -0.24775390613459744 0.23274220576289487
vn 0.91581076326173 -0.19440789220121685 0.3514202859025752
vn -0.12106229660416208 -0.8752176754498515 0.4683352868630383
vn -0.11789350024667919 -0.8054844016853876 0.5807719012152012
vn 0.8198212781441679 -0.07920432788847102 0.5671152848811238
vn -0.10554590201095237 -0.6263309119334018 0.7723792147160409
vn 0.9729220118317048 -0.13242500161042053 0.1894370023037434
vn 0.9474286773139682 -0.08209827803416961 0.30925519259493267
vn -0.2405016978344482 -0.8544396923063603 0.4605341958532072
vn -0.23420618977268667 -0.7852476657098136 0.5731784749704485
vn 0.8481197904619234 0.021336689760044412 0.5293746940465764
vn -0.20967580529427113 -0.6082089153571508 0.7655834193308244
vn 0.9893473845558752 -0.013853439783742068 0.1449131977378446
vn 0.9634227092059363 0.03336755031884186 0.26590090254080245
vn -0.3566838968623553 -0.8200138927865759 0.44760899606251336
vn -0.34734649926920563 -0.7517188984184325 0.56059709882054
vn 0.8624344985222229 0.12470069978632588 0.49056749915941505
vn -0.3109637874743416 -0.5781843767106647 0.7543237696157485
vn 0.9893473950237792 0.10581219946778564 0.09997754949713282
vn 0.9634227082019161 0.14989750127612383 0.22214280189117055
vn -0.46795579773180423 -0.7722638962568139 0.4296810979173227
vn -0.4557041115105984 -0.7052137178129443 0.5431458137192822
vn 0.8624345056010033 0.22901570148732175 0.45139620293155214
vn -0.40796779696979474 -0.5365407960148112 0.7387057945132183
vn 0.9729220153841143 0.22438320354800984 0.05545205087682335
vn 0.9474286662084128 0.2653605905354821 0.17878109362348102
vn -0.57264650889846 -0.7116753110588545 0.40693270632340245
vn -0.5576521206929677 -0.6462053239789386 0.5210017193329699
vn 0.84811979230319 0.3323750969836477 0.4125767962558059
vn -0.49923087820736695 -0.48370287888520175 0.7188880686188002
vn 0.9404515388897915 0.33971081404780806 0.012143550502163265
vn 0.915810779785634 0.37766469166394134 0.13660159698484153
vn -0.6690803850881454 -0.6389228857602683 0.37961689153944406
vn -0.6515585165087957 -0.5753514145779063 0.49441101252708713
vn 0.8198212926618698 0.43290719612509526 0.3748124966450947
vn -0.5832922870420832 -0.4202606906638523 0.6950906845584667
vn 0.8926711562974108 0.44976267798092456 -0.02918458857120714
vn 0.8692846228962792 0.4848312127700762 0.09634801253773163
vn -0.7556033268062564 -0.554898119685913 0.3480685123482962
vn -0.7358128728852004 -0.4935207818136954 0.46369888291263606
vn 0.7781787030642422 0.5288415020824244 0.33876920133397503
vn -0.6587107101830452 -0.34699320536418726 0.6676046103205363
vn 0.8306245929431424 0.5526852953044715 -0.06783619942367404
vn 0.808866239617868 0.5850554286557252 0.058698822875039414
vn -0.830624576700466 -0.4607321870761767 0.3127117912282404
vn -0.8088662330928053 -0.40181541643930585 0.4292782175628797
vn 0.7241003980984401 0.6185629983755917 0.3050547991988958
vn -0.7241004162026268 -0.26488790592718897 0.6367990142491518
vn 0.7556033375372754 0.6468489321345147 -0.10319910512678139
vn 0.7358128627816818 0.6767505657691253 0.024250828773363448
vn -0.8926711614891939 -0.35780748456379546 0.27406568817650767
vn -0.8692846091585826 -0.3015819031773977 0.39165370412637324
vn 0.6587107266965615 0.7006513283963512 0.27420411111308307
vn -0.7781786985059203 -0.17515109966371528 0.6031251988420178
vn 0.669080382472416 0.7308712808537088 -0.1347538964699154
vn 0.6515585171173285 0.7585706199286819 -0.006489480170487302
vn -0.9404515232863794 -0.24775390613459744 0.23274220576289487
vn -0.91581076326173 -0.19440789220121685 0.3514202859025752
vn 0.5832922814107057 0.7739013753360692 0.24667139213868047
vn -0.8198212781441679 -0.07920432788847102 0.5671152848811238
vn 0.5576520846969809 0.8294142772393168 -0.033107539091466846
vn 0.5726465190560014 0.803621426742171 -0.16207580539340866
vn -0.9729220118317048 -0.13242500161042053 0.1894370023037434
vn -0.9474286773139682 -0.08209827803416961 0.30925519259493267
vn 0.4992308887030092 0.837326581052313 0.22282889495765199
vn -0.8481197904619234 0.021336689760044412 0.5293746940465764
vn 0.45570412281341754 0.8884133444756663 -0.055276412767242454
vn 0.46795581329506 0.8642079245529511 -0.1848297052511837
vn -0.9893473845558752 -0.013853439783742068 0.1449131977378446
vn -0.9634227092059363 0.03336755031884186 0.26590090254080245
vn 0.40796779845754305 0.8901490966344975 0.20297009923260473
vn -0.8624344985222229 0.12470069978632588 0.49056749915941505
vn 0.34734650778074766 0.9349107209425005 -0.0727485216296056
vn 0.3566838883116582 0.9119561701156801 -0.20276229335558701
vn -0.9893473950237792 0.10581219946778564 0.09997754949713282
vn -0.9634227082019161 0.14989750127612383 0.22214280189117055
vn 0.3109637939680301 0.9317797819256527 0.18731779636647328
vn -0.8624345056010033 0.22901570148732175 0.45139620293155214
vn 0.23420619297446899 0.9684335709497003 -0.08534563743986927
vn 0.2405017101924327 0.9463806401074942 -0.215691009140958
vn -0.9729220153841143 0.22438320354800984 0.05545205087682335
vn -0.9474286662084128 0.2653605905354821 0.17878109362348102
vn 0.20967581031958313 0.9617945473364989 0.1760321086637463
vn -0.84811979230319 0.3323750969836477 0.4125767962558059
vn 0.11789349863432184 0.9886665885472873 -0.09294890892327971
vn 0.12106230044099245 0.9671578035230561 -0.22349430081412028
vn -0.9404515388897915 0.33971081404780806 0.012143550502163265
vn -0.915810779785634 0.37766469166394134 0.13660159698484153
vn 0.10554589994168061 0.9799104994585505 0.1692201999064976
vn -0.8198212926618698 0.43290719612509526 0.3748124966450947
vn 0 0.9954303266797666 -0.09549065255936356
vn 0 0.9741034217809674 -0.2261029050556642
vn -0.8926711562974108 0.44976267798092456 -0.02918458857120714
vn -0.8692846228962792 0.4848312127700762 0.09634801253773163
vn 0 0.985966566390387 0.16694289430925344
vn -0.7781787030642422 0.5288415020824244 0.33876920133397503
vn -0.12106230044099245 0.9671578035230561 -0.22349430081412028
vn -0.11789349863432184 0.9886665885472873 -0.09294890892327971
vn -0.8306245929431424 0.5526852953044715 -0.06783619942367404
vn -0.808866239617868 0.5850554286557252 0.058698822875039414
vn -0.10554589994168061 0.9799104994585505 0.1692201999064976
vn -0.7241003980984401 0.6185629983755917 0.3050547991988958
vn -0.2405017101924327 0.9463806401074942 -0.215691009140958
vn -0.23420619297446899 0.9684335709497003 -0.08534563743986927
vn -0.7556033375372754 0.6468489321345147 -0.10319910512678139
vn -0.7358128627816818 0.6767505657691253 0.024250828773363448
vn -0.20967581031958313 0.9617945473364989 0.1760321086637463
vn -0.6587107266965615 0.7006513283963512 0.27420411111308307
vn -0.3566838883116582 0.9119561701156801 -0.20276229335558701
vn -0.34734650778074766 0.9349107209425005 -0.0727485216296056
vn -0.669080382472416 0.7308712808537088 -0.1347538964699154
vn -0.6515585171173285 0.7585706199286819 -0.006489480170487302
vn -0.3109637939680301 0.9317797819256527 0.18731779636647328
vn -0.5832922814107057 0.7739013753360692 0.24667139213868047
vn -0.46795581329506 0.8642079245529511 -0.1848297052511837
vn -0.45570412281341754 0.8884133444756663 -0.055276412767242454
vn -0.5576520846969809 0.8294142772393168 -0.033107539091466846
vn -0.5726465190560014 0.803621426742171 -0.16207580539340866
vn -0.40796779845754305 0.8901490966344975 0.20297009923260473
vn -0.4992308887030092 0.837326581052313 0.22282889495765199
usemtl material_0_0
f 1//1 2//2 3//3
f 2//2 1//1 4//4
f 5//5 1//1 6//6
f 1//1 5//5 4//4
f 4//4 7//7 2//2
f 7//7 4//4 8//8
f 9//9 3//3 10//10
f 3//3 9//9 1//1
f 11//11 4//4 5//5
f 4//4 11//11 8//8
f 6//6 9//9 12//12
f 9//9 6//6 1//1
f 8//8 13//13 7//7
f 13//13 8//8 14//14
f 15//15 10//10 16//16
f 10//10 15//15 9//9
f 11//11 14//14 8//8
f 14//14 11//11 17//17
f 18//18 9//9 15//15
f 9//9 18//18 12//12
f 14//14 19//19 13//13
f 19//19 14//14 20//20
f 21//21 16//16 22//22
f 16//16 21//21 15//15
f 17//17 20//20 14//14
f 20//20 17//17 23//23
f 24//24 15//15 21//21
f 15//15 24//24 18//18
f 20//20 25//25 19//19
f 25//25 20//20 26//26
f 21//21 27//27 28//28
f 27//27 21//21 22//22
f 23//23 26//26 20//20
f 26//26 23//23 29//29
f 24//24 28//28 30//30
f 28//28 24//24 21//21
f 26//26 31//31 25//25
f 31//31 26//26 32//32
f 28//28 33//33 34//34
f 33//33 28//28 27//27
f 29//29 32//32 26//26
f 32//32 29//29 35//35
f 30//30 34//34 36//36
f 34//34 30//30 28//28
f 32//32 37//37 31//31
f 37//37 32//32 38//38
f 34//34 39//39 40//40
f 39//39 34//34 33//33
f 35//35 38//38 32//32
f 38//38 35//35 41//41
f 36//36 40//40 42//42
f 40//40 36//36 34//34
f 38//38 43//43 37//37
f 43//43 38//38 44//44
f 40//40 45//45 46//46
f 45//45 40//40 39//39
f 41//41 44//44 38//38
f 44//44 41//41 47//47
f 42//42 46//46 48//48
f 46//46 42//42 40//40
f 44//44 49//49 43//43
f 49//49 44//44 50//50
f 46//46 51//51 52//52
f 51//51 46//46 45//45
f 47//47 50//50 44//44
f 50//50 47//47 53//53
f 46//46 54//54 48//48
f 54//54 46//46 52//52
f 50//50 55//55 49//49
f 55//55 50//50 56//56
f 52//52 57//57 58//58
f 57//57 52//52 51//51
f 53//53 56//56 50//50
f 56//56 53//53 59//59
f 52//52 60//60 54//54
f 60//60 52//52 58//58
f 56//56 61//61 55//55
f 61//61 56//56 62//62
f 58//58 63//63 64//64
f 63//63 58//58 57//57
f 59//59 62//62 56//56
f 62//62 59//59 65//65
f 58//58 66//66 60//60
f 66//66 58//58 64//64
f 62//62 67//67 61//61
f 67//67 62//62 68//68
f 69//69 64//64 63//63
f 64//64 69//69 70//70
f 65//65 68//68 62//62
f 68//68 65//65 71//71
f 70//70 66//66 64//64
f 66//66 70//70 72//72
f 68//68 73//73 67//67
f 73//73 68//68 74//74
f 75//75 70//70 69//69
f 70//70 75//75 76//76
f 71//71 74//74 68//68
f 74//74 71//71 77//77
f 76//76 72//72 70//70
f 72//72 76//76 78//78
f 74//74 79//79 73//73
f 79//79 74//74 80//80
f 81//81 76//76 75//75
f 76//76 81//81 82//82
f 77//77 80//80 74//74
f 80//80 77//77 83//83
f 82//82 78//78 76//76
f 78//78 82//82 84//84
f 80//80 85//85 79//79
f 85//85 80//80 86//86
f 87//87 82//82 81//81
f 82//82 87//87 88//88
f 80//80 89//89 86//86
f 89//89 80//80 83//83
f 88//88 84//84 82//82
f 84//84 88//88 90//90
f 85//85 91//91 92//92
f 91//91 85//85 86//86
f 93//93 88//88 87//87
f 88//88 93//93 94//94
f 86//86 95//95 91//91
f 95//95 86//86 89//89
f 94//94 90//90 88//88
f 90//90 94//94 96//96
f 92//92 97//97 98//98
f 97//97 92//92 91//91
f 99//99 94//94 93//93
f 94//94 99//99 100//100
f 91//91 101//101 97//97
f 101//101 91//91 95//95
f 100//100 96//96 94//94
f 96//96 100//100 102//102
f 98//98 103//103 104//104
f 103//103 98//98 97//97
f 105//105 100//100 99//99
f 100//100 105//105 106//106
f 97//97 107//107 103//103
f 107//107 97//97 101//101
f 106//106 102//102 100//100
f 102//102 106//106 108//108
f 104//104 109//109 110//110
f 109//109 104//104 103//103
f 111//111 106//106 105//105
f 106//106 111//111 112//112
f 103//103 113//113 109//109
f 113//113 103//103 107//107
f 112//112 108//108 106//106
f 108//108 112//112 114//114
f 110//110 115//115 116//116
f 115//115 110//110 109//109
f 117//117 112//112 111//111
f 112//112 117//117 118//118
f 109//109 119//119 115//115
f 119//119 109//109 113//113
f 118//118 114//114 112//112
f 114//114 118//118 120//120
f 116//116 121//121 122//122
f 121//121 116//116 115//115
f 123//123 118//118 117//117
f 118//118 123//123 124//124
f 121//121 119//119 125//125
f 119//119 121//121 115//115
f 124//124 120//120 118//118
f 120//120 124//124 126//126
f 127//127 121//121 128//128
f 121//121 127//127 122//122
f 129//129 124//124 123//123
f 124//124 129//129 130//130
f 128//128 125//125 131//131
f 125//125 128//128 121//121
f 130//130 126//126 124//124
f 126//126 130//130 132//132
f 133//133 128//128 134//134
f 128//128 133//133 127//127
f 135//135 130//130 129//129
f 130//130 135//135 136//136
f 134//134 131//131 137//137
f 131//131 134//134 128//128
f 136//136 132//132 130//130
f 132//132 136//136 138//138
f 139//139 134//134 140//140
f 134//134 139//139 133//133
f 141//141 136//136 135//135
f 136//136 141//141 142//142
f 140//140 137//137 143//143
f 137//137 140//140 134//134
f 136//136 144//144 138//138
f 144//144 136//136 142//142
f 145//145 140//140 146//146
f 140//140 145//145 139//139
f 141//141 147//147 142//142
f 147//147 141//141 148//148
f 146//146 143//143 149//149
f 143//143 146//146 140//140
f 142//142 150//150 144//144
f 150//150 142//142 147//147
f 148//148 146//146 147//147
f 146//146 148//148 145//145
f 147//147 149//149 150//150
f 149//149 147//147 146//146
