# SSTK version 0.8.0
# 11
mtllib original-11.mtl
o #ID142
v 0.457402 0.523492 0.438760
v 0.457402 0.527433 0.442356
v 0.457402 0.523492 0.443835
v 0.457402 0.525763 0.437908
v 0.457402 0.521822 0.439388
v 0.419231 0.492857 0.450265
v 0.427708 0.492857 0.450265
v 0.423469 0.492614 0.450355
v 0.415058 0.493583 0.449992
v 0.431881 0.493583 0.449992
v 0.411014 0.494780 0.449542
v 0.423469 0.494729 0.449561
v 0.419473 0.494958 0.449475
v 0.407161 0.496433 0.448921
v 0.415540 0.495642 0.449218
v 0.411732 0.496770 0.448795
v 0.403560 0.498516 0.448139
v 0.408109 0.498324 0.448212
v 0.404729 0.500279 0.447477
v 0.400267 0.500999 0.447206
v 0.401643 0.502606 0.446603
v 0.397335 0.503845 0.446138
v 0.398903 0.505266 0.445605
v 0.394812 0.507011 0.444949
v 0.396549 0.508219 0.444496
v 0.393776 0.508729 0.444304
v 0.394620 0.511418 0.443295
v 0.392739 0.510448 0.443659
v 0.391152 0.514101 0.442287
v 0.393146 0.514811 0.442020
v 0.390079 0.517913 0.440856
v 0.392150 0.518346 0.440693
v 0.389537 0.521822 0.439388
v 0.391649 0.521967 0.439332
v 0.389537 0.523492 0.438760
v 0.391649 0.523638 0.438706
v 0.389537 0.525763 0.437908
v 0.391649 0.525617 0.437963
v 0.392150 0.529238 0.436602
v 0.390079 0.529672 0.436441
v 0.393146 0.532773 0.435275
v 0.391152 0.533484 0.435008
v 0.394620 0.536167 0.434001
v 0.392739 0.537137 0.433637
v 0.396549 0.539365 0.432799
v 0.394812 0.540574 0.432347
v 0.398903 0.542318 0.431691
v 0.397335 0.543740 0.431158
v 0.401643 0.544979 0.430692
v 0.400267 0.546585 0.430089
v 0.404729 0.547305 0.429818
v 0.403560 0.549069 0.429157
v 0.408109 0.549261 0.429084
v 0.407161 0.551152 0.428373
v 0.411732 0.550815 0.428500
v 0.415540 0.551943 0.428077
v 0.411014 0.552804 0.427753
v 0.419473 0.552627 0.427819
v 0.423469 0.552856 0.427734
v 0.415058 0.554002 0.427304
v 0.435925 0.494780 0.449542
v 0.427466 0.494958 0.449475
v 0.439778 0.496433 0.448921
v 0.431399 0.495642 0.449218
v 0.435207 0.496770 0.448795
v 0.443379 0.498516 0.448139
v 0.438830 0.498324 0.448212
v 0.442210 0.500279 0.447477
v 0.446672 0.500999 0.447206
v 0.445295 0.502606 0.446603
v 0.449604 0.503845 0.446138
v 0.448036 0.505266 0.445605
v 0.452127 0.507011 0.444949
v 0.450390 0.508219 0.444496
v 0.454199 0.510448 0.443659
v 0.452319 0.511418 0.443295
v 0.455786 0.514101 0.442287
v 0.453793 0.514811 0.442020
v 0.456860 0.517913 0.440856
v 0.454789 0.518346 0.440693
v 0.457402 0.521822 0.439388
v 0.455290 0.521967 0.439332
v 0.457402 0.523492 0.438760
v 0.455290 0.523638 0.438706
v 0.457402 0.525763 0.437908
v 0.455290 0.525617 0.437963
v 0.454789 0.529238 0.436602
v 0.456860 0.529672 0.436441
v 0.453793 0.532773 0.435275
v 0.455786 0.533484 0.435008
v 0.452319 0.536167 0.434001
v 0.454199 0.537137 0.433637
v 0.450390 0.539365 0.432799
v 0.452127 0.540574 0.432347
v 0.448036 0.542318 0.431691
v 0.449604 0.543740 0.431158
v 0.445295 0.544979 0.430692
v 0.446672 0.546585 0.430089
v 0.442210 0.547305 0.429818
v 0.443379 0.549069 0.429157
v 0.438830 0.549261 0.429084
v 0.439778 0.551152 0.428373
v 0.435207 0.550815 0.428500
v 0.431399 0.551943 0.428077
v 0.435925 0.552804 0.427753
v 0.427466 0.552627 0.427819
v 0.431881 0.554002 0.427304
v 0.419231 0.554728 0.427031
v 0.427708 0.554728 0.427031
v 0.423469 0.554971 0.426940
v 0.456860 0.531342 0.440888
v 0.456860 0.529672 0.436441
v 0.456860 0.517913 0.440856
v 0.456860 0.519584 0.445304
v 0.392739 0.512118 0.448107
v 0.393776 0.508729 0.444304
v 0.393776 0.510400 0.448752
v 0.392739 0.510448 0.443659
v 0.391152 0.515772 0.446736
v 0.391152 0.514101 0.442287
v 0.390079 0.519584 0.445304
v 0.390079 0.517913 0.440856
v 0.389537 0.523492 0.443835
v 0.389537 0.521822 0.439388
v 0.389537 0.523492 0.438760
v 0.389537 0.527433 0.442356
v 0.389537 0.523492 0.438760
v 0.389537 0.525763 0.437908
v 0.390079 0.531342 0.440888
v 0.390079 0.529672 0.436441
v 0.391152 0.535154 0.439457
v 0.391152 0.533484 0.435008
v 0.392739 0.538808 0.438084
v 0.392739 0.537137 0.433637
v 0.394812 0.542244 0.436794
v 0.394812 0.540574 0.432347
v 0.397335 0.545410 0.435605
v 0.397335 0.543740 0.431158
v 0.400267 0.548256 0.434537
v 0.400267 0.546585 0.430089
v 0.403560 0.550739 0.433604
v 0.403560 0.549069 0.429157
v 0.407161 0.552822 0.432822
v 0.407161 0.551152 0.428373
v 0.411014 0.554475 0.432202
v 0.411014 0.552804 0.427753
v 0.415058 0.555672 0.431752
v 0.415058 0.554002 0.427304
v 0.419231 0.556399 0.431479
v 0.419231 0.554728 0.427031
v 0.423469 0.556641 0.431388
v 0.423469 0.554971 0.426940
v 0.427708 0.556399 0.431479
v 0.427708 0.554728 0.427031
v 0.431881 0.555672 0.431752
v 0.431881 0.554002 0.427304
v 0.435925 0.554475 0.432202
v 0.435925 0.552804 0.427753
v 0.439778 0.552822 0.432822
v 0.439778 0.551152 0.428373
v 0.443379 0.550739 0.433604
v 0.443379 0.549069 0.429157
v 0.446672 0.548256 0.434537
v 0.446672 0.546585 0.430089
v 0.449604 0.543740 0.431158
v 0.449604 0.545410 0.435605
v 0.452127 0.540574 0.432347
v 0.452127 0.542244 0.436794
v 0.454199 0.537137 0.433637
v 0.454199 0.538808 0.438084
v 0.455786 0.533484 0.435008
v 0.455786 0.535154 0.439457
v 0.455786 0.514101 0.442287
v 0.455786 0.515772 0.446736
v 0.454199 0.510448 0.443659
v 0.454199 0.512118 0.448107
v 0.452127 0.507011 0.444949
v 0.452127 0.508681 0.449398
v 0.449604 0.503845 0.446138
v 0.449604 0.505516 0.450586
v 0.446672 0.500999 0.447206
v 0.446672 0.502670 0.451655
v 0.443379 0.500186 0.452588
v 0.443379 0.498516 0.448139
v 0.439778 0.498103 0.453370
v 0.439778 0.496433 0.448921
v 0.435925 0.496451 0.453991
v 0.435925 0.494780 0.449542
v 0.431881 0.495253 0.454440
v 0.431881 0.493583 0.449992
v 0.427708 0.494527 0.454712
v 0.427708 0.492857 0.450265
v 0.423469 0.494284 0.454804
v 0.423469 0.492614 0.450355
v 0.419231 0.494527 0.454712
v 0.419231 0.492857 0.450265
v 0.415058 0.495253 0.454440
v 0.415058 0.493583 0.449992
v 0.411014 0.496451 0.453991
v 0.411014 0.494780 0.449542
v 0.407161 0.498103 0.453370
v 0.407161 0.496433 0.448921
v 0.403560 0.500186 0.452588
v 0.403560 0.498516 0.448139
v 0.400267 0.502670 0.451655
v 0.400267 0.500999 0.447206
v 0.397335 0.505516 0.450586
v 0.397335 0.503845 0.446138
v 0.394812 0.508681 0.449398
v 0.394812 0.507011 0.444949
vn 1 0 0
vn 0.997919904084786 0.060351280247035934 -0.022662480092764326
vn 0.997919904084786 -0.060351280247035934 0.022662480092764326
vn 0 -0.3515416202868696 -0.9361722540249108
vn 0.9813520949942475 0.17994989908209844 -0.06757291965531907
vn 0.9813520949942475 -0.17994989908209844 0.06757291965531907
vn -0.9004053816071403 -0.407283491680294 0.15293889687586967
vn -0.8707906768976755 -0.46027278778883196 0.17283679541459052
vn -0.9486000318844587 -0.29627740995851204 0.11125500373951654
vn -0.9813520949942475 -0.17994989908209844 0.06757291965531907
vn -0.997919904084786 -0.060351280247035934 0.022662480092764326
vn -1 0 0
vn -0.997919904084786 0.060351280247035934 -0.022662480092764326
vn -0.9813520949942475 0.17994989908209844 -0.06757291965531907
vn -0.9486000318844587 0.29627740995851204 -0.11125500373951654
vn -0.9004053816071403 0.407283491680294 -0.15293889687586967
vn -0.8378209051841216 0.5110987031624872 -0.19192250118754436
vn -0.762149358573594 0.6060790670567491 -0.22758848762949402
vn -0.6748765109384491 0.690830211197028 -0.2594134042045918
vn -0.5776070158499265 0.7642114209704775 -0.286968707874615
vn -0.47200918833134303 0.8253234795969723 -0.309916892338467
vn -0.3597733953856076 0.8734858887968187 -0.3280022957930982
vn -0.24258479114935708 0.9082089668642326 -0.3410411875572009
vn -0.12211079618376845 0.9291663709615028 -0.3489108890957654
vn 0 0.9361722540249108 -0.3515416202868696
vn 0.12211079618376845 0.9291663709615028 -0.3489108890957654
vn 0.24258479114935708 0.9082089668642326 -0.3410411875572009
vn 0.3597733953856076 0.8734858887968187 -0.3280022957930982
vn 0.47200918833134303 0.8253234795969723 -0.309916892338467
vn 0.5776070158499265 0.7642114209704775 -0.286968707874615
vn 0.6748765109384491 0.690830211197028 -0.2594134042045918
vn 0.762149358573594 0.6060790670567491 -0.22758848762949402
vn 0.8378209051841216 0.5110987031624872 -0.19192250118754436
vn 0.9004053816071403 0.407283491680294 -0.15293889687586967
vn 0.9486000318844587 0.29627740995851204 -0.11125500373951654
vn 0.9486000318844587 -0.29627740995851204 0.11125500373951654
vn 0.9004053816071403 -0.407283491680294 0.15293889687586967
vn 0.8378209051841216 -0.5110987031624872 0.19192250118754436
vn 0.762149358573594 -0.6060790670567491 0.22758848762949402
vn 0.6748765109384491 -0.690830211197028 0.2594134042045918
vn 0.5776070158499265 -0.7642114209704775 0.286968707874615
vn 0.47200918833134303 -0.8253234795969723 0.309916892338467
vn 0.3597733953856076 -0.8734858887968187 0.3280022957930982
vn 0.24258479114935708 -0.9082089668642326 0.3410411875572009
vn 0.12211079618376845 -0.9291663709615028 0.3489108890957654
vn 0 -0.9361722540249108 0.3515416202868696
vn -0.12211079618376845 -0.9291663709615028 0.3489108890957654
vn -0.24258479114935708 -0.9082089668642326 0.3410411875572009
vn -0.3597733953856076 -0.8734858887968187 0.3280022957930982
vn -0.47200918833134303 -0.8253234795969723 0.309916892338467
vn -0.5776070158499265 -0.7642114209704775 0.286968707874615
vn -0.6748765109384491 -0.690830211197028 0.2594134042045918
vn -0.762149358573594 -0.6060790670567491 0.22758848762949402
vn -0.8378209051841216 -0.5110987031624872 0.19192250118754436
usemtl material_0_0
f 1//1 2//2 3//3
f 2//2 1//1 4//2
f 1//1 3//3 5//3
f 6//4 7//4 8//4
f 7//4 6//4 9//4
f 7//4 9//4 10//4
f 10//4 9//4 11//4
f 10//4 11//4 12//4
f 12//4 11//4 13//4
f 13//4 11//4 14//4
f 13//4 14//4 15//4
f 15//4 14//4 16//4
f 16//4 14//4 17//4
f 16//4 17//4 18//4
f 18//4 17//4 19//4
f 19//4 17//4 20//4
f 19//4 20//4 21//4
f 21//4 20//4 22//4
f 21//4 22//4 23//4
f 23//4 22//4 24//4
f 23//4 24//4 25//4
f 25//4 24//4 26//4
f 25//4 26//4 27//4
f 27//4 26//4 28//4
f 27//4 28//4 29//4
f 27//4 29//4 30//4
f 30//4 29//4 31//4
f 30//4 31//4 32//4
f 32//4 31//4 33//4
f 32//4 33//4 34//4
f 34//4 33//4 35//4
f 34//4 35//4 36//4
f 36//4 35//4 37//4
f 36//4 37//4 38//4
f 38//4 37//4 39//4
f 39//4 37//4 40//4
f 39//4 40//4 41//4
f 41//4 40//4 42//4
f 41//4 42//4 43//4
f 43//4 42//4 44//4
f 43//4 44//4 45//4
f 45//4 44//4 46//4
f 45//4 46//4 47//4
f 47//4 46//4 48//4
f 47//4 48//4 49//4
f 49//4 48//4 50//4
f 49//4 50//4 51//4
f 51//4 50//4 52//4
f 51//4 52//4 53//4
f 53//4 52//4 54//4
f 53//4 54//4 55//4
f 55//4 54//4 56//4
f 56//4 54//4 57//4
f 56//4 57//4 58//4
f 58//4 57//4 59//4
f 59//4 57//4 60//4
f 12//4 61//4 10//4
f 61//4 12//4 62//4
f 61//4 62//4 63//4
f 63//4 62//4 64//4
f 63//4 64//4 65//4
f 63//4 65//4 66//4
f 66//4 65//4 67//4
f 66//4 67//4 68//4
f 66//4 68//4 69//4
f 69//4 68//4 70//4
f 69//4 70//4 71//4
f 71//4 70//4 72//4
f 71//4 72//4 73//4
f 73//4 72//4 74//4
f 73//4 74//4 75//4
f 75//4 74//4 76//4
f 75//4 76//4 77//4
f 77//4 76//4 78//4
f 77//4 78//4 79//4
f 79//4 78//4 80//4
f 79//4 80//4 81//4
f 81//4 80//4 82//4
f 81//4 82//4 83//4
f 83//4 82//4 84//4
f 83//4 84//4 85//4
f 85//4 84//4 86//4
f 85//4 86//4 87//4
f 85//4 87//4 88//4
f 88//4 87//4 89//4
f 88//4 89//4 90//4
f 90//4 89//4 91//4
f 90//4 91//4 92//4
f 92//4 91//4 93//4
f 92//4 93//4 94//4
f 94//4 93//4 95//4
f 94//4 95//4 96//4
f 96//4 95//4 97//4
f 96//4 97//4 98//4
f 98//4 97//4 99//4
f 98//4 99//4 100//4
f 100//4 99//4 101//4
f 100//4 101//4 102//4
f 102//4 101//4 103//4
f 102//4 103//4 104//4
f 102//4 104//4 105//4
f 105//4 104//4 106//4
f 105//4 106//4 59//4
f 105//4 59//4 107//4
f 107//4 59//4 60//4
f 107//4 60//4 108//4
f 107//4 108//4 109//4
f 109//4 108//4 110//4
f 4//2 111//5 2//2
f 111//5 4//2 112//5
f 113//6 3//3 114//6
f 3//3 113//6 5//3
f 115//7 116//8 117//8
f 116//8 115//7 118//7
f 119//9 118//7 115//7
f 118//7 119//9 120//9
f 121//10 120//9 119//9
f 120//9 121//10 122//10
f 123//11 122//10 121//10
f 122//10 123//11 124//11
f 125//12 124//11 123//11
f 126//13 127//12 123//11
f 127//12 126//13 128//13
f 129//14 128//13 126//13
f 128//13 129//14 130//14
f 131//15 130//14 129//14
f 130//14 131//15 132//15
f 133//16 132//15 131//15
f 132//15 133//16 134//16
f 135//17 134//16 133//16
f 134//16 135//17 136//17
f 137//18 136//17 135//17
f 136//17 137//18 138//18
f 139//19 138//18 137//18
f 138//18 139//19 140//19
f 141//20 140//19 139//19
f 140//19 141//20 142//20
f 143//21 142//20 141//20
f 142//20 143//21 144//21
f 145//22 144//21 143//21
f 144//21 145//22 146//22
f 147//23 146//22 145//22
f 146//22 147//23 148//23
f 149//24 148//23 147//23
f 148//23 149//24 150//24
f 151//25 150//24 149//24
f 150//24 151//25 152//25
f 153//26 152//25 151//25
f 152//25 153//26 154//26
f 155//27 154//26 153//26
f 154//26 155//27 156//27
f 157//28 156//27 155//27
f 156//27 157//28 158//28
f 159//29 158//28 157//28
f 158//28 159//29 160//29
f 161//30 160//29 159//29
f 160//29 161//30 162//30
f 163//31 162//30 161//30
f 162//30 163//31 164//31
f 165//32 163//31 166//32
f 163//31 165//32 164//31
f 167//33 166//32 168//33
f 166//32 167//33 165//32
f 169//34 168//33 170//34
f 168//33 169//34 167//33
f 171//35 170//34 172//35
f 170//34 171//35 169//34
f 112//5 172//35 111//5
f 172//35 112//5 171//35
f 173//36 114//6 174//36
f 114//6 173//36 113//6
f 175//37 174//36 176//37
f 174//36 175//37 173//36
f 177//38 176//37 178//38
f 176//37 177//38 175//37
f 179//39 178//38 180//39
f 178//38 179//39 177//38
f 181//40 180//39 182//40
f 180//39 181//40 179//39
f 181//40 183//41 184//41
f 183//41 181//40 182//40
f 184//41 185//42 186//42
f 185//42 184//41 183//41
f 186//42 187//43 188//43
f 187//43 186//42 185//42
f 188//43 189//44 190//44
f 189//44 188//43 187//43
f 190//44 191//45 192//45
f 191//45 190//44 189//44
f 192//45 193//46 194//46
f 193//46 192//45 191//45
f 194//46 195//47 196//47
f 195//47 194//46 193//46
f 196//47 197//48 198//48
f 197//48 196//47 195//47
f 198//48 199//49 200//49
f 199//49 198//48 197//48
f 200//49 201//50 202//50
f 201//50 200//49 199//49
f 202//50 203//51 204//51
f 203//51 202//50 201//50
f 204//51 205//52 206//52
f 205//52 204//51 203//51
f 207//53 206//52 205//52
f 206//52 207//53 208//53
f 209//54 208//53 207//53
f 208//53 209//54 210//54
f 117//8 210//54 209//54
f 210//54 117//8 116//8
