# SSTK version 0.8.0
# 41
mtllib original-41.mtl
o #ID328
v 0.360593 0.577841 0.419874
v 0.190993 0.579011 0.422988
v 0.190993 0.577841 0.419874
v 0.360593 0.579011 0.422988
v 0.360593 0.579011 0.422988
v 0.360593 0.577841 0.419874
v 0.190993 0.579011 0.422988
v 0.190993 0.577841 0.419874
v 0.191042 0.577666 0.419546
v 0.360593 0.577841 0.419874
v 0.190993 0.577841 0.419874
v 0.360544 0.577666 0.419546
v 0.360544 0.577666 0.419546
v 0.191042 0.577666 0.419546
v 0.360593 0.577841 0.419874
v 0.190993 0.577841 0.419874
v 0.191184 0.577411 0.419274
v 0.360402 0.577411 0.419274
v 0.360402 0.577411 0.419274
v 0.191184 0.577411 0.419274
v 0.360175 0.577096 0.419078
v 0.191411 0.577096 0.419078
v 0.360175 0.577096 0.419078
v 0.191411 0.577096 0.419078
v 0.359880 0.576740 0.418969
v 0.191706 0.576740 0.418969
v 0.359880 0.576740 0.418969
v 0.191706 0.576740 0.418969
v 0.359536 0.576367 0.418957
v 0.192050 0.576367 0.418957
v 0.359536 0.576367 0.418957
v 0.192050 0.576367 0.418957
v 0.359880 0.502047 0.447017
v 0.360175 0.501851 0.447333
v 0.359880 0.502047 0.447017
v 0.360175 0.501851 0.447333
v 0.191706 0.502047 0.447017
v 0.191411 0.501851 0.447333
v 0.191706 0.502047 0.447017
v 0.191411 0.501851 0.447333
v 0.359167 0.576005 0.419041
v 0.192419 0.576005 0.419041
v 0.359167 0.576005 0.419041
v 0.192419 0.576005 0.419041
v 0.359536 0.502319 0.446763
v 0.359536 0.502319 0.446763
v 0.192050 0.502319 0.446763
v 0.192050 0.502319 0.446763
v 0.359167 0.502647 0.446587
v 0.359167 0.502647 0.446587
v 0.192419 0.502647 0.446587
v 0.192419 0.502647 0.446587
v 0.360402 0.501742 0.447689
v 0.191184 0.501742 0.447689
v 0.360402 0.501742 0.447689
v 0.191184 0.501742 0.447689
v 0.360544 0.501730 0.448061
v 0.191042 0.501730 0.448061
v 0.360544 0.501730 0.448061
v 0.191042 0.501730 0.448061
v 0.360593 0.501814 0.448423
v 0.190993 0.501814 0.448423
v 0.360593 0.501814 0.448423
v 0.190993 0.501814 0.448423
v 0.360593 0.502983 0.451537
v 0.190993 0.501814 0.448423
v 0.190993 0.502983 0.451537
v 0.360593 0.501814 0.448423
v 0.360593 0.501814 0.448423
v 0.360593 0.502983 0.451537
v 0.190993 0.501814 0.448423
v 0.190993 0.502983 0.451537
vn 0 -0.9361722540249108 0.3515416202868696
vn 0.6684175835289575 -0.511065187406411 0.5403982866835891
vn -0.6951606053681553 -0.5864442045286278 0.4157342032103742
vn 0.6951606053681553 -0.5864442045286278 0.4157342032103742
vn -0.6684175835289575 -0.511065187406411 0.5403982866835891
vn 0.5679292030593381 -0.3222501017359067 0.7573713040798303
vn -0.5679292030593381 -0.3222501017359067 0.7573713040798303
vn -0.4371139952321136 -0.13288729855051207 0.8895348902972648
vn 0.4371139952321136 -0.13288729855051207 0.8895348902972648
vn -0.299554591912497 0.03800341897396723 0.9533219742618056
vn 0.299554591912497 0.03800341897396723 0.9533219742618056
vn -0.1646164982887506 0.18777319804802792 0.9683194899339608
vn 0.1646164982887506 0.18777319804802792 0.9683194899339608
vn -0.2995545997936698 0.5988728995875022 0.7427100994884288
vn -0.4371139956596503 0.6855405931928834 0.5822073942189369
vn 0.2995545997936698 0.5988728995875022 0.7427100994884288
vn 0.4371139956596503 0.6855405931928834 0.5822073942189369
vn -0.06554286278416814 0.2886688122622428 0.9551829405748209
vn 0.06554286278416814 0.2886688122622428 0.9551829405748209
vn -0.1646164922795838 0.49599207673826456 0.8525803600144851
vn 0.1646164922795838 0.49599207673826456 0.8525803600144851
vn -0.06554285769579009 0.41138758553735066 0.9091008680398551
vn 0.06554285769579009 0.41138758553735066 0.9091008680398551
vn -0.5679292114881035 0.7411089149911919 0.35806980724305604
vn 0.5679292114881035 0.7411089149911919 0.35806980724305604
vn -0.6684176021737067 0.7404427024079339 0.07044511022908902
vn 0.6684176021737067 0.7404427024079339 0.07044511022908902
vn -0.6951606289408525 0.7151360297724663 -0.07302163304002862
vn 0.6951606289408525 0.7151360297724663 -0.07302163304002862
vn 0 0.9361722540249108 -0.3515416202868696
vn 0.6684175835289575 0.511065187406411 -0.5403982866835891
vn -0.6684175835289575 0.511065187406411 -0.5403982866835891
vn 0.6951606053681553 0.5864442045286278 -0.4157342032103742
vn -0.6951606053681553 0.5864442045286278 -0.4157342032103742
vn 0.5679292030593381 0.3222501017359067 -0.7573713040798303
vn -0.5679292030593381 0.3222501017359067 -0.7573713040798303
vn 0.4371139952321136 0.13288729855051207 -0.8895348902972648
vn -0.4371139952321136 0.13288729855051207 -0.8895348902972648
vn 0.299554591912497 -0.03800341897396723 -0.9533219742618056
vn -0.299554591912497 -0.03800341897396723 -0.9533219742618056
vn 0.1646164982887506 -0.18777319804802792 -0.9683194899339608
vn -0.1646164982887506 -0.18777319804802792 -0.9683194899339608
vn 0.2995545997936698 -0.5988728995875022 -0.7427100994884288
vn 0.4371139956596503 -0.6855405931928834 -0.5822073942189369
vn -0.2995545997936698 -0.5988728995875022 -0.7427100994884288
vn -0.4371139956596503 -0.6855405931928834 -0.5822073942189369
vn 0.06554286278416814 -0.2886688122622428 -0.9551829405748209
vn -0.06554286278416814 -0.2886688122622428 -0.9551829405748209
vn 0.1646164922795838 -0.49599207673826456 -0.8525803600144851
vn -0.1646164922795838 -0.49599207673826456 -0.8525803600144851
vn 0.06554285769579009 -0.41138758553735066 -0.9091008680398551
vn -0.06554285769579009 -0.41138758553735066 -0.9091008680398551
vn 0.5679292114881035 -0.7411089149911919 -0.35806980724305604
vn -0.5679292114881035 -0.7411089149911919 -0.35806980724305604
vn 0.6684176021737067 -0.7404427024079339 -0.07044511022908902
vn -0.6684176021737067 -0.7404427024079339 -0.07044511022908902
vn 0.6951606289408525 -0.7151360297724663 0.07302163304002862
vn -0.6951606289408525 -0.7151360297724663 0.07302163304002862
usemtl material_0_0
f 5//30 6//30 7//30
f 8//30 7//30 6//30
f 13//31 14//32 15//33
f 16//34 15//33 14//32
f 19//35 20//36 13//31
f 14//32 13//31 20//36
f 19//35 23//37 20//36
f 24//38 20//36 23//37
f 23//37 27//39 24//38
f 28//40 24//38 27//39
f 27//39 31//41 28//40
f 32//42 28//40 31//41
f 27//39 23//37 35//43
f 36//44 35//43 23//37
f 28//40 39//45 24//38
f 40//46 24//38 39//45
f 31//41 43//47 32//42
f 44//48 32//42 43//47
f 31//41 27//39 46//49
f 35//43 46//49 27//39
f 32//42 48//50 28//40
f 39//45 28//40 48//50
f 35//43 36//44 39//45
f 40//46 39//45 36//44
f 43//47 31//41 50//51
f 46//49 50//51 31//41
f 44//48 52//52 32//42
f 48//50 32//42 52//52
f 48//50 46//49 39//45
f 35//43 39//45 46//49
f 36//44 55//53 40//46
f 56//54 40//46 55//53
f 52//52 50//51 48//50
f 46//49 48//50 50//51
f 55//53 59//55 56//54
f 60//56 56//54 59//55
f 59//55 63//57 60//56
f 64//58 60//56 63//57
f 69//1 70//1 71//1
f 72//1 71//1 70//1
usemtl material_1_0
f 1//1 2//1 3//1
f 2//1 1//1 4//1
f 9//2 10//3 11//4
f 10//3 9//2 12//5
f 17//6 12//5 9//2
f 12//5 17//6 18//7
f 21//8 17//6 22//9
f 17//6 21//8 18//7
f 25//10 22//9 26//11
f 22//9 25//10 21//8
f 29//12 26//11 30//13
f 26//11 29//12 25//10
f 21//8 33//14 34//15
f 33//14 21//8 25//10
f 37//16 22//9 38//17
f 22//9 37//16 26//11
f 41//18 30//13 42//19
f 30//13 41//18 29//12
f 25//10 45//20 33//14
f 45//20 25//10 29//12
f 47//21 26//11 37//16
f 26//11 47//21 30//13
f 34//15 37//16 38//17
f 37//16 34//15 33//14
f 29//12 49//22 45//20
f 49//22 29//12 41//18
f 51//23 30//13 47//21
f 30//13 51//23 42//19
f 45//20 37//16 33//14
f 37//16 45//20 47//21
f 53//24 38//17 54//25
f 38//17 53//24 34//15
f 49//22 47//21 45//20
f 47//21 49//22 51//23
f 57//26 54//25 58//27
f 54//25 57//26 53//24
f 61//28 58//27 62//29
f 58//27 61//28 57//26
f 65//30 66//30 67//30
f 66//30 65//30 68//30
