# SSTK version 0.8.0
# 110
mtllib original-110.mtl
o #ID811
v 0.100383 0.460815 0.467320
v 0.094517 0.460387 0.467328
v 0.094517 0.460113 0.467584
v 0.100296 0.461079 0.467069
v 0.100296 0.461079 0.467069
v 0.100383 0.460815 0.467320
v 0.094517 0.460387 0.467328
v 0.094517 0.460113 0.467584
v 0.100477 0.460496 0.467491
v 0.094517 0.459781 0.467760
v 0.100477 0.460496 0.467491
v 0.094517 0.459781 0.467760
v 0.105867 0.462883 0.466544
v 0.105697 0.463116 0.466304
v 0.105697 0.463116 0.466304
v 0.105867 0.462883 0.466544
v 0.100221 0.461270 0.466755
v 0.094517 0.460586 0.467012
v 0.100221 0.461270 0.466755
v 0.094517 0.460586 0.467012
v 0.088651 0.460815 0.467320
v 0.088739 0.461079 0.467069
v 0.088739 0.461079 0.467069
v 0.088651 0.460815 0.467320
v 0.106049 0.462596 0.466703
v 0.106049 0.462596 0.466703
v 0.088557 0.460496 0.467491
v 0.088557 0.460496 0.467491
v 0.110605 0.466191 0.465301
v 0.110363 0.466374 0.465081
v 0.110363 0.466374 0.465081
v 0.110605 0.466191 0.465301
v 0.105551 0.463279 0.466001
v 0.105551 0.463279 0.466001
v 0.100163 0.461373 0.466401
v 0.094517 0.460696 0.466655
v 0.100163 0.461373 0.466401
v 0.094517 0.460696 0.466655
v 0.088814 0.461270 0.466755
v 0.088814 0.461270 0.466755
v 0.083167 0.462883 0.466544
v 0.083337 0.463116 0.466304
v 0.083337 0.463116 0.466304
v 0.083167 0.462883 0.466544
v 0.110864 0.465959 0.465441
v 0.110864 0.465959 0.465441
v 0.082985 0.462596 0.466703
v 0.082985 0.462596 0.466703
v 0.114268 0.470536 0.463670
v 0.113969 0.470651 0.463475
v 0.113969 0.470651 0.463475
v 0.114268 0.470536 0.463670
v 0.110155 0.466494 0.464794
v 0.110155 0.466494 0.464794
v 0.105440 0.463362 0.465654
v 0.105440 0.463362 0.465654
v 0.094517 0.460710 0.466283
v 0.100127 0.461382 0.466031
v 0.100127 0.461382 0.466031
v 0.094517 0.460710 0.466283
v 0.088871 0.461373 0.466401
v 0.088871 0.461373 0.466401
v 0.083483 0.463279 0.466001
v 0.083483 0.463279 0.466001
v 0.078429 0.466191 0.465301
v 0.078671 0.466374 0.465081
v 0.078671 0.466374 0.465081
v 0.078429 0.466191 0.465301
v 0.114588 0.470375 0.463782
v 0.114588 0.470375 0.463782
v 0.078170 0.465959 0.465441
v 0.078170 0.465959 0.465441
v 0.116587 0.475632 0.461756
v 0.116253 0.475668 0.461591
v 0.116253 0.475668 0.461591
v 0.116587 0.475632 0.461756
v 0.113713 0.470714 0.463209
v 0.113713 0.470714 0.463209
v 0.109996 0.466544 0.464459
v 0.109996 0.466544 0.464459
v 0.105369 0.463358 0.465289
v 0.105369 0.463358 0.465289
v 0.094517 0.460626 0.465920
v 0.100114 0.461296 0.465669
v 0.100114 0.461296 0.465669
v 0.094517 0.460626 0.465920
v 0.088907 0.461382 0.466031
v 0.088907 0.461382 0.466031
v 0.083595 0.463362 0.465654
v 0.083595 0.463362 0.465654
v 0.078879 0.466494 0.464794
v 0.078879 0.466494 0.464794
v 0.074766 0.470536 0.463670
v 0.075065 0.470651 0.463475
v 0.075065 0.470651 0.463475
v 0.074766 0.470536 0.463670
v 0.116946 0.475556 0.461837
v 0.116946 0.475556 0.461837
v 0.074446 0.470375 0.463782
v 0.074446 0.470375 0.463782
v 0.117382 0.481124 0.459693
v 0.117035 0.481074 0.459561
v 0.117035 0.481074 0.459561
v 0.117382 0.481124 0.459693
v 0.115965 0.475662 0.461350
v 0.115965 0.475662 0.461350
v 0.113517 0.470720 0.462892
v 0.113517 0.470720 0.462892
v 0.109896 0.466519 0.464101
v 0.109896 0.466519 0.464101
v 0.105345 0.463268 0.464928
v 0.105345 0.463268 0.464928
v 0.094517 0.460626 0.465920
v 0.100114 0.460657 0.463965
v 0.094517 0.459986 0.464217
v 0.100114 0.461296 0.465669
v 0.100114 0.461296 0.465669
v 0.094517 0.460626 0.465920
v 0.100114 0.460657 0.463965
v 0.094517 0.459986 0.464217
v 0.088920 0.461296 0.465669
v 0.088920 0.461296 0.465669
v 0.083665 0.463358 0.465289
v 0.083665 0.463358 0.465289
v 0.079038 0.466544 0.464459
v 0.079038 0.466544 0.464459
v 0.075321 0.470714 0.463209
v 0.075321 0.470714 0.463209
v 0.072447 0.475632 0.461756
v 0.072782 0.475668 0.461591
v 0.072782 0.475668 0.461591
v 0.072447 0.475632 0.461756
v 0.117754 0.481141 0.459739
v 0.117754 0.481141 0.459739
v 0.072088 0.475556 0.461837
v 0.072088 0.475556 0.461837
v 0.116253 0.486481 0.457530
v 0.116587 0.486617 0.457631
v 0.116587 0.486617 0.457631
v 0.116253 0.486481 0.457530
v 0.116737 0.480995 0.459348
v 0.116737 0.480995 0.459348
v 0.115745 0.475615 0.461054
v 0.115745 0.475615 0.461054
v 0.113393 0.470667 0.462544
v 0.113393 0.470667 0.462544
v 0.109862 0.466422 0.463744
v 0.109862 0.466422 0.463744
v 0.105345 0.462629 0.463225
v 0.105345 0.463268 0.464928
v 0.105345 0.463268 0.464928
v 0.105345 0.462629 0.463225
v 0.088920 0.460657 0.463965
v 0.088920 0.461296 0.465669
v 0.088920 0.460657 0.463965
v 0.088920 0.461296 0.465669
v 0.100114 0.460657 0.463965
v 0.094517 0.459902 0.463854
v 0.094517 0.459986 0.464217
v 0.100102 0.460571 0.463603
v 0.100102 0.460571 0.463603
v 0.100114 0.460657 0.463965
v 0.094517 0.459902 0.463854
v 0.094517 0.459986 0.464217
v 0.083689 0.463268 0.464928
v 0.083689 0.463268 0.464928
v 0.079138 0.466519 0.464101
v 0.079138 0.466519 0.464101
v 0.075517 0.470720 0.462892
v 0.075517 0.470720 0.462892
v 0.073069 0.475662 0.461350
v 0.073069 0.475662 0.461350
v 0.071652 0.481124 0.459693
v 0.071999 0.481074 0.459561
v 0.071999 0.481074 0.459561
v 0.071652 0.481124 0.459693
v 0.116946 0.486727 0.457642
v 0.116946 0.486727 0.457642
v 0.071280 0.481141 0.459739
v 0.071280 0.481141 0.459739
v 0.113969 0.491497 0.455646
v 0.114268 0.491713 0.455718
v 0.114268 0.491713 0.455718
v 0.113969 0.491497 0.455646
v 0.115965 0.486327 0.457346
v 0.115965 0.486327 0.457346
v 0.116508 0.480891 0.459072
v 0.116508 0.480891 0.459072
v 0.115606 0.475530 0.460718
v 0.115606 0.475530 0.460718
v 0.113351 0.470561 0.462189
v 0.113351 0.470561 0.462189
v 0.109862 0.465783 0.462040
v 0.109862 0.466422 0.463744
v 0.109862 0.466422 0.463744
v 0.109862 0.465783 0.462040
v 0.105321 0.462539 0.462864
v 0.105345 0.462629 0.463225
v 0.105345 0.462629 0.463225
v 0.105321 0.462539 0.462864
v 0.088932 0.460571 0.463603
v 0.088920 0.460657 0.463965
v 0.088932 0.460571 0.463603
v 0.088920 0.460657 0.463965
v 0.083689 0.463268 0.464928
v 0.083689 0.462629 0.463225
v 0.083689 0.463268 0.464928
v 0.083689 0.462629 0.463225
v 0.094517 0.459908 0.463685
v 0.100066 0.460581 0.463232
v 0.094517 0.459916 0.463482
v 0.094517 0.459908 0.463685
v 0.094517 0.459916 0.463482
v 0.100066 0.460581 0.463232
v 0.079172 0.466422 0.463744
v 0.079172 0.466422 0.463744
v 0.075641 0.470667 0.462544
v 0.075641 0.470667 0.462544
v 0.073289 0.475615 0.461054
v 0.073289 0.475615 0.461054
v 0.072297 0.480995 0.459348
v 0.072297 0.480995 0.459348
v 0.072782 0.486481 0.457530
v 0.072447 0.486617 0.457631
v 0.072447 0.486617 0.457631
v 0.072782 0.486481 0.457530
v 0.114588 0.491908 0.455696
v 0.114588 0.491908 0.455696
v 0.072088 0.486727 0.457642
v 0.072088 0.486727 0.457642
v 0.110363 0.495775 0.454040
v 0.110605 0.496058 0.454086
v 0.110605 0.496058 0.454086
v 0.110363 0.495775 0.454040
v 0.113713 0.491275 0.455488
v 0.113713 0.491275 0.455488
v 0.115745 0.486167 0.457091
v 0.115745 0.486167 0.457091
v 0.116364 0.480770 0.458749
v 0.116364 0.480770 0.458749
v 0.115559 0.475413 0.460368
v 0.115559 0.475413 0.460368
v 0.113351 0.470561 0.462189
v 0.113351 0.469921 0.460486
v 0.113351 0.469921 0.460486
v 0.113351 0.470561 0.462189
v 0.109827 0.465686 0.461682
v 0.109862 0.465783 0.462040
v 0.109862 0.465783 0.462040
v 0.109827 0.465686 0.461682
v 0.105251 0.462535 0.462498
v 0.105251 0.462535 0.462498
v 0.088968 0.460581 0.463232
v 0.088968 0.460581 0.463232
v 0.083713 0.462539 0.462864
v 0.083689 0.462629 0.463225
v 0.083713 0.462539 0.462864
v 0.083689 0.462629 0.463225
v 0.079172 0.466422 0.463744
v 0.079172 0.465783 0.462040
v 0.079172 0.466422 0.463744
v 0.079172 0.465783 0.462040
v 0.100008 0.460684 0.462878
v 0.094517 0.460026 0.463125
v 0.100008 0.460684 0.462878
v 0.094517 0.460026 0.463125
v 0.075683 0.470561 0.462189
v 0.075683 0.470561 0.462189
v 0.073428 0.475530 0.460718
v 0.073428 0.475530 0.460718
v 0.072526 0.480891 0.459072
v 0.072526 0.480891 0.459072
v 0.073069 0.486327 0.457346
v 0.073069 0.486327 0.457346
v 0.075065 0.491497 0.455646
v 0.074766 0.491713 0.455718
v 0.074766 0.491713 0.455718
v 0.075065 0.491497 0.455646
v 0.110864 0.496324 0.454038
v 0.110864 0.496324 0.454038
v 0.074446 0.491908 0.455696
v 0.074446 0.491908 0.455696
v 0.105697 0.499033 0.452816
v 0.105867 0.499366 0.452844
v 0.105867 0.499366 0.452844
v 0.105697 0.499033 0.452816
v 0.110155 0.495495 0.453904
v 0.110155 0.495495 0.453904
v 0.113517 0.491062 0.455252
v 0.113517 0.491062 0.455252
v 0.115606 0.486010 0.456782
v 0.115606 0.486010 0.456782
v 0.116315 0.480640 0.458404
v 0.116315 0.480640 0.458404
v 0.115559 0.475413 0.460368
v 0.115559 0.474773 0.458664
v 0.115559 0.474773 0.458664
v 0.115559 0.475413 0.460368
v 0.113351 0.469921 0.460486
v 0.113309 0.469815 0.460131
v 0.113309 0.469815 0.460131
v 0.113351 0.469921 0.460486
v 0.109727 0.465661 0.461324
v 0.109727 0.465661 0.461324
v 0.105139 0.462618 0.462152
v 0.105139 0.462618 0.462152
v 0.089026 0.460684 0.462878
v 0.089026 0.460684 0.462878
v 0.083783 0.462535 0.462498
v 0.083783 0.462535 0.462498
v 0.079207 0.465686 0.461682
v 0.079172 0.465783 0.462040
v 0.079207 0.465686 0.461682
v 0.079172 0.465783 0.462040
v 0.075683 0.470561 0.462189
v 0.075683 0.469921 0.460486
v 0.075683 0.469921 0.460486
v 0.075683 0.470561 0.462189
v 0.073475 0.475413 0.460368
v 0.073475 0.475413 0.460368
v 0.072670 0.480770 0.458749
v 0.072670 0.480770 0.458749
v 0.073289 0.486167 0.457091
v 0.073289 0.486167 0.457091
v 0.075321 0.491275 0.455488
v 0.075321 0.491275 0.455488
v 0.078671 0.495775 0.454040
v 0.078429 0.496058 0.454086
v 0.078429 0.496058 0.454086
v 0.078671 0.495775 0.454040
v 0.106049 0.499687 0.452775
v 0.106049 0.499687 0.452775
v 0.078170 0.496324 0.454038
v 0.078170 0.496324 0.454038
v 0.100296 0.501069 0.452052
v 0.100935 0.501225 0.452145
v 0.100332 0.501219 0.452058
v 0.100332 0.501219 0.452058
v 0.100935 0.501225 0.452145
v 0.100296 0.501069 0.452052
v 0.105551 0.498710 0.452696
v 0.105551 0.498710 0.452696
v 0.109996 0.495238 0.453684
v 0.109996 0.495238 0.453684
v 0.113393 0.490873 0.454956
v 0.113393 0.490873 0.454956
v 0.115559 0.485868 0.456442
v 0.115559 0.485868 0.456442
v 0.116315 0.480640 0.458404
v 0.116315 0.480001 0.456701
v 0.116315 0.480001 0.456701
v 0.116315 0.480640 0.458404
v 0.115559 0.474773 0.458664
v 0.115512 0.474655 0.458314
v 0.115512 0.474655 0.458314
v 0.115559 0.474773 0.458664
v 0.113185 0.469763 0.459784
v 0.113185 0.469763 0.459784
v 0.109568 0.465711 0.460991
v 0.109568 0.465711 0.460991
v 0.083895 0.462618 0.462152
v 0.083895 0.462618 0.462152
v 0.079307 0.465661 0.461324
v 0.079307 0.465661 0.461324
v 0.075683 0.469921 0.460486
v 0.075725 0.469815 0.460131
v 0.075725 0.469815 0.460131
v 0.075683 0.469921 0.460486
v 0.073475 0.475413 0.460368
v 0.073475 0.474773 0.458664
v 0.073475 0.474773 0.458664
v 0.073475 0.475413 0.460368
v 0.072719 0.480640 0.458404
v 0.072719 0.480640 0.458404
v 0.073428 0.486010 0.456782
v 0.073428 0.486010 0.456782
v 0.075517 0.491062 0.455252
v 0.075517 0.491062 0.455252
v 0.078879 0.495495 0.453904
v 0.078879 0.495495 0.453904
v 0.083337 0.499033 0.452816
v 0.083167 0.499366 0.452844
v 0.083167 0.499366 0.452844
v 0.083337 0.499033 0.452816
v 0.101958 0.501229 0.452196
v 0.101958 0.501229 0.452196
v 0.082985 0.499687 0.452775
v 0.082985 0.499687 0.452775
v 0.100221 0.500720 0.451941
v 0.100221 0.500720 0.451941
v 0.105440 0.498420 0.452489
v 0.105440 0.498420 0.452489
v 0.109896 0.495021 0.453399
v 0.109896 0.495021 0.453399
v 0.113351 0.490720 0.454619
v 0.113351 0.490720 0.454619
v 0.115559 0.485868 0.456442
v 0.115559 0.485229 0.454738
v 0.115559 0.485229 0.454738
v 0.115559 0.485868 0.456442
v 0.116315 0.480001 0.456701
v 0.116266 0.479871 0.456356
v 0.116266 0.479871 0.456356
v 0.116315 0.480001 0.456701
v 0.115373 0.474570 0.457979
v 0.115373 0.474570 0.457979
v 0.112989 0.469768 0.459466
v 0.112989 0.469768 0.459466
v 0.079466 0.465711 0.460991
v 0.079466 0.465711 0.460991
v 0.075849 0.469763 0.459784
v 0.075849 0.469763 0.459784
v 0.073475 0.474773 0.458664
v 0.073522 0.474655 0.458314
v 0.073522 0.474655 0.458314
v 0.073475 0.474773 0.458664
v 0.072719 0.480640 0.458404
v 0.072719 0.480001 0.456701
v 0.072719 0.480001 0.456701
v 0.072719 0.480640 0.458404
v 0.073475 0.485868 0.456442
v 0.073475 0.485868 0.456442
v 0.075641 0.490873 0.454956
v 0.075641 0.490873 0.454956
v 0.079038 0.495238 0.453684
v 0.079038 0.495238 0.453684
v 0.083483 0.498710 0.452696
v 0.083483 0.498710 0.452696
v 0.088739 0.501069 0.452052
v 0.088099 0.501225 0.452145
v 0.088703 0.501219 0.452058
v 0.088703 0.501219 0.452058
v 0.088739 0.501069 0.452052
v 0.088099 0.501225 0.452145
v 0.087076 0.501229 0.452196
v 0.087076 0.501229 0.452196
v 0.096226 0.501199 0.451761
v 0.099079 0.501215 0.451997
v 0.099079 0.501215 0.451997
v 0.096226 0.501199 0.451761
v 0.100163 0.500409 0.451742
v 0.100163 0.500409 0.451742
v 0.105369 0.498182 0.452212
v 0.105369 0.498182 0.452212
v 0.109862 0.494858 0.453066
v 0.109862 0.494858 0.453066
v 0.113351 0.490720 0.454619
v 0.113351 0.490080 0.452916
v 0.113351 0.490080 0.452916
v 0.113351 0.490720 0.454619
v 0.115559 0.485229 0.454738
v 0.115512 0.485087 0.454397
v 0.115512 0.485087 0.454397
v 0.115559 0.485229 0.454738
v 0.116123 0.479750 0.456034
v 0.116233 0.479843 0.456281
v 0.116233 0.479843 0.456281
v 0.116123 0.479750 0.456034
v 0.115153 0.474523 0.457681
v 0.115153 0.474523 0.457681
v 0.076045 0.469768 0.459466
v 0.076045 0.469768 0.459466
v 0.073661 0.474570 0.457979
v 0.073661 0.474570 0.457979
v 0.072719 0.480001 0.456701
v 0.072768 0.479871 0.456356
v 0.072768 0.479871 0.456356
v 0.072719 0.480001 0.456701
v 0.073475 0.485868 0.456442
v 0.073475 0.485229 0.454738
v 0.073475 0.485229 0.454738
v 0.073475 0.485868 0.456442
v 0.075683 0.490720 0.454619
v 0.075683 0.490720 0.454619
v 0.079138 0.495021 0.453399
v 0.079138 0.495021 0.453399
v 0.083595 0.498420 0.452489
v 0.083595 0.498420 0.452489
v 0.088814 0.500720 0.451941
v 0.088814 0.500720 0.451941
v 0.094517 0.501086 0.451489
v 0.094517 0.501184 0.451549
v 0.094517 0.501184 0.451549
v 0.094517 0.501086 0.451489
v 0.100127 0.500158 0.451469
v 0.100127 0.500158 0.451469
v 0.105345 0.498012 0.451881
v 0.105345 0.498012 0.451881
v 0.109862 0.494858 0.453066
v 0.109862 0.494219 0.451362
v 0.109862 0.494219 0.451362
v 0.109862 0.494858 0.453066
v 0.113351 0.490080 0.452916
v 0.113309 0.489927 0.452580
v 0.113309 0.489927 0.452580
v 0.113351 0.490080 0.452916
v 0.115373 0.484930 0.454088
v 0.115373 0.484930 0.454088
v 0.115894 0.479646 0.455758
v 0.115894 0.479646 0.455758
v 0.073881 0.474523 0.457681
v 0.073881 0.474523 0.457681
v 0.072801 0.479843 0.456281
v 0.072911 0.479750 0.456034
v 0.072911 0.479750 0.456034
v 0.072801 0.479843 0.456281
v 0.073475 0.485229 0.454738
v 0.073522 0.485087 0.454397
v 0.073522 0.485087 0.454397
v 0.073475 0.485229 0.454738
v 0.075683 0.490720 0.454619
v 0.075683 0.490080 0.452916
v 0.075683 0.490080 0.452916
v 0.075683 0.490720 0.454619
v 0.079172 0.494858 0.453066
v 0.079172 0.494858 0.453066
v 0.083665 0.498182 0.452212
v 0.083665 0.498182 0.452212
v 0.088871 0.500409 0.451742
v 0.088871 0.500409 0.451742
v 0.092808 0.501199 0.451761
v 0.089955 0.501215 0.451997
v 0.089955 0.501215 0.451997
v 0.092808 0.501199 0.451761
v 0.094517 0.500831 0.451217
v 0.094517 0.500831 0.451217
v 0.100114 0.499984 0.451141
v 0.100114 0.499984 0.451141
v 0.105345 0.498012 0.451881
v 0.105345 0.497373 0.450178
v 0.105345 0.498012 0.451881
v 0.105345 0.497373 0.450178
v 0.109862 0.494219 0.451362
v 0.109827 0.494056 0.451029
v 0.109827 0.494056 0.451029
v 0.109862 0.494219 0.451362
v 0.113185 0.489737 0.452284
v 0.113185 0.489737 0.452284
v 0.115153 0.484770 0.453834
v 0.115153 0.484770 0.453834
v 0.073140 0.479646 0.455758
v 0.073140 0.479646 0.455758
v 0.073661 0.484930 0.454088
v 0.073661 0.484930 0.454088
v 0.075683 0.490080 0.452916
v 0.075725 0.489927 0.452580
v 0.075725 0.489927 0.452580
v 0.075683 0.490080 0.452916
v 0.079172 0.494858 0.453066
v 0.079172 0.494219 0.451362
v 0.079172 0.494219 0.451362
v 0.079172 0.494858 0.453066
v 0.083689 0.498012 0.451881
v 0.083689 0.498012 0.451881
v 0.088907 0.500158 0.451469
v 0.088907 0.500158 0.451469
v 0.094517 0.500655 0.450889
v 0.094517 0.500655 0.450889
v 0.100114 0.499345 0.449437
v 0.100114 0.499984 0.451141
v 0.100114 0.499345 0.449437
v 0.100114 0.499984 0.451141
v 0.105345 0.497373 0.450178
v 0.105321 0.497203 0.449847
v 0.105345 0.497373 0.450178
v 0.105321 0.497203 0.449847
v 0.109727 0.493839 0.450743
v 0.109727 0.493839 0.450743
v 0.112989 0.489524 0.452049
v 0.112989 0.489524 0.452049
v 0.073881 0.484770 0.453834
v 0.073881 0.484770 0.453834
v 0.075849 0.489737 0.452284
v 0.075849 0.489737 0.452284
v 0.079172 0.494219 0.451362
v 0.079207 0.494056 0.451029
v 0.079207 0.494056 0.451029
v 0.079172 0.494219 0.451362
v 0.083689 0.498012 0.451881
v 0.083689 0.497373 0.450178
v 0.083689 0.497373 0.450178
v 0.083689 0.498012 0.451881
v 0.088920 0.499984 0.451141
v 0.088920 0.499984 0.451141
v 0.094517 0.500015 0.449186
v 0.094517 0.500655 0.450889
v 0.094517 0.500015 0.449186
v 0.094517 0.500655 0.450889
v 0.100114 0.499345 0.449437
v 0.100102 0.499171 0.449109
v 0.100114 0.499345 0.449437
v 0.100102 0.499171 0.449109
v 0.105251 0.496965 0.449570
v 0.105251 0.496965 0.449570
v 0.109568 0.493582 0.450524
v 0.109568 0.493582 0.450524
v 0.076045 0.489524 0.452049
v 0.076045 0.489524 0.452049
v 0.079307 0.493839 0.450743
v 0.079307 0.493839 0.450743
v 0.083689 0.497373 0.450178
v 0.083713 0.497203 0.449847
v 0.083713 0.497203 0.449847
v 0.083689 0.497373 0.450178
v 0.088920 0.499345 0.449437
v 0.088920 0.499984 0.451141
v 0.088920 0.499984 0.451141
v 0.088920 0.499345 0.449437
v 0.094517 0.500015 0.449186
v 0.094517 0.499840 0.448857
v 0.094517 0.500015 0.449186
v 0.094517 0.499840 0.448857
v 0.100066 0.498920 0.448836
v 0.100066 0.498920 0.448836
v 0.105139 0.496675 0.449363
v 0.105139 0.496675 0.449363
v 0.079466 0.493582 0.450524
v 0.079466 0.493582 0.450524
v 0.083783 0.496965 0.449570
v 0.083783 0.496965 0.449570
v 0.088920 0.499345 0.449437
v 0.088932 0.499171 0.449109
v 0.088932 0.499171 0.449109
v 0.088920 0.499345 0.449437
v 0.094517 0.499724 0.448734
v 0.094517 0.499584 0.448586
v 0.094517 0.499724 0.448734
v 0.094517 0.499584 0.448586
v 0.100008 0.498609 0.448637
v 0.100008 0.498609 0.448637
v 0.083895 0.496675 0.449363
v 0.083895 0.496675 0.449363
v 0.088968 0.498920 0.448836
v 0.088968 0.498920 0.448836
v 0.094517 0.499267 0.448389
v 0.094517 0.499267 0.448389
v 0.089026 0.498609 0.448637
v 0.089026 0.498609 0.448637
vn -0.06232172903303935 0.5644190912426841 0.8231324872285842
vn 0 0.7644700515846673 0.644659243500112
vn 0 0.5719420965144675 0.8202939950009603
vn -0.12337229587848327 0.7496229749572332 0.6502650782764975
vn -0.03266725074742895 0.46587691065929554 0.8842463202316169
vn 0 0.4698050084487288 0.8827702158752807
vn -0.12092189967038566 0.5421617985221509 0.8315277977333844
vn -0.2394412906041252 0.705672572308823 0.6668538738321012
vn -0.176325204469099 0.8845454224194894 0.4318435109454088
vn 0 0.9057352050471912 0.4238440023618624
vn 0.06232172903303935 0.5644190912426841 0.8231324872285842
vn 0.12337229587848327 0.7496229749572332 0.6502650782764975
vn -0.06340872255281753 0.4542464182878342 0.8886166357754586
vn 0.03266725074742895 0.46587691065929554 0.8842463202316169
vn -0.17203888840785322 0.5061911658923491 0.845087643057177
vn -0.3407873125571931 0.6345736233825121 0.6936716255601317
vn -0.34225631210096846 0.8218030290560382 0.4555221161056454
vn -0.21736868993170202 0.9589401555828614 0.1821664915622325
vn 0 0.985040359771642 0.17232379296241726
vn 0.176325204469099 0.8845454224194894 0.4318435109454088
vn 0.12092189967038566 0.5421617985221509 0.8315277977333844
vn 0.2394412906041252 0.705672572308823 0.6668538738321012
vn -0.09026306651454252 0.4354243831863324 0.8956886654134868
vn 0.06340872255281753 0.4542464182878342 0.8886166357754586
vn -0.2119852057668435 0.4584413124714329 0.8630723234790113
vn -0.4200779069294099 0.5400824089089482 0.7292774120298212
vn -0.4872074977504315 0.7202574966743767 0.49381979771990087
vn -0.42196101358180915 0.881645028377822 0.21130770680143646
vn 0 0.9957121857077084 -0.09250536867219268
vn -0.2433817967754789 0.9664995871950229 -0.08150980892009117
vn 0.21736868993170202 0.9589401555828614 0.1821664915622325
vn 0.34225631210096846 0.8218030290560382 0.4555221161056454
vn 0.17203888840785322 0.5061911658923491 0.845087643057177
vn 0.3407873125571931 0.6345736233825121 0.6936716255601317
vn -0.11128460070493176 0.4103987025996684 0.9050904057332908
vn 0.09026306651454252 0.4354243831863324 0.8956886654134868
vn -0.23749999386355838 0.40193128961503993 0.8843330771509119
vn -0.4707752966076426 0.428139296914873 0.7714060944413288
vn -0.6006772027622201 0.5852285026911791 0.5446967025047934
vn -0.6007426366548507 0.75650924615909 0.25846091577022473
vn -0.47248417286218425 0.8799788494571347 -0.04894824718858602
vn 0 0.9742868950152511 -0.22531099884724
vn -0.25010150533408243 0.9442671201390178 -0.21403000456476115
vn 0.2433817967754789 0.9664995871950229 -0.08150980892009117
vn 0.42196101358180915 0.881645028377822 0.21130770680143646
vn 0.4872074977504315 0.7202574966743767 0.49381979771990087
vn 0.2119852057668435 0.4584413124714329 0.8630723234790113
vn 0.4200779069294099 0.5400824089089482 0.7292774120298212
vn -0.12473189751219364 0.38074069240603914 0.9162305817255706
vn 0.11128460070493176 0.4103987025996684 0.9050904057332908
vn -0.2462835022565701 0.34071340312178294 0.9073361083134581
vn -0.4882386178170578 0.3067940111956866 0.817007029814646
vn -0.6732645216307137 0.4251823136603022 0.6049255194351111
vn -0.7407491630737848 0.5900525705859834 0.321136483991403
vn -0.6727243993747918 0.7398835993123762 0.0037605789965052044
vn -0.48553731835374303 0.8553538323331367 -0.18061930682757046
vn 0 0.9361722540249108 -0.3515416202868696
vn -0.25229509752004897 0.9058873910955212 -0.3401693966562826
vn 0.25010150533408243 0.9442671201390178 -0.21403000456476115
vn 0.47248417286218425 0.8799788494571347 -0.04894824718858602
vn 0.6007426366548507 0.75650924615909 0.25846091577022473
vn 0.6006772027622201 0.5852285026911791 0.5446967025047934
vn 0.23749999386355838 0.40193128961503993 0.8843330771509119
vn 0.4707752966076426 0.428139296914873 0.7714060944413288
vn -0.12936530111841413 0.3485876030136773 0.9283056080255687
vn 0.12473189751219364 0.38074069240603914 0.9162305817255706
vn -0.47077531056113336 0.1854258041597478 0.862547319349947
vn -0.23750000849905548 0.2794855100015272 0.9303126332916987
vn -0.6982755836919344 0.2516436941229193 0.6701392843490513
vn -0.8303431880264138 0.3926951943373176 0.3953740942986879
vn -0.8295735998507817 0.5534912999004417 0.073858129986715
vn -0.6913254065361846 0.7113797067257893 -0.12652310119622137
vn -0.489797290845069 0.8161889847443956 -0.30648679427137393
vn 0.25229509752004897 0.9058873910955212 -0.3401693966562826
vn 0 0.9951843275389868 -0.09802119271246645
vn -0.24374770345705662 0.9659259136996596 -0.08702980123433737
vn 0.48553731835374303 0.8553538323331367 -0.18061930682757046
vn 0.6727243993747918 0.7398835993123762 0.0037605789965052044
vn 0.7407491630737848 0.5900525705859834 0.321136483991403
vn 0.6732645216307137 0.4251823136603022 0.6049255194351111
vn 0.2462835022565701 0.34071340312178294 0.9073361083134581
vn 0.4882386178170578 0.3067940111956866 0.817007029814646
vn -0.12473190425045115 0.3164338107830184 0.9403784320449897
vn 0.12936530111841413 0.3485876030136773 0.9283056080255687
vn -0.420077914330248 0.07342154250465162 0.9045130308559332
vn -0.21198520546450383 0.22294880574712067 0.9515020245275911
vn -0.6732645015371865 0.07807327017825545 0.7352683016787526
vn -0.8612204303973743 0.1786646063060915 0.47579231679342093
vn -0.9299676978496079 0.3324620992312379 0.15693639963711137
vn -0.852531705190747 0.5198204031649921 -0.05455676033217561
vn -0.6973937093038285 0.6709436089509616 -0.2519458033611723
vn -0.47320200526285755 0.8792680097790421 -0.05447595060587038
vn 0.24374770345705662 0.9659259136996596 -0.08702980123433737
vn 0.489797290845069 0.8161889847443956 -0.30648679427137393
vn 0 0.9993389698118991 0.03635413890181187
vn -0.2187269104628687 0.9605653459489373 0.171676308212189
vn 0 0.9868217015982317 0.1618114002620659
vn 0.6913254065361846 0.7113797067257893 -0.12652310119622137
vn 0.8295735998507817 0.5534912999004417 0.073858129986715
vn 0.8303431880264138 0.3926951943373176 0.3953740942986879
vn 0.6982755836919344 0.2516436941229193 0.6701392843490513
vn 0.47077531056113336 0.1854258041597478 0.862547319349947
vn 0.23750000849905548 0.2794855100015272 0.9303126332916987
vn -0.11128460175729737 0.2867736045284475 0.9515128150253581
vn 0.12473190425045115 0.3164338107830184 0.9403784320449897
vn -0.34078729074057634 -0.02115090942531554 0.9399024744622072
vn -0.17203889770436973 0.17516329766267855 0.969391787064756
vn -0.6006772148303989 -0.08205847202597993 0.7952693196347738
vn -0.8303431789102629 -0.035397469100946176 0.5561269858750307
vn -0.9645715076491278 0.0927442707354693 0.24698240195858986
vn -0.9557213112154996 0.2926602034344012 0.030769800361087216
vn -0.8600187059801833 0.4776936033216665 -0.17937850124731727
vn -0.6737613794373941 0.7389468774479899 -0.0017651879461278493
vn -0.4246250829269001 0.8827997645048558 0.20089329192258937
vn 0.2187269104628687 0.9605653459489373 0.171676308212189
vn 0.47320200526285755 0.8792680097790421 -0.05447595060587038
vn 0.6973937093038285 0.6709436089509616 -0.2519458033611723
vn -0.18946228858486525 0.9124223450264002 0.36275267814409035
vn 0 0.8801593102085058 0.4746784055055459
vn 0.852531705190747 0.5198204031649921 -0.05455676033217561
vn 0.9299676978496079 0.3324620992312379 0.15693639963711137
vn 0.8612204303973743 0.1786646063060915 0.47579231679342093
vn 0.6732645015371865 0.07807327017825545 0.7352683016787526
vn 0.420077914330248 0.07342154250465162 0.9045130308559332
vn 0.21198520546450383 0.22294880574712067 0.9515020245275911
vn -0.090263072829818 0.26174500820591073 0.9609069301251848
vn 0.11128460175729737 0.2867736045284475 0.9515128150253581
vn -0.2394412999412804 -0.09232845997735796 0.9665108997629769
vn -0.12092189708724727 0.13915799664797798 0.9828595763249918
vn -0.48720747939398634 -0.21720079081368296 0.8458443642257535
vn -0.7407491646494173 -0.23283908888827992 0.630140169927982
vn -0.9299677052785618 -0.1469931008343432 0.3369764019127016
vn -0.9912900009128194 0.046297020042632114 0.12329120011353147
vn -0.9641176050170868 0.2485308012933076 -0.0933256904856493
vn -0.8308712033810965 0.5522497022472911 0.06836161027818669
vn -0.6045903918706171 0.756879989822916 0.24819979666268088
vn -0.36779720068816146 0.8450472015811129 0.3880985007261461
vn 0.16578130150900025 0.860247607830279 0.4821728043889082
vn 0.4246250829269001 0.8827997645048558 0.20089329192258937
vn 0.6737613794373941 0.7389468774479899 -0.0017651879461278493
vn 0.8600187059801833 0.4776936033216665 -0.17937850124731727
vn 0.9557213112154996 0.2926602034344012 0.030769800361087216
vn 0.9645715076491278 0.0927442707354693 0.24698240195858986
vn 0.8303431789102629 -0.035397469100946176 0.5561269858750307
vn 0.6006772148303989 -0.08205847202597993 0.7952693196347738
vn 0.34078729074057634 -0.02115090942531554 0.9399024744622072
vn 0.17203889770436973 0.17516329766267855 0.969391787064756
vn -0.06340872292483399 0.2429202112051031 0.9679716446493202
vn 0.090263072829818 0.26174500820591073 0.9609069301251848
vn -0.15041739466340676 -0.1747413938004264 0.9730570654773321
vn -0.13228850014227314 0.02120074002280067 0.9909845010657803
vn -0.14294309343785322 -0.00754435465365846 0.9897021545653404
vn -0.3422562824707323 -0.31885578366923095 0.8838504547320178
vn -0.6007426378185494 -0.39940732514388827 0.6925186435961238
vn -0.8295736208131522 -0.3680747092346174 0.4199150105352373
vn -0.9557213035034691 -0.20007250073342286 0.21579570079106064
vn -1 0 0
vn -0.9314382501800985 0.330857782303387 0.15151209189606246
vn -0.7455634286677867 0.5893477226611098 0.311134111963471
vn -0.4581644798331005 0.7058217689320379 0.5402785762187071
vn 0.36779720068816146 0.8450472015811129 0.3880985007261461
vn 0.6045903918706171 0.756879989822916 0.24819979666268088
vn 0.8308712033810965 0.5522497022472911 0.06836161027818669
vn 0.9641176050170868 0.2485308012933076 -0.0933256904856493
vn 0.9912900009128194 0.046297020042632114 0.12329120011353147
vn 0.9299677052785618 -0.1469931008343432 0.3369764019127016
vn 0.7407491646494173 -0.23283908888827992 0.630140169927982
vn 0.48720747939398634 -0.21720079081368296 0.8458443642257535
vn 0.2394412999412804 -0.09232845997735796 0.9665108997629769
vn 0.12092189708724727 0.13915799664797798 0.9828595763249918
vn -0.04875523040954192 0.23518380197553398 0.9707273081540693
vn 0.06340872292483399 0.2429202112051031 0.9679716446493202
vn -0.17632520053900144 -0.3816760011667304 0.9073218027735557
vn -0.4219609954764347 -0.5246507943755652 0.7393851920735393
vn -0.6727243919693863 -0.5545364933802485 0.48982769415270627
vn -0.8525317254269893 -0.42724961274283535 0.3010771089797061
vn -0.9641176050170868 -0.2485308012933076 0.0933256904856493
vn -0.966102897560715 0.09075303977086024 0.24167969938979003
vn -0.8357984095677147 0.39068670447234494 0.3857524044158603
vn -0.6457082768584422 0.5908565788242737 0.48368308266526794
vn 0.5236474895588855 0.7359653853254354 0.4291249914435891
vn 0.7455634286677867 0.5893477226611098 0.311134111963471
vn 0.9314382501800985 0.330857782303387 0.15151209189606246
vn 1 0 0
vn 0.9557213035034691 -0.20007250073342286 0.21579570079106064
vn 0.8295736208131522 -0.3680747092346174 0.4199150105352373
vn 0.6007426378185494 -0.39940732514388827 0.6925186435961238
vn 0.3422562824707323 -0.31885578366923095 0.8838504547320178
vn 0.15041739466340676 -0.1747413938004264 0.9730570654773321
vn 0.13228850014227314 0.02120074002280067 0.9909845010657803
vn 0.14294309343785322 -0.00754435465365846 0.9897021545653404
vn 0.04875523040954192 0.23518380197553398 0.9707273081540693
vn -0.09987342455279126 -0.5135338234097543 0.8522372388497567
vn -0.07728192022694083 -0.28639780084101646 0.9549889028043553
vn -0.21736870799516683 -0.6020223221433388 0.7683228282601356
vn -0.472484195242422 -0.694698693004881 0.5423581945388407
vn -0.6913254082253689 -0.6188313073628364 0.3729839044377512
vn -0.8600187059801833 -0.4776936033216665 0.17937850124731727
vn -0.9314382702906172 -0.1493555952361175 0.33183678941565253
vn -0.8669011070737613 0.17523650142989905 0.46666330380789095
vn -0.9226413276772613 0.1355752040669653 0.36104341083052816
vn -0.6332620062658995 0.42831840423805617 0.644610406378188
vn 0.564937216039692 0.5788497164346955 0.5880297166953342
vn 0.8357984095677147 0.39068670447234494 0.3857524044158603
vn 0.966102897560715 0.09075303977086024 0.24167969938979003
vn 0.9641176050170868 -0.2485308012933076 0.0933256904856493
vn 0.8525317254269893 -0.42724961274283535 0.3010771089797061
vn 0.6727243919693863 -0.5545364933802485 0.48982769415270627
vn 0.4219609954764347 -0.5246507943755652 0.7393851920735393
vn 0.17632520053900144 -0.3816760011667304 0.9073218027735557
vn 0 -0.6281500332288741 0.7780922411607538
vn 0 -0.5253725895613591 0.8508722830939974
vn -0.243381799107794 -0.7812668971359773 0.5747932978928824
vn -0.4855373183476932 -0.7628268288260287 0.42702311613653315
vn -0.6973937093038285 -0.6709436089509616 0.2519458033611723
vn -0.8308711970845187 -0.37075789869903103 0.41495979854392884
vn -0.8357984093853222 -0.04021847045162015 0.5475614061486599
vn -0.6568086314951371 0.26508251271117583 0.7059275338504757
vn 0.6332620062658995 0.42831840423805617 0.644610406378188
vn 0.9226413276772613 0.1355752040669653 0.36104341083052816
vn 0.8669011070737613 0.17523650142989905 0.46666330380789095
vn 0.9314382702906172 -0.1493555952361175 0.33183678941565253
vn 0.8600187059801833 -0.4776936033216665 0.17937850124731727
vn 0.6913254082253689 -0.6188313073628364 0.3729839044377512
vn 0.472484195242422 -0.694698693004881 0.5423581945388407
vn 0.21736870799516683 -0.6020223221433388 0.7683228282601356
vn 0.09987342455279126 -0.5135338234097543 0.8522372388497567
vn 0.07728192022694083 -0.28639780084101646 0.9549889028043553
vn 0 -0.8104966194087806 0.5857433140266632
vn -0.2501015065088605 -0.8517552221668236 0.4603936119816862
vn -0.489797290845069 -0.8161889847443956 0.30648679427137393
vn -0.6737613963819922 -0.55746839700647 0.48505109739534097
vn -0.7455634042470348 -0.23889210136082747 0.6221461035439994
vn -0.6332620156346283 0.10183320251416336 0.7672087189416431
vn 0.6568086314951371 0.26508251271117583 0.7059275338504757
vn 0.8357984093853222 -0.04021847045162015 0.5475614061486599
vn 0.8308711970845187 -0.37075789869903103 0.41495979854392884
vn 0.6973937093038285 -0.6709436089509616 0.2519458033611723
vn 0.4855373183476932 -0.7628268288260287 0.42702311613653315
vn 0.243381799107794 -0.7812668971359773 0.5747932978928824
vn 0 -0.8817804558614842 0.4716600763905224
vn -0.25229509752004897 -0.9058873910955212 0.3401693966562826
vn -0.4732020013384945 -0.6978019019737955 0.5377289015210145
vn -0.6045903997141466 -0.40644039980783314 0.6850376996761107
vn -0.6457082691205687 -0.12645509395259208 0.7530404639876668
vn 0.6332620156346283 0.10183320251416336 0.7672087189416431
vn 0.7455634042470348 -0.23889210136082747 0.6221461035439994
vn 0.6737613963819922 -0.55746839700647 0.48505109739534097
vn 0.489797290845069 -0.8161889847443956 0.30648679427137393
vn 0.2501015065088605 -0.8517552221668236 0.4603936119816862
vn 0 -0.9361722540249108 0.3515416202868696
vn -0.24374769031665405 -0.7844683688354848 0.570259977345325
vn -0.4246251050394444 -0.5323749063182176 0.7323049086909836
vn -0.5236474850909368 -0.27160879226687284 0.8074787770098157
vn 0.6457082691205687 -0.12645509395259208 0.7530404639876668
vn 0.6045903997141466 -0.40644039980783314 0.6850376996761107
vn 0.4732020013384945 -0.6978019019737955 0.5377289015210145
vn 0.25229509752004897 -0.9058873910955212 0.3401693966562826
vn 0 -0.8137297684876644 0.5812433774908854
vn -0.21872690013255072 -0.6101506003697577 0.7614951004614736
vn -0.3218167121698934 -0.27125791025795054 0.9071125343035721
vn 0.5236474850909368 -0.27160879226687284 0.8074787770098157
vn 0.4246251050394444 -0.5323749063182176 0.7323049086909836
vn 0.24374769031665405 -0.7844683688354848 0.570259977345325
vn 0 -0.7284107736486009 0.6851406752139642
vn 0 -0.6364104173903861 0.7713506210777266
vn -0.16578129437510625 -0.3302565887945248 0.9292185684719814
vn 0.36779720483660505 -0.3807336050067214 0.8483909111565059
vn 0.21872690013255072 -0.6101506003697577 0.7614951004614736
vn 0 -0.470899484546996 0.8821868710502178
vn 0.18946230548725854 -0.44813891297912056 0.8736564253030735
vn 0.12337229587848327 -0.7496229749572332 -0.6502650782764975
vn 0.06232172903303935 -0.5644190912426841 -0.8231324872285842
vn 0 -0.7644700515846673 -0.644659243500112
vn 0 -0.5719420965144675 -0.8202939950009603
vn 0.03266725074742895 -0.46587691065929554 -0.8842463202316169
vn 0 -0.4698050084487288 -0.8827702158752807
vn 0.2394412906041252 -0.705672572308823 -0.6668538738321012
vn 0.12092189967038566 -0.5421617985221509 -0.8315277977333844
vn 0.176325204469099 -0.8845454224194894 -0.4318435109454088
vn 0 -0.9057352050471912 -0.4238440023618624
vn -0.12337229587848327 -0.7496229749572332 -0.6502650782764975
vn -0.06232172903303935 -0.5644190912426841 -0.8231324872285842
vn 0.06340872255281753 -0.4542464182878342 -0.8886166357754586
vn -0.03266725074742895 -0.46587691065929554 -0.8842463202316169
vn 0.3407873125571931 -0.6345736233825121 -0.6936716255601317
vn 0.17203888840785322 -0.5061911658923491 -0.845087643057177
vn 0.34225631210096846 -0.8218030290560382 -0.4555221161056454
vn 0.21736868993170202 -0.9589401555828614 -0.1821664915622325
vn 0 -0.985040359771642 -0.17232379296241726
vn -0.176325204469099 -0.8845454224194894 -0.4318435109454088
vn -0.2394412906041252 -0.705672572308823 -0.6668538738321012
vn -0.12092189967038566 -0.5421617985221509 -0.8315277977333844
vn 0.09026306651454252 -0.4354243831863324 -0.8956886654134868
vn -0.06340872255281753 -0.4542464182878342 -0.8886166357754586
vn 0.4200779069294099 -0.5400824089089482 -0.7292774120298212
vn 0.2119852057668435 -0.4584413124714329 -0.8630723234790113
vn 0.4872074977504315 -0.7202574966743767 -0.49381979771990087
vn 0.42196101358180915 -0.881645028377822 -0.21130770680143646
vn 0.2433817967754789 -0.9664995871950229 0.08150980892009117
vn 0 -0.9957121857077084 0.09250536867219268
vn -0.21736868993170202 -0.9589401555828614 -0.1821664915622325
vn -0.34225631210096846 -0.8218030290560382 -0.4555221161056454
vn -0.3407873125571931 -0.6345736233825121 -0.6936716255601317
vn -0.17203888840785322 -0.5061911658923491 -0.845087643057177
vn 0.11128460070493176 -0.4103987025996684 -0.9050904057332908
vn -0.09026306651454252 -0.4354243831863324 -0.8956886654134868
vn 0.4707752966076426 -0.428139296914873 -0.7714060944413288
vn 0.23749999386355838 -0.40193128961503993 -0.8843330771509119
vn 0.6006772027622201 -0.5852285026911791 -0.5446967025047934
vn 0.6007426366548507 -0.75650924615909 -0.25846091577022473
vn 0.47248417286218425 -0.8799788494571347 0.04894824718858602
vn 0.25010150533408243 -0.9442671201390178 0.21403000456476115
vn 0 -0.9742868950152511 0.22531099884724
vn -0.2433817967754789 -0.9664995871950229 0.08150980892009117
vn -0.42196101358180915 -0.881645028377822 -0.21130770680143646
vn -0.4872074977504315 -0.7202574966743767 -0.49381979771990087
vn -0.4200779069294099 -0.5400824089089482 -0.7292774120298212
vn -0.2119852057668435 -0.4584413124714329 -0.8630723234790113
vn 0.12473189751219364 -0.38074069240603914 -0.9162305817255706
vn -0.11128460070493176 -0.4103987025996684 -0.9050904057332908
vn 0.4882386178170578 -0.3067940111956866 -0.817007029814646
vn 0.2462835022565701 -0.34071340312178294 -0.9073361083134581
vn 0.6732645216307137 -0.4251823136603022 -0.6049255194351111
vn 0.7407491630737848 -0.5900525705859834 -0.321136483991403
vn 0.6727243993747918 -0.7398835993123762 -0.0037605789965052044
vn 0.48553731835374303 -0.8553538323331367 0.18061930682757046
vn -0.25010150533408243 -0.9442671201390178 0.21403000456476115
vn -0.47248417286218425 -0.8799788494571347 0.04894824718858602
vn -0.6007426366548507 -0.75650924615909 -0.25846091577022473
vn -0.6006772027622201 -0.5852285026911791 -0.5446967025047934
vn -0.4707752966076426 -0.428139296914873 -0.7714060944413288
vn -0.23749999386355838 -0.40193128961503993 -0.8843330771509119
vn 0.12936530111841413 -0.3485876030136773 -0.9283056080255687
vn -0.12473189751219364 -0.38074069240603914 -0.9162305817255706
vn 0.23750000849905548 -0.2794855100015272 -0.9303126332916987
vn 0.47077531056113336 -0.1854258041597478 -0.862547319349947
vn 0.6982755836919344 -0.2516436941229193 -0.6701392843490513
vn 0.8303431880264138 -0.3926951943373176 -0.3953740942986879
vn 0.8295735998507817 -0.5534912999004417 -0.073858129986715
vn 0.6913254065361846 -0.7113797067257893 0.12652310119622137
vn 0.24374770345705662 -0.9659259136996596 0.08702980123433737
vn 0 -0.9951843275389868 0.09802119271246645
vn -0.48553731835374303 -0.8553538323331367 0.18061930682757046
vn -0.6727243993747918 -0.7398835993123762 -0.0037605789965052044
vn -0.7407491630737848 -0.5900525705859834 -0.321136483991403
vn -0.6732645216307137 -0.4251823136603022 -0.6049255194351111
vn -0.4882386178170578 -0.3067940111956866 -0.817007029814646
vn -0.2462835022565701 -0.34071340312178294 -0.9073361083134581
vn 0.12473190425045115 -0.3164338107830184 -0.9403784320449897
vn -0.12936530111841413 -0.3485876030136773 -0.9283056080255687
vn 0.21198520546450383 -0.22294880574712067 -0.9515020245275911
vn 0.420077914330248 -0.07342154250465162 -0.9045130308559332
vn 0.6732645015371865 -0.07807327017825545 -0.7352683016787526
vn 0.8612204303973743 -0.1786646063060915 -0.47579231679342093
vn 0.9299676978496079 -0.3324620992312379 -0.15693639963711137
vn 0.852531705190747 -0.5198204031649921 0.05455676033217561
vn 0.47320200526285755 -0.8792680097790421 0.05447595060587038
vn -0.24374770345705662 -0.9659259136996596 0.08702980123433737
vn 0 -0.9993389698118991 -0.03635413890181187
vn 0 -0.9868217015982317 -0.1618114002620659
vn 0.2187269104628687 -0.9605653459489373 -0.171676308212189
vn -0.6913254065361846 -0.7113797067257893 0.12652310119622137
vn -0.8295735998507817 -0.5534912999004417 -0.073858129986715
vn -0.8303431880264138 -0.3926951943373176 -0.3953740942986879
vn -0.6982755836919344 -0.2516436941229193 -0.6701392843490513
vn -0.23750000849905548 -0.2794855100015272 -0.9303126332916987
vn -0.47077531056113336 -0.1854258041597478 -0.862547319349947
vn 0.11128460175729737 -0.2867736045284475 -0.9515128150253581
vn -0.12473190425045115 -0.3164338107830184 -0.9403784320449897
vn 0.17203889770436973 -0.17516329766267855 -0.969391787064756
vn 0.34078729074057634 0.02115090942531554 -0.9399024744622072
vn 0.6006772148303989 0.08205847202597993 -0.7952693196347738
vn 0.8303431789102629 0.035397469100946176 -0.5561269858750307
vn 0.9645715076491278 -0.0927442707354693 -0.24698240195858986
vn 0.9557213112154996 -0.2926602034344012 -0.030769800361087216
vn 0.6737613794373941 -0.7389468774479899 0.0017651879461278493
vn 0.4246250829269001 -0.8827997645048558 -0.20089329192258937
vn -0.2187269104628687 -0.9605653459489373 -0.171676308212189
vn -0.47320200526285755 -0.8792680097790421 0.05447595060587038
vn 0.18946228858486525 -0.9124223450264002 -0.36275267814409035
vn 0 -0.8801593102085058 -0.4746784055055459
vn -0.852531705190747 -0.5198204031649921 0.05455676033217561
vn -0.9299676978496079 -0.3324620992312379 -0.15693639963711137
vn -0.8612204303973743 -0.1786646063060915 -0.47579231679342093
vn -0.6732645015371865 -0.07807327017825545 -0.7352683016787526
vn -0.21198520546450383 -0.22294880574712067 -0.9515020245275911
vn -0.420077914330248 -0.07342154250465162 -0.9045130308559332
vn 0.090263072829818 -0.26174500820591073 -0.9609069301251848
vn -0.11128460175729737 -0.2867736045284475 -0.9515128150253581
vn 0.12092189708724727 -0.13915799664797798 -0.9828595763249918
vn 0.2394412999412804 0.09232845997735796 -0.9665108997629769
vn 0.48720747939398634 0.21720079081368296 -0.8458443642257535
vn 0.7407491646494173 0.23283908888827992 -0.630140169927982
vn 0.9299677052785618 0.1469931008343432 -0.3369764019127016
vn 0.9912900009128194 -0.046297020042632114 -0.12329120011353147
vn 0.8308712033810965 -0.5522497022472911 -0.06836161027818669
vn 0.6045903918706171 -0.756879989822916 -0.24819979666268088
vn 0.36779720068816146 -0.8450472015811129 -0.3880985007261461
vn -0.16578130150900025 -0.860247607830279 -0.4821728043889082
vn -0.4246250829269001 -0.8827997645048558 -0.20089329192258937
vn -0.6737613794373941 -0.7389468774479899 0.0017651879461278493
vn -0.9557213112154996 -0.2926602034344012 -0.030769800361087216
vn -0.9645715076491278 -0.0927442707354693 -0.24698240195858986
vn -0.8303431789102629 0.035397469100946176 -0.5561269858750307
vn -0.6006772148303989 0.08205847202597993 -0.7952693196347738
vn -0.17203889770436973 -0.17516329766267855 -0.969391787064756
vn -0.34078729074057634 0.02115090942531554 -0.9399024744622072
vn 0.06340872292483399 -0.2429202112051031 -0.9679716446493202
vn -0.090263072829818 -0.26174500820591073 -0.9609069301251848
vn 0.14294309343785322 0.00754435465365846 -0.9897021545653404
vn 0.13228850014227314 -0.02120074002280067 -0.9909845010657803
vn 0.15041739466340676 0.1747413938004264 -0.9730570654773321
vn 0.3422562824707323 0.31885578366923095 -0.8838504547320178
vn 0.6007426378185494 0.39940732514388827 -0.6925186435961238
vn 0.8295736208131522 0.3680747092346174 -0.4199150105352373
vn 0.9557213035034691 0.20007250073342286 -0.21579570079106064
vn 0.9314382501800985 -0.330857782303387 -0.15151209189606246
vn 0.7455634286677867 -0.5893477226611098 -0.311134111963471
vn 0.4581644798331005 -0.7058217689320379 -0.5402785762187071
vn -0.36779720068816146 -0.8450472015811129 -0.3880985007261461
vn -0.6045903918706171 -0.756879989822916 -0.24819979666268088
vn -0.8308712033810965 -0.5522497022472911 -0.06836161027818669
vn -0.9912900009128194 -0.046297020042632114 -0.12329120011353147
vn -0.9299677052785618 0.1469931008343432 -0.3369764019127016
vn -0.7407491646494173 0.23283908888827992 -0.630140169927982
vn -0.48720747939398634 0.21720079081368296 -0.8458443642257535
vn -0.12092189708724727 -0.13915799664797798 -0.9828595763249918
vn -0.2394412999412804 0.09232845997735796 -0.9665108997629769
vn 0.04875523040954192 -0.23518380197553398 -0.9707273081540693
vn -0.06340872292483399 -0.2429202112051031 -0.9679716446493202
vn 0.17632520053900144 0.3816760011667304 -0.9073218027735557
vn 0.4219609954764347 0.5246507943755652 -0.7393851920735393
vn 0.6727243919693863 0.5545364933802485 -0.48982769415270627
vn 0.8525317254269893 0.42724961274283535 -0.3010771089797061
vn 0.966102897560715 -0.09075303977086024 -0.24167969938979003
vn 0.8357984095677147 -0.39068670447234494 -0.3857524044158603
vn 0.6457082768584422 -0.5908565788242737 -0.48368308266526794
vn -0.5236474895588855 -0.7359653853254354 -0.4291249914435891
vn -0.7455634286677867 -0.5893477226611098 -0.311134111963471
vn -0.9314382501800985 -0.330857782303387 -0.15151209189606246
vn -0.9557213035034691 0.20007250073342286 -0.21579570079106064
vn -0.8295736208131522 0.3680747092346174 -0.4199150105352373
vn -0.6007426378185494 0.39940732514388827 -0.6925186435961238
vn -0.3422562824707323 0.31885578366923095 -0.8838504547320178
vn -0.14294309343785322 0.00754435465365846 -0.9897021545653404
vn -0.15041739466340676 0.1747413938004264 -0.9730570654773321
vn -0.13228850014227314 -0.02120074002280067 -0.9909845010657803
vn -0.04875523040954192 -0.23518380197553398 -0.9707273081540693
vn 0.07728192022694083 0.28639780084101646 -0.9549889028043553
vn 0.09987342455279126 0.5135338234097543 -0.8522372388497567
vn 0.21736870799516683 0.6020223221433388 -0.7683228282601356
vn 0.472484195242422 0.694698693004881 -0.5423581945388407
vn 0.6913254082253689 0.6188313073628364 -0.3729839044377512
vn 0.9314382702906172 0.1493555952361175 -0.33183678941565253
vn 0.9226413276772613 -0.1355752040669653 -0.36104341083052816
vn 0.8669011070737613 -0.17523650142989905 -0.46666330380789095
vn 0.6332620062658995 -0.42831840423805617 -0.644610406378188
vn -0.564937216039692 -0.5788497164346955 -0.5880297166953342
vn -0.8357984095677147 -0.39068670447234494 -0.3857524044158603
vn -0.966102897560715 -0.09075303977086024 -0.24167969938979003
vn -0.8525317254269893 0.42724961274283535 -0.3010771089797061
vn -0.6727243919693863 0.5545364933802485 -0.48982769415270627
vn -0.4219609954764347 0.5246507943755652 -0.7393851920735393
vn -0.17632520053900144 0.3816760011667304 -0.9073218027735557
vn 0 0.5253725895613591 -0.8508722830939974
vn 0 0.6281500332288741 -0.7780922411607538
vn 0.243381799107794 0.7812668971359773 -0.5747932978928824
vn 0.4855373183476932 0.7628268288260287 -0.42702311613653315
vn 0.8308711970845187 0.37075789869903103 -0.41495979854392884
vn 0.8357984093853222 0.04021847045162015 -0.5475614061486599
vn 0.6568086314951371 -0.26508251271117583 -0.7059275338504757
vn -0.6332620062658995 -0.42831840423805617 -0.644610406378188
vn -0.8669011070737613 -0.17523650142989905 -0.46666330380789095
vn -0.9226413276772613 -0.1355752040669653 -0.36104341083052816
vn -0.9314382702906172 0.1493555952361175 -0.33183678941565253
vn -0.6913254082253689 0.6188313073628364 -0.3729839044377512
vn -0.472484195242422 0.694698693004881 -0.5423581945388407
vn -0.21736870799516683 0.6020223221433388 -0.7683228282601356
vn -0.07728192022694083 0.28639780084101646 -0.9549889028043553
vn -0.09987342455279126 0.5135338234097543 -0.8522372388497567
vn 0 0.8104966194087806 -0.5857433140266632
vn 0.2501015065088605 0.8517552221668236 -0.4603936119816862
vn 0.6737613963819922 0.55746839700647 -0.48505109739534097
vn 0.7455634042470348 0.23889210136082747 -0.6221461035439994
vn 0.6332620156346283 -0.10183320251416336 -0.7672087189416431
vn -0.6568086314951371 -0.26508251271117583 -0.7059275338504757
vn -0.8357984093853222 0.04021847045162015 -0.5475614061486599
vn -0.8308711970845187 0.37075789869903103 -0.41495979854392884
vn -0.4855373183476932 0.7628268288260287 -0.42702311613653315
vn -0.243381799107794 0.7812668971359773 -0.5747932978928824
vn 0 0.8817804558614842 -0.4716600763905224
vn 0.4732020013384945 0.6978019019737955 -0.5377289015210145
vn 0.6045903997141466 0.40644039980783314 -0.6850376996761107
vn 0.6457082691205687 0.12645509395259208 -0.7530404639876668
vn -0.6332620156346283 -0.10183320251416336 -0.7672087189416431
vn -0.7455634042470348 0.23889210136082747 -0.6221461035439994
vn -0.6737613963819922 0.55746839700647 -0.48505109739534097
vn -0.2501015065088605 0.8517552221668236 -0.4603936119816862
vn 0.24374769031665405 0.7844683688354848 -0.570259977345325
vn 0.4246251050394444 0.5323749063182176 -0.7323049086909836
vn 0.5236474850909368 0.27160879226687284 -0.8074787770098157
vn -0.6457082691205687 0.12645509395259208 -0.7530404639876668
vn -0.6045903997141466 0.40644039980783314 -0.6850376996761107
vn -0.4732020013384945 0.6978019019737955 -0.5377289015210145
vn 0 0.8137297684876644 -0.5812433774908854
vn 0.21872690013255072 0.6101506003697577 -0.7614951004614736
vn 0.3218167121698934 0.27125791025795054 -0.9071125343035721
vn -0.5236474850909368 0.27160879226687284 -0.8074787770098157
vn -0.4246251050394444 0.5323749063182176 -0.7323049086909836
vn -0.24374769031665405 0.7844683688354848 -0.570259977345325
vn 0 0.7284107736486009 -0.6851406752139642
vn 0 0.6364104173903861 -0.7713506210777266
vn 0.16578129437510625 0.3302565887945248 -0.9292185684719814
vn -0.36779720483660505 0.3807336050067214 -0.8483909111565059
vn -0.21872690013255072 0.6101506003697577 -0.7614951004614736
vn 0 0.470899484546996 -0.8821868710502178
vn -0.18946230548725854 0.44813891297912056 -0.8736564253030735
usemtl material_0_0
f 5//272 6//273 7//274
f 8//275 7//274 6//273
f 6//273 11//276 8//275
f 12//277 8//275 11//276
f 15//278 16//279 5//272
f 6//273 5//272 16//279
f 5//272 7//274 19//280
f 20//281 19//280 7//274
f 23//282 7//274 24//283
f 8//275 24//283 7//274
f 16//279 26//284 6//273
f 11//276 6//273 26//284
f 24//283 8//275 28//285
f 12//277 28//285 8//275
f 31//286 32//287 15//278
f 16//279 15//278 32//287
f 15//278 5//272 34//288
f 19//280 34//288 5//272
f 19//280 20//281 37//289
f 38//290 37//289 20//281
f 20//281 7//274 40//291
f 23//282 40//291 7//274
f 43//292 23//282 44//293
f 24//283 44//293 23//282
f 32//287 46//294 16//279
f 26//284 16//279 46//294
f 44//293 24//283 48//295
f 28//285 48//295 24//283
f 51//296 52//297 31//286
f 32//287 31//286 52//297
f 31//286 15//278 54//298
f 34//288 54//298 15//278
f 34//288 19//280 56//299
f 37//289 56//299 19//280
f 59//300 37//289 60//301
f 38//290 60//301 37//289
f 38//290 20//281 62//302
f 40//291 62//302 20//281
f 40//291 23//282 64//303
f 43//292 64//303 23//282
f 67//304 43//292 68//305
f 44//293 68//305 43//292
f 52//297 70//306 32//287
f 46//294 32//287 70//306
f 68//305 44//293 72//307
f 48//295 72//307 44//293
f 75//308 76//309 51//296
f 52//297 51//296 76//309
f 51//296 31//286 78//310
f 54//298 78//310 31//286
f 54//298 34//288 80//311
f 56//299 80//311 34//288
f 56//299 37//289 82//312
f 59//300 82//312 37//289
f 85//313 59//300 86//314
f 60//301 86//314 59//300
f 60//301 38//290 88//315
f 62//302 88//315 38//290
f 62//302 40//291 90//316
f 64//303 90//316 40//291
f 64//303 43//292 92//317
f 67//304 92//317 43//292
f 95//318 67//304 96//319
f 68//305 96//319 67//304
f 76//309 98//320 52//297
f 70//306 52//297 98//320
f 96//319 68//305 100//321
f 72//307 100//321 68//305
f 103//322 104//323 75//308
f 76//309 75//308 104//323
f 106//324 75//308 78//310
f 51//296 78//310 75//308
f 78//310 54//298 108//325
f 80//311 108//325 54//298
f 80//311 56//299 110//326
f 82//312 110//326 56//299
f 82//312 59//300 112//327
f 85//313 112//327 59//300
f 117//258 118//251 119//258
f 120//251 119//258 118//251
f 86//314 60//301 122//328
f 88//315 122//328 60//301
f 88//315 62//302 124//329
f 90//316 124//329 62//302
f 90//316 64//303 126//330
f 92//317 126//330 64//303
f 92//317 67//304 128//331
f 95//318 128//331 67//304
f 131//332 95//318 132//333
f 96//319 132//333 95//318
f 104//323 134//334 76//309
f 98//320 76//309 134//334
f 132//333 96//319 136//335
f 100//321 136//335 96//319
f 139//336 104//323 140//337
f 103//322 140//337 104//323
f 103//322 75//308 142//338
f 106//324 142//338 75//308
f 144//339 106//324 108//325
f 78//310 108//325 106//324
f 146//340 108//325 110//326
f 80//311 110//326 108//325
f 110//326 82//312 148//341
f 112//327 148//341 82//312
f 151//249 117//258 152//249
f 119//258 152//249 117//258
f 120//251 118//251 155//242
f 156//242 155//242 118//251
f 161//342 162//313 163//343
f 164//314 163//343 162//313
f 122//328 88//315 166//344
f 124//329 166//344 88//315
f 124//329 90//316 168//345
f 126//330 168//345 90//316
f 126//330 92//317 170//346
f 128//331 170//346 92//317
f 172//347 128//331 131//332
f 95//318 131//332 128//331
f 175//348 131//332 176//349
f 132//333 176//349 131//332
f 178//350 134//334 139//336
f 104//323 139//336 134//334
f 176//349 132//333 180//351
f 136//335 180//351 132//333
f 183//352 139//336 184//353
f 140//337 184//353 139//336
f 140//337 103//322 186//354
f 142//338 186//354 103//322
f 188//355 142//338 144//339
f 106//324 144//339 142//338
f 190//356 144//339 146//340
f 108//325 146//340 144//339
f 192//357 146//340 148//341
f 110//326 148//341 146//340
f 195//238 151//249 196//238
f 152//249 196//238 151//249
f 199//327 162//313 200//358
f 161//342 200//358 162//313
f 163//343 164//314 203//359
f 204//328 203//359 164//314
f 156//242 207//231 155//242
f 208//231 155//242 207//231
f 212//360 213//361 214//362
f 214//362 161//342 212//360
f 163//343 212//360 161//342
f 166//344 124//329 216//363
f 168//345 216//363 124//329
f 218//364 168//345 170//346
f 126//330 170//346 168//345
f 220//365 170//346 172//347
f 128//331 172//347 170//346
f 175//348 222//366 131//332
f 172//347 131//332 222//366
f 225//367 226//368 176//349
f 175//348 176//349 226//368
f 228//369 178//350 183//352
f 139//336 183//352 178//350
f 230//370 225//367 180//351
f 176//349 180//351 225//367
f 233//371 183//352 234//372
f 184//353 234//372 183//352
f 184//353 140//337 236//373
f 186//354 236//373 140//337
f 238//374 186//354 188//355
f 142//338 188//355 186//354
f 240//375 188//355 190//356
f 144//339 190//356 188//355
f 242//376 190//356 192//357
f 146//340 192//357 190//356
f 245//223 246//223 196//238
f 195//238 196//238 246//223
f 249//341 199//327 250//377
f 200//358 250//377 199//327
f 200//358 161//342 252//378
f 214//362 252//378 161//342
f 212//360 163//343 213//361
f 213//361 163//343 254//379
f 203//359 254//379 163//343
f 203//359 204//328 257//380
f 258//344 257//380 204//328
f 207//231 261//215 208//231
f 262//215 208//231 261//215
f 214//362 213//361 265//381
f 266//382 265//381 213//361
f 268//383 216//363 218//364
f 168//345 218//364 216//363
f 270//384 218//364 220//365
f 170//346 220//365 218//364
f 272//385 220//365 222//366
f 172//347 222//366 220//365
f 226//368 274//386 175//348
f 222//366 175//348 274//386
f 277//387 278//388 225//367
f 226//368 225//367 278//388
f 280//389 228//369 233//371
f 183//352 233//371 228//369
f 282//390 277//387 230//370
f 225//367 230//370 277//387
f 285//391 233//371 286//392
f 234//372 286//392 233//371
f 234//372 184//353 288//393
f 236//373 288//393 184//353
f 290//394 236//373 238//374
f 186//354 238//374 236//373
f 292//395 238//374 240//375
f 188//355 240//375 238//374
f 294//396 240//375 242//376
f 190//356 242//376 240//375
f 297//206 298//206 245//223
f 246//223 245//223 298//206
f 301//397 302//357 250//377
f 249//341 250//377 302//357
f 250//377 200//358 304//398
f 252//378 304//398 200//358
f 252//378 214//362 306//399
f 265//381 306//399 214//362
f 266//382 213//361 308//400
f 254//379 308//400 213//361
f 254//379 203//359 310//401
f 257//380 310//401 203//359
f 257//380 258//344 313//402
f 314//363 313//402 258//344
f 317//198 262//215 318//198
f 261//215 318//198 262//215
f 320//403 268//383 270//384
f 218//364 270//384 268//383
f 322//404 270//384 272//385
f 220//365 272//385 270//384
f 324//405 272//385 274//386
f 222//366 274//386 272//385
f 278//388 326//406 226//368
f 274//386 226//368 326//406
f 329//407 330//408 277//387
f 278//388 277//387 330//408
f 332//409 280//389 285//391
f 233//371 285//391 280//389
f 334//410 329//407 282//390
f 277//387 282//390 329//407
f 338//411 339//412 340//413
f 339//412 285//391 340//413
f 286//392 340//413 285//391
f 286//392 234//372 342//414
f 288//393 342//414 234//372
f 288//393 236//373 344//415
f 290//394 344//415 236//373
f 346//416 290//394 292//395
f 238//374 292//395 290//394
f 348//417 292//395 294//396
f 240//375 294//396 292//395
f 351//184 352//184 297//206
f 298//206 297//206 352//184
f 355//418 356//376 301//397
f 302//357 301//397 356//376
f 358//419 301//397 304//398
f 250//377 304//398 301//397
f 304//398 252//378 360//420
f 306//399 360//420 252//378
f 308//400 254//379 362//421
f 310//401 362//421 254//379
f 310//401 257//380 364//422
f 313//402 364//422 257//380
f 367//423 313//402 368//383
f 314//363 368//383 313//402
f 371//177 317//198 372//177
f 318//198 372//177 317//198
f 374//424 320//403 322//404
f 270//384 322//404 320//403
f 376//425 322//404 324//405
f 272//385 324//405 322//404
f 378//426 324//405 326//406
f 274//386 326//406 324//405
f 330//408 380//427 278//388
f 326//406 278//388 380//427
f 383//428 384//429 329//407
f 330//408 329//407 384//429
f 386//430 332//409 339//412
f 285//391 339//412 332//409
f 388//431 383//428 334//410
f 329//407 334//410 383//428
f 340//413 286//392 390//432
f 342//414 390//432 286//392
f 342//414 288//393 392//433
f 344//415 392//433 288//393
f 394//434 344//415 346//416
f 290//394 346//416 344//415
f 396//435 346//416 348//417
f 292//395 348//417 346//416
f 399//164 400//164 351//184
f 352//184 351//184 400//164
f 403//436 404//396 355//418
f 356//376 355//418 404//396
f 406//437 355//418 358//419
f 301//397 358//419 355//418
f 358//419 304//398 408//438
f 360//420 408//438 304//398
f 362//421 310//401 410//439
f 364//422 410//439 310//401
f 412//440 364//422 367//423
f 313//402 367//423 364//422
f 415//441 367//423 416//403
f 368//383 416//403 367//423
f 419//157 371//177 420//157
f 372//177 420//157 371//177
f 422//442 374//424 376//425
f 322//404 376//425 374//424
f 424//443 376//425 378//426
f 324//405 378//426 376//425
f 380//427 426//444 326//406
f 378//426 326//406 426//444
f 384//429 428//445 330//408
f 380//427 330//408 428//445
f 432//446 433//447 434//448
f 434//448 433//447 383//428
f 384//429 383//428 433//447
f 436//449 434//448 388//431
f 383//428 388//431 434//448
f 439//450 340//413 440//451
f 390//432 440//451 340//413
f 390//432 342//414 442//452
f 392//433 442//452 342//414
f 392//433 344//415 444//453
f 394//434 444//453 344//415
f 446//454 394//434 396//435
f 346//416 396//435 394//434
f 449//141 450//141 399//164
f 400//164 399//164 450//141
f 453//455 454//417 403//436
f 404//396 403//436 454//417
f 457//456 403//436 458//457
f 458//457 403//436 406//437
f 355//418 406//437 403//436
f 460//458 406//437 408//438
f 358//419 408//438 406//437
f 410//439 364//422 462//459
f 412//440 462//459 364//422
f 464//460 412//440 415//441
f 367//423 415//441 412//440
f 467//461 415//441 468//424
f 416//403 468//424 415//441
f 471//134 419//157 472//134
f 420//157 472//134 419//157
f 474//462 422//442 424//443
f 376//425 424//443 422//442
f 476//463 424//443 426//444
f 378//426 426//444 424//443
f 428//445 478//464 380//427
f 426//444 380//427 478//464
f 433//447 480//465 384//429
f 428//445 384//429 480//465
f 483//466 440//451 484//467
f 440//451 390//432 484//467
f 442//452 484//467 390//432
f 392//433 444//453 442//452
f 486//468 442//452 444//453
f 394//434 446//454 444//453
f 488//469 444//453 446//454
f 491//117 492//117 449//141
f 450//141 449//141 492//117
f 495//470 496//435 453//455
f 454//417 453//455 496//435
f 498//471 453//455 458//457
f 458//457 453//455 457//456
f 403//436 457//456 453//455
f 500//472 458//457 460//458
f 406//437 460//458 458//457
f 502//473 462//459 464//460
f 412//440 464//460 462//459
f 505//474 464//460 506//475
f 506//475 464//460 467//461
f 415//441 467//461 464//460
f 509//476 467//461 510//442
f 468//424 510//442 467//461
f 513//112 471//134 514//112
f 472//134 514//112 471//134
f 516//477 474//462 476//463
f 424//443 476//463 474//462
f 478//464 518//478 426//444
f 476//463 426//444 518//478
f 480//465 520//479 428//445
f 478//464 428//445 520//479
f 523//480 524//481 433//447
f 480//465 433//447 524//481
f 483//466 484//467 524//481
f 524//481 484//467 480//465
f 520//479 480//465 484//467
f 442//452 486//468 484//467
f 526//482 484//467 486//468
f 444//453 488//469 486//468
f 528//483 486//468 488//469
f 492//117 491//117 531//94
f 532//94 531//94 491//117
f 535//484 536//454 495//470
f 496//435 495//470 536//454
f 538//485 495//470 498//471
f 453//455 498//471 495//470
f 540//486 498//471 500//472
f 458//457 500//472 498//471
f 542//487 502//473 505//474
f 464//460 505//474 502//473
f 544//488 505//474 509//476
f 505//474 506//475 509//476
f 467//461 509//476 506//475
f 547//489 509//476 548//462
f 510//442 548//462 509//476
f 551//91 513//112 552//91
f 514//112 552//91 513//112
f 554//490 516//477 518//478
f 476//463 518//478 516//477
f 556//491 518//478 520//479
f 478//464 520//479 518//478
f 526//482 556//491 484//467
f 520//479 484//467 556//491
f 486//468 528//483 526//482
f 558//492 526//482 528//483
f 532//94 561//74 531//94
f 562//74 531//94 561//74
f 536//454 535//484 565//469
f 566//493 565//469 535//484
f 568//494 535//484 538//485
f 495//470 538//485 535//484
f 570//495 538//485 540//486
f 498//471 540//486 538//485
f 572//496 542//487 544//488
f 505//474 544//488 542//487
f 574//497 544//488 547//489
f 509//476 547//489 544//488
f 577//498 547//489 578//477
f 548//462 578//477 547//489
f 581//73 551//91 582//73
f 552//91 582//73 551//91
f 584//499 554//490 556//491
f 518//478 556//491 554//490
f 558//492 584//499 526//482
f 556//491 526//482 584//499
f 561//74 587//57 562//74
f 588//57 562//74 587//57
f 565//469 566//493 591//483
f 592//500 591//483 566//493
f 566//493 535//484 594//501
f 568//494 594//501 535//484
f 568//494 538//485 596//502
f 570//495 596//502 538//485
f 598//503 572//496 574//497
f 544//488 574//497 572//496
f 600//504 574//497 577//498
f 547//489 577//498 574//497
f 603//505 577//498 604//490
f 578//477 604//490 577//498
f 607//58 608//58 582//73
f 581//73 582//73 608//58
f 587//57 608//58 588//57
f 607//58 588//57 608//58
f 591//483 592//500 611//492
f 612//506 611//492 592//500
f 566//493 594//501 592//500
f 614//507 592//500 594//501
f 594//501 568//494 616//508
f 596//502 616//508 568//494
f 600//504 618//509 574//497
f 598//503 574//497 618//509
f 603//505 620//510 577//498
f 600//504 577//498 620//510
f 623//511 603//505 624//499
f 604//490 624//499 603//505
f 612//506 623//511 611//492
f 624//499 611//492 623//511
f 592//500 614//507 612//506
f 612//506 614//507 627//512
f 628//513 627//512 614//507
f 614//507 594//501 630//514
f 616//508 630//514 594//501
f 620//510 632//515 600//504
f 618//509 600//504 632//515
f 634//516 620//510 623//511
f 603//505 623//511 620//510
f 627//512 628//513 612//506
f 628//513 634//516 612//506
f 623//511 612//506 634//516
f 628//513 614//507 636//517
f 630//514 636//517 614//507
f 634//516 638//518 620//510
f 632//515 620//510 638//518
f 628//513 636//517 634//516
f 638//518 634//516 636//517
usemtl material_1_0
f 1//1 2//2 3//3
f 2//2 1//1 4//4
f 9//5 3//3 10//6
f 3//3 9//5 1//1
f 13//7 4//4 1//1
f 4//4 13//7 14//8
f 2//2 17//9 18//10
f 17//9 2//2 4//4
f 2//2 21//11 3//3
f 21//11 2//2 22//12
f 25//13 1//1 9//5
f 1//1 25//13 13//7
f 3//3 27//14 10//6
f 27//14 3//3 21//11
f 29//15 14//8 13//7
f 14//8 29//15 30//16
f 4//4 33//17 17//9
f 33//17 4//4 14//8
f 18//10 35//18 36//19
f 35//18 18//10 17//9
f 2//2 39//20 22//12
f 39//20 2//2 18//10
f 22//12 41//21 21//11
f 41//21 22//12 42//22
f 45//23 13//7 25//13
f 13//7 45//23 29//15
f 21//11 47//24 27//14
f 47//24 21//11 41//21
f 49//25 30//16 29//15
f 30//16 49//25 50//26
f 14//8 53//27 33//17
f 53//27 14//8 30//16
f 17//9 55//28 35//18
f 55//28 17//9 33//17
f 35//18 57//29 36//19
f 57//29 35//18 58//30
f 18//10 61//31 39//20
f 61//31 18//10 36//19
f 22//12 63//32 42//22
f 63//32 22//12 39//20
f 42//22 65//33 41//21
f 65//33 42//22 66//34
f 69//35 29//15 45//23
f 29//15 69//35 49//25
f 41//21 71//36 47//24
f 71//36 41//21 65//33
f 73//37 50//26 49//25
f 50//26 73//37 74//38
f 30//16 77//39 53//27
f 77//39 30//16 50//26
f 33//17 79//40 55//28
f 79//40 33//17 53//27
f 35//18 81//41 58//30
f 81//41 35//18 55//28
f 58//30 83//42 57//29
f 83//42 58//30 84//43
f 36//19 87//44 61//31
f 87//44 36//19 57//29
f 39//20 89//45 63//32
f 89//45 39//20 61//31
f 42//22 91//46 66//34
f 91//46 42//22 63//32
f 66//34 93//47 65//33
f 93//47 66//34 94//48
f 97//49 49//25 69//35
f 49//25 97//49 73//37
f 65//33 99//50 71//36
f 99//50 65//33 93//47
f 101//51 74//38 73//37
f 74//38 101//51 102//52
f 74//38 77//39 50//26
f 77//39 74//38 105//53
f 53//27 107//54 79//40
f 107//54 53//27 77//39
f 55//28 109//55 81//41
f 109//55 55//28 79//40
f 58//30 111//56 84//43
f 111//56 58//30 81//41
f 113//57 114//58 115//57
f 114//58 113//57 116//58
f 57//29 121//59 87//44
f 121//59 57//29 83//42
f 61//31 123//60 89//45
f 123//60 61//31 87//44
f 63//32 125//61 91//46
f 125//61 63//32 89//45
f 66//34 127//62 94//48
f 127//62 66//34 91//46
f 94//48 129//63 93//47
f 129//63 94//48 130//64
f 133//65 73//37 97//49
f 73//37 133//65 101//51
f 93//47 135//66 99//50
f 135//66 93//47 129//63
f 101//51 137//67 102//52
f 137//67 101//51 138//68
f 74//38 141//69 105//53
f 141//69 74//38 102//52
f 105//53 107//54 77//39
f 107//54 105//53 143//70
f 107//54 109//55 79//40
f 109//55 107//54 145//71
f 81//41 147//72 111//56
f 147//72 81//41 109//55
f 116//58 149//73 114//58
f 149//73 116//58 150//73
f 113//57 153//74 154//74
f 153//74 113//57 115//57
f 157//43 158//75 159//42
f 158//75 157//43 160//76
f 87//44 165//77 123//60
f 165//77 87//44 121//59
f 89//45 167//78 125//61
f 167//78 89//45 123//60
f 91//46 169//79 127//62
f 169//79 91//46 125//61
f 127//62 130//64 94//48
f 130//64 127//62 171//80
f 130//64 173//81 129//63
f 173//81 130//64 174//82
f 133//65 138//68 101//51
f 138//68 133//65 177//83
f 129//63 179//84 135//66
f 179//84 129//63 173//81
f 138//68 181//85 137//67
f 181//85 138//68 182//86
f 102//52 185//87 141//69
f 185//87 102//52 137//67
f 141//69 143//70 105//53
f 143//70 141//69 187//88
f 143//70 145//71 107//54
f 145//71 143//70 189//89
f 145//71 147//72 109//55
f 147//72 145//71 191//90
f 150//73 193//91 149//73
f 193//91 150//73 194//91
f 157//43 197//92 160//76
f 197//92 157//43 198//56
f 159//42 201//93 202//59
f 201//93 159//42 158//75
f 205//94 153//74 206//94
f 153//74 205//94 154//74
f 160//76 209//95 158//75
f 209//95 160//76 210//96
f 210//96 211//97 209//95
f 123//60 215//98 167//78
f 215//98 123//60 165//77
f 167//78 169//79 125//61
f 169//79 167//78 217//99
f 169//79 171//80 127//62
f 171//80 169//79 219//100
f 221//101 130//64 171//80
f 130//64 221//101 174//82
f 223//102 173//81 174//82
f 173//81 223//102 224//103
f 177//83 182//86 138//68
f 182//86 177//83 227//104
f 224//103 179//84 173//81
f 179//84 224//103 229//105
f 182//86 231//106 181//85
f 231//106 182//86 232//107
f 137//67 235//108 185//87
f 235//108 137//67 181//85
f 185//87 187//88 141//69
f 187//88 185//87 237//109
f 187//88 189//89 143//70
f 189//89 187//88 239//110
f 189//89 191//90 145//71
f 191//90 189//89 241//111
f 243//112 193//91 194//91
f 193//91 243//112 244//112
f 198//56 247//113 197//92
f 247//113 198//56 248//72
f 160//76 251//114 210//96
f 251//114 160//76 197//92
f 158//75 253//115 201//93
f 253//115 158//75 211//97
f 211//97 158//75 209//95
f 202//59 255//116 256//77
f 255//116 202//59 201//93
f 259//117 206//94 260//117
f 206//94 259//117 205//94
f 211//97 263//118 264//119
f 263//118 211//97 210//96
f 215//98 217//99 167//78
f 217//99 215//98 267//120
f 217//99 219//100 169//79
f 219//100 217//99 269//121
f 219//100 221//101 171//80
f 221//101 219//100 271//122
f 273//123 174//82 221//101
f 174//82 273//123 223//102
f 275//124 224//103 223//102
f 224//103 275//124 276//125
f 227//104 232//107 182//86
f 232//107 227//104 279//126
f 276//125 229//105 224//103
f 229//105 276//125 281//127
f 232//107 283//128 231//106
f 283//128 232//107 284//129
f 181//85 287//130 235//108
f 287//130 181//85 231//106
f 235//108 237//109 185//87
f 237//109 235//108 289//131
f 237//109 239//110 187//88
f 239//110 237//109 291//132
f 239//110 241//111 189//89
f 241//111 239//110 293//133
f 295//134 244//112 243//112
f 244//112 295//134 296//134
f 299//90 247//113 248//72
f 247//113 299//90 300//135
f 197//92 303//136 251//114
f 303//136 197//92 247//113
f 210//96 305//137 263//118
f 305//137 210//96 251//114
f 211//97 307//138 253//115
f 307//138 211//97 264//119
f 201//93 309//139 255//116
f 309//139 201//93 253//115
f 256//77 311//140 312//98
f 311//140 256//77 255//116
f 260//117 315//141 259//117
f 315//141 260//117 316//141
f 267//120 269//121 217//99
f 269//121 267//120 319//142
f 269//121 271//122 219//100
f 271//122 269//121 321//143
f 271//122 273//123 221//101
f 273//123 271//122 323//144
f 325//145 223//102 273//123
f 223//102 325//145 275//124
f 327//146 276//125 275//124
f 276//125 327//146 328//147
f 279//126 284//129 232//107
f 284//129 279//126 331//148
f 328//147 281//127 276//125
f 281//127 328//147 333//149
f 284//129 335//150 283//128
f 335//150 284//129 336//151
f 335//150 336//151 337//152
f 231//106 341//153 287//130
f 341//153 231//106 283//128
f 235//108 343//154 289//131
f 343//154 235//108 287//130
f 289//131 291//132 237//109
f 291//132 289//131 345//155
f 291//132 293//133 239//110
f 293//133 291//132 347//156
f 349//157 296//134 295//134
f 296//134 349//157 350//157
f 353//111 300//135 299//90
f 300//135 353//111 354//158
f 300//135 303//136 247//113
f 303//136 300//135 357//159
f 251//114 359//160 305//137
f 359//160 251//114 303//136
f 253//115 361//161 309//139
f 361//161 253//115 307//138
f 255//116 363//162 311//140
f 363//162 255//116 309//139
f 311//140 365//120 312//98
f 365//120 311//140 366//163
f 316//141 369//164 315//141
f 369//164 316//141 370//164
f 319//142 321//143 269//121
f 321//143 319//142 373//165
f 321//143 323//144 271//122
f 323//144 321//143 375//166
f 323//144 325//145 273//123
f 325//145 323//144 377//167
f 379//168 275//124 325//145
f 275//124 379//168 327//146
f 381//169 328//147 327//146
f 328//147 381//169 382//170
f 331//148 336//151 284//129
f 336//151 331//148 385//171
f 382//170 333//149 328//147
f 333//149 382//170 387//172
f 283//128 389//173 341//153
f 389//173 283//128 335//150
f 287//130 391//174 343//154
f 391//174 287//130 341//153
f 343//154 345//155 289//131
f 345//155 343//154 393//175
f 345//155 347//156 291//132
f 347//156 345//155 395//176
f 397//177 350//157 349//157
f 350//157 397//177 398//177
f 401//133 354//158 353//111
f 354//158 401//133 402//178
f 354//158 357//159 300//135
f 357//159 354//158 405//179
f 303//136 407//180 359//160
f 407//180 303//136 357//159
f 309//139 409//181 363//162
f 409//181 309//139 361//161
f 363//162 366//163 311//140
f 366//163 363//162 411//182
f 366//163 413//142 365//120
f 413//142 366//163 414//183
f 370//164 417//184 369//164
f 417//184 370//164 418//184
f 373//165 375//166 321//143
f 375//166 373//165 421//185
f 375//166 377//167 323//144
f 377//167 375//166 423//186
f 425//187 325//145 377//167
f 325//145 425//187 379//168
f 427//188 327//146 379//168
f 327//146 427//188 381//169
f 429//189 382//170 381//169
f 382//170 429//189 430//190
f 430//190 429//189 431//191
f 430//190 387//172 382//170
f 387//172 430//190 435//192
f 335//150 437//193 389//173
f 437//193 335//150 438//194
f 341//153 441//195 391//174
f 441//195 341//153 389//173
f 343//154 443//196 393//175
f 443//196 343//154 391//174
f 393//175 395//176 345//155
f 395//176 393//175 445//197
f 447//198 398//177 397//177
f 398//177 447//198 448//198
f 451//156 402//178 401//133
f 402//178 451//156 452//199
f 402//178 405//179 354//158
f 405//179 402//178 455//200
f 455//200 402//178 456//201
f 405//179 407//180 357//159
f 407//180 405//179 459//202
f 363//162 461//203 411//182
f 461//203 363//162 409//181
f 411//182 414//183 366//163
f 414//183 411//182 463//204
f 414//183 465//165 413//142
f 465//165 414//183 466//205
f 418//184 469//206 417//184
f 469//206 418//184 470//206
f 421//185 423//186 375//166
f 423//186 421//185 473//207
f 423//186 425//187 377//167
f 425//187 423//186 475//208
f 477//209 379//168 425//187
f 379//168 477//209 427//188
f 479//210 381//169 427//188
f 381//169 479//210 429//189
f 389//173 481//211 441//195
f 481//211 389//173 437//193
f 481//211 437//193 482//212
f 443//196 441//195 485//213
f 441//195 443//196 391//174
f 445//197 443//196 487//214
f 443//196 445//197 393//175
f 489//215 448//198 447//198
f 448//198 489//215 490//215
f 493//176 452//199 451//156
f 452//199 493//176 494//216
f 452//199 456//201 402//178
f 456//201 452//199 455//200
f 455//200 452//199 497//217
f 455//200 459//202 405//179
f 459//202 455//200 499//218
f 461//203 463//204 411//182
f 463//204 461//203 501//219
f 463//204 466//205 414//183
f 466//205 463//204 503//220
f 503//220 463//204 504//221
f 466//205 507//185 465//165
f 507//185 466//205 508//222
f 470//206 511//223 469//206
f 511//223 470//206 512//223
f 473//207 475//208 423//186
f 475//208 473//207 515//224
f 517//225 425//187 475//208
f 425//187 517//225 477//209
f 519//226 427//188 477//209
f 427//188 519//226 479//210
f 521//227 429//189 479//210
f 429//189 521//227 522//228
f 481//211 479//210 519//226
f 479//210 481//211 521//227
f 521//227 481//211 482//212
f 485//213 481//211 525//229
f 481//211 485//213 441//195
f 487//214 485//213 527//230
f 485//213 487//214 443//196
f 490//215 529//231 530//231
f 529//231 490//215 489//215
f 533//197 494//216 493//176
f 494//216 533//197 534//232
f 494//216 497//217 452//199
f 497//217 494//216 537//233
f 497//217 499//218 455//200
f 499//218 497//217 539//234
f 501//219 504//221 463//204
f 504//221 501//219 541//235
f 503//220 508//222 466//205
f 508//222 503//220 504//221
f 508//222 504//221 543//236
f 508//222 545//207 507//185
f 545//207 508//222 546//237
f 512//223 549//238 511//223
f 549//238 512//223 550//238
f 515//224 517//225 475//208
f 517//225 515//224 553//239
f 517//225 519//226 477//209
f 519//226 517//225 555//240
f 555//240 481//211 519//226
f 481//211 555//240 525//229
f 527//230 525//229 557//241
f 525//229 527//230 485//213
f 559//242 529//231 560//242
f 529//231 559//242 530//231
f 534//232 563//214 564//243
f 563//214 534//232 533//197
f 534//232 537//233 494//216
f 537//233 534//232 567//244
f 537//233 539//234 497//217
f 539//234 537//233 569//245
f 541//235 543//236 504//221
f 543//236 541//235 571//246
f 543//236 546//237 508//222
f 546//237 543//236 573//247
f 546//237 575//224 545//207
f 575//224 546//237 576//248
f 550//238 579//249 549//238
f 579//249 550//238 580//249
f 553//239 555//240 517//225
f 555//240 553//239 583//250
f 583//250 525//229 555//240
f 525//229 583//250 557//241
f 585//251 560//242 586//251
f 560//242 585//251 559//242
f 564//243 589//230 590//252
f 589//230 564//243 563//214
f 534//232 593//253 567//244
f 593//253 534//232 564//243
f 537//233 595//254 569//245
f 595//254 537//233 567//244
f 571//246 573//247 543//236
f 573//247 571//246 597//255
f 573//247 576//248 546//237
f 576//248 573//247 599//256
f 576//248 601//239 575//224
f 601//239 576//248 602//257
f 605//258 579//249 580//249
f 579//249 605//258 606//258
f 605//258 586//251 606//258
f 586//251 605//258 585//251
f 590//252 609//241 610//259
f 609//241 590//252 589//230
f 593//253 590//252 613//260
f 590//252 593//253 564//243
f 567//244 615//261 595//254
f 615//261 567//244 593//253
f 617//262 573//247 597//255
f 573//247 617//262 599//256
f 619//263 576//248 599//256
f 576//248 619//263 602//257
f 602//257 621//250 601//239
f 621//250 602//257 622//264
f 622//264 609//241 621//250
f 609//241 622//264 610//259
f 613//260 625//265 626//266
f 625//265 613//260 610//259
f 610//259 613//260 590//252
f 593//253 629//267 615//261
f 629//267 593//253 613//260
f 631//268 599//256 617//262
f 599//256 631//268 619//263
f 619//263 622//264 602//257
f 622//264 619//263 633//269
f 633//269 610//259 622//264
f 610//259 633//269 626//266
f 610//259 626//266 625//265
f 613//260 635//270 629//267
f 635//270 613//260 626//266
f 637//271 619//263 631//268
f 619//263 637//271 633//269
f 635//270 633//269 637//271
f 633//269 635//270 626//266
