# SSTK version 0.8.0
# 127
mtllib original-127.mtl
o #ID37
v -0.015746 0.053744 0.219033
v -0.032009 0.049692 0.218748
v -0.031092 0.048057 0.219033
v -0.016215 0.055545 0.218748
v -0.015253 0.051851 0.219486
v -0.030127 0.046339 0.219486
v 0.000708 0.055682 0.219033
v 0.000708 0.057538 0.218748
v -0.032817 0.051131 0.218651
v -0.016628 0.057131 0.218651
v -0.045611 0.040354 0.218748
v -0.044291 0.038996 0.219033
v -0.014769 0.049994 0.220076
v -0.029181 0.044653 0.220076
v 0.000708 0.053731 0.219486
v -0.042903 0.037568 0.219486
v 0.017632 0.055545 0.218748
v 0.017162 0.053744 0.219033
v 0.000708 0.059172 0.218651
v 0.018044 -0.060070 0.218651
v -0.016628 -0.060070 0.218651
v 0.000708 -0.062112 0.218651
v 0.034234 -0.054070 0.218651
v -0.032817 -0.054070 0.218651
v 0.048190 -0.044490 0.218651
v -0.046774 -0.044490 0.218651
v -0.057535 -0.031943 0.218651
v 0.058952 -0.031943 0.218651
v -0.064331 -0.017265 0.218651
v 0.065748 -0.017265 0.218651
v -0.066655 -0.001470 0.218651
v 0.068072 -0.001470 0.218651
v 0.065748 0.014325 0.218651
v -0.064331 0.014325 0.218651
v 0.058952 0.029003 0.218651
v -0.057535 0.029003 0.218651
v 0.048190 0.041550 0.218651
v -0.046774 0.041550 0.218651
v 0.034234 0.051131 0.218651
v -0.032817 0.051131 0.218651
v -0.016628 0.057131 0.218651
v 0.018044 0.057131 0.218651
v 0.000708 0.059172 0.218651
v -0.046774 0.041550 0.218651
v -0.056086 0.028142 0.218748
v -0.054439 0.027165 0.219033
v -0.014328 0.048300 0.220764
v -0.028319 0.043116 0.220764
v 0.000708 0.051817 0.220076
v -0.041541 0.036168 0.220076
v 0.016669 0.051851 0.219486
v -0.052708 0.026137 0.219486
v 0.033426 0.049692 0.218748
v 0.032508 0.048057 0.219033
v 0.018044 0.057131 0.218651
v -0.057535 0.029003 0.218651
v -0.064331 0.014325 0.218651
v -0.062692 0.013874 0.218748
v -0.066655 -0.001470 0.218651
v -0.064950 -0.001470 0.218748
v -0.062692 -0.016813 0.218748
v -0.064331 -0.017265 0.218651
v -0.056086 -0.031082 0.218748
v -0.057535 -0.031943 0.218651
v -0.045611 -0.043294 0.218748
v -0.046774 -0.044490 0.218651
v -0.032009 -0.052631 0.218748
v -0.032817 -0.054070 0.218651
v -0.016215 -0.058484 0.218748
v -0.016628 -0.060070 0.218651
v 0.000708 -0.060478 0.218748
v 0.000708 -0.062112 0.218651
v 0.018044 -0.060070 0.218651
v 0.017632 -0.058484 0.218748
v 0.034234 -0.054070 0.218651
v 0.033426 -0.052631 0.218748
v 0.048190 -0.044490 0.218651
v 0.047028 -0.043294 0.218748
v 0.058952 -0.031943 0.218651
v 0.057502 -0.031082 0.218748
v 0.065748 -0.017265 0.218651
v 0.064108 -0.016813 0.218748
v 0.068072 -0.001470 0.218651
v 0.066366 -0.001470 0.218748
v 0.065748 0.014325 0.218651
v 0.064108 0.013874 0.218748
v 0.057502 0.028142 0.218748
v 0.058952 0.029003 0.218651
v 0.047028 0.040354 0.218748
v 0.048190 0.041550 0.218651
v 0.034234 0.051131 0.218651
v -0.060830 0.013361 0.219033
v -0.013959 0.046885 0.221502
v -0.027597 0.041831 0.221502
v 0.000708 0.050071 0.220764
v -0.040300 0.034891 0.220764
v 0.016186 0.049994 0.220076
v -0.051010 0.025129 0.220076
v 0.031544 0.046339 0.219486
v -0.058873 0.012821 0.219486
v 0.045707 0.038996 0.219033
v -0.063012 -0.001470 0.219033
v -0.060830 -0.016300 0.219033
v -0.054439 -0.030104 0.219033
v -0.044291 -0.041936 0.219033
v -0.031092 -0.050997 0.219033
v -0.015746 -0.056683 0.219033
v 0.000708 -0.058621 0.219033
v 0.017162 -0.056683 0.219033
v 0.032508 -0.050997 0.219033
v 0.045707 -0.041936 0.219033
v 0.055855 -0.030104 0.219033
v 0.062247 -0.016300 0.219033
v 0.064429 -0.001470 0.219033
v 0.062247 0.013361 0.219033
v 0.055855 0.027165 0.219033
v 0.000708 0.048613 0.221502
v -0.039262 0.033824 0.221502
v 0.015745 0.048300 0.220764
v -0.049461 0.024209 0.220764
v 0.030598 0.044653 0.220076
v -0.056953 0.012292 0.220076
v 0.044319 0.037568 0.219486
v -0.060976 -0.001470 0.219486
v -0.058873 -0.015761 0.219486
v -0.052708 -0.029076 0.219486
v -0.042903 -0.040508 0.219486
v -0.030127 -0.049278 0.219486
v -0.015253 -0.054790 0.219486
v 0.000708 -0.056670 0.219486
v 0.016669 -0.054790 0.219486
v 0.031544 -0.049278 0.219486
v 0.044319 -0.040508 0.219486
v 0.054124 -0.029076 0.219486
v 0.060289 -0.015761 0.219486
v 0.062392 -0.001470 0.219486
v 0.060289 0.012821 0.219486
v 0.054124 0.026137 0.219486
v 0.015376 0.046885 0.221502
v -0.048167 0.023441 0.221502
v 0.029735 0.043116 0.220764
v -0.055202 0.011810 0.220764
v 0.042958 0.036168 0.220076
v -0.058978 -0.001470 0.220076
v -0.056953 -0.015232 0.220076
v -0.051010 -0.028068 0.220076
v -0.041541 -0.039108 0.220076
v -0.029181 -0.047593 0.220076
v -0.014769 -0.052933 0.220076
v 0.000708 -0.054756 0.220076
v 0.016186 -0.052933 0.220076
v 0.030598 -0.047593 0.220076
v 0.042958 -0.039108 0.220076
v 0.052427 -0.028068 0.220076
v 0.058370 -0.015232 0.220076
v 0.060395 -0.001470 0.220076
v 0.058370 0.012292 0.220076
v 0.052427 0.025129 0.220076
v 0.029014 0.041831 0.221502
v -0.053739 0.011407 0.221502
v 0.041716 0.034891 0.220764
v -0.057156 -0.001470 0.220764
v -0.055202 -0.014749 0.220764
v -0.049461 -0.027148 0.220764
v -0.040300 -0.037830 0.220764
v -0.028319 -0.046055 0.220764
v -0.014328 -0.051240 0.220764
v 0.000708 -0.053011 0.220764
v 0.015745 -0.051240 0.220764
v 0.029735 -0.046055 0.220764
v 0.041716 -0.037830 0.220764
v 0.050878 -0.027148 0.220764
v 0.056619 -0.014749 0.220764
v 0.058573 -0.001470 0.220764
v 0.056619 0.011810 0.220764
v 0.050878 0.024209 0.220764
v 0.040678 0.033824 0.221502
v -0.055634 -0.001470 0.221502
v -0.053739 -0.014346 0.221502
v -0.048167 -0.026380 0.221502
v -0.039262 -0.036763 0.221502
v -0.027597 -0.044770 0.221502
v -0.013959 -0.049824 0.221502
v 0.000708 -0.051552 0.221502
v 0.015376 -0.049824 0.221502
v 0.029014 -0.044770 0.221502
v 0.040678 -0.036763 0.221502
v 0.049584 -0.026380 0.221502
v 0.055155 -0.014346 0.221502
v 0.057050 -0.001470 0.221502
v 0.055155 0.011407 0.221502
v 0.049584 0.023441 0.221502
vn -0.043394947511515514 0.18061249373117036 0.9825965630098045
vn -0.046434037326407517 0.08968785257565134 0.9948869128086558
vn -0.08480259596180945 0.1637971006274128 0.982842321811689
vn -0.02377676170499657 0.09896034518022126 0.9948072756492262
vn -0.06015055365356784 0.2503502785356666 0.9662849729413593
vn -0.11758767357519018 0.22712182529987038 0.9667413384642397
vn 0 0.1862125953457082 0.9825094754426624
vn 0 0.10205260040781422 0.9947790039752563
vn -0.027029650941282627 0.05220805361519271 0.998270362731312
vn -0.013829187902241856 0.05755793020721542 0.9982463815272389
vn -0.06667002294911577 0.07434159150823498 0.995001726537189
vn -0.1218758806135466 0.13589989710566464 0.983197583241203
vn -0.07651646989604753 0.318466258304764 0.9448409771787053
vn -0.14963066172262984 0.2890131710957734 0.9455591213697921
vn 0 0.2580808090158555 0.9661233337507801
vn -0.169079430525549 0.1885350130501173 0.9674020338139403
vn 0.02377676170499657 0.09896034518022126 0.9948072756492262
vn 0.043394947511515514 0.18061249373117036 0.9825965630098045
vn 0 0.05933904917366458 0.9982378860988824
vn 0 0 1
vn -0.03885582345118266 0.04332688014797766 0.9983050668210461
vn -0.08293327437211902 0.05338652393144602 0.9951240882746413
vn -0.15176113825376006 0.09769301385651033 0.9835774661710966
vn -0.09473706372556695 0.39430140990810686 0.9140849451233387
vn -0.18533714722069466 0.3579806933257996 0.9151502417997137
vn 0 0.3282617055113284 0.9445868158590791
vn -0.21525731088895672 0.2400264386734895 0.9466000205190028
vn 0.06015055365356784 0.2503502785356666 0.9662849729413593
vn -0.21065407263773203 0.13560399760393138 0.9681097135732964
vn 0.046434037326407517 0.08968785257565134 0.9948869128086558
vn 0.08480259596180945 0.1637971006274128 0.982842321811689
vn 0.013829187902241856 0.05755793020721542 0.9982463815272389
vn -0.04839651007526047 0.03115421823572306 0.9983422221356043
vn -0.054666355254190085 0.01633076156696877 0.99837112129201
vn -0.09358337833494078 0.027956658558076452 0.9952188586143684
vn -0.056861384362546646 0 0.9983820826559212
vn -0.0973039676315793 0 0.995254710053237
vn -0.09358337833494078 -0.027956658558076896 0.9952188586143684
vn -0.054666355254190085 -0.016330761566969214 0.99837112129201
vn -0.08293327437211902 -0.05338652393144647 0.9951240882746413
vn -0.04839651007526046 -0.031154218235723497 0.9983422221356041
vn -0.06667002294911577 -0.07434159150823542 0.995001726537189
vn -0.03885582345118266 -0.04332688014797811 0.9983050668210461
vn -0.046434037326407517 -0.08968785257565179 0.9948869128086558
vn -0.027029650941282627 -0.05220805361519315 0.998270362731312
vn -0.023776761704996565 -0.09896034518022168 0.994807275649226
vn -0.013829187902241856 -0.05755793020721586 0.9982463815272389
vn 0 -0.10205260040781466 0.9947790039752563
vn 0 -0.059339049173665025 0.9982378860988824
vn 0.013829187902241856 -0.05755793020721586 0.9982463815272389
vn 0.023776761704996565 -0.09896034518022168 0.994807275649226
vn 0.027029650941282627 -0.05220805361519315 0.998270362731312
vn 0.046434037326407517 -0.08968785257565179 0.9948869128086558
vn 0.03885582345118266 -0.04332688014797811 0.9983050668210461
vn 0.06667002294911577 -0.07434159150823542 0.995001726537189
vn 0.04839651007526046 -0.031154218235723497 0.9983422221356041
vn 0.08293327437211902 -0.05338652393144647 0.9951240882746413
vn 0.054666355254190085 -0.016330761566969214 0.99837112129201
vn 0.09358337833494078 -0.027956658558076896 0.9952188586143684
vn 0.056861384362546646 0 0.9983820826559212
vn 0.0973039676315793 0 0.995254710053237
vn 0.054666355254190085 0.01633076156696877 0.99837112129201
vn 0.09358337833494078 0.027956658558076452 0.9952188586143684
vn 0.08293327437211902 0.05338652393144602 0.9951240882746413
vn 0.04839651007526047 0.03115421823572306 0.9983422221356043
vn 0.06667002294911577 0.07434159150823498 0.995001726537189
vn 0.03885582345118266 0.04332688014797766 0.9983050668210461
vn 0.027029650941282627 0.05220805361519271 0.998270362731312
vn -0.1713866222814318 0.05119922152307317 0.9838725859675089
vn -0.10525214281199992 0.4380658069295874 0.8927599538692422
vn -0.20600096397423798 0.3978930495574466 0.8940048791564621
vn 0 0.4063709034309791 0.9137082077144155
vn -0.2667821413485364 0.2974802087178338 0.9166966861937942
vn 0.07651646989604753 0.318466258304764 0.9448409771787053
vn -0.2683245005648899 0.1727281099096905 0.9477167100160406
vn 0.11758767357519018 0.22712182529987038 0.9667413384642397
vn -0.23799615327297574 0.0710978486026697 0.9686603775066563
vn 0.1218758806135466 0.13589989710566464 0.983197583241203
vn -0.1782542949060726 0 0.9839844543220887
vn -0.1713866222814318 -0.0511992215230736 0.9838725859675089
vn -0.15176113825376006 -0.09769301385651077 0.9835774661710966
vn -0.1218758806135466 -0.13589989710566508 0.983197583241203
vn -0.08480259596180943 -0.1637971006274132 0.9828423218116887
vn -0.043394947511515514 -0.1806124937311708 0.9825965630098045
vn 0 -0.1862125953457086 0.9825094754426622
vn 0.043394947511515514 -0.1806124937311708 0.9825965630098045
vn 0.08480259596180943 -0.1637971006274132 0.9828423218116887
vn 0.1218758806135466 -0.13589989710566508 0.983197583241203
vn 0.15176113825376006 -0.09769301385651077 0.9835774661710966
vn 0.1713866222814318 -0.0511992215230736 0.9838725859675089
vn 0.1782542949060726 0 0.9839844543220887
vn 0.1713866222814318 0.05119922152307317 0.9838725859675089
vn 0.15176113825376006 0.09769301385651033 0.9835774661710966
vn 0 0.45140299825373825 0.8923201965480416
vn -0.29672120156343 0.33086422032727913 0.8958154923029498
vn 0.09473706372556695 0.39430140990810686 0.9140849451233387
vn -0.332763463776329 0.21420938112016552 0.9183587633467084
vn 0.14963066172262984 0.2890131710957734 0.9455591213697921
vn -0.30327367013366024 0.09059853464123764 0.9485868365756087
vn 0.169079430525549 0.1885350130501173 0.9674020338139403
vn -0.2475728176117368 0 0.9688692894192619
vn -0.23799615327297574 -0.07109784860267011 0.9686603775066563
vn -0.21065407263773203 -0.13560399760393183 0.9681097135732964
vn -0.16907943052554894 -0.18853501305011772 0.9674020338139401
vn -0.11758767357519018 -0.22712182529987082 0.9667413384642397
vn -0.060150553653567855 -0.2503502785356671 0.9662849729413593
vn 0 -0.258080809015856 0.9661233337507801
vn 0.060150553653567855 -0.2503502785356671 0.9662849729413593
vn 0.11758767357519018 -0.22712182529987082 0.9667413384642397
vn 0.16907943052554894 -0.18853501305011772 0.9674020338139401
vn 0.21065407263773203 -0.13560399760393183 0.9681097135732964
vn 0.23799615327297574 -0.07109784860267011 0.9686603775066563
vn 0.2475728176117368 0 0.9688692894192619
vn 0.23799615327297574 0.0710978486026697 0.9686603775066563
vn 0.21065407263773203 0.13560399760393138 0.9681097135732964
vn 0.10525214281199992 0.4380658069295874 0.8927599538692422
vn -0.3703691920138937 0.2384172739990766 0.8977660413859642
vn 0.18533714722069466 0.3579806933257996 0.9151502417997137
vn -0.3762927056453527 0.11241190848280899 0.9196561110052781
vn 0.21525731088895672 0.2400264386734895 0.9466000205190028
vn -0.3155250947770318 0 0.9489172327268302
vn -0.3032736701336602 -0.09059853464123804 0.9485868365756085
vn -0.2683245005648899 -0.17272810990969095 0.9477167100160406
vn -0.21525731088895672 -0.24002643867348994 0.9466000205190028
vn -0.14963066172262984 -0.28901317109577385 0.9455591213697919
vn -0.07651646989604753 -0.31846625830476444 0.9448409771787051
vn 0 -0.3282617055113289 0.9445868158590791
vn 0.07651646989604753 -0.31846625830476444 0.9448409771787051
vn 0.14963066172262984 -0.28901317109577385 0.9455591213697919
vn 0.21525731088895672 -0.24002643867348994 0.9466000205190028
vn 0.2683245005648899 -0.17272810990969095 0.9477167100160406
vn 0.3032736701336602 -0.09059853464123804 0.9485868365756085
vn 0.3155250947770318 0 0.9489172327268302
vn 0.30327367013366024 0.09059853464123764 0.9485868365756087
vn 0.2683245005648899 0.1727281099096905 0.9477167100160406
vn 0.20600096397423798 0.3978930495574466 0.8940048791564621
vn -0.4190500183187393 0.1251850424574211 0.8992918254337676
vn 0.2667821413485364 0.2974802087178338 0.9166966861937942
vn -0.3915678720721632 0 0.9201492278760431
vn -0.3762927056453527 -0.11241190848280942 0.9196561110052781
vn -0.3327634637763289 -0.21420938112016588 0.9183587633467082
vn -0.2667821413485364 -0.29748020871783426 0.916696686193794
vn -0.18533714722069466 -0.35798069332580007 0.9151502417997135
vn -0.09473706372556695 -0.3943014099081073 0.9140849451233385
vn 0 -0.40637090343097965 0.9137082077144155
vn 0.09473706372556695 -0.3943014099081073 0.9140849451233385
vn 0.18533714722069466 -0.35798069332580007 0.9151502417997135
vn 0.2667821413485364 -0.29748020871783426 0.916696686193794
vn 0.3327634637763289 -0.21420938112016588 0.9183587633467082
vn 0.3762927056453527 -0.11241190848280942 0.9196561110052781
vn 0.3915678720721632 0 0.9201492278760431
vn 0.3762927056453527 0.11241190848280899 0.9196561110052781
vn 0.332763463776329 0.21420938112016552 0.9183587633467084
vn 0.29672120156343 0.33086422032727913 0.8958154923029498
vn -0.4361529411665337 0 0.8998725531494901
vn -0.4190500183187393 -0.12518504245742149 0.8992918254337676
vn -0.3703691920138937 -0.238417273999077 0.8977660413859642
vn -0.29672120156343 -0.3308642203272796 0.8958154923029495
vn -0.20600096397423798 -0.39789304955744703 0.8940048791564619
vn -0.10525214281199992 -0.43806580692958785 0.892759953869242
vn 0 -0.4514029982537387 0.8923201965480414
vn 0.10525214281199992 -0.43806580692958785 0.892759953869242
vn 0.20600096397423798 -0.39789304955744703 0.8940048791564619
vn 0.29672120156343 -0.3308642203272796 0.8958154923029495
vn 0.3703691920138937 -0.238417273999077 0.8977660413859642
vn 0.4190500183187393 -0.12518504245742149 0.8992918254337676
vn 0.4361529411665337 0 0.8998725531494901
vn 0.4190500183187393 0.1251850424574211 0.8992918254337676
vn 0.3703691920138937 0.2384172739990766 0.8977660413859642
usemtl material_0_0
f 1//1 2//2 3//3
f 2//2 1//1 4//4
f 5//5 3//3 6//6
f 3//3 5//5 1//1
f 7//7 4//4 1//1
f 4//4 7//7 8//8
f 4//4 9//9 2//2
f 9//9 4//4 10//10
f 3//3 11//11 12//12
f 11//11 3//3 2//2
f 13//13 6//6 14//14
f 6//6 13//13 5//5
f 15//15 1//1 5//5
f 1//1 15//15 7//7
f 6//6 12//12 16//16
f 12//12 6//6 3//3
f 17//17 7//7 18//18
f 7//7 17//17 8//8
f 8//8 10//10 4//4
f 10//10 8//8 19//19
f 20//20 21//20 22//20
f 21//20 20//20 23//20
f 21//20 23//20 24//20
f 24//20 23//20 25//20
f 24//20 25//20 26//20
f 26//20 25//20 27//20
f 27//20 25//20 28//20
f 27//20 28//20 29//20
f 29//20 28//20 30//20
f 29//20 30//20 31//20
f 31//20 30//20 32//20
f 31//20 32//20 33//20
f 31//20 33//20 34//20
f 34//20 33//20 35//20
f 34//20 35//20 36//20
f 36//20 35//20 37//20
f 36//20 37//20 38//20
f 38//20 37//20 39//20
f 38//20 39//20 40//20
f 40//20 39//20 41//20
f 41//20 39//20 42//20
f 41//20 42//20 43//20
f 2//2 44//21 11//11
f 44//21 2//2 9//9
f 12//12 45//22 46//23
f 45//22 12//12 11//11
f 47//24 14//14 48//25
f 14//14 47//24 13//13
f 49//26 5//5 13//13
f 5//5 49//26 15//15
f 14//14 16//16 50//27
f 16//16 14//14 6//6
f 18//18 15//15 51//28
f 15//15 18//18 7//7
f 16//16 46//23 52//29
f 46//23 16//16 12//12
f 53//30 18//18 54//31
f 18//18 53//30 17//17
f 55//32 8//8 17//17
f 8//8 55//32 19//19
f 11//11 56//33 45//22
f 56//33 11//11 44//21
f 45//22 57//34 58//35
f 57//34 45//22 56//33
f 58//35 59//36 60//37
f 59//36 58//35 57//34
f 61//38 59//36 62//39
f 59//36 61//38 60//37
f 63//40 62//39 64//41
f 62//39 63//40 61//38
f 65//42 64//41 66//43
f 64//41 65//42 63//40
f 67//44 66//43 68//45
f 66//43 67//44 65//42
f 69//46 68//45 70//47
f 68//45 69//46 67//44
f 71//48 70//47 72//49
f 70//47 71//48 69//46
f 73//50 71//48 72//49
f 71//48 73//50 74//51
f 75//52 74//51 73//50
f 74//51 75//52 76//53
f 77//54 76//53 75//52
f 76//53 77//54 78//55
f 79//56 78//55 77//54
f 78//55 79//56 80//57
f 81//58 80//57 79//56
f 80//57 81//58 82//59
f 83//60 82//59 81//58
f 82//59 83//60 84//61
f 85//62 84//61 83//60
f 84//61 85//62 86//63
f 85//62 87//64 86//63
f 87//64 85//62 88//65
f 88//65 89//66 87//64
f 89//66 88//65 90//67
f 90//67 53//30 89//66
f 53//30 90//67 91//68
f 91//68 17//17 53//30
f 17//17 91//68 55//32
f 46//23 58//35 92//69
f 58//35 46//23 45//22
f 93//70 48//25 94//71
f 48//25 93//70 47//24
f 95//72 13//13 47//24
f 13//13 95//72 49//26
f 48//25 50//27 96//73
f 50//27 48//25 14//14
f 51//28 49//26 97//74
f 49//26 51//28 15//15
f 50//27 52//29 98//75
f 52//29 50//27 16//16
f 54//31 51//28 99//76
f 51//28 54//31 18//18
f 52//29 92//69 100//77
f 92//69 52//29 46//23
f 89//66 54//31 101//78
f 54//31 89//66 53//30
f 92//69 60//37 102//79
f 60//37 92//69 58//35
f 103//80 60//37 61//38
f 60//37 103//80 102//79
f 104//81 61//38 63//40
f 61//38 104//81 103//80
f 105//82 63//40 65//42
f 63//40 105//82 104//81
f 106//83 65//42 67//44
f 65//42 106//83 105//82
f 107//84 67//44 69//46
f 67//44 107//84 106//83
f 108//85 69//46 71//48
f 69//46 108//85 107//84
f 74//51 108//85 71//48
f 108//85 74//51 109//86
f 76//53 109//86 74//51
f 109//86 76//53 110//87
f 78//55 110//87 76//53
f 110//87 78//55 111//88
f 80//57 111//88 78//55
f 111//88 80//57 112//89
f 82//59 112//89 80//57
f 112//89 82//59 113//90
f 84//61 113//90 82//59
f 113//90 84//61 114//91
f 86//63 114//91 84//61
f 114//91 86//63 115//92
f 86//63 116//93 115//92
f 116//93 86//63 87//64
f 87//64 101//78 116//93
f 101//78 87//64 89//66
f 117//94 47//24 93//70
f 47//24 117//94 95//72
f 94//71 96//73 118//95
f 96//73 94//71 48//25
f 97//74 95//72 119//96
f 95//72 97//74 49//26
f 96//73 98//75 120//97
f 98//75 96//73 50//27
f 99//76 97//74 121//98
f 97//74 99//76 51//28
f 98//75 100//77 122//99
f 100//77 98//75 52//29
f 101//78 99//76 123//100
f 99//76 101//78 54//31
f 100//77 102//79 124//101
f 102//79 100//77 92//69
f 125//102 102//79 103//80
f 102//79 125//102 124//101
f 126//103 103//80 104//81
f 103//80 126//103 125//102
f 127//104 104//81 105//82
f 104//81 127//104 126//103
f 128//105 105//82 106//83
f 105//82 128//105 127//104
f 129//106 106//83 107//84
f 106//83 129//106 128//105
f 130//107 107//84 108//85
f 107//84 130//107 129//106
f 109//86 130//107 108//85
f 130//107 109//86 131//108
f 110//87 131//108 109//86
f 131//108 110//87 132//109
f 111//88 132//109 110//87
f 132//109 111//88 133//110
f 112//89 133//110 111//88
f 133//110 112//89 134//111
f 113//90 134//111 112//89
f 134//111 113//90 135//112
f 114//91 135//112 113//90
f 135//112 114//91 136//113
f 115//92 136//113 114//91
f 136//113 115//92 137//114
f 115//92 138//115 137//114
f 138//115 115//92 116//93
f 116//93 123//100 138//115
f 123//100 116//93 101//78
f 119//96 117//94 139//116
f 117//94 119//96 95//72
f 118//95 120//97 140//117
f 120//97 118//95 96//73
f 121//98 119//96 141//118
f 119//96 121//98 97//74
f 120//97 122//99 142//119
f 122//99 120//97 98//75
f 123//100 121//98 143//120
f 121//98 123//100 99//76
f 122//99 124//101 144//121
f 124//101 122//99 100//77
f 145//122 124//101 125//102
f 124//101 145//122 144//121
f 146//123 125//102 126//103
f 125//102 146//123 145//122
f 147//124 126//103 127//104
f 126//103 147//124 146//123
f 148//125 127//104 128//105
f 127//104 148//125 147//124
f 149//126 128//105 129//106
f 128//105 149//126 148//125
f 150//127 129//106 130//107
f 129//106 150//127 149//126
f 131//108 150//127 130//107
f 150//127 131//108 151//128
f 132//109 151//128 131//108
f 151//128 132//109 152//129
f 133//110 152//129 132//109
f 152//129 133//110 153//130
f 134//111 153//130 133//110
f 153//130 134//111 154//131
f 135//112 154//131 134//111
f 154//131 135//112 155//132
f 136//113 155//132 135//112
f 155//132 136//113 156//133
f 137//114 156//133 136//113
f 156//133 137//114 157//134
f 137//114 158//135 157//134
f 158//135 137//114 138//115
f 138//115 143//120 158//135
f 143//120 138//115 123//100
f 141//118 139//116 159//136
f 139//116 141//118 119//96
f 140//117 142//119 160//137
f 142//119 140//117 120//97
f 143//120 141//118 161//138
f 141//118 143//120 121//98
f 142//119 144//121 162//139
f 144//121 142//119 122//99
f 163//140 144//121 145//122
f 144//121 163//140 162//139
f 164//141 145//122 146//123
f 145//122 164//141 163//140
f 165//142 146//123 147//124
f 146//123 165//142 164//141
f 166//143 147//124 148//125
f 147//124 166//143 165//142
f 167//144 148//125 149//126
f 148//125 167//144 166//143
f 168//145 149//126 150//127
f 149//126 168//145 167//144
f 151//128 168//145 150//127
f 168//145 151//128 169//146
f 152//129 169//146 151//128
f 169//146 152//129 170//147
f 153//130 170//147 152//129
f 170//147 153//130 171//148
f 154//131 171//148 153//130
f 171//148 154//131 172//149
f 155//132 172//149 154//131
f 172//149 155//132 173//150
f 156//133 173//150 155//132
f 173//150 156//133 174//151
f 157//134 174//151 156//133
f 174//151 157//134 175//152
f 157//134 176//153 175//152
f 176//153 157//134 158//135
f 158//135 161//138 176//153
f 161//138 158//135 143//120
f 161//138 159//136 177//154
f 159//136 161//138 141//118
f 160//137 162//139 178//155
f 162//139 160//137 142//119
f 179//156 162//139 163//140
f 162//139 179//156 178//155
f 180//157 163//140 164//141
f 163//140 180//157 179//156
f 181//158 164//141 165//142
f 164//141 181//158 180//157
f 182//159 165//142 166//143
f 165//142 182//159 181//158
f 183//160 166//143 167//144
f 166//143 183//160 182//159
f 184//161 167//144 168//145
f 167//144 184//161 183//160
f 169//146 184//161 168//145
f 184//161 169//146 185//162
f 170//147 185//162 169//146
f 185//162 170//147 186//163
f 171//148 186//163 170//147
f 186//163 171//148 187//164
f 172//149 187//164 171//148
f 187//164 172//149 188//165
f 173//150 188//165 172//149
f 188//165 173//150 189//166
f 174//151 189//166 173//150
f 189//166 174//151 190//167
f 175//152 190//167 174//151
f 190//167 175//152 191//168
f 175//152 192//169 191//168
f 192//169 175//152 176//153
f 176//153 177//154 192//169
f 177//154 176//153 161//138
