# SSTK version 0.8.0
# 114
mtllib original-114.mtl
o #ID839
v 0.131615 0.590808 0.418559
v 0.101958 0.501229 0.452196
v 0.131615 0.501229 0.452196
v 0.100477 0.501787 0.451986
v 0.094517 0.502501 0.451718
v 0.049647 0.507342 0.449900
v 0.052363 0.513596 0.447553
v 0.054202 0.520122 0.445102
v 0.055129 0.526814 0.442589
v 0.055129 0.533562 0.440054
v 0.054202 0.540255 0.437541
v 0.052363 0.546781 0.435091
v 0.049647 0.553035 0.432743
v 0.046100 0.558915 0.430534
v 0.041784 0.564332 0.428500
v 0.036769 0.569198 0.426673
v 0.031140 0.573444 0.425079
v 0.025838 0.576511 0.423927
v 0.024985 0.577005 0.423741
v 0.018402 0.579828 0.422682
v 0.011493 0.581875 0.421913
v 0.005701 0.582881 0.421535
v 0.005267 0.590808 0.418559
v 0.088557 0.501787 0.451986
v 0.050213 0.501229 0.452196
v 0.087076 0.501229 0.452196
v 0.046100 0.501461 0.452109
v 0.094517 0.502501 0.451718
v 0.088557 0.501787 0.451986
v 0.049647 0.507342 0.449900
v 0.046100 0.501461 0.452109
v 0.050213 0.501229 0.452196
v 0.087076 0.501229 0.452196
v 0.005267 0.590808 0.418559
v 0.131615 0.590808 0.418559
v 0.005701 0.582881 0.421535
v 0.011493 0.581875 0.421913
v 0.018402 0.579828 0.422682
v 0.024985 0.577005 0.423741
v 0.025838 0.576511 0.423927
v 0.031140 0.573444 0.425079
v 0.036769 0.569198 0.426673
v 0.041784 0.564332 0.428500
v 0.046100 0.558915 0.430534
v 0.049647 0.553035 0.432743
v 0.052363 0.546781 0.435091
v 0.054202 0.540255 0.437541
v 0.055129 0.533562 0.440054
v 0.055129 0.526814 0.442589
v 0.054202 0.520122 0.445102
v 0.052363 0.513596 0.447553
v 0.100477 0.501787 0.451986
v 0.101958 0.501229 0.452196
v 0.131615 0.501229 0.452196
v -0.055394 0.507342 0.449900
v -0.098762 0.502621 0.451673
v -0.052548 0.502621 0.451673
v -0.098852 0.502655 0.451660
v -0.105054 0.503398 0.451381
v 0.005267 0.590808 0.418559
v 0.004365 0.583114 0.421447
v 0.005701 0.582881 0.421535
v -0.002874 0.583529 0.421291
v -0.111256 0.502655 0.451660
v -0.135952 0.502621 0.451673
v -0.111346 0.502621 0.451673
v -0.135952 0.590808 0.418559
v -0.058111 0.513596 0.447553
v -0.059949 0.520122 0.445102
v -0.060877 0.526814 0.442589
v -0.060877 0.533562 0.440054
v -0.059949 0.540255 0.437541
v -0.058111 0.546781 0.435091
v -0.055394 0.553035 0.432743
v -0.051848 0.558915 0.430534
v -0.048077 0.563646 0.428757
v -0.047531 0.564332 0.428500
v -0.047073 0.564776 0.428334
v -0.046407 0.565526 0.428052
v -0.045888 0.565926 0.427902
v -0.042517 0.569198 0.426673
v -0.036887 0.573444 0.425079
v -0.030732 0.577005 0.423741
v -0.024149 0.579828 0.422682
v -0.017240 0.581875 0.421913
v -0.010112 0.583114 0.421447
v 0.005267 0.590808 0.418559
v -0.002874 0.583529 0.421291
v -0.135952 0.590808 0.418559
v -0.010112 0.583114 0.421447
v -0.017240 0.581875 0.421913
v -0.024149 0.579828 0.422682
v -0.030732 0.577005 0.423741
v -0.036887 0.573444 0.425079
v -0.042517 0.569198 0.426673
v -0.045888 0.565926 0.427902
v -0.046407 0.565526 0.428052
v -0.047073 0.564776 0.428334
v -0.047531 0.564332 0.428500
v -0.048077 0.563646 0.428757
v -0.051848 0.558915 0.430534
v -0.055394 0.553035 0.432743
v -0.058111 0.546781 0.435091
v -0.059949 0.540255 0.437541
v -0.060877 0.533562 0.440054
v -0.060877 0.526814 0.442589
v -0.059949 0.520122 0.445102
v -0.058111 0.513596 0.447553
v -0.055394 0.507342 0.449900
v -0.105054 0.503398 0.451381
v -0.111256 0.502655 0.451660
v -0.135952 0.502621 0.451673
v -0.111346 0.502621 0.451673
v 0.004365 0.583114 0.421447
v 0.005701 0.582881 0.421535
v -0.098852 0.502655 0.451660
v -0.098762 0.502621 0.451673
v -0.052548 0.502621 0.451673
vt 1.453061 11.94993
vt 1.407181 11.38117
vt 1.453061 11.38117
vt 1.40489 11.38472
vt 1.39567 11.38925
vt 1.326256 11.41999
vt 1.330458 11.45969
vt 1.333302 11.50113
vt 1.334737 11.54362
vt 1.334737 11.58646
vt 1.333302 11.62895
vt 1.330458 11.67039
vt 1.326256 11.71009
vt 1.320769 11.74743
vt 1.314091 11.78182
vt 1.306334 11.81272
vt 1.297625 11.83968
vt 1.289424 11.85915
vt 1.288104 11.86228
vt 1.27792 11.88021
vt 1.267232 11.8932
vt 1.258271 11.8996
vt 1.2576 11.94993
vt 1.38645 11.38472
vt 1.327132 11.38117
vt 1.384158 11.38117
vt 1.320769 11.38265
vt 1.136658 11.42572
vt 1.069569 11.39575
vt 1.141063 11.39575
vt 1.069429 11.39597
vt 1.059835 11.40069
vt 1.230501 11.95566
vt 1.229106 11.90681
vt 1.231173 11.90534
vt 1.217908 11.90945
vt 1.050241 11.39597
vt 1.012036 11.39575
vt 1.050102 11.39575
vt 1.012036 11.95566
vt 1.132456 11.46543
vt 1.129613 11.50687
vt 1.128178 11.54936
vt 1.128178 11.5922
vt 1.129613 11.63469
vt 1.132456 11.67613
vt 1.136658 11.71583
vt 1.142145 11.75317
vt 1.147978 11.78321
vt 1.148823 11.78756
vt 1.149532 11.79038
vt 1.150562 11.79514
vt 1.151365 11.79768
vt 1.15658 11.81846
vt 1.165289 11.84541
vt 1.174811 11.86802
vt 1.184995 11.88595
vt 1.195683 11.89894
vt 1.20671 11.90681
vn 0 0.3515416202868696 0.9361722540249108
vn -0.036215459497525505 0.3029345957969078 0.9523229867869133
vn -0.033065739996562524 0.30075009996873414 0.9531295999009138
vn -0.017218990554178845 0.31605911017209853 0.9485832305293599
vn -0.02256858954262894 0.2960554940001913 0.9549040806480822
vn 0.052484061504724 0.318834009141007 0.9463563271321435
vn 0.05198019856530261 0.31449109131978004 0.947836173838921
vn 0.04794197180144621 0.3074754115535591 0.9503475357098364
vn 0.042301739364008634 0.3075486953761163 0.9505915857081991
vn 0.036215459497525505 0.3029345957969078 0.9523229867869133
vn 0.02960248088739595 0.299088708965806 0.953766028591121
vn 0 -0.3515416202868696 -0.9361722540249108
vn 0.02256858954262894 -0.2960554940001913 -0.9549040806480822
vn 0.017218990554178845 -0.31605911017209853 -0.9485832305293599
vn 0.033065739996562524 -0.30075009996873414 -0.9531295999009138
vn 0.036215459497525505 -0.3029345957969078 -0.9523229867869133
vn -0.02960248088739595 -0.299088708965806 -0.953766028591121
vn -0.036215459497525505 -0.3029345957969078 -0.9523229867869133
vn -0.042301739364008634 -0.3075486953761163 -0.9505915857081991
vn -0.04794197180144621 -0.3074754115535591 -0.9503475357098364
vn -0.05198019856530261 -0.31449109131978004 -0.947836173838921
vn -0.052484061504724 -0.318834009141007 -0.9463563271321435
usemtl material_0_0
f 28//12 29//12 30//12
f 30//12 29//12 31//12
f 31//12 29//12 32//12
f 33//12 32//12 29//12
f 34//12 35//12 36//12
f 36//12 35//12 37//12
f 37//12 35//12 38//13
f 38//13 35//12 39//14
f 39//14 35//12 40//15
f 40//15 35//12 41//16
f 41//16 35//12 42//12
f 42//12 35//12 43//12
f 43//12 35//12 44//12
f 44//12 35//12 45//12
f 45//12 35//12 46//12
f 46//12 35//12 47//12
f 47//12 35//12 48//12
f 48//12 35//12 49//12
f 49//12 35//12 50//12
f 50//12 35//12 51//12
f 51//12 35//12 30//12
f 30//12 35//12 28//12
f 28//12 35//12 52//12
f 52//12 35//12 53//12
f 54//12 53//12 35//12
f 87//12 88//12 89//12
f 88//12 90//12 89//12
f 90//12 91//12 89//12
f 91//12 92//12 89//12
f 92//12 93//17 89//12
f 93//17 94//18 89//12
f 94//18 95//19 89//12
f 95//19 96//20 89//12
f 96//20 97//12 89//12
f 97//12 98//12 89//12
f 98//12 99//12 89//12
f 99//12 100//21 89//12
f 100//21 101//22 89//12
f 101//22 102//12 89//12
f 102//12 103//12 89//12
f 103//12 104//12 89//12
f 104//12 105//12 89//12
f 105//12 106//12 89//12
f 106//12 107//12 89//12
f 107//12 108//12 89//12
f 108//12 109//12 89//12
f 109//12 110//12 89//12
f 110//12 111//12 89//12
f 89//12 111//12 112//12
f 113//12 112//12 111//12
f 88//12 87//12 114//12
f 115//12 114//12 87//12
f 110//12 109//12 116//12
f 116//12 109//12 117//12
f 118//12 117//12 109//12
usemtl material_1_0
f 1/1/1 2/2/1 3/3/1
f 2/2/1 1/1/1 4/4/1
f 4/4/1 1/1/1 5/5/1
f 5/5/1 1/1/1 6/6/1
f 6/6/1 1/1/1 7/7/1
f 7/7/1 1/1/1 8/8/1
f 8/8/1 1/1/1 9/9/1
f 9/9/1 1/1/1 10/10/1
f 10/10/1 1/1/1 11/11/1
f 11/11/1 1/1/1 12/12/1
f 12/12/1 1/1/1 13/13/1
f 13/13/1 1/1/1 14/14/1
f 14/14/1 1/1/1 15/15/1
f 15/15/1 1/1/1 16/16/1
f 16/16/1 1/1/1 17/17/2
f 17/17/2 1/1/1 18/18/3
f 18/18/3 1/1/1 19/19/4
f 19/19/4 1/1/1 20/20/5
f 20/20/5 1/1/1 21/21/1
f 21/21/1 1/1/1 22/22/1
f 22/22/1 1/1/1 23/23/1
f 24/24/1 25/25/1 26/26/1
f 25/25/1 24/24/1 27/27/1
f 27/27/1 24/24/1 6/6/1
f 6/6/1 24/24/1 5/5/1
f 55/28/1 56/29/1 57/30/1
f 56/29/1 55/28/1 58/31/1
f 58/31/1 55/28/1 59/32/1
f 60/33/1 61/34/1 62/35/1
f 61/34/1 60/33/1 63/36/1
f 64/37/1 65/38/1 66/39/1
f 65/38/1 64/37/1 67/40/1
f 67/40/1 64/37/1 59/32/1
f 67/40/1 59/32/1 55/28/1
f 67/40/1 55/28/1 68/41/1
f 67/40/1 68/41/1 69/42/1
f 67/40/1 69/42/1 70/43/1
f 67/40/1 70/43/1 71/44/1
f 67/40/1 71/44/1 72/45/1
f 67/40/1 72/45/1 73/46/1
f 67/40/1 73/46/1 74/47/1
f 67/40/1 74/47/1 75/48/6
f 67/40/1 75/48/6 76/49/7
f 67/40/1 76/49/7 77/50/1
f 67/40/1 77/50/1 78/51/1
f 67/40/1 78/51/1 79/52/1
f 67/40/1 79/52/1 80/53/8
f 67/40/1 80/53/8 81/54/9
f 67/40/1 81/54/9 82/55/10
f 67/40/1 82/55/10 83/56/11
f 67/40/1 83/56/11 84/57/1
f 67/40/1 84/57/1 85/58/1
f 67/40/1 85/58/1 86/59/1
f 67/40/1 86/59/1 63/36/1
f 67/40/1 63/36/1 60/33/1
