# SSTK version 0.8.0
# 39
mtllib original-39.mtl
o #ID316
v 0.078868 0.494052 0.450582
v 0.074343 0.490249 0.451503
v 0.075337 0.489863 0.452155
v 0.078062 0.494661 0.449846
v 0.073275 0.490784 0.451129
v 0.077197 0.495436 0.449382
v 0.071997 0.485096 0.453438
v 0.073112 0.484975 0.453991
v 0.083460 0.497258 0.449378
v 0.082894 0.498035 0.448580
v 0.070801 0.485347 0.453171
v 0.082287 0.498990 0.448048
v 0.072352 0.479723 0.455963
v 0.071196 0.479557 0.455519
v 0.088797 0.499270 0.448622
v 0.088505 0.500150 0.447785
v 0.069955 0.479500 0.455366
v 0.087324 0.500889 0.447334
v 0.088287 0.500893 0.447386
v 0.073112 0.474471 0.457935
v 0.071997 0.474017 0.457598
v 0.094517 0.499956 0.448365
v 0.094517 0.500870 0.447514
v 0.070801 0.473652 0.457562
v 0.094517 0.500901 0.447498
v 0.088192 0.501216 0.447211
v 0.087324 0.500889 0.447334
v 0.088287 0.500893 0.447386
v 0.075337 0.469583 0.459771
v 0.074343 0.468864 0.459533
v 0.100529 0.500150 0.447785
v 0.100238 0.499270 0.448622
v 0.073275 0.468215 0.459604
v 0.100747 0.500893 0.447386
v 0.094517 0.500901 0.447498
v 0.094517 0.501974 0.446928
v 0.078868 0.465395 0.461343
v 0.078062 0.464452 0.461190
v 0.106140 0.498035 0.448580
v 0.105574 0.497258 0.449378
v 0.077197 0.463563 0.461350
v 0.106747 0.498990 0.448048
v 0.101710 0.500889 0.447334
v 0.100842 0.501216 0.447211
v 0.100747 0.500893 0.447386
v 0.083460 0.462188 0.462546
v 0.082894 0.461078 0.462457
v 0.110972 0.494661 0.449846
v 0.110166 0.494052 0.450582
v 0.082287 0.460009 0.462685
v 0.101710 0.500889 0.447334
v 0.111837 0.495436 0.449382
v 0.088797 0.460177 0.463302
v 0.088505 0.458963 0.463251
v 0.114692 0.490249 0.451503
v 0.113697 0.489863 0.452155
v 0.088192 0.457783 0.463522
v 0.115759 0.490784 0.451129
v 0.094517 0.459491 0.463560
v 0.094517 0.458243 0.463522
v 0.117037 0.485096 0.453438
v 0.115922 0.484975 0.453991
v 0.094517 0.457025 0.463805
v 0.118233 0.485347 0.453171
v 0.100529 0.458963 0.463251
v 0.100238 0.460177 0.463302
v 0.116682 0.479723 0.455963
v 0.117838 0.479557 0.455519
v 0.100842 0.457783 0.463522
v 0.119079 0.479500 0.455366
v 0.106140 0.461078 0.462457
v 0.105574 0.462188 0.462546
v 0.115922 0.474471 0.457935
v 0.117037 0.474017 0.457598
v 0.106747 0.460009 0.462685
v 0.118233 0.473652 0.457562
v 0.110972 0.464452 0.461190
v 0.110166 0.465395 0.461343
v 0.113697 0.469583 0.459771
v 0.114692 0.468864 0.459533
v 0.111837 0.463563 0.461350
v 0.115759 0.468215 0.459604
vn -0.3407873125571931 0.6345736233825121 0.6936716255601317
vn -0.2119852057668435 0.4584413124714329 0.8630723234790113
vn -0.4200779069294099 0.5400824089089482 0.7292774120298212
vn -0.17203888840785322 0.5061911658923491 0.845087643057177
vn -0.11128460070493176 0.4103987025996684 0.9050904057332908
vn -0.09026306651454252 0.4354243831863324 0.8956886654134868
vn -0.23749999386355838 0.40193128961503993 0.8843330771509119
vn -0.4707752966076426 0.428139296914873 0.7714060944413288
vn -0.2394412906041252 0.705672572308823 0.6668538738321012
vn -0.12092189967038566 0.5421617985221509 0.8315277977333844
vn -0.12473189751219364 0.38074069240603914 0.9162305817255706
vn -0.06340872255281753 0.4542464182878342 0.8886166357754586
vn -0.4882386178170578 0.3067940111956866 0.817007029814646
vn -0.2462835022565701 0.34071340312178294 0.9073361083134581
vn -0.12337229587848327 0.7496229749572332 0.6502650782764975
vn -0.06232172903303935 0.5644190912426841 0.8231324872285842
vn -0.12936530111841413 0.3485876030136773 0.9283056080255687
vn -0.048755231155654936 0.46188451094814015 0.8855990209915299
vn -0.03539409076361923 0.4652095100367862 0.8844927190827238
vn -0.47077531056113336 0.1854258041597478 0.862547319349947
vn -0.23750000849905548 0.2794855100015272 0.9303126332916987
vn 0 0.7644700515846673 0.644659243500112
vn 0 0.5719420965144675 0.8202939950009603
vn -0.12473190425045115 0.3164338107830184 0.9403784320449897
vn 0 0.4698050084487288 0.8827702158752807
vn -0.03266725074742895 0.46587691065929554 0.8842463202316169
vn -0.029915510521880573 0.46654670813897714 0.8839905154213474
vn -0.420077914330248 0.07342154250465162 0.9045130308559332
vn -0.21198520546450383 0.22294880574712067 0.9515020245275911
vn 0.06232172903303935 0.5644190912426841 0.8231324872285842
vn 0.12337229587848327 0.7496229749572332 0.6502650782764975
vn -0.11128460175729737 0.2867736045284475 0.9515128150253581
vn 0.03539409076361923 0.4652095100367862 0.8844927190827238
vn -0.34078729074057634 -0.02115090942531554 0.9399024744622072
vn -0.17203889770436973 0.17516329766267855 0.969391787064756
vn 0.12092189967038566 0.5421617985221509 0.8315277977333844
vn 0.2394412906041252 0.705672572308823 0.6668538738321012
vn -0.090263072829818 0.26174500820591073 0.9609069301251848
vn 0.06340872255281753 0.4542464182878342 0.8886166357754586
vn 0.048755231155654936 0.46188451094814015 0.8855990209915299
vn 0.03266725074742895 0.46587691065929554 0.8842463202316169
vn 0.029915510521880573 0.46654670813897714 0.8839905154213474
vn -0.2394412999412804 -0.09232845997735796 0.9665108997629769
vn -0.12092189708724727 0.13915799664797798 0.9828595763249918
vn 0.17203888840785322 0.5061911658923491 0.845087643057177
vn 0.3407873125571931 0.6345736233825121 0.6936716255601317
vn -0.06340872292483399 0.2429202112051031 0.9679716446493202
vn 0.09026306651454252 0.4354243831863324 0.8956886654134868
vn -0.12337230118876492 -0.1363348013136665 0.98295070947131
vn -0.06232172913987186 0.11687599838694544 0.9911891863201853
vn 0.2119852057668435 0.4584413124714329 0.8630723234790113
vn 0.4200779069294099 0.5400824089089482 0.7292774120298212
vn -0.03266724921132046 0.23128779441605998 0.9723367765250474
vn 0.11128460070493176 0.4103987025996684 0.9050904057332908
vn 0 -0.15120199787467398 0.9885028861054009
vn 0 0.10934419419985683 0.9940039472732409
vn 0.23749999386355838 0.40193128961503993 0.8843330771509119
vn 0.4707752966076426 0.428139296914873 0.7714060944413288
vn 0 0.2273590024325138 0.9738110104188042
vn 0.12473189751219364 0.38074069240603914 0.9162305817255706
vn 0.06232172913987186 0.11687599838694544 0.9911891863201853
vn 0.12337230118876492 -0.1363348013136665 0.98295070947131
vn 0.4882386178170578 0.3067940111956866 0.817007029814646
vn 0.2462835022565701 0.34071340312178294 0.9073361083134581
vn 0.03266724921132046 0.23128779441605998 0.9723367765250474
vn 0.12936530111841413 0.3485876030136773 0.9283056080255687
vn 0.12092189708724727 0.13915799664797798 0.9828595763249918
vn 0.2394412999412804 -0.09232845997735796 0.9665108997629769
vn 0.47077531056113336 0.1854258041597478 0.862547319349947
vn 0.23750000849905548 0.2794855100015272 0.9303126332916987
vn 0.06340872292483399 0.2429202112051031 0.9679716446493202
vn 0.12473190425045115 0.3164338107830184 0.9403784320449897
vn 0.17203889770436973 0.17516329766267855 0.969391787064756
vn 0.34078729074057634 -0.02115090942531554 0.9399024744622072
vn 0.420077914330248 0.07342154250465162 0.9045130308559332
vn 0.21198520546450383 0.22294880574712067 0.9515020245275911
vn 0.090263072829818 0.26174500820591073 0.9609069301251848
vn 0.11128460175729737 0.2867736045284475 0.9515128150253581
usemtl material_0_0
f 1//1 2//2 3//3
f 2//2 1//1 4//4
f 4//4 5//5 2//2
f 5//5 4//4 6//6
f 3//3 7//7 8//8
f 7//7 3//3 2//2
f 9//9 4//4 1//1
f 4//4 9//9 10//10
f 2//2 11//11 7//7
f 11//11 2//2 5//5
f 10//10 6//6 4//4
f 6//6 10//10 12//12
f 13//13 7//7 14//14
f 7//7 13//13 8//8
f 15//15 10//10 9//9
f 10//10 15//15 16//16
f 14//14 11//11 17//17
f 11//11 14//14 7//7
f 16//16 12//12 10//10
f 12//12 16//16 18//18
f 18//18 16//16 19//19
f 20//20 14//14 21//21
f 14//14 20//20 13//13
f 22//22 16//16 15//15
f 16//16 22//22 23//23
f 21//21 17//17 24//24
f 17//17 21//21 14//14
f 23//23 19//19 16//16
f 19//19 23//23 25//25
f 26//26 27//18 28//27
f 29//28 21//21 30//29
f 21//21 29//28 20//20
f 31//30 22//22 32//31
f 22//22 31//30 23//23
f 30//29 24//24 33//32
f 24//24 30//29 21//21
f 34//33 23//23 31//30
f 23//23 34//33 25//25
f 35//25 26//26 28//27
f 26//26 35//25 36//25
f 37//34 30//29 38//35
f 30//29 37//34 29//28
f 39//36 32//31 40//37
f 32//31 39//36 31//30
f 38//35 33//32 41//38
f 33//32 38//35 30//29
f 42//39 31//30 39//36
f 31//30 42//39 43//40
f 31//30 43//40 34//33
f 44//41 35//25 45//42
f 35//25 44//41 36//25
f 46//43 38//35 47//44
f 38//35 46//43 37//34
f 48//45 40//37 49//46
f 40//37 48//45 39//36
f 47//44 41//38 50//47
f 41//38 47//44 38//35
f 44//41 45//42 51//40
f 52//48 39//36 48//45
f 39//36 52//48 42//39
f 53//49 47//44 54//50
f 47//44 53//49 46//43
f 55//51 49//46 56//52
f 49//46 55//51 48//45
f 54//50 50//47 57//53
f 50//47 54//50 47//44
f 58//54 48//45 55//51
f 48//45 58//54 52//48
f 59//55 54//50 60//56
f 54//50 59//55 53//49
f 61//57 56//52 62//58
f 56//52 61//57 55//51
f 60//56 57//53 63//59
f 57//53 60//56 54//50
f 64//60 55//51 61//57
f 55//51 64//60 58//54
f 65//61 59//55 60//56
f 59//55 65//61 66//62
f 61//57 67//63 68//64
f 67//63 61//57 62//58
f 69//65 60//56 63//59
f 60//56 69//65 65//61
f 64//60 68//64 70//66
f 68//64 64//60 61//57
f 71//67 66//62 65//61
f 66//62 71//67 72//68
f 68//64 73//69 74//70
f 73//69 68//64 67//63
f 75//71 65//61 69//65
f 65//61 75//71 71//67
f 70//66 74//70 76//72
f 74//70 70//66 68//64
f 77//73 72//68 71//67
f 72//68 77//73 78//74
f 74//70 79//75 80//76
f 79//75 74//70 73//69
f 81//77 71//67 75//71
f 71//67 81//77 77//73
f 76//72 80//76 82//78
f 80//76 76//72 74//70
f 80//76 78//74 77//73
f 78//74 80//76 79//75
f 82//78 77//73 81//77
f 77//73 82//78 80//76
