# SSTK version 0.8.0
# 53
mtllib original-53.mtl
o #ID420
v -0.007794 0.492724 0.450605
v 0.002046 0.492724 0.450605
v -0.002874 0.492442 0.450710
v 0.006891 0.493567 0.450288
v -0.012638 0.493567 0.450288
v -0.017333 0.494957 0.449766
v 0.011585 0.494957 0.449766
v 0.016057 0.496875 0.449046
v -0.021804 0.496875 0.449046
v 0.020236 0.499293 0.448138
v -0.025983 0.499293 0.448138
v -0.029804 0.502174 0.447056
v 0.024057 0.502174 0.447056
v 0.027459 0.505476 0.445816
v -0.033206 0.505476 0.445816
v 0.030386 0.509149 0.444436
v -0.036133 0.509149 0.444436
v 0.032790 0.513135 0.442940
v -0.038538 0.513135 0.442940
v 0.034631 0.517373 0.441349
v -0.040378 0.517373 0.441349
v -0.041624 0.521795 0.439688
v 0.035876 0.521795 0.439688
v 0.036504 0.526328 0.437985
v -0.042252 0.526328 0.437985
v -0.042252 0.530899 0.436269
v 0.036504 0.530899 0.436269
v 0.035876 0.535432 0.434567
v -0.041624 0.535432 0.434567
v -0.040378 0.539854 0.432907
v 0.034631 0.539854 0.432907
v 0.032790 0.544092 0.431316
v -0.038538 0.544092 0.431316
v -0.036133 0.548078 0.429818
v 0.030386 0.548078 0.429818
v -0.033206 0.551751 0.428440
v 0.027459 0.551751 0.428440
v 0.024057 0.555053 0.427199
v -0.029804 0.555053 0.427199
v -0.025983 0.557934 0.426118
v 0.020236 0.557934 0.426118
v 0.016057 0.560351 0.425210
v -0.021804 0.560351 0.425210
v -0.017333 0.562270 0.424490
v 0.011585 0.562270 0.424490
v 0.006891 0.563661 0.423967
v -0.012638 0.563661 0.423967
v -0.007794 0.564503 0.423651
v 0.002046 0.564503 0.423651
v -0.002874 0.564785 0.423545
v -0.021979 0.560674 0.425140
v -0.017333 0.562270 0.424490
v -0.021804 0.560351 0.425210
v -0.017466 0.562610 0.424414
v -0.012638 0.563661 0.423967
v -0.012728 0.564013 0.423887
v -0.007794 0.564503 0.423651
v -0.007839 0.564863 0.423567
v -0.002874 0.564785 0.423545
v -0.002874 0.565148 0.423460
v 0.002091 0.564863 0.423567
v 0.002046 0.564503 0.423651
v 0.006980 0.564013 0.423887
v 0.006891 0.563661 0.423967
v 0.011718 0.562610 0.424414
v 0.011585 0.562270 0.424490
v 0.016231 0.560674 0.425140
v 0.016057 0.560351 0.425210
v 0.020449 0.558235 0.426057
v 0.020236 0.557934 0.426118
v 0.024306 0.555326 0.427150
v 0.024057 0.555053 0.427199
v 0.027740 0.551992 0.428401
v 0.027459 0.551751 0.428440
v 0.030696 0.548284 0.429793
v 0.030386 0.548078 0.429818
v 0.033123 0.544259 0.431304
v 0.032790 0.544092 0.431316
v 0.034981 0.539981 0.432912
v 0.034631 0.539854 0.432907
v 0.036239 0.535516 0.434588
v 0.035876 0.535432 0.434567
v 0.036873 0.530938 0.436307
v 0.036504 0.530899 0.436269
v 0.036504 0.526328 0.437985
v 0.036873 0.526323 0.438040
v 0.035876 0.521795 0.439688
v 0.036239 0.521745 0.439758
v 0.034631 0.517373 0.441349
v 0.034981 0.517281 0.441435
v 0.032790 0.513135 0.442940
v 0.033123 0.513002 0.443042
v 0.030386 0.509149 0.444436
v 0.030696 0.508977 0.444554
v 0.027459 0.505476 0.445816
v 0.027740 0.505269 0.445945
v 0.024057 0.502174 0.447056
v 0.024306 0.501936 0.447198
v 0.020236 0.499293 0.448138
v 0.020449 0.499027 0.448289
v 0.016057 0.496875 0.449046
v 0.016231 0.496587 0.449206
v 0.011585 0.494957 0.449766
v 0.011718 0.494651 0.449933
v 0.006891 0.493567 0.450288
v 0.006980 0.493248 0.450460
v 0.002046 0.492724 0.450605
v 0.002091 0.492398 0.450779
v -0.002874 0.492442 0.450710
v -0.002874 0.492113 0.450886
v -0.007839 0.492398 0.450779
v -0.007794 0.492724 0.450605
v -0.012728 0.493248 0.450460
v -0.012638 0.493567 0.450288
v -0.017466 0.494651 0.449933
v -0.017333 0.494957 0.449766
v -0.021979 0.496587 0.449206
v -0.021804 0.496875 0.449046
v -0.026197 0.499027 0.448289
v -0.025983 0.499293 0.448138
v -0.030054 0.501936 0.447198
v -0.029804 0.502174 0.447056
v -0.033488 0.505269 0.445945
v -0.033206 0.505476 0.445816
v -0.036443 0.508977 0.444554
v -0.036133 0.509149 0.444436
v -0.038870 0.513002 0.443042
v -0.038538 0.513135 0.442940
v -0.040729 0.517281 0.441435
v -0.040378 0.517373 0.441349
v -0.041987 0.521745 0.439758
v -0.041624 0.521795 0.439688
v -0.042621 0.526323 0.438040
v -0.042252 0.526328 0.437985
v -0.042621 0.530938 0.436307
v -0.042252 0.530899 0.436269
v -0.041624 0.535432 0.434567
v -0.041987 0.535516 0.434588
v -0.040378 0.539854 0.432907
v -0.040729 0.539981 0.432912
v -0.038538 0.544092 0.431316
v -0.038870 0.544259 0.431304
v -0.036133 0.548078 0.429818
v -0.036443 0.548284 0.429793
v -0.033206 0.551751 0.428440
v -0.033488 0.551992 0.428401
v -0.029804 0.555053 0.427199
v -0.030054 0.555326 0.427150
v -0.025983 0.557934 0.426118
v -0.026197 0.558235 0.426057
v -0.022141 0.561008 0.425167
v -0.017590 0.562961 0.424434
v -0.012812 0.564377 0.423903
v -0.007881 0.565234 0.423581
v -0.002874 0.565521 0.423473
v 0.002134 0.565234 0.423581
v 0.007064 0.564377 0.423903
v 0.011842 0.562961 0.424434
v 0.016394 0.561008 0.425167
v 0.020648 0.558547 0.426091
v 0.024539 0.555613 0.427193
v 0.028003 0.552251 0.428456
v 0.030984 0.548511 0.429860
v 0.033433 0.544450 0.431385
v 0.035308 0.540133 0.433006
v 0.036577 0.535628 0.434698
v 0.037217 0.531009 0.436432
v 0.037217 0.526352 0.438181
v 0.036577 0.521733 0.439915
v 0.035308 0.517229 0.441607
v 0.033433 0.512911 0.443228
v 0.030984 0.508851 0.444753
v 0.028003 0.505110 0.446158
v 0.024539 0.501748 0.447420
v 0.020648 0.498814 0.448522
v 0.016394 0.496353 0.449446
v 0.011842 0.494400 0.450179
v 0.007064 0.492985 0.450710
v 0.002134 0.492128 0.451032
v -0.002874 0.491841 0.451140
v -0.007881 0.492128 0.451032
v -0.012812 0.492985 0.450710
v -0.017590 0.494400 0.450179
v -0.022141 0.496353 0.449446
v -0.026396 0.498814 0.448522
v -0.030286 0.501748 0.447420
v -0.033750 0.505110 0.446158
v -0.036732 0.508851 0.444753
v -0.039181 0.512911 0.443228
v -0.041056 0.517229 0.441607
v -0.042325 0.521733 0.439915
v -0.042965 0.526352 0.438181
v -0.042965 0.531009 0.436432
v -0.042325 0.535628 0.434698
v -0.041056 0.540133 0.433006
v -0.039181 0.544450 0.431385
v -0.036732 0.548511 0.429860
v -0.033750 0.552251 0.428456
v -0.030286 0.555613 0.427193
v -0.026396 0.558547 0.426091
v -0.022281 0.561333 0.425287
v -0.017696 0.563299 0.424549
v -0.012883 0.564724 0.424014
v -0.007917 0.565588 0.423689
v -0.002874 0.565877 0.423581
v 0.002170 0.565588 0.423689
v 0.007136 0.564724 0.424014
v 0.011949 0.563299 0.424549
v 0.016533 0.561333 0.425287
v 0.020819 0.558852 0.426219
v 0.024738 0.555898 0.427328
v 0.028228 0.552510 0.428600
v 0.031232 0.548741 0.430016
v 0.033700 0.544650 0.431551
v 0.035589 0.540300 0.433185
v 0.036867 0.535761 0.434890
v 0.037513 0.531107 0.436637
v 0.037513 0.526414 0.438399
v 0.036867 0.521760 0.440147
v 0.035589 0.517221 0.441852
v 0.033700 0.512871 0.443485
v 0.031232 0.508779 0.445022
v 0.028228 0.505011 0.446436
v 0.024738 0.501623 0.447708
v 0.020819 0.498668 0.448819
v 0.016533 0.496188 0.449749
v 0.011949 0.494222 0.450488
v 0.007136 0.492796 0.451024
v 0.002170 0.491933 0.451347
v -0.002874 0.491643 0.451456
v -0.007917 0.491933 0.451347
v -0.012883 0.492796 0.451024
v -0.017696 0.494222 0.450488
v -0.022281 0.496188 0.449749
v -0.026567 0.498668 0.448819
v -0.030486 0.501623 0.447708
v -0.033976 0.505011 0.446436
v -0.036979 0.508779 0.445022
v -0.039447 0.512871 0.443485
v -0.041336 0.517221 0.441852
v -0.042615 0.521760 0.440147
v -0.043260 0.526414 0.438399
v -0.043260 0.531107 0.436637
v -0.042615 0.535761 0.434890
v -0.041336 0.540300 0.433185
v -0.039447 0.544650 0.431551
v -0.036979 0.548741 0.430016
v -0.033976 0.552510 0.428600
v -0.030486 0.555898 0.427328
v -0.026567 0.558852 0.426219
vt 1.225619 11.33722
vt 1.243705 11.33722
vt 1.234662 11.33546
vt 1.252609 11.34247
vt 1.216714 11.34247
vt 1.208086 11.35114
vt 1.261237 11.35114
vt 1.269456 11.36309
vt 1.199867 11.36309
vt 1.277137 11.37816
vt 1.192186 11.37816
vt 1.185163 11.39612
vt 1.28416 11.39613
vt 1.290413 11.41671
vt 1.178911 11.4167
vt 1.295793 11.4396
vt 1.173531 11.4396
vt 1.300212 11.46445
vt 1.169112 11.46444
vt 1.303595 11.49087
vt 1.165728 11.49086
vt 1.163439 11.51842
vt 1.305885 11.51843
vt 1.307039 11.54669
vt 1.162285 11.54668
vt 1.162285 11.57517
vt 1.307039 11.57518
vt 1.305885 11.60344
vt 1.163439 11.60343
vt 1.165729 11.63099
vt 1.303596 11.631
vt 1.300212 11.65742
vt 1.169112 11.65741
vt 1.173531 11.68226
vt 1.295793 11.68227
vt 1.178911 11.70515
vt 1.290413 11.70516
vt 1.284161 11.72574
vt 1.185164 11.72574
vt 1.192187 11.7437
vt 1.277138 11.7437
vt 1.269457 11.75877
vt 1.199868 11.75877
vt 1.208087 11.77072
vt 1.261238 11.77073
vt 1.25261 11.77939
vt 1.216715 11.77939
vt 1.225619 11.78464
vt 1.243705 11.78464
vt 1.234662 11.7864
vt 1.199547 11.76067
vt 1.207842 11.77274
vt 1.21655 11.78148
vt 1.225536 11.78678
vt 1.234662 11.78856
vt 1.243788 11.78678
vt 1.252774 11.78148
vt 1.261482 11.77274
vt 1.269777 11.76067
vt 1.27753 11.74546
vt 1.284619 11.72733
vt 1.290931 11.70655
vt 1.296363 11.68344
vt 1.300824 11.65835
vt 1.30424 11.63168
vt 1.306552 11.60385
vt 1.307718 11.57532
vt 1.307717 11.54655
vt 1.306551 11.51801
vt 1.30424 11.49019
vt 1.300824 11.46351
vt 1.296362 11.43842
vt 1.29093 11.41531
vt 1.284619 11.39453
vt 1.27753 11.3764
vt 1.269777 11.36119
vt 1.261482 11.34913
vt 1.252774 11.34038
vt 1.243788 11.33508
vt 1.234662 11.3333
vt 1.225536 11.33508
vt 1.21655 11.34038
vt 1.207842 11.34912
vt 1.199547 11.36119
vt 1.191794 11.3764
vt 1.184705 11.39453
vt 1.178393 11.41531
vt 1.172961 11.43842
vt 1.1685 11.46351
vt 1.165084 11.49018
vt 1.162772 11.51801
vt 1.161606 11.54654
vt 1.161606 11.57531
vt 1.162773 11.60385
vt 1.165084 11.63168
vt 1.1685 11.65835
vt 1.172962 11.68344
vt 1.178393 11.70655
vt 1.184705 11.72733
vt 1.191794 11.74546
vt 1.199248 11.76244
vt 1.207615 11.77461
vt 1.216397 11.78343
vt 1.225459 11.78878
vt 1.234662 11.79057
vt 1.243866 11.78878
vt 1.252928 11.78343
vt 1.26171 11.77461
vt 1.270076 11.76244
vt 1.277896 11.7471
vt 1.285047 11.72882
vt 1.291414 11.70786
vt 1.296893 11.68454
vt 1.301394 11.65923
vt 1.304841 11.63232
vt 1.307173 11.60424
vt 1.308349 11.57545
vt 1.308349 11.54642
vt 1.307173 11.51763
vt 1.304841 11.48955
vt 1.301394 11.46264
vt 1.296893 11.43733
vt 1.291413 11.41401
vt 1.285046 11.39305
vt 1.277895 11.37476
vt 1.270075 11.35942
vt 1.261709 11.34725
vt 1.252927 11.33843
vt 1.243865 11.33308
vt 1.234662 11.33129
vt 1.225458 11.33308
vt 1.216396 11.33843
vt 1.207614 11.34725
vt 1.199248 11.35942
vt 1.191428 11.37476
vt 1.184277 11.39304
vt 1.17791 11.414
vt 1.172431 11.43732
vt 1.16793 11.46263
vt 1.164483 11.48954
vt 1.162151 11.51762
vt 1.160975 11.54641
vt 1.160975 11.57544
vt 1.162151 11.60423
vt 1.164483 11.63231
vt 1.16793 11.65922
vt 1.172431 11.68453
vt 1.177911 11.70785
vt 1.184278 11.72881
vt 1.191429 11.7471
vt 1.198992 11.76396
vt 1.207419 11.77622
vt 1.216265 11.78511
vt 1.225393 11.79049
vt 1.234662 11.79229
vt 1.243932 11.79049
vt 1.25306 11.78511
vt 1.261906 11.77622
vt 1.270333 11.76397
vt 1.27821 11.74851
vt 1.285414 11.73009
vt 1.291828 11.70897
vt 1.297349 11.68548
vt 1.301884 11.65998
vt 1.305357 11.63287
vt 1.307707 11.60457
vt 1.308892 11.57556
vt 1.308892 11.54631
vt 1.307706 11.5173
vt 1.305356 11.489
vt 1.301884 11.46189
vt 1.297348 11.43638
vt 1.291827 11.41289
vt 1.285413 11.39178
vt 1.27821 11.37335
vt 1.270332 11.3579
vt 1.261905 11.34564
vt 1.253059 11.33675
vt 1.243931 11.33137
vt 1.234662 11.32957
vt 1.225392 11.33137
vt 1.216264 11.33675
vt 1.207418 11.34564
vt 1.198991 11.35789
vt 1.191114 11.37335
vt 1.18391 11.39177
vt 1.177496 11.41289
vt 1.171975 11.43638
vt 1.16744 11.46188
vt 1.163967 11.489
vt 1.161617 11.51729
vt 1.160432 11.5463
vt 1.160432 11.57555
vt 1.161618 11.60456
vt 1.163967 11.63286
vt 1.16744 11.65997
vt 1.171976 11.68548
vt 1.177496 11.70897
vt 1.183911 11.73008
vt 1.191114 11.74851
vn 0 -0.3515416202868696 -0.9361722540249108
vn -0.1242109008331614 -0.12196440081809247 -0.9847316066052203
vn -0.0468722488390074 -0.23474529418552412 -0.9709261759508422
vn -0.0614934692597499 -0.241022197098607 -0.9685694883404908
vn -0.09466864456991025 -0.10930910527664447 -0.9894894477653187
vn -0.03160505057436361 -0.23021970418381904 -0.9726253176756744
vn -0.06382875308044647 -0.10018710483514065 -0.9929191479193802
vn -0.015909299506521063 -0.2274881929437097 -0.9736508697990349
vn -0.03212859871737675 -0.09468221622013957 -0.994988960278505
vn 0 -0.22657500472808884 -0.973993720324965
vn 0 -0.09284212395810405 -0.9956808424484968
vn 0.03212859871737675 -0.09468221622013957 -0.994988960278505
vn 0.015909299506521063 -0.2274881929437097 -0.9736508697990349
vn 0.06382875308044647 -0.10018710483514065 -0.9929191479193802
vn 0.03160505057436361 -0.23021970418381904 -0.9726253176756744
vn 0.09466864456991025 -0.10930910527664447 -0.9894894477653187
vn 0.0468722488390074 -0.23474529418552412 -0.9709261759508422
vn 0.1242109008331614 -0.12196440081809247 -0.9847316066052203
vn 0.0614934692597499 -0.241022197098607 -0.9685694883404908
vn 0.1520127061366155 -0.13802640557200097 -0.9786934395089693
vn 0.07524908051857805 -0.2489863017158856 -0.9655793066542772
vn 0.1776288047809069 -0.15731870423425715 -0.9714416261465023
vn 0.08791888245542434 -0.2585486072208211 -0.9619890268667118
vn 0.20061900755414236 -0.17960710676295644 -0.9630645362633965
vn 0.09928569144505577 -0.2695917039237781 -0.9578427139409429
vn 0.22055890767788397 -0.20459340712210813 -0.9536746331984015
vn 0.10914069769463526 -0.28196659404405616 -0.9531962798657593
vn 0.23705469785168948 -0.23191169789829774 -0.9434097914503394
vn 0.1172907983090221 -0.2954916957399049 -0.9481178863310131
vn 0.24976059949419857 -0.2611296994711743 -0.9324327981116884
vn 0.12356649867144143 -0.3099526966674597 -0.9426879898644357
vn 0.2583969006362016 -0.29175440071833125 -0.9209291022674289
vn 0.12783109882469404 -0.32510609701090604 -0.9369979913850438
vn 0.26276600402011757 -0.3232445049453918 -0.9091023139085657
vn 0.12998830249967963 -0.3406852065513883 -0.9311480179060092
vn 0.12998830405734255 -0.35640781112460507 -0.9252440288797673
vn 0.2627660111701611 -0.3550271150921726 -0.897167638138521
vn 0.1278310927865773 -0.3719867790090357 -0.9193938481192229
vn 0.25839689504984553 -0.38651849259539744 -0.8853442830393049
vn 0.12356650230489773 -0.38714000722135916 -0.913703417043397
vn 0.249760590073604 -0.41714578342110625 -0.8738472652701254
vn 0.1172908002815161 -0.40160080096390394 -0.9082729021799959
vn 0.2370546912321211 -0.4463672834903317 -0.862879668084899
vn 0.10914070018934327 -0.41512560072018245 -0.9031938015669104
vn 0.22055890472184533 -0.47368991014101175 -0.8526263182534892
vn 0.09928569161830136 -0.4275003069680162 -0.8985465146458069
vn 0.20061900639747537 -0.49868101590227937 -0.8432492268901053
vn 0.08791888092183762 -0.43854300459816387 -0.8943994093778608
vn 0.177628804691358 -0.5209744137594656 -0.834885422050176
vn 0.07524908216661916 -0.4481050129021226 -0.8908083256487167
vn 0.15201270063160519 -0.5402716022448013 -0.8276465034388301
vn 0.061493469257693556 -0.4560688944946529 -0.8878173892828853
vn 0.12421089559232365 -0.5563379802581104 -0.8216201708444597
vn 0.04687225098707518 -0.4623455097364594 -0.8854601186467621
vn 0.09466863564923128 -0.5689969738501116 -0.816872262458292
vn 0.03160505098271859 -0.46687091451675294 -0.8837605274794018
vn 0.06382875031429876 -0.5781218028467258 -0.8134501040055047
vn 0.01590929943922632 -0.4696023834473754 -0.882734668885219
vn 0.032128598535334174 -0.5836284733937761 -0.8113849630109038
vn 0 -0.47051551224066335 -0.8823917229558006
vn 0 -0.5854691763597122 -0.8106946672654756
vn -0.032128598535334174 -0.5836284733937761 -0.8113849630109038
vn -0.01590929943922632 -0.4696023834473754 -0.882734668885219
vn -0.06382875031429876 -0.5781218028467258 -0.8134501040055047
vn -0.03160505098271859 -0.46687091451675294 -0.8837605274794018
vn -0.09466863564923128 -0.5689969738501116 -0.816872262458292
vn -0.04687225098707518 -0.4623455097364594 -0.8854601186467621
vn -0.12421089559232365 -0.5563379802581104 -0.8216201708444597
vn -0.061493469257693556 -0.4560688944946529 -0.8878173892828853
vn -0.15201270063160519 -0.5402716022448013 -0.8276465034388301
vn -0.07524908216661916 -0.4481050129021226 -0.8908083256487167
vn -0.177628804691358 -0.5209744137594656 -0.834885422050176
vn -0.08791888092183762 -0.43854300459816387 -0.8943994093778608
vn -0.20061900639747537 -0.49868101590227937 -0.8432492268901053
vn -0.09928569161830136 -0.4275003069680162 -0.8985465146458069
vn -0.22055890472184533 -0.47368991014101175 -0.8526263182534892
vn -0.10914070018934327 -0.41512560072018245 -0.9031938015669104
vn -0.2370546912321211 -0.4463672834903317 -0.862879668084899
vn -0.1172908002815161 -0.40160080096390394 -0.9082729021799959
vn -0.249760590073604 -0.41714578342110625 -0.8738472652701254
vn -0.12356650230489773 -0.38714000722135916 -0.913703417043397
vn -0.25839689504984553 -0.38651849259539744 -0.8853442830393049
vn -0.1278310927865773 -0.3719867790090357 -0.9193938481192229
vn -0.2627660111701611 -0.3550271150921726 -0.897167638138521
vn -0.12998830405734255 -0.35640781112460507 -0.9252440288797673
vn -0.26276600402011757 -0.3232445049453918 -0.9091023139085657
vn -0.12998830249967963 -0.3406852065513883 -0.9311480179060092
vn -0.12783109882469404 -0.32510609701090604 -0.9369979913850438
vn -0.2583969006362016 -0.29175440071833125 -0.9209291022674289
vn -0.12356649867144143 -0.3099526966674597 -0.9426879898644357
vn -0.24976059949419857 -0.2611296994711743 -0.9324327981116884
vn -0.1172907983090221 -0.2954916957399049 -0.9481178863310131
vn -0.23705469785168948 -0.23191169789829774 -0.9434097914503394
vn -0.10914069769463526 -0.28196659404405616 -0.9531962798657593
vn -0.22055890767788397 -0.20459340712210813 -0.9536746331984015
vn -0.09928569144505577 -0.2695917039237781 -0.9578427139409429
vn -0.20061900755414236 -0.17960710676295644 -0.9630645362633965
vn -0.08791888245542434 -0.2585486072208211 -0.9619890268667118
vn -0.1776288047809069 -0.15731870423425715 -0.9714416261465023
vn -0.07524908051857805 -0.2489863017158856 -0.9655793066542772
vn -0.1520127061366155 -0.13802640557200097 -0.9786934395089693
vn -0.2374887980674444 0.11145379909304938 -0.964975192147553
vn -0.18101360707998895 0.1356732053065891 -0.974077438099111
vn -0.12204999972353234 0.1531331996531229 -0.9806395977786551
vn -0.06143604776212187 0.16367079403810483 -0.9846001641348159
vn 0 0.16719330580781927 -0.9859241342481951
vn 0.06143604776212187 0.16367079403810483 -0.9846001641348159
vn 0.12204999972353234 0.1531331996531229 -0.9806395977786551
vn 0.18101360707998895 0.1356732053065891 -0.974077438099111
vn 0.2374887980674444 0.11145379909304938 -0.964975192147553
vn 0.2906281051170339 0.08071964142121563 -0.9534252167867769
vn 0.3395807932057113 0.04381144912342638 -0.939555981201485
vn 0.3835067142202566 0.0011800020437541508 -0.9235373342443495
vn 0.42159708757349906 -0.046602058626412216 -0.9055849733080401
vn 0.4531025933173326 -0.09883398854232844 -0.8859626869332154
vn 0.47736601953771096 -0.15468880633112742 -0.8649815354020992
vn 0.49385590849651195 -0.21322540366842244 -0.8429954145032599
vn 0.5021976080885329 -0.2734112044036359 -0.8203925132134676
vn 0.5021975914923786 -0.3341540943391672 -0.7975829864883183
vn 0.49385590029033294 -0.39434150023182923 -0.7749846004556058
vn 0.4773660131630004 -0.45288151248785896 -0.7530073207635974
vn 0.45310259331550207 -0.508740992494684 -0.7320386892004347
vn 0.4215970997342547 -0.5609786996463982 -0.7124315995509332
vn 0.3835067226842334 -0.6087671360082757 -0.6944963410791161
vn 0.3395808234078435 -0.6514052449023942 -0.6784954467697648
vn 0.2906281059087789 -0.6883199139942768 -0.6646435135129107
vn 0.23748880338754863 -0.7190600102566971 -0.6531093093159742
vn 0.18101359575148696 -0.7432844825546041 -0.6440203848844007
vn 0.12205000077490764 -0.7607482048300662 -0.6374684040473508
vn 0.061436050288821556 -0.7712882036259598 -0.6335141029782602
vn 0 -0.7748115136709525 -0.6321923111545468
vn -0.061436050288821556 -0.7712882036259598 -0.6335141029782602
vn -0.12205000077490764 -0.7607482048300662 -0.6374684040473508
vn -0.18101359575148696 -0.7432844825546041 -0.6440203848844007
vn -0.23748880338754863 -0.7190600102566971 -0.6531093093159742
vn -0.2906281059087789 -0.6883199139942768 -0.6646435135129107
vn -0.3395808234078435 -0.6514052449023942 -0.6784954467697648
vn -0.3835067226842334 -0.6087671360082757 -0.6944963410791161
vn -0.4215970997342547 -0.5609786996463982 -0.7124315995509332
vn -0.45310259331550207 -0.508740992494684 -0.7320386892004347
vn -0.4773660131630004 -0.45288151248785896 -0.7530073207635974
vn -0.49385590029033294 -0.39434150023182923 -0.7749846004556058
vn -0.5021975914923786 -0.3341540943391672 -0.7975829864883183
vn -0.5021976080885329 -0.2734112044036359 -0.8203925132134676
vn -0.49385590849651195 -0.21322540366842244 -0.8429954145032599
vn -0.47736601953771096 -0.15468880633112742 -0.8649815354020992
vn -0.4531025933173326 -0.09883398854232844 -0.8859626869332154
vn -0.42159708757349906 -0.046602058626412216 -0.9055849733080401
vn -0.3835067142202566 0.0011800020437541508 -0.9235373342443495
vn -0.3395807932057113 0.04381144912342638 -0.939555981201485
vn -0.2906281051170339 0.08071964142121563 -0.9534252167867769
vn -0.3550281889016965 0.3891206878359534 -0.8500235734279701
vn -0.2706093133732988 0.4253497210204478 -0.8636250426796682
vn -0.1824645018308835 0.451469604530132 -0.8734311087641736
vn -0.08046184710904482 0.34781798750306847 -0.9341030664381292
vn 0 0.3524352940233092 -0.9358361841298422
vn 0.09184796896792913 0.46723449474981216 -0.8793496901189845
vn 0.1824645018308835 0.451469604530132 -0.8734311087641736
vn 0.2706093133732988 0.4253497210204478 -0.8636250426796682
vn 0.3550281889016965 0.3891206878359534 -0.8500235734279701
vn 0.434453302072364 0.34315100163684764 -0.8327651039723312
vn 0.507613496621218 0.28795309808332387 -0.8120415945948805
vn 0.5732538201507035 0.22420350788107873 -0.7881071277031089
vn 0.630167699079533 0.15276059977686735 -0.7612836988880157
vn 0.6772379838780409 0.07467344822236467 -0.7319648825752422
vn 0.7134850852270639 -0.008821302817351958 -0.7006148854935454
vn 0.6465888736792234 -0.14588329406150977 -0.7487595695201475
vn 0.657503206774992 -0.22468460231517698 -0.7191706074104203
vn 0.7505781171001173 -0.2770588063121185 -0.599892413667106
vn 0.646588881309201 -0.38301248892834416 -0.6597152809297593
vn 0.625012569934768 -0.4596577778888961 -0.630931069650068
vn 0.6772379920336089 -0.5380013936714573 -0.5018995940961252
vn 0.630167707476354 -0.6160861073092887 -0.4725744056066561
vn 0.5732538123841915 -0.687526314852858 -0.44574390962955307
vn 0.5076135044808745 -0.7512732066317401 -0.42180220372338956
vn 0.4344533126781169 -0.8064686235341822 -0.40107191170398865
vn 0.35502820831194004 -0.8524359199572769 -0.3838072089857158
vn 0.2706092923108278 -0.8886630747492654 -0.3702006894810087
vn 0.18246449861079378 -0.914781493035247 -0.3603907972561397
vn 0.09184796989049332 -0.9305455988905473 -0.35446979957737995
vn 0 -0.9358153927626799 -0.35249049727394277
vn -0.09184796989049332 -0.9305455988905473 -0.35446979957737995
vn -0.18246449861079378 -0.914781493035247 -0.3603907972561397
vn -0.2706092923108278 -0.8886630747492654 -0.3702006894810087
vn -0.35502820831194004 -0.8524359199572769 -0.3838072089857158
vn -0.38059021251778546 -0.767983225259318 -0.515124116942667
vn -0.44467769170797516 -0.7196292865808785 -0.5332873900556463
vn -0.5732538123841915 -0.687526314852858 -0.44574390962955307
vn -0.5520313809467781 -0.601201179249695 -0.5777702800584067
vn -0.5932624252142943 -0.5327978226444832 -0.60346182564778
vn -0.7134851176869503 -0.45450861126704806 -0.5332550132191335
vn -0.7381176256738499 -0.3670139127657973 -0.5661123196910116
vn -0.7505781171001173 -0.2770588063121185 -0.599892413667106
vn -0.7505780807959385 -0.18627329523406821 -0.6339832837790973
vn -0.738117621592775 -0.09631751281765698 -0.6677614195345859
vn -0.7134850852270639 -0.008821302817351958 -0.7006148854935454
vn -0.6772379838780409 0.07467344822236467 -0.7319648825752422
vn -0.630167699079533 0.15276059977686735 -0.7612836988880157
vn -0.5732538201507035 0.22420350788107873 -0.7881071277031089
vn -0.507613496621218 0.28795309808332387 -0.8120415945948805
vn -0.434453302072364 0.34315100163684764 -0.8327651039723312
usemtl material_0_0
f 1/1/1 2/2/1 3/3/1
f 2/2/1 1/1/1 4/4/1
f 4/4/1 1/1/1 5/5/1
f 4/4/1 5/5/1 6/6/1
f 4/4/1 6/6/1 7/7/1
f 7/7/1 6/6/1 8/8/1
f 8/8/1 6/6/1 9/9/1
f 8/8/1 9/9/1 10/10/1
f 10/10/1 9/9/1 11/11/1
f 10/10/1 11/11/1 12/12/1
f 10/10/1 12/12/1 13/13/1
f 13/13/1 12/12/1 14/14/1
f 14/14/1 12/12/1 15/15/1
f 14/14/1 15/15/1 16/16/1
f 16/16/1 15/15/1 17/17/1
f 16/16/1 17/17/1 18/18/1
f 18/18/1 17/17/1 19/19/1
f 18/18/1 19/19/1 20/20/1
f 20/20/1 19/19/1 21/21/1
f 20/20/1 21/21/1 22/22/1
f 20/20/1 22/22/1 23/23/1
f 23/23/1 22/22/1 24/24/1
f 24/24/1 22/22/1 25/25/1
f 24/24/1 25/25/1 26/26/1
f 24/24/1 26/26/1 27/27/1
f 27/27/1 26/26/1 28/28/1
f 28/28/1 26/26/1 29/29/1
f 28/28/1 29/29/1 30/30/1
f 28/28/1 30/30/1 31/31/1
f 31/31/1 30/30/1 32/32/1
f 32/32/1 30/30/1 33/33/1
f 32/32/1 33/33/1 34/34/1
f 32/32/1 34/34/1 35/35/1
f 35/35/1 34/34/1 36/36/1
f 35/35/1 36/36/1 37/37/1
f 37/37/1 36/36/1 38/38/1
f 38/38/1 36/36/1 39/39/1
f 38/38/1 39/39/1 40/40/1
f 38/38/1 40/40/1 41/41/1
f 41/41/1 40/40/1 42/42/1
f 42/42/1 40/40/1 43/43/1
f 42/42/1 43/43/1 44/44/1
f 42/42/1 44/44/1 45/45/1
f 45/45/1 44/44/1 46/46/1
f 46/46/1 44/44/1 47/47/1
f 46/46/1 47/47/1 48/48/1
f 46/46/1 48/48/1 49/49/1
f 49/49/1 48/48/1 50/50/1
f 51/51/2 52/44/3 53/43/4
f 52/44/3 51/51/2 54/52/5
f 54/52/5 55/47/6 52/44/3
f 55/47/6 54/52/5 56/53/7
f 56/53/7 57/48/8 55/47/6
f 57/48/8 56/53/7 58/54/9
f 58/54/9 59/50/10 57/48/8
f 59/50/10 58/54/9 60/55/11
f 59/50/10 61/56/12 62/49/13
f 61/56/12 59/50/10 60/55/11
f 62/49/13 63/57/14 64/46/15
f 63/57/14 62/49/13 61/56/12
f 64/46/15 65/58/16 66/45/17
f 65/58/16 64/46/15 63/57/14
f 66/45/17 67/59/18 68/42/19
f 67/59/18 66/45/17 65/58/16
f 68/42/19 69/60/20 70/41/21
f 69/60/20 68/42/19 67/59/18
f 70/41/21 71/61/22 72/38/23
f 71/61/22 70/41/21 69/60/20
f 72/38/23 73/62/24 74/37/25
f 73/62/24 72/38/23 71/61/22
f 74/37/25 75/63/26 76/35/27
f 75/63/26 74/37/25 73/62/24
f 76/35/27 77/64/28 78/32/29
f 77/64/28 76/35/27 75/63/26
f 78/32/29 79/65/30 80/31/31
f 79/65/30 78/32/29 77/64/28
f 80/31/31 81/66/32 82/28/33
f 81/66/32 80/31/31 79/65/30
f 82/28/33 83/67/34 84/27/35
f 83/67/34 82/28/33 81/66/32
f 85/24/36 83/67/34 86/68/37
f 83/67/34 85/24/36 84/27/35
f 87/23/38 86/68/37 88/69/39
f 86/68/37 87/23/38 85/24/36
f 89/20/40 88/69/39 90/70/41
f 88/69/39 89/20/40 87/23/38
f 91/18/42 90/70/41 92/71/43
f 90/70/41 91/18/42 89/20/40
f 93/16/44 92/71/43 94/72/45
f 92/71/43 93/16/44 91/18/42
f 95/14/46 94/72/45 96/73/47
f 94/72/45 95/14/46 93/16/44
f 97/13/48 96/73/47 98/74/49
f 96/73/47 97/13/48 95/14/46
f 99/10/50 98/74/49 100/75/51
f 98/74/49 99/10/50 97/13/48
f 101/8/52 100/75/51 102/76/53
f 100/75/51 101/8/52 99/10/50
f 103/7/54 102/76/53 104/77/55
f 102/76/53 103/7/54 101/8/52
f 105/4/56 104/77/55 106/78/57
f 104/77/55 105/4/56 103/7/54
f 107/2/58 106/78/57 108/79/59
f 106/78/57 107/2/58 105/4/56
f 109/3/60 108/79/59 110/80/61
f 108/79/59 109/3/60 107/2/58
f 111/81/62 109/3/60 110/80/61
f 109/3/60 111/81/62 112/1/63
f 113/82/64 112/1/63 111/81/62
f 112/1/63 113/82/64 114/5/65
f 115/83/66 114/5/65 113/82/64
f 114/5/65 115/83/66 116/6/67
f 117/84/68 116/6/67 115/83/66
f 116/6/67 117/84/68 118/9/69
f 119/85/70 118/9/69 117/84/68
f 118/9/69 119/85/70 120/11/71
f 121/86/72 120/11/71 119/85/70
f 120/11/71 121/86/72 122/12/73
f 123/87/74 122/12/73 121/86/72
f 122/12/73 123/87/74 124/15/75
f 125/88/76 124/15/75 123/87/74
f 124/15/75 125/88/76 126/17/77
f 127/89/78 126/17/77 125/88/76
f 126/17/77 127/89/78 128/19/79
f 129/90/80 128/19/79 127/89/78
f 128/19/79 129/90/80 130/21/81
f 131/91/82 130/21/81 129/90/80
f 130/21/81 131/91/82 132/22/83
f 133/92/84 132/22/83 131/91/82
f 132/22/83 133/92/84 134/25/85
f 135/93/86 134/25/85 133/92/84
f 134/25/85 135/93/86 136/26/87
f 135/93/86 137/29/88 136/26/87
f 137/29/88 135/93/86 138/94/89
f 138/94/89 139/30/90 137/29/88
f 139/30/90 138/94/89 140/95/91
f 140/95/91 141/33/92 139/30/90
f 141/33/92 140/95/91 142/96/93
f 142/96/93 143/34/94 141/33/92
f 143/34/94 142/96/93 144/97/95
f 144/97/95 145/36/96 143/34/94
f 145/36/96 144/97/95 146/98/97
f 146/98/97 147/39/98 145/36/96
f 147/39/98 146/98/97 148/99/99
f 148/99/99 149/40/100 147/39/98
f 149/40/100 148/99/99 150/100/101
f 150/100/101 53/43/4 149/40/100
f 53/43/4 150/100/101 51/51/2
f 151/101/102 54/52/5 51/51/2
f 54/52/5 151/101/102 152/102/103
f 152/102/103 56/53/7 54/52/5
f 56/53/7 152/102/103 153/103/104
f 153/103/104 58/54/9 56/53/7
f 58/54/9 153/103/104 154/104/105
f 154/104/105 60/55/11 58/54/9
f 60/55/11 154/104/105 155/105/106
f 60/55/11 156/106/107 61/56/12
f 156/106/107 60/55/11 155/105/106
f 61/56/12 157/107/108 63/57/14
f 157/107/108 61/56/12 156/106/107
f 63/57/14 158/108/109 65/58/16
f 158/108/109 63/57/14 157/107/108
f 65/58/16 159/109/110 67/59/18
f 159/109/110 65/58/16 158/108/109
f 67/59/18 160/110/111 69/60/20
f 160/110/111 67/59/18 159/109/110
f 69/60/20 161/111/112 71/61/22
f 161/111/112 69/60/20 160/110/111
f 71/61/22 162/112/113 73/62/24
f 162/112/113 71/61/22 161/111/112
f 73/62/24 163/113/114 75/63/26
f 163/113/114 73/62/24 162/112/113
f 75/63/26 164/114/115 77/64/28
f 164/114/115 75/63/26 163/113/114
f 77/64/28 165/115/116 79/65/30
f 165/115/116 77/64/28 164/114/115
f 79/65/30 166/116/117 81/66/32
f 166/116/117 79/65/30 165/115/116
f 81/66/32 167/117/118 83/67/34
f 167/117/118 81/66/32 166/116/117
f 83/67/34 168/118/119 86/68/37
f 168/118/119 83/67/34 167/117/118
f 88/69/39 168/118/119 169/119/120
f 168/118/119 88/69/39 86/68/37
f 90/70/41 169/119/120 170/120/121
f 169/119/120 90/70/41 88/69/39
f 92/71/43 170/120/121 171/121/122
f 170/120/121 92/71/43 90/70/41
f 94/72/45 171/121/122 172/122/123
f 171/121/122 94/72/45 92/71/43
f 96/73/47 172/122/123 173/123/124
f 172/122/123 96/73/47 94/72/45
f 98/74/49 173/123/124 174/124/125
f 173/123/124 98/74/49 96/73/47
f 100/75/51 174/124/125 175/125/126
f 174/124/125 100/75/51 98/74/49
f 102/76/53 175/125/126 176/126/127
f 175/125/126 102/76/53 100/75/51
f 104/77/55 176/126/127 177/127/128
f 176/126/127 104/77/55 102/76/53
f 106/78/57 177/127/128 178/128/129
f 177/127/128 106/78/57 104/77/55
f 108/79/59 178/128/129 179/129/130
f 178/128/129 108/79/59 106/78/57
f 110/80/61 179/129/130 180/130/131
f 179/129/130 110/80/61 108/79/59
f 181/131/132 110/80/61 180/130/131
f 110/80/61 181/131/132 111/81/62
f 182/132/133 111/81/62 181/131/132
f 111/81/62 182/132/133 113/82/64
f 183/133/134 113/82/64 182/132/133
f 113/82/64 183/133/134 115/83/66
f 184/134/135 115/83/66 183/133/134
f 115/83/66 184/134/135 117/84/68
f 185/135/136 117/84/68 184/134/135
f 117/84/68 185/135/136 119/85/70
f 186/136/137 119/85/70 185/135/136
f 119/85/70 186/136/137 121/86/72
f 187/137/138 121/86/72 186/136/137
f 121/86/72 187/137/138 123/87/74
f 188/138/139 123/87/74 187/137/138
f 123/87/74 188/138/139 125/88/76
f 189/139/140 125/88/76 188/138/139
f 125/88/76 189/139/140 127/89/78
f 190/140/141 127/89/78 189/139/140
f 127/89/78 190/140/141 129/90/80
f 191/141/142 129/90/80 190/140/141
f 129/90/80 191/141/142 131/91/82
f 192/142/143 131/91/82 191/141/142
f 131/91/82 192/142/143 133/92/84
f 192/142/143 135/93/86 133/92/84
f 135/93/86 192/142/143 193/143/144
f 193/143/144 138/94/89 135/93/86
f 138/94/89 193/143/144 194/144/145
f 194/144/145 140/95/91 138/94/89
f 140/95/91 194/144/145 195/145/146
f 195/145/146 142/96/93 140/95/91
f 142/96/93 195/145/146 196/146/147
f 196/146/147 144/97/95 142/96/93
f 144/97/95 196/146/147 197/147/148
f 197/147/148 146/98/97 144/97/95
f 146/98/97 197/147/148 198/148/149
f 198/148/149 148/99/99 146/98/97
f 148/99/99 198/148/149 199/149/150
f 199/149/150 150/100/101 148/99/99
f 150/100/101 199/149/150 200/150/151
f 200/150/151 51/51/2 150/100/101
f 51/51/2 200/150/151 151/101/102
f 201/151/152 152/102/103 151/101/102
f 152/102/103 201/151/152 202/152/153
f 202/152/153 153/103/104 152/102/103
f 153/103/104 202/152/153 203/153/154
f 203/153/154 154/104/105 153/103/104
f 154/104/105 203/153/154 204/154/155
f 204/154/155 155/105/106 154/104/105
f 155/105/106 204/154/155 205/155/156
f 155/105/106 206/156/157 156/106/107
f 206/156/157 155/105/106 205/155/156
f 156/106/107 207/157/158 157/107/108
f 207/157/158 156/106/107 206/156/157
f 157/107/108 208/158/159 158/108/109
f 208/158/159 157/107/108 207/157/158
f 158/108/109 209/159/160 159/109/110
f 209/159/160 158/108/109 208/158/159
f 159/109/110 210/160/161 160/110/111
f 210/160/161 159/109/110 209/159/160
f 160/110/111 211/161/162 161/111/112
f 211/161/162 160/110/111 210/160/161
f 161/111/112 212/162/163 162/112/113
f 212/162/163 161/111/112 211/161/162
f 162/112/113 213/163/164 163/113/114
f 213/163/164 162/112/113 212/162/163
f 163/113/114 214/164/165 164/114/115
f 214/164/165 163/113/114 213/163/164
f 164/114/115 215/165/166 165/115/116
f 215/165/166 164/114/115 214/164/165
f 165/115/116 216/166/167 166/116/117
f 216/166/167 165/115/116 215/165/166
f 166/116/117 217/167/168 167/117/118
f 217/167/168 166/116/117 216/166/167
f 167/117/118 218/168/169 168/118/119
f 218/168/169 167/117/118 217/167/168
f 168/118/119 219/169/170 169/119/120
f 219/169/170 168/118/119 218/168/169
f 170/120/121 219/169/170 220/170/171
f 219/169/170 170/120/121 169/119/120
f 171/121/122 220/170/171 221/171/172
f 220/170/171 171/121/122 170/120/121
f 172/122/123 221/171/172 222/172/173
f 221/171/172 172/122/123 171/121/122
f 172/122/123 223/173/174 173/123/124
f 223/173/174 172/122/123 222/172/173
f 173/123/124 224/174/175 174/124/125
f 224/174/175 173/123/124 223/173/174
f 174/124/125 225/175/176 175/125/126
f 225/175/176 174/124/125 224/174/175
f 175/125/126 226/176/177 176/126/127
f 226/176/177 175/125/126 225/175/176
f 176/126/127 227/177/178 177/127/128
f 227/177/178 176/126/127 226/176/177
f 177/127/128 228/178/179 178/128/129
f 228/178/179 177/127/128 227/177/178
f 178/128/129 229/179/180 179/129/130
f 229/179/180 178/128/129 228/178/179
f 179/129/130 230/180/181 180/130/131
f 230/180/181 179/129/130 229/179/180
f 181/131/132 230/180/181 231/181/182
f 230/180/181 181/131/132 180/130/131
f 182/132/133 231/181/182 232/182/183
f 231/181/182 182/132/133 181/131/132
f 183/133/134 232/182/183 233/183/184
f 232/182/183 183/133/134 182/132/133
f 184/134/135 233/183/184 234/184/185
f 233/183/184 184/134/135 183/133/134
f 185/135/136 234/184/185 235/185/186
f 234/184/185 185/135/136 184/134/135
f 186/136/137 235/185/186 236/186/187
f 235/185/186 186/136/137 185/135/136
f 187/137/138 236/186/187 237/187/188
f 236/186/187 187/137/138 186/136/137
f 188/138/139 237/187/188 238/188/189
f 237/187/188 188/138/139 187/137/138
f 239/189/190 188/138/139 238/188/189
f 188/138/139 239/189/190 189/139/140
f 240/190/191 189/139/140 239/189/190
f 189/139/140 240/190/191 190/140/141
f 241/191/192 190/140/141 240/190/191
f 190/140/141 241/191/192 191/141/142
f 241/191/192 192/142/143 191/141/142
f 192/142/143 241/191/192 242/192/193
f 242/192/193 193/143/144 192/142/143
f 193/143/144 242/192/193 243/193/194
f 243/193/194 194/144/145 193/143/144
f 194/144/145 243/193/194 244/194/195
f 244/194/195 195/145/146 194/144/145
f 195/145/146 244/194/195 245/195/196
f 245/195/196 196/146/147 195/145/146
f 196/146/147 245/195/196 246/196/197
f 246/196/197 197/147/148 196/146/147
f 197/147/148 246/196/197 247/197/198
f 247/197/198 198/148/149 197/147/148
f 198/148/149 247/197/198 248/198/199
f 248/198/199 199/149/150 198/148/149
f 199/149/150 248/198/199 249/199/200
f 249/199/200 200/150/151 199/149/150
f 200/150/151 249/199/200 250/200/201
f 250/200/201 151/101/102 200/150/151
f 151/101/102 250/200/201 201/151/152
