# SSTK version 0.8.0
# 78
mtllib original-78.mtl
o #ID589
v 0.256046 -0.451987 0.429489
v 0.441311 -0.451987 0.532478
v 0.256046 -0.451987 0.532478
v 0.441311 -0.451987 0.429489
v 0.252429 -0.452224 0.429489
v 0.256046 -0.451987 0.532478
v 0.252429 -0.452224 0.532430
v 0.256046 -0.451987 0.429489
v 0.441311 -0.451987 0.429489
v 0.444928 -0.452224 0.532430
v 0.441311 -0.451987 0.532478
v 0.444928 -0.452224 0.429489
v 0.248874 -0.452931 0.429489
v 0.248874 -0.452931 0.532287
v 0.448483 -0.452931 0.532287
v 0.448483 -0.452931 0.429489
v 0.245442 -0.454096 0.429489
v 0.245442 -0.454096 0.532049
v 0.451915 -0.454096 0.532049
v 0.451915 -0.454096 0.429489
v 0.242191 -0.455699 0.429489
v 0.242191 -0.455699 0.531723
v 0.455166 -0.455699 0.531723
v 0.455166 -0.455699 0.429489
v 0.239177 -0.457713 0.531313
v 0.239177 -0.457713 0.429489
v 0.458180 -0.457713 0.531313
v 0.458180 -0.457713 0.429489
v 0.236452 -0.460103 0.429489
v 0.236452 -0.460103 0.530826
v 0.460905 -0.460103 0.530826
v 0.460905 -0.460103 0.429489
v 0.234062 -0.462828 0.530271
v 0.234062 -0.462828 0.429489
v 0.463295 -0.462828 0.530271
v 0.463295 -0.462828 0.429489
v 0.232048 -0.465841 0.529658
v 0.232048 -0.465841 0.429489
v 0.465308 -0.465841 0.529658
v 0.465308 -0.465841 0.429489
v 0.230445 -0.469092 0.528995
v 0.230445 -0.469092 0.429489
v 0.466911 -0.469092 0.528995
v 0.466911 -0.469092 0.429489
v 0.229280 -0.472524 0.528296
v 0.229280 -0.472524 0.429489
v 0.468077 -0.472524 0.528296
v 0.468077 -0.472524 0.429489
v 0.228801 -0.474932 0.527806
v 0.228573 -0.476079 0.527503
v 0.228573 -0.476079 0.429489
v 0.468556 -0.474932 0.527806
v 0.468784 -0.476079 0.527503
v 0.468784 -0.476079 0.429489
v 0.228336 -0.479696 0.526548
v 0.228336 -0.479696 0.429489
v 0.469021 -0.479696 0.526548
v 0.469021 -0.479696 0.429489
v 0.228336 -0.527337 0.513962
v 0.228336 -0.479696 0.429489
v 0.228336 -0.479696 0.526548
v 0.228336 -0.564738 0.504081
v 0.228336 -0.575155 0.500678
v 0.228336 -0.575155 0.429489
v 0.469021 -0.479696 0.429489
v 0.469021 -0.527337 0.513962
v 0.469021 -0.479696 0.526548
v 0.469021 -0.564738 0.504081
v 0.469021 -0.575155 0.500678
v 0.469021 -0.575155 0.429489
v 0.228573 -0.578772 0.499497
v 0.228336 -0.575155 0.429489
v 0.228336 -0.575155 0.500678
v 0.228573 -0.578772 0.429489
v 0.469021 -0.575155 0.429489
v 0.468784 -0.578772 0.499497
v 0.469021 -0.575155 0.500678
v 0.468784 -0.578772 0.429489
v 0.229280 -0.582327 0.498336
v 0.229280 -0.582327 0.429489
v 0.468077 -0.582327 0.498336
v 0.468077 -0.582327 0.429489
v 0.230445 -0.585759 0.497216
v 0.230445 -0.585759 0.429489
v 0.466911 -0.585759 0.497216
v 0.466911 -0.585759 0.429489
v 0.232048 -0.589010 0.496153
v 0.232048 -0.589010 0.429489
v 0.465308 -0.589010 0.496153
v 0.465308 -0.589010 0.429489
v 0.234062 -0.592024 0.495169
v 0.234062 -0.592024 0.429489
v 0.463295 -0.592024 0.495169
v 0.463295 -0.592024 0.429489
v 0.236452 -0.594749 0.494279
v 0.236452 -0.594749 0.429489
v 0.460905 -0.594749 0.494279
v 0.460905 -0.594749 0.429489
v 0.239177 -0.597139 0.493498
v 0.239177 -0.597139 0.429489
v 0.458180 -0.597139 0.429489
v 0.458180 -0.597139 0.493498
v 0.242191 -0.599152 0.429489
v 0.242191 -0.599152 0.492840
v 0.455166 -0.599152 0.429489
v 0.455166 -0.599152 0.492840
v 0.245442 -0.600756 0.429489
v 0.245442 -0.600756 0.492317
v 0.451915 -0.600756 0.429489
v 0.451915 -0.600756 0.492317
v 0.248874 -0.601921 0.491936
v 0.248874 -0.601921 0.429489
v 0.448483 -0.601921 0.429489
v 0.448483 -0.601921 0.491936
v 0.252429 -0.602628 0.491706
v 0.252429 -0.602628 0.429489
v 0.444928 -0.602628 0.491706
v 0.444928 -0.602628 0.429489
v 0.256046 -0.602865 0.491629
v 0.256046 -0.602865 0.429489
v 0.441311 -0.602865 0.429489
v 0.441311 -0.602865 0.491629
v 0.256046 -0.602865 0.491629
v 0.441311 -0.602865 0.429489
v 0.256046 -0.602865 0.429489
v 0.441311 -0.602865 0.491629
vn 0 -1 0
vn 0.1305261948688555 -0.9914448610250887 0
vn 0.06540313151333016 -0.9978589230889555 0
vn 0.12941999571736235 -0.9915898671872951 0
vn -0.06540313151333016 -0.9978589230889555 0
vn -0.12941999571736235 -0.9915898671872951 0
vn -0.1305261948688555 -0.9914448610250887 0
vn 0.25881900959356163 -0.9659258358036645 0
vn 0.25668359717273165 -0.9664954893544341 0
vn -0.25668359717273165 -0.9664954893544341 0
vn -0.25881900959356163 -0.9659258358036645 0
vn 0.38268341623423263 -0.9238795391929066 0
vn 0.3796667145617793 -0.925123335482283 0
vn -0.3796667145617793 -0.925123335482283 0
vn -0.38268341623423263 -0.9238795391929066 0
vn 0.5000000016387101 -0.866025402838329 0
vn 0.4963102994617193 -0.8681451990584401 0
vn -0.4963102994617193 -0.8681451990584401 0
vn -0.5000000016387101 -0.866025402838329 0
vn 0.6046523853565257 -0.796489480710614 0
vn 0.608761430209528 -0.7933533393698233 0
vn -0.6046523853565257 -0.796489480710614 0
vn -0.608761430209528 -0.7933533393698233 0
vn 0.7071067811865476 -0.7071067811865476 0
vn 0.7028590989599022 -0.7113290989473683 0
vn -0.7028590989599022 -0.7113290989473683 0
vn -0.7071067811865476 -0.7071067811865476 0
vn 0.7892553006199088 -0.6140652004823083 0
vn 0.7933533393698233 -0.608761430209528 0
vn -0.7892553006199088 -0.6140652004823083 0
vn -0.7933533393698233 -0.608761430209528 0
vn 0.8623533726292623 -0.5063068839300299 0
vn 0.866025402838329 -0.5000000016387101 0
vn -0.8623533726292623 -0.5063068839300299 0
vn -0.866025402838329 -0.5000000016387101 0
vn 0.920879303530039 -0.38984780149441733 0
vn 0.9238795391929066 -0.38268341623423263 0
vn -0.920879303530039 -0.38984780149441733 0
vn -0.9238795391929066 -0.38268341623423263 0
vn 0.9637966958411546 -0.26663819884943885 0
vn 0.9659258358036645 -0.25881900959356163 0
vn -0.9637966958411546 -0.26663819884943885 0
vn -0.9659258358036645 -0.25881900959356163 0
vn 0.9807852853616915 -0.19509029708825978 0
vn 0.9899941661607476 -0.14110829517674003 0
vn 0.9914448610250887 -0.1305261948688555 0
vn -0.9807852853616915 -0.19509029708825978 0
vn -0.9899941661607476 -0.14110829517674003 0
vn -0.9914448610250887 -0.1305261948688555 0
vn 0.9978589230889555 -0.06540313151333016 0
vn -0.9978589230889555 -0.06540313151333016 0
vn 1 0 0
vn -1 0 0
vn 0.9930600980754447 0.11760799977207513 0
vn 0.9978589230889555 0.06540313151333016 0
vn 0.9914448610250887 0.1305261948688555 0
vn -0.9978589230889555 0.06540313151333016 0
vn -0.9930600980754447 0.11760799977207513 0
vn -0.9914448610250887 0.1305261948688555 0
vn 0.9691309113312242 0.2465467028826611 0
vn 0.9659258358036645 0.25881900959356163 0
vn -0.9691309113312242 0.2465467028826611 0
vn -0.9659258358036645 0.25881900959356163 0
vn 0.9284586828977076 0.37143569315812114 0
vn 0.9238795391929066 0.38268341623423263 0
vn -0.9284586828977076 0.37143569315812114 0
vn -0.9238795391929066 0.38268341623423263 0
vn 0.871671390488932 0.49009079465247235 0
vn 0.866025402838329 0.5000000016387101 0
vn -0.871671390488932 0.49009079465247235 0
vn -0.866025402838329 0.5000000016387101 0
vn 0.7996860185309003 0.6004184139133278 0
vn 0.7933533393698233 0.608761430209528 0
vn -0.7996860185309003 0.6004184139133278 0
vn -0.7933533393698233 0.608761430209528 0
vn 0.7136963862327969 0.7004551864882195 0
vn 0.7071067811865476 0.7071067811865476 0
vn -0.7136963862327969 0.7004551864882195 0
vn -0.7071067811865476 0.7071067811865476 0
vn 0.6151565112213006 0.7884050143815915 0
vn 0.608761430209528 0.7933533393698233 0
vn -0.608761430209528 0.7933533393698233 0
vn -0.6151565112213006 0.7884050143815915 0
vn 0.5000000016387101 0.866025402838329 0
vn 0.5057578818653787 0.8626754690676243 0
vn -0.5000000016387101 0.866025402838329 0
vn -0.5057578818653787 0.8626754690676243 0
vn 0.38268341623423263 0.9238795391929066 0
vn 0.3874013795825144 0.9219111514118724 0
vn -0.38268341623423263 0.9238795391929066 0
vn -0.3874013795825144 0.9219111514118724 0
vn 0.26216410198304857 0.965023307299581 0
vn 0.25881900959356163 0.9659258358036645 0
vn -0.25881900959356163 0.9659258358036645 0
vn -0.26216410198304857 0.965023307299581 0
vn 0.13226059718699174 0.991214978918166 0
vn 0.1305261948688555 0.9914448610250887 0
vn -0.13226059718699174 0.991214978918166 0
vn -0.1305261948688555 0.9914448610250887 0
vn 0.06540313151333016 0.9978589230889555 0
vn -0.06540313151333016 0.9978589230889555 0
vn 0 1 0
usemtl material_0_0
f 1//1 2//1 3//1
f 2//1 1//1 4//1
f 5//2 6//3 7//4
f 6//3 5//2 8//3
f 9//5 10//6 11//5
f 10//6 9//5 12//7
f 13//8 7//4 14//9
f 7//4 13//8 5//2
f 12//7 15//10 10//6
f 15//10 12//7 16//11
f 17//12 14//9 18//13
f 14//9 17//12 13//8
f 16//11 19//14 15//10
f 19//14 16//11 20//15
f 21//16 18//13 22//17
f 18//13 21//16 17//12
f 20//15 23//18 19//14
f 23//18 20//15 24//19
f 21//16 25//20 26//21
f 25//20 21//16 22//17
f 24//19 27//22 23//18
f 27//22 24//19 28//23
f 29//24 25//20 30//25
f 25//20 29//24 26//21
f 28//23 31//26 27//22
f 31//26 28//23 32//27
f 33//28 29//24 30//25
f 29//24 33//28 34//29
f 32//27 35//30 31//26
f 35//30 32//27 36//31
f 37//32 34//29 33//28
f 34//29 37//32 38//33
f 36//31 39//34 35//30
f 39//34 36//31 40//35
f 41//36 38//33 37//32
f 38//33 41//36 42//37
f 40//35 43//38 39//34
f 43//38 40//35 44//39
f 45//40 42//37 41//36
f 42//37 45//40 46//41
f 44//39 47//42 43//38
f 47//42 44//39 48//43
f 49//44 46//41 45//40
f 46//41 49//44 50//45
f 46//41 50//45 51//46
f 48//43 52//47 47//42
f 52//47 48//43 53//48
f 53//48 48//43 54//49
f 55//50 51//46 50//45
f 51//46 55//50 56//50
f 54//49 57//51 53//48
f 57//51 54//49 58//51
f 59//52 60//52 61//52
f 60//52 59//52 62//52
f 60//52 62//52 63//52
f 60//52 63//52 64//52
f 65//53 66//53 67//53
f 66//53 65//53 68//53
f 68//53 65//53 69//53
f 69//53 65//53 70//53
f 71//54 72//55 73//55
f 72//55 71//54 74//56
f 75//57 76//58 77//57
f 76//58 75//57 78//59
f 79//60 74//56 71//54
f 74//56 79//60 80//61
f 78//59 81//62 76//58
f 81//62 78//59 82//63
f 83//64 80//61 79//60
f 80//61 83//64 84//65
f 82//63 85//66 81//62
f 85//66 82//63 86//67
f 87//68 84//65 83//64
f 84//65 87//68 88//69
f 86//67 89//70 85//66
f 89//70 86//67 90//71
f 91//72 88//69 87//68
f 88//69 91//72 92//73
f 90//71 93//74 89//70
f 93//74 90//71 94//75
f 95//76 92//73 91//72
f 92//73 95//76 96//77
f 94//75 97//78 93//74
f 97//78 94//75 98//79
f 99//80 96//77 95//76
f 96//77 99//80 100//81
f 97//78 101//82 102//83
f 101//82 97//78 98//79
f 99//80 103//84 100//81
f 103//84 99//80 104//85
f 102//83 105//86 106//87
f 105//86 102//83 101//82
f 104//85 107//88 103//84
f 107//88 104//85 108//89
f 106//87 109//90 110//91
f 109//90 106//87 105//86
f 111//92 107//88 108//89
f 107//88 111//92 112//93
f 110//91 113//94 114//95
f 113//94 110//91 109//90
f 115//96 112//93 111//92
f 112//93 115//96 116//97
f 117//98 113//94 118//99
f 113//94 117//98 114//95
f 119//100 116//97 115//96
f 116//97 119//100 120//100
f 117//98 121//101 122//101
f 121//101 117//98 118//99
f 123//102 124//102 125//102
f 124//102 123//102 126//102
