# SSTK version 0.8.0
# 67
mtllib original-67.mtl
o #ID517
v -0.106259 0.491728 0.460840
v -0.107464 0.473584 0.467653
v -0.106259 0.473426 0.467712
v -0.109709 0.474514 0.467303
v -0.111637 0.475994 0.466748
v -0.113116 0.477922 0.466024
v -0.114047 0.480167 0.465181
v -0.114364 0.482577 0.464276
v -0.114047 0.484986 0.463371
v -0.113116 0.487232 0.462528
v -0.111637 0.489160 0.461804
v -0.109709 0.490639 0.461248
v -0.107464 0.491569 0.460899
vn 0 0.3515416202868696 0.9361722540249108
usemtl material_0_0
f 1//1 2//1 3//1
f 2//1 1//1 4//1
f 4//1 1//1 5//1
f 5//1 1//1 6//1
f 6//1 1//1 7//1
f 7//1 1//1 8//1
f 8//1 1//1 9//1
f 9//1 1//1 10//1
f 10//1 1//1 11//1
f 11//1 1//1 12//1
f 12//1 1//1 13//1
