# SSTK version 0.8.0
# 112
mtllib original-112.mtl
o #ID823
v 0.100332 0.501219 0.452058
v 0.094517 0.501762 0.451792
v 0.099079 0.501215 0.451997
v 0.100383 0.501433 0.452068
v 0.094517 0.502136 0.451804
v 0.094517 0.502136 0.451804
v 0.100383 0.501433 0.452068
v 0.094517 0.501762 0.451792
v 0.100332 0.501219 0.452058
v 0.099079 0.501215 0.451997
v 0.094517 0.501403 0.451684
v 0.096226 0.501199 0.451761
v 0.094517 0.501403 0.451684
v 0.096226 0.501199 0.451761
v 0.100477 0.501787 0.451986
v 0.094517 0.502501 0.451718
v 0.094517 0.502501 0.451718
v 0.100477 0.501787 0.451986
v 0.088703 0.501219 0.452058
v 0.089955 0.501215 0.451997
v 0.088651 0.501433 0.452068
v 0.088651 0.501433 0.452068
v 0.088703 0.501219 0.452058
v 0.089955 0.501215 0.451997
v 0.094517 0.501184 0.451549
v 0.094517 0.501184 0.451549
v 0.092808 0.501199 0.451761
v 0.092808 0.501199 0.451761
v 0.088557 0.501787 0.451986
v 0.088557 0.501787 0.451986
v 0.101958 0.501229 0.452196
v 0.100935 0.501225 0.452145
v 0.101958 0.501229 0.452196
v 0.100935 0.501225 0.452145
v 0.087076 0.501229 0.452196
v 0.088099 0.501225 0.452145
v 0.087076 0.501229 0.452196
v 0.088099 0.501225 0.452145
vt 6.858896 17.71012
vt 6.797648 17.71893
vt 6.845699 17.71006
vt 6.859441 17.7136
vt 6.797654 17.72502
vt 6.14868 8.320712
vt 6.100568 8.323903
vt 6.11856 8.320433
vt 6.100659 8.329973
vt 7.539287 25.74816
vt 7.476551 25.75397
vt 7.538314 25.74226
vt 7.476536 25.76006
vt 8.861838 17.75488
vt 8.80059 17.74607
vt 8.813787 17.746
vt 8.800045 17.74955
vt 8.861832 17.76096
vt 5.275322 -1.774537
vt 5.275154 -1.778719
vt 5.293278 -1.778436
vt 9.526363 8.882641
vt 9.478251 8.87945
vt 9.50837 8.879171
vt 9.526272 8.888711
vt 8.199195 25.66042
vt 8.136458 25.6546
vt 8.137431 25.6487
vt 8.19921 25.66651
vt 6.842374 26.04919
vt 6.825752 26.05261
vt 6.83159 26.04913
vt 6.826695 26.05852
vt 10.2929 -0.2809693
vt 10.27494 -0.2848689
vt 10.29307 -0.2851519
vt 8.832527 25.76727
vt 8.815904 25.76385
vt 8.826688 25.7638
vt 8.831583 25.77318
vn -0.048581439480524596 -0.030576889673045272 0.9983510893247537
vn 0 -0.15120199787467398 0.9885028861054009
vn -0.049836989066532805 -0.041222909227878274 0.9979062813088072
vn -0.037712740970776544 0.15393490396249074 0.9873610254159974
vn 0 0.10934419419985683 0.9940039472732409
vn 0 -0.4028938129048243 0.9152467293156598
vn -0.07851474076389985 -0.2980686029000233 0.9513099092556567
vn -0.03266724921132046 0.23128779441605998 0.9723367765250474
vn 0 0.2273590024325138 0.9738110104188042
vn 0.048581439480524596 -0.030576889673045272 0.9983510893247537
vn 0.049836989066532805 -0.041222909227878274 0.9979062813088072
vn 0.037712740970776544 0.15393490396249074 0.9873610254159974
vn 0 -0.5253725895613591 0.8508722830939974
vn 0.07851474076389985 -0.2980686029000233 0.9513099092556567
vn 0.03266724921132046 0.23128779441605998 0.9723367765250474
vn -0.04875523040954192 0.23518380197553398 0.9707273081540693
vn 0.04875523040954192 0.23518380197553398 0.9707273081540693
vn 0 -0.10934419419985683 -0.9940039472732409
vn 0.037712740970776544 -0.15393490396249074 -0.9873610254159974
vn 0 0.15120199787467398 -0.9885028861054009
vn 0.048581439480524596 0.030576889673045272 -0.9983510893247537
vn 0.049836989066532805 0.041222909227878274 -0.9979062813088072
vn 0 0.4028938129048243 -0.9152467293156598
vn 0.07851474076389985 0.2980686029000233 -0.9513099092556567
vn 0 -0.2273590024325138 -0.9738110104188042
vn 0.03266724921132046 -0.23128779441605998 -0.9723367765250474
vn -0.037712740970776544 -0.15393490396249074 -0.9873610254159974
vn -0.048581439480524596 0.030576889673045272 -0.9983510893247537
vn -0.049836989066532805 0.041222909227878274 -0.9979062813088072
vn 0 0.5253725895613591 -0.8508722830939974
vn -0.07851474076389985 0.2980686029000233 -0.9513099092556567
vn -0.03266724921132046 -0.23128779441605998 -0.9723367765250474
vn 0.04875523040954192 -0.23518380197553398 -0.9707273081540693
vn -0.04875523040954192 -0.23518380197553398 -0.9707273081540693
usemtl material_0_0
f 1/1/1 2/2/2 3/3/3
f 2/2/2 1/1/1 4/4/4
f 2/2/2 4/4/4 5/5/5
f 3/6/3 11/7/6 12/8/7
f 11/7/6 3/6/3 2/9/2
f 15/10/8 5/11/5 4/12/4
f 5/11/5 15/10/8 16/13/9
f 2/14/2 19/15/10 20/16/11
f 19/15/10 2/14/2 21/17/12
f 21/17/12 2/14/2 5/18/5
f 11/19/6 25/20/13 12/21/7
f 11/22/6 20/23/11 27/24/14
f 20/23/11 11/22/6 2/25/2
f 5/26/5 29/27/15 21/28/12
f 29/27/15 5/26/5 16/29/9
f 31/30/16 4/31/4 32/32/16
f 4/31/4 31/30/16 15/33/8
f 11/34/6 27/35/14 25/36/13
f 21/37/12 35/38/17 36/39/17
f 35/38/17 21/37/12 29/40/15
usemtl material_1_0
f 6//18 7//19 8//20
f 7//19 9//21 8//20
f 10//22 8//20 9//21
f 8//20 10//22 13//23
f 14//24 13//23 10//22
f 17//25 18//26 6//18
f 7//19 6//18 18//26
f 6//18 8//20 22//27
f 22//27 8//20 23//28
f 24//29 23//28 8//20
f 14//24 26//30 13//23
f 8//20 13//23 24//29
f 28//31 24//29 13//23
f 17//25 6//18 30//32
f 22//27 30//32 6//18
f 18//26 33//33 7//19
f 34//33 7//19 33//33
f 26//30 28//31 13//23
f 30//32 22//27 37//34
f 38//34 37//34 22//27
