# SSTK version 0.8.0
# 59
mtllib original-59.mtl
o #ID458
v -0.183483 0.529368 0.441629
v -0.183483 0.503592 0.450294
v -0.183483 0.503926 0.451183
v -0.183483 0.529034 0.440740
v -0.183483 0.529034 0.440740
v -0.183483 0.529368 0.441629
v -0.183483 0.503592 0.450294
v -0.183483 0.503926 0.451183
v -0.183483 0.529034 0.440740
v -0.378302 0.529368 0.441629
v -0.378302 0.529034 0.440740
v -0.183483 0.529368 0.441629
v -0.183483 0.529368 0.441629
v -0.183483 0.529034 0.440740
v -0.378302 0.529368 0.441629
v -0.378302 0.529034 0.440740
v -0.183483 0.529034 0.440740
v -0.183499 0.503564 0.450173
v -0.183483 0.503592 0.450294
v -0.183499 0.528976 0.440630
v -0.183499 0.528976 0.440630
v -0.183483 0.529034 0.440740
v -0.183499 0.503564 0.450173
v -0.183483 0.503592 0.450294
v -0.183483 0.503926 0.451183
v -0.378302 0.503592 0.450294
v -0.378302 0.503926 0.451183
v -0.183483 0.503592 0.450294
v -0.183483 0.503592 0.450294
v -0.183483 0.503926 0.451183
v -0.378302 0.503592 0.450294
v -0.378302 0.503926 0.451183
v -0.378302 0.503592 0.450294
v -0.378302 0.529368 0.441629
v -0.378302 0.503926 0.451183
v -0.378302 0.529034 0.440740
v -0.378302 0.529034 0.440740
v -0.378302 0.503592 0.450294
v -0.378302 0.529368 0.441629
v -0.378302 0.503926 0.451183
v -0.378286 0.528976 0.440630
v -0.378302 0.529034 0.440740
v -0.378286 0.528976 0.440630
v -0.378302 0.529034 0.440740
v -0.183546 0.503568 0.450049
v -0.183546 0.528891 0.440539
v -0.183546 0.528891 0.440539
v -0.183546 0.503568 0.450049
v -0.378286 0.503564 0.450173
v -0.378302 0.503592 0.450294
v -0.378286 0.503564 0.450173
v -0.378302 0.503592 0.450294
v -0.378238 0.528891 0.440539
v -0.378238 0.528891 0.440539
v -0.183622 0.503604 0.449930
v -0.183622 0.528786 0.440474
v -0.183622 0.528786 0.440474
v -0.183622 0.503604 0.449930
v -0.378238 0.503568 0.450049
v -0.378238 0.503568 0.450049
v -0.378163 0.528786 0.440474
v -0.378163 0.528786 0.440474
v -0.183720 0.503670 0.449824
v -0.183720 0.528667 0.440438
v -0.183720 0.528667 0.440438
v -0.183720 0.503670 0.449824
v -0.378163 0.503604 0.449930
v -0.378163 0.503604 0.449930
v -0.378065 0.528667 0.440438
v -0.378065 0.528667 0.440438
v -0.183835 0.503761 0.449740
v -0.183835 0.528543 0.440434
v -0.183835 0.528543 0.440434
v -0.183835 0.503761 0.449740
v -0.378065 0.503670 0.449824
v -0.378065 0.503670 0.449824
v -0.377950 0.528543 0.440434
v -0.377950 0.528543 0.440434
v -0.183958 0.503870 0.449682
v -0.183958 0.528422 0.440462
v -0.183958 0.528422 0.440462
v -0.183958 0.503870 0.449682
v -0.377950 0.503761 0.449740
v -0.377950 0.503761 0.449740
v -0.377827 0.528422 0.440462
v -0.377827 0.528422 0.440462
v -0.183958 0.503870 0.449682
v -0.377827 0.528422 0.440462
v -0.377827 0.503870 0.449682
v -0.183958 0.528422 0.440462
v -0.183958 0.528422 0.440462
v -0.183958 0.503870 0.449682
v -0.377827 0.528422 0.440462
v -0.377827 0.503870 0.449682
v -0.377827 0.503870 0.449682
v -0.377827 0.503870 0.449682
vt -6.794605 8.90426
vt -6.767758 8.755554
vt -6.765001 8.757482
vt -6.797362 8.902332
vt -6.797364 8.902335
vt -7.00683 9.95647
vt -7.009587 9.954543
vt -6.794607 8.904263
vt -6.768138 8.755393
vt -6.76776 8.755557
vt -6.797706 8.901996
vt -7.248657 11.15546
vt -7.039191 10.10132
vt -7.036434 10.10325
vt -7.251414 11.15353
vt -7.009929 9.954204
vt -6.797742 8.902171
vt -6.768549 8.755398
vt -6.798015 8.901488
vt -7.039569 10.10116
vt -7.251756 11.15319
vt -7.039533 10.10098
vt -7.009964 9.954378
vt -7.010237 9.953696
vt -6.798153 8.902176
vt -6.768991 8.755554
vt -6.798292 8.900829
vt -7.03998 10.10116
vt -7.252064 11.15268
vt -7.039841 10.10047
vt -7.010376 9.954383
vt -7.010515 9.953036
vt -6.798595 8.902332
vt -6.769458 8.755834
vt -6.798545 8.900046
vt -7.040422 10.10132
vt -7.252342 11.15202
vt -7.040119 10.09981
vt -7.010818 9.954539
vt -7.010768 9.952253
vt -6.799062 8.902612
vt -6.769943 8.756202
vt -6.79878 8.899175
vt -7.040889 10.1016
vt -7.252594 11.15124
vt -7.040372 10.09903
vt -7.011285 9.954819
vt -7.011003 9.951383
vt -6.799547 8.90298
vt 0.9360799 12.58018
vt 0.9356955 12.42817
vt 0.9360799 12.42746
vt 0.9356955 12.57947
vt -7.041374 10.10197
vt -7.252829 11.15037
vt -7.040607 10.09816
vt -7.01177 9.955187
vt 0.9360766 12.58019
vt 0.3349493 12.57947
vt 0.3345682 12.58019
vt 0.9356956 12.42817
vt 0.3349493 12.42817
vt 0.9356956 12.57947
vt 0.9360766 12.42746
vt 0.3345682 12.42746
vt 0.3345649 12.58018
vt 0.3345649 12.42746
vn -1 0 0
vn 0 -0.9361722540249108 0.3515416202868696
vn -0.6951606053681553 -0.5864442045286278 0.4157342032103742
vn -0.6684176021737067 0.7404427024079339 0.07044511022908902
vn -0.6951606289408525 0.7151360297724663 -0.07302163304002862
vn -0.6684175835289575 -0.511065187406411 0.5403982866835891
vn 0 0.9361722540249108 -0.3515416202868696
vn 1 0 0
vn 0.6684175835289575 -0.511065187406411 0.5403982866835891
vn 0.6951606053681553 -0.5864442045286278 0.4157342032103742
vn -0.5679292114881035 0.7411089149911919 0.35806980724305604
vn -0.5679292030593381 -0.3222501017359067 0.7573713040798303
vn 0.6684176021737067 0.7404427024079339 0.07044511022908902
vn 0.6951606289408525 0.7151360297724663 -0.07302163304002862
vn 0.5679292030593381 -0.3222501017359067 0.7573713040798303
vn -0.4371139956596503 0.6855405931928834 0.5822073942189369
vn -0.4371139952321136 -0.13288729855051207 0.8895348902972648
vn 0.5679292114881035 0.7411089149911919 0.35806980724305604
vn 0.4371139952321136 -0.13288729855051207 0.8895348902972648
vn -0.2995545997936698 0.5988728995875022 0.7427100994884288
vn -0.299554591912497 0.03800341897396723 0.9533219742618056
vn 0.4371139956596503 0.6855405931928834 0.5822073942189369
vn 0.299554591912497 0.03800341897396723 0.9533219742618056
vn -0.1646164922795838 0.49599207673826456 0.8525803600144851
vn -0.1646164982887506 0.18777319804802792 0.9683194899339608
vn 0.2995545997936698 0.5988728995875022 0.7427100994884288
vn 0.1646164982887506 0.18777319804802792 0.9683194899339608
vn -0.06554285769579009 0.41138758553735066 0.9091008680398551
vn -0.06554286278416814 0.2886688122622428 0.9551829405748209
vn 0.1646164922795838 0.49599207673826456 0.8525803600144851
vn 0.06554286278416814 0.2886688122622428 0.9551829405748209
vn 0 0.3515416202868696 0.9361722540249108
vn 0.06554285769579009 0.41138758553735066 0.9091008680398551
vn 0.6684175835289575 0.511065187406411 -0.5403982866835891
vn 0.6951606053681553 0.5864442045286278 -0.4157342032103742
vn 0.6684176021737067 -0.7404427024079339 -0.07044511022908902
vn 0.6951606289408525 -0.7151360297724663 0.07302163304002862
vn -0.6684175835289575 0.511065187406411 -0.5403982866835891
vn -0.6951606053681553 0.5864442045286278 -0.4157342032103742
vn 0.5679292030593381 0.3222501017359067 -0.7573713040798303
vn 0.5679292114881035 -0.7411089149911919 -0.35806980724305604
vn -0.6684176021737067 -0.7404427024079339 -0.07044511022908902
vn -0.6951606289408525 -0.7151360297724663 0.07302163304002862
vn -0.5679292030593381 0.3222501017359067 -0.7573713040798303
vn 0.4371139952321136 0.13288729855051207 -0.8895348902972648
vn 0.4371139956596503 -0.6855405931928834 -0.5822073942189369
vn -0.5679292114881035 -0.7411089149911919 -0.35806980724305604
vn -0.4371139952321136 0.13288729855051207 -0.8895348902972648
vn 0.299554591912497 -0.03800341897396723 -0.9533219742618056
vn 0.2995545997936698 -0.5988728995875022 -0.7427100994884288
vn -0.4371139956596503 -0.6855405931928834 -0.5822073942189369
vn -0.299554591912497 -0.03800341897396723 -0.9533219742618056
vn 0.1646164982887506 -0.18777319804802792 -0.9683194899339608
vn 0.1646164922795838 -0.49599207673826456 -0.8525803600144851
vn -0.2995545997936698 -0.5988728995875022 -0.7427100994884288
vn -0.1646164982887506 -0.18777319804802792 -0.9683194899339608
vn 0.06554286278416814 -0.2886688122622428 -0.9551829405748209
vn 0.06554285769579009 -0.41138758553735066 -0.9091008680398551
vn -0.1646164922795838 -0.49599207673826456 -0.8525803600144851
vn -0.06554286278416814 -0.2886688122622428 -0.9551829405748209
vn 0 -0.3515416202868696 -0.9361722540249108
vn -0.06554285769579009 -0.41138758553735066 -0.9091008680398551
usemtl material_0_0
f 5//8 6//8 7//8
f 8//8 7//8 6//8
f 13//7 14//7 15//7
f 16//7 15//7 14//7
f 21//34 22//35 23//36
f 24//37 23//36 22//35
f 29//2 30//2 31//2
f 32//2 31//2 30//2
f 37//1 38//1 39//1
f 40//1 39//1 38//1
f 21//34 43//38 22//35
f 44//39 22//35 43//38
f 47//40 21//34 48//41
f 23//36 48//41 21//34
f 23//36 24//37 51//42
f 52//43 51//42 24//37
f 43//38 51//42 44//39
f 52//43 44//39 51//42
f 47//40 54//44 21//34
f 43//38 21//34 54//44
f 57//45 47//40 58//46
f 48//41 58//46 47//40
f 48//41 23//36 60//47
f 51//42 60//47 23//36
f 54//44 60//47 43//38
f 51//42 43//38 60//47
f 54//44 47//40 62//48
f 57//45 62//48 47//40
f 65//49 57//45 66//50
f 58//46 66//50 57//45
f 58//46 48//41 68//51
f 60//47 68//51 48//41
f 62//48 68//51 54//44
f 60//47 54//44 68//51
f 62//48 57//45 70//52
f 65//49 70//52 57//45
f 73//53 65//49 74//54
f 66//50 74//54 65//49
f 66//50 58//46 76//55
f 68//51 76//55 58//46
f 70//52 76//55 62//48
f 68//51 62//48 76//55
f 70//52 65//49 78//56
f 73//53 78//56 65//49
f 81//57 73//53 82//58
f 74//54 82//58 73//53
f 74//54 66//50 84//59
f 76//55 84//59 66//50
f 78//56 84//59 70//52
f 76//55 70//52 84//59
f 78//56 73//53 86//60
f 81//57 86//60 73//53
f 91//61 92//61 93//61
f 94//61 93//61 92//61
f 82//58 74//54 96//62
f 84//59 96//62 74//54
f 86//60 96//62 78//56
f 84//59 78//56 96//62
usemtl material_1_0
f 1/1/1 2/2/1 3/3/1
f 2/2/1 1/1/1 4/4/1
f 9/5/2 10/6/2 11/7/2
f 10/6/2 9/5/2 12/8/2
f 17/5/3 18/9/4 19/10/5
f 18/9/4 17/5/3 20/11/6
f 25/12/7 26/13/7 27/14/7
f 26/13/7 25/12/7 28/15/7
f 33/13/8 34/6/8 35/14/8
f 34/6/8 33/13/8 36/7/8
f 41/16/9 17/5/3 42/7/10
f 17/5/3 41/16/9 20/17/6
f 20/11/6 45/18/11 18/9/4
f 45/18/11 20/11/6 46/19/12
f 19/15/5 49/20/13 50/13/14
f 49/20/13 19/15/5 18/21/4
f 49/22/13 42/7/10 50/13/14
f 42/7/10 49/22/13 41/23/9
f 53/24/15 20/17/6 41/16/9
f 20/17/6 53/24/15 46/25/12
f 46/19/12 55/26/16 45/18/11
f 55/26/16 46/19/12 56/27/17
f 18/21/4 59/28/18 49/20/13
f 59/28/18 18/21/4 45/29/11
f 59/30/18 41/23/9 49/22/13
f 41/23/9 59/30/18 53/31/15
f 46/25/12 61/32/19 56/33/17
f 61/32/19 46/25/12 53/24/15
f 56/27/17 63/34/20 55/26/16
f 63/34/20 56/27/17 64/35/21
f 45/29/11 67/36/22 59/28/18
f 67/36/22 45/29/11 55/37/16
f 67/38/22 53/31/15 59/30/18
f 53/31/15 67/38/22 61/39/19
f 56/33/17 69/40/23 64/41/21
f 69/40/23 56/33/17 61/32/19
f 64/35/21 71/42/24 63/34/20
f 71/42/24 64/35/21 72/43/25
f 55/37/16 75/44/26 67/36/22
f 75/44/26 55/37/16 63/45/20
f 75/46/26 61/39/19 67/38/22
f 61/39/19 75/46/26 69/47/23
f 64/41/21 77/48/27 72/49/25
f 77/48/27 64/41/21 69/40/23
f 72/50/25 79/51/28 71/52/24
f 79/51/28 72/50/25 80/53/29
f 63/45/20 83/54/30 75/44/26
f 83/54/30 63/45/20 71/55/24
f 83/56/30 69/47/23 75/46/26
f 69/47/23 83/56/30 77/57/27
f 72/58/25 85/59/31 80/53/29
f 85/59/31 72/58/25 77/60/27
f 87/61/32 88/59/32 89/62/32
f 88/59/32 87/61/32 90/63/32
f 71/64/24 95/62/33 83/65/30
f 95/62/33 71/64/24 79/51/28
f 95/62/33 77/66/27 83/67/30
f 77/66/27 95/62/33 85/59/31
