# SSTK version 0.8.0
# 21
mtllib original-21.mtl
o #ID204
v 0.186954 0.502983 0.451537
v 0.186954 0.520586 0.447465
v 0.186954 0.503818 0.453761
v 0.186954 0.519750 0.445242
v 0.186954 0.519750 0.445242
v 0.186954 0.502983 0.451537
v 0.186954 0.520586 0.447465
v 0.186954 0.503818 0.453761
v 0.186954 0.520586 0.447465
v 0.151518 0.519750 0.445242
v 0.151518 0.520586 0.447465
v 0.186954 0.519750 0.445242
v 0.186954 0.519750 0.445242
v 0.186954 0.520586 0.447465
v 0.151518 0.519750 0.445242
v 0.151518 0.520586 0.447465
v 0.186954 0.503818 0.453761
v 0.186873 0.520726 0.448069
v 0.186873 0.504110 0.454309
v 0.186954 0.520586 0.447465
v 0.186954 0.520586 0.447465
v 0.186954 0.503818 0.453761
v 0.186873 0.520726 0.448069
v 0.186873 0.504110 0.454309
v 0.186954 0.502983 0.451537
v 0.156270 0.503818 0.453761
v 0.156270 0.502983 0.451537
v 0.186954 0.503818 0.453761
v 0.186954 0.503818 0.453761
v 0.186954 0.502983 0.451537
v 0.156270 0.503818 0.453761
v 0.156270 0.502983 0.451537
v 0.151518 0.520586 0.447465
v 0.151518 0.502983 0.451537
v 0.151518 0.503818 0.453761
v 0.151518 0.519750 0.445242
v 0.151518 0.519750 0.445242
v 0.151518 0.520586 0.447465
v 0.151518 0.502983 0.451537
v 0.151518 0.503818 0.453761
v 0.151599 0.520726 0.448069
v 0.151518 0.520586 0.447465
v 0.151599 0.520726 0.448069
v 0.151518 0.520586 0.447465
v 0.186636 0.520705 0.448690
v 0.186636 0.504534 0.454762
v 0.186636 0.520705 0.448690
v 0.186636 0.504534 0.454762
v 0.156270 0.504110 0.454309
v 0.156270 0.503818 0.453761
v 0.156270 0.504110 0.454309
v 0.156270 0.503818 0.453761
v 0.156270 0.502983 0.451537
v 0.151518 0.503818 0.453761
v 0.151518 0.502983 0.451537
v 0.156270 0.503818 0.453761
v 0.156270 0.503818 0.453761
v 0.156270 0.502983 0.451537
v 0.151518 0.503818 0.453761
v 0.151518 0.502983 0.451537
v 0.151518 0.503818 0.453761
v 0.151599 0.504110 0.454309
v 0.151518 0.503818 0.453761
v 0.151599 0.504110 0.454309
v 0.151837 0.520705 0.448690
v 0.151837 0.520705 0.448690
v 0.186258 0.520525 0.449282
v 0.186258 0.505061 0.455090
v 0.186258 0.520525 0.449282
v 0.186258 0.505061 0.455090
v 0.156270 0.504534 0.454762
v 0.156270 0.504534 0.454762
v 0.156270 0.503818 0.453761
v 0.156270 0.503818 0.453761
v 0.151837 0.504534 0.454762
v 0.151837 0.504534 0.454762
v 0.152214 0.520525 0.449282
v 0.152214 0.520525 0.449282
v 0.185766 0.505654 0.455270
v 0.185766 0.520197 0.449809
v 0.185766 0.520197 0.449809
v 0.185766 0.505654 0.455270
v 0.156270 0.505061 0.455090
v 0.156270 0.505061 0.455090
v 0.152214 0.505061 0.455090
v 0.152214 0.505061 0.455090
v 0.152706 0.520197 0.449809
v 0.152706 0.520197 0.449809
v 0.185193 0.506274 0.455290
v 0.185193 0.519744 0.450232
v 0.185193 0.519744 0.450232
v 0.185193 0.506274 0.455290
v 0.156270 0.505654 0.455270
v 0.156270 0.505654 0.455270
v 0.152706 0.505654 0.455270
v 0.152706 0.505654 0.455270
v 0.153279 0.519744 0.450232
v 0.153279 0.519744 0.450232
v 0.184578 0.506878 0.455150
v 0.184578 0.519197 0.450524
v 0.184578 0.519197 0.450524
v 0.184578 0.506878 0.455150
v 0.156270 0.506274 0.455290
v 0.156270 0.506274 0.455290
v 0.153279 0.506274 0.455290
v 0.153279 0.506274 0.455290
v 0.153894 0.519197 0.450524
v 0.153894 0.519197 0.450524
v 0.184578 0.519197 0.450524
v 0.156270 0.506878 0.455150
v 0.184578 0.506878 0.455150
v 0.153894 0.506878 0.455150
v 0.153894 0.519197 0.450524
v 0.153894 0.519197 0.450524
v 0.184578 0.519197 0.450524
v 0.153894 0.506878 0.455150
v 0.156270 0.506878 0.455150
v 0.184578 0.506878 0.455150
v 0.156270 0.506878 0.455150
v 0.156270 0.506878 0.455150
v 0.153894 0.506878 0.455150
v 0.153894 0.506878 0.455150
v 0.156270 0.506878 0.455150
v 0.156270 0.506878 0.455150
vn 1 0 0
vn 0 0.9361722540249108 -0.3515416202868696
vn 0.6951606053681553 -0.5864442045286278 0.4157342032103742
vn 0.6684176021737067 0.7404427024079339 0.07044511022908902
vn 0.6684175835289575 -0.511065187406411 0.5403982866835891
vn 0.6951606289408525 0.7151360297724663 -0.07302163304002862
vn 0 -0.9361722540249108 0.3515416202868696
vn -1 0 0
vn -0.6684176021737067 0.7404427024079339 0.07044511022908902
vn -0.6951606289408525 0.7151360297724663 -0.07302163304002862
vn 0.5679292114881035 0.7411089149911919 0.35806980724305604
vn 0.5679292030593381 -0.3222501017359067 0.7573713040798303
vn 0 -0.8132872654861022 0.5818623753072012
vn 0 -0.8822777991355224 0.4707290995387677
vn -0.6951606053681553 -0.5864442045286278 0.4157342032103742
vn -0.6684175835289575 -0.511065187406411 0.5403982866835891
vn -0.5679292114881035 0.7411089149911919 0.35806980724305604
vn 0.4371139956596503 0.6855405931928834 0.5822073942189369
vn 0.4371139952321136 -0.13288729855051207 0.8895348902972648
vn 0 -0.6349781181331913 0.7725301220612897
vn -0.5679292030593381 -0.3222501017359067 0.7573713040798303
vn -0.4371139956596503 0.6855405931928834 0.5822073942189369
vn 0.299554591912497 0.03800341897396723 0.9533219742618056
vn 0.2995545997936698 0.5988728995875022 0.7427100994884288
vn 0 -0.41339630234082986 0.9105512051559368
vn -0.4371139952321136 -0.13288729855051207 0.8895348902972648
vn -0.2995545997936698 0.5988728995875022 0.7427100994884288
vn 0.1646164982887506 0.18777319804802792 0.9683194899339608
vn 0.1646164922795838 0.49599207673826456 0.8525803600144851
vn 0 -0.16364209568930338 0.9865197740128744
vn -0.299554591912497 0.03800341897396723 0.9533219742618056
vn -0.1646164922795838 0.49599207673826456 0.8525803600144851
vn 0.06554286278416814 0.2886688122622428 0.9551829405748209
vn 0.06554285769579009 0.41138758553735066 0.9091008680398551
vn 0 0.09726394219338516 0.9952586224439363
vn -0.1646164982887506 0.18777319804802792 0.9683194899339608
vn -0.06554285769579009 0.41138758553735066 0.9091008680398551
vn 0 0.3515416202868696 0.9361722540249108
vn 0 0.22633918770767725 0.9740485471001067
vn -0.06554286278416814 0.2886688122622428 0.9551829405748209
vn -0.6951606289408525 -0.7151360297724663 0.07302163304002862
vn -0.6951606053681553 0.5864442045286278 -0.4157342032103742
vn -0.6684176021737067 -0.7404427024079339 -0.07044511022908902
vn -0.6684175835289575 0.511065187406411 -0.5403982866835891
vn 0.6684176021737067 -0.7404427024079339 -0.07044511022908902
vn 0.6951606289408525 -0.7151360297724663 0.07302163304002862
vn -0.5679292114881035 -0.7411089149911919 -0.35806980724305604
vn -0.5679292030593381 0.3222501017359067 -0.7573713040798303
vn 0 0.8132872654861022 -0.5818623753072012
vn 0 0.8822777991355224 -0.4707290995387677
vn 0.6951606053681553 0.5864442045286278 -0.4157342032103742
vn 0.6684175835289575 0.511065187406411 -0.5403982866835891
vn 0.5679292114881035 -0.7411089149911919 -0.35806980724305604
vn -0.4371139956596503 -0.6855405931928834 -0.5822073942189369
vn -0.4371139952321136 0.13288729855051207 -0.8895348902972648
vn 0 0.6349781181331913 -0.7725301220612897
vn 0.5679292030593381 0.3222501017359067 -0.7573713040798303
vn 0.4371139956596503 -0.6855405931928834 -0.5822073942189369
vn -0.2995545997936698 -0.5988728995875022 -0.7427100994884288
vn -0.299554591912497 -0.03800341897396723 -0.9533219742618056
vn 0 0.41339630234082986 -0.9105512051559368
vn 0.4371139952321136 0.13288729855051207 -0.8895348902972648
vn 0.2995545997936698 -0.5988728995875022 -0.7427100994884288
vn -0.1646164922795838 -0.49599207673826456 -0.8525803600144851
vn -0.1646164982887506 -0.18777319804802792 -0.9683194899339608
vn 0 0.16364209568930338 -0.9865197740128744
vn 0.299554591912497 -0.03800341897396723 -0.9533219742618056
vn 0.1646164922795838 -0.49599207673826456 -0.8525803600144851
vn -0.06554285769579009 -0.41138758553735066 -0.9091008680398551
vn -0.06554286278416814 -0.2886688122622428 -0.9551829405748209
vn 0 -0.09726394219338516 -0.9952586224439363
vn 0.1646164982887506 -0.18777319804802792 -0.9683194899339608
vn 0.06554285769579009 -0.41138758553735066 -0.9091008680398551
vn 0 -0.3515416202868696 -0.9361722540249108
vn 0 -0.22633918770767725 -0.9740485471001067
vn 0.06554286278416814 -0.2886688122622428 -0.9551829405748209
usemtl material_0_0
f 5//8 6//8 7//8
f 8//8 7//8 6//8
f 13//7 14//7 15//7
f 16//7 15//7 14//7
f 21//41 22//42 23//43
f 24//44 23//43 22//42
f 29//2 30//2 31//2
f 32//2 31//2 30//2
f 37//1 38//1 39//1
f 40//1 39//1 38//1
f 23//43 43//45 21//41
f 44//46 21//41 43//45
f 23//43 24//44 47//47
f 48//48 47//47 24//44
f 24//44 22//42 51//49
f 52//50 51//49 22//42
f 57//2 58//2 59//2
f 60//2 59//2 58//2
f 44//46 43//45 63//51
f 64//52 63//51 43//45
f 47//47 66//53 23//43
f 43//45 23//43 66//53
f 47//47 48//48 69//54
f 70//55 69//54 48//48
f 48//48 24//44 72//56
f 51//49 72//56 24//44
f 51//49 74//50 64//52
f 63//51 64//52 74//50
f 43//45 66//53 64//52
f 76//57 64//52 66//53
f 69//54 78//58 47//47
f 66//53 47//47 78//58
f 81//59 69//54 82//60
f 70//55 82//60 69//54
f 84//61 70//55 72//56
f 48//48 72//56 70//55
f 72//56 51//49 76//57
f 64//52 76//57 51//49
f 66//53 78//58 76//57
f 86//62 76//57 78//58
f 81//59 88//63 69//54
f 78//58 69//54 88//63
f 91//64 81//59 92//65
f 82//60 92//65 81//59
f 94//66 82//60 84//61
f 70//55 84//61 82//60
f 86//62 84//61 76//57
f 72//56 76//57 84//61
f 88//63 96//67 78//58
f 86//62 78//58 96//67
f 88//63 81//59 98//68
f 91//64 98//68 81//59
f 101//69 91//64 102//70
f 92//65 102//70 91//64
f 104//71 92//65 94//66
f 82//60 94//66 92//65
f 96//67 94//66 86//62
f 84//61 86//62 94//66
f 98//68 106//72 88//63
f 96//67 88//63 106//72
f 98//68 91//64 108//73
f 101//69 108//73 91//64
f 114//74 115//74 116//74
f 116//74 115//74 117//74
f 118//74 117//74 115//74
f 120//75 102//70 104//71
f 92//65 104//71 102//70
f 106//72 104//71 96//67
f 94//66 96//67 104//71
f 108//73 122//76 98//68
f 106//72 98//68 122//76
f 124//75 104//71 122//76
f 106//72 122//76 104//71
usemtl material_1_0
f 1//1 2//1 3//1
f 2//1 1//1 4//1
f 9//2 10//2 11//2
f 10//2 9//2 12//2
f 17//3 18//4 19//5
f 18//4 17//3 20//6
f 25//7 26//7 27//7
f 26//7 25//7 28//7
f 33//8 34//8 35//8
f 34//8 33//8 36//8
f 41//9 20//6 42//10
f 20//6 41//9 18//4
f 19//5 45//11 46//12
f 45//11 19//5 18//4
f 17//3 49//13 50//14
f 49//13 17//3 19//5
f 53//7 54//7 55//7
f 54//7 53//7 56//7
f 41//9 61//15 62//16
f 61//15 41//9 42//10
f 65//17 18//4 41//9
f 18//4 65//17 45//11
f 46//12 67//18 68//19
f 67//18 46//12 45//11
f 19//5 71//20 49//13
f 71//20 19//5 46//12
f 73//14 62//16 61//15
f 62//16 73//14 49//13
f 65//17 62//16 75//21
f 62//16 65//17 41//9
f 77//22 45//11 65//17
f 45//11 77//22 67//18
f 67//18 79//23 68//19
f 79//23 67//18 80//24
f 68//19 71//20 46//12
f 71//20 68//19 83//25
f 49//13 75//21 62//16
f 75//21 49//13 71//20
f 77//22 75//21 85//26
f 75//21 77//22 65//17
f 87//27 67//18 77//22
f 67//18 87//27 80//24
f 80//24 89//28 79//23
f 89//28 80//24 90//29
f 79//23 83//25 68//19
f 83//25 79//23 93//30
f 83//25 75//21 71//20
f 75//21 83//25 85//26
f 95//31 77//22 85//26
f 77//22 95//31 87//27
f 80//24 97//32 90//29
f 97//32 80//24 87//27
f 90//29 99//33 89//28
f 99//33 90//29 100//34
f 89//28 93//30 79//23
f 93//30 89//28 103//35
f 93//30 85//26 83//25
f 85//26 93//30 95//31
f 105//36 87//27 95//31
f 87//27 105//36 97//32
f 90//29 107//37 100//34
f 107//37 90//29 97//32
f 109//38 110//38 111//38
f 110//38 109//38 112//38
f 112//38 109//38 113//38
f 99//33 103//35 89//28
f 103//35 99//33 119//39
f 103//35 95//31 93//30
f 95//31 103//35 105//36
f 121//40 97//32 105//36
f 97//32 121//40 107//37
f 103//35 121//40 105//36
f 121//40 103//35 123//39
