# SSTK version 0.8.0
# 83
mtllib original-83.mtl
o #ID621
v 0.067644 -0.406771 0.475242
v 0.019231 -0.412887 0.540441
v 0.019231 -0.412887 0.475242
v 0.067644 -0.406771 0.541686
v -0.029566 -0.412887 0.540441
v -0.029566 -0.412887 0.475242
v 0.005267 -0.412887 0.540441
v 0.114908 -0.394636 0.475242
v 0.114908 -0.394636 0.544158
v -0.077978 -0.406771 0.541686
v -0.077978 -0.406771 0.475242
v 0.160279 -0.376672 0.475242
v 0.141990 -0.383913 0.546341
v 0.160279 -0.376672 0.547388
v -0.125242 -0.394636 0.544158
v -0.125242 -0.394636 0.475242
v 0.203040 -0.353164 0.475242
v 0.203040 -0.353164 0.550784
v -0.170613 -0.376672 0.475242
v -0.152325 -0.383913 0.546341
v -0.170613 -0.376672 0.547388
v 0.242518 -0.324482 0.475242
v 0.242518 -0.324482 0.554929
v -0.213374 -0.353164 0.475242
v -0.213374 -0.353164 0.550784
v 0.278089 -0.291078 0.475242
v 0.277128 -0.291981 0.559623
v 0.278089 -0.291078 0.559702
v -0.252852 -0.324482 0.554929
v -0.252852 -0.324482 0.475242
v 0.309194 -0.253479 0.475242
v 0.309194 -0.253479 0.562947
v -0.288424 -0.291078 0.475242
v -0.287462 -0.291981 0.559623
v -0.288424 -0.291078 0.559702
v 0.335341 -0.212278 0.475242
v 0.335341 -0.212278 0.566503
v -0.319528 -0.253479 0.475242
v -0.319528 -0.253479 0.562947
v 0.341383 -0.199438 0.567611
v 0.356118 -0.168125 0.475242
v 0.356118 -0.168125 0.568510
v -0.345675 -0.212278 0.475242
v -0.345675 -0.212278 0.566503
v 0.371197 -0.121716 0.475242
v 0.371197 -0.121716 0.569843
v -0.366452 -0.168125 0.475242
v -0.351717 -0.199438 0.567611
v -0.366452 -0.168125 0.568510
v 0.374252 -0.105699 0.570251
v 0.374082 -0.106590 0.570277
v 0.374252 -0.105699 0.475242
v -0.381531 -0.121716 0.475242
v -0.381531 -0.121716 0.569843
v 0.374252 -0.105699 0.475242
v 0.380341 -0.073783 0.569334
v 0.374252 -0.105699 0.570251
v 0.380341 -0.073783 0.475242
v -0.384587 -0.105699 0.570251
v -0.384417 -0.106590 0.570277
v -0.384587 -0.105699 0.475242
v 0.383404 -0.025082 0.567937
v 0.383404 -0.025082 0.475242
v -0.390675 -0.073783 0.569334
v -0.384587 -0.105699 0.475242
v -0.384587 -0.105699 0.570251
v -0.390675 -0.073783 0.475242
v 0.382691 -0.013741 0.567611
v 0.380341 0.023619 0.564386
v 0.380341 0.023619 0.475242
v -0.393739 -0.025082 0.567937
v -0.393739 -0.025082 0.475242
v 0.371197 0.071552 0.560250
v 0.371197 0.071552 0.475242
v -0.393026 -0.013741 0.567611
v -0.390675 0.023619 0.564386
v -0.390675 0.023619 0.475242
v 0.368841 0.078802 0.559623
v 0.356118 0.117961 0.553965
v 0.356118 0.117961 0.475242
v -0.381531 0.071552 0.560250
v -0.381531 0.071552 0.475242
v 0.335341 0.162114 0.547587
v 0.335341 0.162114 0.475242
v -0.379176 0.078802 0.559623
v -0.366452 0.117961 0.553965
v -0.366452 0.117961 0.475242
v 0.329870 0.170734 0.546341
v 0.309194 0.203315 0.539707
v 0.309194 0.203315 0.475242
v -0.345675 0.162114 0.547587
v -0.345675 0.162114 0.475242
v 0.278089 0.240914 0.532050
v 0.278089 0.240914 0.475242
v -0.340205 0.170734 0.546341
v -0.319528 0.203315 0.539707
v -0.319528 0.203315 0.475242
v 0.255898 0.261752 0.527806
v 0.242518 0.274318 0.475242
v 0.242518 0.274318 0.524487
v -0.288424 0.240914 0.532050
v -0.288424 0.240914 0.475242
v 0.203040 0.303000 0.475242
v 0.203040 0.303000 0.516909
v -0.252852 0.274318 0.475242
v -0.266233 0.261752 0.527806
v -0.252852 0.274318 0.524487
v 0.160279 0.326508 0.475242
v 0.160279 0.326508 0.510698
v -0.213374 0.303000 0.516909
v -0.213374 0.303000 0.475242
v 0.114908 0.344472 0.505953
v 0.114908 0.344472 0.475242
v -0.170613 0.326508 0.510698
v -0.170613 0.326508 0.475242
v 0.087308 0.351558 0.504081
v 0.067644 0.356607 0.475242
v 0.067644 0.356607 0.502432
v -0.125242 0.344472 0.505953
v -0.125242 0.344472 0.475242
v 0.019231 0.362723 0.500434
v 0.019231 0.362723 0.475242
v -0.077978 0.356607 0.475242
v -0.097642 0.351558 0.504081
v -0.077978 0.356607 0.502432
v -0.023886 0.362723 0.500434
v -0.029566 0.362723 0.475242
v -0.029566 0.362723 0.500434
v 0.005267 0.362723 0.500434
vn 0.18738129144314172 -0.9822872551433722 0
vn 0.06329639825681722 -0.9979947725152243 0
vn 0.0627905217796479 -0.9980267282866925 0
vn 0.1888665913307026 -0.9820027549244051 0
vn -0.06329639825681722 -0.9979947725152243 0
vn -0.0627905217796479 -0.9980267282866925 0
vn 0 -1 0
vn 0.3090170042518809 -0.9510565130859434 0
vn 0.3113866054619624 -0.9502833166687059 0
vn -0.1888665913307026 -0.9820027549244051 0
vn -0.18738129144314172 -0.9822872551433722 0
vn 0.42577928015806865 -0.9048270578337482 0
vn 0.368124588757952 -0.9297764716058311 0
vn 0.42798869427768416 -0.9037840879161808 0
vn -0.3113866054619624 -0.9502833166687059 0
vn -0.3090170042518809 -0.9510565130859434 0
vn 0.5358268100958747 -0.8443279159085524 0
vn 0.5384192899108572 -0.8426770842095376 0
vn -0.42577928015806865 -0.9048270578337482 0
vn -0.368124588757952 -0.9297764716058311 0
vn -0.42798869427768416 -0.9037840879161808 0
vn 0.6374240168438534 -0.7705132203607198 0
vn 0.6402358801925844 -0.7681783762343399 0
vn -0.5358268100958747 -0.8443279159085524 0
vn -0.5384192899108572 -0.8426770842095376 0
vn 0.7289686175301027 -0.6845471164618626 0
vn 0.6845471164618626 -0.7289686175301027 0
vn 0.7306816912793944 -0.6827182918518323 0
vn -0.6402358801925844 -0.7681783762343399 0
vn -0.6374240168438534 -0.7705132203607198 0
vn 0.8090169736320784 -0.5877852808425821 0
vn 0.8106484992915499 -0.585533099488285 0
vn -0.7289686175301027 -0.6845471164618626 0
vn -0.6845471164618626 -0.7289686175301027 0
vn -0.7306816912793944 -0.6827182918518323 0
vn 0.8763066737420931 -0.4817536855645931 0
vn 0.8777540377661364 -0.4791115206141929 0
vn -0.8090169736320784 -0.5877852808425821 0
vn -0.8106484992915499 -0.585533099488285 0
vn 0.9048270578337482 -0.42577928015806865 0
vn 0.9297764716058311 -0.368124588757952 0
vn 0.9301684636856424 -0.36713298566689906 0
vn -0.8763066737420931 -0.4817536855645931 0
vn -0.8777540377661364 -0.4791115206141929 0
vn 0.9685831604410063 -0.24868988984297663 0
vn 0.9688588153622837 -0.24761380392617938 0
vn -0.9297764716058311 -0.368124588757952 0
vn -0.9048270578337482 -0.42577928015806865 0
vn -0.9301684636856424 -0.36713298566689906 0
vn 0.9822872551433722 -0.18738129144314172 0
vn -0.9685831604410063 -0.24868988984297663 0
vn -0.9688588153622837 -0.24761380392617938 0
vn 0.9919713889275114 -0.12646249858841235 0
vn 0.9921147054673806 -0.1253332006906906 0
vn -0.9822872551433722 -0.18738129144314172 0
vn 0.9999993419841632 -0.001147184048163594 0
vn 1 0 0
vn -0.9919713889275114 -0.12646249858841235 0
vn -0.9921147054673806 -0.1253332006906906 0
vn 0.9980267282866925 0.0627905217796479 0
vn 0.9925366995381826 0.12194629994325959 0
vn 0.9921147054673806 0.1253332006906906 0
vn -0.9999993419841632 -0.001147184048163594 0
vn -1 0 0
vn 0.9694061887864666 0.24546209716063558 0
vn 0.9685831604410063 0.24868988984297663 0
vn -0.9980267282866925 0.0627905217796479 0
vn -0.9925366995381826 0.12194629994325959 0
vn -0.9921147054673806 0.1253332006906906 0
vn 0.9510565130859434 0.3090170042518809 0
vn 0.9317242636940883 0.36316648584872063 0
vn 0.9297764716058311 0.368124588757952 0
vn -0.9694061887864666 0.24546209716063558 0
vn -0.9685831604410063 0.24868988984297663 0
vn 0.8787143289411202 0.4773480157218175 0
vn 0.8763066737420931 0.4817536855645931 0
vn -0.9510565130859434 0.3090170042518809 0
vn -0.9317242636940883 0.36316648584872063 0
vn -0.9297764716058311 0.368124588757952 0
vn 0.8443279159085524 0.5358268100958747 0
vn 0.8128183838759594 0.5825171884444901 0
vn 0.8090169736320784 0.5877852808425821 0
vn -0.8787143289411202 0.4773480157218175 0
vn -0.8763066737420931 0.4817536855645931 0
vn 0.7329665637981776 0.6802646664011678 0
vn 0.7289686175301027 0.6845471164618626 0
vn -0.8443279159085524 0.5358268100958747 0
vn -0.8128183838759594 0.5825171884444901 0
vn -0.8090169736320784 0.5877852808425821 0
vn 0.6845471164618626 0.7289686175301027 0
vn 0.6374240168438534 0.7705132203607198 0
vn 0.6425074979373551 0.7662793975400095 0
vn -0.7329665637981776 0.6802646664011678 0
vn -0.7289686175301027 0.6845471164618626 0
vn 0.5358268100958747 0.8443279159085524 0
vn 0.5405227139131494 0.8413294216559668 0
vn -0.6374240168438534 0.7705132203607198 0
vn -0.6845471164618626 0.7289686175301027 0
vn -0.6425074979373551 0.7662793975400095 0
vn 0.42577928015806865 0.9048270578337482 0
vn 0.42978789069500206 0.9029298804513788 0
vn -0.5405227139131494 0.8413294216559668 0
vn -0.5358268100958747 0.8443279159085524 0
vn 0.3120809091712684 0.9500555279197286 0
vn 0.3090170042518809 0.9510565130859434 0
vn -0.42978789069500206 0.9029298804513788 0
vn -0.42577928015806865 0.9048270578337482 0
vn 0.24868988984297663 0.9685831604410063 0
vn 0.18738129144314172 0.9822872551433722 0
vn 0.1897496029642294 0.9818325153379864 0
vn -0.3120809091712684 0.9500555279197286 0
vn -0.3090170042518809 0.9510565130859434 0
vn 0.06359768117348082 0.9979756184142758 0
vn 0.0627905217796479 0.9980267282866925 0
vn -0.18738129144314172 0.9822872551433722 0
vn -0.24868988984297663 0.9685831604410063 0
vn -0.1897496029642294 0.9818325153379864 0
vn 0 1 0
vn -0.0627905217796479 0.9980267282866925 0
vn -0.06359768117348082 0.9979756184142758 0
usemtl material_0_0
f 1//1 2//2 3//3
f 2//2 1//1 4//4
f 3//3 5//5 6//6
f 5//5 3//3 7//7
f 7//7 3//3 2//2
f 8//8 4//4 1//1
f 4//4 8//8 9//9
f 6//6 10//10 11//11
f 10//10 6//6 5//5
f 12//12 9//9 8//8
f 9//9 12//12 13//13
f 13//13 12//12 14//14
f 11//11 15//15 16//16
f 15//15 11//11 10//10
f 17//17 14//14 12//12
f 14//14 17//17 18//18
f 19//19 20//20 21//21
f 20//20 19//19 16//16
f 20//20 16//16 15//15
f 22//22 18//18 17//17
f 18//18 22//22 23//23
f 24//24 21//21 25//25
f 21//21 24//24 19//19
f 26//26 23//23 22//22
f 23//23 26//26 27//27
f 27//27 26//26 28//28
f 24//24 29//29 30//30
f 29//29 24//24 25//25
f 28//28 31//31 32//32
f 31//31 28//28 26//26
f 33//33 34//34 35//35
f 34//34 33//33 30//30
f 34//34 30//30 29//29
f 32//32 36//36 37//37
f 36//36 32//32 31//31
f 38//38 35//35 39//39
f 35//35 38//38 33//33
f 40//40 41//41 42//42
f 41//41 40//40 37//37
f 41//41 37//37 36//36
f 43//43 39//39 44//44
f 39//39 43//43 38//38
f 42//42 45//45 46//46
f 45//45 42//42 41//41
f 47//47 48//48 49//49
f 48//48 47//47 44//44
f 44//44 47//47 43//43
f 46//46 50//50 51//50
f 50//50 46//46 52//50
f 52//50 46//46 45//45
f 53//51 49//49 54//52
f 49//49 53//51 47//47
f 55//50 56//53 57//50
f 56//53 55//50 58//54
f 59//55 54//52 60//55
f 54//52 59//55 61//55
f 54//52 61//55 53//51
f 58//54 62//56 56//53
f 62//56 58//54 63//57
f 64//58 65//55 66//55
f 65//55 64//58 67//59
f 63//57 68//60 62//56
f 68//60 63//57 69//61
f 69//61 63//57 70//62
f 71//63 67//59 64//58
f 67//59 71//63 72//64
f 70//62 73//65 69//61
f 73//65 70//62 74//66
f 75//67 72//64 71//63
f 72//64 75//67 76//68
f 72//64 76//68 77//69
f 74//66 78//70 73//65
f 78//70 74//66 79//71
f 79//71 74//66 80//72
f 81//73 77//69 76//68
f 77//69 81//73 82//74
f 80//72 83//75 79//71
f 83//75 80//72 84//76
f 85//77 82//74 81//73
f 82//74 85//77 86//78
f 82//74 86//78 87//79
f 84//76 88//80 83//75
f 88//80 84//76 89//81
f 89//81 84//76 90//82
f 91//83 87//79 86//78
f 87//79 91//83 92//84
f 90//82 93//85 89//81
f 93//85 90//82 94//86
f 95//87 92//84 91//83
f 92//84 95//87 96//88
f 92//84 96//88 97//89
f 98//90 99//91 100//92
f 99//91 98//90 94//86
f 94//86 98//90 93//85
f 101//93 97//89 96//88
f 97//89 101//93 102//94
f 100//92 103//95 104//96
f 103//95 100//92 99//91
f 101//93 105//97 102//94
f 105//97 101//93 106//98
f 105//97 106//98 107//99
f 104//96 108//100 109//101
f 108//100 104//96 103//95
f 110//102 105//97 107//99
f 105//97 110//102 111//103
f 112//104 108//100 113//105
f 108//100 112//104 109//101
f 114//106 111//103 110//102
f 111//103 114//106 115//107
f 116//108 117//109 118//110
f 117//109 116//108 113//105
f 113//105 116//108 112//104
f 119//111 115//107 114//106
f 115//107 119//111 120//112
f 121//113 117//109 122//114
f 117//109 121//113 118//110
f 119//111 123//115 120//112
f 123//115 119//111 124//116
f 123//115 124//116 125//117
f 126//118 127//119 128//120
f 127//119 126//118 122//114
f 122//114 126//118 129//118
f 122//114 129//118 121//113
f 128//120 123//115 125//117
f 123//115 128//120 127//119
