# SSTK version 0.8.0
# 17
mtllib original-17.mtl
o #ID180
v 0.411732 0.553989 0.436952
v 0.415540 0.553613 0.432525
v 0.411732 0.552485 0.432949
v 0.415540 0.555117 0.436529
v 0.408109 0.552435 0.437536
v 0.408109 0.550931 0.433532
v 0.411738 0.554017 0.437073
v 0.415544 0.555145 0.436649
v 0.419473 0.555800 0.436272
v 0.419473 0.554298 0.432268
v 0.404729 0.548976 0.434267
v 0.404729 0.550479 0.438270
v 0.408117 0.552465 0.437656
v 0.411755 0.554016 0.437196
v 0.415556 0.555142 0.436772
v 0.419475 0.555829 0.436392
v 0.423469 0.556029 0.436186
v 0.423469 0.554527 0.432183
v 0.401643 0.546649 0.435141
v 0.401643 0.548153 0.439144
v 0.404738 0.550510 0.438390
v 0.408139 0.552466 0.437778
v 0.411782 0.553985 0.437313
v 0.415574 0.555109 0.436891
v 0.419481 0.555824 0.436517
v 0.423469 0.556057 0.436307
v 0.427466 0.554298 0.432268
v 0.427466 0.555800 0.436272
v 0.398903 0.543989 0.436139
v 0.398903 0.545492 0.440143
v 0.401654 0.548185 0.439264
v 0.404765 0.550514 0.438510
v 0.408175 0.552438 0.437894
v 0.411818 0.553926 0.437416
v 0.415598 0.555045 0.436996
v 0.419490 0.555789 0.436635
v 0.423469 0.556054 0.436431
v 0.427464 0.555829 0.436392
v 0.431399 0.555117 0.436529
v 0.431399 0.553613 0.432525
v 0.396549 0.541036 0.437248
v 0.396549 0.542539 0.441251
v 0.398915 0.545525 0.440262
v 0.401687 0.548192 0.439383
v 0.404809 0.550491 0.438625
v 0.408222 0.552383 0.437995
v 0.415626 0.554958 0.437079
v 0.411859 0.553842 0.437498
v 0.419502 0.555724 0.436740
v 0.423469 0.556017 0.436549
v 0.427458 0.555824 0.436517
v 0.431395 0.555145 0.436649
v 0.435207 0.552485 0.432949
v 0.435207 0.553989 0.436952
v 0.394620 0.537837 0.438449
v 0.394620 0.539341 0.442452
v 0.396563 0.542574 0.441370
v 0.398951 0.545537 0.440380
v 0.401738 0.548174 0.439494
v 0.404866 0.550442 0.438724
v 0.408276 0.552305 0.438075
v 0.415656 0.554851 0.437136
v 0.411903 0.553740 0.437553
v 0.419516 0.555634 0.436824
v 0.423469 0.555951 0.436655
v 0.427449 0.555789 0.436635
v 0.431383 0.555142 0.436772
v 0.435201 0.554017 0.437073
v 0.438830 0.552435 0.437536
v 0.438830 0.550931 0.433532
v 0.393146 0.534444 0.439723
v 0.393146 0.535947 0.443727
v 0.394635 0.539377 0.442571
v 0.396602 0.542590 0.441487
v 0.399009 0.545526 0.440490
v 0.401804 0.548133 0.439591
v 0.404932 0.550371 0.438801
v 0.408334 0.552209 0.438128
v 0.441935 0.503984 0.456237
v 0.423469 0.503807 0.456303
v 0.438605 0.502057 0.456961
v 0.426635 0.503989 0.456235
v 0.444974 0.506276 0.455376
v 0.429753 0.504531 0.456031
v 0.432774 0.505426 0.455696
v 0.435653 0.506661 0.455232
v 0.447673 0.508896 0.454392
v 0.438345 0.508218 0.454647
v 0.440806 0.510074 0.453951
v 0.449991 0.511803 0.453301
v 0.442999 0.512203 0.453151
v 0.451890 0.514952 0.452119
v 0.444887 0.514571 0.452262
v 0.446438 0.517143 0.451295
v 0.453341 0.518293 0.450863
v 0.447625 0.519877 0.450270
v 0.454321 0.521773 0.449558
v 0.448429 0.522731 0.449198
v 0.454815 0.525337 0.448219
v 0.448835 0.525658 0.448098
v 0.454815 0.528929 0.446870
v 0.448835 0.528609 0.446990
v 0.448429 0.531535 0.445892
v 0.454321 0.532493 0.445531
v 0.447625 0.534389 0.444820
v 0.453341 0.535973 0.444225
v 0.446438 0.537124 0.443793
v 0.451890 0.539314 0.442970
v 0.444887 0.539695 0.442828
v 0.449991 0.542463 0.441788
v 0.442999 0.542064 0.441938
v 0.440806 0.544192 0.441139
v 0.447673 0.545370 0.440696
v 0.438345 0.546049 0.440442
v 0.444974 0.547991 0.439713
v 0.435653 0.547606 0.439857
v 0.432774 0.548840 0.439393
v 0.441935 0.550282 0.438852
v 0.429753 0.549735 0.439057
v 0.426635 0.550277 0.438853
v 0.423469 0.550459 0.438786
v 0.438605 0.552209 0.438128
v 0.427407 0.498741 0.458206
v 0.419532 0.498741 0.458206
v 0.423469 0.498515 0.458291
v 0.415656 0.499415 0.457953
v 0.431283 0.499415 0.457953
v 0.411903 0.500526 0.457535
v 0.435035 0.500526 0.457535
v 0.408334 0.502057 0.456961
v 0.405004 0.503984 0.456237
v 0.420304 0.503989 0.456235
v 0.401965 0.506276 0.455376
v 0.417186 0.504531 0.456031
v 0.414165 0.505426 0.455696
v 0.411286 0.506661 0.455232
v 0.399265 0.508896 0.454392
v 0.408594 0.508218 0.454647
v 0.406133 0.510074 0.453951
v 0.396948 0.511803 0.453301
v 0.403940 0.512203 0.453151
v 0.395049 0.514952 0.452119
v 0.402052 0.514571 0.452262
v 0.400501 0.517143 0.451295
v 0.393598 0.518293 0.450863
v 0.399313 0.519877 0.450270
v 0.392618 0.521773 0.449558
v 0.398510 0.522731 0.449198
v 0.392124 0.525337 0.448219
v 0.398104 0.525658 0.448098
v 0.392124 0.528929 0.446870
v 0.398104 0.528609 0.446990
v 0.398510 0.531535 0.445892
v 0.392618 0.532493 0.445531
v 0.399313 0.534389 0.444820
v 0.393598 0.535973 0.444225
v 0.400501 0.537124 0.443793
v 0.395049 0.539314 0.442970
v 0.402052 0.539695 0.442828
v 0.396948 0.542463 0.441788
v 0.403940 0.542064 0.441938
v 0.406133 0.544192 0.441139
v 0.399265 0.545370 0.440696
v 0.408594 0.546049 0.440442
v 0.401965 0.547991 0.439713
v 0.411286 0.547606 0.439857
v 0.414165 0.548840 0.439393
v 0.405004 0.550282 0.438852
v 0.417186 0.549735 0.439057
v 0.420304 0.550277 0.438853
v 0.435035 0.553740 0.437553
v 0.431283 0.554851 0.437136
v 0.427407 0.555525 0.436884
v 0.419532 0.555525 0.436884
v 0.423469 0.555751 0.436798
v 0.423469 0.555860 0.436740
v 0.427437 0.555724 0.436740
v 0.431365 0.555109 0.436891
v 0.435184 0.554016 0.437196
v 0.438822 0.552465 0.437656
v 0.442210 0.548976 0.434267
v 0.442210 0.550479 0.438270
v 0.392150 0.530909 0.441051
v 0.392150 0.532412 0.445054
v 0.393162 0.535986 0.443844
v 0.394678 0.539398 0.442685
v 0.396666 0.542586 0.441593
v 0.399084 0.545492 0.440583
v 0.401882 0.548070 0.439666
v 0.399171 0.545439 0.440653
v 0.396845 0.542520 0.441749
v 0.394938 0.539358 0.442936
v 0.393481 0.536004 0.444196
v 0.392497 0.532510 0.445508
v 0.392001 0.528931 0.446852
v 0.392001 0.525324 0.448207
v 0.392497 0.521745 0.449550
v 0.393481 0.518251 0.450862
v 0.394938 0.514897 0.452122
v 0.396845 0.511735 0.453310
v 0.399171 0.508816 0.454406
v 0.401882 0.506185 0.455393
v 0.404932 0.503884 0.456257
v 0.408276 0.501950 0.456984
v 0.411859 0.500413 0.457561
v 0.415626 0.499297 0.457979
v 0.419516 0.498621 0.458234
v 0.423469 0.498394 0.458319
v 0.427423 0.498621 0.458234
v 0.431313 0.499297 0.457979
v 0.435080 0.500413 0.457561
v 0.438663 0.501950 0.456984
v 0.442006 0.503884 0.456257
v 0.445057 0.506185 0.455393
v 0.447767 0.508816 0.454406
v 0.450094 0.511735 0.453310
v 0.452001 0.514897 0.452122
v 0.453458 0.518251 0.450862
v 0.454442 0.521745 0.449550
v 0.454938 0.525324 0.448207
v 0.454938 0.528931 0.446852
v 0.454442 0.532510 0.445508
v 0.453458 0.536004 0.444196
v 0.452001 0.539358 0.442936
v 0.450094 0.542520 0.441749
v 0.447767 0.545439 0.440653
v 0.445057 0.548070 0.439666
v 0.442006 0.550371 0.438801
v 0.438663 0.552305 0.438075
v 0.435080 0.553842 0.437498
v 0.431313 0.554958 0.437079
v 0.427423 0.555634 0.436824
v 0.431341 0.555045 0.436996
v 0.435157 0.553985 0.437313
v 0.438800 0.552466 0.437778
v 0.442201 0.550510 0.438390
v 0.445295 0.548153 0.439144
v 0.445295 0.546649 0.435141
v 0.391649 0.527288 0.442411
v 0.391649 0.528791 0.446415
v 0.392166 0.532452 0.445170
v 0.393207 0.536012 0.443956
v 0.394746 0.539402 0.442789
v 0.396749 0.542562 0.441682
v 0.394834 0.539389 0.442875
v 0.393372 0.536021 0.444138
v 0.392384 0.532514 0.445456
v 0.391886 0.528921 0.446804
v 0.391886 0.525300 0.448165
v 0.392384 0.521708 0.449514
v 0.393372 0.518200 0.450831
v 0.394834 0.514833 0.452096
v 0.396749 0.511659 0.453287
v 0.399084 0.508729 0.454388
v 0.401804 0.506089 0.455379
v 0.404866 0.503780 0.456246
v 0.408222 0.501839 0.456975
v 0.411818 0.500296 0.457555
v 0.415598 0.499176 0.457975
v 0.419502 0.498498 0.458229
v 0.423469 0.498270 0.458315
v 0.427437 0.498498 0.458229
v 0.431341 0.499176 0.457975
v 0.435121 0.500296 0.457555
v 0.438717 0.501839 0.456975
v 0.442073 0.503780 0.456246
v 0.445135 0.506089 0.455379
v 0.447855 0.508729 0.454388
v 0.450190 0.511659 0.453287
v 0.452104 0.514833 0.452096
v 0.453567 0.518200 0.450831
v 0.454555 0.521708 0.449514
v 0.455053 0.525300 0.448165
v 0.455053 0.528921 0.446804
v 0.454555 0.532514 0.445456
v 0.453567 0.536021 0.444138
v 0.452104 0.539389 0.442875
v 0.450190 0.542562 0.441682
v 0.447855 0.545492 0.440583
v 0.445135 0.548133 0.439591
v 0.442073 0.550442 0.438724
v 0.438717 0.552383 0.437995
v 0.435121 0.553926 0.437416
v 0.438764 0.552438 0.437894
v 0.442174 0.550514 0.438510
v 0.445284 0.548185 0.439264
v 0.448036 0.543989 0.436139
v 0.448036 0.545492 0.440143
v 0.391649 0.523638 0.443781
v 0.391649 0.525141 0.447785
v 0.391665 0.528833 0.446529
v 0.392213 0.532484 0.445281
v 0.393278 0.536024 0.444058
v 0.392287 0.532505 0.445379
v 0.391788 0.528901 0.446732
v 0.391788 0.525268 0.448096
v 0.392287 0.521663 0.449450
v 0.393278 0.518144 0.450772
v 0.394746 0.514766 0.452040
v 0.396666 0.511582 0.453235
v 0.399009 0.508643 0.454339
v 0.401738 0.505994 0.455334
v 0.404809 0.503678 0.456204
v 0.408175 0.501731 0.456934
v 0.411782 0.500183 0.457516
v 0.415574 0.499060 0.457937
v 0.419490 0.498379 0.458193
v 0.423469 0.498151 0.458279
v 0.427449 0.498379 0.458193
v 0.431365 0.499060 0.457937
v 0.435157 0.500183 0.457516
v 0.438764 0.501731 0.456934
v 0.442130 0.503678 0.456204
v 0.445201 0.505994 0.455334
v 0.447930 0.508643 0.454339
v 0.450273 0.511582 0.453235
v 0.452193 0.514766 0.452040
v 0.453660 0.518144 0.450772
v 0.454652 0.521663 0.449450
v 0.455151 0.525268 0.448096
v 0.455151 0.528901 0.446732
v 0.454652 0.532505 0.445379
v 0.453660 0.536024 0.444058
v 0.452193 0.539402 0.442789
v 0.450273 0.542586 0.441593
v 0.447930 0.545526 0.440490
v 0.445201 0.548174 0.439494
v 0.442130 0.550491 0.438625
v 0.445252 0.548192 0.439383
v 0.448024 0.545525 0.440262
v 0.450390 0.541036 0.437248
v 0.450390 0.542539 0.441251
v 0.392150 0.520017 0.445141
v 0.392150 0.521520 0.449145
v 0.391665 0.525185 0.447899
v 0.391712 0.528871 0.446638
v 0.391712 0.525229 0.448005
v 0.392213 0.521615 0.449363
v 0.393207 0.518087 0.450687
v 0.394678 0.514701 0.451959
v 0.396602 0.511509 0.453158
v 0.398951 0.508562 0.454265
v 0.401687 0.505907 0.455261
v 0.404765 0.503585 0.456133
v 0.408139 0.501634 0.456865
v 0.411755 0.500083 0.457448
v 0.415556 0.498957 0.457871
v 0.419481 0.498274 0.458128
v 0.423469 0.498046 0.458214
v 0.427458 0.498274 0.458128
v 0.431383 0.498957 0.457871
v 0.435184 0.500083 0.457448
v 0.438800 0.501634 0.456865
v 0.442174 0.503585 0.456133
v 0.445252 0.505907 0.455261
v 0.447988 0.508562 0.454265
v 0.450336 0.511509 0.453158
v 0.452261 0.514701 0.451959
v 0.453732 0.518087 0.450687
v 0.454726 0.521615 0.449363
v 0.455227 0.525229 0.448005
v 0.455227 0.528871 0.446638
v 0.454726 0.532484 0.445281
v 0.453732 0.536012 0.443956
v 0.452261 0.539398 0.442685
v 0.450336 0.542590 0.441487
v 0.447988 0.545537 0.440380
v 0.450376 0.542574 0.441370
v 0.452319 0.537837 0.438449
v 0.452319 0.539341 0.442452
v 0.393146 0.516482 0.446469
v 0.393146 0.517985 0.450472
v 0.392166 0.521566 0.449258
v 0.393162 0.518033 0.450586
v 0.394635 0.514641 0.451859
v 0.396563 0.511445 0.453060
v 0.398915 0.508493 0.454168
v 0.401654 0.505834 0.455166
v 0.404738 0.503509 0.456040
v 0.408117 0.501554 0.456774
v 0.411738 0.500001 0.457357
v 0.415544 0.498874 0.457780
v 0.419475 0.498190 0.458036
v 0.423469 0.497961 0.458123
v 0.427464 0.498190 0.458036
v 0.431395 0.498874 0.457780
v 0.435201 0.500001 0.457357
v 0.438822 0.501554 0.456774
v 0.442201 0.503509 0.456040
v 0.445284 0.505834 0.455166
v 0.448024 0.508493 0.454168
v 0.450376 0.511445 0.453060
v 0.452304 0.514641 0.451859
v 0.453777 0.518033 0.450586
v 0.454773 0.521566 0.449258
v 0.455274 0.525185 0.447899
v 0.455274 0.528833 0.446529
v 0.454773 0.532452 0.445170
v 0.453777 0.535986 0.443844
v 0.452304 0.539377 0.442571
v 0.453793 0.534444 0.439723
v 0.453793 0.535947 0.443727
v 0.394620 0.513088 0.447742
v 0.394620 0.514591 0.451747
v 0.396549 0.511393 0.452948
v 0.398903 0.508440 0.454056
v 0.401643 0.505780 0.455055
v 0.404729 0.503453 0.455929
v 0.408109 0.501497 0.456664
v 0.411732 0.499943 0.457247
v 0.415540 0.498816 0.457670
v 0.419473 0.498132 0.457928
v 0.423469 0.497902 0.458013
v 0.427466 0.498132 0.457928
v 0.431399 0.498816 0.457670
v 0.435207 0.499943 0.457247
v 0.438830 0.501497 0.456664
v 0.442210 0.503453 0.455929
v 0.445295 0.505780 0.455055
v 0.448036 0.508440 0.454056
v 0.450390 0.511393 0.452948
v 0.452319 0.514591 0.451747
v 0.453793 0.517985 0.450472
v 0.454789 0.521520 0.449145
v 0.455290 0.525141 0.447785
v 0.455290 0.528791 0.446415
v 0.454789 0.532412 0.445054
v 0.454789 0.530909 0.441051
v 0.396549 0.509890 0.448944
v 0.398903 0.506937 0.450052
v 0.401643 0.504276 0.451052
v 0.404729 0.501950 0.451925
v 0.408109 0.499994 0.452659
v 0.411732 0.498440 0.453243
v 0.415540 0.497312 0.453667
v 0.419473 0.496628 0.453924
v 0.423469 0.496399 0.454010
v 0.427466 0.496628 0.453924
v 0.431399 0.497312 0.453667
v 0.435207 0.498440 0.453243
v 0.438830 0.499994 0.452659
v 0.442210 0.501950 0.451925
v 0.445295 0.504276 0.451052
v 0.448036 0.506937 0.450052
v 0.450390 0.509890 0.448944
v 0.452319 0.513088 0.447742
v 0.453793 0.516482 0.446469
v 0.454789 0.520017 0.445141
v 0.455290 0.523638 0.443781
v 0.455290 0.527288 0.442411
vn -0.3590041040449226 0.8945945100794547 -0.2661141029983247
vn -0.24258479114935708 0.9082089668642326 -0.3410411875572009
vn -0.3597733953856076 0.8734858887968187 -0.3280022957930982
vn -0.242066088345818 0.9292432552619284 -0.2791253865616116
vn -0.4709999808472477 0.8465351655764778 -0.24806698991259896
vn -0.47200918833134303 0.8253234795969723 -0.309916892338467
vn -0.34759439099620165 0.9346102757906263 -0.07537752804748248
vn -0.23437269973232175 0.9681580988942617 -0.08797347989952484
vn -0.12184970026013144 0.950155802028445 -0.28697840061265706
vn -0.12211079618376845 0.9291663709615028 -0.3489108890957654
vn -0.5776070158499265 0.7642114209704775 -0.286968707874615
vn -0.5763720085844933 0.7855539117000517 -0.2251674033536465
vn -0.4560310126985398 0.8880780247292264 -0.057906281612445445
vn -0.3118878037188909 0.9324623111185034 0.18231850217393136
vn -0.21029650760682647 0.9625632348177512 0.17101870618607357
vn -0.11797710283084338 0.9884061237166608 -0.0955758222933277
vn 0 0.9571466758541329 -0.2896035926941918
vn 0 0.9361722540249108 -0.3515416202868696
vn -0.6748765109384491 0.690830211197028 -0.2594134042045918
vn -0.6734334833458083 0.7123297823838923 -0.19767049511155516
vn -0.5580546118641108 0.8290343176250761 -0.03573724075976521
vn -0.4091862940654198 0.8907107870816918 0.19799209712844754
vn -0.2550805931433241 0.8672134766889292 0.42763848850489394
vn -0.17199230458398626 0.8918296237692886 0.4184000111513126
vn -0.10585760282491126 0.9807308261717391 0.16419870438179954
vn 0 0.9951748659211359 -0.0981172066400647
vn 0.12211079618376845 0.9291663709615028 -0.3489108890957654
vn 0.12184970026013144 0.950155802028445 -0.28697840061265706
vn -0.762149358573594 0.6060790670567491 -0.22758848762949402
vn -0.7605196566535332 0.6277600642202794 -0.16591309054364167
vn -0.6520319076108072 0.7581367088493097 -0.0091171351064191
vn -0.500730907671155 0.8377330128339986 0.21788060333791254
vn -0.3346591086896732 0.8330691216312606 0.4404533114366987
vn -0.18101359575148696 0.7432844825546041 0.6440203848844007
vn -0.12205000077490764 0.7607482048300662 0.6374684040473508
vn -0.08657606965546297 0.9066866963917609 0.41282419835713025
vn 0 0.9868040854099783 0.16191879760601058
vn 0.11797710283084338 0.9884061237166608 -0.0955758222933277
vn 0.242066088345818 0.9292432552619284 -0.2791253865616116
vn 0.24258479114935708 0.9082089668642326 -0.3410411875572009
vn -0.8378209051841216 0.5110987031624872 -0.19192250118754436
vn -0.8360293715109621 0.5329829818377524 -0.1303227955590422
vn -0.7363509862906614 0.6762539874095438 0.02162797959733172
vn -0.5850565239377344 0.774118631673258 0.24176270989178208
vn -0.4095332989756364 0.7897430980246195 0.45671469885762195
vn -0.23748880338754863 0.7190600102566971 0.6531093093159742
vn -0.06382875031429876 0.5781218028467258 0.8134501040055047
vn -0.09466863564923128 0.5689969738501116 0.816872262458292
vn -0.061436050288821556 0.7712882036259598 0.6335141029782602
vn 0 0.9116532509635494 0.410960277895068
vn 0.10585760282491126 0.9807308261717391 0.16419870438179954
vn 0.23437269973232175 0.9681580988942617 -0.08797347989952484
vn 0.3597733953856076 0.8734858887968187 -0.3280022957930982
vn 0.3590041040449226 0.8945945100794547 -0.2661141029983247
vn -0.9004053816071403 0.407283491680294 -0.15293889687586967
vn -0.8984800021734332 0.42938990103869895 -0.09142209022115096
vn -0.8094616822511168 0.5844880871840619 0.05608440877024999
vn -0.660716490893642 0.7006470903432963 0.2693461962877227
vn -0.47850439907937187 0.7377172985806539 0.47624229908372423
vn -0.2906281059087789 0.6883199139942768 0.6646435135129107
vn -0.12421089559232365 0.5563379802581104 0.8216201708444597
vn -0.0164522797023341 0.41232759253988693 0.9108870835196079
vn -0.024403251165536127 0.4099801195812694 0.9117679435474139
vn -0.032128598535334174 0.5836284733937761 0.8113849630109038
vn 0 0.7748115136709525 0.6321923111545468
vn 0.08657606965546297 0.9066866963917609 0.41282419835713025
vn 0.21029650760682647 0.9625632348177512 0.17101870618607357
vn 0.34759439099620165 0.9346102757906263 -0.07537752804748248
vn 0.4709999808472477 0.8465351655764778 -0.24806698991259896
vn 0.47200918833134303 0.8253234795969723 -0.309916892338467
vn -0.9486000318844587 0.29627740995851204 -0.11125500373951654
vn -0.9465715745941939 0.31862129144826346 -0.049826968662653306
vn -0.8699282285497328 0.4841864158902681 0.09374642307661636
vn -0.7263195227686285 0.618307219382664 0.30026010941253917
vn -0.5403893374004175 0.6776286468987682 0.4987973345218297
vn -0.3395808234078435 0.6514052449023942 0.6784954467697648
vn -0.15201270063160519 0.5402716022448013 0.8276465034388301
vn -0.03202163086406038 0.40672261097485907 0.9129903246358086
vn 0.03919345982986469 0.2988758987026062 0.9534867958609989
vn 0 0.40959327489402575 0.9122682440826201
vn 0.03202163096767903 0.29474090890693505 0.9550405288608876
vn -0.007662127347468426 0.4091516185545424 0.9124342413778153
vn 0.04580387910145582 0.30384439403942143 0.951619981331874
vn -0.015219930082688474 0.40783070221570633 0.9129307049598683
vn -0.022568589683017296 0.4056430943026192 0.913752887166063
vn -0.029602480132217106 0.4026105017982273 0.9148926040862946
vn 0.0517389497246085 0.3095865983521596 0.9494625949462848
vn -0.03621545998272646 0.3987653998098023 0.9163375995629384
vn -0.0423017390818222 0.39415209144475577 0.9180711800728625
vn 0.05688852993123852 0.3160263996180169 0.9470432988553036
vn -0.047757589899470085 0.3888287991815136 0.9200713980632461
vn 0.06115018954744652 0.32306969760906173 0.9443974930108088
vn -0.05248393950696656 0.38286819640334097 0.9223108913358238
vn -0.05638959741164254 0.3763584827246452 0.9247564575524497
vn 0.06443374857963913 0.3306050927122267 0.9415670792443391
vn -0.059395059394683175 0.36940279623528044 0.9273692905488397
vn 0.06666611115840596 0.33850500588194204 0.9386000163093338
vn -0.06143637962620188 0.3621175977967632 0.9301055943409473
vn 0.06779565218998629 0.34662941119708446 0.9355489302208073
vn -0.06246861735443929 0.3546300849813318 0.9329175604907208
vn 0.06779565116448312 0.3548295060946823 0.9324697160164439
vn -0.06246862175136299 0.3470743097305346 0.9357548262347132
vn -0.06143638210259279 0.3395865116219757 0.9385662321214
vn 0.06666610672476152 0.36295408216843233 0.9294191543385758
vn -0.059395060387993075 0.3323009021707266 0.9413014061489698
vn 0.06443374869076962 0.37085439246460344 0.9264530811753852
vn -0.05638960120546843 0.32534470695505474 0.9439126201784878
vn 0.06115018868612902 0.3783902918699182 0.9236240801550429
vn -0.05248393848853465 0.31883419081801295 0.9463562727462391
vn 0.05688853034772543 0.3854342023559277 0.920980005629398
vn -0.04775759013507261 0.31287280088489666 0.9485936026829037
vn -0.042301739364008634 0.3075486953761163 0.9505915857081991
vn 0.05173895130470238 0.3918747098819138 0.9185626231634159
vn -0.036215459497525505 0.3029345957969078 0.9523229867869133
vn 0.04580388029799582 0.3976177025868639 0.9164072059620608
vn -0.02960248088739595 0.299088708965806 0.953766028591121
vn -0.02256858954262894 0.2960554940001913 0.9549040806480822
vn 0.03919346082604782 0.4025869084849877 0.9145423192750444
vn -0.015219930223147275 0.2938674043085419 0.9557250140123792
vn -0.0076621269447058995 0.2925461978888263 0.9562206930993884
vn 0 0.2921045021871016 0.956386407160843
vn 0.03202163086406038 0.40672261097485907 0.9129903246358086
vn 0.008280977682411731 0.2877206889654675 0.9576785632715499
vn -0.008280977682411731 0.2877206889654675 0.9576785632715499
vn 0 0.2872474069186811 0.9578564230710643
vn -0.01645228001921299 0.28913680033765404 0.9571464011177565
vn 0.01645228001921299 0.28913680033765404 0.9571464011177565
vn -0.02440325017964291 0.2914839021457392 0.9562644070394771
vn 0.02440325017964291 0.2914839021457392 0.9562644070394771
vn -0.03202163096767903 0.29474090890693505 0.9550405288608876
vn -0.03919345982986469 0.2988758987026062 0.9534867958609989
vn 0.007662127347468426 0.4091516185545424 0.9124342413778153
vn -0.04580387910145582 0.30384439403942143 0.951619981331874
vn 0.015219930082688474 0.40783070221570633 0.9129307049598683
vn 0.022568589683017296 0.4056430943026192 0.913752887166063
vn 0.029602480132217106 0.4026105017982273 0.9148926040862946
vn -0.0517389497246085 0.3095865983521596 0.9494625949462848
vn 0.03621545998272646 0.3987653998098023 0.9163375995629384
vn 0.0423017390818222 0.39415209144475577 0.9180711800728625
vn -0.05688852993123852 0.3160263996180169 0.9470432988553036
vn 0.047757589899470085 0.3888287991815136 0.9200713980632461
vn -0.06115018954744652 0.32306969760906173 0.9443974930108088
vn 0.05248393950696656 0.38286819640334097 0.9223108913358238
vn 0.05638959741164254 0.3763584827246452 0.9247564575524497
vn -0.06443374857963913 0.3306050927122267 0.9415670792443391
vn 0.059395059394683175 0.36940279623528044 0.9273692905488397
vn -0.06666611115840596 0.33850500588194204 0.9386000163093338
vn 0.06143637962620188 0.3621175977967632 0.9301055943409473
vn -0.06779565218998629 0.34662941119708446 0.9355489302208073
vn 0.06246861735443929 0.3546300849813318 0.9329175604907208
vn -0.06779565116448312 0.3548295060946823 0.9324697160164439
vn 0.06246862175136299 0.3470743097305346 0.9357548262347132
vn 0.06143638210259279 0.3395865116219757 0.9385662321214
vn -0.06666610672476152 0.36295408216843233 0.9294191543385758
vn 0.059395060387993075 0.3323009021707266 0.9413014061489698
vn -0.06443374869076962 0.37085439246460344 0.9264530811753852
vn 0.05638960120546843 0.32534470695505474 0.9439126201784878
vn -0.06115018868612902 0.3783902918699182 0.9236240801550429
vn 0.05248393848853465 0.31883419081801295 0.9463562727462391
vn -0.05688853034772543 0.3854342023559277 0.920980005629398
vn 0.04775759013507261 0.31287280088489666 0.9485936026829037
vn 0.042301739364008634 0.3075486953761163 0.9505915857081991
vn -0.05173895130470238 0.3918747098819138 0.9185626231634159
vn 0.036215459497525505 0.3029345957969078 0.9523229867869133
vn -0.04580388029799582 0.3976177025868639 0.9164072059620608
vn 0.02960248088739595 0.299088708965806 0.953766028591121
vn 0.02256858954262894 0.2960554940001913 0.9549040806480822
vn -0.03919346082604782 0.4025869084849877 0.9145423192750444
vn 0.015219930223147275 0.2938674043085419 0.9557250140123792
vn 0.0076621269447058995 0.2925461978888263 0.9562206930993884
vn 0.024403251165536127 0.4099801195812694 0.9117679435474139
vn 0.0164522797023341 0.41232759253988693 0.9108870835196079
vn 0.008280978038986858 0.4137440019479073 0.910355604285956
vn -0.008280978038986858 0.4137440019479073 0.910355604285956
vn 0 0.4142173904426046 0.9101779789991179
vn 0 0.5854691763597122 0.8106946672654756
vn 0.061436050288821556 0.7712882036259598 0.6335141029782602
vn 0.17199230458398626 0.8918296237692886 0.4184000111513126
vn 0.3118878037188909 0.9324623111185034 0.18231850217393136
vn 0.4560310126985398 0.8880780247292264 -0.057906281612445445
vn 0.5776070158499265 0.7642114209704775 -0.286968707874615
vn 0.5763720085844933 0.7855539117000517 -0.2251674033536465
vn -0.9813520949942475 0.17994989908209844 -0.06757291965531907
vn -0.9792535651177948 0.20254269278518247 -0.006238012777794339
vn -0.9164920079179731 0.3769372032565244 0.13401770115783732
vn -0.7805773191454582 0.5283077129579645 0.33405090819336875
vn -0.5940496198633087 0.6102856204061938 0.5240768175236199
vn -0.3835067226842334 0.6087671360082757 0.6944963410791161
vn -0.177628804691358 0.5209744137594656 0.834885422050176
vn -0.20061900639747537 0.49868101590227937 0.8432492268901053
vn -0.22055890472184533 0.47368991014101175 0.8526263182534892
vn -0.2370546912321211 0.4463672834903317 0.862879668084899
vn -0.249760590073604 0.41714578342110625 0.8738472652701254
vn -0.25839689504984553 0.38651849259539744 0.8853442830393049
vn -0.2627660111701611 0.3550271150921726 0.897167638138521
vn -0.26276600402011757 0.3232445049453918 0.9091023139085657
vn -0.2583969006362016 0.29175440071833125 0.9209291022674289
vn -0.24976059949419857 0.2611296994711743 0.9324327981116884
vn -0.23705469785168948 0.23191169789829774 0.9434097914503394
vn -0.22055890767788397 0.20459340712210813 0.9536746331984015
vn -0.20061900755414236 0.17960710676295644 0.9630645362633965
vn -0.1776288047809069 0.15731870423425715 0.9714416261465023
vn -0.1520127061366155 0.13802640557200097 0.9786934395089693
vn -0.1242109008331614 0.12196440081809247 0.9847316066052203
vn -0.09466864456991025 0.10930910527664447 0.9894894477653187
vn -0.06382875308044647 0.10018710483514065 0.9929191479193802
vn -0.03212859871737675 0.09468221622013957 0.994988960278505
vn 0 0.09284212395810405 0.9956808424484968
vn 0.03212859871737675 0.09468221622013957 0.994988960278505
vn 0.06382875308044647 0.10018710483514065 0.9929191479193802
vn 0.09466864456991025 0.10930910527664447 0.9894894477653187
vn 0.1242109008331614 0.12196440081809247 0.9847316066052203
vn 0.1520127061366155 0.13802640557200097 0.9786934395089693
vn 0.1776288047809069 0.15731870423425715 0.9714416261465023
vn 0.20061900755414236 0.17960710676295644 0.9630645362633965
vn 0.22055890767788397 0.20459340712210813 0.9536746331984015
vn 0.23705469785168948 0.23191169789829774 0.9434097914503394
vn 0.24976059949419857 0.2611296994711743 0.9324327981116884
vn 0.2583969006362016 0.29175440071833125 0.9209291022674289
vn 0.26276600402011757 0.3232445049453918 0.9091023139085657
vn 0.2627660111701611 0.3550271150921726 0.897167638138521
vn 0.25839689504984553 0.38651849259539744 0.8853442830393049
vn 0.249760590073604 0.41714578342110625 0.8738472652701254
vn 0.2370546912321211 0.4463672834903317 0.862879668084899
vn 0.22055890472184533 0.47368991014101175 0.8526263182534892
vn 0.20061900639747537 0.49868101590227937 0.8432492268901053
vn 0.177628804691358 0.5209744137594656 0.834885422050176
vn 0.15201270063160519 0.5402716022448013 0.8276465034388301
vn 0.12421089559232365 0.5563379802581104 0.8216201708444597
vn 0.09466863564923128 0.5689969738501116 0.816872262458292
vn 0.06382875031429876 0.5781218028467258 0.8134501040055047
vn 0.032128598535334174 0.5836284733937761 0.8113849630109038
vn 0.12205000077490764 0.7607482048300662 0.6374684040473508
vn 0.2550805931433241 0.8672134766889292 0.42763848850489394
vn 0.4091862940654198 0.8907107870816918 0.19799209712844754
vn 0.5580546118641108 0.8290343176250761 -0.03573724075976521
vn 0.6734334833458083 0.7123297823838923 -0.19767049511155516
vn 0.6748765109384491 0.690830211197028 -0.2594134042045918
vn -0.997919904084786 0.060351280247035934 -0.022662480092764326
vn -0.9957859374509116 0.08319986312909691 0.0385765414508406
vn -0.9481357865953086 0.26454679625985195 0.17622009750861004
vn -0.8223601484581926 0.43207387291956767 0.37018367679856484
vn -0.6384308884523622 0.5366767902928423 0.5517100900209273
vn -0.4215970997342547 0.5609786996463982 0.7124315995509332
vn -0.45310259331550207 0.508740992494684 0.7320386892004347
vn -0.4773660131630004 0.45288151248785896 0.7530073207635974
vn -0.49385590029033294 0.39434150023182923 0.7749846004556058
vn -0.5021975914923786 0.3341540943391672 0.7975829864883183
vn -0.5021976080885329 0.2734112044036359 0.8203925132134676
vn -0.49385590849651195 0.21322540366842244 0.8429954145032599
vn -0.47736601953771096 0.15468880633112742 0.8649815354020992
vn -0.4531025933173326 0.09883398854232844 0.8859626869332154
vn -0.42159708757349906 0.046602058626412216 0.9055849733080401
vn -0.3835067142202566 -0.0011800020437541508 0.9235373342443495
vn -0.3395807932057113 -0.04381144912342638 0.939555981201485
vn -0.2906281051170339 -0.08071964142121563 0.9534252167867769
vn -0.2374887980674444 -0.11145379909304938 0.964975192147553
vn -0.18101360707998895 -0.1356732053065891 0.974077438099111
vn -0.12204999972353234 -0.1531331996531229 0.9806395977786551
vn -0.06143604776212187 -0.16367079403810483 0.9846001641348159
vn 0 -0.16719330580781927 0.9859241342481951
vn 0.06143604776212187 -0.16367079403810483 0.9846001641348159
vn 0.12204999972353234 -0.1531331996531229 0.9806395977786551
vn 0.18101360707998895 -0.1356732053065891 0.974077438099111
vn 0.2374887980674444 -0.11145379909304938 0.964975192147553
vn 0.2906281051170339 -0.08071964142121563 0.9534252167867769
vn 0.3395807932057113 -0.04381144912342638 0.939555981201485
vn 0.3835067142202566 -0.0011800020437541508 0.9235373342443495
vn 0.42159708757349906 0.046602058626412216 0.9055849733080401
vn 0.4531025933173326 0.09883398854232844 0.8859626869332154
vn 0.47736601953771096 0.15468880633112742 0.8649815354020992
vn 0.49385590849651195 0.21322540366842244 0.8429954145032599
vn 0.5021976080885329 0.2734112044036359 0.8203925132134676
vn 0.5021975914923786 0.3341540943391672 0.7975829864883183
vn 0.49385590029033294 0.39434150023182923 0.7749846004556058
vn 0.4773660131630004 0.45288151248785896 0.7530073207635974
vn 0.45310259331550207 0.508740992494684 0.7320386892004347
vn 0.4215970997342547 0.5609786996463982 0.7124315995509332
vn 0.3835067226842334 0.6087671360082757 0.6944963410791161
vn 0.3395808234078435 0.6514052449023942 0.6784954467697648
vn 0.2906281059087789 0.6883199139942768 0.6646435135129107
vn 0.23748880338754863 0.7190600102566971 0.6531093093159742
vn 0.18101359575148696 0.7432844825546041 0.6440203848844007
vn 0.3346591086896732 0.8330691216312606 0.4404533114366987
vn 0.500730907671155 0.8377330128339986 0.21788060333791254
vn 0.6520319076108072 0.7581367088493097 -0.0091171351064191
vn 0.762149358573594 0.6060790670567491 -0.22758848762949402
vn 0.7605196566535332 0.6277600642202794 -0.16591309054364167
vn -0.997919904084786 -0.060351280247035934 0.022662480092764326
vn -0.9957859373384069 -0.03724458139653846 0.08380458314237177
vn -0.9641429660418152 0.1489960947521922 0.21960989226509597
vn -0.8507550284694286 0.33122661108407464 0.40805001365487176
vn -0.6726087171828021 0.4579677116994745 0.5812599148491597
vn -0.6958356102239265 0.3754846055170027 0.6122288089954903
vn -0.7075852240351103 0.29068160987381336 0.6440709218776696
vn -0.7075852430938957 0.2050962124909257 0.6762090411829983
vn -0.6958355924461966 0.12029469869411306 0.708055092313545
vn -0.6726086680724579 0.03781435820501923 0.7390315649194806
vn -0.6384308917125855 -0.04089060946920282 0.7685921900229732
vn -0.5940496044054421 -0.11449450084908568 0.7962387059048665
vn -0.5403893157070938 -0.1818320052851757 0.8215330238788887
vn -0.47850441196484744 -0.24191480604900137 0.8441035211065344
vn -0.4095332983574971 -0.2939348988211243 0.8636461965362
vn -0.3346591055959103 -0.33725570563932883 0.8799215147133658
vn -0.25508059381066583 -0.37139569098836983 0.8927480783381554
vn -0.17199230297961274 -0.3960085068604932 0.901995515626265
vn -0.08657606736191883 -0.41086348748047535 0.9075768723449963
vn 0 -0.41582929348774345 0.9094426857573181
vn 0.08657606736191883 -0.41086348748047535 0.9075768723449963
vn 0.17199230297961274 -0.3960085068604932 0.901995515626265
vn 0.25508059381066583 -0.37139569098836983 0.8927480783381554
vn 0.3346591055959103 -0.33725570563932883 0.8799215147133658
vn 0.4095332983574971 -0.2939348988211243 0.8636461965362
vn 0.47850441196484744 -0.24191480604900137 0.8441035211065344
vn 0.5403893157070938 -0.1818320052851757 0.8215330238788887
vn 0.5940496044054421 -0.11449450084908568 0.7962387059048665
vn 0.6384308917125855 -0.04089060946920282 0.7685921900229732
vn 0.6726086680724579 0.03781435820501923 0.7390315649194806
vn 0.6958355924461966 0.12029469869411306 0.708055092313545
vn 0.7075852430938957 0.2050962124909257 0.6762090411829983
vn 0.7075852240351103 0.29068160987381336 0.6440709218776696
vn 0.6958356102239265 0.3754846055170027 0.6122288089954903
vn 0.6726087171828021 0.4579677116994745 0.5812599148491597
vn 0.6384308884523622 0.5366767902928423 0.5517100900209273
vn 0.5940496198633087 0.6102856204061938 0.5240768175236199
vn 0.5403893374004175 0.6776286468987682 0.4987973345218297
vn 0.47850439907937187 0.7377172985806539 0.47624229908372423
vn 0.4095332989756364 0.7897430980246195 0.45671469885762195
vn 0.5850565239377344 0.774118631673258 0.24176270989178208
vn 0.7363509862906614 0.6762539874095438 0.02162797959733172
vn 0.8378209051841216 0.5110987031624872 -0.19192250118754436
vn 0.8360293715109621 0.5329829818377524 -0.1303227955590422
vn -0.9813520949942475 -0.17994989908209844 0.06757291965531907
vn -0.9792535735686491 -0.15658749577349612 0.1286187965284083
vn -0.9641429745222859 0.03237899914437697 0.2634006930395722
vn -0.8651188072148097 0.2275436018976396 0.44698250372768894
vn -0.8651188159358609 0.12290390226394267 0.48627570895740785
vn -0.8507550295555971 0.019221760667772148 0.5252108182460505
vn -0.822360176354118 -0.08162364765301981 0.5630819838093203
vn -0.7805773263522168 -0.17785490600436496 0.5992217202296686
vn -0.7263195214639514 -0.2678511079154465 0.6330211187068282
vn -0.6607165197025108 -0.35018741044255913 0.6639446197987723
vn -0.5850564833123815 -0.42365518791604523 0.6915382802751915
vn -0.5007309229779066 -0.4872658223600104 0.7154303328301899
vn -0.4091862954330432 -0.5402401939703415 0.735327891792954
vn -0.31188778721218924 -0.5819887761376926 0.7510093692076251
vn -0.21029649608254325 -0.6120874885978784 0.7623150857994001
vn -0.10585759727380221 -0.6302536837687969 0.7691387801920269
vn 0 -0.6363264755910706 0.7714198704090053
vn 0.10585759727380221 -0.6302536837687969 0.7691387801920269
vn 0.21029649608254325 -0.6120874885978784 0.7623150857994001
vn 0.31188778721218924 -0.5819887761376926 0.7510093692076251
vn 0.4091862954330432 -0.5402401939703415 0.735327891792954
vn 0.5007309229779066 -0.4872658223600104 0.7154303328301899
vn 0.5850564833123815 -0.42365518791604523 0.6915382802751915
vn 0.6607165197025108 -0.35018741044255913 0.6639446197987723
vn 0.7263195214639514 -0.2678511079154465 0.6330211187068282
vn 0.7805773263522168 -0.17785490600436496 0.5992217202296686
vn 0.822360176354118 -0.08162364765301981 0.5630819838093203
vn 0.8507550295555971 0.019221760667772148 0.5252108182460505
vn 0.8651188159358609 0.12290390226394267 0.48627570895740785
vn 0.8651188072148097 0.2275436018976396 0.44698250372768894
vn 0.8507550284694286 0.33122661108407464 0.40805001365487176
vn 0.8223601484581926 0.43207387291956767 0.37018367679856484
vn 0.7805773191454582 0.5283077129579645 0.33405090819336875
vn 0.7263195227686285 0.618307219382664 0.30026010941253917
vn 0.660716490893642 0.7006470903432963 0.2693461962877227
vn 0.8094616822511168 0.5844880871840619 0.05608440877024999
vn 0.9004053816071403 0.407283491680294 -0.15293889687586967
vn 0.8984800021734332 0.42938990103869895 -0.09142209022115096
vn -0.9486000318844587 -0.29627740995851204 0.11125500373951654
vn -0.9465715624460236 -0.2726663891823212 0.17220719316790703
vn -0.9481357773019539 -0.08317130800890742 0.30679159265551426
vn -0.9164920003266149 -0.19556090006969315 0.3489962001243735
vn -0.8699282082847873 -0.30280890288380974 0.38927070370723116
vn -0.8094616794844934 -0.4031090897833495 0.42693658917945015
vn -0.7363509884907827 -0.4948732922650961 0.4613974927883249
vn -0.6520319040250125 -0.5767543035603218 0.4921472030380394
vn -0.5580545993384793 -0.6476501992322724 0.5187718993850451
vn -0.4560310024526876 -0.7066923038008281 0.5409452029093844
vn -0.34759438887461436 -0.7532231758917332 0.5584200821267573
vn -0.2343727107805895 -0.7867699361895535 0.5710188262655131
vn -0.11797710123710138 -0.8070173084623392 0.5786229060674077
vn 0 -0.8137858462775955 0.5811648616341644
vn 0.11797710123710138 -0.8070173084623392 0.5786229060674077
vn 0.2343727107805895 -0.7867699361895535 0.5710188262655131
vn 0.34759438887461436 -0.7532231758917332 0.5584200821267573
vn 0.4560310024526876 -0.7066923038008281 0.5409452029093844
vn 0.5580545993384793 -0.6476501992322724 0.5187718993850451
vn 0.6520319040250125 -0.5767543035603218 0.4921472030380394
vn 0.7363509884907827 -0.4948732922650961 0.4613974927883249
vn 0.8094616794844934 -0.4031090897833495 0.42693658917945015
vn 0.8699282082847873 -0.30280890288380974 0.38927070370723116
vn 0.9164920003266149 -0.19556090006969315 0.3489962001243735
vn 0.9481357773019539 -0.08317130800890742 0.30679159265551426
vn 0.9641429745222859 0.03237899914437697 0.2634006930395722
vn 0.9641429660418152 0.1489960947521922 0.21960989226509597
vn 0.9481357865953086 0.26454679625985195 0.17622009750861004
vn 0.9164920079179731 0.3769372032565244 0.13401770115783732
vn 0.8699282285497328 0.4841864158902681 0.09374642307661636
vn 0.9486000318844587 0.29627740995851204 -0.11125500373951654
vn 0.9465715745941939 0.31862129144826346 -0.049826968662653306
vn -0.9004053816071403 -0.407283491680294 0.15293889687586967
vn -0.8984799905262744 -0.38343529595699316 0.21380149774564064
vn -0.8360293752076579 -0.48702868555722784 0.252701292506176
vn -0.760519691583458 -0.581806093561251 0.2882905968095369
vn -0.673433476320884 -0.6663762765690279 0.3200468887465834
vn -0.5763719932055886 -0.7396007912814084 0.34754279590308196
vn -0.4709999976394139 -0.8005823959875932 0.3704413981433994
vn -0.35900409346123946 -0.848641984543166 0.38848789292423286
vn -0.24206608629274562 -0.8832909499826932 0.40149857726470783
vn -0.12184970082524293 -0.9042036061238365 0.40935130277238463
vn 0 -0.9111945132181476 0.41197640597629226
vn 0.12184970082524293 -0.9042036061238365 0.40935130277238463
vn 0.24206608629274562 -0.8832909499826932 0.40149857726470783
vn 0.35900409346123946 -0.848641984543166 0.38848789292423286
vn 0.4709999976394139 -0.8005823959875932 0.3704413981433994
vn 0.5763719932055886 -0.7396007912814084 0.34754279590308196
vn 0.673433476320884 -0.6663762765690279 0.3200468887465834
vn 0.760519691583458 -0.581806093561251 0.2882905968095369
vn 0.8360293752076579 -0.48702868555722784 0.252701292506176
vn 0.8984799905262744 -0.38343529595699316 0.21380149774564064
vn 0.9465715624460236 -0.2726663891823212 0.17220719316790703
vn 0.9792535735686491 -0.15658749577349612 0.1286187965284083
vn 0.9957859373384069 -0.03724458139653846 0.08380458314237177
vn 0.9957859374509116 0.08319986312909691 0.0385765414508406
vn 0.9792535651177948 0.20254269278518247 -0.006238012777794339
vn 0.9813520949942475 0.17994989908209844 -0.06757291965531907
vn -0.8378209051841216 -0.5110987031624872 0.19192250118754436
vn -0.762149358573594 -0.6060790670567491 0.22758848762949402
vn -0.6748765109384491 -0.690830211197028 0.2594134042045918
vn -0.5776070158499265 -0.7642114209704775 0.286968707874615
vn -0.47200918833134303 -0.8253234795969723 0.309916892338467
vn -0.3597733953856076 -0.8734858887968187 0.3280022957930982
vn -0.24258479114935708 -0.9082089668642326 0.3410411875572009
vn -0.12211079618376845 -0.9291663709615028 0.3489108890957654
vn 0 -0.9361722540249108 0.3515416202868696
vn 0.12211079618376845 -0.9291663709615028 0.3489108890957654
vn 0.24258479114935708 -0.9082089668642326 0.3410411875572009
vn 0.3597733953856076 -0.8734858887968187 0.3280022957930982
vn 0.47200918833134303 -0.8253234795969723 0.309916892338467
vn 0.5776070158499265 -0.7642114209704775 0.286968707874615
vn 0.6748765109384491 -0.690830211197028 0.2594134042045918
vn 0.762149358573594 -0.6060790670567491 0.22758848762949402
vn 0.8378209051841216 -0.5110987031624872 0.19192250118754436
vn 0.9004053816071403 -0.407283491680294 0.15293889687586967
vn 0.9486000318844587 -0.29627740995851204 0.11125500373951654
vn 0.9813520949942475 -0.17994989908209844 0.06757291965531907
vn 0.997919904084786 -0.060351280247035934 0.022662480092764326
vn 0.997919904084786 0.060351280247035934 -0.022662480092764326
usemtl material_0_0
f 1//1 2//2 3//3
f 2//2 1//1 4//4
f 5//5 3//3 6//6
f 3//3 5//5 1//1
f 7//7 4//4 1//1
f 4//4 7//7 8//8
f 9//9 2//2 4//4
f 2//2 9//9 10//10
f 5//5 11//11 12//12
f 11//11 5//5 6//6
f 13//13 1//1 5//5
f 1//1 13//13 7//7
f 14//14 8//8 7//7
f 8//8 14//14 15//15
f 8//8 9//9 4//4
f 9//9 8//8 16//16
f 17//17 10//10 9//9
f 10//10 17//17 18//18
f 12//12 19//19 20//20
f 19//19 12//12 11//11
f 21//21 5//5 12//12
f 5//5 21//21 13//13
f 22//22 7//7 13//13
f 7//7 22//22 14//14
f 23//23 15//15 14//14
f 15//15 23//23 24//24
f 15//15 16//16 8//8
f 16//16 15//15 25//25
f 16//16 17//17 9//9
f 17//17 16//16 26//26
f 17//17 27//27 18//18
f 27//27 17//17 28//28
f 20//20 29//29 30//30
f 29//29 20//20 19//19
f 31//31 12//12 20//20
f 12//12 31//31 21//21
f 32//32 13//13 21//21
f 13//13 32//32 22//22
f 33//33 14//14 22//22
f 14//14 33//33 23//23
f 34//34 24//24 23//23
f 24//24 34//34 35//35
f 24//24 25//25 15//15
f 25//25 24//24 36//36
f 25//25 26//26 16//16
f 26//26 25//25 37//37
f 38//38 17//17 26//26
f 17//17 38//38 28//28
f 39//39 27//27 28//28
f 27//27 39//39 40//40
f 30//30 41//41 42//42
f 41//41 30//30 29//29
f 31//31 30//30 43//43
f 30//30 31//31 20//20
f 44//44 21//21 31//31
f 21//21 44//44 32//32
f 45//45 22//22 32//32
f 22//22 45//45 33//33
f 46//46 23//23 33//33
f 23//23 46//46 34//34
f 47//47 34//34 48//48
f 34//34 47//47 35//35
f 35//35 36//36 24//24
f 36//36 35//35 49//49
f 36//36 37//37 25//25
f 37//37 36//36 50//50
f 51//51 26//26 37//37
f 26//26 51//51 38//38
f 52//52 28//28 38//38
f 28//28 52//52 39//39
f 39//39 53//53 40//40
f 53//53 39//39 54//54
f 42//42 55//55 56//56
f 55//55 42//42 41//41
f 43//43 42//42 57//57
f 42//42 43//43 30//30
f 58//58 31//31 43//43
f 31//31 58//58 44//44
f 59//59 32//32 44//44
f 32//32 59//59 45//45
f 60//60 33//33 45//45
f 33//33 60//60 46//46
f 48//48 46//46 61//61
f 46//46 48//48 34//34
f 62//62 48//48 63//63
f 48//48 62//62 47//47
f 64//64 35//35 47//47
f 35//35 64//64 49//49
f 49//49 50//50 36//36
f 50//50 49//49 65//65
f 66//66 37//37 50//50
f 37//37 66//66 51//51
f 67//67 38//38 51//51
f 38//38 67//67 52//52
f 68//68 39//39 52//52
f 39//39 68//68 54//54
f 69//69 53//53 54//54
f 53//53 69//69 70//70
f 56//56 71//71 72//72
f 71//71 56//56 55//55
f 57//57 56//56 73//73
f 56//56 57//57 42//42
f 58//58 57//57 74//74
f 57//57 58//58 43//43
f 75//75 44//44 58//58
f 44//44 75//75 59//59
f 76//76 45//45 59//59
f 45//45 76//76 60//60
f 61//61 60//60 77//77
f 60//60 61//61 46//46
f 63//63 61//61 78//78
f 61//61 63//63 48//48
f 79//79 80//80 81//81
f 80//80 79//79 82//82
f 82//82 79//79 83//83
f 82//82 83//83 84//84
f 84//84 83//83 85//85
f 85//85 83//83 86//86
f 86//86 83//83 87//87
f 86//86 87//87 88//88
f 88//88 87//87 89//89
f 89//89 87//87 90//90
f 89//89 90//90 91//91
f 91//91 90//90 92//92
f 91//91 92//92 93//93
f 93//93 92//92 94//94
f 94//94 92//92 95//95
f 94//94 95//95 96//96
f 96//96 95//95 97//97
f 96//96 97//97 98//98
f 98//98 97//97 99//99
f 98//98 99//99 100//100
f 100//100 99//99 101//101
f 100//100 101//101 102//102
f 102//102 101//101 103//103
f 103//103 101//101 104//104
f 103//103 104//104 105//105
f 105//105 104//104 106//106
f 105//105 106//106 107//107
f 107//107 106//106 108//108
f 107//107 108//108 109//109
f 109//109 108//108 110//110
f 109//109 110//110 111//111
f 111//111 110//110 112//112
f 112//112 110//110 113//113
f 112//112 113//113 114//114
f 114//114 113//113 115//115
f 114//114 115//115 116//116
f 116//116 115//115 117//117
f 117//117 115//115 118//118
f 117//117 118//118 119//119
f 119//119 118//118 120//120
f 120//120 118//118 121//121
f 121//121 118//118 122//122
f 123//123 124//124 125//125
f 124//124 123//123 126//126
f 126//126 123//123 127//127
f 126//126 127//127 128//128
f 128//128 127//127 129//129
f 128//128 129//129 130//130
f 130//130 129//129 81//81
f 130//130 81//81 131//131
f 131//131 81//81 80//80
f 131//131 80//80 132//132
f 131//131 132//132 133//133
f 133//133 132//132 134//134
f 133//133 134//134 135//135
f 133//133 135//135 136//136
f 133//133 136//136 137//137
f 137//137 136//136 138//138
f 137//137 138//138 139//139
f 137//137 139//139 140//140
f 140//140 139//139 141//141
f 140//140 141//141 142//142
f 142//142 141//141 143//143
f 142//142 143//143 144//144
f 142//142 144//144 145//145
f 145//145 144//144 146//146
f 145//145 146//146 147//147
f 147//147 146//146 148//148
f 147//147 148//148 149//149
f 149//149 148//148 150//150
f 149//149 150//150 151//151
f 151//151 150//150 152//152
f 151//151 152//152 153//153
f 151//151 153//153 154//154
f 154//154 153//153 155//155
f 154//154 155//155 156//156
f 156//156 155//155 157//157
f 156//156 157//157 158//158
f 158//158 157//157 159//159
f 158//158 159//159 160//160
f 160//160 159//159 161//161
f 160//160 161//161 162//162
f 160//160 162//162 163//163
f 163//163 162//162 164//164
f 163//163 164//164 165//165
f 165//165 164//164 166//166
f 165//165 166//166 167//167
f 165//165 167//167 168//168
f 168//168 167//167 169//169
f 168//168 169//169 170//170
f 168//168 170//170 121//121
f 168//168 121//121 78//78
f 78//78 121//121 122//122
f 78//78 122//122 171//171
f 78//78 171//171 63//63
f 63//63 171//171 172//172
f 63//63 172//172 62//62
f 62//62 172//172 173//173
f 62//62 173//173 174//174
f 174//174 173//173 175//175
f 174//174 47//47 62//62
f 47//47 174//174 64//64
f 176//176 49//49 64//64
f 49//49 176//176 65//65
f 177//177 50//50 65//65
f 50//50 177//177 66//66
f 178//178 51//51 66//66
f 51//51 178//178 67//67
f 179//179 52//52 67//67
f 52//52 179//179 68//68
f 180//180 54//54 68//68
f 54//54 180//180 69//69
f 69//69 181//181 70//70
f 181//181 69//69 182//182
f 72//72 183//183 184//184
f 183//183 72//72 71//71
f 73//73 72//72 185//185
f 72//72 73//73 56//56
f 74//74 73//73 186//186
f 73//73 74//74 57//57
f 187//187 58//58 74//74
f 58//58 187//187 75//75
f 188//188 59//59 75//75
f 59//59 188//188 76//76
f 77//77 76//76 189//189
f 76//76 77//77 60//60
f 78//78 77//77 168//168
f 77//77 78//78 61//61
f 165//165 190//190 163//163
f 190//190 165//165 189//189
f 163//163 191//191 160//160
f 191//191 163//163 190//190
f 160//160 192//192 158//158
f 192//192 160//160 191//191
f 158//158 193//193 156//156
f 193//193 158//158 192//192
f 156//156 194//194 154//154
f 194//194 156//156 193//193
f 154//154 195//195 151//151
f 195//195 154//154 194//194
f 149//149 195//195 196//196
f 195//195 149//149 151//151
f 147//147 196//196 197//197
f 196//196 147//147 149//149
f 145//145 197//197 198//198
f 197//197 145//145 147//147
f 142//142 198//198 199//199
f 198//198 142//142 145//145
f 140//140 199//199 200//200
f 199//199 140//140 142//142
f 137//137 200//200 201//201
f 200//200 137//137 140//140
f 133//133 201//201 202//202
f 201//201 133//133 137//137
f 131//131 202//202 203//203
f 202//202 131//131 133//133
f 130//130 203//203 204//204
f 203//203 130//130 131//131
f 128//128 204//204 205//205
f 204//204 128//128 130//130
f 126//126 205//205 206//206
f 205//205 126//126 128//128
f 124//124 206//206 207//207
f 206//206 124//124 126//126
f 125//125 207//207 208//208
f 207//207 125//125 124//124
f 209//209 125//125 208//208
f 125//125 209//209 123//123
f 210//210 123//123 209//209
f 123//123 210//210 127//127
f 211//211 127//127 210//210
f 127//127 211//211 129//129
f 212//212 129//129 211//211
f 129//129 212//212 81//81
f 213//213 81//81 212//212
f 81//81 213//213 79//79
f 214//214 79//79 213//213
f 79//79 214//214 83//83
f 215//215 83//83 214//214
f 83//83 215//215 87//87
f 216//216 87//87 215//215
f 87//87 216//216 90//90
f 217//217 90//90 216//216
f 90//90 217//217 92//92
f 218//218 92//92 217//217
f 92//92 218//218 95//95
f 219//219 95//95 218//218
f 95//95 219//219 97//97
f 220//220 97//97 219//219
f 97//97 220//220 99//99
f 221//221 99//99 220//220
f 99//99 221//221 101//101
f 221//221 104//104 101//101
f 104//104 221//221 222//222
f 222//222 106//106 104//104
f 106//106 222//222 223//223
f 223//223 108//108 106//106
f 108//108 223//223 224//224
f 224//224 110//110 108//108
f 110//110 224//224 225//225
f 225//225 113//113 110//110
f 113//113 225//225 226//226
f 226//226 115//115 113//113
f 115//115 226//226 227//227
f 227//227 118//118 115//115
f 118//118 227//227 228//228
f 228//228 122//122 118//118
f 122//122 228//228 229//229
f 229//229 171//171 122//122
f 171//171 229//229 230//230
f 230//230 172//172 171//171
f 172//172 230//230 231//231
f 231//231 173//173 172//172
f 173//173 231//231 232//232
f 232//232 175//175 173//173
f 175//175 232//232 176//176
f 175//175 64//64 174//174
f 64//64 175//175 176//176
f 168//168 189//189 165//165
f 189//189 168//168 77//77
f 177//177 176//176 232//232
f 176//176 177//177 65//65
f 233//233 66//66 177//177
f 66//66 233//233 178//178
f 234//234 67//67 178//178
f 67//67 234//234 179//179
f 235//235 68//68 179//179
f 68//68 235//235 180//180
f 236//236 69//69 180//180
f 69//69 236//236 182//182
f 237//237 181//181 182//182
f 181//181 237//237 238//238
f 184//184 239//239 240//240
f 239//239 184//184 183//183
f 185//185 184//184 241//241
f 184//184 185//185 72//72
f 186//186 185//185 242//242
f 185//185 186//186 73//73
f 187//187 186//186 243//243
f 186//186 187//187 74//74
f 244//244 75//75 187//187
f 75//75 244//244 188//188
f 189//189 188//188 190//190
f 188//188 189//189 76//76
f 190//190 244//244 191//191
f 244//244 190//190 188//188
f 191//191 245//245 192//192
f 245//245 191//191 244//244
f 192//192 246//246 193//193
f 246//246 192//192 245//245
f 193//193 247//247 194//194
f 247//247 193//193 246//246
f 195//195 247//247 248//248
f 247//247 195//195 194//194
f 196//196 248//248 249//249
f 248//248 196//196 195//195
f 197//197 249//249 250//250
f 249//249 197//197 196//196
f 198//198 250//250 251//251
f 250//250 198//198 197//197
f 199//199 251//251 252//252
f 251//251 199//199 198//198
f 200//200 252//252 253//253
f 252//252 200//200 199//199
f 201//201 253//253 254//254
f 253//253 201//201 200//200
f 202//202 254//254 255//255
f 254//254 202//202 201//201
f 203//203 255//255 256//256
f 255//255 203//203 202//202
f 204//204 256//256 257//257
f 256//256 204//204 203//203
f 205//205 257//257 258//258
f 257//257 205//205 204//204
f 206//206 258//258 259//259
f 258//258 206//206 205//205
f 207//207 259//259 260//260
f 259//259 207//207 206//206
f 208//208 260//260 261//261
f 260//260 208//208 207//207
f 262//262 208//208 261//261
f 208//208 262//262 209//209
f 263//263 209//209 262//262
f 209//209 263//263 210//210
f 264//264 210//210 263//263
f 210//210 264//264 211//211
f 265//265 211//211 264//264
f 211//211 265//265 212//212
f 266//266 212//212 265//265
f 212//212 266//266 213//213
f 267//267 213//213 266//266
f 213//213 267//267 214//214
f 268//268 214//214 267//267
f 214//214 268//268 215//215
f 269//269 215//215 268//268
f 215//215 269//269 216//216
f 270//270 216//216 269//269
f 216//216 270//270 217//217
f 271//271 217//217 270//270
f 217//217 271//271 218//218
f 272//272 218//218 271//271
f 218//218 272//272 219//219
f 273//273 219//219 272//272
f 219//219 273//273 220//220
f 274//274 220//220 273//273
f 220//220 274//274 221//221
f 275//275 221//221 274//274
f 221//221 275//275 222//222
f 275//275 223//223 222//222
f 223//223 275//275 276//276
f 276//276 224//224 223//223
f 224//224 276//276 277//277
f 277//277 225//225 224//224
f 225//225 277//277 278//278
f 278//278 226//226 225//225
f 226//226 278//278 279//279
f 279//279 227//227 226//226
f 227//227 279//279 280//280
f 280//280 228//228 227//227
f 228//228 280//280 281//281
f 281//281 229//229 228//228
f 229//229 281//281 282//282
f 282//282 230//230 229//229
f 230//230 282//282 283//283
f 283//283 231//231 230//230
f 231//231 283//283 233//233
f 233//233 232//232 231//231
f 232//232 233//233 177//177
f 283//283 178//178 233//233
f 178//178 283//283 234//234
f 284//284 179//179 234//234
f 179//179 284//284 235//235
f 285//285 180//180 235//235
f 180//180 285//285 236//236
f 286//286 182//182 236//236
f 182//182 286//286 237//237
f 287//287 237//237 288//288
f 237//237 287//287 238//238
f 240//240 289//289 290//290
f 289//289 240//240 239//239
f 241//241 240//240 291//291
f 240//240 241//241 184//184
f 242//242 241//241 292//292
f 241//241 242//242 185//185
f 243//243 242//242 293//293
f 242//242 243//243 186//186
f 244//244 243//243 245//245
f 243//243 244//244 187//187
f 245//245 293//293 246//246
f 293//293 245//245 243//243
f 247//247 293//293 294//294
f 293//293 247//247 246//246
f 248//248 294//294 295//295
f 294//294 248//248 247//247
f 249//249 295//295 296//296
f 295//295 249//249 248//248
f 250//250 296//296 297//297
f 296//296 250//250 249//249
f 251//251 297//297 298//298
f 297//297 251//251 250//250
f 252//252 298//298 299//299
f 298//298 252//252 251//251
f 253//253 299//299 300//300
f 299//299 253//253 252//252
f 254//254 300//300 301//301
f 300//300 254//254 253//253
f 255//255 301//301 302//302
f 301//301 255//255 254//254
f 256//256 302//302 303//303
f 302//302 256//256 255//255
f 257//257 303//303 304//304
f 303//303 257//257 256//256
f 258//258 304//304 305//305
f 304//304 258//258 257//257
f 259//259 305//305 306//306
f 305//305 259//259 258//258
f 260//260 306//306 307//307
f 306//306 260//260 259//259
f 261//261 307//307 308//308
f 307//307 261//261 260//260
f 309//309 261//261 308//308
f 261//261 309//309 262//262
f 310//310 262//262 309//309
f 262//262 310//310 263//263
f 311//311 263//263 310//310
f 263//263 311//311 264//264
f 312//312 264//264 311//311
f 264//264 312//312 265//265
f 313//313 265//265 312//312
f 265//265 313//313 266//266
f 314//314 266//266 313//313
f 266//266 314//314 267//267
f 315//315 267//267 314//314
f 267//267 315//315 268//268
f 316//316 268//268 315//315
f 268//268 316//316 269//269
f 317//317 269//269 316//316
f 269//269 317//317 270//270
f 318//318 270//270 317//317
f 270//270 318//318 271//271
f 319//319 271//271 318//318
f 271//271 319//319 272//272
f 320//320 272//272 319//319
f 272//272 320//320 273//273
f 321//321 273//273 320//320
f 273//273 321//321 274//274
f 322//322 274//274 321//321
f 274//274 322//322 275//275
f 323//323 275//275 322//322
f 275//275 323//323 276//276
f 323//323 277//277 276//276
f 277//277 323//323 324//324
f 324//324 278//278 277//277
f 278//278 324//324 325//325
f 278//278 326//326 279//279
f 326//326 278//278 325//325
f 279//279 327//327 280//280
f 327//327 279//279 326//326
f 280//280 328//328 281//281
f 328//328 280//280 327//327
f 281//281 284//284 282//282
f 284//284 281//281 328//328
f 282//282 234//234 283//283
f 234//234 282//282 284//284
f 328//328 235//235 284//284
f 235//235 328//328 285//285
f 329//329 236//236 285//285
f 236//236 329//329 286//286
f 288//288 286//286 330//330
f 286//286 288//288 237//237
f 331//331 288//288 332//332
f 288//288 331//331 287//287
f 290//290 333//333 334//334
f 333//333 290//290 289//289
f 291//291 290//290 335//335
f 290//290 291//291 240//240
f 292//292 291//291 336//336
f 291//291 292//292 241//241
f 293//293 292//292 294//294
f 292//292 293//293 242//242
f 294//294 336//336 295//295
f 336//336 294//294 292//292
f 295//295 337//337 296//296
f 337//337 295//295 336//336
f 296//296 338//338 297//297
f 338//338 296//296 337//337
f 297//297 339//339 298//298
f 339//339 297//297 338//338
f 298//298 340//340 299//299
f 340//340 298//298 339//339
f 300//300 340//340 341//341
f 340//340 300//300 299//299
f 301//301 341//341 342//342
f 341//341 301//301 300//300
f 302//302 342//342 343//343
f 342//342 302//302 301//301
f 303//303 343//343 344//344
f 343//343 303//303 302//302
f 304//304 344//344 345//345
f 344//344 304//304 303//303
f 305//305 345//345 346//346
f 345//345 305//305 304//304
f 306//306 346//346 347//347
f 346//346 306//306 305//305
f 307//307 347//347 348//348
f 347//347 307//307 306//306
f 308//308 348//348 349//349
f 348//348 308//308 307//307
f 350//350 308//308 349//349
f 308//308 350//350 309//309
f 351//351 309//309 350//350
f 309//309 351//351 310//310
f 352//352 310//310 351//351
f 310//310 352//352 311//311
f 353//353 311//311 352//352
f 311//311 353//353 312//312
f 354//354 312//312 353//353
f 312//312 354//354 313//313
f 355//355 313//313 354//354
f 313//313 355//355 314//314
f 356//356 314//314 355//355
f 314//314 356//356 315//315
f 357//357 315//315 356//356
f 315//315 357//357 316//316
f 358//358 316//316 357//357
f 316//316 358//358 317//317
f 358//358 318//318 317//317
f 318//318 358//358 359//359
f 359//359 319//319 318//318
f 319//319 359//359 360//360
f 360//360 320//320 319//319
f 320//320 360//360 361//361
f 361//361 321//321 320//320
f 321//321 361//361 362//362
f 362//362 322//322 321//321
f 322//322 362//362 363//363
f 363//363 323//323 322//322
f 323//323 363//363 364//364
f 364//364 324//324 323//323
f 324//324 364//364 365//365
f 365//365 325//325 324//324
f 325//325 365//365 366//366
f 325//325 367//367 326//326
f 367//367 325//325 366//366
f 326//326 329//329 327//327
f 329//329 326//326 367//367
f 327//327 285//285 328//328
f 285//285 327//327 329//329
f 367//367 286//286 329//329
f 286//286 367//367 330//330
f 332//332 330//330 368//368
f 330//330 332//332 288//288
f 369//369 332//332 370//370
f 332//332 369//369 331//331
f 334//334 371//371 372//372
f 371//371 334//334 333//333
f 335//335 334//334 373//373
f 334//334 335//335 290//290
f 336//336 335//335 337//337
f 335//335 336//336 291//291
f 337//337 373//373 338//338
f 373//373 337//337 335//335
f 338//338 374//374 339//339
f 374//374 338//338 373//373
f 339//339 375//375 340//340
f 375//375 339//339 374//374
f 340//340 376//376 341//341
f 376//376 340//340 375//375
f 341//341 377//377 342//342
f 377//377 341//341 376//376
f 342//342 378//378 343//343
f 378//378 342//342 377//377
f 344//344 378//378 379//379
f 378//378 344//344 343//343
f 345//345 379//379 380//380
f 379//379 345//345 344//344
f 346//346 380//380 381//381
f 380//380 346//346 345//345
f 382//382 346//346 381//381
f 346//346 382//382 347//347
f 383//383 347//347 382//382
f 347//347 383//383 348//348
f 384//384 348//348 383//383
f 348//348 384//384 349//349
f 385//385 349//349 384//384
f 349//349 385//385 350//350
f 385//385 351//351 350//350
f 351//351 385//385 386//386
f 386//386 352//352 351//351
f 352//352 386//386 387//387
f 388//388 352//352 387//387
f 352//352 388//388 353//353
f 389//389 353//353 388//388
f 353//353 389//389 354//354
f 390//390 354//354 389//389
f 354//354 390//390 355//355
f 390//390 356//356 355//355
f 356//356 390//390 391//391
f 391//391 357//357 356//356
f 357//357 391//391 392//392
f 392//392 358//358 357//357
f 358//358 392//392 393//393
f 393//393 359//359 358//358
f 359//359 393//393 394//394
f 394//394 360//360 359//359
f 360//360 394//394 395//395
f 395//395 361//361 360//360
f 361//361 395//395 396//396
f 396//396 362//362 361//361
f 362//362 396//396 397//397
f 397//397 363//363 362//362
f 363//363 397//397 398//398
f 398//398 364//364 363//363
f 364//364 398//398 399//399
f 399//399 365//365 364//364
f 365//365 399//399 400//400
f 400//400 366//366 365//365
f 366//366 400//400 368//368
f 368//368 367//367 366//366
f 367//367 368//368 330//330
f 370//370 368//368 400//400
f 368//368 370//370 332//332
f 401//401 370//370 402//402
f 370//370 401//401 369//369
f 372//372 403//403 404//404
f 403//403 372//372 371//371
f 373//373 372//372 374//374
f 372//372 373//373 334//334
f 374//374 404//404 375//375
f 404//404 374//374 372//372
f 375//375 405//405 376//376
f 405//405 375//375 404//404
f 376//376 406//406 377//377
f 406//406 376//376 405//405
f 377//377 407//407 378//378
f 407//407 377//377 406//406
f 408//408 378//378 407//407
f 378//378 408//408 379//379
f 409//409 379//379 408//408
f 379//379 409//409 380//380
f 410//410 380//380 409//409
f 380//380 410//410 381//381
f 411//411 381//381 410//410
f 381//381 411//411 382//382
f 412//412 382//382 411//411
f 382//382 412//412 383//383
f 413//413 383//383 412//412
f 383//383 413//413 384//384
f 414//414 384//384 413//413
f 384//384 414//414 385//385
f 414//414 386//386 385//385
f 386//386 414//414 415//415
f 415//415 387//387 386//386
f 387//387 415//415 416//416
f 416//416 388//388 387//387
f 388//388 416//416 417//417
f 417//417 389//389 388//388
f 389//389 417//417 418//418
f 418//418 390//390 389//389
f 390//390 418//418 419//419
f 419//419 391//391 390//390
f 391//391 419//419 420//420
f 420//420 392//392 391//391
f 392//392 420//420 421//421
f 421//421 393//393 392//392
f 393//393 421//421 422//422
f 422//422 394//394 393//393
f 394//394 422//422 423//423
f 423//423 395//395 394//394
f 395//395 423//423 424//424
f 424//424 396//396 395//395
f 396//396 424//424 425//425
f 425//425 397//397 396//396
f 397//397 425//425 426//426
f 426//426 398//398 397//397
f 398//398 426//426 427//427
f 427//427 399//399 398//398
f 399//399 427//427 402//402
f 402//402 400//400 399//399
f 400//400 402//402 370//370
f 428//428 402//402 427//427
f 402//402 428//428 401//401
f 404//404 429//429 405//405
f 429//429 404//404 403//403
f 405//405 430//430 406//406
f 430//430 405//405 429//429
f 406//406 431//431 407//407
f 431//431 406//406 430//430
f 431//431 408//408 407//407
f 408//408 431//431 432//432
f 432//432 409//409 408//408
f 409//409 432//432 433//433
f 434//434 409//409 433//433
f 409//409 434//434 410//410
f 435//435 410//410 434//434
f 410//410 435//435 411//411
f 436//436 411//411 435//435
f 411//411 436//436 412//412
f 437//437 412//412 436//436
f 412//412 437//437 413//413
f 437//437 414//414 413//413
f 414//414 437//437 438//438
f 438//438 415//415 414//414
f 415//415 438//438 439//439
f 439//439 416//416 415//415
f 416//416 439//439 440//440
f 441//441 416//416 440//440
f 416//416 441//441 417//417
f 442//442 417//417 441//441
f 417//417 442//442 418//418
f 443//443 418//418 442//442
f 418//418 443//443 419//419
f 443//443 420//420 419//419
f 420//420 443//443 444//444
f 444//444 421//421 420//420
f 421//421 444//444 445//445
f 445//445 422//422 421//421
f 422//422 445//445 446//446
f 446//446 423//423 422//422
f 423//423 446//446 447//447
f 447//447 424//424 423//423
f 424//424 447//447 448//448
f 448//448 425//425 424//424
f 425//425 448//448 449//449
f 449//449 426//426 425//425
f 426//426 449//449 450//450
f 450//450 427//427 426//426
f 427//427 450//450 428//428
