# SSTK version 0.8.0
# 87
mtllib original-87.mtl
o #ID647
v -0.056354 -0.293411 0.499001
v 0.011985 -0.297710 0.499001
v -0.022320 -0.297710 0.499001
v 0.046019 -0.293411 0.499001
v -0.089580 -0.284879 0.499001
v 0.079246 -0.284879 0.499001
v -0.121476 -0.272251 0.499001
v 0.111142 -0.272251 0.499001
v -0.151537 -0.255725 0.499001
v 0.141203 -0.255725 0.499001
v -0.179290 -0.235561 0.499001
v 0.168956 -0.235561 0.499001
v -0.204297 -0.212078 0.499001
v 0.193963 -0.212078 0.499001
v -0.226164 -0.185646 0.499001
v 0.215829 -0.185646 0.499001
v 0.234211 -0.156681 0.499001
v -0.244545 -0.156681 0.499001
v 0.248817 -0.125642 0.499001
v -0.259151 -0.125642 0.499001
v -0.269752 -0.093016 0.499001
v 0.259418 -0.093016 0.499001
v -0.271450 -0.084117 0.499001
v 0.261115 -0.084117 0.499001
v -0.276180 -0.059319 0.499001
v 0.265846 -0.059319 0.499001
v -0.278334 -0.025082 0.499001
v 0.268000 -0.025082 0.499001
v 0.265846 0.009155 0.499001
v -0.276180 0.009155 0.499001
v 0.259418 0.042852 0.499001
v -0.269752 0.042852 0.499001
v 0.248817 0.075477 0.499001
v -0.259151 0.075477 0.499001
v -0.244545 0.106517 0.499001
v 0.234211 0.106517 0.499001
v 0.215829 0.135481 0.499001
v -0.226164 0.135481 0.499001
v 0.193963 0.161913 0.499001
v -0.204297 0.161913 0.499001
v -0.179290 0.185397 0.499001
v 0.168956 0.185397 0.499001
v 0.141203 0.205560 0.499001
v -0.151537 0.205560 0.499001
v -0.121476 0.222087 0.499001
v 0.111142 0.222087 0.499001
v 0.079246 0.234715 0.499001
v -0.089580 0.234715 0.499001
v -0.056354 0.243246 0.499001
v 0.046019 0.243246 0.499001
v -0.022320 0.247546 0.499001
v 0.011985 0.247546 0.499001
v 0.011985 0.247546 0.499001
v -0.022320 0.247546 0.499001
v 0.046019 0.243246 0.499001
v -0.056354 0.243246 0.499001
v 0.079246 0.234715 0.499001
v -0.089580 0.234715 0.499001
v -0.121476 0.222087 0.499001
v 0.111142 0.222087 0.499001
v 0.141203 0.205560 0.499001
v -0.151537 0.205560 0.499001
v -0.179290 0.185397 0.499001
v 0.168956 0.185397 0.499001
v 0.193963 0.161913 0.499001
v -0.204297 0.161913 0.499001
v -0.226164 0.135481 0.499001
v 0.215829 0.135481 0.499001
v -0.244545 0.106517 0.499001
v 0.234211 0.106517 0.499001
v 0.248817 0.075477 0.499001
v -0.259151 0.075477 0.499001
v -0.269752 0.042852 0.499001
v 0.259418 0.042852 0.499001
v -0.276180 0.009155 0.499001
v 0.265846 0.009155 0.499001
v -0.278334 -0.025082 0.499001
v 0.268000 -0.025082 0.499001
v 0.265846 -0.059319 0.499001
v -0.276180 -0.059319 0.499001
v 0.261115 -0.084117 0.499001
v -0.271450 -0.084117 0.499001
v 0.259418 -0.093016 0.499001
v -0.269752 -0.093016 0.499001
v 0.248817 -0.125642 0.499001
v -0.259151 -0.125642 0.499001
v -0.244545 -0.156681 0.499001
v 0.234211 -0.156681 0.499001
v -0.226164 -0.185646 0.499001
v 0.215829 -0.185646 0.499001
v 0.193963 -0.212078 0.499001
v -0.204297 -0.212078 0.499001
v 0.168956 -0.235561 0.499001
v -0.179290 -0.235561 0.499001
v 0.141203 -0.255725 0.499001
v -0.151537 -0.255725 0.499001
v 0.111142 -0.272251 0.499001
v -0.121476 -0.272251 0.499001
v 0.079246 -0.284879 0.499001
v -0.089580 -0.284879 0.499001
v 0.046019 -0.293411 0.499001
v -0.056354 -0.293411 0.499001
v 0.011985 -0.297710 0.499001
v -0.022320 -0.297710 0.499001
vn 0 0 -1
vn 0 0 1
usemtl material_0_0
f 1//1 2//1 3//1
f 2//1 1//1 4//1
f 4//1 1//1 5//1
f 4//1 5//1 6//1
f 6//1 5//1 7//1
f 6//1 7//1 8//1
f 8//1 7//1 9//1
f 8//1 9//1 10//1
f 10//1 9//1 11//1
f 10//1 11//1 12//1
f 12//1 11//1 13//1
f 12//1 13//1 14//1
f 14//1 13//1 15//1
f 14//1 15//1 16//1
f 16//1 15//1 17//1
f 17//1 15//1 18//1
f 17//1 18//1 19//1
f 19//1 18//1 20//1
f 19//1 20//1 21//1
f 19//1 21//1 22//1
f 22//1 21//1 23//1
f 22//1 23//1 24//1
f 24//1 23//1 25//1
f 24//1 25//1 26//1
f 26//1 25//1 27//1
f 26//1 27//1 28//1
f 28//1 27//1 29//1
f 29//1 27//1 30//1
f 29//1 30//1 31//1
f 31//1 30//1 32//1
f 31//1 32//1 33//1
f 33//1 32//1 34//1
f 33//1 34//1 35//1
f 33//1 35//1 36//1
f 36//1 35//1 37//1
f 37//1 35//1 38//1
f 37//1 38//1 39//1
f 39//1 38//1 40//1
f 39//1 40//1 41//1
f 39//1 41//1 42//1
f 42//1 41//1 43//1
f 43//1 41//1 44//1
f 43//1 44//1 45//1
f 43//1 45//1 46//1
f 46//1 45//1 47//1
f 47//1 45//1 48//1
f 47//1 48//1 49//1
f 47//1 49//1 50//1
f 50//1 49//1 51//1
f 50//1 51//1 52//1
usemtl material_1_0
f 53//2 54//2 55//2
f 54//2 56//2 55//2
f 55//2 56//2 57//2
f 56//2 58//2 57//2
f 58//2 59//2 57//2
f 57//2 59//2 60//2
f 60//2 59//2 61//2
f 59//2 62//2 61//2
f 62//2 63//2 61//2
f 61//2 63//2 64//2
f 64//2 63//2 65//2
f 63//2 66//2 65//2
f 66//2 67//2 65//2
f 65//2 67//2 68//2
f 67//2 69//2 68//2
f 68//2 69//2 70//2
f 70//2 69//2 71//2
f 69//2 72//2 71//2
f 72//2 73//2 71//2
f 71//2 73//2 74//2
f 73//2 75//2 74//2
f 74//2 75//2 76//2
f 75//2 77//2 76//2
f 76//2 77//2 78//2
f 78//2 77//2 79//2
f 77//2 80//2 79//2
f 79//2 80//2 81//2
f 80//2 82//2 81//2
f 81//2 82//2 83//2
f 82//2 84//2 83//2
f 83//2 84//2 85//2
f 84//2 86//2 85//2
f 86//2 87//2 85//2
f 85//2 87//2 88//2
f 87//2 89//2 88//2
f 88//2 89//2 90//2
f 90//2 89//2 91//2
f 89//2 92//2 91//2
f 91//2 92//2 93//2
f 92//2 94//2 93//2
f 93//2 94//2 95//2
f 94//2 96//2 95//2
f 95//2 96//2 97//2
f 96//2 98//2 97//2
f 97//2 98//2 99//2
f 98//2 100//2 99//2
f 99//2 100//2 101//2
f 100//2 102//2 101//2
f 101//2 102//2 103//2
f 104//2 103//2 102//2
