# SSTK version 0.8.0
# 68
mtllib original-68.mtl
o #ID523
v 0.100305 0.490639 0.461249
v 0.096837 0.477294 0.466260
v 0.100305 0.477294 0.466260
v 0.096837 0.490639 0.461249
v 0.096837 0.490639 0.461249
v 0.100305 0.490639 0.461249
v 0.096837 0.477294 0.466260
v 0.100305 0.477294 0.466260
vt 0.3824331 0.313333
vt 0.389784 0.313333
vt 0.3824331 0.2286025
vt 0.389784 0.2286025
vn 0 0.3515416202868696 0.9361722540249108
vn 0 -0.3515416202868696 -0.9361722540249108
usemtl material_0_0
f 1//1 2//1 3//1
f 2//1 1//1 4//1
usemtl material_1_0
f 5/1/2 6/2/2 7/3/2
f 8/4/2 7/3/2 6/2/2
