# SSTK version 0.8.0
# 28
mtllib original-28.mtl
o #ID246
v 0.248040 0.473879 0.467080
v 0.246457 0.473894 0.466905
v 0.246756 0.473172 0.467176
v 0.247873 0.474283 0.466928
v 0.248135 0.473564 0.467185
v 0.247155 0.472652 0.467372
v 0.248135 0.473755 0.467127
v 0.246345 0.474739 0.466587
v 0.247806 0.474794 0.466736
v 0.245048 0.473485 0.466823
v 0.245478 0.472446 0.467212
v 0.248100 0.473224 0.467280
v 0.249515 0.473172 0.467176
v 0.249116 0.472652 0.467372
v 0.248230 0.473879 0.467080
v 0.248135 0.473930 0.467069
v 0.246095 0.471643 0.467514
v 0.246457 0.475583 0.466271
v 0.247873 0.475305 0.466545
v 0.244893 0.474661 0.466381
v 0.243650 0.473057 0.466681
v 0.244210 0.471704 0.467190
v 0.247550 0.472348 0.467485
v 0.248171 0.473224 0.467280
v 0.250792 0.472446 0.467212
v 0.250176 0.471643 0.467514
v 0.249814 0.473894 0.466905
v 0.248398 0.474283 0.466928
v 0.246788 0.471111 0.467715
v 0.245043 0.470619 0.467596
v 0.248135 0.474802 0.466756
v 0.248135 0.475250 0.466584
v 0.248040 0.475710 0.466393
v 0.246756 0.476305 0.466000
v 0.245048 0.475837 0.465939
v 0.243452 0.474561 0.466117
v 0.242265 0.472610 0.466481
v 0.242954 0.470946 0.467106
v 0.248135 0.473102 0.467313
v 0.248720 0.472348 0.467485
v 0.251222 0.473485 0.466823
v 0.249482 0.471111 0.467715
v 0.252060 0.471704 0.467190
v 0.251228 0.470619 0.467596
v 0.249925 0.474739 0.466587
v 0.248465 0.474794 0.466736
v 0.248135 0.473930 0.467069
v 0.248135 0.474351 0.466922
v 0.247875 0.472214 0.467536
v 0.247476 0.470826 0.467821
v 0.246032 0.469860 0.467881
v 0.244000 0.469583 0.467618
v 0.248398 0.475305 0.466545
v 0.248135 0.475833 0.466346
v 0.248001 0.475879 0.466312
v 0.245478 0.476875 0.465549
v 0.243650 0.476066 0.465552
v 0.242024 0.474440 0.465794
v 0.240895 0.472145 0.466223
v 0.241712 0.470174 0.466964
v 0.248135 0.473102 0.467313
v 0.251377 0.474661 0.466381
v 0.252621 0.473057 0.466681
v 0.248395 0.472214 0.467536
v 0.248795 0.470826 0.467821
v 0.250239 0.469860 0.467881
v 0.253316 0.470946 0.467106
v 0.252270 0.469583 0.467618
v 0.249814 0.475583 0.466271
v 0.248135 0.472179 0.467549
v 0.248135 0.470739 0.467853
v 0.247079 0.469426 0.468044
v 0.245282 0.468599 0.467987
v 0.242970 0.468535 0.467579
v 0.248135 0.475664 0.466417
v 0.248230 0.475710 0.466393
v 0.248135 0.475664 0.466417
v 0.248093 0.475978 0.466281
v 0.248071 0.476029 0.466252
v 0.247155 0.476826 0.465804
v 0.246095 0.477679 0.465248
v 0.244210 0.477419 0.465044
v 0.242265 0.476271 0.465106
v 0.240612 0.474298 0.465414
v 0.239544 0.471664 0.465907
v 0.240486 0.469388 0.466761
v 0.251222 0.475837 0.465939
v 0.252819 0.474561 0.466117
v 0.254006 0.472610 0.466481
v 0.249191 0.469426 0.468044
v 0.250988 0.468599 0.467987
v 0.254559 0.470174 0.466964
v 0.253301 0.468535 0.467579
v 0.249515 0.476305 0.466000
v 0.248135 0.469288 0.468097
v 0.246686 0.468017 0.468206
v 0.244541 0.467329 0.468032
v 0.241952 0.467478 0.467479
v 0.248135 0.476016 0.466264
v 0.248094 0.476053 0.466249
v 0.248054 0.476086 0.466231
v 0.247550 0.477129 0.465691
v 0.246788 0.478211 0.465048
v 0.245043 0.478504 0.464636
v 0.242954 0.477935 0.464481
v 0.240895 0.476451 0.464607
v 0.239218 0.474135 0.464980
v 0.238213 0.471166 0.465534
v 0.239279 0.468592 0.466500
v 0.250792 0.476875 0.465549
v 0.252621 0.476066 0.465552
v 0.254247 0.474440 0.465794
v 0.255375 0.472145 0.466223
v 0.249584 0.468017 0.468206
v 0.251729 0.467329 0.468032
v 0.255784 0.469388 0.466761
v 0.254318 0.467478 0.467479
v 0.248135 0.467827 0.468277
v 0.246298 0.466601 0.468305
v 0.243810 0.466052 0.468014
v 0.240950 0.466413 0.467319
v 0.248223 0.475865 0.466329
v 0.248135 0.476016 0.466264
v 0.248100 0.476334 0.466112
v 0.247875 0.477263 0.465640
v 0.247476 0.478496 0.464941
v 0.246032 0.479263 0.464351
v 0.244000 0.479298 0.463969
v 0.241712 0.478423 0.463866
v 0.239544 0.476605 0.464052
v 0.237846 0.473950 0.464488
v 0.236904 0.470653 0.465104
v 0.238092 0.467785 0.466181
v 0.249116 0.476826 0.465804
v 0.250176 0.477679 0.465248
v 0.252060 0.477419 0.465044
v 0.254006 0.476271 0.465106
v 0.255659 0.474298 0.465414
v 0.256727 0.471664 0.465907
v 0.249973 0.466601 0.468305
v 0.252461 0.466052 0.468014
v 0.256992 0.468592 0.466500
v 0.255320 0.466413 0.467319
v 0.248135 0.466359 0.468395
v 0.245914 0.465181 0.468341
v 0.243089 0.464772 0.467934
v 0.239966 0.465344 0.467098
v 0.248091 0.476307 0.466124
v 0.248135 0.476447 0.466056
v 0.248135 0.477298 0.465627
v 0.248135 0.478583 0.464908
v 0.247079 0.479696 0.464188
v 0.245282 0.480282 0.463600
v 0.242970 0.480061 0.463250
v 0.240486 0.478881 0.463197
v 0.238213 0.476734 0.463443
v 0.236497 0.473745 0.463943
v 0.235621 0.470126 0.464619
v 0.236929 0.466970 0.465804
v 0.248720 0.477129 0.465691
v 0.249482 0.478211 0.465048
v 0.248216 0.476086 0.466231
v 0.251228 0.478504 0.464636
v 0.253316 0.477935 0.464481
v 0.255375 0.476451 0.464607
v 0.257052 0.474135 0.464980
v 0.258058 0.471166 0.465534
v 0.250356 0.465181 0.468341
v 0.253181 0.464772 0.467934
v 0.258178 0.467785 0.466181
v 0.256305 0.465344 0.467098
v 0.248135 0.464888 0.468451
v 0.245537 0.463758 0.468316
v 0.242381 0.463490 0.467794
v 0.239000 0.464271 0.466818
v 0.248135 0.476282 0.466137
v 0.248795 0.478496 0.464941
v 0.248395 0.477263 0.465640
v 0.248135 0.479835 0.464136
v 0.246686 0.480864 0.463382
v 0.244541 0.481267 0.462798
v 0.241952 0.480791 0.462480
v 0.239279 0.479309 0.462476
v 0.236904 0.476838 0.462782
v 0.235174 0.473521 0.463344
v 0.234366 0.469586 0.464078
v 0.235790 0.466148 0.465369
v 0.248171 0.476334 0.466112
v 0.250239 0.479263 0.464351
v 0.248176 0.476184 0.466184
v 0.252270 0.479298 0.463969
v 0.254559 0.478423 0.463866
v 0.256727 0.476605 0.464052
v 0.258424 0.473950 0.464488
v 0.259366 0.470653 0.465104
v 0.250734 0.463758 0.468316
v 0.253889 0.463490 0.467794
v 0.259342 0.466970 0.465804
v 0.257270 0.464271 0.466818
v 0.248135 0.463416 0.468444
v 0.245166 0.462337 0.468228
v 0.241687 0.462209 0.467591
v 0.238055 0.463196 0.466477
v 0.249191 0.479696 0.464188
v 0.248135 0.481054 0.463310
v 0.246298 0.481995 0.462525
v 0.243810 0.482216 0.461944
v 0.240950 0.481487 0.461658
v 0.238092 0.479705 0.461705
v 0.235621 0.476915 0.462070
v 0.233880 0.473276 0.462693
v 0.248135 0.476447 0.466056
v 0.248180 0.476307 0.466124
v 0.250988 0.480282 0.463600
v 0.248180 0.476307 0.466124
v 0.253301 0.480061 0.463250
v 0.255784 0.478881 0.463197
v 0.258058 0.476734 0.463443
v 0.259773 0.473745 0.463943
v 0.260649 0.470126 0.464619
v 0.251105 0.462337 0.468228
v 0.254583 0.462209 0.467591
v 0.260481 0.466148 0.465369
v 0.258215 0.463196 0.466477
v 0.248135 0.461946 0.468374
v 0.244802 0.460919 0.468077
v 0.241008 0.460931 0.467328
v 0.249584 0.480864 0.463382
v 0.248135 0.482237 0.462433
v 0.245914 0.483088 0.461617
v 0.243089 0.483128 0.461041
v 0.239966 0.482147 0.460788
v 0.236929 0.480071 0.460885
v 0.234366 0.476965 0.461307
v 0.248135 0.476282 0.466137
v 0.251729 0.481267 0.462798
v 0.254318 0.480791 0.462480
v 0.256992 0.479309 0.462476
v 0.259366 0.476838 0.462782
v 0.261096 0.473521 0.463344
v 0.261905 0.469586 0.464078
v 0.251469 0.460919 0.468077
v 0.255263 0.460931 0.467328
v 0.248135 0.460480 0.468241
v 0.244446 0.459507 0.467863
v 0.249973 0.481995 0.462525
v 0.248135 0.483381 0.461507
v 0.245537 0.484142 0.460661
v 0.242381 0.484001 0.460092
v 0.239000 0.482770 0.459871
v 0.235790 0.480403 0.460017
v 0.252461 0.482216 0.461944
v 0.255320 0.481487 0.461658
v 0.258178 0.479705 0.461705
v 0.260649 0.476915 0.462070
v 0.262390 0.473276 0.462693
v 0.251825 0.459507 0.467863
v 0.248135 0.459021 0.468045
v 0.250356 0.483088 0.461617
v 0.248135 0.484484 0.460533
v 0.245166 0.485154 0.459660
v 0.241687 0.484832 0.459096
v 0.238055 0.483356 0.458908
v 0.253181 0.483128 0.461041
v 0.256305 0.482147 0.460788
v 0.259342 0.480071 0.460885
v 0.261905 0.476965 0.461307
v 0.250734 0.484142 0.460661
v 0.248135 0.485545 0.459512
v 0.244802 0.486122 0.458612
v 0.241008 0.485621 0.458057
v 0.253889 0.484001 0.460092
v 0.257270 0.482770 0.459871
v 0.260481 0.480403 0.460017
v 0.251105 0.485154 0.459660
v 0.248135 0.486561 0.458448
v 0.244446 0.487045 0.457522
v 0.254583 0.484832 0.459096
v 0.258215 0.483356 0.458908
v 0.251469 0.486122 0.458612
v 0.248135 0.487531 0.457340
v 0.255263 0.485621 0.458057
v 0.251825 0.487045 0.457522
vn -0.08254118139808286 0.3054452051736319 0.9486254160678212
vn -0.1269155943331928 0.31865078577217715 0.9393370580584087
vn -0.11506040252499077 0.2901715063677889 0.950032420848381
vn -0.10470550022795122 0.3248460007072123 0.9399531020463439
vn 0 0.2870413020384336 0.9579182068026897
vn -0.09575962205433722 0.26463570567724626 0.9595822205859781
vn -0.005920368924847322 0.2938464962699364 0.9558342878667179
vn -0.13086680191418806 0.34851840509777676 0.928121113575623
vn -0.09521809719619509 0.35220288962898605 0.9310674725836621
vn -0.16792140279632461 0.3067142051075826 0.9368718156013331
vn -0.15222529778706892 0.26903969608891326 0.9510231861747764
vn -0.04471775001924938 0.26846800011556554 0.962250100414214
vn 0.11506040252499077 0.2901715063677889 0.950032420848381
vn 0.09575962205433722 0.26463570567724626 0.9595822205859781
vn 0.08490438198156963 0.30952950722405886 0.9470917221040205
vn -0.05346644153433789 0.31482290903454 0.947643327194723
vn -0.12622540584664102 0.2353607109016846 0.9636765446365831
vn -0.12691560431846596 0.37838621287507523 0.9169058311988952
vn -0.09293752807529164 0.3694678923484304 0.9245842808521367
vn -0.17315350093725826 0.3462316018741081 0.9220312049908398
vn -0.20861460464267112 0.2942180065477553 0.9326927207568668
vn -0.18910719315972818 0.24741859105052308 0.9502749656272247
vn -0.06858488032187077 0.2438082011441985 0.9673953045400131
vn 0.04471775001924938 0.26846800011556554 0.962250100414214
vn 0.15222529778706892 0.26903969608891326 0.9510231861747764
vn 0.12622540584664102 0.2353607109016846 0.9636765446365831
vn 0.1269155943331928 0.31865078577217715 0.9393370580584087
vn 0.09175205906966148 0.3260039966944165 0.9409053904595001
vn -0.09068322730014441 0.20826119379956817 0.973860271005861
vn -0.1567991008044884 0.2055892010548153 0.9659954049562279
vn 0 0.3590851074070189 0.933304819251722
vn 0.016418050933420216 0.3629649206357498 0.9316581529678317
vn -0.08254117665872117 0.39444148403295115 0.9152064629523095
vn -0.11592280524778262 0.40669331841085615 0.9061801410224406
vn -0.1679213994203152 0.3857497986683452 0.9071931968682604
vn -0.21511760476788705 0.3433114076091865 0.9142547202636288
vn -0.24892010732055378 0.28118550826945476 0.9268082272567353
vn -0.2256384944820637 0.2253481944891627 0.947789776822024
vn -0.03374701038140416 0.2488952028129798 0.9679423109395534
vn 0.06858488032187077 0.2438082011441985 0.9673953045400131
vn 0.16792140279632461 0.3067142051075826 0.9368718156013331
vn 0.09068322730014441 0.20826119379956817 0.973860271005861
vn 0.18910719315972818 0.24741859105052308 0.9502749656272247
vn 0.1567991008044884 0.2055892010548153 0.9659954049562279
vn 0.13086680191418806 0.34851840509777676 0.928121113575623
vn 0.09521809719619509 0.35220288962898605 0.9310674725836621
vn 0.06137847001351459 0.3284972000723298 0.9425085002075259
vn -0.042051890815554764 0.225455404372484 0.9733455188770721
vn -0.04750353842943087 0.190493893701862 0.9805383675812931
vn -0.11264119941273554 0.17193779910358747 0.9786466948977424
vn -0.18708269693298687 0.17544569712376235 0.966549984154486
vn 0.08567261856248054 0.3703290937861676 0.9249413844802079
vn -0.04768777942772832 0.40150379518179996 0.9146149890242687
vn -0.09451373942479659 0.40547589753230434 0.9092064944666387
vn -0.15222530573926404 0.42342711596423127 0.8930492336701269
vn -0.20861460562658007 0.392406710583668 0.8958219241613657
vn -0.2566817047018006 0.33976360622366386 0.9048067165739149
vn -0.28876410492983423 0.2676409045692148 0.9192299156932633
vn -0.2617520894655191 0.2028691918353214 0.9435729620249399
vn 0.03374701038140416 0.2488952028129798 0.9679423109395534
vn 0.17315350093725826 0.3462316018741081 0.9220312049908398
vn 0.20861460464267112 0.2942180065477553 0.9326927207568668
vn 0.042051890815554764 0.225455404372484 0.9733455188770721
vn 0.04750353842943087 0.190493893701862 0.9805383675812931
vn 0.11264119941273554 0.17193779910358747 0.9786466948977424
vn 0.2256384944820637 0.2253481944891627 0.947789776822024
vn 0.18708269693298687 0.17544569712376235 0.966549984154486
vn 0.12691560431846596 0.37838621287507523 0.9169058311988952
vn 0 0.20705618986819715 0.9783290521277926
vn 0 0.18428240674449187 0.9828733359718625
vn -0.059003281537594904 0.14987880390576366 0.9869422257192024
vn -0.13439149993822966 0.13530449993780977 0.9816473995488054
vn -0.2170210111646972 0.14498570745882375 0.9653398496621367
vn 0.06137847026442732 0.3730609016072 0.92577440398837
vn 0.08860322593144837 0.38055138252554627 0.9205053577315213
vn -0.05346643871109864 0.3867351906770764 0.9206395778063843
vn -0.08627136189677342 0.4169118091662772 0.9048435198940078
vn -0.12608380133898667 0.31948320339285236 0.9391663099737727
vn -0.09727319448805495 0.4331897754534816 0.8960382492263659
vn -0.12622539679449535 0.4571104883916402 0.8804073776419802
vn -0.18910719696727654 0.4392117929563339 0.8782547859153754
vn -0.24892008991743472 0.398344883864949 0.8828137642414263
vn -0.29776959797824415 0.3355948977214228 0.8937053939320397
vn -0.3280733973251061 0.25360939793223614 0.9099725925806842
vn -0.297381787848912 0.18002309264421498 0.9376330616880983
vn 0.1679213994203152 0.3857497986683452 0.9071931968682604
vn 0.21511760476788705 0.3433114076091865 0.9142547202636288
vn 0.24892010732055378 0.28118550826945476 0.9268082272567353
vn 0.059003281537594904 0.14987880390576366 0.9869422257192024
vn 0.13439149993822966 0.13530449993780977 0.9816473995488054
vn 0.2617520894655191 0.2028691918353214 0.9435729620249399
vn 0.2170210111646972 0.14498570745882375 0.9653398496621367
vn 0.1160351972523121 0.40673159036868534 0.9061485785426013
vn 0 0.14216769803111579 0.9898425862916452
vn -0.07039451143767274 0.10899410222599507 0.9915467202504381
vn -0.15589449477327763 0.09842817669996821 0.9828574670474374
vn -0.24655920898300768 0.11426510416307409 0.9623679350624038
vn 0.0580185308926554 0.4057182062422562 0.9121549140341372
vn -0.12099199840596614 0.2940645961257855 0.9480964875091087
vn -0.09234382748381549 0.40978778883410255 0.9074946752725862
vn -0.06858488025368126 0.4531986016762875 0.8887672032873658
vn -0.09068322770583982 0.4842149877500307 0.8702369779842087
vn -0.15679909530903294 0.4810498856084042 0.8625572741948272
vn -0.22563850367428498 0.4541915073960294 0.8618569140344308
vn -0.2887641009637026 0.4035536013467934 0.8681934028974524
vn -0.33830580258513 0.33081340252787733 0.8809720067318597
vn -0.36677598602105793 0.2391170908865243 0.8990541657343267
vn -0.3324625921433089 0.1568518962933064 0.9299817780228522
vn 0.15222530573926404 0.42342711596423127 0.8930492336701269
vn 0.20861460562658007 0.392406710583668 0.8958219241613657
vn 0.2566817047018006 0.33976360622366386 0.9048067165739149
vn 0.28876410492983423 0.2676409045692148 0.9192299156932633
vn 0.07039451143767274 0.10899410222599507 0.9915467202504381
vn 0.15589449477327763 0.09842817669996821 0.9828574670474374
vn 0.297381787848912 0.18002309264421498 0.9376330616880983
vn 0.24655920898300768 0.11426510416307409 0.9623679350624038
vn 0 0.09979728894453446 0.9950077894767061
vn -0.0816564839210047 0.06791415326112127 0.9943439477466957
vn -0.1771109097733752 0.06137630338688117 0.9822752542041405
vn -0.27564348868823835 0.08334030657990928 0.9576403607006879
vn 0.07547460125081001 0.40723420674892746 0.9101999150843748
vn -0.11794430065136037 0.30365730167698063 0.9454530052213682
vn -0.06512717000418675 0.42914810002758785 0.900883100057914
vn -0.042051890905383485 0.47093171013922974 0.8811668189716533
vn -0.047503538171173386 0.5019863806741541 0.8635699667536401
vn -0.11264119841914555 0.514710992776327 0.849932088071692
vn -0.18708270721333872 0.5041080194368679 0.8431341325086814
vn -0.2617520992595478 0.4683389986751484 0.8438864976127886
vn -0.3280734030697418 0.40802380381782755 0.8519885079719501
vn -0.3782160051350293 0.3254282044183305 0.8666309117662264
vn -0.40480109460679664 0.2241906970130859 0.8864956881891339
vn -0.3669303926242571 0.13339849731852932 0.9206339814941479
vn 0.0961977417101117 0.433444407705361 0.8960312159287884
vn 0.12622539679449535 0.4571104883916402 0.8804073776419802
vn 0.18910719696727654 0.4392117929563339 0.8782547859153754
vn 0.24892008991743472 0.398344883864949 0.8828137642414263
vn 0.29776959797824415 0.3355948977214228 0.8937053939320397
vn 0.3280733973251061 0.25360939793223614 0.9099725925806842
vn 0.0816564839210047 0.06791415326112127 0.9943439477466957
vn 0.1771109097733752 0.06137630338688117 0.9822752542041405
vn 0.3324625921433089 0.1568518962933064 0.9299817780228522
vn 0.27564348868823835 0.08334030657990928 0.9576403607006879
vn 0 0.05724841796217091 0.9983599644621314
vn -0.09276870594954055 0.026714008833614966 0.9953292565420174
vn -0.19800219737559638 0.024216559679023412 0.9799023870119654
vn -0.30422068940097907 0.052267908178990664 0.9511665668614441
vn -0.07876518837491758 0.41570819142311344 0.9060809813057483
vn -0.033747009740650355 0.44972899654378073 0.8925272931408254
vn 0 0.4880635098935695 0.8728081176927547
vn 0 0.5081996088160814 0.8612393149404999
vn -0.05900327914542104 0.5367779922255306 0.8416578878097772
vn -0.13439150238499964 0.5442650096588832 0.8280788146956293
vn -0.2170210048881573 0.5262429118530373 0.8221741185185597
vn -0.2973817892362336 0.48162868256739705 0.8243772701615747
vn -0.36677601602007076 0.4117476179843436 0.83422973643755
vn -0.4174272138589072 0.3194495106059713 0.8507094282442128
vn -0.4420794797171575 0.20885809041747913 0.872321059977444
vn -0.4007222851548886 0.10970579593585159 0.909607766302776
vn 0.06858488025368126 0.4531986016762875 0.8887672032873658
vn 0.09068322770583982 0.4842149877500307 0.8702369779842087
vn 0.09599200689274406 0.3635677882313306 0.9266088700057223
vn 0.15679909530903294 0.4810498856084042 0.8625572741948272
vn 0.22563850367428498 0.4541915073960294 0.8618569140344308
vn 0.2887641009637026 0.4035536013467934 0.8681934028974524
vn 0.33830580258513 0.33081340252787733 0.8809720067318597
vn 0.36677598602105793 0.2391170908865243 0.8990541657343267
vn 0.09276870594954055 0.026714008833614966 0.9953292565420174
vn 0.19800219737559638 0.024216559679023412 0.9799023870119654
vn 0.3669303926242571 0.13339849731852932 0.9206339814941479
vn 0.30422068940097907 0.052267908178990664 0.9511665668614441
vn 0 0.014598580511668529 0.9998934350454776
vn -0.10371100181336079 -0.014531270254075829 0.9945013173886056
vn -0.21853020278479676 -0.012983180165448827 0.9757438124341999
vn -0.33223890605853257 0.021104800384855744 0.9429591171953027
vn -0.08477500342980089 0.4064291164431833 0.9097409368060176
vn 0.047503538171173386 0.5019863806741541 0.8635699667536401
vn 0.042051890905383485 0.47093171013922974 0.8811668189716533
vn 0 0.5444923185103078 0.8387658285142936
vn -0.07039450809925257 0.5705882845933404 0.8182136779071184
vn -0.1558945091229945 0.572823333521797 0.8047175470923178
vn -0.2465591980972016 0.5474142957753793 0.7997162938282616
vn -0.3324626015833848 0.49403660235289615 0.8033657038261057
vn -0.4048011145348842 0.4147186148909841 0.8149506292618094
vn -0.4558678331949702 0.31288872278364693 0.8332377606739513
vn -0.4591545960473586 0.20159179826459278 0.8651807925520739
vn -0.41617409701488234 0.09862943929255433 0.9039199935163972
vn 0.06512717000418675 0.42914810002758785 0.900883100057914
vn 0.11264119841914555 0.514710992776327 0.849932088071692
vn 0.058565969164777805 0.4437593936714493 0.8942301872471863
vn 0.18708270721333872 0.5041080194368679 0.8431341325086814
vn 0.2617520992595478 0.4683389986751484 0.8438864976127886
vn 0.3280734030697418 0.40802380381782755 0.8519885079719501
vn 0.3782160051350293 0.3254282044183305 0.8666309117662264
vn 0.40480109460679664 0.2241906970130859 0.8864956881891339
vn 0.10371100181336079 -0.014531270254075829 0.9945013173886056
vn 0.21853020278479676 -0.012983180165448827 0.9757438124341999
vn 0.4007222851548886 0.10970579593585159 0.909607766302776
vn 0.33223890605853257 0.021104800384855744 0.9429591171953027
vn 0 -0.028074590870350344 0.9996058309891267
vn -0.11446350003260171 -0.05574658001587807 0.9918621002825041
vn -0.23865769966681197 -0.05015505992997915 0.9698076986460595
vn -0.3450192819802789 0.006648321652770208 0.9385720509801121
vn 0.05900327914542104 0.5367779922255306 0.8416578878097772
vn 0 0.5797900907637059 0.8147658870204456
vn -0.08165648343712721 0.6033559253967714 0.793280433391173
vn -0.17711089837213742 0.6003341944822053 0.7798913928318586
vn -0.2756435014232729 0.5675840029306943 0.77580220400582
vn -0.3669303952952882 0.5055404935180556 0.780891089987563
vn -0.44207949193420454 0.4169317923930273 0.7941873855099522
vn -0.47348598204498576 0.3096383882582337 0.8245817687311179
vn 0.033747009740650355 0.44972899654378073 0.8925272931408254
vn 0.07876518837491758 0.41570819142311344 0.9060809813057483
vn 0.13439150238499964 0.5442650096588832 0.8280788146956293
vn 0.06499522709508769 0.43626428050149907 0.8974681598883424
vn 0.2170210048881573 0.5262429118530373 0.8221741185185597
vn 0.2973817892362336 0.48162868256739705 0.8243772701615747
vn 0.36677601602007076 0.4117476179843436 0.83422973643755
vn 0.4174272138589072 0.3194495106059713 0.8507094282442128
vn 0.4420794797171575 0.20885809041747913 0.872321059977444
vn 0.11446350003260171 -0.05574658001587807 0.9918621002825041
vn 0.23865769966681197 -0.05015505992997915 0.9698076986460595
vn 0.41617409701488234 0.09862943929255433 0.9039199935163972
vn 0.3450192819802789 0.006648321652770208 0.9385720509801121
vn 0 -0.07069342927366853 0.997498089751318
vn -0.12500659740051018 -0.09685688798587858 0.9874168794668429
vn -0.2478146948806327 -0.06730695860956998 0.9664665800346892
vn 0.07039450809925257 0.5705882845933404 0.8182136779071184
vn 0 0.6140288096837255 0.7892836124476342
vn -0.09276871198390421 0.6350214135802427 0.766904016400617
vn -0.1980022104212991 0.626747532987124 0.7536462396660871
vn -0.3042207145235672 0.5867153280099251 0.7504764358279186
vn -0.40072230195518427 0.5161196025182249 0.7569955036934949
vn -0.4591546127233833 0.41770231157472104 0.7840292217258067
vn 0.08477500342980089 0.4064291164431833 0.9097409368060176
vn 0.1558945091229945 0.572823333521797 0.8047175470923178
vn 0.2465591980972016 0.5474142957753793 0.7997162938282616
vn 0.3324626015833848 0.49403660235289615 0.8033657038261057
vn 0.4048011145348842 0.4147186148909841 0.8149506292618094
vn 0.4558678331949702 0.31288872278364693 0.8332377606739513
vn 0.4591545960473586 0.20159179826459278 0.8651807925520739
vn 0.12500659740051018 -0.09685688798587858 0.9874168794668429
vn 0.2478146948806327 -0.06730695860956998 0.9664665800346892
vn 0 -0.11318040615251444 0.9935744540109473
vn -0.12979340348323057 -0.11576170310666582 0.9847603264277474
vn 0.08165648343712721 0.6033559253967714 0.793280433391173
vn 0 0.6471465903073879 0.7623655885817002
vn -0.10371099373517736 0.6655274597977866 0.7391327553515453
vn -0.21853019310726393 0.6520156794345487 0.7260303771000259
vn -0.33223889317646776 0.6047738875791357 0.7237857851348662
vn -0.41617412580105273 0.5207146322821262 0.7454229462131008
vn 0.17711089837213742 0.6003341944822053 0.7798913928318586
vn 0.2756435014232729 0.5675840029306943 0.77580220400582
vn 0.3669303952952882 0.5055404935180556 0.780891089987563
vn 0.44207949193420454 0.4169317923930273 0.7941873855099522
vn 0.47348598204498576 0.3096383882582337 0.8245817687311179
vn 0.12979340348323057 -0.11576170310666582 0.9847603264277474
vn 0 -0.13269519890389478 0.9911568918127222
vn 0.09276871198390421 0.6350214135802427 0.766904016400617
vn 0 0.679083205201801 0.7340613056229355
vn -0.11446349696584573 0.6948186815820141 0.710017681179125
vn -0.23865770086522722 0.6760928024511 0.6970947025272403
vn -0.3450193050890451 0.6127696090383701 0.7109677104867952
vn 0.1980022104212991 0.626747532987124 0.7536462396660871
vn 0.3042207145235672 0.5867153280099251 0.7504764358279186
vn 0.40072230195518427 0.5161196025182249 0.7569955036934949
vn 0.4591546127233833 0.41770231157472104 0.7840292217258067
vn 0.10371099373517736 0.6655274597977866 0.7391327553515453
vn 0 0.7097809054968768 0.704422505455379
vn -0.125006602082085 0.7228422120395154 0.679612011319482
vn -0.24781470371228664 0.6868063102884204 0.6832898102357431
vn 0.21853019310726393 0.6520156794345487 0.7260303771000259
vn 0.33223889317646776 0.6047738875791357 0.7237857851348662
vn 0.41617412580105273 0.5207146322821262 0.7454229462131008
vn 0.11446349696584573 0.6948186815820141 0.710017681179125
vn 0 0.739184113488495 0.6735034122899659
vn -0.12979339750875787 0.7353258858862247 0.6651687872328137
vn 0.23865770086522722 0.6760928024511 0.6970947025272403
vn 0.3450193050890451 0.6127696090383701 0.7109677104867952
vn 0.125006602082085 0.7228422120395154 0.679612011319482
vn 0 0.752284311706879 0.6588386102526984
vn 0.24781470371228664 0.6868063102884204 0.6832898102357431
vn 0.12979339750875787 0.7353258858862247 0.6651687872328137
usemtl material_0_0
f 1//1 2//2 3//3
f 2//2 1//1 4//4
f 5//5 3//3 6//6
f 3//3 5//5 1//1
f 1//1 5//5 7//7
f 4//4 8//8 2//2
f 8//8 4//4 9//9
f 3//3 10//10 11//11
f 10//10 3//3 2//2
f 5//5 6//6 12//12
f 13//13 5//5 14//14
f 5//5 13//13 15//15
f 5//5 15//15 7//7
f 16//16 1//1 7//7
f 6//6 11//11 17//17
f 11//11 6//6 3//3
f 9//9 18//18 8//8
f 18//18 9//9 19//19
f 2//2 20//20 10//10
f 20//20 2//2 8//8
f 11//11 21//21 22//22
f 21//21 11//11 10//10
f 12//12 6//6 23//23
f 5//5 12//12 24//24
f 5//5 24//24 14//14
f 25//25 14//14 26//26
f 14//14 25//25 13//13
f 27//27 15//15 13//13
f 15//15 27//27 28//28
f 23//23 17//17 29//29
f 17//17 23//23 6//6
f 17//17 22//22 30//30
f 22//22 17//17 11//11
f 31//31 19//19 9//9
f 19//19 31//31 32//32
f 33//33 18//18 19//19
f 18//18 33//33 34//34
f 8//8 35//35 20//20
f 35//35 8//8 18//18
f 10//10 36//36 21//21
f 36//36 10//10 20//20
f 22//22 37//37 38//38
f 37//37 22//22 21//21
f 12//12 23//23 39//39
f 24//24 40//40 14//14
f 41//41 13//13 25//25
f 13//13 41//41 27//27
f 26//26 40//40 42//42
f 40//40 26//26 14//14
f 43//43 26//26 44//44
f 26//26 43//43 25//25
f 45//45 28//28 27//27
f 28//28 45//45 46//46
f 28//28 47//47 15//15
f 47//47 28//28 48//47
f 49//48 29//29 50//49
f 29//29 49//48 23//23
f 29//29 30//30 51//50
f 30//30 29//29 17//17
f 30//30 38//38 52//51
f 38//38 30//30 22//22
f 53//52 31//31 46//46
f 31//31 53//52 32//32
f 54//53 34//34 33//33
f 34//34 54//53 55//54
f 34//34 35//35 18//18
f 35//35 34//34 56//55
f 20//20 57//56 36//36
f 57//56 20//20 35//35
f 21//21 58//57 37//37
f 58//57 21//21 36//36
f 38//38 59//58 60//59
f 59//58 38//38 37//37
f 39//39 23//23 49//48
f 24//24 61//60 40//40
f 62//61 27//27 41//41
f 27//27 62//61 45//45
f 63//62 25//25 43//43
f 25//25 63//62 41//41
f 42//42 64//63 65//64
f 64//63 42//42 40//40
f 44//44 42//42 66//65
f 42//42 44//44 26//26
f 67//66 44//44 68//67
f 44//44 67//66 43//43
f 69//68 46//46 45//45
f 46//46 69//68 53//52
f 70//69 50//49 71//70
f 50//49 70//69 49//48
f 50//49 51//50 72//71
f 51//50 50//49 29//29
f 51//50 52//51 73//72
f 52//51 51//50 30//30
f 52//51 60//59 74//73
f 60//59 52//51 38//38
f 53//52 75//74 32//32
f 75//74 53//52 76//75
f 54//53 33//33 77//76
f 78//77 55//54 54//53
f 34//34 55//54 79//78
f 80//79 56//55 34//34
f 56//55 80//79 81//80
f 56//55 57//56 35//35
f 57//56 56//55 82//81
f 36//36 83//82 58//57
f 83//82 36//36 57//56
f 37//37 84//83 59//58
f 84//83 37//37 58//57
f 60//59 85//84 86//85
f 85//84 60//59 59//58
f 61//60 64//63 40//40
f 87//86 45//45 62//61
f 45//45 87//86 69//68
f 88//87 41//41 63//62
f 41//41 88//87 62//61
f 89//88 43//43 67//66
f 43//43 89//88 63//62
f 65//64 70//69 71//70
f 70//69 65//64 64//63
f 66//65 65//64 90//89
f 65//64 66//65 42//42
f 68//67 66//65 91//90
f 66//65 68//67 44//44
f 92//91 68//67 93//92
f 68//67 92//91 67//66
f 94//93 53//52 69//68
f 71//70 72//71 95//94
f 72//71 71//70 50//49
f 72//71 73//72 96//95
f 73//72 72//71 51//50
f 73//72 74//73 97//96
f 74//73 73//72 52//51
f 74//73 86//85 98//97
f 86//85 74//73 60//59
f 94//93 76//75 53//52
f 79//78 55//54 78//77
f 99//98 78//77 54//53
f 34//34 79//78 100//99
f 80//79 34//34 101//100
f 102//101 81//80 80//79
f 81//80 102//101 103//102
f 81//80 82//81 56//55
f 82//81 81//80 104//103
f 82//81 83//82 57//56
f 83//82 82//81 105//104
f 58//57 106//105 84//83
f 106//105 58//57 83//82
f 59//58 107//106 85//84
f 107//106 59//58 84//83
f 86//85 108//107 109//108
f 108//107 86//85 85//84
f 87//86 94//93 69//68
f 94//93 87//86 110//109
f 111//110 62//61 88//87
f 62//61 111//110 87//86
f 112//111 63//62 89//88
f 63//62 112//111 88//87
f 113//112 67//66 92//91
f 67//66 113//112 89//88
f 90//89 71//70 95//94
f 71//70 90//89 65//64
f 91//90 90//89 114//113
f 90//89 91//90 66//65
f 93//92 91//90 115//114
f 91//90 93//92 68//67
f 116//115 93//92 117//116
f 93//92 116//115 92//91
f 95//94 96//95 118//117
f 96//95 95//94 72//71
f 96//95 97//96 119//118
f 97//96 96//95 73//72
f 97//96 98//97 120//119
f 98//97 97//96 74//73
f 98//97 109//108 121//120
f 109//108 98//97 86//85
f 94//93 122//121 76//75
f 99//98 54//53 122//121
f 100//99 79//78 123//122
f 34//34 100//99 101//100
f 102//101 80//79 124//123
f 125//124 103//102 102//101
f 103//102 125//124 126//125
f 103//102 104//103 81//80
f 104//103 103//102 127//126
f 104//103 105//104 82//81
f 105//104 104//103 128//127
f 105//104 106//105 83//82
f 106//105 105//104 129//128
f 84//83 130//129 107//106
f 130//129 84//83 106//105
f 85//84 131//130 108//107
f 131//130 85//84 107//106
f 109//108 132//131 133//132
f 132//131 109//108 108//107
f 110//109 134//133 94//93
f 134//133 110//109 135//134
f 111//110 110//109 87//86
f 110//109 111//110 136//135
f 137//136 88//87 112//111
f 88//87 137//136 111//110
f 138//137 89//88 113//112
f 89//88 138//137 112//111
f 139//138 92//91 116//115
f 92//91 139//138 113//112
f 114//113 95//94 118//117
f 95//94 114//113 90//89
f 115//114 114//113 140//139
f 114//113 115//114 91//90
f 117//116 115//114 141//140
f 115//114 117//116 93//92
f 142//141 117//116 143//142
f 117//116 142//141 116//115
f 118//117 119//118 144//143
f 119//118 118//117 96//95
f 119//118 120//119 145//144
f 120//119 119//118 97//96
f 120//119 121//120 146//145
f 121//120 120//119 98//97
f 121//120 133//132 147//146
f 133//132 121//120 109//108
f 94//93 99//98 122//121
f 80//79 148//147 124//123
f 102//101 124//123 149//148
f 125//124 102//101 149//148
f 150//149 126//125 125//124
f 126//125 150//149 151//150
f 126//125 127//126 103//102
f 127//126 126//125 152//151
f 127//126 128//127 104//103
f 128//127 127//126 153//152
f 128//127 129//128 105//104
f 129//128 128//127 154//153
f 129//128 130//129 106//105
f 130//129 129//128 155//154
f 107//106 156//155 131//130
f 156//155 107//106 130//129
f 108//107 157//156 132//131
f 157//156 108//107 131//130
f 133//132 158//157 159//158
f 158//157 133//132 132//131
f 135//134 160//159 134//133
f 160//159 135//134 161//160
f 134//133 162//161 94//93
f 136//135 135//134 110//109
f 135//134 136//135 163//162
f 137//136 136//135 111//110
f 136//135 137//136 164//163
f 165//164 112//111 138//137
f 112//111 165//164 137//136
f 166//165 113//112 139//138
f 113//112 166//165 138//137
f 167//166 116//115 142//141
f 116//115 167//166 139//138
f 140//139 118//117 144//143
f 118//117 140//139 114//113
f 141//140 140//139 168//167
f 140//139 141//140 115//114
f 143//142 141//140 169//168
f 141//140 143//142 117//116
f 170//169 143//142 171//170
f 143//142 170//169 142//141
f 144//143 145//144 172//171
f 145//144 144//143 119//118
f 145//144 146//145 173//172
f 146//145 145//144 120//119
f 146//145 147//146 174//173
f 147//146 146//145 121//120
f 147//146 159//158 175//174
f 159//158 147//146 133//132
f 94//93 162//161 99//98
f 124//123 148//147 176//175
f 177//176 150//149 178//177
f 150//149 177//176 151//150
f 151//150 152//151 126//125
f 152//151 151//150 179//178
f 152//151 153//152 127//126
f 153//152 152//151 180//179
f 153//152 154//153 128//127
f 154//153 153//152 181//180
f 154//153 155//154 129//128
f 155//154 154//153 182//181
f 155//154 156//155 130//129
f 156//155 155//154 183//182
f 131//130 184//183 157//156
f 184//183 131//130 156//155
f 132//131 185//184 158//157
f 185//184 132//131 157//156
f 159//158 186//185 187//186
f 186//185 159//158 158//157
f 161//160 178//177 160//159
f 178//177 161//160 177//176
f 160//159 188//187 134//133
f 163//162 161//160 135//134
f 161//160 163//162 189//188
f 134//133 190//189 162//161
f 164//163 163//162 136//135
f 163//162 164//163 191//190
f 165//164 164//163 137//136
f 164//163 165//164 192//191
f 193//192 138//137 166//165
f 138//137 193//192 165//164
f 194//193 139//138 167//166
f 139//138 194//193 166//165
f 195//194 142//141 170//169
f 142//141 195//194 167//166
f 168//167 144//143 172//171
f 144//143 168//167 140//139
f 169//168 168//167 196//195
f 168//167 169//168 141//140
f 171//170 169//168 197//196
f 169//168 171//170 143//142
f 198//197 171//170 199//198
f 171//170 198//197 170//169
f 172//171 173//172 200//199
f 173//172 172//171 145//144
f 173//172 174//173 201//200
f 174//173 173//172 146//145
f 174//173 175//174 202//201
f 175//174 174//173 147//146
f 175//174 187//186 203//202
f 187//186 175//174 159//158
f 204//203 151//150 177//176
f 151//150 204//203 179//178
f 179//178 180//179 152//151
f 180//179 179//178 205//204
f 180//179 181//180 153//152
f 181//180 180//179 206//205
f 181//180 182//181 154//153
f 182//181 181//180 207//206
f 182//181 183//182 155//154
f 183//182 182//181 208//207
f 183//182 184//183 156//155
f 184//183 183//182 209//208
f 157//156 210//209 185//184
f 210//209 157//156 184//183
f 158//157 211//210 186//185
f 211//210 158//157 185//184
f 178//177 212//211 160//159
f 189//188 177//176 161//160
f 177//176 189//188 204//203
f 160//159 212//211 188//187
f 134//133 188//187 213//212
f 191//190 189//188 163//162
f 189//188 191//190 214//213
f 134//133 215//214 190//189
f 192//191 191//190 164//163
f 191//190 192//191 216//215
f 193//192 192//191 165//164
f 192//191 193//192 217//216
f 218//217 166//165 194//193
f 166//165 218//217 193//192
f 219//218 167//166 195//194
f 167//166 219//218 194//193
f 220//219 170//169 198//197
f 170//169 220//219 195//194
f 196//195 172//171 200//199
f 172//171 196//195 168//167
f 197//196 196//195 221//220
f 196//195 197//196 169//168
f 199//198 197//196 222//221
f 197//196 199//198 171//170
f 223//222 199//198 224//223
f 199//198 223//222 198//197
f 200//199 201//200 225//224
f 201//200 200//199 173//172
f 201//200 202//201 226//225
f 202//201 201//200 174//173
f 202//201 203//202 227//226
f 203//202 202//201 175//174
f 228//227 179//178 204//203
f 179//178 228//227 205//204
f 205//204 206//205 180//179
f 206//205 205//204 229//228
f 206//205 207//206 181//180
f 207//206 206//205 230//229
f 207//206 208//207 182//181
f 208//207 207//206 231//230
f 208//207 209//208 183//182
f 209//208 208//207 232//231
f 209//208 210//209 184//183
f 210//209 209//208 233//232
f 185//184 234//233 211//210
f 234//233 185//184 210//209
f 214//213 204//203 189//188
f 204//203 214//213 228//227
f 188//187 235//234 213//212
f 216//215 214//213 191//190
f 214//213 216//215 236//235
f 217//216 216//215 192//191
f 216//215 217//216 237//236
f 218//217 217//216 193//192
f 217//216 218//217 238//237
f 239//238 194//193 219//218
f 194//193 239//238 218//217
f 240//239 195//194 220//219
f 195//194 240//239 219//218
f 241//240 198//197 223//222
f 198//197 241//240 220//219
f 221//220 200//199 225//224
f 200//199 221//220 196//195
f 222//221 221//220 242//241
f 221//220 222//221 197//196
f 224//223 222//221 243//242
f 222//221 224//223 199//198
f 225//224 226//225 244//243
f 226//225 225//224 201//200
f 226//225 227//226 245//244
f 227//226 226//225 202//201
f 246//245 205//204 228//227
f 205//204 246//245 229//228
f 229//228 230//229 206//205
f 230//229 229//228 247//246
f 230//229 231//230 207//206
f 231//230 230//229 248//247
f 231//230 232//231 208//207
f 232//231 231//230 249//248
f 232//231 233//232 209//208
f 233//232 232//231 250//249
f 233//232 234//233 210//209
f 234//233 233//232 251//250
f 236//235 228//227 214//213
f 228//227 236//235 246//245
f 237//236 236//235 216//215
f 236//235 237//236 252//251
f 238//237 237//236 217//216
f 237//236 238//237 253//252
f 239//238 238//237 218//217
f 238//237 239//238 254//253
f 255//254 219//218 240//239
f 219//218 255//254 239//238
f 256//255 220//219 241//240
f 220//219 256//255 240//239
f 242//241 225//224 244//243
f 225//224 242//241 221//220
f 243//242 242//241 257//256
f 242//241 243//242 222//221
f 244//243 245//244 258//257
f 245//244 244//243 226//225
f 259//258 229//228 246//245
f 229//228 259//258 247//246
f 247//246 248//247 230//229
f 248//247 247//246 260//259
f 248//247 249//248 231//230
f 249//248 248//247 261//260
f 249//248 250//249 232//231
f 250//249 249//248 262//261
f 250//249 251//250 233//232
f 251//250 250//249 263//262
f 252//251 246//245 236//235
f 246//245 252//251 259//258
f 253//252 252//251 237//236
f 252//251 253//252 264//263
f 254//253 253//252 238//237
f 253//252 254//253 265//264
f 255//254 254//253 239//238
f 254//253 255//254 266//265
f 267//266 240//239 256//255
f 240//239 267//266 255//254
f 257//256 244//243 258//257
f 244//243 257//256 242//241
f 268//267 247//246 259//258
f 247//246 268//267 260//259
f 260//259 261//260 248//247
f 261//260 260//259 269//268
f 261//260 262//261 249//248
f 262//261 261//260 270//269
f 262//261 263//262 250//249
f 263//262 262//261 271//270
f 264//263 259//258 252//251
f 259//258 264//263 268//267
f 265//264 264//263 253//252
f 264//263 265//264 272//271
f 266//265 265//264 254//253
f 265//264 266//265 273//272
f 267//266 266//265 255//254
f 266//265 267//266 274//273
f 275//274 260//259 268//267
f 260//259 275//274 269//268
f 261//260 276//275 270//269
f 276//275 261//260 269//268
f 262//261 277//276 271//270
f 277//276 262//261 270//269
f 272//271 268//267 264//263
f 268//267 272//271 275//274
f 273//272 272//271 265//264
f 272//271 273//272 278//277
f 274//273 273//272 266//265
f 273//272 274//273 279//278
f 269//268 280//279 276//275
f 280//279 269//268 275//274
f 270//269 281//280 277//276
f 281//280 270//269 276//275
f 278//277 275//274 272//271
f 275//274 278//277 280//279
f 279//278 278//277 273//272
f 278//277 279//278 282//281
f 280//279 281//280 276//275
f 281//280 280//279 283//282
f 278//277 283//282 280//279
f 283//282 278//277 282//281
