# SSTK version 0.8.0
# 66
mtllib original-66.mtl
o #ID511
v -0.102645 0.473584 0.467653
v -0.103849 0.491728 0.460840
v -0.103849 0.473426 0.467712
v -0.100399 0.474514 0.467303
v -0.098471 0.475994 0.466748
v -0.096992 0.477922 0.466024
v -0.096062 0.480167 0.465181
v -0.095744 0.482577 0.464276
v -0.096062 0.484986 0.463371
v -0.096992 0.487232 0.462528
v -0.098471 0.489160 0.461804
v -0.100399 0.490639 0.461248
v -0.102645 0.491569 0.460899
vn 0 0.3515416202868696 0.9361722540249108
usemtl material_0_0
f 1//1 2//1 3//1
f 2//1 1//1 4//1
f 2//1 4//1 5//1
f 2//1 5//1 6//1
f 2//1 6//1 7//1
f 2//1 7//1 8//1
f 2//1 8//1 9//1
f 2//1 9//1 10//1
f 2//1 10//1 11//1
f 2//1 11//1 12//1
f 2//1 12//1 13//1
