# SSTK version 0.8.0
# 27
mtllib original-27.mtl
o #ID240
v 0.296714 0.487045 0.457522
v 0.293276 0.483951 0.453608
v 0.293276 0.485621 0.458057
v 0.296714 0.485375 0.453073
v 0.296714 0.485375 0.453073
v 0.296714 0.487045 0.457522
v 0.293276 0.483951 0.453608
v 0.293276 0.485621 0.458057
v 0.300404 0.487531 0.457340
v 0.300404 0.485861 0.452891
v 0.300404 0.485861 0.452891
v 0.300404 0.487531 0.457340
v 0.290324 0.481685 0.454459
v 0.290324 0.483356 0.458908
v 0.290324 0.481685 0.454459
v 0.290324 0.483356 0.458908
v 0.304093 0.487045 0.457522
v 0.304093 0.485375 0.453073
v 0.304093 0.485375 0.453073
v 0.304093 0.487045 0.457522
v 0.288059 0.478733 0.455568
v 0.288059 0.480403 0.460017
v 0.288059 0.478733 0.455568
v 0.288059 0.480403 0.460017
v 0.307531 0.485621 0.458057
v 0.307531 0.483951 0.453608
v 0.307531 0.483951 0.453608
v 0.307531 0.485621 0.458057
v 0.286635 0.475295 0.456859
v 0.286635 0.476965 0.461307
v 0.286635 0.475295 0.456859
v 0.286635 0.476965 0.461307
v 0.310484 0.483356 0.458908
v 0.310484 0.481685 0.454459
v 0.310484 0.481685 0.454459
v 0.310484 0.483356 0.458908
v 0.286149 0.471606 0.458244
v 0.286149 0.473276 0.462693
v 0.286149 0.471606 0.458244
v 0.286149 0.473276 0.462693
v 0.312749 0.478733 0.455568
v 0.312749 0.480403 0.460017
v 0.312749 0.478733 0.455568
v 0.312749 0.480403 0.460017
v 0.286635 0.467916 0.459629
v 0.286635 0.469586 0.464078
v 0.286635 0.467916 0.459629
v 0.286635 0.469586 0.464078
v 0.314173 0.475295 0.456859
v 0.314173 0.476965 0.461307
v 0.314173 0.475295 0.456859
v 0.314173 0.476965 0.461307
v 0.288059 0.464478 0.460921
v 0.288059 0.466148 0.465369
v 0.288059 0.464478 0.460921
v 0.288059 0.466148 0.465369
v 0.314659 0.471606 0.458244
v 0.314659 0.473276 0.462693
v 0.314659 0.471606 0.458244
v 0.314659 0.473276 0.462693
v 0.290324 0.461526 0.462030
v 0.290324 0.463196 0.466477
v 0.290324 0.461526 0.462030
v 0.290324 0.463196 0.466477
v 0.314173 0.467916 0.459629
v 0.314173 0.469586 0.464078
v 0.314173 0.467916 0.459629
v 0.314173 0.469586 0.464078
v 0.293276 0.460931 0.467328
v 0.293276 0.459260 0.462880
v 0.293276 0.459260 0.462880
v 0.293276 0.460931 0.467328
v 0.312749 0.464478 0.460921
v 0.312749 0.466148 0.465369
v 0.312749 0.464478 0.460921
v 0.312749 0.466148 0.465369
v 0.296714 0.459507 0.467863
v 0.296714 0.457836 0.463414
v 0.296714 0.457836 0.463414
v 0.296714 0.459507 0.467863
v 0.310484 0.461526 0.462030
v 0.310484 0.463196 0.466477
v 0.310484 0.461526 0.462030
v 0.310484 0.463196 0.466477
v 0.300404 0.459021 0.468045
v 0.300404 0.457350 0.463598
v 0.300404 0.457350 0.463598
v 0.300404 0.459021 0.468045
v 0.307531 0.459260 0.462880
v 0.307531 0.460931 0.467328
v 0.307531 0.459260 0.462880
v 0.307531 0.460931 0.467328
v 0.304093 0.459507 0.467863
v 0.304093 0.457836 0.463414
v 0.304093 0.457836 0.463414
v 0.304093 0.459507 0.467863
vn -0.2745645993744965 0.9001938979492099 -0.33803139922990844
vn -0.5240359045983652 0.797334306996533 -0.2994067026272652
vn 0.2745645993744965 -0.9001938979492099 0.33803139922990844
vn 0.5240359045983652 -0.797334306996533 0.2994067026272652
vn 0 0.9361722540249108 -0.3515416202868696
vn 0 -0.9361722540249108 0.3515416202868696
vn -0.729254895794234 0.640568496305707 -0.2405395986127575
vn 0.729254895794234 -0.640568496305707 0.2405395986127575
vn 0.2745645993744965 0.9001938979492099 -0.33803139922990844
vn -0.2745645993744965 -0.9001938979492099 0.33803139922990844
vn -0.8792887011449966 0.4458887005806297 -0.16743550021803189
vn 0.8792887011449966 -0.4458887005806297 0.16743550021803189
vn 0.5240359045983652 0.797334306996533 -0.2994067026272652
vn -0.5240359045983652 -0.797334306996533 0.2994067026272652
vn -0.9698267117127319 0.22823440275641863 -0.08570418103506125
vn 0.9698267117127319 -0.22823440275641863 0.08570418103506125
vn 0.729254895794234 0.640568496305707 -0.2405395986127575
vn -0.729254895794234 -0.640568496305707 0.2405395986127575
vn -1 0 0
vn 1 0 0
vn 0.8792887011449966 0.4458887005806297 -0.16743550021803189
vn -0.8792887011449966 -0.4458887005806297 0.16743550021803189
vn -0.9698267117127319 -0.22823440275641863 0.08570418103506125
vn 0.9698267117127319 0.22823440275641863 -0.08570418103506125
usemtl material_0_0
f 1//1 2//2 3//2
f 2//2 1//1 4//1
f 5//3 6//3 7//4
f 8//4 7//4 6//3
f 9//5 4//1 1//1
f 4//1 9//5 10//5
f 11//6 12//6 5//3
f 6//3 5//3 12//6
f 3//2 13//7 14//7
f 13//7 3//2 2//2
f 7//4 8//4 15//8
f 16//8 15//8 8//4
f 17//9 10//5 9//5
f 10//5 17//9 18//9
f 19//10 20//10 11//6
f 12//6 11//6 20//10
f 14//7 21//11 22//11
f 21//11 14//7 13//7
f 15//8 16//8 23//12
f 24//12 23//12 16//8
f 25//13 18//9 17//9
f 18//9 25//13 26//13
f 27//14 28//14 19//10
f 20//10 19//10 28//14
f 22//11 29//15 30//15
f 29//15 22//11 21//11
f 23//12 24//12 31//16
f 32//16 31//16 24//12
f 33//17 26//13 25//13
f 26//13 33//17 34//17
f 35//18 36//18 27//14
f 28//14 27//14 36//18
f 30//15 37//19 38//19
f 37//19 30//15 29//15
f 31//16 32//16 39//20
f 40//20 39//20 32//16
f 41//21 33//17 42//21
f 33//17 41//21 34//17
f 35//18 43//22 36//18
f 44//22 36//18 43//22
f 38//19 45//23 46//23
f 45//23 38//19 37//19
f 39//20 40//20 47//24
f 48//24 47//24 40//20
f 49//24 42//21 50//24
f 42//21 49//24 41//21
f 43//22 51//23 44//22
f 52//23 44//22 51//23
f 46//23 53//22 54//22
f 53//22 46//23 45//23
f 47//24 48//24 55//21
f 56//21 55//21 48//24
f 57//20 50//24 58//20
f 50//24 57//20 49//24
f 51//23 59//19 52//23
f 60//19 52//23 59//19
f 54//22 61//18 62//18
f 61//18 54//22 53//22
f 55//21 56//21 63//17
f 64//17 63//17 56//21
f 65//16 58//20 66//16
f 58//20 65//16 57//20
f 59//19 67//15 60//19
f 68//15 60//19 67//15
f 61//18 69//14 62//18
f 69//14 61//18 70//14
f 71//13 63//17 72//13
f 64//17 72//13 63//17
f 73//12 66//16 74//12
f 66//16 73//12 65//16
f 67//15 75//11 68//15
f 76//11 68//15 75//11
f 70//14 77//10 69//14
f 77//10 70//14 78//10
f 79//9 71//13 80//9
f 72//13 80//9 71//13
f 81//8 74//12 82//8
f 74//12 81//8 73//12
f 75//11 83//7 76//11
f 84//7 76//11 83//7
f 78//10 85//6 77//10
f 85//6 78//10 86//6
f 87//5 79//9 88//5
f 80//9 88//5 79//9
f 89//4 82//8 90//4
f 82//8 89//4 81//8
f 83//7 91//2 84//7
f 92//2 84//7 91//2
f 86//6 93//3 85//6
f 93//3 86//6 94//3
f 95//1 87//5 96//1
f 88//5 96//1 87//5
f 94//3 90//4 93//3
f 90//4 94//3 89//4
f 91//2 95//1 92//2
f 96//1 92//2 95//1
