# SSTK version 0.8.0
# 36
mtllib original-36.mtl
o #ID296
v -0.101147 0.469775 0.469083
v -0.108961 0.469775 0.469083
v -0.105054 0.469307 0.469258
v -0.097517 0.471143 0.468569
v -0.112591 0.471143 0.468569
v -0.105054 0.471173 0.468558
v -0.102103 0.471561 0.468412
v -0.094419 0.473307 0.467757
v -0.099352 0.472701 0.467985
v -0.096990 0.474513 0.467304
v -0.092058 0.476107 0.466706
v -0.095178 0.476875 0.466417
v -0.090583 0.479348 0.465489
v -0.094039 0.479625 0.465384
v -0.090082 0.482812 0.464188
v -0.093650 0.482577 0.464276
v -0.094039 0.485528 0.463168
v -0.090583 0.486276 0.462887
v -0.095178 0.488279 0.462135
v -0.092058 0.489517 0.461670
v -0.096990 0.490641 0.461248
v -0.094419 0.492317 0.460618
v -0.099352 0.492453 0.460567
v -0.097517 0.494481 0.459806
v -0.102103 0.493592 0.460140
v -0.105054 0.493981 0.459994
v -0.108006 0.471561 0.468412
v -0.115689 0.473307 0.467757
v -0.106259 0.471331 0.468499
v -0.110756 0.472701 0.467985
v -0.113118 0.474513 0.467304
v -0.118050 0.476107 0.466706
v -0.114930 0.476875 0.466417
v -0.119525 0.479348 0.465489
v -0.116070 0.479625 0.465384
v -0.120026 0.482812 0.464188
v -0.116458 0.482577 0.464276
v -0.116070 0.485528 0.463168
v -0.119525 0.486276 0.462887
v -0.114930 0.488279 0.462135
v -0.118050 0.489517 0.461670
v -0.113118 0.490641 0.461248
v -0.115689 0.492317 0.460618
v -0.110756 0.492453 0.460567
v -0.112591 0.494481 0.459806
v -0.108006 0.493592 0.460140
v -0.101147 0.495849 0.459291
v -0.108961 0.495849 0.459291
v -0.105054 0.496317 0.459116
v -0.100834 0.468595 0.469354
v -0.105054 0.469307 0.469258
v -0.105054 0.468089 0.469543
v -0.101147 0.469775 0.469083
v -0.096910 0.470074 0.468798
v -0.097517 0.471143 0.468569
v -0.093554 0.472418 0.467917
v -0.094419 0.473307 0.467757
v -0.090991 0.475457 0.466777
v -0.092058 0.476107 0.466706
v -0.089387 0.478982 0.465453
v -0.090583 0.479348 0.465489
v -0.088841 0.482755 0.464036
v -0.090082 0.482812 0.464188
v -0.089387 0.486528 0.462619
v -0.090583 0.486276 0.462887
v -0.092058 0.489517 0.461670
v -0.090991 0.490053 0.461296
v -0.094419 0.492317 0.460618
v -0.093554 0.493092 0.460154
v -0.097517 0.494481 0.459806
v -0.096910 0.495436 0.459274
v -0.101147 0.495849 0.459291
v -0.100834 0.496915 0.458718
v -0.105054 0.496317 0.459116
v -0.105054 0.497421 0.458529
v -0.109274 0.496915 0.458718
v -0.108961 0.495849 0.459291
v -0.113198 0.495436 0.459274
v -0.112591 0.494481 0.459806
v -0.116554 0.493092 0.460154
v -0.115689 0.492317 0.460618
v -0.119117 0.490053 0.461296
v -0.118050 0.489517 0.461670
v -0.120721 0.486528 0.462619
v -0.119525 0.486276 0.462887
v -0.120026 0.482812 0.464188
v -0.121267 0.482755 0.464036
v -0.119525 0.479348 0.465489
v -0.120721 0.478982 0.465453
v -0.118050 0.476107 0.466706
v -0.119117 0.475457 0.466777
v -0.115689 0.473307 0.467757
v -0.116554 0.472418 0.467917
v -0.112591 0.471143 0.468569
v -0.113198 0.470074 0.468798
v -0.108961 0.469775 0.469083
v -0.109274 0.468595 0.469354
v -0.100542 0.467381 0.469302
v -0.105054 0.466841 0.469504
v -0.096344 0.468964 0.468708
v -0.092748 0.471475 0.467764
v -0.089997 0.474738 0.466539
v -0.088272 0.478528 0.465116
v -0.087685 0.482588 0.463592
v -0.088272 0.486648 0.462067
v -0.089997 0.490438 0.460644
v -0.092748 0.493701 0.459418
v -0.096344 0.496212 0.458476
v -0.100542 0.497795 0.457882
v -0.105054 0.498336 0.457678
v -0.109566 0.497795 0.457882
v -0.113764 0.496212 0.458476
v -0.117360 0.493701 0.459418
v -0.120111 0.490438 0.460644
v -0.121836 0.486648 0.462067
v -0.122424 0.482588 0.463592
v -0.121836 0.478528 0.465116
v -0.120111 0.474738 0.466539
v -0.117360 0.471475 0.467764
v -0.113764 0.468964 0.468708
v -0.109566 0.467381 0.469302
v -0.100292 0.466217 0.468932
v -0.105054 0.465646 0.469147
v -0.095858 0.467888 0.468305
v -0.092056 0.470544 0.467308
v -0.089143 0.473999 0.466010
v -0.087315 0.478016 0.464502
v -0.086691 0.482323 0.462884
v -0.087315 0.486630 0.461267
v -0.089143 0.490647 0.459758
v -0.092056 0.494102 0.458461
v -0.095858 0.496757 0.457464
v -0.100292 0.498428 0.456836
v -0.105054 0.498999 0.456623
v -0.109816 0.498428 0.456836
v -0.114250 0.496757 0.457464
v -0.118053 0.494102 0.458461
v -0.120965 0.490647 0.459758
v -0.122794 0.486630 0.461267
v -0.123417 0.482323 0.462884
v -0.122794 0.478016 0.464502
v -0.120965 0.473999 0.466010
v -0.118053 0.470544 0.467308
v -0.114250 0.467888 0.468305
v -0.109816 0.466217 0.468932
vn 0 0.3515416202868696 0.9361722540249108
vn 0.06728894847261756 0.09720116779364406 0.992987477460316
vn 0 0.2273590024325138 0.9738110104188042
vn 0 0.08914588816137246 0.9960185794571907
vn 0.03266724921132046 0.23128779441605998 0.9723367765250474
vn 0.13066109416325017 0.1210709945916484 0.9840068560435193
vn 0.06340872292483399 0.2429202112051031 0.9679716446493202
vn 0.1860971978589992 0.1597552981620558 0.9694565888466492
vn 0.090263072829818 0.26174500820591073 0.9609069301251848
vn 0.22956399335737085 0.21127609388654653 0.9500856725084641
vn 0.11128460175729737 0.2867736045284475 0.9515128150253581
vn 0.2574099128887373 0.2724251136405612 0.927105546420978
vn 0.12473190425045115 0.3164338107830184 0.9403784320449897
vn 0.2670127140850158 0.33877821787067147 0.9021826475904563
vn 0.12936530111841413 0.3485876030136773 0.9283056080255687
vn 0.2574098901225713 0.40513568445398157 0.8772714663370109
vn 0.12473189751219364 0.38074069240603914 0.9162305817255706
vn 0.11128460070493176 0.4103987025996684 0.9050904057332908
vn 0.22956399645829928 0.46629669280600017 0.8543229868195522
vn 0.09026306651454252 0.4354243831863324 0.8956886654134868
vn 0.1860971983626117 0.5178334954438081 0.8349947926532443
vn 0.06340872255281753 0.4542464182878342 0.8886166357754586
vn 0.1306611028511749 0.5565335121441984 0.8204865179039557
vn 0.03266725074742895 0.46587691065929554 0.8842463202316169
vn 0.06728894896783355 0.5804146910968353 0.8115361875515901
vn 0 0.4698050084487288 0.8827702158752807
vn 0 0.5884741327701213 0.8085160450235068
vn -0.06728894896783355 0.5804146910968353 0.8115361875515901
vn -0.03266725074742895 0.46587691065929554 0.8842463202316169
vn -0.1306611028511749 0.5565335121441984 0.8204865179039557
vn -0.06340872255281753 0.4542464182878342 0.8886166357754586
vn -0.1860971983626117 0.5178334954438081 0.8349947926532443
vn -0.09026306651454252 0.4354243831863324 0.8956886654134868
vn -0.22956399645829928 0.46629669280600017 0.8543229868195522
vn -0.11128460070493176 0.4103987025996684 0.9050904057332908
vn -0.2574098901225713 0.40513568445398157 0.8772714663370109
vn -0.12473189751219364 0.38074069240603914 0.9162305817255706
vn -0.12936530111841413 0.3485876030136773 0.9283056080255687
vn -0.2670127140850158 0.33877821787067147 0.9021826475904563
vn -0.12473190425045115 0.3164338107830184 0.9403784320449897
vn -0.2574099128887373 0.2724251136405612 0.927105546420978
vn -0.11128460175729737 0.2867736045284475 0.9515128150253581
vn -0.22956399335737085 0.21127609388654653 0.9500856725084641
vn -0.090263072829818 0.26174500820591073 0.9609069301251848
vn -0.1860971978589992 0.1597552981620558 0.9694565888466492
vn -0.06340872292483399 0.2429202112051031 0.9679716446493202
vn -0.13066109416325017 0.1210709945916484 0.9840068560435193
vn -0.03266724921132046 0.23128779441605998 0.9723367765250474
vn -0.06728894847261756 0.09720116779364406 0.992987477460316
vn 0.1273867979370033 -0.15395289750677232 0.9798321841318678
vn 0 -0.1692363978604113 0.9855754875397584
vn 0.24731350259994625 -0.10868180114254535 0.9628210101219015
vn 0.3521523155920609 -0.03536457156581855 0.9352743414106449
vn 0.4342912160719556 0.062201622301915366 0.8986223332556075
vn 0.48687541415549157 0.17791620517276324 0.8551597248630468
vn 0.5050019879725469 0.303421992773506 0.8080272807555013
vn 0.48687541215107155 0.42893031070492094 0.7609015189900098
vn 0.43429121164577733 0.5446519146051652 0.7174576192390533
vn 0.35215230105798695 0.642227901929474 0.6808319020454541
vn 0.24731349324256077 0.7155552804486149 0.6533120821493092
vn 0.1273867977551612 0.7608338865924141 0.6363209887866088
vn 0 0.7761201085505074 0.6305851069471501
vn -0.1273867977551612 0.7608338865924141 0.6363209887866088
vn -0.24731349324256077 0.7155552804486149 0.6533120821493092
vn -0.35215230105798695 0.642227901929474 0.6808319020454541
vn -0.43429121164577733 0.5446519146051652 0.7174576192390533
vn -0.48687541215107155 0.42893031070492094 0.7609015189900098
vn -0.5050019879725469 0.303421992773506 0.8080272807555013
vn -0.48687541415549157 0.17791620517276324 0.8551597248630468
vn -0.4342912160719556 0.062201622301915366 0.8986223332556075
vn -0.3521523155920609 -0.03536457156581855 0.9352743414106449
vn -0.24731350259994625 -0.10868180114254535 0.9628210101219015
vn -0.1273867979370033 -0.15395289750677232 0.9798321841318678
vn 0.17902139495401265 -0.3950838888639664 0.9010327746030355
vn 0 -0.41657481677192765 0.9091014366017882
vn 0.3475442127947467 -0.3314317122015695 0.8771351322914936
vn 0.49484327093872393 -0.2283635865886079 0.8384391507599416
vn 0.6102287653618022 -0.09123429482130044 0.7869543553303906
vn 0.6840858943855601 0.07137289941422711 0.7259010940423737
vn 0.7095434858847856 0.24771789507205494 0.6596846868766454
vn 0.6840859209512604 0.4240610129875683 0.5934633181757938
vn 0.6102287586176492 0.5866634602157178 0.5323972638957523
vn 0.49484328436603287 0.7237870771328342 0.48089748480663347
vn 0.34754420045267637 0.8268506010769728 0.4421890005759514
vn 0.17902139365365502 0.8904998684315976 0.4182837851717545
vn 0 0.9119898831540422 0.41021269242269504
vn -0.17902139365365502 0.8904998684315976 0.4182837851717545
vn -0.34754420045267637 0.8268506010769728 0.4421890005759514
vn -0.49484328436603287 0.7237870771328342 0.48089748480663347
vn -0.6102287586176492 0.5866634602157178 0.5323972638957523
vn -0.6840859209512604 0.4240610129875683 0.5934633181757938
vn -0.7095434858847856 0.24771789507205494 0.6596846868766454
vn -0.6840858943855601 0.07137289941422711 0.7259010940423737
vn -0.6102287653618022 -0.09123429482130044 0.7869543553303906
vn -0.49484327093872393 -0.2283635865886079 0.8384391507599416
vn -0.3475442127947467 -0.3314317122015695 0.8771351322914936
vn -0.17902139495401265 -0.3950838888639664 0.9010327746030355
usemtl material_0_0
f 1//1 2//1 3//1
f 2//1 1//1 4//1
f 2//1 4//1 5//1
f 5//1 4//1 6//1
f 6//1 4//1 7//1
f 7//1 4//1 8//1
f 7//1 8//1 9//1
f 9//1 8//1 10//1
f 10//1 8//1 11//1
f 10//1 11//1 12//1
f 12//1 11//1 13//1
f 12//1 13//1 14//1
f 14//1 13//1 15//1
f 14//1 15//1 16//1
f 16//1 15//1 17//1
f 17//1 15//1 18//1
f 17//1 18//1 19//1
f 19//1 18//1 20//1
f 19//1 20//1 21//1
f 21//1 20//1 22//1
f 21//1 22//1 23//1
f 23//1 22//1 24//1
f 23//1 24//1 25//1
f 25//1 24//1 26//1
f 5//1 27//1 28//1
f 27//1 5//1 6//1
f 27//1 6//1 29//1
f 28//1 27//1 30//1
f 28//1 30//1 31//1
f 28//1 31//1 32//1
f 32//1 31//1 33//1
f 32//1 33//1 34//1
f 34//1 33//1 35//1
f 34//1 35//1 36//1
f 36//1 35//1 37//1
f 36//1 37//1 38//1
f 36//1 38//1 39//1
f 39//1 38//1 40//1
f 39//1 40//1 41//1
f 41//1 40//1 42//1
f 41//1 42//1 43//1
f 43//1 42//1 44//1
f 43//1 44//1 45//1
f 45//1 44//1 46//1
f 45//1 46//1 26//1
f 45//1 26//1 24//1
f 45//1 24//1 47//1
f 45//1 47//1 48//1
f 48//1 47//1 49//1
f 50//2 51//3 52//4
f 51//3 50//2 53//5
f 54//6 53//5 50//2
f 53//5 54//6 55//7
f 56//8 55//7 54//6
f 55//7 56//8 57//9
f 58//10 57//9 56//8
f 57//9 58//10 59//11
f 60//12 59//11 58//10
f 59//11 60//12 61//13
f 62//14 61//13 60//12
f 61//13 62//14 63//15
f 64//16 63//15 62//14
f 63//15 64//16 65//17
f 64//16 66//18 65//17
f 66//18 64//16 67//19
f 67//19 68//20 66//18
f 68//20 67//19 69//21
f 69//21 70//22 68//20
f 70//22 69//21 71//23
f 71//23 72//24 70//22
f 72//24 71//23 73//25
f 73//25 74//26 72//24
f 74//26 73//25 75//27
f 74//26 76//28 77//29
f 76//28 74//26 75//27
f 77//29 78//30 79//31
f 78//30 77//29 76//28
f 79//31 80//32 81//33
f 80//32 79//31 78//30
f 81//33 82//34 83//35
f 82//34 81//33 80//32
f 83//35 84//36 85//37
f 84//36 83//35 82//34
f 86//38 84//36 87//39
f 84//36 86//38 85//37
f 88//40 87//39 89//41
f 87//39 88//40 86//38
f 90//42 89//41 91//43
f 89//41 90//42 88//40
f 92//44 91//43 93//45
f 91//43 92//44 90//42
f 94//46 93//45 95//47
f 93//45 94//46 92//44
f 96//48 95//47 97//49
f 95//47 96//48 94//46
f 51//3 97//49 52//4
f 97//49 51//3 96//48
f 98//50 52//4 99//51
f 52//4 98//50 50//2
f 100//52 50//2 98//50
f 50//2 100//52 54//6
f 101//53 54//6 100//52
f 54//6 101//53 56//8
f 102//54 56//8 101//53
f 56//8 102//54 58//10
f 103//55 58//10 102//54
f 58//10 103//55 60//12
f 104//56 60//12 103//55
f 60//12 104//56 62//14
f 105//57 62//14 104//56
f 62//14 105//57 64//16
f 105//57 67//19 64//16
f 67//19 105//57 106//58
f 106//58 69//21 67//19
f 69//21 106//58 107//59
f 107//59 71//23 69//21
f 71//23 107//59 108//60
f 108//60 73//25 71//23
f 73//25 108//60 109//61
f 109//61 75//27 73//25
f 75//27 109//61 110//62
f 75//27 111//63 76//28
f 111//63 75//27 110//62
f 76//28 112//64 78//30
f 112//64 76//28 111//63
f 78//30 113//65 80//32
f 113//65 78//30 112//64
f 80//32 114//66 82//34
f 114//66 80//32 113//65
f 82//34 115//67 84//36
f 115//67 82//34 114//66
f 87//39 115//67 116//68
f 115//67 87//39 84//36
f 89//41 116//68 117//69
f 116//68 89//41 87//39
f 91//43 117//69 118//70
f 117//69 91//43 89//41
f 93//45 118//70 119//71
f 118//70 93//45 91//43
f 95//47 119//71 120//72
f 119//71 95//47 93//45
f 97//49 120//72 121//73
f 120//72 97//49 95//47
f 52//4 121//73 99//51
f 121//73 52//4 97//49
f 122//74 99//51 123//75
f 99//51 122//74 98//50
f 124//76 98//50 122//74
f 98//50 124//76 100//52
f 125//77 100//52 124//76
f 100//52 125//77 101//53
f 126//78 101//53 125//77
f 101//53 126//78 102//54
f 127//79 102//54 126//78
f 102//54 127//79 103//55
f 128//80 103//55 127//79
f 103//55 128//80 104//56
f 129//81 104//56 128//80
f 104//56 129//81 105//57
f 130//82 105//57 129//81
f 105//57 130//82 106//58
f 106//58 131//83 107//59
f 131//83 106//58 130//82
f 107//59 132//84 108//60
f 132//84 107//59 131//83
f 108//60 133//85 109//61
f 133//85 108//60 132//84
f 109//61 134//86 110//62
f 134//86 109//61 133//85
f 111//63 134//86 135//87
f 134//86 111//63 110//62
f 112//64 135//87 136//88
f 135//87 112//64 111//63
f 113//65 136//88 137//89
f 136//88 113//65 112//64
f 114//66 137//89 138//90
f 137//89 114//66 113//65
f 115//67 138//90 139//91
f 138//90 115//67 114//66
f 116//68 139//91 140//92
f 139//91 116//68 115//67
f 117//69 140//92 141//93
f 140//92 117//69 116//68
f 118//70 141//93 142//94
f 141//93 118//70 117//69
f 119//71 142//94 143//95
f 142//94 119//71 118//70
f 120//72 143//95 144//96
f 143//95 120//72 119//71
f 121//73 144//96 145//97
f 144//96 121//73 120//72
f 99//51 145//97 123//75
f 145//97 99//51 121//73
