# SSTK version 0.8.0
# 29
mtllib original-29.mtl
o #ID252
v 0.258215 0.462027 0.463364
v 0.255263 0.460931 0.467328
v 0.255263 0.459761 0.464214
v 0.258215 0.463196 0.466477
v 0.258215 0.463196 0.466477
v 0.258215 0.462027 0.463364
v 0.255263 0.460931 0.467328
v 0.255263 0.459761 0.464214
v 0.251825 0.458337 0.464749
v 0.251825 0.459507 0.467863
v 0.251825 0.458337 0.464749
v 0.251825 0.459507 0.467863
v 0.255288 0.459593 0.463884
v 0.258215 0.462027 0.463364
v 0.255263 0.459761 0.464214
v 0.258251 0.461866 0.463030
v 0.258251 0.461866 0.463030
v 0.255288 0.459593 0.463884
v 0.258215 0.462027 0.463364
v 0.255263 0.459761 0.464214
v 0.260481 0.466148 0.465369
v 0.260481 0.464979 0.462256
v 0.260481 0.464979 0.462256
v 0.260481 0.466148 0.465369
v 0.248135 0.457852 0.464931
v 0.248135 0.459021 0.468045
v 0.248135 0.457852 0.464931
v 0.248135 0.459021 0.468045
v 0.251838 0.458163 0.464421
v 0.251825 0.458337 0.464749
v 0.251838 0.458163 0.464421
v 0.251825 0.458337 0.464749
v 0.258356 0.461653 0.462743
v 0.255364 0.459357 0.463605
v 0.258356 0.461653 0.462743
v 0.255364 0.459357 0.463605
v 0.260481 0.464979 0.462256
v 0.260524 0.464828 0.461918
v 0.260524 0.464828 0.461918
v 0.260481 0.464979 0.462256
v 0.261905 0.469586 0.464078
v 0.261905 0.468417 0.460964
v 0.261905 0.468417 0.460964
v 0.261905 0.469586 0.464078
v 0.244446 0.458337 0.464749
v 0.244446 0.459507 0.467863
v 0.244446 0.458337 0.464749
v 0.244446 0.459507 0.467863
v 0.248135 0.457852 0.464931
v 0.248135 0.457676 0.464603
v 0.248135 0.457852 0.464931
v 0.248135 0.457676 0.464603
v 0.251878 0.457913 0.464147
v 0.251878 0.457913 0.464147
v 0.258522 0.461403 0.462521
v 0.255484 0.459071 0.463397
v 0.258522 0.461403 0.462521
v 0.255484 0.459071 0.463397
v 0.260650 0.464643 0.461621
v 0.260650 0.464643 0.461621
v 0.261905 0.468417 0.460964
v 0.261952 0.468276 0.460623
v 0.261952 0.468276 0.460623
v 0.261905 0.468417 0.460964
v 0.262390 0.473276 0.462693
v 0.262390 0.472107 0.459579
v 0.262390 0.472107 0.459579
v 0.262390 0.473276 0.462693
v 0.241008 0.459761 0.464214
v 0.241008 0.460931 0.467328
v 0.241008 0.459761 0.464214
v 0.241008 0.460931 0.467328
v 0.244446 0.458337 0.464749
v 0.244432 0.458163 0.464421
v 0.244446 0.458337 0.464749
v 0.244432 0.458163 0.464421
v 0.248135 0.457420 0.464333
v 0.248135 0.457420 0.464333
v 0.251941 0.457603 0.463948
v 0.251941 0.457603 0.463948
v 0.258739 0.461132 0.462381
v 0.255640 0.458754 0.463274
v 0.258739 0.461132 0.462381
v 0.255640 0.458754 0.463274
v 0.260851 0.464437 0.461382
v 0.260851 0.464437 0.461382
v 0.262091 0.468123 0.460314
v 0.262091 0.468123 0.460314
v 0.262390 0.472107 0.459579
v 0.262439 0.471977 0.459233
v 0.262439 0.471977 0.459233
v 0.262390 0.472107 0.459579
v 0.261905 0.476965 0.461307
v 0.261905 0.475796 0.458193
v 0.261905 0.475796 0.458193
v 0.261905 0.476965 0.461307
v 0.238055 0.462027 0.463364
v 0.238055 0.463196 0.466477
v 0.238055 0.462027 0.463364
v 0.238055 0.463196 0.466477
v 0.241008 0.459761 0.464214
v 0.240982 0.459593 0.463884
v 0.241008 0.459761 0.464214
v 0.240982 0.459593 0.463884
v 0.244393 0.457913 0.464147
v 0.244393 0.457913 0.464147
v 0.248135 0.457102 0.464136
v 0.248135 0.457102 0.464136
v 0.252022 0.457255 0.463837
v 0.252022 0.457255 0.463837
v 0.258992 0.460860 0.462332
v 0.255822 0.458427 0.463245
v 0.258992 0.460860 0.462332
v 0.255822 0.458427 0.463245
v 0.261112 0.464225 0.461220
v 0.261112 0.464225 0.461220
v 0.262313 0.467967 0.460057
v 0.262313 0.467967 0.460057
v 0.262583 0.471856 0.458911
v 0.262583 0.471856 0.458911
v 0.261905 0.475796 0.458193
v 0.261952 0.475678 0.457844
v 0.261952 0.475678 0.457844
v 0.261905 0.475796 0.458193
v 0.260481 0.480403 0.460017
v 0.260481 0.479234 0.456903
v 0.260481 0.479234 0.456903
v 0.260481 0.480403 0.460017
v 0.235790 0.466148 0.465369
v 0.235790 0.464979 0.462256
v 0.235790 0.464979 0.462256
v 0.235790 0.466148 0.465369
v 0.238055 0.462027 0.463364
v 0.238020 0.461866 0.463030
v 0.238055 0.462027 0.463364
v 0.238020 0.461866 0.463030
v 0.240907 0.459357 0.463605
v 0.240907 0.459357 0.463605
v 0.244330 0.457603 0.463948
v 0.244330 0.457603 0.463948
v 0.248135 0.456744 0.464029
v 0.248135 0.456744 0.464029
v 0.252118 0.456893 0.463821
v 0.252118 0.456893 0.463821
v 0.259264 0.460605 0.462375
v 0.256017 0.458113 0.463310
v 0.259264 0.460605 0.462375
v 0.256017 0.458113 0.463310
v 0.261417 0.464020 0.461144
v 0.261417 0.464020 0.461144
v 0.262601 0.467819 0.459870
v 0.262601 0.467819 0.459870
v 0.262811 0.471752 0.458635
v 0.262811 0.471752 0.458635
v 0.262091 0.475589 0.457510
v 0.262091 0.475589 0.457510
v 0.260481 0.479234 0.456903
v 0.260524 0.479126 0.456549
v 0.260524 0.479126 0.456549
v 0.260481 0.479234 0.456903
v 0.258215 0.483356 0.458908
v 0.258215 0.482186 0.455794
v 0.258215 0.482186 0.455794
v 0.258215 0.483356 0.458908
v 0.234366 0.469586 0.464078
v 0.234366 0.468417 0.460964
v 0.234366 0.468417 0.460964
v 0.234366 0.469586 0.464078
v 0.235790 0.464979 0.462256
v 0.235747 0.464828 0.461918
v 0.235747 0.464828 0.461918
v 0.235790 0.464979 0.462256
v 0.237915 0.461653 0.462743
v 0.237915 0.461653 0.462743
v 0.240787 0.459071 0.463397
v 0.240787 0.459071 0.463397
v 0.244248 0.457255 0.463837
v 0.244248 0.457255 0.463837
v 0.248135 0.456470 0.464021
v 0.248135 0.456369 0.464018
v 0.248135 0.456470 0.464021
v 0.248135 0.456369 0.464018
v 0.252220 0.456541 0.463902
v 0.252220 0.456541 0.463902
v 0.252220 0.456541 0.463902
v 0.244051 0.456541 0.463902
v 0.248135 0.456003 0.464103
v 0.248135 0.456876 0.463775
v 0.251901 0.457372 0.463589
v 0.256017 0.458113 0.463310
v 0.255420 0.458830 0.463041
v 0.259264 0.460605 0.462375
v 0.258455 0.461158 0.462168
v 0.261744 0.463837 0.461161
v 0.260795 0.464208 0.461022
v 0.263298 0.467588 0.459752
v 0.262271 0.467772 0.459684
v 0.263827 0.471606 0.458244
v 0.262776 0.471606 0.458244
v 0.263298 0.475623 0.456736
v 0.262271 0.475439 0.456805
v 0.260795 0.479003 0.455467
v 0.261744 0.479374 0.455328
v 0.258455 0.482052 0.454321
v 0.259264 0.482606 0.454114
v 0.255420 0.484381 0.453447
v 0.256017 0.485098 0.453178
v 0.251901 0.485839 0.452899
v 0.252220 0.486670 0.452587
v 0.248135 0.486335 0.452714
v 0.244051 0.486670 0.452587
v 0.248135 0.487208 0.452385
v 0.244369 0.457372 0.463589
v 0.240254 0.458113 0.463310
v 0.240851 0.458830 0.463041
v 0.237007 0.460605 0.462375
v 0.237816 0.461158 0.462168
v 0.234526 0.463837 0.461161
v 0.236648 0.462681 0.461595
v 0.235476 0.464208 0.461022
v 0.232973 0.467588 0.459752
v 0.234000 0.467772 0.459684
v 0.232444 0.471606 0.458244
v 0.233495 0.471606 0.458244
v 0.234000 0.475439 0.456805
v 0.232973 0.475623 0.456736
v 0.235476 0.479003 0.455467
v 0.234526 0.479374 0.455328
v 0.237816 0.482052 0.454321
v 0.237007 0.482606 0.454114
v 0.240851 0.484381 0.453447
v 0.240254 0.485098 0.453178
v 0.244369 0.485839 0.452899
v 0.248135 0.486335 0.452714
v 0.244369 0.485839 0.452899
v 0.244051 0.486670 0.452587
v 0.240254 0.485098 0.453178
v 0.240851 0.484381 0.453447
v 0.237007 0.482606 0.454114
v 0.237816 0.482052 0.454321
v 0.234526 0.479374 0.455328
v 0.235476 0.479003 0.455467
v 0.232973 0.475623 0.456736
v 0.234000 0.475439 0.456805
v 0.232444 0.471606 0.458244
v 0.233495 0.471606 0.458244
v 0.234000 0.467772 0.459684
v 0.232973 0.467588 0.459752
v 0.235476 0.464208 0.461022
v 0.234526 0.463837 0.461161
v 0.236648 0.462681 0.461595
v 0.237816 0.461158 0.462168
v 0.237007 0.460605 0.462375
v 0.240851 0.458830 0.463041
v 0.240254 0.458113 0.463310
v 0.244369 0.457372 0.463589
v 0.248135 0.456876 0.463775
v 0.244051 0.456541 0.463902
v 0.248135 0.487208 0.452385
v 0.252220 0.486670 0.452587
v 0.251901 0.485839 0.452899
v 0.256017 0.485098 0.453178
v 0.255420 0.484381 0.453447
v 0.259264 0.482606 0.454114
v 0.258455 0.482052 0.454321
v 0.261744 0.479374 0.455328
v 0.260795 0.479003 0.455467
v 0.263298 0.475623 0.456736
v 0.262271 0.475439 0.456805
v 0.262776 0.471606 0.458244
v 0.263827 0.471606 0.458244
v 0.262271 0.467772 0.459684
v 0.263298 0.467588 0.459752
v 0.260795 0.464208 0.461022
v 0.261744 0.463837 0.461161
v 0.258455 0.461158 0.462168
v 0.259264 0.460605 0.462375
v 0.255420 0.458830 0.463041
v 0.256017 0.458113 0.463310
v 0.251901 0.457372 0.463589
v 0.252220 0.456541 0.463902
v 0.248135 0.456003 0.464103
v 0.261744 0.463837 0.461161
v 0.261744 0.463837 0.461161
v 0.262937 0.467690 0.459767
v 0.262937 0.467690 0.459767
v 0.263109 0.471673 0.458424
v 0.263109 0.471673 0.458424
v 0.262313 0.475538 0.457214
v 0.262313 0.475538 0.457214
v 0.260650 0.479069 0.456203
v 0.260650 0.479069 0.456203
v 0.258215 0.482186 0.455794
v 0.258251 0.482088 0.455436
v 0.258251 0.482088 0.455436
v 0.258215 0.482186 0.455794
v 0.255263 0.484452 0.454943
v 0.255263 0.485621 0.458057
v 0.255263 0.484452 0.454943
v 0.255263 0.485621 0.458057
v 0.233880 0.473276 0.462693
v 0.233880 0.472107 0.459579
v 0.233880 0.472107 0.459579
v 0.233880 0.473276 0.462693
v 0.234366 0.468417 0.460964
v 0.234318 0.468276 0.460623
v 0.234318 0.468276 0.460623
v 0.234366 0.468417 0.460964
v 0.235621 0.464643 0.461621
v 0.235621 0.464643 0.461621
v 0.237748 0.461403 0.462521
v 0.237748 0.461403 0.462521
v 0.240631 0.458754 0.463274
v 0.240631 0.458754 0.463274
v 0.244153 0.456893 0.463821
v 0.244153 0.456893 0.463821
v 0.248135 0.456003 0.464103
v 0.248135 0.456003 0.464103
v 0.240254 0.458113 0.463310
v 0.244051 0.456541 0.463902
v 0.240449 0.458427 0.463245
v 0.240449 0.458427 0.463245
v 0.240254 0.458113 0.463310
v 0.244051 0.456541 0.463902
v 0.263298 0.467588 0.459752
v 0.263298 0.467588 0.459752
v 0.263827 0.471606 0.458244
v 0.263455 0.471623 0.458290
v 0.263455 0.471623 0.458290
v 0.263827 0.471606 0.458244
v 0.263298 0.475623 0.456736
v 0.262937 0.475555 0.456814
v 0.262937 0.475555 0.456814
v 0.263298 0.475623 0.456736
v 0.261417 0.479225 0.455435
v 0.261744 0.479374 0.455328
v 0.261744 0.479374 0.455328
v 0.261417 0.479225 0.455435
v 0.258992 0.482385 0.454249
v 0.259264 0.482606 0.454114
v 0.259264 0.482606 0.454114
v 0.258992 0.482385 0.454249
v 0.255822 0.484818 0.453335
v 0.256017 0.485098 0.453178
v 0.256017 0.485098 0.453178
v 0.255822 0.484818 0.453335
v 0.252118 0.486352 0.452758
v 0.252220 0.486670 0.452587
v 0.252220 0.486670 0.452587
v 0.252118 0.486352 0.452758
v 0.248135 0.486876 0.452562
v 0.248135 0.487208 0.452385
v 0.248135 0.487208 0.452385
v 0.248135 0.486876 0.452562
v 0.244051 0.486670 0.452587
v 0.244153 0.486352 0.452758
v 0.244051 0.486670 0.452587
v 0.244153 0.486352 0.452758
v 0.240254 0.485098 0.453178
v 0.240449 0.484818 0.453335
v 0.240254 0.485098 0.453178
v 0.240449 0.484818 0.453335
v 0.237007 0.482606 0.454114
v 0.237278 0.482385 0.454249
v 0.237007 0.482606 0.454114
v 0.237278 0.482385 0.454249
v 0.234526 0.479374 0.455328
v 0.234854 0.479225 0.455435
v 0.234526 0.479374 0.455328
v 0.234854 0.479225 0.455435
v 0.232973 0.475623 0.456736
v 0.233333 0.475555 0.456814
v 0.232973 0.475623 0.456736
v 0.233333 0.475555 0.456814
v 0.232816 0.471623 0.458290
v 0.232444 0.471606 0.458244
v 0.232816 0.471623 0.458290
v 0.232444 0.471606 0.458244
v 0.233333 0.467690 0.459767
v 0.232973 0.467588 0.459752
v 0.233333 0.467690 0.459767
v 0.232973 0.467588 0.459752
v 0.234854 0.464020 0.461144
v 0.234526 0.463837 0.461161
v 0.234854 0.464020 0.461144
v 0.234526 0.463837 0.461161
v 0.237278 0.460860 0.462332
v 0.237007 0.460605 0.462375
v 0.237278 0.460860 0.462332
v 0.237007 0.460605 0.462375
v 0.263301 0.471645 0.458349
v 0.263301 0.471645 0.458349
v 0.262601 0.475526 0.456977
v 0.262601 0.475526 0.456977
v 0.260851 0.479067 0.455888
v 0.260851 0.479067 0.455888
v 0.258356 0.482059 0.455080
v 0.258356 0.482059 0.455080
v 0.255288 0.484361 0.454583
v 0.255263 0.484452 0.454943
v 0.255288 0.484361 0.454583
v 0.255263 0.484452 0.454943
v 0.251825 0.485876 0.454408
v 0.251825 0.487045 0.457522
v 0.251825 0.485876 0.454408
v 0.251825 0.487045 0.457522
v 0.234366 0.476965 0.461307
v 0.234366 0.475796 0.458193
v 0.234366 0.475796 0.458193
v 0.234366 0.476965 0.461307
v 0.233880 0.472107 0.459579
v 0.233831 0.471977 0.459233
v 0.233831 0.471977 0.459233
v 0.233880 0.472107 0.459579
v 0.234179 0.468123 0.460314
v 0.234179 0.468123 0.460314
v 0.235420 0.464437 0.461382
v 0.235420 0.464437 0.461382
v 0.237531 0.461132 0.462381
v 0.237531 0.461132 0.462381
v 0.261112 0.479121 0.455626
v 0.261112 0.479121 0.455626
v 0.258739 0.482213 0.454465
v 0.258739 0.482213 0.454465
v 0.255640 0.484591 0.453572
v 0.255640 0.484591 0.453572
v 0.252022 0.486090 0.453009
v 0.252022 0.486090 0.453009
v 0.248135 0.486602 0.452817
v 0.248135 0.486802 0.452632
v 0.248135 0.486802 0.452632
v 0.248135 0.486602 0.452817
v 0.244248 0.486090 0.453009
v 0.244248 0.486090 0.453009
v 0.240631 0.484591 0.453572
v 0.240631 0.484591 0.453572
v 0.237531 0.482213 0.454465
v 0.237531 0.482213 0.454465
v 0.235158 0.479121 0.455626
v 0.235158 0.479121 0.455626
v 0.233669 0.475526 0.456977
v 0.233669 0.475526 0.456977
v 0.232969 0.471645 0.458349
v 0.233162 0.471673 0.458424
v 0.233162 0.471673 0.458424
v 0.232969 0.471645 0.458349
v 0.233669 0.467819 0.459870
v 0.233669 0.467819 0.459870
v 0.235158 0.464225 0.461220
v 0.235158 0.464225 0.461220
v 0.258522 0.482102 0.454749
v 0.258522 0.482102 0.454749
v 0.255364 0.484355 0.454219
v 0.255364 0.484355 0.454219
v 0.251838 0.485790 0.454046
v 0.251825 0.485876 0.454408
v 0.251838 0.485790 0.454046
v 0.251825 0.485876 0.454408
v 0.248135 0.486362 0.454226
v 0.248135 0.487531 0.457340
v 0.248135 0.486362 0.454226
v 0.248135 0.487531 0.457340
v 0.235790 0.480403 0.460017
v 0.235790 0.479234 0.456903
v 0.235790 0.479234 0.456903
v 0.235790 0.480403 0.460017
v 0.234366 0.475796 0.458193
v 0.234318 0.475678 0.457844
v 0.234318 0.475678 0.457844
v 0.234366 0.475796 0.458193
v 0.233688 0.471856 0.458911
v 0.233688 0.471856 0.458911
v 0.233958 0.467967 0.460057
v 0.233958 0.467967 0.460057
v 0.255484 0.484434 0.453873
v 0.255484 0.484434 0.453873
v 0.251941 0.485901 0.453322
v 0.251941 0.485901 0.453322
v 0.248135 0.486402 0.453134
v 0.248135 0.486402 0.453134
v 0.244330 0.485901 0.453322
v 0.244330 0.485901 0.453322
v 0.240787 0.484434 0.453873
v 0.240787 0.484434 0.453873
v 0.237748 0.482102 0.454749
v 0.237748 0.482102 0.454749
v 0.235420 0.479067 0.455888
v 0.235420 0.479067 0.455888
v 0.233958 0.475538 0.457214
v 0.233958 0.475538 0.457214
v 0.233460 0.471752 0.458635
v 0.233460 0.471752 0.458635
v 0.251878 0.485799 0.453676
v 0.251878 0.485799 0.453676
v 0.248135 0.486362 0.454226
v 0.248135 0.486278 0.453864
v 0.248135 0.486362 0.454226
v 0.248135 0.486278 0.453864
v 0.244446 0.485876 0.454408
v 0.244446 0.487045 0.457522
v 0.244446 0.485876 0.454408
v 0.244446 0.487045 0.457522
v 0.238055 0.483356 0.458908
v 0.238055 0.482186 0.455794
v 0.238055 0.482186 0.455794
v 0.238055 0.483356 0.458908
v 0.235790 0.479234 0.456903
v 0.235747 0.479126 0.456549
v 0.235747 0.479126 0.456549
v 0.235790 0.479234 0.456903
v 0.234179 0.475589 0.457510
v 0.234179 0.475589 0.457510
v 0.248135 0.486292 0.453491
v 0.248135 0.486292 0.453491
v 0.244393 0.485799 0.453676
v 0.244393 0.485799 0.453676
v 0.240907 0.484355 0.454219
v 0.240907 0.484355 0.454219
v 0.237915 0.482059 0.455080
v 0.237915 0.482059 0.455080
v 0.235621 0.479069 0.456203
v 0.235621 0.479069 0.456203
v 0.244446 0.485876 0.454408
v 0.244432 0.485790 0.454046
v 0.244446 0.485876 0.454408
v 0.244432 0.485790 0.454046
v 0.241008 0.485621 0.458057
v 0.241008 0.484452 0.454943
v 0.241008 0.485621 0.458057
v 0.241008 0.484452 0.454943
v 0.238055 0.482186 0.455794
v 0.238020 0.482088 0.455436
v 0.238020 0.482088 0.455436
v 0.238055 0.482186 0.455794
v 0.240982 0.484361 0.454583
v 0.240982 0.484361 0.454583
v 0.241008 0.484452 0.454943
v 0.241008 0.484452 0.454943
vn 0.729254895794234 -0.640568496305707 0.2405395986127575
vn 0.5240359045983652 -0.797334306996533 0.2994067026272652
vn -0.729254895794234 0.640568496305707 -0.2405395986127575
vn -0.5240359045983652 0.797334306996533 -0.2994067026272652
vn 0.2745645993744965 -0.9001938979492099 0.33803139922990844
vn -0.2745645993744965 0.9001938979492099 -0.33803139922990844
vn 0.5054668835087743 -0.6763288779342772 0.5358007825191085
vn 0.7229097222947314 -0.5887221181563496 0.3616736111541119
vn 0.5194710190360444 -0.7440892272671913 0.42009651539446
vn 0.7034608968021194 -0.5252419976122894 0.47881479782334374
vn -0.7034608968021194 0.5252419976122894 -0.47881479782334374
vn -0.5054668835087743 0.6763288779342772 -0.5358007825191085
vn -0.7229097222947314 0.5887221181563496 -0.3616736111541119
vn -0.5194710190360444 0.7440892272671913 -0.42009651539446
vn 0.8792887011449966 -0.4458887005806297 0.16743550021803189
vn -0.8792887011449966 0.4458887005806297 -0.16743550021803189
vn 0 -0.9361722540249108 0.3515416202868696
vn 0 0.9361722540249108 -0.3515416202868696
vn 0.2648215032798183 -0.7754326096037447 0.573213607099259
vn 0.27217059897620166 -0.8460241968175912 0.45843889827553375
vn -0.2648215032798183 0.7754326096037447 -0.573213607099259
vn -0.27217059897620166 0.8460241968175912 -0.45843889827553375
vn 0.6281964048184046 -0.3732556028629528 0.6826782052362919
vn 0.4512992775127821 -0.5079863746881929 0.7336748634426479
vn -0.6281964048184046 0.3732556028629528 -0.6826782052362919
vn -0.4512992775127821 0.5079863746881929 -0.7336748634426479
vn 0.8716461648859747 -0.395764484056737 0.2891425883519705
vn 0.848239908661929 -0.33755050344694765 0.4081038041674131
vn -0.848239908661929 0.33755050344694765 -0.4081038041674131
vn -0.8716461648859747 0.395764484056737 -0.2891425883519705
vn 0.9698267117127319 -0.22823440275641863 0.08570418103506125
vn -0.9698267117127319 0.22823440275641863 -0.08570418103506125
vn -0.2745645993744965 -0.9001938979492099 0.33803139922990844
vn 0.2745645993744965 0.9001938979492099 -0.33803139922990844
vn 0 -0.8816777766721994 0.47185198751554186
vn 0 -0.810091064365707 0.5863040742096508
vn 0 0.8816777766721994 -0.47185198751554186
vn 0 0.810091064365707 -0.5863040742096508
vn 0.23640640117746936 -0.5963058029700206 0.7671580038209838
vn -0.23640640117746936 0.5963058029700206 -0.7671580038209838
vn 0.5094804262731395 -0.1959997101074105 0.8378626432073165
vn 0.3659017922545013 -0.30507259354214894 0.8792306813882297
vn -0.5094804262731395 0.1959997101074105 -0.8378626432073165
vn -0.3659017922545013 0.30507259354214894 -0.8792306813882297
vn 0.7576191130416138 -0.20576790354207752 0.6194133106625467
vn -0.7576191130416138 0.20576790354207752 -0.6194133106625467
vn 0.9614032236735837 -0.18001970443280352 0.20807870512372798
vn 0.9356199951614178 -0.12764279933989214 0.3291238982979275
vn -0.9356199951614178 0.12764279933989214 -0.3291238982979275
vn -0.9614032236735837 0.18001970443280352 -0.20807870512372798
vn 1 0 0
vn -1 0 0
vn -0.5240359045983652 -0.797334306996533 0.2994067026272652
vn 0.5240359045983652 0.797334306996533 -0.2994067026272652
vn -0.27217059897620166 -0.8460241968175912 0.45843889827553375
vn -0.2648215032798183 -0.7754326096037447 0.573213607099259
vn 0.27217059897620166 0.8460241968175912 -0.45843889827553375
vn 0.2648215032798183 0.7754326096037447 -0.573213607099259
vn 0 -0.6271808617806972 0.7788736525368039
vn 0 0.6271808617806972 -0.7788736525368039
vn 0.19162640726733773 -0.37650811427888625 0.9063779343739395
vn -0.19162640726733773 0.37650811427888625 -0.9063779343739395
vn 0.3563744894343805 -0.006328434812377816 0.9343217722996774
vn 0.2558301044609952 -0.0824490214376914 0.9631994167956308
vn -0.3563744894343805 0.006328434812377816 -0.9343217722996774
vn -0.2558301044609952 0.0824490214376914 -0.9631994167956308
vn 0.614617591664977 -0.060276469182571964 0.7865188893337693
vn -0.614617591664977 0.060276469182571964 -0.7865188893337693
vn 0.8357648094972135 -0.018346400208479444 0.5487810062360731
vn -0.8357648094972135 0.018346400208479444 -0.5487810062360731
vn 0.9913165891642445 0.04622660949471211 0.12310369865439398
vn 0.9647431961045617 0.09252330962640949 0.2463939990051108
vn -0.9647431961045617 -0.09252330962640949 -0.2463939990051108
vn -0.9913165891642445 -0.04622660949471211 -0.12310369865439398
vn 0.9698267117127319 0.22823440275641863 -0.08570418103506125
vn -0.9698267117127319 -0.22823440275641863 0.08570418103506125
vn -0.729254895794234 -0.640568496305707 0.2405395986127575
vn 0.729254895794234 0.640568496305707 -0.2405395986127575
vn -0.5194710190360444 -0.7440892272671913 0.42009651539446
vn -0.5054668835087743 -0.6763288779342772 0.5358007825191085
vn 0.5194710190360444 0.7440892272671913 -0.42009651539446
vn 0.5054668835087743 0.6763288779342772 -0.5358007825191085
vn -0.23640640117746936 -0.5963058029700206 0.7671580038209838
vn 0.23640640117746936 0.5963058029700206 -0.7671580038209838
vn 0 -0.4014671166187379 0.9158734379125953
vn 0 0.4014671166187379 -0.9158734379125953
vn 0.13393439321931974 -0.1322415933050211 0.9821271502779678
vn -0.13393439321931974 0.1322415933050211 -0.9821271502779678
vn 0.17991599718391707 0.1826390971412943 0.966578084870917
vn 0.1290377978406467 0.14438289758385744 0.9810722835824718
vn -0.17991599718391707 -0.1826390971412943 -0.966578084870917
vn -0.1290377978406467 -0.14438289758385744 -0.9810722835824718
vn 0.4300929149549889 0.08851620307784366 0.8984347312399507
vn -0.4300929149549889 -0.08851620307784366 -0.8984347312399507
vn 0.6781434275313528 0.09172091372369712 0.7291836296034895
vn -0.6781434275313528 -0.09172091372369712 -0.7291836296034895
vn 0.8618163649842897 0.1783090927552784 0.47484568070695865
vn -0.8618163649842897 -0.1783090927552784 -0.47484568070695865
vn 0.9614032374451299 0.27248431061283135 0.03815908148623571
vn 0.9356199830145211 0.31272589432269593 0.16376129702703657
vn -0.9356199830145211 -0.31272589432269593 -0.16376129702703657
vn -0.9614032374451299 -0.27248431061283135 -0.03815908148623571
vn 0.8792887011449966 0.4458887005806297 -0.16743550021803189
vn -0.8792887011449966 -0.4458887005806297 0.16743550021803189
vn -0.7229097222947314 -0.5887221181563496 0.3616736111541119
vn -0.7034608968021194 -0.5252419976122894 0.47881479782334374
vn 0.7229097222947314 0.5887221181563496 -0.3616736111541119
vn 0.7034608968021194 0.5252419976122894 -0.47881479782334374
vn -0.4512992775127821 -0.5079863746881929 0.7336748634426479
vn 0.4512992775127821 0.5079863746881929 -0.7336748634426479
vn -0.19162640726733773 -0.37650811427888625 0.9063779343739395
vn 0.19162640726733773 0.37650811427888625 -0.9063779343739395
vn 0 -0.14962560396667604 0.9887427262122375
vn 0 0.14962560396667604 -0.9887427262122375
vn 0.0675068879744163 0.11942069641671185 0.9905460702780851
vn -0.0675068879744163 -0.11942069641671185 -0.9905460702780851
vn 0.09438953801546793 0.2656738944142286 0.9594310798280427
vn 0.0677883169937254 0.24544628911495384 0.9670371571138601
vn -0.09438953801546793 -0.2656738944142286 -0.9594310798280427
vn -0.0677883169937254 -0.24544628911495384 -0.9670371571138601
vn 0.21731849948338394 0.23043299945220755 0.9485110977451711
vn -0.21731849948338394 -0.23043299945220755 -0.9485110977451711
vn 0.4746805007092178 0.19484660029111917 0.8583200012824117
vn -0.4746805007092178 -0.19484660029111917 -0.8583200012824117
vn 0.6993290878736128 0.25128189564276426 0.669175788396472
vn -0.6993290878736128 -0.25128189564276426 -0.669175788396472
vn 0.8357648272720348 0.3750233122374721 0.4010669130873071
vn -0.8357648272720348 -0.3750233122374721 -0.4010669130873071
vn 0.8716461793809832 0.4882617884500406 -0.04281779898713373
vn 0.8482399474067537 0.5227372292149352 0.08505751475372653
vn -0.8482399474067537 -0.5227372292149352 -0.08505751475372653
vn -0.8716461793809832 -0.4882617884500406 0.04281779898713373
vn -0.8716461648859747 -0.395764484056737 0.2891425883519705
vn -0.848239908661929 -0.33755050344694765 0.4081038041674131
vn 0.848239908661929 0.33755050344694765 -0.4081038041674131
vn 0.8716461648859747 0.395764484056737 -0.2891425883519705
vn -0.6281964048184046 -0.3732556028629528 0.6826782052362919
vn 0.6281964048184046 0.3732556028629528 -0.6826782052362919
vn -0.3659017922545013 -0.30507259354214894 0.8792306813882297
vn 0.3659017922545013 0.30507259354214894 -0.8792306813882297
vn -0.13393439321931974 -0.1322415933050211 0.9821271502779678
vn 0.13393439321931974 0.1322415933050211 -0.9821271502779678
vn 0 -0.030027329341534847 0.999549078081019
vn 0 0.11071879706392113 0.9938517736447011
vn 0 0.030027329341534847 -0.999549078081019
vn 0 -0.11071879706392113 -0.9938517736447011
vn 0.035500820890737396 0.23219690582596275 0.9720207243885968
vn -0.035500820890737396 -0.23219690582596275 -0.9720207243885968
vn 0 0.3515416202868696 0.9361722540249108
vn 0 -0.3515416202868696 -0.9361722540249108
vn 0.11386849663217358 0.29083849139802836 0.9499720719031942
vn -0.11386849663217358 -0.29083849139802836 -0.9499720719031942
vn 0.23998949684717877 0.284130396267285 0.9282644878050832
vn -0.23998949684717877 -0.284130396267285 -0.9282644878050832
vn 0.489558595693495 0.30653389730351005 0.8163144928191183
vn -0.489558595693495 -0.30653389730351005 -0.8163144928191183
vn 0.6781434304556729 0.4109029184538024 0.6093277273651344
vn -0.6781434304556729 -0.4109029184538024 -0.6093277273651344
vn 0.7576191144421486 0.5626119107248149 0.3308793063074018
vn -0.7576191144421486 -0.5626119107248149 -0.3308793063074018
vn 0.7229097042519597 0.6812679040070339 -0.1152198006776916
vn 0.7034609289774308 0.7105808292707186 0.014751490607653382
vn -0.7034609289774308 -0.7105808292707186 -0.014751490607653382
vn -0.7229097042519597 -0.6812679040070339 0.1152198006776916
vn -0.9614032236735837 -0.18001970443280352 0.20807870512372798
vn -0.9356199951614178 -0.12764279933989214 0.3291238982979275
vn 0.9356199951614178 0.12764279933989214 -0.3291238982979275
vn 0.9614032236735837 0.18001970443280352 -0.20807870512372798
vn -0.7576191130416138 -0.20576790354207752 0.6194133106625467
vn 0.7576191130416138 0.20576790354207752 -0.6194133106625467
vn -0.5094804262731395 -0.1959997101074105 0.8378626432073165
vn 0.5094804262731395 0.1959997101074105 -0.8378626432073165
vn -0.2558301044609952 -0.0824490214376914 0.9631994167956308
vn 0.2558301044609952 0.0824490214376914 -0.9631994167956308
vn -0.0675068879744163 0.11942069641671185 0.9905460702780851
vn 0.0675068879744163 -0.11942069641671185 -0.9905460702780851
vn 0 0.2275674070040639 0.9737623299704332
vn 0 -0.2275674070040639 -0.9737623299704332
vn -0.0677883169937254 0.24544628911495384 0.9670371571138601
vn -0.035500820890737396 0.23219690582596275 0.9720207243885968
vn -0.1290377978406467 0.14438289758385744 0.9810722835824718
vn 0.1290377978406467 -0.14438289758385744 -0.9810722835824718
vn 0.0677883169937254 -0.24544628911495384 -0.9670371571138601
vn 0.035500820890737396 -0.23219690582596275 -0.9720207243885968
vn 0.12563760233932633 0.3190124059398944 0.939386117491027
vn -0.12563760233932633 -0.3190124059398944 -0.939386117491027
vn 0.12956249837875464 0.34857859563815563 0.9282814883842003
vn 0.24756340202879568 0.34059870279122484 0.9070308074331676
vn -0.24756340202879568 -0.34059870279122484 -0.9070308074331676
vn -0.12956249837875464 -0.34857859563815563 -0.9282814883842003
vn 0.12563759681972989 0.3781462904279658 0.9171807767833621
vn 0.2399895051648418 0.3970864085457422 0.8858484190644461
vn -0.2399895051648418 -0.3970864085457422 -0.8858484190644461
vn -0.12563759681972989 -0.3781462904279658 -0.9171807767833621
vn 0.21731848827772154 0.4508381756815414 0.86574685330114
vn 0.11386850505014004 0.4063243180207397 0.9066060402085501
vn -0.11386850505014004 -0.4063243180207397 -0.9066060402085501
vn -0.21731848827772154 -0.4508381756815414 -0.86574685330114
vn 0.1799160017614487 0.49871110488257847 0.8478900083011781
vn 0.0943895432210252 0.43149511472468854 0.8971636306155383
vn -0.0943895432210252 -0.43149511472468854 -0.8971636306155383
vn -0.1799160017614487 -0.49871110488257847 -0.8478900083011781
vn 0.12903780200420614 0.5370519083414526 0.8336213129477481
vn 0.06778831721606428 0.45172968144833114 0.8895757634668356
vn -0.06778831721606428 -0.45172968144833114 -0.8895757634668356
vn -0.12903780200420614 -0.5370519083414526 -0.8336213129477481
vn 0.06750689144897733 0.5620801120645655 0.8243232176933886
vn 0.035500821648200016 0.4649845215878803 0.8846067410697211
vn -0.035500821648200016 -0.4649845215878803 -0.8846067410697211
vn -0.06750689144897733 -0.5620801120645655 -0.8243232176933886
vn 0 0.5708069831738973 0.8210842757962876
vn 0 0.4696161107312681 0.8828707201746115
vn 0 -0.4696161107312681 -0.8828707201746115
vn 0 -0.5708069831738973 -0.8210842757962876
vn -0.035500821648200016 0.4649845215878803 0.8846067410697211
vn -0.06750689144897733 0.5620801120645655 0.8243232176933886
vn 0.035500821648200016 -0.4649845215878803 -0.8846067410697211
vn 0.06750689144897733 -0.5620801120645655 -0.8243232176933886
vn -0.06778831721606428 0.45172968144833114 0.8895757634668356
vn -0.12903780200420614 0.5370519083414526 0.8336213129477481
vn 0.06778831721606428 -0.45172968144833114 -0.8895757634668356
vn 0.12903780200420614 -0.5370519083414526 -0.8336213129477481
vn -0.0943895432210252 0.43149511472468854 0.8971636306155383
vn -0.1799160017614487 0.49871110488257847 0.8478900083011781
vn 0.0943895432210252 -0.43149511472468854 -0.8971636306155383
vn 0.1799160017614487 -0.49871110488257847 -0.8478900083011781
vn -0.11386850505014004 0.4063243180207397 0.9066060402085501
vn -0.21731848827772154 0.4508381756815414 0.86574685330114
vn 0.11386850505014004 -0.4063243180207397 -0.9066060402085501
vn 0.21731848827772154 -0.4508381756815414 -0.86574685330114
vn -0.12563759681972989 0.3781462904279658 0.9171807767833621
vn -0.2399895051648418 0.3970864085457422 0.8858484190644461
vn 0.12563759681972989 -0.3781462904279658 -0.9171807767833621
vn 0.2399895051648418 -0.3970864085457422 -0.8858484190644461
vn -0.24756340202879568 0.34059870279122484 0.9070308074331676
vn -0.12956249837875464 0.34857859563815563 0.9282814883842003
vn 0.24756340202879568 -0.34059870279122484 -0.9070308074331676
vn 0.12956249837875464 -0.34857859563815563 -0.9282814883842003
vn -0.23998949684717877 0.284130396267285 0.9282644878050832
vn -0.12563760233932633 0.3190124059398944 0.939386117491027
vn 0.23998949684717877 -0.284130396267285 -0.9282644878050832
vn 0.12563760233932633 -0.3190124059398944 -0.939386117491027
vn -0.21731849948338394 0.23043299945220755 0.9485110977451711
vn -0.11386849663217358 0.29083849139802836 0.9499720719031942
vn 0.21731849948338394 -0.23043299945220755 -0.9485110977451711
vn 0.11386849663217358 -0.29083849139802836 -0.9499720719031942
vn -0.17991599718391707 0.1826390971412943 0.966578084870917
vn -0.09438953801546793 0.2656738944142286 0.9594310798280427
vn 0.17991599718391707 -0.1826390971412943 -0.966578084870917
vn 0.09438953801546793 -0.2656738944142286 -0.9594310798280427
vn 0.3802263864298954 0.3251385883959534 0.8658595690978709
vn -0.3802263864298954 -0.3251385883959534 -0.8658595690978709
vn 0.4746804990485576 0.41826459916163655 0.7744243984477556
vn -0.4746804990485576 -0.41826459916163655 -0.7744243984477556
vn 0.6146175690129927 0.5630706716118186 0.5524460721474764
vn -0.6146175690129927 -0.5630706716118186 -0.5524460721474764
vn 0.6281964123913597 0.7303442144062552 0.26826590529162436
vn -0.6281964123913597 -0.7303442144062552 -0.26826590529162436
vn 0.5054669058937958 0.8618332100490633 -0.04179384048732026
vn 0.5194709852636681 0.8366883762648579 -0.17350059507814194
vn -0.5054669058937958 -0.8618332100490633 0.04179384048732026
vn -0.5194709852636681 -0.8366883762648579 0.17350059507814194
vn -0.9913165891642445 0.04622660949471211 0.12310369865439398
vn -0.9647431961045617 0.09252330962640949 0.2463939990051108
vn 0.9647431961045617 -0.09252330962640949 -0.2463939990051108
vn 0.9913165891642445 -0.04622660949471211 -0.12310369865439398
vn -0.8357648094972135 -0.018346400208479444 0.5487810062360731
vn 0.8357648094972135 0.018346400208479444 -0.5487810062360731
vn -0.614617591664977 -0.060276469182571964 0.7865188893337693
vn 0.614617591664977 0.060276469182571964 -0.7865188893337693
vn -0.3563744894343805 -0.006328434812377816 0.9343217722996774
vn 0.3563744894343805 0.006328434812377816 -0.9343217722996774
vn 0.43009288986940725 0.5247177876405716 0.7346368826960473
vn -0.43009288986940725 -0.5247177876405716 -0.7346368826960473
vn 0.3563744983295391 0.6197414970950391 0.6992264967224633
vn -0.3563744983295391 -0.6197414970950391 -0.6992264967224633
vn 0.25583010121147576 0.696055303296149 0.6708636031768546
vn -0.25583010121147576 -0.696055303296149 -0.6708636031768546
vn 0.13393440392238026 0.7459993218472096 0.6523393191042988
vn -0.13393440392238026 -0.7459993218472096 -0.6523393191042988
vn 0 0.7634410777932323 0.6458774812128908
vn 0 0.6805159071176177 0.7327333076637677
vn 0 -0.6805159071176177 -0.7327333076637677
vn 0 -0.7634410777932323 -0.6458774812128908
vn -0.13393440392238026 0.7459993218472096 0.6523393191042988
vn 0.13393440392238026 -0.7459993218472096 -0.6523393191042988
vn -0.25583010121147576 0.696055303296149 0.6708636031768546
vn 0.25583010121147576 -0.696055303296149 -0.6708636031768546
vn -0.3563744983295391 0.6197414970950391 0.6992264967224633
vn 0.3563744983295391 -0.6197414970950391 -0.6992264967224633
vn -0.43009288986940725 0.5247177876405716 0.7346368826960473
vn 0.43009288986940725 -0.5247177876405716 -0.7346368826960473
vn -0.4746804990485576 0.41826459916163655 0.7744243984477556
vn 0.4746804990485576 -0.41826459916163655 -0.7744243984477556
vn -0.3802263864298954 0.3251385883959534 0.8658595690978709
vn -0.489558595693495 0.30653389730351005 0.8163144928191183
vn 0.489558595693495 -0.30653389730351005 -0.8163144928191183
vn 0.3802263864298954 -0.3251385883959534 -0.8658595690978709
vn -0.4746805007092178 0.19484660029111917 0.8583200012824117
vn 0.4746805007092178 -0.19484660029111917 -0.8583200012824117
vn -0.4300929149549889 0.08851620307784366 0.8984347312399507
vn 0.4300929149549889 -0.08851620307784366 -0.8984347312399507
vn 0.5094804072937394 0.6990429100075227 0.5017656071832941
vn -0.5094804072937394 -0.6990429100075227 -0.5017656071832941
vn 0.451299292168019 0.8653408849826191 0.21797729621715795
vn -0.451299292168019 -0.8653408849826191 -0.21797729621715795
vn 0.2648214898235284 0.9610675630684171 -0.0788588469696384
vn 0.27217059538878785 0.9386659840967833 -0.2117293964128042
vn -0.2648214898235284 -0.9610675630684171 0.0788588469696384
vn -0.27217059538878785 -0.9386659840967833 0.2117293964128042
vn -0.9614032374451299 0.27248431061283135 0.03815908148623571
vn -0.9356199830145211 0.31272589432269593 0.16376129702703657
vn 0.9356199830145211 -0.31272589432269593 -0.16376129702703657
vn 0.9614032374451299 -0.27248431061283135 -0.03815908148623571
vn -0.8618163649842897 0.1783090927552784 0.47484568070695865
vn 0.8618163649842897 -0.1783090927552784 -0.47484568070695865
vn -0.6781434275313528 0.09172091372369712 0.7291836296034895
vn 0.6781434275313528 -0.09172091372369712 -0.7291836296034895
vn 0.3659017884313126 0.808385774441332 0.4611163854209205
vn -0.3659017884313126 -0.808385774441332 -0.4611163854209205
vn 0.1916263955929599 0.880033579760913 0.4345344900065392
vn -0.1916263955929599 -0.880033579760913 -0.4345344900065392
vn 0 0.9050736219973756 0.4252549103356147
vn 0 -0.9050736219973756 -0.4252549103356147
vn -0.1916263955929599 0.880033579760913 0.4345344900065392
vn 0.1916263955929599 -0.880033579760913 -0.4345344900065392
vn -0.3659017884313126 0.808385774441332 0.4611163854209205
vn 0.3659017884313126 -0.808385774441332 -0.4611163854209205
vn -0.5094804072937394 0.6990429100075227 0.5017656071832941
vn 0.5094804072937394 -0.6990429100075227 -0.5017656071832941
vn -0.6146175690129927 0.5630706716118186 0.5524460721474764
vn 0.6146175690129927 -0.5630706716118186 -0.5524460721474764
vn -0.6781434304556729 0.4109029184538024 0.6093277273651344
vn 0.6781434304556729 -0.4109029184538024 -0.6093277273651344
vn -0.6993290878736128 0.25128189564276426 0.669175788396472
vn 0.6993290878736128 -0.25128189564276426 -0.669175788396472
vn 0.2364064120522545 0.9538698486293162 0.18505220943416192
vn -0.2364064120522545 -0.9538698486293162 -0.18505220943416192
vn 0 0.9743359190921027 -0.22509890441081057
vn 0 0.9957759653406675 -0.09181626680421014
vn 0 -0.9743359190921027 0.22509890441081057
vn 0 -0.9957759653406675 0.09181626680421014
vn -0.8716461793809832 0.4882617884500406 -0.04281779898713373
vn -0.8482399474067537 0.5227372292149352 0.08505751475372653
vn 0.8482399474067537 -0.5227372292149352 -0.08505751475372653
vn 0.8716461793809832 -0.4882617884500406 0.04281779898713373
vn -0.8357648272720348 0.3750233122374721 0.4010669130873071
vn 0.8357648272720348 -0.3750233122374721 -0.4010669130873071
vn 0 0.9848250605626763 0.17354999305019003
vn 0 -0.9848250605626763 -0.17354999305019003
vn -0.2364064120522545 0.9538698486293162 0.18505220943416192
vn 0.2364064120522545 -0.9538698486293162 -0.18505220943416192
vn -0.451299292168019 0.8653408849826191 0.21797729621715795
vn 0.451299292168019 -0.8653408849826191 -0.21797729621715795
vn -0.6281964123913597 0.7303442144062552 0.26826590529162436
vn 0.6281964123913597 -0.7303442144062552 -0.26826590529162436
vn -0.7576191144421486 0.5626119107248149 0.3308793063074018
vn 0.7576191144421486 -0.5626119107248149 -0.3308793063074018
vn -0.27217059538878785 0.9386659840967833 -0.2117293964128042
vn -0.2648214898235284 0.9610675630684171 -0.0788588469696384
vn 0.27217059538878785 -0.9386659840967833 0.2117293964128042
vn 0.2648214898235284 -0.9610675630684171 0.0788588469696384
vn -0.7229097042519597 0.6812679040070339 -0.1152198006776916
vn -0.7034609289774308 0.7105808292707186 0.014751490607653382
vn 0.7034609289774308 -0.7105808292707186 -0.014751490607653382
vn 0.7229097042519597 -0.6812679040070339 0.1152198006776916
vn -0.5054669058937958 0.8618332100490633 -0.04179384048732026
vn 0.5054669058937958 -0.8618332100490633 0.04179384048732026
vn -0.5194709852636681 0.8366883762648579 -0.17350059507814194
vn 0.5194709852636681 -0.8366883762648579 0.17350059507814194
usemtl material_0_0
f 1//1 2//2 3//2
f 2//2 1//1 4//1
f 5//3 6//3 7//4
f 8//4 7//4 6//3
f 9//5 2//2 10//5
f 2//2 9//5 3//2
f 8//4 11//6 7//4
f 12//6 7//4 11//6
f 13//7 14//8 15//9
f 14//8 13//7 16//10
f 17//11 18//12 19//13
f 20//14 19//13 18//12
f 1//1 21//15 4//1
f 21//15 1//1 22//15
f 23//16 6//3 24//16
f 5//3 24//16 6//3
f 25//17 10//5 26//17
f 10//5 25//17 9//5
f 11//6 27//18 12//6
f 28//18 12//6 27//18
f 29//19 15//9 30//20
f 15//9 29//19 13//7
f 18//12 31//21 20//14
f 32//22 20//14 31//21
f 33//23 13//7 34//24
f 13//7 33//23 16//10
f 17//11 35//25 18//12
f 36//26 18//12 35//25
f 16//10 37//27 14//8
f 37//27 16//10 38//28
f 39//29 17//11 40//30
f 19//13 40//30 17//11
f 22//15 41//31 21//15
f 41//31 22//15 42//31
f 43//32 23//16 44//32
f 24//16 44//32 23//16
f 45//33 26//17 46//33
f 26//17 45//33 25//17
f 27//18 47//34 28//18
f 48//34 28//18 47//34
f 29//19 49//35 50//36
f 49//35 29//19 30//20
f 32//22 31//21 51//37
f 52//38 51//37 31//21
f 53//39 13//7 29//19
f 13//7 53//39 34//24
f 36//26 54//40 18//12
f 31//21 18//12 54//40
f 55//41 34//24 56//42
f 34//24 55//41 33//23
f 35//25 57//43 36//26
f 58//44 36//26 57//43
f 33//23 38//28 16//10
f 38//28 33//23 59//45
f 60//46 35//25 39//29
f 17//11 39//29 35//25
f 38//28 61//47 37//27
f 61//47 38//28 62//48
f 63//49 39//29 64//50
f 40//30 64//50 39//29
f 42//31 65//51 41//31
f 65//51 42//31 66//51
f 67//52 43//32 68//52
f 44//32 68//52 43//32
f 69//53 46//33 70//53
f 46//33 69//53 45//33
f 47//34 71//54 48//34
f 72//54 48//34 71//54
f 50//36 73//55 74//56
f 73//55 50//36 49//35
f 51//37 52//38 75//57
f 76//58 75//57 52//38
f 53//39 50//36 77//59
f 50//36 53//39 29//19
f 31//21 54//40 52//38
f 78//60 52//38 54//40
f 56//42 53//39 79//61
f 53//39 56//42 34//24
f 36//26 58//44 54//40
f 80//62 54//40 58//44
f 81//63 56//42 82//64
f 56//42 81//63 55//41
f 57//43 83//65 58//44
f 84//66 58//44 83//65
f 85//67 33//23 55//41
f 33//23 85//67 59//45
f 60//46 86//68 35//25
f 57//43 35//25 86//68
f 59//45 62//48 38//28
f 62//48 59//45 87//69
f 88//70 60//46 63//49
f 39//29 63//49 60//46
f 62//48 89//71 61//47
f 89//71 62//48 90//72
f 91//73 63//49 92//74
f 64//50 92//74 63//49
f 66//51 93//75 65//51
f 93//75 66//51 94//75
f 95//76 67//52 96//76
f 68//52 96//76 67//52
f 97//77 70//53 98//77
f 70//53 97//77 69//53
f 71//54 99//78 72//54
f 100//78 72//54 99//78
f 74//56 101//79 102//80
f 101//79 74//56 73//55
f 75//57 76//58 103//81
f 104//82 103//81 76//58
f 77//59 74//56 105//83
f 74//56 77//59 50//36
f 52//38 78//60 76//58
f 106//84 76//58 78//60
f 79//61 77//59 107//85
f 77//59 79//61 53//39
f 54//40 80//62 78//60
f 108//86 78//60 80//62
f 82//64 79//61 109//87
f 79//61 82//64 56//42
f 58//44 84//66 80//62
f 110//88 80//62 84//66
f 111//89 82//64 112//90
f 82//64 111//89 81//63
f 83//65 113//91 84//66
f 114//92 84//66 113//91
f 115//93 55//41 81//63
f 55//41 115//93 85//67
f 86//68 116//94 57//43
f 83//65 57//43 116//94
f 85//67 87//69 59//45
f 87//69 85//67 117//95
f 118//96 86//68 88//70
f 60//46 88//70 86//68
f 87//69 90//72 62//48
f 90//72 87//69 119//97
f 120//98 88//70 91//73
f 63//49 91//73 88//70
f 90//72 121//99 89//71
f 121//99 90//72 122//100
f 123//101 91//73 124//102
f 92//74 124//102 91//73
f 94//75 125//103 93//75
f 125//103 94//75 126//103
f 127//104 95//76 128//104
f 96//76 128//104 95//76
f 129//104 97//77 98//77
f 97//77 129//104 130//104
f 131//103 132//103 99//78
f 100//78 99//78 132//103
f 102//80 133//105 134//106
f 133//105 102//80 101//79
f 103//81 104//82 135//107
f 136//108 135//107 104//82
f 105//83 102//80 137//109
f 102//80 105//83 74//56
f 76//58 106//84 104//82
f 138//110 104//82 106//84
f 77//59 139//111 107//85
f 139//111 77//59 105//83
f 106//84 78//60 140//112
f 108//86 140//112 78//60
f 109//87 107//85 141//113
f 107//85 109//87 79//61
f 80//62 110//88 108//86
f 142//114 108//86 110//88
f 112//90 109//87 143//115
f 109//87 112//90 82//64
f 84//66 114//92 110//88
f 144//116 110//88 114//92
f 145//117 112//90 146//118
f 112//90 145//117 111//89
f 113//91 147//119 114//92
f 148//120 114//92 147//119
f 149//121 81//63 111//89
f 81//63 149//121 115//93
f 116//94 150//122 83//65
f 113//91 83//65 150//122
f 151//123 85//67 115//93
f 85//67 151//123 117//95
f 118//96 152//124 86//68
f 116//94 86//68 152//124
f 117//95 119//97 87//69
f 119//97 117//95 153//125
f 154//126 118//96 120//98
f 88//70 120//98 118//96
f 119//97 122//100 90//72
f 122//100 119//97 155//127
f 156//128 120//98 123//101
f 91//73 123//101 120//98
f 122//100 157//129 121//99
f 157//129 122//100 158//130
f 159//131 123//101 160//132
f 124//102 160//132 123//101
f 126//103 161//78 125//103
f 161//78 126//103 162//78
f 163//77 127//104 164//77
f 128//104 164//77 127//104
f 165//76 130//104 129//104
f 130//104 165//76 166//76
f 167//75 168//75 131//103
f 132//103 131//103 168//75
f 169//133 134//106 133//105
f 134//106 169//133 170//134
f 171//135 172//136 136//108
f 135//107 136//108 172//136
f 102//80 173//137 137//109
f 173//137 102//80 134//106
f 136//108 104//82 174//138
f 138//110 174//138 104//82
f 105//83 175//139 139//111
f 175//139 105//83 137//109
f 138//110 106//84 176//140
f 140//112 176//140 106//84
f 107//85 177//141 141//113
f 177//141 107//85 139//111
f 140//112 108//86 178//142
f 142//114 178//142 108//86
f 143//115 179//143 180//144
f 179//143 143//115 141//113
f 141//113 143//115 109//87
f 110//88 144//116 142//114
f 142//114 144//116 181//145
f 182//146 181//145 144//116
f 146//118 143//115 183//147
f 143//115 146//118 112//90
f 114//92 148//120 144//116
f 184//148 144//116 148//120
f 185//149 186//149 187//149
f 186//149 185//149 188//149
f 188//149 185//149 189//149
f 189//149 185//149 190//149
f 189//149 190//149 191//149
f 191//149 190//149 192//149
f 191//149 192//149 193//149
f 193//149 192//149 194//149
f 193//149 194//149 195//149
f 195//149 194//149 196//149
f 195//149 196//149 197//149
f 197//149 196//149 198//149
f 197//149 198//149 199//149
f 199//149 198//149 200//149
f 199//149 200//149 201//149
f 201//149 200//149 202//149
f 202//149 200//149 203//149
f 202//149 203//149 204//149
f 204//149 203//149 205//149
f 204//149 205//149 206//149
f 206//149 205//149 207//149
f 206//149 207//149 208//149
f 208//149 207//149 209//149
f 208//149 209//149 210//149
f 210//149 209//149 211//149
f 211//149 209//149 212//149
f 186//149 213//149 214//149
f 213//149 186//149 188//149
f 214//149 213//149 215//149
f 214//149 215//149 216//149
f 216//149 215//149 217//149
f 216//149 217//149 218//149
f 218//149 217//149 219//149
f 218//149 219//149 220//149
f 218//149 220//149 221//149
f 221//149 220//149 222//149
f 221//149 222//149 223//149
f 223//149 222//149 224//149
f 223//149 224//149 225//149
f 223//149 225//149 226//149
f 226//149 225//149 227//149
f 226//149 227//149 228//149
f 228//149 227//149 229//149
f 228//149 229//149 230//149
f 230//149 229//149 231//149
f 230//149 231//149 232//149
f 232//149 231//149 233//149
f 232//149 233//149 211//149
f 211//149 233//149 210//149
f 234//150 235//150 236//150
f 236//150 235//150 237//150
f 235//150 238//150 237//150
f 237//150 238//150 239//150
f 238//150 240//150 239//150
f 239//150 240//150 241//150
f 240//150 242//150 241//150
f 241//150 242//150 243//150
f 242//150 244//150 243//150
f 243//150 244//150 245//150
f 244//150 246//150 245//150
f 246//150 247//150 245//150
f 245//150 247//150 248//150
f 247//150 249//150 248//150
f 248//150 249//150 250//150
f 249//150 251//150 250//150
f 251//150 252//150 250//150
f 250//150 252//150 253//150
f 252//150 254//150 253//150
f 253//150 254//150 255//150
f 254//150 256//150 255//150
f 257//150 258//150 256//150
f 255//150 256//150 258//150
f 259//150 260//150 236//150
f 236//150 260//150 234//150
f 234//150 260//150 261//150
f 260//150 262//150 261//150
f 261//150 262//150 263//150
f 262//150 264//150 263//150
f 263//150 264//150 265//150
f 264//150 266//150 265//150
f 265//150 266//150 267//150
f 266//150 268//150 267//150
f 267//150 268//150 269//150
f 269//150 268//150 270//150
f 268//150 271//150 270//150
f 270//150 271//150 272//150
f 271//150 273//150 272//150
f 272//150 273//150 274//150
f 273//150 275//150 274//150
f 274//150 275//150 276//150
f 275//150 277//150 276//150
f 276//150 277//150 278//150
f 277//150 279//150 278//150
f 278//150 279//150 280//150
f 279//150 281//150 280//150
f 280//150 281//150 257//150
f 257//150 281//150 258//150
f 282//150 258//150 281//150
f 283//151 111//89 145//117
f 111//89 283//151 149//121
f 150//122 284//152 113//91
f 147//119 113//91 284//152
f 285//153 115//93 149//121
f 115//93 285//153 151//123
f 152//124 286//154 116//94
f 150//122 116//94 286//154
f 287//155 117//95 151//123
f 117//95 287//155 153//125
f 154//126 288//156 118//96
f 152//124 118//96 288//156
f 153//125 155//127 119//97
f 155//127 153//125 289//157
f 290//158 154//126 156//128
f 120//98 156//128 154//126
f 155//127 158//130 122//100
f 158//130 155//127 291//159
f 292//160 156//128 159//131
f 123//101 159//131 156//128
f 158//130 293//161 157//129
f 293//161 158//130 294//162
f 295//163 159//131 296//164
f 160//132 296//164 159//131
f 161//78 297//54 298//54
f 297//54 161//78 162//78
f 163//77 164//77 299//53
f 300//53 299//53 164//77
f 301//52 166//76 165//76
f 166//76 301//52 302//52
f 303//51 304//51 167//75
f 168//75 167//75 304//51
f 305//165 170//134 169//133
f 170//134 305//165 306//166
f 307//167 308//168 171//135
f 172//136 171//135 308//168
f 170//134 173//137 134//106
f 173//137 170//134 309//169
f 310//170 171//135 174//138
f 136//108 174//138 171//135
f 137//109 311//171 175//139
f 311//171 137//109 173//137
f 174//138 138//110 312//172
f 176//140 312//172 138//110
f 139//111 313//173 177//141
f 313//173 139//111 175//139
f 176//140 140//112 314//174
f 178//142 314//174 140//112
f 179//143 315//175 180//144
f 315//175 179//143 141//113
f 315//175 141//113 177//141
f 178//142 142//114 316//176
f 142//114 181//145 316//176
f 182//146 316//176 181//145
f 183//147 180//144 317//177
f 180//144 183//147 143//115
f 144//116 184//148 182//146
f 318//178 182//146 184//148
f 315//175 319//179 320//180
f 319//179 315//175 321//181
f 322//182 316//176 323//183
f 324//184 323//183 316//176
f 180//144 320//180 317//177
f 320//180 180//144 315//175
f 316//176 182//146 324//184
f 318//178 324//184 182//146
f 325//185 149//121 283//151
f 149//121 325//185 285//153
f 286//154 326//186 150//122
f 284//152 150//122 326//186
f 327//187 285//153 325//185
f 285//153 327//187 328//188
f 329//189 330//190 286//154
f 326//186 286//154 330//190
f 331//191 328//188 327//187
f 328//188 331//191 332//192
f 333//193 334//194 329//189
f 330//190 329//189 334//194
f 331//191 335//195 332//192
f 335//195 331//191 336//196
f 337//197 334//194 338//198
f 333//193 338//198 334//194
f 336//196 339//199 335//195
f 339//199 336//196 340//200
f 341//201 337//197 342//202
f 338//198 342//202 337//197
f 340//200 343//203 339//199
f 343//203 340//200 344//204
f 345//205 341//201 346//206
f 342//202 346//206 341//201
f 344//204 347//207 343//203
f 347//207 344//204 348//208
f 349//209 345//205 350//210
f 346//206 350//210 345//205
f 348//208 351//211 347//207
f 351//211 348//208 352//212
f 353//213 349//209 354//214
f 350//210 354//214 349//209
f 351//211 355//215 356//216
f 355//215 351//211 352//212
f 353//213 354//214 357//217
f 358//218 357//217 354//214
f 356//216 359//219 360//220
f 359//219 356//216 355//215
f 357//217 358//218 361//221
f 362//222 361//221 358//218
f 360//220 363//223 364//224
f 363//223 360//220 359//219
f 361//221 362//222 365//225
f 366//226 365//225 362//222
f 364//224 367//227 368//228
f 367//227 364//224 363//223
f 365//225 366//226 369//229
f 370//230 369//229 366//226
f 368//228 371//231 372//232
f 371//231 368//228 367//227
f 369//229 370//230 373//233
f 374//234 373//233 370//230
f 375//235 371//231 376//236
f 371//231 375//235 372//232
f 374//234 377//237 373//233
f 378//238 373//233 377//237
f 379//239 376//236 380//240
f 376//236 379//239 375//235
f 377//237 381//241 378//238
f 382//242 378//238 381//241
f 383//243 380//240 384//244
f 380//240 383//243 379//239
f 381//241 385//245 382//242
f 386//246 382//242 385//245
f 387//247 384//244 388//248
f 384//244 387//247 383//243
f 385//245 389//249 386//246
f 390//250 386//246 389//249
f 321//181 388//248 319//179
f 388//248 321//181 387//247
f 389//249 322//182 390//250
f 323//183 390//250 322//182
f 328//188 151//123 285//153
f 151//123 328//188 287//155
f 287//155 328//188 391//251
f 392//252 329//189 288//156
f 288//156 329//189 152//124
f 286//154 152//124 329//189
f 393//253 153//125 287//155
f 153//125 393//253 289//157
f 290//158 394//254 154//126
f 288//156 154//126 394//254
f 289//157 291//159 155//127
f 291//159 289//157 395//255
f 396//256 290//158 292//160
f 156//128 292//160 290//158
f 291//159 294//162 158//130
f 294//162 291//159 397//257
f 398//258 292//160 295//163
f 159//131 295//163 292//160
f 293//161 399//259 400//260
f 399//259 293//161 294//162
f 295//163 296//164 401//261
f 402//262 401//261 296//164
f 298//54 403//34 404//34
f 403//34 298//54 297//54
f 299//53 300//53 405//33
f 406//33 405//33 300//53
f 407//32 302//52 301//52
f 302//52 407//32 408//32
f 409//31 410//31 303//51
f 304//51 303//51 410//31
f 411//263 306//166 305//165
f 306//166 411//263 412//264
f 413//265 414//266 307//167
f 308//168 307//167 414//266
f 306//166 309//169 170//134
f 309//169 306//166 415//267
f 416//268 307//167 310//170
f 171//135 310//170 307//167
f 173//137 417//269 311//171
f 417//269 173//137 309//169
f 310//170 174//138 418//270
f 312//172 418//270 174//138
f 175//139 419//271 313//173
f 419//271 175//139 311//171
f 312//172 176//140 420//272
f 314//174 420//272 176//140
f 177//141 321//181 315//175
f 321//181 177//141 313//173
f 314//174 178//142 322//182
f 316//176 322//182 178//142
f 332//192 391//251 328//188
f 391//251 332//192 287//155
f 287//155 332//192 393//253
f 394//254 333//193 288//156
f 288//156 333//193 392//252
f 329//189 392//252 333//193
f 332//192 421//273 393//253
f 421//273 332//192 335//195
f 338//198 333//193 422//274
f 394//254 422//274 333//193
f 335//195 423//275 421//273
f 423//275 335//195 339//199
f 342//202 338//198 424//276
f 422//274 424//276 338//198
f 339//199 425//277 423//275
f 425//277 339//199 343//203
f 346//206 342//202 426//278
f 424//276 426//278 342//202
f 343//203 427//279 425//277
f 427//279 343//203 347//207
f 350//210 346//206 428//280
f 426//278 428//280 346//206
f 347//207 429//281 427//279
f 429//281 347//207 351//211
f 429//281 351//211 430//282
f 431//283 354//214 432//284
f 354//214 350//210 432//284
f 428//280 432//284 350//210
f 429//281 356//216 433//285
f 356//216 429//281 430//282
f 356//216 430//282 351//211
f 354//214 431//283 358//218
f 431//283 432//284 358//218
f 434//286 358//218 432//284
f 433//285 360//220 435//287
f 360//220 433//285 356//216
f 358//218 434//286 362//222
f 436//288 362//222 434//286
f 435//287 364//224 437//289
f 364//224 435//287 360//220
f 362//222 436//288 366//226
f 438//290 366//226 436//288
f 437//289 368//228 439//291
f 368//228 437//289 364//224
f 366//226 438//290 370//230
f 440//292 370//230 438//290
f 439//291 372//232 441//293
f 372//232 439//291 368//228
f 370//230 440//292 374//234
f 442//294 374//234 440//292
f 443//295 372//232 375//235
f 372//232 443//295 444//296
f 372//232 444//296 441//293
f 442//294 445//297 374//234
f 445//297 446//298 374//234
f 377//237 374//234 446//298
f 447//299 375//235 379//239
f 375//235 447//299 444//296
f 375//235 444//296 443//295
f 446//298 445//297 377//237
f 445//297 448//300 377//237
f 381//241 377//237 448//300
f 449//301 379//239 383//243
f 379//239 449//301 447//299
f 448//300 450//302 381//241
f 385//245 381//241 450//302
f 419//271 383//243 387//247
f 383//243 419//271 449//301
f 450//302 420//272 385//245
f 389//249 385//245 420//272
f 313//173 387//247 321//181
f 387//247 313//173 419//271
f 420//272 314//174 389//249
f 322//182 389//249 314//174
f 421//273 289//157 393//253
f 289//157 421//273 395//255
f 396//256 422//274 290//158
f 394//254 290//158 422//274
f 291//159 451//303 397//257
f 451//303 291//159 395//255
f 396//256 292//160 452//304
f 398//258 452//304 292//160
f 294//162 453//305 399//259
f 453//305 294//162 397//257
f 398//258 295//163 454//306
f 401//261 454//306 295//163
f 400//260 455//307 456//308
f 455//307 400//260 399//259
f 401//261 402//262 457//309
f 458//310 457//309 402//262
f 404//34 459//18 460//18
f 459//18 404//34 403//34
f 405//33 406//33 461//17
f 462//17 461//17 406//33
f 463//16 408//32 407//32
f 408//32 463//16 464//16
f 465//15 466//15 409//31
f 410//31 409//31 466//15
f 467//311 412//264 411//263
f 412//264 467//311 468//312
f 469//313 470//314 413//265
f 414//266 413//265 470//314
f 412//264 415//267 306//166
f 415//267 412//264 471//315
f 472//316 413//265 416//268
f 307//167 416//268 413//265
f 415//267 417//269 309//169
f 417//269 415//267 473//317
f 474//318 416//268 418//270
f 310//170 418//270 416//268
f 311//171 449//301 419//271
f 449//301 311//171 417//269
f 418//270 312//172 450//302
f 420//272 450//302 312//172
f 421//273 451//303 395//255
f 451//303 421//273 423//275
f 424//276 422//274 452//304
f 396//256 452//304 422//274
f 451//303 425//277 475//319
f 425//277 451//303 423//275
f 424//276 452//304 426//278
f 476//320 426//278 452//304
f 475//319 427//279 477//321
f 427//279 475//319 425//277
f 426//278 476//320 428//280
f 478//322 428//280 476//320
f 477//321 429//281 479//323
f 429//281 477//321 427//279
f 428//280 478//322 432//284
f 480//324 432//284 478//322
f 481//325 429//281 433//285
f 429//281 481//325 479//323
f 480//324 482//326 432//284
f 434//286 432//284 482//326
f 483//327 433//285 435//287
f 433//285 483//327 481//325
f 482//326 484//328 434//286
f 436//288 434//286 484//328
f 485//329 435//287 437//289
f 435//287 485//329 483//327
f 484//328 486//330 436//288
f 438//290 436//288 486//330
f 485//329 439//291 487//331
f 439//291 485//329 437//289
f 438//290 486//330 440//292
f 488//332 440//292 486//330
f 489//333 439//291 441//293
f 439//291 489//333 487//331
f 488//332 490//334 440//292
f 442//294 440//292 490//334
f 491//335 441//293 444//296
f 441//293 491//335 489//333
f 490//334 492//336 442//294
f 445//297 442//294 492//336
f 473//317 444//296 447//299
f 444//296 473//317 491//335
f 492//336 474//318 445//297
f 448//300 445//297 474//318
f 417//269 447//299 449//301
f 447//299 417//269 473//317
f 474//318 418//270 448//300
f 450//302 448//300 418//270
f 397//257 475//319 453//305
f 475//319 397//257 451//303
f 452//304 398//258 476//320
f 454//306 476//320 398//258
f 399//259 493//337 455//307
f 493//337 399//259 453//305
f 454//306 401//261 494//338
f 457//309 494//338 401//261
f 495//339 455//307 496//340
f 455//307 495//339 456//308
f 458//310 497//341 457//309
f 498//342 457//309 497//341
f 460//18 499//6 500//6
f 499//6 460//18 459//18
f 461//17 462//17 501//5
f 502//5 501//5 462//17
f 503//3 464//16 463//16
f 464//16 503//3 504//3
f 505//1 506//1 465//15
f 466//15 465//15 506//1
f 507//343 468//312 467//311
f 468//312 507//343 508//344
f 509//345 510//346 469//313
f 470//314 469//313 510//346
f 468//312 471//315 412//264
f 471//315 468//312 511//347
f 512//348 469//313 472//316
f 413//265 472//316 469//313
f 471//315 473//317 415//267
f 473//317 471//315 491//335
f 492//336 472//316 474//318
f 416//268 474//318 472//316
f 453//305 477//321 493//337
f 477//321 453//305 475//319
f 476//320 454//306 478//322
f 494//338 478//322 454//306
f 493//337 479//323 513//349
f 479//323 493//337 477//321
f 478//322 494//338 480//324
f 514//350 480//324 494//338
f 515//351 479//323 481//325
f 479//323 515//351 513//349
f 514//350 516//352 480//324
f 482//326 480//324 516//352
f 517//353 481//325 483//327
f 481//325 517//353 515//351
f 516//352 518//354 482//326
f 484//328 482//326 518//354
f 519//355 483//327 485//329
f 483//327 519//355 517//353
f 518//354 520//356 484//328
f 486//330 484//328 520//356
f 521//357 485//329 487//331
f 485//329 521//357 519//355
f 520//356 522//358 486//330
f 488//332 486//330 522//358
f 521//357 489//333 511//347
f 489//333 521//357 487//331
f 488//332 522//358 490//334
f 512//348 490//334 522//358
f 511//347 491//335 471//315
f 491//335 511//347 489//333
f 490//334 512//348 492//336
f 472//316 492//336 512//348
f 455//307 513//349 496//340
f 513//349 455//307 493//337
f 494//338 457//309 514//350
f 498//342 514//350 457//309
f 523//359 496//340 524//360
f 496//340 523//359 495//339
f 497//341 525//361 498//342
f 526//362 498//342 525//361
f 527//4 499//6 528//4
f 499//6 527//4 500//6
f 502//5 529//2 501//5
f 530//2 501//5 529//2
f 527//4 504//3 503//3
f 504//3 527//4 528//4
f 530//2 529//2 505//1
f 506//1 505//1 529//2
f 531//363 508//344 507//343
f 508//344 531//363 532//364
f 533//365 534//366 509//345
f 510//346 509//345 534//366
f 508//344 511//347 468//312
f 511//347 508//344 521//357
f 522//358 509//345 512//348
f 469//313 512//348 509//345
f 524//360 513//349 515//351
f 513//349 524//360 496//340
f 498//342 526//362 514//350
f 516//352 514//350 526//362
f 535//367 515//351 517//353
f 515//351 535//367 524//360
f 526//362 536//368 516//352
f 518//354 516//352 536//368
f 532//364 517//353 519//355
f 517//353 532//364 535//367
f 536//368 533//365 518//354
f 520//356 518//354 533//365
f 532//364 521//357 508//344
f 521//357 532//364 519//355
f 520//356 533//365 522//358
f 509//345 522//358 533//365
f 531//363 535//367 532//364
f 535//367 531//363 537//369
f 538//370 534//366 536//368
f 533//365 536//368 534//366
