# SSTK version 0.8.0
# 4
mtllib original-4.mtl
o #ID96
v 0.019231 -0.412887 0.540441
v 0.005267 -0.383913 0.546341
v 0.005267 -0.412887 0.540441
v 0.067644 -0.406771 0.541686
v 0.114908 -0.394636 0.544158
v 0.141990 -0.383913 0.546341
v 0.141990 -0.383913 0.546341
v 0.114908 -0.394636 0.544158
v 0.005267 -0.383913 0.546341
v 0.067644 -0.406771 0.541686
v 0.019231 -0.412887 0.540441
v 0.005267 -0.412887 0.540441
v 0.005267 -0.412887 0.540441
v -0.077978 -0.406771 0.541686
v -0.029566 -0.412887 0.540441
v -0.125242 -0.394636 0.544158
v -0.152325 -0.383913 0.546341
v -0.152325 -0.383913 0.546341
v -0.125242 -0.394636 0.544158
v -0.077978 -0.406771 0.541686
v 0.005267 -0.412887 0.540441
v -0.029566 -0.412887 0.540441
v 0.160279 -0.376672 0.547388
v 0.005267 -0.322605 0.555199
v 0.203040 -0.353164 0.550784
v 0.242518 -0.324482 0.554929
v 0.013551 -0.322605 0.555199
v 0.277128 -0.291981 0.559623
v 0.050693 -0.317913 0.555877
v 0.086954 -0.308603 0.557222
v 0.121762 -0.294821 0.559213
v 0.126928 -0.291981 0.559623
v 0.126928 -0.291981 0.559623
v 0.277128 -0.291981 0.559623
v 0.121762 -0.294821 0.559213
v 0.086954 -0.308603 0.557222
v 0.050693 -0.317913 0.555877
v 0.013551 -0.322605 0.555199
v 0.242518 -0.324482 0.554929
v 0.005267 -0.322605 0.555199
v 0.203040 -0.353164 0.550784
v 0.160279 -0.376672 0.547388
v 0.005267 -0.322605 0.555199
v -0.170613 -0.376672 0.547388
v -0.213374 -0.353164 0.550784
v -0.252852 -0.324482 0.554929
v -0.023886 -0.322605 0.555199
v -0.287462 -0.291981 0.559623
v -0.061028 -0.317913 0.555877
v -0.097289 -0.308603 0.557222
v -0.132097 -0.294821 0.559213
v -0.137263 -0.291981 0.559623
v -0.137263 -0.291981 0.559623
v -0.132097 -0.294821 0.559213
v -0.287462 -0.291981 0.559623
v -0.097289 -0.308603 0.557222
v -0.061028 -0.317913 0.555877
v -0.023886 -0.322605 0.555199
v -0.252852 -0.324482 0.554929
v 0.005267 -0.322605 0.555199
v -0.213374 -0.353164 0.550784
v -0.170613 -0.376672 0.547388
v 0.154569 -0.276786 0.560935
v 0.278089 -0.291078 0.559702
v 0.309194 -0.253479 0.562947
v 0.184856 -0.254781 0.562835
v 0.212146 -0.229153 0.565046
v 0.335341 -0.212278 0.566503
v 0.236010 -0.200307 0.567536
v 0.341383 -0.199438 0.567611
v 0.236561 -0.199438 0.567611
v 0.236561 -0.199438 0.567611
v 0.341383 -0.199438 0.567611
v 0.236010 -0.200307 0.567536
v 0.335341 -0.212278 0.566503
v 0.212146 -0.229153 0.565046
v 0.309194 -0.253479 0.562947
v 0.184856 -0.254781 0.562835
v 0.154569 -0.276786 0.560935
v 0.278089 -0.291078 0.559702
v -0.288424 -0.291078 0.559702
v -0.164903 -0.276786 0.560935
v -0.319528 -0.253479 0.562947
v -0.195190 -0.254781 0.562835
v -0.222481 -0.229153 0.565046
v -0.345675 -0.212278 0.566503
v -0.246344 -0.200307 0.567536
v -0.351717 -0.199438 0.567611
v -0.246896 -0.199438 0.567611
v -0.246896 -0.199438 0.567611
v -0.246344 -0.200307 0.567536
v -0.351717 -0.199438 0.567611
v -0.345675 -0.212278 0.566503
v -0.222481 -0.229153 0.565046
v -0.319528 -0.253479 0.562947
v -0.195190 -0.254781 0.562835
v -0.164903 -0.276786 0.560935
v -0.288424 -0.291078 0.559702
v 0.356118 -0.168125 0.568510
v 0.256069 -0.168698 0.568493
v 0.272009 -0.134824 0.569466
v 0.371197 -0.121716 0.569843
v 0.281183 -0.106590 0.570277
v 0.374082 -0.106590 0.570277
v 0.374082 -0.106590 0.570277
v 0.371197 -0.121716 0.569843
v 0.281183 -0.106590 0.570277
v 0.272009 -0.134824 0.569466
v 0.356118 -0.168125 0.568510
v 0.256069 -0.168698 0.568493
v -0.266404 -0.168698 0.568493
v -0.366452 -0.168125 0.568510
v -0.282344 -0.134824 0.569466
v -0.381531 -0.121716 0.569843
v -0.291518 -0.106590 0.570277
v -0.384417 -0.106590 0.570277
v -0.384417 -0.106590 0.570277
v -0.291518 -0.106590 0.570277
v -0.381531 -0.121716 0.569843
v -0.282344 -0.134824 0.569466
v -0.366452 -0.168125 0.568510
v -0.266404 -0.168698 0.568493
v 0.374252 -0.105699 0.570251
v 0.283578 -0.099219 0.570065
v 0.380341 -0.073783 0.569334
v 0.285569 -0.088782 0.569765
v 0.290593 -0.062445 0.569010
v 0.383404 -0.025082 0.567937
v 0.292944 -0.025082 0.567937
v 0.292230 -0.013741 0.567611
v 0.382691 -0.013741 0.567611
v 0.382691 -0.013741 0.567611
v 0.383404 -0.025082 0.567937
v 0.292230 -0.013741 0.567611
v 0.292944 -0.025082 0.567937
v 0.290593 -0.062445 0.569010
v 0.380341 -0.073783 0.569334
v 0.285569 -0.088782 0.569765
v 0.283578 -0.099219 0.570065
v 0.374252 -0.105699 0.570251
v -0.293913 -0.099219 0.570065
v -0.384587 -0.105699 0.570251
v -0.390675 -0.073783 0.569334
v -0.295904 -0.088782 0.569765
v -0.300928 -0.062445 0.569010
v -0.393739 -0.025082 0.567937
v -0.303278 -0.025082 0.567937
v -0.302565 -0.013741 0.567611
v -0.393026 -0.013741 0.567611
v -0.393026 -0.013741 0.567611
v -0.302565 -0.013741 0.567611
v -0.393739 -0.025082 0.567937
v -0.303278 -0.025082 0.567937
v -0.300928 -0.062445 0.569010
v -0.390675 -0.073783 0.569334
v -0.295904 -0.088782 0.569765
v -0.293913 -0.099219 0.570065
v -0.384587 -0.105699 0.570251
v 0.380341 0.023619 0.564386
v 0.290593 0.012281 0.565365
v 0.283578 0.049055 0.562192
v 0.371197 0.071552 0.560250
v 0.273913 0.078802 0.559623
v 0.368841 0.078802 0.559623
v 0.368841 0.078802 0.559623
v 0.371197 0.071552 0.560250
v 0.273913 0.078802 0.559623
v 0.283578 0.049055 0.562192
v 0.380341 0.023619 0.564386
v 0.290593 0.012281 0.565365
v -0.300928 0.012281 0.565365
v -0.390675 0.023619 0.564386
v -0.293913 0.049055 0.562192
v -0.381531 0.071552 0.560250
v -0.284247 0.078802 0.559623
v -0.379176 0.078802 0.559623
v -0.379176 0.078802 0.559623
v -0.284247 0.078802 0.559623
v -0.381531 0.071552 0.560250
v -0.293913 0.049055 0.562192
v -0.390675 0.023619 0.564386
v -0.300928 0.012281 0.565365
v 0.356118 0.117961 0.553965
v 0.272009 0.084660 0.558777
v 0.256069 0.118534 0.553883
v 0.335341 0.162114 0.547587
v 0.236010 0.150143 0.549316
v 0.218976 0.170734 0.546341
v 0.329870 0.170734 0.546341
v 0.329870 0.170734 0.546341
v 0.335341 0.162114 0.547587
v 0.218976 0.170734 0.546341
v 0.236010 0.150143 0.549316
v 0.256069 0.118534 0.553883
v 0.356118 0.117961 0.553965
v 0.272009 0.084660 0.558777
v -0.366452 0.117961 0.553965
v -0.282344 0.084660 0.558777
v -0.266404 0.118534 0.553883
v -0.345675 0.162114 0.547587
v -0.246344 0.150143 0.549316
v -0.229310 0.170734 0.546341
v -0.340205 0.170734 0.546341
v -0.340205 0.170734 0.546341
v -0.229310 0.170734 0.546341
v -0.345675 0.162114 0.547587
v -0.246344 0.150143 0.549316
v -0.266404 0.118534 0.553883
v -0.366452 0.117961 0.553965
v -0.282344 0.084660 0.558777
v 0.309194 0.203315 0.539707
v 0.212146 0.178989 0.544660
v 0.184856 0.204616 0.539441
v 0.278089 0.240914 0.532050
v 0.154569 0.226621 0.534960
v 0.121762 0.244657 0.531287
v 0.255898 0.261752 0.527806
v 0.086954 0.258438 0.528481
v 0.074046 0.261752 0.527806
v 0.074046 0.261752 0.527806
v 0.255898 0.261752 0.527806
v 0.086954 0.258438 0.528481
v 0.121762 0.244657 0.531287
v 0.278089 0.240914 0.532050
v 0.154569 0.226621 0.534960
v 0.184856 0.204616 0.539441
v 0.309194 0.203315 0.539707
v 0.212146 0.178989 0.544660
v -0.319528 0.203315 0.539707
v -0.222481 0.178989 0.544660
v -0.195190 0.204616 0.539441
v -0.288424 0.240914 0.532050
v -0.164903 0.226621 0.534960
v -0.132097 0.244657 0.531287
v -0.266233 0.261752 0.527806
v -0.097289 0.258438 0.528481
v -0.084381 0.261752 0.527806
v -0.084381 0.261752 0.527806
v -0.097289 0.258438 0.528481
v -0.266233 0.261752 0.527806
v -0.132097 0.244657 0.531287
v -0.288424 0.240914 0.532050
v -0.164903 0.226621 0.534960
v -0.195190 0.204616 0.539441
v -0.319528 0.203315 0.539707
v -0.222481 0.178989 0.544660
v 0.242518 0.274318 0.524487
v 0.050693 0.267749 0.526222
v 0.013551 0.272441 0.524982
v 0.005267 0.272441 0.524982
v 0.005267 0.351558 0.504081
v 0.203040 0.303000 0.516909
v 0.160279 0.326508 0.510698
v 0.114908 0.344472 0.505953
v 0.087308 0.351558 0.504081
v 0.087308 0.351558 0.504081
v 0.114908 0.344472 0.505953
v 0.005267 0.351558 0.504081
v 0.160279 0.326508 0.510698
v 0.203040 0.303000 0.516909
v 0.242518 0.274318 0.524487
v 0.005267 0.272441 0.524982
v 0.013551 0.272441 0.524982
v 0.050693 0.267749 0.526222
v -0.252852 0.274318 0.524487
v -0.061028 0.267749 0.526222
v -0.023886 0.272441 0.524982
v -0.023886 0.351558 0.504081
v -0.213374 0.303000 0.516909
v -0.170613 0.326508 0.510698
v -0.125242 0.344472 0.505953
v -0.097642 0.351558 0.504081
v -0.097642 0.351558 0.504081
v -0.023886 0.351558 0.504081
v -0.125242 0.344472 0.505953
v -0.170613 0.326508 0.510698
v -0.213374 0.303000 0.516909
v -0.252852 0.274318 0.524487
v -0.023886 0.272441 0.524982
v -0.061028 0.267749 0.526222
v -0.023886 0.272441 0.524982
v 0.005267 0.272441 0.524982
v -0.023886 0.351558 0.504081
v -0.023886 0.351558 0.504081
v -0.023886 0.272441 0.524982
v 0.005267 0.272441 0.524982
v 0.067644 0.356607 0.502432
v 0.005267 0.362723 0.500434
v 0.019231 0.362723 0.500434
v 0.019231 0.362723 0.500434
v 0.067644 0.356607 0.502432
v 0.005267 0.362723 0.500434
v -0.077978 0.356607 0.502432
v -0.023886 0.362723 0.500434
v -0.029566 0.362723 0.500434
v -0.029566 0.362723 0.500434
v -0.023886 0.362723 0.500434
v -0.077978 0.356607 0.502432
v 0.005267 0.362723 0.500434
v -0.023886 0.362723 0.500434
v -0.023886 0.362723 0.500434
v 0.005267 0.362723 0.500434
vt 7.046809 -2.42963
vt 6.899867 -1.949636
vt 6.899867 -2.42963
vt 7.556233 -2.328311
vt 8.053573 -2.127271
vt 8.338546 -1.949636
vt 6.023914 -2.328311
vt 6.533337 -2.42963
vt 5.526573 -2.127271
vt 5.241601 -1.949636
vt 8.530988 -0.02248438
vt 6.899867 -0.1412489
vt 8.338546 -0.1412489
vt 6.899867 0.8643223
vt 8.980947 0.3630949
vt 9.396354 0.8335384
vt 6.98704 0.8643223
vt 9.760538 1.366611
vt 7.377868 0.9412818
vt 7.759427 1.093987
vt 8.125697 1.32003
vt 8.180056 1.366611
vt 5.241601 -0.1412489
vt 5.049159 -0.02248438
vt 4.5992 0.3630949
vt 4.183792 0.8335384
vt 6.593106 0.8643223
vt 3.819609 1.366611
vt 6.202278 0.9412818
vt 5.82072 1.093987
vt 5.454449 1.32003
vt 5.40009 1.366611
vt 9.760538 3.17298
vt 8.470905 3.42057
vt 8.180056 3.17298
vt 9.770659 3.187698
vt 10.09796 3.800322
vt 8.789604 3.779111
vt 9.07677 4.196676
vt 10.37309 4.471635
vt 9.327873 4.666679
vt 10.43667 4.68084
vt 9.333677 4.68084
vt 5.40009 3.17298
vt 3.809487 3.187698
vt 3.819609 3.17298
vt 5.109242 3.42057
vt 3.482188 3.800322
vt 4.790542 3.779111
vt 4.503377 4.196676
vt 3.207056 4.471635
vt 4.252273 4.666679
vt 3.143479 4.68084
vt 4.24647 4.68084
vt 10.59172 6.982805
vt 9.333677 6.474276
vt 10.43667 6.474276
vt 9.538954 6.973495
vt 9.706683 7.52361
vt 10.75039 7.736486
vt 9.803216 7.982135
vt 10.78075 7.982135
vt 4.041193 6.973495
vt 3.143479 6.474276
vt 4.24647 6.474276
vt 2.98843 6.982805
vt 3.873464 7.52361
vt 2.829758 7.736486
vt 3.776931 7.982135
vt 2.799395 7.982135
vt 10.78254 9.766225
vt 9.803216 9.751765
vt 10.78075 9.751765
vt 9.828415 9.871461
vt 10.8466 10.28455
vt 9.849365 10.04096
vt 9.902231 10.46867
vt 10.87884 11.07545
vt 9.926966 11.07545
vt 9.919459 11.25962
vt 10.87134 11.25962
vt 3.751731 9.871461
vt 2.799395 9.751765
vt 3.776931 9.751765
vt 2.797608 9.766225
vt 2.733543 10.28455
vt 3.730781 10.04096
vt 3.677915 10.46867
vt 2.701302 11.07545
vt 3.65318 11.07545
vt 3.660688 11.25962
vt 2.70881 11.25962
vt 10.8466 13.60339
vt 9.919459 12.99465
vt 10.87134 12.99465
vt 9.902231 13.41865
vt 9.828415 14.01784
vt 10.75039 14.38439
vt 9.726712 14.50251
vt 10.7256 14.50251
vt 3.677915 13.41865
vt 2.70881 12.99465
vt 3.660688 12.99465
vt 2.733543 13.60339
vt 3.751731 14.01784
vt 2.829758 14.38439
vt 3.853434 14.50251
vt 2.854545 14.50251
vt 10.59172 16.83455
vt 9.726712 16.19226
vt 10.7256 16.19226
vt 9.706683 16.28835
vt 9.538954 16.84395
vt 10.37309 17.55874
vt 9.327873 17.3624
vt 9.148632 17.70012
vt 10.31553 17.70012
vt 3.853434 16.19226
vt 2.98843 16.83455
vt 2.854545 16.19226
vt 3.873464 16.28835
vt 4.041193 16.84395
vt 3.207056 17.55874
vt 4.252273 17.3624
vt 4.431515 17.70012
vt 3.264618 17.70012
vt 10.09796 19.87381
vt 9.148632 19.33406
vt 10.31553 19.33406
vt 9.07677 19.47082
vt 8.789604 19.89537
vt 9.770659 20.49669
vt 8.470905 20.25992
vt 8.125697 20.5587
vt 9.537151 20.84192
vt 7.759427 20.78701
vt 7.623604 20.84192
vt 4.431515 19.33406
vt 3.482188 19.87381
vt 3.264618 19.33406
vt 4.503377 19.47082
vt 4.790542 19.89537
vt 3.809487 20.49669
vt 5.109242 20.25992
vt 5.454449 20.5587
vt 4.042996 20.84192
vt 5.82072 20.78701
vt 5.956543 20.84192
vt 9.396354 22.62066
vt 7.623604 22.40969
vt 9.537151 22.40969
vt 7.377868 22.51037
vt 6.98704 22.58915
vt 6.899867 22.58915
vt 6.899867 23.91755
vt 8.980947 23.10225
vt 8.530988 23.49696
vt 8.053573 23.79857
vt 7.763145 23.91755
vt 5.956543 22.40969
vt 4.183792 22.62066
vt 4.042996 22.40969
vt 6.202278 22.51037
vt 6.593106 22.58915
vt 6.593106 23.91755
vt 4.5992 23.10225
vt 5.049159 23.49696
vt 5.526573 23.79857
vt 5.817002 23.91755
vt 7.556233 25.49526
vt 6.899867 25.40904
vt 7.763145 25.40904
vt 6.899867 25.5997
vt 7.046809 25.5997
vt 6.593106 25.40904
vt 6.023914 25.49526
vt 5.817002 25.40904
vt 6.593106 25.5997
vt 6.533337 25.5997
vn 0 -0.1995408036840333 0.9798895180912642
vn 0 -0.17134119163198103 0.9852117518838944
vn 0 -0.14993019762183743 0.9886965843174926
vn 0 -0.14300040433642175 0.9897226300128839
vn 0 -0.0997810022925007 0.9950094228606602
vn 0 -0.13387169628756543 0.9909986725183287
vn 0 -0.08598907824778115 0.9962960796982475
vn 0 -0.04935701000223165 0.998781200045155
vn 0 -0.067666977515055 0.9977079633610112
vn 0 -0.02869453078004439 0.999588227173226
vn 0 -0.005738964183704345 0.9999835320094519
vn 0 0.003443356902307888 0.9999940716290487
vn 0 0.028694530780043952 0.9995882271732263
vn 0 0.058509477251181295 0.9982868530997459
vn 0 0.05622146128355201 0.9984183227941792
vn 0 0.08598907824778074 0.9962960796982477
vn 0 0.12020960407604246 0.9927485336619144
vn 0 0.10887749724249808 0.9940551748239177
vn 0 0.1430004043364213 0.9897226300128839
vn 0 0.18365470351545113 0.9829908188160518
vn 0 0.16129000881054736 0.9869070539102925
vn 0 0.1995408036840329 0.9798895180912645
vn 0 0.2132882054843083 0.9769893251214588
vn 0 0.25089169089765817 0.9680151648804444
vn 0 0.25542400914637486 0.9668291346207937
vn 0 0.2830614893079906 0.9591017637720944
vn 0 0.26007270959586504 0.9655890356271996
vn 0 0.31046590516878214 0.9505845158257781
vn 0 0.14993019762183743 -0.9886965843174926
vn 0 0.1995408036840333 -0.9798895180912642
vn 0 0.17134119163198103 -0.9852117518838944
vn 0 0.13387169628756543 -0.9909986725183287
vn 0 0.0997810022925007 -0.9950094228606602
vn 0 0.14300040433642175 -0.9897226300128839
vn 0 0.067666977515055 -0.9977079633610112
vn 0 0.04935701000223165 -0.998781200045155
vn 0 0.08598907824778115 -0.9962960796982475
vn 0 -0.003443356902307888 -0.9999940716290487
vn 0 0.02869453078004439 -0.999588227173226
vn 0 0.005738964183704345 -0.9999835320094519
vn 0 -0.05622146128355201 -0.9984183227941792
vn 0 -0.028694530780043952 -0.9995882271732263
vn 0 -0.058509477251181295 -0.9982868530997459
vn 0 -0.10887749724249808 -0.9940551748239177
vn 0 -0.08598907824778074 -0.9962960796982477
vn 0 -0.12020960407604246 -0.9927485336619144
vn 0 -0.16129000881054736 -0.9869070539102925
vn 0 -0.1430004043364213 -0.9897226300128839
vn 0 -0.18365470351545113 -0.9829908188160518
vn 0 -0.25089169089765817 -0.9680151648804444
vn 0 -0.2132882054843083 -0.9769893251214588
vn 0 -0.1995408036840329 -0.9798895180912645
vn 0 -0.26007270959586504 -0.9655890356271996
vn 0 -0.25542400914637486 -0.9668291346207937
vn 0 -0.2830614893079906 -0.9591017637720944
vn 0 -0.31046590516878214 -0.9505845158257781
usemtl material_0_0
f 1/1/1 2/2/2 3/3/1
f 2/2/2 1/1/1 4/4/1
f 2/2/2 4/4/1 5/5/1
f 2/2/2 5/5/1 6/6/3
f 13/3/1 14/7/1 15/8/1
f 14/7/1 13/3/1 2/2/2
f 14/7/1 2/2/2 16/9/1
f 16/9/1 2/2/2 17/10/3
f 23/11/4 2/12/2 6/13/3
f 2/12/2 23/11/4 24/14/4
f 24/14/4 23/11/4 25/15/4
f 24/14/4 25/15/4 26/16/4
f 24/14/4 26/16/4 27/17/4
f 27/17/4 26/16/4 28/18/5
f 27/17/4 28/18/5 29/19/4
f 29/19/4 28/18/5 30/20/4
f 30/20/4 28/18/5 31/21/4
f 31/21/4 28/18/5 32/22/6
f 43/14/4 17/23/3 2/12/2
f 17/23/3 43/14/4 44/24/4
f 44/24/4 43/14/4 45/25/4
f 45/25/4 43/14/4 46/26/4
f 46/26/4 43/14/4 47/27/4
f 47/27/4 48/28/5 46/26/4
f 48/28/5 47/27/4 49/29/4
f 48/28/5 49/29/4 50/30/4
f 48/28/5 50/30/4 51/31/4
f 48/28/5 51/31/4 52/32/6
f 28/33/5 63/34/7 32/35/6
f 63/34/7 28/33/5 64/36/7
f 63/34/7 64/36/7 65/37/7
f 63/34/7 65/37/7 66/38/7
f 66/38/7 65/37/7 67/39/7
f 67/39/7 65/37/7 68/40/7
f 67/39/7 68/40/7 69/41/7
f 69/41/7 68/40/7 70/42/8
f 69/41/7 70/42/8 71/43/9
f 52/44/6 81/45/7 48/46/5
f 81/45/7 52/44/6 82/47/7
f 81/45/7 82/47/7 83/48/7
f 83/48/7 82/47/7 84/49/7
f 83/48/7 84/49/7 85/50/7
f 83/48/7 85/50/7 86/51/7
f 86/51/7 85/50/7 87/52/7
f 86/51/7 87/52/7 88/53/8
f 88/53/8 87/52/7 89/54/9
f 99/55/10 71/56/9 70/57/8
f 71/56/9 99/55/10 100/58/10
f 100/58/10 99/55/10 101/59/10
f 101/59/10 99/55/10 102/60/10
f 101/59/10 102/60/10 103/61/11
f 103/61/11 102/60/10 104/62/12
f 111/63/10 88/64/8 89/65/9
f 88/64/8 111/63/10 112/66/10
f 112/66/10 111/63/10 113/67/10
f 112/66/10 113/67/10 114/68/10
f 114/68/10 113/67/10 115/69/11
f 114/68/10 115/69/11 116/70/12
f 123/71/13 103/72/11 104/73/12
f 103/72/11 123/71/13 124/74/13
f 124/74/13 123/71/13 125/75/13
f 124/74/13 125/75/13 126/76/13
f 126/76/13 125/75/13 127/77/13
f 127/77/13 125/75/13 128/78/13
f 127/77/13 128/78/13 129/79/13
f 129/79/13 128/78/13 130/80/14
f 130/80/14 128/78/13 131/81/15
f 141/82/13 116/83/12 115/84/11
f 116/83/12 141/82/13 142/85/13
f 142/85/13 141/82/13 143/86/13
f 143/86/13 141/82/13 144/87/13
f 143/86/13 144/87/13 145/88/13
f 143/86/13 145/88/13 146/89/13
f 146/89/13 145/88/13 147/90/13
f 146/89/13 147/90/13 148/91/14
f 146/89/13 148/91/14 149/92/15
f 159/93/16 130/94/14 131/95/15
f 130/94/14 159/93/16 160/96/16
f 160/96/16 159/93/16 161/97/16
f 161/97/16 159/93/16 162/98/16
f 161/97/16 162/98/16 163/99/17
f 163/99/17 162/98/16 164/100/18
f 171/101/16 149/102/15 148/103/14
f 149/102/15 171/101/16 172/104/16
f 172/104/16 171/101/16 173/105/16
f 172/104/16 173/105/16 174/106/16
f 174/106/16 173/105/16 175/107/17
f 174/106/16 175/107/17 176/108/18
f 183/109/19 163/110/17 164/111/18
f 163/110/17 183/109/19 184/112/19
f 184/112/19 183/109/19 185/113/19
f 185/113/19 183/109/19 186/114/19
f 185/113/19 186/114/19 187/115/19
f 187/115/19 186/114/19 188/116/20
f 188/116/20 186/114/19 189/117/21
f 175/118/17 197/119/19 176/120/18
f 197/119/19 175/118/17 198/121/19
f 197/119/19 198/121/19 199/122/19
f 197/119/19 199/122/19 200/123/19
f 200/123/19 199/122/19 201/124/19
f 200/123/19 201/124/19 202/125/20
f 200/123/19 202/125/20 203/126/21
f 211/127/22 188/128/20 189/129/21
f 188/128/20 211/127/22 212/130/22
f 212/130/22 211/127/22 213/131/22
f 213/131/22 211/127/22 214/132/22
f 213/131/22 214/132/22 215/133/22
f 215/133/22 214/132/22 216/134/22
f 216/134/22 214/132/22 217/135/23
f 216/134/22 217/135/23 218/136/22
f 218/136/22 217/135/23 219/137/24
f 202/138/20 229/139/22 203/140/21
f 229/139/22 202/138/20 230/141/22
f 229/139/22 230/141/22 231/142/22
f 229/139/22 231/142/22 232/143/22
f 232/143/22 231/142/22 233/144/22
f 232/143/22 233/144/22 234/145/22
f 232/143/22 234/145/22 235/146/23
f 235/146/23 234/145/22 236/147/22
f 235/146/23 236/147/22 237/148/24
f 247/149/25 219/150/24 217/151/23
f 219/150/24 247/149/25 248/152/25
f 248/152/25 247/149/25 249/153/25
f 249/153/25 247/149/25 250/154/25
f 250/154/25 247/149/25 251/155/26
f 251/155/26 247/149/25 252/156/25
f 251/155/26 252/156/25 253/157/25
f 251/155/26 253/157/25 254/158/25
f 251/155/26 254/158/25 255/159/27
f 237/160/24 265/161/25 235/162/23
f 265/161/25 237/160/24 266/163/25
f 265/161/25 266/163/25 267/164/25
f 265/161/25 267/164/25 268/165/26
f 265/161/25 268/165/26 269/166/25
f 269/166/25 268/165/26 270/167/25
f 270/167/25 268/165/26 271/168/25
f 271/168/25 268/165/26 272/169/27
f 251/155/26 281/164/25 282/154/25
f 281/164/25 251/155/26 283/165/26
f 287/170/28 251/171/26 255/172/27
f 251/171/26 287/170/28 288/173/28
f 288/173/28 287/170/28 289/174/28
f 268/175/26 293/176/28 272/177/27
f 293/176/28 268/175/26 294/178/28
f 293/176/28 294/178/28 295/179/28
f 299/173/28 283/175/26 251/171/26
f 283/175/26 299/173/28 300/178/28
usemtl material_1_0
f 7//29 8//30 9//31
f 8//30 10//30 9//31
f 10//30 11//30 9//31
f 12//30 9//31 11//30
f 18//29 9//31 19//30
f 19//30 9//31 20//30
f 9//31 21//30 20//30
f 22//30 20//30 21//30
f 33//32 34//33 35//34
f 35//34 34//33 36//34
f 36//34 34//33 37//34
f 37//34 34//33 38//34
f 34//33 39//34 38//34
f 38//34 39//34 40//34
f 39//34 41//34 40//34
f 41//34 42//34 40//34
f 40//34 42//34 9//31
f 7//29 9//31 42//34
f 53//32 54//34 55//33
f 54//34 56//34 55//33
f 56//34 57//34 55//33
f 57//34 58//34 55//33
f 59//34 55//33 58//34
f 58//34 60//34 59//34
f 59//34 60//34 61//34
f 61//34 60//34 62//34
f 62//34 60//34 18//29
f 9//31 18//29 60//34
f 72//35 73//36 74//37
f 73//36 75//37 74//37
f 74//37 75//37 76//37
f 75//37 77//37 76//37
f 76//37 77//37 78//37
f 78//37 77//37 79//37
f 77//37 80//37 79//37
f 80//37 34//33 79//37
f 33//32 79//37 34//33
f 90//35 91//37 92//36
f 92//36 91//37 93//37
f 91//37 94//37 93//37
f 93//37 94//37 95//37
f 94//37 96//37 95//37
f 96//37 97//37 95//37
f 95//37 97//37 98//37
f 97//37 53//32 98//37
f 55//33 98//37 53//32
f 105//38 106//39 107//40
f 107//40 106//39 108//39
f 106//39 109//39 108//39
f 108//39 109//39 110//39
f 110//39 109//39 72//35
f 73//36 72//35 109//39
f 117//38 118//40 119//39
f 118//40 120//39 119//39
f 119//39 120//39 121//39
f 120//39 122//39 121//39
f 121//39 122//39 92//36
f 90//35 92//36 122//39
f 132//41 133//42 134//43
f 134//43 133//42 135//42
f 135//42 133//42 136//42
f 133//42 137//42 136//42
f 136//42 137//42 138//42
f 138//42 137//42 139//42
f 137//42 140//42 139//42
f 139//42 140//42 107//40
f 105//38 107//40 140//42
f 150//41 151//43 152//42
f 151//43 153//42 152//42
f 153//42 154//42 152//42
f 152//42 154//42 155//42
f 154//42 156//42 155//42
f 156//42 157//42 155//42
f 155//42 157//42 158//42
f 158//42 157//42 117//38
f 118//40 117//38 157//42
f 165//44 166//45 167//46
f 167//46 166//45 168//45
f 166//45 169//45 168//45
f 168//45 169//45 170//45
f 170//45 169//45 134//43
f 132//41 134//43 169//45
f 177//44 178//46 179//45
f 178//46 180//45 179//45
f 179//45 180//45 181//45
f 180//45 182//45 181//45
f 181//45 182//45 150//41
f 151//43 150//41 182//45
f 190//47 191//48 192//49
f 192//49 191//48 193//48
f 193//48 191//48 194//48
f 191//48 195//48 194//48
f 194//48 195//48 196//48
f 196//48 195//48 167//46
f 165//44 167//46 195//48
f 204//47 205//49 206//48
f 205//49 207//48 206//48
f 207//48 208//48 206//48
f 206//48 208//48 209//48
f 208//48 210//48 209//48
f 210//48 178//46 209//48
f 177//44 209//48 178//46
f 220//50 221//51 222//52
f 222//52 221//51 223//52
f 221//51 224//52 223//52
f 223//52 224//52 225//52
f 225//52 224//52 226//52
f 224//52 227//52 226//52
f 226//52 227//52 228//52
f 228//52 227//52 192//49
f 190//47 192//49 227//52
f 238//50 239//52 240//51
f 239//52 241//52 240//51
f 240//51 241//52 242//52
f 241//52 243//52 242//52
f 243//52 244//52 242//52
f 242//52 244//52 245//52
f 244//52 246//52 245//52
f 246//52 205//49 245//52
f 204//47 245//52 205//49
f 256//53 257//54 258//55
f 257//54 259//54 258//55
f 259//54 260//54 258//55
f 260//54 261//54 258//55
f 258//55 261//54 262//54
f 262//54 261//54 263//54
f 263//54 261//54 264//54
f 264//54 261//54 220//50
f 221//51 220//50 261//54
f 273//53 274//55 275//54
f 275//54 274//55 276//54
f 276//54 274//55 277//54
f 277//54 274//55 278//54
f 274//55 279//54 278//54
f 279//54 280//54 278//54
f 280//54 238//50 278//54
f 240//51 278//54 238//50
f 284//55 258//55 285//54
f 286//54 285//54 258//55
f 290//56 291//56 292//56
f 292//56 291//56 258//55
f 256//53 258//55 291//56
f 296//56 297//56 298//56
f 297//56 274//55 298//56
f 273//53 298//56 274//55
f 301//56 302//56 284//55
f 258//55 284//55 302//56
