# SSTK version 0.8.0
# 101
mtllib original-101.mtl
o #ID749
v 0.251825 0.459507 0.467863
v 0.244446 0.459507 0.467863
v 0.248135 0.459021 0.468045
v 0.255263 0.460931 0.467328
v 0.241008 0.460931 0.467328
v 0.258215 0.463196 0.466477
v 0.238055 0.463196 0.466477
v 0.260481 0.466148 0.465369
v 0.235790 0.466148 0.465369
v 0.234366 0.469586 0.464078
v 0.261905 0.469586 0.464078
v 0.262390 0.473276 0.462693
v 0.233880 0.473276 0.462693
v 0.261905 0.476965 0.461307
v 0.234366 0.476965 0.461307
v 0.235790 0.480403 0.460017
v 0.260481 0.480403 0.460017
v 0.238055 0.483356 0.458908
v 0.258215 0.483356 0.458908
v 0.241008 0.485621 0.458057
v 0.255263 0.485621 0.458057
v 0.251825 0.487045 0.457522
v 0.244446 0.487045 0.457522
v 0.248135 0.487531 0.457340
vn 0 0.3515416202868696 0.9361722540249108
usemtl material_0_0
f 1//1 2//1 3//1
f 2//1 1//1 4//1
f 2//1 4//1 5//1
f 5//1 4//1 6//1
f 5//1 6//1 7//1
f 7//1 6//1 8//1
f 7//1 8//1 9//1
f 9//1 8//1 10//1
f 10//1 8//1 11//1
f 10//1 11//1 12//1
f 10//1 12//1 13//1
f 13//1 12//1 14//1
f 13//1 14//1 15//1
f 15//1 14//1 16//1
f 16//1 14//1 17//1
f 16//1 17//1 18//1
f 18//1 17//1 19//1
f 18//1 19//1 20//1
f 20//1 19//1 21//1
f 20//1 21//1 22//1
f 20//1 22//1 23//1
f 23//1 22//1 24//1
