# SSTK version 0.8.0
# 26
mtllib original-26.mtl
o #ID234
v 0.295238 0.480061 0.463250
v 0.292755 0.478881 0.463197
v 0.293981 0.478423 0.463866
v 0.294221 0.480791 0.462480
v 0.291812 0.476605 0.464052
v 0.293164 0.476451 0.464607
v 0.296269 0.479298 0.463969
v 0.295223 0.477935 0.464481
v 0.296810 0.481267 0.462798
v 0.296078 0.482216 0.461944
v 0.291548 0.479309 0.462476
v 0.293219 0.481487 0.461658
v 0.292881 0.474298 0.465414
v 0.291487 0.474135 0.464980
v 0.294534 0.476271 0.465106
v 0.290481 0.476734 0.463443
v 0.297311 0.478504 0.464636
v 0.296479 0.477419 0.465044
v 0.297551 0.480282 0.463600
v 0.298567 0.481995 0.462525
v 0.298183 0.483088 0.461617
v 0.295358 0.483128 0.461041
v 0.290361 0.479705 0.461705
v 0.292235 0.482147 0.460788
v 0.293164 0.472145 0.466223
v 0.291812 0.471664 0.465907
v 0.294293 0.474440 0.465794
v 0.290115 0.473950 0.464488
v 0.295919 0.476066 0.465552
v 0.289173 0.476838 0.462782
v 0.298364 0.477679 0.465248
v 0.297747 0.476875 0.465549
v 0.298300 0.479263 0.464351
v 0.298955 0.480864 0.463382
v 0.300404 0.482237 0.462433
v 0.300404 0.483381 0.461507
v 0.297806 0.484142 0.460661
v 0.294650 0.484001 0.460092
v 0.289197 0.480071 0.460885
v 0.291269 0.482770 0.459871
v 0.293981 0.470174 0.466964
v 0.292755 0.469388 0.466761
v 0.294534 0.472610 0.466481
v 0.290481 0.471166 0.465534
v 0.295721 0.474561 0.466117
v 0.288766 0.473745 0.463943
v 0.297317 0.475837 0.465939
v 0.287890 0.476915 0.462070
v 0.299424 0.476826 0.465804
v 0.299024 0.476305 0.466000
v 0.299057 0.478211 0.465048
v 0.299348 0.479696 0.464188
v 0.300404 0.481054 0.463310
v 0.302625 0.483088 0.461617
v 0.302241 0.481995 0.462525
v 0.300404 0.484484 0.460533
v 0.297434 0.485154 0.459660
v 0.293956 0.484832 0.459096
v 0.288059 0.480403 0.460017
v 0.290324 0.483356 0.458908
v 0.295238 0.468535 0.467579
v 0.294221 0.467478 0.467479
v 0.295223 0.470946 0.467106
v 0.291548 0.468592 0.466500
v 0.295919 0.473057 0.466681
v 0.289173 0.470653 0.465104
v 0.297162 0.474661 0.466381
v 0.287443 0.473521 0.463344
v 0.298725 0.475583 0.466271
v 0.286635 0.476965 0.461307
v 0.300323 0.476086 0.466231
v 0.299819 0.477129 0.465691
v 0.299745 0.478496 0.464941
v 0.300404 0.479835 0.464136
v 0.301853 0.480864 0.463382
v 0.304730 0.482216 0.461944
v 0.303998 0.481267 0.462798
v 0.303002 0.484142 0.460661
v 0.300404 0.485545 0.459512
v 0.297071 0.486122 0.458612
v 0.293276 0.485621 0.458057
v 0.296810 0.467329 0.468032
v 0.296078 0.466052 0.468014
v 0.296269 0.469583 0.467618
v 0.293219 0.466413 0.467319
v 0.296479 0.471704 0.467190
v 0.290361 0.467785 0.466181
v 0.297317 0.473485 0.466823
v 0.287890 0.470126 0.464619
v 0.298614 0.474739 0.466587
v 0.286149 0.473276 0.462693
v 0.300309 0.475710 0.466393
v 0.300141 0.475305 0.466545
v 0.300362 0.476053 0.466249
v 0.300368 0.476334 0.466112
v 0.300144 0.477263 0.465640
v 0.300404 0.478583 0.464908
v 0.301460 0.479696 0.464188
v 0.303257 0.480282 0.463600
v 0.306587 0.480791 0.462480
v 0.305570 0.480061 0.463250
v 0.305450 0.483128 0.461041
v 0.303373 0.485154 0.459660
v 0.300404 0.486561 0.458448
v 0.296714 0.487045 0.457522
v 0.298567 0.466601 0.468305
v 0.298183 0.465181 0.468341
v 0.297551 0.468599 0.467987
v 0.295358 0.464772 0.467934
v 0.297311 0.470619 0.467596
v 0.292235 0.465344 0.467098
v 0.297747 0.472446 0.467212
v 0.289197 0.466970 0.465804
v 0.298725 0.473894 0.466905
v 0.286635 0.469586 0.464078
v 0.300074 0.474794 0.466736
v 0.300404 0.475833 0.466346
v 0.300270 0.475879 0.466312
v 0.300340 0.476029 0.466252
v 0.300360 0.476307 0.466124
v 0.300404 0.476447 0.466056
v 0.300404 0.477298 0.465627
v 0.301063 0.478496 0.464941
v 0.302507 0.479263 0.464351
v 0.304539 0.479298 0.463969
v 0.308053 0.478881 0.463197
v 0.306827 0.478423 0.463866
v 0.307589 0.481487 0.461658
v 0.306158 0.484001 0.460092
v 0.303737 0.486122 0.458612
v 0.300404 0.487531 0.457340
v 0.300404 0.466359 0.468395
v 0.300404 0.464888 0.468451
v 0.298955 0.468017 0.468206
v 0.297806 0.463758 0.468316
v 0.298300 0.469860 0.467881
v 0.294650 0.463490 0.467794
v 0.298364 0.471643 0.467514
v 0.291269 0.464271 0.466818
v 0.299024 0.473172 0.467176
v 0.288059 0.466148 0.465369
v 0.300141 0.474283 0.466928
v 0.300404 0.474802 0.466756
v 0.300404 0.475250 0.466584
v 0.300404 0.475664 0.466417
v 0.300361 0.475978 0.466281
v 0.300404 0.476016 0.466264
v 0.300404 0.476282 0.466137
v 0.300664 0.477263 0.465640
v 0.301751 0.478211 0.465048
v 0.303496 0.478504 0.464636
v 0.305585 0.477935 0.464481
v 0.308995 0.476605 0.464052
v 0.307644 0.476451 0.464607
v 0.309260 0.479309 0.462476
v 0.308573 0.482147 0.460788
v 0.306852 0.484832 0.459096
v 0.304093 0.487045 0.457522
v 0.302625 0.465181 0.468341
v 0.302241 0.466601 0.468305
v 0.300404 0.467827 0.468277
v 0.300404 0.463416 0.468444
v 0.299348 0.469426 0.468044
v 0.297434 0.462337 0.468228
v 0.299057 0.471111 0.467715
v 0.293956 0.462209 0.467591
v 0.299424 0.472652 0.467372
v 0.290324 0.463196 0.466477
v 0.300309 0.473879 0.467080
v 0.300666 0.475305 0.466545
v 0.300734 0.474794 0.466736
v 0.300404 0.476016 0.466264
v 0.300989 0.477129 0.465691
v 0.302444 0.477679 0.465248
v 0.304329 0.477419 0.465044
v 0.306274 0.476271 0.465106
v 0.307927 0.474298 0.465414
v 0.309321 0.474135 0.464980
v 0.310327 0.476734 0.463443
v 0.310447 0.479705 0.461705
v 0.309539 0.482770 0.459871
v 0.307531 0.485621 0.458057
v 0.304730 0.466052 0.468014
v 0.303998 0.467329 0.468032
v 0.301853 0.468017 0.468206
v 0.303002 0.463758 0.468316
v 0.300404 0.469288 0.468097
v 0.300404 0.461946 0.468374
v 0.299745 0.470826 0.467821
v 0.297071 0.460919 0.468077
v 0.299819 0.472348 0.467485
v 0.293276 0.460931 0.467328
v 0.300404 0.473564 0.467185
v 0.300404 0.473755 0.467127
v 0.300404 0.475664 0.466417
v 0.300499 0.475710 0.466393
v 0.302083 0.475583 0.466271
v 0.302194 0.474739 0.466587
v 0.300492 0.475865 0.466329
v 0.300404 0.476447 0.466056
v 0.301384 0.476826 0.465804
v 0.303061 0.476875 0.465549
v 0.304889 0.476066 0.465552
v 0.306515 0.474440 0.465794
v 0.307644 0.472145 0.466223
v 0.308995 0.471664 0.465907
v 0.310693 0.473950 0.464488
v 0.311635 0.476838 0.462782
v 0.311611 0.480071 0.460885
v 0.310484 0.483356 0.458908
v 0.306587 0.467478 0.467479
v 0.305570 0.468535 0.467579
v 0.303257 0.468599 0.467987
v 0.305450 0.464772 0.467934
v 0.301460 0.469426 0.468044
v 0.303373 0.462337 0.468228
v 0.300404 0.470739 0.467853
v 0.300404 0.460480 0.468241
v 0.300144 0.472214 0.467536
v 0.296714 0.459507 0.467863
v 0.300368 0.473224 0.467280
v 0.301783 0.473172 0.467176
v 0.301384 0.472652 0.467372
v 0.300499 0.473879 0.467080
v 0.300404 0.473930 0.467069
v 0.301783 0.476305 0.466000
v 0.300666 0.474283 0.466928
v 0.302083 0.473894 0.466905
v 0.303491 0.475837 0.465939
v 0.303646 0.474661 0.466381
v 0.300440 0.476334 0.466112
v 0.305087 0.474561 0.466117
v 0.306274 0.472610 0.466481
v 0.306827 0.470174 0.466964
v 0.308053 0.469388 0.466761
v 0.310327 0.471166 0.465534
v 0.312042 0.473745 0.463943
v 0.312918 0.476915 0.462070
v 0.312749 0.480403 0.460017
v 0.304539 0.469583 0.467618
v 0.307589 0.466413 0.467319
v 0.302507 0.469860 0.467881
v 0.306158 0.463490 0.467794
v 0.301063 0.470826 0.467821
v 0.303737 0.460919 0.468077
v 0.300404 0.472179 0.467549
v 0.300404 0.459021 0.468045
v 0.300404 0.473102 0.467313
v 0.300440 0.473224 0.467280
v 0.303061 0.472446 0.467212
v 0.302444 0.471643 0.467514
v 0.303491 0.473485 0.466823
v 0.300485 0.476086 0.466231
v 0.300448 0.476307 0.466124
v 0.304889 0.473057 0.466681
v 0.305585 0.470946 0.467106
v 0.309260 0.468592 0.466500
v 0.311635 0.470653 0.465104
v 0.313365 0.473521 0.463344
v 0.314173 0.476965 0.461307
v 0.303496 0.470619 0.467596
v 0.308573 0.465344 0.467098
v 0.301751 0.471111 0.467715
v 0.306852 0.462209 0.467591
v 0.300664 0.472214 0.467536
v 0.304093 0.459507 0.467863
v 0.300989 0.472348 0.467485
v 0.304329 0.471704 0.467190
v 0.300404 0.473930 0.467069
v 0.300404 0.474351 0.466922
v 0.300404 0.476282 0.466137
v 0.300448 0.476307 0.466124
v 0.300444 0.476184 0.466184
v 0.310447 0.467785 0.466181
v 0.312918 0.470126 0.464619
v 0.314659 0.473276 0.462693
v 0.309539 0.464271 0.466818
v 0.307531 0.460931 0.467328
v 0.300404 0.473102 0.467313
v 0.311611 0.466970 0.465804
v 0.314173 0.469586 0.464078
v 0.310484 0.463196 0.466477
v 0.312749 0.466148 0.465369
vn -0.2170210048881573 0.5262429118530373 0.8221741185185597
vn -0.2973817892362336 0.48162868256739705 0.8243772701615747
vn -0.2617520992595478 0.4683389986751484 0.8438864976127886
vn -0.2465591980972016 0.5474142957753793 0.7997162938282616
vn -0.3280734030697418 0.40802380381782755 0.8519885079719501
vn -0.2887641009637026 0.4035536013467934 0.8681934028974524
vn -0.18708270721333872 0.5041080194368679 0.8431341325086814
vn -0.22563850367428498 0.4541915073960294 0.8618569140344308
vn -0.1558945091229945 0.572823333521797 0.8047175470923178
vn -0.17711089837213742 0.6003341944822053 0.7798913928318586
vn -0.3324626015833848 0.49403660235289615 0.8033657038261057
vn -0.2756435014232729 0.5675840029306943 0.77580220400582
vn -0.29776959797824415 0.3355948977214228 0.8937053939320397
vn -0.33830580258513 0.33081340252787733 0.8809720067318597
vn -0.24892008991743472 0.398344883864949 0.8828137642414263
vn -0.36677601602007076 0.4117476179843436 0.83422973643755
vn -0.15679909530903294 0.4810498856084042 0.8625572741948272
vn -0.18910719696727654 0.4392117929563339 0.8782547859153754
vn -0.13439150238499964 0.5442650096588832 0.8280788146956293
vn -0.08165648343712721 0.6033559253967714 0.793280433391173
vn -0.09276871198390421 0.6350214135802427 0.766904016400617
vn -0.1980022104212991 0.626747532987124 0.7536462396660871
vn -0.3669303952952882 0.5055404935180556 0.780891089987563
vn -0.3042207145235672 0.5867153280099251 0.7504764358279186
vn -0.28876410492983423 0.2676409045692148 0.9192299156932633
vn -0.3280733973251061 0.25360939793223614 0.9099725925806842
vn -0.2566817047018006 0.33976360622366386 0.9048067165739149
vn -0.3782160051350293 0.3254282044183305 0.8666309117662264
vn -0.20861460562658007 0.392406710583668 0.8958219241613657
vn -0.4048011145348842 0.4147186148909841 0.8149506292618094
vn -0.12622539679449535 0.4571104883916402 0.8804073776419802
vn -0.15222530573926404 0.42342711596423127 0.8930492336701269
vn -0.11264119841914555 0.514710992776327 0.849932088071692
vn -0.07039450809925257 0.5705882845933404 0.8182136779071184
vn 0 0.6140288096837255 0.7892836124476342
vn 0 0.6471465903073879 0.7623655885817002
vn -0.10371099373517736 0.6655274597977866 0.7391327553515453
vn -0.21853019310726393 0.6520156794345487 0.7260303771000259
vn -0.40072230195518427 0.5161196025182249 0.7569955036934949
vn -0.33223889317646776 0.6047738875791357 0.7237857851348662
vn -0.2617520894655191 0.2028691918353214 0.9435729620249399
vn -0.297381787848912 0.18002309264421498 0.9376330616880983
vn -0.24892010732055378 0.28118550826945476 0.9268082272567353
vn -0.36677598602105793 0.2391170908865243 0.8990541657343267
vn -0.21511760476788705 0.3433114076091865 0.9142547202636288
vn -0.4174272138589072 0.3194495106059713 0.8507094282442128
vn -0.1679213994203152 0.3857497986683452 0.9071931968682604
vn -0.44207949193420454 0.4169317923930273 0.7941873855099522
vn -0.09727319448805495 0.4331897754534816 0.8960382492263659
vn -0.11592280524778262 0.40669331841085615 0.9061801410224406
vn -0.09068322770583982 0.4842149877500307 0.8702369779842087
vn -0.05900327914542104 0.5367779922255306 0.8416578878097772
vn 0 0.5797900907637059 0.8147658870204456
vn 0.09276871198390421 0.6350214135802427 0.766904016400617
vn 0.08165648343712721 0.6033559253967714 0.793280433391173
vn 0 0.679083205201801 0.7340613056229355
vn -0.11446349696584573 0.6948186815820141 0.710017681179125
vn -0.23865770086522722 0.6760928024511 0.6970947025272403
vn -0.41617412580105273 0.5207146322821262 0.7454229462131008
vn -0.3450193050890451 0.6127696090383701 0.7109677104867952
vn -0.2170210111646972 0.14498570745882375 0.9653398496621367
vn -0.24655920898300768 0.11426510416307409 0.9623679350624038
vn -0.2256384944820637 0.2253481944891627 0.947789776822024
vn -0.3324625921433089 0.1568518962933064 0.9299817780228522
vn -0.20861460464267112 0.2942180065477553 0.9326927207568668
vn -0.40480109460679664 0.2241906970130859 0.8864956881891339
vn -0.17315350093725826 0.3462316018741081 0.9220312049908398
vn -0.4558678331949702 0.31288872278364693 0.8332377606739513
vn -0.12691560431846596 0.37838621287507523 0.9169058311988952
vn -0.4591546127233833 0.41770231157472104 0.7840292217258067
vn -0.09234382748381549 0.40978778883410255 0.9074946752725862
vn -0.06858488025368126 0.4531986016762875 0.8887672032873658
vn -0.047503538171173386 0.5019863806741541 0.8635699667536401
vn 0 0.5444923185103078 0.8387658285142936
vn 0.07039450809925257 0.5705882845933404 0.8182136779071184
vn 0.17711089837213742 0.6003341944822053 0.7798913928318586
vn 0.1558945091229945 0.572823333521797 0.8047175470923178
vn 0.10371099373517736 0.6655274597977866 0.7391327553515453
vn 0 0.7097809054968768 0.704422505455379
vn -0.125006602082085 0.7228422120395154 0.679612011319482
vn -0.24781470371228664 0.6868063102884204 0.6832898102357431
vn -0.15589449477327763 0.09842817669996821 0.9828574670474374
vn -0.1771109097733752 0.06137630338688117 0.9822752542041405
vn -0.18708269693298687 0.17544569712376235 0.966549984154486
vn -0.27564348868823835 0.08334030657990928 0.9576403607006879
vn -0.18910719315972818 0.24741859105052308 0.9502749656272247
vn -0.3669303926242571 0.13339849731852932 0.9206339814941479
vn -0.16792140279632461 0.3067142051075826 0.9368718156013331
vn -0.4420794797171575 0.20885809041747913 0.872321059977444
vn -0.13086680191418806 0.34851840509777676 0.928121113575623
vn -0.47348598204498576 0.3096383882582337 0.8245817687311179
vn -0.08254117665872117 0.39444148403295115 0.9152064629523095
vn -0.09293752807529164 0.3694678923484304 0.9245842808521367
vn -0.12099199840596614 0.2940645961257855 0.9480964875091087
vn -0.06512717000418675 0.42914810002758785 0.900883100057914
vn -0.042051890905383485 0.47093171013922974 0.8811668189716533
vn 0 0.5081996088160814 0.8612393149404999
vn 0.05900327914542104 0.5367779922255306 0.8416578878097772
vn 0.13439150238499964 0.5442650096588832 0.8280788146956293
vn 0.2465591980972016 0.5474142957753793 0.7997162938282616
vn 0.2170210048881573 0.5262429118530373 0.8221741185185597
vn 0.1980022104212991 0.626747532987124 0.7536462396660871
vn 0.11446349696584573 0.6948186815820141 0.710017681179125
vn 0 0.739184113488495 0.6735034122899659
vn -0.12979339750875787 0.7353258858862247 0.6651687872328137
vn -0.0816564839210047 0.06791415326112127 0.9943439477466957
vn -0.09276870594954055 0.026714008833614966 0.9953292565420174
vn -0.13439149993822966 0.13530449993780977 0.9816473995488054
vn -0.19800219737559638 0.024216559679023412 0.9799023870119654
vn -0.1567991008044884 0.2055892010548153 0.9659954049562279
vn -0.30422068940097907 0.052267908178990664 0.9511665668614441
vn -0.15222529778706892 0.26903969608891326 0.9510231861747764
vn -0.4007222851548886 0.10970579593585159 0.909607766302776
vn -0.1269155943331928 0.31865078577217715 0.9393370580584087
vn -0.4591545960473586 0.20159179826459278 0.8651807925520739
vn -0.09521809719619509 0.35220288962898605 0.9310674725836621
vn -0.04768777942772832 0.40150379518179996 0.9146149890242687
vn -0.09451373942479659 0.40547589753230434 0.9092064944666387
vn -0.12608380133898667 0.31948320339285236 0.9391663099737727
vn -0.07876518837491758 0.41570819142311344 0.9060809813057483
vn -0.033747009740650355 0.44972899654378073 0.8925272931408254
vn 0 0.4880635098935695 0.8728081176927547
vn 0.047503538171173386 0.5019863806741541 0.8635699667536401
vn 0.11264119841914555 0.514710992776327 0.849932088071692
vn 0.18708270721333872 0.5041080194368679 0.8431341325086814
vn 0.2973817892362336 0.48162868256739705 0.8243772701615747
vn 0.2617520992595478 0.4683389986751484 0.8438864976127886
vn 0.2756435014232729 0.5675840029306943 0.77580220400582
vn 0.21853019310726393 0.6520156794345487 0.7260303771000259
vn 0.125006602082085 0.7228422120395154 0.679612011319482
vn 0 0.752284311706879 0.6588386102526984
vn 0 0.05724841796217091 0.9983599644621314
vn 0 0.014598580511668529 0.9998934350454776
vn -0.07039451143767274 0.10899410222599507 0.9915467202504381
vn -0.10371100181336079 -0.014531270254075829 0.9945013173886056
vn -0.11264119941273554 0.17193779910358747 0.9786466948977424
vn -0.21853020278479676 -0.012983180165448827 0.9757438124341999
vn -0.12622540584664102 0.2353607109016846 0.9636765446365831
vn -0.33223890605853257 0.021104800384855744 0.9429591171953027
vn -0.11506040252499077 0.2901715063677889 0.950032420848381
vn -0.41617409701488234 0.09862943929255433 0.9039199935163972
vn -0.10470550022795122 0.3248460007072123 0.9399531020463439
vn 0 0.3590851074070189 0.933304819251722
vn 0.016418050933420216 0.3629649206357498 0.9316581529678317
vn -0.05346643871109864 0.3867351906770764 0.9206395778063843
vn -0.08627136189677342 0.4169118091662772 0.9048435198940078
vn -0.11794430065136037 0.30365730167698063 0.9454530052213682
vn -0.08477500342980089 0.4064291164431833 0.9097409368060176
vn 0.042051890905383485 0.47093171013922974 0.8811668189716533
vn 0.09068322770583982 0.4842149877500307 0.8702369779842087
vn 0.15679909530903294 0.4810498856084042 0.8625572741948272
vn 0.22563850367428498 0.4541915073960294 0.8618569140344308
vn 0.3280734030697418 0.40802380381782755 0.8519885079719501
vn 0.2887641009637026 0.4035536013467934 0.8681934028974524
vn 0.3324626015833848 0.49403660235289615 0.8033657038261057
vn 0.3042207145235672 0.5867153280099251 0.7504764358279186
vn 0.23865770086522722 0.6760928024511 0.6970947025272403
vn 0.12979339750875787 0.7353258858862247 0.6651687872328137
vn 0.09276870594954055 0.026714008833614966 0.9953292565420174
vn 0.0816564839210047 0.06791415326112127 0.9943439477466957
vn 0 0.09979728894453446 0.9950077894767061
vn 0 -0.028074590870350344 0.9996058309891267
vn -0.059003281537594904 0.14987880390576366 0.9869422257192024
vn -0.11446350003260171 -0.05574658001587807 0.9918621002825041
vn -0.09068322730014441 0.20826119379956817 0.973860271005861
vn -0.23865769966681197 -0.05015505992997915 0.9698076986460595
vn -0.09575962205433722 0.26463570567724626 0.9595822205859781
vn -0.3450192819802789 0.006648321652770208 0.9385720509801121
vn -0.08254118139808286 0.3054452051736319 0.9486254160678212
vn 0.08567261856248054 0.3703290937861676 0.9249413844802079
vn 0.09521809719619509 0.35220288962898605 0.9310674725836621
vn 0.0580185308926554 0.4057182062422562 0.9121549140341372
vn 0.06858488025368126 0.4531986016762875 0.8887672032873658
vn 0.12622539679449535 0.4571104883916402 0.8804073776419802
vn 0.18910719696727654 0.4392117929563339 0.8782547859153754
vn 0.24892008991743472 0.398344883864949 0.8828137642414263
vn 0.29776959797824415 0.3355948977214228 0.8937053939320397
vn 0.33830580258513 0.33081340252787733 0.8809720067318597
vn 0.36677601602007076 0.4117476179843436 0.83422973643755
vn 0.3669303952952882 0.5055404935180556 0.780891089987563
vn 0.33223889317646776 0.6047738875791357 0.7237857851348662
vn 0.24781470371228664 0.6868063102884204 0.6832898102357431
vn 0.1771109097733752 0.06137630338688117 0.9822752542041405
vn 0.15589449477327763 0.09842817669996821 0.9828574670474374
vn 0.07039451143767274 0.10899410222599507 0.9915467202504381
vn 0.10371100181336079 -0.014531270254075829 0.9945013173886056
vn 0 0.14216769803111579 0.9898425862916452
vn 0 -0.07069342927366853 0.997498089751318
vn -0.04750353842943087 0.190493893701862 0.9805383675812931
vn -0.12500659740051018 -0.09685688798587858 0.9874168794668429
vn -0.06858488032187077 0.2438082011441985 0.9673953045400131
vn -0.2478146948806327 -0.06730695860956998 0.9664665800346892
vn 0 0.2870413020384336 0.9579182068026897
vn -0.005920368924847322 0.2938464962699364 0.9558342878667179
vn 0.06137847026442732 0.3730609016072 0.92577440398837
vn 0.08860322593144837 0.38055138252554627 0.9205053577315213
vn 0.12691560431846596 0.37838621287507523 0.9169058311988952
vn 0.13086680191418806 0.34851840509777676 0.928121113575623
vn 0.07547460125081001 0.40723420674892746 0.9101999150843748
vn 0.033747009740650355 0.44972899654378073 0.8925272931408254
vn 0.0961977417101117 0.433444407705361 0.8960312159287884
vn 0.15222530573926404 0.42342711596423127 0.8930492336701269
vn 0.20861460562658007 0.392406710583668 0.8958219241613657
vn 0.2566817047018006 0.33976360622366386 0.9048067165739149
vn 0.28876410492983423 0.2676409045692148 0.9192299156932633
vn 0.3280733973251061 0.25360939793223614 0.9099725925806842
vn 0.3782160051350293 0.3254282044183305 0.8666309117662264
vn 0.4048011145348842 0.4147186148909841 0.8149506292618094
vn 0.40072230195518427 0.5161196025182249 0.7569955036934949
vn 0.3450193050890451 0.6127696090383701 0.7109677104867952
vn 0.24655920898300768 0.11426510416307409 0.9623679350624038
vn 0.2170210111646972 0.14498570745882375 0.9653398496621367
vn 0.13439149993822966 0.13530449993780977 0.9816473995488054
vn 0.19800219737559638 0.024216559679023412 0.9799023870119654
vn 0.059003281537594904 0.14987880390576366 0.9869422257192024
vn 0.11446350003260171 -0.05574658001587807 0.9918621002825041
vn 0 0.18428240674449187 0.9828733359718625
vn 0 -0.11318040615251444 0.9935744540109473
vn -0.042051890815554764 0.225455404372484 0.9733455188770721
vn -0.12979340348323057 -0.11576170310666582 0.9847603264277474
vn -0.04471775001924938 0.26846800011556554 0.962250100414214
vn 0.11506040252499077 0.2901715063677889 0.950032420848381
vn 0.09575962205433722 0.26463570567724626 0.9595822205859781
vn 0.08490438198156963 0.30952950722405886 0.9470917221040205
vn -0.05346644153433789 0.31482290903454 0.947643327194723
vn 0.1160351972523121 0.40673159036868534 0.9061485785426013
vn 0.09175205906966148 0.3260039966944165 0.9409053904595001
vn 0.1269155943331928 0.31865078577217715 0.9393370580584087
vn 0.1679213994203152 0.3857497986683452 0.9071931968682604
vn 0.17315350093725826 0.3462316018741081 0.9220312049908398
vn 0.06512717000418675 0.42914810002758785 0.900883100057914
vn 0.21511760476788705 0.3433114076091865 0.9142547202636288
vn 0.24892010732055378 0.28118550826945476 0.9268082272567353
vn 0.2617520894655191 0.2028691918353214 0.9435729620249399
vn 0.297381787848912 0.18002309264421498 0.9376330616880983
vn 0.36677598602105793 0.2391170908865243 0.8990541657343267
vn 0.4174272138589072 0.3194495106059713 0.8507094282442128
vn 0.44207949193420454 0.4169317923930273 0.7941873855099522
vn 0.41617412580105273 0.5207146322821262 0.7454229462131008
vn 0.18708269693298687 0.17544569712376235 0.966549984154486
vn 0.27564348868823835 0.08334030657990928 0.9576403607006879
vn 0.11264119941273554 0.17193779910358747 0.9786466948977424
vn 0.21853020278479676 -0.012983180165448827 0.9757438124341999
vn 0.04750353842943087 0.190493893701862 0.9805383675812931
vn 0.12500659740051018 -0.09685688798587858 0.9874168794668429
vn 0 0.20705618986819715 0.9783290521277926
vn 0 -0.13269519890389478 0.9911568918127222
vn -0.03374701038140416 0.2488952028129798 0.9679423109395534
vn 0.04471775001924938 0.26846800011556554 0.962250100414214
vn 0.15222529778706892 0.26903969608891326 0.9510231861747764
vn 0.12622540584664102 0.2353607109016846 0.9636765446365831
vn 0.16792140279632461 0.3067142051075826 0.9368718156013331
vn 0.09599200689274406 0.3635677882313306 0.9266088700057223
vn 0.07876518837491758 0.41570819142311344 0.9060809813057483
vn 0.20861460464267112 0.2942180065477553 0.9326927207568668
vn 0.2256384944820637 0.2253481944891627 0.947789776822024
vn 0.3324625921433089 0.1568518962933064 0.9299817780228522
vn 0.40480109460679664 0.2241906970130859 0.8864956881891339
vn 0.4558678331949702 0.31288872278364693 0.8332377606739513
vn 0.4591546127233833 0.41770231157472104 0.7840292217258067
vn 0.1567991008044884 0.2055892010548153 0.9659954049562279
vn 0.30422068940097907 0.052267908178990664 0.9511665668614441
vn 0.09068322730014441 0.20826119379956817 0.973860271005861
vn 0.23865769966681197 -0.05015505992997915 0.9698076986460595
vn 0.042051890815554764 0.225455404372484 0.9733455188770721
vn 0.12979340348323057 -0.11576170310666582 0.9847603264277474
vn 0.06858488032187077 0.2438082011441985 0.9673953045400131
vn 0.18910719315972818 0.24741859105052308 0.9502749656272247
vn 0.06137847001351459 0.3284972000723298 0.9425085002075259
vn 0.08477500342980089 0.4064291164431833 0.9097409368060176
vn 0.06499522709508769 0.43626428050149907 0.8974681598883424
vn 0.058565969164777805 0.4437593936714493 0.8942301872471863
vn 0.3669303926242571 0.13339849731852932 0.9206339814941479
vn 0.4420794797171575 0.20885809041747913 0.872321059977444
vn 0.47348598204498576 0.3096383882582337 0.8245817687311179
vn 0.33223890605853257 0.021104800384855744 0.9429591171953027
vn 0.2478146948806327 -0.06730695860956998 0.9664665800346892
vn 0.03374701038140416 0.2488952028129798 0.9679423109395534
vn 0.4007222851548886 0.10970579593585159 0.909607766302776
vn 0.4591545960473586 0.20159179826459278 0.8651807925520739
vn 0.3450192819802789 0.006648321652770208 0.9385720509801121
vn 0.41617409701488234 0.09862943929255433 0.9039199935163972
usemtl material_0_0
f 1//1 2//2 3//3
f 2//2 1//1 4//4
f 3//3 5//5 6//6
f 5//5 3//3 2//2
f 7//7 3//3 8//8
f 3//3 7//7 1//1
f 9//9 4//4 1//1
f 4//4 9//9 10//10
f 4//4 11//11 2//2
f 11//11 4//4 12//12
f 13//13 5//5 14//14
f 5//5 13//13 6//6
f 8//8 6//6 15//15
f 6//6 8//8 3//3
f 2//2 16//16 5//5
f 16//16 2//2 11//11
f 17//17 8//8 18//18
f 8//8 17//17 7//7
f 19//19 1//1 7//7
f 1//1 19//19 9//9
f 20//20 10//10 9//9
f 10//10 20//20 21//21
f 10//10 12//12 4//4
f 12//12 10//10 22//22
f 12//12 23//23 11//11
f 23//23 12//12 24//24
f 25//25 14//14 26//26
f 14//14 25//25 13//13
f 27//27 6//6 13//13
f 6//6 27//27 15//15
f 14//14 16//16 28//28
f 16//16 14//14 5//5
f 18//18 15//15 29//29
f 15//15 18//18 8//8
f 11//11 30//30 16//16
f 30//30 11//11 23//23
f 31//31 18//18 32//32
f 18//18 31//31 17//17
f 33//33 7//7 17//17
f 7//7 33//33 19//19
f 34//34 9//9 19//19
f 9//9 34//34 20//20
f 35//35 21//21 20//20
f 21//21 35//35 36//36
f 21//21 22//22 10//10
f 22//22 21//21 37//37
f 22//22 24//24 12//12
f 24//24 22//22 38//38
f 24//24 39//39 23//23
f 39//39 24//24 40//40
f 41//41 26//26 42//42
f 26//26 41//41 25//25
f 43//43 13//13 25//25
f 13//13 43//43 27//27
f 26//26 28//28 44//44
f 28//28 26//26 14//14
f 45//45 15//15 27//27
f 15//15 45//45 29//29
f 28//28 30//30 46//46
f 30//30 28//28 16//16
f 32//32 29//29 47//47
f 29//29 32//32 18//18
f 23//23 48//48 30//30
f 48//48 23//23 39//39
f 49//49 32//32 50//50
f 32//32 49//49 31//31
f 51//51 17//17 31//31
f 17//17 51//51 33//33
f 52//52 19//19 33//33
f 19//19 52//52 34//34
f 53//53 20//20 34//34
f 20//20 53//53 35//35
f 54//54 35//35 55//55
f 35//35 54//54 36//36
f 36//36 37//37 21//21
f 37//37 36//36 56//56
f 37//37 38//38 22//22
f 38//38 37//37 57//57
f 38//38 40//40 24//24
f 40//40 38//38 58//58
f 40//40 59//59 39//39
f 59//59 40//40 60//60
f 61//61 42//42 62//62
f 42//42 61//61 41//41
f 63//63 25//25 41//41
f 25//25 63//63 43//43
f 42//42 44//44 64//64
f 44//44 42//42 26//26
f 65//65 27//27 43//43
f 27//27 65//65 45//45
f 44//44 46//46 66//66
f 46//46 44//44 28//28
f 67//67 29//29 45//45
f 29//29 67//67 47//47
f 46//46 48//48 68//68
f 48//48 46//46 30//30
f 50//50 47//47 69//69
f 47//47 50//50 32//32
f 39//39 70//70 48//48
f 70//70 39//39 59//59
f 49//49 50//50 71//71
f 72//72 31//31 49//49
f 31//31 72//72 51//51
f 73//73 33//33 51//51
f 33//33 73//73 52//52
f 74//74 34//34 52//52
f 34//34 74//74 53//53
f 55//55 53//53 75//75
f 53//53 55//55 35//35
f 76//76 55//55 77//77
f 55//55 76//76 54//54
f 78//78 36//36 54//54
f 36//36 78//78 56//56
f 56//56 57//57 37//37
f 57//57 56//56 79//79
f 57//57 58//58 38//38
f 58//58 57//57 80//80
f 58//58 60//60 40//40
f 60//60 58//58 81//81
f 82//82 62//62 83//83
f 62//62 82//82 61//61
f 84//84 41//41 61//61
f 41//41 84//84 63//63
f 62//62 64//64 85//85
f 64//64 62//62 42//42
f 86//86 43//43 63//63
f 43//43 86//86 65//65
f 64//64 66//66 87//87
f 66//66 64//64 44//44
f 88//88 45//45 65//65
f 45//45 88//88 67//67
f 66//66 68//68 89//89
f 68//68 66//66 46//46
f 90//90 47//47 67//67
f 47//47 90//90 69//69
f 68//68 70//70 91//91
f 70//70 68//68 48//48
f 92//92 69//69 93//93
f 69//69 92//92 50//50
f 50//50 94//94 71//71
f 72//72 49//49 95//95
f 96//96 51//51 72//72
f 51//51 96//96 73//73
f 97//97 52//52 73//73
f 52//52 97//97 74//74
f 75//75 74//74 98//98
f 74//74 75//75 53//53
f 77//77 75//75 99//99
f 75//75 77//77 55//55
f 100//100 77//77 101//101
f 77//77 100//100 76//76
f 102//102 54//54 76//76
f 54//54 102//102 78//78
f 103//103 56//56 78//78
f 56//56 103//103 79//79
f 57//57 104//104 80//80
f 104//104 57//57 79//79
f 58//58 105//105 81//81
f 105//105 58//58 80//80
f 106//106 83//83 107//107
f 83//83 106//106 82//82
f 108//108 61//61 82//82
f 61//61 108//108 84//84
f 83//83 85//85 109//109
f 85//85 83//83 62//62
f 110//110 63//63 84//84
f 63//63 110//110 86//86
f 85//85 87//87 111//111
f 87//87 85//85 64//64
f 112//112 65//65 86//86
f 65//65 112//112 88//88
f 87//87 89//89 113//113
f 89//89 87//87 66//66
f 114//114 67//67 88//88
f 67//67 114//114 90//90
f 89//89 91//91 115//115
f 91//91 89//89 68//68
f 116//116 69//69 90//90
f 69//69 116//116 93//93
f 117//117 50//50 92//92
f 50//50 117//117 118//118
f 50//50 119//119 94//94
f 49//49 120//120 95//95
f 72//72 95//95 121//121
f 96//96 72//72 121//121
f 122//122 73//73 96//96
f 73//73 122//122 97//97
f 98//98 97//97 123//123
f 97//97 98//98 74//74
f 99//99 98//98 124//124
f 98//98 99//99 75//75
f 101//101 99//99 125//125
f 99//99 101//101 77//77
f 126//126 101//101 127//127
f 101//101 126//126 100//100
f 128//128 76//76 100//100
f 76//76 128//128 102//102
f 129//129 78//78 102//102
f 78//78 129//129 103//103
f 79//79 130//130 104//104
f 130//130 79//79 103//103
f 80//80 131//131 105//105
f 131//131 80//80 104//104
f 132//132 107//107 133//133
f 107//107 132//132 106//106
f 134//134 82//82 106//106
f 82//82 134//134 108//108
f 107//107 109//109 135//135
f 109//109 107//107 83//83
f 136//136 84//84 108//108
f 84//84 136//136 110//110
f 109//109 111//111 137//137
f 111//111 109//109 85//85
f 138//138 86//86 110//110
f 86//86 138//138 112//112
f 111//111 113//113 139//139
f 113//113 111//111 87//87
f 140//140 88//88 112//112
f 88//88 140//140 114//114
f 113//113 115//115 141//141
f 115//115 113//113 89//89
f 142//142 90//90 114//114
f 90//90 142//142 116//116
f 143//143 93//93 116//116
f 93//93 143//143 144//144
f 117//117 92//92 145//145
f 146//146 118//118 117//117
f 50//50 118//118 119//119
f 94//94 119//119 147//147
f 95//95 120//120 148//148
f 123//123 122//122 149//149
f 122//122 123//123 97//97
f 124//124 123//123 150//150
f 123//123 124//124 98//98
f 125//125 124//124 151//151
f 124//124 125//125 99//99
f 127//127 125//125 152//152
f 125//125 127//127 101//101
f 153//153 127//127 154//154
f 127//127 153//153 126//126
f 155//155 100//100 126//126
f 100//100 155//155 128//128
f 156//156 102//102 128//128
f 102//102 156//156 129//129
f 157//157 103//103 129//129
f 103//103 157//157 130//130
f 130//130 131//131 104//104
f 131//131 130//130 158//158
f 159//159 132//132 133//133
f 132//132 159//159 160//160
f 161//161 106//106 132//132
f 106//106 161//161 134//134
f 133//133 135//135 162//162
f 135//135 133//133 107//107
f 163//163 108//108 134//134
f 108//108 163//163 136//136
f 135//135 137//137 164//164
f 137//137 135//135 109//109
f 165//165 110//110 136//136
f 110//110 165//165 138//138
f 137//137 139//139 166//166
f 139//139 137//137 111//111
f 167//167 112//112 138//138
f 112//112 167//167 140//140
f 139//139 141//141 168//168
f 141//141 139//139 113//113
f 169//169 114//114 140//140
f 114//114 169//169 142//142
f 170//170 143//143 171//171
f 143//143 170//170 144//144
f 119//119 118//118 146//146
f 172//172 146//146 117//117
f 150//150 149//149 173//173
f 149//149 150//150 123//123
f 151//151 150//150 174//174
f 150//150 151//151 124//124
f 152//152 151//151 175//175
f 151//151 152//152 125//125
f 154//154 152//152 176//176
f 152//152 154//154 127//127
f 153//153 177//177 178//178
f 177//177 153//153 154//154
f 179//179 126//126 153//153
f 126//126 179//179 155//155
f 180//180 128//128 155//155
f 128//128 180//180 156//156
f 181//181 129//129 156//156
f 129//129 181//181 157//157
f 157//157 158//158 130//130
f 158//158 157//157 182//182
f 183//183 160//160 159//159
f 160//160 183//183 184//184
f 160//160 161//161 132//132
f 161//161 160//160 185//185
f 186//186 133//133 162//162
f 133//133 186//186 159//159
f 187//187 134//134 161//161
f 134//134 187//187 163//163
f 162//162 164//164 188//188
f 164//164 162//162 135//135
f 189//189 136//136 163//163
f 136//136 189//189 165//165
f 164//164 166//166 190//190
f 166//166 164//164 137//137
f 191//191 138//138 165//165
f 138//138 191//191 167//167
f 166//166 168//168 192//192
f 168//168 166//166 139//139
f 193//193 140//140 167//167
f 140//140 193//193 169//169
f 169//169 193//193 194//194
f 170//170 195//195 144//144
f 195//195 170//170 196//196
f 197//197 171//171 198//198
f 171//171 197//197 170//170
f 172//172 117//117 199//199
f 149//149 200//200 173//173
f 174//174 173//173 201//201
f 173//173 174//174 150//150
f 175//175 174//174 202//202
f 174//174 175//175 151//151
f 176//176 175//175 203//203
f 175//175 176//176 152//152
f 154//154 204//204 177//177
f 204//204 154//154 176//176
f 178//178 205//205 206//206
f 205//205 178//178 177//177
f 179//179 178//178 207//207
f 178//178 179//179 153//153
f 208//208 155//155 179//179
f 155//155 208//208 180//180
f 209//209 156//156 180//180
f 156//156 209//209 181//181
f 210//210 157//157 181//181
f 157//157 210//210 182//182
f 211//211 184//184 183//183
f 184//184 211//211 212//212
f 184//184 185//185 160//160
f 185//185 184//184 213//213
f 214//214 159//159 186//186
f 159//159 214//214 183//183
f 185//185 187//187 161//161
f 187//187 185//185 215//215
f 216//216 162//162 188//188
f 162//162 216//216 186//186
f 217//217 163//163 187//187
f 163//163 217//217 189//189
f 188//188 190//190 218//218
f 190//190 188//188 164//164
f 219//219 165//165 189//189
f 165//165 219//219 191//191
f 190//190 192//192 220//220
f 192//192 190//190 166//166
f 221//221 167//167 191//191
f 193//193 167//167 221//221
f 222//222 193//193 223//223
f 193//193 222//222 224//224
f 193//193 224//224 194//194
f 225//225 169//169 194//194
f 226//226 196//196 170//170
f 226//226 170//170 197//197
f 198//198 227//227 228//228
f 227//227 198//198 171//171
f 229//229 198//198 230//230
f 198//198 229//229 197//197
f 226//226 172//172 199//199
f 173//173 200//200 231//231
f 173//173 231//231 201//201
f 202//202 201//201 226//226
f 201//201 202//202 174//174
f 203//203 202//202 229//229
f 202//202 203//203 175//175
f 176//176 232//232 204//204
f 232//232 176//176 203//203
f 177//177 233//233 205//205
f 233//233 177//177 204//204
f 206//206 234//234 235//235
f 234//234 206//206 205//205
f 207//207 206//206 236//236
f 206//206 207//207 178//178
f 208//208 207//207 237//237
f 207//207 208//208 179//179
f 238//238 180//180 208//208
f 180//180 238//238 209//209
f 239//239 181//181 209//209
f 181//181 239//239 210//210
f 235//235 212//212 211//211
f 212//212 235//235 234//234
f 212//212 213//213 184//184
f 213//213 212//212 240//240
f 241//241 183//183 214//214
f 183//183 241//241 211//211
f 213//213 215//215 185//185
f 215//215 213//213 242//242
f 243//243 186//186 216//216
f 186//186 243//243 214//214
f 215//215 217//217 187//187
f 217//217 215//215 244//244
f 245//245 188//188 218//218
f 188//188 245//245 216//216
f 246//246 189//189 217//217
f 189//189 246//246 219//219
f 218//218 220//220 247//247
f 220//220 218//218 190//190
f 248//248 191//191 219//219
f 221//221 191//191 248//248
f 193//193 221//221 249//249
f 193//193 249//249 223//223
f 250//250 223//223 251//251
f 223//223 250//250 222//222
f 228//228 224//224 222//222
f 224//224 228//228 227//227
f 226//226 199//199 196//196
f 229//229 226//226 197//197
f 226//226 229//229 202//202
f 230//230 228//228 252//252
f 228//228 230//230 198//198
f 203//203 230//230 232//232
f 230//230 203//203 229//229
f 226//226 253//253 172//172
f 201//201 231//231 254//254
f 201//201 253//253 226//226
f 204//204 255//255 233//233
f 255//255 204//204 232//232
f 205//205 256//256 234//234
f 256//256 205//205 233//233
f 236//236 235//235 257//257
f 235//235 236//236 206//206
f 237//237 236//236 258//258
f 236//236 237//237 207//207
f 238//238 237//237 259//259
f 237//237 238//238 208//208
f 260//260 209//209 238//238
f 209//209 260//260 239//239
f 234//234 240//240 212//212
f 240//240 234//234 256//256
f 257//257 211//211 241//241
f 211//211 257//257 235//235
f 240//240 242//242 213//213
f 242//242 240//240 261//261
f 262//262 214//214 243//243
f 214//214 262//262 241//241
f 242//242 244//244 215//215
f 244//244 242//242 263//263
f 264//264 216//216 245//245
f 216//216 264//264 243//243
f 244//244 246//246 217//217
f 246//246 244//244 265//265
f 266//266 218//218 247//247
f 218//218 266//266 245//245
f 249//249 267//267 223//223
f 252//252 222//222 250//250
f 222//222 252//252 228//228
f 251//251 267//267 263//263
f 267//267 251//251 223//223
f 268//268 251//251 261//261
f 251//251 268//268 250//250
f 227//227 269//269 224//224
f 269//269 227//227 270//269
f 232//232 252//252 255//255
f 252//252 232//232 230//230
f 231//231 271//270 254//254
f 201//201 272//271 273//272
f 201//201 273//272 253//253
f 233//233 268//268 256//256
f 268//268 233//233 255//255
f 258//258 257//257 274//273
f 257//257 258//258 236//236
f 259//259 258//258 275//274
f 258//258 259//259 237//237
f 260//260 259//259 276//275
f 259//259 260//260 238//238
f 256//256 261//261 240//240
f 261//261 256//256 268//268
f 274//273 241//241 262//262
f 241//241 274//273 257//257
f 261//261 263//263 242//242
f 263//263 261//261 251//251
f 277//276 243//243 264//264
f 243//243 277//276 262//262
f 263//263 265//265 244//244
f 265//265 263//263 267//267
f 278//277 245//245 266//266
f 245//245 278//277 264//264
f 249//249 279//278 267//267
f 255//255 250//250 268//268
f 250//250 255//255 252//252
f 275//274 274//273 280//279
f 274//273 275//274 258//258
f 276//275 275//274 281//280
f 275//274 276//275 259//259
f 280//279 262//262 277//276
f 262//262 280//279 274//273
f 282//281 264//264 278//277
f 264//264 282//281 277//276
f 279//278 265//265 267//267
f 281//280 280//279 283//282
f 280//279 281//280 275//274
f 283//282 277//276 282//281
f 277//276 283//282 280//279
