# SSTK version 0.8.0
# 115
mtllib original-115.mtl
o #ID847
v -0.098862 0.502621 0.451668
v -0.105054 0.502790 0.451524
v -0.103601 0.502616 0.451589
v -0.098852 0.502655 0.451660
v -0.105054 0.503398 0.451381
v -0.105054 0.503398 0.451381
v -0.098852 0.502655 0.451660
v -0.105054 0.502790 0.451524
v -0.098862 0.502621 0.451668
v -0.103601 0.502616 0.451589
v -0.111247 0.502621 0.451668
v -0.106507 0.502616 0.451589
v -0.111256 0.502655 0.451660
v -0.111256 0.502655 0.451660
v -0.111247 0.502621 0.451668
v -0.106507 0.502616 0.451589
vn -0.01657023011839112 0.22732780162421343 0.973677306956738
vn 0 0.2273590024325138 0.9738110104188042
vn 0 -0.2273590024325138 -0.9738110104188042
vn 0.01657023011839112 -0.22732780162421343 -0.973677306956738
vn 0.01657023011839112 0.22732780162421343 0.973677306956738
vn -0.01657023011839112 -0.22732780162421343 -0.973677306956738
usemtl material_0_0
f 1//1 2//2 3//1
f 2//2 1//1 4//1
f 2//2 4//1 5//2
f 6//3 7//4 8//3
f 7//4 9//4 8//3
f 10//4 8//3 9//4
f 2//2 11//5 12//5
f 11//5 2//2 13//5
f 13//5 2//2 5//2
f 6//3 8//3 14//6
f 14//6 8//3 15//6
f 16//6 15//6 8//3
