# SSTK version 0.8.0
# 77
mtllib original-77.mtl
o #ID583
v 0.455166 -0.599152 0.429489
v 0.444350 -0.598239 0.429489
v 0.441167 -0.598448 0.429489
v 0.458180 -0.597139 0.429489
v 0.447337 -0.597645 0.429489
v 0.450221 -0.596666 0.429489
v 0.460905 -0.594749 0.429489
v 0.452953 -0.595319 0.429489
v 0.455485 -0.593627 0.429489
v 0.463295 -0.592024 0.429489
v 0.457775 -0.591619 0.429489
v 0.465308 -0.589010 0.429489
v 0.459783 -0.589329 0.429489
v 0.461475 -0.586797 0.429489
v 0.466911 -0.585759 0.429489
v 0.462822 -0.584065 0.429489
v 0.468077 -0.582327 0.429489
v 0.463801 -0.581181 0.429489
v 0.468784 -0.578772 0.429489
v 0.464395 -0.578194 0.429489
v 0.469021 -0.575155 0.429489
v 0.464604 -0.575011 0.429489
v 0.469021 -0.479696 0.429489
v 0.464604 -0.479841 0.429489
v 0.464395 -0.476657 0.429489
v 0.468784 -0.476079 0.429489
v 0.463801 -0.473670 0.429489
v 0.468077 -0.472524 0.429489
v 0.462822 -0.470786 0.429489
v 0.466911 -0.469092 0.429489
v 0.461475 -0.468055 0.429489
v 0.465308 -0.465841 0.429489
v 0.459783 -0.465522 0.429489
v 0.463295 -0.462828 0.429489
v 0.457775 -0.463233 0.429489
v 0.455485 -0.461225 0.429489
v 0.460905 -0.460103 0.429489
v 0.452953 -0.459533 0.429489
v 0.458180 -0.457713 0.429489
v 0.450221 -0.458186 0.429489
v 0.447337 -0.457207 0.429489
v 0.455166 -0.455699 0.429489
v 0.444350 -0.456612 0.429489
v 0.441167 -0.456404 0.429489
v 0.256190 -0.456404 0.429489
v 0.242191 -0.455699 0.429489
v 0.245442 -0.454096 0.429489
v 0.451915 -0.454096 0.429489
v 0.448483 -0.452931 0.429489
v 0.248874 -0.452931 0.429489
v 0.444928 -0.452224 0.429489
v 0.252429 -0.452224 0.429489
v 0.441311 -0.451987 0.429489
v 0.256046 -0.451987 0.429489
v 0.444928 -0.602628 0.429489
v 0.256046 -0.602865 0.429489
v 0.441311 -0.602865 0.429489
v 0.252429 -0.602628 0.429489
v 0.448483 -0.601921 0.429489
v 0.248874 -0.601921 0.429489
v 0.451915 -0.600756 0.429489
v 0.245442 -0.600756 0.429489
v 0.242191 -0.599152 0.429489
v 0.256190 -0.598448 0.429489
v 0.253007 -0.598239 0.429489
v 0.239177 -0.597139 0.429489
v 0.250019 -0.597645 0.429489
v 0.247136 -0.596666 0.429489
v 0.236452 -0.594749 0.429489
v 0.244404 -0.595319 0.429489
v 0.241872 -0.593627 0.429489
v 0.234062 -0.592024 0.429489
v 0.239582 -0.591619 0.429489
v 0.232048 -0.589010 0.429489
v 0.237574 -0.589329 0.429489
v 0.235882 -0.586797 0.429489
v 0.230445 -0.585759 0.429489
v 0.234535 -0.584065 0.429489
v 0.229280 -0.582327 0.429489
v 0.233556 -0.581181 0.429489
v 0.228573 -0.578772 0.429489
v 0.232962 -0.578194 0.429489
v 0.228336 -0.575155 0.429489
v 0.232753 -0.575011 0.429489
v 0.228336 -0.479696 0.429489
v 0.232753 -0.479841 0.429489
v 0.232962 -0.476657 0.429489
v 0.228573 -0.476079 0.429489
v 0.233556 -0.473670 0.429489
v 0.229280 -0.472524 0.429489
v 0.234535 -0.470786 0.429489
v 0.230445 -0.469092 0.429489
v 0.235882 -0.468055 0.429489
v 0.232048 -0.465841 0.429489
v 0.237574 -0.465522 0.429489
v 0.234062 -0.462828 0.429489
v 0.239582 -0.463233 0.429489
v 0.241872 -0.461225 0.429489
v 0.236452 -0.460103 0.429489
v 0.244404 -0.459533 0.429489
v 0.239177 -0.457713 0.429489
v 0.247136 -0.458186 0.429489
v 0.250019 -0.457207 0.429489
v 0.253007 -0.456612 0.429489
vn 0 0 1
usemtl material_0_0
f 1//1 2//1 3//1
f 2//1 1//1 4//1
f 2//1 4//1 5//1
f 5//1 4//1 6//1
f 6//1 4//1 7//1
f 6//1 7//1 8//1
f 8//1 7//1 9//1
f 9//1 7//1 10//1
f 9//1 10//1 11//1
f 11//1 10//1 12//1
f 11//1 12//1 13//1
f 13//1 12//1 14//1
f 14//1 12//1 15//1
f 14//1 15//1 16//1
f 16//1 15//1 17//1
f 16//1 17//1 18//1
f 18//1 17//1 19//1
f 18//1 19//1 20//1
f 20//1 19//1 21//1
f 20//1 21//1 22//1
f 22//1 21//1 23//1
f 22//1 23//1 24//1
f 24//1 23//1 25//1
f 25//1 23//1 26//1
f 25//1 26//1 27//1
f 27//1 26//1 28//1
f 27//1 28//1 29//1
f 29//1 28//1 30//1
f 29//1 30//1 31//1
f 31//1 30//1 32//1
f 31//1 32//1 33//1
f 33//1 32//1 34//1
f 33//1 34//1 35//1
f 35//1 34//1 36//1
f 36//1 34//1 37//1
f 36//1 37//1 38//1
f 38//1 37//1 39//1
f 38//1 39//1 40//1
f 40//1 39//1 41//1
f 41//1 39//1 42//1
f 41//1 42//1 43//1
f 43//1 42//1 44//1
f 44//1 42//1 45//1
f 45//1 42//1 46//1
f 46//1 42//1 47//1
f 47//1 42//1 48//1
f 47//1 48//1 49//1
f 47//1 49//1 50//1
f 50//1 49//1 51//1
f 50//1 51//1 52//1
f 52//1 51//1 53//1
f 52//1 53//1 54//1
f 55//1 56//1 57//1
f 56//1 55//1 58//1
f 58//1 55//1 59//1
f 58//1 59//1 60//1
f 60//1 59//1 61//1
f 60//1 61//1 62//1
f 62//1 61//1 1//1
f 62//1 1//1 63//1
f 63//1 1//1 64//1
f 63//1 64//1 65//1
f 63//1 65//1 66//1
f 64//1 1//1 3//1
f 66//1 65//1 67//1
f 66//1 67//1 68//1
f 66//1 68//1 69//1
f 69//1 68//1 70//1
f 69//1 70//1 71//1
f 69//1 71//1 72//1
f 72//1 71//1 73//1
f 72//1 73//1 74//1
f 74//1 73//1 75//1
f 74//1 75//1 76//1
f 74//1 76//1 77//1
f 77//1 76//1 78//1
f 77//1 78//1 79//1
f 79//1 78//1 80//1
f 79//1 80//1 81//1
f 81//1 80//1 82//1
f 81//1 82//1 83//1
f 83//1 82//1 84//1
f 83//1 84//1 85//1
f 85//1 84//1 86//1
f 85//1 86//1 87//1
f 85//1 87//1 88//1
f 88//1 87//1 89//1
f 88//1 89//1 90//1
f 90//1 89//1 91//1
f 90//1 91//1 92//1
f 92//1 91//1 93//1
f 92//1 93//1 94//1
f 94//1 93//1 95//1
f 94//1 95//1 96//1
f 96//1 95//1 97//1
f 96//1 97//1 98//1
f 96//1 98//1 99//1
f 99//1 98//1 100//1
f 99//1 100//1 101//1
f 101//1 100//1 102//1
f 101//1 102//1 103//1
f 101//1 103//1 46//1
f 46//1 103//1 104//1
f 46//1 104//1 45//1
