# SSTK version 0.8.0
# 46
mtllib original-46.mtl
o #ID365
v -0.050168 0.509997 0.449194
v -0.047006 0.504659 0.450908
v -0.047006 0.504754 0.451163
v -0.050168 0.509902 0.448940
v -0.050168 0.509902 0.448940
v -0.050168 0.509997 0.449194
v -0.047006 0.504659 0.450908
v -0.047006 0.504754 0.451163
v -0.052584 0.515561 0.447105
v -0.052584 0.515465 0.446850
v -0.052584 0.515465 0.446850
v -0.052584 0.515561 0.447105
v -0.043147 0.499818 0.452726
v -0.043147 0.499914 0.452980
v -0.043147 0.499818 0.452726
v -0.043147 0.499914 0.452980
v -0.054217 0.521356 0.444929
v -0.054217 0.521260 0.444674
v -0.054217 0.521260 0.444674
v -0.054217 0.521356 0.444929
v -0.038654 0.495456 0.454363
v -0.038654 0.495552 0.454618
v -0.038654 0.495456 0.454363
v -0.038654 0.495552 0.454618
v -0.055039 0.527292 0.442700
v -0.055039 0.527197 0.442445
v -0.055039 0.527197 0.442445
v -0.055039 0.527292 0.442700
v -0.033596 0.491738 0.456051
v -0.033596 0.491642 0.455796
v -0.033596 0.491642 0.455796
v -0.033596 0.491738 0.456051
v -0.055039 0.533276 0.440452
v -0.055039 0.533180 0.440198
v -0.055039 0.533180 0.440198
v -0.055039 0.533276 0.440452
v -0.028054 0.488436 0.456999
v -0.028054 0.488532 0.457254
v -0.028054 0.488532 0.457254
v -0.028054 0.488436 0.456999
v -0.054217 0.539212 0.438223
v -0.054217 0.539116 0.437969
v -0.054217 0.539116 0.437969
v -0.054217 0.539212 0.438223
v -0.022115 0.485889 0.457957
v -0.022115 0.485984 0.458211
v -0.022115 0.485984 0.458211
v -0.022115 0.485889 0.457957
v -0.052584 0.545007 0.436047
v -0.052584 0.544911 0.435792
v -0.052584 0.544911 0.435792
v -0.052584 0.545007 0.436047
v -0.015872 0.484135 0.458905
v -0.015872 0.484040 0.458651
v -0.015872 0.484040 0.458651
v -0.015872 0.484135 0.458905
v -0.050168 0.550570 0.433958
v -0.050168 0.550475 0.433703
v -0.050168 0.550475 0.433703
v -0.050168 0.550570 0.433958
v -0.009425 0.482919 0.459072
v -0.009425 0.483014 0.459326
v -0.009425 0.483014 0.459326
v -0.009425 0.482919 0.459072
v -0.047006 0.555813 0.431989
v -0.047006 0.555718 0.431735
v -0.047006 0.555718 0.431735
v -0.047006 0.555813 0.431989
v -0.002874 0.482543 0.459213
v -0.002874 0.482639 0.459468
v -0.002874 0.482639 0.459468
v -0.002874 0.482543 0.459213
v -0.043147 0.560654 0.430172
v -0.043147 0.560559 0.429917
v -0.043147 0.560559 0.429917
v -0.043147 0.560654 0.430172
v 0.003677 0.482919 0.459072
v 0.003677 0.483014 0.459326
v 0.003677 0.483014 0.459326
v 0.003677 0.482919 0.459072
v -0.038654 0.565016 0.428534
v -0.038654 0.564920 0.428279
v -0.038654 0.564920 0.428279
v -0.038654 0.565016 0.428534
v 0.010125 0.484040 0.458651
v 0.010125 0.484135 0.458905
v 0.010125 0.484135 0.458905
v 0.010125 0.484040 0.458651
v -0.033596 0.568830 0.427101
v -0.033596 0.568734 0.426847
v -0.033596 0.568734 0.426847
v -0.033596 0.568830 0.427101
v 0.016368 0.485889 0.457957
v 0.016368 0.485984 0.458211
v 0.016368 0.485984 0.458211
v 0.016368 0.485889 0.457957
v -0.028054 0.571940 0.425643
v -0.028054 0.572036 0.425898
v -0.028054 0.572036 0.425898
v -0.028054 0.571940 0.425643
v 0.022307 0.488532 0.457254
v 0.022307 0.488436 0.456999
v 0.022307 0.488436 0.456999
v 0.022307 0.488532 0.457254
v -0.022115 0.574488 0.424686
v -0.022115 0.574584 0.424941
v -0.022115 0.574584 0.424941
v -0.022115 0.574488 0.424686
v 0.027849 0.491642 0.455796
v 0.027849 0.491738 0.456051
v 0.027849 0.491738 0.456051
v 0.027849 0.491642 0.455796
v -0.015872 0.576433 0.424247
v -0.015872 0.576337 0.423992
v -0.015872 0.576337 0.423992
v -0.015872 0.576433 0.424247
v 0.032907 0.495552 0.454618
v 0.032907 0.495456 0.454363
v 0.032907 0.495456 0.454363
v 0.032907 0.495552 0.454618
v -0.009425 0.577554 0.423826
v -0.009425 0.577457 0.423571
v -0.009425 0.577457 0.423571
v -0.009425 0.577554 0.423826
v 0.037400 0.499914 0.452980
v 0.037400 0.499818 0.452726
v 0.037400 0.499818 0.452726
v 0.037400 0.499914 0.452980
v -0.002874 0.577834 0.423430
v -0.002874 0.577929 0.423685
v -0.002874 0.577929 0.423685
v -0.002874 0.577834 0.423430
v 0.041258 0.504754 0.451163
v 0.041258 0.504659 0.450908
v 0.041258 0.504659 0.450908
v 0.041258 0.504754 0.451163
v 0.003677 0.577457 0.423571
v 0.003677 0.577554 0.423826
v 0.003677 0.577554 0.423826
v 0.003677 0.577457 0.423571
v 0.044420 0.509997 0.449194
v 0.044420 0.509902 0.448940
v 0.044420 0.509902 0.448940
v 0.044420 0.509997 0.449194
v 0.010125 0.576433 0.424247
v 0.010125 0.576337 0.423992
v 0.010125 0.576337 0.423992
v 0.010125 0.576433 0.424247
v 0.046837 0.515561 0.447105
v 0.046837 0.515465 0.446850
v 0.046837 0.515465 0.446850
v 0.046837 0.515561 0.447105
v 0.016368 0.574584 0.424941
v 0.016368 0.574488 0.424686
v 0.016368 0.574488 0.424686
v 0.016368 0.574584 0.424941
v 0.048469 0.521356 0.444929
v 0.048469 0.521260 0.444674
v 0.048469 0.521260 0.444674
v 0.048469 0.521356 0.444929
v 0.022307 0.571940 0.425643
v 0.022307 0.572036 0.425898
v 0.022307 0.572036 0.425898
v 0.022307 0.571940 0.425643
v 0.049292 0.527292 0.442700
v 0.049292 0.527197 0.442445
v 0.049292 0.527197 0.442445
v 0.049292 0.527292 0.442700
v 0.027849 0.568734 0.426847
v 0.027849 0.568830 0.427101
v 0.027849 0.568830 0.427101
v 0.027849 0.568734 0.426847
v 0.049292 0.533276 0.440452
v 0.049292 0.533180 0.440198
v 0.049292 0.533180 0.440198
v 0.049292 0.533276 0.440452
v 0.032907 0.565016 0.428534
v 0.032907 0.564920 0.428279
v 0.032907 0.564920 0.428279
v 0.032907 0.565016 0.428534
v 0.048469 0.539212 0.438223
v 0.048469 0.539116 0.437969
v 0.048469 0.539116 0.437969
v 0.048469 0.539212 0.438223
v 0.037400 0.560559 0.429917
v 0.037400 0.560654 0.430172
v 0.037400 0.560559 0.429917
v 0.037400 0.560654 0.430172
v 0.046837 0.545007 0.436047
v 0.046837 0.544911 0.435792
v 0.046837 0.544911 0.435792
v 0.046837 0.545007 0.436047
v 0.041258 0.555718 0.431735
v 0.041258 0.555813 0.431989
v 0.041258 0.555718 0.431735
v 0.041258 0.555813 0.431989
v 0.044420 0.550570 0.433958
v 0.044420 0.550475 0.433703
v 0.044420 0.550475 0.433703
v 0.044420 0.550570 0.433958
vt 1.147735 11.43447
vt 1.153547 11.40179
vt 1.143294 11.46915
vt 1.160638 11.37162
vt 1.140294 11.50527
vt 1.168897 11.34443
vt 1.138781 11.54228
vt 1.178193 11.32066
vt 1.138782 11.57957
vt 1.188379 11.30067
vt 1.140294 11.61658
vt 1.199296 11.28479
vt 1.143294 11.6527
vt 1.21077 11.27327
vt 1.147735 11.68738
vt 1.222621 11.26628
vt 1.153548 11.72006
vt 1.234661 11.26394
vt 1.160639 11.75024
vt 1.246702 11.26628
vt 1.168898 11.77742
vt 1.258553 11.27327
vt 1.178194 11.8012
vt 1.270027 11.2848
vt 1.18838 11.82118
vt 1.280944 11.30068
vt 1.199297 11.83706
vt 1.29113 11.32066
vt 1.210771 11.84859
vt 1.300426 11.34444
vt 1.222622 11.85558
vt 1.308685 11.37163
vt 1.234663 11.85792
vt 1.315776 11.4018
vt 1.246703 11.85558
vt 1.321589 11.43448
vt 1.258554 11.84859
vt 1.32603 11.46916
vt 1.270028 11.83707
vt 1.32903 11.50528
vt 1.280945 11.82119
vt 1.330542 11.54229
vt 1.291131 11.8012
vt 1.330542 11.57958
vt 1.300427 11.77743
vt 1.32903 11.61659
vt 1.308686 11.75024
vt 1.32603 11.65271
vt 1.315777 11.72007
vt 1.321589 11.68739
vn -0.9004053816071403 -0.407283491680294 0.15293889687586967
vn -0.8378209051841216 -0.5110987031624872 0.19192250118754436
vn -0.9486000318844587 -0.29627740995851204 0.11125500373951654
vn -0.762149358573594 -0.6060790670567491 0.22758848762949402
vn -0.9813520949942475 -0.17994989908209844 0.06757291965531907
vn -0.6748765109384491 -0.690830211197028 0.2594134042045918
vn -0.997919904084786 -0.060351280247035934 0.022662480092764326
vn -0.5776070158499265 -0.7642114209704775 0.286968707874615
vn -0.997919904084786 0.060351280247035934 -0.022662480092764326
vn -0.47200918833134303 -0.8253234795969723 0.309916892338467
vn -0.9813520949942475 0.17994989908209844 -0.06757291965531907
vn -0.3597733953856076 -0.8734858887968187 0.3280022957930982
vn -0.9486000318844587 0.29627740995851204 -0.11125500373951654
vn -0.24258479114935708 -0.9082089668642326 0.3410411875572009
vn -0.9004053816071403 0.407283491680294 -0.15293889687586967
vn -0.12211079618376845 -0.9291663709615028 0.3489108890957654
vn -0.8378209051841216 0.5110987031624872 -0.19192250118754436
vn 0 -0.9361722540249108 0.3515416202868696
vn -0.762149358573594 0.6060790670567491 -0.22758848762949402
vn 0.12211079618376845 -0.9291663709615028 0.3489108890957654
vn -0.6748765109384491 0.690830211197028 -0.2594134042045918
vn 0.24258479114935708 -0.9082089668642326 0.3410411875572009
vn -0.5776070158499265 0.7642114209704775 -0.286968707874615
vn 0.3597733953856076 -0.8734858887968187 0.3280022957930982
vn -0.47200918833134303 0.8253234795969723 -0.309916892338467
vn 0.47200918833134303 -0.8253234795969723 0.309916892338467
vn -0.3597733953856076 0.8734858887968187 -0.3280022957930982
vn 0.5776070158499265 -0.7642114209704775 0.286968707874615
vn -0.24258479114935708 0.9082089668642326 -0.3410411875572009
vn 0.6748765109384491 -0.690830211197028 0.2594134042045918
vn -0.12211079618376845 0.9291663709615028 -0.3489108890957654
vn 0.762149358573594 -0.6060790670567491 0.22758848762949402
vn 0 0.9361722540249108 -0.3515416202868696
vn 0.8378209051841216 -0.5110987031624872 0.19192250118754436
vn 0.12211079618376845 0.9291663709615028 -0.3489108890957654
vn 0.9004053816071403 -0.407283491680294 0.15293889687586967
vn 0.24258479114935708 0.9082089668642326 -0.3410411875572009
vn 0.9486000318844587 -0.29627740995851204 0.11125500373951654
vn 0.3597733953856076 0.8734858887968187 -0.3280022957930982
vn 0.9813520949942475 -0.17994989908209844 0.06757291965531907
vn 0.47200918833134303 0.8253234795969723 -0.309916892338467
vn 0.997919904084786 -0.060351280247035934 0.022662480092764326
vn 0.5776070158499265 0.7642114209704775 -0.286968707874615
vn 0.997919904084786 0.060351280247035934 -0.022662480092764326
vn 0.6748765109384491 0.690830211197028 -0.2594134042045918
vn 0.9813520949942475 0.17994989908209844 -0.06757291965531907
vn 0.762149358573594 0.6060790670567491 -0.22758848762949402
vn 0.9486000318844587 0.29627740995851204 -0.11125500373951654
vn 0.8378209051841216 0.5110987031624872 -0.19192250118754436
vn 0.9004053816071403 0.407283491680294 -0.15293889687586967
usemtl material_0_0
f 5//50 6//50 7//49
f 8//49 7//49 6//50
f 11//48 12//48 5//50
f 6//50 5//50 12//48
f 7//49 8//49 15//47
f 16//47 15//47 8//49
f 19//46 20//46 11//48
f 12//48 11//48 20//46
f 15//47 16//47 23//45
f 24//45 23//45 16//47
f 27//44 28//44 19//46
f 20//46 19//46 28//44
f 31//43 23//45 32//43
f 24//45 32//43 23//45
f 35//42 36//42 27//44
f 28//44 27//44 36//42
f 39//41 40//41 32//43
f 31//43 32//43 40//41
f 43//40 44//40 35//42
f 36//42 35//42 44//40
f 47//39 48//39 39//41
f 40//41 39//41 48//39
f 51//38 52//38 43//40
f 44//40 43//40 52//38
f 55//37 48//39 56//37
f 47//39 56//37 48//39
f 59//36 60//36 51//38
f 52//38 51//38 60//36
f 63//35 64//35 56//37
f 55//37 56//37 64//35
f 67//34 68//34 59//36
f 60//36 59//36 68//34
f 71//33 72//33 63//35
f 64//35 63//35 72//33
f 75//32 76//32 67//34
f 68//34 67//34 76//32
f 79//31 80//31 71//33
f 72//33 71//33 80//31
f 83//30 84//30 75//32
f 76//32 75//32 84//30
f 87//29 88//29 79//31
f 80//31 79//31 88//29
f 91//28 92//28 83//30
f 84//30 83//30 92//28
f 95//27 96//27 87//29
f 88//29 87//29 96//27
f 99//26 92//28 100//26
f 91//28 100//26 92//28
f 103//25 96//27 104//25
f 95//27 104//25 96//27
f 107//24 99//26 108//24
f 100//26 108//24 99//26
f 111//23 112//23 104//25
f 103//25 104//25 112//23
f 115//22 116//22 108//24
f 107//24 108//24 116//22
f 119//21 112//23 120//21
f 111//23 120//21 112//23
f 123//20 124//20 115//22
f 116//22 115//22 124//20
f 127//19 119//21 128//19
f 120//21 128//19 119//21
f 131//18 124//20 132//18
f 123//20 132//18 124//20
f 135//17 127//19 136//17
f 128//19 136//17 127//19
f 139//16 131//18 140//16
f 132//18 140//16 131//18
f 143//15 135//17 144//15
f 136//17 144//15 135//17
f 147//14 148//14 140//16
f 139//16 140//16 148//14
f 151//13 143//15 152//13
f 144//15 152//13 143//15
f 155//12 156//12 147//14
f 148//14 147//14 156//12
f 159//11 151//13 160//11
f 152//13 160//11 151//13
f 163//10 156//12 164//10
f 155//12 164//10 156//12
f 167//9 159//11 168//9
f 160//11 168//9 159//11
f 171//8 163//10 172//8
f 164//10 172//8 163//10
f 175//7 167//9 176//7
f 168//9 176//7 167//9
f 179//6 180//6 172//8
f 171//8 172//8 180//6
f 183//5 175//7 184//5
f 176//7 184//5 175//7
f 179//6 187//4 180//6
f 188//4 180//6 187//4
f 191//3 183//5 192//3
f 184//5 192//3 183//5
f 187//4 195//2 188//4
f 196//2 188//4 195//2
f 199//1 191//3 200//1
f 192//3 200//1 191//3
f 195//2 199//1 196//2
f 200//1 196//2 199//1
usemtl material_1_0
f 1/1/1 2/2/2 3/2/2
f 2/2/2 1/1/1 4/1/1
f 9/3/3 4/1/1 1/1/1
f 4/1/1 9/3/3 10/3/3
f 3/2/2 13/4/4 14/4/4
f 13/4/4 3/2/2 2/2/2
f 17/5/5 10/3/3 9/3/3
f 10/3/3 17/5/5 18/5/5
f 14/4/4 21/6/6 22/6/6
f 21/6/6 14/4/4 13/4/4
f 25/7/7 18/5/5 17/5/5
f 18/5/5 25/7/7 26/7/7
f 21/6/6 29/8/8 22/6/6
f 29/8/8 21/6/6 30/8/8
f 33/9/9 26/7/7 25/7/7
f 26/7/7 33/9/9 34/9/9
f 37/10/10 29/8/8 30/8/8
f 29/8/8 37/10/10 38/10/10
f 41/11/11 34/9/9 33/9/9
f 34/9/9 41/11/11 42/11/11
f 45/12/12 38/10/10 37/10/10
f 38/10/10 45/12/12 46/12/12
f 49/13/13 42/11/11 41/11/11
f 42/11/11 49/13/13 50/13/13
f 45/12/12 53/14/14 46/12/12
f 53/14/14 45/12/12 54/14/14
f 57/15/15 50/13/13 49/13/13
f 50/13/13 57/15/15 58/15/15
f 61/16/16 53/14/14 54/14/14
f 53/14/14 61/16/16 62/16/16
f 65/17/17 58/15/15 57/15/15
f 58/15/15 65/17/17 66/17/17
f 69/18/18 62/16/16 61/16/16
f 62/16/16 69/18/18 70/18/18
f 73/19/19 66/17/17 65/17/17
f 66/17/17 73/19/19 74/19/19
f 77/20/20 70/18/18 69/18/18
f 70/18/18 77/20/20 78/20/20
f 81/21/21 74/19/19 73/19/19
f 74/19/19 81/21/21 82/21/21
f 85/22/22 78/20/20 77/20/20
f 78/20/20 85/22/22 86/22/22
f 89/23/23 82/21/21 81/21/21
f 82/21/21 89/23/23 90/23/23
f 93/24/24 86/22/22 85/22/22
f 86/22/22 93/24/24 94/24/24
f 89/23/23 97/25/25 90/23/23
f 97/25/25 89/23/23 98/25/25
f 93/24/24 101/26/26 94/24/24
f 101/26/26 93/24/24 102/26/26
f 98/25/25 105/27/27 97/25/25
f 105/27/27 98/25/25 106/27/27
f 109/28/28 101/26/26 102/26/26
f 101/26/26 109/28/28 110/28/28
f 113/29/29 105/27/27 106/27/27
f 105/27/27 113/29/29 114/29/29
f 109/28/28 117/30/30 110/28/28
f 117/30/30 109/28/28 118/30/30
f 121/31/31 114/29/29 113/29/29
f 114/29/29 121/31/31 122/31/31
f 118/30/30 125/32/32 117/30/30
f 125/32/32 118/30/30 126/32/32
f 121/31/31 129/33/33 122/31/31
f 129/33/33 121/31/31 130/33/33
f 126/32/32 133/34/34 125/32/32
f 133/34/34 126/32/32 134/34/34
f 130/33/33 137/35/35 129/33/33
f 137/35/35 130/33/33 138/35/35
f 134/34/34 141/36/36 133/34/34
f 141/36/36 134/34/34 142/36/36
f 145/37/37 137/35/35 138/35/35
f 137/35/35 145/37/37 146/37/37
f 142/36/36 149/38/38 141/36/36
f 149/38/38 142/36/36 150/38/38
f 153/39/39 146/37/37 145/37/37
f 146/37/37 153/39/39 154/39/39
f 150/38/38 157/40/40 149/38/38
f 157/40/40 150/38/38 158/40/40
f 153/39/39 161/41/41 154/39/39
f 161/41/41 153/39/39 162/41/41
f 158/40/40 165/42/42 157/40/40
f 165/42/42 158/40/40 166/42/42
f 162/41/41 169/43/43 161/41/41
f 169/43/43 162/41/41 170/43/43
f 166/42/42 173/44/44 165/42/42
f 173/44/44 166/42/42 174/44/44
f 177/45/45 169/43/43 170/43/43
f 169/43/43 177/45/45 178/45/45
f 174/44/44 181/46/46 173/44/44
f 181/46/46 174/44/44 182/46/46
f 185/47/47 177/45/45 186/47/47
f 177/45/45 185/47/47 178/45/45
f 182/46/46 189/48/48 181/46/46
f 189/48/48 182/46/46 190/48/48
f 193/49/49 186/47/47 194/49/49
f 186/47/47 193/49/49 185/47/47
f 190/48/48 197/50/50 189/48/48
f 197/50/50 190/48/48 198/50/50
f 198/50/50 194/49/49 197/50/50
f 194/49/49 198/50/50 193/49/49
