# SSTK version 0.8.0
# 63
mtllib original-63.mtl
o #ID493
v -0.054455 0.506388 0.445473
v -0.055350 0.509482 0.444369
v -0.057101 0.512480 0.443186
v -0.053539 0.506849 0.445443
v -0.056722 0.512616 0.443191
v -0.057891 0.515284 0.442134
vn -0.12091240239867718 0.30250640600116424 0.9454470187559105
vn -0.12356649867144143 0.3099526966674597 0.9426879898644357
vn -0.12345439880605709 0.3096382970054491 0.9428059908820056
vn -0.12621189589474927 0.3173772896767783 0.9398628694294053
usemtl material_0_0
f 1//1 2//1 3//2
f 2//1 1//1 4//1
f 3//2 2//1 5//3
f 6//4 3//2 5//3
