# SSTK version 0.8.0
# 31
mtllib original-31.mtl
o #ID264
v 0.212964 0.464979 0.462256
v 0.214388 0.469586 0.464078
v 0.212964 0.466148 0.465369
v 0.214388 0.468417 0.460964
v 0.214388 0.468417 0.460964
v 0.212964 0.464979 0.462256
v 0.214388 0.469586 0.464078
v 0.212964 0.466148 0.465369
v 0.210698 0.462027 0.463364
v 0.210698 0.463196 0.466477
v 0.210698 0.462027 0.463364
v 0.210698 0.463196 0.466477
v 0.213007 0.464828 0.461918
v 0.214388 0.468417 0.460964
v 0.212964 0.464979 0.462256
v 0.214435 0.468276 0.460623
v 0.214435 0.468276 0.460623
v 0.213007 0.464828 0.461918
v 0.214388 0.468417 0.460964
v 0.212964 0.464979 0.462256
v 0.214873 0.473276 0.462693
v 0.214873 0.472107 0.459579
v 0.214873 0.472107 0.459579
v 0.214873 0.473276 0.462693
v 0.207746 0.459761 0.464214
v 0.207746 0.460931 0.467328
v 0.207746 0.459761 0.464214
v 0.207746 0.460931 0.467328
v 0.210734 0.461866 0.463030
v 0.210698 0.462027 0.463364
v 0.210734 0.461866 0.463030
v 0.210698 0.462027 0.463364
v 0.213133 0.464643 0.461621
v 0.214574 0.468123 0.460314
v 0.214574 0.468123 0.460314
v 0.213133 0.464643 0.461621
v 0.214873 0.472107 0.459579
v 0.214922 0.471977 0.459233
v 0.214922 0.471977 0.459233
v 0.214873 0.472107 0.459579
v 0.214388 0.476965 0.461307
v 0.214388 0.475796 0.458193
v 0.214388 0.475796 0.458193
v 0.214388 0.476965 0.461307
v 0.204308 0.458337 0.464749
v 0.204308 0.459507 0.467863
v 0.204308 0.458337 0.464749
v 0.204308 0.459507 0.467863
v 0.207772 0.459593 0.463884
v 0.207746 0.459761 0.464214
v 0.207772 0.459593 0.463884
v 0.207746 0.459761 0.464214
v 0.210839 0.461653 0.462743
v 0.210839 0.461653 0.462743
v 0.213334 0.464437 0.461382
v 0.214796 0.467967 0.460057
v 0.214796 0.467967 0.460057
v 0.213334 0.464437 0.461382
v 0.215066 0.471856 0.458911
v 0.215066 0.471856 0.458911
v 0.214388 0.475796 0.458193
v 0.214435 0.475678 0.457844
v 0.214435 0.475678 0.457844
v 0.214388 0.475796 0.458193
v 0.212964 0.480403 0.460017
v 0.212964 0.479234 0.456903
v 0.212964 0.479234 0.456903
v 0.212964 0.480403 0.460017
v 0.200618 0.459021 0.468045
v 0.200618 0.457852 0.464931
v 0.200618 0.459021 0.468045
v 0.200618 0.457852 0.464931
v 0.204321 0.458163 0.464421
v 0.204308 0.458337 0.464749
v 0.204321 0.458163 0.464421
v 0.204308 0.458337 0.464749
v 0.207847 0.459357 0.463605
v 0.207847 0.459357 0.463605
v 0.211005 0.461403 0.462521
v 0.211005 0.461403 0.462521
v 0.215084 0.467819 0.459870
v 0.213595 0.464225 0.461220
v 0.215084 0.467819 0.459870
v 0.213595 0.464225 0.461220
v 0.215294 0.471752 0.458635
v 0.215294 0.471752 0.458635
v 0.214574 0.475589 0.457510
v 0.214574 0.475589 0.457510
v 0.212964 0.479234 0.456903
v 0.213007 0.479126 0.456549
v 0.213007 0.479126 0.456549
v 0.212964 0.479234 0.456903
v 0.210698 0.483356 0.458908
v 0.210698 0.482186 0.455794
v 0.210698 0.482186 0.455794
v 0.210698 0.483356 0.458908
v 0.196929 0.458337 0.464749
v 0.196929 0.459507 0.467863
v 0.196929 0.458337 0.464749
v 0.196929 0.459507 0.467863
v 0.200618 0.457676 0.464603
v 0.200618 0.457852 0.464931
v 0.200618 0.457676 0.464603
v 0.200618 0.457852 0.464931
v 0.204361 0.457913 0.464147
v 0.204361 0.457913 0.464147
v 0.207967 0.459071 0.463397
v 0.207967 0.459071 0.463397
v 0.211222 0.461132 0.462381
v 0.211222 0.461132 0.462381
v 0.215420 0.467690 0.459767
v 0.213900 0.464020 0.461144
v 0.215420 0.467690 0.459767
v 0.213900 0.464020 0.461144
v 0.215592 0.471673 0.458424
v 0.215592 0.471673 0.458424
v 0.214796 0.475538 0.457214
v 0.214796 0.475538 0.457214
v 0.213133 0.479069 0.456203
v 0.213133 0.479069 0.456203
v 0.210698 0.482186 0.455794
v 0.210734 0.482088 0.455436
v 0.210734 0.482088 0.455436
v 0.210698 0.482186 0.455794
v 0.207746 0.484452 0.454943
v 0.207746 0.485621 0.458057
v 0.207746 0.484452 0.454943
v 0.207746 0.485621 0.458057
v 0.193491 0.460931 0.467328
v 0.193491 0.459761 0.464214
v 0.193491 0.460931 0.467328
v 0.193491 0.459761 0.464214
v 0.196929 0.458337 0.464749
v 0.196915 0.458163 0.464421
v 0.196929 0.458337 0.464749
v 0.196915 0.458163 0.464421
v 0.200618 0.457420 0.464333
v 0.200618 0.457420 0.464333
v 0.204424 0.457603 0.463948
v 0.204424 0.457603 0.463948
v 0.208123 0.458754 0.463274
v 0.208123 0.458754 0.463274
v 0.211475 0.460860 0.462332
v 0.211475 0.460860 0.462332
v 0.215781 0.467588 0.459752
v 0.214227 0.463837 0.461161
v 0.215781 0.467588 0.459752
v 0.214227 0.463837 0.461161
v 0.215938 0.471623 0.458290
v 0.215784 0.471645 0.458349
v 0.215784 0.471645 0.458349
v 0.215938 0.471623 0.458290
v 0.215084 0.475526 0.456977
v 0.215084 0.475526 0.456977
v 0.213334 0.479067 0.455888
v 0.213334 0.479067 0.455888
v 0.210839 0.482059 0.455080
v 0.210839 0.482059 0.455080
v 0.207772 0.484361 0.454583
v 0.207746 0.484452 0.454943
v 0.207772 0.484361 0.454583
v 0.207746 0.484452 0.454943
v 0.204308 0.487045 0.457522
v 0.204308 0.485876 0.454408
v 0.204308 0.487045 0.457522
v 0.204308 0.485876 0.454408
v 0.190538 0.462027 0.463364
v 0.190538 0.463196 0.466477
v 0.190538 0.462027 0.463364
v 0.190538 0.463196 0.466477
v 0.193491 0.459761 0.464214
v 0.193465 0.459593 0.463884
v 0.193491 0.459761 0.464214
v 0.193465 0.459593 0.463884
v 0.196876 0.457913 0.464147
v 0.196876 0.457913 0.464147
v 0.200618 0.457102 0.464136
v 0.200618 0.457102 0.464136
v 0.204505 0.457255 0.463837
v 0.204505 0.457255 0.463837
v 0.208305 0.458427 0.463245
v 0.208305 0.458427 0.463245
v 0.211747 0.460605 0.462375
v 0.211747 0.460605 0.462375
v 0.204703 0.456541 0.463902
v 0.196534 0.456541 0.463902
v 0.200618 0.456003 0.464103
v 0.200618 0.456876 0.463775
v 0.204384 0.457372 0.463589
v 0.208500 0.458113 0.463310
v 0.207903 0.458830 0.463041
v 0.211747 0.460605 0.462375
v 0.210938 0.461158 0.462168
v 0.214227 0.463837 0.461161
v 0.213278 0.464208 0.461022
v 0.215781 0.467588 0.459752
v 0.214754 0.467772 0.459684
v 0.216310 0.471606 0.458244
v 0.215259 0.471606 0.458244
v 0.215781 0.475623 0.456736
v 0.214754 0.475439 0.456805
v 0.213278 0.479003 0.455467
v 0.214227 0.479374 0.455328
v 0.210938 0.482052 0.454321
v 0.211747 0.482606 0.454114
v 0.207903 0.484381 0.453447
v 0.208500 0.485098 0.453178
v 0.204384 0.485839 0.452899
v 0.204703 0.486670 0.452587
v 0.200618 0.486335 0.452714
v 0.196534 0.486670 0.452587
v 0.200618 0.487208 0.452385
v 0.196853 0.457372 0.463589
v 0.192737 0.458113 0.463310
v 0.193334 0.458830 0.463041
v 0.189490 0.460605 0.462375
v 0.190299 0.461158 0.462168
v 0.187010 0.463837 0.461161
v 0.189131 0.462681 0.461595
v 0.187959 0.464208 0.461022
v 0.185456 0.467588 0.459752
v 0.186483 0.467772 0.459684
v 0.184927 0.471606 0.458244
v 0.185978 0.471606 0.458244
v 0.185456 0.475623 0.456736
v 0.186483 0.475439 0.456805
v 0.187959 0.479003 0.455467
v 0.187010 0.479374 0.455328
v 0.190299 0.482052 0.454321
v 0.189490 0.482606 0.454114
v 0.193334 0.484381 0.453447
v 0.192737 0.485098 0.453178
v 0.196853 0.485839 0.452899
v 0.200618 0.486335 0.452714
v 0.196853 0.485839 0.452899
v 0.196534 0.486670 0.452587
v 0.192737 0.485098 0.453178
v 0.193334 0.484381 0.453447
v 0.189490 0.482606 0.454114
v 0.190299 0.482052 0.454321
v 0.187010 0.479374 0.455328
v 0.187959 0.479003 0.455467
v 0.185456 0.475623 0.456736
v 0.186483 0.475439 0.456805
v 0.185978 0.471606 0.458244
v 0.184927 0.471606 0.458244
v 0.186483 0.467772 0.459684
v 0.185456 0.467588 0.459752
v 0.187959 0.464208 0.461022
v 0.187010 0.463837 0.461161
v 0.189131 0.462681 0.461595
v 0.190299 0.461158 0.462168
v 0.189490 0.460605 0.462375
v 0.193334 0.458830 0.463041
v 0.192737 0.458113 0.463310
v 0.196853 0.457372 0.463589
v 0.200618 0.456876 0.463775
v 0.196534 0.456541 0.463902
v 0.200618 0.487208 0.452385
v 0.204703 0.486670 0.452587
v 0.204384 0.485839 0.452899
v 0.208500 0.485098 0.453178
v 0.207903 0.484381 0.453447
v 0.211747 0.482606 0.454114
v 0.210938 0.482052 0.454321
v 0.214227 0.479374 0.455328
v 0.213278 0.479003 0.455467
v 0.215781 0.475623 0.456736
v 0.214754 0.475439 0.456805
v 0.215259 0.471606 0.458244
v 0.216310 0.471606 0.458244
v 0.214754 0.467772 0.459684
v 0.215781 0.467588 0.459752
v 0.213278 0.464208 0.461022
v 0.214227 0.463837 0.461161
v 0.210938 0.461158 0.462168
v 0.211747 0.460605 0.462375
v 0.207903 0.458830 0.463041
v 0.208500 0.458113 0.463310
v 0.204384 0.457372 0.463589
v 0.204703 0.456541 0.463902
v 0.200618 0.456003 0.464103
v 0.216310 0.471606 0.458244
v 0.216310 0.471606 0.458244
v 0.215420 0.475555 0.456814
v 0.215420 0.475555 0.456814
v 0.213595 0.479121 0.455626
v 0.213595 0.479121 0.455626
v 0.211005 0.482102 0.454749
v 0.211005 0.482102 0.454749
v 0.207847 0.484355 0.454219
v 0.207847 0.484355 0.454219
v 0.204321 0.485790 0.454046
v 0.204308 0.485876 0.454408
v 0.204321 0.485790 0.454046
v 0.204308 0.485876 0.454408
v 0.200618 0.486362 0.454226
v 0.200618 0.487531 0.457340
v 0.200618 0.486362 0.454226
v 0.200618 0.487531 0.457340
v 0.188273 0.466148 0.465369
v 0.188273 0.464979 0.462256
v 0.188273 0.464979 0.462256
v 0.188273 0.466148 0.465369
v 0.190538 0.462027 0.463364
v 0.190503 0.461866 0.463030
v 0.190538 0.462027 0.463364
v 0.190503 0.461866 0.463030
v 0.193390 0.459357 0.463605
v 0.193390 0.459357 0.463605
v 0.196813 0.457603 0.463948
v 0.196813 0.457603 0.463948
v 0.200618 0.456744 0.464029
v 0.200618 0.456744 0.464029
v 0.204601 0.456893 0.463821
v 0.204601 0.456893 0.463821
v 0.208500 0.458113 0.463310
v 0.208500 0.458113 0.463310
v 0.187337 0.464020 0.461144
v 0.185456 0.467588 0.459752
v 0.187010 0.463837 0.461161
v 0.185816 0.467690 0.459767
v 0.185816 0.467690 0.459767
v 0.187337 0.464020 0.461144
v 0.185456 0.467588 0.459752
v 0.187010 0.463837 0.461161
v 0.189761 0.460860 0.462332
v 0.189490 0.460605 0.462375
v 0.189761 0.460860 0.462332
v 0.189490 0.460605 0.462375
v 0.192932 0.458427 0.463245
v 0.192737 0.458113 0.463310
v 0.192932 0.458427 0.463245
v 0.192737 0.458113 0.463310
v 0.196636 0.456893 0.463821
v 0.196534 0.456541 0.463902
v 0.196636 0.456893 0.463821
v 0.196534 0.456541 0.463902
v 0.200618 0.456369 0.464018
v 0.200618 0.456003 0.464103
v 0.200618 0.456369 0.464018
v 0.200618 0.456003 0.464103
v 0.204703 0.456541 0.463902
v 0.204703 0.456541 0.463902
v 0.215781 0.475623 0.456736
v 0.215781 0.475623 0.456736
v 0.213900 0.479225 0.455435
v 0.214227 0.479374 0.455328
v 0.214227 0.479374 0.455328
v 0.213900 0.479225 0.455435
v 0.211475 0.482385 0.454249
v 0.211747 0.482606 0.454114
v 0.211747 0.482606 0.454114
v 0.211475 0.482385 0.454249
v 0.208305 0.484818 0.453335
v 0.208500 0.485098 0.453178
v 0.208500 0.485098 0.453178
v 0.208305 0.484818 0.453335
v 0.204601 0.486352 0.452758
v 0.204703 0.486670 0.452587
v 0.204703 0.486670 0.452587
v 0.204601 0.486352 0.452758
v 0.200618 0.486876 0.452562
v 0.200618 0.487208 0.452385
v 0.200618 0.487208 0.452385
v 0.200618 0.486876 0.452562
v 0.196534 0.486670 0.452587
v 0.196636 0.486352 0.452758
v 0.196534 0.486670 0.452587
v 0.196636 0.486352 0.452758
v 0.192737 0.485098 0.453178
v 0.192932 0.484818 0.453335
v 0.192737 0.485098 0.453178
v 0.192932 0.484818 0.453335
v 0.189490 0.482606 0.454114
v 0.189761 0.482385 0.454249
v 0.189490 0.482606 0.454114
v 0.189761 0.482385 0.454249
v 0.187010 0.479374 0.455328
v 0.187337 0.479225 0.455435
v 0.187010 0.479374 0.455328
v 0.187337 0.479225 0.455435
v 0.185456 0.475623 0.456736
v 0.185816 0.475555 0.456814
v 0.185456 0.475623 0.456736
v 0.185816 0.475555 0.456814
v 0.185299 0.471623 0.458290
v 0.184927 0.471606 0.458244
v 0.185299 0.471623 0.458290
v 0.184927 0.471606 0.458244
v 0.211222 0.482213 0.454465
v 0.211222 0.482213 0.454465
v 0.207967 0.484434 0.453873
v 0.207967 0.484434 0.453873
v 0.204361 0.485799 0.453676
v 0.204361 0.485799 0.453676
v 0.200618 0.486278 0.453864
v 0.200618 0.486362 0.454226
v 0.200618 0.486278 0.453864
v 0.200618 0.486362 0.454226
v 0.196929 0.485876 0.454408
v 0.196929 0.487045 0.457522
v 0.196929 0.485876 0.454408
v 0.196929 0.487045 0.457522
v 0.186849 0.469586 0.464078
v 0.186849 0.468417 0.460964
v 0.186849 0.468417 0.460964
v 0.186849 0.469586 0.464078
v 0.188273 0.464979 0.462256
v 0.188230 0.464828 0.461918
v 0.188230 0.464828 0.461918
v 0.188273 0.464979 0.462256
v 0.190398 0.461653 0.462743
v 0.190398 0.461653 0.462743
v 0.193270 0.459071 0.463397
v 0.193270 0.459071 0.463397
v 0.196731 0.457255 0.463837
v 0.196731 0.457255 0.463837
v 0.200618 0.456470 0.464021
v 0.200618 0.456470 0.464021
v 0.187641 0.464225 0.461220
v 0.186152 0.467819 0.459870
v 0.186152 0.467819 0.459870
v 0.187641 0.464225 0.461220
v 0.190014 0.461132 0.462381
v 0.190014 0.461132 0.462381
v 0.193114 0.458754 0.463274
v 0.193114 0.458754 0.463274
v 0.208123 0.484591 0.453572
v 0.208123 0.484591 0.453572
v 0.204505 0.486090 0.453009
v 0.204505 0.486090 0.453009
v 0.200618 0.486602 0.452817
v 0.200618 0.486802 0.452632
v 0.200618 0.486802 0.452632
v 0.200618 0.486602 0.452817
v 0.196731 0.486090 0.453009
v 0.196731 0.486090 0.453009
v 0.193114 0.484591 0.453572
v 0.193114 0.484591 0.453572
v 0.190014 0.482213 0.454465
v 0.190014 0.482213 0.454465
v 0.187641 0.479121 0.455626
v 0.187641 0.479121 0.455626
v 0.186152 0.475526 0.456977
v 0.186152 0.475526 0.456977
v 0.185452 0.471645 0.458349
v 0.185645 0.471673 0.458424
v 0.185645 0.471673 0.458424
v 0.185452 0.471645 0.458349
v 0.204424 0.485901 0.453322
v 0.204424 0.485901 0.453322
v 0.200618 0.486292 0.453491
v 0.200618 0.486292 0.453491
v 0.196929 0.485876 0.454408
v 0.196915 0.485790 0.454046
v 0.196929 0.485876 0.454408
v 0.196915 0.485790 0.454046
v 0.193491 0.484452 0.454943
v 0.193491 0.485621 0.458057
v 0.193491 0.484452 0.454943
v 0.193491 0.485621 0.458057
v 0.186363 0.473276 0.462693
v 0.186363 0.472107 0.459579
v 0.186363 0.472107 0.459579
v 0.186363 0.473276 0.462693
v 0.186849 0.468417 0.460964
v 0.186802 0.468276 0.460623
v 0.186802 0.468276 0.460623
v 0.186849 0.468417 0.460964
v 0.188104 0.464643 0.461621
v 0.188104 0.464643 0.461621
v 0.190231 0.461403 0.462521
v 0.190231 0.461403 0.462521
v 0.187903 0.464437 0.461382
v 0.186441 0.467967 0.460057
v 0.186441 0.467967 0.460057
v 0.187903 0.464437 0.461382
v 0.200618 0.486402 0.453134
v 0.200618 0.486402 0.453134
v 0.196813 0.485901 0.453322
v 0.196813 0.485901 0.453322
v 0.193270 0.484434 0.453873
v 0.193270 0.484434 0.453873
v 0.190231 0.482102 0.454749
v 0.190231 0.482102 0.454749
v 0.187903 0.479067 0.455888
v 0.187903 0.479067 0.455888
v 0.186441 0.475538 0.457214
v 0.186441 0.475538 0.457214
v 0.185943 0.471752 0.458635
v 0.185943 0.471752 0.458635
v 0.196876 0.485799 0.453676
v 0.196876 0.485799 0.453676
v 0.193491 0.484452 0.454943
v 0.193465 0.484361 0.454583
v 0.193491 0.484452 0.454943
v 0.193465 0.484361 0.454583
v 0.190538 0.482186 0.455794
v 0.190538 0.483356 0.458908
v 0.190538 0.482186 0.455794
v 0.190538 0.483356 0.458908
v 0.186849 0.476965 0.461307
v 0.186849 0.475796 0.458193
v 0.186849 0.475796 0.458193
v 0.186849 0.476965 0.461307
v 0.186363 0.472107 0.459579
v 0.186314 0.471977 0.459233
v 0.186314 0.471977 0.459233
v 0.186363 0.472107 0.459579
v 0.186662 0.468123 0.460314
v 0.186662 0.468123 0.460314
v 0.193390 0.484355 0.454219
v 0.193390 0.484355 0.454219
v 0.190398 0.482059 0.455080
v 0.190398 0.482059 0.455080
v 0.188104 0.479069 0.456203
v 0.188104 0.479069 0.456203
v 0.186662 0.475589 0.457510
v 0.186662 0.475589 0.457510
v 0.186171 0.471856 0.458911
v 0.186171 0.471856 0.458911
v 0.190538 0.482186 0.455794
v 0.190503 0.482088 0.455436
v 0.190538 0.482186 0.455794
v 0.190503 0.482088 0.455436
v 0.188273 0.479234 0.456903
v 0.188273 0.480403 0.460017
v 0.188273 0.479234 0.456903
v 0.188273 0.480403 0.460017
v 0.186849 0.475796 0.458193
v 0.186802 0.475678 0.457844
v 0.186802 0.475678 0.457844
v 0.186849 0.475796 0.458193
v 0.188230 0.479126 0.456549
v 0.188230 0.479126 0.456549
v 0.188273 0.479234 0.456903
v 0.188273 0.479234 0.456903
vn 0.8792887011449966 -0.4458887005806297 0.16743550021803189
vn 0.9698267117127319 -0.22823440275641863 0.08570418103506125
vn -0.9698267117127319 0.22823440275641863 -0.08570418103506125
vn -0.8792887011449966 0.4458887005806297 -0.16743550021803189
vn 0.729254895794234 -0.640568496305707 0.2405395986127575
vn -0.729254895794234 0.640568496305707 -0.2405395986127575
vn 0.848239908661929 -0.33755050344694765 0.4081038041674131
vn 0.9614032236735837 -0.18001970443280352 0.20807870512372798
vn 0.8716461648859747 -0.395764484056737 0.2891425883519705
vn 0.9356199951614178 -0.12764279933989214 0.3291238982979275
vn -0.9356199951614178 0.12764279933989214 -0.3291238982979275
vn -0.848239908661929 0.33755050344694765 -0.4081038041674131
vn -0.9614032236735837 0.18001970443280352 -0.20807870512372798
vn -0.8716461648859747 0.395764484056737 -0.2891425883519705
vn 1 0 0
vn -1 0 0
vn 0.5240359045983652 -0.797334306996533 0.2994067026272652
vn -0.5240359045983652 0.797334306996533 -0.2994067026272652
vn 0.7034608968021194 -0.5252419976122894 0.47881479782334374
vn 0.7229097222947314 -0.5887221181563496 0.3616736111541119
vn -0.7034608968021194 0.5252419976122894 -0.47881479782334374
vn -0.7229097222947314 0.5887221181563496 -0.3616736111541119
vn 0.7576191130416138 -0.20576790354207752 0.6194133106625467
vn 0.8357648094972135 -0.018346400208479444 0.5487810062360731
vn -0.8357648094972135 0.018346400208479444 -0.5487810062360731
vn -0.7576191130416138 0.20576790354207752 -0.6194133106625467
vn 0.9913165891642445 0.04622660949471211 0.12310369865439398
vn 0.9647431961045617 0.09252330962640949 0.2463939990051108
vn -0.9647431961045617 -0.09252330962640949 -0.2463939990051108
vn -0.9913165891642445 -0.04622660949471211 -0.12310369865439398
vn 0.9698267117127319 0.22823440275641863 -0.08570418103506125
vn -0.9698267117127319 -0.22823440275641863 0.08570418103506125
vn 0.2745645993744965 -0.9001938979492099 0.33803139922990844
vn -0.2745645993744965 0.9001938979492099 -0.33803139922990844
vn 0.5054668835087743 -0.6763288779342772 0.5358007825191085
vn 0.5194710190360444 -0.7440892272671913 0.42009651539446
vn -0.5054668835087743 0.6763288779342772 -0.5358007825191085
vn -0.5194710190360444 0.7440892272671913 -0.42009651539446
vn 0.6281964048184046 -0.3732556028629528 0.6826782052362919
vn -0.6281964048184046 0.3732556028629528 -0.6826782052362919
vn 0.614617591664977 -0.060276469182571964 0.7865188893337693
vn 0.6781434275313528 0.09172091372369712 0.7291836296034895
vn -0.6781434275313528 -0.09172091372369712 -0.7291836296034895
vn -0.614617591664977 0.060276469182571964 -0.7865188893337693
vn 0.8618163649842897 0.1783090927552784 0.47484568070695865
vn -0.8618163649842897 -0.1783090927552784 -0.47484568070695865
vn 0.9614032374451299 0.27248431061283135 0.03815908148623571
vn 0.9356199830145211 0.31272589432269593 0.16376129702703657
vn -0.9356199830145211 -0.31272589432269593 -0.16376129702703657
vn -0.9614032374451299 -0.27248431061283135 -0.03815908148623571
vn 0.8792887011449966 0.4458887005806297 -0.16743550021803189
vn -0.8792887011449966 -0.4458887005806297 0.16743550021803189
vn 0 -0.9361722540249108 0.3515416202868696
vn 0 0.9361722540249108 -0.3515416202868696
vn 0.2648215032798183 -0.7754326096037447 0.573213607099259
vn 0.27217059897620166 -0.8460241968175912 0.45843889827553375
vn -0.2648215032798183 0.7754326096037447 -0.573213607099259
vn -0.27217059897620166 0.8460241968175912 -0.45843889827553375
vn 0.4512992775127821 -0.5079863746881929 0.7336748634426479
vn -0.4512992775127821 0.5079863746881929 -0.7336748634426479
vn 0.5094804262731395 -0.1959997101074105 0.8378626432073165
vn -0.5094804262731395 0.1959997101074105 -0.8378626432073165
vn 0.4746805007092178 0.19484660029111917 0.8583200012824117
vn 0.4300929149549889 0.08851620307784366 0.8984347312399507
vn -0.4746805007092178 -0.19484660029111917 -0.8583200012824117
vn -0.4300929149549889 -0.08851620307784366 -0.8984347312399507
vn 0.6993290878736128 0.25128189564276426 0.669175788396472
vn -0.6993290878736128 -0.25128189564276426 -0.669175788396472
vn 0.8357648272720348 0.3750233122374721 0.4010669130873071
vn -0.8357648272720348 -0.3750233122374721 -0.4010669130873071
vn 0.8716461793809832 0.4882617884500406 -0.04281779898713373
vn 0.8482399474067537 0.5227372292149352 0.08505751475372653
vn -0.8482399474067537 -0.5227372292149352 -0.08505751475372653
vn -0.8716461793809832 -0.4882617884500406 0.04281779898713373
vn 0.729254895794234 0.640568496305707 -0.2405395986127575
vn -0.729254895794234 -0.640568496305707 0.2405395986127575
vn -0.2745645993744965 -0.9001938979492099 0.33803139922990844
vn 0.2745645993744965 0.9001938979492099 -0.33803139922990844
vn 0 -0.810091064365707 0.5863040742096508
vn 0 -0.8816777766721994 0.47185198751554186
vn 0 0.810091064365707 -0.5863040742096508
vn 0 0.8816777766721994 -0.47185198751554186
vn 0.23640640117746936 -0.5963058029700206 0.7671580038209838
vn -0.23640640117746936 0.5963058029700206 -0.7671580038209838
vn 0.3659017922545013 -0.30507259354214894 0.8792306813882297
vn -0.3659017922545013 0.30507259354214894 -0.8792306813882297
vn 0.3563744894343805 -0.006328434812377816 0.9343217722996774
vn -0.3563744894343805 0.006328434812377816 -0.9343217722996774
vn 0.23998949684717877 0.284130396267285 0.9282644878050832
vn 0.21731849948338394 0.23043299945220755 0.9485110977451711
vn -0.23998949684717877 -0.284130396267285 -0.9282644878050832
vn -0.21731849948338394 -0.23043299945220755 -0.9485110977451711
vn 0.489558595693495 0.30653389730351005 0.8163144928191183
vn -0.489558595693495 -0.30653389730351005 -0.8163144928191183
vn 0.6781434304556729 0.4109029184538024 0.6093277273651344
vn -0.6781434304556729 -0.4109029184538024 -0.6093277273651344
vn 0.7576191144421486 0.5626119107248149 0.3308793063074018
vn -0.7576191144421486 -0.5626119107248149 -0.3308793063074018
vn 0.7229097042519597 0.6812679040070339 -0.1152198006776916
vn 0.7034609289774308 0.7105808292707186 0.014751490607653382
vn -0.7034609289774308 -0.7105808292707186 -0.014751490607653382
vn -0.7229097042519597 -0.6812679040070339 0.1152198006776916
vn 0.5240359045983652 0.797334306996533 -0.2994067026272652
vn -0.5240359045983652 -0.797334306996533 0.2994067026272652
vn -0.27217059897620166 -0.8460241968175912 0.45843889827553375
vn -0.2648215032798183 -0.7754326096037447 0.573213607099259
vn 0.27217059897620166 0.8460241968175912 -0.45843889827553375
vn 0.2648215032798183 0.7754326096037447 -0.573213607099259
vn 0 -0.6271808617806972 0.7788736525368039
vn 0 0.6271808617806972 -0.7788736525368039
vn 0.19162640726733773 -0.37650811427888625 0.9063779343739395
vn -0.19162640726733773 0.37650811427888625 -0.9063779343739395
vn 0.2558301044609952 -0.0824490214376914 0.9631994167956308
vn -0.2558301044609952 0.0824490214376914 -0.9631994167956308
vn 0.17991599718391707 0.1826390971412943 0.966578084870917
vn -0.17991599718391707 -0.1826390971412943 -0.966578084870917
vn 0.12563760233932633 0.3190124059398944 0.939386117491027
vn 0.11386849663217358 0.29083849139802836 0.9499720719031942
vn -0.12563760233932633 -0.3190124059398944 -0.939386117491027
vn -0.11386849663217358 -0.29083849139802836 -0.9499720719031942
vn 0.24756340202879568 0.34059870279122484 0.9070308074331676
vn 0.3802263864298954 0.3251385883959534 0.8658595690978709
vn -0.3802263864298954 -0.3251385883959534 -0.8658595690978709
vn -0.24756340202879568 -0.34059870279122484 -0.9070308074331676
vn 0.4746804990485576 0.41826459916163655 0.7744243984477556
vn -0.4746804990485576 -0.41826459916163655 -0.7744243984477556
vn 0.6146175690129927 0.5630706716118186 0.5524460721474764
vn -0.6146175690129927 -0.5630706716118186 -0.5524460721474764
vn 0.6281964123913597 0.7303442144062552 0.26826590529162436
vn -0.6281964123913597 -0.7303442144062552 -0.26826590529162436
vn 0.5054669058937958 0.8618332100490633 -0.04179384048732026
vn 0.5194709852636681 0.8366883762648579 -0.17350059507814194
vn -0.5054669058937958 -0.8618332100490633 0.04179384048732026
vn -0.5194709852636681 -0.8366883762648579 0.17350059507814194
vn -0.5194710190360444 -0.7440892272671913 0.42009651539446
vn -0.5054668835087743 -0.6763288779342772 0.5358007825191085
vn 0.5194710190360444 0.7440892272671913 -0.42009651539446
vn 0.5054668835087743 0.6763288779342772 -0.5358007825191085
vn -0.23640640117746936 -0.5963058029700206 0.7671580038209838
vn 0.23640640117746936 0.5963058029700206 -0.7671580038209838
vn 0 -0.4014671166187379 0.9158734379125953
vn 0 0.4014671166187379 -0.9158734379125953
vn 0.13393439321931974 -0.1322415933050211 0.9821271502779678
vn -0.13393439321931974 0.1322415933050211 -0.9821271502779678
vn 0.1290377978406467 0.14438289758385744 0.9810722835824718
vn -0.1290377978406467 -0.14438289758385744 -0.9810722835824718
vn 0.09438953801546793 0.2656738944142286 0.9594310798280427
vn -0.09438953801546793 -0.2656738944142286 -0.9594310798280427
vn 0 0.3515416202868696 0.9361722540249108
vn 0 -0.3515416202868696 -0.9361722540249108
vn 0.12956249837875464 0.34857859563815563 0.9282814883842003
vn -0.12956249837875464 -0.34857859563815563 -0.9282814883842003
vn 0.2399895051648418 0.3970864085457422 0.8858484190644461
vn -0.2399895051648418 -0.3970864085457422 -0.8858484190644461
vn 0.43009288986940725 0.5247177876405716 0.7346368826960473
vn -0.43009288986940725 -0.5247177876405716 -0.7346368826960473
vn 0.5094804072937394 0.6990429100075227 0.5017656071832941
vn -0.5094804072937394 -0.6990429100075227 -0.5017656071832941
vn 0.451299292168019 0.8653408849826191 0.21797729621715795
vn -0.451299292168019 -0.8653408849826191 -0.21797729621715795
vn 0.2648214898235284 0.9610675630684171 -0.0788588469696384
vn 0.27217059538878785 0.9386659840967833 -0.2117293964128042
vn -0.2648214898235284 -0.9610675630684171 0.0788588469696384
vn -0.27217059538878785 -0.9386659840967833 0.2117293964128042
vn -0.7229097222947314 -0.5887221181563496 0.3616736111541119
vn -0.7034608968021194 -0.5252419976122894 0.47881479782334374
vn 0.7229097222947314 0.5887221181563496 -0.3616736111541119
vn 0.7034608968021194 0.5252419976122894 -0.47881479782334374
vn -0.4512992775127821 -0.5079863746881929 0.7336748634426479
vn 0.4512992775127821 0.5079863746881929 -0.7336748634426479
vn -0.19162640726733773 -0.37650811427888625 0.9063779343739395
vn 0.19162640726733773 0.37650811427888625 -0.9063779343739395
vn 0 -0.14962560396667604 0.9887427262122375
vn 0 0.14962560396667604 -0.9887427262122375
vn 0.0675068879744163 0.11942069641671185 0.9905460702780851
vn -0.0675068879744163 -0.11942069641671185 -0.9905460702780851
vn 0.0677883169937254 0.24544628911495384 0.9670371571138601
vn -0.0677883169937254 -0.24544628911495384 -0.9670371571138601
vn -0.21731849948338394 0.23043299945220755 0.9485110977451711
vn -0.12563760233932633 0.3190124059398944 0.939386117491027
vn -0.11386849663217358 0.29083849139802836 0.9499720719031942
vn -0.23998949684717877 0.284130396267285 0.9282644878050832
vn 0.23998949684717877 -0.284130396267285 -0.9282644878050832
vn 0.21731849948338394 -0.23043299945220755 -0.9485110977451711
vn 0.12563760233932633 -0.3190124059398944 -0.939386117491027
vn 0.11386849663217358 -0.29083849139802836 -0.9499720719031942
vn -0.17991599718391707 0.1826390971412943 0.966578084870917
vn -0.09438953801546793 0.2656738944142286 0.9594310798280427
vn 0.17991599718391707 -0.1826390971412943 -0.966578084870917
vn 0.09438953801546793 -0.2656738944142286 -0.9594310798280427
vn -0.1290377978406467 0.14438289758385744 0.9810722835824718
vn -0.0677883169937254 0.24544628911495384 0.9670371571138601
vn 0.1290377978406467 -0.14438289758385744 -0.9810722835824718
vn 0.0677883169937254 -0.24544628911495384 -0.9670371571138601
vn -0.0675068879744163 0.11942069641671185 0.9905460702780851
vn -0.035500820890737396 0.23219690582596275 0.9720207243885968
vn 0.0675068879744163 -0.11942069641671185 -0.9905460702780851
vn 0.035500820890737396 -0.23219690582596275 -0.9720207243885968
vn 0 0.11071879706392113 0.9938517736447011
vn 0 0.2275674070040639 0.9737623299704332
vn 0 -0.11071879706392113 -0.9938517736447011
vn 0 -0.2275674070040639 -0.9737623299704332
vn 0.035500820890737396 0.23219690582596275 0.9720207243885968
vn -0.035500820890737396 -0.23219690582596275 -0.9720207243885968
vn 0.12563759681972989 0.3781462904279658 0.9171807767833621
vn -0.12563759681972989 -0.3781462904279658 -0.9171807767833621
vn 0.21731848827772154 0.4508381756815414 0.86574685330114
vn 0.11386850505014004 0.4063243180207397 0.9066060402085501
vn -0.11386850505014004 -0.4063243180207397 -0.9066060402085501
vn -0.21731848827772154 -0.4508381756815414 -0.86574685330114
vn 0.1799160017614487 0.49871110488257847 0.8478900083011781
vn 0.0943895432210252 0.43149511472468854 0.8971636306155383
vn -0.0943895432210252 -0.43149511472468854 -0.8971636306155383
vn -0.1799160017614487 -0.49871110488257847 -0.8478900083011781
vn 0.12903780200420614 0.5370519083414526 0.8336213129477481
vn 0.06778831721606428 0.45172968144833114 0.8895757634668356
vn -0.06778831721606428 -0.45172968144833114 -0.8895757634668356
vn -0.12903780200420614 -0.5370519083414526 -0.8336213129477481
vn 0.06750689144897733 0.5620801120645655 0.8243232176933886
vn 0.035500821648200016 0.4649845215878803 0.8846067410697211
vn -0.035500821648200016 -0.4649845215878803 -0.8846067410697211
vn -0.06750689144897733 -0.5620801120645655 -0.8243232176933886
vn 0 0.5708069831738973 0.8210842757962876
vn 0 0.4696161107312681 0.8828707201746115
vn 0 -0.4696161107312681 -0.8828707201746115
vn 0 -0.5708069831738973 -0.8210842757962876
vn -0.035500821648200016 0.4649845215878803 0.8846067410697211
vn -0.06750689144897733 0.5620801120645655 0.8243232176933886
vn 0.035500821648200016 -0.4649845215878803 -0.8846067410697211
vn 0.06750689144897733 -0.5620801120645655 -0.8243232176933886
vn -0.06778831721606428 0.45172968144833114 0.8895757634668356
vn -0.12903780200420614 0.5370519083414526 0.8336213129477481
vn 0.06778831721606428 -0.45172968144833114 -0.8895757634668356
vn 0.12903780200420614 -0.5370519083414526 -0.8336213129477481
vn -0.0943895432210252 0.43149511472468854 0.8971636306155383
vn -0.1799160017614487 0.49871110488257847 0.8478900083011781
vn 0.0943895432210252 -0.43149511472468854 -0.8971636306155383
vn 0.1799160017614487 -0.49871110488257847 -0.8478900083011781
vn -0.11386850505014004 0.4063243180207397 0.9066060402085501
vn -0.21731848827772154 0.4508381756815414 0.86574685330114
vn 0.11386850505014004 -0.4063243180207397 -0.9066060402085501
vn 0.21731848827772154 -0.4508381756815414 -0.86574685330114
vn -0.12563759681972989 0.3781462904279658 0.9171807767833621
vn -0.2399895051648418 0.3970864085457422 0.8858484190644461
vn 0.12563759681972989 -0.3781462904279658 -0.9171807767833621
vn 0.2399895051648418 -0.3970864085457422 -0.8858484190644461
vn -0.24756340202879568 0.34059870279122484 0.9070308074331676
vn -0.12956249837875464 0.34857859563815563 0.9282814883842003
vn 0.24756340202879568 -0.34059870279122484 -0.9070308074331676
vn 0.12956249837875464 -0.34857859563815563 -0.9282814883842003
vn 0.3563744983295391 0.6197414970950391 0.6992264967224633
vn -0.3563744983295391 -0.6197414970950391 -0.6992264967224633
vn 0.3659017884313126 0.808385774441332 0.4611163854209205
vn -0.3659017884313126 -0.808385774441332 -0.4611163854209205
vn 0.2364064120522545 0.9538698486293162 0.18505220943416192
vn -0.2364064120522545 -0.9538698486293162 -0.18505220943416192
vn 0 0.9957759653406675 -0.09181626680421014
vn 0 0.9743359190921027 -0.22509890441081057
vn 0 -0.9957759653406675 0.09181626680421014
vn 0 -0.9743359190921027 0.22509890441081057
vn -0.8716461648859747 -0.395764484056737 0.2891425883519705
vn -0.848239908661929 -0.33755050344694765 0.4081038041674131
vn 0.848239908661929 0.33755050344694765 -0.4081038041674131
vn 0.8716461648859747 0.395764484056737 -0.2891425883519705
vn -0.6281964048184046 -0.3732556028629528 0.6826782052362919
vn 0.6281964048184046 0.3732556028629528 -0.6826782052362919
vn -0.3659017922545013 -0.30507259354214894 0.8792306813882297
vn 0.3659017922545013 0.30507259354214894 -0.8792306813882297
vn -0.13393439321931974 -0.1322415933050211 0.9821271502779678
vn 0.13393439321931974 0.1322415933050211 -0.9821271502779678
vn 0 -0.030027329341534847 0.999549078081019
vn 0 0.030027329341534847 -0.999549078081019
vn -0.4300929149549889 0.08851620307784366 0.8984347312399507
vn -0.4746805007092178 0.19484660029111917 0.8583200012824117
vn 0.4746805007092178 -0.19484660029111917 -0.8583200012824117
vn 0.4300929149549889 -0.08851620307784366 -0.8984347312399507
vn -0.3563744894343805 -0.006328434812377816 0.9343217722996774
vn 0.3563744894343805 0.006328434812377816 -0.9343217722996774
vn -0.2558301044609952 -0.0824490214376914 0.9631994167956308
vn 0.2558301044609952 0.0824490214376914 -0.9631994167956308
vn 0.25583010121147576 0.696055303296149 0.6708636031768546
vn -0.25583010121147576 -0.696055303296149 -0.6708636031768546
vn 0.13393440392238026 0.7459993218472096 0.6523393191042988
vn -0.13393440392238026 -0.7459993218472096 -0.6523393191042988
vn 0 0.7634410777932323 0.6458774812128908
vn 0 0.6805159071176177 0.7327333076637677
vn 0 -0.6805159071176177 -0.7327333076637677
vn 0 -0.7634410777932323 -0.6458774812128908
vn -0.13393440392238026 0.7459993218472096 0.6523393191042988
vn 0.13393440392238026 -0.7459993218472096 -0.6523393191042988
vn -0.25583010121147576 0.696055303296149 0.6708636031768546
vn 0.25583010121147576 -0.696055303296149 -0.6708636031768546
vn -0.3563744983295391 0.6197414970950391 0.6992264967224633
vn 0.3563744983295391 -0.6197414970950391 -0.6992264967224633
vn -0.43009288986940725 0.5247177876405716 0.7346368826960473
vn 0.43009288986940725 -0.5247177876405716 -0.7346368826960473
vn -0.4746804990485576 0.41826459916163655 0.7744243984477556
vn 0.4746804990485576 -0.41826459916163655 -0.7744243984477556
vn -0.3802263864298954 0.3251385883959534 0.8658595690978709
vn -0.489558595693495 0.30653389730351005 0.8163144928191183
vn 0.489558595693495 -0.30653389730351005 -0.8163144928191183
vn 0.3802263864298954 -0.3251385883959534 -0.8658595690978709
vn 0.1916263955929599 0.880033579760913 0.4345344900065392
vn -0.1916263955929599 -0.880033579760913 -0.4345344900065392
vn 0 0.9848250605626763 0.17354999305019003
vn 0 -0.9848250605626763 -0.17354999305019003
vn -0.27217059538878785 0.9386659840967833 -0.2117293964128042
vn -0.2648214898235284 0.9610675630684171 -0.0788588469696384
vn 0.27217059538878785 -0.9386659840967833 0.2117293964128042
vn 0.2648214898235284 -0.9610675630684171 0.0788588469696384
vn -0.9614032236735837 -0.18001970443280352 0.20807870512372798
vn -0.9356199951614178 -0.12764279933989214 0.3291238982979275
vn 0.9356199951614178 0.12764279933989214 -0.3291238982979275
vn 0.9614032236735837 0.18001970443280352 -0.20807870512372798
vn -0.7576191130416138 -0.20576790354207752 0.6194133106625467
vn 0.7576191130416138 0.20576790354207752 -0.6194133106625467
vn -0.5094804262731395 -0.1959997101074105 0.8378626432073165
vn 0.5094804262731395 0.1959997101074105 -0.8378626432073165
vn -0.614617591664977 -0.060276469182571964 0.7865188893337693
vn -0.6781434275313528 0.09172091372369712 0.7291836296034895
vn 0.6781434275313528 -0.09172091372369712 -0.7291836296034895
vn 0.614617591664977 0.060276469182571964 -0.7865188893337693
vn 0 0.9050736219973756 0.4252549103356147
vn 0 -0.9050736219973756 -0.4252549103356147
vn -0.1916263955929599 0.880033579760913 0.4345344900065392
vn 0.1916263955929599 -0.880033579760913 -0.4345344900065392
vn -0.3659017884313126 0.808385774441332 0.4611163854209205
vn 0.3659017884313126 -0.808385774441332 -0.4611163854209205
vn -0.5094804072937394 0.6990429100075227 0.5017656071832941
vn 0.5094804072937394 -0.6990429100075227 -0.5017656071832941
vn -0.6146175690129927 0.5630706716118186 0.5524460721474764
vn 0.6146175690129927 -0.5630706716118186 -0.5524460721474764
vn -0.6781434304556729 0.4109029184538024 0.6093277273651344
vn 0.6781434304556729 -0.4109029184538024 -0.6093277273651344
vn -0.6993290878736128 0.25128189564276426 0.669175788396472
vn 0.6993290878736128 -0.25128189564276426 -0.669175788396472
vn -0.2364064120522545 0.9538698486293162 0.18505220943416192
vn 0.2364064120522545 -0.9538698486293162 -0.18505220943416192
vn -0.5194709852636681 0.8366883762648579 -0.17350059507814194
vn -0.5054669058937958 0.8618332100490633 -0.04179384048732026
vn 0.5194709852636681 -0.8366883762648579 0.17350059507814194
vn 0.5054669058937958 -0.8618332100490633 0.04179384048732026
vn -0.9913165891642445 0.04622660949471211 0.12310369865439398
vn -0.9647431961045617 0.09252330962640949 0.2463939990051108
vn 0.9647431961045617 -0.09252330962640949 -0.2463939990051108
vn 0.9913165891642445 -0.04622660949471211 -0.12310369865439398
vn -0.8357648094972135 -0.018346400208479444 0.5487810062360731
vn 0.8357648094972135 0.018346400208479444 -0.5487810062360731
vn -0.451299292168019 0.8653408849826191 0.21797729621715795
vn 0.451299292168019 -0.8653408849826191 -0.21797729621715795
vn -0.6281964123913597 0.7303442144062552 0.26826590529162436
vn 0.6281964123913597 -0.7303442144062552 -0.26826590529162436
vn -0.7576191144421486 0.5626119107248149 0.3308793063074018
vn 0.7576191144421486 -0.5626119107248149 -0.3308793063074018
vn -0.8357648272720348 0.3750233122374721 0.4010669130873071
vn 0.8357648272720348 -0.3750233122374721 -0.4010669130873071
vn -0.8618163649842897 0.1783090927552784 0.47484568070695865
vn 0.8618163649842897 -0.1783090927552784 -0.47484568070695865
vn -0.7229097042519597 0.6812679040070339 -0.1152198006776916
vn -0.7034609289774308 0.7105808292707186 0.014751490607653382
vn 0.7229097042519597 -0.6812679040070339 0.1152198006776916
vn 0.7034609289774308 -0.7105808292707186 -0.014751490607653382
vn -0.9614032374451299 0.27248431061283135 0.03815908148623571
vn -0.9356199830145211 0.31272589432269593 0.16376129702703657
vn 0.9356199830145211 -0.31272589432269593 -0.16376129702703657
vn 0.9614032374451299 -0.27248431061283135 -0.03815908148623571
vn -0.8482399474067537 0.5227372292149352 0.08505751475372653
vn 0.8482399474067537 -0.5227372292149352 -0.08505751475372653
vn -0.8716461793809832 0.4882617884500406 -0.04281779898713373
vn 0.8716461793809832 -0.4882617884500406 0.04281779898713373
usemtl material_0_0
f 1//1 2//2 3//1
f 2//2 1//1 4//2
f 5//3 6//4 7//3
f 8//4 7//3 6//4
f 9//5 3//1 10//5
f 3//1 9//5 1//1
f 6//4 11//6 8//4
f 12//6 8//4 11//6
f 13//7 14//8 15//9
f 14//8 13//7 16//10
f 17//11 18//12 19//13
f 20//14 19//13 18//12
f 4//2 21//15 2//2
f 21//15 4//2 22//15
f 23//16 5//3 24//16
f 7//3 24//16 5//3
f 25//17 10//5 26//17
f 10//5 25//17 9//5
f 11//6 27//18 12//6
f 28//18 12//6 27//18
f 29//19 15//9 30//20
f 15//9 29//19 13//7
f 18//12 31//21 20//14
f 32//22 20//14 31//21
f 33//23 16//10 13//7
f 16//10 33//23 34//24
f 35//25 36//26 17//11
f 18//12 17//11 36//26
f 16//10 37//27 14//8
f 37//27 16//10 38//28
f 39//29 17//11 40//30
f 19//13 40//30 17//11
f 22//15 41//31 21//15
f 41//31 22//15 42//31
f 43//32 23//16 44//32
f 24//16 44//32 23//16
f 45//33 26//17 46//33
f 26//17 45//33 25//17
f 27//18 47//34 28//18
f 48//34 28//18 47//34
f 49//35 30//20 50//36
f 30//20 49//35 29//19
f 31//21 51//37 32//22
f 52//38 32//22 51//37
f 53//39 13//7 29//19
f 13//7 53//39 33//23
f 36//26 54//40 18//12
f 31//21 18//12 54//40
f 55//41 34//24 33//23
f 34//24 55//41 56//42
f 57//43 58//44 35//25
f 36//26 35//25 58//44
f 34//24 38//28 16//10
f 38//28 34//24 59//45
f 60//46 35//25 39//29
f 17//11 39//29 35//25
f 38//28 61//47 37//27
f 61//47 38//28 62//48
f 63//49 39//29 64//50
f 40//30 64//50 39//29
f 42//31 65//51 41//31
f 65//51 42//31 66//51
f 67//52 43//32 68//52
f 44//32 68//52 43//32
f 45//33 69//53 70//53
f 69//53 45//33 46//33
f 48//34 47//34 71//54
f 72//54 71//54 47//34
f 73//55 50//36 74//56
f 50//36 73//55 49//35
f 51//37 75//57 52//38
f 76//58 52//38 75//57
f 53//39 49//35 77//59
f 49//35 53//39 29//19
f 31//21 54//40 51//37
f 78//60 51//37 54//40
f 55//41 53//39 79//61
f 53//39 55//41 33//23
f 36//26 58//44 54//40
f 80//62 54//40 58//44
f 81//63 55//41 82//64
f 55//41 81//63 56//42
f 57//43 83//65 58//44
f 84//66 58//44 83//65
f 56//42 59//45 34//24
f 59//45 56//42 85//67
f 86//68 57//43 60//46
f 35//25 60//46 57//43
f 59//45 62//48 38//28
f 62//48 59//45 87//69
f 88//70 60//46 63//49
f 39//29 63//49 60//46
f 62//48 89//71 61//47
f 89//71 62//48 90//72
f 91//73 63//49 92//74
f 64//50 92//74 63//49
f 66//51 93//75 65//51
f 93//75 66//51 94//75
f 95//76 67//52 96//76
f 68//52 96//76 67//52
f 97//77 69//53 98//77
f 69//53 97//77 70//53
f 72//54 99//78 71//54
f 100//78 71//54 99//78
f 101//79 74//56 102//80
f 74//56 101//79 73//55
f 75//57 103//81 76//58
f 104//82 76//58 103//81
f 105//83 49//35 73//55
f 49//35 105//83 77//59
f 78//60 106//84 51//37
f 75//57 51//37 106//84
f 79//61 77//59 107//85
f 77//59 79//61 53//39
f 54//40 80//62 78//60
f 108//86 78//60 80//62
f 82//64 79//61 109//87
f 79//61 82//64 55//41
f 58//44 84//66 80//62
f 110//88 80//62 84//66
f 111//89 82//64 112//90
f 82//64 111//89 81//63
f 83//65 113//91 84//66
f 114//92 84//66 113//91
f 115//93 56//42 81//63
f 56//42 115//93 85//67
f 86//68 116//94 57//43
f 83//65 57//43 116//94
f 85//67 87//69 59//45
f 87//69 85//67 117//95
f 118//96 86//68 88//70
f 60//46 88//70 86//68
f 87//69 90//72 62//48
f 90//72 87//69 119//97
f 120//98 88//70 91//73
f 63//49 91//73 88//70
f 90//72 121//99 89//71
f 121//99 90//72 122//100
f 123//101 91//73 124//102
f 92//74 124//102 91//73
f 93//75 125//103 126//103
f 125//103 93//75 94//75
f 95//76 96//76 127//104
f 128//104 127//104 96//76
f 97//77 129//104 130//104
f 129//104 97//77 98//77
f 100//78 99//78 131//103
f 132//103 131//103 99//78
f 101//79 133//105 134//106
f 133//105 101//79 102//80
f 104//82 103//81 135//107
f 136//108 135//107 103//81
f 137//109 73//55 101//79
f 73//55 137//109 105//83
f 106//84 138//110 75//57
f 103//81 75//57 138//110
f 107//85 105//83 139//111
f 105//83 107//85 77//59
f 78//60 108//86 106//84
f 140//112 106//84 108//86
f 109//87 107//85 141//113
f 107//85 109//87 79//61
f 80//62 110//88 108//86
f 142//114 108//86 110//88
f 112//90 109//87 143//115
f 109//87 112//90 82//64
f 84//66 114//92 110//88
f 144//116 110//88 114//92
f 145//117 112//90 146//118
f 112//90 145//117 111//89
f 113//91 147//119 114//92
f 148//120 114//92 147//119
f 149//121 81//63 111//89
f 81//63 149//121 115//93
f 115//93 149//121 150//122
f 151//123 152//124 116//94
f 116//94 152//124 83//65
f 113//91 83//65 152//124
f 153//125 85//67 115//93
f 85//67 153//125 117//95
f 118//96 154//126 86//68
f 116//94 86//68 154//126
f 117//95 119//97 87//69
f 119//97 117//95 155//127
f 156//128 118//96 120//98
f 88//70 120//98 118//96
f 119//97 122//100 90//72
f 122//100 119//97 157//129
f 158//130 120//98 123//101
f 91//73 123//101 120//98
f 121//99 159//131 160//132
f 159//131 121//99 122//100
f 123//101 124//102 161//133
f 162//134 161//133 124//102
f 163//78 125//103 164//78
f 125//103 163//78 126//103
f 128//104 165//77 127//104
f 166//77 127//104 165//77
f 167//76 129//104 168//76
f 129//104 167//76 130//104
f 132//103 169//75 131//103
f 170//75 131//103 169//75
f 134//106 171//135 172//136
f 171//135 134//106 133//105
f 135//107 136//108 173//137
f 174//138 173//137 136//108
f 137//109 134//106 175//139
f 134//106 137//109 101//79
f 103//81 138//110 136//108
f 176//140 136//108 138//110
f 139//111 137//109 177//141
f 137//109 139//111 105//83
f 106//84 140//112 138//110
f 178//142 138//110 140//112
f 141//113 139//111 179//143
f 139//111 141//113 107//85
f 108//86 142//114 140//112
f 180//144 140//112 142//114
f 143//115 141//113 181//145
f 141//113 143//115 109//87
f 110//88 144//116 142//114
f 182//146 142//114 144//116
f 146//118 143//115 183//147
f 143//115 146//118 112//90
f 114//92 148//120 144//116
f 184//148 144//116 148//120
f 185//149 186//149 187//149
f 186//149 185//149 188//149
f 188//149 185//149 189//149
f 189//149 185//149 190//149
f 189//149 190//149 191//149
f 191//149 190//149 192//149
f 191//149 192//149 193//149
f 193//149 192//149 194//149
f 193//149 194//149 195//149
f 195//149 194//149 196//149
f 195//149 196//149 197//149
f 197//149 196//149 198//149
f 197//149 198//149 199//149
f 199//149 198//149 200//149
f 199//149 200//149 201//149
f 201//149 200//149 202//149
f 202//149 200//149 203//149
f 202//149 203//149 204//149
f 204//149 203//149 205//149
f 204//149 205//149 206//149
f 206//149 205//149 207//149
f 206//149 207//149 208//149
f 208//149 207//149 209//149
f 208//149 209//149 210//149
f 210//149 209//149 211//149
f 211//149 209//149 212//149
f 186//149 213//149 214//149
f 213//149 186//149 188//149
f 214//149 213//149 215//149
f 214//149 215//149 216//149
f 216//149 215//149 217//149
f 216//149 217//149 218//149
f 218//149 217//149 219//149
f 218//149 219//149 220//149
f 218//149 220//149 221//149
f 221//149 220//149 222//149
f 221//149 222//149 223//149
f 223//149 222//149 224//149
f 223//149 224//149 225//149
f 225//149 224//149 226//149
f 225//149 226//149 227//149
f 225//149 227//149 228//149
f 228//149 227//149 229//149
f 228//149 229//149 230//149
f 230//149 229//149 231//149
f 230//149 231//149 232//149
f 232//149 231//149 233//149
f 232//149 233//149 211//149
f 211//149 233//149 210//149
f 234//150 235//150 236//150
f 236//150 235//150 237//150
f 235//150 238//150 237//150
f 237//150 238//150 239//150
f 238//150 240//150 239//150
f 239//150 240//150 241//150
f 240//150 242//150 241//150
f 241//150 242//150 243//150
f 242//150 244//150 243//150
f 244//150 245//150 243//150
f 243//150 245//150 246//150
f 245//150 247//150 246//150
f 246//150 247//150 248//150
f 247//150 249//150 248//150
f 248//150 249//150 250//150
f 249//150 251//150 250//150
f 251//150 252//150 250//150
f 250//150 252//150 253//150
f 252//150 254//150 253//150
f 253//150 254//150 255//150
f 254//150 256//150 255//150
f 257//150 258//150 256//150
f 255//150 256//150 258//150
f 259//150 260//150 236//150
f 236//150 260//150 234//150
f 234//150 260//150 261//150
f 260//150 262//150 261//150
f 261//150 262//150 263//150
f 262//150 264//150 263//150
f 263//150 264//150 265//150
f 264//150 266//150 265//150
f 265//150 266//150 267//150
f 266//150 268//150 267//150
f 267//150 268//150 269//150
f 269//150 268//150 270//150
f 268//150 271//150 270//150
f 270//150 271//150 272//150
f 271//150 273//150 272//150
f 272//150 273//150 274//150
f 273//150 275//150 274//150
f 274//150 275//150 276//150
f 275//150 277//150 276//150
f 276//150 277//150 278//150
f 277//150 279//150 278//150
f 278//150 279//150 280//150
f 279//150 281//150 280//150
f 280//150 281//150 257//150
f 257//150 281//150 258//150
f 282//150 258//150 281//150
f 283//151 111//89 145//117
f 111//89 283//151 149//121
f 152//124 284//152 113//91
f 147//119 113//91 284//152
f 285//153 150//122 149//121
f 150//122 285//153 115//93
f 115//93 285//153 153//125
f 154//126 286//154 116//94
f 116//94 286//154 151//123
f 152//124 151//123 286//154
f 287//155 117//95 153//125
f 117//95 287//155 155//127
f 156//128 288//156 118//96
f 154//126 118//96 288//156
f 119//97 289//157 157//129
f 289//157 119//97 155//127
f 156//128 120//98 290//158
f 158//130 290//158 120//98
f 122//100 291//159 159//131
f 291//159 122//100 157//129
f 158//130 123//101 292//160
f 161//133 292//160 123//101
f 160//132 293//161 294//162
f 293//161 160//132 159//131
f 161//133 162//134 295//163
f 296//164 295//163 162//134
f 163//78 297//54 298//54
f 297//54 163//78 164//78
f 166//77 165//77 299//53
f 300//53 299//53 165//77
f 301//52 167//76 168//76
f 167//76 301//52 302//52
f 303//51 304//51 169//75
f 170//75 169//75 304//51
f 172//136 305//165 306//166
f 305//165 172//136 171//135
f 173//137 174//138 307//167
f 308//168 307//167 174//138
f 175//139 172//136 309//169
f 172//136 175//139 134//106
f 136//108 176//140 174//138
f 310//170 174//138 176//140
f 137//109 311//171 177//141
f 311//171 137//109 175//139
f 176//140 138//110 312//172
f 178//142 312//172 138//110
f 179//143 177//141 313//173
f 177//141 179//143 139//111
f 140//112 180//144 178//142
f 314//174 178//142 180//144
f 181//145 179//143 315//175
f 179//143 181//145 141//113
f 142//114 182//146 180//144
f 316//176 180//144 182//146
f 183//147 181//145 317//177
f 181//145 183//147 143//115
f 144//116 184//148 182//146
f 318//178 182//146 184//148
f 319//179 320//180 321//181
f 320//180 319//179 322//182
f 323//183 324//184 325//185
f 326//186 325//185 324//184
f 327//187 321//181 328//188
f 321//181 327//187 319//179
f 324//184 329//189 326//186
f 330//190 326//186 329//189
f 331//191 328//188 332//192
f 328//188 331//191 327//187
f 329//189 333//193 330//190
f 334//194 330//190 333//193
f 335//195 332//192 336//196
f 332//192 335//195 331//191
f 333//193 337//197 334//194
f 338//198 334//194 337//197
f 339//199 336//196 340//200
f 336//196 339//199 335//195
f 337//197 341//201 338//198
f 342//202 338//198 341//201
f 343//203 339//199 340//200
f 339//199 343//203 315//175
f 316//176 344//204 341//201
f 342//202 341//201 344//204
f 317//177 315//175 343//203
f 315//175 317//177 181//145
f 182//146 318//178 316//176
f 344//204 316//176 318//178
f 345//205 149//121 283//151
f 149//121 345//205 285//153
f 286//154 346//206 152//124
f 284//152 152//124 346//206
f 345//205 347//207 285//153
f 347//207 345//205 348//208
f 349//209 346//206 350//210
f 286//154 350//210 346//206
f 348//208 351//211 347//207
f 351//211 348//208 352//212
f 353//213 349//209 354//214
f 350//210 354//214 349//209
f 352//212 355//215 351//211
f 355//215 352//212 356//216
f 357//217 353//213 358//218
f 354//214 358//218 353//213
f 356//216 359//219 355//215
f 359//219 356//216 360//220
f 361//221 357//217 362//222
f 358//218 362//222 357//217
f 360//220 363//223 359//219
f 363//223 360//220 364//224
f 365//225 361//221 366//226
f 362//222 366//226 361//221
f 363//223 367//227 368//228
f 367//227 363//223 364//224
f 365//225 366//226 369//229
f 370//230 369//229 366//226
f 368//228 371//231 372//232
f 371//231 368//228 367//227
f 369//229 370//230 373//233
f 374//234 373//233 370//230
f 372//232 375//235 376//236
f 375//235 372//232 371//231
f 373//233 374//234 377//237
f 378//238 377//237 374//234
f 376//236 379//239 380//240
f 379//239 376//236 375//235
f 377//237 378//238 381//241
f 382//242 381//241 378//238
f 380//240 383//243 384//244
f 383//243 380//240 379//239
f 381//241 382//242 385//245
f 386//246 385//245 382//242
f 387//247 383//243 388//248
f 383//243 387//247 384//244
f 386//246 389//249 385//245
f 390//250 385//245 389//249
f 322//182 388//248 320//180
f 388//248 322//182 387//247
f 389//249 323//183 390//250
f 325//185 390//250 323//183
f 285//153 287//155 153//125
f 287//155 285//153 347//207
f 350//210 286//154 288//156
f 154//126 288//156 286//154
f 287//155 289//157 155//127
f 289//157 287//155 391//251
f 392//252 288//156 290//158
f 156//128 290//158 288//156
f 157//129 393//253 291//159
f 393//253 157//129 289//157
f 290//158 158//130 394//254
f 292//160 394//254 158//130
f 159//131 395//255 293//161
f 395//255 159//131 291//159
f 292//160 161//133 396//256
f 295//163 396//256 161//133
f 294//162 397//257 398//258
f 397//257 294//162 293//161
f 295//163 296//164 399//259
f 400//260 399//259 296//164
f 298//54 401//34 402//34
f 401//34 298//54 297//54
f 299//53 300//53 403//33
f 404//33 403//33 300//53
f 405//32 302//52 301//52
f 302//52 405//32 406//32
f 407//31 408//31 303//51
f 304//51 303//51 408//31
f 409//261 306//166 305//165
f 306//166 409//261 410//262
f 411//263 412//264 308//168
f 307//167 308//168 412//264
f 172//136 413//265 309//169
f 413//265 172//136 306//166
f 308//168 174//138 414//266
f 310//170 414//266 174//138
f 175//139 415//267 311//171
f 415//267 175//139 309//169
f 310//170 176//140 416//268
f 312//172 416//268 176//140
f 177//141 417//269 313//173
f 417//269 177//141 311//171
f 312//172 178//142 418//270
f 314//174 418//270 178//142
f 315//175 419//271 339//199
f 419//271 315//175 313//173
f 313//173 315//175 179//143
f 180//144 316//176 314//174
f 314//174 316//176 420//272
f 341//201 420//272 316//176
f 421//273 322//182 319//179
f 322//182 421//273 422//274
f 423//275 424//276 323//183
f 324//184 323//183 424//276
f 425//277 319//179 327//187
f 319//179 425//277 421//273
f 424//276 426//278 324//184
f 329//189 324//184 426//278
f 427//279 327//187 331//191
f 327//187 427//279 425//277
f 426//278 428//280 329//189
f 333//193 329//189 428//280
f 417//269 331//191 335//195
f 331//191 417//269 427//279
f 428//280 418//270 333//193
f 337//197 333//193 418//270
f 419//271 335//195 339//199
f 335//195 419//271 313//173
f 335//195 313//173 417//269
f 418//270 314//174 337//197
f 314//174 420//272 337//197
f 341//201 337//197 420//272
f 347//207 391//251 287//155
f 391//251 347//207 351//211
f 354//214 350//210 392//252
f 288//156 392//252 350//210
f 351//211 429//281 391//251
f 429//281 351//211 355//215
f 358//218 354//214 430//282
f 392//252 430//282 354//214
f 355//215 431//283 429//281
f 431//283 355//215 359//219
f 362//222 358//218 432//284
f 430//282 432//284 358//218
f 359//219 433//285 431//283
f 433//285 359//219 434//286
f 434//286 359//219 363//223
f 366//226 362//222 435//287
f 435//287 362//222 436//288
f 432//284 436//288 362//222
f 433//285 368//228 437//289
f 368//228 433//285 363//223
f 363//223 433//285 434//286
f 435//287 436//288 366//226
f 366//226 436//288 370//230
f 438//290 370//230 436//288
f 437//289 372//232 439//291
f 372//232 437//289 368//228
f 370//230 438//290 374//234
f 440//292 374//234 438//290
f 439//291 376//236 441//293
f 376//236 439//291 372//232
f 374//234 440//292 378//238
f 442//294 378//238 440//292
f 441//293 380//240 443//295
f 380//240 441//293 376//236
f 378//238 442//294 382//242
f 444//296 382//242 442//294
f 443//295 384//244 445//297
f 384//244 443//295 380//240
f 382//242 444//296 386//246
f 446//298 386//246 444//296
f 447//299 384//244 387//247
f 384//244 447//299 448//300
f 384//244 448//300 445//297
f 446//298 449//301 386//246
f 449//301 450//302 386//246
f 389//249 386//246 450//302
f 422//274 387//247 322//182
f 387//247 422//274 448//300
f 387//247 448//300 447//299
f 450//302 449//301 389//249
f 449//301 423//275 389//249
f 323//183 389//249 423//275
f 289//157 429//281 393//253
f 429//281 289//157 391//251
f 392//252 290//158 430//282
f 394//254 430//282 290//158
f 291//159 451//303 395//255
f 451//303 291//159 393//253
f 394//254 292//160 452//304
f 396//256 452//304 292//160
f 293//161 453//305 397//257
f 453//305 293//161 395//255
f 396//256 295//163 454//306
f 399//259 454//306 295//163
f 455//307 397//257 456//308
f 397//257 455//307 398//258
f 400//260 457//309 399//259
f 458//310 399//259 457//309
f 402//34 459//18 460//18
f 459//18 402//34 401//34
f 403//33 404//33 461//17
f 462//17 461//17 404//33
f 463//16 406//32 405//32
f 406//32 463//16 464//16
f 465//15 466//15 407//31
f 408//31 407//31 466//15
f 467//311 410//262 409//261
f 410//262 467//311 468//312
f 469//313 470//314 411//263
f 412//264 411//263 470//314
f 410//262 413//265 306//166
f 413//265 410//262 471//315
f 472//316 411//263 414//266
f 308//168 414//266 411//263
f 309//169 473//317 415//267
f 473//317 309//169 413//265
f 414//266 310//170 474//318
f 416//268 474//318 310//170
f 311//171 427//279 417//269
f 427//279 311//171 415//267
f 416//268 312//172 428//280
f 418//270 428//280 312//172
f 475//319 422//274 421//273
f 422//274 475//319 476//320
f 477//321 478//322 423//275
f 424//276 423//275 478//322
f 473//317 421//273 425//277
f 421//273 473//317 475//319
f 478//322 474//318 424//276
f 426//278 424//276 474//318
f 415//267 425//277 427//279
f 425//277 415//267 473//317
f 474//318 416//268 426//278
f 428//280 426//278 416//268
f 393//253 431//283 451//303
f 431//283 393//253 429//281
f 430//282 394//254 432//284
f 452//304 432//284 394//254
f 451//303 433//285 479//323
f 433//285 451//303 431//283
f 432//284 452//304 436//288
f 480//324 436//288 452//304
f 481//325 433//285 437//289
f 433//285 481//325 479//323
f 480//324 482//326 436//288
f 438//290 436//288 482//326
f 483//327 437//289 439//291
f 437//289 483//327 481//325
f 482//326 484//328 438//290
f 440//292 438//290 484//328
f 485//329 439//291 441//293
f 439//291 485//329 483//327
f 484//328 486//330 440//292
f 442//294 440//292 486//330
f 485//329 443//295 487//331
f 443//295 485//329 441//293
f 442//294 486//330 444//296
f 488//332 444//296 486//330
f 489//333 443//295 445//297
f 443//295 489//333 487//331
f 488//332 490//334 444//296
f 446//298 444//296 490//334
f 491//335 445//297 448//300
f 445//297 491//335 489//333
f 490//334 492//336 446//298
f 449//301 446//298 492//336
f 476//320 448//300 422//274
f 448//300 476//320 491//335
f 492//336 477//321 449//301
f 423//275 449//301 477//321
f 395//255 479//323 453//305
f 479//323 395//255 451//303
f 452//304 396//256 480//324
f 454//306 480//324 396//256
f 456//308 453//305 493//337
f 453//305 456//308 397//257
f 399//259 458//310 454//306
f 494//338 454//306 458//310
f 495//339 456//308 496//340
f 456//308 495//339 455//307
f 457//309 497//341 458//310
f 498//342 458//310 497//341
f 460//18 499//6 500//6
f 499//6 460//18 459//18
f 461//17 462//17 501//5
f 502//5 501//5 462//17
f 503//3 464//16 463//16
f 464//16 503//3 504//3
f 505//2 506//2 465//15
f 466//15 465//15 506//2
f 507//343 468//312 467//311
f 468//312 507//343 508//344
f 509//345 510//346 469//313
f 470//314 469//313 510//346
f 468//312 471//315 410//262
f 471//315 468//312 511//347
f 512//348 469//313 472//316
f 411//263 472//316 469//313
f 413//265 475//319 473//317
f 475//319 413//265 471//315
f 472//316 414//266 478//322
f 474//318 478//322 414//266
f 511//347 475//319 471//315
f 475//319 511//347 476//320
f 477//321 512//348 478//322
f 472//316 478//322 512//348
f 493//337 479//323 481//325
f 479//323 493//337 453//305
f 454//306 494//338 480//324
f 482//326 480//324 494//338
f 513//349 481//325 483//327
f 481//325 513//349 493//337
f 494//338 514//350 482//326
f 484//328 482//326 514//350
f 515//351 483//327 485//329
f 483//327 515//351 513//349
f 514//350 516//352 484//328
f 486//330 484//328 516//352
f 517//353 485//329 487//331
f 485//329 517//353 515//351
f 516//352 518//354 486//330
f 488//332 486//330 518//354
f 517//353 489//333 519//355
f 489//333 517//353 487//331
f 488//332 518//354 490//334
f 520//356 490//334 518//354
f 519//355 491//335 521//357
f 491//335 519//355 489//333
f 490//334 520//356 492//336
f 522//358 492//336 520//356
f 521//357 476//320 511//347
f 476//320 521//357 491//335
f 492//336 522//358 477//321
f 512//348 477//321 522//358
f 496//340 493//337 513//349
f 493//337 496//340 456//308
f 458//310 498//342 494//338
f 514//350 494//338 498//342
f 523//359 496//340 524//360
f 496//340 523//359 495//339
f 497//341 525//361 498//342
f 526//362 498//342 525//361
f 500//6 527//4 528//4
f 527//4 500//6 499//6
f 501//5 502//5 529//1
f 530//1 529//1 502//5
f 528//4 504//3 503//3
f 504//3 528//4 527//4
f 529//1 530//1 505//2
f 506//2 505//2 530//1
f 531//363 508//344 507//343
f 508//344 531//363 532//364
f 533//365 534//366 509//345
f 510//346 509//345 534//366
f 508//344 511//347 468//312
f 511//347 508//344 521//357
f 522//358 509//345 512//348
f 469//313 512//348 509//345
f 524//360 513//349 515//351
f 513//349 524//360 496//340
f 498//342 526//362 514//350
f 516//352 514//350 526//362
f 524//360 517//353 535//367
f 517//353 524//360 515//351
f 516//352 526//362 518//354
f 536//368 518//354 526//362
f 535//367 519//355 532//364
f 519//355 535//367 517//353
f 518//354 536//368 520//356
f 533//365 520//356 536//368
f 532//364 521//357 508//344
f 521//357 532//364 519//355
f 520//356 533//365 522//358
f 509//345 522//358 533//365
f 523//359 535//367 537//369
f 535//367 523//359 524//360
f 526//362 525//361 536//368
f 538//370 536//368 525//361
f 537//369 532//364 531//363
f 532//364 537//369 535//367
f 536//368 538//370 533//365
f 534//366 533//365 538//370
