# SSTK version 0.8.0
# 51
mtllib original-51.mtl
o #ID404
v -0.009445 0.482431 0.458232
v -0.015872 0.484135 0.458905
v -0.015912 0.483556 0.457809
v -0.009425 0.483014 0.459326
v -0.009503 0.481586 0.457324
v -0.016027 0.482721 0.456899
v -0.002874 0.482054 0.458373
v -0.002874 0.482639 0.459468
v -0.022115 0.485984 0.458211
v -0.022173 0.485410 0.457113
v -0.016211 0.481688 0.456235
v -0.009595 0.480538 0.456668
v -0.002874 0.481206 0.457468
v -0.022345 0.484592 0.456196
v 0.003697 0.482431 0.458232
v 0.003677 0.483014 0.459326
v -0.028054 0.488532 0.457254
v -0.028131 0.487966 0.456153
v -0.016450 0.480527 0.455865
v -0.009715 0.479356 0.456304
v -0.002874 0.480152 0.456812
v -0.022617 0.483585 0.455523
v 0.003755 0.481586 0.457324
v -0.028355 0.487170 0.455228
v 0.010125 0.484135 0.458905
v 0.010164 0.483556 0.457809
v -0.033596 0.491738 0.456051
v -0.033690 0.491182 0.454945
v -0.016728 0.479317 0.455812
v -0.009856 0.478122 0.456261
v -0.002874 0.478964 0.456451
v -0.022971 0.482459 0.455140
v 0.003848 0.480538 0.456668
v -0.028712 0.486200 0.454541
v 0.010280 0.482721 0.456899
v -0.033965 0.490415 0.454010
v 0.016368 0.485984 0.458211
v 0.016426 0.485410 0.457113
v -0.038654 0.495552 0.454618
v -0.038764 0.495008 0.453509
v -0.017027 0.478141 0.456081
v -0.010006 0.476920 0.456538
v -0.002874 0.477722 0.456410
v -0.023385 0.481289 0.455072
v 0.003968 0.479356 0.456304
v -0.029178 0.485121 0.454140
v 0.010463 0.481688 0.456235
v -0.034402 0.489491 0.453305
v 0.016597 0.484592 0.456196
v -0.039085 0.494276 0.452559
v 0.022307 0.488532 0.457254
v 0.022383 0.487966 0.456153
v -0.043147 0.499914 0.452980
v -0.043271 0.499383 0.451866
v -0.002874 0.477550 0.456451
v -0.002874 0.476511 0.456693
v -0.023828 0.480156 0.455324
v 0.004108 0.478122 0.456261
v -0.029720 0.484006 0.454051
v 0.010702 0.480527 0.455865
v -0.034971 0.488472 0.452881
v 0.016869 0.483585 0.455523
v -0.039595 0.493407 0.451835
v 0.022608 0.487170 0.455228
v -0.043634 0.498692 0.450902
v 0.027849 0.491738 0.456051
v 0.027943 0.491182 0.454945
v -0.047006 0.504754 0.451163
v -0.047142 0.504239 0.450043
v 0.004259 0.476920 0.456538
v -0.030302 0.482932 0.454281
v 0.010981 0.479317 0.455812
v -0.035635 0.487428 0.452767
v 0.017224 0.482459 0.455140
v -0.040261 0.492461 0.451384
v 0.022965 0.486200 0.454541
v -0.044210 0.497887 0.450153
v 0.028217 0.490415 0.454010
v -0.047540 0.503593 0.449061
v 0.032907 0.495552 0.454618
v 0.033016 0.495008 0.453509
v -0.050168 0.509997 0.449194
v -0.050314 0.509499 0.448067
v 0.011280 0.478141 0.456081
v -0.036346 0.486429 0.452968
v 0.017637 0.481289 0.455072
v -0.041036 0.491501 0.451236
v 0.023430 0.485121 0.454140
v -0.044962 0.497024 0.449670
v 0.028655 0.489491 0.453305
v -0.048174 0.502860 0.448285
v 0.033337 0.494276 0.452559
v -0.050742 0.508902 0.447068
v 0.037400 0.499914 0.452980
v 0.037524 0.499383 0.451866
v -0.052584 0.515561 0.447105
v -0.052738 0.515080 0.445972
v 0.018080 0.480156 0.455324
v -0.041867 0.490592 0.451405
v 0.023972 0.484006 0.454051
v -0.045837 0.496161 0.449486
v 0.029224 0.488472 0.452881
v -0.049000 0.502091 0.447768
v 0.033848 0.493407 0.451835
v -0.051424 0.508248 0.446261
v 0.037886 0.498692 0.450902
v -0.053189 0.514537 0.444952
v 0.041258 0.504754 0.451163
v 0.041394 0.504239 0.450043
v -0.054217 0.521356 0.444929
v -0.054376 0.520895 0.443788
v 0.024554 0.482932 0.454281
v -0.046776 0.495358 0.449615
v 0.029887 0.487428 0.452767
v -0.049962 0.501337 0.447543
v 0.034513 0.492461 0.451384
v -0.052311 0.507581 0.445705
v 0.038463 0.497887 0.450153
v -0.053907 0.513966 0.444114
v 0.041793 0.503593 0.449061
v -0.054843 0.520406 0.442748
v 0.044420 0.509997 0.449194
v 0.044566 0.509499 0.448067
v -0.055039 0.527292 0.442700
v -0.055201 0.526850 0.441552
v 0.030599 0.486429 0.452968
v -0.050995 0.500650 0.447628
v 0.035288 0.491501 0.451236
v -0.050115 0.501593 0.447447
v 0.039214 0.497024 0.449670
v -0.050546 0.502307 0.447179
v -0.050422 0.502310 0.447223
v -0.051451 0.503807 0.446616
v -0.051626 0.504098 0.446506
v -0.053252 0.506793 0.445495
v -0.054842 0.513409 0.443517
v 0.042427 0.502860 0.448285
v -0.055585 0.519924 0.441878
v 0.044995 0.508902 0.447068
v -0.055676 0.526419 0.440490
v 0.046837 0.515561 0.447105
v 0.046991 0.515080 0.445972
v -0.055039 0.533276 0.440452
v -0.055201 0.532853 0.439297
v 0.036120 0.490592 0.451405
v -0.051987 0.502295 0.447011
v -0.050823 0.502305 0.447147
v 0.040089 0.496161 0.449486
v -0.050760 0.502305 0.447155
v 0.043253 0.502091 0.447768
v -0.053345 0.506947 0.445437
v -0.053454 0.506725 0.445491
v -0.053539 0.506849 0.445443
v -0.055932 0.512902 0.443201
v -0.056553 0.519481 0.441237
v 0.045676 0.508248 0.446261
v -0.056431 0.526027 0.439586
v 0.047442 0.514537 0.444952
v -0.055676 0.532479 0.438214
v 0.048469 0.521356 0.444929
v 0.048628 0.520895 0.443788
v -0.054217 0.539212 0.438223
v -0.054376 0.538809 0.437061
v 0.041029 0.495358 0.449615
v 0.044215 0.501337 0.447543
v 0.046564 0.507581 0.445705
v -0.055350 0.509482 0.444369
v -0.056722 0.512616 0.443191
v -0.057680 0.519108 0.440870
v -0.057415 0.525702 0.438902
v 0.048160 0.513966 0.444114
v -0.056431 0.532179 0.437276
v 0.049095 0.520406 0.442748
v -0.054843 0.538491 0.435957
v 0.049292 0.527292 0.442700
v 0.049454 0.526850 0.441552
v -0.052584 0.545007 0.436047
v -0.052738 0.544623 0.434878
v 0.045247 0.500650 0.447628
v 0.044368 0.501593 0.447447
v 0.047504 0.506793 0.445495
v 0.049095 0.513409 0.443517
v -0.057891 0.515284 0.442134
v -0.058889 0.518829 0.440802
v -0.058561 0.525466 0.438483
v -0.057415 0.531973 0.436547
v 0.049838 0.519924 0.441878
v -0.055585 0.538282 0.434984
v 0.049928 0.526419 0.440490
v -0.053189 0.544361 0.433753
v 0.049292 0.533276 0.440452
v 0.049454 0.532853 0.439297
v -0.050168 0.550570 0.433958
v -0.050314 0.550204 0.432782
v 0.048708 0.506388 0.445473
v 0.047598 0.506947 0.445437
v 0.050184 0.512902 0.443201
v 0.050805 0.519481 0.441237
v -0.059791 0.525334 0.438360
v -0.058561 0.531875 0.436076
v -0.056553 0.538194 0.434210
v 0.050684 0.526027 0.439586
v -0.053907 0.544239 0.432747
v 0.049928 0.532479 0.438214
v -0.050742 0.549995 0.431637
v 0.048469 0.539212 0.438223
v 0.048628 0.538809 0.437061
v -0.047006 0.555813 0.431989
v -0.047142 0.555465 0.430807
v 0.051353 0.512480 0.443186
v 0.051932 0.519108 0.440870
v 0.051668 0.525702 0.438902
v -0.059791 0.531893 0.435896
v -0.057680 0.538233 0.433689
v -0.054842 0.544266 0.431930
v 0.050684 0.532179 0.437276
v -0.051424 0.549957 0.430600
v 0.049095 0.538491 0.435957
v -0.047540 0.555304 0.429643
v 0.046837 0.545007 0.436047
v 0.046991 0.544623 0.434878
v -0.043147 0.560654 0.430172
v -0.043271 0.560320 0.428984
v 0.053142 0.518829 0.440802
v 0.052814 0.525466 0.438483
v 0.051668 0.531973 0.436547
v -0.058889 0.538398 0.433453
v -0.055932 0.544439 0.431358
v -0.052311 0.550093 0.429742
v 0.049838 0.538282 0.434984
v -0.048174 0.555345 0.428576
v 0.047442 0.544361 0.433753
v -0.043634 0.560205 0.427803
v 0.044420 0.550570 0.433958
v 0.044566 0.550204 0.432782
v -0.038654 0.565016 0.428534
v -0.038764 0.564695 0.427340
v 0.054043 0.525334 0.438360
v 0.052814 0.531875 0.436076
v 0.050805 0.538194 0.434210
v -0.057101 0.544747 0.431070
v -0.053345 0.550394 0.429122
v -0.049000 0.555584 0.427681
v 0.048160 0.544239 0.432747
v -0.044210 0.560318 0.426709
v 0.044995 0.549995 0.431637
v -0.039085 0.564622 0.426144
v 0.041258 0.555813 0.431989
v 0.041394 0.555465 0.430807
v -0.033690 0.568521 0.425904
v -0.033596 0.568830 0.427101
v 0.054043 0.531893 0.435896
v 0.051932 0.538233 0.433689
v 0.049095 0.544266 0.431930
v -0.054455 0.550839 0.428781
v -0.044962 0.560651 0.425777
v 0.045676 0.549957 0.430600
v -0.039595 0.564798 0.425027
v 0.041793 0.555304 0.429643
v -0.033965 0.568483 0.424695
v 0.037400 0.560654 0.430172
v 0.037524 0.560320 0.428984
v -0.028131 0.571738 0.424696
v -0.028054 0.572036 0.425898
v 0.053142 0.538398 0.433453
v 0.050184 0.544439 0.431358
v 0.046564 0.550093 0.429742
v -0.053252 0.550548 0.429064
v -0.052990 0.550981 0.428902
v -0.050995 0.556576 0.426627
v -0.049962 0.556004 0.427016
v -0.045837 0.561179 0.425071
v -0.040261 0.565214 0.424064
v 0.042427 0.555345 0.428576
v -0.034402 0.568714 0.423557
v 0.037886 0.560205 0.427803
v -0.028355 0.571727 0.423476
v 0.032907 0.565016 0.428534
v 0.033016 0.564695 0.427340
v -0.022173 0.574293 0.423736
v -0.022115 0.574584 0.424941
v 0.051353 0.544747 0.431070
v 0.047598 0.550394 0.429122
v 0.043253 0.555584 0.427681
v -0.046776 0.561870 0.424640
v -0.041036 0.565841 0.423321
v -0.034971 0.569202 0.422566
v 0.038463 0.560318 0.426709
v -0.028712 0.572006 0.422321
v 0.033337 0.564622 0.426144
v -0.022345 0.574305 0.422508
v 0.027943 0.568521 0.425904
v 0.027849 0.568830 0.427101
v -0.015912 0.576148 0.423040
v -0.015872 0.576433 0.424247
v 0.048708 0.550839 0.428781
v 0.039214 0.560651 0.425777
v -0.041867 0.566635 0.422851
v -0.035635 0.569913 0.421792
v -0.029178 0.572554 0.421308
v 0.033848 0.564798 0.425027
v -0.022617 0.574620 0.421338
v 0.028217 0.568483 0.424695
v -0.016027 0.576177 0.421805
v 0.022383 0.571738 0.424696
v 0.022307 0.572036 0.425898
v -0.009445 0.577271 0.422618
v -0.009425 0.577554 0.423826
v 0.047504 0.550548 0.429064
v 0.047242 0.550981 0.428902
v 0.045247 0.556576 0.426627
v 0.044215 0.556004 0.427016
v 0.040089 0.561179 0.425071
v 0.034513 0.565214 0.424064
v -0.036346 0.570797 0.421288
v -0.029720 0.573334 0.420508
v -0.022971 0.575216 0.420308
v 0.028655 0.568714 0.423557
v -0.016211 0.576517 0.420626
v 0.022608 0.571727 0.423476
v -0.009503 0.577311 0.421379
v 0.016426 0.574293 0.423736
v 0.016368 0.574584 0.424941
v -0.002874 0.577649 0.422476
v -0.002874 0.577929 0.423685
v 0.041029 0.561870 0.424640
v 0.035288 0.565841 0.423321
v 0.029224 0.569202 0.422566
v -0.030302 0.574295 0.419974
v -0.023385 0.576052 0.419487
v -0.016450 0.577147 0.419582
v 0.022965 0.572006 0.422321
v -0.009595 0.577669 0.420194
v 0.016597 0.574305 0.422508
v -0.002874 0.577691 0.421237
v 0.010164 0.576148 0.423040
v 0.010125 0.576433 0.424247
v 0.003697 0.577271 0.422618
v 0.003677 0.577554 0.423826
v 0.036120 0.566635 0.422851
v 0.029887 0.569913 0.421792
v 0.023430 0.572554 0.421308
v -0.025108 0.576522 0.419138
v -0.023764 0.576925 0.419011
v -0.016728 0.578023 0.418747
v -0.009715 0.578319 0.419143
v 0.016869 0.574620 0.421338
v -0.002874 0.578054 0.420049
v 0.010280 0.576177 0.421805
v 0.003755 0.577311 0.421379
v 0.030599 0.570797 0.421288
v 0.023972 0.573334 0.420508
v 0.017224 0.575216 0.420308
v -0.023828 0.577071 0.418932
v -0.017027 0.579085 0.418175
v -0.009856 0.579218 0.418298
v -0.002874 0.578711 0.418996
v 0.010463 0.576517 0.420626
v 0.003848 0.577669 0.420194
v 0.024554 0.574295 0.419974
v 0.017637 0.576052 0.419487
v 0.010702 0.577147 0.419582
v -0.010006 0.580307 0.417716
v -0.002874 0.579619 0.418147
v 0.003968 0.578319 0.419143
v 0.018080 0.577071 0.418932
v 0.010981 0.578023 0.418747
v 0.005235 0.578098 0.419226
v -0.002874 0.579775 0.418065
v -0.002874 0.580716 0.417563
v 0.004108 0.579218 0.418298
v 0.015161 0.577936 0.418607
v 0.014151 0.578054 0.418590
v 0.010992 0.578063 0.418725
v 0.011339 0.578062 0.418711
v 0.010750 0.578063 0.418731
v 0.004259 0.580307 0.417716
v 0.011280 0.579085 0.418175
v 0.014151 0.578054 0.418590
v 0.015161 0.577936 0.418607
v 0.011339 0.578062 0.418711
vt 1.222584 11.26534
vt 1.21077 11.27327
vt 1.210697 11.27235
vt 1.222621 11.26628
vt 1.222478 11.26259
vt 1.210485 11.26966
vt 1.234661 11.26299
vt 1.234661 11.26394
vt 1.199296 11.28479
vt 1.199188 11.28391
vt 1.210148 11.26537
vt 1.222308 11.2582
vt 1.234661 11.26022
vt 1.198874 11.28132
vt 1.246739 11.26534
vt 1.246702 11.26628
vt 1.188379 11.30067
vt 1.188239 11.29984
vt 1.209708 11.25979
vt 1.222086 11.25249
vt 1.234661 11.2558
vt 1.198374 11.2772
vt 1.246845 11.26259
vt 1.187826 11.29739
vt 1.258553 11.27327
vt 1.258625 11.27235
vt 1.178193 11.32066
vt 1.178021 11.31988
vt 1.209197 11.25329
vt 1.221829 11.24584
vt 1.234661 11.25005
vt 1.197722 11.27183
vt 1.247015 11.25821
vt 1.18717 11.2935
vt 1.258837 11.26966
vt 1.177516 11.31762
vt 1.270027 11.2848
vt 1.270134 11.28391
vt 1.168897 11.34443
vt 1.168696 11.34373
vt 1.208647 11.24632
vt 1.221552 11.23871
vt 1.234661 11.24335
vt 1.196962 11.26558
vt 1.247236 11.2525
vt 1.186314 11.28843
vt 1.259175 11.26538
vt 1.176713 11.31401
vt 1.270449 11.28132
vt 1.168106 11.34168
vt 1.280944 11.30068
vt 1.281084 11.29984
vt 1.160638 11.37162
vt 1.160411 11.371
vt 1.234661 11.24233
vt 1.234661 11.23616
vt 1.196148 11.25887
vt 1.247494 11.24585
vt 1.185318 11.28252
vt 1.259614 11.2598
vt 1.175666 11.30932
vt 1.270949 11.2772
vt 1.167167 11.33842
vt 1.281497 11.2974
vt 1.159745 11.36921
vt 1.29113 11.32066
vt 1.291302 11.31989
vt 1.153547 11.40179
vt 1.153297 11.40127
vt 1.247771 11.23871
vt 1.184249 11.27618
vt 1.260126 11.2533
vt 1.174447 11.30385
vt 1.271601 11.27184
vt 1.165944 11.33418
vt 1.282153 11.2935
vt 1.158685 11.36635
vt 1.291807 11.31762
vt 1.152565 11.39976
vt 1.300426 11.34444
vt 1.300627 11.34374
vt 1.147735 11.43447
vt 1.147466 11.43406
vt 1.260676 11.24632
vt 1.173139 11.29798
vt 1.272361 11.26558
vt 1.16452 11.32923
vt 1.283009 11.28843
vt 1.157304 11.36262
vt 1.29261 11.31402
vt 1.1514 11.39735
vt 1.301217 11.34169
vt 1.146679 11.43285
vt 1.308685 11.37163
vt 1.308912 11.37101
vt 1.143294 11.46915
vt 1.143011 11.46885
vt 1.273175 11.25888
vt 1.162991 11.32393
vt 1.284005 11.28252
vt 1.155695 11.35829
vt 1.293657 11.30932
vt 1.149881 11.39421
vt 1.302156 11.33843
vt 1.145427 11.43093
vt 1.309578 11.36922
vt 1.142182 11.46797
vt 1.315776 11.4018
vt 1.316026 11.40128
vt 1.140294 11.50527
vt 1.140001 11.50509
vt 1.285074 11.27619
vt 1.153969 11.35363
vt 1.294876 11.30385
vt 1.148113 11.39055
vt 1.303379 11.33419
vt 1.143795 11.42843
vt 1.310638 11.36636
vt 1.140862 11.46657
vt 1.316759 11.39977
vt 1.139143 11.50456
vt 1.321589 11.43448
vt 1.321857 11.43407
vt 1.138781 11.54228
vt 1.138484 11.54222
vt 1.296184 11.29798
vt 1.146215 11.38662
vt 1.304803 11.32924
vt 1.147831 11.39214
vt 1.31202 11.36263
vt 1.14704 11.39659
vt 1.147268 11.39652
vt 1.145377 11.40594
vt 1.145055 11.40776
vt 1.142067 11.42456
vt 1.139143 11.46475
vt 1.317924 11.39736
vt 1.137778 11.50371
vt 1.322644 11.43286
vt 1.137611 11.54204
vt 1.32603 11.46916
vt 1.326313 11.46886
vt 1.138782 11.57957
vt 1.138484 11.57963
vt 1.306332 11.32393
vt 1.144392 11.39687
vt 1.14653 11.39665
vt 1.313628 11.35829
vt 1.146646 11.39664
vt 1.319442 11.39421
vt 1.141895 11.42551
vt 1.141694 11.42419
vt 1.141538 11.42497
vt 1.137141 11.46263
vt 1.135999 11.5026
vt 1.323896 11.43094
vt 1.136223 11.54175
vt 1.327142 11.46798
vt 1.137611 11.57981
vt 1.32903 11.50528
vt 1.329323 11.5051
vt 1.140294 11.61658
vt 1.140001 11.61676
vt 1.315354 11.35364
vt 1.321211 11.39056
vt 1.325528 11.42844
vt 1.13821 11.44155
vt 1.135689 11.46109
vt 1.133928 11.50132
vt 1.134415 11.54138
vt 1.328461 11.46658
vt 1.136224 11.5801
vt 1.330181 11.50457
vt 1.139143 11.61729
vt 1.330542 11.54229
vt 1.33084 11.54223
vt 1.143294 11.6527
vt 1.143011 11.653
vt 1.323108 11.38663
vt 1.321492 11.39215
vt 1.327257 11.42457
vt 1.330181 11.46476
vt 1.13354 11.47784
vt 1.131705 11.49993
vt 1.132308 11.54095
vt 1.134415 11.58047
vt 1.331546 11.50372
vt 1.137778 11.61814
vt 1.331712 11.54205
vt 1.142182 11.65388
vt 1.330542 11.57958
vt 1.33084 11.57964
vt 1.147735 11.68738
vt 1.147467 11.68779
vt 1.329468 11.42239
vt 1.327429 11.42552
vt 1.332183 11.46264
vt 1.333325 11.50261
vt 1.130048 11.54049
vt 1.132308 11.5809
vt 1.135999 11.61925
vt 1.3331 11.54176
vt 1.140863 11.65528
vt 1.331713 11.57982
vt 1.14668 11.689
vt 1.32903 11.61659
vt 1.329323 11.61677
vt 1.153548 11.72006
vt 1.153298 11.72058
vt 1.334332 11.46037
vt 1.335396 11.50133
vt 1.334909 11.54139
vt 1.130048 11.58136
vt 1.133928 11.62053
vt 1.139143 11.6571
vt 1.3331 11.58011
vt 1.145427 11.69092
vt 1.330181 11.6173
vt 1.152565 11.72209
vt 1.32603 11.65271
vt 1.326313 11.65301
vt 1.160639 11.75024
vt 1.160412 11.75085
vt 1.337619 11.49994
vt 1.337016 11.54096
vt 1.334909 11.58048
vt 1.131705 11.62192
vt 1.137141 11.65922
vt 1.143796 11.69342
vt 1.331546 11.61815
vt 1.1514 11.7245
vt 1.327142 11.65389
vt 1.159746 11.75265
vt 1.321589 11.68739
vt 1.321857 11.6878
vt 1.168898 11.77742
vt 1.168697 11.77812
vt 1.339276 11.5405
vt 1.337016 11.58091
vt 1.333325 11.61926
vt 1.134992 11.66149
vt 1.141895 11.69634
vt 1.149882 11.72765
vt 1.328462 11.65529
vt 1.158686 11.7555
vt 1.322645 11.68901
vt 1.168107 11.78017
vt 1.315777 11.72007
vt 1.316027 11.72059
vt 1.178022 11.80197
vt 1.178194 11.8012
vt 1.339276 11.58138
vt 1.335396 11.62055
vt 1.330181 11.65711
vt 1.139856 11.69947
vt 1.157304 11.75923
vt 1.323897 11.69093
vt 1.167168 11.78343
vt 1.316759 11.7221
vt 1.177517 11.80424
vt 1.308686 11.75024
vt 1.308913 11.75086
vt 1.18824 11.82202
vt 1.18838 11.82118
vt 1.337619 11.62193
vt 1.332183 11.65923
vt 1.325529 11.69343
vt 1.142067 11.69729
vt 1.142548 11.7
vt 1.146216 11.73523
vt 1.148113 11.7313
vt 1.155696 11.76357
vt 1.165945 11.78768
vt 1.317924 11.72451
vt 1.176713 11.80784
vt 1.309579 11.75265
vt 1.187827 11.82446
vt 1.300427 11.77743
vt 1.300628 11.77813
vt 1.199189 11.83795
vt 1.199297 11.83706
vt 1.334332 11.6615
vt 1.327429 11.69635
vt 1.319443 11.72766
vt 1.153969 11.76822
vt 1.164521 11.79262
vt 1.175667 11.81254
vt 1.310639 11.75551
vt 1.187171 11.82836
vt 1.301218 11.78018
vt 1.198875 11.84054
vt 1.291303 11.80198
vt 1.291131 11.8012
vt 1.210699 11.84951
vt 1.210771 11.84859
vt 1.329469 11.69948
vt 1.31202 11.75924
vt 1.162992 11.79793
vt 1.174448 11.81801
vt 1.186315 11.83343
vt 1.302157 11.78344
vt 1.198375 11.84466
vt 1.291808 11.80424
vt 1.210486 11.8522
vt 1.281085 11.82202
vt 1.280945 11.82119
vt 1.222585 11.85652
vt 1.222622 11.85558
vt 1.327257 11.6973
vt 1.326776 11.7
vt 1.323109 11.73524
vt 1.321211 11.73131
vt 1.313629 11.76358
vt 1.30338 11.78768
vt 1.173139 11.82388
vt 1.185319 11.83934
vt 1.197723 11.85002
vt 1.292611 11.80785
vt 1.210149 11.85648
vt 1.281498 11.82447
vt 1.222479 11.85927
vt 1.270135 11.83795
vt 1.270028 11.83707
vt 1.234663 11.85887
vt 1.234663 11.85792
vt 1.315355 11.76823
vt 1.304804 11.79263
vt 1.293658 11.81254
vt 1.18425 11.84568
vt 1.196963 11.85628
vt 1.20971 11.86207
vt 1.282154 11.82836
vt 1.222309 11.86366
vt 1.27045 11.84054
vt 1.234663 11.86164
vt 1.258626 11.84951
vt 1.258554 11.84859
vt 1.24674 11.85652
vt 1.246703 11.85558
vt 1.306333 11.79793
vt 1.294877 11.81801
vt 1.28301 11.83343
vt 1.193796 11.85956
vt 1.196266 11.86202
vt 1.209198 11.86857
vt 1.222088 11.86937
vt 1.27095 11.84466
vt 1.234663 11.86606
vt 1.258839 11.8522
vt 1.246846 11.85927
vt 1.296185 11.82388
vt 1.284006 11.83934
vt 1.271602 11.85003
vt 1.196149 11.86298
vt 1.208648 11.87554
vt 1.22183 11.87602
vt 1.234663 11.87181
vt 1.259176 11.85649
vt 1.247016 11.86366
vt 1.285075 11.84568
vt 1.272362 11.85628
vt 1.259615 11.86207
vt 1.221553 11.88315
vt 1.234663 11.87851
vt 1.247238 11.86937
vt 1.273176 11.86299
vt 1.260127 11.86857
vt 1.249567 11.86799
vt 1.234663 11.87953
vt 1.234663 11.8857
vt 1.247495 11.87602
vt 1.26781 11.86838
vt 1.265954 11.86906
vt 1.260148 11.86883
vt 1.260786 11.86885
vt 1.259703 11.86882
vt 1.247772 11.88315
vt 1.260677 11.87554
vn -0.11789350024667919 -0.8054844016853876 0.5807719012152012
vn -0.2405016978344482 -0.8544396923063603 0.4605341958532072
vn -0.23420618977268667 -0.7852476657098136 0.5731784749704485
vn -0.12106229660416208 -0.8752176754498515 0.4683352868630383
vn -0.10554590201095237 -0.6263309119334018 0.7723792147160409
vn -0.20967580529427113 -0.6082089153571508 0.7655834193308244
vn 0 -0.8122493551035194 0.5833103677579518
vn 0 -0.8821635493676953 0.47094317296993454
vn -0.3566838968623553 -0.8200138927865759 0.44760899606251336
vn -0.34734649926920563 -0.7517188984184325 0.56059709882054
vn -0.17075310392259244 -0.3895767089494753 0.90502672079055
vn -0.08595380333831598 -0.4043403157039678 0.9105607353648045
vn 0 -0.632388993953729 0.7746509925935617
vn -0.3109637874743416 -0.5781843767106647 0.7543237696157485
vn 0.11789350024667919 -0.8054844016853876 0.5807719012152012
vn 0.12106229660416208 -0.8752176754498515 0.4683352868630383
vn -0.46795579773180423 -0.7722638962568139 0.4296810979173227
vn -0.4557041115105984 -0.7052137178129443 0.5431458137192822
vn -0.12019440401244506 -0.14463640482839163 0.9821576327873295
vn -0.06050421791274191 -0.1550342946516692 0.9860545659833572
vn 0 -0.4092758069699407 0.9124107155382952
vn -0.2532356889448481 -0.3651171840605963 0.8958577608908062
vn 0.10554590201095237 -0.6263309119334018 0.7723792147160409
vn -0.40796779696979474 -0.5365407960148112 0.7387057945132183
vn 0.2405016978344482 -0.8544396923063603 0.4605341958532072
vn 0.23420618977268667 -0.7852476657098136 0.5731784749704485
vn -0.57264650889846 -0.7116753110588545 0.40693270632340245
vn -0.5576521206929677 -0.6462053239789386 0.5210017193329699
vn -0.06152323061808782 0.10971230110221493 0.9920575099666201
vn -0.03097082950586834 0.10438339833458936 0.9940547841401102
vn 0 -0.15851049869438572 0.9873572918673652
vn -0.17825099545539105 -0.12741039675160082 0.9757013751239473
vn 0.08595380333831598 -0.4043403157039678 0.9105607353648045
vn -0.3322263970488446 -0.33119359705801915 0.8831400921550976
vn 0.20967580529427113 -0.6082089153571508 0.7655834193308244
vn -0.49923087820736695 -0.48370287888520175 0.7188880686188002
vn 0.3566838968623553 -0.8200138927865759 0.44760899606251336
vn 0.34734649926920563 -0.7517188984184325 0.56059709882054
vn -0.6690803850881454 -0.6389228857602683 0.37961689153944406
vn -0.6515585165087957 -0.5753514145779063 0.49441101252708713
vn -0.03160505057436361 0.23021970418381904 0.9726253176756744
vn -0.015909299506521063 0.2274881929437097 0.9736508697990349
vn 0 0.10260180095576174 0.994722509266094
vn -0.09123625747046352 0.11853949671347762 0.9887488725868157
vn 0.06050421791274191 -0.1550342946516692 0.9860545659833572
vn -0.2338460112523137 -0.10352090498126838 0.9667468465183849
vn 0.17075310392259244 -0.3895767089494753 0.90502672079055
vn -0.40653840061296853 -0.28815330043447057 0.8670030013072455
vn 0.3109637874743416 -0.5781843767106647 0.7543237696157485
vn -0.5832922870420832 -0.4202606906638523 0.6950906845584667
vn 0.46795579773180423 -0.7722638962568139 0.4296810979173227
vn 0.4557041115105984 -0.7052137178129443 0.5431458137192822
vn -0.7556033268062564 -0.554898119685913 0.3480685123482962
vn -0.7358128728852004 -0.4935207818136954 0.46369888291263606
vn 0 0.22657500472808884 0.973993720324965
vn -0.0468722488390074 0.23474529418552412 0.9709261759508422
vn 0.03097082950586834 0.10438339833458936 0.9940547841401102
vn -0.11968499639330825 0.13077949605897674 0.9841606703424466
vn 0.12019440401244506 -0.14463640482839163 0.9821576327873295
vn -0.286143801240765 -0.07321382031746697 0.9553855041427034
vn 0.2532356889448481 -0.3651171840605963 0.8958577608908062
vn -0.4749822982045242 -0.23647829910609094 0.8476259967958975
vn 0.40796779696979474 -0.5365407960148112 0.7387057945132183
vn -0.6587107101830452 -0.34699320536418726 0.6676046103205363
vn 0.57264650889846 -0.7116753110588545 0.40693270632340245
vn 0.5576521206929677 -0.6462053239789386 0.5210017193329699
vn -0.830624576700466 -0.4607321870761767 0.3127117912282404
vn -0.8088662330928053 -0.40181541643930585 0.4292782175628797
vn 0.015909299506521063 0.2274881929437097 0.9736508697990349
vn -0.0614934692597499 0.241022197098607 0.9685694883404908
vn 0.06152323061808782 0.10971230110221493 0.9920575099666201
vn -0.14644120005046657 0.1463046000504193 0.9783404003371557
vn 0.17825099545539105 -0.12741039675160082 0.9757013751239473
vn -0.3343070970331742 -0.03683006967314983 0.9417442916424409
vn 0.3322263970488446 -0.33119359705801915 0.8831400921550976
vn -0.5363850833785502 -0.17680439452120247 0.8252461744273503
vn 0.49923087820736695 -0.48370287888520175 0.7188880686188002
vn -0.7241004162026268 -0.26488790592718897 0.6367990142491518
vn 0.6690803850881454 -0.6389228857602683 0.37961689153944406
vn 0.6515585165087957 -0.5753514145779063 0.49441101252708713
vn -0.8926711614891939 -0.35780748456379546 0.27406568817650767
vn -0.8692846091585826 -0.3015819031773977 0.39165370412637324
vn 0.03160505057436361 0.23021970418381904 0.9726253176756744
vn -0.07524908051857805 0.2489863017158856 0.9655793066542772
vn 0.09123625747046352 0.11853949671347762 0.9887488725868157
vn -0.1710767065367436 0.1649384063022024 0.9713537371148734
vn 0.2338460112523137 -0.10352090498126838 0.9667468465183849
vn -0.3775112079722553 0.005181269109417473 0.9259905195550031
vn 0.40653840061296853 -0.28815330043447057 0.8670030013072455
vn -0.589619493006081 -0.10993689869595617 0.8001641905086524
vn 0.5832922870420832 -0.4202606906638523 0.6950906845584667
vn -0.7781786985059203 -0.17515109966371528 0.6031251988420178
vn 0.7556033268062564 -0.554898119685913 0.3480685123482962
vn 0.7358128728852004 -0.4935207818136954 0.46369888291263606
vn -0.9404515232863794 -0.24775390613459744 0.23274220576289487
vn -0.91581076326173 -0.19440789220121685 0.3514202859025752
vn 0.0468722488390074 0.23474529418552412 0.9709261759508422
vn -0.08791888245542434 0.2585486072208211 0.9619890268667118
vn 0.11968499639330825 0.13077949605897674 0.9841606703424466
vn -0.1931703083689367 0.18644920807775062 0.9632870417335788
vn 0.286143801240765 -0.07321382031746697 0.9553855041427034
vn -0.4150431071703031 0.052250540902682455 0.9083001156918331
vn 0.4749822982045242 -0.23647829910609094 0.8476259967958975
vn -0.6336425181431642 -0.03685893105538648 0.772747422126172
vn 0.6587107101830452 -0.34699320536418726 0.6676046103205363
vn -0.8198212781441679 -0.07920432788847102 0.5671152848811238
vn 0.830624576700466 -0.4607321870761767 0.3127117912282404
vn 0.8088662330928053 -0.40181541643930585 0.4292782175628797
vn -0.9729220118317048 -0.13242500161042053 0.1894370023037434
vn -0.9474286773139682 -0.08209827803416961 0.30925519259493267
vn 0.0614934692597499 0.241022197098607 0.9685694883404908
vn -0.09928569144505577 0.2695917039237781 0.9578427139409429
vn 0.14644120005046657 0.1463046000504193 0.9783404003371557
vn -0.21232220759606704 0.21088510754465295 0.95417333413663
vn 0.3343070970331742 -0.03683006967314983 0.9417442916424409
vn -0.4459687018291027 0.10360680042493428 0.8890318036462884
vn 0.5363850833785502 -0.17680439452120247 0.8252461744273503
vn -0.6675404249324575 0.041271771541489526 0.743428827766869
vn 0.7241004162026268 -0.26488790592718897 0.6367990142491518
vn -0.8481197904619234 0.021336689760044412 0.5293746940465764
vn 0.8926711614891939 -0.35780748456379546 0.27406568817650767
vn 0.8692846091585826 -0.3015819031773977 0.39165370412637324
vn -0.9893473845558752 -0.013853439783742068 0.1449131977378446
vn -0.9634227092059363 0.03336755031884186 0.26590090254080245
vn 0.07524908051857805 0.2489863017158856 0.9655793066542772
vn -0.10914069769463526 0.28196659404405616 0.9531962798657593
vn 0.1710767065367436 0.1649384063022024 0.9713537371148734
vn -0.22824289676638476 0.21914069689533933 0.948621386560473
vn 0.3775112079722553 0.005181269109417473 0.9259905195550031
vn -0.3334912168006476 0.148467607479513 0.9309892469014518
vn -0.3296813988820883 0.1511165994875808 0.9319194968399682
vn -0.22487099016989082 0.22080719034753735 0.9490401585132419
vn -0.22538561110882205 0.21988691083780149 0.9491317467808731
vn -0.46977782026842124 0.15867910684616163 0.8684064374671318
vn 0.589619493006081 -0.10993689869595617 0.8001641905086524
vn -0.6905750065611498 0.12313990116995142 0.7127010067713687
vn 0.7781786985059203 -0.17515109966371528 0.6031251988420178
vn -0.8624344985222229 0.12470069978632588 0.49056749915941505
vn 0.9404515232863794 -0.24775390613459744 0.23274220576289487
vn 0.91581076326173 -0.19440789220121685 0.3514202859025752
vn -0.9893473950237792 0.10581219946778564 0.09997754949713282
vn -0.9634227082019161 0.14989750127612383 0.22214280189117055
vn 0.08791888245542434 0.2585486072208211 0.9619890268667118
vn -0.11366099955117204 0.2884564988609341 0.9507228962457571
vn -0.11318760471684619 0.28885151203725556 0.9506594396166558
vn 0.1931703083689367 0.18644920807775062 0.9632870417335788
vn -0.11191349821956088 0.289914195387736 0.950486784878644
vn 0.41504050718414887 0.05225207090445768 0.9083012157222514
vn -0.2277537088362132 0.2365796091786335 0.9445413366455883
vn -0.11360600036165336 0.2884554009182687 0.9507298030265535
vn -0.11754220307364989 0.29602450774084244 0.947920524787487
vn -0.24033368946762504 0.2650081883862905 0.9338149590765269
vn -0.485979812710671 0.2162953056571452 0.846782122147358
vn 0.6336425181431642 -0.03685893105538648 0.772747422126172
vn -0.7022267046046059 0.20730410135932398 0.6811040044661012
vn 0.8198212781441679 -0.07920432788847102 0.5671152848811238
vn -0.8624345056010033 0.22901570148732175 0.45139620293155214
vn 0.9729220118317048 -0.13242500161042053 0.1894370023037434
vn 0.9474286773139682 -0.08209827803416961 0.30925519259493267
vn -0.9729220153841143 0.22438320354800984 0.05545205087682335
vn -0.9474286662084128 0.2653605905354821 0.17878109362348102
vn 0.09928569144505577 0.2695917039237781 0.9578427139409429
vn 0.21232220759606704 0.21088510754465295 0.95417333413663
vn 0.44596598911942 0.10360839747218493 0.8890329783095691
vn -0.12091240239867718 0.30250640600116424 0.9454470187559105
vn -0.12367850005953512 0.31026700014935304 0.942569900453725
vn -0.24861240329571918 0.2944858039038376 0.9227513122324115
vn -0.49417502804279045 0.27552471563511177 0.824546646790282
vn 0.6675404249324575 0.041271771541489526 0.743428827766869
vn -0.7022267347661159 0.29224131446839713 0.6492092321413048
vn 0.8481197904619234 0.021336689760044412 0.5293746940465764
vn -0.84811979230319 0.3323750969836477 0.4125767962558059
vn 0.9893473845558752 -0.013853439783742068 0.1449131977378446
vn 0.9634227092059363 0.03336755031884186 0.26590090254080245
vn -0.9404515388897915 0.33971081404780806 0.012143550502163265
vn -0.915810779785634 0.37766469166394134 0.13660159698484153
vn 0.10914069769463526 0.28196659404405616 0.9531962798657593
vn 0.22489990001484567 0.2212546000146048 0.9489291000626389
vn 0.225387395127448 0.219896595246151 0.9491290794811915
vn 0.46977782026842124 0.15867910684616163 0.8684064374671318
vn -0.12621189589474927 0.3173772896767783 0.9398628694294053
vn -0.12783109882469404 0.32510609701090604 0.9369979913850438
vn -0.2527995008083681 0.32478610103855693 0.9113761029142756
vn -0.49417501006755815 0.33529720683082714 0.8021015163407772
vn 0.6905750065611498 0.12313990116995142 0.7127010067713687
vn -0.6905750211088449 0.37640051150545517 0.6175992188781896
vn 0.8624344985222229 0.12470069978632588 0.49056749915941505
vn -0.8198212926618698 0.43290719612509526 0.3748124966450947
vn 0.9893473950237792 0.10581219946778564 0.09997754949713282
vn 0.9634227082019161 0.14989750127612383 0.22214280189117055
vn -0.8926711562974108 0.44976267798092456 -0.02918458857120714
vn -0.8692846228962792 0.4848312127700762 0.09634801253773163
vn 0.1172653011890033 0.2955027029962287 0.9481176096133721
vn 0.22775508948714304 0.23658458907958546 0.9445397564013636
vn 0.24033368946762504 0.2650081883862905 0.9338149590765269
vn 0.485979812710671 0.2162953056571452 0.846782122147358
vn -0.12998830249967963 0.3406852065513883 0.9311480179060092
vn -0.25279950223357206 0.355363203139758 0.8998941079508794
vn -0.48597982201555223 0.39452291787242894 0.7798559353285432
vn 0.7022267046046059 0.20730410135932398 0.6811040044661012
vn -0.6675403916216973 0.45825919424838646 0.586846092634492
vn 0.8624345056010033 0.22901570148732175 0.45139620293155214
vn -0.7781787030642422 0.5288415020824244 0.33876920133397503
vn 0.9729220153841143 0.22438320354800984 0.05545205087682335
vn 0.9474286662084128 0.2653605905354821 0.17878109362348102
vn -0.8306245929431424 0.5526852953044715 -0.06783619942367404
vn -0.808866239617868 0.5850554286557252 0.058698822875039414
vn 0.12356649867144143 0.3099526966674597 0.9426879898644357
vn 0.24861240329571918 0.2944858039038376 0.9227513122324115
vn 0.49417502804279045 0.27552471563511177 0.824546646790282
vn -0.12998830405734255 0.35640781112460507 0.9252440288797673
vn -0.2486124067570951 0.3856616104819874 0.888513924149129
vn -0.4697778009990835 0.45213170096155514 0.7582122016125014
vn 0.7022267347661159 0.29224131446839713 0.6492092321413048
vn -0.6336424984482698 0.5363765986864646 0.5574919986347552
vn 0.84811979230319 0.3323750969836477 0.4125767962558059
vn -0.7241003980984401 0.6185629983755917 0.3050547991988958
vn 0.9404515388897915 0.33971081404780806 0.012143550502163265
vn 0.915810779785634 0.37766469166394134 0.13660159698484153
vn -0.7556033375372754 0.6468489321345147 -0.10319910512678139
vn -0.7358128627816818 0.6767505657691253 0.024250828773363448
vn 0.12783109882469404 0.32510609701090604 0.9369979913850438
vn 0.2527995008083681 0.32478610103855693 0.9113761029142756
vn 0.49417501006755815 0.33529720683082714 0.8021015163407772
vn -0.1278310927865773 0.3719867790090357 0.9193938481192229
vn -0.2403336957028889 0.415135592577471 0.8774406843115627
vn -0.44593337106420267 0.5071108670945073 0.7375513521416477
vn 0.6905750211088449 0.37640051150545517 0.6175992188781896
vn -0.5896194654155352 0.6094382642530523 0.5300319689106737
vn 0.8198212926618698 0.43290719612509526 0.3748124966450947
vn -0.6587107266965615 0.7006513283963512 0.27420411111308307
vn 0.8926711562974108 0.44976267798092456 -0.02918458857120714
vn 0.8692846228962792 0.4848312127700762 0.09634801253773163
vn -0.669080382472416 0.7308712808537088 -0.1347538964699154
vn -0.6515585171173285 0.7585706199286819 -0.006489480170487302
vn 0.12998830249967963 0.3406852065513883 0.9311480179060092
vn 0.25279950223357206 0.355363203139758 0.8998941079508794
vn 0.48597982201555223 0.39452291787242894 0.7798559353285432
vn -0.12356650230489773 0.38714000722135916 0.913703417043397
vn -0.22819629363077454 0.4433451876257171 0.8668168758061273
vn -0.4149841794526959 0.558525172345484 0.7182184644385161
vn 0.6675403916216973 0.45825919424838646 0.586846092634492
vn -0.5363851114526509 0.6762877144397876 0.5049019107804361
vn 0.7781787030642422 0.5288415020824244 0.33876920133397503
vn -0.5832922814107057 0.7739013753360692 0.24667139213868047
vn 0.8306245929431424 0.5526852953044715 -0.06783619942367404
vn 0.808866239617868 0.5850554286557252 0.058698822875039414
vn -0.5576520846969809 0.8294142772393168 -0.033107539091466846
vn -0.5726465190560014 0.803621426742171 -0.16207580539340866
vn 0.12998830405734255 0.35640781112460507 0.9252440288797673
vn 0.2486124067570951 0.3856616104819874 0.888513924149129
vn 0.4697778009990835 0.45213170096155514 0.7582122016125014
vn -0.11726969589423616 0.40158668593993013 0.9082818681998763
vn -0.3775112176204648 0.6055928282662517 0.7005302326974876
vn 0.6336424984482698 0.5363765986864646 0.5574919986347552
vn -0.47498230051807744 0.735943000802715 0.4824725005262474
vn 0.7241003980984401 0.6185629983755917 0.3050547991988958
vn -0.4992308887030092 0.837326581052313 0.22282889495765199
vn 0.7556033375372754 0.6468489321345147 -0.10319910512678139
vn 0.7358128627816818 0.6767505657691253 0.024250828773363448
vn -0.45570412281341754 0.8884133444756663 -0.055276412767242454
vn -0.46795581329506 0.8642079245529511 -0.1848297052511837
vn 0.1278310927865773 0.3719867790090357 0.9193938481192229
vn 0.2403336957028889 0.415135592577471 0.8774406843115627
vn 0.44593337106420267 0.5071108670945073 0.7375513521416477
vn -0.22945048987389813 0.46138127963833553 0.85701796217811
vn -0.2261069041740986 0.4591438084761299 0.8591057158597191
vn -0.10911970194843158 0.4151115074121935 0.9032028161275083
vn -0.2123115158374312 0.46956103502702395 0.8569925639275772
vn -0.19317030117146777 0.49367640299386584 0.8479203051421534
vn -0.3343070913471197 0.6475897832384144 0.6847380822769041
vn 0.5896194654155352 0.6094382642530523 0.5300319689106737
vn -0.4065384253696532 0.7875999491494439 0.463047328896039
vn 0.6587107266965615 0.7006513283963512 0.27420411111308307
vn -0.40796779845754305 0.8901490966344975 0.20297009923260473
vn 0.669080382472416 0.7308712808537088 -0.1347538964699154
vn 0.6515585171173285 0.7585706199286819 -0.006489480170487302
vn -0.34734650778074766 0.9349107209425005 -0.0727485216296056
vn -0.3566838883116582 0.9119561701156801 -0.20276229335558701
vn 0.12356650230489773 0.38714000722135916 0.913703417043397
vn 0.22819629363077454 0.4433451876257171 0.8668168758061273
vn 0.4149841794526959 0.558525172345484 0.7182184644385161
vn -0.09928569161830136 0.4275003069680162 0.8985465146458069
vn -0.17107669733872324 0.5151801919858336 0.8398345869354957
vn -0.2861437814471975 0.6839595556538796 0.671059656490275
vn 0.5363851114526509 0.6762877144397876 0.5049019107804361
vn -0.332226408836284 0.8306238220922473 0.4468665118853871
vn 0.5832922814107057 0.7739013753360692 0.24667139213868047
vn -0.3109637939680301 0.9317797819256527 0.18731779636647328
vn 0.5576520846969809 0.8294142772393168 -0.033107539091466846
vn 0.5726465190560014 0.803621426742171 -0.16207580539340866
vn -0.23420619297446899 0.9684335709497003 -0.08534563743986927
vn -0.2405017101924327 0.9463806401074942 -0.215691009140958
vn 0.11726969589423616 0.40158668593993013 0.9082818681998763
vn 0.3775112176204648 0.6055928282662517 0.7005302326974876
vn -0.08791888092183762 0.43854300459816387 0.8943994093778608
vn -0.14644120626939053 0.5338070228531624 0.8328295356548117
vn -0.23384600352237914 0.7142539107586745 0.6596646099364063
vn 0.47498230051807744 0.735943000802715 0.4824725005262474
vn -0.25323570245007315 0.8645336083644231 0.43411210420006513
vn 0.4992308887030092 0.837326581052313 0.22282889495765199
vn -0.20967581031958313 0.9617945473364989 0.1760321086637463
vn 0.45570412281341754 0.8884133444756663 -0.055276412767242454
vn 0.46795581329506 0.8642079245529511 -0.1848297052511837
vn -0.11789349863432184 0.9886665885472873 -0.09294890892327971
vn -0.12106230044099245 0.9671578035230561 -0.22349430081412028
vn 0.22945048987389813 0.46138127963833553 0.85701796217811
vn 0.2261069041740986 0.4591438084761299 0.8591057158597191
vn 0.10911970194843158 0.4151115074121935 0.9032028161275083
vn 0.2123115158374312 0.46956103502702395 0.8569925639275772
vn 0.19317030117146777 0.49367640299386584 0.8479203051421534
vn 0.3343070913471197 0.6475897832384144 0.6847380822769041
vn -0.07524908216661916 0.4481050129021226 0.8908083256487167
vn -0.11968500425917708 0.5493258195486137 0.8269925294298159
vn -0.1782510005333805 0.7381328022087148 0.6506816019470347
vn 0.4065384253696532 0.7875999491494439 0.463047328896039
vn -0.17075310348199219 0.8889827181281089 0.42491540866486255
vn 0.40796779845754305 0.8901490966344975 0.20297009923260473
vn -0.10554589994168061 0.9799104994585505 0.1692201999064976
vn 0.34734650778074766 0.9349107209425005 -0.0727485216296056
vn 0.3566838883116582 0.9119561701156801 -0.20276229335558701
vn 0 0.9954303266797666 -0.09549065255936356
vn 0 0.9741034217809674 -0.2261029050556642
vn 0.09928569161830136 0.4275003069680162 0.8985465146458069
vn 0.17107669733872324 0.5151801919858336 0.8398345869354957
vn 0.2861437814471975 0.6839595556538796 0.671059656490275
vn -0.061493469257693556 0.4560688944946529 0.8878173892828853
vn -0.09123626495617859 0.5615605305053507 0.8223902446742635
vn -0.12019439768282872 0.7553506854379491 0.6442038875806964
vn 0.332226408836284 0.8306238220922473 0.4468665118853871
vn -0.08595380299947446 0.9037398315372263 0.4193641146342795
vn 0.3109637939680301 0.9317797819256527 0.18731779636647328
vn 0 0.985966566390387 0.16694289430925344
vn 0.23420619297446899 0.9684335709497003 -0.08534563743986927
vn 0.2405017101924327 0.9463806401074942 -0.215691009140958
vn 0.11789349863432184 0.9886665885472873 -0.09294890892327971
vn 0.12106230044099245 0.9671578035230561 -0.22349430081412028
vn 0.08791888092183762 0.43854300459816387 0.8943994093778608
vn 0.14644120626939053 0.5338070228531624 0.8328295356548117
vn 0.23384600352237914 0.7142539107586745 0.6596646099364063
vn -0.05436993250796394 0.4596235212014096 0.8864480408898747
vn -0.0445102014699047 0.4631966152966028 0.8851371292307647
vn -0.06152323226531982 0.570383821001851 0.8190709301586498
vn -0.06050422254784107 0.7657436322455687 0.6402936269628523
vn 0.25323570245007315 0.8645336083644231 0.43411210420006513
vn 0 0.9086731076180882 0.4175083035002855
vn 0.20967581031958313 0.9617945473364989 0.1760321086637463
vn 0.10554589994168061 0.9799104994585505 0.1692201999064976
vn 0.07524908216661916 0.4481050129021226 0.8908083256487167
vn 0.11968500425917708 0.5493258195486137 0.8269925294298159
vn 0.1782510005333805 0.7381328022087148 0.6506816019470347
vn -0.03937153856671338 0.4650376830707074 0.8844149678036425
vn -0.03160505098271859 0.46687091451675294 0.8837605274794018
vn -0.03097083140632465 0.5757102261418707 0.81706703710141
vn 0 0.7692181088632002 0.6389863073626242
vn 0.17075310348199219 0.8889827181281089 0.42491540866486255
vn 0.08595380299947446 0.9037398315372263 0.4193641146342795
vn 0.061493469257693556 0.4560688944946529 0.8878173892828853
vn 0.09123626495617859 0.5615605305053507 0.8223902446742635
vn 0.12019439768282872 0.7553506854379491 0.6442038875806964
vn -0.01590929943922632 0.4696023834473754 0.882734668885219
vn 0 0.5774909769091938 0.8163970673566048
vn 0.06050422254784107 0.7657436322455687 0.6402936269628523
vn 0.04687225098707518 0.4623455097364594 0.8854601186467621
vn 0.07459232314606623 0.6041252254800745 0.7933906334626859
vn 0.09130942998804645 0.7646586998998964 0.6379338999164866
vn 0 0.47051551224066335 0.8823917229558006
vn 0.03097083140632465 0.5757102261418707 0.81706703710141
vn 0.03937153856671338 0.4650376830707074 0.8844149678036425
vn 0.033665400521155894 0.4663876072198946 0.8839396136837921
vn 0.047999599159092875 0.5811071898195569 0.8124102857673479
vn 0.01590929943922632 0.4696023834473754 0.882734668885219
vn 0.03160505098271859 0.46687091451675294 0.8837605274794018
usemtl material_0_0
f 1/1/1 2/2/2 3/3/3
f 2/2/2 1/1/1 4/4/4
f 5/5/5 3/3/3 6/6/6
f 3/3/3 5/5/5 1/1/1
f 7/7/7 4/4/4 1/1/1
f 4/4/4 7/7/7 8/8/8
f 3/3/3 9/9/9 10/10/10
f 9/9/9 3/3/3 2/2/2
f 5/5/5 11/11/11 12/12/12
f 11/11/11 5/5/5 6/6/6
f 13/13/13 1/1/1 5/5/5
f 1/1/1 13/13/13 7/7/7
f 6/6/6 10/10/10 14/14/14
f 10/10/10 6/6/6 3/3/3
f 15/15/15 8/8/8 7/7/7
f 8/8/8 15/15/15 16/16/16
f 10/10/10 17/17/17 18/18/18
f 17/17/17 10/10/10 9/9/9
f 12/12/12 19/19/19 20/20/20
f 19/19/19 12/12/12 11/11/11
f 13/13/13 12/12/12 21/21/21
f 12/12/12 13/13/13 5/5/5
f 6/6/6 22/22/22 11/11/11
f 22/22/22 6/6/6 14/14/14
f 13/13/13 15/15/15 7/7/7
f 15/15/15 13/13/13 23/23/23
f 10/10/10 24/24/24 14/14/14
f 24/24/24 10/10/10 18/18/18
f 15/15/15 25/25/25 16/16/16
f 25/25/25 15/15/15 26/26/26
f 18/18/18 27/27/27 28/28/28
f 27/27/27 18/18/18 17/17/17
f 20/20/20 29/29/29 30/30/30
f 29/29/29 20/20/20 19/19/19
f 21/21/21 20/20/20 31/31/31
f 20/20/20 21/21/21 12/12/12
f 11/11/11 32/32/32 19/19/19
f 32/32/32 11/11/11 22/22/22
f 33/33/33 13/13/13 21/21/21
f 13/13/13 33/33/33 23/23/23
f 14/14/14 34/34/34 22/22/22
f 34/34/34 14/14/14 24/24/24
f 23/23/23 26/26/26 15/15/15
f 26/26/26 23/23/23 35/35/35
f 18/18/18 36/36/36 24/24/24
f 36/36/36 18/18/18 28/28/28
f 26/26/26 37/37/37 25/25/25
f 37/37/37 26/26/26 38/38/38
f 28/28/28 39/39/39 40/40/40
f 39/39/39 28/28/28 27/27/27
f 30/30/30 41/41/41 42/42/42
f 41/41/41 30/30/30 29/29/29
f 31/31/31 30/30/30 43/43/43
f 30/30/30 31/31/31 20/20/20
f 19/19/19 44/44/44 29/29/29
f 44/44/44 19/19/19 32/32/32
f 45/45/45 21/21/21 31/31/31
f 21/21/21 45/45/45 33/33/33
f 22/22/22 46/46/46 32/32/32
f 46/46/46 22/22/22 34/34/34
f 47/47/47 23/23/23 33/33/33
f 23/23/23 47/47/47 35/35/35
f 24/24/24 48/48/48 34/34/34
f 48/48/48 24/24/24 36/36/36
f 35/35/35 38/38/38 26/26/26
f 38/38/38 35/35/35 49/49/49
f 28/28/28 50/50/50 36/36/36
f 50/50/50 28/28/28 40/40/40
f 38/38/38 51/51/51 37/37/37
f 51/51/51 38/38/38 52/52/52
f 53/53/53 40/40/40 39/39/39
f 40/40/40 53/53/53 54/54/54
f 55/55/55 42/42/42 56/56/55
f 42/42/42 55/55/55 30/30/30
f 30/30/30 55/55/55 43/43/43
f 29/29/29 57/57/56 41/41/41
f 57/57/56 29/29/29 44/44/44
f 58/58/57 31/31/31 43/43/43
f 31/31/31 58/58/57 45/45/45
f 32/32/32 59/59/58 44/44/44
f 59/59/58 32/32/32 46/46/46
f 60/60/59 33/33/33 45/45/45
f 33/33/33 60/60/59 47/47/47
f 34/34/34 61/61/60 46/46/46
f 61/61/60 34/34/34 48/48/48
f 62/62/61 35/35/35 47/47/47
f 35/35/35 62/62/61 49/49/49
f 36/36/36 63/63/62 48/48/48
f 63/63/62 36/36/36 50/50/50
f 64/64/63 38/38/38 49/49/49
f 38/38/38 64/64/63 52/52/52
f 54/54/54 50/50/50 40/40/40
f 50/50/50 54/54/54 65/65/64
f 52/52/52 66/66/65 51/51/51
f 66/66/65 52/52/52 67/67/66
f 68/68/67 54/54/54 53/53/53
f 54/54/54 68/68/67 69/69/68
f 70/70/69 55/55/55 56/56/55
f 55/55/55 70/70/69 58/58/57
f 55/55/55 58/58/57 43/43/43
f 44/44/44 71/71/70 57/57/56
f 71/71/70 44/44/44 59/59/58
f 72/72/71 45/45/45 58/58/57
f 45/45/45 72/72/71 60/60/59
f 46/46/46 73/73/72 59/59/58
f 73/73/72 46/46/46 61/61/60
f 74/74/73 47/47/47 60/60/59
f 47/47/47 74/74/73 62/62/61
f 48/48/48 75/75/74 61/61/60
f 75/75/74 48/48/48 63/63/62
f 76/76/75 49/49/49 62/62/61
f 49/49/49 76/76/75 64/64/63
f 50/50/50 77/77/76 63/63/62
f 77/77/76 50/50/50 65/65/64
f 78/78/77 52/52/52 64/64/63
f 52/52/52 78/78/77 67/67/66
f 69/69/68 65/65/64 54/54/54
f 65/65/64 69/69/68 79/79/78
f 67/67/66 80/80/79 66/66/65
f 80/80/79 67/67/66 81/81/80
f 82/82/81 69/69/68 68/68/67
f 69/69/68 82/82/81 83/83/82
f 84/84/83 58/58/57 70/70/69
f 58/58/57 84/84/83 72/72/71
f 59/59/58 85/85/84 71/71/70
f 85/85/84 59/59/58 73/73/72
f 86/86/85 60/60/59 72/72/71
f 60/60/59 86/86/85 74/74/73
f 61/61/60 87/87/86 73/73/72
f 87/87/86 61/61/60 75/75/74
f 88/88/87 62/62/61 74/74/73
f 62/62/61 88/88/87 76/76/75
f 63/63/62 89/89/88 75/75/74
f 89/89/88 63/63/62 77/77/76
f 90/90/89 64/64/63 76/76/75
f 64/64/63 90/90/89 78/78/77
f 65/65/64 91/91/90 77/77/76
f 91/91/90 65/65/64 79/79/78
f 92/92/91 67/67/66 78/78/77
f 67/67/66 92/92/91 81/81/80
f 83/83/82 79/79/78 69/69/68
f 79/79/78 83/83/82 93/93/92
f 81/81/80 94/94/93 80/80/79
f 94/94/93 81/81/80 95/95/94
f 96/96/95 83/83/82 82/82/81
f 83/83/82 96/96/95 97/97/96
f 98/98/97 72/72/71 84/84/83
f 72/72/71 98/98/97 86/86/85
f 73/73/72 99/99/98 85/85/84
f 99/99/98 73/73/72 87/87/86
f 100/100/99 74/74/73 86/86/85
f 74/74/73 100/100/99 88/88/87
f 75/75/74 101/101/100 87/87/86
f 101/101/100 75/75/74 89/89/88
f 102/102/101 76/76/75 88/88/87
f 76/76/75 102/102/101 90/90/89
f 77/77/76 103/103/102 89/89/88
f 103/103/102 77/77/76 91/91/90
f 104/104/103 78/78/77 90/90/89
f 78/78/77 104/104/103 92/92/91
f 79/79/78 105/105/104 91/91/90
f 105/105/104 79/79/78 93/93/92
f 92/92/91 95/95/94 81/81/80
f 95/95/94 92/92/91 106/106/105
f 97/97/96 93/93/92 83/83/82
f 93/93/92 97/97/96 107/107/106
f 95/95/94 108/108/107 94/94/93
f 108/108/107 95/95/94 109/109/108
f 110/110/109 97/97/96 96/96/95
f 97/97/96 110/110/109 111/111/110
f 112/112/111 86/86/85 98/98/97
f 86/86/85 112/112/111 100/100/99
f 87/87/86 113/113/112 99/99/98
f 113/113/112 87/87/86 101/101/100
f 114/114/113 88/88/87 100/100/99
f 88/88/87 114/114/113 102/102/101
f 89/89/88 115/115/114 101/101/100
f 115/115/114 89/89/88 103/103/102
f 116/116/115 90/90/89 102/102/101
f 90/90/89 116/116/115 104/104/103
f 91/91/90 117/117/116 103/103/102
f 117/117/116 91/91/90 105/105/104
f 118/118/117 92/92/91 104/104/103
f 92/92/91 118/118/117 106/106/105
f 107/107/106 105/105/104 93/93/92
f 105/105/104 107/107/106 119/119/118
f 106/106/105 109/109/108 95/95/94
f 109/109/108 106/106/105 120/120/119
f 111/111/110 107/107/106 97/97/96
f 107/107/106 111/111/110 121/121/120
f 109/109/108 122/122/121 108/108/107
f 122/122/121 109/109/108 123/123/122
f 124/124/123 111/111/110 110/110/109
f 111/111/110 124/124/123 125/125/124
f 126/126/125 100/100/99 112/112/111
f 100/100/99 126/126/125 114/114/113
f 101/101/100 127/127/126 113/113/112
f 127/127/126 101/101/100 115/115/114
f 128/128/127 102/102/101 114/114/113
f 102/102/101 128/128/127 116/116/115
f 103/103/102 129/129/128 115/115/114
f 130/130/129 104/104/103 116/116/115
f 104/104/103 130/130/129 118/118/117
f 103/103/102 131/131/130 129/129/128
f 131/131/130 103/103/102 132/132/130
f 132/132/130 103/103/102 117/117/116
f 132/132/130 117/117/116 133/133/131
f 133/133/131 117/117/116 134/134/132
f 134/134/132 117/117/116 135/135/133
f 105/105/104 136/136/134 117/117/116
f 136/136/134 105/105/104 119/119/118
f 137/137/135 106/106/105 118/118/117
f 106/106/105 137/137/135 120/120/119
f 121/121/120 119/119/118 107/107/106
f 119/119/118 121/121/120 138/138/136
f 120/120/119 123/123/122 109/109/108
f 123/123/122 120/120/119 139/139/137
f 125/125/124 121/121/120 111/111/110
f 121/121/120 125/125/124 140/140/138
f 123/123/122 141/141/139 122/122/121
f 141/141/139 123/123/122 142/142/140
f 143/143/141 125/125/124 124/124/123
f 125/125/124 143/143/141 144/144/142
f 145/145/143 114/114/113 126/126/125
f 114/114/113 145/145/143 128/128/127
f 115/115/114 146/146/144 127/127/126
f 146/146/144 115/115/114 147/147/145
f 148/148/146 116/116/115 128/128/127
f 116/116/115 148/148/146 130/130/129
f 129/129/128 147/147/145 115/115/114
f 147/147/145 129/129/128 149/149/147
f 150/150/148 118/118/117 130/130/129
f 118/118/117 150/150/148 137/137/135
f 117/117/116 151/151/149 135/135/133
f 135/135/133 152/152/150 134/134/132
f 152/152/150 135/135/133 153/153/151
f 153/153/151 135/135/133 151/151/149
f 152/152/150 133/133/131 134/134/132
f 117/117/116 154/154/152 151/151/149
f 154/154/152 117/117/116 136/136/134
f 119/119/118 155/155/153 136/136/134
f 155/155/153 119/119/118 138/138/136
f 156/156/154 120/120/119 137/137/135
f 120/120/119 156/156/154 139/139/137
f 140/140/138 138/138/136 121/121/120
f 138/138/136 140/140/138 157/157/155
f 139/139/137 142/142/140 123/123/122
f 142/142/140 139/139/137 158/158/156
f 144/144/142 140/140/138 125/125/124
f 140/140/138 144/144/142 159/159/157
f 142/142/140 160/160/158 141/141/139
f 160/160/158 142/142/140 161/161/159
f 162/162/160 144/144/142 143/143/141
f 144/144/142 162/162/160 163/163/161
f 164/164/162 128/128/127 145/145/143
f 128/128/127 164/164/162 148/148/146
f 165/165/163 130/130/129 148/148/146
f 130/130/129 165/165/163 150/150/148
f 166/166/164 137/137/135 150/150/148
f 137/137/135 166/166/164 156/156/154
f 151/151/149 167/167/165 153/153/151
f 167/167/165 151/151/149 154/154/152
f 167/167/165 154/154/152 168/168/166
f 136/136/134 169/169/167 154/154/152
f 169/169/167 136/136/134 155/155/153
f 138/138/136 170/170/168 155/155/153
f 170/170/168 138/138/136 157/157/155
f 156/156/154 158/158/156 139/139/137
f 158/158/156 156/156/154 171/171/169
f 159/159/157 157/157/155 140/140/138
f 157/157/155 159/159/157 172/172/170
f 158/158/156 161/161/159 142/142/140
f 161/161/159 158/158/156 173/173/171
f 163/163/161 159/159/157 144/144/142
f 159/159/157 163/163/161 174/174/172
f 161/161/159 175/175/173 160/160/158
f 175/175/173 161/161/159 176/176/174
f 177/177/175 163/163/161 162/162/160
f 163/163/161 177/177/175 178/178/176
f 179/179/177 148/148/146 164/164/162
f 148/148/146 179/179/177 165/165/163
f 150/150/148 165/165/163 180/180/178
f 181/181/179 150/150/148 180/180/178
f 150/150/148 181/181/179 166/166/164
f 182/182/180 156/156/154 166/166/164
f 156/156/154 182/182/180 171/171/169
f 154/154/152 183/183/181 168/168/166
f 183/183/181 154/154/152 169/169/167
f 183/183/181 169/169/167 184/184/182
f 155/155/153 185/185/183 169/169/167
f 185/185/183 155/155/153 170/170/168
f 157/157/155 186/186/184 170/170/168
f 186/186/184 157/157/155 172/172/170
f 171/171/169 173/173/171 158/158/156
f 173/173/171 171/171/169 187/187/185
f 174/174/172 172/172/170 159/159/157
f 172/172/170 174/174/172 188/188/186
f 173/173/171 176/176/174 161/161/159
f 176/176/174 173/173/171 189/189/187
f 178/178/176 174/174/172 163/163/161
f 174/174/172 178/178/176 190/190/188
f 176/176/174 191/191/189 175/175/173
f 191/191/189 176/176/174 192/192/190
f 193/193/191 178/178/176 177/177/175
f 178/178/176 193/193/191 194/194/192
f 195/195/193 165/165/163 179/179/177
f 195/195/193 180/180/178 165/165/163
f 195/195/193 181/181/179 180/180/178
f 181/181/179 195/195/193 196/196/194
f 166/166/164 181/181/179 196/196/194
f 197/197/195 166/166/164 196/196/194
f 166/166/164 197/197/195 182/182/180
f 198/198/196 171/171/169 182/182/180
f 171/171/169 198/198/196 187/187/185
f 169/169/167 199/199/197 184/184/182
f 199/199/197 169/169/167 185/185/183
f 170/170/168 200/200/198 185/185/183
f 200/200/198 170/170/168 186/186/184
f 172/172/170 201/201/199 186/186/184
f 201/201/199 172/172/170 188/188/186
f 187/187/185 189/189/187 173/173/171
f 189/189/187 187/187/185 202/202/200
f 190/190/188 188/188/186 174/174/172
f 188/188/186 190/190/188 203/203/201
f 189/189/187 192/192/190 176/176/174
f 192/192/190 189/189/187 204/204/202
f 194/194/192 190/190/188 178/178/176
f 190/190/188 194/194/192 205/205/203
f 192/192/190 206/206/204 191/191/189
f 206/206/204 192/192/190 207/207/205
f 208/208/206 194/194/192 193/193/191
f 194/194/192 208/208/206 209/209/207
f 210/210/208 196/196/194 195/195/193
f 196/196/194 210/210/208 197/197/195
f 211/211/209 182/182/180 197/197/195
f 182/182/180 211/211/209 198/198/196
f 212/212/210 187/187/185 198/198/196
f 187/187/185 212/212/210 202/202/200
f 185/185/183 213/213/211 199/199/197
f 213/213/211 185/185/183 200/200/198
f 186/186/184 214/214/212 200/200/198
f 214/214/212 186/186/184 201/201/199
f 188/188/186 215/215/213 201/201/199
f 215/215/213 188/188/186 203/203/201
f 202/202/200 204/204/202 189/189/187
f 204/204/202 202/202/200 216/216/214
f 205/205/203 203/203/201 190/190/188
f 203/203/201 205/205/203 217/217/215
f 204/204/202 207/207/205 192/192/190
f 207/207/205 204/204/202 218/218/216
f 209/209/207 205/205/203 194/194/192
f 205/205/203 209/209/207 219/219/217
f 207/207/205 220/220/218 206/206/204
f 220/220/218 207/207/205 221/221/219
f 222/222/220 209/209/207 208/208/206
f 209/209/207 222/222/220 223/223/221
f 224/224/222 197/197/195 210/210/208
f 197/197/195 224/224/222 211/211/209
f 225/225/223 198/198/196 211/211/209
f 198/198/196 225/225/223 212/212/210
f 226/226/224 202/202/200 212/212/210
f 202/202/200 226/226/224 216/216/214
f 214/214/212 213/213/211 200/200/198
f 213/213/211 214/214/212 227/227/225
f 215/215/213 214/214/212 201/201/199
f 214/214/212 215/215/213 228/228/226
f 217/217/215 215/215/213 203/203/201
f 215/215/213 217/217/215 229/229/227
f 216/216/214 218/218/216 204/204/202
f 218/218/216 216/216/214 230/230/228
f 219/219/217 217/217/215 205/205/203
f 217/217/215 219/219/217 231/231/229
f 218/218/216 221/221/219 207/207/205
f 221/221/219 218/218/216 232/232/230
f 223/223/221 219/219/217 209/209/207
f 219/219/217 223/223/221 233/233/231
f 221/221/219 234/234/232 220/220/218
f 234/234/232 221/221/219 235/235/233
f 236/236/234 223/223/221 222/222/220
f 223/223/221 236/236/234 237/237/235
f 238/238/236 211/211/209 224/224/222
f 211/211/209 238/238/236 225/225/223
f 239/239/237 212/212/210 225/225/223
f 212/212/210 239/239/237 226/226/224
f 240/240/238 216/216/214 226/226/224
f 216/216/214 240/240/238 230/230/228
f 228/228/226 227/227/225 214/214/212
f 227/227/225 228/228/226 241/241/239
f 229/229/227 228/228/226 215/215/213
f 228/228/226 229/229/227 242/242/240
f 231/231/229 229/229/227 217/217/215
f 229/229/227 231/231/229 243/243/241
f 230/230/228 232/232/230 218/218/216
f 232/232/230 230/230/228 244/244/242
f 219/219/217 245/245/243 231/231/229
f 245/245/243 219/219/217 233/233/231
f 232/232/230 235/235/233 221/221/219
f 235/235/233 232/232/230 246/246/244
f 223/223/221 247/247/245 233/233/231
f 247/247/245 223/223/221 237/237/235
f 235/235/233 248/248/246 234/234/232
f 248/248/246 235/235/233 249/249/247
f 236/236/234 250/250/248 237/237/235
f 250/250/248 236/236/234 251/251/249
f 252/252/250 225/225/223 238/238/236
f 225/225/223 252/252/250 239/239/237
f 253/253/251 226/226/224 239/239/237
f 226/226/224 253/253/251 240/240/238
f 254/254/252 230/230/228 240/240/238
f 230/230/228 254/254/252 244/244/242
f 242/242/240 241/241/239 228/228/226
f 241/241/239 242/242/240 255/255/253
f 243/243/241 242/242/240 229/229/227
f 231/231/229 256/256/254 243/243/241
f 256/256/254 231/231/229 245/245/243
f 244/244/242 246/246/244 232/232/230
f 246/246/244 244/244/242 257/257/255
f 233/233/231 258/258/256 245/245/243
f 258/258/256 233/233/231 247/247/245
f 246/246/244 249/249/247 235/235/233
f 249/249/247 246/246/244 259/259/257
f 237/237/235 260/260/258 247/247/245
f 260/260/258 237/237/235 250/250/248
f 249/249/247 261/261/259 248/248/246
f 261/261/259 249/249/247 262/262/260
f 251/251/249 263/263/261 250/250/248
f 263/263/261 251/251/249 264/264/262
f 252/252/250 253/253/251 239/239/237
f 253/253/251 252/252/250 265/265/263
f 253/253/251 254/254/252 240/240/238
f 254/254/252 253/253/251 266/266/264
f 254/254/252 257/257/255 244/244/242
f 257/257/255 254/254/252 267/267/265
f 268/268/266 255/255/253 242/242/240
f 255/255/253 268/268/266 269/269/267
f 255/255/253 269/269/267 270/270/268
f 270/270/268 269/269/267 271/271/269
f 243/243/241 268/268/266 242/242/240
f 256/256/254 271/271/269 243/243/241
f 271/271/269 256/256/254 272/272/270
f 245/245/243 273/273/271 256/256/254
f 273/273/271 245/245/243 258/258/256
f 257/257/255 259/259/257 246/246/244
f 259/259/257 257/257/255 274/274/272
f 247/247/245 275/275/273 258/258/256
f 275/275/273 247/247/245 260/260/258
f 259/259/257 262/262/260 249/249/247
f 262/262/260 259/259/257 276/276/274
f 250/250/248 277/277/275 260/260/258
f 277/277/275 250/250/248 263/263/261
f 262/262/260 278/278/276 261/261/259
f 278/278/276 262/262/260 279/279/277
f 264/264/262 280/280/278 263/263/261
f 280/280/278 264/264/262 281/281/279
f 265/265/263 266/266/264 253/253/251
f 266/266/264 265/265/263 282/282/280
f 266/266/264 267/267/265 254/254/252
f 267/267/265 266/266/264 283/283/281
f 267/267/265 274/274/272 257/257/255
f 274/274/272 267/267/265 284/284/282
f 243/243/241 269/269/267 268/268/266
f 271/271/269 269/269/267 243/243/241
f 272/272/270 270/270/268 271/271/269
f 270/270/268 272/272/270 285/285/283
f 273/273/271 272/272/270 256/256/254
f 272/272/270 273/273/271 286/286/284
f 258/258/256 287/287/285 273/273/271
f 287/287/285 258/258/256 275/275/273
f 259/259/257 288/288/286 276/276/274
f 288/288/286 259/259/257 274/274/272
f 260/260/258 289/289/287 275/275/273
f 289/289/287 260/260/258 277/277/275
f 262/262/260 290/290/288 279/279/277
f 290/290/288 262/262/260 276/276/274
f 263/263/261 291/291/289 277/277/275
f 291/291/289 263/263/261 280/280/278
f 278/278/276 292/292/290 293/293/291
f 292/292/290 278/278/276 279/279/277
f 281/281/279 294/294/292 280/280/278
f 294/294/292 281/281/279 295/295/293
f 282/282/280 283/283/281 266/266/264
f 283/283/281 282/282/280 296/296/294
f 284/284/282 267/267/265 283/283/281
f 274/274/272 297/297/295 288/288/286
f 297/297/295 274/274/272 284/284/282
f 286/286/284 285/285/283 272/272/270
f 285/285/283 286/286/284 298/298/296
f 287/287/285 286/286/284 273/273/271
f 286/286/284 287/287/285 299/299/297
f 275/275/273 300/300/298 287/287/285
f 300/300/298 275/275/273 289/289/287
f 276/276/274 301/301/299 290/290/288
f 301/301/299 276/276/274 288/288/286
f 277/277/275 302/302/300 289/289/287
f 302/302/300 277/277/275 291/291/289
f 279/279/277 303/303/301 292/292/290
f 303/303/301 279/279/277 290/290/288
f 280/280/278 304/304/302 291/291/289
f 304/304/302 280/280/278 294/294/292
f 293/293/291 305/305/303 306/306/304
f 305/305/303 293/293/291 292/292/290
f 295/295/293 307/307/305 294/294/292
f 307/307/305 295/295/293 308/308/306
f 296/296/294 309/309/307 283/283/281
f 309/309/307 296/296/294 310/310/308
f 310/310/308 296/296/294 311/311/309
f 310/310/308 311/311/309 312/312/310
f 284/284/282 283/283/281 309/309/307
f 312/312/310 297/297/295 284/284/282
f 297/297/295 312/312/310 313/313/311
f 288/288/286 314/314/312 301/301/299
f 314/314/312 288/288/286 297/297/295
f 299/299/297 298/298/296 286/286/284
f 298/298/296 299/299/297 315/315/313
f 300/300/298 299/299/297 287/287/285
f 299/299/297 300/300/298 316/316/314
f 289/289/287 317/317/315 300/300/298
f 317/317/315 289/289/287 302/302/300
f 290/290/288 318/318/316 303/303/301
f 318/318/316 290/290/288 301/301/299
f 291/291/289 319/319/317 302/302/300
f 319/319/317 291/291/289 304/304/302
f 292/292/290 320/320/318 305/305/303
f 320/320/318 292/292/290 303/303/301
f 294/294/292 321/321/319 304/304/302
f 321/321/319 294/294/292 307/307/305
f 306/306/304 322/322/320 323/323/321
f 322/322/320 306/306/304 305/305/303
f 308/308/306 324/324/322 307/307/305
f 324/324/322 308/308/306 325/325/323
f 311/311/309 313/313/311 312/312/310
f 313/313/311 311/311/309 326/326/324
f 312/312/310 284/284/282 310/310/308
f 284/284/282 309/309/307 310/310/308
f 313/313/311 314/314/312 297/297/295
f 314/314/312 313/313/311 327/327/325
f 301/301/299 328/328/326 318/318/316
f 328/328/326 301/301/299 314/314/312
f 316/316/314 315/315/313 299/299/297
f 315/315/313 316/316/314 329/329/327
f 317/317/315 316/316/314 300/300/298
f 316/316/314 317/317/315 330/330/328
f 302/302/300 331/331/329 317/317/315
f 331/331/329 302/302/300 319/319/317
f 303/303/301 332/332/330 320/320/318
f 332/332/330 303/303/301 318/318/316
f 304/304/302 333/333/331 319/319/317
f 333/333/331 304/304/302 321/321/319
f 305/305/303 334/334/332 322/322/320
f 334/334/332 305/305/303 320/320/318
f 307/307/305 335/335/333 321/321/319
f 335/335/333 307/307/305 324/324/322
f 323/323/321 336/336/334 337/337/335
f 336/336/334 323/323/321 322/322/320
f 325/325/323 338/338/336 324/324/322
f 338/338/336 325/325/323 339/339/337
f 326/326/324 327/327/325 313/313/311
f 327/327/325 326/326/324 340/340/338
f 327/327/325 328/328/326 314/314/312
f 328/328/326 327/327/325 341/341/339
f 318/318/316 342/342/340 332/332/330
f 342/342/340 318/318/316 328/328/326
f 330/330/328 329/329/327 316/316/314
f 329/329/327 330/330/328 343/343/341
f 343/343/341 330/330/328 344/344/342
f 331/331/329 330/330/328 317/317/315
f 330/330/328 331/331/329 345/345/343
f 319/319/317 346/346/344 331/331/329
f 346/346/344 319/319/317 333/333/331
f 320/320/318 347/347/345 334/334/332
f 347/347/345 320/320/318 332/332/330
f 321/321/319 348/348/346 333/333/331
f 348/348/346 321/321/319 335/335/333
f 322/322/320 349/349/347 336/336/334
f 349/349/347 322/322/320 334/334/332
f 338/338/336 335/335/333 324/324/322
f 335/335/333 338/338/336 350/350/348
f 337/337/335 338/338/336 339/339/337
f 338/338/336 337/337/335 336/336/334
f 340/340/338 341/341/339 327/327/325
f 341/341/339 340/340/338 351/351/349
f 341/341/339 342/342/340 328/328/326
f 342/342/340 341/341/339 352/352/350
f 332/332/330 353/353/351 347/347/345
f 353/353/351 332/332/330 342/342/340
f 345/345/343 344/344/342 330/330/328
f 344/344/342 345/345/343 354/354/352
f 354/354/352 345/345/343 355/355/353
f 346/346/344 345/345/343 331/331/329
f 345/345/343 346/346/344 356/356/354
f 333/333/331 357/357/355 346/346/344
f 357/357/355 333/333/331 348/348/346
f 334/334/332 358/358/356 349/349/347
f 358/358/356 334/334/332 347/347/345
f 350/350/348 348/348/346 335/335/333
f 348/348/346 350/350/348 359/359/357
f 336/336/334 350/350/348 338/338/336
f 350/350/348 336/336/334 349/349/347
f 351/351/349 352/352/350 341/341/339
f 352/352/350 351/351/349 360/360/358
f 352/352/350 353/353/351 342/342/340
f 353/353/351 352/352/350 361/361/359
f 347/347/345 362/362/360 358/358/356
f 362/362/360 347/347/345 353/353/351
f 356/356/354 355/355/353 345/345/343
f 355/355/353 356/356/354 363/363/361
f 357/357/355 356/356/354 346/346/344
f 356/356/354 357/357/355 364/364/362
f 348/348/346 365/365/363 357/357/355
f 365/365/363 348/348/346 359/359/357
f 349/349/347 359/359/357 350/350/348
f 359/359/357 349/349/347 358/358/356
f 360/360/358 361/361/359 352/352/350
f 361/361/359 360/360/358 366/366/364
f 361/361/359 362/362/360 353/353/351
f 362/362/360 361/361/359 367/367/365
f 358/358/356 365/365/363 359/359/357
f 365/365/363 358/358/356 368/368/366
f 368/368/366 358/358/356 362/362/360
f 364/364/362 363/363/361 356/356/354
f 363/363/361 364/364/362 369/369/367
f 363/363/361 369/369/367 370/370/367
f 371/371/368 357/357/355 365/365/363
f 357/357/355 371/371/368 364/364/362
f 366/366/364 367/367/365 361/361/359
f 367/367/365 366/366/364 372/372/369
f 367/367/365 372/372/369 373/373/369
f 367/367/365 373/373/369 374/374/370
f 374/374/370 373/373/369 375/375/369
f 367/367/365 368/368/366 362/362/360
f 368/368/366 367/367/365 376/376/371
f 371/371/368 368/368/366 376/376/371
f 368/368/366 371/371/368 365/365/363
f 377/377/372 364/364/362 371/371/368
f 364/364/362 377/377/372 369/369/367
f 369/369/367 377/377/372 370/370/367
f 378/378/373 379/373/369 380/372/369
f 379/373/369 378/378/373 381/375/369
f 381/375/369 378/378/373 374/374/370
f 378/378/373 376/376/371 374/374/370
f 376/376/371 378/378/373 371/371/368
f 371/371/368 378/378/373 377/377/372
