# SSTK version 0.8.0
# 9
mtllib original-9.mtl
o #ID130
v 0.455290 0.527288 0.442411
v 0.455290 0.523638 0.438706
v 0.455290 0.523638 0.443781
v 0.455290 0.525617 0.437963
v 0.454789 0.530909 0.441051
v 0.454789 0.529238 0.436602
v 0.455290 0.521967 0.439332
v 0.453793 0.534444 0.439723
v 0.453793 0.532773 0.435275
v 0.454789 0.518346 0.440693
v 0.454789 0.520017 0.445141
v 0.452319 0.537837 0.438449
v 0.452319 0.536167 0.434001
v 0.453793 0.514811 0.442020
v 0.453793 0.516482 0.446469
v 0.450390 0.541036 0.437248
v 0.450390 0.539365 0.432799
v 0.452319 0.511418 0.443295
v 0.452319 0.513088 0.447742
v 0.448036 0.543989 0.436139
v 0.448036 0.542318 0.431691
v 0.450390 0.508219 0.444496
v 0.450390 0.509890 0.448944
v 0.445295 0.546649 0.435141
v 0.445295 0.544979 0.430692
v 0.448036 0.505266 0.445605
v 0.448036 0.506937 0.450052
v 0.442210 0.548976 0.434267
v 0.442210 0.547305 0.429818
v 0.445295 0.502606 0.446603
v 0.445295 0.504276 0.451052
v 0.438830 0.550931 0.433532
v 0.438830 0.549261 0.429084
v 0.442210 0.500279 0.447477
v 0.442210 0.501950 0.451925
v 0.435207 0.552485 0.432949
v 0.435207 0.550815 0.428500
v 0.438830 0.498324 0.448212
v 0.438830 0.499994 0.452659
v 0.431399 0.553613 0.432525
v 0.431399 0.551943 0.428077
v 0.435207 0.496770 0.448795
v 0.435207 0.498440 0.453243
v 0.427466 0.554298 0.432268
v 0.427466 0.552627 0.427819
v 0.431399 0.495642 0.449218
v 0.431399 0.497312 0.453667
v 0.423469 0.554527 0.432183
v 0.423469 0.552856 0.427734
v 0.427466 0.494958 0.449475
v 0.427466 0.496628 0.453924
v 0.419473 0.554298 0.432268
v 0.419473 0.552627 0.427819
v 0.423469 0.494729 0.449561
v 0.423469 0.496399 0.454010
v 0.415540 0.553613 0.432525
v 0.415540 0.551943 0.428077
v 0.419473 0.494958 0.449475
v 0.419473 0.496628 0.453924
v 0.411732 0.552485 0.432949
v 0.411732 0.550815 0.428500
v 0.415540 0.495642 0.449218
v 0.415540 0.497312 0.453667
v 0.408109 0.550931 0.433532
v 0.408109 0.549261 0.429084
v 0.411732 0.496770 0.448795
v 0.411732 0.498440 0.453243
v 0.404729 0.548976 0.434267
v 0.404729 0.547305 0.429818
v 0.408109 0.498324 0.448212
v 0.408109 0.499994 0.452659
v 0.401643 0.546649 0.435141
v 0.401643 0.544979 0.430692
v 0.404729 0.500279 0.447477
v 0.404729 0.501950 0.451925
v 0.398903 0.542318 0.431691
v 0.398903 0.543989 0.436139
v 0.401643 0.502606 0.446603
v 0.401643 0.504276 0.451052
v 0.396549 0.539365 0.432799
v 0.396549 0.541036 0.437248
v 0.398903 0.506937 0.450052
v 0.398903 0.505266 0.445605
v 0.394620 0.536167 0.434001
v 0.394620 0.537837 0.438449
v 0.396549 0.509890 0.448944
v 0.396549 0.508219 0.444496
v 0.393146 0.532773 0.435275
v 0.393146 0.534444 0.439723
v 0.394620 0.513088 0.447742
v 0.394620 0.511418 0.443295
v 0.392150 0.529238 0.436602
v 0.392150 0.530909 0.441051
v 0.393146 0.516482 0.446469
v 0.393146 0.514811 0.442020
v 0.391649 0.525617 0.437963
v 0.391649 0.527288 0.442411
v 0.392150 0.520017 0.445141
v 0.392150 0.518346 0.440693
v 0.391649 0.523638 0.438706
v 0.391649 0.523638 0.443781
v 0.391649 0.521967 0.439332
v 0.391649 0.523638 0.438706
vn -0.997919904084786 -0.060351280247035934 0.022662480092764326
vn -1 0 0
vn -0.997919904084786 0.060351280247035934 -0.022662480092764326
vn -0.9813520949942475 -0.17994989908209844 0.06757291965531907
vn -0.9486000318844587 -0.29627740995851204 0.11125500373951654
vn -0.9813520949942475 0.17994989908209844 -0.06757291965531907
vn -0.9004053816071403 -0.407283491680294 0.15293889687586967
vn -0.9486000318844587 0.29627740995851204 -0.11125500373951654
vn -0.8378209051841216 -0.5110987031624872 0.19192250118754436
vn -0.9004053816071403 0.407283491680294 -0.15293889687586967
vn -0.762149358573594 -0.6060790670567491 0.22758848762949402
vn -0.8378209051841216 0.5110987031624872 -0.19192250118754436
vn -0.6748765109384491 -0.690830211197028 0.2594134042045918
vn -0.762149358573594 0.6060790670567491 -0.22758848762949402
vn -0.5776070158499265 -0.7642114209704775 0.286968707874615
vn -0.6748765109384491 0.690830211197028 -0.2594134042045918
vn -0.47200918833134303 -0.8253234795969723 0.309916892338467
vn -0.5776070158499265 0.7642114209704775 -0.286968707874615
vn -0.3597733953856076 -0.8734858887968187 0.3280022957930982
vn -0.47200918833134303 0.8253234795969723 -0.309916892338467
vn -0.24258479114935708 -0.9082089668642326 0.3410411875572009
vn -0.3597733953856076 0.8734858887968187 -0.3280022957930982
vn -0.12211079618376845 -0.9291663709615028 0.3489108890957654
vn -0.24258479114935708 0.9082089668642326 -0.3410411875572009
vn 0 -0.9361722540249108 0.3515416202868696
vn -0.12211079618376845 0.9291663709615028 -0.3489108890957654
vn 0.12211079618376845 -0.9291663709615028 0.3489108890957654
vn 0 0.9361722540249108 -0.3515416202868696
vn 0.24258479114935708 -0.9082089668642326 0.3410411875572009
vn 0.12211079618376845 0.9291663709615028 -0.3489108890957654
vn 0.3597733953856076 -0.8734858887968187 0.3280022957930982
vn 0.24258479114935708 0.9082089668642326 -0.3410411875572009
vn 0.47200918833134303 -0.8253234795969723 0.309916892338467
vn 0.3597733953856076 0.8734858887968187 -0.3280022957930982
vn 0.5776070158499265 -0.7642114209704775 0.286968707874615
vn 0.47200918833134303 0.8253234795969723 -0.309916892338467
vn 0.6748765109384491 -0.690830211197028 0.2594134042045918
vn 0.5776070158499265 0.7642114209704775 -0.286968707874615
vn 0.762149358573594 -0.6060790670567491 0.22758848762949402
vn 0.6748765109384491 0.690830211197028 -0.2594134042045918
vn 0.8378209051841216 -0.5110987031624872 0.19192250118754436
vn 0.762149358573594 0.6060790670567491 -0.22758848762949402
vn 0.9004053816071403 -0.407283491680294 0.15293889687586967
vn 0.8378209051841216 0.5110987031624872 -0.19192250118754436
vn 0.9486000318844587 -0.29627740995851204 0.11125500373951654
vn 0.9004053816071403 0.407283491680294 -0.15293889687586967
vn 0.9813520949942475 -0.17994989908209844 0.06757291965531907
vn 0.9486000318844587 0.29627740995851204 -0.11125500373951654
vn 0.997919904084786 -0.060351280247035934 0.022662480092764326
vn 0.9813520949942475 0.17994989908209844 -0.06757291965531907
vn 1 0 0
vn 0.997919904084786 0.060351280247035934 -0.022662480092764326
usemtl material_0_0
f 1//1 2//2 3//3
f 2//2 1//1 4//1
f 5//4 4//1 1//1
f 4//1 5//4 6//4
f 2//2 7//3 3//3
f 8//5 6//4 5//4
f 6//4 8//5 9//5
f 3//3 10//6 11//6
f 10//6 3//3 7//3
f 12//7 9//5 8//5
f 9//5 12//7 13//7
f 11//6 14//8 15//8
f 14//8 11//6 10//6
f 16//9 13//7 12//7
f 13//7 16//9 17//9
f 15//8 18//10 19//10
f 18//10 15//8 14//8
f 20//11 17//9 16//9
f 17//9 20//11 21//11
f 19//10 22//12 23//12
f 22//12 19//10 18//10
f 24//13 21//11 20//11
f 21//11 24//13 25//13
f 23//12 26//14 27//14
f 26//14 23//12 22//12
f 25//13 28//15 29//15
f 28//15 25//13 24//13
f 27//14 30//16 31//16
f 30//16 27//14 26//14
f 29//15 32//17 33//17
f 32//17 29//15 28//15
f 31//16 34//18 35//18
f 34//18 31//16 30//16
f 33//17 36//19 37//19
f 36//19 33//17 32//17
f 35//18 38//20 39//20
f 38//20 35//18 34//18
f 37//19 40//21 41//21
f 40//21 37//19 36//19
f 39//20 42//22 43//22
f 42//22 39//20 38//20
f 41//21 44//23 45//23
f 44//23 41//21 40//21
f 43//22 46//24 47//24
f 46//24 43//22 42//22
f 45//23 48//25 49//25
f 48//25 45//23 44//23
f 47//24 50//26 51//26
f 50//26 47//24 46//24
f 49//25 52//27 53//27
f 52//27 49//25 48//25
f 51//26 54//28 55//28
f 54//28 51//26 50//26
f 53//27 56//29 57//29
f 56//29 53//27 52//27
f 55//28 58//30 59//30
f 58//30 55//28 54//28
f 57//29 60//31 61//31
f 60//31 57//29 56//29
f 59//30 62//32 63//32
f 62//32 59//30 58//30
f 61//31 64//33 65//33
f 64//33 61//31 60//31
f 63//32 66//34 67//34
f 66//34 63//32 62//32
f 65//33 68//35 69//35
f 68//35 65//33 64//33
f 67//34 70//36 71//36
f 70//36 67//34 66//34
f 69//35 72//37 73//37
f 72//37 69//35 68//35
f 71//36 74//38 75//38
f 74//38 71//36 70//36
f 76//39 72//37 77//39
f 72//37 76//39 73//37
f 75//38 78//40 79//40
f 78//40 75//38 74//38
f 80//41 77//39 81//41
f 77//39 80//41 76//39
f 78//40 82//42 79//40
f 82//42 78//40 83//42
f 84//43 81//41 85//43
f 81//41 84//43 80//41
f 83//42 86//44 82//42
f 86//44 83//42 87//44
f 88//45 85//43 89//45
f 85//43 88//45 84//43
f 87//44 90//46 86//44
f 90//46 87//44 91//46
f 92//47 89//45 93//47
f 89//45 92//47 88//45
f 91//46 94//48 90//46
f 94//48 91//46 95//48
f 96//49 93//47 97//49
f 93//47 96//49 92//47
f 95//48 98//50 94//48
f 98//50 95//48 99//50
f 100//51 97//49 101//52
f 97//49 100//51 96//49
f 99//50 101//52 98//50
f 101//52 99//50 102//52
f 103//51 101//52 102//52
