# SSTK version 0.8.0
# 22
mtllib original-22.mtl
o #ID210
v 0.333666 0.473276 0.462693
v 0.334151 0.467916 0.459629
v 0.334151 0.469586 0.464078
v 0.333666 0.471606 0.458244
v 0.333666 0.471606 0.458244
v 0.333666 0.473276 0.462693
v 0.334151 0.467916 0.459629
v 0.334151 0.469586 0.464078
v 0.334151 0.476965 0.461307
v 0.334151 0.475295 0.456859
v 0.334151 0.475295 0.456859
v 0.334151 0.476965 0.461307
v 0.335576 0.464478 0.460921
v 0.335576 0.466148 0.465369
v 0.335576 0.464478 0.460921
v 0.335576 0.466148 0.465369
v 0.335576 0.480403 0.460017
v 0.335576 0.478733 0.455568
v 0.335576 0.478733 0.455568
v 0.335576 0.480403 0.460017
v 0.337841 0.461526 0.462030
v 0.337841 0.463196 0.466477
v 0.337841 0.461526 0.462030
v 0.337841 0.463196 0.466477
v 0.337841 0.483356 0.458908
v 0.337841 0.481685 0.454459
v 0.337841 0.481685 0.454459
v 0.337841 0.483356 0.458908
v 0.340793 0.459260 0.462880
v 0.340793 0.460931 0.467328
v 0.340793 0.460931 0.467328
v 0.340793 0.459260 0.462880
v 0.340793 0.485621 0.458057
v 0.340793 0.483951 0.453608
v 0.340793 0.483951 0.453608
v 0.340793 0.485621 0.458057
v 0.344231 0.457836 0.463414
v 0.344231 0.459507 0.467863
v 0.344231 0.459507 0.467863
v 0.344231 0.457836 0.463414
v 0.344231 0.487045 0.457522
v 0.344231 0.485375 0.453073
v 0.344231 0.485375 0.453073
v 0.344231 0.487045 0.457522
v 0.347921 0.457350 0.463598
v 0.347921 0.459021 0.468045
v 0.347921 0.459021 0.468045
v 0.347921 0.457350 0.463598
v 0.347921 0.487531 0.457340
v 0.347921 0.485861 0.452891
v 0.347921 0.485861 0.452891
v 0.347921 0.487531 0.457340
v 0.351610 0.457836 0.463414
v 0.351610 0.459507 0.467863
v 0.351610 0.459507 0.467863
v 0.351610 0.457836 0.463414
v 0.351610 0.487045 0.457522
v 0.351610 0.485375 0.453073
v 0.351610 0.485375 0.453073
v 0.351610 0.487045 0.457522
v 0.355048 0.459260 0.462880
v 0.355048 0.460931 0.467328
v 0.355048 0.460931 0.467328
v 0.355048 0.459260 0.462880
v 0.355048 0.485621 0.458057
v 0.355048 0.483951 0.453608
v 0.355048 0.483951 0.453608
v 0.355048 0.485621 0.458057
v 0.358001 0.461526 0.462030
v 0.358001 0.463196 0.466477
v 0.358001 0.463196 0.466477
v 0.358001 0.461526 0.462030
v 0.358001 0.483356 0.458908
v 0.358001 0.481685 0.454459
v 0.358001 0.481685 0.454459
v 0.358001 0.483356 0.458908
v 0.360266 0.466148 0.465369
v 0.360266 0.464478 0.460921
v 0.360266 0.464478 0.460921
v 0.360266 0.466148 0.465369
v 0.360266 0.478733 0.455568
v 0.360266 0.480403 0.460017
v 0.360266 0.478733 0.455568
v 0.360266 0.480403 0.460017
v 0.361690 0.469586 0.464078
v 0.361690 0.467916 0.459629
v 0.361690 0.467916 0.459629
v 0.361690 0.469586 0.464078
v 0.361690 0.475295 0.456859
v 0.361690 0.476965 0.461307
v 0.361690 0.475295 0.456859
v 0.361690 0.476965 0.461307
v 0.362176 0.473276 0.462693
v 0.362176 0.471606 0.458244
v 0.362176 0.471606 0.458244
v 0.362176 0.473276 0.462693
vn -1 0 0
vn -0.9698267117127319 -0.22823440275641863 0.08570418103506125
vn 1 0 0
vn 0.9698267117127319 0.22823440275641863 -0.08570418103506125
vn -0.9698267117127319 0.22823440275641863 -0.08570418103506125
vn 0.9698267117127319 -0.22823440275641863 0.08570418103506125
vn -0.8792887011449966 -0.4458887005806297 0.16743550021803189
vn 0.8792887011449966 0.4458887005806297 -0.16743550021803189
vn -0.8792887011449966 0.4458887005806297 -0.16743550021803189
vn 0.8792887011449966 -0.4458887005806297 0.16743550021803189
vn -0.729254895794234 -0.640568496305707 0.2405395986127575
vn 0.729254895794234 0.640568496305707 -0.2405395986127575
vn -0.729254895794234 0.640568496305707 -0.2405395986127575
vn 0.729254895794234 -0.640568496305707 0.2405395986127575
vn -0.5240359045983652 -0.797334306996533 0.2994067026272652
vn 0.5240359045983652 0.797334306996533 -0.2994067026272652
vn -0.5240359045983652 0.797334306996533 -0.2994067026272652
vn 0.5240359045983652 -0.797334306996533 0.2994067026272652
vn -0.2745645993744965 -0.9001938979492099 0.33803139922990844
vn 0.2745645993744965 0.9001938979492099 -0.33803139922990844
vn -0.2745645993744965 0.9001938979492099 -0.33803139922990844
vn 0.2745645993744965 -0.9001938979492099 0.33803139922990844
vn 0 -0.9361722540249108 0.3515416202868696
vn 0 0.9361722540249108 -0.3515416202868696
usemtl material_0_0
f 1//1 2//2 3//2
f 2//2 1//1 4//1
f 5//3 6//3 7//4
f 8//4 7//4 6//3
f 9//5 4//1 1//1
f 4//1 9//5 10//5
f 11//6 12//6 5//3
f 6//3 5//3 12//6
f 3//2 13//7 14//7
f 13//7 3//2 2//2
f 7//4 8//4 15//8
f 16//8 15//8 8//4
f 17//9 10//5 9//5
f 10//5 17//9 18//9
f 19//10 20//10 11//6
f 12//6 11//6 20//10
f 14//7 21//11 22//11
f 21//11 14//7 13//7
f 15//8 16//8 23//12
f 24//12 23//12 16//8
f 25//13 18//9 17//9
f 18//9 25//13 26//13
f 27//14 28//14 19//10
f 20//10 19//10 28//14
f 29//15 22//11 21//11
f 22//11 29//15 30//15
f 31//16 32//16 24//12
f 23//12 24//12 32//16
f 33//17 26//13 25//13
f 26//13 33//17 34//17
f 35//18 36//18 27//14
f 28//14 27//14 36//18
f 37//19 30//15 29//15
f 30//15 37//19 38//19
f 39//20 40//20 31//16
f 32//16 31//16 40//20
f 41//21 34//17 33//17
f 34//17 41//21 42//21
f 43//22 44//22 35//18
f 36//18 35//18 44//22
f 45//23 38//19 37//19
f 38//19 45//23 46//23
f 47//24 48//24 39//20
f 40//20 39//20 48//24
f 49//24 42//21 41//21
f 42//21 49//24 50//24
f 51//23 52//23 43//22
f 44//22 43//22 52//23
f 53//22 46//23 45//23
f 46//23 53//22 54//22
f 55//21 56//21 47//24
f 48//24 47//24 56//21
f 57//20 50//24 49//24
f 50//24 57//20 58//20
f 59//19 60//19 51//23
f 52//23 51//23 60//19
f 61//18 54//22 53//22
f 54//22 61//18 62//18
f 63//17 64//17 55//21
f 56//21 55//21 64//17
f 65//16 58//20 57//20
f 58//20 65//16 66//16
f 67//15 68//15 59//19
f 60//19 59//19 68//15
f 69//14 62//18 61//18
f 62//18 69//14 70//14
f 71//13 72//13 63//17
f 64//17 63//17 72//13
f 73//12 66//16 65//16
f 66//16 73//12 74//12
f 75//11 76//11 67//15
f 68//15 67//15 76//11
f 69//14 77//10 70//14
f 77//10 69//14 78//10
f 79//9 72//13 80//9
f 71//13 80//9 72//13
f 81//8 73//12 82//8
f 73//12 81//8 74//12
f 75//11 83//7 76//11
f 84//7 76//11 83//7
f 78//10 85//6 77//10
f 85//6 78//10 86//6
f 87//5 79//9 88//5
f 80//9 88//5 79//9
f 89//4 82//8 90//4
f 82//8 89//4 81//8
f 83//7 91//2 84//7
f 92//2 84//7 91//2
f 86//6 93//3 85//6
f 93//3 86//6 94//3
f 95//1 87//5 96//1
f 88//5 96//1 87//5
f 94//3 90//4 93//3
f 90//4 94//3 89//4
f 91//2 95//1 92//2
f 96//1 92//2 95//1
