# SSTK version 0.8.0
# 98
mtllib original-98.mtl
o #ID731
v -0.223502 -0.104978 0.204396
v -0.230881 -0.104978 0.204396
v -0.227192 -0.105464 0.204396
v -0.220064 -0.103554 0.204396
v -0.234319 -0.103554 0.204396
v -0.217112 -0.101288 0.204396
v -0.237272 -0.101288 0.204396
v -0.214846 -0.098336 0.204396
v -0.239537 -0.098336 0.204396
v -0.240961 -0.094898 0.204396
v -0.213422 -0.094898 0.204396
v -0.212937 -0.091208 0.204396
v -0.241447 -0.091208 0.204396
v -0.213422 -0.087519 0.204396
v -0.240961 -0.087519 0.204396
v -0.214846 -0.084081 0.204396
v -0.239537 -0.084081 0.204396
v -0.217112 -0.081129 0.204396
v -0.237272 -0.081129 0.204396
v -0.220064 -0.078863 0.204396
v -0.234319 -0.078863 0.204396
v -0.223502 -0.077439 0.204396
v -0.230881 -0.077439 0.204396
v -0.227192 -0.076953 0.204396
vn 0 0 1
usemtl material_0_0
f 1//1 2//1 3//1
f 2//1 1//1 4//1
f 2//1 4//1 5//1
f 5//1 4//1 6//1
f 5//1 6//1 7//1
f 7//1 6//1 8//1
f 7//1 8//1 9//1
f 9//1 8//1 10//1
f 10//1 8//1 11//1
f 10//1 11//1 12//1
f 10//1 12//1 13//1
f 13//1 12//1 14//1
f 13//1 14//1 15//1
f 15//1 14//1 16//1
f 15//1 16//1 17//1
f 17//1 16//1 18//1
f 17//1 18//1 19//1
f 19//1 18//1 20//1
f 19//1 20//1 21//1
f 21//1 20//1 22//1
f 21//1 22//1 23//1
f 23//1 22//1 24//1
