# SSTK version 0.8.0
# 10
mtllib original-10.mtl
o #ID136
v 0.448360 0.524016 0.443639
v 0.448360 0.528413 0.446556
v 0.448360 0.525519 0.447643
v 0.448360 0.526909 0.442552
v 0.448360 0.524016 0.438564
v 0.448360 0.525239 0.438105
v 0.448376 0.528457 0.446671
v 0.448376 0.525562 0.447758
v 0.448360 0.522346 0.439191
v 0.447962 0.529779 0.441475
v 0.447962 0.528109 0.437027
v 0.448423 0.528500 0.446777
v 0.448423 0.525599 0.447867
v 0.447962 0.519476 0.440269
v 0.447962 0.521146 0.444717
v 0.447174 0.532578 0.440425
v 0.447174 0.530907 0.435976
v 0.448499 0.528539 0.446867
v 0.448499 0.525629 0.447961
v 0.447174 0.516677 0.441319
v 0.447174 0.518348 0.445768
v 0.446009 0.535259 0.439417
v 0.446009 0.533589 0.434969
v 0.446009 0.513996 0.442327
v 0.446009 0.515666 0.446774
v 0.444488 0.537782 0.438471
v 0.444488 0.536111 0.434022
v 0.444488 0.511473 0.443273
v 0.444488 0.513144 0.447722
v 0.442636 0.540105 0.437598
v 0.442636 0.538434 0.433149
v 0.442636 0.509150 0.444146
v 0.442636 0.510821 0.448594
v 0.440485 0.542193 0.436814
v 0.440485 0.540522 0.432365
v 0.440485 0.507062 0.444930
v 0.440485 0.508733 0.449379
v 0.438070 0.542344 0.431682
v 0.438070 0.544014 0.436129
v 0.438070 0.506911 0.450062
v 0.438070 0.505241 0.445614
v 0.435428 0.543872 0.431107
v 0.435428 0.545542 0.435556
v 0.435428 0.505383 0.450636
v 0.435428 0.503713 0.446188
v 0.432603 0.545084 0.430652
v 0.432603 0.546754 0.435101
v 0.432603 0.504171 0.451092
v 0.432603 0.502501 0.446643
v 0.429637 0.545962 0.430323
v 0.429637 0.547633 0.434771
v 0.429637 0.503293 0.451421
v 0.429637 0.501622 0.446972
v 0.426577 0.546494 0.430122
v 0.426577 0.548165 0.434571
v 0.426577 0.502761 0.451621
v 0.426577 0.501090 0.447173
v 0.426386 0.546509 0.430119
v 0.423469 0.502583 0.451688
v 0.423469 0.500912 0.447239
v 0.423469 0.546672 0.430056
v 0.420362 0.502761 0.451621
v 0.420362 0.501090 0.447173
v 0.423469 0.548343 0.434505
v 0.417302 0.503293 0.451421
v 0.417302 0.501622 0.446972
v 0.420552 0.546509 0.430119
v 0.414336 0.504171 0.451092
v 0.414336 0.502501 0.446643
v 0.420362 0.546494 0.430122
v 0.411511 0.505383 0.450636
v 0.411511 0.503713 0.446188
v 0.420362 0.548165 0.434571
v 0.408869 0.506911 0.450062
v 0.408869 0.505241 0.445614
v 0.417302 0.545962 0.430323
v 0.417302 0.547633 0.434771
v 0.406454 0.508733 0.449379
v 0.406454 0.507062 0.444930
v 0.414336 0.545084 0.430652
v 0.414336 0.546754 0.435101
v 0.404303 0.510821 0.448594
v 0.404303 0.509150 0.444146
v 0.411511 0.543872 0.431107
v 0.411511 0.545542 0.435556
v 0.402451 0.513144 0.447722
v 0.402451 0.511473 0.443273
v 0.408869 0.542344 0.431682
v 0.408869 0.544014 0.436129
v 0.400930 0.515666 0.446774
v 0.400930 0.513996 0.442327
v 0.406454 0.540522 0.432365
v 0.406454 0.542193 0.436814
v 0.399765 0.518348 0.445768
v 0.399765 0.516677 0.441319
v 0.404303 0.538434 0.433149
v 0.404303 0.540105 0.437598
v 0.398977 0.521146 0.444717
v 0.398977 0.519476 0.440269
v 0.402451 0.536111 0.434022
v 0.402451 0.537782 0.438471
v 0.398579 0.524016 0.443639
v 0.398579 0.522346 0.439191
v 0.400930 0.533589 0.434969
v 0.400930 0.535259 0.439417
v 0.398579 0.524016 0.438564
v 0.399765 0.530907 0.435976
v 0.399765 0.532578 0.440425
v 0.398579 0.528413 0.446556
v 0.398579 0.525519 0.447643
v 0.398579 0.526909 0.442552
v 0.398579 0.525239 0.438105
v 0.398977 0.528109 0.437027
v 0.398977 0.529779 0.441475
v 0.398563 0.528457 0.446671
v 0.398563 0.525562 0.447758
v 0.398515 0.528500 0.446777
v 0.398515 0.525599 0.447867
v 0.398440 0.528539 0.446867
v 0.398440 0.525629 0.447961
vn 0.9963007681793257 -0.08044971743053068 0.030209639035139655
vn 0.9931891720431081 0.06717747810904758 -0.09519692732033906
vn 0.9931891699412371 -0.1132329965730156 -0.027451069169196384
vn 0.9963007681793257 0.08044971743053068 -0.030209639035139655
vn 1 0 0
vn 0.997919904084786 0.060351280247035934 -0.022662480092764326
vn 0.9653181837439337 -0.06184920895845235 -0.2536443957286
vn 0.9613174078126218 -0.17836650144958363 -0.20989100170578315
vn 0.997919904084786 -0.060351280247035934 0.022662480092764326
vn 0.9813520949942475 0.17994989908209844 -0.06757291965531907
vn 0.865234293757806 -0.1497870989193676 -0.47846989654810046
vn 0.8616421235666145 -0.2542236069532228 -0.4392530120139281
vn 0.9813520949942475 -0.17994989908209844 0.06757291965531907
vn 0.9486000318844587 0.29627740995851204 -0.11125500373951654
vn 0.7349345176201915 -0.21007230503652233 -0.6447797154587133
vn 0.6858398890165451 -0.30657379509034166 -0.6600273894299223
vn 0.9486000318844587 -0.29627740995851204 0.11125500373951654
vn 0.9004053816071403 0.407283491680294 -0.15293889687586967
vn 0.9004053816071403 -0.407283491680294 0.15293889687586967
vn 0.8378209051841216 0.5110987031624872 -0.19192250118754436
vn 0.8378209051841216 -0.5110987031624872 0.19192250118754436
vn 0.762149358573594 0.6060790670567491 -0.22758848762949402
vn 0.762149358573594 -0.6060790670567491 0.22758848762949402
vn 0.6748765109384491 0.690830211197028 -0.2594134042045918
vn 0.6748765109384491 -0.690830211197028 0.2594134042045918
vn 0.5776070158499265 0.7642114209704775 -0.286968707874615
vn 0.5776070158499265 -0.7642114209704775 0.286968707874615
vn 0.47200918833134303 0.8253234795969723 -0.309916892338467
vn 0.47200918833134303 -0.8253234795969723 0.309916892338467
vn 0.3597733953856076 0.8734858887968187 -0.3280022957930982
vn 0.3597733953856076 -0.8734858887968187 0.3280022957930982
vn 0.24258479114935708 0.9082089668642326 -0.3410411875572009
vn 0.24258479114935708 -0.9082089668642326 0.3410411875572009
vn 0.13033929749574089 0.9281861821664017 -0.3485427933033129
vn 0.1221171959535967 0.9291762692113639 -0.34888228843964225
vn 0.12211079618376845 -0.9291663709615028 0.3489108890957654
vn 0.06857704853294656 0.9340946800171218 -0.3503773925044547
vn 0 -0.9361722540249108 0.3515416202868696
vn 0.00019787140144027218 0.9362502068148058 -0.35133390255729935
vn -0.12211079618376845 -0.9291663709615028 0.3489108890957654
vn -0.034464491249379704 0.9365569339513274 -0.3488170126450405
vn -0.24258479114935708 -0.9082089668642326 0.3410411875572009
vn -0.07189199804388886 0.9362861745245665 -0.34380189064548566
vn -0.3597733953856076 -0.8734858887968187 0.3280022957930982
vn -0.12735430148642465 0.929735410851472 -0.34550390403257275
vn -0.47200918833134303 -0.8253234795969723 0.309916892338467
vn -0.12211079618376845 0.9291663709615028 -0.3489108890957654
vn -0.5776070158499265 -0.7642114209704775 0.286968707874615
vn -0.24258479114935708 0.9082089668642326 -0.3410411875572009
vn -0.6748765109384491 -0.690830211197028 0.2594134042045918
vn -0.3597733953856076 0.8734858887968187 -0.3280022957930982
vn -0.762149358573594 -0.6060790670567491 0.22758848762949402
vn -0.47200918833134303 0.8253234795969723 -0.309916892338467
vn -0.8378209051841216 -0.5110987031624872 0.19192250118754436
vn -0.5776070158499265 0.7642114209704775 -0.286968707874615
vn -0.9004053816071403 -0.407283491680294 0.15293889687586967
vn -0.6748765109384491 0.690830211197028 -0.2594134042045918
vn -0.9486000318844587 -0.29627740995851204 0.11125500373951654
vn -0.762149358573594 0.6060790670567491 -0.22758848762949402
vn -0.9813520949942475 -0.17994989908209844 0.06757291965531907
vn -0.8378209051841216 0.5110987031624872 -0.19192250118754436
vn -0.9963007681793257 -0.08044971743053068 0.030209639035139655
vn -0.997919904084786 -0.060351280247035934 0.022662480092764326
vn -0.9004053816071403 0.407283491680294 -0.15293889687586967
vn -1 0 0
vn -0.9486000318844587 0.29627740995851204 -0.11125500373951654
vn -0.9931891720431081 0.06717747810904758 -0.09519692732033906
vn -0.9931891699412371 -0.1132329965730156 -0.027451069169196384
vn -0.9963007681793257 0.08044971743053068 -0.030209639035139655
vn -0.997919904084786 0.060351280247035934 -0.022662480092764326
vn -0.9813520949942475 0.17994989908209844 -0.06757291965531907
vn -0.9613174047855672 -0.003870867019269635 -0.27541580137105687
vn -0.9653181711096059 -0.12038819639697812 -0.2316624930667205
vn -0.8616421023696103 -0.09773053026876956 -0.4980177013696033
vn -0.8652342723704183 -0.20216699354418827 -0.458800785349085
vn -0.6858398672135699 -0.20363459026529127 -0.6986820665996514
vn -0.7349345071637189 -0.2662483025952352 -0.6236851060793237
usemtl material_0_0
f 1//1 2//2 3//3
f 2//2 1//1 4//4
f 4//4 1//1 5//5
f 4//4 5//5 6//6
f 3//3 7//7 8//8
f 7//7 3//3 2//2
f 5//5 1//1 9//9
f 6//6 10//10 4//4
f 10//10 6//6 11//10
f 8//8 12//11 13//12
f 12//11 8//8 7//7
f 14//13 1//1 15//13
f 1//1 14//13 9//9
f 11//10 16//14 10//10
f 16//14 11//10 17//14
f 13//12 18//15 19//16
f 18//15 13//12 12//11
f 20//17 15//13 21//17
f 15//13 20//17 14//13
f 17//14 22//18 16//14
f 22//18 17//14 23//18
f 24//19 21//17 25//19
f 21//17 24//19 20//17
f 23//18 26//20 22//18
f 26//20 23//18 27//20
f 28//21 25//19 29//21
f 25//19 28//21 24//19
f 27//20 30//22 26//20
f 30//22 27//20 31//22
f 32//23 29//21 33//23
f 29//21 32//23 28//21
f 31//22 34//24 30//22
f 34//24 31//22 35//24
f 36//25 33//23 37//25
f 33//23 36//25 32//23
f 34//24 38//26 39//26
f 38//26 34//24 35//24
f 36//25 40//27 41//27
f 40//27 36//25 37//25
f 39//26 42//28 43//28
f 42//28 39//26 38//26
f 41//27 44//29 45//29
f 44//29 41//27 40//27
f 43//28 46//30 47//30
f 46//30 43//28 42//28
f 45//29 48//31 49//31
f 48//31 45//29 44//29
f 47//30 50//32 51//32
f 50//32 47//30 46//30
f 49//31 52//33 53//33
f 52//33 49//31 48//31
f 51//32 54//34 55//35
f 54//34 51//32 50//32
f 53//33 56//36 57//36
f 56//36 53//33 52//33
f 54//34 58//37 55//35
f 57//36 59//38 60//38
f 59//38 57//36 56//36
f 55//35 58//37 61//39
f 60//38 62//40 63//40
f 62//40 60//38 59//38
f 55//35 61//39 64//41
f 63//40 65//42 66//42
f 65//42 63//40 62//40
f 61//39 67//43 64//41
f 66//42 68//44 69//44
f 68//44 66//42 65//42
f 64//41 67//43 70//45
f 69//44 71//46 72//46
f 71//46 69//44 68//44
f 64//41 70//45 73//47
f 72//46 74//48 75//48
f 74//48 72//46 71//46
f 73//47 76//49 77//49
f 76//49 73//47 70//45
f 75//48 78//50 79//50
f 78//50 75//48 74//48
f 77//49 80//51 81//51
f 80//51 77//49 76//49
f 82//52 79//50 78//50
f 79//50 82//52 83//52
f 81//51 84//53 85//53
f 84//53 81//51 80//51
f 86//54 83//52 82//52
f 83//52 86//54 87//54
f 85//53 88//55 89//55
f 88//55 85//53 84//53
f 90//56 87//54 86//54
f 87//54 90//56 91//56
f 89//55 92//57 93//57
f 92//57 89//55 88//55
f 94//58 91//56 90//56
f 91//56 94//58 95//58
f 93//57 96//59 97//59
f 96//59 93//57 92//57
f 98//60 95//58 94//58
f 95//58 98//60 99//60
f 97//59 100//61 101//61
f 100//61 97//59 96//59
f 102//62 99//60 98//60
f 99//60 102//62 103//63
f 101//61 104//64 105//64
f 104//64 101//61 100//61
f 106//65 103//63 102//62
f 105//64 107//66 108//66
f 107//66 105//64 104//64
f 109//67 102//62 110//68
f 102//62 109//67 111//69
f 102//62 111//69 106//65
f 106//65 111//69 112//70
f 108//66 113//71 114//71
f 113//71 108//66 107//66
f 115//72 110//68 116//73
f 110//68 115//72 109//67
f 114//71 112//70 111//69
f 112//70 114//71 113//71
f 117//74 116//73 118//75
f 116//73 117//74 115//72
f 119//76 118//75 120//77
f 118//75 119//76 117//74
