# SSTK version 0.8.0
# 99
mtllib original-99.mtl
o #ID737
v 0.427708 0.494527 0.454712
v 0.419231 0.494527 0.454712
v 0.423469 0.494284 0.454804
v 0.415058 0.495253 0.454440
v 0.431881 0.495253 0.454440
v 0.435925 0.496451 0.453991
v 0.411014 0.496451 0.453991
v 0.439778 0.498103 0.453370
v 0.407161 0.498103 0.453370
v 0.443379 0.500186 0.452588
v 0.403560 0.500186 0.452588
v 0.400267 0.502670 0.451655
v 0.446672 0.502670 0.451655
v 0.449604 0.505516 0.450586
v 0.397335 0.505516 0.450586
v 0.452127 0.508681 0.449398
v 0.394812 0.508681 0.449398
v 0.454199 0.512118 0.448107
v 0.393776 0.510400 0.448752
v 0.392739 0.512118 0.448107
v 0.391152 0.515772 0.446736
v 0.455786 0.515772 0.446736
v 0.390079 0.519584 0.445304
v 0.456860 0.519584 0.445304
v 0.457402 0.523492 0.443835
v 0.389537 0.523492 0.443835
v 0.457402 0.527433 0.442356
v 0.389537 0.527433 0.442356
v 0.390079 0.531342 0.440888
v 0.456860 0.531342 0.440888
v 0.455786 0.535154 0.439457
v 0.391152 0.535154 0.439457
v 0.454199 0.538808 0.438084
v 0.392739 0.538808 0.438084
v 0.452127 0.542244 0.436794
v 0.394812 0.542244 0.436794
v 0.449604 0.545410 0.435605
v 0.397335 0.545410 0.435605
v 0.446672 0.548256 0.434537
v 0.400267 0.548256 0.434537
v 0.403560 0.550739 0.433604
v 0.443379 0.550739 0.433604
v 0.439778 0.552822 0.432822
v 0.407161 0.552822 0.432822
v 0.411014 0.554475 0.432202
v 0.435925 0.554475 0.432202
v 0.431881 0.555672 0.431752
v 0.415058 0.555672 0.431752
v 0.427708 0.556399 0.431479
v 0.419231 0.556399 0.431479
v 0.423469 0.556641 0.431388
v 0.423469 0.556641 0.431388
v 0.427708 0.556399 0.431479
v 0.419231 0.556399 0.431479
v 0.415058 0.555672 0.431752
v 0.431881 0.555672 0.431752
v 0.411014 0.554475 0.432202
v 0.435925 0.554475 0.432202
v 0.439778 0.552822 0.432822
v 0.407161 0.552822 0.432822
v 0.403560 0.550739 0.433604
v 0.443379 0.550739 0.433604
v 0.446672 0.548256 0.434537
v 0.400267 0.548256 0.434537
v 0.397335 0.545410 0.435605
v 0.449604 0.545410 0.435605
v 0.394812 0.542244 0.436794
v 0.452127 0.542244 0.436794
v 0.392739 0.538808 0.438084
v 0.454199 0.538808 0.438084
v 0.391152 0.535154 0.439457
v 0.455786 0.535154 0.439457
v 0.390079 0.531342 0.440888
v 0.456860 0.531342 0.440888
v 0.457402 0.527433 0.442356
v 0.389537 0.527433 0.442356
v 0.389537 0.523492 0.443835
v 0.457402 0.523492 0.443835
v 0.390079 0.519584 0.445304
v 0.456860 0.519584 0.445304
v 0.455786 0.515772 0.446736
v 0.391152 0.515772 0.446736
v 0.454199 0.512118 0.448107
v 0.392739 0.512118 0.448107
v 0.393776 0.510400 0.448752
v 0.394812 0.508681 0.449398
v 0.452127 0.508681 0.449398
v 0.397335 0.505516 0.450586
v 0.449604 0.505516 0.450586
v 0.400267 0.502670 0.451655
v 0.446672 0.502670 0.451655
v 0.443379 0.500186 0.452588
v 0.403560 0.500186 0.452588
v 0.407161 0.498103 0.453370
v 0.439778 0.498103 0.453370
v 0.411014 0.496451 0.453991
v 0.435925 0.496451 0.453991
v 0.415058 0.495253 0.454440
v 0.431881 0.495253 0.454440
v 0.427708 0.494527 0.454712
v 0.419231 0.494527 0.454712
v 0.423469 0.494284 0.454804
vn 0 0.3515416202868696 0.9361722540249108
vn 0 -0.3515416202868696 -0.9361722540249108
usemtl material_0_0
f 52//2 53//2 54//2
f 54//2 53//2 55//2
f 53//2 56//2 55//2
f 55//2 56//2 57//2
f 56//2 58//2 57//2
f 58//2 59//2 57//2
f 57//2 59//2 60//2
f 60//2 59//2 61//2
f 59//2 62//2 61//2
f 62//2 63//2 61//2
f 61//2 63//2 64//2
f 64//2 63//2 65//2
f 63//2 66//2 65//2
f 65//2 66//2 67//2
f 66//2 68//2 67//2
f 67//2 68//2 69//2
f 68//2 70//2 69//2
f 69//2 70//2 71//2
f 70//2 72//2 71//2
f 71//2 72//2 73//2
f 72//2 74//2 73//2
f 74//2 75//2 73//2
f 73//2 75//2 76//2
f 76//2 75//2 77//2
f 75//2 78//2 77//2
f 77//2 78//2 79//2
f 78//2 80//2 79//2
f 80//2 81//2 79//2
f 79//2 81//2 82//2
f 81//2 83//2 82//2
f 82//2 83//2 84//2
f 84//2 83//2 85//2
f 85//2 83//2 86//2
f 83//2 87//2 86//2
f 86//2 87//2 88//2
f 87//2 89//2 88//2
f 88//2 89//2 90//2
f 89//2 91//2 90//2
f 91//2 92//2 90//2
f 90//2 92//2 93//2
f 93//2 92//2 94//2
f 92//2 95//2 94//2
f 94//2 95//2 96//2
f 95//2 97//2 96//2
f 96//2 97//2 98//2
f 97//2 99//2 98//2
f 99//2 100//2 98//2
f 98//2 100//2 101//2
f 102//2 101//2 100//2
usemtl material_1_0
f 1//1 2//1 3//1
f 2//1 1//1 4//1
f 4//1 1//1 5//1
f 4//1 5//1 6//1
f 4//1 6//1 7//1
f 7//1 6//1 8//1
f 7//1 8//1 9//1
f 9//1 8//1 10//1
f 9//1 10//1 11//1
f 11//1 10//1 12//1
f 12//1 10//1 13//1
f 12//1 13//1 14//1
f 12//1 14//1 15//1
f 15//1 14//1 16//1
f 15//1 16//1 17//1
f 17//1 16//1 18//1
f 17//1 18//1 19//1
f 19//1 18//1 20//1
f 20//1 18//1 21//1
f 21//1 18//1 22//1
f 21//1 22//1 23//1
f 23//1 22//1 24//1
f 23//1 24//1 25//1
f 23//1 25//1 26//1
f 26//1 25//1 27//1
f 26//1 27//1 28//1
f 28//1 27//1 29//1
f 29//1 27//1 30//1
f 29//1 30//1 31//1
f 29//1 31//1 32//1
f 32//1 31//1 33//1
f 32//1 33//1 34//1
f 34//1 33//1 35//1
f 34//1 35//1 36//1
f 36//1 35//1 37//1
f 36//1 37//1 38//1
f 38//1 37//1 39//1
f 38//1 39//1 40//1
f 40//1 39//1 41//1
f 41//1 39//1 42//1
f 41//1 42//1 43//1
f 41//1 43//1 44//1
f 44//1 43//1 45//1
f 45//1 43//1 46//1
f 45//1 46//1 47//1
f 45//1 47//1 48//1
f 48//1 47//1 49//1
f 48//1 49//1 50//1
f 50//1 49//1 51//1
