# SSTK version 0.8.0
# 54
mtllib original-54.mtl
o #ID428
v -0.414075 0.501000 0.413799
v -0.190746 0.496478 0.413799
v -0.414075 0.496478 0.413799
v -0.190746 0.501000 0.413799
v -0.190746 0.496478 0.413799
v -0.190746 0.496953 0.453801
v -0.190746 0.496478 0.453980
v -0.190746 0.500525 0.452460
v -0.190746 0.501000 0.452282
v -0.190746 0.501000 0.413799
v -0.190746 0.496478 0.413799
v -0.414075 0.496478 0.453980
v -0.414075 0.496478 0.413799
v -0.413600 0.496478 0.453980
v -0.413600 0.496478 0.456356
v -0.191221 0.496478 0.453980
v -0.191221 0.496478 0.456356
v -0.190746 0.496478 0.453980
v -0.414075 0.496953 0.453801
v -0.414075 0.496478 0.413799
v -0.414075 0.496478 0.453980
v -0.414075 0.500525 0.452460
v -0.414075 0.501000 0.452282
v -0.414075 0.501000 0.413799
v -0.413600 0.501000 0.452282
v -0.414075 0.501000 0.413799
v -0.414075 0.501000 0.452282
v -0.190746 0.501000 0.413799
v -0.191221 0.501000 0.452282
v -0.190746 0.501000 0.452282
v -0.190746 0.501000 0.452282
v -0.190762 0.500648 0.452414
v -0.190746 0.500525 0.452460
v -0.190810 0.500763 0.452371
v -0.190885 0.500861 0.452335
v -0.190983 0.500936 0.452306
v -0.191098 0.500984 0.452288
v -0.191221 0.501000 0.452282
v -0.190746 0.497980 0.457516
v -0.190746 0.498354 0.457502
v -0.190746 0.498168 0.457524
v -0.190746 0.497796 0.457479
v -0.190746 0.498553 0.457445
v -0.190746 0.497621 0.457411
v -0.190746 0.498598 0.457428
v -0.190746 0.498882 0.457305
v -0.190746 0.497458 0.457317
v -0.190746 0.497313 0.457197
v -0.190746 0.499142 0.457159
v -0.190746 0.497188 0.457057
v -0.190746 0.499386 0.456987
v -0.190746 0.497088 0.456898
v -0.190746 0.499612 0.456793
v -0.190746 0.497015 0.456725
v -0.190746 0.499817 0.456576
v -0.190746 0.496970 0.456543
v -0.190746 0.499999 0.456340
v -0.190746 0.496953 0.456337
v -0.190746 0.500156 0.456087
v -0.190746 0.496953 0.453801
v -0.190746 0.500287 0.455819
v -0.190746 0.500390 0.455539
v -0.190746 0.500464 0.455251
v -0.190746 0.500509 0.454956
v -0.190746 0.500525 0.454646
v -0.190746 0.500525 0.452460
v -0.190746 0.496478 0.453980
v -0.191098 0.496494 0.453974
v -0.191221 0.496478 0.453980
v -0.190983 0.496542 0.453957
v -0.190885 0.496617 0.453928
v -0.190810 0.496716 0.453890
v -0.190762 0.496830 0.453848
v -0.190746 0.496953 0.453801
v -0.191221 0.496478 0.456356
v -0.413600 0.496499 0.456619
v -0.413600 0.496478 0.456356
v -0.191221 0.496499 0.456619
v -0.413600 0.496478 0.453980
v -0.413723 0.496494 0.456355
v -0.413723 0.496494 0.453974
v -0.413600 0.496478 0.456356
v -0.413723 0.496494 0.453974
v -0.414075 0.496478 0.453980
v -0.413600 0.496478 0.453980
v -0.413838 0.496542 0.453957
v -0.413936 0.496617 0.453928
v -0.414012 0.496716 0.453890
v -0.414059 0.496830 0.453848
v -0.414075 0.496953 0.453801
v -0.414075 0.456526 0.441821
v -0.414075 0.496478 0.453980
v -0.414075 0.456526 0.468983
v -0.414075 0.496478 0.413799
v -0.414075 0.456992 0.441020
v -0.414075 0.461151 0.435062
v -0.414075 0.465609 0.429764
v -0.414075 0.470329 0.425167
v -0.414075 0.475274 0.421308
v -0.414075 0.480404 0.418221
v -0.414075 0.485676 0.415929
v -0.414075 0.491049 0.414450
v -0.201654 0.444087 0.413799
v -0.401529 0.443980 0.413799
v -0.203292 0.443980 0.413799
v -0.403167 0.444087 0.413799
v -0.200045 0.444407 0.413799
v -0.404777 0.444407 0.413799
v -0.198491 0.444935 0.413799
v -0.406331 0.444935 0.413799
v -0.197019 0.445661 0.413799
v -0.407802 0.445661 0.413799
v -0.195654 0.446572 0.413799
v -0.409167 0.446572 0.413799
v -0.194421 0.447654 0.413799
v -0.410401 0.447654 0.413799
v -0.193339 0.448888 0.413799
v -0.411483 0.448888 0.413799
v -0.192427 0.450253 0.413799
v -0.412395 0.450253 0.413799
v -0.191701 0.451725 0.413799
v -0.413120 0.451725 0.413799
v -0.191173 0.453279 0.413799
v -0.413648 0.453279 0.413799
v -0.190853 0.454888 0.413799
v -0.413968 0.454888 0.413799
v -0.190746 0.456526 0.413799
v -0.414075 0.456526 0.413799
v -0.190746 0.496478 0.413799
v -0.414075 0.496478 0.413799
v -0.190746 0.496478 0.413799
v -0.414075 0.491049 0.414450
v -0.190746 0.491049 0.414450
v -0.414075 0.496478 0.413799
v -0.190746 0.496478 0.453980
v -0.190746 0.456526 0.441821
v -0.190746 0.456526 0.468983
v -0.190746 0.496478 0.413799
v -0.190746 0.456992 0.441020
v -0.190746 0.461151 0.435062
v -0.190746 0.465609 0.429764
v -0.190746 0.470329 0.425167
v -0.190746 0.475274 0.421308
v -0.190746 0.480404 0.418221
v -0.190746 0.485676 0.415929
v -0.190746 0.491049 0.414450
v -0.191221 0.496478 0.453980
v -0.191098 0.496494 0.456355
v -0.191221 0.496478 0.456356
v -0.191098 0.496494 0.453974
v -0.414075 0.498354 0.457502
v -0.414075 0.497980 0.457516
v -0.414075 0.498168 0.457524
v -0.414075 0.497796 0.457479
v -0.414075 0.498553 0.457445
v -0.414075 0.497621 0.457411
v -0.414075 0.498598 0.457428
v -0.414075 0.498882 0.457305
v -0.414075 0.497458 0.457317
v -0.414075 0.497313 0.457197
v -0.414075 0.499142 0.457159
v -0.414075 0.497188 0.457057
v -0.414075 0.499386 0.456987
v -0.414075 0.497088 0.456898
v -0.414075 0.499612 0.456793
v -0.414075 0.497015 0.456725
v -0.414075 0.499817 0.456576
v -0.414075 0.496970 0.456543
v -0.414075 0.499999 0.456340
v -0.414075 0.496953 0.456337
v -0.414075 0.500156 0.456087
v -0.414075 0.500287 0.455819
v -0.414075 0.500390 0.455539
v -0.414075 0.500464 0.455251
v -0.414075 0.500509 0.454956
v -0.414075 0.500525 0.454646
v -0.414059 0.500648 0.452414
v -0.414075 0.501000 0.452282
v -0.414075 0.500525 0.452460
v -0.414012 0.500763 0.452371
v -0.413936 0.500861 0.452335
v -0.413838 0.500936 0.452306
v -0.413723 0.500984 0.452288
v -0.413600 0.501000 0.452282
v -0.191221 0.501000 0.454658
v -0.413600 0.501000 0.454658
v -0.191098 0.500984 0.454658
v -0.191221 0.501000 0.452282
v -0.191221 0.501000 0.454658
v -0.191098 0.500984 0.452288
v -0.190983 0.500936 0.454657
v -0.190983 0.500936 0.452306
v -0.190885 0.500861 0.454654
v -0.190885 0.500861 0.452335
v -0.190810 0.500763 0.454652
v -0.190810 0.500763 0.452371
v -0.190762 0.500648 0.454650
v -0.190762 0.500648 0.452414
v -0.190746 0.500525 0.454646
v -0.190746 0.500525 0.452460
v -0.190746 0.500509 0.454956
v -0.190762 0.500632 0.454968
v -0.190746 0.500464 0.455251
v -0.190762 0.500585 0.455275
v -0.190746 0.500390 0.455539
v -0.190762 0.500507 0.455575
v -0.190746 0.500287 0.455819
v -0.190762 0.500400 0.455867
v -0.190746 0.500156 0.456087
v -0.190762 0.500264 0.456146
v -0.190746 0.499999 0.456340
v -0.190762 0.500100 0.456410
v -0.190746 0.499817 0.456576
v -0.190762 0.499910 0.456657
v -0.190746 0.499612 0.456793
v -0.190762 0.499697 0.456882
v -0.190746 0.499386 0.456987
v -0.190762 0.499462 0.457085
v -0.190746 0.499142 0.457159
v -0.190762 0.499208 0.457264
v -0.190746 0.498882 0.457305
v -0.190762 0.498937 0.457415
v -0.190746 0.498598 0.457428
v -0.190762 0.498644 0.457543
v -0.190746 0.498553 0.457445
v -0.190762 0.498592 0.457562
v -0.190746 0.498354 0.457502
v -0.190762 0.498379 0.457623
v -0.190746 0.498168 0.457524
v -0.190762 0.498172 0.457648
v -0.190762 0.497965 0.457638
v -0.190746 0.497980 0.457516
v -0.190762 0.497762 0.457597
v -0.190746 0.497796 0.457479
v -0.190762 0.497567 0.457522
v -0.190746 0.497621 0.457411
v -0.190762 0.497388 0.457418
v -0.190746 0.497458 0.457317
v -0.190762 0.497227 0.457287
v -0.190746 0.497313 0.457197
v -0.190762 0.497090 0.457131
v -0.190746 0.497188 0.457057
v -0.190762 0.496979 0.456956
v -0.190746 0.497088 0.456898
v -0.190762 0.496898 0.456764
v -0.190746 0.497015 0.456725
v -0.190762 0.496848 0.456563
v -0.190746 0.496970 0.456543
v -0.190762 0.496830 0.456342
v -0.190746 0.496953 0.456337
v -0.190762 0.496830 0.453848
v -0.190746 0.496953 0.453801
v -0.190810 0.496716 0.453890
v -0.190810 0.496716 0.456346
v -0.190885 0.496617 0.453928
v -0.190885 0.496617 0.456350
v -0.190983 0.496542 0.453957
v -0.190983 0.496542 0.456354
v -0.191221 0.496499 0.456619
v -0.191098 0.496515 0.456617
v -0.413600 0.496562 0.456876
v -0.191221 0.496562 0.456876
v -0.413723 0.496515 0.456617
v -0.413600 0.496499 0.456619
v -0.413838 0.496542 0.456354
v -0.413838 0.496542 0.453957
v -0.413936 0.496617 0.456350
v -0.413936 0.496617 0.453928
v -0.414012 0.496716 0.456346
v -0.414012 0.496716 0.453890
v -0.414059 0.496830 0.456342
v -0.414059 0.496830 0.453848
v -0.414075 0.496953 0.456337
v -0.414075 0.496953 0.453801
v -0.413968 0.454888 0.444632
v -0.414075 0.456992 0.441020
v -0.414075 0.456526 0.441821
v -0.190746 0.456992 0.441020
v -0.413648 0.453279 0.447396
v -0.413610 0.453166 0.447589
v -0.191212 0.453166 0.447589
v -0.191173 0.453279 0.447396
v -0.190853 0.454888 0.444632
v -0.190746 0.456526 0.441821
v -0.414075 0.456526 0.413799
v -0.414075 0.456526 0.441821
v -0.426622 0.453166 0.453461
v -0.414075 0.456992 0.441020
v -0.414075 0.461151 0.435062
v -0.190746 0.461151 0.435062
v -0.426622 0.456992 0.448584
v -0.414075 0.461151 0.435062
v -0.414075 0.465609 0.429764
v -0.190746 0.465609 0.429764
v -0.426622 0.465609 0.440224
v -0.414075 0.465609 0.429764
v -0.190746 0.470329 0.425167
v -0.414075 0.470329 0.425167
v -0.414075 0.470329 0.425167
v -0.414075 0.475274 0.421308
v -0.190746 0.475274 0.421308
v -0.414075 0.475274 0.421308
v -0.426622 0.475274 0.433946
v -0.190746 0.480404 0.418221
v -0.414075 0.480404 0.418221
v -0.414075 0.480404 0.418221
v -0.414075 0.485676 0.415929
v -0.190746 0.485676 0.415929
v -0.414075 0.485676 0.415929
v -0.426622 0.485676 0.429951
v -0.414075 0.491049 0.414450
v -0.426622 0.491049 0.428853
v -0.414075 0.496478 0.413799
v -0.426622 0.496478 0.428369
v -0.413968 0.454888 0.444632
v -0.414075 0.456526 0.468983
v -0.413968 0.454888 0.469597
v -0.414075 0.456526 0.441821
v -0.413968 0.454888 0.413799
v -0.414075 0.456526 0.441821
v -0.413968 0.454888 0.444632
v -0.414075 0.456526 0.413799
v -0.413648 0.453279 0.413799
v -0.413648 0.453279 0.447396
v -0.413120 0.451725 0.413799
v -0.413610 0.453166 0.447589
v -0.413120 0.451725 0.450556
v -0.412395 0.450253 0.413799
v -0.412395 0.450253 0.453585
v -0.411483 0.448888 0.413799
v -0.412028 0.449704 0.454715
v -0.411483 0.448888 0.456740
v -0.410401 0.447654 0.413799
v -0.410401 0.447654 0.459804
v -0.409167 0.446572 0.413799
v -0.409237 0.446634 0.462339
v -0.409167 0.446572 0.462525
v -0.407802 0.445661 0.413799
v -0.407802 0.445661 0.465296
v -0.406331 0.444935 0.413799
v -0.406331 0.444935 0.467501
v -0.404777 0.444407 0.469104
v -0.404777 0.444407 0.413799
v -0.403167 0.444087 0.413799
v -0.403167 0.444087 0.470077
v -0.401529 0.443980 0.470402
v -0.401529 0.443980 0.413799
v -0.203292 0.443980 0.470402
v -0.401529 0.443980 0.413799
v -0.401529 0.443980 0.470402
v -0.203292 0.443980 0.413799
v -0.203292 0.443980 0.470402
v -0.201654 0.444087 0.413799
v -0.203292 0.443980 0.413799
v -0.201654 0.444087 0.470077
v -0.200045 0.444407 0.413799
v -0.200045 0.444407 0.469104
v -0.198491 0.444935 0.467501
v -0.198491 0.444935 0.413799
v -0.197019 0.445661 0.413799
v -0.197019 0.445661 0.465296
v -0.195654 0.446572 0.413799
v -0.195654 0.446572 0.462525
v -0.195585 0.446634 0.462339
v -0.194421 0.447654 0.413799
v -0.194421 0.447654 0.459804
v -0.193339 0.448888 0.456740
v -0.193339 0.448888 0.413799
v -0.192794 0.449704 0.454715
v -0.192427 0.450253 0.453585
v -0.192427 0.450253 0.413799
v -0.191701 0.451725 0.450556
v -0.191701 0.451725 0.413799
v -0.191212 0.453166 0.447589
v -0.191173 0.453279 0.447396
v -0.191173 0.453279 0.413799
v -0.190853 0.454888 0.444632
v -0.190853 0.454888 0.413799
v -0.190746 0.456526 0.441821
v -0.190746 0.456526 0.413799
v -0.190746 0.456992 0.441020
v -0.190746 0.456526 0.413799
v -0.190746 0.456526 0.441821
v -0.190746 0.461151 0.435062
v -0.190746 0.465609 0.429764
v -0.190746 0.470329 0.425167
v -0.190746 0.475274 0.421308
v -0.190746 0.480404 0.418221
v -0.190746 0.485676 0.415929
v -0.190746 0.491049 0.414450
v -0.190746 0.496478 0.413799
v -0.190746 0.496478 0.413799
v -0.178726 0.496478 0.428369
v -0.190746 0.491049 0.414450
v -0.178726 0.491049 0.428853
v -0.190746 0.485676 0.415929
v -0.178726 0.485676 0.429951
v -0.190746 0.480404 0.418221
v -0.178726 0.475274 0.433946
v -0.190746 0.475274 0.421308
v -0.190746 0.470329 0.425167
v -0.178726 0.465609 0.440224
v -0.190746 0.465609 0.429764
v -0.178726 0.461151 0.444159
v -0.190746 0.461151 0.435062
v -0.190746 0.456992 0.441020
v -0.178726 0.456992 0.448584
v -0.190746 0.456526 0.441821
v -0.190746 0.456526 0.468983
v -0.190853 0.454888 0.444632
v -0.190853 0.454888 0.469597
v -0.190746 0.456526 0.441821
v -0.414075 0.496970 0.456543
v -0.414059 0.496848 0.456563
v -0.414075 0.497015 0.456725
v -0.414059 0.496898 0.456764
v -0.414075 0.497088 0.456898
v -0.414059 0.496979 0.456956
v -0.414075 0.497188 0.457057
v -0.414059 0.497090 0.457131
v -0.414075 0.497313 0.457197
v -0.414059 0.497227 0.457287
v -0.414075 0.497458 0.457317
v -0.414059 0.497388 0.457418
v -0.414075 0.497621 0.457411
v -0.414059 0.497567 0.457522
v -0.414075 0.497796 0.457479
v -0.414059 0.497762 0.457597
v -0.414075 0.497980 0.457516
v -0.414059 0.497965 0.457638
v -0.414075 0.498168 0.457524
v -0.414059 0.498172 0.457648
v -0.414059 0.498379 0.457623
v -0.414075 0.498354 0.457502
v -0.414059 0.498592 0.457562
v -0.414075 0.498553 0.457445
v -0.414059 0.498644 0.457543
v -0.414075 0.498598 0.457428
v -0.414059 0.498937 0.457415
v -0.414075 0.498882 0.457305
v -0.414059 0.499208 0.457264
v -0.414075 0.499142 0.457159
v -0.414059 0.499462 0.457085
v -0.414075 0.499386 0.456987
v -0.414059 0.499697 0.456882
v -0.414075 0.499612 0.456793
v -0.414059 0.499910 0.456657
v -0.414075 0.499817 0.456576
v -0.414059 0.500100 0.456410
v -0.414075 0.499999 0.456340
v -0.414059 0.500264 0.456146
v -0.414075 0.500156 0.456087
v -0.414059 0.500400 0.455867
v -0.414075 0.500287 0.455819
v -0.414059 0.500507 0.455575
v -0.414075 0.500390 0.455539
v -0.414059 0.500585 0.455275
v -0.414075 0.500464 0.455251
v -0.414059 0.500632 0.454968
v -0.414075 0.500509 0.454956
v -0.414059 0.500648 0.454650
v -0.414075 0.500525 0.454646
v -0.414059 0.500648 0.452414
v -0.414075 0.500525 0.452460
v -0.414012 0.500763 0.452371
v -0.414012 0.500763 0.454652
v -0.413936 0.500861 0.452335
v -0.413936 0.500861 0.454654
v -0.413838 0.500936 0.454657
v -0.413838 0.500936 0.452306
v -0.413723 0.500984 0.454658
v -0.413723 0.500984 0.452288
v -0.413600 0.501000 0.454658
v -0.413600 0.501000 0.452282
v -0.191221 0.500983 0.455003
v -0.413600 0.501000 0.454658
v -0.413600 0.500983 0.455003
v -0.191221 0.501000 0.454658
v -0.191098 0.500967 0.455002
v -0.191221 0.500983 0.455003
v -0.190983 0.500919 0.454997
v -0.190885 0.500844 0.454990
v -0.190810 0.500746 0.454979
v -0.190810 0.500697 0.455298
v -0.190810 0.500617 0.455610
v -0.190810 0.500505 0.455912
v -0.190810 0.500364 0.456202
v -0.190810 0.500194 0.456476
v -0.190810 0.499998 0.456730
v -0.190810 0.499776 0.456964
v -0.190810 0.499533 0.457176
v -0.190810 0.499269 0.457360
v -0.190810 0.498988 0.457518
v -0.190810 0.498687 0.457649
v -0.190810 0.498628 0.457670
v -0.190810 0.498401 0.457736
v -0.190810 0.498177 0.457762
v -0.190810 0.497951 0.457753
v -0.190810 0.497729 0.457707
v -0.190810 0.497518 0.457626
v -0.190810 0.497322 0.457512
v -0.190810 0.497147 0.457370
v -0.190810 0.496998 0.457200
v -0.190810 0.496877 0.457009
v -0.190810 0.496789 0.456800
v -0.190810 0.496735 0.456582
v -0.190885 0.496637 0.456598
v -0.190983 0.496562 0.456610
v -0.191221 0.496562 0.456876
v -0.191098 0.496578 0.456871
v -0.413600 0.496666 0.457119
v -0.191221 0.496666 0.457119
v -0.413723 0.496578 0.456871
v -0.413600 0.496562 0.456876
v -0.413838 0.496562 0.456610
v -0.413936 0.496637 0.456598
v -0.414012 0.496735 0.456582
v -0.413648 0.453279 0.447396
v -0.413648 0.453279 0.470202
v -0.413120 0.451725 0.450556
v -0.413120 0.451725 0.470785
v -0.413610 0.453166 0.447589
v -0.413120 0.451725 0.450556
v -0.412395 0.450253 0.453585
v -0.412028 0.449704 0.454715
v -0.192794 0.449704 0.454715
v -0.192427 0.450253 0.453585
v -0.191701 0.451725 0.450556
v -0.191173 0.453279 0.470202
v -0.191701 0.451725 0.450556
v -0.191701 0.451725 0.470785
v -0.191173 0.453279 0.447396
v -0.191212 0.453166 0.447589
v -0.413968 0.454888 0.444632
v -0.426622 0.461151 0.444159
v -0.426622 0.470329 0.436810
v -0.426622 0.480404 0.431653
v -0.412395 0.450253 0.453585
v -0.412395 0.450253 0.471338
v -0.411483 0.448888 0.456740
v -0.411483 0.448888 0.471851
v -0.412028 0.449704 0.454715
v -0.410401 0.447654 0.459804
v -0.410401 0.447654 0.472314
v -0.409167 0.446572 0.472720
v -0.409237 0.446634 0.462339
v -0.409167 0.446572 0.462525
v -0.407802 0.445661 0.465296
v -0.407802 0.445661 0.473062
v -0.406331 0.444935 0.473335
v -0.406331 0.444935 0.467501
v -0.404777 0.444407 0.469104
v -0.404777 0.444407 0.473533
v -0.403167 0.444087 0.473654
v -0.403167 0.444087 0.470077
v -0.401529 0.443980 0.473694
v -0.401529 0.443980 0.470402
v -0.401529 0.443980 0.473694
v -0.203292 0.443980 0.470402
v -0.401529 0.443980 0.470402
v -0.203292 0.443980 0.473694
v -0.201654 0.444087 0.473654
v -0.203292 0.443980 0.470402
v -0.203292 0.443980 0.473694
v -0.201654 0.444087 0.470077
v -0.200045 0.444407 0.473533
v -0.200045 0.444407 0.469104
v -0.198491 0.444935 0.467501
v -0.198491 0.444935 0.473335
v -0.197019 0.445661 0.473062
v -0.197019 0.445661 0.465296
v -0.195654 0.446572 0.472720
v -0.195654 0.446572 0.462525
v -0.194421 0.447654 0.472314
v -0.195585 0.446634 0.462339
v -0.194421 0.447654 0.459804
v -0.193339 0.448888 0.471851
v -0.193339 0.448888 0.456740
v -0.192427 0.450253 0.471338
v -0.192427 0.450253 0.453585
v -0.192794 0.449704 0.454715
v -0.178726 0.480404 0.431653
v -0.178726 0.470329 0.436810
v -0.178726 0.453166 0.453461
v -0.190853 0.454888 0.444632
v -0.414012 0.496789 0.456800
v -0.414012 0.496877 0.457009
v -0.414012 0.496998 0.457200
v -0.414012 0.497147 0.457370
v -0.414012 0.497322 0.457512
v -0.414012 0.497518 0.457626
v -0.414012 0.497729 0.457707
v -0.414012 0.497951 0.457753
v -0.414012 0.498177 0.457762
v -0.414012 0.498401 0.457736
v -0.414012 0.498628 0.457670
v -0.414012 0.498687 0.457649
v -0.414012 0.498988 0.457518
v -0.414012 0.499269 0.457360
v -0.414012 0.499533 0.457176
v -0.414012 0.499776 0.456964
v -0.414012 0.499998 0.456730
v -0.414012 0.500194 0.456476
v -0.414012 0.500364 0.456202
v -0.414012 0.500505 0.455912
v -0.414012 0.500617 0.455610
v -0.414012 0.500697 0.455298
v -0.414012 0.500746 0.454979
v -0.413936 0.500844 0.454990
v -0.413838 0.500919 0.454997
v -0.413723 0.500967 0.455002
v -0.413600 0.500983 0.455003
v -0.191221 0.500930 0.455346
v -0.413600 0.500930 0.455346
v -0.191098 0.500915 0.455342
v -0.191221 0.500930 0.455346
v -0.190983 0.500868 0.455333
v -0.190885 0.500794 0.455318
v -0.190885 0.500711 0.455639
v -0.190885 0.500596 0.455951
v -0.190885 0.500450 0.456250
v -0.190885 0.500275 0.456531
v -0.190885 0.500073 0.456794
v -0.190885 0.499845 0.457036
v -0.190885 0.499593 0.457253
v -0.190885 0.499321 0.457444
v -0.190885 0.499032 0.457607
v -0.190885 0.498724 0.457739
v -0.190885 0.498659 0.457765
v -0.190885 0.498421 0.457832
v -0.190885 0.498180 0.457861
v -0.190885 0.497939 0.457850
v -0.190885 0.497702 0.457802
v -0.190885 0.497475 0.457715
v -0.190885 0.497266 0.457594
v -0.190885 0.497079 0.457441
v -0.190885 0.496919 0.457259
v -0.190885 0.496790 0.457055
v -0.190885 0.496695 0.456832
v -0.190983 0.496623 0.456856
v -0.191221 0.496666 0.457119
v -0.191098 0.496680 0.457112
v -0.413600 0.496807 0.457343
v -0.191221 0.496807 0.457343
v -0.413723 0.496680 0.457112
v -0.413600 0.496666 0.457119
v -0.413838 0.496623 0.456856
v -0.413936 0.496695 0.456832
v -0.413648 0.453279 0.447396
v -0.413120 0.451725 0.450556
v -0.426622 0.449704 0.458752
v -0.413610 0.453166 0.447589
v -0.411483 0.448888 0.456740
v -0.410401 0.447654 0.459804
v -0.409237 0.446634 0.462339
v -0.195585 0.446634 0.462339
v -0.194421 0.447654 0.459804
v -0.193339 0.448888 0.456740
v -0.191212 0.453166 0.447589
v -0.191173 0.453279 0.447396
v -0.178726 0.449704 0.458752
v -0.191701 0.451725 0.450556
v -0.412395 0.450253 0.453585
v -0.411483 0.448888 0.456740
v -0.426622 0.446634 0.464415
v -0.412028 0.449704 0.454715
v -0.410401 0.447654 0.459804
v -0.409167 0.446572 0.462525
v -0.407802 0.445661 0.465296
v -0.406331 0.444935 0.467501
v -0.404777 0.444407 0.469104
v -0.403167 0.444087 0.470077
v -0.401529 0.443980 0.470402
v -0.203292 0.443980 0.470402
v -0.201654 0.444087 0.470077
v -0.200045 0.444407 0.469104
v -0.198491 0.444935 0.467501
v -0.197019 0.445661 0.465296
v -0.195654 0.446572 0.462525
v -0.426622 0.443980 0.470402
v -0.403167 0.444087 0.470077
v -0.401529 0.443980 0.470402
v -0.404777 0.444407 0.469104
v -0.406331 0.444935 0.467501
v -0.407802 0.445661 0.465296
v -0.409167 0.446572 0.462525
v -0.409237 0.446634 0.462339
v -0.201654 0.444087 0.470077
v -0.178726 0.443980 0.470402
v -0.203292 0.443980 0.470402
v -0.200045 0.444407 0.469104
v -0.198491 0.444935 0.467501
v -0.197019 0.445661 0.465296
v -0.195654 0.446572 0.462525
v -0.195585 0.446634 0.462339
v -0.178726 0.446634 0.464415
v -0.194421 0.447654 0.459804
v -0.193339 0.448888 0.456740
v -0.192794 0.449704 0.454715
v -0.192427 0.450253 0.453585
v -0.413936 0.496790 0.457055
v -0.413936 0.496919 0.457259
v -0.413936 0.497079 0.457441
v -0.413936 0.497266 0.457594
v -0.413936 0.497475 0.457715
v -0.413936 0.497702 0.457802
v -0.413936 0.497939 0.457850
v -0.413936 0.498180 0.457861
v -0.413936 0.498421 0.457832
v -0.413936 0.498659 0.457765
v -0.413936 0.498724 0.457739
v -0.413936 0.499032 0.457607
v -0.413936 0.499321 0.457444
v -0.413936 0.499593 0.457253
v -0.413936 0.499845 0.457036
v -0.413936 0.500073 0.456794
v -0.413936 0.500275 0.456531
v -0.413936 0.500450 0.456250
v -0.413936 0.500596 0.455951
v -0.413936 0.500711 0.455639
v -0.413936 0.500794 0.455318
v -0.413838 0.500868 0.455333
v -0.413723 0.500915 0.455342
v -0.413600 0.500930 0.455346
v -0.191221 0.500844 0.455681
v -0.413600 0.500844 0.455681
v -0.191098 0.500829 0.455677
v -0.191221 0.500844 0.455681
v -0.190983 0.500783 0.455662
v -0.190983 0.500666 0.455981
v -0.190983 0.500517 0.456286
v -0.190983 0.500337 0.456575
v -0.190983 0.500130 0.456844
v -0.190983 0.499897 0.457091
v -0.190983 0.499640 0.457313
v -0.190983 0.499362 0.457508
v -0.190983 0.499065 0.457674
v -0.190983 0.498752 0.457809
v -0.190983 0.498682 0.457836
v -0.190983 0.498435 0.457907
v -0.190983 0.498183 0.457937
v -0.190983 0.497929 0.457925
v -0.190983 0.497680 0.457874
v -0.190983 0.497443 0.457784
v -0.190983 0.497223 0.457656
v -0.190983 0.497026 0.457495
v -0.190983 0.496858 0.457305
v -0.190983 0.496722 0.457090
v -0.191221 0.496807 0.457343
v -0.191098 0.496820 0.457334
v -0.413600 0.496982 0.457541
v -0.191221 0.496982 0.457541
v -0.413723 0.496820 0.457334
v -0.413600 0.496807 0.457343
v -0.413838 0.496722 0.457090
v -0.413838 0.496858 0.457305
v -0.413838 0.497026 0.457495
v -0.413838 0.497223 0.457656
v -0.413838 0.497443 0.457784
v -0.413838 0.497680 0.457874
v -0.413838 0.497929 0.457925
v -0.413838 0.498183 0.457937
v -0.413838 0.498435 0.457907
v -0.413838 0.498682 0.457836
v -0.413838 0.498752 0.457809
v -0.413838 0.499065 0.457674
v -0.413838 0.499362 0.457508
v -0.413838 0.499640 0.457313
v -0.413838 0.499897 0.457091
v -0.413838 0.500130 0.456844
v -0.413838 0.500337 0.456575
v -0.413838 0.500517 0.456286
v -0.413838 0.500666 0.455981
v -0.413838 0.500783 0.455662
v -0.413723 0.500829 0.455677
v -0.413600 0.500844 0.455681
v -0.191221 0.500724 0.456006
v -0.413600 0.500724 0.456006
v -0.191098 0.500709 0.455999
v -0.191221 0.500724 0.456006
v -0.191098 0.500558 0.456309
v -0.191098 0.500376 0.456601
v -0.191098 0.500166 0.456875
v -0.191098 0.499930 0.457125
v -0.191098 0.499669 0.457351
v -0.191098 0.499387 0.457549
v -0.191098 0.499086 0.457716
v -0.191098 0.498770 0.457854
v -0.191098 0.498697 0.457882
v -0.191098 0.498445 0.457953
v -0.191098 0.498185 0.457984
v -0.191098 0.497923 0.457973
v -0.191098 0.497667 0.457920
v -0.191098 0.497422 0.457826
v -0.191098 0.497196 0.457696
v -0.191098 0.496993 0.457529
v -0.191221 0.496982 0.457541
v -0.191221 0.497187 0.457709
v -0.413600 0.497187 0.457709
v -0.413723 0.496993 0.457529
v -0.413600 0.496982 0.457541
v -0.413723 0.497196 0.457696
v -0.413723 0.497422 0.457826
v -0.413723 0.497667 0.457920
v -0.413723 0.497923 0.457973
v -0.413723 0.498185 0.457984
v -0.413723 0.498445 0.457953
v -0.413723 0.498697 0.457882
v -0.413723 0.498770 0.457854
v -0.413723 0.499086 0.457716
v -0.413723 0.499387 0.457549
v -0.413723 0.499669 0.457351
v -0.413723 0.499930 0.457125
v -0.413723 0.500166 0.456875
v -0.413723 0.500376 0.456601
v -0.413723 0.500558 0.456309
v -0.413723 0.500709 0.455999
v -0.413600 0.500724 0.456006
v -0.191221 0.500572 0.456316
v -0.413600 0.500572 0.456316
v -0.191221 0.500572 0.456316
v -0.191221 0.500390 0.456611
v -0.191221 0.500179 0.456885
v -0.191221 0.499941 0.457137
v -0.191221 0.499679 0.457363
v -0.191221 0.499395 0.457562
v -0.191221 0.499093 0.457731
v -0.191221 0.498776 0.457868
v -0.191221 0.498702 0.457896
v -0.191221 0.498448 0.457970
v -0.191221 0.498186 0.458000
v -0.191221 0.497921 0.457989
v -0.191221 0.497662 0.457936
v -0.191221 0.497415 0.457842
v -0.191221 0.497187 0.457709
v -0.191221 0.497415 0.457842
v -0.413600 0.497415 0.457842
v -0.413600 0.497187 0.457709
v -0.413600 0.497415 0.457842
v -0.413600 0.497662 0.457936
v -0.413600 0.497921 0.457989
v -0.413600 0.498186 0.458000
v -0.413600 0.498448 0.457970
v -0.413600 0.498702 0.457896
v -0.413600 0.498776 0.457868
v -0.413600 0.499093 0.457731
v -0.413600 0.499395 0.457562
v -0.413600 0.499679 0.457363
v -0.413600 0.499941 0.457137
v -0.413600 0.500179 0.456885
v -0.413600 0.500390 0.456611
v -0.413600 0.500572 0.456316
v -0.191221 0.500390 0.456611
v -0.413600 0.500390 0.456611
v -0.191221 0.500179 0.456885
v -0.413600 0.500179 0.456885
v -0.191221 0.499941 0.457137
v -0.413600 0.499941 0.457137
v -0.413600 0.499679 0.457363
v -0.191221 0.499679 0.457363
v -0.413600 0.499395 0.457562
v -0.191221 0.499395 0.457562
v -0.413600 0.499093 0.457731
v -0.191221 0.499093 0.457731
v -0.413600 0.498776 0.457868
v -0.191221 0.498776 0.457868
v -0.413600 0.498702 0.457896
v -0.191221 0.498702 0.457896
v -0.413600 0.498448 0.457970
v -0.191221 0.498448 0.457970
v -0.413600 0.498186 0.458000
v -0.191221 0.498186 0.458000
v -0.413600 0.497921 0.457989
v -0.191221 0.497921 0.457989
v -0.413600 0.497662 0.457936
v -0.191221 0.497662 0.457936
vn 0 0 -1
vn 1 0 0
vn 0 -1 0
vn -1 0 0
vn 0 1 0
vn 0 0.3515416202868696 0.9361722540249108
vn 0 -0.9967682762895553 0.08033058808915046
vn 0 -0.9870939876613252 0.16014199799822482
vn -0.1305261948688555 -0.9914448610250887 0
vn -0.25817530782646453 -0.9653172292631435 0.03883500117726481
vn -0.26634569205087966 -0.9638775712329538 0
vn -0.1306299944885139 -0.9906298582037593 0.039853338318524396
vn 0 0 1
vn 0 0.11926700205867705 0.9928622171378743
vn 0 0.1928039016613428 0.9812373084550767
vn 0.1305261948688555 -0.9914448610250887 0
vn 0.25817530782646453 -0.9653172292631435 0.03883500117726481
vn 0.1306299944885139 -0.9906298582037593 0.039853338318524396
vn 0.26634569205087966 -0.9638775712329538 0
vn 0.25837030706902586 0.9657382264226512 0.024381600667082157
vn 0.1305261948688555 0.9914448610250887 0
vn 0.1305670946918014 0.9911236597059181 0.025022488982712202
vn 0.25081209754354006 0.9680357905190333 0
vn 0.4992091160889491 0.8662055279168311 0.021868740704805142
vn 0.48624598536399605 0.8738219736979589 0
vn 0.7061683881938816 0.7078183881662959 0.017869999701239498
vn 0.6913793407795943 0.7224919426147073 0
vn 0.8651840667031062 0.501294680707509 0.01265597951293057
vn 0.852475113282905 0.5227678081455459 0
vn 0.9654200936856453 0.2606160982954338 0.0065796669569655785
vn 0.9579778773817498 0.2868420932275406 0
vn 0.9914502348990948 0.13044380459162805 0.0032932601159229398
vn 0.9914448610250887 0.1305261948688555 0
vn 0.9914663737116244 0.12969879656108288 0.013139709651605337
vn 0.9649527684392823 0.2610871914606192 0.026450579134880765
vn 0.9914663730030562 0.1277138965224389 0.02614558928807371
vn 0.9649527769565481 0.25709149386055397 0.052631758743132945
vn 0.9914663723727261 0.12442819653280032 0.0388851689164623
vn 0.964952774708527 0.2504772934349744 0.0782768679483584
vn 0.9914663674760914 0.1198751960676327 0.051228698319501775
vn 0.9649527792247888 0.24131189480461043 0.10312469777974906
vn 0.9914663675713157 0.1141011962680008 0.06305044793775853
vn 0.9649527758817922 0.22968869425911834 0.12692219682768324
vn 0.9914663626358126 0.1071650959613993 0.07423000720258399
vn 0.9649527590965943 0.2157260908555815 0.14942699366593562
vn 0.9914663678486744 0.09913739678516706 0.08465351725485114
vn 0.9649527641296572 0.1995661925814941 0.17040979366532966
vn 0.9914663679982936 0.09010000709182873 0.09421480695901477
vn 0.9649527686404153 0.18137369410561432 0.18965689383642226
vn 0.991466368668168 0.08014491746729975 0.10281649675084371
vn 0.9649527834908306 0.16133379723977473 0.20697229645895554
vn 0.9914663655913772 0.06937354759240623 0.1103709961695988
vn 0.9649527656184584 0.13965079502420238 0.22217969208367438
vn 0.991466368176812 0.05789557814172023 0.11680129625101797
vn 0.9649527731836056 0.11654529676116306 0.23512409346581453
vn 0.991450241345493 0.048939472040875565 0.1209601050442826
vn 0.9654201025773484 0.09777710026103206 0.241668500645174
vn 0.9914585028930483 0.04090381011935615 0.1238423003613684
vn 0.965138239531194 0.08208853336227244 0.24853501017977048
vn 0.9914993647528693 0.025642919088411566 0.1275595954653428
vn 0.9644505724668199 0.05208211851315719 0.2590801926037665
vn 0.9914993676366097 0.00488433084057122 0.13001979575604228
vn 0.9644505577611167 0.009920332565531043 0.26407708843453276
vn 0.9644505783226426 -0.03249751926957347 0.26225749410540095
vn 0.9914993612638713 -0.01600032937489542 0.12912399495535357
vn 0.964450574806289 -0.07407653806494714 0.2536685933735814
vn 0.991499361347687 -0.0364719985781866 0.12489519513112325
vn 0.9644505717142998 -0.11374349666409612 0.238531993004261
vn 0.9914993620750595 -0.05600224785790897 0.11744259550781005
vn 0.9644505723081312 -0.15047449567948834 0.21723839376252416
vn 0.9914993709665928 -0.07408695783056161 0.10695849686800647
vn 0.964450572010984 -0.18332149467988476 0.19033739447627845
vn 0.9914993662739153 -0.09025934692980705 0.09371369681230649
vn 0.964450574237182 -0.21143649435201756 0.15852349576545222
vn 0.9914993620174616 -0.10410199601204176 0.07804991701004951
vn 0.9644505705699602 -0.2340939928566629 0.12261769625834246
vn 0.9914993643388815 -0.11525749585454984 0.06037151782862606
vn 0.9644505741022246 -0.2507089932678715 0.08354693775656737
vn 0.9914993643975388 -0.12343799556762558 0.04113479852294399
vn 0.9644505789201135 -0.2608526942985724 0.042319649075024196
vn 0.9914993664387057 -0.12843229565269104 0.020836309294711062
vn 0.9651382410697302 -0.2615291111289032 0.010521390447718881
vn 0.9914585051429319 -0.1303171006759859 0.005242695027195082
vn 0.9729588066398941 -0.23097870157629913 0
vn 0.9914448610250887 -0.1305261948688555 0
vn 0.878615563778459 -0.47752978031350085 0
vn 0.8647488181670193 -0.5017987105420056 0.020187510424107886
vn 0.7218769923528106 -0.6920213926690854 0
vn 0.7057162936983388 -0.707921893678644 0.0284799097456898
vn 0.5129387169391012 -0.8584252283483219 0
vn 0.498850712747433 -0.8659874221290986 0.03483893089026
vn 0.13094210489605437 -0.9785951365906367 0.15876310593630877
vn 0.25791228914020353 -0.9536989598430279 0.15472409348510213
vn 0 -0.9487091148886142 0.31615030496152047
vn -0.25791228914020353 -0.9536989598430279 0.15472409348510213
vn -0.13094210489605437 -0.9785951365906367 0.15876310593630877
vn -0.498850712747433 -0.8659874221290986 0.03483893089026
vn -0.5129387169391012 -0.8584252283483219 0
vn -0.7057162936983388 -0.707921893678644 0.0284799097456898
vn -0.7218769923528106 -0.6920213926690854 0
vn -0.8647488181670193 -0.5017987105420056 0.020187510424107886
vn -0.878615563778459 -0.47752978031350085 0
vn -0.9651382410697302 -0.2615291111289032 0.010521390447718881
vn -0.9729588066398941 -0.23097870157629913 0
vn -0.9914585051429319 -0.1303171006759859 0.005242695027195082
vn -0.9914448610250887 -0.1305261948688555 0
vn 0 0.8640955400192507 0.5033278233108512
vn 0 0.8427503376999103 0.5383046240807217
vn 0 0.8806180447696362 0.4738268240888259
vn -0.22753101009449883 -0.8424360373749915 -0.48839652166789554
vn -0.266359988121004 -0.7995727643410342 -0.5382710759944429
vn -0.30439830595224565 -0.7895460154388895 -0.532877810419965
vn 0 0.7934152016345621 0.60868080125398
vn -0.3721570096009216 -0.7208846185974104 -0.5846576150830208
vn -0.4360942209735421 -0.6887368331241512 -0.5791920278556969
vn 0 0.7323566939052066 0.6809211943332616
vn -0.5168030842095729 -0.566579982688687 -0.641795680390543
vn -0.49968390091297504 -0.6254073011426847 -0.5993177010950165
vn 0 0.6573795969601713 0.75355959651542
vn -0.5938805181731865 -0.5030551153938614 -0.6278865192137957
vn 0 0.5664367917693107 0.8241051880252245
vn -0.6426123991318434 -0.4242615994268309 -0.638005799138067
vn -0.6524012690890264 -0.37087178242798025 -0.6609286686849957
vn 0 0.4581918195858379 0.8888533379948679
vn -0.6966819192058104 -0.30782010848584457 -0.647982317863282
vn 0 0.3328170995795902 0.9429913988088277
vn -0.7318514576256921 -0.21605938749012932 -0.6463062625787716
vn -0.7257006059731945 -0.18617510153239503 -0.6623424054516973
vn -0.7501356803002033 -0.12152959680843277 -0.6500207829293851
vn -0.746136030750766 -0.10335170425946989 -0.6577229271069658
vn -0.7554540016858542 -0.0781439301743841 -0.650525001451697
vn -0.7532193595857918 -0.06188930667931075 -0.6548513648637557
vn 0.996157548762953 0.08757932428709946 0
vn 0.9978589230889555 0.06540313151333016 0
vn 0.989394780474789 0.14525139713353635 0
vn 0.9848454773913655 0.17343409601855503 0
vn 0.9659258358036645 0.25881900959356163 0
vn 0.9538941216773873 0.30014330682080176 0
vn 0.9238795391929066 0.38268341623423263 0
vn 0.9469301158865235 0.3214395053927488 0
vn 0.9054800141059255 0.42438890661129813 0
vn 0.866025402838329 0.5000000016387101 0
vn 0.8428815860758617 0.5380990911107726 0
vn 0.7933533393698233 0.608761430209528 0
vn 0.8314696237583302 0.555570215874808 0
vn 0.7642344848022422 0.6449384871745921 0
vn 0.7071067811865476 0.7071067811865476 0
vn 0.6748619776688175 0.7379439755814343 0
vn 0.608761430209528 0.7933533393698233 0
vn 0.659345810272054 0.7518398117130328 0
vn 0.5718491131787633 0.8203588189058869 0
vn 0.5000000016387101 0.866025402838329 0
vn 0.4628152735368875 0.8864547493137909 0
vn 0.38268341623423263 0.9238795391929066 0
vn 0.3478494952709148 0.9375503872538103 0
vn 0.23018011054915352 0.9731480445993709 0
vn 0.25881900959356163 0.9659258358036645 0
vn 0.11355570356558951 0.9935316311963719 0
vn 0.06540313151333016 0.9978589230889555 0
vn -0.06540313151333016 0.9978589230889555 0
vn -0.1305261948688555 0.9914448610250887 0
vn -0.11355570356558951 0.9935316311963719 0
vn -0.25881900959356163 0.9659258358036645 0
vn -0.23018011054915352 0.9731480445993709 0
vn -0.3478494952709148 0.9375503872538103 0
vn -0.38268341623423263 0.9238795391929066 0
vn -0.5000000016387101 0.866025402838329 0
vn -0.4628152735368875 0.8864547493137909 0
vn -0.608761430209528 0.7933533393698233 0
vn -0.5718491131787633 0.8203588189058869 0
vn -0.659345810272054 0.7518398117130328 0
vn -0.7071067811865476 0.7071067811865476 0
vn -0.6748619776688175 0.7379439755814343 0
vn -0.7642344848022422 0.6449384871745921 0
vn -0.7933533393698233 0.608761430209528 0
vn -0.8314696237583302 0.555570215874808 0
vn -0.8428815860758617 0.5380990911107726 0
vn -0.866025402838329 0.5000000016387101 0
vn -0.9054800141059255 0.42438890661129813 0
vn -0.9238795391929066 0.38268341623423263 0
vn -0.9469301158865235 0.3214395053927488 0
vn -0.9538941216773873 0.30014330682080176 0
vn -0.9659258358036645 0.25881900959356163 0
vn -0.9848454773913655 0.17343409601855503 0
vn -0.9914448610250887 0.1305261948688555 0
vn -0.9978589230889555 0.06540313151333016 0
vn 0.7691266096795653 -0.0762231109592783 -0.6345347079857075
vn 0.7669695052235418 -0.06043250041158297 -0.6388315043508419
vn 0.7639780423810337 -0.11848070657261653 -0.634271135185653
vn 0.7600895277087868 -0.10100280368202029 -0.6419208234009898
vn 0.7462399326489157 -0.21086370922554673 -0.6313972276244061
vn 0.740196701856628 -0.1821727004569418 -0.6472418016234701
vn 0.7120292230713919 -0.3009243097506427 -0.6343965205559131
vn 0.6680731182912242 -0.3646368099834185 -0.6486280177588355
vn 0.6587598906471445 -0.4163922940881995 -0.6266201911034535
vn 0.6107221028245562 -0.4946001022874982 -0.6183763028599565
vn 0.5652085963928499 -0.5330041965983777 -0.629639395981654
vn 0.5090505148059941 -0.6135408178451478 -0.6036847175584783
vn 0.4421340035042657 -0.6572722052094079 -0.6103366048374059
vn 0.4246354102430364 -0.7105138171389824 -0.5611193135352952
vn 0.3650169005949082 -0.7682914012521689 -0.5258241008569936
vn 0.36852970642090416 -0.7139488124391515 -0.5953679103731131
vn 0.2893374870589834 -0.8210654632767189 -0.49207247799138254
vn -0.996157548762953 0.08757932428709946 0
vn -0.989394780474789 0.14525139713353635 0
vn -0.9914993664387057 -0.12843229565269104 0.020836309294711062
vn -0.9644505789201135 -0.2608526942985724 0.042319649075024196
vn -0.9914993643975388 -0.12343799556762558 0.04113479852294399
vn -0.9644505741022246 -0.2507089932678715 0.08354693775656737
vn -0.9914993643388815 -0.11525749585454984 0.06037151782862606
vn -0.9644505705699602 -0.2340939928566629 0.12261769625834246
vn -0.9914993620174616 -0.10410199601204176 0.07804991701004951
vn -0.964450574237182 -0.21143649435201756 0.15852349576545222
vn -0.9914993662739153 -0.09025934692980705 0.09371369681230649
vn -0.964450572010984 -0.18332149467988476 0.19033739447627845
vn -0.9914993709665928 -0.07408695783056161 0.10695849686800647
vn -0.9644505723081312 -0.15047449567948834 0.21723839376252416
vn -0.9914993620750595 -0.05600224785790897 0.11744259550781005
vn -0.9644505717142998 -0.11374349666409612 0.238531993004261
vn -0.991499361347687 -0.0364719985781866 0.12489519513112325
vn -0.964450574806289 -0.07407653806494714 0.2536685933735814
vn -0.9914993612638713 -0.01600032937489542 0.12912399495535357
vn -0.9644505783226426 -0.03249751926957347 0.26225749410540095
vn -0.9914993676366097 0.00488433084057122 0.13001979575604228
vn -0.9644505577611167 0.009920332565531043 0.26407708843453276
vn -0.9644505724668199 0.05208211851315719 0.2590801926037665
vn -0.9914993647528693 0.025642919088411566 0.1275595954653428
vn -0.965138239531194 0.08208853336227244 0.24853501017977048
vn -0.9914585028930483 0.04090381011935615 0.1238423003613684
vn -0.9654201025773484 0.09777710026103206 0.241668500645174
vn -0.991450241345493 0.048939472040875565 0.1209601050442826
vn -0.9649527731836056 0.11654529676116306 0.23512409346581453
vn -0.991466368176812 0.05789557814172023 0.11680129625101797
vn -0.9649527656184584 0.13965079502420238 0.22217969208367438
vn -0.9914663655913772 0.06937354759240623 0.1103709961695988
vn -0.9649527834908306 0.16133379723977473 0.20697229645895554
vn -0.991466368668168 0.08014491746729975 0.10281649675084371
vn -0.9649527686404153 0.18137369410561432 0.18965689383642226
vn -0.9914663679982936 0.09010000709182873 0.09421480695901477
vn -0.9649527641296572 0.1995661925814941 0.17040979366532966
vn -0.9914663678486744 0.09913739678516706 0.08465351725485114
vn -0.9649527590965943 0.2157260908555815 0.14942699366593562
vn -0.9914663626358126 0.1071650959613993 0.07423000720258399
vn -0.9649527758817922 0.22968869425911834 0.12692219682768324
vn -0.9914663675713157 0.1141011962680008 0.06305044793775853
vn -0.9649527792247888 0.24131189480461043 0.10312469777974906
vn -0.9914663674760914 0.1198751960676327 0.051228698319501775
vn -0.964952774708527 0.2504772934349744 0.0782768679483584
vn -0.9914663723727261 0.12442819653280032 0.0388851689164623
vn -0.9649527769565481 0.25709149386055397 0.052631758743132945
vn -0.9914663730030562 0.1277138965224389 0.02614558928807371
vn -0.9649527684392823 0.2610871914606192 0.026450579134880765
vn -0.9914663737116244 0.12969879656108288 0.013139709651605337
vn -0.9654200936856453 0.2606160982954338 0.0065796669569655785
vn -0.9914502348990948 0.13044380459162805 0.0032932601159229398
vn -0.9579778773817498 0.2868420932275406 0
vn -0.852475113282905 0.5227678081455459 0
vn -0.8651840667031062 0.501294680707509 0.01265597951293057
vn -0.6913793407795943 0.7224919426147073 0
vn -0.7061683881938816 0.7078183881662959 0.017869999701239498
vn -0.4992091160889491 0.8662055279168311 0.021868740704805142
vn -0.48624598536399605 0.8738219736979589 0
vn -0.25837030706902586 0.9657382264226512 0.024381600667082157
vn -0.25081209754354006 0.9680357905190333 0
vn -0.1305670946918014 0.9911236597059181 0.025022488982712202
vn 0 0.9949073680550122 0.10079349676367176
vn 0 0.9987260311525422 0.05046102157399455
vn 0.2580719920629854 0.9612055704380835 0.09737914700510057
vn 0.13068979452136498 0.9863743586502901 0.09992898581088629
vn 0.4986523001095115 0.8623878001893933 0.08736799001918752
vn 0.7054510247627643 0.7051492247521706 0.07143824250762762
vn 0.8644777230475076 0.5001112133332724 0.05066597135078605
vn 0.8644777307769854 0.49245751753238665 0.10081590358923033
vn 0.8644776920382038 0.47978809558117563 0.14993899861906942
vn 0.8644777140708705 0.46223180752362236 0.19753490321522243
vn 0.8644777076142072 0.43996760387517736 0.24311890214135978
vn 0.8644777229442374 0.41322221096739475 0.2862266075967849
vn 0.864477690093211 0.38226809561926295 0.3264190962592846
vn 0.8644777314723109 0.3474204126482416 0.36328681322587636
vn 0.8644776995084665 0.3090341998242861 0.39645449977457997
vn 0.8644777069286765 0.26750040214398085 0.42558410341100134
vn 0.8644777311202091 0.22324200803645672 0.45037901621312926
vn 0.8651841057168683 0.18807410124273521 0.4648490030715781
vn 0.8647488114317675 0.15750410208216556 0.4768668063040624
vn 0.863817206059296 0.09929206069648983 0.49392400346465865
vn 0.8638172229569582 0.018912640502625547 0.5034502133797812
vn 0.8638172119075469 -0.06195496085403682 0.4999814068921434
vn 0.863817186656698 -0.1412233978185357 0.4836070925297672
vn 0.8638172258375812 -0.21684650648608197 0.4547498136019923
vn 0.8638172165858263 -0.28687240550812826 0.4141546079520253
vn 0.8638172052842118 -0.3494936021379504 0.36286920221977254
vn 0.8638172163090594 -0.4030936076104962 0.30221740570593114
vn 0.8638171964342144 -0.44628899815774586 0.2337647990350328
vn 0.8638172196703404 -0.47796471088393294 0.15927820362699
vn 0.863817220963538 -0.49730321206879713 0.08068038195799078
vn 0.7048872179946818 -0.7001649178741287 0.1135918028998231
vn 0.49829427244372715 -0.8558183526722153 0.13884439232173784
vn 0.1309421038529852 -0.94054072767551 0.31342830922266074
vn 0.25791229382779396 -0.916612678064162 0.30545449269004166
vn 0 -0.8858361329236729 0.4639982172453174
vn -0.25791229382779396 -0.916612678064162 0.30545449269004166
vn -0.1309421038529852 -0.94054072767551 0.31342830922266074
vn -0.49829427244372715 -0.8558183526722153 0.13884439232173784
vn -0.7048872179946818 -0.7001649178741287 0.1135918028998231
vn -0.863817220963538 -0.49730321206879713 0.08068038195799078
vn 0.9760762059588819 0.21742870132738812 0
vn 0.9620604149213601 0.2728365042316383 0
vn 0.9401398065504054 0.3407890023744406 0
vn 0.9184399707714933 0.3955603874116547 0
vn 0 0.8994465330497631 0.43703081605850336
vn 0 0.911726388484458 0.4107979948114243
vn -0.9620604149213601 0.2728365042316383 0
vn -0.9401398065504054 0.3407890023744406 0
vn -0.9184399707714933 0.3955603874116547 0
vn -0.9760762059588819 0.21742870132738812 0
vn -0.2197210076658925 -0.8490157296214884 -0.4805153167648002
vn -0.4572703881145917 -0.6270119837026545 -0.6306819836072638
vn -0.6111483888528461 -0.4391519919900059 -0.6585158879888778
vn -0.7056442314435465 -0.26002151158657294 -0.6591320293709603
vn 0.8870295216384024 0.4617127112631262 0
vn 0.8593583901272611 0.5113737941250822 0
vn 0.8200827899819302 0.5722448930094992 0
vn 0.7858920770833482 0.6183636819684845 0
vn 0.7368794113737338 0.6760242104344337 0
vn 0.6993454968135406 0.7147837967431985 0
vn 0.6012244164773368 0.7990802218998325 0
vn 0.6428372143636577 0.7660028171156896 0
vn 0.5339703868412611 0.8455031791640962 0
vn 0.49320648487495033 0.8699122733226007 0
vn 0.37711011269341915 0.926168431174566 0
vn 0.4137342910712459 0.910397680352808 0
vn 0.28323889630181065 0.9590493874778985 0
vn 0.2548632982654896 0.9669770934190923 0
vn 0.1284737020801113 0.9917129160567744 0
vn 0.14416479893730866 0.9895536927056386 0
vn -0.1284737020801113 0.9917129160567744 0
vn -0.14416479893730866 0.9895536927056386 0
vn -0.2548632982654896 0.9669770934190923 0
vn -0.28323889630181065 0.9590493874778985 0
vn -0.4137342910712459 0.910397680352808 0
vn -0.37711011269341915 0.926168431174566 0
vn -0.49320648487495033 0.8699122733226007 0
vn -0.5339703868412611 0.8455031791640962 0
vn -0.6012244164773368 0.7990802218998325 0
vn -0.6428372143636577 0.7660028171156896 0
vn -0.6993454968135406 0.7147837967431985 0
vn -0.7368794113737338 0.6760242104344337 0
vn -0.7858920770833482 0.6183636819684845 0
vn -0.8200827899819302 0.5722448930094992 0
vn -0.8593583901272611 0.5113737941250822 0
vn -0.8870295216384024 0.4617127112631262 0
vn 0.720622874700495 -0.2545568910630599 -0.6449057773587581
vn 0.6274168706778647 -0.43223367979969113 -0.6477052697296927
vn 0.2751449044489198 -0.7970475128877561 -0.5375970086926052
vn 0.22848409701096878 -0.8474663889134362 -0.47916149373160477
vn -0.8638172196703404 -0.47796471088393294 0.15927820362699
vn -0.8638171964342144 -0.44628899815774586 0.2337647990350328
vn -0.8638172163090594 -0.4030936076104962 0.30221740570593114
vn -0.8638172052842118 -0.3494936021379504 0.36286920221977254
vn -0.8638172165858263 -0.28687240550812826 0.4141546079520253
vn -0.8638172258375812 -0.21684650648608197 0.4547498136019923
vn -0.863817186656698 -0.1412233978185357 0.4836070925297672
vn -0.8638172119075469 -0.06195496085403682 0.4999814068921434
vn -0.8638172229569582 0.018912640502625547 0.5034502133797812
vn -0.863817206059296 0.09929206069648983 0.49392400346465865
vn -0.8647488114317675 0.15750410208216556 0.4768668063040624
vn -0.8651841057168683 0.18807410124273521 0.4648490030715781
vn -0.8644777311202091 0.22324200803645672 0.45037901621312926
vn -0.8644777069286765 0.26750040214398085 0.42558410341100134
vn -0.8644776995084665 0.3090341998242861 0.39645449977457997
vn -0.8644777314723109 0.3474204126482416 0.36328681322587636
vn -0.864477690093211 0.38226809561926295 0.3264190962592846
vn -0.8644777229442374 0.41322221096739475 0.2862266075967849
vn -0.8644777076142072 0.43996760387517736 0.24311890214135978
vn -0.8644777140708705 0.46223180752362236 0.19753490321522243
vn -0.8644776920382038 0.47978809558117563 0.14993899861906942
vn -0.8644777307769854 0.49245751753238665 0.10081590358923033
vn -0.8644777230475076 0.5001112133332724 0.05066597135078605
vn -0.7054510247627643 0.7051492247521706 0.07143824250762762
vn -0.4986523001095115 0.8623878001893933 0.08736799001918752
vn -0.2580719920629854 0.9612055704380835 0.09737914700510057
vn -0.13068979452136498 0.9863743586502901 0.09992898581088629
vn 0 0.9796813610860529 0.20056029203353998
vn 0.25807200430614563 0.94649531579306 0.19376650323315517
vn 0.1306898032316132 0.971278924017159 0.1988402049167926
vn 0.4986522827858976 0.8491898706849004 0.17384609399861495
vn 0.7054509863419399 0.6943576865567145 0.1421488972478909
vn 0.705450993991286 0.6764938942379295 0.21141169819929045
vn 0.7054510214617675 0.6517398198277243 0.2785212084733842
vn 0.7054510295922709 0.6203476260223518 0.3427939143795246
vn 0.7054509838619448 0.582637086671463 0.4035751907677234
vn 0.7054510022826103 0.5389922017440035 0.4602459014892063
vn 0.7054510247957363 0.4898575172178894 0.5122289180042169
vn 0.7054510060491401 0.4357335037363515 0.5589948047932995
vn 0.7054510076486199 0.3771715040893575 0.6000671065060298
vn 0.7054510232518071 0.31476781037480994 0.6350276209306378
vn 0.7061683921262331 0.2655569970390433 0.6563578926816195
vn 0.7057163021873712 0.2222019006887158 0.672748702085188
vn 0.7048872182160342 0.13979560361266496 0.6954072179710474
vn 0.7048872236281013 0.026627550892565983 0.7088194237599101
vn 0.7048872036152728 -0.08722784044738015 0.7039356036103921
vn 0.7048872355814326 -0.1988317100366652 0.6808817343696784
vn 0.7048872092609034 -0.3053033040111162 0.6402530084117304
vn 0.704887225136561 -0.40389441440303675 0.5830980207935089
vn 0.7048872200927083 -0.4920602140261054 0.5108921145629057
vn 0.7048872037535809 -0.5675250030221162 0.42549900226581616
vn 0.7048872411285011 -0.6283407366621939 0.32912291920354264
vn 0.7048871903094789 -0.6729377907487071 0.22425159691707414
vn 0.4982942688339218 -0.8225383485539047 0.2741048828559652
vn 0.13094209994202802 -0.8782090996111906 0.46000319979634263
vn 0.25791230226012546 -0.8558668075000937 0.44830040392852577
vn 0 -0.800097921346305 0.599869416004285
vn -0.25791230226012546 -0.8558668075000937 0.44830040392852577
vn -0.13094209994202802 -0.8782090996111906 0.46000319979634263
vn -0.4982942688339218 -0.8225383485539047 0.2741048828559652
vn -0.7048871903094789 -0.6729377907487071 0.22425159691707414
vn -0.21139979331341618 -0.858021972860731 -0.46809018519428913
vn -0.11732349732378419 -0.9019516794259683 -0.41559399052006457
vn -0.15903550222527327 -0.8621765120638367 -0.4809983067302752
vn -0.18350820132427045 -0.8707995062840461 -0.4561063032914503
vn 0 0.9276184674920471 0.3735290869098491
vn 0 0.9366217750221333 0.3503421906570608
vn 0.19109549842965654 -0.8697463928527852 -0.4549985962610106
vn 0.2194856964998957 -0.8569473863343929 -0.4663337925634476
vn 0.1642993030473003 -0.8618674159852705 -0.4797815088986279
vn 0.12156839886748035 -0.901780991599094 -0.41474349613628925
vn -0.11340069778705288 -0.9057335823251481 -0.4083955920304033
vn -0.0445266098111773 -0.9313309960505316 -0.36144149846724577
vn -0.07321296881276677 -0.9048866853262124 -0.41930889320042003
vn -0.08824052514753317 -0.913700849754344 -0.39669177818537826
vn -0.04305967158504444 -0.9327235343339415 -0.3580121131785751
vn 0 0.9498728787421443 0.3126363930032963
vn -0.034409330855999405 -0.9249148230090651 -0.3786140094187642
vn 0 -0.9498728787421443 -0.3126363930032963
vn -0.02305507020762526 -0.9396742084623512 -0.3412929030735553
vn 0.035094428851168535 -0.9251847697136721 -0.37789088762957684
vn 0.02393867927543852 -0.9396171715602352 -0.34138908966704157
vn 0.0752334686850047 -0.9050561841806493 -0.4185847926836151
vn 0.04435740989184803 -0.9328421977255497 -0.35754419912823815
vn 0.04592016259890779 -0.9314088527142236 -0.36106632043499043
vn 0.0916990396107554 -0.9135069961223402 -0.3963536983175558
vn 0.11734929936855867 -0.905714495126468 -0.40732099780825887
vn -0.7048872411285011 -0.6283407366621939 0.32912291920354264
vn -0.7048872037535809 -0.5675250030221162 0.42549900226581616
vn -0.7048872200927083 -0.4920602140261054 0.5108921145629057
vn -0.704887225136561 -0.40389441440303675 0.5830980207935089
vn -0.7048872092609034 -0.3053033040111162 0.6402530084117304
vn -0.7048872355814326 -0.1988317100366652 0.6808817343696784
vn -0.7048872036152728 -0.08722784044738015 0.7039356036103921
vn -0.7048872236281013 0.026627550892565983 0.7088194237599101
vn -0.7048872182160342 0.13979560361266496 0.6954072179710474
vn -0.7057163021873712 0.2222019006887158 0.672748702085188
vn -0.7061683921262331 0.2655569970390433 0.6563578926816195
vn -0.7054510232518071 0.31476781037480994 0.6350276209306378
vn -0.7054510076486199 0.3771715040893575 0.6000671065060298
vn -0.7054510060491401 0.4357335037363515 0.5589948047932995
vn -0.7054510247957363 0.4898575172178894 0.5122289180042169
vn -0.7054510022826103 0.5389922017440035 0.4602459014892063
vn -0.7054509838619448 0.582637086671463 0.4035751907677234
vn -0.7054510295922709 0.6203476260223518 0.3427939143795246
vn -0.7054510214617675 0.6517398198277243 0.2785212084733842
vn -0.705450993991286 0.6764938942379295 0.21141169819929045
vn -0.7054509863419399 0.6943576865567145 0.1421488972478909
vn -0.4986522827858976 0.8491898706849004 0.17384609399861495
vn -0.25807200430614563 0.94649531579306 0.19376650323315517
vn -0.1306898032316132 0.971278924017159 0.1988402049167926
vn 0 0.9544770349279615 0.2982844109153665
vn 0.25807199780340995 0.9221447921511277 0.28818019754714297
vn 0.1306897981566276 0.9462907866526205 0.2957260958287999
vn 0.49865229411302575 0.8273426902325824 0.2585535969475759
vn 0.4986522726927402 0.7970688563508128 0.3406275813465088
vn 0.49865231565776025 0.7586766238225638 0.41923221316395687
vn 0.49865229455688354 0.7125570922219725 0.49356689461239417
vn 0.49865230526809967 0.6591800069640226 0.5628744059465854
vn 0.49865227611024565 0.5990889712984597 0.6264489699876795
vn 0.4986523038867678 0.5328961041536825 0.6836429053286855
vn 0.49865231059088155 0.46127550979703513 0.7338738155867537
vn 0.4986522777111935 0.3849566827931698 0.7766300652861163
vn 0.49920910810643465 0.32498020527720883 0.8032298130432917
vn 0.4988507133911138 0.2718154072965937 0.8229607220915004
vn 0.4982942759327733 0.17087359174693795 0.8500029589455169
vn 0.49829427206775356 0.032547108175548074 0.8663968514334968
vn 0.4982942889243781 -0.1066193976301634 0.8604272808752228
vn 0.49829427875665394 -0.243033889638948 0.8322483645194801
vn 0.4982943054946191 -0.37317520411494903 0.7825874086294778
vn 0.49829430530260144 -0.4936841052535421 0.7127263075844805
vn 0.4982943075697434 -0.6014500091368138 0.6244683094864917
vn 0.49829427471188015 -0.6936912647956064 0.5200915736056808
vn 0.4982942782849512 -0.7680269665303341 0.40229018246869086
vn 0.13094210312981291 -0.793209118959495 0.5947045142147849
vn 0.2579122997492035 -0.7730292992482988 0.5795747994364154
vn 0 -0.6937075680048204 0.7202567667803181
vn -0.2579122997492035 -0.7730292992482988 0.5795747994364154
vn -0.13094210312981291 -0.793209118959495 0.5947045142147849
vn -0.4982942782849512 -0.7680269665303341 0.40229018246869086
vn -0.49829427471188015 -0.6936912647956064 0.5200915736056808
vn -0.4982943075697434 -0.6014500091368138 0.6244683094864917
vn -0.49829430530260144 -0.4936841052535421 0.7127263075844805
vn -0.4982943054946191 -0.37317520411494903 0.7825874086294778
vn -0.49829427875665394 -0.243033889638948 0.8322483645194801
vn -0.4982942889243781 -0.1066193976301634 0.8604272808752228
vn -0.49829427206775356 0.032547108175548074 0.8663968514334968
vn -0.4982942759327733 0.17087359174693795 0.8500029589455169
vn -0.4988507133911138 0.2718154072965937 0.8229607220915004
vn -0.49920910810643465 0.32498020527720883 0.8032298130432917
vn -0.4986522777111935 0.3849566827931698 0.7766300652861163
vn -0.49865231059088155 0.46127550979703513 0.7338738155867537
vn -0.4986523038867678 0.5328961041536825 0.6836429053286855
vn -0.49865227611024565 0.5990889712984597 0.6264489699876795
vn -0.49865230526809967 0.6591800069640226 0.5628744059465854
vn -0.49865229455688354 0.7125570922219725 0.49356689461239417
vn -0.49865231565776025 0.7586766238225638 0.41923221316395687
vn -0.4986522726927402 0.7970688563508128 0.3406275813465088
vn -0.49865229411302575 0.8273426902325824 0.2585535969475759
vn -0.25807199780340995 0.9221447921511277 0.28818019754714297
vn -0.1306897981566276 0.9462907866526205 0.2957260958287999
vn 0 0.919551118029009 0.39297040770470193
vn 0.2580720132229587 0.8884019455194735 0.37965881945276003
vn 0.13068980247974754 0.9116644172981943 0.3896000073923877
vn 0.2580720006368572 0.8456105020867553 0.4672705011531069
vn 0.25807201300379357 0.7942063400186565 0.5501228277197192
vn 0.25807200587516155 0.7347129167261731 0.6273721142824966
vn 0.25807199852026036 0.6677362961713168 0.6982313959964634
vn 0.25807200359507726 0.5939586082741521 0.761979010614764
vn 0.25807199519983776 0.5141312904371116 0.817965684785765
vn 0.2580720155240684 0.42906742581012897 0.8656211520705894
vn 0.2583702931171072 0.3623225903478547 0.8955261761435009
vn 0.2581753091111888 0.3029929106928334 0.917355332374117
vn 0.25791228907666813 0.19041649193531024 0.9472184598825568
vn 0.2579123050022372 0.03626955070345167 0.9654873187257318
vn 0.25791230215856475 -0.11881360099439578 0.9588350080248497
vn 0.2579123090672246 -0.270829909521359 0.9274332326050565
vn 0.2579123154840513 -0.4158555249663468 0.8720925523570414
vn 0.25791230159858425 -0.5501471034099055 0.7942414049228431
vn 0.2579122934061279 -0.6702382828644637 0.6958892822086615
vn 0.13094210260957534 -0.6877348137060256 0.7140553142305727
vn 0 -0.5694112901618459 0.8220527857967653
vn -0.2579122934061279 -0.6702382828644637 0.6958892822086615
vn -0.13094210260957534 -0.6877348137060256 0.7140553142305727
vn -0.25791230159858425 -0.5501471034099055 0.7942414049228431
vn -0.2579123154840513 -0.4158555249663468 0.8720925523570414
vn -0.2579123090672246 -0.270829909521359 0.9274332326050565
vn -0.25791230215856475 -0.11881360099439578 0.9588350080248497
vn -0.2579123050022372 0.03626955070345167 0.9654873187257318
vn -0.25791228907666813 0.19041649193531024 0.9472184598825568
vn -0.2581753091111888 0.3029929106928334 0.917355332374117
vn -0.2583702931171072 0.3623225903478547 0.8955261761435009
vn -0.2580720155240684 0.42906742581012897 0.8656211520705894
vn -0.25807199519983776 0.5141312904371116 0.817965684785765
vn -0.25807200359507726 0.5939586082741521 0.761979010614764
vn -0.25807199852026036 0.6677362961713168 0.6982313959964634
vn -0.25807200587516155 0.7347129167261731 0.6273721142824966
vn -0.25807201300379357 0.7942063400186565 0.5501228277197192
vn -0.2580720006368572 0.8456105020867553 0.4672705011531069
vn -0.2580720132229587 0.8884019455194735 0.37965881945276003
vn -0.13068980247974754 0.9116644172981943 0.3896000073923877
vn 0 0.8752593274736467 0.48365391518148576
vn 0.13068979756172502 0.8677524838103723 0.4795057910538775
vn 0.13068980104610062 0.8150023065236491 0.5645276045187361
vn 0.1306897993481578 0.7539510962395141 0.6437995967889176
vn 0.1306898017226863 0.6852207090322298 0.7165143094447263
vn 0.13068980183640802 0.6095112085646411 0.7819311109874265
vn 0.13068980037328667 0.5275936015069549 0.8393838023975154
vn 0.1306898000459891 0.44030240015494004 0.8882871003125841
vn 0.13056710170455546 0.37184660485446275 0.9190660119984206
vn 0.13062999661160815 0.31093809193462335 0.9414102755809005
vn 0.13094209440065757 0.1953872916448535 0.9719454584376935
vn 0.13094210361652278 0.03721636102788778 0.9906912273621492
vn 0.13094209488752706 -0.12191519523997146 0.9838652615861918
vn 0.13094210525587807 -0.2778999111546097 0.9516437381979764
vn 0.13094209944395896 -0.42671139818798526 0.8948583962000151
vn 0.13094210781355284 -0.5645086336852533 0.8149749486310317
vn 0 -0.43041730666301303 0.9026300139730332
vn -0.13094210781355284 -0.5645086336852533 0.8149749486310317
vn -0.13094209944395896 -0.42671139818798526 0.8948583962000151
vn -0.13094210525587807 -0.2778999111546097 0.9516437381979764
vn -0.13094209488752706 -0.12191519523997146 0.9838652615861918
vn -0.13094210361652278 0.03721636102788778 0.9906912273621492
vn -0.13094209440065757 0.1953872916448535 0.9719454584376935
vn -0.13062999661160815 0.31093809193462335 0.9414102755809005
vn -0.13056710170455546 0.37184660485446275 0.9190660119984206
vn -0.1306898000459891 0.44030240015494004 0.8882871003125841
vn -0.13068980037328667 0.5275936015069549 0.8393838023975154
vn -0.13068980183640802 0.6095112085646411 0.7819311109874265
vn -0.1306898017226863 0.6852207090322298 0.7165143094447263
vn -0.1306897993481578 0.7539510962395141 0.6437995967889176
vn -0.13068980104610062 0.8150023065236491 0.5645276045187361
vn -0.13068979756172502 0.8677524838103723 0.4795057910538775
vn 0 0.8220527857967653 0.5694112901618459
vn 0 0.7604734838919358 0.6493689862453099
vn 0 0.6911484860608862 0.7227127854242962
vn 0 0.6147840127948079 0.7886955164142327
vn 0 0.5321577950020058 0.8466451920483594
vn 0 0.44411139031470326 0.8959715804604192
vn 0 0.37505731037298806 0.9270016256381539
vn 0 0.31362548751135627 0.9495467621888162
vn 0 0.19708419336326852 0.9803865669858751
vn 0 0.03753957157291171 0.9992951418705698
vn 0 -0.12297399912110443 0.9924098929072415
vn 0 -0.28031340972802354 0.9599085333127574
usemtl material_0_0
f 1//1 2//1 3//1
f 2//1 1//1 4//1
f 5//2 6//2 7//2
f 6//2 5//2 8//2
f 8//2 5//2 9//2
f 9//2 5//2 10//2
f 11//3 12//3 13//3
f 12//3 11//3 14//3
f 14//3 11//3 15//3
f 15//3 11//3 16//3
f 15//3 16//3 17//3
f 16//3 11//3 18//3
f 19//4 20//4 21//4
f 20//4 19//4 22//4
f 20//4 22//4 23//4
f 20//4 23//4 24//4
f 25//5 26//5 27//5
f 26//5 25//5 28//5
f 28//5 25//5 29//5
f 28//5 29//5 30//5
f 31//6 32//6 33//6
f 32//6 31//6 34//6
f 34//6 31//6 35//6
f 35//6 31//6 36//6
f 36//6 31//6 37//6
f 37//6 31//6 38//6
f 39//2 40//2 41//2
f 40//2 39//2 42//2
f 40//2 42//2 43//2
f 43//2 42//2 44//2
f 43//2 44//2 45//2
f 45//2 44//2 46//2
f 46//2 44//2 47//2
f 46//2 47//2 48//2
f 46//2 48//2 49//2
f 49//2 48//2 50//2
f 49//2 50//2 51//2
f 51//2 50//2 52//2
f 51//2 52//2 53//2
f 53//2 52//2 54//2
f 53//2 54//2 55//2
f 55//2 54//2 56//2
f 55//2 56//2 57//2
f 57//2 56//2 58//2
f 57//2 58//2 59//2
f 59//2 58//2 60//2
f 59//2 60//2 61//2
f 61//2 60//2 62//2
f 62//2 60//2 63//2
f 63//2 60//2 64//2
f 64//2 60//2 65//2
f 65//2 60//2 66//2
f 67//6 68//6 69//6
f 68//6 67//6 70//6
f 70//6 67//6 71//6
f 71//6 67//6 72//6
f 72//6 67//6 73//6
f 73//6 67//6 74//6
f 75//7 76//8 77//7
f 76//8 75//7 78//8
f 79//9 80//10 81//11
f 80//10 79//9 82//12
f 83//6 84//6 85//6
f 84//6 83//6 86//6
f 84//6 86//6 87//6
f 84//6 87//6 88//6
f 84//6 88//6 89//6
f 84//6 89//6 90//6
f 91//2 92//2 93//2
f 92//2 91//2 94//2
f 94//2 91//2 95//2
f 94//2 95//2 96//2
f 94//2 96//2 97//2
f 94//2 97//2 98//2
f 94//2 98//2 99//2
f 94//2 99//2 100//2
f 94//2 100//2 101//2
f 94//2 101//2 102//2
f 103//13 104//13 105//13
f 104//13 103//13 106//13
f 106//13 103//13 107//13
f 106//13 107//13 108//13
f 108//13 107//13 109//13
f 108//13 109//13 110//13
f 110//13 109//13 111//13
f 110//13 111//13 112//13
f 112//13 111//13 113//13
f 112//13 113//13 114//13
f 114//13 113//13 115//13
f 114//13 115//13 116//13
f 116//13 115//13 117//13
f 116//13 117//13 118//13
f 118//13 117//13 119//13
f 118//13 119//13 120//13
f 120//13 119//13 121//13
f 120//13 121//13 122//13
f 122//13 121//13 123//13
f 122//13 123//13 124//13
f 124//13 123//13 125//13
f 124//13 125//13 126//13
f 126//13 125//13 127//13
f 126//13 127//13 128//13
f 128//13 127//13 129//13
f 128//13 129//13 130//13
f 131//14 132//15 133//15
f 132//15 131//14 134//14
f 135//4 136//4 137//4
f 136//4 135//4 138//4
f 136//4 138//4 139//4
f 139//4 138//4 140//4
f 140//4 138//4 141//4
f 141//4 138//4 142//4
f 142//4 138//4 143//4
f 143//4 138//4 144//4
f 144//4 138//4 145//4
f 145//4 138//4 146//4
f 147//16 148//17 149//18
f 148//17 147//16 150//19
f 151//4 152//4 153//4
f 152//4 151//4 154//4
f 154//4 151//4 155//4
f 154//4 155//4 156//4
f 156//4 155//4 157//4
f 156//4 157//4 158//4
f 156//4 158//4 159//4
f 159//4 158//4 160//4
f 160//4 158//4 161//4
f 160//4 161//4 162//4
f 162//4 161//4 163//4
f 162//4 163//4 164//4
f 164//4 163//4 165//4
f 164//4 165//4 166//4
f 166//4 165//4 167//4
f 166//4 167//4 168//4
f 168//4 167//4 169//4
f 168//4 169//4 170//4
f 170//4 169//4 171//4
f 170//4 171//4 19//4
f 19//4 171//4 172//4
f 19//4 172//4 173//4
f 19//4 173//4 174//4
f 19//4 174//4 175//4
f 19//4 175//4 176//4
f 19//4 176//4 22//4
f 177//6 178//6 179//6
f 178//6 177//6 180//6
f 178//6 180//6 181//6
f 178//6 181//6 182//6
f 178//6 182//6 183//6
f 178//6 183//6 184//6
f 185//5 25//5 186//5
f 25//5 185//5 29//5
f 187//20 188//21 189//22
f 188//21 187//20 190//23
f 191//24 190//23 187//20
f 190//23 191//24 192//25
f 193//26 192//25 191//24
f 192//25 193//26 194//27
f 195//28 194//27 193//26
f 194//27 195//28 196//29
f 197//30 196//29 195//28
f 196//29 197//30 198//31
f 199//32 198//31 197//30
f 198//31 199//32 200//33
f 201//34 197//30 202//35
f 197//30 201//34 199//32
f 203//36 202//35 204//37
f 202//35 203//36 201//34
f 205//38 204//37 206//39
f 204//37 205//38 203//36
f 207//40 206//39 208//41
f 206//39 207//40 205//38
f 209//42 208//41 210//43
f 208//41 209//42 207//40
f 211//44 210//43 212//45
f 210//43 211//44 209//42
f 213//46 212//45 214//47
f 212//45 213//46 211//44
f 215//48 214//47 216//49
f 214//47 215//48 213//46
f 217//50 216//49 218//51
f 216//49 217//50 215//48
f 219//52 218//51 220//53
f 218//51 219//52 217//50
f 221//54 220//53 222//55
f 220//53 221//54 219//52
f 223//56 222//55 224//57
f 222//55 223//56 221//54
f 225//58 224//57 226//59
f 224//57 225//58 223//56
f 227//60 226//59 228//61
f 226//59 227//60 225//58
f 229//62 228//61 230//63
f 228//61 229//62 227//60
f 231//64 229//62 230//63
f 229//62 231//64 232//65
f 233//66 232//65 231//64
f 232//65 233//66 234//67
f 235//68 234//67 233//66
f 234//67 235//68 236//69
f 237//70 236//69 235//68
f 236//69 237//70 238//71
f 239//72 238//71 237//70
f 238//71 239//72 240//73
f 241//74 240//73 239//72
f 240//73 241//74 242//75
f 243//76 242//75 241//74
f 242//75 243//76 244//77
f 245//78 244//77 243//76
f 244//77 245//78 246//79
f 247//80 246//79 245//78
f 246//79 247//80 248//81
f 249//82 248//81 247//80
f 248//81 249//82 250//83
f 251//84 250//83 249//82
f 250//83 251//84 252//85
f 253//86 249//82 254//87
f 249//82 253//86 251//84
f 255//88 254//87 256//89
f 254//87 255//88 253//86
f 257//90 256//89 258//91
f 256//89 257//90 255//88
f 150//19 258//91 148//17
f 258//91 150//19 257//90
f 148//17 259//92 149//18
f 259//92 148//17 260//93
f 78//8 261//94 76//8
f 261//94 78//8 262//94
f 82//12 263//95 80//10
f 263//95 82//12 264//96
f 81//11 265//97 266//98
f 265//97 81//11 80//10
f 266//98 267//99 268//100
f 267//99 266//98 265//97
f 269//101 268//100 267//99
f 268//100 269//101 270//102
f 271//103 270//102 269//101
f 270//102 271//103 272//104
f 273//105 272//104 271//103
f 272//104 273//105 274//106
f 275//107 276//108 277//107
f 276//108 275//107 278//108
f 278//108 275//107 279//107
f 278//108 279//107 280//109
f 278//108 280//109 281//109
f 278//108 281//109 282//107
f 278//108 282//107 283//107
f 278//108 283//107 284//107
f 285//2 95//2 91//2
f 95//2 285//2 96//2
f 96//2 285//2 97//2
f 97//2 285//2 98//2
f 98//2 285//2 99//2
f 99//2 285//2 100//2
f 100//2 285//2 101//2
f 101//2 285//2 102//2
f 102//2 285//2 94//2
f 286//110 287//111 288//112
f 278//108 289//113 276//108
f 289//113 278//108 290//113
f 288//112 291//114 292//115
f 290//113 293//116 289//113
f 293//116 290//113 294//116
f 292//115 295//117 296//118
f 297//119 293//116 294//116
f 293//116 297//119 298//119
f 299//120 296//118 295//117
f 297//119 300//121 298//119
f 300//121 297//119 301//121
f 302//122 299//120 303//123
f 304//124 300//121 301//121
f 300//121 304//124 305//124
f 306//125 302//122 303//123
f 304//124 307//126 305//124
f 307//126 304//124 308//126
f 309//127 306//125 310//128
f 133//15 307//126 308//126
f 307//126 133//15 132//15
f 311//129 309//127 312//130
f 313//131 311//129 314//132
f 315//133 316//134 317//135
f 316//134 315//133 318//134
f 319//33 320//134 321//136
f 320//134 319//33 322//134
f 323//137 321//136 324//138
f 321//136 323//137 319//33
f 325//139 326//140 327//141
f 326//140 325//139 324//138
f 324//138 325//139 323//137
f 328//142 327//141 329//143
f 327//141 328//142 325//139
f 330//144 331//145 332//146
f 331//145 330//144 329//143
f 329//143 330//144 328//142
f 333//147 332//146 334//148
f 332//146 333//147 330//144
f 334//148 335//149 333//147
f 335//149 334//148 336//150
f 335//149 336//150 337//151
f 337//151 338//152 335//149
f 338//152 337//151 339//153
f 339//153 340//154 338//152
f 340//154 339//153 341//155
f 342//156 340//154 341//155
f 340//154 342//156 343//157
f 342//156 344//21 343//157
f 344//21 342//156 345//158
f 346//159 344//21 345//158
f 344//21 346//159 347//159
f 348//5 349//5 350//5
f 349//5 348//5 351//5
f 352//160 353//161 354//160
f 353//161 352//160 355//162
f 355//162 356//163 353//161
f 356//163 355//162 357//164
f 358//165 356//163 357//164
f 356//163 358//165 359//166
f 358//165 360//167 359//166
f 360//167 358//165 361//168
f 361//168 362//169 360//167
f 362//169 361//168 363//170
f 364//171 362//169 363//170
f 362//169 364//171 365//172
f 365//172 364//171 366//173
f 367//174 365//172 366//173
f 365//172 367//174 368//175
f 369//176 368//175 367//174
f 368//175 369//176 370//177
f 368//175 370//177 371//178
f 372//179 371//178 370//177
f 371//178 372//179 373//180
f 374//181 373//180 372//179
f 373//180 374//181 375//182
f 373//180 375//182 376//183
f 377//184 376//183 375//182
f 376//183 377//184 378//185
f 379//186 378//185 377//184
f 378//185 379//186 380//186
f 381//4 382//4 383//4
f 382//4 381//4 384//4
f 382//4 384//4 385//4
f 382//4 385//4 386//4
f 382//4 386//4 387//4
f 382//4 387//4 388//4
f 382//4 388//4 389//4
f 382//4 389//4 390//4
f 382//4 390//4 391//4
f 392//187 393//188 394//189
f 394//189 395//190 396//191
f 396//191 397//192 398//193
f 398//193 399//194 400//195
f 400//195 399//194 401//196
f 401//196 402//197 403//198
f 404//199 405//200 403//198
f 404//199 406//201 405//200
f 407//202 408//203 406//201
f 409//186 410//204 411//205
f 410//204 409//186 412//186
f 413//206 271//103 414//207
f 271//103 413//206 273//105
f 415//208 414//207 416//209
f 414//207 415//208 413//206
f 417//210 416//209 418//211
f 416//209 417//210 415//208
f 419//212 418//211 420//213
f 418//211 419//212 417//210
f 421//214 420//213 422//215
f 420//213 421//214 419//212
f 423//216 422//215 424//217
f 422//215 423//216 421//214
f 425//218 424//217 426//219
f 424//217 425//218 423//216
f 427//220 426//219 428//221
f 426//219 427//220 425//218
f 429//222 428//221 430//223
f 428//221 429//222 427//220
f 431//224 430//223 432//225
f 430//223 431//224 429//222
f 433//226 431//224 432//225
f 431//224 433//226 434//227
f 435//228 434//227 433//226
f 434//227 435//228 436//229
f 437//230 436//229 435//228
f 436//229 437//230 438//231
f 439//232 438//231 437//230
f 438//231 439//232 440//233
f 441//234 440//233 439//232
f 440//233 441//234 442//235
f 443//236 442//235 441//234
f 442//235 443//236 444//237
f 445//238 444//237 443//236
f 444//237 445//238 446//239
f 447//240 446//239 445//238
f 446//239 447//240 448//241
f 449//242 448//241 447//240
f 448//241 449//242 450//243
f 451//244 450//243 449//242
f 450//243 451//244 452//245
f 453//246 452//245 451//244
f 452//245 453//246 454//247
f 455//248 454//247 453//246
f 454//247 455//248 456//249
f 457//250 456//249 455//248
f 456//249 457//250 458//251
f 459//252 458//251 457//250
f 458//251 459//252 460//253
f 461//254 460//253 459//252
f 460//253 461//254 462//255
f 463//256 462//255 461//254
f 462//255 463//256 464//185
f 465//257 461//254 466//258
f 461//254 465//257 463//256
f 467//259 466//258 468//260
f 466//258 467//259 465//257
f 469//261 467//259 468//260
f 467//259 469//261 470//262
f 471//263 470//262 469//261
f 470//262 471//263 472//264
f 473//265 472//264 471//263
f 472//264 473//265 474//161
f 475//266 476//267 477//266
f 476//267 475//266 478//267
f 479//268 189//22 480//269
f 189//22 479//268 187//20
f 481//270 187//20 479//268
f 187//20 481//270 191//24
f 482//271 191//24 481//270
f 191//24 482//271 193//26
f 483//272 193//26 482//271
f 193//26 483//272 195//28
f 202//35 195//28 483//272
f 195//28 202//35 197//30
f 204//37 483//272 484//273
f 483//272 204//37 202//35
f 206//39 484//273 485//274
f 484//273 206//39 204//37
f 208//41 485//274 486//275
f 485//274 208//41 206//39
f 210//43 486//275 487//276
f 486//275 210//43 208//41
f 212//45 487//276 488//277
f 487//276 212//45 210//43
f 214//47 488//277 489//278
f 488//277 214//47 212//45
f 216//49 489//278 490//279
f 489//278 216//49 214//47
f 218//51 490//279 491//280
f 490//279 218//51 216//49
f 220//53 491//280 492//281
f 491//280 220//53 218//51
f 222//55 492//281 493//282
f 492//281 222//55 220//53
f 224//57 493//282 494//283
f 493//282 224//57 222//55
f 226//59 494//283 495//284
f 494//283 226//59 224//57
f 228//61 495//284 496//285
f 495//284 228//61 226//59
f 230//63 496//285 497//286
f 496//285 230//63 228//61
f 498//287 230//63 497//286
f 230//63 498//287 231//64
f 499//288 231//64 498//287
f 231//64 499//288 233//66
f 500//289 233//66 499//288
f 233//66 500//289 235//68
f 501//290 235//68 500//289
f 235//68 501//290 237//70
f 502//291 237//70 501//290
f 237//70 502//291 239//72
f 503//292 239//72 502//291
f 239//72 503//292 241//74
f 504//293 241//74 503//292
f 241//74 504//293 243//76
f 505//294 243//76 504//293
f 243//76 505//294 245//78
f 506//295 245//78 505//294
f 245//78 506//295 247//80
f 254//87 247//80 506//295
f 247//80 254//87 249//82
f 256//89 506//295 507//296
f 506//295 256//89 254//87
f 256//89 508//297 258//91
f 508//297 256//89 507//296
f 258//91 260//93 148//17
f 260//93 258//91 508//297
f 260//93 509//298 259//92
f 509//298 260//93 510//299
f 262//94 511//300 261//94
f 511//300 262//94 512//300
f 264//96 513//301 263//95
f 513//301 264//96 514//302
f 80//10 515//303 265//97
f 515//303 80//10 263//95
f 265//97 516//304 267//99
f 516//304 265//97 515//303
f 517//305 267//99 516//304
f 267//99 517//305 269//101
f 414//207 269//101 517//305
f 269//101 414//207 271//103
f 518//306 317//135 519//307
f 317//135 518//306 315//133
f 520//308 519//307 521//309
f 519//307 520//308 518//306
f 518//306 520//308 522//140
f 523//310 281//109 280//109
f 281//109 523//310 524//310
f 281//109 524//310 525//311
f 281//109 525//311 526//311
f 281//109 526//311 527//310
f 281//109 527//310 528//310
f 529//312 530//313 531//314
f 530//313 529//312 532//315
f 530//313 532//315 533//181
f 411//205 532//315 529//312
f 532//315 411//205 410//204
f 534//316 287//111 286//110
f 288//112 287//111 291//114
f 292//115 291//114 535//317
f 295//117 292//115 535//317
f 299//120 295//117 536//318
f 303//123 299//120 536//318
f 306//125 303//123 537//319
f 306//125 537//319 310//128
f 309//127 310//128 312//130
f 311//129 312//130 314//132
f 538//320 521//309 539//321
f 521//309 538//320 520//308
f 540//322 539//321 541//323
f 539//321 540//322 538//320
f 538//320 540//322 542//145
f 543//324 541//323 544//325
f 541//323 543//324 540//322
f 545//326 543//324 544//325
f 543//324 545//326 546//150
f 546//150 545//326 547//327
f 545//326 548//328 547//327
f 548//328 545//326 549//329
f 550//330 548//328 549//329
f 548//328 550//330 551//331
f 550//330 552//332 551//331
f 552//332 550//330 553//333
f 554//334 552//332 553//333
f 552//332 554//334 555//335
f 556//159 555//335 554//334
f 555//335 556//159 557//159
f 558//5 559//5 560//5
f 559//5 558//5 561//5
f 562//336 563//160 564//160
f 563//160 562//336 565//337
f 566//338 565//337 562//336
f 565//337 566//338 567//339
f 566//338 568//340 567//339
f 568//340 566//338 569//341
f 570//342 568//340 569//341
f 568//340 570//342 571//343
f 572//344 571//343 570//342
f 571//343 572//344 573//345
f 574//346 573//345 572//344
f 573//345 574//346 575//171
f 575//171 574//346 576//347
f 577//348 576//347 574//346
f 576//347 577//348 578//349
f 579//350 578//349 577//348
f 578//349 579//350 580//351
f 578//349 580//351 581//176
f 531//314 580//351 579//350
f 580//351 531//314 530//313
f 394//189 393//188 395//190
f 396//191 395//190 397//192
f 398//193 397//192 582//352
f 398//193 582//352 399//194
f 399//194 583//353 401//196
f 401//196 583//353 402//197
f 402//197 404//199 403//198
f 407//202 406//201 404//199
f 584//354 408//203 407//202
f 584//354 585//355 408//203
f 416//209 517//305 586//356
f 517//305 416//209 414//207
f 418//211 586//356 587//357
f 586//356 418//211 416//209
f 420//213 587//357 588//358
f 587//357 420//213 418//211
f 422//215 588//358 589//359
f 588//358 422//215 420//213
f 424//217 589//359 590//360
f 589//359 424//217 422//215
f 426//219 590//360 591//361
f 590//360 426//219 424//217
f 428//221 591//361 592//362
f 591//361 428//221 426//219
f 430//223 592//362 593//363
f 592//362 430//223 428//221
f 432//225 593//363 594//364
f 593//363 432//225 430//223
f 595//365 432//225 594//364
f 432//225 595//365 433//226
f 596//366 433//226 595//365
f 433//226 596//366 435//228
f 597//367 435//228 596//366
f 435//228 597//367 437//230
f 598//368 437//230 597//367
f 437//230 598//368 439//232
f 599//369 439//232 598//368
f 439//232 599//369 441//234
f 600//370 441//234 599//369
f 441//234 600//370 443//236
f 601//371 443//236 600//370
f 443//236 601//371 445//238
f 602//372 445//238 601//371
f 445//238 602//372 447//240
f 603//373 447//240 602//372
f 447//240 603//373 449//242
f 604//374 449//242 603//373
f 449//242 604//374 451//244
f 605//375 451//244 604//374
f 451//244 605//375 453//246
f 606//376 453//246 605//375
f 453//246 606//376 455//248
f 607//377 455//248 606//376
f 455//248 607//377 457//250
f 608//378 457//250 607//377
f 457//250 608//378 459//252
f 466//258 459//252 608//378
f 459//252 466//258 461//254
f 468//260 608//378 609//379
f 608//378 468//260 466//258
f 610//380 468//260 609//379
f 468//260 610//380 469//261
f 611//381 469//261 610//380
f 469//261 611//381 471//263
f 612//382 471//263 611//381
f 471//263 612//382 473//265
f 613//383 477//266 614//383
f 477//266 613//383 475//266
f 615//384 480//269 616//385
f 480//269 615//384 479//268
f 617//386 479//268 615//384
f 479//268 617//386 481//270
f 618//387 481//270 617//386
f 481//270 618//387 482//271
f 484//273 482//271 618//387
f 482//271 484//273 483//272
f 485//274 618//387 619//388
f 618//387 485//274 484//273
f 486//275 619//388 620//389
f 619//388 486//275 485//274
f 487//276 620//389 621//390
f 620//389 487//276 486//275
f 488//277 621//390 622//391
f 621//390 488//277 487//276
f 489//278 622//391 623//392
f 622//391 489//278 488//277
f 490//279 623//392 624//393
f 623//392 490//279 489//278
f 491//280 624//393 625//394
f 624//393 491//280 490//279
f 492//281 625//394 626//395
f 625//394 492//281 491//280
f 493//282 626//395 627//396
f 626//395 493//282 492//281
f 494//283 627//396 628//397
f 627//396 494//283 493//282
f 495//284 628//397 629//398
f 628//397 495//284 494//283
f 496//285 629//398 630//399
f 629//398 496//285 495//284
f 497//286 630//399 631//400
f 630//399 497//286 496//285
f 632//401 497//286 631//400
f 497//286 632//401 498//287
f 633//402 498//287 632//401
f 498//287 633//402 499//288
f 634//403 499//288 633//402
f 499//288 634//403 500//289
f 635//404 500//289 634//403
f 500//289 635//404 501//290
f 636//405 501//290 635//404
f 501//290 636//405 502//291
f 637//406 502//291 636//405
f 502//291 637//406 503//292
f 638//407 503//292 637//406
f 503//292 638//407 504//293
f 639//408 504//293 638//407
f 504//293 639//408 505//294
f 507//296 505//294 639//408
f 505//294 507//296 506//295
f 507//296 640//409 508//297
f 640//409 507//296 639//408
f 508//297 510//299 260//93
f 510//299 508//297 640//409
f 510//299 641//410 509//298
f 641//410 510//299 642//411
f 512//300 643//412 511//300
f 643//412 512//300 644//412
f 514//302 645//413 513//301
f 645//413 514//302 646//414
f 263//95 647//415 515//303
f 647//415 263//95 513//301
f 515//303 648//416 516//304
f 648//416 515//303 647//415
f 586//356 516//304 648//416
f 516//304 586//356 517//305
f 649//417 287//111 534//316
f 650//418 651//419 652//420
f 652//420 287//111 649//417
f 653//421 526//311 525//311
f 526//311 653//421 654//421
f 526//311 654//421 655//422
f 526//311 655//422 656//422
f 526//311 656//422 657//421
f 526//311 657//421 658//421
f 584//354 659//423 660//424
f 661//425 662//426 659//423
f 584//354 660//424 585//355
f 663//427 651//419 650//418
f 664//428 665//429 666//430
f 666//430 651//419 663//427
f 667//431 665//429 664//428
f 668//432 656//422 655//422
f 656//422 668//432 669//432
f 656//422 669//432 670//432
f 656//422 670//432 671//432
f 656//422 671//432 672//432
f 656//422 672//432 673//432
f 656//422 673//432 674//432
f 656//422 674//432 675//432
f 656//422 675//432 676//432
f 656//422 676//432 677//432
f 656//422 677//432 678//432
f 656//422 678//432 679//432
f 680//433 681//434 682//434
f 681//434 680//433 683//434
f 683//434 680//433 684//434
f 684//434 680//433 685//434
f 685//434 680//433 686//434
f 686//434 680//433 687//435
f 687//435 665//429 667//431
f 688//434 689//436 690//434
f 689//436 688//434 691//434
f 689//436 691//434 692//434
f 689//436 692//434 693//434
f 689//436 693//434 694//434
f 689//436 694//434 695//437
f 696//438 695//437 697//439
f 696//438 697//439 698//440
f 661//425 699//441 700//442
f 696//438 698//440 699//441
f 661//425 700//442 662//426
f 587//357 648//416 701//443
f 648//416 587//357 586//356
f 588//358 701//443 702//444
f 701//443 588//358 587//357
f 589//359 702//444 703//445
f 702//444 589//359 588//358
f 590//360 703//445 704//446
f 703//445 590//360 589//359
f 591//361 704//446 705//447
f 704//446 591//361 590//360
f 592//362 705//447 706//448
f 705//447 592//362 591//361
f 593//363 706//448 707//449
f 706//448 593//363 592//362
f 594//364 707//449 708//450
f 707//449 594//364 593//363
f 709//451 594//364 708//450
f 594//364 709//451 595//365
f 710//452 595//365 709//451
f 595//365 710//452 596//366
f 711//453 596//366 710//452
f 596//366 711//453 597//367
f 712//454 597//367 711//453
f 597//367 712//454 598//368
f 713//455 598//368 712//454
f 598//368 713//455 599//369
f 714//456 599//369 713//455
f 599//369 714//456 600//370
f 715//457 600//370 714//456
f 600//370 715//457 601//371
f 716//458 601//371 715//457
f 601//371 716//458 602//372
f 717//459 602//372 716//458
f 602//372 717//459 603//373
f 718//460 603//373 717//459
f 603//373 718//460 604//374
f 719//461 604//374 718//460
f 604//374 719//461 605//375
f 720//462 605//375 719//461
f 605//375 720//462 606//376
f 721//463 606//376 720//462
f 606//376 721//463 607//377
f 609//379 607//377 721//463
f 607//377 609//379 608//378
f 722//464 609//379 721//463
f 609//379 722//464 610//380
f 723//465 610//380 722//464
f 610//380 723//465 611//381
f 724//466 611//381 723//465
f 611//381 724//466 612//382
f 725//467 614//383 726//467
f 614//383 725//467 613//383
f 727//468 616//385 728//469
f 616//385 727//468 615//384
f 729//470 615//384 727//468
f 615//384 729//470 617//386
f 619//388 617//386 729//470
f 617//386 619//388 618//387
f 620//389 729//470 730//471
f 729//470 620//389 619//388
f 621//390 730//471 731//472
f 730//471 621//390 620//389
f 622//391 731//472 732//473
f 731//472 622//391 621//390
f 623//392 732//473 733//474
f 732//473 623//392 622//391
f 624//393 733//474 734//475
f 733//474 624//393 623//392
f 625//394 734//475 735//476
f 734//475 625//394 624//393
f 625//394 736//477 626//395
f 736//477 625//394 735//476
f 626//395 737//478 627//396
f 737//478 626//395 736//477
f 627//396 738//479 628//397
f 738//479 627//396 737//478
f 628//397 739//480 629//398
f 739//480 628//397 738//479
f 629//398 740//481 630//399
f 740//481 629//398 739//480
f 630//399 741//482 631//400
f 741//482 630//399 740//481
f 632//401 741//482 742//483
f 741//482 632//401 631//400
f 633//402 742//483 743//484
f 742//483 633//402 632//401
f 634//403 743//484 744//485
f 743//484 634//403 633//402
f 635//404 744//485 745//486
f 744//485 635//404 634//403
f 636//405 745//486 746//487
f 745//486 636//405 635//404
f 747//488 636//405 746//487
f 636//405 747//488 637//406
f 638//407 747//488 748//489
f 747//488 638//407 637//406
f 639//408 748//489 640//409
f 748//489 639//408 638//407
f 640//409 642//411 510//299
f 642//411 640//409 748//489
f 642//411 749//490 641//410
f 749//490 642//411 750//491
f 644//412 751//492 643//412
f 751//492 644//412 752//492
f 646//414 753//493 645//413
f 753//493 646//414 754//494
f 513//301 755//495 647//415
f 755//495 513//301 645//413
f 647//415 701//443 648//416
f 701//443 647//415 755//495
f 652//420 651//419 287//111
f 661//425 659//423 584//354
f 666//430 665//429 651//419
f 687//435 680//433 665//429
f 689//436 695//437 696//438
f 696//438 699//441 661//425
f 755//495 702//444 701//443
f 702//444 755//495 756//496
f 703//445 756//496 757//497
f 756//496 703//445 702//444
f 758//498 703//445 757//497
f 703//445 758//498 704//446
f 759//499 704//446 758//498
f 704//446 759//499 705//447
f 760//500 705//447 759//499
f 705//447 760//500 706//448
f 761//501 706//448 760//500
f 706//448 761//501 707//449
f 762//502 707//449 761//501
f 707//449 762//502 708//450
f 762//502 709//451 708//450
f 709//451 762//502 763//503
f 763//503 710//452 709//451
f 710//452 763//503 764//504
f 764//504 711//453 710//452
f 711//453 764//504 765//505
f 765//505 712//454 711//453
f 712//454 765//505 766//506
f 766//506 713//455 712//454
f 713//455 766//506 767//507
f 767//507 714//456 713//455
f 714//456 767//507 768//508
f 769//509 714//456 768//508
f 714//456 769//509 715//457
f 770//510 715//457 769//509
f 715//457 770//510 716//458
f 770//510 717//459 716//458
f 717//459 770//510 771//511
f 771//511 718//460 717//459
f 718//460 771//511 772//512
f 772//512 719//461 718//460
f 719//461 772//512 773//513
f 773//513 720//462 719//461
f 720//462 773//513 774//514
f 774//514 721//463 720//462
f 721//463 774//514 722//464
f 775//515 722//464 774//514
f 722//464 775//515 723//465
f 776//516 723//465 775//515
f 723//465 776//516 724//466
f 777//517 726//467 778//517
f 726//467 777//517 725//467
f 779//518 728//469 780//519
f 728//469 779//518 727//468
f 730//471 727//468 779//518
f 727//468 730//471 729//470
f 731//472 779//518 781//520
f 779//518 731//472 730//471
f 732//473 781//520 782//521
f 781//520 732//473 731//472
f 733//474 782//521 783//522
f 782//521 733//474 732//473
f 734//475 783//522 784//523
f 783//522 734//475 733//474
f 734//475 785//524 735//476
f 785//524 734//475 784//523
f 735//476 786//525 736//477
f 786//525 735//476 785//524
f 736//477 787//526 737//478
f 787//526 736//477 786//525
f 737//478 788//527 738//479
f 788//527 737//478 787//526
f 738//479 789//528 739//480
f 789//528 738//479 788//527
f 739//480 790//529 740//481
f 790//529 739//480 789//528
f 740//481 791//530 741//482
f 791//530 740//481 790//529
f 742//483 791//530 792//531
f 791//530 742//483 741//482
f 743//484 792//531 793//532
f 792//531 743//484 742//483
f 744//485 793//532 794//533
f 793//532 744//485 743//484
f 745//486 794//533 795//534
f 794//533 745//486 744//485
f 746//487 795//534 796//535
f 795//534 746//487 745//486
f 747//488 796//535 750//491
f 796//535 747//488 746//487
f 748//489 750//491 642//411
f 750//491 748//489 747//488
f 750//491 797//536 749//490
f 797//536 750//491 796//535
f 798//537 751//492 752//492
f 751//492 798//537 799//537
f 754//494 800//538 753//493
f 800//538 754//494 801//539
f 645//413 756//496 755//495
f 756//496 645//413 753//493
f 753//493 757//497 756//496
f 757//497 753//493 800//538
f 802//540 757//497 800//538
f 757//497 802//540 758//498
f 803//541 758//498 802//540
f 758//498 803//541 759//499
f 804//542 759//499 803//541
f 759//499 804//542 760//500
f 805//543 760//500 804//542
f 760//500 805//543 761//501
f 806//544 761//501 805//543
f 761//501 806//544 762//502
f 806//544 763//503 762//502
f 763//503 806//544 807//545
f 807//545 764//504 763//503
f 764//504 807//545 808//546
f 808//546 765//505 764//504
f 765//505 808//546 809//547
f 809//547 766//506 765//505
f 766//506 809//547 810//548
f 810//548 767//507 766//506
f 767//507 810//548 811//549
f 811//549 768//508 767//507
f 768//508 811//549 812//550
f 812//550 769//509 768//508
f 769//509 812//550 813//551
f 813//551 770//510 769//509
f 770//510 813//551 814//552
f 814//552 771//511 770//510
f 771//511 814//552 815//553
f 815//553 772//512 771//511
f 772//512 815//553 816//554
f 816//554 773//513 772//512
f 773//513 816//554 817//555
f 817//555 774//514 773//513
f 774//514 817//555 775//515
f 818//556 775//515 817//555
f 775//515 818//556 776//516
f 819//557 778//517 820//557
f 778//517 819//557 777//517
f 781//520 780//519 821//558
f 780//519 781//520 779//518
f 782//521 821//558 822//559
f 821//558 782//521 781//520
f 783//522 822//559 823//560
f 822//559 783//522 782//521
f 784//523 823//560 824//561
f 823//560 784//523 783//522
f 784//523 825//562 785//524
f 825//562 784//523 824//561
f 785//524 826//563 786//525
f 826//563 785//524 825//562
f 786//525 827//564 787//526
f 827//564 786//525 826//563
f 787//526 828//565 788//527
f 828//565 787//526 827//564
f 788//527 829//566 789//528
f 829//566 788//527 828//565
f 789//528 830//567 790//529
f 830//567 789//528 829//566
f 790//529 831//568 791//530
f 831//568 790//529 830//567
f 792//531 831//568 832//569
f 831//568 792//531 791//530
f 793//532 832//569 833//570
f 832//569 793//532 792//531
f 794//533 833//570 834//571
f 833//570 794//533 793//532
f 795//534 834//571 835//572
f 834//571 795//534 794//533
f 796//535 835//572 797//536
f 835//572 796//535 795//534
f 836//573 799//537 798//537
f 799//537 836//573 837//573
f 838//574 800//538 801//539
f 800//538 838//574 802//540
f 839//575 802//540 838//574
f 802//540 839//575 803//541
f 840//576 803//541 839//575
f 803//541 840//576 804//542
f 841//577 804//542 840//576
f 804//542 841//577 805//543
f 842//578 805//543 841//577
f 805//543 842//578 806//544
f 842//578 807//545 806//544
f 807//545 842//578 843//579
f 843//579 808//546 807//545
f 808//546 843//579 844//580
f 844//580 809//547 808//546
f 809//547 844//580 845//581
f 845//581 810//548 809//547
f 810//548 845//581 846//582
f 846//582 811//549 810//548
f 811//549 846//582 847//583
f 847//583 812//550 811//549
f 812//550 847//583 848//584
f 848//584 813//551 812//550
f 813//551 848//584 849//585
f 849//585 814//552 813//551
f 814//552 849//585 850//586
f 850//586 815//553 814//552
f 815//553 850//586 851//587
f 851//587 816//554 815//553
f 816//554 851//587 852//588
f 852//588 817//555 816//554
f 817//555 852//588 818//556
f 853//589 820//557 854//589
f 820//557 853//589 819//557
f 855//590 854//589 856//590
f 854//589 855//590 853//589
f 857//591 856//590 858//591
f 856//590 857//591 855//590
f 857//591 859//592 860//592
f 859//592 857//591 858//591
f 860//592 861//593 862//593
f 861//593 860//592 859//592
f 862//593 863//594 864//594
f 863//594 862//593 861//593
f 864//594 865//595 866//595
f 865//595 864//594 863//594
f 866//595 867//596 868//596
f 867//596 866//595 865//595
f 868//596 869//597 870//597
f 869//597 868//596 867//596
f 870//597 871//598 872//598
f 871//598 870//597 869//597
f 872//598 873//599 874//599
f 873//599 872//598 871//598
f 874//599 875//600 876//600
f 875//600 874//599 873//599
f 876//600 837//573 836//573
f 837//573 876//600 875//600
