# SSTK version 0.8.0
# 34
mtllib original-34.mtl
o #ID284
v 0.251901 0.457372 0.463589
v 0.244369 0.457372 0.463589
v 0.248135 0.456876 0.463775
v 0.255420 0.458830 0.463041
v 0.240851 0.458830 0.463041
v 0.237816 0.461158 0.462168
v 0.258455 0.461158 0.462168
v 0.260795 0.464208 0.461022
v 0.236648 0.462681 0.461595
v 0.235476 0.464208 0.461022
v 0.234000 0.467772 0.459684
v 0.262271 0.467772 0.459684
v 0.262776 0.471606 0.458244
v 0.233495 0.471606 0.458244
v 0.262271 0.475439 0.456805
v 0.234000 0.475439 0.456805
v 0.235476 0.479003 0.455467
v 0.260795 0.479003 0.455467
v 0.237816 0.482052 0.454321
v 0.258455 0.482052 0.454321
v 0.255420 0.484381 0.453447
v 0.240851 0.484381 0.453447
v 0.244369 0.485839 0.452899
v 0.251901 0.485839 0.452899
v 0.248135 0.486335 0.452714
v 0.248135 0.486335 0.452714
v 0.251901 0.485839 0.452899
v 0.244369 0.485839 0.452899
v 0.255420 0.484381 0.453447
v 0.240851 0.484381 0.453447
v 0.237816 0.482052 0.454321
v 0.258455 0.482052 0.454321
v 0.260795 0.479003 0.455467
v 0.235476 0.479003 0.455467
v 0.262271 0.475439 0.456805
v 0.234000 0.475439 0.456805
v 0.233495 0.471606 0.458244
v 0.262776 0.471606 0.458244
v 0.234000 0.467772 0.459684
v 0.262271 0.467772 0.459684
v 0.260795 0.464208 0.461022
v 0.235476 0.464208 0.461022
v 0.236648 0.462681 0.461595
v 0.237816 0.461158 0.462168
v 0.258455 0.461158 0.462168
v 0.255420 0.458830 0.463041
v 0.240851 0.458830 0.463041
v 0.244369 0.457372 0.463589
v 0.251901 0.457372 0.463589
v 0.248135 0.456876 0.463775
vn 0 0.3515416202868696 0.9361722540249108
vn 0 -0.3515416202868696 -0.9361722540249108
usemtl material_0_0
f 1//1 2//1 3//1
f 2//1 1//1 4//1
f 2//1 4//1 5//1
f 5//1 4//1 6//1
f 6//1 4//1 7//1
f 6//1 7//1 8//1
f 6//1 8//1 9//1
f 9//1 8//1 10//1
f 10//1 8//1 11//1
f 11//1 8//1 12//1
f 11//1 12//1 13//1
f 11//1 13//1 14//1
f 14//1 13//1 15//1
f 14//1 15//1 16//1
f 16//1 15//1 17//1
f 17//1 15//1 18//1
f 17//1 18//1 19//1
f 19//1 18//1 20//1
f 19//1 20//1 21//1
f 19//1 21//1 22//1
f 22//1 21//1 23//1
f 23//1 21//1 24//1
f 23//1 24//1 25//1
f 26//2 27//2 28//2
f 27//2 29//2 28//2
f 28//2 29//2 30//2
f 30//2 29//2 31//2
f 29//2 32//2 31//2
f 32//2 33//2 31//2
f 31//2 33//2 34//2
f 33//2 35//2 34//2
f 34//2 35//2 36//2
f 36//2 35//2 37//2
f 35//2 38//2 37//2
f 37//2 38//2 39//2
f 38//2 40//2 39//2
f 40//2 41//2 39//2
f 39//2 41//2 42//2
f 42//2 41//2 43//2
f 43//2 41//2 44//2
f 41//2 45//2 44//2
f 45//2 46//2 44//2
f 44//2 46//2 47//2
f 47//2 46//2 48//2
f 46//2 49//2 48//2
f 50//2 48//2 49//2
