# SSTK version 0.8.0
# 95
mtllib original-95.mtl
o #ID705
v -0.397787 -0.013741 0.567611
v -0.484170 0.078802 0.559623
v -0.484170 -0.013741 0.567611
v -0.395399 0.024216 0.564335
v -0.386143 0.072736 0.560147
v -0.384172 0.078802 0.559623
v -0.384172 0.078802 0.559623
v -0.386143 0.072736 0.560147
v -0.484170 0.078802 0.559623
v -0.395399 0.024216 0.564335
v -0.397787 -0.013741 0.567611
v -0.484170 -0.013741 0.567611
v -0.395399 -0.074380 0.569351
v -0.484170 -0.106590 0.570277
v -0.389254 -0.106590 0.570277
v -0.398500 -0.025082 0.567937
v -0.398500 -0.025082 0.567937
v -0.395399 -0.074380 0.569351
v -0.484170 -0.106590 0.570277
v -0.389254 -0.106590 0.570277
v -0.370879 0.119713 0.553713
v -0.484170 0.170734 0.546341
v -0.349847 0.164407 0.547255
v -0.345833 0.170734 0.546341
v -0.345833 0.170734 0.546341
v -0.349847 0.164407 0.547255
v -0.484170 0.170734 0.546341
v -0.370879 0.119713 0.553713
v -0.370879 -0.169878 0.568459
v -0.484170 -0.199438 0.567611
v -0.356969 -0.199438 0.567611
v -0.386143 -0.122900 0.569809
v -0.386143 -0.122900 0.569809
v -0.370879 -0.169878 0.568459
v -0.484170 -0.199438 0.567611
v -0.356969 -0.199438 0.567611
v -0.484170 0.261752 0.527806
v -0.323380 0.206113 0.539137
v -0.291895 0.244173 0.531386
v -0.273174 0.261752 0.527806
v -0.273174 0.261752 0.527806
v -0.291895 0.244173 0.531386
v -0.484170 0.261752 0.527806
v -0.323380 0.206113 0.539137
v -0.323380 -0.256277 0.562706
v -0.484170 -0.291981 0.559623
v -0.293844 -0.291981 0.559623
v -0.349847 -0.214572 0.566305
v -0.349847 -0.214572 0.566305
v -0.323380 -0.256277 0.562706
v -0.484170 -0.291981 0.559623
v -0.293844 -0.291981 0.559623
v -0.255887 0.277986 0.523518
v -0.484170 0.351558 0.504081
v -0.215926 0.307020 0.515847
v -0.172640 0.330816 0.509560
v -0.126714 0.349000 0.504756
v -0.116749 0.351558 0.504081
v -0.116749 0.351558 0.504081
v -0.126714 0.349000 0.504756
v -0.484170 0.351558 0.504081
v -0.172640 0.330816 0.509560
v -0.215926 0.307020 0.515847
v -0.255887 0.277986 0.523518
v -0.172640 -0.380980 0.546765
v -0.354903 -0.383913 0.546341
v -0.165232 -0.383913 0.546341
v -0.365616 -0.381407 0.546703
v -0.389258 -0.376833 0.547363
v -0.215926 -0.357184 0.550203
v -0.412941 -0.373208 0.547887
v -0.436657 -0.370531 0.548275
v -0.460394 -0.368805 0.548525
v -0.480179 -0.368159 0.548618
v -0.484170 -0.368159 0.548618
v -0.255887 -0.328150 0.554397
v -0.291895 -0.294337 0.559283
v -0.291895 -0.294337 0.559283
v -0.255887 -0.328150 0.554397
v -0.215926 -0.357184 0.550203
v -0.480179 -0.368159 0.548618
v -0.484170 -0.368159 0.548618
v -0.460394 -0.368805 0.548525
v -0.436657 -0.370531 0.548275
v -0.412941 -0.373208 0.547887
v -0.389258 -0.376833 0.547363
v -0.172640 -0.380980 0.546765
v -0.365616 -0.381407 0.546703
v -0.354903 -0.383913 0.546341
v -0.165232 -0.383913 0.546341
v 0.005267 0.439855 0.475242
v -0.029865 0.367475 0.498882
v 0.005267 0.367475 0.498882
v -0.365616 0.395684 0.489669
v -0.389258 0.392943 0.490564
v -0.412941 0.390771 0.491274
v -0.436657 0.389167 0.491798
v -0.460394 0.388133 0.492136
v -0.480179 0.387745 0.492262
v -0.484170 0.387745 0.492262
v -0.342025 0.398991 0.488588
v -0.318496 0.402864 0.487324
v -0.295036 0.407301 0.485875
v -0.271656 0.412299 0.484242
v -0.248366 0.417858 0.482427
v -0.225175 0.423974 0.480430
v -0.202134 0.430634 0.478255
v -0.185148 0.435511 0.476662
v -0.168318 0.439855 0.475242
v -0.078870 0.361284 0.500904
v -0.029865 0.367475 0.498882
v -0.078870 0.361284 0.500904
v -0.484170 0.387745 0.492262
v -0.168318 0.439855 0.475242
v 0.005267 0.439855 0.475242
v -0.185148 0.435511 0.476662
v -0.202134 0.430634 0.478255
v -0.225175 0.423974 0.480430
v -0.248366 0.417858 0.482427
v -0.271656 0.412299 0.484242
v -0.295036 0.407301 0.485875
v -0.318496 0.402864 0.487324
v -0.342025 0.398991 0.488588
v -0.365616 0.395684 0.489669
v -0.480179 0.387745 0.492262
v -0.460394 0.388133 0.492136
v -0.436657 0.389167 0.491798
v -0.412941 0.390771 0.491274
v -0.389258 0.392943 0.490564
v 0.005267 0.367475 0.498882
v 0.005267 -0.474932 0.527806
v -0.116565 -0.472493 0.528302
v -0.106459 -0.474932 0.527806
v 0.005267 -0.417639 0.539474
v -0.133814 -0.467523 0.529315
v -0.151000 -0.461760 0.530488
v -0.168115 -0.455209 0.531823
v -0.185148 -0.447871 0.533317
v -0.202134 -0.439732 0.534974
v -0.225175 -0.428618 0.537237
v -0.248366 -0.418411 0.539316
v -0.029865 -0.417639 0.539474
v -0.271656 -0.409135 0.541205
v -0.078870 -0.411448 0.540734
v -0.126714 -0.399164 0.543236
v -0.295036 -0.400793 0.542904
v -0.318496 -0.393389 0.544411
v -0.342025 -0.386926 0.545727
v -0.342025 -0.386926 0.545727
v -0.318496 -0.393389 0.544411
v -0.126714 -0.399164 0.543236
v -0.295036 -0.400793 0.542904
v -0.271656 -0.409135 0.541205
v -0.078870 -0.411448 0.540734
v -0.029865 -0.417639 0.539474
v -0.248366 -0.418411 0.539316
v 0.005267 -0.417639 0.539474
v -0.225175 -0.428618 0.537237
v -0.202134 -0.439732 0.534974
v -0.185148 -0.447871 0.533317
v -0.168115 -0.455209 0.531823
v -0.151000 -0.461760 0.530488
v -0.133814 -0.467523 0.529315
v -0.116565 -0.472493 0.528302
v 0.005267 -0.474932 0.527806
v -0.106459 -0.474932 0.527806
v 0.494704 0.387745 0.492262
v 0.106414 0.351558 0.504081
v 0.494704 0.351558 0.504081
v 0.068536 0.361284 0.500904
v 0.019530 0.367475 0.498882
v 0.005267 0.367475 0.498882
v 0.490713 0.387745 0.492262
v 0.470928 0.388133 0.492136
v 0.447190 0.389167 0.491798
v 0.423475 0.390771 0.491274
v 0.399792 0.392943 0.490564
v 0.376150 0.395684 0.489669
v 0.352559 0.398991 0.488588
v 0.329029 0.402864 0.487324
v 0.305570 0.407301 0.485875
v 0.282190 0.412299 0.484242
v 0.258900 0.417858 0.482427
v 0.235708 0.423974 0.480430
v 0.212667 0.430634 0.478255
v 0.195682 0.435511 0.476662
v 0.178851 0.439855 0.475242
v 0.178851 0.439855 0.475242
v 0.195682 0.435511 0.476662
v 0.212667 0.430634 0.478255
v 0.235708 0.423974 0.480430
v 0.258900 0.417858 0.482427
v 0.282190 0.412299 0.484242
v 0.305570 0.407301 0.485875
v 0.329029 0.402864 0.487324
v 0.352559 0.398991 0.488588
v 0.376150 0.395684 0.489669
v 0.005267 0.367475 0.498882
v 0.399792 0.392943 0.490564
v 0.423475 0.390771 0.491274
v 0.447190 0.389167 0.491798
v 0.470928 0.388133 0.492136
v 0.490713 0.387745 0.492262
v 0.494704 0.387745 0.492262
v 0.019530 0.367475 0.498882
v 0.068536 0.361284 0.500904
v 0.106414 0.351558 0.504081
v 0.494704 0.351558 0.504081
v -0.168115 0.439907 0.475223
v 0.005267 0.457803 0.468503
v -0.151000 0.443833 0.473749
v -0.133814 0.447286 0.472452
v -0.116565 0.450265 0.471334
v -0.099263 0.452767 0.470394
v -0.081917 0.454791 0.469634
v -0.064536 0.456337 0.469053
v -0.047129 0.457403 0.468654
v 0.001275 0.457803 0.468503
v -0.029707 0.457989 0.468433
v -0.012278 0.458094 0.468394
v -0.012278 0.458094 0.468394
v 0.001275 0.457803 0.468503
v -0.029707 0.457989 0.468433
v -0.047129 0.457403 0.468654
v 0.005267 0.457803 0.468503
v -0.064536 0.456337 0.469053
v -0.081917 0.454791 0.469634
v -0.099263 0.452767 0.470394
v -0.116565 0.450265 0.471334
v -0.133814 0.447286 0.472452
v -0.151000 0.443833 0.473749
v -0.168115 0.439907 0.475223
v 0.127099 -0.472493 0.528302
v 0.116993 -0.474932 0.527806
v 0.005267 -0.417639 0.539474
v 0.144348 -0.467523 0.529315
v 0.161534 -0.461760 0.530488
v 0.178648 -0.455209 0.531823
v 0.195682 -0.447871 0.533317
v 0.212667 -0.439732 0.534974
v 0.235708 -0.428618 0.537237
v 0.258900 -0.418411 0.539316
v 0.019530 -0.417639 0.539474
v 0.282190 -0.409135 0.541205
v 0.068536 -0.411448 0.540734
v 0.116379 -0.399164 0.543236
v 0.305570 -0.400793 0.542904
v 0.329029 -0.393389 0.544411
v 0.154898 -0.383913 0.546341
v 0.352559 -0.386926 0.545727
v 0.365437 -0.383913 0.546341
v 0.365437 -0.383913 0.546341
v 0.352559 -0.386926 0.545727
v 0.154898 -0.383913 0.546341
v 0.329029 -0.393389 0.544411
v 0.116379 -0.399164 0.543236
v 0.305570 -0.400793 0.542904
v 0.282190 -0.409135 0.541205
v 0.068536 -0.411448 0.540734
v 0.019530 -0.417639 0.539474
v 0.258900 -0.418411 0.539316
v 0.005267 -0.417639 0.539474
v 0.235708 -0.428618 0.537237
v 0.212667 -0.439732 0.534974
v 0.195682 -0.447871 0.533317
v 0.178648 -0.455209 0.531823
v 0.161534 -0.461760 0.530488
v 0.144348 -0.467523 0.529315
v 0.127099 -0.472493 0.528302
v 0.116993 -0.474932 0.527806
v -0.012278 -0.485560 0.524999
v 0.005267 -0.485560 0.524999
v -0.029707 -0.485384 0.525045
v -0.047129 -0.484406 0.525303
v -0.064536 -0.482627 0.525774
v -0.081917 -0.480047 0.526455
v -0.099263 -0.476669 0.527348
v -0.099263 -0.476669 0.527348
v -0.081917 -0.480047 0.526455
v -0.064536 -0.482627 0.525774
v -0.047129 -0.484406 0.525303
v -0.029707 -0.485384 0.525045
v -0.012278 -0.485560 0.524999
v 0.005267 -0.485560 0.524999
v 0.262840 0.261752 0.527806
v 0.494704 0.261752 0.527806
v 0.245553 0.277986 0.523518
v 0.205591 0.307020 0.515847
v 0.162306 0.330816 0.509560
v 0.116379 0.349000 0.504756
v 0.116379 0.349000 0.504756
v 0.162306 0.330816 0.509560
v 0.205591 0.307020 0.515847
v 0.245553 0.277986 0.523518
v 0.262840 0.261752 0.527806
v 0.494704 0.261752 0.527806
v 0.178648 0.439907 0.475223
v 0.005267 0.457803 0.468503
v 0.161534 0.443833 0.473749
v 0.144348 0.447286 0.472452
v 0.127099 0.450265 0.471334
v 0.109797 0.452767 0.470394
v 0.092450 0.454791 0.469634
v 0.075069 0.456337 0.469053
v 0.057663 0.457403 0.468654
v 0.009258 0.457803 0.468503
v 0.040241 0.457989 0.468433
v 0.022812 0.458094 0.468394
v 0.022812 0.458094 0.468394
v 0.040241 0.457989 0.468433
v 0.009258 0.457803 0.468503
v 0.057663 0.457403 0.468654
v 0.005267 0.457803 0.468503
v 0.075069 0.456337 0.469053
v 0.092450 0.454791 0.469634
v 0.109797 0.452767 0.470394
v 0.127099 0.450265 0.471334
v 0.144348 0.447286 0.472452
v 0.161534 0.443833 0.473749
v 0.178648 0.439907 0.475223
v 0.494704 -0.291981 0.559623
v 0.490713 -0.368159 0.548618
v 0.494704 -0.368159 0.548618
v 0.205591 -0.357184 0.550203
v 0.245553 -0.328150 0.554397
v 0.281560 -0.294337 0.559283
v 0.283509 -0.291981 0.559623
v 0.376150 -0.381407 0.546703
v 0.162306 -0.380980 0.546765
v 0.399792 -0.376833 0.547363
v 0.423475 -0.373208 0.547887
v 0.447190 -0.370531 0.548275
v 0.470928 -0.368805 0.548525
v 0.490713 -0.368159 0.548618
v 0.470928 -0.368805 0.548525
v 0.205591 -0.357184 0.550203
v 0.447190 -0.370531 0.548275
v 0.423475 -0.373208 0.547887
v 0.399792 -0.376833 0.547363
v 0.162306 -0.380980 0.546765
v 0.376150 -0.381407 0.546703
v 0.283509 -0.291981 0.559623
v 0.494704 -0.291981 0.559623
v 0.281560 -0.294337 0.559283
v 0.245553 -0.328150 0.554397
v 0.494704 -0.368159 0.548618
v 0.040241 -0.485384 0.525045
v 0.005267 -0.485560 0.524999
v 0.022812 -0.485560 0.524999
v 0.057663 -0.484406 0.525303
v 0.075069 -0.482627 0.525774
v 0.092450 -0.480047 0.526455
v 0.109797 -0.476669 0.527348
v 0.109797 -0.476669 0.527348
v 0.092450 -0.480047 0.526455
v 0.075069 -0.482627 0.525774
v 0.057663 -0.484406 0.525303
v 0.040241 -0.485384 0.525045
v 0.005267 -0.485560 0.524999
v 0.022812 -0.485560 0.524999
v 0.494704 0.170734 0.546341
v 0.313046 0.206113 0.539137
v 0.335498 0.170734 0.546341
v 0.281560 0.244173 0.531386
v 0.281560 0.244173 0.531386
v 0.313046 0.206113 0.539137
v 0.494704 0.170734 0.546341
v 0.335498 0.170734 0.546341
v 0.494704 -0.199438 0.567611
v 0.313046 -0.256277 0.562706
v 0.339513 -0.214572 0.566305
v 0.346634 -0.199438 0.567611
v 0.346634 -0.199438 0.567611
v 0.494704 -0.199438 0.567611
v 0.339513 -0.214572 0.566305
v 0.313046 -0.256277 0.562706
v 0.494704 0.078802 0.559623
v 0.360544 0.119713 0.553713
v 0.373837 0.078802 0.559623
v 0.339513 0.164407 0.547255
v 0.339513 0.164407 0.547255
v 0.360544 0.119713 0.553713
v 0.494704 0.078802 0.559623
v 0.373837 0.078802 0.559623
v 0.494704 -0.106590 0.570277
v 0.360544 -0.169878 0.568459
v 0.375808 -0.122900 0.569809
v 0.378920 -0.106590 0.570277
v 0.378920 -0.106590 0.570277
v 0.494704 -0.106590 0.570277
v 0.375808 -0.122900 0.569809
v 0.360544 -0.169878 0.568459
v 0.387452 -0.013741 0.567611
v 0.494704 -0.013741 0.567611
v 0.385064 0.024216 0.564335
v 0.375808 0.072736 0.560147
v 0.375808 0.072736 0.560147
v 0.385064 0.024216 0.564335
v 0.387452 -0.013741 0.567611
v 0.494704 -0.013741 0.567611
v 0.385064 -0.074380 0.569351
v 0.388166 -0.025082 0.567937
v 0.388166 -0.025082 0.567937
v 0.385064 -0.074380 0.569351
vt 2.658711 12.99465
vt 1.749733 14.50251
vt 1.749733 12.99465
vt 2.683839 13.61311
vt 2.781233 14.40368
vt 2.801972 14.50251
vt 2.683839 10.27486
vt 1.749733 9.751765
vt 2.748494 9.751765
vt 1.749733 11.25962
vt 2.651203 11.07545
vt 2.658711 11.25962
vt 2.941849 16.86329
vt 1.749733 16.19226
vt 2.801972 16.19226
vt 1.749733 17.70012
vt 3.163154 17.59636
vt 3.205399 17.70012
vt 2.941849 6.954342
vt 1.749733 6.474276
vt 3.08822 6.474276
vt 1.749733 7.982135
vt 2.781233 7.717257
vt 2.748494 7.982135
vt 3.205399 19.33406
vt 1.749733 20.84192
vt 1.749733 19.33406
vt 3.441657 19.92017
vt 3.772967 20.55068
vt 3.969955 20.84192
vt 3.441657 3.754724
vt 1.749733 3.17298
vt 3.752459 3.17298
vt 1.749733 4.68084
vt 3.163154 4.434263
vt 3.08822 4.68084
vt 4.151858 22.68226
vt 1.749733 22.40969
vt 3.969955 22.40969
vt 1.749733 23.91755
vt 4.572356 23.16974
vt 5.027828 23.56929
vt 5.511092 23.87459
vt 5.615948 23.91755
vt 5.027828 -0.09314301
vt 3.109958 -0.1412489
vt 5.105777 -0.1412489
vt 2.997228 -0.1001382
vt 2.748456 -0.02512448
vt 4.572356 0.2971607
vt 2.499245 0.03434521
vt 2.249698 0.07824674
vt 1.999916 0.1065623
vt 1.791733 0.1171565
vt 1.749733 1.366611
vt 1.749733 0.1171565
vt 4.151858 0.7733684
vt 3.772967 1.32797
vt 3.752459 1.366611
vt 6.899867 26.9169
vt 6.530191 25.68085
vt 6.899867 25.68085
vt 2.997228 26.16259
vt 2.748456 26.11578
vt 2.499245 26.07868
vt 2.249698 26.05129
vt 1.999916 26.03363
vt 1.791733 26.02702
vt 1.749733 26.02702
vt 3.245462 26.21906
vt 3.493057 26.2852
vt 3.739911 26.36096
vt 3.985924 26.44632
vt 4.230997 26.54125
vt 4.47503 26.6457
vt 4.717481 26.75942
vt 4.896212 26.84271
vt 5.073314 26.9169
vt 5.615948 25.40904
vt 1.749733 25.40904
vt 6.014526 25.57512
vt 6.899867 -3.457496
vt 5.617883 -3.417094
vt 5.72422 -3.457496
vt 6.899867 -2.508349
vt 5.436381 -3.334752
vt 5.255537 -3.239286
vt 5.075449 -3.130746
vt 4.896212 -3.009192
vt 4.717481 -2.874355
vt 4.47503 -2.690242
vt 4.230997 -2.521145
vt 6.530191 -2.508349
vt 3.985924 -2.367467
vt 6.014526 -2.405788
vt 5.511092 -2.202285
vt 3.739911 -2.229272
vt 3.493057 -2.106616
vt 5.105777 -1.949636
vt 3.245462 -1.999548
vt 3.109958 -1.949636
vt 12.05 26.02702
vt 7.964199 25.40904
vt 12.05 25.40904
vt 7.56562 25.57512
vt 7.049955 25.68085
vt 12.008 26.02702
vt 11.79982 26.03363
vt 11.55004 26.05129
vt 11.30049 26.07868
vt 11.05128 26.11578
vt 10.80251 26.16259
vt 10.55427 26.21906
vt 10.30668 26.2852
vt 10.05982 26.36096
vt 9.813809 26.44632
vt 9.568736 26.54125
vt 9.324703 26.6457
vt 9.082252 26.75942
vt 8.903521 26.84271
vt 8.72642 26.9169
vt 6.899867 27.99117
vt 5.075449 27.99208
vt 5.073314 27.99117
vt 6.899867 28.30239
vt 5.255537 28.06016
vt 5.436381 28.12003
vt 5.617883 28.17168
vt 5.799946 28.21506
vt 5.982472 28.25017
vt 6.165364 28.27697
vt 6.348523 28.29546
vt 6.857867 28.30239
vt 6.531851 28.30562
vt 6.71525 28.30745
vt 8.18185 -3.417094
vt 8.075514 -3.457496
vt 8.363352 -3.334752
vt 8.544196 -3.239286
vt 8.724285 -3.130746
vt 8.903521 -3.009192
vt 9.082252 -2.874355
vt 9.324703 -2.690242
vt 9.568736 -2.521145
vt 7.049955 -2.508349
vt 9.813809 -2.367467
vt 7.56562 -2.405788
vt 8.069055 -2.202285
vt 10.05982 -2.229272
vt 10.30668 -2.106616
vt 8.47437 -1.949636
vt 10.55427 -1.999548
vt 10.68978 -1.949636
vt 6.899867 -5.256979
vt 6.71525 -5.435422
vt 6.899867 -5.435422
vt 6.531851 -5.432465
vt 6.348523 -5.416046
vt 6.165364 -5.386173
vt 5.982472 -5.342863
vt 5.799946 -5.286139
vt 5.72422 -5.256979
vt 12.05 23.91755
vt 9.610192 22.40969
vt 12.05 22.40969
vt 9.428289 22.68226
vt 9.007791 23.16974
vt 8.552319 23.56929
vt 8.069055 23.87459
vt 7.964199 23.91755
vt 8.724285 27.99208
vt 8.72642 27.99117
vt 8.544196 28.06016
vt 8.363352 28.12003
vt 8.18185 28.17168
vt 7.999787 28.21506
vt 7.817261 28.25017
vt 7.634369 28.27697
vt 7.45121 28.29546
vt 6.941867 28.30239
vt 7.267882 28.30562
vt 7.084483 28.30745
vt 12.05 1.366611
vt 12.008 0.1171565
vt 12.05 0.1171565
vt 9.007791 0.2971607
vt 9.428289 0.7733684
vt 9.80718 1.32797
vt 9.827688 1.366611
vt 10.80251 -0.1001382
vt 8.47437 -0.1412489
vt 10.68978 -0.1412489
vt 8.552319 -0.09314301
vt 11.05128 -0.02512448
vt 11.30049 0.03434521
vt 11.55004 0.07824674
vt 11.79982 0.1065623
vt 7.267882 -5.432465
vt 7.084483 -5.435422
vt 7.45121 -5.416046
vt 7.634369 -5.386173
vt 7.817261 -5.342863
vt 7.999787 -5.286139
vt 8.075514 -5.256979
vt 12.05 19.33406
vt 10.13849 19.92017
vt 10.37475 19.33406
vt 12.05 20.84192
vt 9.80718 20.55068
vt 9.610192 20.84192
vt 12.05 4.68084
vt 9.827688 3.17298
vt 12.05 3.17298
vt 10.13849 3.754724
vt 10.41699 4.434263
vt 10.49193 4.68084
vt 12.05 16.19226
vt 10.6383 16.86329
vt 10.77817 16.19226
vt 12.05 17.70012
vt 10.41699 17.59636
vt 10.37475 17.70012
vt 12.05 7.982135
vt 10.49193 6.474276
vt 12.05 6.474276
vt 10.6383 6.954342
vt 10.79891 7.717257
vt 10.83165 7.982135
vt 12.05 14.50251
vt 10.92144 12.99465
vt 12.05 12.99465
vt 10.89631 13.61311
vt 10.79891 14.40368
vt 10.77817 14.50251
vt 12.05 11.25962
vt 10.83165 9.751765
vt 12.05 9.751765
vt 10.89631 10.27486
vt 10.92894 11.07545
vt 10.92144 11.25962
vn 0 0.058509477251181295 0.9982868530997459
vn 0 0.1145419020437612 0.9934184177254805
vn 0 0.0573654327389318 0.9983532476667141
vn 0 0.08598907824778074 0.9962960796982477
vn 0 0.12020960407604246 0.9927485336619144
vn 0 0.028694530780043952 0.9995882271732263
vn 0 0 1
vn 0 -0.003443356902308332 0.9999940716290487
vn 0 0.1430004043364213 0.9897226300128839
vn 0 0.1713411916319806 0.9852117518838946
vn 0 0.181403201007905 0.9834088054639768
vn 0 -0.02869453078004439 0.999588227173226
vn 0 -0.05736543273893223 0.9983532476667138
vn 0 -0.06537662737334236 0.9978606599086303
vn 0 0.22757609964187467 0.9737602984676422
vn 0 0.1995408036840329 0.9798895180912645
vn 0 0.2418759925323399 0.9703071700428147
vn 0 -0.08598907824778115 0.9962960796982475
vn 0 -0.11454190204376165 0.9934184177254805
vn 0 -0.1270298985191352 0.9918988884368296
vn 0 0.25542400914637486 0.9668291346207937
vn 0 0.2830614893079906 0.9591017637720944
vn 0 0.30595020502732917 0.9520475156439069
vn 0 -0.14300040433642175 0.9897226300128839
vn 0 -0.14723230598154097 0.9891019401838
vn 0 -0.19271840091874956 0.9812541046779474
vn 0 0.3310822051581861 0.9436019147011059
vn 0 0.31046590516878214 0.9505845158257781
vn 0 0.3140023966937744 0.9494221900032491
vn 0 -0.22757609964187508 0.973760298467642
vn 0 -0.1995408036840333 0.9798895180912642
vn 0 -0.20391169684840427 0.9789892848690452
vn 0 0.3515416202868696 0.9361722540249108
vn 0 -0.2554240091463753 0.9668291346207935
vn 0 -0.12020960407604246 -0.9927485336619144
vn 0 -0.08598907824778074 -0.9962960796982477
vn 0 -0.1145419020437612 -0.9934184177254805
vn 0 -0.058509477251181295 -0.9982868530997459
vn 0 -0.0573654327389318 -0.9983532476667141
vn 0 -0.028694530780043952 -0.9995882271732263
vn 0 0 -1
vn 0 0.003443356902308332 -0.9999940716290487
vn 0 -0.181403201007905 -0.9834088054639768
vn 0 -0.1430004043364213 -0.9897226300128839
vn 0 -0.1713411916319806 -0.9852117518838946
vn 0 0.02869453078004439 -0.999588227173226
vn 0 0.05736543273893223 -0.9983532476667138
vn 0 0.06537662737334236 -0.9978606599086303
vn 0 -0.2418759925323399 -0.9703071700428147
vn 0 -0.1995408036840329 -0.9798895180912645
vn 0 -0.22757609964187467 -0.9737602984676422
vn 0 0.08598907824778115 -0.9962960796982475
vn 0 0.11454190204376165 -0.9934184177254805
vn 0 0.1270298985191352 -0.9918988884368296
vn 0 -0.30595020502732917 -0.9520475156439069
vn 0 -0.25542400914637486 -0.9668291346207937
vn 0 -0.2830614893079906 -0.9591017637720944
vn 0 0.14300040433642175 -0.9897226300128839
vn 0 0.14723230598154097 -0.9891019401838
vn 0 0.19271840091874956 -0.9812541046779474
vn 0 -0.31046590516878214 -0.9505845158257781
vn 0 -0.3140023966937744 -0.9494221900032491
vn 0 -0.3310822051581861 -0.9436019147011059
vn 0 0.1995408036840333 -0.9798895180912642
vn 0 0.22757609964187508 -0.973760298467642
vn 0 0.20391169684840427 -0.9789892848690452
vn 0 -0.3515416202868696 -0.9361722540249108
vn 0 0.2554240091463753 -0.9668291346207935
usemtl material_0_0
f 1/1/1 2/2/2 3/3/3
f 2/2/2 1/1/1 4/4/4
f 2/2/2 4/4/4 5/5/4
f 2/2/2 5/5/4 6/6/5
f 13/7/6 14/8/7 15/9/8
f 14/8/7 13/7/6 3/10/3
f 3/10/3 13/7/6 16/11/6
f 3/10/3 16/11/6 1/12/1
f 21/13/9 2/14/2 6/15/5
f 2/14/2 21/13/9 22/16/10
f 22/16/10 21/13/9 23/17/9
f 22/16/10 23/17/9 24/18/11
f 29/19/12 30/20/13 31/21/14
f 30/20/13 29/19/12 14/22/7
f 14/22/7 29/19/12 32/23/12
f 14/22/7 32/23/12 15/24/8
f 24/25/11 37/26/15 22/27/10
f 37/26/15 24/25/11 38/28/16
f 37/26/15 38/28/16 39/29/16
f 37/26/15 39/29/16 40/30/17
f 45/31/18 46/32/19 47/33/20
f 46/32/19 45/31/18 30/34/13
f 30/34/13 45/31/18 48/35/18
f 30/34/13 48/35/18 31/36/14
f 53/37/21 37/38/15 40/39/17
f 37/38/15 53/37/21 54/40/22
f 54/40/22 53/37/21 55/41/21
f 54/40/22 55/41/21 56/42/21
f 54/40/22 56/42/21 57/43/21
f 54/40/22 57/43/21 58/44/23
f 65/45/24 66/46/25 67/47/26
f 66/46/25 65/45/24 68/48/24
f 68/48/24 65/45/24 69/49/24
f 69/49/24 65/45/24 70/50/24
f 69/49/24 70/50/24 71/51/24
f 71/51/24 70/50/24 72/52/24
f 72/52/24 70/50/24 73/53/24
f 73/53/24 70/50/24 74/54/24
f 74/54/24 46/55/19 75/56/24
f 46/55/19 74/54/24 70/50/24
f 46/55/19 70/50/24 76/57/24
f 46/55/19 76/57/24 77/58/24
f 46/55/19 77/58/24 47/59/20
f 91/60/27 92/61/28 93/62/28
f 92/61/28 91/60/27 94/63/28
f 92/61/28 94/63/28 95/64/28
f 92/61/28 95/64/28 96/65/28
f 92/61/28 96/65/28 97/66/28
f 92/61/28 97/66/28 98/67/28
f 92/61/28 98/67/28 99/68/28
f 92/61/28 99/68/28 100/69/28
f 94/63/28 91/60/27 101/70/28
f 101/70/28 91/60/27 102/71/28
f 102/71/28 91/60/27 103/72/28
f 103/72/28 91/60/27 104/73/28
f 104/73/28 91/60/27 105/74/28
f 105/74/28 91/60/27 106/75/28
f 106/75/28 91/60/27 107/76/28
f 107/76/28 91/60/27 108/77/28
f 108/77/28 91/60/27 109/78/29
f 58/79/23 100/69/28 54/80/22
f 100/69/28 58/79/23 110/81/28
f 100/69/28 110/81/28 92/61/28
f 131/82/30 132/83/31 133/84/32
f 132/83/31 131/82/30 134/85/31
f 132/83/31 134/85/31 135/86/31
f 135/86/31 134/85/31 136/87/31
f 136/87/31 134/85/31 137/88/31
f 137/88/31 134/85/31 138/89/31
f 138/89/31 134/85/31 139/90/31
f 139/90/31 134/85/31 140/91/31
f 140/91/31 134/85/31 141/92/31
f 141/92/31 134/85/31 142/93/31
f 142/93/31 143/94/31 141/92/31
f 143/94/31 142/93/31 144/95/31
f 143/94/31 144/95/31 145/96/31
f 143/94/31 145/96/31 146/97/31
f 146/97/31 145/96/31 147/98/31
f 147/98/31 145/96/31 67/99/26
f 147/98/31 67/99/26 148/100/31
f 148/100/31 67/99/26 66/101/25
f 167/102/28 168/103/23 169/104/22
f 168/103/23 167/102/28 170/105/28
f 170/105/28 167/102/28 171/106/28
f 171/106/28 167/102/28 172/62/28
f 172/62/28 167/102/28 173/107/28
f 172/62/28 173/107/28 174/108/28
f 172/62/28 174/108/28 175/109/28
f 172/62/28 175/109/28 176/110/28
f 172/62/28 176/110/28 177/111/28
f 172/62/28 177/111/28 178/112/28
f 172/62/28 178/112/28 91/60/27
f 91/60/27 178/112/28 179/113/28
f 91/60/27 179/113/28 180/114/28
f 91/60/27 180/114/28 181/115/28
f 91/60/27 181/115/28 182/116/28
f 91/60/27 182/116/28 183/117/28
f 91/60/27 183/117/28 184/118/28
f 91/60/27 184/118/28 185/119/28
f 91/60/27 185/119/28 186/120/28
f 91/60/27 186/120/28 187/121/29
f 91/122/27 209/123/33 109/124/29
f 209/123/33 91/122/27 210/125/33
f 209/123/33 210/125/33 211/126/33
f 211/126/33 210/125/33 212/127/33
f 212/127/33 210/125/33 213/128/33
f 213/128/33 210/125/33 214/129/33
f 214/129/33 210/125/33 215/130/33
f 215/130/33 210/125/33 216/131/33
f 216/131/33 210/125/33 217/132/33
f 217/132/33 210/125/33 218/133/33
f 217/132/33 218/133/33 219/134/33
f 219/134/33 218/133/33 220/135/33
f 233/136/31 131/82/30 234/137/32
f 131/82/30 233/136/31 235/85/31
f 235/85/31 233/136/31 236/138/31
f 235/85/31 236/138/31 237/139/31
f 235/85/31 237/139/31 238/140/31
f 235/85/31 238/140/31 239/141/31
f 235/85/31 239/141/31 240/142/31
f 235/85/31 240/142/31 241/143/31
f 235/85/31 241/143/31 242/144/31
f 235/85/31 242/144/31 243/145/31
f 243/145/31 242/144/31 244/146/31
f 243/145/31 244/146/31 245/147/31
f 245/147/31 244/146/31 246/148/31
f 246/148/31 244/146/31 247/149/31
f 246/148/31 247/149/31 248/150/31
f 246/148/31 248/150/31 249/151/26
f 249/151/26 248/150/31 250/152/31
f 249/151/26 250/152/31 251/153/25
f 131/154/30 271/155/34 272/156/34
f 271/155/34 131/154/30 273/157/34
f 273/157/34 131/154/30 274/158/34
f 274/158/34 131/154/30 275/159/34
f 275/159/34 131/154/30 276/160/34
f 276/160/34 131/154/30 277/161/34
f 277/161/34 131/154/30 133/162/32
f 169/163/22 285/164/17 286/165/15
f 285/164/17 169/163/22 287/166/21
f 287/166/21 169/163/22 288/167/21
f 288/167/21 169/163/22 289/168/21
f 289/168/21 169/163/22 290/169/21
f 290/169/21 169/163/22 168/170/23
f 297/171/33 91/122/27 187/172/29
f 91/122/27 297/171/33 298/125/33
f 298/125/33 297/171/33 299/173/33
f 298/125/33 299/173/33 300/174/33
f 298/125/33 300/174/33 301/175/33
f 298/125/33 301/175/33 302/176/33
f 298/125/33 302/176/33 303/177/33
f 298/125/33 303/177/33 304/178/33
f 298/125/33 304/178/33 305/179/33
f 298/125/33 305/179/33 306/180/33
f 306/180/33 305/179/33 307/181/33
f 306/180/33 307/181/33 308/182/33
f 321/183/19 322/184/24 323/185/24
f 322/184/24 321/183/19 324/186/24
f 324/186/24 321/183/19 325/187/24
f 325/187/24 321/183/19 326/188/24
f 326/188/24 321/183/19 327/189/20
f 328/190/24 249/191/26 251/192/25
f 249/191/26 328/190/24 329/193/24
f 329/193/24 328/190/24 330/194/24
f 329/193/24 330/194/24 324/186/24
f 324/186/24 330/194/24 331/195/24
f 324/186/24 331/195/24 332/196/24
f 324/186/24 332/196/24 333/197/24
f 324/186/24 333/197/24 322/184/24
f 347/198/34 348/156/34 349/199/34
f 348/156/34 347/198/34 131/154/30
f 131/154/30 347/198/34 350/200/34
f 131/154/30 350/200/34 351/201/34
f 131/154/30 351/201/34 352/202/34
f 131/154/30 352/202/34 353/203/34
f 131/154/30 353/203/34 234/204/32
f 361/205/10 362/206/16 363/207/11
f 362/206/16 361/205/10 286/208/15
f 362/206/16 286/208/15 364/209/16
f 364/209/16 286/208/15 285/210/17
f 369/211/13 327/212/20 321/213/19
f 327/212/20 369/211/13 370/214/18
f 370/214/18 369/211/13 371/215/18
f 371/215/18 369/211/13 372/216/14
f 377/217/2 378/218/9 379/219/5
f 378/218/9 377/217/2 361/220/10
f 378/218/9 361/220/10 380/221/9
f 380/221/9 361/220/10 363/222/11
f 385/223/7 372/224/14 369/225/13
f 372/224/14 385/223/7 386/226/12
f 386/226/12 385/223/7 387/227/12
f 387/227/12 385/223/7 388/228/8
f 377/229/2 393/230/1 394/231/3
f 393/230/1 377/229/2 395/232/4
f 395/232/4 377/229/2 396/233/4
f 396/233/4 377/229/2 379/234/5
f 394/235/3 388/236/8 385/237/7
f 388/236/8 394/235/3 401/238/6
f 401/238/6 394/235/3 402/239/6
f 402/239/6 394/235/3 393/240/1
usemtl material_1_0
f 7//35 8//36 9//37
f 8//36 10//36 9//37
f 10//36 11//38 9//37
f 12//39 9//37 11//38
f 11//38 17//40 12//39
f 17//40 18//40 12//39
f 12//39 18//40 19//41
f 20//42 19//41 18//40
f 25//43 26//44 27//45
f 26//44 28//44 27//45
f 27//45 28//44 9//37
f 7//35 9//37 28//44
f 20//42 33//46 19//41
f 33//46 34//46 19//41
f 19//41 34//46 35//47
f 36//48 35//47 34//46
f 41//49 42//50 43//51
f 42//50 44//50 43//51
f 44//50 25//43 43//51
f 27//45 43//51 25//43
f 36//48 49//52 35//47
f 49//52 50//52 35//47
f 35//47 50//52 51//53
f 52//54 51//53 50//52
f 59//55 60//56 61//57
f 60//56 62//56 61//57
f 62//56 63//56 61//57
f 63//56 64//56 61//57
f 61//57 64//56 43//51
f 41//49 43//51 64//56
f 52//54 78//58 51//53
f 78//58 79//58 51//53
f 79//58 80//58 51//53
f 80//58 81//58 51//53
f 82//58 51//53 81//58
f 81//58 80//58 83//58
f 83//58 80//58 84//58
f 84//58 80//58 85//58
f 85//58 80//58 86//58
f 80//58 87//58 86//58
f 86//58 87//58 88//58
f 88//58 87//58 89//59
f 90//60 89//59 87//58
f 111//61 112//61 113//61
f 112//61 59//55 113//61
f 61//57 113//61 59//55
f 114//62 115//63 116//61
f 116//61 115//63 117//61
f 117//61 115//63 118//61
f 118//61 115//63 119//61
f 119//61 115//63 120//61
f 120//61 115//63 121//61
f 121//61 115//63 122//61
f 122//61 115//63 123//61
f 123//61 115//63 124//61
f 113//61 125//61 111//61
f 125//61 126//61 111//61
f 126//61 127//61 111//61
f 127//61 128//61 111//61
f 128//61 129//61 111//61
f 129//61 124//61 111//61
f 124//61 115//63 111//61
f 130//61 111//61 115//63
f 89//59 90//60 149//64
f 149//64 90//60 150//64
f 90//60 151//64 150//64
f 150//64 151//64 152//64
f 152//64 151//64 153//64
f 151//64 154//64 153//64
f 154//64 155//64 153//64
f 156//64 153//64 155//64
f 155//64 157//64 156//64
f 156//64 157//64 158//64
f 158//64 157//64 159//64
f 159//64 157//64 160//64
f 160//64 157//64 161//64
f 161//64 157//64 162//64
f 162//64 157//64 163//64
f 163//64 157//64 164//64
f 157//64 165//65 164//64
f 166//66 164//64 165//65
f 188//62 189//61 115//63
f 189//61 190//61 115//63
f 190//61 191//61 115//63
f 191//61 192//61 115//63
f 192//61 193//61 115//63
f 193//61 194//61 115//63
f 194//61 195//61 115//63
f 195//61 196//61 115//63
f 196//61 197//61 115//63
f 115//63 197//61 198//61
f 197//61 199//61 198//61
f 199//61 200//61 198//61
f 200//61 201//61 198//61
f 201//61 202//61 198//61
f 202//61 203//61 198//61
f 203//61 204//61 198//61
f 198//61 204//61 205//61
f 205//61 204//61 206//61
f 206//61 204//61 207//55
f 208//57 207//55 204//61
f 221//67 222//67 223//67
f 223//67 222//67 224//67
f 222//67 225//67 224//67
f 224//67 225//67 226//67
f 226//67 225//67 227//67
f 227//67 225//67 228//67
f 228//67 225//67 229//67
f 229//67 225//67 230//67
f 230//67 225//67 231//67
f 231//67 225//67 232//67
f 225//67 115//63 232//67
f 114//62 232//67 115//63
f 252//59 253//64 254//60
f 253//64 255//64 254//60
f 254//60 255//64 256//64
f 255//64 257//64 256//64
f 257//64 258//64 256//64
f 256//64 258//64 259//64
f 259//64 258//64 260//64
f 258//64 261//64 260//64
f 260//64 261//64 262//64
f 261//64 263//64 262//64
f 263//64 264//64 262//64
f 264//64 265//64 262//64
f 265//64 266//64 262//64
f 266//64 267//64 262//64
f 267//64 268//64 262//64
f 268//64 269//64 262//64
f 262//64 269//64 165//65
f 270//66 165//65 269//64
f 166//66 165//65 278//68
f 278//68 165//65 279//68
f 279//68 165//65 280//68
f 280//68 165//65 281//68
f 281//68 165//65 282//68
f 282//68 165//65 283//68
f 284//68 283//68 165//65
f 207//55 208//57 291//56
f 291//56 208//57 292//56
f 292//56 208//57 293//56
f 293//56 208//57 294//56
f 294//56 208//57 295//49
f 296//51 295//49 208//57
f 309//67 310//67 311//67
f 310//67 312//67 311//67
f 311//67 312//67 313//67
f 312//67 314//67 313//67
f 314//67 315//67 313//67
f 315//67 316//67 313//67
f 316//67 317//67 313//67
f 317//67 318//67 313//67
f 318//67 319//67 313//67
f 319//67 320//67 313//67
f 313//67 320//67 115//63
f 188//62 115//63 320//67
f 334//58 335//58 336//58
f 335//58 337//58 336//58
f 337//58 338//58 336//58
f 338//58 339//58 336//58
f 336//58 339//58 340//58
f 339//58 341//58 340//58
f 340//58 341//58 254//60
f 252//59 254//60 341//58
f 342//54 343//53 344//58
f 344//58 343//53 345//58
f 345//58 343//53 336//58
f 336//58 343//53 334//58
f 346//58 334//58 343//53
f 270//66 354//68 165//65
f 354//68 355//68 165//65
f 355//68 356//68 165//65
f 356//68 357//68 165//65
f 357//68 358//68 165//65
f 165//65 358//68 359//68
f 360//68 359//68 358//68
f 295//49 296//51 365//50
f 365//50 296//51 366//50
f 296//51 367//45 366//50
f 368//43 366//50 367//45
f 373//48 374//47 375//52
f 375//52 374//47 376//52
f 376//52 374//47 342//54
f 343//53 342//54 374//47
f 368//43 367//45 381//44
f 381//44 367//45 382//44
f 367//45 383//37 382//44
f 384//35 382//44 383//37
f 389//42 390//41 391//46
f 391//46 390//41 392//46
f 392//46 390//41 373//48
f 374//47 373//48 390//41
f 384//35 383//37 397//36
f 397//36 383//37 398//36
f 398//36 383//37 399//38
f 400//39 399//38 383//37
f 399//38 400//39 403//40
f 403//40 400//39 404//40
f 404//40 400//39 389//42
f 390//41 389//42 400//39
