# SSTK version 0.8.0
# 23
mtllib original-23.mtl
o #ID216
v 0.348580 0.478496 0.464941
v 0.347921 0.477298 0.465627
v 0.348181 0.477263 0.465640
v 0.347921 0.478583 0.464908
v 0.347261 0.478496 0.464941
v 0.347661 0.477263 0.465640
v 0.347921 0.477298 0.465627
v 0.347921 0.476447 0.466056
v 0.348181 0.477263 0.465640
v 0.349268 0.478211 0.465048
v 0.348506 0.477129 0.465691
v 0.348977 0.479696 0.464188
v 0.347921 0.479835 0.464136
v 0.346574 0.478211 0.465048
v 0.347336 0.477129 0.465691
v 0.347921 0.477298 0.465627
v 0.347661 0.477263 0.465640
v 0.347921 0.476447 0.466056
v 0.346865 0.479696 0.464188
v 0.347921 0.476447 0.466056
v 0.349961 0.477679 0.465248
v 0.348901 0.476826 0.465804
v 0.350024 0.479263 0.464351
v 0.349370 0.480864 0.463382
v 0.347921 0.481054 0.463310
v 0.345881 0.477679 0.465248
v 0.346941 0.476826 0.465804
v 0.347921 0.476447 0.466056
v 0.345817 0.479263 0.464351
v 0.346472 0.480864 0.463382
v 0.347957 0.476334 0.466112
v 0.350578 0.476875 0.465549
v 0.349300 0.476305 0.466000
v 0.351013 0.478504 0.464636
v 0.350774 0.480282 0.463600
v 0.349758 0.481995 0.462525
v 0.347921 0.482237 0.462433
v 0.345264 0.476875 0.465549
v 0.346541 0.476305 0.466000
v 0.347885 0.476334 0.466112
v 0.344828 0.478504 0.464636
v 0.345068 0.480282 0.463600
v 0.346084 0.481995 0.462525
v 0.347921 0.476447 0.466056
v 0.347921 0.476282 0.466137
v 0.347957 0.476334 0.466112
v 0.347965 0.476307 0.466124
v 0.348002 0.476086 0.466231
v 0.351008 0.475837 0.465939
v 0.349600 0.475583 0.466271
v 0.351846 0.477419 0.465044
v 0.352056 0.479298 0.463969
v 0.351515 0.481267 0.462798
v 0.350142 0.483088 0.461617
v 0.347921 0.483381 0.461507
v 0.344834 0.475837 0.465939
v 0.346242 0.475583 0.466271
v 0.347840 0.476086 0.466231
v 0.343996 0.477419 0.465044
v 0.347877 0.476307 0.466124
v 0.343786 0.479298 0.463969
v 0.347921 0.476447 0.466056
v 0.347885 0.476334 0.466112
v 0.347921 0.476282 0.466137
v 0.344327 0.481267 0.462798
v 0.345700 0.483088 0.461617
v 0.347921 0.476282 0.466137
v 0.347965 0.476307 0.466124
v 0.347961 0.476184 0.466184
v 0.347921 0.476016 0.466264
v 0.348183 0.475305 0.466545
v 0.349711 0.474739 0.466587
v 0.351163 0.474661 0.466381
v 0.352406 0.476066 0.465552
v 0.353102 0.477935 0.464481
v 0.353086 0.480061 0.463250
v 0.352246 0.482216 0.461944
v 0.350519 0.484142 0.460661
v 0.347921 0.484484 0.460533
v 0.346131 0.474739 0.466587
v 0.344679 0.474661 0.466381
v 0.347826 0.475710 0.466393
v 0.347658 0.475305 0.466545
v 0.343436 0.476066 0.465552
v 0.347879 0.476053 0.466249
v 0.347857 0.476244 0.466154
v 0.342740 0.477935 0.464481
v 0.347921 0.476282 0.466137
v 0.342755 0.480061 0.463250
v 0.343595 0.482216 0.461944
v 0.345323 0.484142 0.460661
v 0.347965 0.476307 0.466124
v 0.347921 0.476282 0.466137
v 0.347961 0.476184 0.466184
v 0.347961 0.476184 0.466184
v 0.347921 0.476086 0.466231
v 0.348002 0.476086 0.466231
v 0.347921 0.476282 0.466137
v 0.348002 0.476086 0.466231
v 0.347921 0.476064 0.466243
v 0.347921 0.476016 0.466264
v 0.348009 0.475865 0.466329
v 0.348016 0.475710 0.466393
v 0.348251 0.474794 0.466736
v 0.349600 0.473894 0.466905
v 0.351008 0.473485 0.466823
v 0.352604 0.474561 0.466117
v 0.353791 0.476271 0.465106
v 0.354344 0.478423 0.463866
v 0.354104 0.480791 0.462480
v 0.352967 0.483128 0.461041
v 0.350890 0.485154 0.459660
v 0.347921 0.485545 0.459512
v 0.346242 0.473894 0.466905
v 0.344834 0.473485 0.466823
v 0.347591 0.474794 0.466736
v 0.343238 0.474561 0.466117
v 0.347921 0.475664 0.466417
v 0.347658 0.475305 0.466545
v 0.347921 0.475250 0.466584
v 0.347826 0.475710 0.466393
v 0.347921 0.475664 0.466417
v 0.347658 0.475305 0.466545
v 0.347921 0.475250 0.466584
v 0.347826 0.475710 0.466393
v 0.347921 0.475833 0.466346
v 0.347787 0.475879 0.466312
v 0.342051 0.476271 0.465106
v 0.347857 0.476029 0.466252
v 0.347921 0.476064 0.466243
v 0.347840 0.476086 0.466231
v 0.347879 0.476053 0.466249
v 0.347921 0.476086 0.466231
v 0.347921 0.476064 0.466243
v 0.347840 0.476086 0.466231
v 0.347879 0.476053 0.466249
v 0.347921 0.476086 0.466231
v 0.347921 0.476086 0.466231
v 0.341498 0.478423 0.463866
v 0.341738 0.480791 0.462480
v 0.342875 0.483128 0.461041
v 0.344951 0.485154 0.459660
v 0.347921 0.476086 0.466231
v 0.347961 0.476184 0.466184
v 0.348002 0.476086 0.466231
v 0.347921 0.476282 0.466137
v 0.347921 0.476086 0.466231
v 0.347921 0.476064 0.466243
v 0.348002 0.476086 0.466231
v 0.347921 0.476086 0.466231
v 0.347921 0.476064 0.466243
v 0.348002 0.476086 0.466231
v 0.347921 0.476086 0.466231
v 0.347921 0.476064 0.466243
v 0.348002 0.476086 0.466231
v 0.347921 0.476086 0.466231
v 0.347921 0.476064 0.466243
v 0.348002 0.476086 0.466231
v 0.347921 0.476064 0.466243
v 0.347879 0.476053 0.466249
v 0.347921 0.476016 0.466264
v 0.347879 0.476053 0.466249
v 0.347921 0.476016 0.466264
v 0.347921 0.476064 0.466243
v 0.347879 0.476053 0.466249
v 0.347921 0.476016 0.466264
v 0.347921 0.476064 0.466243
v 0.347879 0.476053 0.466249
v 0.347921 0.476016 0.466264
v 0.347921 0.476064 0.466243
v 0.347879 0.476053 0.466249
v 0.347921 0.476016 0.466264
v 0.347921 0.475664 0.466417
v 0.347921 0.475250 0.466584
v 0.347921 0.474802 0.466756
v 0.348183 0.474283 0.466928
v 0.349300 0.473172 0.467176
v 0.350578 0.472446 0.467212
v 0.352406 0.473057 0.466681
v 0.354032 0.474440 0.465794
v 0.355161 0.476451 0.464607
v 0.355570 0.478881 0.463197
v 0.355106 0.481487 0.461658
v 0.353675 0.484001 0.460092
v 0.351254 0.486122 0.458612
v 0.347921 0.486561 0.458448
v 0.346541 0.473172 0.467176
v 0.345264 0.472446 0.467212
v 0.347658 0.474283 0.466928
v 0.343436 0.473057 0.466681
v 0.341810 0.474440 0.465794
v 0.347921 0.475664 0.466417
v 0.347878 0.475978 0.466281
v 0.340681 0.476451 0.464607
v 0.347921 0.476016 0.466264
v 0.340272 0.478881 0.463197
v 0.340736 0.481487 0.461658
v 0.342167 0.484001 0.460092
v 0.344587 0.486122 0.458612
v 0.347921 0.476064 0.466243
v 0.347921 0.476016 0.466264
v 0.347879 0.476053 0.466249
v 0.348009 0.475865 0.466329
v 0.347921 0.475833 0.466346
v 0.348016 0.475710 0.466393
v 0.347921 0.475833 0.466346
v 0.347921 0.475664 0.466417
v 0.348016 0.475710 0.466393
v 0.348251 0.474794 0.466736
v 0.347921 0.474351 0.466922
v 0.348183 0.474283 0.466928
v 0.347921 0.474802 0.466756
v 0.348251 0.474794 0.466736
v 0.347921 0.474351 0.466922
v 0.348183 0.474283 0.466928
v 0.347921 0.474802 0.466756
v 0.348016 0.473879 0.467080
v 0.348901 0.472652 0.467372
v 0.349961 0.471643 0.467514
v 0.351846 0.471704 0.467190
v 0.353791 0.472610 0.466481
v 0.355444 0.474298 0.465414
v 0.356512 0.476605 0.464052
v 0.356777 0.479309 0.462476
v 0.356090 0.482147 0.460788
v 0.354369 0.484832 0.459096
v 0.347921 0.487531 0.457340
v 0.351610 0.487045 0.457522
v 0.346941 0.472652 0.467372
v 0.345881 0.471643 0.467514
v 0.347826 0.473879 0.467080
v 0.343996 0.471704 0.467190
v 0.347921 0.474351 0.466922
v 0.347591 0.474794 0.466736
v 0.347658 0.474283 0.466928
v 0.347921 0.474802 0.466756
v 0.347921 0.474351 0.466922
v 0.347591 0.474794 0.466736
v 0.347658 0.474283 0.466928
v 0.347921 0.474802 0.466756
v 0.342051 0.472610 0.466481
v 0.340398 0.474298 0.465414
v 0.339329 0.476605 0.464052
v 0.347857 0.476029 0.466252
v 0.347878 0.475978 0.466281
v 0.347921 0.476016 0.466264
v 0.339064 0.479309 0.462476
v 0.339751 0.482147 0.460788
v 0.341473 0.484832 0.459096
v 0.344231 0.487045 0.457522
v 0.348009 0.475865 0.466329
v 0.348016 0.475710 0.466393
v 0.347921 0.475833 0.466346
v 0.347921 0.473930 0.467069
v 0.347921 0.474351 0.466922
v 0.347921 0.473564 0.467185
v 0.347921 0.473755 0.467127
v 0.348506 0.472348 0.467485
v 0.349268 0.471111 0.467715
v 0.351013 0.470619 0.467596
v 0.353102 0.470946 0.467106
v 0.355161 0.472145 0.466223
v 0.356838 0.474135 0.464980
v 0.357843 0.476734 0.463443
v 0.357964 0.479705 0.461705
v 0.357056 0.482770 0.459871
v 0.355048 0.485621 0.458057
v 0.347336 0.472348 0.467485
v 0.346574 0.471111 0.467715
v 0.344828 0.470619 0.467596
v 0.347921 0.473930 0.467069
v 0.347658 0.474283 0.466928
v 0.347826 0.473879 0.467080
v 0.347921 0.474351 0.466922
v 0.347921 0.473930 0.467069
v 0.347658 0.474283 0.466928
v 0.347826 0.473879 0.467080
v 0.347921 0.474351 0.466922
v 0.342740 0.470946 0.467106
v 0.340681 0.472145 0.466223
v 0.339004 0.474135 0.464980
v 0.337998 0.476734 0.463443
v 0.337878 0.479705 0.461705
v 0.338786 0.482770 0.459871
v 0.340793 0.485621 0.458057
v 0.347921 0.473930 0.467069
v 0.347921 0.473755 0.467127
v 0.348016 0.473879 0.467080
v 0.347957 0.473224 0.467280
v 0.348181 0.472214 0.467536
v 0.348580 0.470826 0.467821
v 0.350024 0.469860 0.467881
v 0.352056 0.469583 0.467618
v 0.354344 0.470174 0.466964
v 0.356512 0.471664 0.465907
v 0.358210 0.473950 0.464488
v 0.359152 0.476838 0.462782
v 0.359127 0.480071 0.460885
v 0.358001 0.483356 0.458908
v 0.347661 0.472214 0.467536
v 0.347261 0.470826 0.467821
v 0.347885 0.473224 0.467280
v 0.345817 0.469860 0.467881
v 0.347921 0.473930 0.467069
v 0.343786 0.469583 0.467618
v 0.341498 0.470174 0.466964
v 0.339329 0.471664 0.465907
v 0.337632 0.473950 0.464488
v 0.336690 0.476838 0.462782
v 0.336714 0.480071 0.460885
v 0.337841 0.483356 0.458908
v 0.347921 0.473102 0.467313
v 0.347921 0.472179 0.467549
v 0.347921 0.470739 0.467853
v 0.348977 0.469426 0.468044
v 0.350774 0.468599 0.467987
v 0.353086 0.468535 0.467579
v 0.355570 0.469388 0.466761
v 0.357843 0.471166 0.465534
v 0.359559 0.473745 0.463943
v 0.360435 0.476915 0.462070
v 0.360266 0.480403 0.460017
v 0.347921 0.473102 0.467313
v 0.346865 0.469426 0.468044
v 0.345068 0.468599 0.467987
v 0.342755 0.468535 0.467579
v 0.340272 0.469388 0.466761
v 0.337998 0.471166 0.465534
v 0.336283 0.473745 0.463943
v 0.335407 0.476915 0.462070
v 0.335576 0.480403 0.460017
v 0.347957 0.473224 0.467280
v 0.347885 0.473224 0.467280
v 0.347921 0.473102 0.467313
v 0.347921 0.473102 0.467313
v 0.347921 0.472179 0.467549
v 0.348181 0.472214 0.467536
v 0.347921 0.469288 0.468097
v 0.349370 0.468017 0.468206
v 0.351515 0.467329 0.468032
v 0.354104 0.467478 0.467479
v 0.356777 0.468592 0.466500
v 0.359152 0.470653 0.465104
v 0.360882 0.473521 0.463344
v 0.361690 0.476965 0.461307
v 0.347921 0.473102 0.467313
v 0.347661 0.472214 0.467536
v 0.347921 0.472179 0.467549
v 0.346472 0.468017 0.468206
v 0.344327 0.467329 0.468032
v 0.341738 0.467478 0.467479
v 0.339064 0.468592 0.466500
v 0.336690 0.470653 0.465104
v 0.334960 0.473521 0.463344
v 0.334151 0.476965 0.461307
v 0.347921 0.467827 0.468277
v 0.349758 0.466601 0.468305
v 0.352246 0.466052 0.468014
v 0.355106 0.466413 0.467319
v 0.357964 0.467785 0.466181
v 0.360435 0.470126 0.464619
v 0.362176 0.473276 0.462693
v 0.346084 0.466601 0.468305
v 0.343595 0.466052 0.468014
v 0.340736 0.466413 0.467319
v 0.337878 0.467785 0.466181
v 0.335407 0.470126 0.464619
v 0.333666 0.473276 0.462693
v 0.347921 0.466359 0.468395
v 0.350142 0.465181 0.468341
v 0.352967 0.464772 0.467934
v 0.356090 0.465344 0.467098
v 0.359127 0.466970 0.465804
v 0.361690 0.469586 0.464078
v 0.345700 0.465181 0.468341
v 0.342875 0.464772 0.467934
v 0.339751 0.465344 0.467098
v 0.336714 0.466970 0.465804
v 0.334151 0.469586 0.464078
v 0.347921 0.464888 0.468451
v 0.350519 0.463758 0.468316
v 0.353675 0.463490 0.467794
v 0.357056 0.464271 0.466818
v 0.360266 0.466148 0.465369
v 0.345323 0.463758 0.468316
v 0.342167 0.463490 0.467794
v 0.338786 0.464271 0.466818
v 0.335576 0.466148 0.465369
v 0.347921 0.463416 0.468444
v 0.350890 0.462337 0.468228
v 0.354369 0.462209 0.467591
v 0.358001 0.463196 0.466477
v 0.344951 0.462337 0.468228
v 0.341473 0.462209 0.467591
v 0.337841 0.463196 0.466477
v 0.347921 0.461946 0.468374
v 0.351254 0.460919 0.468077
v 0.355048 0.460931 0.467328
v 0.344587 0.460919 0.468077
v 0.340793 0.460931 0.467328
v 0.347921 0.460480 0.468241
v 0.351610 0.459507 0.467863
v 0.344231 0.459507 0.467863
v 0.347921 0.459021 0.468045
vn 0.047503538171173386 0.5019863806741541 0.8635699667536401
vn 0 0.4880635098935695 0.8728081176927547
vn 0.042051890905383485 0.47093171013922974 0.8811668189716533
vn 0 0.5081996088160814 0.8612393149404999
vn -0.047503538171173386 0.5019863806741541 0.8635699667536401
vn -0.042051890905383485 0.47093171013922974 0.8811668189716533
vn 0.015149050440555962 0.4503035130954673 0.892747025962355
vn 0.09068322770583982 0.4842149877500307 0.8702369779842087
vn 0.06858488025368126 0.4531986016762875 0.8887672032873658
vn 0.05900327914542104 0.5367779922255306 0.8416578878097772
vn 0 0.5444923185103078 0.8387658285142936
vn -0.09068322770583982 0.4842149877500307 0.8702369779842087
vn -0.06858488025368126 0.4531986016762875 0.8887672032873658
vn -0.015149050440555962 0.4503035130954673 0.892747025962355
vn -0.05900327914542104 0.5367779922255306 0.8416578878097772
vn 0.033747009740650355 0.44972899654378073 0.8925272931408254
vn 0.12622539679449535 0.4571104883916402 0.8804073776419802
vn 0.0961977417101117 0.433444407705361 0.8960312159287884
vn 0.11264119841914555 0.514710992776327 0.849932088071692
vn 0.07039450809925257 0.5705882845933404 0.8182136779071184
vn 0 0.5797900907637059 0.8147658870204456
vn -0.12622539679449535 0.4571104883916402 0.8804073776419802
vn -0.09622777720185129 0.43346428739555676 0.8960183739452295
vn -0.033747009740650355 0.44972899654378073 0.8925272931408254
vn -0.11264119841914555 0.514710992776327 0.849932088071692
vn -0.07039450809925257 0.5705882845933404 0.8182136779071184
vn 0.06512717000418675 0.42914810002758785 0.900883100057914
vn 0.15222530573926404 0.42342711596423127 0.8930492336701269
vn 0.1160351972523121 0.40673159036868534 0.9061485785426013
vn 0.15679909530903294 0.4810498856084042 0.8625572741948272
vn 0.13439150238499964 0.5442650096588832 0.8280788146956293
vn 0.08165648343712721 0.6033559253967714 0.793280433391173
vn 0 0.6140288096837255 0.7892836124476342
vn -0.15222530573926404 0.42342711596423127 0.8930492336701269
vn -0.11592280524778262 0.40669331841085615 0.9061801410224406
vn -0.06512717000418675 0.42914810002758785 0.900883100057914
vn -0.15679909530903294 0.4810498856084042 0.8625572741948272
vn -0.13439150238499964 0.5442650096588832 0.8280788146956293
vn -0.08165648343712721 0.6033559253967714 0.793280433391173
vn -0.000031253020198019744 0.4430164028069603 0.8965135056803271
vn 0.07876518837491758 0.41570819142311344 0.9060809813057483
vn 0.09599200689274406 0.3635677882313306 0.9266088700057223
vn 0.1679213994203152 0.3857497986683452 0.9071931968682604
vn 0.12691560431846596 0.37838621287507523 0.9169058311988952
vn 0.18910719696727654 0.4392117929563339 0.8782547859153754
vn 0.18708270721333872 0.5041080194368679 0.8431341325086814
vn 0.1558945091229945 0.572823333521797 0.8047175470923178
vn 0.09276871198390421 0.6350214135802427 0.766904016400617
vn 0 0.6471465903073879 0.7623655885817002
vn -0.1679213994203152 0.3857497986683452 0.9071931968682604
vn -0.12691560431846596 0.37838621287507523 0.9169058311988952
vn -0.06316301068274574 0.4213411045543875 0.9047000097791423
vn -0.18910719696727654 0.4392117929563339 0.8782547859153754
vn -0.06069694950814857 0.43129069650508045 0.9001689927055742
vn -0.18708270721333872 0.5041080194368679 0.8431341325086814
vn 0.000031253020198019744 0.4430164028069603 0.8965135056803271
vn -0.1558945091229945 0.572823333521797 0.8047175470923178
vn -0.09276871198390421 0.6350214135802427 0.766904016400617
vn 0.08477500342980089 0.4064291164431833 0.9097409368060176
vn 0.06499522709508769 0.43626428050149907 0.8974681598883424
vn 0.058565969164777805 0.4437593936714493 0.8942301872471863
vn 0.0580185308926554 0.4057182062422562 0.9121549140341372
vn 0.08567261856248054 0.3703290937861676 0.9249413844802079
vn 0.13086680191418806 0.34851840509777676 0.928121113575623
vn 0.17315350093725826 0.3462316018741081 0.9220312049908398
vn 0.20861460562658007 0.392406710583668 0.8958219241613657
vn 0.22563850367428498 0.4541915073960294 0.8618569140344308
vn 0.2170210048881573 0.5262429118530373 0.8221741185185597
vn 0.17711089837213742 0.6003341944822053 0.7798913928318586
vn 0.10371099373517736 0.6655274597977866 0.7391327553515453
vn 0 0.679083205201801 0.7340613056229355
vn -0.13086680191418806 0.34851840509777676 0.928121113575623
vn -0.17315350093725826 0.3462316018741081 0.9220312049908398
vn -0.08254117665872117 0.39444148403295115 0.9152064629523095
vn -0.09293752807529164 0.3694678923484304 0.9245842808521367
vn -0.20861460562658007 0.392406710583668 0.8958219241613657
vn -0.12099199840596614 0.2940645961257855 0.9480964875091087
vn -0.03910203029208257 0.4382666032737437 0.8979941067077957
vn -0.22563850367428498 0.4541915073960294 0.8618569140344308
vn -0.030510050629350614 0.43112690889313426 0.9017753186015047
vn -0.2170210048881573 0.5262429118530373 0.8221741185185597
vn -0.17711089837213742 0.6003341944822053 0.7798913928318586
vn -0.10371099373517736 0.6655274597977866 0.7391327553515453
vn 0.026412159281569265 0.43797458808675926 0.8985992755574193
vn 0.000013753250333050903 0.4292363103944547 0.9031922218718469
vn 0.03503923940111988 0.3955168932399442 0.9177900843134086
vn 0.07547460125081001 0.40723420674892746 0.9101999150843748
vn 0.08860322593144837 0.38055138252554627 0.9205053577315213
vn 0.09521809719619509 0.35220288962898605 0.9310674725836621
vn 0.1269155943331928 0.31865078577217715 0.9393370580584087
vn 0.16792140279632461 0.3067142051075826 0.9368718156013331
vn 0.21511760476788705 0.3433114076091865 0.9142547202636288
vn 0.24892008991743472 0.398344883864949 0.8828137642414263
vn 0.2617520992595478 0.4683389986751484 0.8438864976127886
vn 0.2465591980972016 0.5474142957753793 0.7997162938282616
vn 0.1980022104212991 0.626747532987124 0.7536462396660871
vn 0.11446349696584573 0.6948186815820141 0.710017681179125
vn 0 0.7097809054968768 0.704422505455379
vn -0.1269155943331928 0.31865078577217715 0.9393370580584087
vn -0.16792140279632461 0.3067142051075826 0.9368718156013331
vn -0.09521809719619509 0.35220288962898605 0.9310674725836621
vn -0.21511760476788705 0.3433114076091865 0.9142547202636288
vn -0.06137847026442732 0.3730609016072 0.92577440398837
vn -0.04768777942772832 0.40150379518179996 0.9146149890242687
vn -0.09451373942479659 0.40547589753230434 0.9092064944666387
vn -0.24892008991743472 0.398344883864949 0.8828137642414263
vn -0.12608380133898667 0.31948320339285236 0.9391663099737727
vn -0.00004943614319586034 0.4982960322129603 0.8670069560487321
vn -0.003173939073176982 0.4328678099800149 0.9014518207834877
vn -0.2617520992595478 0.4683389986751484 0.8438864976127886
vn -0.2465591980972016 0.5474142957753793 0.7997162938282616
vn -0.1980022104212991 0.626747532987124 0.7536462396660871
vn -0.11446349696584573 0.6948186815820141 0.710017681179125
vn -0.000013753250333050903 -0.4292363103944547 -0.9031922218718469
vn -0.0005382161985584477 0.5000282986607295 0.8660088976804915
vn 0.000013711250348914865 0.49846361268457345 0.8669106220605705
vn 0.021436720481682166 0.4363537098048485 0.8995198202121709
vn 0.003741453958961948 0.4366773952103138 0.8996103901326442
vn -0.09257155391265473 0.39426581666414706 0.9143221386449908
vn 0.09265806929031449 0.3939643969825527 0.9144432929961077
vn 0.0351382813322657 0.3955154149959416 0.9177869347978334
vn 0.06137847026442732 0.3730609016072 0.92577440398837
vn 0.016418050933420216 0.3629649206357498 0.9316581529678317
vn 0 0.3590851074070189 0.933304819251722
vn 0.09175205906966148 0.3260039966944165 0.9409053904595001
vn 0.11506040252499077 0.2901715063677889 0.950032420848381
vn 0.15222529778706892 0.26903969608891326 0.9510231861747764
vn 0.20861460464267112 0.2942180065477553 0.9326927207568668
vn 0.2566817047018006 0.33976360622366386 0.9048067165739149
vn 0.2887641009637026 0.4035536013467934 0.8681934028974524
vn 0.2973817892362336 0.48162868256739705 0.8243772701615747
vn 0.2756435014232729 0.5675840029306943 0.77580220400582
vn 0.21853019310726393 0.6520156794345487 0.7260303771000259
vn 0.125006602082085 0.7228422120395154 0.679612011319482
vn 0 0.739184113488495 0.6735034122899659
vn -0.11506040252499077 0.2901715063677889 0.950032420848381
vn -0.15222529778706892 0.26903969608891326 0.9510231861747764
vn -0.10470550022795122 0.3248460007072123 0.9399531020463439
vn -0.20861460464267112 0.2942180065477553 0.9326927207568668
vn -0.2566817047018006 0.33976360622366386 0.9048067165739149
vn -0.05346643871109864 0.3867351906770764 0.9206395778063843
vn -0.08627136189677342 0.4169118091662772 0.9048435198940078
vn -0.2887641009637026 0.4035536013467934 0.8681934028974524
vn -0.11794430065136037 0.30365730167698063 0.9454530052213682
vn -0.2973817892362336 0.48162868256739705 0.8243772701615747
vn -0.2756435014232729 0.5675840029306943 0.77580220400582
vn -0.21853019310726393 0.6520156794345487 0.7260303771000259
vn -0.125006602082085 0.7228422120395154 0.679612011319482
vn -0.015791110443360682 -0.3957416111110785 -0.9182261257806672
vn 0.0441454219239214 0.3807097165918804 0.9236402402535792
vn 0.05346643871109864 0.3867351906770764 0.9206395778063843
vn 0.0653372715235857 0.3432403080039463 0.936972321849055
vn 0.08490438198156963 0.30952950722405886 0.9470917221040205
vn 0.09575962205433722 0.26463570567724626 0.9595822205859781
vn 0.12622540584664102 0.2353607109016846 0.9636765446365831
vn 0.18910719315972818 0.24741859105052308 0.9502749656272247
vn 0.24892010732055378 0.28118550826945476 0.9268082272567353
vn 0.29776959797824415 0.3355948977214228 0.8937053939320397
vn 0.3280734030697418 0.40802380381782755 0.8519885079719501
vn 0.3324626015833848 0.49403660235289615 0.8033657038261057
vn 0.3042207145235672 0.5867153280099251 0.7504764358279186
vn 0.23865770086522722 0.6760928024511 0.6970947025272403
vn 0 0.752284311706879 0.6588386102526984
vn 0.12979339750875787 0.7353258858862247 0.6651687872328137
vn -0.09575962205433722 0.26463570567724626 0.9595822205859781
vn -0.12622540584664102 0.2353607109016846 0.9636765446365831
vn -0.08254118139808286 0.3054452051736319 0.9486254160678212
vn -0.18910719315972818 0.24741859105052308 0.9502749656272247
vn -0.0653372715235857 0.3432403080039463 0.936972321849055
vn -0.24892010732055378 0.28118550826945476 0.9268082272567353
vn -0.29776959797824415 0.3355948977214228 0.8937053939320397
vn -0.3280734030697418 0.40802380381782755 0.8519885079719501
vn -0.06883006221754069 0.4740046152712997 0.8778280282815288
vn -0.3324626015833848 0.49403660235289615 0.8033657038261057
vn -0.3042207145235672 0.5867153280099251 0.7504764358279186
vn -0.23865770086522722 0.6760928024511 0.6970947025272403
vn -0.12979339750875787 0.7353258858862247 0.6651687872328137
vn -0.0441454219239214 -0.3807097165918804 -0.9236402402535792
vn 0.06137847001351459 0.3284972000723298 0.9425085002075259
vn 0 0.2870413020384336 0.9579182068026897
vn -0.005920368924847322 0.2938464962699364 0.9558342878667179
vn 0.06858488032187077 0.2438082011441985 0.9673953045400131
vn 0.09068322730014441 0.20826119379956817 0.973860271005861
vn 0.1567991008044884 0.2055892010548153 0.9659954049562279
vn 0.2256384944820637 0.2253481944891627 0.947789776822024
vn 0.28876410492983423 0.2676409045692148 0.9192299156932633
vn 0.33830580258513 0.33081340252787733 0.8809720067318597
vn 0.36677601602007076 0.4117476179843436 0.83422973643755
vn 0.3669303952952882 0.5055404935180556 0.780891089987563
vn 0.33223889317646776 0.6047738875791357 0.7237857851348662
vn 0.24781470371228664 0.6868063102884204 0.6832898102357431
vn -0.06858488032187077 0.2438082011441985 0.9673953045400131
vn -0.09068322730014441 0.20826119379956817 0.973860271005861
vn -0.1567991008044884 0.2055892010548153 0.9659954049562279
vn -0.06137847001351459 0.3284972000723298 0.9425085002075259
vn -0.2256384944820637 0.2253481944891627 0.947789776822024
vn -0.28876410492983423 0.2676409045692148 0.9192299156932633
vn -0.33830580258513 0.33081340252787733 0.8809720067318597
vn -0.36677601602007076 0.4117476179843436 0.83422973643755
vn -0.3669303952952882 0.5055404935180556 0.780891089987563
vn -0.33223889317646776 0.6047738875791357 0.7237857851348662
vn -0.24781470371228664 0.6868063102884204 0.6832898102357431
vn 0.05346644153433789 0.31482290903454 0.947643327194723
vn 0.04471775001924938 0.26846800011556554 0.962250100414214
vn 0.042051890815554764 0.225455404372484 0.9733455188770721
vn 0.04750353842943087 0.190493893701862 0.9805383675812931
vn 0.11264119941273554 0.17193779910358747 0.9786466948977424
vn 0.18708269693298687 0.17544569712376235 0.966549984154486
vn 0.2617520894655191 0.2028691918353214 0.9435729620249399
vn 0.3280733973251061 0.25360939793223614 0.9099725925806842
vn 0.3782160051350293 0.3254282044183305 0.8666309117662264
vn 0.4048011145348842 0.4147186148909841 0.8149506292618094
vn 0.40072230195518427 0.5161196025182249 0.7569955036934949
vn 0.3450193050890451 0.6127696090383701 0.7109677104867952
vn -0.042051890815554764 0.225455404372484 0.9733455188770721
vn -0.04750353842943087 0.190493893701862 0.9805383675812931
vn -0.04471775001924938 0.26846800011556554 0.962250100414214
vn -0.11264119941273554 0.17193779910358747 0.9786466948977424
vn -0.05346644153433789 0.31482290903454 0.947643327194723
vn -0.18708269693298687 0.17544569712376235 0.966549984154486
vn -0.2617520894655191 0.2028691918353214 0.9435729620249399
vn -0.3280733973251061 0.25360939793223614 0.9099725925806842
vn -0.3782160051350293 0.3254282044183305 0.8666309117662264
vn -0.4048011145348842 0.4147186148909841 0.8149506292618094
vn -0.40072230195518427 0.5161196025182249 0.7569955036934949
vn -0.3450193050890451 0.6127696090383701 0.7109677104867952
vn 0.03374701038140416 0.2488952028129798 0.9679423109395534
vn 0 0.20705618986819715 0.9783290521277926
vn 0 0.18428240674449187 0.9828733359718625
vn 0.059003281537594904 0.14987880390576366 0.9869422257192024
vn 0.13439149993822966 0.13530449993780977 0.9816473995488054
vn 0.2170210111646972 0.14498570745882375 0.9653398496621367
vn 0.297381787848912 0.18002309264421498 0.9376330616880983
vn 0.36677598602105793 0.2391170908865243 0.8990541657343267
vn 0.4174272138589072 0.3194495106059713 0.8507094282442128
vn 0.44207949193420454 0.4169317923930273 0.7941873855099522
vn 0.41617412580105273 0.5207146322821262 0.7454229462131008
vn -0.03374701038140416 0.2488952028129798 0.9679423109395534
vn -0.059003281537594904 0.14987880390576366 0.9869422257192024
vn -0.13439149993822966 0.13530449993780977 0.9816473995488054
vn -0.2170210111646972 0.14498570745882375 0.9653398496621367
vn -0.297381787848912 0.18002309264421498 0.9376330616880983
vn -0.36677598602105793 0.2391170908865243 0.8990541657343267
vn -0.4174272138589072 0.3194495106059713 0.8507094282442128
vn -0.44207949193420454 0.4169317923930273 0.7941873855099522
vn -0.41617412580105273 0.5207146322821262 0.7454229462131008
vn 0 0.25656379934374424 0.9665272975277537
vn 0.015149049834663251 0.24860729728669942 0.9684858894299437
vn 0 0.14216769803111579 0.9898425862916452
vn 0.07039451143767274 0.10899410222599507 0.9915467202504381
vn 0.15589449477327763 0.09842817669996821 0.9828574670474374
vn 0.24655920898300768 0.11426510416307409 0.9623679350624038
vn 0.3324625921433089 0.1568518962933064 0.9299817780228522
vn 0.40480109460679664 0.2241906970130859 0.8864956881891339
vn 0.4558678331949702 0.31288872278364693 0.8332377606739513
vn 0.4591546127233833 0.41770231157472104 0.7840292217258067
vn -0.015149049834663251 0.24860729728669942 0.9684858894299437
vn -0.07039451143767274 0.10899410222599507 0.9915467202504381
vn -0.15589449477327763 0.09842817669996821 0.9828574670474374
vn -0.24655920898300768 0.11426510416307409 0.9623679350624038
vn -0.3324625921433089 0.1568518962933064 0.9299817780228522
vn -0.40480109460679664 0.2241906970130859 0.8864956881891339
vn -0.4558678331949702 0.31288872278364693 0.8332377606739513
vn -0.4591546127233833 0.41770231157472104 0.7840292217258067
vn 0 0.09979728894453446 0.9950077894767061
vn 0.0816564839210047 0.06791415326112127 0.9943439477466957
vn 0.1771109097733752 0.06137630338688117 0.9822752542041405
vn 0.27564348868823835 0.08334030657990928 0.9576403607006879
vn 0.3669303926242571 0.13339849731852932 0.9206339814941479
vn 0.4420794797171575 0.20885809041747913 0.872321059977444
vn 0.47348598204498576 0.3096383882582337 0.8245817687311179
vn -0.0816564839210047 0.06791415326112127 0.9943439477466957
vn -0.1771109097733752 0.06137630338688117 0.9822752542041405
vn -0.27564348868823835 0.08334030657990928 0.9576403607006879
vn -0.3669303926242571 0.13339849731852932 0.9206339814941479
vn -0.4420794797171575 0.20885809041747913 0.872321059977444
vn -0.47348598204498576 0.3096383882582337 0.8245817687311179
vn 0 0.05724841796217091 0.9983599644621314
vn 0.09276870594954055 0.026714008833614966 0.9953292565420174
vn 0.19800219737559638 0.024216559679023412 0.9799023870119654
vn 0.30422068940097907 0.052267908178990664 0.9511665668614441
vn 0.4007222851548886 0.10970579593585159 0.909607766302776
vn 0.4591545960473586 0.20159179826459278 0.8651807925520739
vn -0.09276870594954055 0.026714008833614966 0.9953292565420174
vn -0.19800219737559638 0.024216559679023412 0.9799023870119654
vn -0.30422068940097907 0.052267908178990664 0.9511665668614441
vn -0.4007222851548886 0.10970579593585159 0.909607766302776
vn -0.4591545960473586 0.20159179826459278 0.8651807925520739
vn 0 0.014598580511668529 0.9998934350454776
vn 0.10371100181336079 -0.014531270254075829 0.9945013173886056
vn 0.21853020278479676 -0.012983180165448827 0.9757438124341999
vn 0.33223890605853257 0.021104800384855744 0.9429591171953027
vn 0.41617409701488234 0.09862943929255433 0.9039199935163972
vn -0.10371100181336079 -0.014531270254075829 0.9945013173886056
vn -0.21853020278479676 -0.012983180165448827 0.9757438124341999
vn -0.33223890605853257 0.021104800384855744 0.9429591171953027
vn -0.41617409701488234 0.09862943929255433 0.9039199935163972
vn 0 -0.028074590870350344 0.9996058309891267
vn 0.11446350003260171 -0.05574658001587807 0.9918621002825041
vn 0.23865769966681197 -0.05015505992997915 0.9698076986460595
vn 0.3450192819802789 0.006648321652770208 0.9385720509801121
vn -0.11446350003260171 -0.05574658001587807 0.9918621002825041
vn -0.23865769966681197 -0.05015505992997915 0.9698076986460595
vn -0.3450192819802789 0.006648321652770208 0.9385720509801121
vn 0 -0.07069342927366853 0.997498089751318
vn 0.12500659740051018 -0.09685688798587858 0.9874168794668429
vn 0.2478146948806327 -0.06730695860956998 0.9664665800346892
vn -0.12500659740051018 -0.09685688798587858 0.9874168794668429
vn -0.2478146948806327 -0.06730695860956998 0.9664665800346892
vn 0 -0.11318040615251444 0.9935744540109473
vn 0.12979340348323057 -0.11576170310666582 0.9847603264277474
vn -0.12979340348323057 -0.11576170310666582 0.9847603264277474
vn 0 -0.13269519890389478 0.9911568918127222
usemtl material_0_0
f 1//1 2//2 3//3
f 2//2 1//1 4//4
f 2//2 5//5 6//6
f 5//5 2//2 4//4
f 7//7 8//7 9//7
f 7//7 8//7 9//7
f 7//7 8//7 9//7
f 10//8 3//3 11//9
f 3//3 10//8 1//1
f 12//10 4//4 1//1
f 4//4 12//10 13//11
f 6//6 14//12 15//13
f 14//12 6//6 5//5
f 16//14 17//14 18//14
f 16//14 17//14 18//14
f 16//14 17//14 18//14
f 16//14 17//14 18//14
f 4//4 19//15 5//5
f 19//15 4//4 13//11
f 3//3 20//16 11//9
f 21//17 11//9 22//18
f 11//9 21//17 10//8
f 23//19 1//1 10//8
f 1//1 23//19 12//10
f 24//20 13//11 12//10
f 13//11 24//20 25//21
f 15//13 26//22 27//23
f 26//22 15//13 14//12
f 6//6 15//13 28//24
f 5//5 29//25 14//12
f 29//25 5//5 19//15
f 13//11 30//26 19//15
f 30//26 13//11 25//21
f 11//9 20//16 31//27
f 11//9 31//27 22//18
f 32//28 22//18 33//29
f 22//18 32//28 21//17
f 34//30 10//8 21//17
f 10//8 34//30 23//19
f 35//31 12//10 23//19
f 12//10 35//31 24//20
f 36//32 25//21 24//20
f 25//21 36//32 37//33
f 27//23 38//34 39//35
f 38//34 27//23 26//22
f 15//13 27//23 40//36
f 14//12 41//37 26//22
f 41//37 14//12 29//25
f 15//13 40//36 28//24
f 19//15 42//38 29//25
f 42//38 19//15 30//26
f 25//21 43//39 30//26
f 43//39 25//21 37//33
f 44//40 45//40 46//40
f 44//40 45//40 46//40
f 44//40 45//40 46//40
f 44//40 45//40 46//40
f 44//40 45//40 46//40
f 22//18 31//27 47//41
f 22//18 48//42 33//29
f 49//43 33//29 50//44
f 33//29 49//43 32//28
f 51//45 21//17 32//28
f 21//17 51//45 34//30
f 52//46 23//19 34//30
f 23//19 52//46 35//31
f 53//47 24//20 35//31
f 24//20 53//47 36//32
f 54//48 37//33 36//32
f 37//33 54//48 55//49
f 39//35 56//50 57//51
f 56//50 39//35 38//34
f 27//23 39//35 58//52
f 26//22 59//53 38//34
f 59//53 26//22 41//37
f 27//23 60//54 40//36
f 29//25 61//55 41//37
f 61//55 29//25 42//38
f 62//56 63//56 64//56
f 62//56 63//56 64//56
f 62//56 63//56 64//56
f 62//56 63//56 64//56
f 30//26 65//57 42//38
f 65//57 30//26 43//39
f 37//33 66//58 43//39
f 66//58 37//33 55//49
f 31//27 67//59 47//41
f 22//18 68//60 69//61
f 22//18 69//61 48//42
f 33//29 48//42 70//62
f 33//29 71//63 50//44
f 49//43 72//64 73//65
f 72//64 49//43 50//44
f 74//66 32//28 49//43
f 32//28 74//66 51//45
f 75//67 34//30 51//45
f 34//30 75//67 52//46
f 76//68 35//31 52//46
f 35//31 76//68 53//47
f 77//69 36//32 53//47
f 36//32 77//69 54//48
f 78//70 55//49 54//48
f 55//49 78//70 79//71
f 80//72 56//50 81//73
f 56//50 80//72 57//51
f 82//74 57//51 83//75
f 57//51 82//74 39//35
f 38//34 84//76 56//50
f 84//76 38//34 59//53
f 39//35 85//77 58//52
f 27//23 58//52 86//78
f 41//37 87//79 59//53
f 87//79 41//37 61//55
f 27//23 86//78 60//54
f 40//36 60//54 88//80
f 42//38 89//81 61//55
f 89//81 42//38 65//57
f 43//39 90//82 65//57
f 90//82 43//39 66//58
f 55//49 91//83 66//58
f 91//83 55//49 79//71
f 92//84 93//84 94//84
f 92//84 93//84 94//84
f 95//85 96//85 97//85
f 96//85 95//85 98//85
f 99//86 100//86 101//86
f 99//86 100//86 101//86
f 99//86 100//86 101//86
f 33//29 70//62 102//87
f 33//29 103//88 71//63
f 50//44 104//89 72//64
f 104//89 50//44 71//63
f 73//65 105//90 106//91
f 105//90 73//65 72//64
f 74//66 73//65 107//92
f 73//65 74//66 49//43
f 108//93 51//45 74//66
f 51//45 108//93 75//67
f 109//94 52//46 75//67
f 52//46 109//94 76//68
f 110//95 53//47 76//68
f 53//47 110//95 77//69
f 111//96 54//48 77//69
f 54//48 111//96 78//70
f 112//97 79//71 78//70
f 79//71 112//97 113//98
f 114//99 81//73 115//100
f 81//73 114//99 80//72
f 116//101 57//51 80//72
f 57//51 116//101 83//75
f 81//73 84//76 117//102
f 84//76 81//73 56//50
f 118//103 119//103 120//103
f 119//103 118//103 121//103
f 122//103 123//103 124//103
f 123//103 122//103 125//103
f 126//104 39//35 82//74
f 39//35 126//104 127//105
f 59//53 128//106 84//76
f 128//106 59//53 87//79
f 39//35 129//107 85//77
f 130//108 131//108 132//108
f 131//108 130//108 133//108
f 134//108 135//108 136//108
f 135//108 134//108 137//108
f 86//78 58//52 138//109
f 61//55 139//110 87//79
f 139//110 61//55 89//81
f 60//54 86//78 88//80
f 65//57 140//111 89//81
f 140//111 65//57 90//82
f 66//58 141//112 90//82
f 141//112 66//58 91//83
f 79//71 142//113 91//83
f 142//113 79//71 113//98
f 143//114 144//114 145//114
f 144//114 143//114 146//114
f 143//114 144//114 145//114
f 144//114 143//114 146//114
f 143//114 144//114 145//114
f 144//114 143//114 146//114
f 88//80 86//78 138//109
f 147//115 148//115 149//115
f 150//86 151//86 152//86
f 153//116 154//116 155//116
f 156//117 157//117 158//117
f 159//118 160//118 161//118
f 151//86 162//86 163//86
f 164//119 165//119 166//119
f 167//120 168//120 169//120
f 170//121 171//121 172//121
f 70//62 126//104 102//87
f 33//29 102//87 103//88
f 71//63 173//122 174//123
f 173//122 71//63 103//88
f 71//63 175//124 104//89
f 175//124 71//63 174//123
f 72//64 176//125 105//90
f 176//125 72//64 104//89
f 106//91 177//126 178//127
f 177//126 106//91 105//90
f 107//92 106//91 179//128
f 106//91 107//92 73//65
f 108//93 107//92 180//129
f 107//92 108//93 74//66
f 181//130 75//67 108//93
f 75//67 181//130 109//94
f 182//131 76//68 109//94
f 76//68 182//131 110//95
f 183//132 77//69 110//95
f 77//69 183//132 111//96
f 184//133 78//70 111//96
f 78//70 184//133 112//97
f 113//98 185//134 186//135
f 185//134 113//98 112//97
f 187//136 115//100 188//137
f 115//100 187//136 114//99
f 189//138 80//72 114//99
f 80//72 189//138 116//101
f 115//100 117//102 190//139
f 117//102 115//100 81//73
f 175//124 83//75 116//101
f 83//75 175//124 174//123
f 117//102 128//106 191//140
f 128//106 117//102 84//76
f 126//104 82//74 192//141
f 193//142 127//105 126//104
f 39//35 127//105 129//107
f 87//79 194//143 128//106
f 194//143 87//79 139//110
f 85//77 129//107 195//144
f 89//81 196//145 139//110
f 196//145 89//81 140//111
f 90//82 197//146 140//111
f 197//146 90//82 141//112
f 91//83 198//147 141//112
f 198//147 91//83 142//113
f 142//113 186//135 199//148
f 186//135 142//113 113//98
f 200//149 201//149 202//149
f 203//150 204//150 205//150
f 70//62 193//142 126//104
f 206//151 207//151 208//151
f 206//151 207//151 208//151
f 206//151 207//151 208//151
f 209//152 210//152 211//152
f 210//152 209//152 212//152
f 213//152 214//152 215//152
f 214//152 213//152 216//152
f 105//90 217//153 177//126
f 217//153 105//90 176//125
f 178//127 218//154 219//155
f 218//154 178//127 177//126
f 179//128 178//127 220//156
f 178//127 179//128 106//91
f 180//129 179//128 221//157
f 179//128 180//129 107//92
f 181//130 180//129 222//158
f 180//129 181//130 108//93
f 223//159 109//94 181//130
f 109//94 223//159 182//131
f 224//160 110//95 182//131
f 110//95 224//160 183//132
f 225//161 111//96 183//132
f 111//96 225//161 184//133
f 226//162 112//97 184//133
f 112//97 226//162 185//134
f 185//134 227//163 186//135
f 227//163 185//134 228//164
f 229//165 188//137 230//166
f 188//137 229//165 187//136
f 231//167 114//99 187//136
f 114//99 231//167 189//138
f 188//137 190//139 232//168
f 190//139 188//137 115//100
f 233//169 234//169 235//169
f 234//169 233//169 236//169
f 237//169 238//169 239//169
f 238//169 237//169 240//169
f 190//139 191//140 241//170
f 191//140 190//139 117//102
f 191//140 194//143 242//171
f 194//143 191//140 128//106
f 129//107 127//105 193//142
f 139//110 243//172 194//143
f 243//172 139//110 196//145
f 244//173 245//173 246//173
f 244//173 245//173 246//173
f 140//111 247//174 196//145
f 247//174 140//111 197//146
f 141//112 248//175 197//146
f 248//175 141//112 198//147
f 142//113 249//176 198//147
f 249//176 142//113 199//148
f 199//148 227//163 250//177
f 227//163 199//148 186//135
f 251//178 252//178 253//178
f 251//178 252//178 253//178
f 251//178 252//178 253//178
f 176//125 254//179 217//153
f 254//179 176//125 255//179
f 177//126 256//180 218//154
f 256//180 177//126 217//153
f 256//180 217//153 257//181
f 219//155 258//182 259//183
f 258//182 219//155 218//154
f 220//156 219//155 260//184
f 219//155 220//156 178//127
f 221//157 220//156 261//185
f 220//156 221//157 179//128
f 222//158 221//157 262//186
f 221//157 222//158 180//129
f 223//159 222//158 263//187
f 222//158 223//159 181//130
f 264//188 182//131 223//159
f 182//131 264//188 224//160
f 265//189 183//132 224//160
f 183//132 265//189 225//161
f 266//190 184//133 225//161
f 184//133 266//190 226//162
f 226//162 228//164 185//134
f 228//164 226//162 267//191
f 268//192 230//166 269//193
f 230//166 268//192 229//165
f 256//180 187//136 229//165
f 187//136 256//180 231//167
f 231//167 256//180 257//181
f 230//166 232//168 270//194
f 232//168 230//166 188//137
f 271//195 272//195 273//195
f 272//195 271//195 274//195
f 275//195 276//195 277//195
f 276//195 275//195 278//195
f 232//168 241//170 279//196
f 241//170 232//168 190//139
f 241//170 242//171 280//197
f 242//171 241//170 191//140
f 242//171 243//172 281//198
f 243//172 242//171 194//143
f 196//145 282//199 243//172
f 282//199 196//145 247//174
f 197//146 283//200 247//174
f 283//200 197//146 248//175
f 198//147 284//201 248//175
f 284//201 198//147 249//176
f 249//176 250//177 285//202
f 250//177 249//176 199//148
f 286//203 287//203 288//203
f 286//203 287//203 288//203
f 256//180 289//204 218//154
f 289//204 258//182 218//154
f 259//183 290//205 291//206
f 290//205 259//183 258//182
f 260//184 259//183 292//207
f 259//183 260//184 219//155
f 261//185 260//184 293//208
f 260//184 261//185 220//156
f 262//186 261//185 294//209
f 261//185 262//186 221//157
f 263//187 262//186 295//210
f 262//186 263//187 222//158
f 264//188 263//187 296//211
f 263//187 264//188 223//159
f 297//212 224//160 264//188
f 224//160 297//212 265//189
f 298//213 225//161 265//189
f 225//161 298//213 266//190
f 299//214 226//162 266//190
f 226//162 299//214 267//191
f 300//215 269//193 301//216
f 269//193 300//215 268//192
f 302//217 229//165 268//192
f 269//193 270//194 303//218
f 270//194 269//193 230//166
f 256//180 229//165 302//217
f 304//219 231//167 257//181
f 270//194 279//196 305//220
f 279//196 270//194 232//168
f 279//196 280//197 306//221
f 280//197 279//196 241//170
f 280//197 281//198 307//222
f 281//198 280//197 242//171
f 281//198 282//199 308//223
f 282//199 281//198 243//172
f 247//174 309//224 282//199
f 309//224 247//174 283//200
f 248//175 310//225 283//200
f 310//225 248//175 284//201
f 249//176 311//226 284//201
f 311//226 249//176 285//202
f 256//180 302//217 289//204
f 289//204 312//227 258//182
f 312//227 290//205 258//182
f 291//206 313//228 314//229
f 313//228 291//206 290//205
f 292//207 291//206 315//230
f 291//206 292//207 259//183
f 293//208 292//207 316//231
f 292//207 293//208 260//184
f 294//209 293//208 317//232
f 293//208 294//209 261//185
f 295//210 294//209 318//233
f 294//209 295//210 262//186
f 296//211 295//210 319//234
f 295//210 296//211 263//187
f 297//212 296//211 320//235
f 296//211 297//212 264//188
f 321//236 265//189 297//212
f 265//189 321//236 298//213
f 322//237 266//190 298//213
f 266//190 322//237 299//214
f 313//228 301//216 314//229
f 301//216 313//228 300//215
f 323//238 268//192 300//215
f 301//216 303//218 324//239
f 303//218 301//216 269//193
f 302//217 268//192 323//238
f 303//218 305//220 325//240
f 305//220 303//218 270//194
f 305//220 306//221 326//241
f 306//221 305//220 279//196
f 306//221 307//222 327//242
f 307//222 306//221 280//197
f 307//222 308//223 328//243
f 308//223 307//222 281//198
f 308//223 309//224 329//244
f 309//224 308//223 282//199
f 283//200 330//245 309//224
f 330//245 283//200 310//225
f 284//201 331//246 310//225
f 331//246 284//201 311//226
f 332//247 333//247 334//247
f 332//247 333//247 334//247
f 332//247 333//247 334//247
f 335//248 336//248 337//248
f 335//248 336//248 337//248
f 335//248 336//248 337//248
f 335//248 336//248 337//248
f 335//248 336//248 337//248
f 315//230 314//229 338//249
f 314//229 315//230 291//206
f 316//231 315//230 339//250
f 315//230 316//231 292//207
f 317//232 316//231 340//251
f 316//231 317//232 293//208
f 318//233 317//232 341//252
f 317//232 318//233 294//209
f 319//234 318//233 342//253
f 318//233 319//234 295//210
f 320//235 319//234 343//254
f 319//234 320//235 296//211
f 321//236 320//235 344//255
f 320//235 321//236 297//212
f 345//256 298//213 321//236
f 298//213 345//256 322//237
f 346//257 347//257 348//257
f 346//257 347//257 348//257
f 346//257 347//257 348//257
f 346//257 347//257 348//257
f 314//229 324//239 338//249
f 324//239 314//229 301//216
f 324//239 325//240 349//258
f 325//240 324//239 303//218
f 325//240 326//241 350//259
f 326//241 325//240 305//220
f 326//241 327//242 351//260
f 327//242 326//241 306//221
f 327//242 328//243 352//261
f 328//243 327//242 307//222
f 328//243 329//244 353//262
f 329//244 328//243 308//223
f 329//244 330//245 354//263
f 330//245 329//244 309//224
f 310//225 355//264 330//245
f 355//264 310//225 331//246
f 339//250 338//249 356//265
f 338//249 339//250 315//230
f 340//251 339//250 357//266
f 339//250 340//251 316//231
f 341//252 340//251 358//267
f 340//251 341//252 317//232
f 342//253 341//252 359//268
f 341//252 342//253 318//233
f 343//254 342//253 360//269
f 342//253 343//254 319//234
f 344//255 343//254 361//270
f 343//254 344//255 320//235
f 345//256 344//255 362//271
f 344//255 345//256 321//236
f 338//249 349//258 356//265
f 349//258 338//249 324//239
f 349//258 350//259 363//272
f 350//259 349//258 325//240
f 350//259 351//260 364//273
f 351//260 350//259 326//241
f 351//260 352//261 365//274
f 352//261 351//260 327//242
f 352//261 353//262 366//275
f 353//262 352//261 328//243
f 353//262 354//263 367//276
f 354//263 353//262 329//244
f 354//263 355//264 368//277
f 355//264 354//263 330//245
f 357//266 356//265 369//278
f 356//265 357//266 339//250
f 358//267 357//266 370//279
f 357//266 358//267 340//251
f 359//268 358//267 371//280
f 358//267 359//268 341//252
f 360//269 359//268 372//281
f 359//268 360//269 342//253
f 361//270 360//269 373//282
f 360//269 361//270 343//254
f 362//271 361//270 374//283
f 361//270 362//271 344//255
f 356//265 363//272 369//278
f 363//272 356//265 349//258
f 363//272 364//273 375//284
f 364//273 363//272 350//259
f 364//273 365//274 376//285
f 365//274 364//273 351//260
f 365//274 366//275 377//286
f 366//275 365//274 352//261
f 366//275 367//276 378//287
f 367//276 366//275 353//262
f 367//276 368//277 379//288
f 368//277 367//276 354//263
f 370//279 369//278 380//289
f 369//278 370//279 357//266
f 371//280 370//279 381//290
f 370//279 371//280 358//267
f 372//281 371//280 382//291
f 371//280 372//281 359//268
f 373//282 372//281 383//292
f 372//281 373//282 360//269
f 374//283 373//282 384//293
f 373//282 374//283 361//270
f 369//278 375//284 380//289
f 375//284 369//278 363//272
f 375//284 376//285 385//294
f 376//285 375//284 364//273
f 376//285 377//286 386//295
f 377//286 376//285 365//274
f 377//286 378//287 387//296
f 378//287 377//286 366//275
f 378//287 379//288 388//297
f 379//288 378//287 367//276
f 381//290 380//289 389//298
f 380//289 381//290 370//279
f 382//291 381//290 390//299
f 381//290 382//291 371//280
f 383//292 382//291 391//300
f 382//291 383//292 372//281
f 384//293 383//292 392//301
f 383//292 384//293 373//282
f 380//289 385//294 389//298
f 385//294 380//289 375//284
f 385//294 386//295 393//302
f 386//295 385//294 376//285
f 386//295 387//296 394//303
f 387//296 386//295 377//286
f 387//296 388//297 395//304
f 388//297 387//296 378//287
f 390//299 389//298 396//305
f 389//298 390//299 381//290
f 391//300 390//299 397//306
f 390//299 391//300 382//291
f 392//301 391//300 398//307
f 391//300 392//301 383//292
f 389//298 393//302 396//305
f 393//302 389//298 385//294
f 393//302 394//303 399//308
f 394//303 393//302 386//295
f 394//303 395//304 400//309
f 395//304 394//303 387//296
f 397//306 396//305 401//310
f 396//305 397//306 390//299
f 398//307 397//306 402//311
f 397//306 398//307 391//300
f 396//305 399//308 401//310
f 399//308 396//305 393//302
f 399//308 400//309 403//312
f 400//309 399//308 394//303
f 402//311 401//310 404//313
f 401//310 402//311 397//306
f 401//310 403//312 404//313
f 403//312 401//310 399//308
