# SSTK version 0.8.0
# 82
mtllib original-82.mtl
o #ID613
v -0.164903 -0.276786 0.560935
v -0.132097 -0.294821 0.475242
v -0.164903 -0.276786 0.475242
v -0.137263 -0.291981 0.559623
v -0.132097 -0.294821 0.559213
v -0.195190 -0.254781 0.475242
v -0.195190 -0.254781 0.562835
v -0.097289 -0.308603 0.557222
v -0.097289 -0.308603 0.475242
v -0.222481 -0.229153 0.475242
v -0.222481 -0.229153 0.565046
v -0.061028 -0.317913 0.555877
v -0.061028 -0.317913 0.475242
v -0.246344 -0.200307 0.475242
v -0.246344 -0.200307 0.567536
v -0.023886 -0.322605 0.555199
v -0.023886 -0.322605 0.475242
v -0.246896 -0.199438 0.567611
v -0.266404 -0.168698 0.475242
v -0.266404 -0.168698 0.568493
v 0.013551 -0.322605 0.475242
v 0.005267 -0.322605 0.555199
v 0.013551 -0.322605 0.555199
v -0.282344 -0.134824 0.475242
v -0.282344 -0.134824 0.569466
v 0.050693 -0.317913 0.475242
v 0.050693 -0.317913 0.555877
v -0.293913 -0.099219 0.570065
v -0.291518 -0.106590 0.570277
v -0.293913 -0.099219 0.475242
v 0.086954 -0.308603 0.475242
v 0.086954 -0.308603 0.557222
v -0.295904 -0.088782 0.569765
v -0.295904 -0.088782 0.475242
v 0.121762 -0.294821 0.475242
v 0.121762 -0.294821 0.559213
v -0.295904 -0.088782 0.475242
v -0.300928 -0.062445 0.569010
v -0.295904 -0.088782 0.569765
v -0.300928 -0.062445 0.475242
v 0.126928 -0.291981 0.559623
v 0.154569 -0.276786 0.475242
v 0.154569 -0.276786 0.560935
v -0.303278 -0.025082 0.567937
v -0.303278 -0.025082 0.475242
v 0.184856 -0.254781 0.562835
v 0.184856 -0.254781 0.475242
v -0.302565 -0.013741 0.567611
v -0.300928 0.012281 0.565365
v -0.300928 0.012281 0.475242
v 0.212146 -0.229153 0.565046
v 0.212146 -0.229153 0.475242
v -0.293913 0.049055 0.562192
v -0.293913 0.049055 0.475242
v 0.236010 -0.200307 0.475242
v 0.236010 -0.200307 0.567536
v -0.284247 0.078802 0.559623
v -0.282344 0.084660 0.558777
v -0.282344 0.084660 0.475242
v 0.256069 -0.168698 0.475242
v 0.236561 -0.199438 0.567611
v 0.256069 -0.168698 0.568493
v -0.266404 0.118534 0.553883
v -0.266404 0.118534 0.475242
v 0.272009 -0.134824 0.475242
v 0.272009 -0.134824 0.569466
v -0.246344 0.150143 0.549316
v -0.246344 0.150143 0.475242
v 0.283578 -0.099219 0.570065
v 0.281183 -0.106590 0.570277
v 0.283578 -0.099219 0.475242
v -0.229310 0.170734 0.546341
v -0.222481 0.178989 0.544660
v -0.222481 0.178989 0.475242
v 0.285569 -0.088782 0.569765
v 0.285569 -0.088782 0.475242
v -0.195190 0.204616 0.539441
v -0.195190 0.204616 0.475242
v 0.290593 -0.062445 0.569010
v 0.285569 -0.088782 0.475242
v 0.285569 -0.088782 0.569765
v 0.290593 -0.062445 0.475242
v -0.164903 0.226621 0.475242
v -0.164903 0.226621 0.534960
v 0.292944 -0.025082 0.567937
v 0.292944 -0.025082 0.475242
v -0.132097 0.244657 0.475242
v -0.132097 0.244657 0.531287
v 0.292230 -0.013741 0.567611
v 0.290593 0.012281 0.565365
v 0.290593 0.012281 0.475242
v -0.097289 0.258438 0.475242
v -0.097289 0.258438 0.528481
v 0.283578 0.049055 0.562192
v 0.283578 0.049055 0.475242
v -0.084381 0.261752 0.527806
v -0.061028 0.267749 0.475242
v -0.061028 0.267749 0.526222
v 0.273913 0.078802 0.559623
v 0.272009 0.084660 0.558777
v 0.272009 0.084660 0.475242
v -0.023886 0.272441 0.475242
v -0.023886 0.272441 0.524982
v 0.256069 0.118534 0.553883
v 0.256069 0.118534 0.475242
v 0.013551 0.272441 0.475242
v 0.005267 0.272441 0.524982
v 0.013551 0.272441 0.524982
v 0.236010 0.150143 0.549316
v 0.236010 0.150143 0.475242
v 0.050693 0.267749 0.475242
v 0.050693 0.267749 0.526222
v 0.218976 0.170734 0.546341
v 0.212146 0.178989 0.544660
v 0.212146 0.178989 0.475242
v 0.086954 0.258438 0.475242
v 0.074046 0.261752 0.527806
v 0.086954 0.258438 0.528481
v 0.184856 0.204616 0.539441
v 0.184856 0.204616 0.475242
v 0.121762 0.244657 0.475242
v 0.121762 0.244657 0.531287
v 0.154569 0.226621 0.475242
v 0.154569 0.226621 0.534960
vt 20.08623 -3.964697
vt 20.98794 -4.572425
vt 20.98794 -3.964697
vt 20.10003 -4.476728
vt 20.10435 -4.572425
vt 20.08623 -2.786698
vt 20.98794 -2.17897
vt 20.06625 -2.17897
vt 20.98794 -2.786698
vt 20.1253 -6.290835
vt 20.98794 -5.683107
vt 20.10435 -5.683107
vt 20.98794 -6.290835
vt 20.06625 -0.9618147
vt 20.98794 -0.3540869
vt 20.04297 -0.3540869
vt 20.98794 -0.9618147
vt 20.13946 -7.914826
vt 20.98794 -7.307098
vt 20.1253 -7.307098
vt 20.98794 -7.914826
vt 20.04297 0.8734446
vt 20.98794 1.481172
vt 20.01677 1.481172
vt 20.98794 0.8734446
vt 20.14659 -9.418788
vt 20.98794 -8.81106
vt 20.13946 -8.81106
vt 20.98794 -9.418788
vt 20.01599 2.706846
vt 20.98794 3.297865
vt 20.0067 3.297865
vt 20.01677 2.690137
vt 20.98794 2.690137
vt 6.593106 31.08042
vt 6.98704 32.37838
vt 6.593106 32.37838
vt 6.899867 31.08042
vt 6.98704 31.08042
vt 20.0067 4.459612
vt 20.98794 5.06734
vt 19.99647 5.06734
vt 20.98794 4.459612
vt -20.14659 11.36629
vt -20.98794 11.97402
vt -20.98794 11.36629
vt -20.13946 11.97402
vt 19.99647 6.153965
vt 19.99017 6.761693
vt 19.98794 6.635889
vt 20.98794 6.761693
vt 20.98794 6.153965
vt -20.13946 12.37726
vt -20.98794 12.98499
vt -20.98794 12.37726
vt -20.1253 12.98499
vt 20.98794 7.746473
vt 19.99332 7.918957
vt 19.99017 7.746473
vt 20.98794 7.918957
vt -20.1253 13.18824
vt -20.98794 13.79597
vt -20.98794 13.18824
vt -20.10435 13.79597
vt 20.00127 8.354201
vt 20.98794 8.354201
vt -20.10003 13.88214
vt -20.98794 13.78644
vt -20.10435 13.78644
vt -20.98794 14.39417
vt -20.08623 14.39417
vt 20.98794 9.212023
vt 20.01256 9.819751
vt 20.00127 9.212023
vt 20.98794 9.819751
vt -20.06625 14.77016
vt -20.98794 14.16243
vt -20.08623 14.16243
vt -20.98794 14.77016
vt 20.98794 10.5275
vt 20.01599 10.71197
vt 20.01256 10.5275
vt 20.03962 11.13523
vt 20.98794 11.13523
vt -20.04297 14.91801
vt -20.98794 14.31028
vt -20.06625 14.31028
vt -20.98794 14.91801
vt 20.98794 11.67216
vt 20.07302 12.27989
vt 20.03962 11.67216
vt 20.98794 12.27989
vt -20.98794 14.83538
vt -20.04297 14.22765
vt -20.01677 14.83538
vt -20.98794 14.22765
vt 20.98794 12.62796
vt 20.10003 13.13569
vt 20.07302 12.62796
vt 20.10894 13.23568
vt 20.98794 13.23568
vt -20.98794 14.52358
vt -20.01599 13.93257
vt -20.0067 14.52358
vt -20.01677 13.91586
vt -20.98794 13.91586
vt 20.98794 13.37981
vt 20.16044 13.98753
vt 20.10894 13.37981
vt 20.98794 13.98753
vt -20.98794 13.98753
vt -20.0067 13.37981
vt -19.99647 13.98753
vt -20.98794 13.37981
vt 20.98794 13.91586
vt 20.2085 14.52358
vt 20.16044 13.91586
vt 20.98794 14.52358
vt -19.99017 13.23568
vt -19.99647 12.62796
vt -19.98794 13.10988
vt -20.98794 13.23568
vt -20.98794 12.62796
vt 20.98794 14.22765
vt 20.2398 14.66146
vt 20.2085 14.22765
vt 20.25749 14.83538
vt 20.98794 14.83538
vt -19.99332 11.84465
vt -20.98794 11.67216
vt -19.99017 11.67216
vt -20.98794 11.84465
vt 20.98794 14.31028
vt 20.3124 14.91801
vt 20.25749 14.31028
vt 20.98794 14.91801
vt -20.00127 12.27989
vt -20.98794 12.27989
vt 20.98794 14.77016
vt 20.3124 14.16243
vt 20.98794 14.16243
vt 20.35956 14.77016
vt -20.01256 11.13523
vt -20.98794 10.5275
vt -20.00127 10.5275
vt -20.98794 11.13523
vt 20.98794 14.39417
vt 20.35956 13.78644
vt 20.98794 13.78644
vt 20.3982 14.39417
vt -20.01599 9.396488
vt -20.98794 9.212023
vt -20.01256 9.212023
vt -20.03962 9.819751
vt -20.98794 9.819751
vt 20.98794 13.79597
vt 20.3982 13.18824
vt 20.98794 13.18824
vt 20.42773 13.79597
vt -20.07302 8.354201
vt -20.98794 7.746473
vt -20.03962 7.746473
vt -20.98794 8.354201
vt 20.98794 12.37726
vt 20.43483 12.59359
vt 20.42773 12.37726
vt 20.98794 12.98499
vt 20.4515 12.98499
vt -20.10003 6.661698
vt -20.98794 6.153965
vt -20.07302 6.153965
vt -20.10894 6.761693
vt -20.98794 6.761693
vt 20.98794 11.97402
vt 20.4515 11.36629
vt 20.98794 11.36629
vt 20.46455 11.97402
vt -20.16044 5.06734
vt -20.98794 4.459612
vt -20.10894 4.459612
vt -20.98794 5.06734
vt -6.98704 32.37838
vt -6.593106 31.57093
vt -6.593106 32.37838
vt -6.899867 31.57093
vt -6.98704 31.57093
vt -20.2085 3.297865
vt -20.98794 2.690137
vt -20.16044 2.690137
vt -20.98794 3.297865
vt -20.98794 -9.418788
vt -20.46455 -8.81106
vt -20.98794 -8.81106
vt -20.4515 -9.418788
vt -20.2398 1.307249
vt -20.98794 0.8734446
vt -20.2085 0.8734446
vt -20.25749 1.481172
vt -20.98794 1.481172
vt -20.98794 -7.914826
vt -20.4515 -7.307098
vt -20.98794 -7.307098
vt -20.43483 -7.698494
vt -20.42773 -7.914826
vt -20.98794 -0.9618147
vt -20.3124 -0.3540869
vt -20.98794 -0.3540869
vt -20.25749 -0.9618147
vt -20.98794 -6.290835
vt -20.42773 -5.683107
vt -20.98794 -5.683107
vt -20.3982 -6.290835
vt -20.98794 -2.17897
vt -20.3124 -2.786698
vt -20.35956 -2.17897
vt -20.98794 -2.786698
vt -20.98794 -4.572425
vt -20.3982 -3.964697
vt -20.98794 -3.964697
vt -20.35956 -4.572425
vn 0.5373811110438644 0.8433395173316983 0
vn 0.42577928015806865 0.9048270578337482 0
vn 0.5358268100958747 0.8443279159085524 0
vn 0.4817536855645931 0.8763066737420931 0
vn 0.42798869427768416 0.9037840879161808 0
vn 0.6374240168438534 0.7705132203607198 0
vn 0.6391107292039802 0.7691147351444756 0
vn 0.31070340470417857 0.9505069143910693 0
vn 0.3090170042518809 0.9510565130859434 0
vn 0.7289686175301027 0.6845471164618626 0
vn 0.7306816912793944 0.6827182918518323 0
vn 0.18843790133805793 0.9820851069735801 0
vn 0.18738129144314172 0.9822872551433722 0
vn 0.8090169736320784 0.5877852808425821 0
vn 0.8106484992915499 0.585533099488285 0
vn 0.06315034159586864 0.9980040252205024 0
vn 0.0627905217796479 0.9980267282866925 0
vn 0.8443279159085524 0.5358268100958747 0
vn 0.8763066737420931 0.4817536855645931 0
vn 0.87679031046515 0.4808729057395788 0
vn -0.0627905217796479 0.9980267282866925 0
vn 0 1 0
vn -0.06315034159586864 0.9980040252205024 0
vn 0.9297764716058311 0.368124588757952 0
vn 0.9301684636856424 0.36713298566689906 0
vn -0.18738129144314172 0.9822872551433722 0
vn -0.18843790133805793 0.9820851069735801 0
vn 0.9683061445842533 0.24976631150012793 0
vn 0.9510565130859434 0.3090170042518809 0
vn 0.9685831604410063 0.24868988984297663 0
vn -0.3090170042518809 0.9510565130859434 0
vn -0.31070340470417857 0.9505069143910693 0
vn 0.9822872551433722 0.18738129144314172 0
vn -0.42577928015806865 0.9048270578337482 0
vn -0.42798869427768416 0.9037840879161808 0
vn 0.9919713889275114 0.12646249858841235 0
vn 0.9921147054673806 0.1253332006906906 0
vn -0.4817536855645931 0.8763066737420931 0
vn -0.5358268100958747 0.8443279159085524 0
vn -0.5373811110438644 0.8433395173316983 0
vn 0.9999993419841632 0.001147184048163594 0
vn 1 0 0
vn -0.6391107292039802 0.7691147351444756 0
vn -0.6374240168438534 0.7705132203607198 0
vn 0.9980267282866925 -0.0627905217796479 0
vn 0.9925366995381826 -0.12194629994325959 0
vn 0.9921147054673806 -0.1253332006906906 0
vn -0.7306816912793944 0.6827182918518323 0
vn -0.7289686175301027 0.6845471164618626 0
vn 0.9694061887864666 -0.24546209716063558 0
vn 0.9685831604410063 -0.24868988984297663 0
vn -0.8090169736320784 0.5877852808425821 0
vn -0.8106484992915499 0.585533099488285 0
vn 0.9510565130859434 -0.3090170042518809 0
vn 0.9317242636940883 -0.36316648584872063 0
vn 0.9297764716058311 -0.368124588757952 0
vn -0.8763066737420931 0.4817536855645931 0
vn -0.8443279159085524 0.5358268100958747 0
vn -0.87679031046515 0.4808729057395788 0
vn 0.8787143289411202 -0.4773480157218175 0
vn 0.8763066737420931 -0.4817536855645931 0
vn -0.9297764716058311 0.368124588757952 0
vn -0.9301684636856424 0.36713298566689906 0
vn 0.8117331688316832 -0.5840284775749158 0
vn 0.8090169736320784 -0.5877852808425821 0
vn -0.9683061445842533 0.24976631150012793 0
vn -0.9510565130859434 0.3090170042518809 0
vn -0.9685831604410063 0.24868988984297663 0
vn 0.7705132203607198 -0.6374240168438534 0
vn 0.7329665637981776 -0.6802646664011678 0
vn 0.7289686175301027 -0.6845471164618626 0
vn -0.9822872551433722 0.18738129144314172 0
vn 0.6413665849173926 -0.7672345819574355 0
vn 0.6374240168438534 -0.7705132203607198 0
vn -0.9919713889275114 0.12646249858841235 0
vn -0.9921147054673806 0.1253332006906906 0
vn 0.5358268100958747 -0.8443279159085524 0
vn 0.5394648240319042 -0.8420081375095058 0
vn -0.9999993419841632 0.001147184048163594 0
vn -1 0 0
vn 0.42577928015806865 -0.9048270578337482 0
vn 0.4288818876096089 -0.9033605739019269 0
vn -0.9980267282866925 -0.0627905217796479 0
vn -0.9925366995381826 -0.12194629994325959 0
vn -0.9921147054673806 -0.1253332006906906 0
vn 0.3090170042518809 -0.9510565130859434 0
vn 0.3113866054619624 -0.9502833166687059 0
vn -0.9694061887864666 -0.24546209716063558 0
vn -0.9685831604410063 -0.24868988984297663 0
vn 0.24868988984297663 -0.9685831604410063 0
vn 0.18738129144314172 -0.9822872551433722 0
vn 0.18930279243912548 -0.9819187607815372 0
vn -0.9510565130859434 -0.3090170042518809 0
vn -0.9317242636940883 -0.36316648584872063 0
vn -0.9297764716058311 -0.368124588757952 0
vn 0.0627905217796479 -0.9980267282866925 0
vn 0.06344516167039961 -0.9979853262751999 0
vn -0.8787143289411202 -0.4773480157218175 0
vn -0.8763066737420931 -0.4817536855645931 0
vn -0.0627905217796479 -0.9980267282866925 0
vn 0 -1 0
vn -0.06344516167039961 -0.9979853262751999 0
vn -0.8117331688316832 -0.5840284775749158 0
vn -0.8090169736320784 -0.5877852808425821 0
vn -0.18738129144314172 -0.9822872551433722 0
vn -0.18930279243912548 -0.9819187607815372 0
vn -0.7705132203607198 -0.6374240168438534 0
vn -0.7329665637981776 -0.6802646664011678 0
vn -0.7289686175301027 -0.6845471164618626 0
vn -0.3090170042518809 -0.9510565130859434 0
vn -0.24868988984297663 -0.9685831604410063 0
vn -0.3113866054619624 -0.9502833166687059 0
vn -0.6413665849173926 -0.7672345819574355 0
vn -0.6374240168438534 -0.7705132203607198 0
vn -0.42577928015806865 -0.9048270578337482 0
vn -0.4288818876096089 -0.9033605739019269 0
vn -0.5358268100958747 -0.8443279159085524 0
vn -0.5394648240319042 -0.8420081375095058 0
usemtl material_0_0
f 1/1/1 2/2/2 3/3/3
f 2/2/2 1/1/1 4/4/4
f 2/2/2 4/4/4 5/5/5
f 1/6/1 6/7/6 7/8/7
f 6/7/6 1/6/1 3/9/3
f 8/10/8 2/11/2 5/12/5
f 2/11/2 8/10/8 9/13/9
f 7/14/7 10/15/10 11/16/11
f 10/15/10 7/14/7 6/17/6
f 12/18/12 9/19/9 8/20/8
f 9/19/9 12/18/12 13/21/13
f 11/22/11 14/23/14 15/24/15
f 14/23/14 11/22/11 10/25/10
f 16/26/16 13/27/13 12/28/12
f 13/27/13 16/26/16 17/29/17
f 18/30/18 19/31/19 20/32/20
f 19/31/19 18/30/18 15/33/15
f 19/31/19 15/33/15 14/34/14
f 16/35/16 21/36/21 17/37/17
f 21/36/21 16/35/16 22/38/22
f 21/36/21 22/38/22 23/39/23
f 20/40/20 24/41/24 25/42/25
f 24/41/24 20/40/20 19/43/19
f 23/44/23 26/45/26 21/46/21
f 26/45/26 23/44/23 27/47/27
f 25/48/25 28/49/28 29/50/29
f 28/49/28 25/48/25 30/51/30
f 30/51/30 25/48/25 24/52/24
f 27/53/27 31/54/31 26/55/26
f 31/54/31 27/53/27 32/56/32
f 30/57/30 33/58/33 28/59/28
f 33/58/33 30/57/30 34/60/33
f 32/61/32 35/62/34 31/63/31
f 35/62/34 32/61/32 36/64/35
f 37/60/33 38/65/36 39/58/33
f 38/65/36 37/60/33 40/66/37
f 41/67/38 35/68/34 36/69/35
f 35/68/34 41/67/38 42/70/39
f 42/70/39 41/67/38 43/71/40
f 40/72/37 44/73/41 38/74/36
f 44/73/41 40/72/37 45/75/42
f 46/76/43 42/77/39 43/78/40
f 42/77/39 46/76/43 47/79/44
f 45/80/42 48/81/45 44/82/41
f 48/81/45 45/80/42 49/83/46
f 49/83/46 45/80/42 50/84/47
f 51/85/48 47/86/44 46/87/43
f 47/86/44 51/85/48 52/88/49
f 50/89/47 53/90/50 49/91/46
f 53/90/50 50/89/47 54/92/51
f 55/93/52 51/94/48 56/95/53
f 51/94/48 55/93/52 52/96/49
f 54/97/51 57/98/54 53/99/50
f 57/98/54 54/97/51 58/100/55
f 58/100/55 54/97/51 59/101/56
f 60/102/57 61/103/58 62/104/59
f 61/103/58 60/102/57 56/105/53
f 56/105/53 60/102/57 55/106/52
f 59/107/56 63/108/60 58/109/55
f 63/108/60 59/107/56 64/110/61
f 65/111/62 62/112/59 66/113/63
f 62/112/59 65/111/62 60/114/57
f 64/115/61 67/116/64 63/117/60
f 67/116/64 64/115/61 68/118/65
f 69/119/66 66/120/63 70/121/67
f 66/120/63 69/119/66 71/122/68
f 66/120/63 71/122/68 65/123/62
f 68/124/65 72/125/69 67/126/64
f 72/125/69 68/124/65 73/127/70
f 73/127/70 68/124/65 74/128/71
f 75/129/72 71/130/68 69/131/66
f 71/130/68 75/129/72 76/132/72
f 74/133/71 77/134/73 73/135/70
f 77/134/73 74/133/71 78/136/74
f 79/137/75 80/132/72 81/129/72
f 80/132/72 79/137/75 82/138/76
f 83/139/77 77/140/73 78/141/74
f 77/140/73 83/139/77 84/142/78
f 85/143/79 82/144/76 79/145/75
f 82/144/76 85/143/79 86/146/80
f 87/147/81 84/148/78 83/149/77
f 84/148/78 87/147/81 88/150/82
f 89/151/83 86/152/80 85/153/79
f 86/152/80 89/151/83 90/154/84
f 86/152/80 90/154/84 91/155/85
f 92/156/86 88/157/82 87/158/81
f 88/157/82 92/156/86 93/159/87
f 94/160/88 91/161/85 90/162/84
f 91/161/85 94/160/88 95/163/89
f 92/164/86 96/165/90 93/166/87
f 96/165/90 92/164/86 97/167/91
f 96/165/90 97/167/91 98/168/92
f 99/169/93 95/170/89 94/171/88
f 95/170/89 99/169/93 100/172/94
f 95/170/89 100/172/94 101/173/95
f 102/174/96 98/175/92 97/176/91
f 98/175/92 102/174/96 103/177/97
f 104/178/98 101/179/95 100/180/94
f 101/179/95 104/178/98 105/181/99
f 106/182/100 103/183/97 102/184/96
f 103/183/97 106/182/100 107/185/101
f 107/185/101 106/182/100 108/186/102
f 109/187/103 105/188/99 104/189/98
f 105/188/99 109/187/103 110/190/104
f 111/191/105 108/192/102 106/193/100
f 108/192/102 111/191/105 112/194/106
f 113/195/107 110/196/104 109/197/103
f 110/196/104 113/195/107 114/198/108
f 110/196/104 114/198/108 115/199/109
f 116/200/110 112/201/106 111/202/105
f 112/201/106 116/200/110 117/203/111
f 117/203/111 116/200/110 118/204/112
f 115/205/109 119/206/113 120/207/114
f 119/206/113 115/205/109 114/208/108
f 121/209/115 118/210/112 116/211/110
f 118/210/112 121/209/115 122/212/116
f 123/213/117 119/214/113 124/215/118
f 119/214/113 123/213/117 120/216/114
f 123/217/117 122/218/116 121/219/115
f 122/218/116 123/217/117 124/220/118
