# SSTK version 0.8.0
# 2
mtllib original-2.mtl
o #ID82
v -0.484170 0.392420 0.440835
v -0.480179 0.387745 0.440835
v -0.484170 0.387745 0.440835
v -0.460394 0.388133 0.440835
v -0.436657 0.389167 0.440835
v -0.412941 0.390771 0.440835
v -0.389258 0.392943 0.440835
v -0.460500 0.392883 0.440835
v -0.436843 0.393914 0.440835
v -0.365616 0.395684 0.440835
v -0.413208 0.395512 0.440835
v -0.389605 0.397678 0.440835
v -0.342025 0.398991 0.440835
v -0.366043 0.400409 0.440835
v -0.318496 0.402864 0.440835
v -0.342532 0.403705 0.440835
v -0.295036 0.407301 0.440835
v -0.319082 0.407564 0.440835
v -0.271656 0.412299 0.440835
v -0.295702 0.411986 0.440835
v -0.272402 0.416968 0.440835
v -0.248366 0.417858 0.440835
v -0.249190 0.422507 0.440835
v -0.225175 0.423974 0.440835
v -0.226077 0.428603 0.440835
v -0.202134 0.430634 0.440835
v -0.203072 0.435252 0.440835
v -0.185148 0.435511 0.440835
v -0.186039 0.440143 0.440835
v -0.168115 0.439907 0.440835
v -0.151000 0.443833 0.440835
v -0.168915 0.444563 0.440835
v -0.133814 0.447286 0.440835
v -0.155701 0.447594 0.440835
v -0.116565 0.450265 0.440835
v -0.151710 0.448509 0.440835
v -0.134433 0.451981 0.440835
v -0.099263 0.452767 0.440835
v -0.117092 0.454975 0.440835
v -0.081917 0.454791 0.440835
v -0.064536 0.456337 0.440835
v -0.099698 0.457490 0.440835
v -0.047129 0.457403 0.440835
v -0.029707 0.457989 0.440835
v -0.082260 0.459525 0.440835
v -0.012278 0.458094 0.440835
v 0.005267 0.457803 0.440835
v 0.001275 0.457803 0.440835
v 0.005267 0.462469 0.440835
v -0.064787 0.461079 0.440835
v -0.047288 0.462151 0.440835
v -0.029774 0.462740 0.440835
v -0.012252 0.462846 0.440835
v -0.012252 0.462846 0.440835
v -0.029774 0.462740 0.440835
v 0.005267 0.462469 0.440835
v -0.047288 0.462151 0.440835
v -0.064787 0.461079 0.440835
v -0.082260 0.459525 0.440835
v -0.012278 0.458094 0.440835
v 0.005267 0.457803 0.440835
v 0.001275 0.457803 0.440835
v -0.029707 0.457989 0.440835
v -0.099698 0.457490 0.440835
v -0.047129 0.457403 0.440835
v -0.064536 0.456337 0.440835
v -0.117092 0.454975 0.440835
v -0.081917 0.454791 0.440835
v -0.099263 0.452767 0.440835
v -0.134433 0.451981 0.440835
v -0.116565 0.450265 0.440835
v -0.151710 0.448509 0.440835
v -0.155701 0.447594 0.440835
v -0.133814 0.447286 0.440835
v -0.168915 0.444563 0.440835
v -0.151000 0.443833 0.440835
v -0.186039 0.440143 0.440835
v -0.168115 0.439907 0.440835
v -0.185148 0.435511 0.440835
v -0.203072 0.435252 0.440835
v -0.202134 0.430634 0.440835
v -0.226077 0.428603 0.440835
v -0.225175 0.423974 0.440835
v -0.249190 0.422507 0.440835
v -0.248366 0.417858 0.440835
v -0.272402 0.416968 0.440835
v -0.271656 0.412299 0.440835
v -0.295702 0.411986 0.440835
v -0.319082 0.407564 0.440835
v -0.295036 0.407301 0.440835
v -0.342532 0.403705 0.440835
v -0.318496 0.402864 0.440835
v -0.366043 0.400409 0.440835
v -0.342025 0.398991 0.440835
v -0.389605 0.397678 0.440835
v -0.365616 0.395684 0.440835
v -0.413208 0.395512 0.440835
v -0.436843 0.393914 0.440835
v -0.389258 0.392943 0.440835
v -0.460500 0.392883 0.440835
v -0.484170 0.392420 0.440835
v -0.412941 0.390771 0.440835
v -0.436657 0.389167 0.440835
v -0.460394 0.388133 0.440835
v -0.480179 0.387745 0.440835
v -0.484170 0.387745 0.440835
v 0.009258 0.457803 0.440835
v 0.022812 0.458094 0.440835
v 0.092794 0.459525 0.440835
v 0.075321 0.461079 0.440835
v 0.057822 0.462151 0.440835
v 0.040307 0.462740 0.440835
v 0.022786 0.462846 0.440835
v 0.470928 0.388133 0.440835
v 0.494704 0.387745 0.440835
v 0.490713 0.387745 0.440835
v 0.494704 0.392420 0.440835
v 0.447190 0.389167 0.440835
v 0.423475 0.390771 0.440835
v 0.399792 0.392943 0.440835
v 0.471034 0.392883 0.440835
v 0.447377 0.393914 0.440835
v 0.376150 0.395684 0.440835
v 0.423742 0.395512 0.440835
v 0.400138 0.397678 0.440835
v 0.352559 0.398991 0.440835
v 0.376576 0.400409 0.440835
v 0.329029 0.402864 0.440835
v 0.353066 0.403705 0.440835
v 0.305570 0.407301 0.440835
v 0.329616 0.407564 0.440835
v 0.282190 0.412299 0.440835
v 0.306236 0.411986 0.440835
v 0.282935 0.416968 0.440835
v 0.258900 0.417858 0.440835
v 0.259724 0.422507 0.440835
v 0.235708 0.423974 0.440835
v 0.236611 0.428603 0.440835
v 0.212667 0.430634 0.440835
v 0.213606 0.435252 0.440835
v 0.195682 0.435511 0.440835
v 0.196573 0.440143 0.440835
v 0.178648 0.439907 0.440835
v 0.161534 0.443833 0.440835
v 0.179449 0.444563 0.440835
v 0.144348 0.447286 0.440835
v 0.166235 0.447594 0.440835
v 0.127099 0.450265 0.440835
v 0.162244 0.448509 0.440835
v 0.144966 0.451981 0.440835
v 0.109797 0.452767 0.440835
v 0.127626 0.454975 0.440835
v 0.092450 0.454791 0.440835
v 0.075069 0.456337 0.440835
v 0.110232 0.457490 0.440835
v 0.057663 0.457403 0.440835
v 0.040241 0.457989 0.440835
v 0.022812 0.458094 0.440835
v 0.040241 0.457989 0.440835
v 0.092794 0.459525 0.440835
v 0.110232 0.457490 0.440835
v 0.057663 0.457403 0.440835
v 0.075069 0.456337 0.440835
v 0.127626 0.454975 0.440835
v 0.092450 0.454791 0.440835
v 0.109797 0.452767 0.440835
v 0.144966 0.451981 0.440835
v 0.127099 0.450265 0.440835
v 0.162244 0.448509 0.440835
v 0.166235 0.447594 0.440835
v 0.144348 0.447286 0.440835
v 0.179449 0.444563 0.440835
v 0.161534 0.443833 0.440835
v 0.196573 0.440143 0.440835
v 0.178648 0.439907 0.440835
v 0.195682 0.435511 0.440835
v 0.213606 0.435252 0.440835
v 0.212667 0.430634 0.440835
v 0.236611 0.428603 0.440835
v 0.235708 0.423974 0.440835
v 0.259724 0.422507 0.440835
v 0.258900 0.417858 0.440835
v 0.282935 0.416968 0.440835
v 0.282190 0.412299 0.440835
v 0.306236 0.411986 0.440835
v 0.329616 0.407564 0.440835
v 0.305570 0.407301 0.440835
v 0.353066 0.403705 0.440835
v 0.329029 0.402864 0.440835
v 0.376576 0.400409 0.440835
v 0.352559 0.398991 0.440835
v 0.400138 0.397678 0.440835
v 0.376150 0.395684 0.440835
v 0.423742 0.395512 0.440835
v 0.447377 0.393914 0.440835
v 0.399792 0.392943 0.440835
v 0.471034 0.392883 0.440835
v 0.494704 0.392420 0.440835
v 0.423475 0.390771 0.440835
v 0.447190 0.389167 0.440835
v 0.470928 0.388133 0.440835
v 0.494704 0.387745 0.440835
v 0.490713 0.387745 0.440835
v 0.022786 0.462846 0.440835
v 0.040307 0.462740 0.440835
v 0.057822 0.462151 0.440835
v 0.075321 0.461079 0.440835
v 0.009258 0.457803 0.440835
v 0.005267 0.457803 0.440835
v 0.001275 0.457803 0.468503
v 0.001275 0.457803 0.440835
v 0.005267 0.457803 0.468503
v 0.005267 0.457803 0.468503
v 0.005267 0.457803 0.440835
v 0.001275 0.457803 0.468503
v 0.001275 0.457803 0.440835
v -0.012278 0.458094 0.468394
v -0.012278 0.458094 0.440835
v -0.012278 0.458094 0.468394
v -0.012278 0.458094 0.440835
v -0.029707 0.457989 0.468433
v -0.029707 0.457989 0.440835
v -0.029707 0.457989 0.468433
v -0.029707 0.457989 0.440835
v -0.047129 0.457403 0.468654
v -0.047129 0.457403 0.440835
v -0.047129 0.457403 0.468654
v -0.047129 0.457403 0.440835
v -0.064536 0.456337 0.469053
v -0.064536 0.456337 0.440835
v -0.064536 0.456337 0.469053
v -0.064536 0.456337 0.440835
v -0.081917 0.454791 0.469634
v -0.081917 0.454791 0.440835
v -0.081917 0.454791 0.469634
v -0.081917 0.454791 0.440835
v -0.099263 0.452767 0.440835
v -0.099263 0.452767 0.470394
v -0.099263 0.452767 0.440835
v -0.099263 0.452767 0.470394
v -0.116565 0.450265 0.471334
v -0.116565 0.450265 0.440835
v -0.116565 0.450265 0.471334
v -0.116565 0.450265 0.440835
v -0.133814 0.447286 0.472452
v -0.133814 0.447286 0.440835
v -0.133814 0.447286 0.472452
v -0.133814 0.447286 0.440835
v -0.151000 0.443833 0.473749
v -0.151000 0.443833 0.440835
v -0.151000 0.443833 0.473749
v -0.151000 0.443833 0.440835
v -0.168115 0.439907 0.475223
v -0.168115 0.439907 0.440835
v -0.168115 0.439907 0.475223
v -0.168115 0.439907 0.440835
v -0.185148 0.435511 0.476662
v -0.185148 0.435511 0.440835
v -0.168318 0.439855 0.475242
v -0.168318 0.439855 0.475242
v -0.185148 0.435511 0.476662
v -0.185148 0.435511 0.440835
v -0.202134 0.430634 0.440835
v -0.202134 0.430634 0.478255
v -0.202134 0.430634 0.440835
v -0.202134 0.430634 0.478255
v -0.225175 0.423974 0.480430
v -0.225175 0.423974 0.440835
v -0.225175 0.423974 0.480430
v -0.225175 0.423974 0.440835
v -0.248366 0.417858 0.440835
v -0.248366 0.417858 0.482427
v -0.248366 0.417858 0.440835
v -0.248366 0.417858 0.482427
v -0.271656 0.412299 0.440835
v -0.271656 0.412299 0.484242
v -0.271656 0.412299 0.440835
v -0.271656 0.412299 0.484242
v -0.295036 0.407301 0.440835
v -0.295036 0.407301 0.485875
v -0.295036 0.407301 0.440835
v -0.295036 0.407301 0.485875
v -0.318496 0.402864 0.487324
v -0.318496 0.402864 0.440835
v -0.318496 0.402864 0.487324
v -0.318496 0.402864 0.440835
v -0.342025 0.398991 0.488588
v -0.342025 0.398991 0.440835
v -0.342025 0.398991 0.488588
v -0.342025 0.398991 0.440835
v -0.365616 0.395684 0.489669
v -0.365616 0.395684 0.440835
v -0.365616 0.395684 0.489669
v -0.365616 0.395684 0.440835
v -0.389258 0.392943 0.490564
v -0.389258 0.392943 0.440835
v -0.389258 0.392943 0.490564
v -0.389258 0.392943 0.440835
v -0.412941 0.390771 0.491274
v -0.412941 0.390771 0.440835
v -0.412941 0.390771 0.491274
v -0.412941 0.390771 0.440835
v -0.436657 0.389167 0.491798
v -0.436657 0.389167 0.440835
v -0.436657 0.389167 0.491798
v -0.436657 0.389167 0.440835
v -0.460394 0.388133 0.492136
v -0.460394 0.388133 0.440835
v -0.460394 0.388133 0.492136
v -0.460394 0.388133 0.440835
v -0.480179 0.387745 0.440835
v -0.480179 0.387745 0.492262
v -0.480179 0.387745 0.440835
v -0.480179 0.387745 0.492262
vn 0 0 -1
vn 0.04986769116002384 -0.21739140505696566 -0.9748098226760574
vn 0.0482967308352692 -0.2105431036412435 -0.976390816886219
vn 0 -1 0
vn -0.010729410410095735 -0.9999424382194467 0
vn -0.01075714043344075 -0.9999421402909745 0
vn -0.007755535196877573 -0.9999699253846637 0
vn -0.007730148169745894 -0.9999701219582883 0
vn 0.019901189039096823 -0.9998019517258556 0
vn 0.01983606091239373 -0.9998032459876693 0
vn 0.04753366174360235 -0.9988696366399596 0
vn 0.047378350730154346 -0.9988770153938326 0
vn 0.07510827879489826 -0.9971753840004616 0
vn 0.07486355897533073 -0.9971937863512524 0
vn 0.10259180416114981 -0.9947235403462411 0
vn 0.1022589018769596 -0.9947578182587551 0
vn 0.12953179593391084 -0.9915752688737934 0
vn 0.12995129714186093 -0.9915203781925754 0
vn 0.15715460206052004 -0.9875740129484978 0
vn 0.15665069506101514 -0.987654068860601 0
vn 0.1841704054138135 -0.9828943288928427 0
vn 0.1835845058696135 -0.9830039314288677 0
vn 0.21096810962351942 -0.9774929445893095 0
vn 0.2103029908637348 -0.9776362575282117 0
vn 0.2375182917105524 -0.9713830660984888 0
vn 0.23677719425391006 -0.9715639764221634 0
vn 0.2636877013557635 -0.9646081049595808 0
vn 0.26297901461594675 -0.9648015536221041 0
vn 0.24992669021637873 -0.9682647620963423 0
vn 0.27682221510922683 -0.9609211524480148 0
vn 0.27687039202759334 -0.9609072723309396 0
vn 0.26572859437288215 -0.9640478795851439 0
vn 0.26635570146528526 -0.9638748053025018 0
vn 0.24359679753994032 -0.9698765902053134 0
vn 0.24301750099808989 -0.9700219039839478 0
vn 0.22062620787889298 -0.9753584348315134 0
vn 0.22009669109373256 -0.9754780605270372 0
vn 0.19746220031208014 -0.9803105015493367 0
vn 0.19698430829598937 -0.9804066412898019 0
vn 0.17369899834269964 -0.984798790603818 0
vn 0.17412350387087958 -0.9847238218910559 0
vn 0.15026000228678824 -0.988646515046088 0
vn 0.15062959565808312 -0.9885902715037621 0
vn 0.1266873005026585 -0.9919427039357411 0
vn 0.12700070344887876 -0.99190262693648 0
vn 0.10300120325304173 -0.9946812314145802 0
vn 0.10325719888565194 -0.9946546892657215 0
vn 0.0792224669023263 -0.996856961021946 0
vn 0.0794200630200336 -0.9968412379059637 0
vn 0.05537223892765411 -0.9984657806635834 0
vn 0.05551071951454409 -0.9984580912682202 0
vn 0.031471901165864485 -0.9995046370262652 0
vn 0.0315507484598439 -0.9995021512091025 0
vn 0.019559409930415068 -0.9998086964430615 0
vn 0 0 1
vn -0.0482967308352692 0.2105431036412435 0.976390816886219
vn -0.04986769116002384 0.21739140505696566 0.9748098226760574
vn 0 1 0
vn 0.010729410410095735 0.9999424382194467 0
vn 0.01075714043344075 0.9999421402909745 0
vn 0.007755535196877573 0.9999699253846637 0
vn 0.007730148169745894 0.9999701219582883 0
vn -0.019901189039096823 0.9998019517258556 0
vn -0.01983606091239373 0.9998032459876693 0
vn -0.04753366174360235 0.9988696366399596 0
vn -0.047378350730154346 0.9988770153938326 0
vn -0.07510827879489826 0.9971753840004616 0
vn -0.07486355897533073 0.9971937863512524 0
vn -0.10259180416114981 0.9947235403462411 0
vn -0.1022589018769596 0.9947578182587551 0
vn -0.12953179593391084 0.9915752688737934 0
vn -0.12995129714186093 0.9915203781925754 0
vn -0.15715460206052004 0.9875740129484978 0
vn -0.15665069506101514 0.987654068860601 0
vn -0.1841704054138135 0.9828943288928427 0
vn -0.1835845058696135 0.9830039314288677 0
vn -0.21096810962351942 0.9774929445893095 0
vn -0.2103029908637348 0.9776362575282117 0
vn -0.2375182917105524 0.9713830660984888 0
vn -0.23677719425391006 0.9715639764221634 0
vn -0.24992669021637873 0.9682647620963423 0
vn -0.2636877013557635 0.9646081049595808 0
vn -0.26297901461594675 0.9648015536221041 0
vn -0.27682221510922683 0.9609211524480148 0
vn -0.27687039202759334 0.9609072723309396 0
vn -0.26572859437288215 0.9640478795851439 0
vn -0.26635570146528526 0.9638748053025018 0
vn -0.24359679753994032 0.9698765902053134 0
vn -0.24301750099808989 0.9700219039839478 0
vn -0.22062620787889298 0.9753584348315134 0
vn -0.22009669109373256 0.9754780605270372 0
vn -0.19746220031208014 0.9803105015493367 0
vn -0.19698430829598937 0.9804066412898019 0
vn -0.17369899834269964 0.984798790603818 0
vn -0.17412350387087958 0.9847238218910559 0
vn -0.15026000228678824 0.988646515046088 0
vn -0.15062959565808312 0.9885902715037621 0
vn -0.1266873005026585 0.9919427039357411 0
vn -0.12700070344887876 0.99190262693648 0
vn -0.10300120325304173 0.9946812314145802 0
vn -0.10325719888565194 0.9946546892657215 0
vn -0.0792224669023263 0.996856961021946 0
vn -0.0794200630200336 0.9968412379059637 0
vn -0.05537223892765411 0.9984657806635834 0
vn -0.05551071951454409 0.9984580912682202 0
vn -0.031471901165864485 0.9995046370262652 0
vn -0.0315507484598439 0.9995021512091025 0
vn -0.019559409930415068 0.9998086964430615 0
usemtl material_0_0
f 1//1 2//1 3//1
f 2//1 1//1 4//1
f 4//1 1//1 5//1
f 5//1 1//1 6//1
f 6//1 1//1 7//1
f 7//1 1//1 8//1
f 7//1 8//1 9//1
f 7//1 9//1 10//1
f 10//1 9//1 11//1
f 10//1 11//1 12//1
f 10//1 12//1 13//1
f 13//1 12//1 14//1
f 13//1 14//1 15//1
f 15//1 14//1 16//1
f 15//1 16//1 17//1
f 17//1 16//1 18//1
f 17//1 18//1 19//1
f 19//1 18//1 20//1
f 19//1 20//1 21//1
f 19//1 21//1 22//1
f 22//1 21//1 23//1
f 22//1 23//1 24//1
f 24//1 23//1 25//1
f 24//1 25//1 26//1
f 26//1 25//1 27//1
f 26//1 27//1 28//1
f 28//1 27//1 29//1
f 28//1 29//1 30//1
f 30//1 29//1 31//1
f 31//1 29//1 32//1
f 31//1 32//1 33//1
f 33//1 32//1 34//2
f 33//1 34//2 35//1
f 35//1 34//2 36//3
f 35//1 36//3 37//1
f 35//1 37//1 38//1
f 38//1 37//1 39//1
f 38//1 39//1 40//1
f 40//1 39//1 41//1
f 41//1 39//1 42//1
f 41//1 42//1 43//1
f 43//1 42//1 44//1
f 44//1 42//1 45//1
f 44//1 45//1 46//1
f 46//1 47//1 48//1
f 47//1 46//1 49//1
f 49//1 46//1 45//1
f 49//1 45//1 50//1
f 49//1 50//1 51//1
f 49//1 51//1 52//1
f 49//1 52//1 53//1
f 49//1 107//1 47//1
f 107//1 49//1 108//1
f 108//1 49//1 109//1
f 109//1 49//1 110//1
f 110//1 49//1 111//1
f 111//1 49//1 112//1
f 112//1 49//1 113//1
f 114//1 115//1 116//1
f 115//1 114//1 117//1
f 117//1 114//1 118//1
f 117//1 118//1 119//1
f 117//1 119//1 120//1
f 117//1 120//1 121//1
f 121//1 120//1 122//1
f 122//1 120//1 123//1
f 122//1 123//1 124//1
f 124//1 123//1 125//1
f 125//1 123//1 126//1
f 125//1 126//1 127//1
f 127//1 126//1 128//1
f 127//1 128//1 129//1
f 129//1 128//1 130//1
f 129//1 130//1 131//1
f 131//1 130//1 132//1
f 131//1 132//1 133//1
f 133//1 132//1 134//1
f 134//1 132//1 135//1
f 134//1 135//1 136//1
f 136//1 135//1 137//1
f 136//1 137//1 138//1
f 138//1 137//1 139//1
f 138//1 139//1 140//1
f 140//1 139//1 141//1
f 140//1 141//1 142//1
f 142//1 141//1 143//1
f 142//1 143//1 144//1
f 142//1 144//1 145//1
f 145//1 144//1 146//1
f 145//1 146//1 147//1
f 147//1 146//1 148//1
f 147//1 148//1 149//1
f 149//1 148//1 150//1
f 150//1 148//1 151//1
f 150//1 151//1 152//1
f 152//1 151//1 153//1
f 152//1 153//1 154//1
f 152//1 154//1 155//1
f 155//1 154//1 156//1
f 155//1 156//1 157//1
f 155//1 157//1 109//1
f 109//1 157//1 108//1
f 209//4 210//5 211//6
f 210//5 209//4 212//4
f 211//6 217//7 218//8
f 217//7 211//6 210//5
f 218//8 221//9 222//10
f 221//9 218//8 217//7
f 222//10 225//11 226//12
f 225//11 222//10 221//9
f 226//12 229//13 230//14
f 229//13 226//12 225//11
f 230//14 233//15 234//16
f 233//15 230//14 229//13
f 237//17 233//15 238//18
f 233//15 237//17 234//16
f 237//17 241//19 242//20
f 241//19 237//17 238//18
f 242//20 245//21 246//22
f 245//21 242//20 241//19
f 246//22 249//23 250//24
f 249//23 246//22 245//21
f 250//24 253//25 254//26
f 253//25 250//24 249//23
f 254//26 257//27 258//28
f 257//27 254//26 259//29
f 259//29 254//26 253//25
f 263//30 257//27 264//31
f 257//27 263//30 258//28
f 263//30 267//32 268//33
f 267//32 263//30 264//31
f 271//34 267//32 272//35
f 267//32 271//34 268//33
f 275//36 272//35 276//37
f 272//35 275//36 271//34
f 279//38 276//37 280//39
f 276//37 279//38 275//36
f 279//38 283//40 284//41
f 283//40 279//38 280//39
f 284//41 287//42 288//43
f 287//42 284//41 283//40
f 288//43 291//44 292//45
f 291//44 288//43 287//42
f 292//45 295//46 296//47
f 295//46 292//45 291//44
f 296//47 299//48 300//49
f 299//48 296//47 295//46
f 300//49 303//50 304//51
f 303//50 300//49 299//48
f 304//51 307//52 308//53
f 307//52 304//51 303//50
f 311//54 307//52 312//54
f 307//52 311//54 308//53
usemtl material_1_0
f 54//55 55//55 56//55
f 55//55 57//55 56//55
f 57//55 58//55 56//55
f 58//55 59//55 56//55
f 59//55 60//55 56//55
f 56//55 60//55 61//55
f 62//55 61//55 60//55
f 60//55 59//55 63//55
f 59//55 64//55 63//55
f 63//55 64//55 65//55
f 65//55 64//55 66//55
f 64//55 67//55 66//55
f 66//55 67//55 68//55
f 68//55 67//55 69//55
f 67//55 70//55 69//55
f 69//55 70//55 71//55
f 70//55 72//56 71//55
f 72//56 73//57 71//55
f 71//55 73//57 74//55
f 73//57 75//55 74//55
f 74//55 75//55 76//55
f 75//55 77//55 76//55
f 76//55 77//55 78//55
f 78//55 77//55 79//55
f 77//55 80//55 79//55
f 79//55 80//55 81//55
f 80//55 82//55 81//55
f 81//55 82//55 83//55
f 82//55 84//55 83//55
f 83//55 84//55 85//55
f 84//55 86//55 85//55
f 85//55 86//55 87//55
f 86//55 88//55 87//55
f 88//55 89//55 87//55
f 87//55 89//55 90//55
f 89//55 91//55 90//55
f 90//55 91//55 92//55
f 91//55 93//55 92//55
f 92//55 93//55 94//55
f 93//55 95//55 94//55
f 94//55 95//55 96//55
f 95//55 97//55 96//55
f 97//55 98//55 96//55
f 96//55 98//55 99//55
f 98//55 100//55 99//55
f 100//55 101//55 99//55
f 99//55 101//55 102//55
f 102//55 101//55 103//55
f 103//55 101//55 104//55
f 104//55 101//55 105//55
f 106//55 105//55 101//55
f 158//55 159//55 160//55
f 160//55 159//55 161//55
f 159//55 162//55 161//55
f 162//55 163//55 161//55
f 161//55 163//55 164//55
f 163//55 165//55 164//55
f 165//55 166//55 164//55
f 164//55 166//55 167//55
f 166//55 168//55 167//55
f 167//55 168//55 169//55
f 169//55 168//55 170//55
f 168//55 171//55 170//55
f 170//55 171//55 172//55
f 171//55 173//55 172//55
f 172//55 173//55 174//55
f 173//55 175//55 174//55
f 175//55 176//55 174//55
f 174//55 176//55 177//55
f 176//55 178//55 177//55
f 177//55 178//55 179//55
f 178//55 180//55 179//55
f 179//55 180//55 181//55
f 180//55 182//55 181//55
f 181//55 182//55 183//55
f 182//55 184//55 183//55
f 183//55 184//55 185//55
f 185//55 184//55 186//55
f 184//55 187//55 186//55
f 186//55 187//55 188//55
f 187//55 189//55 188//55
f 188//55 189//55 190//55
f 189//55 191//55 190//55
f 190//55 191//55 192//55
f 191//55 193//55 192//55
f 192//55 193//55 194//55
f 194//55 193//55 195//55
f 193//55 196//55 195//55
f 195//55 196//55 197//55
f 197//55 196//55 198//55
f 196//55 199//55 198//55
f 199//55 200//55 198//55
f 200//55 201//55 198//55
f 198//55 201//55 202//55
f 203//55 202//55 201//55
f 204//55 56//55 205//55
f 205//55 56//55 206//55
f 206//55 56//55 207//55
f 207//55 56//55 160//55
f 160//55 56//55 158//55
f 158//55 56//55 208//55
f 61//55 208//55 56//55
f 213//58 214//58 215//59
f 216//60 215//59 214//58
f 215//59 216//60 219//61
f 220//62 219//61 216//60
f 219//61 220//62 223//63
f 224//64 223//63 220//62
f 223//63 224//64 227//65
f 228//66 227//65 224//64
f 227//65 228//66 231//67
f 232//68 231//67 228//66
f 231//67 232//68 235//69
f 236//70 235//69 232//68
f 236//70 239//71 235//69
f 240//72 235//69 239//71
f 240//72 239//71 243//73
f 244//74 243//73 239//71
f 243//73 244//74 247//75
f 248//76 247//75 244//74
f 247//75 248//76 251//77
f 252//78 251//77 248//76
f 251//77 252//78 255//79
f 256//80 255//79 252//78
f 255//79 256//80 260//81
f 260//81 256//80 261//82
f 262//83 261//82 256//80
f 262//83 265//84 261//82
f 266//85 261//82 265//84
f 266//85 265//84 269//86
f 270//87 269//86 265//84
f 270//87 273//88 269//86
f 274//89 269//86 273//88
f 273//88 277//90 274//89
f 278//91 274//89 277//90
f 277//90 281//92 278//91
f 282//93 278//91 281//92
f 282//93 281//92 285//94
f 286//95 285//94 281//92
f 285//94 286//95 289//96
f 290//97 289//96 286//95
f 289//96 290//97 293//98
f 294//99 293//98 290//97
f 293//98 294//99 297//100
f 298//101 297//100 294//99
f 297//100 298//101 301//102
f 302//103 301//102 298//101
f 301//102 302//103 305//104
f 306//105 305//104 302//103
f 305//104 306//105 309//106
f 310//107 309//106 306//105
f 310//107 313//108 309//106
f 314//108 309//106 313//108
