# SSTK version 0.8.0
# 49
mtllib original-49.mtl
o #ID392
v 0.036943 0.521892 0.440332
v 0.034738 0.517942 0.442621
v 0.035673 0.517384 0.442025
v 0.035975 0.522334 0.440973
v 0.037583 0.526510 0.438597
v 0.036599 0.526835 0.439283
v 0.035233 0.522817 0.441843
v 0.034020 0.518512 0.443459
v 0.032907 0.513726 0.444205
v 0.033795 0.513059 0.443648
v 0.037583 0.531165 0.436850
v 0.036599 0.531371 0.437579
v 0.035844 0.527226 0.440187
v 0.032225 0.514380 0.445011
v 0.030511 0.509753 0.445697
v 0.031337 0.508984 0.445179
v 0.036943 0.535783 0.435115
v 0.035975 0.535871 0.435889
v 0.035844 0.531671 0.438518
v 0.029877 0.510486 0.446473
v 0.027589 0.506087 0.447074
v 0.028340 0.505224 0.446591
v 0.035673 0.540291 0.433423
v 0.034738 0.540264 0.434239
v 0.035233 0.536081 0.436862
v 0.027012 0.506892 0.447822
v 0.024187 0.502785 0.448313
v 0.024852 0.501838 0.447862
v 0.032907 0.544480 0.432657
v 0.033795 0.544616 0.431799
v 0.034020 0.540386 0.435245
v 0.023676 0.503654 0.449039
v 0.020359 0.499899 0.449397
v 0.020929 0.498880 0.448973
v 0.030511 0.548452 0.431165
v 0.031337 0.548691 0.430268
v 0.032225 0.544518 0.433694
v 0.019922 0.500823 0.450102
v 0.016166 0.497473 0.450308
v 0.016632 0.496394 0.449906
v 0.028340 0.552450 0.428856
v 0.027589 0.552118 0.429788
v 0.029877 0.548411 0.432231
v 0.015809 0.498443 0.450995
v 0.011674 0.495546 0.451031
v 0.012029 0.494419 0.450647
v 0.024852 0.555836 0.427585
v 0.024187 0.555420 0.428548
v 0.027012 0.552006 0.430881
v 0.011402 0.496553 0.451705
v 0.006954 0.494148 0.451556
v 0.007193 0.492987 0.451186
v 0.020929 0.558795 0.426474
v 0.020359 0.558307 0.427465
v 0.023676 0.555244 0.429666
v 0.006770 0.495181 0.452220
v 0.002079 0.493300 0.451875
v 0.002199 0.492119 0.451512
v 0.016632 0.561281 0.425541
v 0.016166 0.560733 0.426553
v 0.019922 0.558075 0.428603
v 0.001986 0.494349 0.452533
v -0.002874 0.493016 0.451981
v -0.002874 0.491828 0.451621
v 0.012029 0.563255 0.424800
v 0.011674 0.562659 0.425829
v 0.015809 0.560454 0.427710
v -0.002874 0.494070 0.452636
v -0.007947 0.492119 0.451512
v -0.007826 0.493300 0.451875
v 0.007193 0.564688 0.424261
v 0.006954 0.564058 0.425304
v 0.011402 0.562344 0.426999
v -0.007734 0.494349 0.452533
v -0.012940 0.492987 0.451186
v -0.012701 0.494148 0.451556
v 0.002199 0.565556 0.423936
v 0.002079 0.564905 0.424987
v 0.006770 0.563716 0.426485
v -0.012518 0.495181 0.452220
v -0.017776 0.494419 0.450647
v -0.017422 0.495546 0.451031
v -0.002874 0.565847 0.423826
v -0.002874 0.565189 0.424879
v 0.001986 0.564548 0.426172
v -0.017149 0.496553 0.451705
v -0.022379 0.496394 0.449906
v -0.021914 0.497473 0.450308
v -0.007826 0.564905 0.424987
v -0.007947 0.565556 0.423936
v -0.002874 0.564827 0.426067
v -0.021557 0.498443 0.450995
v -0.026676 0.498880 0.448973
v -0.026107 0.499899 0.449397
v -0.012701 0.564058 0.425304
v -0.012940 0.564688 0.424261
v -0.007734 0.564548 0.426172
v -0.025670 0.500823 0.450102
v -0.030600 0.501838 0.447862
v -0.029934 0.502785 0.448313
v -0.017422 0.562659 0.425829
v -0.017776 0.563255 0.424800
v -0.012518 0.563716 0.426485
v -0.029424 0.503654 0.449039
v -0.034088 0.505224 0.446591
v -0.033336 0.506087 0.447074
v -0.021914 0.560733 0.426553
v -0.022379 0.561281 0.425541
v -0.017149 0.562344 0.426999
v -0.032760 0.506892 0.447822
v -0.037085 0.508984 0.445179
v -0.036258 0.509753 0.445697
v -0.026107 0.558307 0.427465
v -0.026676 0.558795 0.426474
v -0.021557 0.560454 0.427710
v -0.035624 0.510486 0.446473
v -0.039542 0.513059 0.443648
v -0.038654 0.513726 0.444205
v -0.029934 0.555420 0.428548
v -0.030600 0.555836 0.427585
v -0.025670 0.558075 0.428603
v -0.037973 0.514380 0.445011
v -0.041421 0.517384 0.442025
v -0.040485 0.517942 0.442621
v -0.033336 0.552118 0.429788
v -0.034088 0.552450 0.428856
v -0.029424 0.555244 0.429666
v -0.039767 0.518512 0.443459
v -0.042690 0.521892 0.440332
v -0.041723 0.522334 0.440973
v -0.036258 0.548452 0.431165
v -0.037085 0.548691 0.430268
v -0.032760 0.552006 0.430881
v -0.040980 0.522817 0.441843
v -0.043330 0.526510 0.438597
v -0.042346 0.526835 0.439283
v -0.039542 0.544616 0.431799
v -0.038654 0.544480 0.432657
v -0.035624 0.548411 0.432231
v -0.041591 0.527226 0.440187
v -0.043330 0.531165 0.436850
v -0.042346 0.531371 0.437579
v -0.041421 0.540291 0.433423
v -0.040485 0.540264 0.434239
v -0.037973 0.544518 0.433694
v -0.041591 0.531671 0.438518
v -0.042690 0.535783 0.435115
v -0.041723 0.535871 0.435889
v -0.039767 0.540386 0.435245
v -0.040980 0.536081 0.436862
vn 0.485979812710671 0.2162953056571452 0.846782122147358
vn 0.6675404249324575 0.041271771541489526 0.743428827766869
vn 0.46977782026842124 0.15867910684616163 0.8684064374671318
vn 0.6905750065611498 0.12313990116995142 0.7127010067713687
vn 0.49417502804279045 0.27552471563511177 0.824546646790282
vn 0.7022267046046059 0.20730410135932398 0.6811040044661012
vn 0.8481197904619234 0.021336689760044412 0.5293746940465764
vn 0.8198212781441679 -0.07920432788847102 0.5671152848811238
vn 0.6336425181431642 -0.03685893105538648 0.772747422126172
vn 0.445933378837416 0.1036896950792157 0.8890398578089878
vn 0.49417501006755815 0.33529720683082714 0.8021015163407772
vn 0.7022267347661159 0.29224131446839713 0.6492092321413048
vn 0.8624344985222229 0.12470069978632588 0.49056749915941505
vn 0.7781786985059203 -0.17515109966371528 0.6031251988420178
vn 0.589619493006081 -0.10993689869595617 0.8001641905086524
vn 0.41496410917871823 0.05225209115577981 0.9083361200917649
vn 0.48597982201555223 0.39452291787242894 0.7798559353285432
vn 0.6905750211088449 0.37640051150545517 0.6175992188781896
vn 0.8624345056010033 0.22901570148732175 0.45139620293155214
vn 0.7241004162026268 -0.26488790592718897 0.6367990142491518
vn 0.5363850833785502 -0.17680439452120247 0.8252461744273503
vn 0.3775112079722553 0.005181269109417473 0.9259905195550031
vn 0.4697778009990835 0.45213170096155514 0.7582122016125014
vn 0.6675403916216973 0.45825919424838646 0.586846092634492
vn 0.84811979230319 0.3323750969836477 0.4125767962558059
vn 0.6587107101830452 -0.34699320536418726 0.6676046103205363
vn 0.4749822982045242 -0.23647829910609094 0.8476259967958975
vn 0.3343070970331742 -0.03683006967314983 0.9417442916424409
vn 0.6336424984482698 0.5363765986864646 0.5574919986347552
vn 0.44593337106420267 0.5071108670945073 0.7375513521416477
vn 0.8198212926618698 0.43290719612509526 0.3748124966450947
vn 0.5832922870420832 -0.4202606906638523 0.6950906845584667
vn 0.40653840061296853 -0.28815330043447057 0.8670030013072455
vn 0.286143801240765 -0.07321382031746697 0.9553855041427034
vn 0.5896194654155352 0.6094382642530523 0.5300319689106737
vn 0.41496410700697817 0.5585359094312949 0.7182217121277089
vn 0.7781787030642422 0.5288415020824244 0.33876920133397503
vn 0.49923087820736695 -0.48370287888520175 0.7188880686188002
vn 0.3322263970488446 -0.33119359705801915 0.8831400921550976
vn 0.2338460112523137 -0.10352090498126838 0.9667468465183849
vn 0.3775112176204648 0.6055928282662517 0.7005302326974876
vn 0.5363851114526509 0.6762877144397876 0.5049019107804361
vn 0.7241003980984401 0.6185629983755917 0.3050547991988958
vn 0.40796779696979474 -0.5365407960148112 0.7387057945132183
vn 0.2532356889448481 -0.3651171840605963 0.8958577608908062
vn 0.17825099545539105 -0.12741039675160082 0.9757013751239473
vn 0.3343070913471197 0.6475897832384144 0.6847380822769041
vn 0.47498230051807744 0.735943000802715 0.4824725005262474
vn 0.6587107266965615 0.7006513283963512 0.27420411111308307
vn 0.3109637874743416 -0.5781843767106647 0.7543237696157485
vn 0.17075310392259244 -0.3895767089494753 0.90502672079055
vn 0.12019440401244506 -0.14463640482839163 0.9821576327873295
vn 0.2861437814471975 0.6839595556538796 0.671059656490275
vn 0.4065384253696532 0.7875999491494439 0.463047328896039
vn 0.5832922814107057 0.7739013753360692 0.24667139213868047
vn 0.20967580529427113 -0.6082089153571508 0.7655834193308244
vn 0.08595380333831598 -0.4043403157039678 0.9105607353648045
vn 0.06050421791274191 -0.1550342946516692 0.9860545659833572
vn 0.23384600352237914 0.7142539107586745 0.6596646099364063
vn 0.332226408836284 0.8306238220922473 0.4468665118853871
vn 0.4992308887030092 0.837326581052313 0.22282889495765199
vn 0.10554590201095237 -0.6263309119334018 0.7723792147160409
vn 0 -0.4092758069699407 0.9124107155382952
vn 0 -0.15851049869438572 0.9873572918673652
vn 0.1782510005333805 0.7381328022087148 0.6506816019470347
vn 0.25323570245007315 0.8645336083644231 0.43411210420006513
vn 0.40796779845754305 0.8901490966344975 0.20297009923260473
vn 0 -0.632388993953729 0.7746509925935617
vn -0.06050421791274191 -0.1550342946516692 0.9860545659833572
vn -0.08595380333831598 -0.4043403157039678 0.9105607353648045
vn 0.12019439768282872 0.7553506854379491 0.6442038875806964
vn 0.17075310348199219 0.8889827181281089 0.42491540866486255
vn 0.3109637939680301 0.9317797819256527 0.18731779636647328
vn -0.10554590201095237 -0.6263309119334018 0.7723792147160409
vn -0.12019440401244506 -0.14463640482839163 0.9821576327873295
vn -0.17075310392259244 -0.3895767089494753 0.90502672079055
vn 0.06050422254784107 0.7657436322455687 0.6402936269628523
vn 0.08595380299947446 0.9037398315372263 0.4193641146342795
vn 0.20967581031958313 0.9617945473364989 0.1760321086637463
vn -0.20967580529427113 -0.6082089153571508 0.7655834193308244
vn -0.17825099545539105 -0.12741039675160082 0.9757013751239473
vn -0.2532356889448481 -0.3651171840605963 0.8958577608908062
vn 0 0.7692181088632002 0.6389863073626242
vn 0 0.9086731076180882 0.4175083035002855
vn 0.10554589994168061 0.9799104994585505 0.1692201999064976
vn -0.3109637874743416 -0.5781843767106647 0.7543237696157485
vn -0.2338460112523137 -0.10352090498126838 0.9667468465183849
vn -0.3322263970488446 -0.33119359705801915 0.8831400921550976
vn -0.08595380299947446 0.9037398315372263 0.4193641146342795
vn -0.06050422254784107 0.7657436322455687 0.6402936269628523
vn 0 0.985966566390387 0.16694289430925344
vn -0.40796779696979474 -0.5365407960148112 0.7387057945132183
vn -0.286143801240765 -0.07321382031746697 0.9553855041427034
vn -0.40653840061296853 -0.28815330043447057 0.8670030013072455
vn -0.17075310348199219 0.8889827181281089 0.42491540866486255
vn -0.12019439768282872 0.7553506854379491 0.6442038875806964
vn -0.10554589994168061 0.9799104994585505 0.1692201999064976
vn -0.49923087820736695 -0.48370287888520175 0.7188880686188002
vn -0.3343070970331742 -0.03683006967314983 0.9417442916424409
vn -0.4749822982045242 -0.23647829910609094 0.8476259967958975
vn -0.25323570245007315 0.8645336083644231 0.43411210420006513
vn -0.1782510005333805 0.7381328022087148 0.6506816019470347
vn -0.20967581031958313 0.9617945473364989 0.1760321086637463
vn -0.5832922870420832 -0.4202606906638523 0.6950906845584667
vn -0.3775112079722553 0.005181269109417473 0.9259905195550031
vn -0.5363850833785502 -0.17680439452120247 0.8252461744273503
vn -0.332226408836284 0.8306238220922473 0.4468665118853871
vn -0.23384600352237914 0.7142539107586745 0.6596646099364063
vn -0.3109637939680301 0.9317797819256527 0.18731779636647328
vn -0.6587107101830452 -0.34699320536418726 0.6676046103205363
vn -0.41496410917871823 0.05225209115577981 0.9083361200917649
vn -0.589619493006081 -0.10993689869595617 0.8001641905086524
vn -0.4065384253696532 0.7875999491494439 0.463047328896039
vn -0.2861437814471975 0.6839595556538796 0.671059656490275
vn -0.40796779845754305 0.8901490966344975 0.20297009923260473
vn -0.7241004162026268 -0.26488790592718897 0.6367990142491518
vn -0.445933378837416 0.1036896950792157 0.8890398578089878
vn -0.6336425181431642 -0.03685893105538648 0.772747422126172
vn -0.47498230051807744 0.735943000802715 0.4824725005262474
vn -0.3343070913471197 0.6475897832384144 0.6847380822769041
vn -0.4992308887030092 0.837326581052313 0.22282889495765199
vn -0.7781786985059203 -0.17515109966371528 0.6031251988420178
vn -0.46977782026842124 0.15867910684616163 0.8684064374671318
vn -0.6675404249324575 0.041271771541489526 0.743428827766869
vn -0.5363851114526509 0.6762877144397876 0.5049019107804361
vn -0.3775112176204648 0.6055928282662517 0.7005302326974876
vn -0.5832922814107057 0.7739013753360692 0.24667139213868047
vn -0.8198212781441679 -0.07920432788847102 0.5671152848811238
vn -0.485979812710671 0.2162953056571452 0.846782122147358
vn -0.6905750065611498 0.12313990116995142 0.7127010067713687
vn -0.5896194654155352 0.6094382642530523 0.5300319689106737
vn -0.41496410700697817 0.5585359094312949 0.7182217121277089
vn -0.6587107266965615 0.7006513283963512 0.27420411111308307
vn -0.8481197904619234 0.021336689760044412 0.5293746940465764
vn -0.49417502804279045 0.27552471563511177 0.824546646790282
vn -0.7022267046046059 0.20730410135932398 0.6811040044661012
vn -0.44593337106420267 0.5071108670945073 0.7375513521416477
vn -0.6336424984482698 0.5363765986864646 0.5574919986347552
vn -0.7241003980984401 0.6185629983755917 0.3050547991988958
vn -0.8624344985222229 0.12470069978632588 0.49056749915941505
vn -0.49417501006755815 0.33529720683082714 0.8021015163407772
vn -0.7022267347661159 0.29224131446839713 0.6492092321413048
vn -0.4697778009990835 0.45213170096155514 0.7582122016125014
vn -0.6675403916216973 0.45825919424838646 0.586846092634492
vn -0.7781787030642422 0.5288415020824244 0.33876920133397503
vn -0.8624345056010033 0.22901570148732175 0.45139620293155214
vn -0.48597982201555223 0.39452291787242894 0.7798559353285432
vn -0.6905750211088449 0.37640051150545517 0.6175992188781896
vn -0.8198212926618698 0.43290719612509526 0.3748124966450947
vn -0.84811979230319 0.3323750969836477 0.4125767962558059
usemtl material_0_0
f 1//1 2//2 3//3
f 2//2 1//1 4//4
f 5//5 4//4 1//1
f 4//4 5//5 6//6
f 2//2 7//7 8//8
f 7//7 2//2 4//4
f 3//3 9//9 10//10
f 9//9 3//3 2//2
f 11//11 6//6 5//5
f 6//6 11//11 12//12
f 4//4 13//13 7//7
f 13//13 4//4 6//6
f 9//9 8//8 14//14
f 8//8 9//9 2//2
f 10//10 15//15 16//16
f 15//15 10//10 9//9
f 17//17 12//12 11//11
f 12//12 17//17 18//18
f 6//6 19//19 13//13
f 19//19 6//6 12//12
f 9//9 20//20 15//15
f 20//20 9//9 14//14
f 16//16 21//21 22//22
f 21//21 16//16 15//15
f 23//23 18//18 17//17
f 18//18 23//23 24//24
f 12//12 25//25 19//19
f 25//25 12//12 18//18
f 15//15 26//26 21//21
f 26//26 15//15 20//20
f 22//22 27//27 28//28
f 27//27 22//22 21//21
f 23//23 29//29 24//24
f 29//29 23//23 30//30
f 18//18 31//31 25//25
f 31//31 18//18 24//24
f 21//21 32//32 27//27
f 32//32 21//21 26//26
f 28//28 33//33 34//34
f 33//33 28//28 27//27
f 30//30 35//35 29//29
f 35//35 30//30 36//36
f 24//24 37//37 31//31
f 37//37 24//24 29//29
f 27//27 38//38 33//33
f 38//38 27//27 32//32
f 34//34 39//39 40//40
f 39//39 34//34 33//33
f 35//35 41//41 42//42
f 41//41 35//35 36//36
f 29//29 43//43 37//37
f 43//43 29//29 35//35
f 33//33 44//44 39//39
f 44//44 33//33 38//38
f 40//40 45//45 46//46
f 45//45 40//40 39//39
f 42//42 47//47 48//48
f 47//47 42//42 41//41
f 43//43 42//42 49//49
f 42//42 43//43 35//35
f 39//39 50//50 45//45
f 50//50 39//39 44//44
f 46//46 51//51 52//52
f 51//51 46//46 45//45
f 48//48 53//53 54//54
f 53//53 48//48 47//47
f 49//49 48//48 55//55
f 48//48 49//49 42//42
f 45//45 56//56 51//51
f 56//56 45//45 50//50
f 52//52 57//57 58//58
f 57//57 52//52 51//51
f 54//54 59//59 60//60
f 59//59 54//54 53//53
f 55//55 54//54 61//61
f 54//54 55//55 48//48
f 51//51 62//62 57//57
f 62//62 51//51 56//56
f 58//58 63//63 64//64
f 63//63 58//58 57//57
f 60//60 65//65 66//66
f 65//65 60//60 59//59
f 61//61 60//60 67//67
f 60//60 61//61 54//54
f 57//57 68//68 63//63
f 68//68 57//57 62//62
f 63//63 69//69 64//64
f 69//69 63//63 70//70
f 66//66 71//71 72//72
f 71//71 66//66 65//65
f 67//67 66//66 73//73
f 66//66 67//67 60//60
f 68//68 70//70 63//63
f 70//70 68//68 74//74
f 70//70 75//75 69//69
f 75//75 70//70 76//76
f 72//72 77//77 78//78
f 77//77 72//72 71//71
f 73//73 72//72 79//79
f 72//72 73//73 66//66
f 74//74 76//76 70//70
f 76//76 74//74 80//80
f 76//76 81//81 75//75
f 81//81 76//76 82//82
f 78//78 83//83 84//84
f 83//83 78//78 77//77
f 79//79 78//78 85//85
f 78//78 79//79 72//72
f 80//80 82//82 76//76
f 82//82 80//80 86//86
f 82//82 87//87 81//81
f 87//87 82//82 88//88
f 89//89 83//83 90//90
f 83//83 89//89 84//84
f 85//85 84//84 91//91
f 84//84 85//85 78//78
f 86//86 88//88 82//82
f 88//88 86//86 92//92
f 88//88 93//93 87//87
f 93//93 88//88 94//94
f 95//95 90//90 96//96
f 90//90 95//95 89//89
f 97//97 84//84 89//89
f 84//84 97//97 91//91
f 92//92 94//94 88//88
f 94//94 92//92 98//98
f 94//94 99//99 93//93
f 99//99 94//94 100//100
f 101//101 96//96 102//102
f 96//96 101//101 95//95
f 103//103 89//89 95//95
f 89//89 103//103 97//97
f 98//98 100//100 94//94
f 100//100 98//98 104//104
f 100//100 105//105 99//99
f 105//105 100//100 106//106
f 107//107 102//102 108//108
f 102//102 107//107 101//101
f 109//109 95//95 101//101
f 95//95 109//109 103//103
f 104//104 106//106 100//100
f 106//106 104//104 110//110
f 106//106 111//111 105//105
f 111//111 106//106 112//112
f 113//113 108//108 114//114
f 108//108 113//113 107//107
f 115//115 101//101 107//107
f 101//101 115//115 109//109
f 110//110 112//112 106//106
f 112//112 110//110 116//116
f 112//112 117//117 111//111
f 117//117 112//112 118//118
f 119//119 114//114 120//120
f 114//114 119//119 113//113
f 121//121 107//107 113//113
f 107//107 121//121 115//115
f 116//116 118//118 112//112
f 118//118 116//116 122//122
f 118//118 123//123 117//117
f 123//123 118//118 124//124
f 125//125 120//120 126//126
f 120//120 125//125 119//119
f 127//127 113//113 119//119
f 113//113 127//127 121//121
f 128//128 118//118 122//122
f 118//118 128//128 124//124
f 124//124 129//129 123//123
f 129//129 124//124 130//130
f 131//131 126//126 132//132
f 126//126 131//131 125//125
f 133//133 119//119 125//125
f 119//119 133//133 127//127
f 134//134 124//124 128//128
f 124//124 134//134 130//130
f 130//130 135//135 129//129
f 135//135 130//130 136//136
f 131//131 137//137 138//138
f 137//137 131//131 132//132
f 139//139 125//125 131//131
f 125//125 139//139 133//133
f 140//140 130//130 134//134
f 130//130 140//140 136//136
f 136//136 141//141 135//135
f 141//141 136//136 142//142
f 138//138 143//143 144//144
f 143//143 138//138 137//137
f 139//139 138//138 145//145
f 138//138 139//139 131//131
f 146//146 136//136 140//140
f 136//136 146//146 142//142
f 142//142 147//147 141//141
f 147//147 142//142 148//148
f 148//148 143//143 147//147
f 143//143 148//148 144//144
f 145//145 144//144 149//149
f 144//144 145//145 138//138
f 150//150 142//142 146//146
f 142//142 150//150 148//148
f 149//149 148//148 150//150
f 148//148 149//149 144//144
