# SSTK version 0.8.0
# 62
mtllib original-62.mtl
o #ID485
v 0.482453 0.484839 0.458350
v 0.427708 0.494527 0.454712
v 0.360894 0.484839 0.458350
v 0.431881 0.495253 0.454440
v 0.435925 0.496451 0.453991
v 0.439778 0.498103 0.453370
v 0.443379 0.500186 0.452588
v 0.446672 0.502670 0.451655
v 0.449604 0.505516 0.450586
v 0.452127 0.508681 0.449398
v 0.454199 0.512118 0.448107
v 0.455786 0.515772 0.446736
v 0.482453 0.587484 0.419807
v 0.360593 0.485232 0.458203
v 0.423469 0.494284 0.454804
v 0.456860 0.519584 0.445304
v 0.457402 0.523492 0.443835
v 0.457402 0.527433 0.442356
v 0.456860 0.531342 0.440888
v 0.455786 0.535154 0.439457
v 0.454199 0.538808 0.438084
v 0.452127 0.542244 0.436794
v 0.449604 0.545410 0.435605
v 0.446672 0.548256 0.434537
v 0.443379 0.550739 0.433604
v 0.439778 0.552822 0.432822
v 0.435925 0.554475 0.432202
v 0.431881 0.555672 0.431752
v 0.427708 0.556399 0.431479
v 0.423469 0.556641 0.431388
v 0.360593 0.579011 0.422988
v 0.360593 0.587484 0.419807
v 0.419231 0.494527 0.454712
v 0.360593 0.502983 0.451537
v 0.415058 0.495253 0.454440
v 0.411014 0.496451 0.453991
v 0.407161 0.498103 0.453370
v 0.403560 0.500186 0.452588
v 0.400267 0.502670 0.451655
v 0.397335 0.505516 0.450586
v 0.394812 0.508681 0.449398
v 0.392739 0.512118 0.448107
v 0.393776 0.510400 0.448752
v 0.391152 0.515772 0.446736
v 0.390079 0.519584 0.445304
v 0.389537 0.523492 0.443835
v 0.389537 0.527433 0.442356
v 0.390079 0.531342 0.440888
v 0.391152 0.535154 0.439457
v 0.392739 0.538808 0.438084
v 0.394812 0.542244 0.436794
v 0.397335 0.545410 0.435605
v 0.400267 0.548256 0.434537
v 0.403560 0.550739 0.433604
v 0.407161 0.552822 0.432822
v 0.411014 0.554475 0.432202
v 0.415058 0.555672 0.431752
v 0.419231 0.556399 0.431479
v 0.423469 0.556641 0.431388
v 0.419231 0.556399 0.431479
v 0.360593 0.579011 0.422988
v 0.415058 0.555672 0.431752
v 0.411014 0.554475 0.432202
v 0.407161 0.552822 0.432822
v 0.403560 0.550739 0.433604
v 0.400267 0.548256 0.434537
v 0.397335 0.545410 0.435605
v 0.394812 0.542244 0.436794
v 0.392739 0.538808 0.438084
v 0.391152 0.535154 0.439457
v 0.390079 0.531342 0.440888
v 0.389537 0.527433 0.442356
v 0.389537 0.523492 0.443835
v 0.390079 0.519584 0.445304
v 0.391152 0.515772 0.446736
v 0.392739 0.512118 0.448107
v 0.393776 0.510400 0.448752
v 0.394812 0.508681 0.449398
v 0.360593 0.502983 0.451537
v 0.397335 0.505516 0.450586
v 0.400267 0.502670 0.451655
v 0.403560 0.500186 0.452588
v 0.407161 0.498103 0.453370
v 0.411014 0.496451 0.453991
v 0.415058 0.495253 0.454440
v 0.419231 0.494527 0.454712
v 0.423469 0.494284 0.454804
v 0.360593 0.485232 0.458203
v 0.360593 0.587484 0.419807
v 0.482453 0.587484 0.419807
v 0.427708 0.556399 0.431479
v 0.431881 0.555672 0.431752
v 0.435925 0.554475 0.432202
v 0.439778 0.552822 0.432822
v 0.443379 0.550739 0.433604
v 0.446672 0.548256 0.434537
v 0.449604 0.545410 0.435605
v 0.452127 0.542244 0.436794
v 0.454199 0.538808 0.438084
v 0.455786 0.535154 0.439457
v 0.456860 0.531342 0.440888
v 0.457402 0.527433 0.442356
v 0.457402 0.523492 0.443835
v 0.456860 0.519584 0.445304
v 0.455786 0.515772 0.446736
v 0.427708 0.494527 0.454712
v 0.360894 0.484839 0.458350
v 0.482453 0.484839 0.458350
v 0.454199 0.512118 0.448107
v 0.452127 0.508681 0.449398
v 0.449604 0.505516 0.450586
v 0.446672 0.502670 0.451655
v 0.443379 0.500186 0.452588
v 0.439778 0.498103 0.453370
v 0.435925 0.496451 0.453991
v 0.431881 0.495253 0.454440
vt 1.974651 11.30152
vt 1.897947 11.34575
vt 1.805545 11.27691
vt 1.903712 11.35073
vt 1.909271 11.35839
vt 1.914538 11.36861
vt 1.91943 11.38123
vt 1.923871 11.39607
vt 1.92779 11.41292
vt 1.931122 11.4315
vt 1.933811 11.45154
vt 1.935814 11.47272
vt 1.968874 11.88757
vt 1.805104 11.27909
vt 1.892065 11.3435
vt 1.937093 11.49471
vt 1.937626 11.51713
vt 1.937405 11.53963
vt 1.936431 11.56184
vt 1.934723 11.58339
vt 1.93231 11.60393
vt 1.929233 11.62313
vt 1.925545 11.64069
vt 1.921306 11.65635
vt 1.916585 11.66986
vt 1.911458 11.68102
vt 1.906006 11.68968
vt 1.900312 11.6957
vt 1.894466 11.699
vt 1.888556 11.69953
vt 1.799827 11.81451
vt 1.79935 11.8629
vt 1.886156 11.34403
vt 1.804105 11.38044
vt 1.880309 11.34733
vt 1.874616 11.35335
vt 1.869163 11.362
vt 1.864036 11.37317
vt 1.859316 11.38668
vt 1.855077 11.40234
vt 1.851388 11.4199
vt 1.848312 11.4391
vt 1.84985 11.4295
vt 1.845899 11.45964
vt 1.84419 11.48119
vt 1.843217 11.50339
vt 1.842995 11.52589
vt 1.843529 11.54832
vt 1.844808 11.5703
vt 1.84681 11.59148
vt 1.8495 11.61153
vt 1.852832 11.63011
vt 1.85675 11.64695
vt 1.861191 11.6618
vt 1.866084 11.67442
vt 1.87135 11.68463
vt 1.876909 11.69229
vt 1.882674 11.69728
vn 0 0.3515416202868696 0.9361722540249108
vn 0 -0.3515416202868696 -0.9361722540249108
usemtl material_0_0
f 59//2 60//2 61//2
f 60//2 62//2 61//2
f 62//2 63//2 61//2
f 63//2 64//2 61//2
f 64//2 65//2 61//2
f 65//2 66//2 61//2
f 66//2 67//2 61//2
f 67//2 68//2 61//2
f 68//2 69//2 61//2
f 69//2 70//2 61//2
f 70//2 71//2 61//2
f 71//2 72//2 61//2
f 72//2 73//2 61//2
f 73//2 74//2 61//2
f 74//2 75//2 61//2
f 75//2 76//2 61//2
f 77//2 78//2 76//2
f 61//2 76//2 79//2
f 76//2 78//2 79//2
f 78//2 80//2 79//2
f 80//2 81//2 79//2
f 81//2 82//2 79//2
f 82//2 83//2 79//2
f 83//2 84//2 79//2
f 84//2 85//2 79//2
f 85//2 86//2 79//2
f 87//2 88//2 86//2
f 79//2 86//2 88//2
f 89//2 90//2 61//2
f 61//2 90//2 59//2
f 59//2 90//2 91//2
f 91//2 90//2 92//2
f 92//2 90//2 93//2
f 93//2 90//2 94//2
f 94//2 90//2 95//2
f 95//2 90//2 96//2
f 96//2 90//2 97//2
f 97//2 90//2 98//2
f 98//2 90//2 99//2
f 99//2 90//2 100//2
f 100//2 90//2 101//2
f 101//2 90//2 102//2
f 102//2 90//2 103//2
f 103//2 90//2 104//2
f 104//2 90//2 105//2
f 87//2 106//2 88//2
f 88//2 106//2 107//2
f 90//2 108//2 105//2
f 105//2 108//2 109//2
f 109//2 108//2 110//2
f 110//2 108//2 111//2
f 111//2 108//2 112//2
f 112//2 108//2 113//2
f 113//2 108//2 114//2
f 114//2 108//2 115//2
f 115//2 108//2 116//2
f 116//2 108//2 106//2
f 107//2 106//2 108//2
usemtl material_1_0
f 1/1/1 2/2/1 3/3/1
f 2/2/1 1/1/1 4/4/1
f 4/4/1 1/1/1 5/5/1
f 5/5/1 1/1/1 6/6/1
f 6/6/1 1/1/1 7/7/1
f 7/7/1 1/1/1 8/8/1
f 8/8/1 1/1/1 9/9/1
f 9/9/1 1/1/1 10/10/1
f 10/10/1 1/1/1 11/11/1
f 11/11/1 1/1/1 12/12/1
f 12/12/1 1/1/1 13/13/1
f 3/3/1 2/2/1 14/14/1
f 14/14/1 2/2/1 15/15/1
f 12/12/1 13/13/1 16/16/1
f 16/16/1 13/13/1 17/17/1
f 17/17/1 13/13/1 18/18/1
f 18/18/1 13/13/1 19/19/1
f 19/19/1 13/13/1 20/20/1
f 20/20/1 13/13/1 21/21/1
f 21/21/1 13/13/1 22/22/1
f 22/22/1 13/13/1 23/23/1
f 23/23/1 13/13/1 24/24/1
f 24/24/1 13/13/1 25/25/1
f 25/25/1 13/13/1 26/26/1
f 26/26/1 13/13/1 27/27/1
f 27/27/1 13/13/1 28/28/1
f 28/28/1 13/13/1 29/29/1
f 29/29/1 13/13/1 30/30/1
f 30/30/1 13/13/1 31/31/1
f 31/31/1 13/13/1 32/32/1
f 14/14/1 33/33/1 34/34/1
f 33/33/1 14/14/1 15/15/1
f 34/34/1 33/33/1 35/35/1
f 34/34/1 35/35/1 36/36/1
f 34/34/1 36/36/1 37/37/1
f 34/34/1 37/37/1 38/38/1
f 34/34/1 38/38/1 39/39/1
f 34/34/1 39/39/1 40/40/1
f 34/34/1 40/40/1 41/41/1
f 34/34/1 41/41/1 42/42/1
f 34/34/1 42/42/1 31/31/1
f 42/42/1 41/41/1 43/43/1
f 31/31/1 42/42/1 44/44/1
f 31/31/1 44/44/1 45/45/1
f 31/31/1 45/45/1 46/46/1
f 31/31/1 46/46/1 47/47/1
f 31/31/1 47/47/1 48/48/1
f 31/31/1 48/48/1 49/49/1
f 31/31/1 49/49/1 50/50/1
f 31/31/1 50/50/1 51/51/1
f 31/31/1 51/51/1 52/52/1
f 31/31/1 52/52/1 53/53/1
f 31/31/1 53/53/1 54/54/1
f 31/31/1 54/54/1 55/55/1
f 31/31/1 55/55/1 56/56/1
f 31/31/1 56/56/1 57/57/1
f 31/31/1 57/57/1 58/58/1
f 31/31/1 58/58/1 30/30/1
