# SSTK version 0.8.0
# 48
mtllib original-48.mtl
o #ID386
v 0.039279 0.521239 0.439897
v 0.036763 0.516877 0.441708
v 0.037932 0.516455 0.441693
v 0.038070 0.521518 0.439965
v 0.039959 0.526142 0.438055
v 0.038729 0.526273 0.438180
v 0.035673 0.517384 0.442025
v 0.036943 0.521892 0.440332
v 0.034829 0.512424 0.443380
v 0.035938 0.511865 0.443417
v 0.039959 0.531085 0.436199
v 0.038729 0.531067 0.436379
v 0.037583 0.526510 0.438597
v 0.033795 0.513059 0.443648
v 0.032299 0.508230 0.444954
v 0.033332 0.507543 0.445040
v 0.038070 0.535823 0.434594
v 0.039279 0.535988 0.434359
v 0.037583 0.531165 0.436850
v 0.031337 0.508984 0.445179
v 0.029216 0.504361 0.446407
v 0.030155 0.503558 0.446537
v 0.036763 0.540464 0.432851
v 0.037932 0.540772 0.432562
v 0.036943 0.535783 0.435115
v 0.028340 0.505224 0.446591
v 0.025627 0.500878 0.447716
v 0.026459 0.499970 0.447883
v 0.034829 0.544917 0.431178
v 0.035938 0.545362 0.430838
v 0.035673 0.540291 0.433423
v 0.024852 0.501838 0.447862
v 0.021592 0.497835 0.448859
v 0.022304 0.496837 0.449060
v 0.032299 0.549111 0.429603
v 0.033332 0.549684 0.429216
v 0.033795 0.544616 0.431799
v 0.020929 0.498880 0.448973
v 0.017174 0.495279 0.449818
v 0.017755 0.494205 0.450049
v 0.029216 0.552979 0.428151
v 0.030155 0.553669 0.427719
v 0.031337 0.548691 0.430268
v 0.016632 0.496394 0.449906
v 0.012442 0.493250 0.450580
v 0.012885 0.492116 0.450833
v 0.025627 0.556463 0.426843
v 0.026459 0.557257 0.426372
v 0.028340 0.552450 0.428856
v 0.012029 0.494419 0.450647
v 0.007471 0.491777 0.451133
v 0.007770 0.490601 0.451402
v 0.021592 0.559505 0.425700
v 0.022304 0.560390 0.425196
v 0.024852 0.555836 0.427585
v 0.007193 0.492987 0.451186
v 0.002339 0.490885 0.451468
v 0.002490 0.489683 0.451747
v 0.017174 0.562062 0.424741
v 0.017755 0.563021 0.424207
v 0.020929 0.558795 0.426474
v 0.002199 0.492119 0.451512
v -0.002874 0.490586 0.451580
v -0.002874 0.489376 0.451862
v 0.012442 0.564092 0.423979
v 0.012885 0.565110 0.423423
v 0.016632 0.561281 0.425541
v -0.002874 0.491595 0.451613
v -0.002874 0.491828 0.451621
v -0.008237 0.489683 0.451747
v -0.008087 0.490885 0.451468
v 0.007471 0.565563 0.423426
v 0.007770 0.566625 0.422854
v 0.012029 0.563255 0.424800
v -0.007947 0.492119 0.451512
v -0.013518 0.490601 0.451402
v -0.013219 0.491777 0.451133
v 0.002339 0.566456 0.423091
v 0.002490 0.567544 0.422509
v 0.007193 0.564688 0.424261
v -0.012940 0.492987 0.451186
v -0.018633 0.492116 0.450833
v -0.018189 0.493250 0.450580
v -0.002874 0.566754 0.422978
v -0.002874 0.567851 0.422393
v 0.002199 0.565556 0.423936
v -0.017776 0.494419 0.450647
v -0.023503 0.494205 0.450049
v -0.022921 0.495279 0.449818
v -0.008237 0.567544 0.422509
v -0.008087 0.566456 0.423091
v -0.002874 0.565847 0.423826
v -0.002874 0.566017 0.423668
v -0.022379 0.496394 0.449906
v -0.028051 0.496837 0.449060
v -0.027340 0.497835 0.448859
v -0.013518 0.566625 0.422854
v -0.013219 0.565563 0.423426
v -0.007947 0.565556 0.423936
v -0.026676 0.498880 0.448973
v -0.032207 0.499970 0.447883
v -0.031375 0.500878 0.447716
v -0.018633 0.565110 0.423423
v -0.018189 0.564092 0.423979
v -0.012940 0.564688 0.424261
v -0.030600 0.501838 0.447862
v -0.035902 0.503558 0.446537
v -0.034963 0.504361 0.446407
v -0.023503 0.563021 0.424207
v -0.022921 0.562062 0.424741
v -0.017776 0.563255 0.424800
v -0.034088 0.505224 0.446591
v -0.039079 0.507543 0.445040
v -0.038047 0.508230 0.444954
v -0.028051 0.560390 0.425196
v -0.027340 0.559505 0.425700
v -0.022379 0.561281 0.425541
v -0.037085 0.508984 0.445179
v -0.041686 0.511865 0.443417
v -0.040576 0.512424 0.443380
v -0.032207 0.557257 0.426372
v -0.031375 0.556463 0.426843
v -0.026676 0.558795 0.426474
v -0.039542 0.513059 0.443648
v -0.043679 0.516455 0.441693
v -0.042510 0.516877 0.441708
v -0.035902 0.553669 0.427719
v -0.034963 0.552979 0.428151
v -0.030600 0.555836 0.427585
v -0.041421 0.517384 0.442025
v -0.045027 0.521239 0.439897
v -0.043817 0.521518 0.439965
v -0.039079 0.549684 0.429216
v -0.038047 0.549111 0.429603
v -0.034088 0.552450 0.428856
v -0.042690 0.521892 0.440332
v -0.045706 0.526142 0.438055
v -0.044476 0.526273 0.438180
v -0.041686 0.545362 0.430838
v -0.040576 0.544917 0.431178
v -0.037085 0.548691 0.430268
v -0.043330 0.526510 0.438597
v -0.045706 0.531085 0.436199
v -0.044476 0.531067 0.436379
v -0.043679 0.540772 0.432562
v -0.042510 0.540464 0.432851
v -0.039542 0.544616 0.431799
v -0.043330 0.531165 0.436850
v -0.043817 0.535823 0.434594
v -0.045027 0.535988 0.434359
v -0.041421 0.540291 0.433423
v -0.042690 0.535783 0.435115
vn 0.12783109882469404 0.32510609701090604 0.9369979913850438
vn 0.24033368946762504 0.2650081883862905 0.9338149590765269
vn 0.12356649867144143 0.3099526966674597 0.9426879898644357
vn 0.24861240329571918 0.2944858039038376 0.9227513122324115
vn 0.12998830249967963 0.3406852065513883 0.9311480179060092
vn 0.2527995008083681 0.32478610103855693 0.9113761029142756
vn 0.46977782026842124 0.15867910684616163 0.8684064374671318
vn 0.485979812710671 0.2162953056571452 0.846782122147358
vn 0.22814809182286913 0.2368703915102501 0.9443732661524069
vn 0.1172907983090221 0.2954916957399049 0.9481178863310131
vn 0.12998830405734255 0.35640781112460507 0.9252440288797673
vn 0.25279950223357206 0.355363203139758 0.8998941079508794
vn 0.49417502804279045 0.27552471563511177 0.824546646790282
vn 0.445933378837416 0.1036896950792157 0.8890398578089878
vn 0.21231839718104337 0.21054499720458864 0.9542492873304086
vn 0.10914069769463526 0.28196659404405616 0.9531962798657593
vn 0.2486124067570951 0.3856616104819874 0.888513924149129
vn 0.1278310927865773 0.3719867790090357 0.9193938481192229
vn 0.49417501006755815 0.33529720683082714 0.8021015163407772
vn 0.41496410917871823 0.05225209115577981 0.9083361200917649
vn 0.1931703083689367 0.18644920807775062 0.9632870417335788
vn 0.09928569144505577 0.2695917039237781 0.9578427139409429
vn 0.2403336957028889 0.415135592577471 0.8774406843115627
vn 0.12356650230489773 0.38714000722135916 0.913703417043397
vn 0.48597982201555223 0.39452291787242894 0.7798559353285432
vn 0.3775112079722553 0.005181269109417473 0.9259905195550031
vn 0.1710767065367436 0.1649384063022024 0.9713537371148734
vn 0.08791888245542434 0.2585486072208211 0.9619890268667118
vn 0.22814810611601083 0.4432684118827827 0.8668688232383219
vn 0.1172908002815161 0.40160080096390394 0.9082729021799959
vn 0.4697778009990835 0.45213170096155514 0.7582122016125014
vn 0.3343070970331742 -0.03683006967314983 0.9417442916424409
vn 0.14644120005046657 0.1463046000504193 0.9783404003371557
vn 0.07524908051857805 0.2489863017158856 0.9655793066542772
vn 0.21231840044438136 0.46958760098284436 0.8569763017936474
vn 0.10914070018934327 0.41512560072018245 0.9031938015669104
vn 0.44593337106420267 0.5071108670945073 0.7375513521416477
vn 0.286143801240765 -0.07321382031746697 0.9553855041427034
vn 0.11968499639330825 0.13077949605897674 0.9841606703424466
vn 0.0614934692597499 0.241022197098607 0.9685694883404908
vn 0.19317030117146777 0.49367640299386584 0.8479203051421534
vn 0.09928569161830136 0.4275003069680162 0.8985465146458069
vn 0.41496410700697817 0.5585359094312949 0.7182217121277089
vn 0.2338460112523137 -0.10352090498126838 0.9667468465183849
vn 0.09123625747046352 0.11853949671347762 0.9887488725868157
vn 0.0468722488390074 0.23474529418552412 0.9709261759508422
vn 0.17107669733872324 0.5151801919858336 0.8398345869354957
vn 0.08791888092183762 0.43854300459816387 0.8943994093778608
vn 0.3775112176204648 0.6055928282662517 0.7005302326974876
vn 0.17825099545539105 -0.12741039675160082 0.9757013751239473
vn 0.06152323061808782 0.10971230110221493 0.9920575099666201
vn 0.03160505057436361 0.23021970418381904 0.9726253176756744
vn 0.14644120626939053 0.5338070228531624 0.8328295356548117
vn 0.07524908216661916 0.4481050129021226 0.8908083256487167
vn 0.3343070913471197 0.6475897832384144 0.6847380822769041
vn 0.12019440401244506 -0.14463640482839163 0.9821576327873295
vn 0.03097082950586834 0.10438339833458936 0.9940547841401102
vn 0.015909299506521063 0.2274881929437097 0.9736508697990349
vn 0.11968500425917708 0.5493258195486137 0.8269925294298159
vn 0.061493469257693556 0.4560688944946529 0.8878173892828853
vn 0.2861437814471975 0.6839595556538796 0.671059656490275
vn 0.06050421791274191 -0.1550342946516692 0.9860545659833572
vn 0 0.10260180095576174 0.994722509266094
vn 0 0.22657500472808884 0.973993720324965
vn 0.09123626495617859 0.5615605305053507 0.8223902446742635
vn 0.04687225098707518 0.4623455097364594 0.8854601186467621
vn 0.23384600352237914 0.7142539107586745 0.6596646099364063
vn 0 -0.0328141290629943 0.9994614714604245
vn 0 -0.15851049869438572 0.9873572918673652
vn -0.015909299506521063 0.2274881929437097 0.9736508697990349
vn -0.03097082950586834 0.10438339833458936 0.9940547841401102
vn 0.06152323226531982 0.570383821001851 0.8190709301586498
vn 0.03160505098271859 0.46687091451675294 0.8837605274794018
vn 0.1782510005333805 0.7381328022087148 0.6506816019470347
vn -0.06050421791274191 -0.1550342946516692 0.9860545659833572
vn -0.03160505057436361 0.23021970418381904 0.9726253176756744
vn -0.06152323061808782 0.10971230110221493 0.9920575099666201
vn 0.03097083140632465 0.5757102261418707 0.81706703710141
vn 0.01590929943922632 0.4696023834473754 0.882734668885219
vn 0.12019439768282872 0.7553506854379491 0.6442038875806964
vn -0.12019440401244506 -0.14463640482839163 0.9821576327873295
vn -0.0468722488390074 0.23474529418552412 0.9709261759508422
vn -0.09123625747046352 0.11853949671347762 0.9887488725868157
vn 0 0.5774909769091938 0.8163970673566048
vn 0 0.47051551224066335 0.8823917229558006
vn 0.06050422254784107 0.7657436322455687 0.6402936269628523
vn -0.17825099545539105 -0.12741039675160082 0.9757013751239473
vn -0.0614934692597499 0.241022197098607 0.9685694883404908
vn -0.11968499639330825 0.13077949605897674 0.9841606703424466
vn -0.01590929943922632 0.4696023834473754 0.882734668885219
vn -0.03097083140632465 0.5757102261418707 0.81706703710141
vn 0 0.7692181088632002 0.6389863073626242
vn 0 0.682556308000007 0.7308330085658418
vn -0.2338460112523137 -0.10352090498126838 0.9667468465183849
vn -0.07524908051857805 0.2489863017158856 0.9655793066542772
vn -0.14644120005046657 0.1463046000504193 0.9783404003371557
vn -0.03160505098271859 0.46687091451675294 0.8837605274794018
vn -0.06152323226531982 0.570383821001851 0.8190709301586498
vn -0.06050422254784107 0.7657436322455687 0.6402936269628523
vn -0.286143801240765 -0.07321382031746697 0.9553855041427034
vn -0.08791888245542434 0.2585486072208211 0.9619890268667118
vn -0.1710767065367436 0.1649384063022024 0.9713537371148734
vn -0.04687225098707518 0.4623455097364594 0.8854601186467621
vn -0.09123626495617859 0.5615605305053507 0.8223902446742635
vn -0.12019439768282872 0.7553506854379491 0.6442038875806964
vn -0.3343070970331742 -0.03683006967314983 0.9417442916424409
vn -0.09928569144505577 0.2695917039237781 0.9578427139409429
vn -0.1931703083689367 0.18644920807775062 0.9632870417335788
vn -0.061493469257693556 0.4560688944946529 0.8878173892828853
vn -0.11968500425917708 0.5493258195486137 0.8269925294298159
vn -0.1782510005333805 0.7381328022087148 0.6506816019470347
vn -0.3775112079722553 0.005181269109417473 0.9259905195550031
vn -0.10914069769463526 0.28196659404405616 0.9531962798657593
vn -0.21231839718104337 0.21054499720458864 0.9542492873304086
vn -0.07524908216661916 0.4481050129021226 0.8908083256487167
vn -0.14644120626939053 0.5338070228531624 0.8328295356548117
vn -0.23384600352237914 0.7142539107586745 0.6596646099364063
vn -0.41496410917871823 0.05225209115577981 0.9083361200917649
vn -0.1172907983090221 0.2954916957399049 0.9481178863310131
vn -0.22814809182286913 0.2368703915102501 0.9443732661524069
vn -0.08791888092183762 0.43854300459816387 0.8943994093778608
vn -0.17107669733872324 0.5151801919858336 0.8398345869354957
vn -0.2861437814471975 0.6839595556538796 0.671059656490275
vn -0.445933378837416 0.1036896950792157 0.8890398578089878
vn -0.12356649867144143 0.3099526966674597 0.9426879898644357
vn -0.24033368946762504 0.2650081883862905 0.9338149590765269
vn -0.09928569161830136 0.4275003069680162 0.8985465146458069
vn -0.19317030117146777 0.49367640299386584 0.8479203051421534
vn -0.3343070913471197 0.6475897832384144 0.6847380822769041
vn -0.46977782026842124 0.15867910684616163 0.8684064374671318
vn -0.12783109882469404 0.32510609701090604 0.9369979913850438
vn -0.24861240329571918 0.2944858039038376 0.9227513122324115
vn -0.10914070018934327 0.41512560072018245 0.9031938015669104
vn -0.21231840044438136 0.46958760098284436 0.8569763017936474
vn -0.3775112176204648 0.6055928282662517 0.7005302326974876
vn -0.485979812710671 0.2162953056571452 0.846782122147358
vn -0.12998830249967963 0.3406852065513883 0.9311480179060092
vn -0.2527995008083681 0.32478610103855693 0.9113761029142756
vn -0.1172908002815161 0.40160080096390394 0.9082729021799959
vn -0.22814810611601083 0.4432684118827827 0.8668688232383219
vn -0.41496410700697817 0.5585359094312949 0.7182217121277089
vn -0.49417502804279045 0.27552471563511177 0.824546646790282
vn -0.12998830405734255 0.35640781112460507 0.9252440288797673
vn -0.25279950223357206 0.355363203139758 0.8998941079508794
vn -0.12356650230489773 0.38714000722135916 0.913703417043397
vn -0.2403336957028889 0.415135592577471 0.8774406843115627
vn -0.44593337106420267 0.5071108670945073 0.7375513521416477
vn -0.49417501006755815 0.33529720683082714 0.8021015163407772
vn -0.2486124067570951 0.3856616104819874 0.888513924149129
vn -0.1278310927865773 0.3719867790090357 0.9193938481192229
vn -0.4697778009990835 0.45213170096155514 0.7582122016125014
vn -0.48597982201555223 0.39452291787242894 0.7798559353285432
usemtl material_0_0
f 1//1 2//2 3//3
f 2//2 1//1 4//4
f 5//5 4//4 1//1
f 4//4 5//5 6//6
f 4//4 7//7 2//2
f 7//7 4//4 8//8
f 3//3 9//9 10//10
f 9//9 3//3 2//2
f 11//11 6//6 5//5
f 6//6 11//11 12//12
f 6//6 8//8 4//4
f 8//8 6//6 13//13
f 2//2 14//14 9//9
f 14//14 2//2 7//7
f 10//10 15//15 16//16
f 15//15 10//10 9//9
f 11//11 17//17 12//12
f 17//17 11//11 18//18
f 12//12 13//13 6//6
f 13//13 12//12 19//19
f 9//9 20//20 15//15
f 20//20 9//9 14//14
f 16//16 21//21 22//22
f 21//21 16//16 15//15
f 18//18 23//23 17//17
f 23//23 18//18 24//24
f 17//17 19//19 12//12
f 19//19 17//17 25//25
f 15//15 26//26 21//21
f 26//26 15//15 20//20
f 22//22 27//27 28//28
f 27//27 22//22 21//21
f 24//24 29//29 23//23
f 29//29 24//24 30//30
f 17//17 31//31 25//25
f 31//31 17//17 23//23
f 21//21 32//32 27//27
f 32//32 21//21 26//26
f 28//28 33//33 34//34
f 33//33 28//28 27//27
f 30//30 35//35 29//29
f 35//35 30//30 36//36
f 23//23 37//37 31//31
f 37//37 23//23 29//29
f 27//27 38//38 33//33
f 38//38 27//27 32//32
f 34//34 39//39 40//40
f 39//39 34//34 33//33
f 36//36 41//41 35//35
f 41//41 36//36 42//42
f 29//29 43//43 37//37
f 43//43 29//29 35//35
f 33//33 44//44 39//39
f 44//44 33//33 38//38
f 40//40 45//45 46//46
f 45//45 40//40 39//39
f 42//42 47//47 41//41
f 47//47 42//42 48//48
f 35//35 49//49 43//43
f 49//49 35//35 41//41
f 39//39 50//50 45//45
f 50//50 39//39 44//44
f 46//46 51//51 52//52
f 51//51 46//46 45//45
f 48//48 53//53 47//47
f 53//53 48//48 54//54
f 41//41 55//55 49//49
f 55//55 41//41 47//47
f 45//45 56//56 51//51
f 56//56 45//45 50//50
f 52//52 57//57 58//58
f 57//57 52//52 51//51
f 54//54 59//59 53//53
f 59//59 54//54 60//60
f 47//47 61//61 55//55
f 61//61 47//47 53//53
f 51//51 62//62 57//57
f 62//62 51//51 56//56
f 58//58 63//63 64//64
f 63//63 58//58 57//57
f 60//60 65//65 59//59
f 65//65 60//60 66//66
f 53//53 67//67 61//61
f 67//67 53//53 59//59
f 57//57 68//68 63//63
f 68//68 57//57 62//62
f 68//68 62//62 69//69
f 63//63 70//70 64//64
f 70//70 63//63 71//71
f 66//66 72//72 65//65
f 72//72 66//66 73//73
f 59//59 74//74 67//67
f 74//74 59//59 65//65
f 68//68 71//71 63//63
f 71//71 68//68 75//75
f 75//75 68//68 69//69
f 71//71 76//76 70//70
f 76//76 71//71 77//77
f 73//73 78//78 72//72
f 78//78 73//73 79//79
f 65//65 80//80 74//74
f 80//80 65//65 72//72
f 75//75 77//77 71//71
f 77//77 75//75 81//81
f 77//77 82//82 76//76
f 82//82 77//77 83//83
f 79//79 84//84 78//78
f 84//84 79//79 85//85
f 72//72 86//86 80//80
f 86//86 72//72 78//78
f 81//81 83//83 77//77
f 83//83 81//81 87//87
f 83//83 88//88 82//82
f 88//88 83//83 89//89
f 84//84 90//90 91//91
f 90//90 84//84 85//85
f 78//78 92//92 86//86
f 92//92 78//78 93//93
f 93//93 78//78 84//84
f 87//87 89//89 83//83
f 89//89 87//87 94//94
f 89//89 95//95 88//88
f 95//95 89//89 96//96
f 91//91 97//97 98//98
f 97//97 91//91 90//90
f 92//92 91//91 99//99
f 91//91 92//92 93//93
f 91//91 93//93 84//84
f 94//94 96//96 89//89
f 96//96 94//94 100//100
f 96//96 101//101 95//95
f 101//101 96//96 102//102
f 98//98 103//103 104//104
f 103//103 98//98 97//97
f 99//99 98//98 105//105
f 98//98 99//99 91//91
f 100//100 102//102 96//96
f 102//102 100//100 106//106
f 102//102 107//107 101//101
f 107//107 102//102 108//108
f 104//104 109//109 110//110
f 109//109 104//104 103//103
f 105//105 104//104 111//111
f 104//104 105//105 98//98
f 106//106 108//108 102//102
f 108//108 106//106 112//112
f 108//108 113//113 107//107
f 113//113 108//108 114//114
f 110//110 115//115 116//116
f 115//115 110//110 109//109
f 111//111 110//110 117//117
f 110//110 111//111 104//104
f 112//112 114//114 108//108
f 114//114 112//112 118//118
f 114//114 119//119 113//113
f 119//119 114//114 120//120
f 116//116 121//121 122//122
f 121//121 116//116 115//115
f 117//117 116//116 123//123
f 116//116 117//117 110//110
f 118//118 120//120 114//114
f 120//120 118//118 124//124
f 120//120 125//125 119//119
f 125//125 120//120 126//126
f 122//122 127//127 128//128
f 127//127 122//122 121//121
f 123//123 122//122 129//129
f 122//122 123//123 116//116
f 124//124 126//126 120//120
f 126//126 124//124 130//130
f 126//126 131//131 125//125
f 131//131 126//126 132//132
f 128//128 133//133 134//134
f 133//133 128//128 127//127
f 129//129 128//128 135//135
f 128//128 129//129 122//122
f 130//130 132//132 126//126
f 132//132 130//130 136//136
f 132//132 137//137 131//131
f 137//137 132//132 138//138
f 134//134 139//139 140//140
f 139//139 134//134 133//133
f 135//135 134//134 141//141
f 134//134 135//135 128//128
f 136//136 138//138 132//132
f 138//138 136//136 142//142
f 138//138 143//143 137//137
f 143//143 138//138 144//144
f 140//140 145//145 146//146
f 145//145 140//140 139//139
f 141//141 140//140 147//147
f 140//140 141//141 134//134
f 142//142 144//144 138//138
f 144//144 142//142 148//148
f 149//149 143//143 144//144
f 143//143 149//149 150//150
f 146//146 150//150 149//149
f 150//150 146//146 145//145
f 147//147 146//146 151//151
f 146//146 147//147 140//140
f 148//148 149//149 144//144
f 149//149 148//148 152//152
f 151//151 149//149 152//152
f 149//149 151//151 146//146
