# SSTK version 0.8.0
# 111
mtllib original-111.mtl
o #ID817
v 0.099933 0.498260 0.448526
v 0.105139 0.496675 0.449363
v 0.104993 0.496352 0.449242
v 0.100008 0.498609 0.448637
v 0.099846 0.497896 0.448511
v 0.104823 0.496019 0.449215
v 0.094517 0.498909 0.448282
v 0.094517 0.499267 0.448389
v 0.109568 0.493582 0.450524
v 0.109360 0.493303 0.450388
v 0.099752 0.497542 0.448592
v 0.104641 0.495698 0.449284
v 0.094517 0.498534 0.448271
v 0.109118 0.493020 0.450342
v 0.089026 0.498609 0.448637
v 0.089101 0.498260 0.448526
v 0.112989 0.489524 0.452049
v 0.112733 0.489303 0.451889
v 0.089282 0.461458 0.462141
v 0.099752 0.461458 0.462141
v 0.094517 0.460830 0.462378
v 0.084393 0.463301 0.461449
v 0.104641 0.463301 0.461449
v 0.108859 0.466246 0.460344
v 0.080175 0.466246 0.460344
v 0.076920 0.470107 0.458893
v 0.112114 0.470107 0.458893
v 0.074862 0.474629 0.457195
v 0.114172 0.474629 0.457195
v 0.074157 0.479500 0.455366
v 0.114877 0.479500 0.455366
v 0.114172 0.484370 0.453538
v 0.074862 0.484370 0.453538
v 0.076920 0.488892 0.451840
v 0.112114 0.488892 0.451840
v 0.080175 0.492753 0.450390
v 0.108859 0.492753 0.450390
v 0.104641 0.495698 0.449284
v 0.084393 0.495698 0.449284
v 0.089282 0.497542 0.448592
v 0.099752 0.497542 0.448592
v 0.094517 0.498169 0.448357
v 0.094517 0.498169 0.448357
v 0.108859 0.492753 0.450390
v 0.089189 0.497896 0.448511
v 0.112434 0.489087 0.451818
v 0.083895 0.496675 0.449363
v 0.084041 0.496352 0.449242
v 0.115153 0.484770 0.453834
v 0.114866 0.484616 0.453649
v 0.112114 0.488892 0.451840
v 0.114531 0.484479 0.453549
v 0.114172 0.484370 0.453538
v 0.115249 0.479517 0.455412
v 0.114877 0.479500 0.455366
v 0.114172 0.474629 0.457195
v 0.114531 0.474554 0.457276
v 0.112114 0.470107 0.458893
v 0.112434 0.469946 0.459005
v 0.108859 0.466246 0.460344
v 0.109118 0.466014 0.460483
v 0.104641 0.463301 0.461449
v 0.104823 0.463014 0.461609
v 0.099752 0.461458 0.462141
v 0.099846 0.461138 0.462314
v 0.094517 0.460830 0.462378
v 0.094517 0.460499 0.462554
v 0.089189 0.461138 0.462314
v 0.089282 0.461458 0.462141
v 0.084211 0.463014 0.461609
v 0.084393 0.463301 0.461449
v 0.079916 0.466014 0.460483
v 0.080175 0.466246 0.460344
v 0.076600 0.469946 0.459005
v 0.076920 0.470107 0.458893
v 0.074503 0.474554 0.457276
v 0.074862 0.474629 0.457195
v 0.073785 0.479517 0.455412
v 0.074157 0.479500 0.455366
v 0.074862 0.484370 0.453538
v 0.074503 0.484479 0.453549
v 0.076920 0.488892 0.451840
v 0.076600 0.489087 0.451818
v 0.080175 0.492753 0.450390
v 0.079916 0.493020 0.450342
v 0.084393 0.495698 0.449284
v 0.084211 0.496019 0.449215
v 0.089282 0.497542 0.448592
v 0.079466 0.493582 0.450524
v 0.079674 0.493303 0.450388
v 0.115894 0.479646 0.455758
v 0.115596 0.479567 0.455545
v 0.114866 0.474518 0.457441
v 0.112733 0.469831 0.459201
v 0.109360 0.465831 0.460704
v 0.104993 0.462781 0.461849
v 0.099933 0.460874 0.462565
v 0.094517 0.460225 0.462808
v 0.089101 0.460874 0.462565
v 0.084041 0.462781 0.461849
v 0.079674 0.465831 0.460704
v 0.076301 0.469831 0.459201
v 0.074168 0.474518 0.457441
v 0.073438 0.479567 0.455545
v 0.074168 0.484616 0.453649
v 0.076301 0.489303 0.451889
v 0.076045 0.489524 0.452049
v 0.115153 0.474523 0.457681
v 0.112989 0.469768 0.459466
v 0.109568 0.465711 0.460991
v 0.105139 0.462618 0.462152
v 0.100008 0.460684 0.462878
v 0.094517 0.460026 0.463125
v 0.089026 0.460684 0.462878
v 0.083895 0.462618 0.462152
v 0.079466 0.465711 0.460991
v 0.076045 0.469768 0.459466
v 0.073881 0.474523 0.457681
v 0.073140 0.479646 0.455758
v 0.073881 0.484770 0.453834
vn 0.1273867979370033 0.15395289750677232 -0.9798321841318678
vn 0.3218167121698934 0.27125791025795054 -0.9071125343035721
vn 0.24731350259994625 0.10868180114254535 -0.9628210101219015
vn 0.16578129437510625 0.3302565887945248 -0.9292185684719814
vn 0.06728894847261756 -0.09720116779364406 -0.992987477460316
vn 0.13066109416325017 -0.1210709945916484 -0.9840068560435193
vn 0 0.1692363978604113 -0.9855754875397584
vn 0 0.470899484546996 -0.8821868710502178
vn 0.5236474850909368 0.27160879226687284 -0.8074787770098157
vn 0.3521523155920609 0.03536457156581855 -0.9352743414106449
vn 0.03266724921132046 -0.23128779441605998 -0.9723367765250474
vn 0.06340872292483399 -0.2429202112051031 -0.9679716446493202
vn 0 -0.08914588816137246 -0.9960185794571907
vn 0.1860971978589992 -0.1597552981620558 -0.9694565888466492
vn -0.18946230548725854 0.44813891297912056 -0.8736564253030735
vn -0.1273867979370033 0.15395289750677232 -0.9798321841318678
vn 0.6457082691205687 0.12645509395259208 -0.7530404639876668
vn 0.4342912160719556 -0.062201622301915366 -0.8986223332556075
vn 0 -0.3515416202868696 -0.9361722540249108
vn 0 -0.2273590024325138 -0.9738110104188042
vn 0.090263072829818 -0.26174500820591073 -0.9609069301251848
vn -0.06728894847261756 -0.09720116779364406 -0.992987477460316
vn 0.22956399335737085 -0.21127609388654653 -0.9500856725084641
vn -0.36779720483660505 0.3807336050067214 -0.8483909111565059
vn -0.24731350259994625 0.10868180114254535 -0.9628210101219015
vn 0.6332620156346283 -0.10183320251416336 -0.7672087189416431
vn 0.48687541415549157 -0.17791620517276324 -0.8551597248630468
vn 0.11128460175729737 -0.2867736045284475 -0.9515128150253581
vn 0.2574099128887373 -0.2724251136405612 -0.927105546420978
vn 0.12473190425045115 -0.3164338107830184 -0.9403784320449897
vn 0.2670127140850158 -0.33877821787067147 -0.9021826475904563
vn 0.12936530111841413 -0.3485876030136773 -0.9283056080255687
vn 0.12473189751219364 -0.38074069240603914 -0.9162305817255706
vn 0.2574098901225713 -0.40513568445398157 -0.8772714663370109
vn 0.11128460070493176 -0.4103987025996684 -0.9050904057332908
vn 0.22956399645829928 -0.46629669280600017 -0.8543229868195522
vn 0.09026306651454252 -0.4354243831863324 -0.8956886654134868
vn 0.1860971983626117 -0.5178334954438081 -0.8349947926532443
vn 0.06340872255281753 -0.4542464182878342 -0.8886166357754586
vn 0.1306611028511749 -0.5565335121441984 -0.8204865179039557
vn 0.03266725074742895 -0.46587691065929554 -0.8842463202316169
vn 0.06728894896783355 -0.5804146910968353 -0.8115361875515901
vn 0 -0.4698050084487288 -0.8827702158752807
vn 0 -0.5884741327701213 -0.8085160450235068
vn -0.06728894896783355 -0.5804146910968353 -0.8115361875515901
vn -0.03266725074742895 -0.46587691065929554 -0.8842463202316169
vn -0.1306611028511749 -0.5565335121441984 -0.8204865179039557
vn -0.06340872255281753 -0.4542464182878342 -0.8886166357754586
vn -0.1860971983626117 -0.5178334954438081 -0.8349947926532443
vn -0.09026306651454252 -0.4354243831863324 -0.8956886654134868
vn -0.22956399645829928 -0.46629669280600017 -0.8543229868195522
vn -0.11128460070493176 -0.4103987025996684 -0.9050904057332908
vn -0.2574098901225713 -0.40513568445398157 -0.8772714663370109
vn -0.12473189751219364 -0.38074069240603914 -0.9162305817255706
vn -0.2670127140850158 -0.33877821787067147 -0.9021826475904563
vn -0.12936530111841413 -0.3485876030136773 -0.9283056080255687
vn -0.12473190425045115 -0.3164338107830184 -0.9403784320449897
vn -0.2574099128887373 -0.2724251136405612 -0.927105546420978
vn -0.11128460175729737 -0.2867736045284475 -0.9515128150253581
vn -0.22956399335737085 -0.21127609388654653 -0.9500856725084641
vn -0.090263072829818 -0.26174500820591073 -0.9609069301251848
vn -0.1860971978589992 -0.1597552981620558 -0.9694565888466492
vn -0.06340872292483399 -0.2429202112051031 -0.9679716446493202
vn -0.13066109416325017 -0.1210709945916484 -0.9840068560435193
vn -0.03266724921132046 -0.23128779441605998 -0.9723367765250474
vn -0.5236474850909368 0.27160879226687284 -0.8074787770098157
vn -0.3521523155920609 0.03536457156581855 -0.9352743414106449
vn 0.6568086314951371 -0.26508251271117583 -0.7059275338504757
vn 0.5050019879725469 -0.303421992773506 -0.8080272807555013
vn 0.48687541215107155 -0.42893031070492094 -0.7609015189900098
vn 0.43429121164577733 -0.5446519146051652 -0.7174576192390533
vn 0.35215230105798695 -0.642227901929474 -0.6808319020454541
vn 0.24731349324256077 -0.7155552804486149 -0.6533120821493092
vn 0.1273867977551612 -0.7608338865924141 -0.6363209887866088
vn 0 -0.7761201085505074 -0.6305851069471501
vn -0.1273867977551612 -0.7608338865924141 -0.6363209887866088
vn -0.24731349324256077 -0.7155552804486149 -0.6533120821493092
vn -0.35215230105798695 -0.642227901929474 -0.6808319020454541
vn -0.43429121164577733 -0.5446519146051652 -0.7174576192390533
vn -0.48687541215107155 -0.42893031070492094 -0.7609015189900098
vn -0.5050019879725469 -0.303421992773506 -0.8080272807555013
vn -0.48687541415549157 -0.17791620517276324 -0.8551597248630468
vn -0.4342912160719556 -0.062201622301915366 -0.8986223332556075
vn -0.6457082691205687 0.12645509395259208 -0.7530404639876668
vn 0.6332620062658995 -0.42831840423805617 -0.644610406378188
vn 0.6457082768584422 -0.5908565788242737 -0.48368308266526794
vn 0.4581644798331005 -0.7058217689320379 -0.5402785762187071
vn 0.36779720068816146 -0.8450472015811129 -0.3880985007261461
vn 0.18946228858486525 -0.9124223450264002 -0.36275267814409035
vn 0 -0.8801593102085058 -0.4746784055055459
vn -0.16578130150900025 -0.860247607830279 -0.4821728043889082
vn -0.36779720068816146 -0.8450472015811129 -0.3880985007261461
vn -0.5236474895588855 -0.7359653853254354 -0.4291249914435891
vn -0.564937216039692 -0.5788497164346955 -0.5880297166953342
vn -0.6332620062658995 -0.42831840423805617 -0.644610406378188
vn -0.6568086314951371 -0.26508251271117583 -0.7059275338504757
vn -0.6332620156346283 -0.10183320251416336 -0.7672087189416431
usemtl material_0_0
f 1//1 2//2 3//3
f 2//2 1//1 4//4
f 5//5 3//3 6//6
f 3//3 5//5 1//1
f 7//7 4//4 1//1
f 4//4 7//7 8//8
f 3//3 9//9 10//10
f 9//9 3//3 2//2
f 11//11 6//6 12//12
f 6//6 11//11 5//5
f 13//13 1//1 5//5
f 1//1 13//13 7//7
f 6//6 10//10 14//14
f 10//10 6//6 3//3
f 15//15 7//7 16//16
f 7//7 15//15 8//8
f 10//10 17//17 18//18
f 17//17 10//10 9//9
f 19//19 20//19 21//19
f 20//19 19//19 22//19
f 20//19 22//19 23//19
f 23//19 22//19 24//19
f 24//19 22//19 25//19
f 24//19 25//19 26//19
f 24//19 26//19 27//19
f 27//19 26//19 28//19
f 27//19 28//19 29//19
f 29//19 28//19 30//19
f 29//19 30//19 31//19
f 31//19 30//19 32//19
f 32//19 30//19 33//19
f 32//19 33//19 34//19
f 32//19 34//19 35//19
f 35//19 34//19 36//19
f 35//19 36//19 37//19
f 37//19 36//19 38//19
f 38//19 36//19 39//19
f 38//19 39//19 40//19
f 38//19 40//19 41//19
f 41//19 40//19 42//19
f 43//20 5//5 11//11
f 5//5 43//20 13//13
f 12//12 14//14 44//21
f 14//14 12//12 6//6
f 16//16 13//13 45//22
f 13//13 16//16 7//7
f 14//14 18//18 46//23
f 18//18 14//14 10//10
f 47//24 16//16 48//25
f 16//16 47//24 15//15
f 18//18 49//26 50//27
f 49//26 18//18 17//17
f 44//21 46//23 51//28
f 46//23 44//21 14//14
f 51//28 52//29 53//30
f 52//29 51//28 46//23
f 53//30 54//31 55//32
f 54//31 53//30 52//29
f 56//33 54//31 57//34
f 54//31 56//33 55//32
f 58//35 57//34 59//36
f 57//34 58//35 56//33
f 60//37 59//36 61//38
f 59//36 60//37 58//35
f 62//39 61//38 63//40
f 61//38 62//39 60//37
f 64//41 63//40 65//42
f 63//40 64//41 62//39
f 66//43 65//42 67//44
f 65//42 66//43 64//41
f 68//45 66//43 67//44
f 66//43 68//45 69//46
f 70//47 69//46 68//45
f 69//46 70//47 71//48
f 72//49 71//48 70//47
f 71//48 72//49 73//50
f 74//51 73//50 72//49
f 73//50 74//51 75//52
f 76//53 75//52 74//51
f 75//52 76//53 77//54
f 78//55 77//54 76//53
f 77//54 78//55 79//56
f 78//55 80//57 79//56
f 80//57 78//55 81//58
f 81//58 82//59 80//57
f 82//59 81//58 83//60
f 83//60 84//61 82//59
f 84//61 83//60 85//62
f 85//62 86//63 84//61
f 86//63 85//62 87//64
f 87//64 88//65 86//63
f 88//65 87//64 45//22
f 45//22 43//20 88//65
f 43//20 45//22 13//13
f 48//25 45//22 87//64
f 45//22 48//25 16//16
f 46//23 50//27 52//29
f 50//27 46//23 18//18
f 89//66 48//25 90//67
f 48//25 89//66 47//24
f 50//27 91//68 92//69
f 91//68 50//27 49//26
f 52//29 92//69 54//31
f 92//69 52//29 50//27
f 57//34 92//69 93//70
f 92//69 57//34 54//31
f 59//36 93//70 94//71
f 93//70 59//36 57//34
f 61//38 94//71 95//72
f 94//71 61//38 59//36
f 63//40 95//72 96//73
f 95//72 63//40 61//38
f 65//42 96//73 97//74
f 96//73 65//42 63//40
f 67//44 97//74 98//75
f 97//74 67//44 65//42
f 99//76 67//44 98//75
f 67//44 99//76 68//45
f 100//77 68//45 99//76
f 68//45 100//77 70//47
f 101//78 70//47 100//77
f 70//47 101//78 72//49
f 102//79 72//49 101//78
f 72//49 102//79 74//51
f 103//80 74//51 102//79
f 74//51 103//80 76//53
f 104//81 76//53 103//80
f 76//53 104//81 78//55
f 104//81 81//58 78//55
f 81//58 104//81 105//82
f 105//82 83//60 81//58
f 83//60 105//82 106//83
f 106//83 85//62 83//60
f 85//62 106//83 90//67
f 90//67 87//64 85//62
f 87//64 90//67 48//25
f 107//84 90//67 106//83
f 90//67 107//84 89//66
f 92//69 108//85 93//70
f 108//85 92//69 91//68
f 94//71 108//85 109//86
f 108//85 94//71 93//70
f 94//71 110//87 95//72
f 110//87 94//71 109//86
f 95//72 111//88 96//73
f 111//88 95//72 110//87
f 96//73 112//89 97//74
f 112//89 96//73 111//88
f 97//74 113//90 98//75
f 113//90 97//74 112//89
f 99//76 113//90 114//91
f 113//90 99//76 98//75
f 100//77 114//91 115//92
f 114//91 100//77 99//76
f 101//78 115//92 116//93
f 115//92 101//78 100//77
f 102//79 116//93 117//94
f 116//93 102//79 101//78
f 118//95 102//79 117//94
f 102//79 118//95 103//80
f 118//95 104//81 103//80
f 104//81 118//95 119//96
f 119//96 105//82 104//81
f 105//82 119//96 120//97
f 120//97 106//83 105//82
f 106//83 120//97 107//84
