# SSTK version 0.8.0
# 74
mtllib original-74.mtl
o #ID565
v -0.203072 -0.447439 0.513962
v -0.226077 -0.436343 0.535665
v -0.226077 -0.436343 0.513962
v -0.203072 -0.447439 0.533405
v -0.203072 -0.447439 0.533405
v -0.203072 -0.447439 0.513962
v -0.226077 -0.436343 0.535665
v -0.226077 -0.436343 0.513962
v -0.203072 -0.447439 0.513962
v -0.186039 -0.455602 0.531742
v -0.203072 -0.447439 0.533405
v -0.186039 -0.455602 0.513962
v -0.186039 -0.455602 0.513962
v -0.203072 -0.447439 0.513962
v -0.186039 -0.455602 0.531742
v -0.203072 -0.447439 0.533405
v -0.249190 -0.426171 0.537736
v -0.249190 -0.426171 0.513962
v -0.249190 -0.426171 0.537736
v -0.249190 -0.426171 0.513962
v -0.168915 -0.462978 0.513962
v -0.168915 -0.462978 0.530241
v -0.168915 -0.462978 0.530241
v -0.168915 -0.462978 0.513962
v -0.272402 -0.416926 0.539619
v -0.272402 -0.416926 0.513962
v -0.272402 -0.416926 0.539619
v -0.272402 -0.416926 0.513962
v -0.155701 -0.468036 0.513962
v -0.155701 -0.468036 0.529210
v -0.155701 -0.468036 0.529210
v -0.155701 -0.468036 0.513962
v -0.295702 -0.408612 0.541312
v -0.295702 -0.408612 0.513962
v -0.295702 -0.408612 0.541312
v -0.295702 -0.408612 0.513962
v -0.155701 -0.468036 0.513962
v -0.151710 -0.469564 0.528900
v -0.155701 -0.468036 0.529210
v -0.151710 -0.469564 0.513962
v -0.151710 -0.469564 0.513962
v -0.155701 -0.468036 0.513962
v -0.151710 -0.469564 0.528900
v -0.155701 -0.468036 0.529210
v -0.319082 -0.401233 0.542815
v -0.319082 -0.401233 0.513962
v -0.319082 -0.401233 0.542815
v -0.319082 -0.401233 0.513962
v -0.135701 -0.474932 0.527806
v -0.134433 -0.475357 0.513962
v -0.134433 -0.475357 0.527694
v -0.134433 -0.475357 0.527694
v -0.134433 -0.475357 0.513962
v -0.135701 -0.474932 0.527806
v -0.342532 -0.394792 0.544125
v -0.342532 -0.394792 0.513962
v -0.342532 -0.394792 0.544125
v -0.342532 -0.394792 0.513962
v -0.117092 -0.480354 0.513962
v -0.117092 -0.480354 0.526374
v -0.117092 -0.480354 0.526374
v -0.117092 -0.480354 0.513962
v -0.366043 -0.389292 0.545245
v -0.366043 -0.389292 0.513962
v -0.366043 -0.389292 0.545245
v -0.366043 -0.389292 0.513962
v -0.099698 -0.484552 0.525265
v -0.099698 -0.484552 0.513962
v -0.099698 -0.484552 0.513962
v -0.099698 -0.484552 0.525265
v -0.389605 -0.384734 0.513962
v -0.389605 -0.384734 0.546173
v -0.389605 -0.384734 0.513962
v -0.389605 -0.384734 0.546173
v -0.082260 -0.487948 0.524368
v -0.082260 -0.487948 0.513962
v -0.082260 -0.487948 0.513962
v -0.082260 -0.487948 0.524368
v -0.413208 -0.381120 0.513962
v -0.394963 -0.383913 0.546341
v -0.413208 -0.381120 0.546744
v -0.394963 -0.383913 0.546341
v -0.413208 -0.381120 0.513962
v -0.413208 -0.381120 0.546744
v -0.064787 -0.490541 0.513962
v -0.064787 -0.490541 0.523682
v -0.064787 -0.490541 0.523682
v -0.064787 -0.490541 0.513962
v -0.436843 -0.378453 0.547131
v -0.436843 -0.378453 0.513962
v -0.436843 -0.378453 0.547131
v -0.436843 -0.378453 0.513962
v -0.047288 -0.492330 0.513962
v -0.047288 -0.492330 0.523210
v -0.047288 -0.492330 0.523210
v -0.047288 -0.492330 0.513962
v -0.460500 -0.376732 0.513962
v -0.460500 -0.376732 0.547379
v -0.460500 -0.376732 0.513962
v -0.460500 -0.376732 0.547379
v -0.029774 -0.493313 0.522950
v -0.029774 -0.493313 0.513962
v -0.029774 -0.493313 0.513962
v -0.029774 -0.493313 0.522950
v -0.484170 -0.375959 0.547490
v -0.484170 -0.375959 0.513962
v -0.484170 -0.375959 0.547490
v -0.484170 -0.375959 0.513962
v -0.014912 -0.493463 0.522911
v -0.014912 -0.493463 0.513962
v -0.014912 -0.493463 0.513962
v -0.014912 -0.493463 0.522911
v -0.484170 -0.368159 0.513962
v -0.484170 -0.375959 0.547490
v -0.484170 -0.368159 0.548618
v -0.484170 -0.375959 0.513962
v -0.484170 -0.375959 0.513962
v -0.484170 -0.368159 0.513962
v -0.484170 -0.375959 0.547490
v -0.484170 -0.368159 0.548618
v -0.011570 -0.493466 0.513962
v -0.014912 -0.493463 0.522911
v -0.014912 -0.493463 0.513962
v -0.011570 -0.493466 0.522910
v -0.011570 -0.493466 0.522910
v -0.011570 -0.493466 0.513962
v -0.014912 -0.493463 0.522911
v -0.014912 -0.493463 0.513962
v -0.480179 -0.368159 0.548618
v -0.484170 -0.368159 0.513962
v -0.484170 -0.368159 0.548618
v -0.480179 -0.368159 0.513962
v -0.480179 -0.368159 0.513962
v -0.480179 -0.368159 0.548618
v -0.484170 -0.368159 0.513962
v -0.484170 -0.368159 0.548618
v -0.011570 -0.493466 0.513962
v 0.005267 -0.493478 0.522906
v -0.011570 -0.493466 0.522910
v 0.022786 -0.493490 0.513962
v 0.022786 -0.493490 0.522904
v 0.022786 -0.493490 0.522904
v 0.022786 -0.493490 0.513962
v 0.005267 -0.493478 0.522906
v -0.011570 -0.493466 0.513962
v -0.011570 -0.493466 0.522910
v -0.460394 -0.368805 0.548525
v -0.480179 -0.368159 0.513962
v -0.480179 -0.368159 0.548618
v -0.460394 -0.368805 0.513962
v -0.460394 -0.368805 0.513962
v -0.460394 -0.368805 0.548525
v -0.480179 -0.368159 0.513962
v -0.480179 -0.368159 0.548618
v 0.040307 -0.493313 0.513962
v 0.022786 -0.493490 0.522904
v 0.022786 -0.493490 0.513962
v 0.040307 -0.493313 0.522950
v 0.040307 -0.493313 0.522950
v 0.040307 -0.493313 0.513962
v 0.022786 -0.493490 0.522904
v 0.022786 -0.493490 0.513962
v -0.436657 -0.370531 0.548275
v -0.436657 -0.370531 0.513962
v -0.436657 -0.370531 0.513962
v -0.436657 -0.370531 0.548275
v 0.057822 -0.492330 0.513962
v 0.057822 -0.492330 0.523210
v 0.057822 -0.492330 0.523210
v 0.057822 -0.492330 0.513962
v -0.412941 -0.373208 0.547887
v -0.412941 -0.373208 0.513962
v -0.412941 -0.373208 0.513962
v -0.412941 -0.373208 0.547887
v 0.075321 -0.490541 0.523682
v 0.075321 -0.490541 0.513962
v 0.075321 -0.490541 0.513962
v 0.075321 -0.490541 0.523682
v -0.389258 -0.376833 0.547363
v -0.389258 -0.376833 0.513962
v -0.389258 -0.376833 0.513962
v -0.389258 -0.376833 0.547363
v 0.092794 -0.487948 0.513962
v 0.092794 -0.487948 0.524368
v 0.092794 -0.487948 0.524368
v 0.092794 -0.487948 0.513962
v -0.365616 -0.381407 0.546703
v -0.365616 -0.381407 0.513962
v -0.365616 -0.381407 0.513962
v -0.365616 -0.381407 0.546703
v 0.110232 -0.484552 0.525265
v 0.110232 -0.484552 0.513962
v 0.110232 -0.484552 0.513962
v 0.110232 -0.484552 0.525265
v -0.342025 -0.386926 0.513962
v -0.354903 -0.383913 0.546341
v -0.342025 -0.386926 0.545727
v -0.342025 -0.386926 0.545727
v -0.354903 -0.383913 0.546341
v -0.342025 -0.386926 0.513962
v 0.127626 -0.480354 0.513962
v 0.127626 -0.480354 0.526374
v 0.127626 -0.480354 0.526374
v 0.127626 -0.480354 0.513962
v -0.318496 -0.393389 0.544411
v -0.318496 -0.393389 0.513962
v -0.318496 -0.393389 0.513962
v -0.318496 -0.393389 0.544411
v 0.144966 -0.475357 0.513962
v 0.144966 -0.475357 0.527694
v 0.144966 -0.475357 0.527694
v 0.144966 -0.475357 0.513962
v -0.295036 -0.400793 0.542904
v -0.295036 -0.400793 0.513962
v -0.295036 -0.400793 0.513962
v -0.295036 -0.400793 0.542904
v 0.162244 -0.469564 0.513962
v 0.146235 -0.474932 0.527806
v 0.162244 -0.469564 0.528900
v 0.162244 -0.469564 0.528900
v 0.162244 -0.469564 0.513962
v 0.146235 -0.474932 0.527806
v -0.271656 -0.409135 0.513962
v -0.271656 -0.409135 0.541205
v -0.271656 -0.409135 0.541205
v -0.271656 -0.409135 0.513962
v 0.166235 -0.468036 0.529210
v 0.166235 -0.468036 0.513962
v 0.166235 -0.468036 0.513962
v 0.166235 -0.468036 0.529210
v -0.248366 -0.418411 0.513962
v -0.248366 -0.418411 0.539316
v -0.248366 -0.418411 0.539316
v -0.248366 -0.418411 0.513962
v 0.166235 -0.468036 0.513962
v 0.179449 -0.462978 0.530241
v 0.166235 -0.468036 0.529210
v 0.179449 -0.462978 0.513962
v 0.179449 -0.462978 0.513962
v 0.166235 -0.468036 0.513962
v 0.179449 -0.462978 0.530241
v 0.166235 -0.468036 0.529210
v -0.225175 -0.428618 0.513962
v -0.225175 -0.428618 0.537237
v -0.225175 -0.428618 0.537237
v -0.225175 -0.428618 0.513962
v 0.196573 -0.455602 0.513962
v 0.196573 -0.455602 0.531742
v 0.196573 -0.455602 0.531742
v 0.196573 -0.455602 0.513962
v -0.202134 -0.439732 0.534974
v -0.202134 -0.439732 0.513962
v -0.202134 -0.439732 0.513962
v -0.202134 -0.439732 0.534974
v 0.213606 -0.447439 0.513962
v 0.213606 -0.447439 0.533405
v 0.213606 -0.447439 0.533405
v 0.213606 -0.447439 0.513962
v -0.185148 -0.447871 0.533317
v -0.202134 -0.439732 0.513962
v -0.202134 -0.439732 0.534974
v -0.185148 -0.447871 0.513962
v -0.185148 -0.447871 0.513962
v -0.185148 -0.447871 0.533317
v -0.202134 -0.439732 0.513962
v -0.202134 -0.439732 0.534974
v 0.213606 -0.447439 0.513962
v 0.236611 -0.436343 0.535665
v 0.213606 -0.447439 0.533405
v 0.236611 -0.436343 0.513962
v 0.236611 -0.436343 0.513962
v 0.213606 -0.447439 0.513962
v 0.236611 -0.436343 0.535665
v 0.213606 -0.447439 0.533405
v -0.168115 -0.455209 0.531823
v -0.168115 -0.455209 0.513962
v -0.168115 -0.455209 0.513962
v -0.168115 -0.455209 0.531823
v 0.259724 -0.426171 0.513962
v 0.259724 -0.426171 0.537736
v 0.259724 -0.426171 0.537736
v 0.259724 -0.426171 0.513962
v -0.151000 -0.461760 0.530488
v -0.151000 -0.461760 0.513962
v -0.151000 -0.461760 0.513962
v -0.151000 -0.461760 0.530488
v 0.282935 -0.416926 0.513962
v 0.282935 -0.416926 0.539619
v 0.282935 -0.416926 0.539619
v 0.282935 -0.416926 0.513962
v -0.133814 -0.467523 0.529315
v -0.133814 -0.467523 0.513962
v -0.133814 -0.467523 0.513962
v -0.133814 -0.467523 0.529315
v 0.306236 -0.408612 0.513962
v 0.306236 -0.408612 0.541312
v 0.306236 -0.408612 0.541312
v 0.306236 -0.408612 0.513962
v -0.116565 -0.472493 0.528302
v -0.116565 -0.472493 0.513962
v -0.116565 -0.472493 0.513962
v -0.116565 -0.472493 0.528302
v 0.329616 -0.401233 0.513962
v 0.329616 -0.401233 0.542815
v 0.329616 -0.401233 0.542815
v 0.329616 -0.401233 0.513962
v -0.099263 -0.476669 0.513962
v -0.106459 -0.474932 0.527806
v -0.099263 -0.476669 0.527348
v -0.099263 -0.476669 0.527348
v -0.106459 -0.474932 0.527806
v -0.099263 -0.476669 0.513962
v 0.353066 -0.394792 0.513962
v 0.353066 -0.394792 0.544125
v 0.353066 -0.394792 0.544125
v 0.353066 -0.394792 0.513962
v -0.081917 -0.480047 0.526455
v -0.081917 -0.480047 0.513962
v -0.081917 -0.480047 0.513962
v -0.081917 -0.480047 0.526455
v 0.376576 -0.389292 0.545245
v 0.376576 -0.389292 0.513962
v 0.376576 -0.389292 0.513962
v 0.376576 -0.389292 0.545245
v -0.064536 -0.482627 0.513962
v -0.064536 -0.482627 0.525774
v -0.064536 -0.482627 0.525774
v -0.064536 -0.482627 0.513962
v 0.400138 -0.384734 0.513962
v 0.400138 -0.384734 0.546173
v 0.400138 -0.384734 0.546173
v 0.400138 -0.384734 0.513962
v -0.047129 -0.484406 0.525303
v -0.047129 -0.484406 0.513962
v -0.047129 -0.484406 0.513962
v -0.047129 -0.484406 0.525303
v 0.405496 -0.383913 0.546341
v 0.423742 -0.381120 0.513962
v 0.423742 -0.381120 0.546744
v 0.423742 -0.381120 0.546744
v 0.423742 -0.381120 0.513962
v 0.405496 -0.383913 0.546341
v -0.029707 -0.485384 0.525045
v -0.029707 -0.485384 0.513962
v -0.029707 -0.485384 0.513962
v -0.029707 -0.485384 0.525045
v 0.447377 -0.378453 0.513962
v 0.447377 -0.378453 0.547131
v 0.447377 -0.378453 0.547131
v 0.447377 -0.378453 0.513962
v -0.012278 -0.485560 0.524999
v -0.012278 -0.485560 0.513962
v -0.012278 -0.485560 0.513962
v -0.012278 -0.485560 0.524999
v 0.471034 -0.376732 0.513962
v 0.471034 -0.376732 0.547379
v 0.471034 -0.376732 0.547379
v 0.471034 -0.376732 0.513962
v 0.005267 -0.485560 0.524999
v -0.012278 -0.485560 0.513962
v -0.012278 -0.485560 0.524999
v 0.022812 -0.485560 0.513962
v 0.022812 -0.485560 0.524999
v 0.022812 -0.485560 0.524999
v 0.005267 -0.485560 0.524999
v 0.022812 -0.485560 0.513962
v -0.012278 -0.485560 0.513962
v -0.012278 -0.485560 0.524999
v 0.494704 -0.375959 0.513962
v 0.494704 -0.375959 0.547490
v 0.494704 -0.375959 0.547490
v 0.494704 -0.375959 0.513962
v 0.040241 -0.485384 0.525045
v 0.022812 -0.485560 0.513962
v 0.022812 -0.485560 0.524999
v 0.040241 -0.485384 0.513962
v 0.040241 -0.485384 0.513962
v 0.040241 -0.485384 0.525045
v 0.022812 -0.485560 0.513962
v 0.022812 -0.485560 0.524999
v 0.494704 -0.375959 0.547490
v 0.494704 -0.368159 0.513962
v 0.494704 -0.368159 0.548618
v 0.494704 -0.375959 0.513962
v 0.494704 -0.375959 0.513962
v 0.494704 -0.375959 0.547490
v 0.494704 -0.368159 0.513962
v 0.494704 -0.368159 0.548618
v 0.057663 -0.484406 0.525303
v 0.057663 -0.484406 0.513962
v 0.057663 -0.484406 0.513962
v 0.057663 -0.484406 0.525303
v 0.490713 -0.368159 0.548618
v 0.494704 -0.368159 0.513962
v 0.490713 -0.368159 0.513962
v 0.494704 -0.368159 0.548618
v 0.494704 -0.368159 0.548618
v 0.490713 -0.368159 0.548618
v 0.494704 -0.368159 0.513962
v 0.490713 -0.368159 0.513962
v 0.075069 -0.482627 0.525774
v 0.075069 -0.482627 0.513962
v 0.075069 -0.482627 0.513962
v 0.075069 -0.482627 0.525774
v 0.490713 -0.368159 0.548618
v 0.470928 -0.368805 0.513962
v 0.470928 -0.368805 0.548525
v 0.490713 -0.368159 0.513962
v 0.490713 -0.368159 0.513962
v 0.490713 -0.368159 0.548618
v 0.470928 -0.368805 0.513962
v 0.470928 -0.368805 0.548525
v 0.092450 -0.480047 0.526455
v 0.092450 -0.480047 0.513962
v 0.092450 -0.480047 0.513962
v 0.092450 -0.480047 0.526455
v 0.447190 -0.370531 0.513962
v 0.447190 -0.370531 0.548275
v 0.447190 -0.370531 0.513962
v 0.447190 -0.370531 0.548275
v 0.109797 -0.476669 0.527348
v 0.109797 -0.476669 0.513962
v 0.109797 -0.476669 0.513962
v 0.109797 -0.476669 0.527348
v 0.423475 -0.373208 0.513962
v 0.423475 -0.373208 0.547887
v 0.423475 -0.373208 0.513962
v 0.423475 -0.373208 0.547887
v 0.127099 -0.472493 0.513962
v 0.116993 -0.474932 0.527806
v 0.127099 -0.472493 0.528302
v 0.127099 -0.472493 0.528302
v 0.116993 -0.474932 0.527806
v 0.127099 -0.472493 0.513962
v 0.399792 -0.376833 0.547363
v 0.399792 -0.376833 0.513962
v 0.399792 -0.376833 0.547363
v 0.399792 -0.376833 0.513962
v 0.144348 -0.467523 0.513962
v 0.144348 -0.467523 0.529315
v 0.144348 -0.467523 0.529315
v 0.144348 -0.467523 0.513962
v 0.376150 -0.381407 0.513962
v 0.376150 -0.381407 0.546703
v 0.376150 -0.381407 0.513962
v 0.376150 -0.381407 0.546703
v 0.161534 -0.461760 0.530488
v 0.161534 -0.461760 0.513962
v 0.161534 -0.461760 0.513962
v 0.161534 -0.461760 0.530488
v 0.365437 -0.383913 0.546341
v 0.352559 -0.386926 0.513962
v 0.352559 -0.386926 0.545727
v 0.365437 -0.383913 0.546341
v 0.352559 -0.386926 0.513962
v 0.352559 -0.386926 0.545727
v 0.178648 -0.455209 0.531823
v 0.178648 -0.455209 0.513962
v 0.178648 -0.455209 0.513962
v 0.178648 -0.455209 0.531823
v 0.329029 -0.393389 0.513962
v 0.329029 -0.393389 0.544411
v 0.329029 -0.393389 0.513962
v 0.329029 -0.393389 0.544411
v 0.195682 -0.447871 0.533317
v 0.195682 -0.447871 0.513962
v 0.195682 -0.447871 0.513962
v 0.195682 -0.447871 0.533317
v 0.305570 -0.400793 0.513962
v 0.305570 -0.400793 0.542904
v 0.305570 -0.400793 0.513962
v 0.305570 -0.400793 0.542904
v 0.212667 -0.439732 0.534974
v 0.212667 -0.439732 0.513962
v 0.212667 -0.439732 0.513962
v 0.212667 -0.439732 0.534974
v 0.282190 -0.409135 0.513962
v 0.282190 -0.409135 0.541205
v 0.282190 -0.409135 0.513962
v 0.282190 -0.409135 0.541205
v 0.235708 -0.428618 0.537237
v 0.212667 -0.439732 0.513962
v 0.212667 -0.439732 0.534974
v 0.235708 -0.428618 0.513962
v 0.235708 -0.428618 0.513962
v 0.235708 -0.428618 0.537237
v 0.212667 -0.439732 0.513962
v 0.212667 -0.439732 0.534974
v 0.258900 -0.418411 0.513962
v 0.258900 -0.418411 0.539316
v 0.258900 -0.418411 0.513962
v 0.258900 -0.418411 0.539316
vn -0.4344422054911475 -0.9006997113844255 0
vn -0.4178459886478747 -0.9085178753172005 0
vn -0.41870361964612496 -0.9081229426103237 0
vn 0.4344422054911475 0.9006997113844255 0
vn 0.4178459886478747 0.9085178753172005 0
vn 0.41870361964612496 0.9081229426103237 0
vn -0.43213259126124853 -0.9018100817632496 0
vn -0.41493249887945616 -0.9098521975429033 0
vn -0.4139575034067275 -0.9102962074914238 0
vn 0.4139575034067275 0.9102962074914238 0
vn 0.43213259126124853 0.9018100817632496 0
vn 0.41493249887945616 0.9098521975429033 0
vn -0.3856711116756339 -0.9226363279314774 0
vn -0.3864933051933627 -0.922292212392965 0
vn 0.3856711116756339 0.9226363279314774 0
vn 0.3864933051933627 0.922292212392965 0
vn -0.3766458177172445 -0.9263573435754197 0
vn -0.37757168304230276 -0.925980358411885 0
vn 0.37757168304230276 0.925980358411885 0
vn 0.3766458177172445 0.9263573435754197 0
vn -0.35231810360849486 -0.9358803095854265 0
vn -0.35309620688123783 -0.9355870182329818 0
vn 0.35231810360849486 0.9358803095854265 0
vn 0.35309620688123783 0.9355870182329818 0
vn -0.35751650735438456 -0.9339068192111685 0
vn 0.35751650735438456 0.9339068192111685 0
vn -0.31783929950200146 -0.9481445985144235 0
vn -0.3185643162155724 -0.9479012482501037 0
vn 0.31783929950200146 0.9481445985144235 0
vn 0.3185643162155724 0.9479012482501037 0
vn -0.33865068904137735 -0.9409121695523978 0
vn -0.3377872021972905 -0.9412225061226099 0
vn 0.3377872021972905 0.9412225061226099 0
vn 0.33865068904137735 0.9409121695523978 0
vn -0.282301509092545 -0.959325730898568 0
vn -0.2829647065330637 -0.9591303221443147 0
vn 0.282301509092545 0.959325730898568 0
vn 0.2829647065330637 0.9591303221443147 0
vn -0.3179084095486145 -0.9481214284775292 0
vn -0.2974689024452747 -0.9547315078481506 0
vn -0.29848911232941994 -0.9544130394230765 0
vn 0.29848911232941994 0.9544130394230765 0
vn 0.2974689024452747 0.9547315078481506 0
vn 0.3179084095486145 0.9481214284775292 0
vn -0.24578739075283948 -0.9693237635315205 0
vn -0.2463800012524863 -0.969173304926846 0
vn 0.24578739075283948 0.9693237635315205 0
vn 0.2463800012524863 0.969173304926846 0
vn -0.255804813420851 -0.9667284507196027 0
vn -0.25670999425839225 -0.9664884783833981 0
vn 0.25670999425839225 0.9664884783833981 0
vn 0.255804813420851 0.9667284507196027 0
vn -0.20839420322910468 -0.9780449151549773 0
vn -0.20890819091110152 -0.9779352574532992 0
vn 0.20839420322910468 0.9780449151549773 0
vn 0.20890819091110152 0.9779352574532992 0
vn -0.21370979807833437 -0.9768971912157992 0
vn -0.2129358939641991 -0.9770661723044491 0
vn 0.2129358939641991 0.9770661723044491 0
vn 0.21370979807833437 0.9768971912157992 0
vn -0.17066179422469152 -0.9853296666557895 0
vn -0.1702338972181313 -0.9854036838970751 0
vn 0.17066179422469152 0.9853296666557895 0
vn 0.1702338972181313 0.9854036838970751 0
vn -0.16965689822472294 -0.9855031896877685 0
vn -0.16902899634185675 -0.9856110786693018 0
vn 0.16902899634185675 0.9856110786693018 0
vn 0.16965689822472294 0.9855031896877685 0
vn -0.13176700207654982 -0.9912807156218458 0
vn -0.15133060097013512 -0.9884832063368695 0
vn -0.1315291995670105 -0.9913122967366347 0
vn 0.15133060097013512 0.9884832063368695 0
vn 0.13176700207654982 0.9912807156218458 0
vn 0.1315291995670105 0.9913122967366347 0
vn -0.12427430020536952 -0.9922479016397393 0
vn -0.12474389673743508 -0.9921889740501857 0
vn 0.12474389673743508 0.9921889740501857 0
vn 0.12427430020536952 0.9922479016397393 0
vn -0.09219304558184466 -0.9957411522812262 0
vn -0.09236163267633965 -0.9957255288528866 0
vn 0.09219304558184466 0.9957411522812262 0
vn 0.09236163267633965 0.9957255288528866 0
vn -0.07888269043934322 -0.9968839055522217 0
vn -0.07918424980013648 -0.9968599974838942 0
vn 0.07918424980013648 0.9968599974838942 0
vn 0.07888269043934322 0.9968839055522217 0
vn -0.052593101324725305 -0.9986160251533355 0
vn -0.052496410671216534 -0.9986211127683207 0
vn 0.052593101324725305 0.9986160251533355 0
vn 0.052496410671216534 0.9986211127683207 0
vn -0.03320776900143206 -0.9994484699462737 0
vn -0.0330804797073317 -0.999452691157682 0
vn 0.0330804797073317 0.999452691157682 0
vn 0.03320776900143206 0.9994484699462737 0
vn -0.03263045950277606 -0.9994674847700838 0
vn 0.03263045950277606 0.9994674847700838 0
vn -0.01010319960975766 -0.9999489613763521 0
vn 0.01010319960975766 0.9999489613763521 0
vn -1 0 0
vn 1 0 0
vn -0.00071300533266397 -0.9999997458116654 0
vn 0.00071300533266397 0.9999997458116654 0
vn 0 1 0
vn 0 -1 0
vn 0.0330804797073317 -0.999452691157682 0
vn 0.01010319960975766 -0.9999489613763521 0
vn 0.03320776900143206 -0.9994484699462737 0
vn -0.03320776900143206 0.9994484699462737 0
vn -0.0330804797073317 0.999452691157682 0
vn -0.01010319960975766 0.9999489613763521 0
vn 0.07888269043934322 -0.9968839055522217 0
vn 0.07918424980013648 -0.9968599974838942 0
vn -0.07918424980013648 0.9968599974838942 0
vn -0.07888269043934322 0.9968839055522217 0
vn 0.12474389673743508 -0.9921889740501857 0
vn 0.12427430020536952 -0.9922479016397393 0
vn -0.12427430020536952 0.9922479016397393 0
vn -0.12474389673743508 0.9921889740501857 0
vn 0.17035839450360793 0.9853821682079258 0
vn -0.17035839450360793 -0.9853821682079258 0
vn 0.16902899634185675 -0.9856110786693018 0
vn 0.16965689822472294 -0.9855031896877685 0
vn -0.16965689822472294 0.9855031896877685 0
vn -0.16902899634185675 0.9856110786693018 0
vn 0.20854359406979497 0.9780130721889418 0
vn -0.20854359406979497 -0.9780130721889418 0
vn 0.21370979807833437 -0.9768971912157992 0
vn 0.2129358939641991 -0.9770661723044491 0
vn -0.2129358939641991 0.9770661723044491 0
vn -0.21370979807833437 0.9768971912157992 0
vn 0.22781040238307793 0.9737055101857337 0
vn -0.22781040238307793 -0.9737055101857337 0
vn 0.255804813420851 -0.9667284507196027 0
vn 0.25670999425839225 -0.9664884783833981 0
vn -0.25670999425839225 0.9664884783833981 0
vn -0.255804813420851 0.9667284507196027 0
vn 0.2974689024452747 -0.9547315078481506 0
vn 0.29848911232941994 -0.9544130394230765 0
vn -0.29848911232941994 0.9544130394230765 0
vn -0.2974689024452747 0.9547315078481506 0
vn 0.3377872021972905 -0.9412225061226099 0
vn 0.3179084095486145 -0.9481214284775292 0
vn 0.33865068904137735 -0.9409121695523978 0
vn -0.33865068904137735 0.9409121695523978 0
vn -0.3377872021972905 0.9412225061226099 0
vn -0.3179084095486145 0.9481214284775292 0
vn 0.35751650735438456 -0.9339068192111685 0
vn -0.35751650735438456 0.9339068192111685 0
vn 0.37757168304230276 -0.925980358411885 0
vn 0.3766458177172445 -0.9263573435754197 0
vn -0.3766458177172445 0.9263573435754197 0
vn -0.37757168304230276 0.925980358411885 0
vn 0.4139575034067275 -0.9102962074914238 0
vn 0.41493249887945616 -0.9098521975429033 0
vn -0.41493249887945616 0.9098521975429033 0
vn -0.4139575034067275 0.9102962074914238 0
vn 0.43213259126124853 -0.9018100817632496 0
vn -0.43213259126124853 0.9018100817632496 0
vn 0.4344422054911475 -0.9006997113844255 0
vn 0.4178459886478747 -0.9085178753172005 0
vn 0.41870361964612496 -0.9081229426103237 0
vn -0.41870361964612496 0.9081229426103237 0
vn -0.4344422054911475 0.9006997113844255 0
vn -0.4178459886478747 0.9085178753172005 0
vn 0.3864933051933627 -0.922292212392965 0
vn 0.3856711116756339 -0.9226363279314774 0
vn -0.3856711116756339 0.9226363279314774 0
vn -0.3864933051933627 0.922292212392965 0
vn 0.35309620688123783 -0.9355870182329818 0
vn 0.35231810360849486 -0.9358803095854265 0
vn -0.35231810360849486 0.9358803095854265 0
vn -0.35309620688123783 0.9355870182329818 0
vn 0.2982566073150342 0.9544857234096933 0
vn -0.2982566073150342 -0.9544857234096933 0
vn 0.3185643162155724 -0.9479012482501037 0
vn 0.31783929950200146 -0.9481445985144235 0
vn -0.31783929950200146 0.9481445985144235 0
vn -0.3185643162155724 0.9479012482501037 0
vn 0.2565035004761808 0.9665433017943201 0
vn -0.2565035004761808 -0.9665433017943201 0
vn 0.2829647065330637 -0.9591303221443147 0
vn 0.282301509092545 -0.959325730898568 0
vn -0.282301509092545 0.959325730898568 0
vn -0.2829647065330637 0.9591303221443147 0
vn 0.23459509408465545 0.9720931754885495 0
vn -0.23459509408465545 -0.9720931754885495 0
vn 0.2463800012524863 -0.969173304926846 0
vn 0.24578739075283948 -0.9693237635315205 0
vn -0.24578739075283948 0.9693237635315205 0
vn -0.2463800012524863 0.969173304926846 0
vn 0.20839420322910468 -0.9780449151549773 0
vn 0.20890819091110152 -0.9779352574532992 0
vn -0.20890819091110152 0.9779352574532992 0
vn -0.20839420322910468 0.9780449151549773 0
vn 0.17066179422469152 -0.9853296666557895 0
vn 0.1702338972181313 -0.9854036838970751 0
vn -0.1702338972181313 0.9854036838970751 0
vn -0.17066179422469152 0.9853296666557895 0
vn 0.15133060097013512 -0.9884832063368695 0
vn 0.13176700207654982 -0.9912807156218458 0
vn 0.1315291995670105 -0.9913122967366347 0
vn -0.1315291995670105 0.9913122967366347 0
vn -0.13176700207654982 0.9912807156218458 0
vn -0.15133060097013512 0.9884832063368695 0
vn 0.09236163267633965 -0.9957255288528866 0
vn 0.09219304558184466 -0.9957411522812262 0
vn -0.09219304558184466 0.9957411522812262 0
vn -0.09236163267633965 0.9957255288528866 0
vn 0.052593101324725305 -0.9986160251533355 0
vn 0.052496410671216534 -0.9986211127683207 0
vn -0.052496410671216534 0.9986211127683207 0
vn -0.052593101324725305 0.9986160251533355 0
vn 0.03263045950277606 -0.9994674847700838 0
vn -0.03263045950277606 0.9994674847700838 0
vn -0.23459509408465545 0.9720931754885495 0
vn -0.2565035004761808 0.9665433017943201 0
vn 0.2565035004761808 -0.9665433017943201 0
vn 0.23459509408465545 -0.9720931754885495 0
vn -0.17035839450360793 0.9853821682079258 0
vn 0.17035839450360793 -0.9853821682079258 0
vn -0.2982566073150342 0.9544857234096933 0
vn 0.2982566073150342 -0.9544857234096933 0
vn -0.20854359406979497 0.9780130721889418 0
vn 0.20854359406979497 -0.9780130721889418 0
vn -0.22781040238307793 0.9737055101857337 0
vn 0.22781040238307793 -0.9737055101857337 0
usemtl material_0_0
f 1//1 2//2 3//3
f 2//2 1//1 4//1
f 5//4 6//4 7//5
f 8//6 7//5 6//4
f 9//7 10//8 11//7
f 10//8 9//7 12//9
f 13//10 14//11 15//12
f 16//11 15//12 14//11
f 3//3 17//13 18//14
f 17//13 3//3 2//2
f 7//5 8//6 19//15
f 20//16 19//15 8//6
f 21//17 10//8 12//9
f 10//8 21//17 22//18
f 23//19 24//20 15//12
f 13//10 15//12 24//20
f 18//14 25//21 26//22
f 25//21 18//14 17//13
f 19//15 20//16 27//23
f 28//24 27//23 20//16
f 29//25 22//18 21//17
f 22//18 29//25 30//25
f 31//26 32//26 23//19
f 24//20 23//19 32//26
f 26//22 33//27 34//28
f 33//27 26//22 25//21
f 27//23 28//24 35//29
f 36//30 35//29 28//24
f 37//25 38//31 39//25
f 38//31 37//25 40//32
f 41//33 42//26 43//34
f 44//26 43//34 42//26
f 34//28 45//35 46//36
f 45//35 34//28 33//27
f 35//29 36//30 47//37
f 48//38 47//37 36//30
f 40//32 49//39 38//31
f 49//39 40//32 50//40
f 49//39 50//40 51//41
f 52//42 53//43 54//44
f 53//43 41//33 54//44
f 43//34 54//44 41//33
f 46//36 55//45 56//46
f 55//45 46//36 45//35
f 47//37 48//38 57//47
f 58//48 57//47 48//38
f 59//49 51//41 50//40
f 51//41 59//49 60//50
f 61//51 62//52 52//42
f 53//43 52//42 62//52
f 56//46 63//53 64//54
f 63//53 56//46 55//45
f 57//47 58//48 65//55
f 66//56 65//55 58//48
f 59//49 67//57 60//50
f 67//57 59//49 68//58
f 69//59 62//52 70//60
f 61//51 70//60 62//52
f 71//61 63//53 72//62
f 63//53 71//61 64//54
f 66//56 73//63 65//55
f 74//64 65//55 73//63
f 68//58 75//65 67//57
f 75//65 68//58 76//66
f 77//67 69//59 78//68
f 70//60 78//68 69//59
f 79//69 80//70 81//71
f 80//70 79//69 71//61
f 80//70 71//61 72//62
f 74//64 73//63 82//72
f 73//63 83//73 82//72
f 84//74 82//72 83//73
f 85//75 75//65 76//66
f 75//65 85//75 86//76
f 87//77 88//78 78//68
f 77//67 78//68 88//78
f 79//69 89//79 90//80
f 89//79 79//69 81//71
f 84//74 83//73 91//81
f 92//82 91//81 83//73
f 93//83 86//76 85//75
f 86//76 93//83 94//84
f 95//85 96//86 87//77
f 88//78 87//77 96//86
f 97//87 89//79 98//88
f 89//79 97//87 90//80
f 92//82 99//89 91//81
f 100//90 91//81 99//89
f 93//83 101//91 94//84
f 101//91 93//83 102//92
f 103//93 96//86 104//94
f 95//85 104//94 96//86
f 97//87 105//95 106//95
f 105//95 97//87 98//88
f 100//90 99//89 107//96
f 108//96 107//96 99//89
f 102//92 109//97 101//91
f 109//97 102//92 110//97
f 111//98 103//93 112//98
f 104//94 112//98 103//93
f 113//99 114//99 115//99
f 114//99 113//99 116//99
f 117//100 118//100 119//100
f 120//100 119//100 118//100
f 121//101 122//101 123//101
f 122//101 121//101 124//101
f 125//102 126//102 127//102
f 128//102 127//102 126//102
f 129//103 130//103 131//103
f 130//103 129//103 132//103
f 133//104 134//104 135//104
f 136//104 135//104 134//104
f 137//101 138//101 139//101
f 138//101 137//101 140//101
f 138//101 140//101 141//101
f 142//102 143//102 144//102
f 143//102 145//102 144//102
f 146//102 144//102 145//102
f 147//90 148//96 149//96
f 148//96 147//90 150//89
f 151//87 152//88 153//95
f 154//95 153//95 152//88
f 155//105 156//106 157//106
f 156//106 155//105 158//107
f 159//108 160//109 161//110
f 162//110 161//110 160//109
f 163//81 150//89 147//90
f 150//89 163//81 164//82
f 165//80 166//79 151//87
f 152//88 151//87 166//79
f 167//111 158//107 155//105
f 158//107 167//111 168//112
f 169//113 170//114 159//108
f 160//109 159//108 170//114
f 171//74 164//82 163//81
f 164//82 171//74 172//73
f 173//69 174//71 165//80
f 166//79 165//80 174//71
f 167//111 175//115 168//112
f 175//115 167//111 176//116
f 177//117 170//114 178//118
f 169//113 178//118 170//114
f 179//119 172//73 171//74
f 172//73 179//119 180//63
f 181//61 182//120 173//69
f 174//71 173//69 182//120
f 183//121 175//115 176//116
f 175//115 183//121 184//122
f 185//123 186//124 178//118
f 177//117 178//118 186//124
f 187//125 180//63 179//119
f 180//63 187//125 188//56
f 189//54 190//126 181//61
f 182//120 181//61 190//126
f 183//121 191//127 184//122
f 191//127 183//121 192//128
f 193//129 186//124 194//130
f 185//123 194//130 186//124
f 187//125 195//48 188//56
f 195//48 187//125 196//131
f 195//48 196//131 197//47
f 198//45 199//132 200//46
f 199//132 190//126 200//46
f 189//54 200//46 190//126
f 201//133 191//127 192//128
f 191//127 201//133 202//134
f 203//135 204//136 194//130
f 193//129 194//130 204//136
f 205//37 195//48 197//47
f 195//48 205//37 206//38
f 207//36 208//35 200//46
f 198//45 200//46 208//35
f 209//137 202//134 201//133
f 202//134 209//137 210//138
f 211//139 212//140 203//135
f 204//136 203//135 212//140
f 213//29 206//38 205//37
f 206//38 213//29 214//30
f 215//28 216//27 207//36
f 208//35 207//36 216//27
f 217//141 210//138 209//137
f 210//138 217//141 218//142
f 218//142 217//141 219//143
f 220//144 221//145 222//146
f 222//146 221//145 211//139
f 212//140 211//139 221//145
f 213//29 223//24 214//30
f 223//24 213//29 224//23
f 225//21 216//27 226//22
f 215//28 226//22 216//27
f 217//141 227//147 219//143
f 227//147 217//141 228//147
f 229//148 221//145 230//148
f 220//144 230//148 221//145
f 224//23 231//16 223//24
f 231//16 224//23 232//15
f 233//13 225//21 234//14
f 226//22 234//14 225//21
f 235//147 236//149 237//147
f 236//149 235//147 238//150
f 239//151 240//148 241//152
f 242//148 241//152 240//148
f 232//15 243//6 231//16
f 243//6 232//15 244//5
f 245//2 233//13 246//3
f 234//14 246//3 233//13
f 247//153 236//149 238//150
f 236//149 247//153 248//154
f 249//155 250//156 241//152
f 239//151 241//152 250//156
f 251//4 243//6 244//5
f 243//6 251//4 252//4
f 253//1 254//1 246//3
f 245//2 246//3 254//1
f 255//157 248//154 247//153
f 248//154 255//157 256//157
f 257//158 258//158 249//155
f 250//156 249//155 258//158
f 259//12 260//11 261//11
f 260//11 259//12 262//10
f 263//9 264//8 265//7
f 266//7 265//7 264//8
f 267//159 268//160 269//159
f 268//160 267//159 270//161
f 271//162 272//163 273//164
f 274//163 273//164 272//163
f 275//19 262//10 259//12
f 262//10 275//19 276//20
f 277//17 278//18 263//9
f 264//8 263//9 278//18
f 279//165 268//160 270//161
f 268//160 279//165 280//166
f 281//167 282//168 273//164
f 271//162 273//164 282//168
f 283//34 276//20 275//19
f 276//20 283//34 284//33
f 285//32 286//31 277//17
f 278//18 277//17 286//31
f 287//169 280//166 279//165
f 280//166 287//169 288//170
f 289//171 290//172 281//167
f 282//168 281//167 290//172
f 291//173 284//33 283//34
f 284//33 291//173 292//43
f 293//40 294//174 285//32
f 286//31 285//32 294//174
f 295//175 288//170 287//169
f 288//170 295//175 296//176
f 297//177 298//178 289//171
f 290//172 289//171 298//178
f 299//179 292//43 291//173
f 292//43 299//179 300//52
f 301//49 302//180 293//40
f 294//174 293//40 302//180
f 303//181 296//176 295//175
f 296//176 303//181 304//182
f 305//183 306//184 297//177
f 298//178 297//177 306//184
f 299//179 307//59 300//52
f 307//59 299//179 308//185
f 307//59 308//185 309//60
f 310//57 311//186 312//58
f 311//186 302//180 312//58
f 301//49 312//58 302//180
f 313//187 304//182 303//181
f 304//182 313//187 314//188
f 315//189 316//190 305//183
f 306//184 305//183 316//190
f 317//68 307//59 309//60
f 307//59 317//68 318//67
f 319//66 320//65 312//58
f 310//57 312//58 320//65
f 313//187 321//191 314//188
f 321//191 313//187 322//192
f 323//193 316//190 324//194
f 315//189 324//194 316//190
f 317//68 325//78 318//67
f 325//78 317//68 326//77
f 327//76 320//65 328//75
f 319//66 328//75 320//65
f 329//195 321//191 322//192
f 321//191 329//195 330//196
f 331//197 332//198 324//194
f 323//193 324//194 332//198
f 333//85 325//78 326//77
f 325//78 333//85 334//86
f 335//83 336//84 328//75
f 327//76 328//75 336//84
f 329//195 337//199 330//196
f 337//199 329//195 338//200
f 337//199 338//200 339//201
f 340//202 341//203 342//204
f 341//203 332//198 342//204
f 331//197 342//204 332//198
f 343//94 334//86 333//85
f 334//86 343//94 344//93
f 345//92 346//91 335//83
f 336//84 335//83 346//91
f 347//205 339//201 338//200
f 339//201 347//205 348//206
f 349//207 350//208 340//202
f 341//203 340//202 350//208
f 351//98 344//93 343//94
f 344//93 351//98 352//98
f 353//97 354//97 345//92
f 346//91 345//92 354//97
f 355//209 348//206 347//205
f 348//206 355//209 356//210
f 357//211 358//212 349//207
f 350//208 349//207 358//212
f 359//103 360//103 361//103
f 360//103 359//103 362//103
f 362//103 359//103 363//103
f 364//104 365//104 366//104
f 366//104 365//104 367//104
f 368//104 367//104 365//104
f 369//213 356//210 355//209
f 356//210 369//213 370//213
f 371//214 372//214 357//211
f 358//212 357//211 372//214
f 373//108 374//110 375//110
f 374//110 373//108 376//109
f 377//105 378//107 379//106
f 380//106 379//106 378//107
f 381//100 382//100 383//100
f 382//100 381//100 384//100
f 385//99 386//99 387//99
f 388//99 387//99 386//99
f 389//113 376//109 373//108
f 376//109 389//113 390//114
f 391//111 392//112 377//105
f 378//107 377//105 392//112
f 393//103 394//103 395//103
f 394//103 393//103 396//103
f 397//104 398//104 399//104
f 400//104 399//104 398//104
f 401//118 390//114 389//113
f 390//114 401//118 402//117
f 403//116 404//115 391//111
f 392//112 391//111 404//115
f 405//214 406//212 407//211
f 406//212 405//214 408//214
f 409//213 410//213 411//209
f 412//210 411//209 410//213
f 413//123 402//117 401//118
f 402//117 413//123 414//124
f 415//121 416//122 403//116
f 404//115 403//116 416//122
f 407//211 417//208 418//207
f 417//208 407//211 406//212
f 411//209 412//210 419//205
f 420//206 419//205 412//210
f 421//130 414//124 413//123
f 414//124 421//130 422//129
f 423//128 424//127 415//121
f 416//122 415//121 424//127
f 418//207 425//203 426//202
f 425//203 418//207 417//208
f 419//205 420//206 427//200
f 428//201 427//200 420//206
f 421//130 429//136 422//129
f 429//136 421//130 430//215
f 429//136 430//215 431//216
f 432//217 433//218 434//133
f 433//218 424//127 434//133
f 423//128 434//133 424//127
f 435//219 425//203 436//198
f 425//203 435//219 426//202
f 428//201 437//220 427//200
f 438//195 427//200 437//220
f 431//216 439//140 429//136
f 439//140 431//216 440//221
f 441//222 432//217 442//137
f 434//133 442//137 432//217
f 435//219 443//193 444//223
f 443//193 435//219 436//198
f 438//195 437//220 445//192
f 446//224 445//192 437//220
f 447//144 439//140 440//221
f 439//140 447//144 448//145
f 449//141 450//143 442//137
f 441//222 442//137 450//143
f 451//225 452//190 453//189
f 452//190 451//225 443//193
f 443//193 451//225 444//223
f 446//224 454//226 445//192
f 445//192 454//226 455//187
f 456//188 455//187 454//226
f 457//152 448//145 447//144
f 448//145 457//152 458//151
f 459//150 460//149 449//141
f 450//143 449//141 460//149
f 453//189 461//184 462//183
f 461//184 453//189 452//190
f 455//187 456//188 463//181
f 464//182 463//181 456//188
f 465//155 458//151 457//152
f 458//151 465//155 466//156
f 467//153 468//154 459//150
f 460//149 459//150 468//154
f 462//183 469//178 470//177
f 469//178 462//183 461//184
f 463//181 464//182 471//175
f 472//176 471//175 464//182
f 473//158 466//156 465//155
f 466//156 473//158 474//158
f 475//157 476//157 467//153
f 468//154 467//153 476//157
f 470//177 477//172 478//171
f 477//172 470//177 469//178
f 471//175 472//176 479//169
f 480//170 479//169 472//176
f 481//164 482//163 483//163
f 482//163 481//164 484//162
f 485//161 486//160 487//159
f 488//159 487//159 486//160
f 478//171 489//168 490//167
f 489//168 478//171 477//172
f 479//169 480//170 491//165
f 492//166 491//165 480//170
f 481//164 489//168 484//162
f 489//168 481//164 490//167
f 492//166 486//160 491//165
f 485//161 491//165 486//160
