# SSTK version 0.8.0
# 79
mtllib original-79.mtl
o #ID595
v 0.441167 -0.598448 0.429489
v 0.256190 -0.598448 0.493071
v 0.256190 -0.598448 0.429489
v 0.441167 -0.598448 0.493071
v 0.256190 -0.598448 0.429489
v 0.253007 -0.598239 0.493139
v 0.253007 -0.598239 0.429489
v 0.256190 -0.598448 0.493071
v 0.444350 -0.598239 0.429489
v 0.441167 -0.598448 0.493071
v 0.441167 -0.598448 0.429489
v 0.444350 -0.598239 0.493139
v 0.250019 -0.597645 0.429489
v 0.250019 -0.597645 0.493333
v 0.447337 -0.597645 0.493333
v 0.447337 -0.597645 0.429489
v 0.247136 -0.596666 0.429489
v 0.247136 -0.596666 0.493653
v 0.450221 -0.596666 0.429489
v 0.450221 -0.596666 0.493653
v 0.244404 -0.595319 0.494093
v 0.244404 -0.595319 0.429489
v 0.452953 -0.595319 0.429489
v 0.452953 -0.595319 0.494093
v 0.241872 -0.593627 0.429489
v 0.241872 -0.593627 0.494646
v 0.455485 -0.593627 0.494646
v 0.455485 -0.593627 0.429489
v 0.239582 -0.591619 0.429489
v 0.239582 -0.591619 0.495301
v 0.457775 -0.591619 0.429489
v 0.457775 -0.591619 0.495301
v 0.237574 -0.589329 0.429489
v 0.237574 -0.589329 0.496050
v 0.459783 -0.589329 0.429489
v 0.459783 -0.589329 0.496050
v 0.235882 -0.586797 0.429489
v 0.235882 -0.586797 0.496876
v 0.461475 -0.586797 0.429489
v 0.461475 -0.586797 0.496876
v 0.234535 -0.584065 0.429489
v 0.234535 -0.584065 0.497768
v 0.462822 -0.584065 0.429489
v 0.462822 -0.584065 0.497768
v 0.233556 -0.581181 0.429489
v 0.233556 -0.581181 0.498710
v 0.463801 -0.581181 0.429489
v 0.463801 -0.581181 0.498710
v 0.232962 -0.578194 0.429489
v 0.232962 -0.578194 0.499686
v 0.464395 -0.578194 0.429489
v 0.464395 -0.578194 0.499686
v 0.232753 -0.575011 0.429489
v 0.232753 -0.575011 0.500725
v 0.464604 -0.575011 0.429489
v 0.464604 -0.575011 0.500725
v 0.232753 -0.479841 0.429489
v 0.232753 -0.527337 0.513962
v 0.232753 -0.479841 0.526509
v 0.232753 -0.564738 0.504081
v 0.232753 -0.575011 0.500725
v 0.232753 -0.575011 0.429489
v 0.464604 -0.527337 0.513962
v 0.464604 -0.479841 0.429489
v 0.464604 -0.479841 0.526509
v 0.464604 -0.564738 0.504081
v 0.464604 -0.575011 0.500725
v 0.464604 -0.575011 0.429489
v 0.232962 -0.476657 0.429489
v 0.232753 -0.479841 0.526509
v 0.232962 -0.476657 0.527350
v 0.232753 -0.479841 0.429489
v 0.464604 -0.479841 0.526509
v 0.464395 -0.476657 0.429489
v 0.464395 -0.476657 0.527350
v 0.464604 -0.479841 0.429489
v 0.233556 -0.473670 0.429489
v 0.233305 -0.474932 0.527806
v 0.233556 -0.473670 0.528063
v 0.464052 -0.474932 0.527806
v 0.463801 -0.473670 0.429489
v 0.463801 -0.473670 0.528063
v 0.234535 -0.470786 0.429489
v 0.234535 -0.470786 0.528650
v 0.462822 -0.470786 0.429489
v 0.462822 -0.470786 0.528650
v 0.235882 -0.468055 0.429489
v 0.235882 -0.468055 0.529206
v 0.461475 -0.468055 0.429489
v 0.461475 -0.468055 0.529206
v 0.237574 -0.465522 0.429489
v 0.237574 -0.465522 0.529723
v 0.459783 -0.465522 0.429489
v 0.459783 -0.465522 0.529723
v 0.239582 -0.463233 0.429489
v 0.239582 -0.463233 0.530189
v 0.457775 -0.463233 0.429489
v 0.457775 -0.463233 0.530189
v 0.241872 -0.461225 0.530598
v 0.241872 -0.461225 0.429489
v 0.455485 -0.461225 0.530598
v 0.455485 -0.461225 0.429489
v 0.244404 -0.459533 0.530942
v 0.244404 -0.459533 0.429489
v 0.452953 -0.459533 0.429489
v 0.452953 -0.459533 0.530942
v 0.247136 -0.458186 0.531216
v 0.247136 -0.458186 0.429489
v 0.450221 -0.458186 0.429489
v 0.450221 -0.458186 0.531216
v 0.250019 -0.457207 0.531416
v 0.250019 -0.457207 0.429489
v 0.447337 -0.457207 0.429489
v 0.447337 -0.457207 0.531416
v 0.253007 -0.456612 0.531537
v 0.253007 -0.456612 0.429489
v 0.444350 -0.456612 0.429489
v 0.444350 -0.456612 0.531537
v 0.256190 -0.456404 0.531579
v 0.256190 -0.456404 0.429489
v 0.441167 -0.456404 0.531579
v 0.441167 -0.456404 0.429489
v 0.441167 -0.456404 0.531579
v 0.256190 -0.456404 0.429489
v 0.256190 -0.456404 0.531579
v 0.441167 -0.456404 0.429489
vn 0 -1 0
vn -0.06540313151333016 -0.9978589230889555 0
vn -0.13226059718699174 -0.991214978918166 0
vn -0.1305261948688555 -0.9914448610250887 0
vn 0.1305261948688555 -0.9914448610250887 0
vn 0.06540313151333016 -0.9978589230889555 0
vn 0.13226059718699174 -0.991214978918166 0
vn -0.25881900959356163 -0.9659258358036645 0
vn -0.26216410198304857 -0.965023307299581 0
vn 0.26216410198304857 -0.965023307299581 0
vn 0.25881900959356163 -0.9659258358036645 0
vn -0.38268341623423263 -0.9238795391929066 0
vn -0.3874013795825144 -0.9219111514118724 0
vn 0.38268341623423263 -0.9238795391929066 0
vn 0.3874013795825144 -0.9219111514118724 0
vn -0.5057578818653787 -0.8626754690676243 0
vn -0.5000000016387101 -0.866025402838329 0
vn 0.5000000016387101 -0.866025402838329 0
vn 0.5057578818653787 -0.8626754690676243 0
vn -0.608761430209528 -0.7933533393698233 0
vn -0.6151565112213006 -0.7884050143815915 0
vn 0.6151565112213006 -0.7884050143815915 0
vn 0.608761430209528 -0.7933533393698233 0
vn -0.7071067811865476 -0.7071067811865476 0
vn -0.7136963862327969 -0.7004551864882195 0
vn 0.7071067811865476 -0.7071067811865476 0
vn 0.7136963862327969 -0.7004551864882195 0
vn -0.7933533393698233 -0.608761430209528 0
vn -0.7996860185309003 -0.6004184139133278 0
vn 0.7933533393698233 -0.608761430209528 0
vn 0.7996860185309003 -0.6004184139133278 0
vn -0.866025402838329 -0.5000000016387101 0
vn -0.871671390488932 -0.49009079465247235 0
vn 0.866025402838329 -0.5000000016387101 0
vn 0.871671390488932 -0.49009079465247235 0
vn -0.9238795391929066 -0.38268341623423263 0
vn -0.9284586828977076 -0.37143569315812114 0
vn 0.9238795391929066 -0.38268341623423263 0
vn 0.9284586828977076 -0.37143569315812114 0
vn -0.9659258358036645 -0.25881900959356163 0
vn -0.9691309113312242 -0.2465467028826611 0
vn 0.9659258358036645 -0.25881900959356163 0
vn 0.9691309113312242 -0.2465467028826611 0
vn -0.9914448610250887 -0.1305261948688555 0
vn -0.9930600980754447 -0.11760799977207513 0
vn 0.9914448610250887 -0.1305261948688555 0
vn 0.9930600980754447 -0.11760799977207513 0
vn -0.9978589230889555 -0.06540313151333016 0
vn 0.9978589230889555 -0.06540313151333016 0
vn -1 0 0
vn 1 0 0
vn -0.9914448610250887 0.1305261948688555 0
vn -0.9978589230889555 0.06540313151333016 0
vn -0.9899941661607476 0.14110829517674003 0
vn 0.9978589230889555 0.06540313151333016 0
vn 0.9914448610250887 0.1305261948688555 0
vn 0.9899941661607476 0.14110829517674003 0
vn -0.9659258358036645 0.25881900959356163 0
vn -0.9807852853616915 0.19509029708825978 0
vn -0.9637966958411546 0.26663819884943885 0
vn 0.9807852853616915 0.19509029708825978 0
vn 0.9659258358036645 0.25881900959356163 0
vn 0.9637966958411546 0.26663819884943885 0
vn -0.9238795391929066 0.38268341623423263 0
vn -0.920879303530039 0.38984780149441733 0
vn 0.9238795391929066 0.38268341623423263 0
vn 0.920879303530039 0.38984780149441733 0
vn -0.866025402838329 0.5000000016387101 0
vn -0.8623533726292623 0.5063068839300299 0
vn 0.866025402838329 0.5000000016387101 0
vn 0.8623533726292623 0.5063068839300299 0
vn -0.7933533393698233 0.608761430209528 0
vn -0.7892553006199088 0.6140652004823083 0
vn 0.7933533393698233 0.608761430209528 0
vn 0.7892553006199088 0.6140652004823083 0
vn -0.7071067811865476 0.7071067811865476 0
vn -0.7028590989599022 0.7113290989473683 0
vn 0.7071067811865476 0.7071067811865476 0
vn 0.7028590989599022 0.7113290989473683 0
vn -0.6046523853565257 0.796489480710614 0
vn -0.608761430209528 0.7933533393698233 0
vn 0.6046523853565257 0.796489480710614 0
vn 0.608761430209528 0.7933533393698233 0
vn -0.4963102994617193 0.8681451990584401 0
vn -0.5000000016387101 0.866025402838329 0
vn 0.5000000016387101 0.866025402838329 0
vn 0.4963102994617193 0.8681451990584401 0
vn -0.3796667145617793 0.925123335482283 0
vn -0.38268341623423263 0.9238795391929066 0
vn 0.38268341623423263 0.9238795391929066 0
vn 0.3796667145617793 0.925123335482283 0
vn -0.25668359717273165 0.9664954893544341 0
vn -0.25881900959356163 0.9659258358036645 0
vn 0.25881900959356163 0.9659258358036645 0
vn 0.25668359717273165 0.9664954893544341 0
vn -0.12941999571736235 0.9915898671872951 0
vn -0.1305261948688555 0.9914448610250887 0
vn 0.1305261948688555 0.9914448610250887 0
vn 0.12941999571736235 0.9915898671872951 0
vn -0.06540313151333016 0.9978589230889555 0
vn 0.06540313151333016 0.9978589230889555 0
vn 0 1 0
usemtl material_0_0
f 1//1 2//1 3//1
f 2//1 1//1 4//1
f 5//2 6//3 7//4
f 6//3 5//2 8//2
f 9//5 10//6 11//6
f 10//6 9//5 12//7
f 13//8 6//3 14//9
f 6//3 13//8 7//4
f 9//5 15//10 12//7
f 15//10 9//5 16//11
f 17//12 14//9 18//13
f 14//9 17//12 13//8
f 19//14 15//10 16//11
f 15//10 19//14 20//15
f 17//12 21//16 22//17
f 21//16 17//12 18//13
f 23//18 20//15 19//14
f 20//15 23//18 24//19
f 25//20 21//16 26//21
f 21//16 25//20 22//17
f 23//18 27//22 24//19
f 27//22 23//18 28//23
f 29//24 26//21 30//25
f 26//21 29//24 25//20
f 31//26 27//22 28//23
f 27//22 31//26 32//27
f 33//28 30//25 34//29
f 30//25 33//28 29//24
f 32//27 35//30 36//31
f 35//30 32//27 31//26
f 37//32 34//29 38//33
f 34//29 37//32 33//28
f 36//31 39//34 40//35
f 39//34 36//31 35//30
f 41//36 38//33 42//37
f 38//33 41//36 37//32
f 40//35 43//38 44//39
f 43//38 40//35 39//34
f 45//40 42//37 46//41
f 42//37 45//40 41//36
f 44//39 47//42 48//43
f 47//42 44//39 43//38
f 49//44 46//41 50//45
f 46//41 49//44 45//40
f 48//43 51//46 52//47
f 51//46 48//43 47//42
f 53//48 50//45 54//48
f 50//45 53//48 49//44
f 52//47 55//49 56//49
f 55//49 52//47 51//46
f 57//50 58//50 59//50
f 58//50 57//50 60//50
f 60//50 57//50 61//50
f 61//50 57//50 62//50
f 63//51 64//51 65//51
f 64//51 63//51 66//51
f 64//51 66//51 67//51
f 64//51 67//51 68//51
f 69//52 70//53 71//54
f 70//53 69//52 72//53
f 73//55 74//56 75//57
f 74//56 73//55 76//55
f 77//58 78//59 79//60
f 78//59 77//58 71//54
f 71//54 77//58 69//52
f 80//61 81//62 82//63
f 81//62 80//61 75//57
f 81//62 75//57 74//56
f 83//64 79//60 84//65
f 79//60 83//64 77//58
f 82//63 85//66 86//67
f 85//66 82//63 81//62
f 87//68 84//65 88//69
f 84//65 87//68 83//64
f 86//67 89//70 90//71
f 89//70 86//67 85//66
f 91//72 88//69 92//73
f 88//69 91//72 87//68
f 90//71 93//74 94//75
f 93//74 90//71 89//70
f 95//76 92//73 96//77
f 92//73 95//76 91//72
f 94//75 97//78 98//79
f 97//78 94//75 93//74
f 99//80 95//76 96//77
f 95//76 99//80 100//81
f 101//82 97//78 102//83
f 97//78 101//82 98//79
f 103//84 100//81 99//80
f 100//81 103//84 104//85
f 101//82 105//86 106//87
f 105//86 101//82 102//83
f 107//88 104//85 103//84
f 104//85 107//88 108//89
f 106//87 109//90 110//91
f 109//90 106//87 105//86
f 111//92 108//89 107//88
f 108//89 111//92 112//93
f 110//91 113//94 114//95
f 113//94 110//91 109//90
f 115//96 112//93 111//92
f 112//93 115//96 116//97
f 114//95 117//98 118//99
f 117//98 114//95 113//94
f 119//100 116//97 115//96
f 116//97 119//100 120//100
f 121//101 117//98 122//101
f 117//98 121//101 118//99
f 123//102 124//102 125//102
f 124//102 123//102 126//102
