# SSTK version 0.8.0
# 12
mtllib original-12.mtl
o #ID148
v 0.190993 0.502983 0.451537
v 0.186954 0.519750 0.445242
v 0.186954 0.502983 0.451537
v 0.190993 0.579011 0.422988
v 0.186954 0.521990 0.444400
v 0.151518 0.519750 0.445242
v 0.186954 0.540667 0.437387
v 0.186954 0.542422 0.436728
v 0.186954 0.561100 0.429714
v 0.186954 0.562768 0.429088
v 0.151518 0.561100 0.429714
v 0.186954 0.579011 0.422988
v 0.151518 0.562768 0.429088
v 0.151518 0.542422 0.436728
v 0.151518 0.540667 0.437387
v 0.151518 0.521990 0.444400
v 0.186954 0.521990 0.444400
v 0.151518 0.519750 0.445242
v 0.151518 0.521990 0.444400
v 0.186954 0.542422 0.436728
v 0.186954 0.540667 0.437387
v 0.151518 0.542422 0.436728
v 0.151518 0.540667 0.437387
v 0.186954 0.562768 0.429088
v 0.151518 0.561100 0.429714
v 0.151518 0.562768 0.429088
v 0.186954 0.579011 0.422988
v 0.190993 0.579011 0.422988
v 0.186954 0.561100 0.429714
v 0.186954 0.519750 0.445242
v 0.190993 0.502983 0.451537
v 0.186954 0.502983 0.451537
vn 0 0.3515416202868696 0.9361722540249108
vn 0 -0.3515416202868696 -0.9361722540249108
usemtl material_0_0
f 17//2 18//2 19//2
f 20//2 21//2 22//2
f 23//2 22//2 21//2
f 24//2 25//2 26//2
f 27//2 28//2 24//2
f 25//2 24//2 29//2
f 24//2 28//2 29//2
f 29//2 28//2 20//2
f 20//2 28//2 21//2
f 21//2 28//2 17//2
f 18//2 17//2 30//2
f 17//2 28//2 30//2
f 28//2 31//2 30//2
f 32//2 30//2 31//2
usemtl material_1_0
f 1//1 2//1 3//1
f 2//1 1//1 4//1
f 2//1 4//1 5//1
f 2//1 5//1 6//1
f 5//1 4//1 7//1
f 7//1 4//1 8//1
f 8//1 4//1 9//1
f 9//1 4//1 10//1
f 9//1 10//1 11//1
f 10//1 4//1 12//1
f 13//1 11//1 10//1
f 7//1 14//1 15//1
f 14//1 7//1 8//1
f 16//1 6//1 5//1
