# SSTK version 0.8.0
# 18
mtllib original-18.mtl
o #ID186
v 0.186954 0.562768 0.429088
v 0.186954 0.579846 0.425213
v 0.186954 0.563603 0.431312
v 0.186954 0.579011 0.422988
v 0.186954 0.579011 0.422988
v 0.186954 0.562768 0.429088
v 0.186954 0.579846 0.425213
v 0.186954 0.563603 0.431312
v 0.186954 0.579846 0.425213
v 0.151518 0.579011 0.422988
v 0.151518 0.579846 0.425213
v 0.186954 0.579011 0.422988
v 0.186954 0.579011 0.422988
v 0.186954 0.579846 0.425213
v 0.151518 0.579011 0.422988
v 0.151518 0.579846 0.425213
v 0.186954 0.563603 0.431312
v 0.186873 0.579986 0.425817
v 0.186873 0.563895 0.431859
v 0.186954 0.579846 0.425213
v 0.186954 0.579846 0.425213
v 0.186954 0.563603 0.431312
v 0.186873 0.579986 0.425817
v 0.186873 0.563895 0.431859
v 0.186954 0.562768 0.429088
v 0.151518 0.563603 0.431312
v 0.151518 0.562768 0.429088
v 0.186954 0.563603 0.431312
v 0.186954 0.563603 0.431312
v 0.186954 0.562768 0.429088
v 0.151518 0.563603 0.431312
v 0.151518 0.562768 0.429088
v 0.151518 0.579846 0.425213
v 0.151518 0.562768 0.429088
v 0.151518 0.563603 0.431312
v 0.151518 0.579011 0.422988
v 0.151518 0.579011 0.422988
v 0.151518 0.579846 0.425213
v 0.151518 0.562768 0.429088
v 0.151518 0.563603 0.431312
v 0.151599 0.579986 0.425817
v 0.151518 0.579846 0.425213
v 0.151599 0.579986 0.425817
v 0.151518 0.579846 0.425213
v 0.186636 0.579965 0.426436
v 0.186636 0.564319 0.432312
v 0.186636 0.579965 0.426436
v 0.186636 0.564319 0.432312
v 0.151599 0.563895 0.431859
v 0.151518 0.563603 0.431312
v 0.151599 0.563895 0.431859
v 0.151518 0.563603 0.431312
v 0.151837 0.579965 0.426436
v 0.151837 0.579965 0.426436
v 0.186258 0.579784 0.427030
v 0.186258 0.564845 0.432640
v 0.186258 0.579784 0.427030
v 0.186258 0.564845 0.432640
v 0.151837 0.564319 0.432312
v 0.151837 0.564319 0.432312
v 0.152214 0.579784 0.427030
v 0.152214 0.579784 0.427030
v 0.185766 0.565439 0.432821
v 0.185766 0.579457 0.427556
v 0.185766 0.579457 0.427556
v 0.185766 0.565439 0.432821
v 0.152214 0.564845 0.432640
v 0.152214 0.564845 0.432640
v 0.152706 0.579457 0.427556
v 0.152706 0.579457 0.427556
v 0.185193 0.566058 0.432842
v 0.185193 0.579003 0.427980
v 0.185193 0.579003 0.427980
v 0.185193 0.566058 0.432842
v 0.152706 0.565439 0.432821
v 0.152706 0.565439 0.432821
v 0.153279 0.579003 0.427980
v 0.153279 0.579003 0.427980
v 0.184578 0.566663 0.432700
v 0.184578 0.578457 0.428272
v 0.184578 0.578457 0.428272
v 0.184578 0.566663 0.432700
v 0.153279 0.566058 0.432842
v 0.153279 0.566058 0.432842
v 0.153894 0.578457 0.428272
v 0.153894 0.578457 0.428272
v 0.184578 0.578457 0.428272
v 0.153894 0.566663 0.432700
v 0.184578 0.566663 0.432700
v 0.153894 0.578457 0.428272
v 0.153894 0.578457 0.428272
v 0.184578 0.578457 0.428272
v 0.153894 0.566663 0.432700
v 0.184578 0.566663 0.432700
v 0.153894 0.566663 0.432700
v 0.153894 0.566663 0.432700
vn 1 0 0
vn 0 0.9361722540249108 -0.3515416202868696
vn 0.6951606053681553 -0.5864442045286278 0.4157342032103742
vn 0.6684176021737067 0.7404427024079339 0.07044511022908902
vn 0.6684175835289575 -0.511065187406411 0.5403982866835891
vn 0.6951606289408525 0.7151360297724663 -0.07302163304002862
vn 0 -0.9361722540249108 0.3515416202868696
vn -1 0 0
vn -0.6684176021737067 0.7404427024079339 0.07044511022908902
vn -0.6951606289408525 0.7151360297724663 -0.07302163304002862
vn 0.5679292114881035 0.7411089149911919 0.35806980724305604
vn 0.5679292030593381 -0.3222501017359067 0.7573713040798303
vn -0.6684175835289575 -0.511065187406411 0.5403982866835891
vn -0.6951606053681553 -0.5864442045286278 0.4157342032103742
vn -0.5679292114881035 0.7411089149911919 0.35806980724305604
vn 0.4371139956596503 0.6855405931928834 0.5822073942189369
vn 0.4371139952321136 -0.13288729855051207 0.8895348902972648
vn -0.5679292030593381 -0.3222501017359067 0.7573713040798303
vn -0.4371139956596503 0.6855405931928834 0.5822073942189369
vn 0.299554591912497 0.03800341897396723 0.9533219742618056
vn 0.2995545997936698 0.5988728995875022 0.7427100994884288
vn -0.4371139952321136 -0.13288729855051207 0.8895348902972648
vn -0.2995545997936698 0.5988728995875022 0.7427100994884288
vn 0.1646164982887506 0.18777319804802792 0.9683194899339608
vn 0.1646164922795838 0.49599207673826456 0.8525803600144851
vn -0.299554591912497 0.03800341897396723 0.9533219742618056
vn -0.1646164922795838 0.49599207673826456 0.8525803600144851
vn 0.06554286278416814 0.2886688122622428 0.9551829405748209
vn 0.06554285769579009 0.41138758553735066 0.9091008680398551
vn -0.1646164982887506 0.18777319804802792 0.9683194899339608
vn -0.06554285769579009 0.41138758553735066 0.9091008680398551
vn 0 0.3515416202868696 0.9361722540249108
vn -0.06554286278416814 0.2886688122622428 0.9551829405748209
vn -0.6951606289408525 -0.7151360297724663 0.07302163304002862
vn -0.6951606053681553 0.5864442045286278 -0.4157342032103742
vn -0.6684176021737067 -0.7404427024079339 -0.07044511022908902
vn -0.6684175835289575 0.511065187406411 -0.5403982866835891
vn 0.6684176021737067 -0.7404427024079339 -0.07044511022908902
vn 0.6951606289408525 -0.7151360297724663 0.07302163304002862
vn -0.5679292114881035 -0.7411089149911919 -0.35806980724305604
vn -0.5679292030593381 0.3222501017359067 -0.7573713040798303
vn 0.6684175835289575 0.511065187406411 -0.5403982866835891
vn 0.6951606053681553 0.5864442045286278 -0.4157342032103742
vn 0.5679292114881035 -0.7411089149911919 -0.35806980724305604
vn -0.4371139956596503 -0.6855405931928834 -0.5822073942189369
vn -0.4371139952321136 0.13288729855051207 -0.8895348902972648
vn 0.5679292030593381 0.3222501017359067 -0.7573713040798303
vn 0.4371139956596503 -0.6855405931928834 -0.5822073942189369
vn -0.2995545997936698 -0.5988728995875022 -0.7427100994884288
vn -0.299554591912497 -0.03800341897396723 -0.9533219742618056
vn 0.4371139952321136 0.13288729855051207 -0.8895348902972648
vn 0.2995545997936698 -0.5988728995875022 -0.7427100994884288
vn -0.1646164922795838 -0.49599207673826456 -0.8525803600144851
vn -0.1646164982887506 -0.18777319804802792 -0.9683194899339608
vn 0.299554591912497 -0.03800341897396723 -0.9533219742618056
vn 0.1646164922795838 -0.49599207673826456 -0.8525803600144851
vn -0.06554285769579009 -0.41138758553735066 -0.9091008680398551
vn -0.06554286278416814 -0.2886688122622428 -0.9551829405748209
vn 0.1646164982887506 -0.18777319804802792 -0.9683194899339608
vn 0.06554285769579009 -0.41138758553735066 -0.9091008680398551
vn 0 -0.3515416202868696 -0.9361722540249108
vn 0.06554286278416814 -0.2886688122622428 -0.9551829405748209
usemtl material_0_0
f 5//8 6//8 7//8
f 8//8 7//8 6//8
f 13//7 14//7 15//7
f 16//7 15//7 14//7
f 21//34 22//35 23//36
f 24//37 23//36 22//35
f 29//2 30//2 31//2
f 32//2 31//2 30//2
f 37//1 38//1 39//1
f 40//1 39//1 38//1
f 23//36 43//38 21//34
f 44//39 21//34 43//38
f 23//36 24//37 47//40
f 48//41 47//40 24//37
f 24//37 22//35 51//42
f 52//43 51//42 22//35
f 44//39 43//38 52//43
f 51//42 52//43 43//38
f 47//40 54//44 23//36
f 43//38 23//36 54//44
f 47//40 48//41 57//45
f 58//46 57//45 48//41
f 48//41 24//37 60//47
f 51//42 60//47 24//37
f 43//38 54//44 51//42
f 60//47 51//42 54//44
f 57//45 62//48 47//40
f 54//44 47//40 62//48
f 65//49 57//45 66//50
f 58//46 66//50 57//45
f 68//51 58//46 60//47
f 48//41 60//47 58//46
f 54//44 62//48 60//47
f 68//51 60//47 62//48
f 65//49 70//52 57//45
f 62//48 57//45 70//52
f 73//53 65//49 74//54
f 66//50 74//54 65//49
f 76//55 66//50 68//51
f 58//46 68//51 66//50
f 70//52 76//55 62//48
f 68//51 62//48 76//55
f 65//49 73//53 70//52
f 78//56 70//52 73//53
f 81//57 73//53 82//58
f 74//54 82//58 73//53
f 84//59 74//54 76//55
f 66//50 76//55 74//54
f 78//56 84//59 70//52
f 76//55 70//52 84//59
f 73//53 81//57 78//56
f 86//60 78//56 81//57
f 91//61 92//61 93//61
f 94//61 93//61 92//61
f 96//62 82//58 84//59
f 74//54 84//59 82//58
f 86//60 96//62 78//56
f 84//59 78//56 96//62
usemtl material_1_0
f 1//1 2//1 3//1
f 2//1 1//1 4//1
f 9//2 10//2 11//2
f 10//2 9//2 12//2
f 17//3 18//4 19//5
f 18//4 17//3 20//6
f 25//7 26//7 27//7
f 26//7 25//7 28//7
f 33//8 34//8 35//8
f 34//8 33//8 36//8
f 41//9 20//6 42//10
f 20//6 41//9 18//4
f 19//5 45//11 46//12
f 45//11 19//5 18//4
f 17//3 49//13 50//14
f 49//13 17//3 19//5
f 41//9 50//14 49//13
f 50//14 41//9 42//10
f 53//15 18//4 41//9
f 18//4 53//15 45//11
f 46//12 55//16 56//17
f 55//16 46//12 45//11
f 19//5 59//18 49//13
f 59//18 19//5 46//12
f 53//15 49//13 59//18
f 49//13 53//15 41//9
f 61//19 45//11 53//15
f 45//11 61//19 55//16
f 55//16 63//20 56//17
f 63//20 55//16 64//21
f 56//17 59//18 46//12
f 59//18 56//17 67//22
f 61//19 59//18 67//22
f 59//18 61//19 53//15
f 69//23 55//16 61//19
f 55//16 69//23 64//21
f 64//21 71//24 63//20
f 71//24 64//21 72//25
f 63//20 67//22 56//17
f 67//22 63//20 75//26
f 75//26 61//19 67//22
f 61//19 75//26 69//23
f 72//25 69//23 77//27
f 69//23 72//25 64//21
f 72//25 79//28 71//24
f 79//28 72//25 80//29
f 71//24 75//26 63//20
f 75//26 71//24 83//30
f 83//30 69//23 75//26
f 69//23 83//30 77//27
f 80//29 77//27 85//31
f 77//27 80//29 72//25
f 87//32 88//32 89//32
f 88//32 87//32 90//32
f 79//28 83//30 71//24
f 83//30 79//28 95//33
f 95//33 77//27 83//30
f 77//27 95//33 85//31
