# SSTK version 0.8.0
# 84
mtllib original-84.mtl
o #ID627
v 0.281560 0.244173 0.531386
v 0.313046 0.206113 0.475242
v 0.313046 0.206113 0.539137
v 0.281560 0.244173 0.475242
v 0.245553 0.277986 0.523518
v 0.245553 0.277986 0.475242
v 0.262840 0.261752 0.527806
v 0.335498 0.170734 0.546341
v 0.339513 0.164407 0.475242
v 0.339513 0.164407 0.547255
v 0.205591 0.307020 0.475242
v 0.205591 0.307020 0.515847
v 0.360544 0.119713 0.475242
v 0.360544 0.119713 0.553713
v 0.162306 0.330816 0.509560
v 0.162306 0.330816 0.475242
v 0.373837 0.078802 0.559623
v 0.375808 0.072736 0.475242
v 0.375808 0.072736 0.560147
v 0.116379 0.349000 0.504756
v 0.116379 0.349000 0.475242
v 0.385064 0.024216 0.475242
v 0.385064 0.024216 0.564335
v 0.068536 0.361284 0.500904
v 0.068536 0.361284 0.475242
v 0.106414 0.351558 0.504081
v 0.387452 -0.013741 0.567611
v 0.388166 -0.025082 0.475242
v 0.388166 -0.025082 0.567937
v 0.019530 0.367475 0.498882
v 0.019530 0.367475 0.475242
v 0.385064 -0.074380 0.475242
v 0.385064 -0.074380 0.569351
v -0.029865 0.367475 0.498882
v -0.029865 0.367475 0.475242
v 0.005267 0.367475 0.498882
v 0.378920 -0.106590 0.475242
v 0.378920 -0.106590 0.570277
v -0.078870 0.361284 0.500904
v -0.078870 0.361284 0.475242
v 0.378920 -0.106590 0.475242
v 0.375808 -0.122900 0.569809
v 0.378920 -0.106590 0.570277
v 0.375808 -0.122900 0.475242
v -0.126714 0.349000 0.504756
v -0.126714 0.349000 0.475242
v -0.116749 0.351558 0.504081
v 0.360544 -0.169878 0.568459
v 0.360544 -0.169878 0.475242
v -0.172640 0.330816 0.509560
v -0.172640 0.330816 0.475242
v 0.346634 -0.199438 0.567611
v 0.339513 -0.214572 0.566305
v 0.339513 -0.214572 0.475242
v -0.215926 0.307020 0.515847
v -0.215926 0.307020 0.475242
v 0.313046 -0.256277 0.562706
v 0.313046 -0.256277 0.475242
v -0.255887 0.277986 0.475242
v -0.255887 0.277986 0.523518
v 0.283509 -0.291981 0.559623
v 0.281560 -0.294337 0.559283
v 0.281560 -0.294337 0.475242
v -0.291895 0.244173 0.475242
v -0.273174 0.261752 0.527806
v -0.291895 0.244173 0.531386
v 0.245553 -0.328150 0.475242
v 0.245553 -0.328150 0.554397
v -0.323380 0.206113 0.475242
v -0.323380 0.206113 0.539137
v 0.205591 -0.357184 0.475242
v 0.205591 -0.357184 0.550203
v -0.349847 0.164407 0.475242
v -0.345833 0.170734 0.546341
v -0.349847 0.164407 0.547255
v 0.162306 -0.380980 0.475242
v 0.162306 -0.380980 0.546765
v -0.370879 0.119713 0.475242
v -0.370879 0.119713 0.553713
v 0.116379 -0.399164 0.543236
v 0.116379 -0.399164 0.475242
v 0.154898 -0.383913 0.546341
v -0.386143 0.072736 0.475242
v -0.384172 0.078802 0.559623
v -0.386143 0.072736 0.560147
v 0.068536 -0.411448 0.540734
v 0.068536 -0.411448 0.475242
v -0.395399 0.024216 0.475242
v -0.395399 0.024216 0.564335
v 0.019530 -0.417639 0.539474
v 0.019530 -0.417639 0.475242
v -0.398500 -0.025082 0.475242
v -0.397787 -0.013741 0.567611
v -0.398500 -0.025082 0.567937
v 0.005267 -0.417639 0.539474
v -0.029865 -0.417639 0.475242
v -0.029865 -0.417639 0.539474
v -0.395399 -0.074380 0.475242
v -0.395399 -0.074380 0.569351
v -0.078870 -0.411448 0.475242
v -0.078870 -0.411448 0.540734
v -0.389254 -0.106590 0.475242
v -0.389254 -0.106590 0.570277
v -0.126714 -0.399164 0.475242
v -0.126714 -0.399164 0.543236
v -0.386143 -0.122900 0.569809
v -0.389254 -0.106590 0.475242
v -0.389254 -0.106590 0.570277
v -0.386143 -0.122900 0.475242
v -0.165232 -0.383913 0.546341
v -0.172640 -0.380980 0.475242
v -0.172640 -0.380980 0.546765
v -0.370879 -0.169878 0.568459
v -0.370879 -0.169878 0.475242
v -0.215926 -0.357184 0.475242
v -0.215926 -0.357184 0.550203
v -0.356969 -0.199438 0.567611
v -0.349847 -0.214572 0.566305
v -0.349847 -0.214572 0.475242
v -0.255887 -0.328150 0.475242
v -0.255887 -0.328150 0.554397
v -0.323380 -0.256277 0.562706
v -0.323380 -0.256277 0.475242
v -0.291895 -0.294337 0.559283
v -0.291895 -0.294337 0.475242
v -0.293844 -0.291981 0.559623
vn -0.7329665637981776 -0.6802646664011678 0
vn -0.8090169736320784 -0.5877852808425821 0
vn -0.8128183838759594 -0.5825171884444901 0
vn -0.7289686175301027 -0.6845471164618626 0
vn -0.6425074979373551 -0.7662793975400095 0
vn -0.6374240168438534 -0.7705132203607198 0
vn -0.6845471164618626 -0.7289686175301027 0
vn -0.8443279159085524 -0.5358268100958747 0
vn -0.8763066737420931 -0.4817536855645931 0
vn -0.8787143289411202 -0.4773480157218175 0
vn -0.5358268100958747 -0.8443279159085524 0
vn -0.5405227139131494 -0.8413294216559668 0
vn -0.9297764716058311 -0.368124588757952 0
vn -0.9317242636940883 -0.36316648584872063 0
vn -0.42978789069500206 -0.9029298804513788 0
vn -0.42577928015806865 -0.9048270578337482 0
vn -0.9510565130859434 -0.3090170042518809 0
vn -0.9685831604410063 -0.24868988984297663 0
vn -0.9694061887864666 -0.24546209716063558 0
vn -0.3120809091712684 -0.9500555279197286 0
vn -0.3090170042518809 -0.9510565130859434 0
vn -0.9921147054673806 -0.1253332006906906 0
vn -0.9925366995381826 -0.12194629994325959 0
vn -0.1897496029642294 -0.9818325153379864 0
vn -0.18738129144314172 -0.9822872551433722 0
vn -0.24868988984297663 -0.9685831604410063 0
vn -0.9980267282866925 -0.0627905217796479 0
vn -1 0 0
vn -0.9999993419841632 0.001147184048163594 0
vn -0.06359768117348082 -0.9979756184142758 0
vn -0.0627905217796479 -0.9980267282866925 0
vn -0.9921147054673806 0.1253332006906906 0
vn -0.9919713889275114 0.12646249858841235 0
vn 0.06359768117348082 -0.9979756184142758 0
vn 0.0627905217796479 -0.9980267282866925 0
vn 0 -1 0
vn -0.9822872551433722 0.18738129144314172 0
vn 0.1897496029642294 -0.9818325153379864 0
vn 0.18738129144314172 -0.9822872551433722 0
vn -0.9688588153622837 0.24761380392617938 0
vn -0.9685831604410063 0.24868988984297663 0
vn 0.3120809091712684 -0.9500555279197286 0
vn 0.3090170042518809 -0.9510565130859434 0
vn 0.24868988984297663 -0.9685831604410063 0
vn -0.9301684636856424 0.36713298566689906 0
vn -0.9297764716058311 0.368124588757952 0
vn 0.42978789069500206 -0.9029298804513788 0
vn 0.42577928015806865 -0.9048270578337482 0
vn -0.9048270578337482 0.42577928015806865 0
vn -0.8777540377661364 0.4791115206141929 0
vn -0.8763066737420931 0.4817536855645931 0
vn 0.5405227139131494 -0.8413294216559668 0
vn 0.5358268100958747 -0.8443279159085524 0
vn -0.8106484992915499 0.585533099488285 0
vn -0.8090169736320784 0.5877852808425821 0
vn 0.6374240168438534 -0.7705132203607198 0
vn 0.6425074979373551 -0.7662793975400095 0
vn -0.7705132203607198 0.6374240168438534 0
vn -0.731822494354597 0.6814952947428295 0
vn -0.7289686175301027 0.6845471164618626 0
vn 0.7289686175301027 -0.6845471164618626 0
vn 0.6845471164618626 -0.7289686175301027 0
vn 0.7329665637981776 -0.6802646664011678 0
vn -0.6374240168438534 0.7705132203607198 0
vn -0.6402358801925844 0.7681783762343399 0
vn 0.8090169736320784 -0.5877852808425821 0
vn 0.8128183838759594 -0.5825171884444901 0
vn -0.5358268100958747 0.8443279159085524 0
vn -0.5384192899108572 0.8426770842095376 0
vn 0.8763066737420931 -0.4817536855645931 0
vn 0.8443279159085524 -0.5358268100958747 0
vn 0.8787143289411202 -0.4773480157218175 0
vn -0.42577928015806865 0.9048270578337482 0
vn -0.42798869427768416 0.9037840879161808 0
vn 0.9297764716058311 -0.368124588757952 0
vn 0.9317242636940883 -0.36316648584872063 0
vn -0.3113866054619624 0.9502833166687059 0
vn -0.3090170042518809 0.9510565130859434 0
vn -0.368124588757952 0.9297764716058311 0
vn 0.9685831604410063 -0.24868988984297663 0
vn 0.9510565130859434 -0.3090170042518809 0
vn 0.9694061887864666 -0.24546209716063558 0
vn -0.1888665913307026 0.9820027549244051 0
vn -0.18738129144314172 0.9822872551433722 0
vn 0.9921147054673806 -0.1253332006906906 0
vn 0.9925366995381826 -0.12194629994325959 0
vn -0.06329639825681722 0.9979947725152243 0
vn -0.0627905217796479 0.9980267282866925 0
vn 1 0 0
vn 0.9980267282866925 -0.0627905217796479 0
vn 0.9999993419841632 0.001147184048163594 0
vn 0 1 0
vn 0.0627905217796479 0.9980267282866925 0
vn 0.06329639825681722 0.9979947725152243 0
vn 0.9921147054673806 0.1253332006906906 0
vn 0.9919713889275114 0.12646249858841235 0
vn 0.18738129144314172 0.9822872551433722 0
vn 0.1888665913307026 0.9820027549244051 0
vn 0.9822872551433722 0.18738129144314172 0
vn 0.3090170042518809 0.9510565130859434 0
vn 0.3113866054619624 0.9502833166687059 0
vn 0.9688588153622837 0.24761380392617938 0
vn 0.9685831604410063 0.24868988984297663 0
vn 0.368124588757952 0.9297764716058311 0
vn 0.42577928015806865 0.9048270578337482 0
vn 0.42798869427768416 0.9037840879161808 0
vn 0.9301684636856424 0.36713298566689906 0
vn 0.9297764716058311 0.368124588757952 0
vn 0.5358268100958747 0.8443279159085524 0
vn 0.5384192899108572 0.8426770842095376 0
vn 0.9048270578337482 0.42577928015806865 0
vn 0.8777540377661364 0.4791115206141929 0
vn 0.8763066737420931 0.4817536855645931 0
vn 0.6374240168438534 0.7705132203607198 0
vn 0.6402358801925844 0.7681783762343399 0
vn 0.8106484992915499 0.585533099488285 0
vn 0.8090169736320784 0.5877852808425821 0
vn 0.731822494354597 0.6814952947428295 0
vn 0.7289686175301027 0.6845471164618626 0
vn 0.7705132203607198 0.6374240168438534 0
usemtl material_0_0
f 1//1 2//2 3//3
f 2//2 1//1 4//4
f 4//4 5//5 6//6
f 5//5 4//4 7//7
f 7//7 4//4 1//1
f 8//8 9//9 10//10
f 9//9 8//8 3//3
f 9//9 3//3 2//2
f 11//11 5//5 12//12
f 5//5 11//11 6//6
f 10//10 13//13 14//14
f 13//13 10//10 9//9
f 11//11 15//15 16//16
f 15//15 11//11 12//12
f 17//17 18//18 19//19
f 18//18 17//17 14//14
f 18//18 14//14 13//13
f 16//16 20//20 21//21
f 20//20 16//16 15//15
f 19//19 22//22 23//23
f 22//22 19//19 18//18
f 21//21 24//24 25//25
f 24//24 21//21 26//26
f 26//26 21//21 20//20
f 27//27 28//28 29//29
f 28//28 27//27 23//23
f 28//28 23//23 22//22
f 25//25 30//30 31//31
f 30//30 25//25 24//24
f 29//29 32//32 33//33
f 32//32 29//29 28//28
f 31//31 34//34 35//35
f 34//34 31//31 36//36
f 36//36 31//31 30//30
f 33//33 37//37 38//37
f 37//37 33//33 32//32
f 35//35 39//38 40//39
f 39//38 35//35 34//34
f 41//37 42//40 43//37
f 42//40 41//37 44//41
f 40//39 45//42 46//43
f 45//42 40//39 47//44
f 47//44 40//39 39//38
f 44//41 48//45 42//40
f 48//45 44//41 49//46
f 46//43 50//47 51//48
f 50//47 46//43 45//42
f 49//46 52//49 48//45
f 52//49 49//46 53//50
f 53//50 49//46 54//51
f 51//48 55//52 56//53
f 55//52 51//48 50//47
f 54//51 57//54 53//50
f 57//54 54//51 58//55
f 59//56 55//52 60//57
f 55//52 59//56 56//53
f 58//55 61//58 57//54
f 61//58 58//55 62//59
f 62//59 58//55 63//60
f 64//61 65//62 66//63
f 65//62 64//61 59//56
f 65//62 59//56 60//57
f 62//59 67//64 68//65
f 67//64 62//59 63//60
f 69//66 66//63 70//67
f 66//63 69//66 64//61
f 68//65 71//68 72//69
f 71//68 68//65 67//64
f 73//70 74//71 75//72
f 74//71 73//70 70//67
f 70//67 73//70 69//66
f 72//69 76//73 77//74
f 76//73 72//69 71//68
f 78//75 75//72 79//76
f 75//72 78//75 73//70
f 80//77 76//73 81//78
f 76//73 80//77 82//79
f 76//73 82//79 77//74
f 83//80 84//81 85//82
f 84//81 83//80 79//76
f 79//76 83//80 78//75
f 86//83 81//78 87//84
f 81//78 86//83 80//77
f 88//85 85//82 89//86
f 85//82 88//85 83//80
f 90//87 87//84 91//88
f 87//84 90//87 86//83
f 92//89 93//90 94//91
f 93//90 92//89 89//86
f 89//86 92//89 88//85
f 95//92 96//93 97//94
f 96//93 95//92 91//88
f 91//88 95//92 90//87
f 98//95 94//91 99//96
f 94//91 98//95 92//89
f 97//94 100//97 101//98
f 100//97 97//94 96//93
f 102//99 99//96 103//99
f 99//96 102//99 98//95
f 101//98 104//100 105//101
f 104//100 101//98 100//97
f 106//102 107//99 108//99
f 107//99 106//102 109//103
f 110//104 111//105 112//106
f 111//105 110//104 104//100
f 104//100 110//104 105//101
f 113//107 109//103 106//102
f 109//103 113//107 114//108
f 112//106 115//109 116//110
f 115//109 112//106 111//105
f 117//111 114//108 113//107
f 114//108 117//111 118//112
f 114//108 118//112 119//113
f 116//110 120//114 121//115
f 120//114 116//110 115//109
f 122//116 119//113 118//112
f 119//113 122//116 123//117
f 124//118 120//114 125//119
f 120//114 124//118 121//115
f 126//120 123//117 122//116
f 123//117 126//120 124//118
f 123//117 124//118 125//119
