# SSTK version 0.8.0
# 3
mtllib original-3.mtl
o #ID90
v -0.151710 0.448509 0.440835
v -0.155701 0.600577 0.383388
v -0.155701 0.447594 0.440835
v -0.151710 0.601492 0.383388
v -0.151710 0.601492 0.383388
v -0.151710 0.448509 0.440835
v -0.155701 0.600577 0.383388
v -0.155701 0.447594 0.440835
vn -0.0482967308352692 0.2105431036412435 0.976390816886219
vn -0.08037963859408861 0.3504041938711187 0.9331430836784974
vn -0.04986769116002384 0.21739140505696566 0.9748098226760574
vn 0.08037963859408861 -0.3504041938711187 -0.9331430836784974
vn 0.0482967308352692 -0.2105431036412435 -0.976390816886219
vn 0.04986769116002384 -0.21739140505696566 -0.9748098226760574
usemtl material_0_0
f 1//1 2//2 3//3
f 2//2 1//1 4//2
usemtl material_1_0
f 5//4 6//5 7//4
f 8//6 7//4 6//5
