# SSTK version 0.8.0
# 91
mtllib original-91.mtl
o #ID679
v 0.049533 -0.311833 0.522759
v 0.012843 -0.311342 0.522759
v -0.023177 -0.311342 0.522759
v 0.085042 -0.302716 0.522759
v 0.048579 -0.306828 0.522759
v 0.083467 -0.297870 0.522759
v 0.119127 -0.289221 0.522759
v 0.116957 -0.284610 0.522759
v 0.151252 -0.271560 0.522759
v 0.148522 -0.267257 0.522759
v 0.180911 -0.250012 0.522759
v 0.177663 -0.246085 0.522759
v 0.207635 -0.224916 0.522759
v 0.203920 -0.221428 0.522759
v 0.231002 -0.196669 0.522759
v 0.226880 -0.193674 0.522759
v 0.250646 -0.165716 0.522759
v 0.246180 -0.163262 0.522759
v 0.266255 -0.132546 0.522759
v 0.261517 -0.130670 0.522759
v 0.277583 -0.097680 0.522759
v 0.272648 -0.096413 0.522759
v 0.279501 -0.087625 0.522759
v 0.274506 -0.086672 0.522759
v 0.284452 -0.061670 0.522759
v 0.279397 -0.061031 0.522759
v 0.286754 -0.025082 0.522759
v 0.281659 -0.025082 0.522759
v 0.279397 0.010867 0.522759
v 0.284452 0.011505 0.522759
v 0.272648 0.046249 0.522759
v 0.277583 0.047516 0.522759
v 0.261517 0.080506 0.522759
v 0.266255 0.082381 0.522759
v 0.246180 0.113097 0.522759
v 0.250646 0.115552 0.522759
v 0.226880 0.143510 0.522759
v 0.231002 0.146505 0.522759
v 0.203920 0.171264 0.522759
v 0.207635 0.174752 0.522759
v 0.177663 0.195921 0.522759
v 0.180911 0.199847 0.522759
v 0.148522 0.217093 0.522759
v 0.151252 0.221396 0.522759
v 0.116957 0.234446 0.522759
v 0.119127 0.239057 0.522759
v 0.083467 0.247706 0.522759
v 0.085042 0.252552 0.522759
v 0.048579 0.256664 0.522759
v 0.049533 0.261669 0.522759
v 0.012843 0.261178 0.522759
v -0.023177 0.261178 0.522759
v 0.013163 -0.316428 0.522759
v -0.059868 -0.311833 0.522759
v -0.023497 -0.316428 0.522759
v -0.095376 -0.302716 0.522759
v -0.058913 -0.306828 0.522759
v -0.093801 -0.297870 0.522759
v -0.129461 -0.289221 0.522759
v -0.127292 -0.284610 0.522759
v -0.161587 -0.271560 0.522759
v -0.158856 -0.267257 0.522759
v -0.191245 -0.250012 0.522759
v -0.187997 -0.246085 0.522759
v -0.217969 -0.224916 0.522759
v -0.214255 -0.221428 0.522759
v -0.241337 -0.196669 0.522759
v -0.237214 -0.193674 0.522759
v -0.260980 -0.165716 0.522759
v -0.256515 -0.163262 0.522759
v -0.276589 -0.132546 0.522759
v -0.271851 -0.130670 0.522759
v -0.287918 -0.097680 0.522759
v -0.282982 -0.096413 0.522759
v -0.289836 -0.087625 0.522759
v -0.284840 -0.086672 0.522759
v -0.294787 -0.061670 0.522759
v -0.289732 -0.061031 0.522759
v -0.297089 -0.025082 0.522759
v -0.291993 -0.025082 0.522759
v -0.289732 0.010867 0.522759
v -0.294787 0.011505 0.522759
v -0.282982 0.046249 0.522759
v -0.287918 0.047516 0.522759
v -0.271851 0.080506 0.522759
v -0.276589 0.082381 0.522759
v -0.256515 0.113097 0.522759
v -0.260980 0.115552 0.522759
v -0.237214 0.143510 0.522759
v -0.241337 0.146505 0.522759
v -0.214255 0.171264 0.522759
v -0.217969 0.174752 0.522759
v -0.187997 0.195921 0.522759
v -0.191245 0.199847 0.522759
v -0.158856 0.217093 0.522759
v -0.161587 0.221396 0.522759
v -0.127292 0.234446 0.522759
v -0.129461 0.239057 0.522759
v -0.093801 0.247706 0.522759
v -0.095376 0.252552 0.522759
v -0.058913 0.256664 0.522759
v -0.059868 0.261669 0.522759
v 0.013163 0.266264 0.522759
v -0.023497 0.266264 0.522759
v -0.023497 0.266264 0.522759
v 0.013163 0.266264 0.522759
v -0.059868 0.261669 0.522759
v 0.049533 0.261669 0.522759
v -0.023177 0.261178 0.522759
v -0.058913 0.256664 0.522759
v -0.095376 0.252552 0.522759
v -0.093801 0.247706 0.522759
v -0.129461 0.239057 0.522759
v -0.127292 0.234446 0.522759
v -0.161587 0.221396 0.522759
v -0.158856 0.217093 0.522759
v -0.191245 0.199847 0.522759
v -0.187997 0.195921 0.522759
v -0.217969 0.174752 0.522759
v -0.214255 0.171264 0.522759
v -0.241337 0.146505 0.522759
v -0.237214 0.143510 0.522759
v -0.260980 0.115552 0.522759
v -0.256515 0.113097 0.522759
v -0.276589 0.082381 0.522759
v -0.271851 0.080506 0.522759
v -0.287918 0.047516 0.522759
v -0.282982 0.046249 0.522759
v -0.294787 0.011505 0.522759
v -0.289732 0.010867 0.522759
v -0.297089 -0.025082 0.522759
v -0.291993 -0.025082 0.522759
v -0.289732 -0.061031 0.522759
v -0.294787 -0.061670 0.522759
v -0.284840 -0.086672 0.522759
v -0.289836 -0.087625 0.522759
v -0.282982 -0.096413 0.522759
v -0.287918 -0.097680 0.522759
v -0.271851 -0.130670 0.522759
v -0.276589 -0.132546 0.522759
v -0.256515 -0.163262 0.522759
v -0.260980 -0.165716 0.522759
v -0.237214 -0.193674 0.522759
v -0.241337 -0.196669 0.522759
v -0.214255 -0.221428 0.522759
v -0.217969 -0.224916 0.522759
v -0.187997 -0.246085 0.522759
v -0.191245 -0.250012 0.522759
v -0.158856 -0.267257 0.522759
v -0.161587 -0.271560 0.522759
v -0.127292 -0.284610 0.522759
v -0.129461 -0.289221 0.522759
v -0.093801 -0.297870 0.522759
v -0.095376 -0.302716 0.522759
v -0.058913 -0.306828 0.522759
v -0.023177 -0.311342 0.522759
v -0.059868 -0.311833 0.522759
v 0.049533 -0.311833 0.522759
v 0.013163 -0.316428 0.522759
v -0.023497 -0.316428 0.522759
v 0.012843 0.261178 0.522759
v 0.048579 0.256664 0.522759
v 0.085042 0.252552 0.522759
v 0.083467 0.247706 0.522759
v 0.119127 0.239057 0.522759
v 0.116957 0.234446 0.522759
v 0.151252 0.221396 0.522759
v 0.148522 0.217093 0.522759
v 0.180911 0.199847 0.522759
v 0.177663 0.195921 0.522759
v 0.207635 0.174752 0.522759
v 0.203920 0.171264 0.522759
v 0.231002 0.146505 0.522759
v 0.226880 0.143510 0.522759
v 0.250646 0.115552 0.522759
v 0.246180 0.113097 0.522759
v 0.266255 0.082381 0.522759
v 0.261517 0.080506 0.522759
v 0.277583 0.047516 0.522759
v 0.272648 0.046249 0.522759
v 0.284452 0.011505 0.522759
v 0.279397 0.010867 0.522759
v 0.286754 -0.025082 0.522759
v 0.281659 -0.025082 0.522759
v 0.279397 -0.061031 0.522759
v 0.284452 -0.061670 0.522759
v 0.274506 -0.086672 0.522759
v 0.279501 -0.087625 0.522759
v 0.272648 -0.096413 0.522759
v 0.277583 -0.097680 0.522759
v 0.261517 -0.130670 0.522759
v 0.266255 -0.132546 0.522759
v 0.246180 -0.163262 0.522759
v 0.250646 -0.165716 0.522759
v 0.226880 -0.193674 0.522759
v 0.231002 -0.196669 0.522759
v 0.203920 -0.221428 0.522759
v 0.207635 -0.224916 0.522759
v 0.177663 -0.246085 0.522759
v 0.180911 -0.250012 0.522759
v 0.148522 -0.267257 0.522759
v 0.151252 -0.271560 0.522759
v 0.116957 -0.284610 0.522759
v 0.119127 -0.289221 0.522759
v 0.083467 -0.297870 0.522759
v 0.085042 -0.302716 0.522759
v 0.048579 -0.306828 0.522759
v 0.012843 -0.311342 0.522759
v 0.119284 0.239391 0.522711
v 0.085042 0.252552 0.522759
v 0.119127 0.239057 0.522759
v 0.085156 0.252904 0.522711
v 0.085156 0.252904 0.522711
v 0.119284 0.239391 0.522711
v 0.085042 0.252552 0.522759
v 0.119127 0.239057 0.522759
v 0.049533 0.261669 0.522759
v 0.049603 0.262032 0.522711
v 0.049603 0.262032 0.522711
v 0.049533 0.261669 0.522759
v 0.013163 0.266264 0.522759
v 0.013186 0.266632 0.522711
v 0.013186 0.266632 0.522711
v 0.013163 0.266264 0.522759
v -0.023497 0.266264 0.522759
v -0.023520 0.266632 0.522711
v -0.023520 0.266632 0.522711
v -0.023497 0.266264 0.522759
v -0.059937 0.262032 0.522711
v -0.059868 0.261669 0.522759
v -0.059937 0.262032 0.522711
v -0.059868 0.261669 0.522759
v -0.095490 0.252904 0.522711
v -0.095376 0.252552 0.522759
v -0.095490 0.252904 0.522711
v -0.095376 0.252552 0.522759
v -0.129619 0.239391 0.522711
v -0.129461 0.239057 0.522759
v -0.129619 0.239391 0.522711
v -0.129461 0.239057 0.522759
v -0.161785 0.221708 0.522711
v -0.161587 0.221396 0.522759
v -0.161785 0.221708 0.522711
v -0.161587 0.221396 0.522759
v -0.191481 0.200132 0.522711
v -0.191245 0.199847 0.522759
v -0.191481 0.200132 0.522711
v -0.191245 0.199847 0.522759
v -0.218239 0.175005 0.522711
v -0.217969 0.174752 0.522759
v -0.218239 0.175005 0.522711
v -0.217969 0.174752 0.522759
v -0.241636 0.146722 0.522711
v -0.241337 0.146505 0.522759
v -0.241636 0.146722 0.522711
v -0.241337 0.146505 0.522759
v -0.261304 0.115730 0.522711
v -0.260980 0.115552 0.522759
v -0.261304 0.115730 0.522711
v -0.260980 0.115552 0.522759
v -0.276933 0.082517 0.522711
v -0.276589 0.082381 0.522759
v -0.276933 0.082517 0.522711
v -0.276589 0.082381 0.522759
v -0.288276 0.047608 0.522711
v -0.287918 0.047516 0.522759
v -0.288276 0.047608 0.522711
v -0.287918 0.047516 0.522759
v -0.295154 0.011552 0.522711
v -0.294787 0.011505 0.522759
v -0.295154 0.011552 0.522711
v -0.294787 0.011505 0.522759
v -0.297089 -0.025082 0.522759
v -0.297459 -0.025082 0.522711
v -0.297089 -0.025082 0.522759
v -0.297459 -0.025082 0.522711
v -0.294787 -0.061670 0.522759
v -0.295154 -0.061716 0.522711
v -0.294787 -0.061670 0.522759
v -0.295154 -0.061716 0.522711
v -0.289836 -0.087625 0.522759
v -0.290198 -0.087694 0.522711
v -0.289836 -0.087625 0.522759
v -0.290198 -0.087694 0.522711
v -0.287918 -0.097680 0.522759
v -0.288276 -0.097772 0.522711
v -0.289836 -0.087625 0.522759
v -0.289836 -0.087625 0.522759
v -0.287918 -0.097680 0.522759
v -0.288276 -0.097772 0.522711
v -0.276589 -0.132546 0.522759
v -0.276933 -0.132682 0.522711
v -0.276589 -0.132546 0.522759
v -0.276933 -0.132682 0.522711
v -0.260980 -0.165716 0.522759
v -0.261304 -0.165895 0.522711
v -0.260980 -0.165716 0.522759
v -0.261304 -0.165895 0.522711
v -0.241337 -0.196669 0.522759
v -0.241636 -0.196887 0.522711
v -0.241337 -0.196669 0.522759
v -0.241636 -0.196887 0.522711
v -0.217969 -0.224916 0.522759
v -0.218239 -0.225169 0.522711
v -0.217969 -0.224916 0.522759
v -0.218239 -0.225169 0.522711
v -0.191245 -0.250012 0.522759
v -0.191481 -0.250296 0.522711
v -0.191245 -0.250012 0.522759
v -0.191481 -0.250296 0.522711
v -0.161587 -0.271560 0.522759
v -0.161785 -0.271872 0.522711
v -0.161587 -0.271560 0.522759
v -0.161785 -0.271872 0.522711
v -0.129461 -0.289221 0.522759
v -0.129619 -0.289555 0.522711
v -0.129461 -0.289221 0.522759
v -0.129619 -0.289555 0.522711
v -0.095376 -0.302716 0.522759
v -0.095490 -0.303068 0.522711
v -0.095376 -0.302716 0.522759
v -0.095490 -0.303068 0.522711
v -0.059868 -0.311833 0.522759
v -0.059937 -0.312196 0.522711
v -0.059868 -0.311833 0.522759
v -0.059937 -0.312196 0.522711
v -0.023497 -0.316428 0.522759
v -0.023520 -0.316797 0.522711
v -0.023497 -0.316428 0.522759
v -0.023520 -0.316797 0.522711
v 0.013186 -0.316797 0.522711
v 0.013163 -0.316428 0.522759
v 0.013163 -0.316428 0.522759
v 0.013186 -0.316797 0.522711
v 0.049603 -0.312196 0.522711
v 0.049533 -0.311833 0.522759
v 0.049533 -0.311833 0.522759
v 0.049603 -0.312196 0.522711
v 0.085156 -0.303068 0.522711
v 0.085042 -0.302716 0.522759
v 0.085042 -0.302716 0.522759
v 0.085156 -0.303068 0.522711
v 0.119284 -0.289555 0.522711
v 0.119127 -0.289221 0.522759
v 0.119127 -0.289221 0.522759
v 0.119284 -0.289555 0.522711
v 0.151450 -0.271872 0.522711
v 0.151252 -0.271560 0.522759
v 0.151252 -0.271560 0.522759
v 0.151450 -0.271872 0.522711
v 0.181146 -0.250296 0.522711
v 0.180911 -0.250012 0.522759
v 0.180911 -0.250012 0.522759
v 0.181146 -0.250296 0.522711
v 0.207904 -0.225169 0.522711
v 0.207635 -0.224916 0.522759
v 0.207635 -0.224916 0.522759
v 0.207904 -0.225169 0.522711
v 0.231301 -0.196887 0.522711
v 0.231002 -0.196669 0.522759
v 0.231002 -0.196669 0.522759
v 0.231301 -0.196887 0.522711
v 0.250970 -0.165895 0.522711
v 0.250646 -0.165716 0.522759
v 0.250646 -0.165716 0.522759
v 0.250970 -0.165895 0.522711
v 0.266598 -0.132682 0.522711
v 0.266255 -0.132546 0.522759
v 0.266255 -0.132546 0.522759
v 0.266598 -0.132682 0.522711
v 0.277941 -0.097772 0.522711
v 0.277583 -0.097680 0.522759
v 0.277583 -0.097680 0.522759
v 0.277941 -0.097772 0.522711
v 0.279864 -0.087694 0.522711
v 0.279501 -0.087625 0.522759
v 0.279501 -0.087625 0.522759
v 0.279864 -0.087694 0.522711
v 0.284819 -0.061716 0.522711
v 0.279501 -0.087625 0.522759
v 0.284452 -0.061670 0.522759
v 0.284452 -0.061670 0.522759
v 0.284819 -0.061716 0.522711
v 0.279501 -0.087625 0.522759
v 0.287124 -0.025082 0.522711
v 0.286754 -0.025082 0.522759
v 0.286754 -0.025082 0.522759
v 0.287124 -0.025082 0.522711
v 0.284819 0.011552 0.522711
v 0.284452 0.011505 0.522759
v 0.284452 0.011505 0.522759
v 0.284819 0.011552 0.522711
v 0.277583 0.047516 0.522759
v 0.277941 0.047608 0.522711
v 0.277941 0.047608 0.522711
v 0.277583 0.047516 0.522759
v 0.266255 0.082381 0.522759
v 0.266598 0.082517 0.522711
v 0.266598 0.082517 0.522711
v 0.266255 0.082381 0.522759
v 0.250646 0.115552 0.522759
v 0.250970 0.115730 0.522711
v 0.250970 0.115730 0.522711
v 0.250646 0.115552 0.522759
v 0.231002 0.146505 0.522759
v 0.231301 0.146722 0.522711
v 0.231301 0.146722 0.522711
v 0.231002 0.146505 0.522759
v 0.207635 0.174752 0.522759
v 0.207904 0.175005 0.522711
v 0.207904 0.175005 0.522711
v 0.207635 0.174752 0.522759
v 0.180911 0.199847 0.522759
v 0.181146 0.200132 0.522711
v 0.181146 0.200132 0.522711
v 0.180911 0.199847 0.522759
v 0.151252 0.221396 0.522759
v 0.151450 0.221708 0.522711
v 0.151450 0.221708 0.522711
v 0.151252 0.221396 0.522759
v 0.119431 0.239703 0.522568
v 0.085262 0.253231 0.522568
v 0.085262 0.253231 0.522568
v 0.119431 0.239703 0.522568
v 0.049667 0.262370 0.522568
v 0.049667 0.262370 0.522568
v 0.013207 0.266976 0.522568
v 0.013207 0.266976 0.522568
v -0.023542 0.266976 0.522568
v -0.023542 0.266976 0.522568
v -0.060002 0.262370 0.522568
v -0.060002 0.262370 0.522568
v -0.095597 0.253231 0.522568
v -0.095597 0.253231 0.522568
v -0.129766 0.239703 0.522568
v -0.129766 0.239703 0.522568
v -0.161969 0.221998 0.522568
v -0.161969 0.221998 0.522568
v -0.191700 0.200398 0.522568
v -0.191700 0.200398 0.522568
v -0.218490 0.175241 0.522568
v -0.218490 0.175241 0.522568
v -0.241915 0.146925 0.522568
v -0.241915 0.146925 0.522568
v -0.261606 0.115896 0.522568
v -0.261606 0.115896 0.522568
v -0.277253 0.082644 0.522568
v -0.277253 0.082644 0.522568
v -0.288609 0.047693 0.522568
v -0.288609 0.047693 0.522568
v -0.295496 0.011595 0.522568
v -0.295496 0.011595 0.522568
v -0.297803 -0.025082 0.522568
v -0.297803 -0.025082 0.522568
v -0.295496 -0.061759 0.522568
v -0.295496 -0.061759 0.522568
v -0.290536 -0.087758 0.522568
v -0.290536 -0.087758 0.522568
v -0.288609 -0.097858 0.522568
v -0.288609 -0.097858 0.522568
v -0.277253 -0.132809 0.522568
v -0.277253 -0.132809 0.522568
v -0.261606 -0.166061 0.522568
v -0.261606 -0.166061 0.522568
v -0.241915 -0.197089 0.522568
v -0.241915 -0.197089 0.522568
v -0.218490 -0.225405 0.522568
v -0.218490 -0.225405 0.522568
v -0.191700 -0.250562 0.522568
v -0.191700 -0.250562 0.522568
v -0.161969 -0.272163 0.522568
v -0.161969 -0.272163 0.522568
v -0.129766 -0.289867 0.522568
v -0.129766 -0.289867 0.522568
v -0.095597 -0.303395 0.522568
v -0.095597 -0.303395 0.522568
v -0.060002 -0.312535 0.522568
v -0.060002 -0.312535 0.522568
v -0.023542 -0.317141 0.522568
v -0.023542 -0.317141 0.522568
v 0.013207 -0.317141 0.522568
v 0.013207 -0.317141 0.522568
v 0.049667 -0.312535 0.522568
v 0.049667 -0.312535 0.522568
v 0.085262 -0.303395 0.522568
v 0.085262 -0.303395 0.522568
v 0.119431 -0.289867 0.522568
v 0.119431 -0.289867 0.522568
v 0.151635 -0.272163 0.522568
v 0.151635 -0.272163 0.522568
v 0.181366 -0.250562 0.522568
v 0.181366 -0.250562 0.522568
v 0.208155 -0.225405 0.522568
v 0.208155 -0.225405 0.522568
v 0.231580 -0.197089 0.522568
v 0.231580 -0.197089 0.522568
v 0.251271 -0.166061 0.522568
v 0.251271 -0.166061 0.522568
v 0.266919 -0.132809 0.522568
v 0.266919 -0.132809 0.522568
v 0.278275 -0.097858 0.522568
v 0.278275 -0.097858 0.522568
v 0.280201 -0.087758 0.522568
v 0.280201 -0.087758 0.522568
v 0.285161 -0.061759 0.522568
v 0.285161 -0.061759 0.522568
v 0.287469 -0.025082 0.522568
v 0.287469 -0.025082 0.522568
v 0.285161 0.011595 0.522568
v 0.285161 0.011595 0.522568
v 0.278275 0.047693 0.522568
v 0.278275 0.047693 0.522568
v 0.266919 0.082644 0.522568
v 0.266919 0.082644 0.522568
v 0.251271 0.115896 0.522568
v 0.251271 0.115896 0.522568
v 0.231580 0.146925 0.522568
v 0.231580 0.146925 0.522568
v 0.208155 0.175241 0.522568
v 0.208155 0.175241 0.522568
v 0.181366 0.200398 0.522568
v 0.181366 0.200398 0.522568
v 0.151635 0.221998 0.522568
v 0.151635 0.221998 0.522568
v 0.119557 0.239970 0.522341
v 0.085354 0.253512 0.522341
v 0.085354 0.253512 0.522341
v 0.119557 0.239970 0.522341
v 0.049723 0.262661 0.522341
v 0.049723 0.262661 0.522341
v 0.013226 0.267272 0.522341
v 0.013226 0.267272 0.522341
v -0.023561 0.267272 0.522341
v -0.023561 0.267272 0.522341
v -0.060057 0.262661 0.522341
v -0.060057 0.262661 0.522341
v -0.095688 0.253512 0.522341
v -0.095688 0.253512 0.522341
v -0.129891 0.239970 0.522341
v -0.129891 0.239970 0.522341
v -0.162128 0.222248 0.522341
v -0.162128 0.222248 0.522341
v -0.191889 0.200626 0.522341
v -0.191889 0.200626 0.522341
v -0.218705 0.175443 0.522341
v -0.218705 0.175443 0.522341
v -0.242154 0.147099 0.522341
v -0.242154 0.147099 0.522341
v -0.261865 0.116039 0.522341
v -0.261865 0.116039 0.522341
v -0.277528 0.082753 0.522341
v -0.277528 0.082753 0.522341
v -0.288896 0.047767 0.522341
v -0.288896 0.047767 0.522341
v -0.295789 0.011632 0.522341
v -0.295789 0.011632 0.522341
v -0.298099 -0.025082 0.522341
v -0.298099 -0.025082 0.522341
v -0.295789 -0.061796 0.522341
v -0.295789 -0.061796 0.522341
v -0.290826 -0.087814 0.522341
v -0.290826 -0.087814 0.522341
v -0.288896 -0.097931 0.522341
v -0.288896 -0.097931 0.522341
v -0.277528 -0.132917 0.522341
v -0.277528 -0.132917 0.522341
v -0.261865 -0.166203 0.522341
v -0.261865 -0.166203 0.522341
v -0.242154 -0.197263 0.522341
v -0.242154 -0.197263 0.522341
v -0.218705 -0.225608 0.522341
v -0.218705 -0.225608 0.522341
v -0.191889 -0.250790 0.522341
v -0.191889 -0.250790 0.522341
v -0.162128 -0.272412 0.522341
v -0.162128 -0.272412 0.522341
v -0.129891 -0.290135 0.522341
v -0.129891 -0.290135 0.522341
v -0.095688 -0.303677 0.522341
v -0.095688 -0.303677 0.522341
v -0.060057 -0.312825 0.522341
v -0.060057 -0.312825 0.522341
v -0.023561 -0.317436 0.522341
v -0.023561 -0.317436 0.522341
v 0.013226 -0.317436 0.522341
v 0.013226 -0.317436 0.522341
v 0.049723 -0.312825 0.522341
v 0.049723 -0.312825 0.522341
v 0.085354 -0.303677 0.522341
v 0.085354 -0.303677 0.522341
v 0.119557 -0.290135 0.522341
v 0.119557 -0.290135 0.522341
v 0.151793 -0.272412 0.522341
v 0.151793 -0.272412 0.522341
v 0.181554 -0.250790 0.522341
v 0.181554 -0.250790 0.522341
v 0.208371 -0.225608 0.522341
v 0.208371 -0.225608 0.522341
v 0.231819 -0.197263 0.522341
v 0.231819 -0.197263 0.522341
v 0.251531 -0.166203 0.522341
v 0.251531 -0.166203 0.522341
v 0.267194 -0.132917 0.522341
v 0.267194 -0.132917 0.522341
v 0.278561 -0.097931 0.522341
v 0.278561 -0.097931 0.522341
v 0.280491 -0.087814 0.522341
v 0.280491 -0.087814 0.522341
v 0.285455 -0.061796 0.522341
v 0.285455 -0.061796 0.522341
v 0.287764 -0.025082 0.522341
v 0.287764 -0.025082 0.522341
v 0.285455 0.011632 0.522341
v 0.285455 0.011632 0.522341
v 0.278561 0.047767 0.522341
v 0.278561 0.047767 0.522341
v 0.267194 0.082753 0.522341
v 0.267194 0.082753 0.522341
v 0.251531 0.116039 0.522341
v 0.251531 0.116039 0.522341
v 0.231819 0.147099 0.522341
v 0.231819 0.147099 0.522341
v 0.208371 0.175443 0.522341
v 0.208371 0.175443 0.522341
v 0.181554 0.200626 0.522341
v 0.181554 0.200626 0.522341
v 0.151793 0.222248 0.522341
v 0.151793 0.222248 0.522341
vt 7.365665 5.538827
vt 6.979584 5.546794
vt 6.600562 5.546794
vt 7.739301 5.686825
vt 7.355618 5.620079
vt 7.722732 5.765493
vt 8.097967 5.905899
vt 8.075138 5.980744
vt 8.436007 6.192596
vt 8.407277 6.262436
vt 8.74809 6.542393
vt 8.713912 6.606127
vt 9.029293 6.949773
vt 8.990208 7.006397
vt 9.275183 7.408314
vt 9.231805 7.456934
vt 9.481881 7.910782
vt 9.434895 7.950631
vt 9.646128 8.449253
vt 9.596275 8.479704
vt 9.765333 9.015237
vt 9.713399 9.035808
vt 9.785517 9.178469
vt 9.732952 9.193938
vt 9.837616 9.599806
vt 9.784421 9.610173
vt 9.861838 10.19374
vt 9.80822 10.19374
vt 9.784421 10.77731
vt 9.837616 10.78768
vt 9.713399 11.35168
vt 9.765333 11.37225
vt 9.596275 11.90778
vt 9.646128 11.93823
vt 9.434895 12.43685
vt 9.481881 12.4767
vt 9.231805 12.93055
vt 9.275183 12.97917
vt 8.990208 13.38109
vt 9.029293 13.43771
vt 8.713912 13.78136
vt 8.74809 13.84509
vt 8.407277 14.12505
vt 8.436007 14.19489
vt 8.075138 14.40674
vt 8.097967 14.48158
vt 7.722732 14.62199
vt 7.739301 14.70066
vt 7.355618 14.7674
vt 7.365665 14.84866
vt 6.979584 14.84069
vt 6.600562 14.84069
vt 6.982951 5.46424
vt 6.214482 5.538827
vt 6.597196 5.46424
vt 5.840846 5.686825
vt 6.224529 5.620079
vt 5.857415 5.765493
vt 5.48218 5.905899
vt 5.505009 5.980744
vt 5.14414 6.192596
vt 5.172869 6.262436
vt 4.832057 6.542393
vt 4.866234 6.606127
vt 4.550853 6.949773
vt 4.589939 7.006397
vt 4.304964 7.408314
vt 4.348341 7.456934
vt 4.098265 7.910782
vt 4.145251 7.950631
vt 3.934019 8.449253
vt 3.983872 8.479704
vt 3.814814 9.015237
vt 3.866747 9.035808
vt 3.79463 9.178469
vt 3.847194 9.193938
vt 3.74253 9.599806
vt 3.795726 9.610173
vt 3.718309 10.19374
vt 3.771927 10.19374
vt 3.795726 10.77731
vt 3.74253 10.78768
vt 3.866747 11.35168
vt 3.814814 11.37225
vt 3.983872 11.90778
vt 3.934019 11.93823
vt 4.145251 12.43685
vt 4.098265 12.4767
vt 4.348341 12.93055
vt 4.304964 12.97917
vt 4.589939 13.38109
vt 4.550853 13.43771
vt 4.866234 13.78136
vt 4.832057 13.84509
vt 5.172869 14.12505
vt 5.14414 14.19489
vt 5.505009 14.40674
vt 5.48218 14.48158
vt 5.857415 14.62199
vt 5.840846 14.70066
vt 6.224529 14.7674
vt 6.214482 14.84866
vt 6.982951 14.92324
vt 6.597196 14.92324
vt 9.081927 18.13796
vt 8.722002 18.35319
vt 9.080248 18.13249
vt 8.723227 18.35894
vt 8.406803 18.53285
vt 8.032149 18.6763
vt 8.405585 18.5271
vt 8.032894 18.68224
vt 7.703413 18.79775
vt 7.320014 18.86703
vt 7.702676 18.79181
vt 7.320267 18.87307
vt 6.983195 18.92716
vt 6.597196 18.92112
vt 6.982951 18.92112
vt 6.596951 18.92716
vt 6.258284 18.91179
vt 5.874885 18.84251
vt 5.875622 18.83657
vt 6.258031 18.91783
vt 5.540725 18.76297
vt 5.166071 18.61953
vt 5.167289 18.61377
vt 5.53998 18.76891
vt 4.842224 18.47627
vt 4.482299 18.26104
vt 4.483979 18.25557
vt 4.840999 18.48202
vt 4.174363 18.05576
vt 3.834889 17.77227
vt 3.837001 17.76717
vt 4.172678 18.06123
vt 3.548106 17.50786
vt 3.234442 17.16075
vt 3.236953 17.1561
vt 3.545988 17.51296
vt 2.973585 16.84119
vt 2.690646 16.43608
vt 2.693516 16.43196
vt 2.971069 16.84584
vt 2.459933 16.06636
vt 2.212116 15.60977
vt 2.215298 15.60623
vt 2.45706 16.07049
vt 2.015156 15.19575
vt 1.806279 14.69494
vt 1.809723 14.69205
vt 2.011972 15.19928
vt 1.646048 14.24322
vt 1.479303 13.70613
vt 1.482955 13.70392
vt 1.642603 14.24612
vt 1.35814 13.22391
vt 1.236057 12.65896
vt 1.239859 12.65747
vt 1.354488 13.22612
vt 1.155678 12.15397
vt 1.080099 11.56998
vt 1.083992 11.56923
vt 1.151876 12.15546
vt 1.017596 10.45636
vt 1.037719 11.05107
vt 1.013673 10.45636
vt 1.041612 11.05032
vt 1.041612 9.336481
vt 1.013673 9.930437
vt 1.037719 9.335729
vt 1.017596 9.930437
vt 1.135661 8.390694
vt 1.080099 8.811405
vt 1.131813 8.389572
vt 1.083992 8.812157
vt 1.155678 8.227413
vt 1.151876 8.225921
vt 1.35814 7.146979
vt 1.236057 7.711929
vt 1.354488 7.144768
vt 1.239859 7.713423
vt 1.646048 6.112754
vt 1.479303 6.649846
vt 1.642603 6.109858
vt 1.482955 6.652059
vt 2.015156 5.141811
vt 1.806279 5.642615
vt 2.011972 5.138275
vt 1.809723 5.645513
vt 2.459933 4.250432
vt 2.212116 4.707028
vt 2.45706 4.24631
vt 2.215298 4.710568
vt 2.973585 3.453792
vt 2.690646 3.858903
vt 2.971069 3.449147
vt 2.693516 3.863029
vt 3.548106 2.76563
vt 3.234442 3.112744
vt 3.545988 2.760535
vt 3.236953 3.117394
vt 4.174363 2.197915
vt 3.834889 2.481405
vt 4.172678 2.192449
vt 3.837001 2.486505
vt 4.842224 1.760517
vt 4.482299 1.975753
vt 4.840999 1.754768
vt 4.483979 1.981223
vt 5.540725 1.460929
vt 5.166071 1.60437
vt 5.53998 1.454986
vt 5.167289 1.610124
vt 6.258284 1.30403
vt 5.874885 1.373305
vt 6.258031 1.29799
vt 5.875622 1.37925
vt 6.983195 1.285907
vt 6.597196 1.291948
vt 6.596951 1.285907
vt 6.982951 1.291948
vt 7.703413 1.418065
vt 7.320014 1.348789
vt 7.320267 1.342749
vt 7.702676 1.42401
vt 8.406803 1.691042
vt 8.032149 1.547601
vt 8.032894 1.541658
vt 8.405585 1.696796
vt 9.081927 2.098831
vt 8.722002 1.883595
vt 8.723227 1.877846
vt 9.080248 2.104301
vt 9.718026 2.633084
vt 9.378551 2.349594
vt 9.380237 2.344128
vt 9.715914 2.638184
vt 10.30523 3.283429
vt 9.991562 2.936315
vt 9.99368 2.93122
vt 10.30271 3.288079
vt 10.83469 4.037828
vt 10.55175 3.632717
vt 10.55426 3.628072
vt 10.83182 4.041955
vt 11.29869 4.882943
vt 11.05088 4.426347
vt 11.05375 4.422224
vt 11.29551 4.886482
vt 11.69074 5.804492
vt 11.48186 5.303688
vt 11.48505 5.300152
vt 11.68729 5.80739
vt 12.0055 6.787569
vt 11.83876 6.250477
vt 11.8422 6.247581
vt 12.00185 6.789782
vt 12.23888 7.816914
vt 12.11679 7.251964
vt 12.12044 7.249753
vt 12.23507 7.818408
vt 12.33618 8.455289
vt 12.31232 8.293131
vt 12.31612 8.291638
vt 12.33233 8.456412
vt 12.3879 8.877122
vt 12.384 8.877875
vt 12.45075 9.952806
vt 12.42281 9.35885
vt 12.4267 9.358098
vt 12.44682 9.952806
vt 12.4267 11.0287
vt 12.44682 10.43399
vt 12.45075 10.43399
vt 12.42281 11.02795
vt 12.3879 11.50426
vt 12.31232 12.08825
vt 12.384 11.50351
vt 12.31612 12.08975
vt 12.23888 12.55398
vt 12.11679 13.11893
vt 12.23507 12.55248
vt 12.12044 13.12114
vt 12.0055 13.5684
vt 11.83876 14.1055
vt 12.00185 13.56619
vt 11.8422 14.10839
vt 11.69074 14.53307
vt 11.48186 15.03387
vt 11.68729 14.53017
vt 11.48505 15.03741
vt 11.29869 15.43385
vt 11.05088 15.89045
vt 11.29551 15.43031
vt 11.05375 15.89457
vt 10.83469 16.25716
vt 10.55175 16.66227
vt 10.83182 16.25303
vt 10.55426 16.66691
vt 10.30523 16.99007
vt 9.991562 17.33718
vt 10.30271 16.98542
vt 9.99368 17.34227
vt 9.718026 17.6206
vt 9.378551 17.90409
vt 9.715914 17.6155
vt 9.380237 17.90955
vt 11.09725 23.99206
vt 10.74048 24.22135
vt 11.0955 23.98664
vt 10.74181 24.22704
vt 9.800447 24.86509
vt 9.427039 25.01892
vt 9.79918 24.85937
vt 9.427869 25.02483
vt 8.419465 25.50881
vt 8.036026 25.5836
vt 8.418709 25.50287
vt 8.036331 25.58963
vt 6.983423 25.89464
vt 6.596951 25.8886
vt 6.983195 25.8886
vt 6.596724 25.89464
vt 5.525858 25.99598
vt 5.142419 25.92119
vt 5.143175 25.91525
vt 5.525553 26.00201
vt 4.081625 25.81463
vt 3.708217 25.66081
vt 3.709485 25.65508
vt 4.080795 25.82054
vt 2.684491 25.34502
vt 2.327722 25.11572
vt 2.329474 25.1103
vt 2.683158 25.35071
vt 1.365161 24.59766
vt 1.031038 24.29797
vt 1.033236 24.29296
vt 1.363354 24.60303
vt 0.1493962 23.59121
vt -0.1568122 23.2274
vt -0.1542127 23.22287
vt 0.1471545 23.59617
vt -0.942731 22.34992
vt -1.216563 21.92915
vt -1.213612 21.92516
vt -0.9453627 22.35441
vt -1.896755 20.90127
vt -2.134549 20.43124
vt -2.1313 20.42785
vt -1.899728 20.90522
vt -2.703108 19.27396
vt -2.901958 18.76268
vt -2.898465 18.75993
vt -2.70637 19.27732
vt -3.356074 17.49661
vt -3.51375 16.95224
vt -3.510068 16.95015
vt -3.359574 17.49934
vt -3.85266 15.59715
vt -3.967526 15.02785
vt -3.96371 15.02645
vt -3.856345 15.59922
vt -4.191555 13.60275
vt -4.262489 13.01663
vt -4.258593 13.01593
vt -4.195372 13.60414
vt -4.394712 10.94529
vt -4.376196 11.54085
vt -4.398635 10.94529
vt -4.3723 11.54015
vt -4.3723 8.841445
vt -4.398635 9.436305
vt -4.376196 8.840744
vt -4.394712 9.436305
vt -4.210293 6.896276
vt -4.262489 7.318369
vt -4.21415 6.895227
vt -4.258593 7.319072
vt -4.191555 6.732252
vt -4.195372 6.730857
vt -3.85266 4.647277
vt -3.967526 5.216581
vt -3.856345 4.645204
vt -3.96371 5.217981
vt -3.356074 2.618419
vt -3.51375 3.162789
vt -3.359574 2.615688
vt -3.510068 3.164875
vt -2.703108 0.680312
vt -2.901958 1.191586
vt -2.70637 0.6769537
vt -2.898465 1.194339
vt -1.896755 -1.129644
vt -2.134549 -0.6596111
vt -1.899728 -1.133591
vt -2.1313 -0.6562217
vt -0.942731 -2.771788
vt -1.216563 -2.351015
vt -0.9453627 -2.776275
vt -1.213612 -2.347029
vt 0.1493962 -4.205405
vt -0.1568122 -3.841599
vt 0.1471545 -4.210371
vt -0.1542127 -3.837068
vt 1.365161 -5.39073
vt 1.031038 -5.091038
vt 1.363354 -5.396101
vt 1.033236 -5.086026
vt 2.684491 -6.291725
vt 2.327722 -6.062427
vt 2.683158 -6.297415
vt 2.329474 -6.057013
vt 4.081625 -6.879381
vt 3.708217 -6.725557
vt 4.080795 -6.885296
vt 3.709485 -6.719831
vt 5.525858 -7.135037
vt 5.142419 -7.060248
vt 5.525553 -7.141069
vt 5.143175 -7.054311
vt 6.983423 -7.059061
vt 6.596951 -7.05302
vt 6.596724 -7.059061
vt 6.983195 -7.05302
vt 8.419465 -6.647868
vt 8.036026 -6.722657
vt 8.036331 -6.72869
vt 8.418709 -6.641931
vt 9.800447 -5.929844
vt 9.427039 -6.083668
vt 9.427869 -6.089582
vt 9.79918 -5.924117
vt 11.09725 -4.938764
vt 10.74048 -5.168062
vt 10.74181 -5.173753
vt 11.0955 -4.93335
vt 12.28654 -3.716186
vt 11.95242 -4.015878
vt 11.95423 -4.021249
vt 12.28435 -3.711174
vt 13.35152 -2.307246
vt 13.04531 -2.671052
vt 13.04755 -2.676018
vt 13.34892 -2.302715
vt 14.28165 -0.756702
vt 14.00781 -1.177475
vt 14.01045 -1.181962
vt 14.2787 -0.7527156
vt 15.07177 0.8942021
vt 14.83398 0.4241696
vt 14.83695 0.4202223
vt 15.06852 0.8975914
vt 15.72076 2.60977
vt 15.52191 2.098495
vt 15.52518 2.095137
vt 15.71727 2.612522
vt 16.23011 4.360803
vt 16.07243 3.816434
vt 16.07593 3.813703
vt 16.22643 4.36289
vt 16.6026 6.124644
vt 16.48774 5.55534
vt 16.49142 5.553266
vt 16.59879 6.126044
vt 16.79295 7.461406
vt 16.77036 7.29843
vt 16.77417 7.297036
vt 16.78909 7.462454
vt 16.84129 7.884547
vt 16.83739 7.88525
vt 16.94868 9.628627
vt 16.92234 9.033768
vt 16.92624 9.033067
vt 16.94476 9.628627
vt 16.92624 11.34853
vt 16.94476 10.75297
vt 16.94868 10.75297
vt 16.92234 11.34783
vt 16.84129 12.45045
vt 16.77036 13.03657
vt 16.83739 12.44975
vt 16.77417 13.03796
vt 16.6026 14.11978
vt 16.48774 14.68909
vt 16.59879 14.11838
vt 16.49142 14.69116
vt 16.23011 15.75423
vt 16.07243 16.2986
vt 16.22643 15.75214
vt 16.07593 16.30133
vt 15.72076 17.3445
vt 15.52191 17.85578
vt 15.71727 17.34175
vt 15.52518 17.85913
vt 15.07177 18.87742
vt 14.83398 19.34746
vt 15.06852 18.87404
vt 14.83695 19.3514
vt 14.28165 20.33483
vt 14.00781 20.75561
vt 14.2787 20.33085
vt 14.01045 20.76009
vt 13.35152 21.69305
vt 13.04531 22.05685
vt 13.34892 21.68851
vt 13.04755 22.06182
vt 12.28654 22.92312
vt 11.95242 23.22281
vt 12.28435 22.91811
vt 11.95423 23.22818
vt 13.36792 27.24754
vt 13.01999 27.50866
vt 13.366 27.24227
vt 13.02156 27.5142
vt 11.44652 28.87594
vt 11.07721 29.05397
vt 11.44513 28.87028
vt 11.07823 29.05981
vt 9.295548 30.19608
vt 8.912851 30.28397
vt 9.294739 30.19016
vt 8.913274 30.28998
vt 6.983618 31.09765
vt 6.596724 31.09161
vt 6.983423 31.09161
vt 6.596528 31.09765
vt 4.604927 31.49526
vt 4.22223 31.40736
vt 4.223039 31.40144
vt 4.604504 31.50127
vt 2.262228 31.36947
vt 1.892925 31.19144
vt 1.894317 31.18579
vt 2.261209 31.37531
vt 0.04877995 30.73211
vt -0.2991482 30.47099
vt -0.2972248 30.46572
vt 0.04720629 30.73765
vt -1.9654 29.63789
vt -2.285636 29.3029
vt -2.283245 29.2981
vt -1.96747 29.64302
vt -3.738663 28.15947
vt -4.026633 27.76082
vt -4.023844 27.75657
vt -3.741163 28.16413
vt -5.254709 26.37055
vt -5.507384 25.91851
vt -5.504267 25.91484
vt -5.257574 26.37468
vt -6.515432 24.33549
vt -6.730993 23.83981
vt -6.727612 23.83675
vt -6.518598 24.33906
vt -7.53322 22.10547
vt -7.710702 21.57508
vt -7.707117 21.57263
vt -7.536629 22.10846
vt -8.324707 19.71898
vt -8.463691 19.16192
vt -8.459954 19.16009
vt -8.328307 19.72138
vt -8.906483 17.20448
vt -9.00685 16.62801
vt -9.003009 16.6268
vt -8.910226 17.20628
vt -9.292485 14.58364
vt -9.354251 13.9944
vt -9.35035 13.99379
vt -9.296328 14.58484
vt -9.49258 11.87446
vt -9.515779 11.27863
vt -9.511858 11.27863
vt -9.496481 11.87506
vt -9.49258 8.498128
vt -9.515779 9.093953
vt -9.496481 8.497526
vt -9.511858 9.093953
vt -9.308674 5.835792
vt -9.354251 6.260011
vt -9.312546 5.834888
vt -9.35035 6.260617
vt -9.292485 5.670768
vt -9.296328 5.669566
vt -8.906483 2.819018
vt -9.00685 3.395483
vt -8.910226 2.817218
vt -9.003009 3.396699
vt -8.324707 -0.02825646
vt -8.463691 0.5288028
vt -8.328307 -0.03065173
vt -8.459954 0.5306331
vt -7.53322 -2.833104
vt -7.710702 -2.30271
vt -7.536629 -2.83609
vt -7.707117 -2.300263
vt -6.515432 -5.545515
vt -6.730993 -5.049835
vt -6.518598 -5.549081
vt -6.727612 -5.046773
vt -5.254709 -8.100475
vt -5.507384 -7.648437
vt -5.257574 -8.104604
vt -5.504267 -7.644769
vt -3.738663 -10.41597
vt -4.026633 -10.01732
vt -3.741163 -10.42063
vt -4.023844 -10.01307
vt -1.9654 -12.39366
vt -2.285636 -12.05867
vt -1.96747 -12.3988
vt -2.283245 -12.05388
vt 0.04877995 -13.92473
vt -0.2991482 -13.66361
vt 0.04720629 -13.93027
vt -0.2972248 -13.65834
vt 2.262228 -14.90314
vt 1.892925 -14.7251
vt 2.261209 -14.90898
vt 1.894317 -14.71945
vt 4.604927 -15.24615
vt 4.22223 -15.15826
vt 4.604504 -15.25216
vt 4.223039 -15.15234
vt 6.983618 -14.92317
vt 6.596724 -14.91713
vt 6.596528 -14.92317
vt 6.983423 -14.91713
vt 9.295548 -13.94697
vt 8.912851 -14.03487
vt 8.913274 -14.04088
vt 9.294739 -13.94105
vt 11.44652 -12.4096
vt 11.07721 -12.58763
vt 11.07823 -12.59347
vt 11.44513 -12.40394
vt 13.36792 -10.44016
vt 13.01999 -10.70128
vt 13.02156 -10.70682
vt 13.366 -10.43489
vt 15.02334 -8.18355
vt 14.7031 -8.518541
vt 14.70517 -8.523678
vt 15.02094 -8.178756
vt 16.40592 -5.77518
vt 16.11794 -6.173833
vt 16.12044 -6.178492
vt 16.40313 -5.770929
vt 17.52987 -3.325096
vt 17.2772 -3.777134
vt 17.28006 -3.781263
vt 17.52676 -3.321428
vt 18.42083 -0.9124131
vt 18.20527 -1.408093
vt 18.20843 -1.411659
vt 18.41745 -0.9093506
vt 19.10794 1.413054
vt 18.93046 0.8826596
vt 18.93387 0.8796737
vt 19.10436 1.415501
vt 19.61878 3.625766
vt 19.4798 3.068707
vt 19.4834 3.066311
vt 19.61504 3.627596
vt 19.97655 5.718736
vt 19.87618 5.14227
vt 19.87993 5.14047
vt 19.97271 5.719952
vt 20.15719 7.273332
vt 20.13713 7.109212
vt 20.14097 7.10801
vt 20.15332 7.274236
vt 20.19889 7.698455
vt 20.19499 7.699061
vt 20.29751 9.58085
vt 20.27431 8.985026
vt 20.27822 8.984424
vt 20.29359 9.58085
vt 20.27822 11.38816
vt 20.29359 10.79173
vt 20.29751 10.79173
vt 20.27431 11.38756
vt 20.19889 12.55595
vt 20.13713 13.1452
vt 20.19499 12.55535
vt 20.14097 13.1464
vt 19.97655 14.30476
vt 19.87618 14.88122
vt 19.97271 14.30354
vt 19.87993 14.88302
vt 19.61878 16.06496
vt 19.4798 16.62202
vt 19.61504 16.06313
vt 19.4834 16.62441
vt 19.10794 17.85932
vt 18.93046 18.38971
vt 19.10436 17.85687
vt 18.93387 18.3927
vt 18.42083 19.70239
vt 18.20527 20.19807
vt 18.41745 19.69933
vt 18.20843 20.20164
vt 17.52987 21.59517
vt 17.2772 22.04721
vt 17.52676 21.5915
vt 17.28006 22.05134
vt 16.40592 23.51868
vt 16.11794 23.91733
vt 16.40313 23.51443
vt 16.12044 23.92199
vt 15.02334 25.42778
vt 14.7031 25.76277
vt 15.02094 25.42298
vt 14.70517 25.7679
vn 0 0 1
vn 0.11206930032831766 0.23815940069771036 0.9647386028262934
vn 0.04025656840760306 0.12389699509910525 0.9914781607808899
vn 0.05546754811608656 0.11787449599648143 0.9914781663251919
vn 0.08133631126701085 0.25032740389945785 0.9647386150281503
vn 0.024410729096746613 0.12796549526498077 0.9914781633130169
vn 0.049320601248302454 0.2585476065438294 0.9647386244174962
vn 0.008179909729017354 0.1300158956928555 0.9914781671544813
vn 0.016527080355700403 0.26269040565369545 0.964738620763372
vn -0.008179909729017354 0.1300158956928555 0.9914781671544813
vn -0.016527080355700403 0.26269040565369545 0.964738620763372
vn -0.049320601248302454 0.2585476065438294 0.9647386244174962
vn -0.024410729096746613 0.12796549526498077 0.9914781633130169
vn -0.08133631126701085 0.25032740389945785 0.9647386150281503
vn -0.04025656840760306 0.12389699509910525 0.9914781607808899
vn -0.11206930032831766 0.23815940069771036 0.9647386028262934
vn -0.05546754811608656 0.11787449599648143 0.9914781663251919
vn -0.14103490124384815 0.22223540195999048 0.9647386085084495
vn -0.06980376757679496 0.10999309618164105 0.9914781655813006
vn -0.1677762053168314 0.20280660642694534 0.9647386305725872
vn -0.0830391365932535 0.10037709588194972 0.9914781593238213
vn -0.19187170308806958 0.1801795028998898 0.9647386155269376
vn -0.09496492636888769 0.08917800659015816 0.9914781620894924
vn -0.21294120504414707 0.15471080366478626 0.9647386228527095
vn -0.10539309567802146 0.07657254685989935 0.9914781593412898
vn -0.23065250399357518 0.12680230219548658 0.9647386167037257
vn -0.1141590956603391 0.06275949761425087 0.9914781623098012
vn -0.24472630300063206 0.0968940011880341 0.964738611828829
vn -0.12112479501171548 0.047956688024998674 0.9914781591679378
vn -0.25494060307529953 0.06545762078960249 0.9647386116374566
vn -0.12618019576431158 0.032397578912459465 0.9914781667174982
vn -0.2611343053364397 0.03298894067414902 0.9647386197150255
vn -0.12924579441300613 0.016327539294198386 0.9914781571407146
vn -0.1302729950754047 0 0.9914781625200243
vn -0.2632098045869573 0 0.9647386168125001
vn -0.12924579441300613 -0.016327539294198824 0.9914781571407146
vn -0.2611343053364397 -0.03298894067414945 0.9647386197150255
vn -0.12821419532675943 -0.024458169108531783 0.9914448638631248
vn -0.254234609610396 -0.04849785183328155 0.9659258365132419
vn -0.12618019576431158 -0.03239757891245991 0.9914781667174982
vn -0.25494060307529953 -0.0654576207896029 0.9647386116374566
vn -0.12112479501171548 -0.04795668802499912 0.9914781591679378
vn -0.24472630300063206 -0.09689400118803451 0.964738611828829
vn -0.1141590956603391 -0.06275949761425131 0.9914781623098012
vn -0.23065250399357512 -0.126802302195487 0.9647386167037255
vn -0.10539309567802146 -0.0765725468598998 0.9914781593412898
vn -0.21294120504414707 -0.1547108036647867 0.9647386228527095
vn -0.09496492636888766 -0.08917800659015858 0.9914781620894921
vn -0.19187170308806958 -0.18017950289989024 0.9647386155269376
vn -0.0830391365932535 -0.10037709588195017 0.9914781593238213
vn -0.16777620531683138 -0.20280660642694573 0.964738630572587
vn -0.06980376757679496 -0.10999309618164149 0.9914781655813006
vn -0.14103490124384813 -0.2222354019599909 0.9647386085084494
vn -0.05546754811608656 -0.11787449599648188 0.9914781663251919
vn -0.11206930032831766 -0.2381594006977108 0.9647386028262934
vn -0.04025656840760306 -0.12389699509910569 0.9914781607808899
vn -0.08133631126701087 -0.25032740389945835 0.9647386150281503
vn -0.024410729096746613 -0.12796549526498122 0.9914781633130169
vn -0.04932060124830246 -0.2585476065438299 0.9647386244174962
vn -0.008179909729017354 -0.13001589569285593 0.9914781671544813
vn -0.016527080355700403 -0.2626904056536959 0.9647386207633718
vn 0.016527080355700403 -0.2626904056536959 0.9647386207633718
vn 0.008179909729017354 -0.13001589569285593 0.9914781671544813
vn 0.04932060124830246 -0.2585476065438299 0.9647386244174962
vn 0.024410729096746613 -0.12796549526498122 0.9914781633130169
vn 0.08133631126701087 -0.25032740389945835 0.9647386150281503
vn 0.04025656840760306 -0.12389699509910569 0.9914781607808899
vn 0.11206930032831766 -0.2381594006977108 0.9647386028262934
vn 0.05546754811608656 -0.11787449599648188 0.9914781663251919
vn 0.14103490124384813 -0.2222354019599909 0.9647386085084494
vn 0.06980376757679496 -0.10999309618164149 0.9914781655813006
vn 0.16777620531683138 -0.20280660642694573 0.964738630572587
vn 0.0830391365932535 -0.10037709588195017 0.9914781593238213
vn 0.19187170308806958 -0.18017950289989024 0.9647386155269376
vn 0.09496492636888766 -0.08917800659015858 0.9914781620894921
vn 0.21294120504414707 -0.1547108036647867 0.9647386228527095
vn 0.10539309567802146 -0.0765725468598998 0.9914781593412898
vn 0.23065250399357512 -0.126802302195487 0.9647386167037255
vn 0.1141590956603391 -0.06275949761425131 0.9914781623098012
vn 0.24472630300063206 -0.09689400118803451 0.964738611828829
vn 0.12112479501171548 -0.04795668802499912 0.9914781591679378
vn 0.25494060307529953 -0.0654576207896029 0.9647386116374566
vn 0.12618019576431158 -0.03239757891245991 0.9914781667174982
vn 0.254234609610396 -0.04849785183328155 0.9659258365132419
vn 0.12821419532675943 -0.024458169108531783 0.9914448638631248
vn 0.2611343053364397 -0.03298894067414945 0.9647386197150255
vn 0.12924579441300613 -0.016327539294198824 0.9914781571407146
vn 0.2632098045869573 0 0.9647386168125001
vn 0.1302729950754047 0 0.9914781625200243
vn 0.2611343053364397 0.03298894067414902 0.9647386197150255
vn 0.12924579441300613 0.016327539294198386 0.9914781571407146
vn 0.12618019576431158 0.032397578912459465 0.9914781667174982
vn 0.25494060307529953 0.06545762078960249 0.9647386116374566
vn 0.12112479501171548 0.047956688024998674 0.9914781591679378
vn 0.24472630300063206 0.0968940011880341 0.964738611828829
vn 0.1141590956603391 0.06275949761425087 0.9914781623098012
vn 0.23065250399357518 0.12680230219548658 0.9647386167037257
vn 0.10539309567802146 0.07657254685989935 0.9914781593412898
vn 0.21294120504414707 0.15471080366478626 0.9647386228527095
vn 0.09496492636888769 0.08917800659015816 0.9914781620894924
vn 0.19187170308806958 0.1801795028998898 0.9647386155269376
vn 0.0830391365932535 0.10037709588194972 0.9914781593238213
vn 0.1677762053168314 0.20280660642694534 0.9647386305725872
vn 0.06980376757679496 0.10999309618164105 0.9914781655813006
vn 0.14103490124384815 0.22223540195999048 0.9647386085084495
vn 0.21424350094354447 0.4552906020051338 0.8641818038059217
vn 0.1554911023739029 0.4785523073061202 0.8641818131935763
vn 0.09428647051078277 0.49426700267761703 0.8641818046815751
vn 0.031594919928669946 0.5021867988662412 0.864181798048986
vn -0.031594919928669946 0.5021867988662412 0.864181798048986
vn -0.09428647051078277 0.49426700267761703 0.8641818046815751
vn -0.1554911023739029 0.4785523073061202 0.8641818131935763
vn -0.21424350094354447 0.4552906020051338 0.8641818038059217
vn -0.26961719516323335 0.42484869237847567 0.8641817844971105
vn -0.32073880497782775 0.38770660601715984 0.8641818134119982
vn -0.36680220409789227 0.3444502038481769 0.8641818096545876
vn -0.40708090679202086 0.29576160493469206 0.8641818144186102
vn -0.4409397043381809 0.24240870238493545 0.8641818085022442
vn -0.4678446913530208 0.18523279657641895 0.8641817840276869
vn -0.487371397952141 0.125135699474199 0.8641817963688422
vn -0.4992119959367989 0.06306513948669816 0.8641817929662259
vn -0.5031797015237968 0 0.8641818026170321
vn -0.4992119959367989 -0.06306513948669855 0.8641817929662259
vn -0.4911436076035526 -0.09369066145045553 0.8660254134072186
vn -0.487371397952141 -0.1251356994741994 0.8641817963688422
vn -0.4678446913530208 -0.18523279657641933 0.8641817840276869
vn -0.4409397043381808 -0.24240870238493578 0.864181808502244
vn -0.40708090679202086 -0.2957616049346924 0.86418181441861
vn -0.36680220409789227 -0.3444502038481772 0.8641818096545874
vn -0.32073880497782786 -0.3877066060171603 0.8641818134119982
vn -0.26961719516323335 -0.424848692378476 0.8641817844971103
vn -0.21424350094354447 -0.45529060200513416 0.8641818038059215
vn -0.1554911023739029 -0.47855230730612053 0.8641818131935761
vn -0.09428647051078277 -0.49426700267761736 0.8641818046815749
vn -0.031594919928669946 -0.5021867988662416 0.8641817980489858
vn 0.031594919928669946 -0.5021867988662416 0.8641817980489858
vn 0.09428647051078277 -0.49426700267761736 0.8641818046815749
vn 0.1554911023739029 -0.47855230730612053 0.8641818131935761
vn 0.21424350094354447 -0.45529060200513416 0.8641818038059215
vn 0.26961719516323335 -0.424848692378476 0.8641817844971103
vn 0.32073880497782786 -0.3877066060171603 0.8641818134119982
vn 0.36680220409789227 -0.3444502038481772 0.8641818096545874
vn 0.40708090679202086 -0.2957616049346924 0.86418181441861
vn 0.4409397043381808 -0.24240870238493578 0.864181808502244
vn 0.4678446913530208 -0.18523279657641933 0.8641817840276869
vn 0.487371397952141 -0.1251356994741994 0.8641817963688422
vn 0.4911436076035526 -0.09369066145045553 0.8660254134072186
vn 0.4992119959367989 -0.06306513948669855 0.8641817929662259
vn 0.5031797015237968 0 0.8641818026170321
vn 0.4992119959367989 0.06306513948669816 0.8641817929662259
vn 0.487371397952141 0.125135699474199 0.8641817963688422
vn 0.4678446913530208 0.18523279657641895 0.8641817840276869
vn 0.4409397043381809 0.24240870238493545 0.8641818085022442
vn 0.40708090679202086 0.29576160493469206 0.8641818144186102
vn 0.36680220409789227 0.3444502038481769 0.8641818096545876
vn 0.32073880497782775 0.38770660601715984 0.8641818134119982
vn 0.26961719516323335 0.42484869237847567 0.8641817844971105
vn 0.32025268945982766 0.6805715776009945 0.6589844783114703
vn 0.23242909561980168 0.7153433865191321 0.6589844875812333
vn 0.14094009527493406 0.7388337752303394 0.6589844779073152
vn 0.04722830034126155 0.7506723054241966 0.6589845047616806
vn -0.04722830034126155 0.7506723054241966 0.6589845047616806
vn -0.14094009527493406 0.7388337752303394 0.6589844779073152
vn -0.23242909561980168 0.7153433865191321 0.6589844875812333
vn -0.32025268945982766 0.6805715776009945 0.6589844783114703
vn -0.40302559073890526 0.635066785406848 0.6589844848572453
vn -0.479442590529434 0.5795465885520511 0.6589844869828919
vn -0.5482984925425759 0.514886592997012 0.6589844910371324
vn -0.6085074047350213 0.4421065034401941 0.6589845051278023
vn -0.6591197840987585 0.3623541912582178 0.6589844841020227
vn -0.6993374184693966 0.2768873073125522 0.6589845174036825
vn -0.7285261232016815 0.18705370595717885 0.6589845209869605
vn -0.7462255221688889 0.09427021280058198 0.6589845195771307
vn -0.752156510630792 0 0.6589845093139223
vn -0.7462255221688889 -0.09427021280058229 0.6589845195771307
vn -0.7387049937401917 -0.140915498805878 0.6591340944144779
vn -0.7285261232016815 -0.18705370595717913 0.6589845209869605
vn -0.6993374184693967 -0.27688730731255257 0.6589845174036825
vn -0.6591197840987585 -0.3623541912582181 0.6589844841020225
vn -0.6085074047350213 -0.4421065034401944 0.658984505127802
vn -0.5482984925425759 -0.5148865929970122 0.6589844910371322
vn -0.479442590529434 -0.5795465885520513 0.6589844869828917
vn -0.40302559073890526 -0.6350667854068482 0.658984484857245
vn -0.32025268945982766 -0.6805715776009947 0.6589844783114701
vn -0.23242909561980168 -0.7153433865191323 0.6589844875812331
vn -0.14094009527493406 -0.7388337752303397 0.658984477907315
vn -0.04722830034126155 -0.7506723054241968 0.6589845047616801
vn 0.04722830034126155 -0.7506723054241968 0.6589845047616801
vn 0.14094009527493406 -0.7388337752303397 0.658984477907315
vn 0.23242909561980168 -0.7153433865191323 0.6589844875812331
vn 0.32025268945982766 -0.6805715776009947 0.6589844783114701
vn 0.40302559073890526 -0.6350667854068482 0.658984484857245
vn 0.479442590529434 -0.5795465885520513 0.6589844869828917
vn 0.5482984925425759 -0.5148865929970122 0.6589844910371322
vn 0.6085074047350213 -0.4421065034401944 0.658984505127802
vn 0.6591197840987585 -0.3623541912582181 0.6589844841020225
vn 0.6993374184693967 -0.27688730731255257 0.6589845174036825
vn 0.7285261232016815 -0.18705370595717913 0.6589845209869605
vn 0.7387049937401917 -0.140915498805878 0.6591340944144779
vn 0.7462255221688889 -0.09427021280058229 0.6589845195771307
vn 0.752156510630792 0 0.6589845093139223
vn 0.7462255221688889 0.09427021280058198 0.6589845195771307
vn 0.7285261232016815 0.18705370595717885 0.6589845209869605
vn 0.6993374184693966 0.2768873073125522 0.6589845174036825
vn 0.6591197840987585 0.3623541912582178 0.6589844841020227
vn 0.6085074047350213 0.4421065034401941 0.6589845051278023
vn 0.5482984925425759 0.514886592997012 0.6589844910371324
vn 0.479442590529434 0.5795465885520511 0.6589844869828919
vn 0.40302559073890526 0.635066785406848 0.6589844848572453
vn 0 0 -1
vn -0.08133631126701085 -0.25032740389945785 -0.9647386150281503
vn -0.11206930032831766 -0.23815940069771036 -0.9647386028262934
vn -0.04025656840760306 -0.12389699509910525 -0.9914781607808899
vn -0.05546754811608656 -0.11787449599648143 -0.9914781663251919
vn -0.049320601248302454 -0.2585476065438294 -0.9647386244174962
vn -0.024410729096746613 -0.12796549526498077 -0.9914781633130169
vn -0.016527080355700403 -0.26269040565369545 -0.964738620763372
vn -0.008179909729017354 -0.1300158956928555 -0.9914781671544813
vn 0.016527080355700403 -0.26269040565369545 -0.964738620763372
vn 0.008179909729017354 -0.1300158956928555 -0.9914781671544813
vn 0.049320601248302454 -0.2585476065438294 -0.9647386244174962
vn 0.024410729096746613 -0.12796549526498077 -0.9914781633130169
vn 0.08133631126701085 -0.25032740389945785 -0.9647386150281503
vn 0.04025656840760306 -0.12389699509910525 -0.9914781607808899
vn 0.11206930032831766 -0.23815940069771036 -0.9647386028262934
vn 0.05546754811608656 -0.11787449599648143 -0.9914781663251919
vn 0.14103490124384815 -0.22223540195999048 -0.9647386085084495
vn 0.06980376757679496 -0.10999309618164105 -0.9914781655813006
vn 0.1677762053168314 -0.20280660642694534 -0.9647386305725872
vn 0.0830391365932535 -0.10037709588194972 -0.9914781593238213
vn 0.19187170308806958 -0.1801795028998898 -0.9647386155269376
vn 0.09496492636888769 -0.08917800659015816 -0.9914781620894924
vn 0.21294120504414707 -0.15471080366478626 -0.9647386228527095
vn 0.10539309567802146 -0.07657254685989935 -0.9914781593412898
vn 0.23065250399357518 -0.12680230219548658 -0.9647386167037257
vn 0.1141590956603391 -0.06275949761425087 -0.9914781623098012
vn 0.24472630300063206 -0.0968940011880341 -0.964738611828829
vn 0.12112479501171548 -0.047956688024998674 -0.9914781591679378
vn 0.25494060307529953 -0.06545762078960249 -0.9647386116374566
vn 0.12618019576431158 -0.032397578912459465 -0.9914781667174982
vn 0.2611343053364397 -0.03298894067414902 -0.9647386197150255
vn 0.12924579441300613 -0.016327539294198386 -0.9914781571407146
vn 0.1302729950754047 0 -0.9914781625200243
vn 0.2632098045869573 0 -0.9647386168125001
vn 0.12924579441300613 0.016327539294198824 -0.9914781571407146
vn 0.2611343053364397 0.03298894067414945 -0.9647386197150255
vn 0.12821419532675943 0.024458169108531783 -0.9914448638631248
vn 0.254234609610396 0.04849785183328155 -0.9659258365132419
vn 0.12618019576431158 0.03239757891245991 -0.9914781667174982
vn 0.25494060307529953 0.0654576207896029 -0.9647386116374566
vn 0.12112479501171548 0.04795668802499912 -0.9914781591679378
vn 0.24472630300063206 0.09689400118803451 -0.964738611828829
vn 0.1141590956603391 0.06275949761425131 -0.9914781623098012
vn 0.23065250399357512 0.126802302195487 -0.9647386167037255
vn 0.10539309567802146 0.0765725468598998 -0.9914781593412898
vn 0.21294120504414707 0.1547108036647867 -0.9647386228527095
vn 0.09496492636888766 0.08917800659015858 -0.9914781620894921
vn 0.19187170308806958 0.18017950289989024 -0.9647386155269376
vn 0.0830391365932535 0.10037709588195017 -0.9914781593238213
vn 0.16777620531683138 0.20280660642694573 -0.964738630572587
vn 0.06980376757679496 0.10999309618164149 -0.9914781655813006
vn 0.14103490124384813 0.2222354019599909 -0.9647386085084494
vn 0.05546754811608656 0.11787449599648188 -0.9914781663251919
vn 0.11206930032831766 0.2381594006977108 -0.9647386028262934
vn 0.04025656840760306 0.12389699509910569 -0.9914781607808899
vn 0.08133631126701087 0.25032740389945835 -0.9647386150281503
vn 0.024410729096746613 0.12796549526498122 -0.9914781633130169
vn 0.04932060124830246 0.2585476065438299 -0.9647386244174962
vn 0.008179909729017354 0.13001589569285593 -0.9914781671544813
vn 0.016527080355700403 0.2626904056536959 -0.9647386207633718
vn -0.008179909729017354 0.13001589569285593 -0.9914781671544813
vn -0.016527080355700403 0.2626904056536959 -0.9647386207633718
vn -0.024410729096746613 0.12796549526498122 -0.9914781633130169
vn -0.04932060124830246 0.2585476065438299 -0.9647386244174962
vn -0.04025656840760306 0.12389699509910569 -0.9914781607808899
vn -0.08133631126701087 0.25032740389945835 -0.9647386150281503
vn -0.05546754811608656 0.11787449599648188 -0.9914781663251919
vn -0.11206930032831766 0.2381594006977108 -0.9647386028262934
vn -0.06980376757679496 0.10999309618164149 -0.9914781655813006
vn -0.14103490124384813 0.2222354019599909 -0.9647386085084494
vn -0.0830391365932535 0.10037709588195017 -0.9914781593238213
vn -0.16777620531683138 0.20280660642694573 -0.964738630572587
vn -0.09496492636888766 0.08917800659015858 -0.9914781620894921
vn -0.19187170308806958 0.18017950289989024 -0.9647386155269376
vn -0.10539309567802146 0.0765725468598998 -0.9914781593412898
vn -0.21294120504414707 0.1547108036647867 -0.9647386228527095
vn -0.1141590956603391 0.06275949761425131 -0.9914781623098012
vn -0.23065250399357512 0.126802302195487 -0.9647386167037255
vn -0.12112479501171548 0.04795668802499912 -0.9914781591679378
vn -0.24472630300063206 0.09689400118803451 -0.964738611828829
vn -0.12618019576431158 0.03239757891245991 -0.9914781667174982
vn -0.25494060307529953 0.0654576207896029 -0.9647386116374566
vn -0.12821419532675943 0.024458169108531783 -0.9914448638631248
vn -0.254234609610396 0.04849785183328155 -0.9659258365132419
vn -0.12924579441300613 0.016327539294198824 -0.9914781571407146
vn -0.2611343053364397 0.03298894067414945 -0.9647386197150255
vn -0.1302729950754047 0 -0.9914781625200243
vn -0.2632098045869573 0 -0.9647386168125001
vn -0.12924579441300613 -0.016327539294198386 -0.9914781571407146
vn -0.2611343053364397 -0.03298894067414902 -0.9647386197150255
vn -0.25494060307529953 -0.06545762078960249 -0.9647386116374566
vn -0.12618019576431158 -0.032397578912459465 -0.9914781667174982
vn -0.24472630300063206 -0.0968940011880341 -0.964738611828829
vn -0.12112479501171548 -0.047956688024998674 -0.9914781591679378
vn -0.23065250399357518 -0.12680230219548658 -0.9647386167037257
vn -0.1141590956603391 -0.06275949761425087 -0.9914781623098012
vn -0.21294120504414707 -0.15471080366478626 -0.9647386228527095
vn -0.10539309567802146 -0.07657254685989935 -0.9914781593412898
vn -0.19187170308806958 -0.1801795028998898 -0.9647386155269376
vn -0.09496492636888769 -0.08917800659015816 -0.9914781620894924
vn -0.1677762053168314 -0.20280660642694534 -0.9647386305725872
vn -0.0830391365932535 -0.10037709588194972 -0.9914781593238213
vn -0.14103490124384815 -0.22223540195999048 -0.9647386085084495
vn -0.06980376757679496 -0.10999309618164105 -0.9914781655813006
vn -0.1554911023739029 -0.4785523073061202 -0.8641818131935763
vn -0.21424350094354447 -0.4552906020051338 -0.8641818038059217
vn -0.09428647051078277 -0.49426700267761703 -0.8641818046815751
vn -0.031594919928669946 -0.5021867988662412 -0.864181798048986
vn 0.031594919928669946 -0.5021867988662412 -0.864181798048986
vn 0.09428647051078277 -0.49426700267761703 -0.8641818046815751
vn 0.1554911023739029 -0.4785523073061202 -0.8641818131935763
vn 0.21424350094354447 -0.4552906020051338 -0.8641818038059217
vn 0.26961719516323335 -0.42484869237847567 -0.8641817844971105
vn 0.32073880497782775 -0.38770660601715984 -0.8641818134119982
vn 0.36680220409789227 -0.3444502038481769 -0.8641818096545876
vn 0.40708090679202086 -0.29576160493469206 -0.8641818144186102
vn 0.4409397043381809 -0.24240870238493545 -0.8641818085022442
vn 0.4678446913530208 -0.18523279657641895 -0.8641817840276869
vn 0.487371397952141 -0.125135699474199 -0.8641817963688422
vn 0.4992119959367989 -0.06306513948669816 -0.8641817929662259
vn 0.5031797015237968 0 -0.8641818026170321
vn 0.4992119959367989 0.06306513948669855 -0.8641817929662259
vn 0.4911436076035526 0.09369066145045553 -0.8660254134072186
vn 0.487371397952141 0.1251356994741994 -0.8641817963688422
vn 0.4678446913530208 0.18523279657641933 -0.8641817840276869
vn 0.4409397043381808 0.24240870238493578 -0.864181808502244
vn 0.40708090679202086 0.2957616049346924 -0.86418181441861
vn 0.36680220409789227 0.3444502038481772 -0.8641818096545874
vn 0.32073880497782786 0.3877066060171603 -0.8641818134119982
vn 0.26961719516323335 0.424848692378476 -0.8641817844971103
vn 0.21424350094354447 0.45529060200513416 -0.8641818038059215
vn 0.1554911023739029 0.47855230730612053 -0.8641818131935761
vn 0.09428647051078277 0.49426700267761736 -0.8641818046815749
vn 0.031594919928669946 0.5021867988662416 -0.8641817980489858
vn -0.031594919928669946 0.5021867988662416 -0.8641817980489858
vn -0.09428647051078277 0.49426700267761736 -0.8641818046815749
vn -0.1554911023739029 0.47855230730612053 -0.8641818131935761
vn -0.21424350094354447 0.45529060200513416 -0.8641818038059215
vn -0.26961719516323335 0.424848692378476 -0.8641817844971103
vn -0.32073880497782786 0.3877066060171603 -0.8641818134119982
vn -0.36680220409789227 0.3444502038481772 -0.8641818096545874
vn -0.40708090679202086 0.2957616049346924 -0.86418181441861
vn -0.4409397043381808 0.24240870238493578 -0.864181808502244
vn -0.4678446913530208 0.18523279657641933 -0.8641817840276869
vn -0.487371397952141 0.1251356994741994 -0.8641817963688422
vn -0.4911436076035526 0.09369066145045553 -0.8660254134072186
vn -0.4992119959367989 0.06306513948669855 -0.8641817929662259
vn -0.5031797015237968 0 -0.8641818026170321
vn -0.4992119959367989 -0.06306513948669816 -0.8641817929662259
vn -0.487371397952141 -0.125135699474199 -0.8641817963688422
vn -0.4678446913530208 -0.18523279657641895 -0.8641817840276869
vn -0.4409397043381809 -0.24240870238493545 -0.8641818085022442
vn -0.40708090679202086 -0.29576160493469206 -0.8641818144186102
vn -0.36680220409789227 -0.3444502038481769 -0.8641818096545876
vn -0.32073880497782775 -0.38770660601715984 -0.8641818134119982
vn -0.26961719516323335 -0.42484869237847567 -0.8641817844971105
vn -0.23242909561980168 -0.7153433865191321 -0.6589844875812333
vn -0.32025268945982766 -0.6805715776009945 -0.6589844783114703
vn -0.14094009527493406 -0.7388337752303394 -0.6589844779073152
vn -0.04722830034126155 -0.7506723054241966 -0.6589845047616806
vn 0.04722830034126155 -0.7506723054241966 -0.6589845047616806
vn 0.14094009527493406 -0.7388337752303394 -0.6589844779073152
vn 0.23242909561980168 -0.7153433865191321 -0.6589844875812333
vn 0.32025268945982766 -0.6805715776009945 -0.6589844783114703
vn 0.40302559073890526 -0.635066785406848 -0.6589844848572453
vn 0.479442590529434 -0.5795465885520511 -0.6589844869828919
vn 0.5482984925425759 -0.514886592997012 -0.6589844910371324
vn 0.6085074047350213 -0.4421065034401941 -0.6589845051278023
vn 0.6591197840987585 -0.3623541912582178 -0.6589844841020227
vn 0.6993374184693966 -0.2768873073125522 -0.6589845174036825
vn 0.7285261232016815 -0.18705370595717885 -0.6589845209869605
vn 0.7462255221688889 -0.09427021280058198 -0.6589845195771307
vn 0.752156510630792 0 -0.6589845093139223
vn 0.7462255221688889 0.09427021280058229 -0.6589845195771307
vn 0.7387049937401917 0.140915498805878 -0.6591340944144779
vn 0.7285261232016815 0.18705370595717913 -0.6589845209869605
vn 0.6993374184693967 0.27688730731255257 -0.6589845174036825
vn 0.6591197840987585 0.3623541912582181 -0.6589844841020225
vn 0.6085074047350213 0.4421065034401944 -0.658984505127802
vn 0.5482984925425759 0.5148865929970122 -0.6589844910371322
vn 0.479442590529434 0.5795465885520513 -0.6589844869828917
vn 0.40302559073890526 0.6350667854068482 -0.658984484857245
vn 0.32025268945982766 0.6805715776009947 -0.6589844783114701
vn 0.23242909561980168 0.7153433865191323 -0.6589844875812331
vn 0.14094009527493406 0.7388337752303397 -0.658984477907315
vn 0.04722830034126155 0.7506723054241968 -0.6589845047616801
vn -0.04722830034126155 0.7506723054241968 -0.6589845047616801
vn -0.14094009527493406 0.7388337752303397 -0.658984477907315
vn -0.23242909561980168 0.7153433865191323 -0.6589844875812331
vn -0.32025268945982766 0.6805715776009947 -0.6589844783114701
vn -0.40302559073890526 0.6350667854068482 -0.658984484857245
vn -0.479442590529434 0.5795465885520513 -0.6589844869828917
vn -0.5482984925425759 0.5148865929970122 -0.6589844910371322
vn -0.6085074047350213 0.4421065034401944 -0.658984505127802
vn -0.6591197840987585 0.3623541912582181 -0.6589844841020225
vn -0.6993374184693967 0.27688730731255257 -0.6589845174036825
vn -0.7285261232016815 0.18705370595717913 -0.6589845209869605
vn -0.7387049937401917 0.140915498805878 -0.6591340944144779
vn -0.7462255221688889 0.09427021280058229 -0.6589845195771307
vn -0.752156510630792 0 -0.6589845093139223
vn -0.7462255221688889 -0.09427021280058198 -0.6589845195771307
vn -0.7285261232016815 -0.18705370595717885 -0.6589845209869605
vn -0.6993374184693966 -0.2768873073125522 -0.6589845174036825
vn -0.6591197840987585 -0.3623541912582178 -0.6589844841020227
vn -0.6085074047350213 -0.4421065034401941 -0.6589845051278023
vn -0.5482984925425759 -0.514886592997012 -0.6589844910371324
vn -0.479442590529434 -0.5795465885520511 -0.6589844869828919
vn -0.40302559073890526 -0.635066785406848 -0.6589844848572453
usemtl material_0_0
f 1/1/1 2/2/1 3/3/1
f 2/2/1 1/1/1 4/4/1
f 2/2/1 4/4/1 5/5/1
f 5/5/1 4/4/1 6/6/1
f 6/6/1 4/4/1 7/7/1
f 6/6/1 7/7/1 8/8/1
f 8/8/1 7/7/1 9/9/1
f 8/8/1 9/9/1 10/10/1
f 10/10/1 9/9/1 11/11/1
f 10/10/1 11/11/1 12/12/1
f 12/12/1 11/11/1 13/13/1
f 12/12/1 13/13/1 14/14/1
f 14/14/1 13/13/1 15/15/1
f 14/14/1 15/15/1 16/16/1
f 16/16/1 15/15/1 17/17/1
f 16/16/1 17/17/1 18/18/1
f 18/18/1 17/17/1 19/19/1
f 18/18/1 19/19/1 20/20/1
f 20/20/1 19/19/1 21/21/1
f 20/20/1 21/21/1 22/22/1
f 22/22/1 21/21/1 23/23/1
f 22/22/1 23/23/1 24/24/1
f 24/24/1 23/23/1 25/25/1
f 24/24/1 25/25/1 26/26/1
f 26/26/1 25/25/1 27/27/1
f 26/26/1 27/27/1 28/28/1
f 28/28/1 27/27/1 29/29/1
f 29/29/1 27/27/1 30/30/1
f 29/29/1 30/30/1 31/31/1
f 31/31/1 30/30/1 32/32/1
f 31/31/1 32/32/1 33/33/1
f 33/33/1 32/32/1 34/34/1
f 33/33/1 34/34/1 35/35/1
f 35/35/1 34/34/1 36/36/1
f 35/35/1 36/36/1 37/37/1
f 37/37/1 36/36/1 38/38/1
f 37/37/1 38/38/1 39/39/1
f 39/39/1 38/38/1 40/40/1
f 39/39/1 40/40/1 41/41/1
f 41/41/1 40/40/1 42/42/1
f 41/41/1 42/42/1 43/43/1
f 43/43/1 42/42/1 44/44/1
f 43/43/1 44/44/1 45/45/1
f 45/45/1 44/44/1 46/46/1
f 45/45/1 46/46/1 47/47/1
f 47/47/1 46/46/1 48/48/1
f 47/47/1 48/48/1 49/49/1
f 49/49/1 48/48/1 50/50/1
f 49/49/1 50/50/1 51/51/1
f 51/51/1 50/50/1 52/52/1
f 53/53/1 54/54/1 55/55/1
f 54/54/1 53/53/1 1/1/1
f 54/54/1 1/1/1 3/3/1
f 54/54/1 3/3/1 56/56/1
f 56/56/1 3/3/1 57/57/1
f 56/56/1 57/57/1 58/58/1
f 56/56/1 58/58/1 59/59/1
f 59/59/1 58/58/1 60/60/1
f 59/59/1 60/60/1 61/61/1
f 61/61/1 60/60/1 62/62/1
f 61/61/1 62/62/1 63/63/1
f 63/63/1 62/62/1 64/64/1
f 63/63/1 64/64/1 65/65/1
f 65/65/1 64/64/1 66/66/1
f 65/65/1 66/66/1 67/67/1
f 67/67/1 66/66/1 68/68/1
f 67/67/1 68/68/1 69/69/1
f 69/69/1 68/68/1 70/70/1
f 69/69/1 70/70/1 71/71/1
f 71/71/1 70/70/1 72/72/1
f 71/71/1 72/72/1 73/73/1
f 73/73/1 72/72/1 74/74/1
f 73/73/1 74/74/1 75/75/1
f 75/75/1 74/74/1 76/76/1
f 75/75/1 76/76/1 77/77/1
f 77/77/1 76/76/1 78/78/1
f 77/77/1 78/78/1 79/79/1
f 79/79/1 78/78/1 80/80/1
f 79/79/1 80/80/1 81/81/1
f 79/79/1 81/81/1 82/82/1
f 82/82/1 81/81/1 83/83/1
f 82/82/1 83/83/1 84/84/1
f 84/84/1 83/83/1 85/85/1
f 84/84/1 85/85/1 86/86/1
f 86/86/1 85/85/1 87/87/1
f 86/86/1 87/87/1 88/88/1
f 88/88/1 87/87/1 89/89/1
f 88/88/1 89/89/1 90/90/1
f 90/90/1 89/89/1 91/91/1
f 90/90/1 91/91/1 92/92/1
f 92/92/1 91/91/1 93/93/1
f 92/92/1 93/93/1 94/94/1
f 94/94/1 93/93/1 95/95/1
f 94/94/1 95/95/1 96/96/1
f 96/96/1 95/95/1 97/97/1
f 96/96/1 97/97/1 98/98/1
f 98/98/1 97/97/1 99/99/1
f 98/98/1 99/99/1 100/100/1
f 100/100/1 99/99/1 101/101/1
f 100/100/1 101/101/1 102/102/1
f 102/102/1 101/101/1 52/52/1
f 102/102/1 52/52/1 50/50/1
f 102/102/1 50/50/1 103/103/1
f 102/102/1 103/103/1 104/104/1
f 209/105/2 210/106/3 211/107/4
f 210/106/3 209/105/2 212/108/5
f 212/109/5 217/110/6 210/111/3
f 217/110/6 212/109/5 218/112/7
f 218/113/7 221/114/8 217/115/6
f 221/114/8 218/113/7 222/116/9
f 222/117/9 225/118/10 221/119/8
f 225/118/10 222/117/9 226/120/11
f 225/121/10 229/122/12 230/123/13
f 229/122/12 225/121/10 226/124/11
f 230/125/13 233/126/14 234/127/15
f 233/126/14 230/125/13 229/128/12
f 234/129/15 237/130/16 238/131/17
f 237/130/16 234/129/15 233/132/14
f 238/133/17 241/134/18 242/135/19
f 241/134/18 238/133/17 237/136/16
f 242/137/19 245/138/20 246/139/21
f 245/138/20 242/137/19 241/140/18
f 246/141/21 249/142/22 250/143/23
f 249/142/22 246/141/21 245/144/20
f 250/145/23 253/146/24 254/147/25
f 253/146/24 250/145/23 249/148/22
f 254/149/25 257/150/26 258/151/27
f 257/150/26 254/149/25 253/152/24
f 258/153/27 261/154/28 262/155/29
f 261/154/28 258/153/27 257/156/26
f 262/157/29 265/158/30 266/159/31
f 265/158/30 262/157/29 261/160/28
f 266/161/31 269/162/32 270/163/33
f 269/162/32 266/161/31 265/164/30
f 273/165/34 269/166/32 274/167/35
f 269/166/32 273/165/34 270/168/33
f 277/169/36 274/170/35 278/171/37
f 274/170/35 277/169/36 273/172/34
f 281/173/38 278/174/37 282/175/39
f 278/174/37 281/173/38 277/176/36
f 285/177/40 282/175/39 286/178/41
f 282/175/39 285/177/40 287/173/38
f 291/179/42 286/180/41 292/181/43
f 286/180/41 291/179/42 285/182/40
f 295/183/44 292/184/43 296/185/45
f 292/184/43 295/183/44 291/186/42
f 299/187/46 296/188/45 300/189/47
f 296/188/45 299/187/46 295/190/44
f 303/191/48 300/192/47 304/193/49
f 300/192/47 303/191/48 299/194/46
f 307/195/50 304/196/49 308/197/51
f 304/196/49 307/195/50 303/198/48
f 311/199/52 308/200/51 312/201/53
f 308/200/51 311/199/52 307/202/50
f 315/203/54 312/204/53 316/205/55
f 312/204/53 315/203/54 311/206/52
f 319/207/56 316/208/55 320/209/57
f 316/208/55 319/207/56 315/210/54
f 323/211/58 320/212/57 324/213/59
f 320/212/57 323/211/58 319/214/56
f 327/215/60 324/216/59 328/217/61
f 324/216/59 327/215/60 323/218/58
f 331/219/62 327/220/60 328/221/61
f 327/220/60 331/219/62 332/222/63
f 335/223/64 332/224/63 331/225/62
f 332/224/63 335/223/64 336/226/65
f 339/227/66 336/228/65 335/229/64
f 336/228/65 339/227/66 340/230/67
f 343/231/68 340/232/67 339/233/66
f 340/232/67 343/231/68 344/234/69
f 347/235/70 344/236/69 343/237/68
f 344/236/69 347/235/70 348/238/71
f 351/239/72 348/240/71 347/241/70
f 348/240/71 351/239/72 352/242/73
f 355/243/74 352/244/73 351/245/72
f 352/244/73 355/243/74 356/246/75
f 359/247/76 356/248/75 355/249/74
f 356/248/75 359/247/76 360/250/77
f 363/251/78 360/252/77 359/253/76
f 360/252/77 363/251/78 364/254/79
f 367/255/80 364/256/79 363/257/78
f 364/256/79 367/255/80 368/258/81
f 371/259/82 368/260/81 367/261/80
f 368/260/81 371/259/82 372/262/83
f 375/263/84 372/264/83 371/265/82
f 372/264/83 375/263/84 376/266/85
f 379/267/86 380/266/85 375/263/84
f 380/266/85 379/267/86 381/268/87
f 385/269/88 381/270/87 379/271/86
f 381/270/87 385/269/88 386/272/89
f 389/273/90 386/274/89 385/275/88
f 386/274/89 389/273/90 390/276/91
f 389/277/90 393/278/92 390/279/91
f 393/278/92 389/277/90 394/280/93
f 394/281/93 397/282/94 393/283/92
f 397/282/94 394/281/93 398/284/95
f 398/285/95 401/286/96 397/287/94
f 401/286/96 398/285/95 402/288/97
f 402/289/97 405/290/98 401/291/96
f 405/290/98 402/289/97 406/292/99
f 406/293/99 409/294/100 405/295/98
f 409/294/100 406/293/99 410/296/101
f 410/297/101 413/298/102 409/299/100
f 413/298/102 410/297/101 414/300/103
f 414/301/103 417/302/104 413/303/102
f 417/302/104 414/301/103 418/304/105
f 418/305/105 211/306/4 417/307/104
f 211/306/4 418/305/105 209/308/2
f 421/309/106 212/310/5 209/311/2
f 212/310/5 421/309/106 422/312/107
f 422/313/107 218/314/7 212/315/5
f 218/314/7 422/313/107 425/316/108
f 425/317/108 222/318/9 218/319/7
f 222/318/9 425/317/108 427/320/109
f 427/321/109 226/322/11 222/323/9
f 226/322/11 427/321/109 429/324/110
f 226/325/11 431/326/111 229/327/12
f 431/326/111 226/325/11 429/328/110
f 229/329/12 433/330/112 233/331/14
f 433/330/112 229/329/12 431/332/111
f 233/333/14 435/334/113 237/335/16
f 435/334/113 233/333/14 433/336/112
f 237/337/16 437/338/114 241/339/18
f 437/338/114 237/337/16 435/340/113
f 241/341/18 439/342/115 245/343/20
f 439/342/115 241/341/18 437/344/114
f 245/345/20 441/346/116 249/347/22
f 441/346/116 245/345/20 439/348/115
f 249/349/22 443/350/117 253/351/24
f 443/350/117 249/349/22 441/352/116
f 253/353/24 445/354/118 257/355/26
f 445/354/118 253/353/24 443/356/117
f 257/357/26 447/358/119 261/359/28
f 447/358/119 257/357/26 445/360/118
f 261/361/28 449/362/120 265/363/30
f 449/362/120 261/361/28 447/364/119
f 265/365/30 451/366/121 269/367/32
f 451/366/121 265/365/30 449/368/120
f 274/369/35 451/370/121 453/371/122
f 451/370/121 274/369/35 269/372/32
f 278/373/37 453/374/122 455/375/123
f 453/374/122 278/373/37 274/376/35
f 282/377/39 455/378/123 457/379/124
f 455/378/123 282/377/39 278/380/37
f 286/381/41 457/379/124 459/382/125
f 457/379/124 286/381/41 282/377/39
f 292/383/43 459/384/125 461/385/126
f 459/384/125 292/383/43 286/386/41
f 296/387/45 461/388/126 463/389/127
f 461/388/126 296/387/45 292/390/43
f 300/391/47 463/392/127 465/393/128
f 463/392/127 300/391/47 296/394/45
f 304/395/49 465/396/128 467/397/129
f 465/396/128 304/395/49 300/398/47
f 308/399/51 467/400/129 469/401/130
f 467/400/129 308/399/51 304/402/49
f 312/403/53 469/404/130 471/405/131
f 469/404/130 312/403/53 308/406/51
f 316/407/55 471/408/131 473/409/132
f 471/408/131 316/407/55 312/410/53
f 320/411/57 473/412/132 475/413/133
f 473/412/132 320/411/57 316/414/55
f 324/415/59 475/416/133 477/417/134
f 475/416/133 324/415/59 320/418/57
f 328/419/61 477/420/134 479/421/135
f 477/420/134 328/419/61 324/422/59
f 481/423/136 328/424/61 479/425/135
f 328/424/61 481/423/136 331/426/62
f 483/427/137 331/428/62 481/429/136
f 331/428/62 483/427/137 335/430/64
f 485/431/138 335/432/64 483/433/137
f 335/432/64 485/431/138 339/434/66
f 487/435/139 339/436/66 485/437/138
f 339/436/66 487/435/139 343/438/68
f 489/439/140 343/440/68 487/441/139
f 343/440/68 489/439/140 347/442/70
f 491/443/141 347/444/70 489/445/140
f 347/444/70 491/443/141 351/446/72
f 493/447/142 351/448/72 491/449/141
f 351/448/72 493/447/142 355/450/74
f 495/451/143 355/452/74 493/453/142
f 355/452/74 495/451/143 359/454/76
f 497/455/144 359/456/76 495/457/143
f 359/456/76 497/455/144 363/458/78
f 499/459/145 363/460/78 497/461/144
f 363/460/78 499/459/145 367/462/80
f 501/463/146 367/464/80 499/465/145
f 367/464/80 501/463/146 371/466/82
f 503/467/147 371/468/82 501/469/146
f 371/468/82 503/467/147 375/470/84
f 505/471/148 375/470/84 503/467/147
f 375/470/84 505/471/148 379/472/86
f 507/473/149 379/474/86 505/475/148
f 379/474/86 507/473/149 385/476/88
f 509/477/150 385/478/88 507/479/149
f 385/478/88 509/477/150 389/480/90
f 509/481/150 394/482/93 389/483/90
f 394/482/93 509/481/150 511/484/151
f 511/485/151 398/486/95 394/487/93
f 398/486/95 511/485/151 513/488/152
f 513/489/152 402/490/97 398/491/95
f 402/490/97 513/489/152 515/492/153
f 515/493/153 406/494/99 402/495/97
f 406/494/99 515/493/153 517/496/154
f 517/497/154 410/498/101 406/499/99
f 410/498/101 517/497/154 519/500/155
f 519/501/155 414/502/103 410/503/101
f 414/502/103 519/501/155 521/504/156
f 521/505/156 418/506/105 414/507/103
f 418/506/105 521/505/156 523/508/157
f 523/509/157 209/510/2 418/511/105
f 209/510/2 523/509/157 421/512/106
f 525/513/158 422/514/107 421/515/106
f 422/514/107 525/513/158 526/516/159
f 526/517/159 425/518/108 422/519/107
f 425/518/108 526/517/159 529/520/160
f 529/521/160 427/522/109 425/523/108
f 427/522/109 529/521/160 531/524/161
f 531/525/161 429/526/110 427/527/109
f 429/526/110 531/525/161 533/528/162
f 429/529/110 535/530/163 431/531/111
f 535/530/163 429/529/110 533/532/162
f 431/533/111 537/534/164 433/535/112
f 537/534/164 431/533/111 535/536/163
f 433/537/112 539/538/165 435/539/113
f 539/538/165 433/537/112 537/540/164
f 435/541/113 541/542/166 437/543/114
f 541/542/166 435/541/113 539/544/165
f 437/545/114 543/546/167 439/547/115
f 543/546/167 437/545/114 541/548/166
f 439/549/115 545/550/168 441/551/116
f 545/550/168 439/549/115 543/552/167
f 441/553/116 547/554/169 443/555/117
f 547/554/169 441/553/116 545/556/168
f 443/557/117 549/558/170 445/559/118
f 549/558/170 443/557/117 547/560/169
f 445/561/118 551/562/171 447/563/119
f 551/562/171 445/561/118 549/564/170
f 447/565/119 553/566/172 449/567/120
f 553/566/172 447/565/119 551/568/171
f 449/569/120 555/570/173 451/571/121
f 555/570/173 449/569/120 553/572/172
f 451/573/121 557/574/174 453/575/122
f 557/574/174 451/573/121 555/576/173
f 455/577/123 557/578/174 559/579/175
f 557/578/174 455/577/123 453/580/122
f 457/581/124 559/582/175 561/583/176
f 559/582/175 457/581/124 455/584/123
f 459/585/125 561/583/176 563/586/177
f 561/583/176 459/585/125 457/581/124
f 461/587/126 563/588/177 565/589/178
f 563/588/177 461/587/126 459/590/125
f 463/591/127 565/592/178 567/593/179
f 565/592/178 463/591/127 461/594/126
f 465/595/128 567/596/179 569/597/180
f 567/596/179 465/595/128 463/598/127
f 467/599/129 569/600/180 571/601/181
f 569/600/180 467/599/129 465/602/128
f 469/603/130 571/604/181 573/605/182
f 571/604/181 469/603/130 467/606/129
f 471/607/131 573/608/182 575/609/183
f 573/608/182 471/607/131 469/610/130
f 473/611/132 575/612/183 577/613/184
f 575/612/183 473/611/132 471/614/131
f 475/615/133 577/616/184 579/617/185
f 577/616/184 475/615/133 473/618/132
f 477/619/134 579/620/185 581/621/186
f 579/620/185 477/619/134 475/622/133
f 479/623/135 581/624/186 583/625/187
f 581/624/186 479/623/135 477/626/134
f 585/627/188 479/628/135 583/629/187
f 479/628/135 585/627/188 481/630/136
f 587/631/189 481/632/136 585/633/188
f 481/632/136 587/631/189 483/634/137
f 589/635/190 483/636/137 587/637/189
f 483/636/137 589/635/190 485/638/138
f 591/639/191 485/640/138 589/641/190
f 485/640/138 591/639/191 487/642/139
f 593/643/192 487/644/139 591/645/191
f 487/644/139 593/643/192 489/646/140
f 595/647/193 489/648/140 593/649/192
f 489/648/140 595/647/193 491/650/141
f 597/651/194 491/652/141 595/653/193
f 491/652/141 597/651/194 493/654/142
f 599/655/195 493/656/142 597/657/194
f 493/656/142 599/655/195 495/658/143
f 601/659/196 495/660/143 599/661/195
f 495/660/143 601/659/196 497/662/144
f 603/663/197 497/664/144 601/665/196
f 497/664/144 603/663/197 499/666/145
f 605/667/198 499/668/145 603/669/197
f 499/668/145 605/667/198 501/670/146
f 607/671/199 501/672/146 605/673/198
f 501/672/146 607/671/199 503/674/147
f 609/675/200 503/674/147 607/671/199
f 503/674/147 609/675/200 505/676/148
f 611/677/201 505/678/148 609/679/200
f 505/678/148 611/677/201 507/680/149
f 613/681/202 507/682/149 611/683/201
f 507/682/149 613/681/202 509/684/150
f 613/685/202 511/686/151 509/687/150
f 511/686/151 613/685/202 615/688/203
f 615/689/203 513/690/152 511/691/151
f 513/690/152 615/689/203 617/692/204
f 617/693/204 515/694/153 513/695/152
f 515/694/153 617/693/204 619/696/205
f 619/697/205 517/698/154 515/699/153
f 517/698/154 619/697/205 621/700/206
f 621/701/206 519/702/155 517/703/154
f 519/702/155 621/701/206 623/704/207
f 623/705/207 521/706/156 519/707/155
f 521/706/156 623/705/207 625/708/208
f 625/709/208 523/710/157 521/711/156
f 523/710/157 625/709/208 627/712/209
f 627/713/209 421/714/106 523/715/157
f 421/714/106 627/713/209 525/716/158
usemtl material_1_0
f 105//210 106//210 107//210
f 106//210 108//210 107//210
f 108//210 109//210 107//210
f 109//210 110//210 107//210
f 107//210 110//210 111//210
f 110//210 112//210 111//210
f 111//210 112//210 113//210
f 112//210 114//210 113//210
f 113//210 114//210 115//210
f 114//210 116//210 115//210
f 115//210 116//210 117//210
f 116//210 118//210 117//210
f 117//210 118//210 119//210
f 118//210 120//210 119//210
f 119//210 120//210 121//210
f 120//210 122//210 121//210
f 121//210 122//210 123//210
f 122//210 124//210 123//210
f 123//210 124//210 125//210
f 124//210 126//210 125//210
f 125//210 126//210 127//210
f 126//210 128//210 127//210
f 127//210 128//210 129//210
f 128//210 130//210 129//210
f 129//210 130//210 131//210
f 130//210 132//210 131//210
f 132//210 133//210 131//210
f 131//210 133//210 134//210
f 133//210 135//210 134//210
f 134//210 135//210 136//210
f 135//210 137//210 136//210
f 136//210 137//210 138//210
f 137//210 139//210 138//210
f 138//210 139//210 140//210
f 139//210 141//210 140//210
f 140//210 141//210 142//210
f 141//210 143//210 142//210
f 142//210 143//210 144//210
f 143//210 145//210 144//210
f 144//210 145//210 146//210
f 145//210 147//210 146//210
f 146//210 147//210 148//210
f 147//210 149//210 148//210
f 148//210 149//210 150//210
f 149//210 151//210 150//210
f 150//210 151//210 152//210
f 151//210 153//210 152//210
f 152//210 153//210 154//210
f 153//210 155//210 154//210
f 155//210 156//210 154//210
f 154//210 156//210 157//210
f 156//210 158//210 157//210
f 158//210 159//210 157//210
f 160//210 157//210 159//210
f 109//210 108//210 161//210
f 161//210 108//210 162//210
f 108//210 163//210 162//210
f 162//210 163//210 164//210
f 163//210 165//210 164//210
f 164//210 165//210 166//210
f 165//210 167//210 166//210
f 166//210 167//210 168//210
f 167//210 169//210 168//210
f 168//210 169//210 170//210
f 169//210 171//210 170//210
f 170//210 171//210 172//210
f 171//210 173//210 172//210
f 172//210 173//210 174//210
f 173//210 175//210 174//210
f 174//210 175//210 176//210
f 175//210 177//210 176//210
f 176//210 177//210 178//210
f 177//210 179//210 178//210
f 178//210 179//210 180//210
f 179//210 181//210 180//210
f 180//210 181//210 182//210
f 181//210 183//210 182//210
f 182//210 183//210 184//210
f 184//210 183//210 185//210
f 183//210 186//210 185//210
f 185//210 186//210 187//210
f 186//210 188//210 187//210
f 187//210 188//210 189//210
f 188//210 190//210 189//210
f 189//210 190//210 191//210
f 190//210 192//210 191//210
f 191//210 192//210 193//210
f 192//210 194//210 193//210
f 193//210 194//210 195//210
f 194//210 196//210 195//210
f 195//210 196//210 197//210
f 196//210 198//210 197//210
f 197//210 198//210 199//210
f 198//210 200//210 199//210
f 199//210 200//210 201//210
f 200//210 202//210 201//210
f 201//210 202//210 203//210
f 202//210 204//210 203//210
f 203//210 204//210 205//210
f 204//210 206//210 205//210
f 205//210 206//210 207//210
f 207//210 206//210 208//210
f 206//210 158//210 208//210
f 156//210 208//210 158//210
f 213//211 214//212 215//213
f 216//214 215//213 214//212
f 219//215 213//211 220//216
f 215//213 220//216 213//211
f 223//217 219//215 224//218
f 220//216 224//218 219//215
f 227//219 223//217 228//220
f 224//218 228//220 223//217
f 227//219 228//220 231//221
f 232//222 231//221 228//220
f 231//221 232//222 235//223
f 236//224 235//223 232//222
f 235//223 236//224 239//225
f 240//226 239//225 236//224
f 239//225 240//226 243//227
f 244//228 243//227 240//226
f 243//227 244//228 247//229
f 248//230 247//229 244//228
f 247//229 248//230 251//231
f 252//232 251//231 248//230
f 251//231 252//232 255//233
f 256//234 255//233 252//232
f 255//233 256//234 259//235
f 260//236 259//235 256//234
f 259//235 260//236 263//237
f 264//238 263//237 260//236
f 263//237 264//238 267//239
f 268//240 267//239 264//238
f 267//239 268//240 271//241
f 272//242 271//241 268//240
f 272//242 275//243 271//241
f 276//244 271//241 275//243
f 275//243 279//245 276//244
f 280//246 276//244 279//245
f 279//245 283//247 280//246
f 284//248 280//246 283//247
f 288//247 289//249 284//248
f 290//250 284//248 289//249
f 289//249 293//251 290//250
f 294//252 290//250 293//251
f 293//251 297//253 294//252
f 298//254 294//252 297//253
f 297//253 301//255 298//254
f 302//256 298//254 301//255
f 301//255 305//257 302//256
f 306//258 302//256 305//257
f 305//257 309//259 306//258
f 310//260 306//258 309//259
f 309//259 313//261 310//260
f 314//262 310//260 313//261
f 313//261 317//263 314//262
f 318//264 314//262 317//263
f 317//263 321//265 318//264
f 322//266 318//264 321//265
f 321//265 325//267 322//266
f 326//268 322//266 325//267
f 325//267 329//269 326//268
f 330//270 326//268 329//269
f 333//271 334//272 329//269
f 330//270 329//269 334//272
f 337//273 338//274 333//271
f 334//272 333//271 338//274
f 341//275 342//276 337//273
f 338//274 337//273 342//276
f 345//277 346//278 341//275
f 342//276 341//275 346//278
f 349//279 350//280 345//277
f 346//278 345//277 350//280
f 353//281 354//282 349//279
f 350//280 349//279 354//282
f 357//283 358//284 353//281
f 354//282 353//281 358//284
f 361//285 362//286 357//283
f 358//284 357//283 362//286
f 365//287 366//288 361//285
f 362//286 361//285 366//288
f 369//289 370//290 365//287
f 366//288 365//287 370//290
f 373//291 374//292 369//289
f 370//290 369//289 374//292
f 377//293 378//294 373//291
f 374//292 373//291 378//294
f 382//295 383//296 384//293
f 378//294 384//293 383//296
f 387//297 388//298 382//295
f 383//296 382//295 388//298
f 391//299 392//300 387//297
f 388//298 387//297 392//300
f 395//301 392//300 396//302
f 391//299 396//302 392//300
f 399//303 395//301 400//304
f 396//302 400//304 395//301
f 403//305 399//303 404//306
f 400//304 404//306 399//303
f 407//307 403//305 408//308
f 404//306 408//308 403//305
f 411//309 407//307 412//310
f 408//308 412//310 407//307
f 415//311 411//309 416//312
f 412//310 416//312 411//309
f 419//313 415//311 420//314
f 416//312 420//314 415//311
f 214//212 419//313 216//214
f 420//314 216//214 419//313
f 423//315 424//316 213//211
f 214//212 213//211 424//316
f 426//317 423//315 219//215
f 213//211 219//215 423//315
f 428//318 426//317 223//217
f 219//215 223//217 426//317
f 430//319 428//318 227//219
f 223//217 227//219 428//318
f 430//319 227//219 432//320
f 231//221 432//320 227//219
f 432//320 231//221 434//321
f 235//223 434//321 231//221
f 434//321 235//223 436//322
f 239//225 436//322 235//223
f 436//322 239//225 438//323
f 243//227 438//323 239//225
f 438//323 243//227 440//324
f 247//229 440//324 243//227
f 440//324 247//229 442//325
f 251//231 442//325 247//229
f 442//325 251//231 444//326
f 255//233 444//326 251//231
f 444//326 255//233 446//327
f 259//235 446//327 255//233
f 446//327 259//235 448//328
f 263//237 448//328 259//235
f 448//328 263//237 450//329
f 267//239 450//329 263//237
f 450//329 267//239 452//330
f 271//241 452//330 267//239
f 271//241 276//244 452//330
f 454//331 452//330 276//244
f 276//244 280//246 454//331
f 456//332 454//331 280//246
f 280//246 284//248 456//332
f 458//333 456//332 284//248
f 284//248 290//250 458//333
f 460//334 458//333 290//250
f 290//250 294//252 460//334
f 462//335 460//334 294//252
f 294//252 298//254 462//335
f 464//336 462//335 298//254
f 298//254 302//256 464//336
f 466//337 464//336 302//256
f 302//256 306//258 466//337
f 468//338 466//337 306//258
f 306//258 310//260 468//338
f 470//339 468//338 310//260
f 310//260 314//262 470//339
f 472//340 470//339 314//262
f 314//262 318//264 472//340
f 474//341 472//340 318//264
f 318//264 322//266 474//341
f 476//342 474//341 322//266
f 322//266 326//268 476//342
f 478//343 476//342 326//268
f 326//268 330//270 478//343
f 480//344 478//343 330//270
f 334//272 482//345 330//270
f 480//344 330//270 482//345
f 338//274 484//346 334//272
f 482//345 334//272 484//346
f 342//276 486//347 338//274
f 484//346 338//274 486//347
f 346//278 488//348 342//276
f 486//347 342//276 488//348
f 350//280 490//349 346//278
f 488//348 346//278 490//349
f 354//282 492//350 350//280
f 490//349 350//280 492//350
f 358//284 494//351 354//282
f 492//350 354//282 494//351
f 362//286 496//352 358//284
f 494//351 358//284 496//352
f 366//288 498//353 362//286
f 496//352 362//286 498//353
f 370//290 500//354 366//288
f 498//353 366//288 500//354
f 374//292 502//355 370//290
f 500//354 370//290 502//355
f 378//294 504//356 374//292
f 502//355 374//292 504//356
f 383//296 506//357 378//294
f 504//356 378//294 506//357
f 388//298 508//358 383//296
f 506//357 383//296 508//358
f 392//300 510//359 388//298
f 508//358 388//298 510//359
f 512//360 510//359 395//301
f 392//300 395//301 510//359
f 514//361 512//360 399//303
f 395//301 399//303 512//360
f 516//362 514//361 403//305
f 399//303 403//305 514//361
f 518//363 516//362 407//307
f 403//305 407//307 516//362
f 520//364 518//363 411//309
f 407//307 411//309 518//363
f 522//365 520//364 415//311
f 411//309 415//311 520//364
f 524//366 522//365 419//313
f 415//311 419//313 522//365
f 424//316 524//366 214//212
f 419//313 214//212 524//366
f 527//367 528//368 423//315
f 424//316 423//315 528//368
f 530//369 527//367 426//317
f 423//315 426//317 527//367
f 532//370 530//369 428//318
f 426//317 428//318 530//369
f 534//371 532//370 430//319
f 428//318 430//319 532//370
f 534//371 430//319 536//372
f 432//320 536//372 430//319
f 536//372 432//320 538//373
f 434//321 538//373 432//320
f 538//373 434//321 540//374
f 436//322 540//374 434//321
f 540//374 436//322 542//375
f 438//323 542//375 436//322
f 542//375 438//323 544//376
f 440//324 544//376 438//323
f 544//376 440//324 546//377
f 442//325 546//377 440//324
f 546//377 442//325 548//378
f 444//326 548//378 442//325
f 548//378 444//326 550//379
f 446//327 550//379 444//326
f 550//379 446//327 552//380
f 448//328 552//380 446//327
f 552//380 448//328 554//381
f 450//329 554//381 448//328
f 554//381 450//329 556//382
f 452//330 556//382 450//329
f 556//382 452//330 558//383
f 454//331 558//383 452//330
f 454//331 456//332 558//383
f 560//384 558//383 456//332
f 456//332 458//333 560//384
f 562//385 560//384 458//333
f 458//333 460//334 562//385
f 564//386 562//385 460//334
f 460//334 462//335 564//386
f 566//387 564//386 462//335
f 462//335 464//336 566//387
f 568//388 566//387 464//336
f 464//336 466//337 568//388
f 570//389 568//388 466//337
f 466//337 468//338 570//389
f 572//390 570//389 468//338
f 468//338 470//339 572//390
f 574//391 572//390 470//339
f 470//339 472//340 574//391
f 576//392 574//391 472//340
f 472//340 474//341 576//392
f 578//393 576//392 474//341
f 474//341 476//342 578//393
f 580//394 578//393 476//342
f 476//342 478//343 580//394
f 582//395 580//394 478//343
f 478//343 480//344 582//395
f 584//396 582//395 480//344
f 482//345 586//397 480//344
f 584//396 480//344 586//397
f 484//346 588//398 482//345
f 586//397 482//345 588//398
f 486//347 590//399 484//346
f 588//398 484//346 590//399
f 488//348 592//400 486//347
f 590//399 486//347 592//400
f 490//349 594//401 488//348
f 592//400 488//348 594//401
f 492//350 596//402 490//349
f 594//401 490//349 596//402
f 494//351 598//403 492//350
f 596//402 492//350 598//403
f 496//352 600//404 494//351
f 598//403 494//351 600//404
f 498//353 602//405 496//352
f 600//404 496//352 602//405
f 500//354 604//406 498//353
f 602//405 498//353 604//406
f 502//355 606//407 500//354
f 604//406 500//354 606//407
f 504//356 608//408 502//355
f 606//407 502//355 608//408
f 506//357 610//409 504//356
f 608//408 504//356 610//409
f 508//358 612//410 506//357
f 610//409 506//357 612//410
f 510//359 614//411 508//358
f 612//410 508//358 614//411
f 616//412 614//411 512//360
f 510//359 512//360 614//411
f 618//413 616//412 514//361
f 512//360 514//361 616//412
f 620//414 618//413 516//362
f 514//361 516//362 618//413
f 622//415 620//414 518//363
f 516//362 518//363 620//414
f 624//416 622//415 520//364
f 518//363 520//364 622//415
f 626//417 624//416 522//365
f 520//364 522//365 624//416
f 628//418 626//417 524//366
f 522//365 524//366 626//417
f 528//368 628//418 424//316
f 524//366 424//316 628//418
