# SSTK version 0.8.0
# 123
mtllib original-123.mtl
o #ID55
v -0.002841 -0.000663 0.232906
v -0.003635 -0.000118 0.218651
v -0.003635 -0.000118 0.232906
v -0.002841 -0.000663 0.218651
v -0.001303 -0.001233 0.232906
v -0.001303 -0.001233 0.218651
v -0.003738 0.000002 0.232906
v -0.003738 0.000002 0.218651
v 0.000708 -0.001470 0.232906
v 0.000708 -0.001470 0.218651
v 0.002719 -0.001707 0.232906
v 0.002719 -0.001707 0.218651
v 0.004258 -0.002277 0.218651
v 0.002719 -0.001707 0.232906
v 0.002719 -0.001707 0.218651
v 0.002856 -0.001757 0.232906
v 0.004258 -0.002277 0.232906
v 0.005051 -0.002821 0.218651
v 0.005051 -0.002821 0.232906
v 0.005154 -0.002942 0.232906
v 0.005154 -0.002942 0.218651
vn 0.45976484272713575 0.888040702553713 0
vn 0.6676501780559639 0.7444751438039015 0
vn 0.23361704733293245 0.972328686810917 0
vn 0.7590515328293705 0.651030544989544 0
vn 0.11697356043077946 0.99313502916781 0
vn 0.29120334678610643 0.9566611786941971 0
vn -0.45976484272713575 -0.888040702553713 0
vn -0.29120334678610643 -0.9566611786941971 0
vn -0.34748206385072256 -0.9376866295847682 0
vn -0.6676501780559639 -0.7444751438039015 0
vn -0.7590515328293705 -0.651030544989544 0
usemtl material_0_0
f 1//1 2//2 3//2
f 2//2 1//1 4//1
f 5//3 4//1 1//1
f 4//1 5//3 6//3
f 2//2 7//4 3//2
f 7//4 2//2 8//4
f 9//5 6//3 5//3
f 6//3 9//5 10//5
f 10//5 9//5 11//6
f 10//5 11//6 12//6
f 13//7 14//8 15//8
f 14//8 13//7 16//9
f 16//9 13//7 17//7
f 18//10 17//7 13//7
f 17//7 18//10 19//10
f 18//10 20//11 19//10
f 20//11 18//10 21//11
