# SSTK version 0.8.0
# 44
mtllib original-44.mtl
o #ID353
v 0.190993 0.501814 0.448423
v 0.190993 0.579011 0.422988
v 0.190993 0.502983 0.451537
v 0.190993 0.577841 0.419874
v 0.191042 0.501730 0.448061
v 0.190993 0.577841 0.419874
v 0.190993 0.501814 0.448423
v 0.191042 0.577666 0.419546
v 0.191184 0.501742 0.447689
v 0.191184 0.577411 0.419274
v 0.191411 0.501851 0.447333
v 0.191411 0.577096 0.419078
vn 1 0 0
vn 0.6684176021737067 0.7404427024079339 0.07044511022908902
vn 0.6951606053681553 -0.5864442045286278 0.4157342032103742
vn 0.6951606289408525 0.7151360297724663 -0.07302163304002862
vn 0.6684175835289575 -0.511065187406411 0.5403982866835891
vn 0.5679292114881035 0.7411089149911919 0.35806980724305604
vn 0.5679292030593381 -0.3222501017359067 0.7573713040798303
vn 0.4371139956596503 0.6855405931928834 0.5822073942189369
vn 0.4371139952321136 -0.13288729855051207 0.8895348902972648
usemtl material_0_0
f 1//1 2//1 3//1
f 2//1 1//1 4//1
f 5//2 6//3 7//4
f 6//3 5//2 8//5
f 9//6 8//5 5//2
f 8//5 9//6 10//7
f 11//8 10//7 9//6
f 10//7 11//8 12//9
