# SSTK version 0.8.0
# 121
mtllib original-121.mtl
o #ID43
v 0.029380 -0.045422 0.221070
v 0.014485 -0.046404 0.223280
v 0.015563 -0.050542 0.221070
v 0.027272 -0.041666 0.223280
v 0.041205 -0.037304 0.221070
v 0.038171 -0.034184 0.223280
v 0.013381 -0.042165 0.225275
v 0.025112 -0.037818 0.225275
v 0.000708 -0.048027 0.223280
v 0.000708 -0.052292 0.221070
v 0.050240 -0.026770 0.221070
v 0.046457 -0.024523 0.223280
v 0.035063 -0.030987 0.225275
v 0.012253 -0.037834 0.227049
v 0.022905 -0.033887 0.227049
v 0.000708 -0.043657 0.225275
v -0.014146 -0.050542 0.221070
v -0.013068 -0.046404 0.223280
v 0.055898 -0.014551 0.221070
v 0.051620 -0.013372 0.223280
v 0.042580 -0.022221 0.225275
v 0.031887 -0.027721 0.227049
v 0.011104 -0.033423 0.228599
v 0.020658 -0.029883 0.228599
v 0.000708 -0.039194 0.227049
v -0.011964 -0.042165 0.225275
v -0.027963 -0.045422 0.221070
v -0.025855 -0.041666 0.223280
v 0.057823 -0.001470 0.221070
v 0.053371 -0.001470 0.223280
v 0.047237 -0.012164 0.225275
v 0.038621 -0.019870 0.227049
v 0.028653 -0.024394 0.228599
v 0.009937 -0.028942 0.229920
v 0.018375 -0.025815 0.229920
v 0.000708 -0.034647 0.228599
v -0.010836 -0.037834 0.227049
v -0.023695 -0.037818 0.225275
v -0.039788 -0.037304 0.221070
v -0.036754 -0.034184 0.223280
v 0.055898 0.011611 0.221070
v 0.051620 0.010432 0.223280
v 0.048811 -0.001470 0.225275
v 0.042760 -0.010930 0.227049
v 0.034587 -0.017475 0.228599
v 0.025368 -0.021015 0.229920
v 0.008755 -0.024404 0.231009
v 0.016063 -0.021695 0.231009
v 0.000708 -0.030029 0.229920
v -0.009687 -0.033423 0.228599
v -0.021489 -0.033887 0.227049
v -0.033646 -0.030987 0.225275
v -0.048824 -0.026770 0.221070
v -0.045040 -0.024523 0.223280
v 0.046457 0.021584 0.223280
v 0.050240 0.023830 0.221070
v 0.047237 0.009225 0.225275
v 0.044152 -0.001470 0.227049
v 0.038199 -0.009673 0.228599
v 0.030491 -0.015042 0.229920
v 0.022040 -0.017592 0.231009
v 0.007560 -0.019818 0.231864
v 0.013726 -0.017533 0.231864
v 0.000708 -0.025351 0.231009
v -0.008520 -0.028942 0.229920
v -0.019241 -0.029883 0.228599
v -0.030471 -0.027721 0.227049
v -0.041164 -0.022221 0.225275
v -0.054481 -0.014551 0.221070
v -0.050203 -0.013372 0.223280
v 0.038171 0.031244 0.223280
v 0.041205 0.034365 0.221070
v 0.042580 0.019282 0.225275
v 0.042760 0.007991 0.227049
v 0.039407 -0.001470 0.228599
v 0.033567 -0.008397 0.229920
v 0.026340 -0.012578 0.231009
v 0.018678 -0.014134 0.231864
v 0.006356 -0.015196 0.232483
v 0.011372 -0.013338 0.232483
v 0.000708 -0.020625 0.231864
v -0.007338 -0.024404 0.231009
v -0.016959 -0.025815 0.229920
v -0.027237 -0.024394 0.228599
v -0.037204 -0.019870 0.227049
v -0.045820 -0.012164 0.225275
v -0.056406 -0.001470 0.221070
v -0.051955 -0.001470 0.223280
v 0.027272 0.038727 0.223280
v 0.029380 0.042483 0.221070
v 0.035063 0.028047 0.225275
v 0.038621 0.016931 0.227049
v 0.038199 0.006734 0.228599
v 0.034587 -0.001470 0.229920
v 0.028875 -0.007104 0.231009
v 0.022147 -0.010088 0.231864
v 0.015289 -0.010648 0.232483
v 0.005146 -0.010551 0.232863
v 0.009005 -0.009121 0.232863
v 0.000708 -0.015861 0.232483
v -0.006143 -0.019818 0.231864
v -0.014646 -0.021695 0.231009
v -0.023951 -0.021015 0.229920
v -0.033171 -0.017475 0.228599
v -0.041343 -0.010930 0.227049
v -0.047394 -0.001470 0.225275
v -0.050203 0.010432 0.223280
v -0.054481 0.011611 0.221070
v 0.014485 0.043465 0.223280
v 0.015563 0.047603 0.221070
v 0.025112 0.034878 0.225275
v 0.031887 0.024781 0.227049
v 0.034587 0.014536 0.228599
v 0.033567 0.005458 0.229920
v 0.029704 -0.001470 0.231009
v 0.024134 -0.005798 0.231864
v 0.017922 -0.007579 0.232483
v 0.011883 -0.007145 0.232863
v 0.004777 -0.009134 0.232906
v 0.008283 -0.007835 0.232906
v 0.000708 -0.011073 0.232863
v -0.004940 -0.015196 0.232483
v -0.012310 -0.017533 0.231864
v -0.020624 -0.017592 0.231009
v -0.029074 -0.015042 0.229920
v -0.036783 -0.009673 0.228599
v -0.042735 -0.001470 0.227049
v -0.045820 0.009225 0.225275
v -0.045040 0.021584 0.223280
v -0.048824 0.023830 0.221070
v 0.000708 0.045088 0.223280
v 0.000708 0.049352 0.221070
v 0.013381 0.039225 0.225275
v 0.022905 0.030947 0.227049
v 0.028653 0.021455 0.228599
v 0.030491 0.012103 0.229920
v 0.028875 0.004165 0.231009
v 0.024771 -0.001470 0.231864
v 0.019356 -0.004481 0.232483
v 0.013674 -0.005057 0.232863
v 0.010845 -0.006077 0.232906
v -0.003361 -0.009134 0.232906
v 0.000708 -0.009613 0.232906
v -0.006867 -0.007835 0.232906
v -0.009428 -0.006077 0.232906
v 0.012379 -0.004288 0.232906
v -0.010962 -0.004288 0.232906
v 0.013089 -0.002754 0.232906
v -0.011673 -0.002754 0.232906
v -0.011862 -0.001470 0.232906
v 0.013278 -0.001470 0.232906
v 0.013089 -0.000185 0.232906
v -0.011673 -0.000185 0.232906
v 0.012379 0.001348 0.232906
v -0.010962 0.001348 0.232906
v -0.009428 0.003137 0.232906
v 0.010845 0.003137 0.232906
v -0.006867 0.004896 0.232906
v 0.008283 0.004896 0.232906
v 0.004777 0.006195 0.232906
v -0.003361 0.006195 0.232906
v 0.000708 0.006674 0.232906
v -0.003730 -0.010551 0.232863
v -0.009955 -0.013338 0.232483
v -0.017261 -0.014134 0.231864
v -0.024924 -0.012578 0.231009
v -0.032151 -0.008397 0.229920
v -0.037990 -0.001470 0.228599
v -0.041343 0.007991 0.227049
v -0.041164 0.019282 0.225275
v -0.036754 0.031244 0.223280
v -0.039788 0.034365 0.221070
v -0.014146 0.047603 0.221070
v -0.013068 0.043465 0.223280
v 0.000708 0.040718 0.225275
v 0.012253 0.034895 0.227049
v 0.020658 0.026943 0.228599
v 0.025368 0.018076 0.229920
v 0.026340 0.009639 0.231009
v 0.024134 0.002858 0.231864
v 0.019799 -0.001470 0.232483
v 0.014553 -0.003157 0.232863
v -0.013137 0.000218 0.232863
v -0.012257 0.002117 0.232863
v -0.013385 -0.001470 0.232863
v -0.013137 -0.003157 0.232863
v -0.012257 -0.005057 0.232863
v -0.010467 -0.007145 0.232863
v -0.007588 -0.009121 0.232863
v 0.014802 -0.001470 0.232863
v 0.014553 0.000218 0.232863
v 0.013674 0.002117 0.232863
v 0.011883 0.004205 0.232863
v 0.009005 0.006181 0.232863
v 0.005146 0.007611 0.232863
v 0.000708 0.008134 0.232863
v -0.003730 0.007611 0.232863
v -0.007588 0.006181 0.232863
v -0.010467 0.004205 0.232863
v -0.013873 -0.010648 0.232483
v -0.020731 -0.010088 0.231864
v -0.027459 -0.007104 0.231009
v -0.033170 -0.001470 0.229920
v -0.036783 0.006734 0.228599
v -0.037204 0.016931 0.227049
v -0.033646 0.028047 0.225275
v -0.025855 0.038727 0.223280
v -0.027963 0.042483 0.221070
v -0.011964 0.039225 0.225275
v 0.000708 0.036254 0.227049
v 0.011104 0.030484 0.228599
v 0.018375 0.022876 0.229920
v 0.022040 0.014653 0.231009
v 0.022147 0.007149 0.231864
v 0.019356 0.001542 0.232483
v -0.017940 0.001542 0.232483
v -0.016505 0.004640 0.232483
v -0.018383 -0.001470 0.232483
v -0.017940 -0.004481 0.232483
v -0.016505 -0.007579 0.232483
v 0.017922 0.004640 0.232483
v 0.015289 0.007709 0.232483
v 0.011372 0.010398 0.232483
v 0.006356 0.012257 0.232483
v 0.000708 0.012922 0.232483
v -0.004940 0.012257 0.232483
v -0.009955 0.010398 0.232483
v -0.013873 0.007709 0.232483
v -0.022717 -0.005798 0.231864
v -0.028288 -0.001470 0.231009
v -0.032151 0.005458 0.229920
v -0.033171 0.014536 0.228599
v -0.030471 0.024781 0.227049
v -0.023695 0.034878 0.225275
v -0.010836 0.034895 0.227049
v 0.000708 0.031708 0.228599
v 0.009937 0.026003 0.229920
v 0.016063 0.018756 0.231009
v 0.018678 0.011194 0.231864
v -0.022717 0.002858 0.231864
v -0.020731 0.007149 0.231864
v -0.023354 -0.001470 0.231864
v 0.013726 0.014593 0.231864
v 0.007560 0.016878 0.231864
v 0.000708 0.017685 0.231864
v -0.006143 0.016878 0.231864
v -0.012310 0.014593 0.231864
v -0.017261 0.011194 0.231864
v -0.027459 0.004165 0.231009
v -0.029074 0.012103 0.229920
v -0.027237 0.021455 0.228599
v -0.021489 0.030947 0.227049
v -0.009687 0.030484 0.228599
v 0.000708 0.027090 0.229920
v 0.008755 0.021464 0.231009
v -0.024924 0.009639 0.231009
v 0.000708 0.022412 0.231009
v -0.007338 0.021464 0.231009
v -0.014646 0.018756 0.231009
v -0.020624 0.014653 0.231009
v -0.023951 0.018076 0.229920
v -0.019241 0.026943 0.228599
v -0.008520 0.026003 0.229920
v -0.016959 0.022876 0.229920
vn 0.20996670243656407 -0.4055529240037888 0.889629591290607
vn 0.10244212616015828 -0.42637030492460576 0.898729088138514
vn 0.10727250604389443 -0.4464748756546621 0.8883427237593703
vn 0.20050440769441635 -0.3872764676341251 0.8998971719657451
vn 0.3024572743070104 -0.3372603482658444 0.8915015730251828
vn 0.2888109055208574 -0.32204368911692893 0.9015964303124658
vn 0.0918780190348874 -0.38240195488937145 0.9194167577954035
vn 0.1797840868593826 -0.3472549553019353 0.9203758352599164
vn 0 -0.43934898287126656 0.8983164649776735
vn 0 -0.4600592964999312 0.8878881932450664
vn 0.37756108619033346 -0.24304685336269852 0.8935188040915907
vn 0.360504727155464 -0.23206717312977063 0.9034274563317861
vn 0.25887304206834993 -0.288660932747539 0.9217698270151824
vn 0.08108766097310081 -0.3374918520254789 0.9378294306825328
vn 0.15863553919733436 -0.30640629234584593 0.9385893402944885
vn 0 -0.3940761049172721 0.91907781146823
vn -0.10727250604389443 -0.4464748756546621 0.8883427237593703
vn -0.10244212616015828 -0.42637030492460576 0.898729088138514
vn 0.427215713952057 -0.12762442305489385 0.895097056409158
vn 0.4078971724771621 -0.12185326144703584 0.9048600330216032
vn 0.32301154185896125 -0.20793169729646555 0.9232702492148804
vn 0.2283491606801409 -0.25462479301478674 0.9396929687929202
vn 0.07009756087743256 -0.2917503405727312 0.9539224657878279
vn 0.1371097316727778 -0.2648289762724603 0.9544980538519184
vn 0 -0.34782149138117685 0.9375607767677645
vn -0.0918780190348874 -0.38240195488937145 0.9194167577954035
vn -0.20996670243656407 -0.4055529240037888 0.889629591290607
vn -0.20050440769441635 -0.3872764676341251 0.8998971719657451
vn 0.44466318706782065 0 0.8956978564598044
vn 0.42454813627701327 0 0.9054053677683355
vn 0.3653654168997453 -0.10914758952698715 0.9244430300641159
vn 0.2848284206074148 -0.183352223300861 0.9408797654455732
vn 0.19731063133862783 -0.22001473925508358 0.9553334649593668
vn 0.058934676643804855 -0.24528971489900975 0.9676567881504541
vn 0.11525819636600267 -0.22262244088478478 0.968067558068628
vn 0 -0.30069960155501263 0.953718904931981
vn -0.08108766097310081 -0.3374918520254789 0.9378294306825328
vn -0.1797840868593826 -0.3472549553019353 0.9203758352599164
vn -0.3024572743070104 -0.3372603482658444 0.8915015730251828
vn -0.2888109055208574 -0.32204368911692893 0.9015964303124658
vn 0.4272157139520571 0.1276244230548935 0.8950970564091583
vn 0.4078971724771621 0.12185326144703545 0.9048600330216032
vn 0.3802368378005193 0 0.9248891539960136
vn 0.32209032323801895 -0.09621973169165507 0.9418065549302651
vn 0.24604172787387754 -0.15838409798518369 0.9562311151862067
vn 0.16582899043848034 -0.1849106204119026 0.9686634133635066
vn 0.04762638358211935 -0.1982239079497297 0.9789989836072487
vn 0.09313298422708817 -0.17988736002544342 0.9792684948225556
vn 0 -0.2528270942953792 0.9675114781697195
vn -0.07009756087743256 -0.2917503405727312 0.9539224657878279
vn -0.15863553919733436 -0.30640629234584593 0.9385893402944885
vn -0.25887304206834993 -0.288660932747539 0.9217698270151824
vn -0.37756108619033346 -0.24304685336269852 0.8935188040915907
vn -0.360504727155464 -0.23206717312977063 0.9034274563317861
vn 0.3605047271554641 0.2320671731297703 0.9034274563317863
vn 0.3775610861903336 0.24304685336269818 0.8935188040915909
vn 0.3653654168997453 0.10914758952698674 0.9244430300641159
vn 0.3351663521630515 0 0.9421589655560856
vn 0.2781666134095831 -0.08309817065838301 0.956931569767386
vn 0.2067370370367788 -0.1330825093586592 0.9693032772151634
vn 0.1339759855292529 -0.1493922211756673 0.9796593283145248
vn 0.0362003772511658 -0.15066820653668003 0.9879213654061206
vn 0.07078648306549784 -0.1367248965888871 0.9880767057612359
vn 0 -0.20432260174044872 0.9789036083384378
vn -0.058934676643804855 -0.24528971489900975 0.9676567881504541
vn -0.1371097316727778 -0.2648289762724603 0.9544980538519184
vn -0.2283491606801409 -0.25462479301478674 0.9396929687929202
vn -0.32301154185896125 -0.20793169729646555 0.9232702492148804
vn -0.427215713952057 -0.12762442305489385 0.895097056409158
vn -0.4078971724771621 -0.12185326144703584 0.9048600330216032
vn 0.2888109055208574 0.3220436891169285 0.9015964303124661
vn 0.3024572743070104 0.33726034826584395 0.8915015730251831
vn 0.32301154185896136 0.20793169729646518 0.9232702492148807
vn 0.32209032323801895 0.09621973169165464 0.9418065549302651
vn 0.2894346065837158 0 0.9571977896504618
vn 0.2336877507639477 -0.06981076056066216 0.9698022957555982
vn 0.16699912629621344 -0.10750212947532384 0.9800788662013745
vn 0.10182308561298742 -0.11353966655217143 0.9883019798399029
vn 0.024684641145129194 -0.10273893676072607 0.994402020997952
vn 0.04827140462293134 -0.09323674335789155 0.9944731173761028
vn 0 -0.15530609930530284 0.9878663955811896
vn -0.04762638358211935 -0.1982239079497297 0.9789989836072487
vn -0.11525819636600267 -0.22262244088478478 0.968067558068628
vn -0.19731063133862783 -0.22001473925508358 0.9553334649593668
vn -0.2848284206074148 -0.183352223300861 0.9408797654455732
vn -0.3653654168997453 -0.10914758952698715 0.9244430300641159
vn -0.44466318706782065 0 0.8956978564598044
vn -0.42454813627701327 0 0.9054053677683355
vn 0.20050440769441633 0.38727646763412454 0.8998971719657451
vn 0.20996670243656407 0.40555292400378834 0.8896295912906073
vn 0.2588730420683499 0.2886609327475385 0.9217698270151824
vn 0.28482842060741487 0.1833522233008606 0.9408797654455734
vn 0.27816661340958315 0.08309817065838261 0.9569315697673862
vn 0.2431372981730713 0 0.9699918835934137
vn 0.18874573374040607 -0.05638499792461276 0.9804059261366371
vn 0.1269125080974331 -0.08169719972145655 0.9885437688064658
vn 0.06944218332592801 -0.07743273315999796 0.9945762690765856
vn 0.013107338663620204 -0.05455356409114757 0.9984248125513058
vn 0.025640731985644545 -0.049525358277410746 0.9984436848168926
vn 0 -0.10589919683285975 0.994376870261047
vn -0.0362003772511658 -0.15066820653668003 0.9879213654061206
vn -0.09313298422708817 -0.17988736002544342 0.9792684948225556
vn -0.16582899043848034 -0.1849106204119026 0.9686634133635066
vn -0.24604172787387754 -0.15838409798518369 0.9562311151862067
vn -0.32209032323801895 -0.09621973169165507 0.9418065549302651
vn -0.3802368378005193 0 0.9248891539960136
vn -0.4078971724771621 0.12185326144703545 0.9048600330216032
vn -0.4272157139520571 0.1276244230548935 0.8950970564091583
vn 0.10244212616015828 0.4263703049246053 0.8987290881385143
vn 0.10727250604389443 0.44647487565466165 0.8883427237593705
vn 0.1797840868593826 0.34725495530193484 0.9203758352599166
vn 0.2283491606801409 0.2546247930147863 0.9396929687929204
vn 0.24604172787387754 0.15838409798518324 0.9562311151862067
vn 0.2336877507639477 0.06981076056066174 0.9698022957555982
vn 0.19636848644456673 0 0.9805301716578996
vn 0.14343139913834832 -0.04284800181513215 0.988732260261425
vn 0.08656081345850558 -0.05572166787164905 0.9946870469162666
vn 0.0369049134953636 -0.04115148427991004 0.998471122617705
vn 0.0036935815519113795 -0.01537290934398122 0.9998750077452787
vn 0.007232096923008599 -0.013968870400905012 0.999876276063103
vn 0 -0.05622463249001363 0.9984181442168221
vn -0.024684641145129194 -0.10273893676072607 0.994402020997952
vn -0.07078648306549784 -0.1367248965888871 0.9880767057612359
vn -0.1339759855292529 -0.1493922211756673 0.9796593283145248
vn -0.2067370370367788 -0.1330825093586592 0.9693032772151634
vn -0.2781666134095831 -0.08309817065838301 0.956931569767386
vn -0.3351663521630515 0 0.9421589655560856
vn -0.3653654168997453 0.10914758952698674 0.9244430300641159
vn -0.3605047271554641 0.2320671731297703 0.9034274563317863
vn -0.3775610861903336 0.24304685336269818 0.8935188040915909
vn 0 0.4393489828712661 0.8983164649776737
vn 0 0.46005929649993077 0.8878881932450666
vn 0.0918780190348874 0.382401954889371 0.9194167577954038
vn 0.15863553919733436 0.3064062923458455 0.9385893402944887
vn 0.19731063133862786 0.2200147392550832 0.955333464959367
vn 0.20673703703677884 0.13308250935865878 0.9693032772151636
vn 0.18874573374040607 0.05638499792461233 0.9804059261366371
vn 0.14922104827180993 0 0.9888038626303308
vn 0.09783447627073068 -0.029226603593280106 0.994773452045858
vn 0.04602752973659183 -0.029629239873613412 0.9985006633201897
vn 0.010423079983028768 -0.011622442675715534 0.999878131689016
vn -0.0036935815519113795 -0.01537290934398122 0.9998750077452787
vn 0 -0.01583861938539319 0.9998745612005363
vn -0.007232096923008599 -0.013968870400905012 0.999876276063103
vn -0.010423079983028768 -0.011622442675715534 0.999878131689016
vn 0.013018045458148341 -0.008380089883844949 0.9998801451103969
vn -0.013018045458148341 -0.008380089883844949 0.9998801451103969
vn 0.014735919170940706 -0.004402137196016961 0.9998817299432443
vn -0.014735919170940706 -0.004402137196016961 0.9998817299432443
vn -0.01533998277791928 0 0.9998823355417242
vn 0.01533998277791928 0 0.9998823355417242
vn 0.014735919170940706 0.004402137196016517 0.9998817299432443
vn -0.014735919170940706 0.004402137196016517 0.9998817299432443
vn 0.013018045458148341 0.008380089883844505 0.9998801451103969
vn -0.013018045458148341 0.008380089883844505 0.9998801451103969
vn -0.010423079983028768 0.01162244267571509 0.999878131689016
vn 0.010423079983028768 0.01162244267571509 0.999878131689016
vn -0.007232096923008599 0.013968870400904568 0.999876276063103
vn 0.007232096923008599 0.013968870400904568 0.999876276063103
vn 0.0036935815519113795 0.015372909343980777 0.9998750077452787
vn -0.0036935815519113795 0.015372909343980777 0.9998750077452787
vn 0 0.015838619385392747 0.9998745612005363
vn -0.013107338663620204 -0.05455356409114757 0.9984248125513058
vn -0.04827140462293134 -0.09323674335789155 0.9944731173761028
vn -0.10182308561298742 -0.11353966655217143 0.9883019798399029
vn -0.16699912629621344 -0.10750212947532384 0.9800788662013745
vn -0.2336877507639477 -0.06981076056066216 0.9698022957555982
vn -0.2894346065837158 0 0.9571977896504618
vn -0.32209032323801895 0.09621973169165464 0.9418065549302651
vn -0.32301154185896136 0.20793169729646518 0.9232702492148807
vn -0.2888109055208574 0.3220436891169285 0.9015964303124661
vn -0.3024572743070104 0.33726034826584395 0.8915015730251831
vn -0.10727250604389443 0.44647487565466165 0.8883427237593705
vn -0.10244212616015828 0.4263703049246053 0.8987290881385143
vn 0 0.39407610491727163 0.9190778114682302
vn 0.08108766097310081 0.33749185202547843 0.937829430682533
vn 0.13710973167277776 0.2648289762724598 0.9544980538519184
vn 0.16582899043848034 0.18491062041190215 0.9686634133635066
vn 0.1669991262962135 0.10750212947532341 0.9800788662013747
vn 0.14343139913834832 0.04284800181513171 0.988732260261425
vn 0.10178634714246347 0 0.9948062824165286
vn 0.052044041698878975 -0.015547389706347801 0.9985237585540787
vn -0.052044041698878975 0.015547389706347357 0.9985237585540787
vn -0.04602752973659183 0.02962923987361297 0.9985006633201897
vn -0.05415492746501458 0 0.99853254520384
vn -0.052044041698878975 -0.015547389706347801 0.9985237585540787
vn -0.04602752973659183 -0.029629239873613412 0.9985006633201897
vn -0.0369049134953636 -0.04115148427991004 0.998471122617705
vn -0.025640731985644545 -0.049525358277410746 0.9984436848168926
vn 0.05415492746501458 0 0.99853254520384
vn 0.052044041698878975 0.015547389706347357 0.9985237585540787
vn 0.04602752973659183 0.02962923987361297 0.9985006633201897
vn 0.0369049134953636 0.0411514842799096 0.998471122617705
vn 0.025640731985644545 0.0495253582774103 0.9984436848168926
vn 0.013107338663620207 0.05455356409114714 0.998424812551306
vn 0 0.056224632490013186 0.9984181442168221
vn -0.013107338663620207 0.05455356409114714 0.998424812551306
vn -0.025640731985644545 0.0495253582774103 0.9984436848168926
vn -0.0369049134953636 0.0411514842799096 0.998471122617705
vn -0.06944218332592801 -0.07743273315999796 0.9945762690765856
vn -0.1269125080974331 -0.08169719972145655 0.9885437688064658
vn -0.18874573374040607 -0.05638499792461276 0.9804059261366371
vn -0.2431372981730713 0 0.9699918835934137
vn -0.27816661340958315 0.08309817065838261 0.9569315697673862
vn -0.28482842060741487 0.1833522233008606 0.9408797654455734
vn -0.2588730420683499 0.2886609327475385 0.9217698270151824
vn -0.20050440769441633 0.38727646763412454 0.8998971719657451
vn -0.20996670243656407 0.40555292400378834 0.8896295912906073
vn -0.0918780190348874 0.382401954889371 0.9194167577954038
vn 0 0.3478214913811764 0.9375607767677647
vn 0.07009756087743256 0.29175034057273075 0.9539224657878281
vn 0.11525819636600268 0.2226224408847844 0.9680675580686282
vn 0.1339759855292529 0.14939222117566686 0.9796593283145248
vn 0.12691250809743312 0.08169719972145612 0.988543768806466
vn 0.09783447627073068 0.029226603593279662 0.994773452045858
vn -0.09783447627073068 0.029226603593279662 0.994773452045858
vn -0.08656081345850558 0.0557216678716486 0.9946870469162666
vn -0.10178634714246347 0 0.9948062824165286
vn -0.09783447627073068 -0.029226603593280106 0.994773452045858
vn -0.08656081345850558 -0.05572166787164905 0.9946870469162666
vn 0.08656081345850558 0.0557216678716486 0.9946870469162666
vn 0.06944218332592801 0.07743273315999752 0.9945762690765856
vn 0.048271404622931356 0.09323674335789112 0.9944731173761029
vn 0.024684641145129197 0.10273893676072564 0.9944020209979523
vn 0 0.10589919683285931 0.994376870261047
vn -0.024684641145129197 0.10273893676072564 0.9944020209979523
vn -0.048271404622931356 0.09323674335789112 0.9944731173761029
vn -0.06944218332592801 0.07743273315999752 0.9945762690765856
vn -0.14343139913834832 -0.04284800181513215 0.988732260261425
vn -0.19636848644456673 0 0.9805301716578996
vn -0.2336877507639477 0.06981076056066174 0.9698022957555982
vn -0.24604172787387754 0.15838409798518324 0.9562311151862067
vn -0.2283491606801409 0.2546247930147863 0.9396929687929204
vn -0.1797840868593826 0.34725495530193484 0.9203758352599166
vn -0.08108766097310081 0.33749185202547843 0.937829430682533
vn 0 0.30069960155501213 0.953718904931981
vn 0.058934676643804855 0.2452897148990093 0.9676567881504541
vn 0.09313298422708817 0.17988736002544298 0.9792684948225556
vn 0.10182308561298745 0.11353966655217101 0.9883019798399031
vn -0.14343139913834832 0.04284800181513171 0.988732260261425
vn -0.12691250809743312 0.08169719972145612 0.988543768806466
vn -0.14922104827180993 0 0.9888038626303308
vn 0.07078648306549785 0.13672489658888667 0.9880767057612361
vn 0.0362003772511658 0.1506682065366796 0.9879213654061206
vn 0 0.1553060993053024 0.9878663955811896
vn -0.0362003772511658 0.1506682065366796 0.9879213654061206
vn -0.07078648306549785 0.13672489658888667 0.9880767057612361
vn -0.10182308561298745 0.11353966655217101 0.9883019798399031
vn -0.18874573374040607 0.05638499792461233 0.9804059261366371
vn -0.20673703703677884 0.13308250935865878 0.9693032772151636
vn -0.19731063133862786 0.2200147392550832 0.955333464959367
vn -0.15863553919733436 0.3064062923458455 0.9385893402944887
vn -0.07009756087743256 0.29175034057273075 0.9539224657878281
vn 0 0.25282709429537875 0.9675114781697197
vn 0.047626383582119354 0.1982239079497293 0.9789989836072489
vn -0.1669991262962135 0.10750212947532341 0.9800788662013747
vn 0 0.20432260174044833 0.978903608338438
vn -0.047626383582119354 0.1982239079497293 0.9789989836072489
vn -0.09313298422708817 0.17988736002544298 0.9792684948225556
vn -0.1339759855292529 0.14939222117566686 0.9796593283145248
vn -0.16582899043848034 0.18491062041190215 0.9686634133635066
vn -0.13710973167277776 0.2648289762724598 0.9544980538519184
vn -0.058934676643804855 0.2452897148990093 0.9676567881504541
vn -0.11525819636600268 0.2226224408847844 0.9680675580686282
usemtl material_0_0
f 1//1 2//2 3//3
f 2//2 1//1 4//4
f 5//5 4//4 1//1
f 4//4 5//5 6//6
f 4//4 7//7 2//2
f 7//7 4//4 8//8
f 3//3 9//9 10//10
f 9//9 3//3 2//2
f 11//11 6//6 5//5
f 6//6 11//11 12//12
f 6//6 8//8 4//4
f 8//8 6//6 13//13
f 8//8 14//14 7//7
f 14//14 8//8 15//15
f 2//2 16//16 9//9
f 16//16 2//2 7//7
f 9//9 17//17 10//10
f 17//17 9//9 18//18
f 19//19 12//12 11//11
f 12//12 19//19 20//20
f 12//12 13//13 6//6
f 13//13 12//12 21//21
f 13//13 15//15 8//8
f 15//15 13//13 22//22
f 15//15 23//23 14//14
f 23//23 15//15 24//24
f 7//7 25//25 16//16
f 25//25 7//7 14//14
f 16//16 18//18 9//9
f 18//18 16//16 26//26
f 18//18 27//27 17//17
f 27//27 18//18 28//28
f 29//29 20//20 19//19
f 20//20 29//29 30//30
f 20//20 21//21 12//12
f 21//21 20//20 31//31
f 21//21 22//22 13//13
f 22//22 21//21 32//32
f 22//22 24//24 15//15
f 24//24 22//22 33//33
f 24//24 34//34 23//23
f 34//34 24//24 35//35
f 14//14 36//36 25//25
f 36//36 14//14 23//23
f 25//25 26//26 16//16
f 26//26 25//25 37//37
f 26//26 28//28 18//18
f 28//28 26//26 38//38
f 28//28 39//39 27//27
f 39//39 28//28 40//40
f 41//41 30//30 29//29
f 30//30 41//41 42//42
f 30//30 31//31 20//20
f 31//31 30//30 43//43
f 31//31 32//32 21//21
f 32//32 31//31 44//44
f 32//32 33//33 22//22
f 33//33 32//32 45//45
f 33//33 35//35 24//24
f 35//35 33//33 46//46
f 35//35 47//47 34//34
f 47//47 35//35 48//48
f 23//23 49//49 36//36
f 49//49 23//23 34//34
f 36//36 37//37 25//25
f 37//37 36//36 50//50
f 37//37 38//38 26//26
f 38//38 37//37 51//51
f 38//38 40//40 28//28
f 40//40 38//38 52//52
f 40//40 53//53 39//39
f 53//53 40//40 54//54
f 41//41 55//55 42//42
f 55//55 41//41 56//56
f 42//42 43//43 30//30
f 43//43 42//42 57//57
f 43//43 44//44 31//31
f 44//44 43//43 58//58
f 44//44 45//45 32//32
f 45//45 44//44 59//59
f 45//45 46//46 33//33
f 46//46 45//45 60//60
f 46//46 48//48 35//35
f 48//48 46//46 61//61
f 48//48 62//62 47//47
f 62//62 48//48 63//63
f 34//34 64//64 49//49
f 64//64 34//34 47//47
f 49//49 50//50 36//36
f 50//50 49//49 65//65
f 50//50 51//51 37//37
f 51//51 50//50 66//66
f 51//51 52//52 38//38
f 52//52 51//51 67//67
f 52//52 54//54 40//40
f 54//54 52//52 68//68
f 54//54 69//69 53//53
f 69//69 54//54 70//70
f 56//56 71//71 55//55
f 71//71 56//56 72//72
f 42//42 73//73 57//57
f 73//73 42//42 55//55
f 57//57 58//58 43//43
f 58//58 57//57 74//74
f 58//58 59//59 44//44
f 59//59 58//58 75//75
f 59//59 60//60 45//45
f 60//60 59//59 76//76
f 60//60 61//61 46//46
f 61//61 60//60 77//77
f 61//61 63//63 48//48
f 63//63 61//61 78//78
f 63//63 79//79 62//62
f 79//79 63//63 80//80
f 47//47 81//81 64//64
f 81//81 47//47 62//62
f 64//64 65//65 49//49
f 65//65 64//64 82//82
f 65//65 66//66 50//50
f 66//66 65//65 83//83
f 66//66 67//67 51//51
f 67//67 66//66 84//84
f 67//67 68//68 52//52
f 68//68 67//67 85//85
f 68//68 70//70 54//54
f 70//70 68//68 86//86
f 70//70 87//87 69//69
f 87//87 70//70 88//88
f 72//72 89//89 71//71
f 89//89 72//72 90//90
f 55//55 91//91 73//73
f 91//91 55//55 71//71
f 57//57 92//92 74//74
f 92//92 57//57 73//73
f 74//74 75//75 58//58
f 75//75 74//74 93//93
f 75//75 76//76 59//59
f 76//76 75//75 94//94
f 76//76 77//77 60//60
f 77//77 76//76 95//95
f 77//77 78//78 61//61
f 78//78 77//77 96//96
f 78//78 80//80 63//63
f 80//80 78//78 97//97
f 80//80 98//98 79//79
f 98//98 80//80 99//99
f 62//62 100//100 81//81
f 100//100 62//62 79//79
f 81//81 82//82 64//64
f 82//82 81//81 101//101
f 82//82 83//83 65//65
f 83//83 82//82 102//102
f 83//83 84//84 66//66
f 84//84 83//83 103//103
f 84//84 85//85 67//67
f 85//85 84//84 104//104
f 85//85 86//86 68//68
f 86//86 85//85 105//105
f 86//86 88//88 70//70
f 88//88 86//86 106//106
f 107//107 87//87 88//88
f 87//87 107//107 108//108
f 90//90 109//109 89//89
f 109//109 90//90 110//110
f 71//71 111//111 91//91
f 111//111 71//71 89//89
f 73//73 112//112 92//92
f 112//112 73//73 91//91
f 74//74 113//113 93//93
f 113//113 74//74 92//92
f 75//75 114//114 94//94
f 114//114 75//75 93//93
f 94//94 95//95 76//76
f 95//95 94//94 115//115
f 95//95 96//96 77//77
f 96//96 95//95 116//116
f 96//96 97//97 78//78
f 97//97 96//96 117//117
f 97//97 99//99 80//80
f 99//99 97//97 118//118
f 99//99 119//119 98//98
f 119//119 99//99 120//120
f 79//79 121//121 100//100
f 121//121 79//79 98//98
f 100//100 101//101 81//81
f 101//101 100//100 122//122
f 101//101 102//102 82//82
f 102//102 101//101 123//123
f 102//102 103//103 83//83
f 103//103 102//102 124//124
f 103//103 104//104 84//84
f 104//104 103//103 125//125
f 104//104 105//105 85//85
f 105//105 104//104 126//126
f 105//105 106//106 86//86
f 106//106 105//105 127//127
f 128//128 88//88 106//106
f 88//88 128//128 107//107
f 129//129 108//108 107//107
f 108//108 129//129 130//130
f 110//110 131//131 109//109
f 131//131 110//110 132//132
f 89//89 133//133 111//111
f 133//133 89//89 109//109
f 91//91 134//134 112//112
f 134//134 91//91 111//111
f 92//92 135//135 113//113
f 135//135 92//92 112//112
f 93//93 136//136 114//114
f 136//136 93//93 113//113
f 114//114 115//115 94//94
f 115//115 114//114 137//137
f 115//115 116//116 95//95
f 116//116 115//115 138//138
f 116//116 117//117 96//96
f 117//117 116//116 139//139
f 117//117 118//118 97//97
f 118//118 117//117 140//140
f 118//118 120//120 99//99
f 120//120 118//118 141//141
f 119//119 142//142 143//143
f 142//142 119//119 120//120
f 142//142 120//120 144//144
f 144//144 120//120 141//141
f 144//144 141//141 145//145
f 145//145 141//141 146//146
f 145//145 146//146 147//147
f 147//147 146//146 148//148
f 147//147 148//148 149//149
f 149//149 148//148 150//150
f 150//150 148//148 151//151
f 150//150 151//151 152//152
f 150//150 152//152 153//153
f 153//153 152//152 154//154
f 153//153 154//154 155//155
f 155//155 154//154 156//156
f 156//156 154//154 157//157
f 156//156 157//157 158//158
f 158//158 157//157 159//159
f 158//158 159//159 160//160
f 158//158 160//160 161//161
f 161//161 160//160 162//162
f 98//98 143//143 121//121
f 143//143 98//98 119//119
f 121//121 122//122 100//100
f 122//122 121//121 163//163
f 122//122 123//123 101//101
f 123//123 122//122 164//164
f 123//123 124//124 102//102
f 124//124 123//123 165//165
f 124//124 125//125 103//103
f 125//125 124//124 166//166
f 125//125 126//126 104//104
f 126//126 125//125 167//167
f 126//126 127//127 105//105
f 127//127 126//126 168//168
f 169//169 106//106 127//127
f 106//106 169//169 128//128
f 170//170 107//107 128//128
f 107//107 170//170 129//129
f 171//171 130//130 129//129
f 130//130 171//171 172//172
f 131//131 173//173 174//174
f 173//173 131//131 132//132
f 109//109 175//175 133//133
f 175//175 109//109 131//131
f 111//111 176//176 134//134
f 176//176 111//111 133//133
f 112//112 177//177 135//135
f 177//177 112//112 134//134
f 113//113 178//178 136//136
f 178//178 113//113 135//135
f 114//114 179//179 137//137
f 179//179 114//114 136//136
f 137//137 138//138 115//115
f 138//138 137//137 180//180
f 138//138 139//139 116//116
f 139//139 138//138 181//181
f 139//139 140//140 117//117
f 140//140 139//139 182//182
f 140//140 141//141 118//118
f 141//141 140//140 146//146
f 155//155 183//183 153//153
f 183//183 155//155 184//184
f 153//153 185//185 150//150
f 185//185 153//153 183//183
f 149//149 185//185 186//186
f 185//185 149//149 150//150
f 147//147 186//186 187//187
f 186//186 147//147 149//149
f 145//145 187//187 188//188
f 187//187 145//145 147//147
f 144//144 188//188 189//189
f 188//188 144//144 145//145
f 142//142 189//189 163//163
f 189//189 142//142 144//144
f 143//143 163//163 121//121
f 163//163 143//143 142//142
f 182//182 146//146 140//140
f 146//146 182//182 148//148
f 190//190 148//148 182//182
f 148//148 190//190 151//151
f 191//191 151//151 190//190
f 151//151 191//191 152//152
f 191//191 154//154 152//152
f 154//154 191//191 192//192
f 192//192 157//157 154//154
f 157//157 192//192 193//193
f 193//193 159//159 157//157
f 159//159 193//193 194//194
f 194//194 160//160 159//159
f 160//160 194//194 195//195
f 195//195 162//162 160//160
f 162//162 195//195 196//196
f 162//162 197//197 161//161
f 197//197 162//162 196//196
f 161//161 198//198 158//158
f 198//198 161//161 197//197
f 158//158 199//199 156//156
f 199//199 158//158 198//198
f 156//156 184//184 155//155
f 184//184 156//156 199//199
f 163//163 164//164 122//122
f 164//164 163//163 189//189
f 164//164 165//165 123//123
f 165//165 164//164 200//200
f 165//165 166//166 124//124
f 166//166 165//165 201//201
f 166//166 167//167 125//125
f 167//167 166//166 202//202
f 167//167 168//168 126//126
f 168//168 167//167 203//203
f 204//204 127//127 168//168
f 127//127 204//204 169//169
f 205//205 128//128 169//169
f 128//128 205//205 170//170
f 206//206 129//129 170//170
f 129//129 206//206 171//171
f 207//207 172//172 171//171
f 172//172 207//207 208//208
f 174//174 208//208 207//207
f 208//208 174//174 173//173
f 175//175 174//174 209//209
f 174//174 175//175 131//131
f 133//133 210//210 176//176
f 210//210 133//133 175//175
f 134//134 211//211 177//177
f 211//211 134//134 176//176
f 135//135 212//212 178//178
f 212//212 135//135 177//177
f 136//136 213//213 179//179
f 213//213 136//136 178//178
f 137//137 214//214 180//180
f 214//214 137//137 179//179
f 180//180 181//181 138//138
f 181//181 180//180 215//215
f 181//181 182//182 139//139
f 182//182 181//181 190//190
f 184//184 216//216 183//183
f 216//216 184//184 217//217
f 183//183 218//218 185//185
f 218//218 183//183 216//216
f 186//186 218//218 219//219
f 218//218 186//186 185//185
f 187//187 219//219 220//220
f 219//219 187//187 186//186
f 188//188 220//220 200//200
f 220//220 188//188 187//187
f 189//189 200//200 164//164
f 200//200 189//189 188//188
f 181//181 191//191 190//190
f 191//191 181//181 215//215
f 215//215 192//192 191//191
f 192//192 215//215 221//221
f 221//221 193//193 192//192
f 193//193 221//221 222//222
f 222//222 194//194 193//193
f 194//194 222//222 223//223
f 223//223 195//195 194//194
f 195//195 223//223 224//224
f 224//224 196//196 195//195
f 196//196 224//224 225//225
f 196//196 226//226 197//197
f 226//226 196//196 225//225
f 197//197 227//227 198//198
f 227//227 197//197 226//226
f 198//198 228//228 199//199
f 228//228 198//198 227//227
f 199//199 217//217 184//184
f 217//217 199//199 228//228
f 200//200 201//201 165//165
f 201//201 200//200 220//220
f 201//201 202//202 166//166
f 202//202 201//201 229//229
f 202//202 203//203 167//167
f 203//203 202//202 230//230
f 231//231 168//168 203//203
f 168//168 231//231 204//204
f 232//232 169//169 204//204
f 169//169 232//232 205//205
f 233//233 170//170 205//205
f 170//170 233//233 206//206
f 234//234 171//171 206//206
f 171//171 234//234 207//207
f 209//209 207//207 234//234
f 207//207 209//209 174//174
f 210//210 209//209 235//235
f 209//209 210//210 175//175
f 176//176 236//236 211//211
f 236//236 176//176 210//210
f 177//177 237//237 212//212
f 237//237 177//177 211//211
f 178//178 238//238 213//213
f 238//238 178//178 212//212
f 179//179 239//239 214//214
f 239//239 179//179 213//213
f 180//180 221//221 215//215
f 221//221 180//180 214//214
f 217//217 240//240 216//216
f 240//240 217//217 241//241
f 216//216 242//242 218//218
f 242//242 216//216 240//240
f 219//219 242//242 229//229
f 242//242 219//219 218//218
f 220//220 229//229 201//201
f 229//229 220//220 219//219
f 214//214 222//222 221//221
f 222//222 214//214 239//239
f 239//239 223//223 222//222
f 223//223 239//239 243//243
f 243//243 224//224 223//223
f 224//224 243//243 244//244
f 244//244 225//225 224//224
f 225//225 244//244 245//245
f 225//225 246//246 226//226
f 246//246 225//225 245//245
f 226//226 247//247 227//227
f 247//247 226//226 246//246
f 227//227 248//248 228//228
f 248//248 227//227 247//247
f 228//228 241//241 217//217
f 241//241 228//228 248//248
f 229//229 230//230 202//202
f 230//230 229//229 242//242
f 249//249 203//203 230//230
f 203//203 249//249 231//231
f 250//250 204//204 231//231
f 204//204 250//250 232//232
f 251//251 205//205 232//232
f 205//205 251//251 233//233
f 252//252 206//206 233//233
f 206//206 252//252 234//234
f 235//235 234//234 252//252
f 234//234 235//235 209//209
f 236//236 235//235 253//253
f 235//235 236//236 210//210
f 211//211 254//254 237//237
f 254//254 211//211 236//236
f 212//212 255//255 238//238
f 255//255 212//212 237//237
f 213//213 243//243 239//239
f 243//243 213//213 238//238
f 241//241 249//249 240//240
f 249//249 241//241 256//256
f 240//240 230//230 242//242
f 230//230 240//240 249//249
f 238//238 244//244 243//243
f 244//244 238//238 255//255
f 255//255 245//245 244//244
f 245//245 255//255 257//257
f 245//245 258//258 246//246
f 258//258 245//245 257//257
f 246//246 259//259 247//247
f 259//259 246//246 258//258
f 247//247 260//260 248//248
f 260//260 247//247 259//259
f 248//248 256//256 241//241
f 256//256 248//248 260//260
f 256//256 231//231 249//249
f 231//231 256//256 250//250
f 261//261 232//232 250//250
f 232//232 261//261 251//251
f 262//262 233//233 251//251
f 233//233 262//262 252//252
f 253//253 252//252 262//262
f 252//252 253//253 235//235
f 254//254 253//253 263//263
f 253//253 254//254 236//236
f 237//237 257//257 255//255
f 257//257 237//237 254//254
f 257//257 263//263 258//258
f 263//263 257//257 254//254
f 258//258 264//264 259//259
f 264//264 258//258 263//263
f 259//259 261//261 260//260
f 261//261 259//259 264//264
f 260//260 250//250 256//256
f 250//250 260//260 261//261
f 264//264 251//251 261//261
f 251//251 264//264 262//262
f 263//263 262//262 264//264
f 262//262 263//263 253//253
