# SSTK version 0.8.0
# 71
mtllib original-71.mtl
o #ID547
v -0.272402 0.416968 0.482718
v -0.295702 0.411986 0.440835
v -0.295702 0.411986 0.484345
v -0.272402 0.416968 0.440835
v -0.272402 0.416968 0.440835
v -0.272402 0.416968 0.482718
v -0.295702 0.411986 0.440835
v -0.295702 0.411986 0.484345
v -0.319082 0.407564 0.440835
v -0.319082 0.407564 0.485788
v -0.319082 0.407564 0.440835
v -0.319082 0.407564 0.485788
v -0.249190 0.422507 0.480909
v -0.249190 0.422507 0.440835
v -0.249190 0.422507 0.440835
v -0.249190 0.422507 0.480909
v -0.342532 0.403705 0.440835
v -0.342532 0.403705 0.487050
v -0.342532 0.403705 0.440835
v -0.342532 0.403705 0.487050
v -0.226077 0.428603 0.440835
v -0.226077 0.428603 0.478917
v -0.226077 0.428603 0.478917
v -0.226077 0.428603 0.440835
v -0.366043 0.400409 0.440835
v -0.366043 0.400409 0.488126
v -0.366043 0.400409 0.440835
v -0.366043 0.400409 0.488126
v -0.203072 0.435252 0.476746
v -0.203072 0.435252 0.440835
v -0.203072 0.435252 0.440835
v -0.203072 0.435252 0.476746
v -0.389605 0.397678 0.440835
v -0.389605 0.397678 0.489018
v -0.389605 0.397678 0.440835
v -0.389605 0.397678 0.489018
v -0.187042 0.439855 0.475242
v -0.186039 0.440143 0.440835
v -0.186039 0.440143 0.475135
v -0.186039 0.440143 0.475135
v -0.187042 0.439855 0.475242
v -0.186039 0.440143 0.440835
v -0.413208 0.395512 0.440835
v -0.413208 0.395512 0.489725
v -0.413208 0.395512 0.440835
v -0.413208 0.395512 0.489725
v -0.168915 0.444563 0.473475
v -0.168915 0.444563 0.440835
v -0.168915 0.444563 0.440835
v -0.168915 0.444563 0.473475
v -0.436843 0.393914 0.440835
v -0.436843 0.393914 0.490247
v -0.436843 0.393914 0.440835
v -0.436843 0.393914 0.490247
v -0.155701 0.447594 0.472337
v -0.155701 0.447594 0.440835
v -0.155701 0.447594 0.440835
v -0.155701 0.447594 0.472337
v -0.460500 0.392883 0.440835
v -0.460500 0.392883 0.490583
v -0.460500 0.392883 0.440835
v -0.460500 0.392883 0.490583
v -0.484170 0.392420 0.440835
v -0.484170 0.392420 0.490736
v -0.484170 0.392420 0.440835
v -0.484170 0.392420 0.490736
vn -0.22009669109373256 0.9754780605270372 0
vn -0.19746220031208014 0.9803105015493367 0
vn -0.19698430829598937 0.9804066412898019 0
vn -0.22062620787889298 0.9753584348315134 0
vn -0.17412350387087958 0.9847238218910559 0
vn -0.17369899834269964 0.984798790603818 0
vn -0.24301750099808989 0.9700219039839478 0
vn -0.24359679753994032 0.9698765902053134 0
vn -0.15062959565808312 0.9885902715037621 0
vn -0.15026000228678824 0.988646515046088 0
vn -0.26635570146528526 0.9638748053025018 0
vn -0.26572859437288215 0.9640478795851439 0
vn -0.12700070344887876 0.99190262693648 0
vn -0.1266873005026585 0.9919427039357411 0
vn -0.27687039202759334 0.9609072723309396 0
vn -0.27682221510922683 0.9609211524480148 0
vn -0.10325719888565194 0.9946546892657215 0
vn -0.10300120325304173 0.9946812314145802 0
vn -0.2759834005175627 0.9611624018025063 0
vn -0.26297901461594675 0.9648015536221041 0
vn -0.26379279205506245 0.9645793709487026 0
vn -0.0794200630200336 0.9968412379059637 0
vn -0.0792224669023263 0.996856961021946 0
vn -0.2375182917105524 0.9713830660984888 0
vn -0.23677719425391006 0.9715639764221634 0
vn -0.05551071951454409 0.9984580912682202 0
vn -0.05537223892765411 0.9984657806635834 0
vn -0.22358410902721193 0.9746846393529076 0
vn -0.0315507484598439 0.9995021512091025 0
vn -0.031471901165864485 0.9995046370262652 0
vn -0.019559409930415068 0.9998086964430615 0
vn 0.22062620787889298 -0.9753584348315134 0
vn 0.22009669109373256 -0.9754780605270372 0
vn 0.19746220031208014 -0.9803105015493367 0
vn 0.19698430829598937 -0.9804066412898019 0
vn 0.17412350387087958 -0.9847238218910559 0
vn 0.17369899834269964 -0.984798790603818 0
vn 0.24359679753994032 -0.9698765902053134 0
vn 0.24301750099808989 -0.9700219039839478 0
vn 0.15062959565808312 -0.9885902715037621 0
vn 0.15026000228678824 -0.988646515046088 0
vn 0.26572859437288215 -0.9640478795851439 0
vn 0.26635570146528526 -0.9638748053025018 0
vn 0.12700070344887876 -0.99190262693648 0
vn 0.1266873005026585 -0.9919427039357411 0
vn 0.27682221510922683 -0.9609211524480148 0
vn 0.27687039202759334 -0.9609072723309396 0
vn 0.10325719888565194 -0.9946546892657215 0
vn 0.10300120325304173 -0.9946812314145802 0
vn 0.26379279205506245 -0.9645793709487026 0
vn 0.2759834005175627 -0.9611624018025063 0
vn 0.26297901461594675 -0.9648015536221041 0
vn 0.0794200630200336 -0.9968412379059637 0
vn 0.0792224669023263 -0.996856961021946 0
vn 0.23677719425391006 -0.9715639764221634 0
vn 0.2375182917105524 -0.9713830660984888 0
vn 0.05551071951454409 -0.9984580912682202 0
vn 0.05537223892765411 -0.9984657806635834 0
vn 0.22358410902721193 -0.9746846393529076 0
vn 0.0315507484598439 -0.9995021512091025 0
vn 0.031471901165864485 -0.9995046370262652 0
vn 0.019559409930415068 -0.9998086964430615 0
usemtl material_0_0
f 5//32 6//33 7//34
f 8//35 7//34 6//33
f 7//34 8//35 11//36
f 12//37 11//36 8//35
f 15//38 16//39 5//32
f 6//33 5//32 16//39
f 11//36 12//37 19//40
f 20//41 19//40 12//37
f 23//42 16//39 24//43
f 15//38 24//43 16//39
f 19//40 20//41 27//44
f 28//45 27//44 20//41
f 31//46 32//47 24//43
f 23//42 24//43 32//47
f 27//44 28//45 35//48
f 36//49 35//48 28//45
f 40//50 41//51 42//52
f 42//52 41//51 31//46
f 32//47 31//46 41//51
f 35//48 36//49 45//53
f 46//54 45//53 36//49
f 49//55 50//56 42//52
f 40//50 42//52 50//56
f 45//53 46//54 53//57
f 54//58 53//57 46//54
f 57//59 58//59 49//55
f 50//56 49//55 58//59
f 53//57 54//58 61//60
f 62//61 61//60 54//58
f 61//60 62//61 65//62
f 66//62 65//62 62//61
usemtl material_1_0
f 1//1 2//2 3//3
f 2//2 1//1 4//4
f 3//3 9//5 10//6
f 9//5 3//3 2//2
f 13//7 4//4 1//1
f 4//4 13//7 14//8
f 10//6 17//9 18//10
f 17//9 10//6 9//5
f 13//7 21//11 14//8
f 21//11 13//7 22//12
f 18//10 25//13 26//14
f 25//13 18//10 17//9
f 29//15 21//11 22//12
f 21//11 29//15 30//16
f 26//14 33//17 34//18
f 33//17 26//14 25//13
f 37//19 30//16 29//15
f 30//16 37//19 38//20
f 38//20 37//19 39//21
f 34//18 43//22 44//23
f 43//22 34//18 33//17
f 47//24 38//20 39//21
f 38//20 47//24 48//25
f 44//23 51//26 52//27
f 51//26 44//23 43//22
f 55//28 48//25 47//24
f 48//25 55//28 56//28
f 52//27 59//29 60//30
f 59//29 52//27 51//26
f 60//30 63//31 64//31
f 63//31 60//30 59//29
