# SSTK version 0.8.0
# 56
mtllib original-56.mtl
o #ID440
v 0.075424 0.485826 0.458066
v 0.075375 0.485496 0.458105
v 0.074750 0.481141 0.459739
v 0.074750 0.481141 0.459739
v 0.075375 0.485496 0.458105
v 0.075424 0.485826 0.458066
vn -0.9811297191532515 0.1726956033712997 0.08695230169745072
vn -0.9770109245987784 0.19337770486878414 0.08974807225964002
vn -0.9886965654279819 0.14877809479763643 0.01855208935128415
vn 0.9886965654279819 -0.14877809479763643 -0.01855208935128415
vn 0.9770109245987784 -0.19337770486878414 -0.08974807225964002
vn 0.9811297191532515 -0.1726956033712997 -0.08695230169745072
usemtl material_0_0
f 1//1 2//2 3//3
f 4//4 5//5 6//6
