# SSTK version 0.8.0
# 20
mtllib original-20.mtl
o #ID198
v 0.186954 0.521990 0.444400
v 0.151518 0.522825 0.446625
v 0.151518 0.521990 0.444400
v 0.186954 0.522825 0.446625
v 0.186954 0.522825 0.446625
v 0.186954 0.521990 0.444400
v 0.151518 0.522825 0.446625
v 0.151518 0.521990 0.444400
v 0.186954 0.521990 0.444400
v 0.186954 0.541503 0.439611
v 0.186954 0.522825 0.446625
v 0.186954 0.540667 0.437387
v 0.186954 0.540667 0.437387
v 0.186954 0.521990 0.444400
v 0.186954 0.541503 0.439611
v 0.186954 0.522825 0.446625
v 0.186954 0.522825 0.446625
v 0.151599 0.523117 0.447171
v 0.151518 0.522825 0.446625
v 0.186873 0.523117 0.447171
v 0.186873 0.523117 0.447171
v 0.186954 0.522825 0.446625
v 0.151599 0.523117 0.447171
v 0.151518 0.522825 0.446625
v 0.151518 0.541503 0.439611
v 0.151518 0.521990 0.444400
v 0.151518 0.522825 0.446625
v 0.151518 0.540667 0.437387
v 0.151518 0.540667 0.437387
v 0.151518 0.541503 0.439611
v 0.151518 0.521990 0.444400
v 0.151518 0.522825 0.446625
v 0.186954 0.541503 0.439611
v 0.151518 0.540667 0.437387
v 0.151518 0.541503 0.439611
v 0.186954 0.540667 0.437387
v 0.186954 0.540667 0.437387
v 0.186954 0.541503 0.439611
v 0.151518 0.540667 0.437387
v 0.151518 0.541503 0.439611
v 0.186873 0.541643 0.440215
v 0.186954 0.541503 0.439611
v 0.186954 0.541503 0.439611
v 0.186873 0.541643 0.440215
v 0.151837 0.523541 0.447624
v 0.186636 0.523541 0.447624
v 0.186636 0.523541 0.447624
v 0.151837 0.523541 0.447624
v 0.151599 0.541643 0.440215
v 0.151518 0.541503 0.439611
v 0.151518 0.541503 0.439611
v 0.151599 0.541643 0.440215
v 0.186636 0.541622 0.440835
v 0.186636 0.541622 0.440835
v 0.186258 0.524067 0.447952
v 0.152214 0.524067 0.447952
v 0.152214 0.524067 0.447952
v 0.186258 0.524067 0.447952
v 0.151837 0.541622 0.440835
v 0.151837 0.541622 0.440835
v 0.186258 0.541442 0.441428
v 0.186258 0.541442 0.441428
v 0.185766 0.524661 0.448133
v 0.152706 0.524661 0.448133
v 0.152706 0.524661 0.448133
v 0.185766 0.524661 0.448133
v 0.152214 0.541442 0.441428
v 0.152214 0.541442 0.441428
v 0.185766 0.541114 0.441955
v 0.185766 0.541114 0.441955
v 0.185193 0.525281 0.448154
v 0.153279 0.525281 0.448154
v 0.153279 0.525281 0.448154
v 0.185193 0.525281 0.448154
v 0.152706 0.541114 0.441955
v 0.152706 0.541114 0.441955
v 0.185193 0.540661 0.442379
v 0.185193 0.540661 0.442379
v 0.184578 0.525885 0.448014
v 0.153894 0.525885 0.448014
v 0.153894 0.525885 0.448014
v 0.184578 0.525885 0.448014
v 0.153279 0.540661 0.442379
v 0.153279 0.540661 0.442379
v 0.184578 0.540114 0.442671
v 0.184578 0.540114 0.442671
v 0.184578 0.540114 0.442671
v 0.153894 0.525885 0.448014
v 0.184578 0.525885 0.448014
v 0.153894 0.540114 0.442671
v 0.153894 0.540114 0.442671
v 0.184578 0.540114 0.442671
v 0.153894 0.525885 0.448014
v 0.184578 0.525885 0.448014
v 0.153894 0.540114 0.442671
v 0.153894 0.540114 0.442671
vn 0 -0.9361722540249108 0.3515416202868696
vn 1 0 0
vn 0.6951606053681553 -0.5864442045286278 0.4157342032103742
vn -0.6684175835289575 -0.511065187406411 0.5403982866835891
vn -0.6951606053681553 -0.5864442045286278 0.4157342032103742
vn 0.6684175835289575 -0.511065187406411 0.5403982866835891
vn -1 0 0
vn 0 0.9361722540249108 -0.3515416202868696
vn 0.6684176021737067 0.7404427024079339 0.07044511022908902
vn 0.6951606289408525 0.7151360297724663 -0.07302163304002862
vn -0.5679292030593381 -0.3222501017359067 0.7573713040798303
vn 0.5679292030593381 -0.3222501017359067 0.7573713040798303
vn -0.6684176021737067 0.7404427024079339 0.07044511022908902
vn -0.6951606289408525 0.7151360297724663 -0.07302163304002862
vn 0.5679292114881035 0.7411089149911919 0.35806980724305604
vn 0.4371139952321136 -0.13288729855051207 0.8895348902972648
vn -0.4371139952321136 -0.13288729855051207 0.8895348902972648
vn -0.5679292114881035 0.7411089149911919 0.35806980724305604
vn 0.4371139956596503 0.6855405931928834 0.5822073942189369
vn 0.299554591912497 0.03800341897396723 0.9533219742618056
vn -0.299554591912497 0.03800341897396723 0.9533219742618056
vn -0.4371139956596503 0.6855405931928834 0.5822073942189369
vn 0.2995545997936698 0.5988728995875022 0.7427100994884288
vn 0.1646164982887506 0.18777319804802792 0.9683194899339608
vn -0.1646164982887506 0.18777319804802792 0.9683194899339608
vn -0.2995545997936698 0.5988728995875022 0.7427100994884288
vn 0.1646164922795838 0.49599207673826456 0.8525803600144851
vn 0.06554286278416814 0.2886688122622428 0.9551829405748209
vn -0.06554286278416814 0.2886688122622428 0.9551829405748209
vn -0.1646164922795838 0.49599207673826456 0.8525803600144851
vn 0.06554285769579009 0.41138758553735066 0.9091008680398551
vn 0 0.3515416202868696 0.9361722540249108
vn -0.06554285769579009 0.41138758553735066 0.9091008680398551
vn -0.6684175835289575 0.511065187406411 -0.5403982866835891
vn -0.6951606053681553 0.5864442045286278 -0.4157342032103742
vn 0.6684175835289575 0.511065187406411 -0.5403982866835891
vn 0.6951606053681553 0.5864442045286278 -0.4157342032103742
vn -0.6951606289408525 -0.7151360297724663 0.07302163304002862
vn -0.6684176021737067 -0.7404427024079339 -0.07044511022908902
vn -0.5679292030593381 0.3222501017359067 -0.7573713040798303
vn 0.5679292030593381 0.3222501017359067 -0.7573713040798303
vn 0.6951606289408525 -0.7151360297724663 0.07302163304002862
vn 0.6684176021737067 -0.7404427024079339 -0.07044511022908902
vn -0.5679292114881035 -0.7411089149911919 -0.35806980724305604
vn 0.4371139952321136 0.13288729855051207 -0.8895348902972648
vn -0.4371139952321136 0.13288729855051207 -0.8895348902972648
vn 0.5679292114881035 -0.7411089149911919 -0.35806980724305604
vn -0.4371139956596503 -0.6855405931928834 -0.5822073942189369
vn 0.299554591912497 -0.03800341897396723 -0.9533219742618056
vn -0.299554591912497 -0.03800341897396723 -0.9533219742618056
vn 0.4371139956596503 -0.6855405931928834 -0.5822073942189369
vn -0.2995545997936698 -0.5988728995875022 -0.7427100994884288
vn 0.1646164982887506 -0.18777319804802792 -0.9683194899339608
vn -0.1646164982887506 -0.18777319804802792 -0.9683194899339608
vn 0.2995545997936698 -0.5988728995875022 -0.7427100994884288
vn -0.1646164922795838 -0.49599207673826456 -0.8525803600144851
vn 0.06554286278416814 -0.2886688122622428 -0.9551829405748209
vn -0.06554286278416814 -0.2886688122622428 -0.9551829405748209
vn 0.1646164922795838 -0.49599207673826456 -0.8525803600144851
vn -0.06554285769579009 -0.41138758553735066 -0.9091008680398551
vn 0 -0.3515416202868696 -0.9361722540249108
vn 0.06554285769579009 -0.41138758553735066 -0.9091008680398551
usemtl material_0_0
f 5//8 6//8 7//8
f 8//8 7//8 6//8
f 13//7 14//7 15//7
f 16//7 15//7 14//7
f 21//34 22//35 23//36
f 24//37 23//36 22//35
f 29//2 30//2 31//2
f 32//2 31//2 30//2
f 37//1 38//1 39//1
f 40//1 39//1 38//1
f 43//38 22//35 44//39
f 21//34 44//39 22//35
f 47//40 21//34 48//41
f 23//36 48//41 21//34
f 51//42 52//43 24//37
f 23//36 24//37 52//43
f 44//39 52//43 43//38
f 51//42 43//38 52//43
f 44//39 21//34 54//44
f 47//40 54//44 21//34
f 57//45 58//46 48//41
f 47//40 48//41 58//46
f 52//43 60//47 23//36
f 48//41 23//36 60//47
f 54//44 60//47 44//39
f 52//43 44//39 60//47
f 54//44 47//40 62//48
f 58//46 62//48 47//40
f 65//49 66//50 57//45
f 58//46 57//45 66//50
f 60//47 68//51 48//41
f 57//45 48//41 68//51
f 62//48 68//51 54//44
f 60//47 54//44 68//51
f 70//52 62//48 66//50
f 58//46 66//50 62//48
f 73//53 74//54 65//49
f 66//50 65//49 74//54
f 76//55 65//49 68//51
f 57//45 68//51 65//49
f 70//52 76//55 62//48
f 68//51 62//48 76//55
f 78//56 70//52 74//54
f 66//50 74//54 70//52
f 81//57 82//58 73//53
f 74//54 73//53 82//58
f 84//59 73//53 76//55
f 65//49 76//55 73//53
f 70//52 78//56 76//55
f 84//59 76//55 78//56
f 86//60 78//56 82//58
f 74//54 82//58 78//56
f 91//61 92//61 93//61
f 94//61 93//61 92//61
f 96//62 81//57 84//59
f 73//53 84//59 81//57
f 78//56 86//60 84//59
f 96//62 84//59 86//60
usemtl material_1_0
f 1//1 2//1 3//1
f 2//1 1//1 4//1
f 9//2 10//2 11//2
f 10//2 9//2 12//2
f 17//3 18//4 19//5
f 18//4 17//3 20//6
f 25//7 26//7 27//7
f 26//7 25//7 28//7
f 33//8 34//8 35//8
f 34//8 33//8 36//8
f 17//3 41//9 20//6
f 41//9 17//3 42//10
f 20//6 45//11 18//4
f 45//11 20//6 46//12
f 49//13 19//5 18//4
f 19//5 49//13 50//14
f 49//13 42//10 50//14
f 42//10 49//13 41//9
f 20//6 53//15 46//12
f 53//15 20//6 41//9
f 55//16 45//11 46//12
f 45//11 55//16 56//17
f 59//18 18//4 45//11
f 18//4 59//18 49//13
f 59//18 41//9 49//13
f 41//9 59//18 53//15
f 46//12 61//19 55//16
f 61//19 46//12 53//15
f 63//20 56//17 55//16
f 56//17 63//20 64//21
f 67//22 45//11 56//17
f 45//11 67//22 59//18
f 67//22 53//15 59//18
f 53//15 67//22 61//19
f 61//19 63//20 55//16
f 63//20 61//19 69//23
f 71//24 64//21 63//20
f 64//21 71//24 72//25
f 64//21 67//22 56//17
f 67//22 64//21 75//26
f 75//26 61//19 67//22
f 61//19 75//26 69//23
f 69//23 71//24 63//20
f 71//24 69//23 77//27
f 79//28 72//25 71//24
f 72//25 79//28 80//29
f 72//25 75//26 64//21
f 75//26 72//25 83//30
f 77//27 75//26 83//30
f 75//26 77//27 69//23
f 77//27 79//28 71//24
f 79//28 77//27 85//31
f 87//32 88//32 89//32
f 88//32 87//32 90//32
f 80//29 83//30 72//25
f 83//30 80//29 95//33
f 85//31 83//30 95//33
f 83//30 85//31 77//27
