# SSTK version 0.8.0
# 6
mtllib original-6.mtl
o #ID112
v 0.179449 0.444563 0.473475
v 0.166235 0.447594 0.440835
v 0.166235 0.447594 0.472337
v 0.179449 0.444563 0.440835
v 0.179449 0.444563 0.440835
v 0.179449 0.444563 0.473475
v 0.166235 0.447594 0.440835
v 0.166235 0.447594 0.472337
v 0.196573 0.440143 0.475135
v 0.196573 0.440143 0.440835
v 0.196573 0.440143 0.440835
v 0.196573 0.440143 0.475135
v 0.166235 0.447594 0.472337
v 0.162244 0.448509 0.440835
v 0.162244 0.448509 0.471993
v 0.166235 0.447594 0.440835
v 0.166235 0.447594 0.440835
v 0.166235 0.447594 0.472337
v 0.162244 0.448509 0.440835
v 0.162244 0.448509 0.471993
v 0.197575 0.439855 0.475242
v 0.213606 0.435252 0.440835
v 0.213606 0.435252 0.476746
v 0.213606 0.435252 0.476746
v 0.197575 0.439855 0.475242
v 0.213606 0.435252 0.440835
v 0.144966 0.451981 0.440835
v 0.144966 0.451981 0.470690
v 0.144966 0.451981 0.440835
v 0.144966 0.451981 0.470690
v 0.236611 0.428603 0.478917
v 0.236611 0.428603 0.440835
v 0.236611 0.428603 0.440835
v 0.236611 0.428603 0.478917
v 0.127626 0.454975 0.440835
v 0.127626 0.454975 0.469565
v 0.127626 0.454975 0.440835
v 0.127626 0.454975 0.469565
v 0.259724 0.422507 0.480909
v 0.259724 0.422507 0.440835
v 0.259724 0.422507 0.440835
v 0.259724 0.422507 0.480909
v 0.110232 0.457490 0.440835
v 0.110232 0.457490 0.468620
v 0.110232 0.457490 0.440835
v 0.110232 0.457490 0.468620
v 0.282935 0.416968 0.482718
v 0.282935 0.416968 0.440835
v 0.282935 0.416968 0.440835
v 0.282935 0.416968 0.482718
v 0.092794 0.459525 0.440835
v 0.092794 0.459525 0.467856
v 0.092794 0.459525 0.440835
v 0.092794 0.459525 0.467856
v 0.306236 0.411986 0.484345
v 0.306236 0.411986 0.440835
v 0.306236 0.411986 0.440835
v 0.306236 0.411986 0.484345
v 0.075321 0.461079 0.440835
v 0.075321 0.461079 0.467273
v 0.075321 0.461079 0.440835
v 0.075321 0.461079 0.467273
v 0.329616 0.407564 0.485788
v 0.329616 0.407564 0.440835
v 0.329616 0.407564 0.440835
v 0.329616 0.407564 0.485788
v 0.057822 0.462151 0.440835
v 0.057822 0.462151 0.466870
v 0.057822 0.462151 0.440835
v 0.057822 0.462151 0.466870
v 0.353066 0.403705 0.487050
v 0.353066 0.403705 0.440835
v 0.353066 0.403705 0.440835
v 0.353066 0.403705 0.487050
v 0.040307 0.462740 0.440835
v 0.040307 0.462740 0.466649
v 0.040307 0.462740 0.440835
v 0.040307 0.462740 0.466649
v 0.376576 0.400409 0.488126
v 0.376576 0.400409 0.440835
v 0.376576 0.400409 0.440835
v 0.376576 0.400409 0.488126
v 0.022786 0.462846 0.440835
v 0.022786 0.462846 0.466609
v 0.022786 0.462846 0.440835
v 0.022786 0.462846 0.466609
v 0.400138 0.397678 0.489018
v 0.400138 0.397678 0.440835
v 0.400138 0.397678 0.440835
v 0.400138 0.397678 0.489018
v 0.005267 0.462469 0.440835
v 0.005267 0.462469 0.466750
v 0.005267 0.462469 0.440835
v 0.005267 0.462469 0.466750
v 0.423742 0.395512 0.489725
v 0.423742 0.395512 0.440835
v 0.423742 0.395512 0.440835
v 0.423742 0.395512 0.489725
v 0.005267 0.462469 0.466750
v -0.012252 0.462846 0.440835
v -0.012252 0.462846 0.466609
v 0.005267 0.462469 0.440835
v 0.005267 0.462469 0.440835
v 0.005267 0.462469 0.466750
v -0.012252 0.462846 0.440835
v -0.012252 0.462846 0.466609
v 0.447377 0.393914 0.490247
v 0.447377 0.393914 0.440835
v 0.447377 0.393914 0.440835
v 0.447377 0.393914 0.490247
v -0.029774 0.462740 0.440835
v -0.029774 0.462740 0.466649
v -0.029774 0.462740 0.440835
v -0.029774 0.462740 0.466649
v 0.471034 0.392883 0.490583
v 0.471034 0.392883 0.440835
v 0.471034 0.392883 0.440835
v 0.471034 0.392883 0.490583
v -0.047288 0.462151 0.440835
v -0.047288 0.462151 0.466870
v -0.047288 0.462151 0.440835
v -0.047288 0.462151 0.466870
v 0.494704 0.392420 0.490736
v 0.494704 0.392420 0.440835
v 0.494704 0.392420 0.440835
v 0.494704 0.392420 0.490736
v -0.064787 0.461079 0.440835
v -0.064787 0.461079 0.467273
v -0.064787 0.461079 0.440835
v -0.064787 0.461079 0.467273
v -0.082260 0.459525 0.440835
v -0.082260 0.459525 0.467856
v -0.082260 0.459525 0.440835
v -0.082260 0.459525 0.467856
v -0.099698 0.457490 0.440835
v -0.099698 0.457490 0.468620
v -0.099698 0.457490 0.440835
v -0.099698 0.457490 0.468620
v -0.117092 0.454975 0.469565
v -0.117092 0.454975 0.440835
v -0.117092 0.454975 0.469565
v -0.117092 0.454975 0.440835
v -0.134433 0.451981 0.470690
v -0.134433 0.451981 0.440835
v -0.134433 0.451981 0.470690
v -0.134433 0.451981 0.440835
v -0.151710 0.448509 0.440835
v -0.151710 0.448509 0.471993
v -0.151710 0.448509 0.440835
v -0.151710 0.448509 0.471993
vn 0.2375182917105524 0.9713830660984888 0
vn 0.22358410902721193 0.9746846393529076 0
vn 0.23677719425391006 0.9715639764221634 0
vn 0.26379279205506245 0.9645793709487026 0
vn 0.26297901461594675 0.9648015536221041 0
vn 0.2103029908637348 0.9776362575282117 0
vn 0.21096810962351942 0.9774929445893095 0
vn 0.2759834005175627 0.9611624018025063 0
vn 0.27682221510922683 0.9609211524480148 0
vn 0.27687039202759334 0.9609072723309396 0
vn 0.1835845058696135 0.9830039314288677 0
vn 0.1841704054138135 0.9828943288928427 0
vn 0.26572859437288215 0.9640478795851439 0
vn 0.26635570146528526 0.9638748053025018 0
vn 0.15665069506101514 0.987654068860601 0
vn 0.15715460206052004 0.9875740129484978 0
vn 0.24301750099808989 0.9700219039839478 0
vn 0.24359679753994032 0.9698765902053134 0
vn 0.12953179593391084 0.9915752688737934 0
vn 0.12995129714186093 0.9915203781925754 0
vn 0.22009669109373256 0.9754780605270372 0
vn 0.22062620787889298 0.9753584348315134 0
vn 0.1022589018769596 0.9947578182587551 0
vn 0.10259180416114981 0.9947235403462411 0
vn 0.19698430829598937 0.9804066412898019 0
vn 0.19746220031208014 0.9803105015493367 0
vn 0.07486355897533073 0.9971937863512524 0
vn 0.07510827879489826 0.9971753840004616 0
vn 0.17369899834269964 0.984798790603818 0
vn 0.17412350387087958 0.9847238218910559 0
vn 0.047378350730154346 0.9988770153938326 0
vn 0.04753366174360235 0.9988696366399596 0
vn 0.15026000228678824 0.988646515046088 0
vn 0.15062959565808312 0.9885902715037621 0
vn 0.01983606091239373 0.9998032459876693 0
vn 0.019901189039096823 0.9998019517258556 0
vn 0.1266873005026585 0.9919427039357411 0
vn 0.12700070344887876 0.99190262693648 0
vn -0.007730148169745894 0.9999701219582883 0
vn -0.007755535196877573 0.9999699253846637 0
vn 0.10300120325304173 0.9946812314145802 0
vn 0.10325719888565194 0.9946546892657215 0
vn -0.021513039306892894 0.999768567789456 0
vn 0.0792224669023263 0.996856961021946 0
vn 0.0794200630200336 0.9968412379059637 0
vn 0.021513039306892894 0.999768567789456 0
vn 0.007730148169745894 0.9999701219582883 0
vn 0.007755535196877573 0.9999699253846637 0
vn 0.05537223892765411 0.9984657806635834 0
vn 0.05551071951454409 0.9984580912682202 0
vn -0.01983606091239373 0.9998032459876693 0
vn -0.019901189039096823 0.9998019517258556 0
vn 0.031471901165864485 0.9995046370262652 0
vn 0.0315507484598439 0.9995021512091025 0
vn -0.047378350730154346 0.9988770153938326 0
vn -0.04753366174360235 0.9988696366399596 0
vn 0.019559409930415068 0.9998086964430615 0
vn -0.07486355897533073 0.9971937863512524 0
vn -0.07510827879489826 0.9971753840004616 0
vn -0.1022589018769596 0.9947578182587551 0
vn -0.10259180416114981 0.9947235403462411 0
vn -0.12953179593391084 0.9915752688737934 0
vn -0.12995129714186093 0.9915203781925754 0
vn -0.15715460206052004 0.9875740129484978 0
vn -0.15665069506101514 0.987654068860601 0
vn -0.1841704054138135 0.9828943288928427 0
vn -0.1835845058696135 0.9830039314288677 0
vn -0.19698300080205472 0.980406903991918 0
vn -0.23677719425391006 -0.9715639764221634 0
vn -0.2375182917105524 -0.9713830660984888 0
vn -0.22358410902721193 -0.9746846393529076 0
vn -0.26297901461594675 -0.9648015536221041 0
vn -0.26379279205506245 -0.9645793709487026 0
vn -0.2103029908637348 -0.9776362575282117 0
vn -0.21096810962351942 -0.9774929445893095 0
vn -0.27687039202759334 -0.9609072723309396 0
vn -0.2759834005175627 -0.9611624018025063 0
vn -0.27682221510922683 -0.9609211524480148 0
vn -0.1835845058696135 -0.9830039314288677 0
vn -0.1841704054138135 -0.9828943288928427 0
vn -0.26635570146528526 -0.9638748053025018 0
vn -0.26572859437288215 -0.9640478795851439 0
vn -0.15665069506101514 -0.987654068860601 0
vn -0.15715460206052004 -0.9875740129484978 0
vn -0.24359679753994032 -0.9698765902053134 0
vn -0.24301750099808989 -0.9700219039839478 0
vn -0.12953179593391084 -0.9915752688737934 0
vn -0.12995129714186093 -0.9915203781925754 0
vn -0.22062620787889298 -0.9753584348315134 0
vn -0.22009669109373256 -0.9754780605270372 0
vn -0.1022589018769596 -0.9947578182587551 0
vn -0.10259180416114981 -0.9947235403462411 0
vn -0.19746220031208014 -0.9803105015493367 0
vn -0.19698430829598937 -0.9804066412898019 0
vn -0.07486355897533073 -0.9971937863512524 0
vn -0.07510827879489826 -0.9971753840004616 0
vn -0.17412350387087958 -0.9847238218910559 0
vn -0.17369899834269964 -0.984798790603818 0
vn -0.047378350730154346 -0.9988770153938326 0
vn -0.04753366174360235 -0.9988696366399596 0
vn -0.15062959565808312 -0.9885902715037621 0
vn -0.15026000228678824 -0.988646515046088 0
vn -0.01983606091239373 -0.9998032459876693 0
vn -0.019901189039096823 -0.9998019517258556 0
vn -0.12700070344887876 -0.99190262693648 0
vn -0.1266873005026585 -0.9919427039357411 0
vn 0.007730148169745894 -0.9999701219582883 0
vn 0.007755535196877573 -0.9999699253846637 0
vn -0.10325719888565194 -0.9946546892657215 0
vn -0.10300120325304173 -0.9946812314145802 0
vn 0.021513039306892894 -0.999768567789456 0
vn -0.0794200630200336 -0.9968412379059637 0
vn -0.0792224669023263 -0.996856961021946 0
vn -0.021513039306892894 -0.999768567789456 0
vn -0.007730148169745894 -0.9999701219582883 0
vn -0.007755535196877573 -0.9999699253846637 0
vn -0.05551071951454409 -0.9984580912682202 0
vn -0.05537223892765411 -0.9984657806635834 0
vn 0.01983606091239373 -0.9998032459876693 0
vn 0.019901189039096823 -0.9998019517258556 0
vn -0.0315507484598439 -0.9995021512091025 0
vn -0.031471901165864485 -0.9995046370262652 0
vn 0.047378350730154346 -0.9988770153938326 0
vn 0.04753366174360235 -0.9988696366399596 0
vn -0.019559409930415068 -0.9998086964430615 0
vn 0.07486355897533073 -0.9971937863512524 0
vn 0.07510827879489826 -0.9971753840004616 0
vn 0.1022589018769596 -0.9947578182587551 0
vn 0.10259180416114981 -0.9947235403462411 0
vn 0.12953179593391084 -0.9915752688737934 0
vn 0.12995129714186093 -0.9915203781925754 0
vn 0.15715460206052004 -0.9875740129484978 0
vn 0.15665069506101514 -0.987654068860601 0
vn 0.1841704054138135 -0.9828943288928427 0
vn 0.1835845058696135 -0.9830039314288677 0
vn 0.19698300080205472 -0.980406903991918 0
usemtl material_0_0
f 5//69 6//70 7//71
f 8//71 7//71 6//70
f 11//72 12//73 5//69
f 6//70 5//69 12//73
f 17//71 18//71 19//74
f 20//75 19//74 18//71
f 24//76 25//77 26//78
f 26//78 25//77 11//72
f 12//73 11//72 25//77
f 19//74 20//75 29//79
f 30//80 29//79 20//75
f 33//81 34//82 26//78
f 24//76 26//78 34//82
f 29//79 30//80 37//83
f 38//84 37//83 30//80
f 41//85 42//86 33//81
f 34//82 33//81 42//86
f 37//83 38//84 45//87
f 46//88 45//87 38//84
f 49//89 50//90 41//85
f 42//86 41//85 50//90
f 45//87 46//88 53//91
f 54//92 53//91 46//88
f 57//93 58//94 49//89
f 50//90 49//89 58//94
f 53//91 54//92 61//95
f 62//96 61//95 54//92
f 65//97 66//98 57//93
f 58//94 57//93 66//98
f 61//95 62//96 69//99
f 70//100 69//99 62//96
f 73//101 74//102 65//97
f 66//98 65//97 74//102
f 69//99 70//100 77//103
f 78//104 77//103 70//100
f 81//105 82//106 73//101
f 74//102 73//101 82//106
f 77//103 78//104 85//107
f 86//108 85//107 78//104
f 89//109 90//110 81//105
f 82//106 81//105 90//110
f 85//107 86//108 93//111
f 94//111 93//111 86//108
f 97//112 98//113 89//109
f 90//110 89//109 98//113
f 103//114 104//114 105//115
f 106//116 105//115 104//114
f 109//117 110//118 97//112
f 98//113 97//112 110//118
f 105//115 106//116 113//119
f 114//120 113//119 106//116
f 117//121 118//122 109//117
f 110//118 109//117 118//122
f 113//119 114//120 121//123
f 122//124 121//123 114//120
f 125//125 126//125 117//121
f 118//122 117//121 126//125
f 121//123 122//124 129//126
f 130//127 129//126 122//124
f 129//126 130//127 133//128
f 134//129 133//128 130//127
f 133//128 134//129 137//130
f 138//131 137//130 134//129
f 138//131 141//132 137//130
f 142//133 137//130 141//132
f 141//132 145//134 142//133
f 146//135 142//133 145//134
f 146//135 145//134 149//136
f 150//136 149//136 145//134
usemtl material_1_0
f 1//1 2//2 3//2
f 2//2 1//1 4//3
f 9//4 4//3 1//1
f 4//3 9//4 10//5
f 13//2 14//6 15//7
f 14//6 13//2 16//2
f 21//8 10//5 9//4
f 10//5 21//8 22//9
f 22//9 21//8 23//10
f 15//7 27//11 28//12
f 27//11 15//7 14//6
f 31//13 22//9 23//10
f 22//9 31//13 32//14
f 28//12 35//15 36//16
f 35//15 28//12 27//11
f 39//17 32//14 31//13
f 32//14 39//17 40//18
f 36//16 43//19 44//20
f 43//19 36//16 35//15
f 47//21 40//18 39//17
f 40//18 47//21 48//22
f 44//20 51//23 52//24
f 51//23 44//20 43//19
f 55//25 48//22 47//21
f 48//22 55//25 56//26
f 52//24 59//27 60//28
f 59//27 52//24 51//23
f 63//29 56//26 55//25
f 56//26 63//29 64//30
f 60//28 67//31 68//32
f 67//31 60//28 59//27
f 71//33 64//30 63//29
f 64//30 71//33 72//34
f 68//32 75//35 76//36
f 75//35 68//32 67//31
f 79//37 72//34 71//33
f 72//34 79//37 80//38
f 76//36 83//39 84//40
f 83//39 76//36 75//35
f 87//41 80//38 79//37
f 80//38 87//41 88//42
f 84//40 91//43 92//43
f 91//43 84//40 83//39
f 95//44 88//42 87//41
f 88//42 95//44 96//45
f 99//46 100//47 101//48
f 100//47 99//46 102//46
f 107//49 96//45 95//44
f 96//45 107//49 108//50
f 101//48 111//51 112//52
f 111//51 101//48 100//47
f 115//53 108//50 107//49
f 108//50 115//53 116//54
f 112//52 119//55 120//56
f 119//55 112//52 111//51
f 123//57 116//54 115//53
f 116//54 123//57 124//57
f 120//56 127//58 128//59
f 127//58 120//56 119//55
f 128//59 131//60 132//61
f 131//60 128//59 127//58
f 132//61 135//62 136//63
f 135//62 132//61 131//60
f 139//64 135//62 140//65
f 135//62 139//64 136//63
f 143//66 140//65 144//67
f 140//65 143//66 139//64
f 143//66 147//68 148//68
f 147//68 143//66 144//67
