# SSTK version 0.8.0
# 60
mtllib original-60.mtl
o #ID471
v -0.364781 0.584326 0.419977
v -0.445560 0.584660 0.420866
v -0.445560 0.584326 0.419977
v -0.364781 0.584660 0.420866
v -0.364781 0.584660 0.420866
v -0.364781 0.584326 0.419977
v -0.445560 0.584660 0.420866
v -0.445560 0.584326 0.419977
v -0.445560 0.546312 0.434251
v -0.445560 0.584660 0.420866
v -0.445560 0.546646 0.435142
v -0.445560 0.584326 0.419977
v -0.445560 0.584326 0.419977
v -0.445560 0.546312 0.434251
v -0.445560 0.584660 0.420866
v -0.445560 0.546646 0.435142
v -0.445544 0.584268 0.419868
v -0.364781 0.584326 0.419977
v -0.445560 0.584326 0.419977
v -0.364797 0.584268 0.419868
v -0.364797 0.584268 0.419868
v -0.445544 0.584268 0.419868
v -0.364781 0.584326 0.419977
v -0.445560 0.584326 0.419977
v -0.364781 0.584660 0.420866
v -0.364781 0.546312 0.434251
v -0.364781 0.546646 0.435142
v -0.364781 0.584326 0.419977
v -0.364781 0.584326 0.419977
v -0.364781 0.584660 0.420866
v -0.364781 0.546312 0.434251
v -0.364781 0.546646 0.435142
v -0.364781 0.546646 0.435142
v -0.445560 0.546312 0.434251
v -0.445560 0.546646 0.435142
v -0.364781 0.546312 0.434251
v -0.364781 0.546312 0.434251
v -0.364781 0.546646 0.435142
v -0.445560 0.546312 0.434251
v -0.445560 0.546646 0.435142
v -0.445544 0.546284 0.434131
v -0.445560 0.546312 0.434251
v -0.445544 0.546284 0.434131
v -0.445560 0.546312 0.434251
v -0.445496 0.584182 0.419778
v -0.364845 0.584182 0.419778
v -0.364845 0.584182 0.419778
v -0.445496 0.584182 0.419778
v -0.364797 0.546284 0.434131
v -0.364781 0.546312 0.434251
v -0.364797 0.546284 0.434131
v -0.364781 0.546312 0.434251
v -0.445496 0.546288 0.434007
v -0.445496 0.546288 0.434007
v -0.445421 0.584077 0.419711
v -0.364920 0.584077 0.419711
v -0.445421 0.584077 0.419711
v -0.364920 0.584077 0.419711
v -0.364845 0.546288 0.434007
v -0.364845 0.546288 0.434007
v -0.445421 0.546324 0.433888
v -0.445421 0.546324 0.433888
v -0.445322 0.583959 0.419675
v -0.365019 0.583959 0.419675
v -0.445322 0.583959 0.419675
v -0.365019 0.583959 0.419675
v -0.364920 0.546324 0.433888
v -0.364920 0.546324 0.433888
v -0.445322 0.546390 0.433783
v -0.445322 0.546390 0.433783
v -0.445208 0.583835 0.419671
v -0.365133 0.583835 0.419671
v -0.445208 0.583835 0.419671
v -0.365133 0.583835 0.419671
v -0.365019 0.546390 0.433783
v -0.365019 0.546390 0.433783
v -0.445208 0.546481 0.433698
v -0.445208 0.546481 0.433698
v -0.445085 0.583714 0.419699
v -0.365256 0.583714 0.419699
v -0.445085 0.583714 0.419699
v -0.365256 0.583714 0.419699
v -0.365133 0.546481 0.433698
v -0.365133 0.546481 0.433698
v -0.445085 0.546590 0.433639
v -0.445085 0.546590 0.433639
v -0.365256 0.583714 0.419699
v -0.445085 0.546590 0.433639
v -0.365256 0.546590 0.433639
v -0.445085 0.583714 0.419699
v -0.445085 0.583714 0.419699
v -0.365256 0.583714 0.419699
v -0.445085 0.546590 0.433639
v -0.365256 0.546590 0.433639
v -0.365256 0.546590 0.433639
v -0.365256 0.546590 0.433639
vt 0.3753746 -6.47871
vt 0.1250636 -6.473227
vt 0.1250636 -6.47871
vt 0.3753746 -6.473227
vt -0.0007608214 -6.47871
vt -0.0007608213 -6.473227
vt 0.1251138 -6.479425
vt 0.3753746 -6.478709
vt 0.3753244 -6.479425
vt 0.501199 -6.478709
vt 0.501199 -6.473227
vt -0.2510717 -6.473227
vt -0.2510717 -6.47871
vt -0.00071065 -6.479425
vt 0.1250135 -6.479425
vt 0.1252609 -6.480141
vt 0.3751773 -6.480141
vt 0.5011489 -6.479425
vt 0.3754247 -6.479425
vt -0.0008109928 -6.479425
vt -0.2510216 -6.479425
vt -0.0005635549 -6.480141
vt 0.1248664 -6.480141
vt 0.1254949 -6.480857
vt 0.3749433 -6.480856
vt 0.5010018 -6.480141
vt 0.3755718 -6.480141
vt -0.0009580879 -6.480141
vt -0.2508745 -6.480141
vt -0.0003295604 -6.480857
vt 0.1246324 -6.480857
vt 0.1257999 -6.481572
vt 0.3746384 -6.481572
vt 0.5007678 -6.480856
vt 0.3758058 -6.480856
vt -0.001192082 -6.480857
vt -0.2506405 -6.480857
vt -0.00002461287 -6.481572
vt 0.1243274 -6.481572
vt 0.126155 -6.482288
vt 0.3742832 -6.482288
vt 0.5004628 -6.481572
vt 0.3761108 -6.481572
vt -0.00149703 -6.481572
vt -0.2503355 -6.481572
vt 0.0003305061 -6.482288
vt 0.1239723 -6.482288
vt 0.3742836 12.92092
vt 0.1265364 12.92021
vt 0.3739025 12.92021
vt 0.1261553 12.92092
vt 0.5001077 -6.482288
vt 0.3764659 -6.482288
vt -0.2499804 -6.482288
vt -0.001852149 -6.482288
vt 0.1265364 12.69143
vt 0.126152 12.92092
vt 0.126152 12.69072
vt 0.3739025 12.69143
vt 0.3742868 12.92092
vt 0.3742868 12.69072
vt 0.1261553 12.69072
vt 0.3742835 12.69072
vn 0 -0.9361722540249108 0.3515416202868696
vn 1 0 0
vn 0.6684175835289575 -0.511065187406411 0.5403982866835891
vn -0.6951606053681553 -0.5864442045286278 0.4157342032103742
vn 0.6951606053681553 -0.5864442045286278 0.4157342032103742
vn -0.6684175835289575 -0.511065187406411 0.5403982866835891
vn -1 0 0
vn 0 0.9361722540249108 -0.3515416202868696
vn 0.6684176021737067 0.7404427024079339 0.07044511022908902
vn 0.6951606289408525 0.7151360297724663 -0.07302163304002862
vn 0.5679292030593381 -0.3222501017359067 0.7573713040798303
vn -0.5679292030593381 -0.3222501017359067 0.7573713040798303
vn -0.6684176021737067 0.7404427024079339 0.07044511022908902
vn -0.6951606289408525 0.7151360297724663 -0.07302163304002862
vn 0.5679292114881035 0.7411089149911919 0.35806980724305604
vn 0.4371139952321136 -0.13288729855051207 0.8895348902972648
vn -0.4371139952321136 -0.13288729855051207 0.8895348902972648
vn -0.5679292114881035 0.7411089149911919 0.35806980724305604
vn 0.4371139956596503 0.6855405931928834 0.5822073942189369
vn 0.299554591912497 0.03800341897396723 0.9533219742618056
vn -0.299554591912497 0.03800341897396723 0.9533219742618056
vn -0.4371139956596503 0.6855405931928834 0.5822073942189369
vn 0.2995545997936698 0.5988728995875022 0.7427100994884288
vn 0.1646164982887506 0.18777319804802792 0.9683194899339608
vn -0.1646164982887506 0.18777319804802792 0.9683194899339608
vn -0.2995545997936698 0.5988728995875022 0.7427100994884288
vn 0.1646164922795838 0.49599207673826456 0.8525803600144851
vn 0.06554286278416814 0.2886688122622428 0.9551829405748209
vn -0.06554286278416814 0.2886688122622428 0.9551829405748209
vn -0.1646164922795838 0.49599207673826456 0.8525803600144851
vn 0.06554285769579009 0.41138758553735066 0.9091008680398551
vn 0 0.3515416202868696 0.9361722540249108
vn -0.06554285769579009 0.41138758553735066 0.9091008680398551
vn 0.6684175835289575 0.511065187406411 -0.5403982866835891
vn -0.6684175835289575 0.511065187406411 -0.5403982866835891
vn 0.6951606053681553 0.5864442045286278 -0.4157342032103742
vn -0.6951606053681553 0.5864442045286278 -0.4157342032103742
vn -0.6684176021737067 -0.7404427024079339 -0.07044511022908902
vn -0.6951606289408525 -0.7151360297724663 0.07302163304002862
vn 0.5679292030593381 0.3222501017359067 -0.7573713040798303
vn -0.5679292030593381 0.3222501017359067 -0.7573713040798303
vn 0.6684176021737067 -0.7404427024079339 -0.07044511022908902
vn 0.6951606289408525 -0.7151360297724663 0.07302163304002862
vn -0.5679292114881035 -0.7411089149911919 -0.35806980724305604
vn -0.4371139952321136 0.13288729855051207 -0.8895348902972648
vn 0.4371139952321136 0.13288729855051207 -0.8895348902972648
vn 0.5679292114881035 -0.7411089149911919 -0.35806980724305604
vn -0.4371139956596503 -0.6855405931928834 -0.5822073942189369
vn -0.299554591912497 -0.03800341897396723 -0.9533219742618056
vn 0.299554591912497 -0.03800341897396723 -0.9533219742618056
vn 0.4371139956596503 -0.6855405931928834 -0.5822073942189369
vn -0.2995545997936698 -0.5988728995875022 -0.7427100994884288
vn -0.1646164982887506 -0.18777319804802792 -0.9683194899339608
vn 0.1646164982887506 -0.18777319804802792 -0.9683194899339608
vn 0.2995545997936698 -0.5988728995875022 -0.7427100994884288
vn -0.1646164922795838 -0.49599207673826456 -0.8525803600144851
vn -0.06554286278416814 -0.2886688122622428 -0.9551829405748209
vn 0.06554286278416814 -0.2886688122622428 -0.9551829405748209
vn 0.1646164922795838 -0.49599207673826456 -0.8525803600144851
vn -0.06554285769579009 -0.41138758553735066 -0.9091008680398551
vn 0 -0.3515416202868696 -0.9361722540249108
vn 0.06554285769579009 -0.41138758553735066 -0.9091008680398551
usemtl material_0_0
f 5//8 6//8 7//8
f 8//8 7//8 6//8
f 13//7 14//7 15//7
f 16//7 15//7 14//7
f 21//34 22//35 23//36
f 24//37 23//36 22//35
f 29//2 30//2 31//2
f 32//2 31//2 30//2
f 37//1 38//1 39//1
f 40//1 39//1 38//1
f 22//35 43//38 24//37
f 44//39 24//37 43//38
f 47//40 48//41 21//34
f 22//35 21//34 48//41
f 21//34 23//36 51//42
f 52//43 51//42 23//36
f 51//42 52//43 43//38
f 44//39 43//38 52//43
f 48//41 54//44 22//35
f 43//38 22//35 54//44
f 48//41 47//40 57//45
f 58//46 57//45 47//40
f 47//40 21//34 60//47
f 51//42 60//47 21//34
f 60//47 51//42 54//44
f 43//38 54//44 51//42
f 57//45 62//48 48//41
f 54//44 48//41 62//48
f 57//45 58//46 65//49
f 66//50 65//49 58//46
f 58//46 47//40 68//51
f 60//47 68//51 47//40
f 68//51 60//47 62//48
f 54//44 62//48 60//47
f 65//49 70//52 57//45
f 62//48 57//45 70//52
f 65//49 66//50 73//53
f 74//54 73//53 66//50
f 66//50 58//46 76//55
f 68//51 76//55 58//46
f 76//55 68//51 70//52
f 62//48 70//52 68//51
f 73//53 78//56 65//49
f 70//52 65//49 78//56
f 73//53 74//54 81//57
f 82//58 81//57 74//54
f 74//54 66//50 84//59
f 76//55 84//59 66//50
f 78//56 84//59 70//52
f 76//55 70//52 84//59
f 81//57 86//60 73//53
f 78//56 73//53 86//60
f 91//61 92//61 93//61
f 94//61 93//61 92//61
f 82//58 74//54 96//62
f 84//59 96//62 74//54
f 86//60 96//62 78//56
f 84//59 78//56 96//62
usemtl material_1_0
f 1/1/1 2/2/1 3/3/1
f 2/2/1 1/1/1 4/4/1
f 9/5/2 10/2/2 11/6/2
f 10/2/2 9/5/2 12/3/2
f 17/7/3 18/8/4 19/3/5
f 18/8/4 17/7/3 20/9/6
f 25/4/7 26/10/7 27/11/7
f 26/10/7 25/4/7 28/8/7
f 33/12/8 34/5/8 35/6/8
f 34/5/8 33/12/8 36/13/8
f 41/14/9 19/3/5 42/5/10
f 19/3/5 41/14/9 17/15/3
f 45/16/11 20/9/6 17/7/3
f 20/9/6 45/16/11 46/17/12
f 18/8/4 49/18/13 50/10/14
f 49/18/13 18/8/4 20/19/6
f 50/13/14 41/20/9 42/5/10
f 41/20/9 50/13/14 49/21/13
f 53/22/15 17/15/3 41/14/9
f 17/15/3 53/22/15 45/23/11
f 46/17/12 55/24/16 56/25/17
f 55/24/16 46/17/12 45/16/11
f 20/19/6 59/26/18 49/18/13
f 59/26/18 20/19/6 46/27/12
f 49/21/13 53/28/15 41/20/9
f 53/28/15 49/21/13 59/29/18
f 61/30/19 45/23/11 53/22/15
f 45/23/11 61/30/19 55/31/16
f 56/25/17 63/32/20 64/33/21
f 63/32/20 56/25/17 55/24/16
f 46/27/12 67/34/22 59/26/18
f 67/34/22 46/27/12 56/35/17
f 59/29/18 61/36/19 53/28/15
f 61/36/19 59/29/18 67/37/22
f 69/38/23 55/31/16 61/30/19
f 55/31/16 69/38/23 63/39/20
f 64/33/21 71/40/24 72/41/25
f 71/40/24 64/33/21 63/32/20
f 56/35/17 75/42/26 67/34/22
f 75/42/26 56/35/17 64/43/21
f 67/37/22 69/44/23 61/36/19
f 69/44/23 67/37/22 75/45/26
f 77/46/27 63/39/20 69/38/23
f 63/39/20 77/46/27 71/47/24
f 72/48/25 79/49/28 80/50/29
f 79/49/28 72/48/25 71/51/24
f 64/43/21 83/52/30 75/42/26
f 83/52/30 64/43/21 72/53/25
f 83/54/30 69/44/23 75/45/26
f 69/44/23 83/54/30 77/55/27
f 85/56/31 71/57/24 77/58/27
f 71/57/24 85/56/31 79/49/28
f 87/50/32 88/56/32 89/59/32
f 88/56/32 87/50/32 90/49/32
f 72/60/25 95/59/33 83/61/30
f 95/59/33 72/60/25 80/50/29
f 95/59/33 77/62/27 83/63/30
f 77/62/27 95/59/33 85/56/31
