# SSTK version 0.8.0
# 32
mtllib original-32.mtl
o #ID270
v 0.241008 0.484452 0.454943
v 0.244432 0.485790 0.454046
v 0.240982 0.484361 0.454583
v 0.244446 0.485876 0.454408
v 0.244446 0.485876 0.454408
v 0.241008 0.484452 0.454943
v 0.244432 0.485790 0.454046
v 0.240982 0.484361 0.454583
vt -23.16639 7.000993
vt -23.19071 7.049635
vt -23.16967 6.9977
vt -23.18736 7.052744
vn -0.5194709852636681 0.8366883762648579 -0.17350059507814194
vn -0.2648214898235284 0.9610675630684171 -0.0788588469696384
vn -0.5054669058937958 0.8618332100490633 -0.04179384048732026
vn -0.27217059538878785 0.9386659840967833 -0.2117293964128042
vn 0.27217059538878785 -0.9386659840967833 0.2117293964128042
vn 0.5194709852636681 -0.8366883762648579 0.17350059507814194
vn 0.2648214898235284 -0.9610675630684171 0.0788588469696384
vn 0.5054669058937958 -0.8618332100490633 0.04179384048732026
usemtl material_0_0
f 1/1/1 2/2/2 3/3/3
f 2/2/2 1/1/1 4/4/4
usemtl material_1_0
f 5//5 6//6 7//7
f 8//8 7//7 6//6
