# SSTK version 0.8.0
# 122
mtllib original-122.mtl
o #ID49
v -0.003738 -0.002942 0.218651
v -0.003635 -0.002821 0.232906
v -0.003738 -0.002942 0.232906
v -0.003635 -0.002821 0.218651
v -0.002841 -0.002277 0.218651
v -0.002841 -0.002277 0.232906
v -0.001303 -0.001707 0.218651
v -0.001439 -0.001757 0.232906
v -0.001303 -0.001707 0.232906
v 0.000708 -0.001470 0.218651
v 0.000708 -0.001470 0.232906
v 0.002719 -0.001233 0.232906
v 0.002719 -0.001233 0.218651
v 0.002856 -0.001182 0.232906
v 0.002719 -0.001233 0.218651
v 0.002719 -0.001233 0.232906
v 0.004258 -0.000663 0.218651
v 0.004258 -0.000663 0.232906
v 0.005051 -0.000118 0.232906
v 0.005051 -0.000118 0.218651
v 0.005154 0.000002 0.218651
v 0.005154 0.000002 0.232906
vn 0.7590515328293705 -0.651030544989544 0
vn 0.6676501780559639 -0.7444751438039015 0
vn 0.45976484272713575 -0.888040702553713 0
vn 0.23361704733293245 -0.972328686810917 0
vn 0.34748206385072256 -0.9376866295847682 0
vn 0.11697356043077946 -0.99313502916781 0
vn 0.29120334678610643 -0.9566611786941971 0
vn -0.34748206385072256 0.9376866295847682 0
vn -0.29120334678610643 0.9566611786941971 0
vn -0.45976484272713575 0.888040702553713 0
vn -0.6676501780559639 0.7444751438039015 0
vn -0.7590515328293705 0.651030544989544 0
usemtl material_0_0
f 1//1 2//2 3//1
f 2//2 1//1 4//2
f 5//3 2//2 4//2
f 2//2 5//3 6//3
f 7//4 6//3 5//3
f 6//3 7//4 8//5
f 8//5 7//4 9//4
f 10//6 9//4 7//4
f 9//4 10//6 11//6
f 11//6 10//6 12//7
f 12//7 10//6 13//7
f 14//8 15//9 16//9
f 15//9 14//8 17//10
f 17//10 14//8 18//10
f 19//11 17//10 18//10
f 17//10 19//11 20//11
f 21//12 19//11 22//12
f 19//11 21//12 20//11
