# SSTK version 0.8.0
# 15
mtllib original-15.mtl
o #ID168
v 0.400606 0.524828 0.453486
v 0.401333 0.517236 0.441109
v 0.401333 0.522247 0.454455
v 0.400606 0.519817 0.440141
v 0.402409 0.514759 0.442040
v 0.402409 0.519770 0.455385
v 0.400766 0.525290 0.454627
v 0.401487 0.522728 0.455589
v 0.400240 0.527471 0.452493
v 0.400240 0.524131 0.443596
v 0.400240 0.522460 0.439148
v 0.435428 0.503713 0.446188
v 0.426387 0.502743 0.446552
v 0.432603 0.502501 0.446643
v 0.429258 0.503242 0.446364
v 0.432038 0.504066 0.446055
v 0.438070 0.505241 0.445614
v 0.434682 0.505200 0.445629
v 0.437150 0.506628 0.445093
v 0.440485 0.507062 0.444930
v 0.439402 0.508326 0.444456
v 0.442636 0.509150 0.444146
v 0.441403 0.510268 0.443726
v 0.444488 0.511473 0.443273
v 0.443121 0.512424 0.442917
v 0.446009 0.513996 0.442327
v 0.444530 0.514759 0.442040
v 0.447174 0.516677 0.441319
v 0.445606 0.517236 0.441109
v 0.447962 0.519476 0.440269
v 0.446332 0.519817 0.440141
v 0.448360 0.522346 0.439191
v 0.446699 0.522460 0.439148
v 0.448360 0.524016 0.438564
v 0.446699 0.524131 0.438520
v 0.448360 0.525239 0.438105
v 0.446699 0.525125 0.438147
v 0.446332 0.527768 0.437155
v 0.447962 0.528109 0.437027
v 0.445606 0.530349 0.436186
v 0.447174 0.530907 0.435976
v 0.444530 0.532826 0.435255
v 0.446009 0.533589 0.434969
v 0.443121 0.535161 0.434379
v 0.444488 0.536111 0.434022
v 0.441403 0.537316 0.433569
v 0.442636 0.538434 0.433149
v 0.439402 0.539258 0.432840
v 0.440485 0.540522 0.432365
v 0.437150 0.540957 0.432202
v 0.438070 0.542344 0.431682
v 0.434682 0.542385 0.431666
v 0.435428 0.543872 0.431107
v 0.432038 0.543519 0.431240
v 0.429258 0.544342 0.430931
v 0.432603 0.545084 0.430652
v 0.426387 0.544841 0.430744
v 0.423469 0.545009 0.430681
v 0.420552 0.502743 0.446552
v 0.411511 0.503713 0.446188
v 0.414336 0.502501 0.446643
v 0.417681 0.503242 0.446364
v 0.414901 0.504066 0.446055
v 0.408869 0.505241 0.445614
v 0.412256 0.505200 0.445629
v 0.409789 0.506628 0.445093
v 0.406454 0.507062 0.444930
v 0.407536 0.508326 0.444456
v 0.404303 0.509150 0.444146
v 0.405536 0.510268 0.443726
v 0.402451 0.511473 0.443273
v 0.403818 0.512424 0.442917
v 0.400930 0.513996 0.442327
v 0.402409 0.514759 0.442040
v 0.399765 0.516677 0.441319
v 0.401333 0.517236 0.441109
v 0.398977 0.519476 0.440269
v 0.400606 0.519817 0.440141
v 0.398579 0.522346 0.439191
v 0.400240 0.522460 0.439148
v 0.398579 0.524016 0.438564
v 0.400240 0.524131 0.438520
v 0.398579 0.525239 0.438105
v 0.400240 0.525125 0.438147
v 0.400606 0.527768 0.437155
v 0.398977 0.528109 0.437027
v 0.401333 0.530349 0.436186
v 0.399765 0.530907 0.435976
v 0.402409 0.532826 0.435255
v 0.400930 0.533589 0.434969
v 0.403818 0.535161 0.434379
v 0.402451 0.536111 0.434022
v 0.405536 0.537316 0.433569
v 0.404303 0.538434 0.433149
v 0.407536 0.539258 0.432840
v 0.406454 0.540522 0.432365
v 0.409789 0.540957 0.432202
v 0.408869 0.542344 0.431682
v 0.412256 0.542385 0.431666
v 0.411511 0.543872 0.431107
v 0.414901 0.543519 0.431240
v 0.417681 0.544342 0.430931
v 0.414336 0.545084 0.430652
v 0.420552 0.544841 0.430744
v 0.429637 0.545962 0.430323
v 0.417302 0.545962 0.430323
v 0.426577 0.546494 0.430122
v 0.420362 0.546494 0.430122
v 0.403818 0.512424 0.442917
v 0.403818 0.517435 0.456262
v 0.402556 0.520268 0.456512
v 0.401233 0.525778 0.455667
v 0.401939 0.523272 0.456608
v 0.400402 0.527914 0.453641
v 0.400240 0.530136 0.451492
v 0.400240 0.525125 0.438147
v 0.400240 0.524131 0.438520
v 0.420552 0.546509 0.430119
v 0.426386 0.546509 0.430119
v 0.423469 0.502576 0.446615
v 0.420600 0.502744 0.446552
v 0.417681 0.508254 0.459709
v 0.417681 0.503242 0.446364
v 0.420552 0.507754 0.459897
v 0.414901 0.504066 0.446055
v 0.414901 0.509077 0.459400
v 0.412256 0.510211 0.458974
v 0.412256 0.505200 0.445629
v 0.409789 0.506628 0.445093
v 0.409789 0.511639 0.458438
v 0.407536 0.513337 0.457801
v 0.407536 0.508326 0.444456
v 0.405536 0.515280 0.457071
v 0.405536 0.510268 0.443726
v 0.400606 0.532779 0.450500
v 0.400606 0.527768 0.437155
v 0.401333 0.535360 0.449531
v 0.401333 0.530349 0.436186
v 0.402409 0.537837 0.448600
v 0.402409 0.532826 0.435255
v 0.403818 0.540172 0.447724
v 0.403818 0.535161 0.434379
v 0.405536 0.542327 0.446914
v 0.405536 0.537316 0.433569
v 0.407536 0.544270 0.446185
v 0.407536 0.539258 0.432840
v 0.409789 0.545968 0.445547
v 0.409789 0.540957 0.432202
v 0.412256 0.542385 0.431666
v 0.412256 0.547396 0.445011
v 0.414901 0.548530 0.444585
v 0.414901 0.543519 0.431240
v 0.417681 0.549353 0.444276
v 0.417681 0.544342 0.430931
v 0.420552 0.549853 0.444089
v 0.420552 0.544841 0.430744
v 0.423469 0.545009 0.430681
v 0.423469 0.550020 0.444026
v 0.426387 0.549853 0.444089
v 0.426387 0.544841 0.430744
v 0.429258 0.549353 0.444276
v 0.429258 0.544342 0.430931
v 0.432038 0.543519 0.431240
v 0.432038 0.548530 0.444585
v 0.434682 0.547396 0.445011
v 0.434682 0.542385 0.431666
v 0.437150 0.545968 0.445547
v 0.437150 0.540957 0.432202
v 0.439402 0.544270 0.446185
v 0.439402 0.539258 0.432840
v 0.441403 0.537316 0.433569
v 0.441403 0.542327 0.446914
v 0.443121 0.535161 0.434379
v 0.443121 0.540172 0.447724
v 0.444530 0.532826 0.435255
v 0.444530 0.537837 0.448600
v 0.445606 0.530349 0.436186
v 0.445606 0.535360 0.449531
v 0.446332 0.527768 0.437155
v 0.446332 0.532779 0.450500
v 0.446699 0.525125 0.438147
v 0.446699 0.530136 0.451492
v 0.446699 0.524131 0.443596
v 0.446699 0.527471 0.452493
v 0.446699 0.524131 0.438520
v 0.446332 0.519817 0.440141
v 0.446332 0.524828 0.453486
v 0.446699 0.522460 0.439148
v 0.445606 0.517236 0.441109
v 0.445606 0.522247 0.454455
v 0.444530 0.514759 0.442040
v 0.444530 0.519770 0.455385
v 0.443121 0.512424 0.442917
v 0.443121 0.517435 0.456262
v 0.441403 0.510268 0.443726
v 0.441403 0.515280 0.457071
v 0.439402 0.508326 0.444456
v 0.439402 0.513337 0.457801
v 0.437150 0.506628 0.445093
v 0.437150 0.511639 0.458438
v 0.434682 0.510211 0.458974
v 0.434682 0.505200 0.445629
v 0.432038 0.509077 0.459400
v 0.432038 0.504066 0.446055
v 0.429258 0.508254 0.459709
v 0.429258 0.503242 0.446364
v 0.426387 0.507754 0.459897
v 0.426339 0.502744 0.446552
v 0.403953 0.517950 0.457382
v 0.402984 0.520865 0.457511
v 0.401975 0.526260 0.456537
v 0.402656 0.523842 0.457445
v 0.400877 0.528345 0.454703
v 0.400402 0.530558 0.452647
v 0.423469 0.546672 0.430056
v 0.426577 0.501090 0.447173
v 0.420362 0.501090 0.447173
v 0.423469 0.500912 0.447239
v 0.417302 0.501622 0.446972
v 0.429637 0.501622 0.446972
v 0.423469 0.507587 0.459960
v 0.423469 0.502583 0.446632
v 0.417721 0.508833 0.460806
v 0.420572 0.508337 0.460992
v 0.414960 0.509651 0.460498
v 0.412333 0.510778 0.460076
v 0.409882 0.512195 0.459544
v 0.407646 0.513882 0.458910
v 0.405659 0.515810 0.458186
v 0.400766 0.533182 0.451662
v 0.401487 0.535744 0.450700
v 0.402556 0.538203 0.449777
v 0.403953 0.540521 0.448907
v 0.405659 0.542661 0.448103
v 0.407646 0.544590 0.447379
v 0.409882 0.546276 0.446745
v 0.412333 0.547694 0.446213
v 0.414960 0.548821 0.445789
v 0.417721 0.549639 0.445483
v 0.420572 0.550134 0.445297
v 0.423469 0.550301 0.445234
v 0.426367 0.550134 0.445297
v 0.429218 0.549639 0.445483
v 0.431979 0.548821 0.445789
v 0.434606 0.547694 0.446213
v 0.437057 0.546276 0.446745
v 0.439293 0.544590 0.447379
v 0.441280 0.542661 0.448103
v 0.442985 0.540521 0.448907
v 0.444383 0.538203 0.449777
v 0.445452 0.535744 0.450700
v 0.446173 0.533182 0.451662
v 0.446537 0.530558 0.452647
v 0.446537 0.527914 0.453641
v 0.446173 0.525290 0.454627
v 0.445452 0.522728 0.455589
v 0.444383 0.520268 0.456512
v 0.442985 0.517950 0.457382
v 0.441280 0.515810 0.458186
v 0.439293 0.513882 0.458910
v 0.437057 0.512195 0.459544
v 0.434606 0.510778 0.460076
v 0.431979 0.509651 0.460498
v 0.429218 0.508833 0.460806
v 0.426367 0.508337 0.460992
v 0.404352 0.518597 0.458363
v 0.403665 0.521519 0.458317
v 0.403592 0.524399 0.458042
v 0.402943 0.526703 0.457177
v 0.401632 0.528737 0.455607
v 0.400877 0.530932 0.453731
v 0.417836 0.509668 0.461716
v 0.420630 0.509182 0.461898
v 0.423469 0.508171 0.461055
v 0.415131 0.510469 0.461416
v 0.412558 0.511573 0.461000
v 0.410157 0.512962 0.460479
v 0.407967 0.514613 0.459860
v 0.406022 0.516502 0.459150
v 0.401233 0.533500 0.452767
v 0.401939 0.536006 0.451827
v 0.402984 0.538412 0.450923
v 0.404352 0.540681 0.450070
v 0.406022 0.542776 0.449284
v 0.407967 0.544664 0.448575
v 0.410157 0.546316 0.447955
v 0.412558 0.547705 0.447433
v 0.415131 0.548808 0.447019
v 0.417836 0.549609 0.446718
v 0.420630 0.550095 0.446535
v 0.423469 0.550258 0.446474
v 0.426309 0.550095 0.446535
v 0.429103 0.549609 0.446718
v 0.431808 0.548808 0.447019
v 0.434381 0.547705 0.447433
v 0.436782 0.546316 0.447955
v 0.438972 0.544664 0.448575
v 0.440917 0.542776 0.449284
v 0.442587 0.540681 0.450070
v 0.443955 0.538412 0.450923
v 0.445000 0.536006 0.451827
v 0.445706 0.533500 0.452767
v 0.446062 0.530932 0.453731
v 0.446062 0.528345 0.454703
v 0.445706 0.525778 0.455667
v 0.445000 0.523272 0.456608
v 0.443955 0.520865 0.457511
v 0.442587 0.518597 0.458363
v 0.440917 0.516502 0.459150
v 0.438972 0.514613 0.459860
v 0.436782 0.512962 0.460479
v 0.434381 0.511573 0.461000
v 0.431808 0.510469 0.461416
v 0.429103 0.509668 0.461716
v 0.426309 0.509182 0.461898
v 0.404986 0.519329 0.459139
v 0.404553 0.522186 0.458874
v 0.404681 0.524906 0.458358
v 0.404070 0.527077 0.457544
v 0.402616 0.529062 0.456292
v 0.401632 0.531233 0.454670
v 0.420723 0.510231 0.462556
v 0.418019 0.510701 0.462380
v 0.423469 0.509019 0.461960
v 0.415403 0.511476 0.462089
v 0.412915 0.512544 0.461687
v 0.410594 0.513886 0.461184
v 0.408478 0.515482 0.460584
v 0.406598 0.517306 0.459900
v 0.401975 0.533709 0.453740
v 0.402656 0.536128 0.452832
v 0.403665 0.538450 0.451959
v 0.404986 0.540640 0.451137
v 0.406598 0.542663 0.450377
v 0.408478 0.544488 0.449693
v 0.410594 0.546084 0.449093
v 0.412915 0.547426 0.448590
v 0.415403 0.548493 0.448188
v 0.418019 0.549268 0.447897
v 0.420723 0.549738 0.447721
v 0.423469 0.549896 0.447661
v 0.426216 0.549738 0.447721
v 0.428919 0.549268 0.447897
v 0.431536 0.548493 0.448188
v 0.434024 0.547426 0.448590
v 0.436345 0.546084 0.449093
v 0.438461 0.544488 0.449693
v 0.440341 0.542663 0.450377
v 0.441953 0.540640 0.451137
v 0.443274 0.538450 0.451959
v 0.444283 0.536128 0.452832
v 0.444964 0.533709 0.453740
v 0.445307 0.531233 0.454670
v 0.445307 0.528737 0.455607
v 0.444964 0.526260 0.456537
v 0.444283 0.523842 0.457445
v 0.443274 0.521519 0.458317
v 0.441953 0.519329 0.459139
v 0.440341 0.517306 0.459900
v 0.438461 0.515482 0.460584
v 0.436345 0.513886 0.461184
v 0.434024 0.512544 0.461687
v 0.431536 0.511476 0.462089
v 0.428919 0.510701 0.462380
v 0.426216 0.510231 0.462556
v 0.405812 0.520099 0.459657
v 0.405587 0.522821 0.459142
v 0.405850 0.525329 0.458373
v 0.405279 0.527355 0.457613
v 0.403762 0.529298 0.456710
v 0.402616 0.531439 0.455399
v 0.420843 0.511413 0.462919
v 0.418259 0.511862 0.462750
v 0.423469 0.510074 0.462615
v 0.415758 0.512603 0.462472
v 0.413380 0.513623 0.462089
v 0.411164 0.514905 0.461607
v 0.409143 0.516429 0.461035
v 0.407350 0.518169 0.460381
v 0.402943 0.533797 0.454513
v 0.403592 0.536101 0.453648
v 0.404553 0.538314 0.452817
v 0.405812 0.540402 0.452033
v 0.407350 0.542331 0.451309
v 0.409143 0.544072 0.450655
v 0.411164 0.545596 0.450083
v 0.413380 0.546878 0.449601
v 0.415758 0.547898 0.449218
v 0.418259 0.548638 0.448941
v 0.420843 0.549088 0.448772
v 0.423469 0.549238 0.448715
v 0.426096 0.549088 0.448772
v 0.428680 0.548638 0.448941
v 0.431181 0.547898 0.449218
v 0.433559 0.546878 0.449601
v 0.435775 0.545596 0.450083
v 0.437796 0.544072 0.450655
v 0.439589 0.542331 0.451309
v 0.441127 0.540402 0.452033
v 0.442386 0.538314 0.452817
v 0.443347 0.536101 0.453648
v 0.443996 0.533797 0.454513
v 0.444323 0.531439 0.455399
v 0.444323 0.529062 0.456292
v 0.443996 0.526703 0.457177
v 0.443347 0.524399 0.458042
v 0.442386 0.522186 0.458874
v 0.441127 0.520099 0.459657
v 0.439589 0.518169 0.460381
v 0.437796 0.516429 0.461035
v 0.435775 0.514905 0.461607
v 0.433559 0.513623 0.462089
v 0.431181 0.512603 0.462472
v 0.428680 0.511862 0.462750
v 0.426096 0.511413 0.462919
v 0.406774 0.520852 0.459882
v 0.406697 0.523380 0.459106
v 0.425805 0.513848 0.462684
v 0.421134 0.513848 0.462684
v 0.423469 0.513714 0.462735
v 0.418836 0.514248 0.462534
v 0.428103 0.514248 0.462534
v 0.430325 0.514906 0.462287
v 0.416614 0.514906 0.462287
v 0.414504 0.515811 0.461948
v 0.432435 0.515811 0.461948
v 0.412539 0.516948 0.461521
v 0.434400 0.516948 0.461521
v 0.436189 0.518297 0.461014
v 0.410750 0.518297 0.461014
v 0.409164 0.519836 0.460436
v 0.437775 0.519836 0.460436
v 0.407807 0.521539 0.459796
v 0.439132 0.521539 0.459796
v 0.440242 0.523380 0.459106
v 0.441089 0.525329 0.458373
v 0.441660 0.527355 0.457613
v 0.441947 0.529429 0.456834
v 0.404992 0.529429 0.456834
v 0.441947 0.531519 0.456048
v 0.404992 0.531519 0.456048
v 0.405279 0.533593 0.455270
v 0.441660 0.533593 0.455270
v 0.441089 0.535620 0.454510
v 0.405850 0.535620 0.454510
v 0.440242 0.537568 0.453777
v 0.406697 0.537568 0.453777
v 0.407807 0.539409 0.453087
v 0.439132 0.539409 0.453087
v 0.409164 0.541112 0.452447
v 0.437775 0.541112 0.452447
v 0.436189 0.542651 0.451869
v 0.410750 0.542651 0.451869
v 0.412539 0.544000 0.451362
v 0.434400 0.544000 0.451362
v 0.432435 0.545137 0.450935
v 0.414504 0.545137 0.450935
v 0.416614 0.546042 0.450595
v 0.430325 0.546042 0.450595
v 0.418836 0.546700 0.450348
v 0.428103 0.546700 0.450348
v 0.425805 0.547100 0.450198
v 0.421134 0.547100 0.450198
v 0.423469 0.547234 0.450148
v 0.403762 0.531536 0.455870
v 0.420983 0.512646 0.462963
v 0.418537 0.513072 0.462804
v 0.423469 0.511262 0.462975
v 0.416171 0.513773 0.462539
v 0.413922 0.514737 0.462177
v 0.411827 0.515949 0.461722
v 0.409918 0.517389 0.461181
v 0.408225 0.519032 0.460565
v 0.404070 0.533758 0.455036
v 0.404681 0.535928 0.454220
v 0.405587 0.538013 0.453438
v 0.406774 0.539982 0.452698
v 0.408225 0.541802 0.452015
v 0.409918 0.543445 0.451397
v 0.411827 0.544885 0.450857
v 0.413922 0.546097 0.450402
v 0.416171 0.547061 0.450039
v 0.418537 0.547762 0.449776
v 0.420983 0.548188 0.449617
v 0.423469 0.548330 0.449564
v 0.425956 0.548188 0.449617
v 0.428402 0.547762 0.449776
v 0.430768 0.547061 0.450039
v 0.433017 0.546097 0.450402
v 0.435112 0.544885 0.450857
v 0.437021 0.543445 0.451397
v 0.438714 0.541802 0.452015
v 0.440165 0.539982 0.452698
v 0.441352 0.538013 0.453438
v 0.442258 0.535928 0.454220
v 0.442869 0.533758 0.455036
v 0.443177 0.531536 0.455870
v 0.443177 0.529298 0.456710
v 0.442869 0.527077 0.457544
v 0.442258 0.524906 0.458358
v 0.441352 0.522821 0.459142
v 0.440165 0.520852 0.459882
v 0.438714 0.519032 0.460565
v 0.437021 0.517389 0.461181
v 0.435112 0.515949 0.461722
v 0.433017 0.514737 0.462177
v 0.430768 0.513773 0.462539
v 0.428402 0.513072 0.462804
v 0.425956 0.512646 0.462963
v 0.423469 0.512504 0.463016
vn -0.9792535735686491 -0.15658749577349612 0.1286187965284083
vn -0.9486000318844587 -0.29627740995851204 0.11125500373951654
vn -0.9465715624460236 -0.2726663891823212 0.17220719316790703
vn -0.9813520949942475 -0.17994989908209844 0.06757291965531907
vn -0.9004053816071403 -0.407283491680294 0.15293889687586967
vn -0.8984799905262744 -0.38343529595699316 0.21380149774564064
vn -0.9481357773019539 -0.08317130800890742 0.30679159265551426
vn -0.9164920003266149 -0.19556090006969315 0.3489962001243735
vn -0.9957859373384069 -0.03724458139653846 0.08380458314237177
vn -0.9983252930016244 -0.054157459620349964 0.020336639857437798
vn -0.995318567004019 -0.09047972700049066 0.03397600887365533
vn 0 0.3515416202868696 0.9361722540249108
vn 0.06143868266063439 -0.37983911644913243 0.9230100399714339
vn -2.6722130650469156e-7 0.35151240855650234 0.9361832227885389
vn -0.06143868266063439 -0.37983911644913243 0.9230100399714339
vn 2.6722130650469156e-7 0.35151240855650234 0.9361832227885389
vn 0 0.3496454921381056 0.9368820789338976
vn -0.8378209051841216 -0.5110987031624872 0.19192250118754436
vn -0.8360293752076579 -0.48702868555722784 0.252701292506176
vn -0.8699282082847873 -0.30280890288380974 0.38927070370723116
vn -0.8507550295555971 0.019221760667772148 0.5252108182460505
vn -0.822360176354118 -0.08162364765301981 0.5630819838093203
vn -0.9641429745222859 0.03237899914437697 0.2634006930395722
vn -0.9957859374509116 0.08319986312909691 0.0385765414508406
vn -0.997919904084786 0.060351280247035934 -0.022662480092764326
vn -1 0 0
vn 0 0.27808079633518273 0.9605576873408439
vn -2.2573219694737154e-7 -0.394722494662077 0.9188003875748506
vn -0.020532070683946642 -0.42746601423937963 0.9037982301065475
vn -0.24206608629274562 -0.8832909499826932 0.40149857726470783
vn -0.24258479114935708 -0.9082089668642326 0.3410411875572009
vn -0.12181530474267069 -0.9042302352046588 0.4093027159355015
vn -0.3597733953856076 -0.8734858887968187 0.3280022957930982
vn -0.35900409346123946 -0.848641984543166 0.38848789292423286
vn -0.4709999976394139 -0.8005823959875932 0.3704413981433994
vn -0.47200918833134303 -0.8253234795969723 0.309916892338467
vn -0.5776070158499265 -0.7642114209704775 0.286968707874615
vn -0.5763719932055886 -0.7396007912814084 0.34754279590308196
vn -0.673433476320884 -0.6663762765690279 0.3200468887465834
vn -0.6748765109384491 -0.690830211197028 0.2594134042045918
vn -0.760519691583458 -0.581806093561251 0.2882905968095369
vn -0.762149358573594 -0.6060790670567491 0.22758848762949402
vn -0.9792535651177948 0.20254269278518247 -0.006238012777794339
vn -0.9813520949942475 0.17994989908209844 -0.06757291965531907
vn -0.9465715745941939 0.31862129144826346 -0.049826968662653306
vn -0.9486000318844587 0.29627740995851204 -0.11125500373951654
vn -0.8984800021734332 0.42938990103869895 -0.09142209022115096
vn -0.9004053816071403 0.407283491680294 -0.15293889687586967
vn -0.8360293715109621 0.5329829818377524 -0.1303227955590422
vn -0.8378209051841216 0.5110987031624872 -0.19192250118754436
vn -0.7605196566535332 0.6277600642202794 -0.16591309054364167
vn -0.762149358573594 0.6060790670567491 -0.22758848762949402
vn -0.6734334833458083 0.7123297823838923 -0.19767049511155516
vn -0.6748765109384491 0.690830211197028 -0.2594134042045918
vn -0.5763720085844933 0.7855539117000517 -0.2251674033536465
vn -0.5776070158499265 0.7642114209704775 -0.286968707874615
vn -0.47200918833134303 0.8253234795969723 -0.309916892338467
vn -0.4709999808472477 0.8465351655764778 -0.24806698991259896
vn -0.3590041040449226 0.8945945100794547 -0.2661141029983247
vn -0.3597733953856076 0.8734858887968187 -0.3280022957930982
vn -0.242066088345818 0.9292432552619284 -0.2791253865616116
vn -0.24258479114935708 0.9082089668642326 -0.3410411875572009
vn -0.12184970026013144 0.950155802028445 -0.28697840061265706
vn -0.12211079618376845 0.9291663709615028 -0.3489108890957654
vn 0 0.9361722540249108 -0.3515416202868696
vn 0 0.9571466758541329 -0.2896035926941918
vn 0.12184970026013144 0.950155802028445 -0.28697840061265706
vn 0.12211079618376845 0.9291663709615028 -0.3489108890957654
vn 0.242066088345818 0.9292432552619284 -0.2791253865616116
vn 0.24258479114935708 0.9082089668642326 -0.3410411875572009
vn 0.3597733953856076 0.8734858887968187 -0.3280022957930982
vn 0.3590041040449226 0.8945945100794547 -0.2661141029983247
vn 0.4709999808472477 0.8465351655764778 -0.24806698991259896
vn 0.47200918833134303 0.8253234795969723 -0.309916892338467
vn 0.5763720085844933 0.7855539117000517 -0.2251674033536465
vn 0.5776070158499265 0.7642114209704775 -0.286968707874615
vn 0.6734334833458083 0.7123297823838923 -0.19767049511155516
vn 0.6748765109384491 0.690830211197028 -0.2594134042045918
vn 0.762149358573594 0.6060790670567491 -0.22758848762949402
vn 0.7605196566535332 0.6277600642202794 -0.16591309054364167
vn 0.8378209051841216 0.5110987031624872 -0.19192250118754436
vn 0.8360293715109621 0.5329829818377524 -0.1303227955590422
vn 0.9004053816071403 0.407283491680294 -0.15293889687586967
vn 0.8984800021734332 0.42938990103869895 -0.09142209022115096
vn 0.9486000318844587 0.29627740995851204 -0.11125500373951654
vn 0.9465715745941939 0.31862129144826346 -0.049826968662653306
vn 0.9813520949942475 0.17994989908209844 -0.06757291965531907
vn 0.9792535651177948 0.20254269278518247 -0.006238012777794339
vn 0.997919904084786 0.060351280247035934 -0.022662480092764326
vn 0.9957859374509116 0.08319986312909691 0.0385765414508406
vn 0.9983252930016244 -0.054157459620349964 0.020336639857437798
vn 0.9957859373384069 -0.03724458139653846 0.08380458314237177
vn 1 0 0
vn 0.9813520949942475 -0.17994989908209844 0.06757291965531907
vn 0.9792535735686491 -0.15658749577349612 0.1286187965284083
vn 0.995318567004019 -0.09047972700049066 0.03397600887365533
vn 0.9486000318844587 -0.29627740995851204 0.11125500373951654
vn 0.9465715624460236 -0.2726663891823212 0.17220719316790703
vn 0.9004053816071403 -0.407283491680294 0.15293889687586967
vn 0.8984799905262744 -0.38343529595699316 0.21380149774564064
vn 0.8378209051841216 -0.5110987031624872 0.19192250118754436
vn 0.8360293752076579 -0.48702868555722784 0.252701292506176
vn 0.762149358573594 -0.6060790670567491 0.22758848762949402
vn 0.760519691583458 -0.581806093561251 0.2882905968095369
vn 0.6748765109384491 -0.690830211197028 0.2594134042045918
vn 0.673433476320884 -0.6663762765690279 0.3200468887465834
vn 0.5776070158499265 -0.7642114209704775 0.286968707874615
vn 0.5763719932055886 -0.7396007912814084 0.34754279590308196
vn 0.4709999976394139 -0.8005823959875932 0.3704413981433994
vn 0.47200918833134303 -0.8253234795969723 0.309916892338467
vn 0.35900409346123946 -0.848641984543166 0.38848789292423286
vn 0.3597733953856076 -0.8734858887968187 0.3280022957930982
vn 0.24206608629274562 -0.8832909499826932 0.40149857726470783
vn 0.24258479114935708 -0.9082089668642326 0.3410411875572009
vn 0.12184930044590205 -0.9042066033089036 0.40934480149797875
vn 0.02058265891998957 -0.42750877756781885 0.903776852577146
vn -0.8094616794844934 -0.4031090897833495 0.42693658917945015
vn -0.7805773263522168 -0.17785490600436496 0.5992217202296686
vn -0.6958355924461966 0.12029469869411306 0.708055092313545
vn -0.6726086680724579 0.03781435820501923 0.7390315649194806
vn -0.8651188159358609 0.12290390226394267 0.48627570895740785
vn -0.9641429660418152 0.1489960947521922 0.21960989226509597
vn 0 0.3577943964736641 0.9338003907966875
vn -0.000034674420543182343 -0.9112143142743706 0.41193260645301366
vn -0.00003541767182549111 -0.936209048253914 0.3514436181140419
vn -0.2343727107805895 -0.7867699361895535 0.5710188262655131
vn -0.11797710123710138 -0.8070173084623392 0.5786229060674077
vn -0.34759438887461436 -0.7532231758917332 0.5584200821267573
vn -0.4560310024526876 -0.7066923038008281 0.5409452029093844
vn -0.5580545993384793 -0.6476501992322724 0.5187718993850451
vn -0.6520319040250125 -0.5767543035603218 0.4921472030380394
vn -0.7363509884907827 -0.4948732922650961 0.4613974927883249
vn -0.9481357865953086 0.26454679625985195 0.17622009750861004
vn -0.9164920079179731 0.3769372032565244 0.13401770115783732
vn -0.8699282285497328 0.4841864158902681 0.09374642307661636
vn -0.8094616822511168 0.5844880871840619 0.05608440877024999
vn -0.7363509862906614 0.6762539874095438 0.02162797959733172
vn -0.6520319076108072 0.7581367088493097 -0.0091171351064191
vn -0.5580546118641108 0.8290343176250761 -0.03573724075976521
vn -0.4560310126985398 0.8880780247292264 -0.057906281612445445
vn -0.34759439099620165 0.9346102757906263 -0.07537752804748248
vn -0.23437269973232175 0.9681580988942617 -0.08797347989952484
vn -0.11797710283084338 0.9884061237166608 -0.0955758222933277
vn 0 0.9951748659211359 -0.0981172066400647
vn 0.11797710283084338 0.9884061237166608 -0.0955758222933277
vn 0.23437269973232175 0.9681580988942617 -0.08797347989952484
vn 0.34759439099620165 0.9346102757906263 -0.07537752804748248
vn 0.4560310126985398 0.8880780247292264 -0.057906281612445445
vn 0.5580546118641108 0.8290343176250761 -0.03573724075976521
vn 0.6520319076108072 0.7581367088493097 -0.0091171351064191
vn 0.7363509862906614 0.6762539874095438 0.02162797959733172
vn 0.8094616822511168 0.5844880871840619 0.05608440877024999
vn 0.8699282285497328 0.4841864158902681 0.09374642307661636
vn 0.9164920079179731 0.3769372032565244 0.13401770115783732
vn 0.9481357865953086 0.26454679625985195 0.17622009750861004
vn 0.9641429660418152 0.1489960947521922 0.21960989226509597
vn 0.9641429745222859 0.03237899914437697 0.2634006930395722
vn 0.9481357773019539 -0.08317130800890742 0.30679159265551426
vn 0.9164920003266149 -0.19556090006969315 0.3489962001243735
vn 0.8699282082847873 -0.30280890288380974 0.38927070370723116
vn 0.8094616794844934 -0.4031090897833495 0.42693658917945015
vn 0.7363509884907827 -0.4948732922650961 0.4613974927883249
vn 0.6520319040250125 -0.5767543035603218 0.4921472030380394
vn 0.5580545993384793 -0.6476501992322724 0.5187718993850451
vn 0.4560310024526876 -0.7066923038008281 0.5409452029093844
vn 0.34759438887461436 -0.7532231758917332 0.5584200821267573
vn 0.2343727107805895 -0.7867699361895535 0.5710188262655131
vn 0.11797710123710138 -0.8070173084623392 0.5786229060674077
vn -0.7263195214639514 -0.2678511079154465 0.6330211187068282
vn -0.6384308917125855 -0.04089060946920282 0.7685921900229732
vn -0.47736601953771096 0.15468880633112742 0.8649815354020992
vn -0.49385590849651195 0.21322540366842244 0.8429954145032599
vn -0.7075852430938957 0.2050962124909257 0.6762090411829983
vn -0.8651188072148097 0.2275436018976396 0.44698250372768894
vn -0.21029649608254325 -0.6120874885978784 0.7623150857994001
vn -0.10585759727380221 -0.6302536837687969 0.7691387801920269
vn 0 -0.8137858462775955 0.5811648616341644
vn -0.31188778721218924 -0.5819887761376926 0.7510093692076251
vn -0.4091862954330432 -0.5402401939703415 0.735327891792954
vn -0.5007309229779066 -0.4872658223600104 0.7154303328301899
vn -0.5850564833123815 -0.42365518791604523 0.6915382802751915
vn -0.6607165197025108 -0.35018741044255913 0.6639446197987723
vn -0.8507550284694286 0.33122661108407464 0.40805001365487176
vn -0.8223601484581926 0.43207387291956767 0.37018367679856484
vn -0.7805773191454582 0.5283077129579645 0.33405090819336875
vn -0.7263195227686285 0.618307219382664 0.30026010941253917
vn -0.660716490893642 0.7006470903432963 0.2693461962877227
vn -0.5850565239377344 0.774118631673258 0.24176270989178208
vn -0.500730907671155 0.8377330128339986 0.21788060333791254
vn -0.4091862940654198 0.8907107870816918 0.19799209712844754
vn -0.3118878037188909 0.9324623111185034 0.18231850217393136
vn -0.21029650760682647 0.9625632348177512 0.17101870618607357
vn -0.10585760282491126 0.9807308261717391 0.16419870438179954
vn 0 0.9868040854099783 0.16191879760601058
vn 0.10585760282491126 0.9807308261717391 0.16419870438179954
vn 0.21029650760682647 0.9625632348177512 0.17101870618607357
vn 0.3118878037188909 0.9324623111185034 0.18231850217393136
vn 0.4091862940654198 0.8907107870816918 0.19799209712844754
vn 0.500730907671155 0.8377330128339986 0.21788060333791254
vn 0.5850565239377344 0.774118631673258 0.24176270989178208
vn 0.660716490893642 0.7006470903432963 0.2693461962877227
vn 0.7263195227686285 0.618307219382664 0.30026010941253917
vn 0.7805773191454582 0.5283077129579645 0.33405090819336875
vn 0.8223601484581926 0.43207387291956767 0.37018367679856484
vn 0.8507550284694286 0.33122661108407464 0.40805001365487176
vn 0.8651188072148097 0.2275436018976396 0.44698250372768894
vn 0.8651188159358609 0.12290390226394267 0.48627570895740785
vn 0.8507550295555971 0.019221760667772148 0.5252108182460505
vn 0.822360176354118 -0.08162364765301981 0.5630819838093203
vn 0.7805773263522168 -0.17785490600436496 0.5992217202296686
vn 0.7263195214639514 -0.2678511079154465 0.6330211187068282
vn 0.6607165197025108 -0.35018741044255913 0.6639446197987723
vn 0.5850564833123815 -0.42365518791604523 0.6915382802751915
vn 0.5007309229779066 -0.4872658223600104 0.7154303328301899
vn 0.4091862954330432 -0.5402401939703415 0.735327891792954
vn 0.31188778721218924 -0.5819887761376926 0.7510093692076251
vn 0.21029649608254325 -0.6120874885978784 0.7623150857994001
vn 0.10585759727380221 -0.6302536837687969 0.7691387801920269
vn -0.5940496044054421 -0.11449450084908568 0.7962387059048665
vn -0.4531025933173326 0.09883398854232844 0.8859626869332154
vn -0.24976059949419857 0.2611296994711743 0.9324327981116884
vn -0.2583969006362016 0.29175440071833125 0.9209291022674289
vn -0.5021976080885329 0.2734112044036359 0.8203925132134676
vn -0.7075852240351103 0.29068160987381336 0.6440709218776696
vn -0.08657606736191883 -0.41086348748047535 0.9075768723449963
vn -0.17199230297961274 -0.3960085068604932 0.901995515626265
vn 0 -0.6363264755910706 0.7714198704090053
vn -0.25508059381066583 -0.37139569098836983 0.8927480783381554
vn -0.3346591055959103 -0.33725570563932883 0.8799215147133658
vn -0.4095332983574971 -0.2939348988211243 0.8636461965362
vn -0.47850441196484744 -0.24191480604900137 0.8441035211065344
vn -0.5403893157070938 -0.1818320052851757 0.8215330238788887
vn -0.6958356102239265 0.3754846055170027 0.6122288089954903
vn -0.6726087171828021 0.4579677116994745 0.5812599148491597
vn -0.6384308884523622 0.5366767902928423 0.5517100900209273
vn -0.5940496198633087 0.6102856204061938 0.5240768175236199
vn -0.5403893374004175 0.6776286468987682 0.4987973345218297
vn -0.47850439907937187 0.7377172985806539 0.47624229908372423
vn -0.4095332989756364 0.7897430980246195 0.45671469885762195
vn -0.3346591086896732 0.8330691216312606 0.4404533114366987
vn -0.2550805931433241 0.8672134766889292 0.42763848850489394
vn -0.17199230458398626 0.8918296237692886 0.4184000111513126
vn -0.08657606965546297 0.9066866963917609 0.41282419835713025
vn 0 0.9116532509635494 0.410960277895068
vn 0.08657606965546297 0.9066866963917609 0.41282419835713025
vn 0.17199230458398626 0.8918296237692886 0.4184000111513126
vn 0.2550805931433241 0.8672134766889292 0.42763848850489394
vn 0.3346591086896732 0.8330691216312606 0.4404533114366987
vn 0.4095332989756364 0.7897430980246195 0.45671469885762195
vn 0.47850439907937187 0.7377172985806539 0.47624229908372423
vn 0.5403893374004175 0.6776286468987682 0.4987973345218297
vn 0.5940496198633087 0.6102856204061938 0.5240768175236199
vn 0.6384308884523622 0.5366767902928423 0.5517100900209273
vn 0.6726087171828021 0.4579677116994745 0.5812599148491597
vn 0.6958356102239265 0.3754846055170027 0.6122288089954903
vn 0.7075852240351103 0.29068160987381336 0.6440709218776696
vn 0.7075852430938957 0.2050962124909257 0.6762090411829983
vn 0.6958355924461966 0.12029469869411306 0.708055092313545
vn 0.6726086680724579 0.03781435820501923 0.7390315649194806
vn 0.6384308917125855 -0.04089060946920282 0.7685921900229732
vn 0.5940496044054421 -0.11449450084908568 0.7962387059048665
vn 0.5403893157070938 -0.1818320052851757 0.8215330238788887
vn 0.47850441196484744 -0.24191480604900137 0.8441035211065344
vn 0.4095332983574971 -0.2939348988211243 0.8636461965362
vn 0.3346591055959103 -0.33725570563932883 0.8799215147133658
vn 0.25508059381066583 -0.37139569098836983 0.8927480783381554
vn 0.17199230297961274 -0.3960085068604932 0.901995515626265
vn 0.08657606736191883 -0.41086348748047535 0.9075768723449963
vn -0.42159708757349906 0.046602058626412216 0.9055849733080401
vn -0.23705469785168948 0.23191169789829774 0.9434097914503394
vn -0.06443374857963913 0.3306050927122267 0.9415670792443391
vn -0.06666611115840596 0.33850500588194204 0.9386000163093338
vn -0.26276600402011757 0.3232445049453918 0.9091023139085657
vn -0.5021975914923786 0.3341540943391672 0.7975829864883183
vn -0.06143604776212187 -0.16367079403810483 0.9846001641348159
vn -0.12204999972353234 -0.1531331996531229 0.9806395977786551
vn 0 -0.41582929348774345 0.9094426857573181
vn -0.18101360707998895 -0.1356732053065891 0.974077438099111
vn -0.2374887980674444 -0.11145379909304938 0.964975192147553
vn -0.2906281051170339 -0.08071964142121563 0.9534252167867769
vn -0.3395807932057113 -0.04381144912342638 0.939555981201485
vn -0.3835067142202566 -0.0011800020437541508 0.9235373342443495
vn -0.49385590029033294 0.39434150023182923 0.7749846004556058
vn -0.4773660131630004 0.45288151248785896 0.7530073207635974
vn -0.45310259331550207 0.508740992494684 0.7320386892004347
vn -0.4215970997342547 0.5609786996463982 0.7124315995509332
vn -0.3835067226842334 0.6087671360082757 0.6944963410791161
vn -0.3395808234078435 0.6514052449023942 0.6784954467697648
vn -0.2906281059087789 0.6883199139942768 0.6646435135129107
vn -0.23748880338754863 0.7190600102566971 0.6531093093159742
vn -0.18101359575148696 0.7432844825546041 0.6440203848844007
vn -0.12205000077490764 0.7607482048300662 0.6374684040473508
vn -0.061436050288821556 0.7712882036259598 0.6335141029782602
vn 0 0.7748115136709525 0.6321923111545468
vn 0.061436050288821556 0.7712882036259598 0.6335141029782602
vn 0.12205000077490764 0.7607482048300662 0.6374684040473508
vn 0.18101359575148696 0.7432844825546041 0.6440203848844007
vn 0.23748880338754863 0.7190600102566971 0.6531093093159742
vn 0.2906281059087789 0.6883199139942768 0.6646435135129107
vn 0.3395808234078435 0.6514052449023942 0.6784954467697648
vn 0.3835067226842334 0.6087671360082757 0.6944963410791161
vn 0.4215970997342547 0.5609786996463982 0.7124315995509332
vn 0.45310259331550207 0.508740992494684 0.7320386892004347
vn 0.4773660131630004 0.45288151248785896 0.7530073207635974
vn 0.49385590029033294 0.39434150023182923 0.7749846004556058
vn 0.5021975914923786 0.3341540943391672 0.7975829864883183
vn 0.5021976080885329 0.2734112044036359 0.8203925132134676
vn 0.49385590849651195 0.21322540366842244 0.8429954145032599
vn 0.47736601953771096 0.15468880633112742 0.8649815354020992
vn 0.4531025933173326 0.09883398854232844 0.8859626869332154
vn 0.42159708757349906 0.046602058626412216 0.9055849733080401
vn 0.3835067142202566 -0.0011800020437541508 0.9235373342443495
vn 0.3395807932057113 -0.04381144912342638 0.939555981201485
vn 0.2906281051170339 -0.08071964142121563 0.9534252167867769
vn 0.2374887980674444 -0.11145379909304938 0.964975192147553
vn 0.18101360707998895 -0.1356732053065891 0.974077438099111
vn 0.12204999972353234 -0.1531331996531229 0.9806395977786551
vn 0.06143604776212187 -0.16367079403810483 0.9846001641348159
vn -0.22055890767788397 0.20459340712210813 0.9536746331984015
vn -0.06115018954744652 0.32306969760906173 0.9443974930108088
vn 0.008280977682411731 0.2877206889654675 0.9576785632715499
vn -0.008280977682411731 0.2877206889654675 0.9576785632715499
vn 0 0.2872474069186811 0.9578564230710643
vn -0.01645228001921299 0.28913680033765404 0.9571464011177565
vn 0.01645228001921299 0.28913680033765404 0.9571464011177565
vn 0.02440325017964291 0.2914839021457392 0.9562644070394771
vn -0.02440325017964291 0.2914839021457392 0.9562644070394771
vn -0.03202163096767903 0.29474090890693505 0.9550405288608876
vn 0.03202163096767903 0.29474090890693505 0.9550405288608876
vn -0.03919345982986469 0.2988758987026062 0.9534867958609989
vn 0.03919345982986469 0.2988758987026062 0.9534867958609989
vn 0.04580387910145582 0.30384439403942143 0.951619981331874
vn -0.04580387910145582 0.30384439403942143 0.951619981331874
vn -0.0517389497246085 0.3095865983521596 0.9494625949462848
vn 0.0517389497246085 0.3095865983521596 0.9494625949462848
vn -0.05688852993123852 0.3160263996180169 0.9470432988553036
vn 0.05688852993123852 0.3160263996180169 0.9470432988553036
vn 0.06115018954744652 0.32306969760906173 0.9443974930108088
vn 0.06443374857963913 0.3306050927122267 0.9415670792443391
vn 0.06666611115840596 0.33850500588194204 0.9386000163093338
vn 0.06779565218998629 0.34662941119708446 0.9355489302208073
vn -0.06779565218998629 0.34662941119708446 0.9355489302208073
vn 0.06779565116448312 0.3548295060946823 0.9324697160164439
vn -0.06779565116448312 0.3548295060946823 0.9324697160164439
vn -0.06666610672476152 0.36295408216843233 0.9294191543385758
vn 0.06666610672476152 0.36295408216843233 0.9294191543385758
vn 0.06443374869076962 0.37085439246460344 0.9264530811753852
vn -0.06443374869076962 0.37085439246460344 0.9264530811753852
vn 0.06115018868612902 0.3783902918699182 0.9236240801550429
vn -0.06115018868612902 0.3783902918699182 0.9236240801550429
vn -0.05688853034772543 0.3854342023559277 0.920980005629398
vn 0.05688853034772543 0.3854342023559277 0.920980005629398
vn -0.05173895130470238 0.3918747098819138 0.9185626231634159
vn 0.05173895130470238 0.3918747098819138 0.9185626231634159
vn 0.04580388029799582 0.3976177025868639 0.9164072059620608
vn -0.04580388029799582 0.3976177025868639 0.9164072059620608
vn -0.03919346082604782 0.4025869084849877 0.9145423192750444
vn 0.03919346082604782 0.4025869084849877 0.9145423192750444
vn 0.03202163086406038 0.40672261097485907 0.9129903246358086
vn -0.03202163086406038 0.40672261097485907 0.9129903246358086
vn -0.024403251165536127 0.4099801195812694 0.9117679435474139
vn 0.024403251165536127 0.4099801195812694 0.9117679435474139
vn -0.0164522797023341 0.41232759253988693 0.9108870835196079
vn 0.0164522797023341 0.41232759253988693 0.9108870835196079
vn 0.008280978038986858 0.4137440019479073 0.910355604285956
vn -0.008280978038986858 0.4137440019479073 0.910355604285956
vn 0 0.4142173904426046 0.9101779789991179
vn -0.2627660111701611 0.3550271150921726 0.897167638138521
vn -0.03212859871737675 0.09468221622013957 0.994988960278505
vn -0.06382875308044647 0.10018710483514065 0.9929191479193802
vn 0 -0.16719330580781927 0.9859241342481951
vn -0.09466864456991025 0.10930910527664447 0.9894894477653187
vn -0.1242109008331614 0.12196440081809247 0.9847316066052203
vn -0.1520127061366155 0.13802640557200097 0.9786934395089693
vn -0.1776288047809069 0.15731870423425715 0.9714416261465023
vn -0.20061900755414236 0.17960710676295644 0.9630645362633965
vn -0.25839689504984553 0.38651849259539744 0.8853442830393049
vn -0.249760590073604 0.41714578342110625 0.8738472652701254
vn -0.2370546912321211 0.4463672834903317 0.862879668084899
vn -0.22055890472184533 0.47368991014101175 0.8526263182534892
vn -0.20061900639747537 0.49868101590227937 0.8432492268901053
vn -0.177628804691358 0.5209744137594656 0.834885422050176
vn -0.15201270063160519 0.5402716022448013 0.8276465034388301
vn -0.12421089559232365 0.5563379802581104 0.8216201708444597
vn -0.09466863564923128 0.5689969738501116 0.816872262458292
vn -0.06382875031429876 0.5781218028467258 0.8134501040055047
vn -0.032128598535334174 0.5836284733937761 0.8113849630109038
vn 0 0.5854691763597122 0.8106946672654756
vn 0.032128598535334174 0.5836284733937761 0.8113849630109038
vn 0.06382875031429876 0.5781218028467258 0.8134501040055047
vn 0.09466863564923128 0.5689969738501116 0.816872262458292
vn 0.12421089559232365 0.5563379802581104 0.8216201708444597
vn 0.15201270063160519 0.5402716022448013 0.8276465034388301
vn 0.177628804691358 0.5209744137594656 0.834885422050176
vn 0.20061900639747537 0.49868101590227937 0.8432492268901053
vn 0.22055890472184533 0.47368991014101175 0.8526263182534892
vn 0.2370546912321211 0.4463672834903317 0.862879668084899
vn 0.249760590073604 0.41714578342110625 0.8738472652701254
vn 0.25839689504984553 0.38651849259539744 0.8853442830393049
vn 0.2627660111701611 0.3550271150921726 0.897167638138521
vn 0.26276600402011757 0.3232445049453918 0.9091023139085657
vn 0.2583969006362016 0.29175440071833125 0.9209291022674289
vn 0.24976059949419857 0.2611296994711743 0.9324327981116884
vn 0.23705469785168948 0.23191169789829774 0.9434097914503394
vn 0.22055890767788397 0.20459340712210813 0.9536746331984015
vn 0.20061900755414236 0.17960710676295644 0.9630645362633965
vn 0.1776288047809069 0.15731870423425715 0.9714416261465023
vn 0.1520127061366155 0.13802640557200097 0.9786934395089693
vn 0.1242109008331614 0.12196440081809247 0.9847316066052203
vn 0.09466864456991025 0.10930910527664447 0.9894894477653187
vn 0.06382875308044647 0.10018710483514065 0.9929191479193802
vn 0.03212859871737675 0.09468221622013957 0.994988960278505
vn 0 0.09284212395810405 0.9956808424484968
usemtl material_0_0
f 1//1 2//2 3//3
f 2//2 1//1 4//4
f 3//3 5//5 6//6
f 5//5 3//3 2//2
f 7//7 3//3 8//8
f 3//3 7//7 1//1
f 9//9 4//4 1//1
f 4//4 9//9 10//10
f 4//4 10//10 11//11
f 12//12 13//13 14//14
f 13//13 12//12 15//12
f 15//12 12//12 16//12
f 16//12 12//12 17//12
f 16//12 17//12 18//12
f 18//12 17//12 19//12
f 19//12 17//12 20//12
f 19//12 20//12 21//12
f 21//12 20//12 22//12
f 21//12 22//12 23//12
f 23//12 22//12 24//12
f 23//12 24//12 25//12
f 25//12 24//12 26//12
f 25//12 26//12 27//12
f 27//12 26//12 28//12
f 27//12 28//12 29//12
f 29//12 28//12 30//12
f 29//12 30//12 31//12
f 31//12 30//12 32//12
f 31//12 32//12 33//12
f 33//12 32//12 34//12
f 33//12 34//12 35//12
f 35//12 34//12 36//12
f 35//12 36//12 37//12
f 37//12 36//12 38//12
f 38//12 36//12 39//12
f 38//12 39//12 40//12
f 40//12 39//12 41//12
f 40//12 41//12 42//12
f 42//12 41//12 43//12
f 42//12 43//12 44//12
f 44//12 43//12 45//12
f 44//12 45//12 46//12
f 46//12 45//12 47//12
f 46//12 47//12 48//12
f 48//12 47//12 49//12
f 48//12 49//12 50//12
f 50//12 49//12 51//12
f 50//12 51//12 52//12
f 52//12 51//12 53//12
f 52//12 53//12 54//12
f 54//12 53//12 55//12
f 55//12 53//12 56//12
f 55//12 56//12 57//12
f 57//12 56//12 58//12
f 59//15 60//12 61//16
f 60//12 59//15 62//12
f 60//12 62//12 63//12
f 60//12 63//12 64//12
f 64//12 63//12 65//12
f 64//12 65//12 66//12
f 64//12 66//12 67//12
f 67//12 66//12 68//12
f 67//12 68//12 69//12
f 69//12 68//12 70//12
f 69//12 70//12 71//12
f 71//12 70//12 72//12
f 71//12 72//12 73//12
f 73//12 72//12 74//12
f 73//12 74//12 75//12
f 75//12 74//12 76//12
f 75//12 76//12 77//12
f 77//12 76//12 78//12
f 77//12 78//12 79//12
f 79//12 78//12 80//12
f 79//12 80//12 81//12
f 81//12 80//12 82//12
f 81//12 82//12 83//12
f 83//12 82//12 84//12
f 83//12 84//12 85//12
f 83//12 85//12 86//12
f 86//12 85//12 87//12
f 86//12 87//12 88//12
f 88//12 87//12 89//12
f 88//12 89//12 90//12
f 90//12 89//12 91//12
f 90//12 91//12 92//12
f 92//12 91//12 93//12
f 92//12 93//12 94//12
f 94//12 93//12 95//12
f 94//12 95//12 96//12
f 96//12 95//12 97//12
f 96//12 97//12 98//12
f 98//12 97//12 99//12
f 98//12 99//12 100//12
f 100//12 99//12 101//12
f 100//12 101//12 102//12
f 100//12 102//12 103//12
f 103//12 102//12 104//12
f 103//12 104//12 58//12
f 103//12 58//12 56//12
f 103//12 56//12 105//12
f 103//12 105//12 106//12
f 106//12 105//12 107//17
f 106//12 107//17 108//17
f 6//6 109//18 110//19
f 109//18 6//6 5//5
f 8//8 6//6 111//20
f 6//6 8//8 3//3
f 112//21 8//8 113//22
f 8//8 112//21 7//7
f 114//23 1//1 7//7
f 1//1 114//23 9//9
f 115//24 10//10 9//9
f 10//10 115//24 116//25
f 10//10 116//25 117//26
f 107//17 118//27 108//17
f 118//27 107//17 119//27
f 120//28 59//15 61//16
f 59//15 120//28 121//29
f 59//15 122//30 123//31
f 122//30 59//15 124//32
f 125//33 122//30 126//34
f 122//30 125//33 123//31
f 125//33 127//35 128//36
f 127//35 125//33 126//34
f 129//37 127//35 130//38
f 127//35 129//37 128//36
f 129//37 131//39 132//40
f 131//39 129//37 130//38
f 133//41 132//40 131//39
f 132//40 133//41 134//42
f 110//19 134//42 133//41
f 134//42 110//19 109//18
f 135//43 116//25 115//24
f 116//25 135//43 136//44
f 137//45 136//44 135//43
f 136//44 137//45 138//46
f 139//47 138//46 137//45
f 138//46 139//47 140//48
f 141//49 140//48 139//47
f 140//48 141//49 142//50
f 143//51 142//50 141//49
f 142//50 143//51 144//52
f 145//53 144//52 143//51
f 144//52 145//53 146//54
f 147//55 146//54 145//53
f 146//54 147//55 148//56
f 147//55 149//57 148//56
f 149//57 147//55 150//58
f 151//59 149//57 150//58
f 149//57 151//59 152//60
f 153//61 152//60 151//59
f 152//60 153//61 154//62
f 155//63 154//62 153//61
f 154//62 155//63 156//64
f 155//63 157//65 156//64
f 157//65 155//63 158//66
f 159//67 157//65 158//66
f 157//65 159//67 160//68
f 161//69 160//68 159//67
f 160//68 161//69 162//70
f 161//69 163//71 162//70
f 163//71 161//69 164//72
f 165//73 163//71 164//72
f 163//71 165//73 166//74
f 167//75 166//74 165//73
f 166//74 167//75 168//76
f 169//77 168//76 167//75
f 168//76 169//77 170//78
f 171//79 169//77 172//80
f 169//77 171//79 170//78
f 173//81 172//80 174//82
f 172//80 173//81 171//79
f 175//83 174//82 176//84
f 174//82 175//83 173//81
f 177//85 176//84 178//86
f 176//84 177//85 175//83
f 179//87 178//86 180//88
f 178//86 179//87 177//85
f 181//89 180//88 182//90
f 180//88 181//89 179//87
f 183//91 182//90 184//92
f 182//90 183//91 181//89
f 181//89 183//91 185//93
f 186//94 184//92 187//95
f 184//92 186//94 183//91
f 183//91 186//94 188//96
f 189//97 187//95 190//98
f 187//95 189//97 186//94
f 191//99 190//98 192//100
f 190//98 191//99 189//97
f 193//101 192//100 194//102
f 192//100 193//101 191//99
f 195//103 194//102 196//104
f 194//102 195//103 193//101
f 197//105 196//104 198//106
f 196//104 197//105 195//103
f 199//107 198//106 200//108
f 198//106 199//107 197//105
f 199//107 201//109 202//110
f 201//109 199//107 200//108
f 202//110 203//111 204//112
f 203//111 202//110 201//109
f 204//112 205//113 206//114
f 205//113 204//112 203//111
f 206//114 207//115 13//13
f 207//115 206//114 205//113
f 13//13 120//28 14//14
f 120//28 13//13 208//116
f 111//20 110//19 209//117
f 110//19 111//20 6//6
f 113//22 111//20 210//118
f 111//20 113//22 8//8
f 211//119 113//22 212//120
f 113//22 211//119 112//21
f 213//121 7//7 112//21
f 7//7 213//121 114//23
f 214//122 9//9 114//23
f 9//9 214//122 115//24
f 215//123 118//27 119//27
f 216//12 217//12 218//12
f 217//12 216//12 219//12
f 219//12 216//12 220//12
f 219//12 220//12 14//14
f 219//12 14//14 61//16
f 61//16 14//14 120//28
f 120//28 221//124 121//29
f 221//124 120//28 222//125
f 121//29 124//32 59//15
f 124//32 223//126 122//30
f 223//126 124//32 224//127
f 122//30 225//128 126//34
f 225//128 122//30 223//126
f 126//34 226//129 127//35
f 226//129 126//34 225//128
f 127//35 227//130 130//38
f 227//130 127//35 226//129
f 130//38 228//131 131//39
f 228//131 130//38 227//130
f 229//132 131//39 228//131
f 131//39 229//132 133//41
f 209//117 133//41 229//132
f 133//41 209//117 110//19
f 230//133 115//24 214//122
f 115//24 230//133 135//43
f 231//134 135//43 230//133
f 135//43 231//134 137//45
f 232//135 137//45 231//134
f 137//45 232//135 139//47
f 233//136 139//47 232//135
f 139//47 233//136 141//49
f 234//137 141//49 233//136
f 141//49 234//137 143//51
f 235//138 143//51 234//137
f 143//51 235//138 145//53
f 235//138 147//55 145//53
f 147//55 235//138 236//139
f 236//139 150//58 147//55
f 150//58 236//139 237//140
f 237//140 151//59 150//58
f 151//59 237//140 238//141
f 238//141 153//61 151//59
f 153//61 238//141 239//142
f 239//142 155//63 153//61
f 155//63 239//142 240//143
f 240//143 158//66 155//63
f 158//66 240//143 241//144
f 241//144 159//67 158//66
f 159//67 241//144 242//145
f 243//146 159//67 242//145
f 159//67 243//146 161//69
f 244//147 161//69 243//146
f 161//69 244//147 164//72
f 245//148 164//72 244//147
f 164//72 245//148 165//73
f 246//149 165//73 245//148
f 165//73 246//149 167//75
f 247//150 167//75 246//149
f 167//75 247//150 169//77
f 172//80 247//150 248//151
f 247//150 172//80 169//77
f 174//82 248//151 249//152
f 248//151 174//82 172//80
f 176//84 249//152 250//153
f 249//152 176//84 174//82
f 178//86 250//153 251//154
f 250//153 178//86 176//84
f 180//88 251//154 252//155
f 251//154 180//88 178//86
f 182//90 252//155 253//156
f 252//155 182//90 180//88
f 184//92 253//156 254//157
f 253//156 184//92 182//90
f 187//95 254//157 255//158
f 254//157 187//95 184//92
f 190//98 255//158 256//159
f 255//158 190//98 187//95
f 192//100 256//159 257//160
f 256//159 192//100 190//98
f 194//102 257//160 258//161
f 257//160 194//102 192//100
f 196//104 258//161 259//162
f 258//161 196//104 194//102
f 198//106 259//162 260//163
f 259//162 198//106 196//104
f 200//108 260//163 261//164
f 260//163 200//108 198//106
f 201//109 261//164 262//165
f 261//164 201//109 200//108
f 203//111 262//165 263//166
f 262//165 203//111 201//109
f 205//113 263//166 264//167
f 263//166 205//113 203//111
f 207//115 264//167 265//168
f 264//167 207//115 205//113
f 207//115 208//116 13//13
f 208//116 222//125 120//28
f 222//125 208//116 207//115
f 210//118 209//117 266//169
f 209//117 210//118 111//20
f 212//120 210//118 267//170
f 210//118 212//120 113//22
f 268//171 211//119 212//120
f 211//119 268//171 269//172
f 270//173 112//21 211//119
f 112//21 270//173 213//121
f 271//174 114//23 213//121
f 114//23 271//174 214//122
f 207//115 221//124 222//125
f 221//124 124//32 121//29
f 224//127 272//175 223//126
f 272//175 224//127 273//176
f 221//124 224//127 124//32
f 224//127 221//124 274//177
f 223//126 275//178 225//128
f 275//178 223//126 272//175
f 275//178 226//129 225//128
f 226//129 275//178 276//179
f 276//179 227//130 226//129
f 227//130 276//179 277//180
f 277//180 228//131 227//130
f 228//131 277//180 278//181
f 279//182 228//131 278//181
f 228//131 279//182 229//132
f 266//169 229//132 279//182
f 229//132 266//169 209//117
f 280//183 214//122 271//174
f 214//122 280//183 230//133
f 281//184 230//133 280//183
f 230//133 281//184 231//134
f 282//185 231//134 281//184
f 231//134 282//185 232//135
f 283//186 232//135 282//185
f 232//135 283//186 233//136
f 284//187 233//136 283//186
f 233//136 284//187 234//137
f 284//187 235//138 234//137
f 235//138 284//187 285//188
f 285//188 236//139 235//138
f 236//139 285//188 286//189
f 286//189 237//140 236//139
f 237//140 286//189 287//190
f 287//190 238//141 237//140
f 238//141 287//190 288//191
f 288//191 239//142 238//141
f 239//142 288//191 289//192
f 289//192 240//143 239//142
f 240//143 289//192 290//193
f 290//193 241//144 240//143
f 241//144 290//193 291//194
f 291//194 242//145 241//144
f 242//145 291//194 292//195
f 293//196 242//145 292//195
f 242//145 293//196 243//146
f 294//197 243//146 293//196
f 243//146 294//197 244//147
f 295//198 244//147 294//197
f 244//147 295//198 245//148
f 296//199 245//148 295//198
f 245//148 296//199 246//149
f 297//200 246//149 296//199
f 246//149 297//200 247//150
f 298//201 247//150 297//200
f 247//150 298//201 248//151
f 249//152 298//201 299//202
f 298//201 249//152 248//151
f 250//153 299//202 300//203
f 299//202 250//153 249//152
f 251//154 300//203 301//204
f 300//203 251//154 250//153
f 252//155 301//204 302//205
f 301//204 252//155 251//154
f 253//156 302//205 303//206
f 302//205 253//156 252//155
f 254//157 303//206 304//207
f 303//206 254//157 253//156
f 255//158 304//207 305//208
f 304//207 255//158 254//157
f 256//159 305//208 306//209
f 305//208 256//159 255//158
f 257//160 306//209 307//210
f 306//209 257//160 256//159
f 258//161 307//210 308//211
f 307//210 258//161 257//160
f 259//162 308//211 309//212
f 308//211 259//162 258//161
f 260//163 309//212 310//213
f 309//212 260//163 259//162
f 260//163 311//214 261//164
f 311//214 260//163 310//213
f 261//164 312//215 262//165
f 312//215 261//164 311//214
f 262//165 313//216 263//166
f 313//216 262//165 312//215
f 264//167 313//216 314//217
f 313//216 264//167 263//166
f 265//168 314//217 315//218
f 314//217 265//168 264//167
f 207//115 274//177 221//124
f 274//177 207//115 265//168
f 316//219 210//118 266//169
f 210//118 316//219 267//170
f 317//220 212//120 267//170
f 212//120 317//220 268//171
f 318//221 269//172 268//171
f 269//172 318//221 319//222
f 269//172 270//173 211//119
f 270//173 269//172 320//223
f 321//224 213//121 270//173
f 213//121 321//224 271//174
f 322//225 272//175 273//176
f 272//175 322//225 323//226
f 274//177 273//176 224//127
f 273//176 274//177 324//227
f 323//226 275//178 272//175
f 275//178 323//226 325//228
f 325//228 276//179 275//178
f 276//179 325//228 326//229
f 326//229 277//180 276//179
f 277//180 326//229 327//230
f 327//230 278//181 277//180
f 278//181 327//230 328//231
f 328//231 279//182 278//181
f 279//182 328//231 329//232
f 329//232 266//169 279//182
f 266//169 329//232 316//219
f 330//233 271//174 321//224
f 271//174 330//233 280//183
f 331//234 280//183 330//233
f 280//183 331//234 281//184
f 332//235 281//184 331//234
f 281//184 332//235 282//185
f 333//236 282//185 332//235
f 282//185 333//236 283//186
f 333//236 284//187 283//186
f 284//187 333//236 334//237
f 334//237 285//188 284//187
f 285//188 334//237 335//238
f 335//238 286//189 285//188
f 286//189 335//238 336//239
f 336//239 287//190 286//189
f 287//190 336//239 337//240
f 337//240 288//191 287//190
f 288//191 337//240 338//241
f 338//241 289//192 288//191
f 289//192 338//241 339//242
f 339//242 290//193 289//192
f 290//193 339//242 340//243
f 340//243 291//194 290//193
f 291//194 340//243 341//244
f 341//244 292//195 291//194
f 292//195 341//244 342//245
f 343//246 292//195 342//245
f 292//195 343//246 293//196
f 344//247 293//196 343//246
f 293//196 344//247 294//197
f 345//248 294//197 344//247
f 294//197 345//248 295//198
f 346//249 295//198 345//248
f 295//198 346//249 296//199
f 347//250 296//199 346//249
f 296//199 347//250 297//200
f 348//251 297//200 347//250
f 297//200 348//251 298//201
f 349//252 298//201 348//251
f 298//201 349//252 299//202
f 300//203 349//252 350//253
f 349//252 300//203 299//202
f 301//204 350//253 351//254
f 350//253 301//204 300//203
f 302//205 351//254 352//255
f 351//254 302//205 301//204
f 303//206 352//255 353//256
f 352//255 303//206 302//205
f 304//207 353//256 354//257
f 353//256 304//207 303//206
f 305//208 354//257 355//258
f 354//257 305//208 304//207
f 306//209 355//258 356//259
f 355//258 306//209 305//208
f 307//210 356//259 357//260
f 356//259 307//210 306//209
f 307//210 358//261 308//211
f 358//261 307//210 357//260
f 308//211 359//262 309//212
f 359//262 308//211 358//261
f 309//212 360//263 310//213
f 360//263 309//212 359//262
f 310//213 361//264 311//214
f 361//264 310//213 360//263
f 311//214 362//265 312//215
f 362//265 311//214 361//264
f 312//215 363//266 313//216
f 363//266 312//215 362//265
f 313//216 364//267 314//217
f 364//267 313//216 363//266
f 314//217 365//268 315//218
f 365//268 314//217 364//267
f 265//168 324//227 274//177
f 324//227 265//168 315//218
f 366//269 267//170 316//219
f 267//170 366//269 317//220
f 367//270 268//171 317//220
f 268//171 367//270 318//221
f 368//271 319//222 318//221
f 319//222 368//271 369//272
f 319//222 320//223 269//172
f 320//223 319//222 370//273
f 320//223 321//224 270//173
f 321//224 320//223 371//274
f 372//275 323//226 322//225
f 323//226 372//275 373//276
f 374//277 273//176 324//227
f 273//176 374//277 322//225
f 373//276 325//228 323//226
f 325//228 373//276 375//278
f 375//278 326//229 325//228
f 326//229 375//278 376//279
f 376//279 327//230 326//229
f 327//230 376//279 377//280
f 377//280 328//231 327//230
f 328//231 377//280 378//281
f 378//281 329//232 328//231
f 329//232 378//281 379//282
f 379//282 316//219 329//232
f 316//219 379//282 366//269
f 371//274 330//233 321//224
f 330//233 371//274 380//283
f 380//283 331//234 330//233
f 331//234 380//283 381//284
f 382//285 331//234 381//284
f 331//234 382//285 332//235
f 383//286 332//235 382//285
f 332//235 383//286 333//236
f 383//286 334//237 333//236
f 334//237 383//286 384//287
f 384//287 335//238 334//237
f 335//238 384//287 385//288
f 385//288 336//239 335//238
f 336//239 385//288 386//289
f 386//289 337//240 336//239
f 337//240 386//289 387//290
f 387//290 338//241 337//240
f 338//241 387//290 388//291
f 388//291 339//242 338//241
f 339//242 388//291 389//292
f 389//292 340//243 339//242
f 340//243 389//292 390//293
f 390//293 341//244 340//243
f 341//244 390//293 391//294
f 392//295 341//244 391//294
f 341//244 392//295 342//245
f 393//296 342//245 392//295
f 342//245 393//296 343//246
f 394//297 343//246 393//296
f 343//246 394//297 344//247
f 395//298 344//247 394//297
f 344//247 395//298 345//248
f 396//299 345//248 395//298
f 345//248 396//299 346//249
f 397//300 346//249 396//299
f 346//249 397//300 347//250
f 398//301 347//250 397//300
f 347//250 398//301 348//251
f 399//302 348//251 398//301
f 348//251 399//302 349//252
f 350//253 399//302 400//303
f 399//302 350//253 349//252
f 351//254 400//303 401//304
f 400//303 351//254 350//253
f 351//254 402//305 352//255
f 402//305 351//254 401//304
f 352//255 403//306 353//256
f 403//306 352//255 402//305
f 353//256 404//307 354//257
f 404//307 353//256 403//306
f 354//257 405//308 355//258
f 405//308 354//257 404//307
f 355//258 406//309 356//259
f 406//309 355//258 405//308
f 356//259 407//310 357//260
f 407//310 356//259 406//309
f 357//260 408//311 358//261
f 408//311 357//260 407//310
f 358//261 409//312 359//262
f 409//312 358//261 408//311
f 359//262 410//313 360//263
f 410//313 359//262 409//312
f 360//263 411//314 361//264
f 411//314 360//263 410//313
f 361//264 412//315 362//265
f 412//315 361//264 411//314
f 362//265 413//316 363//266
f 413//316 362//265 412//315
f 363//266 414//317 364//267
f 414//317 363//266 413//316
f 364//267 415//318 365//268
f 415//318 364//267 414//317
f 315//218 374//277 324//227
f 374//277 315//218 365//268
f 416//319 317//220 366//269
f 317//220 416//319 367//270
f 417//320 318//221 367//270
f 318//221 417//320 368//271
f 418//321 419//322 420//323
f 419//322 418//321 421//324
f 421//324 418//321 422//325
f 421//324 422//325 423//326
f 421//324 423//326 424//327
f 424//327 423//326 425//328
f 425//328 423//326 426//329
f 425//328 426//329 427//330
f 427//330 426//329 428//331
f 427//330 428//331 429//332
f 427//330 429//332 430//333
f 430//333 429//332 431//334
f 431//334 429//332 432//335
f 431//334 432//335 433//336
f 433//336 432//335 434//337
f 433//336 434//337 435//338
f 433//336 435//338 417//320
f 417//320 435//338 368//271
f 368//271 435//338 436//339
f 368//271 436//339 437//340
f 368//271 437//340 369//272
f 369//272 437//340 438//341
f 369//272 438//341 439//342
f 439//342 438//341 440//343
f 439//342 440//343 441//344
f 441//344 440//343 442//345
f 442//345 440//343 443//346
f 442//345 443//346 444//347
f 442//345 444//347 445//348
f 445//348 444//347 446//349
f 445//348 446//349 447//350
f 447//350 446//349 448//351
f 448//351 446//349 449//352
f 448//351 449//352 450//353
f 450//353 449//352 451//354
f 450//353 451//354 452//355
f 450//353 452//355 453//356
f 453//356 452//355 454//357
f 454//357 452//355 455//358
f 454//357 455//358 456//359
f 454//357 456//359 457//360
f 457//360 456//359 458//361
f 458//361 456//359 459//362
f 458//361 459//362 460//363
f 460//363 459//362 461//364
f 460//363 461//364 462//365
f 460//363 462//365 463//366
f 463//366 462//365 464//367
f 369//272 370//273 319//222
f 370//273 369//272 439//342
f 370//273 371//274 320//223
f 371//274 370//273 465//368
f 466//369 373//276 372//275
f 373//276 466//369 467//370
f 468//371 322//225 374//277
f 322//225 468//371 372//275
f 467//370 375//278 373//276
f 375//278 467//370 469//372
f 469//372 376//279 375//278
f 376//279 469//372 470//373
f 470//373 377//280 376//279
f 377//280 470//373 471//374
f 471//374 378//281 377//280
f 378//281 471//374 472//375
f 472//375 379//282 378//281
f 379//282 472//375 473//376
f 473//376 366//269 379//282
f 366//269 473//376 416//319
f 465//368 380//283 371//274
f 380//283 465//368 474//377
f 475//378 380//283 474//377
f 380//283 475//378 381//284
f 476//379 381//284 475//378
f 381//284 476//379 382//285
f 477//380 382//285 476//379
f 382//285 477//380 383//286
f 478//381 383//286 477//380
f 383//286 478//381 384//287
f 479//382 384//287 478//381
f 384//287 479//382 385//288
f 480//383 385//288 479//382
f 385//288 480//383 386//289
f 481//384 386//289 480//383
f 386//289 481//384 387//290
f 482//385 387//290 481//384
f 387//290 482//385 388//291
f 483//386 388//291 482//385
f 388//291 483//386 389//292
f 484//387 389//292 483//386
f 389//292 484//387 390//293
f 485//388 390//293 484//387
f 390//293 485//388 391//294
f 392//295 485//388 486//389
f 485//388 392//295 391//294
f 393//296 486//389 487//390
f 486//389 393//296 392//295
f 394//297 487//390 488//391
f 487//390 394//297 393//296
f 395//298 488//391 489//392
f 488//391 395//298 394//297
f 396//299 489//392 490//393
f 489//392 396//299 395//298
f 397//300 490//393 491//394
f 490//393 397//300 396//299
f 398//301 491//394 492//395
f 491//394 398//301 397//300
f 399//302 492//395 493//396
f 492//395 399//302 398//301
f 400//303 493//396 494//397
f 493//396 400//303 399//302
f 401//304 494//397 495//398
f 494//397 401//304 400//303
f 402//305 495//398 496//399
f 495//398 402//305 401//304
f 402//305 497//400 403//306
f 497//400 402//305 496//399
f 403//306 498//401 404//307
f 498//401 403//306 497//400
f 404//307 499//402 405//308
f 499//402 404//307 498//401
f 405//308 500//403 406//309
f 500//403 405//308 499//402
f 406//309 501//404 407//310
f 501//404 406//309 500//403
f 407//310 502//405 408//311
f 502//405 407//310 501//404
f 408//311 503//406 409//312
f 503//406 408//311 502//405
f 409//312 504//407 410//313
f 504//407 409//312 503//406
f 410//313 505//408 411//314
f 505//408 410//313 504//407
f 411//314 506//409 412//315
f 506//409 411//314 505//408
f 412//315 507//410 413//316
f 507//410 412//315 506//409
f 413//316 508//411 414//317
f 508//411 413//316 507//410
f 414//317 509//412 415//318
f 509//412 414//317 508//411
f 365//268 468//371 374//277
f 468//371 365//268 415//318
f 433//336 367//270 416//319
f 367//270 433//336 417//320
f 430//333 473//376 472//375
f 473//376 430//333 431//334
f 427//330 472//375 471//374
f 472//375 427//330 430//333
f 425//328 471//374 470//373
f 471//374 425//328 427//330
f 424//327 470//373 469//372
f 470//373 424//327 425//328
f 421//324 469//372 467//370
f 469//372 421//324 424//327
f 419//322 467//370 466//369
f 467//370 419//322 421//324
f 420//323 466//369 510//413
f 466//369 420//323 419//322
f 509//412 420//323 510//413
f 420//323 509//412 418//321
f 508//411 418//321 509//412
f 418//321 508//411 422//325
f 507//410 422//325 508//411
f 422//325 507//410 423//326
f 506//409 423//326 507//410
f 423//326 506//409 426//329
f 505//408 426//329 506//409
f 426//329 505//408 428//331
f 504//407 428//331 505//408
f 428//331 504//407 429//332
f 503//406 429//332 504//407
f 429//332 503//406 432//335
f 502//405 432//335 503//406
f 432//335 502//405 434//337
f 501//404 434//337 502//405
f 434//337 501//404 435//338
f 500//403 435//338 501//404
f 435//338 500//403 436//339
f 499//402 436//339 500//403
f 436//339 499//402 437//340
f 498//401 437//340 499//402
f 437//340 498//401 438//341
f 497//400 438//341 498//401
f 438//341 497//400 440//343
f 497//400 443//346 440//343
f 443//346 497//400 496//399
f 496//399 444//347 443//346
f 444//347 496//399 495//398
f 495//398 446//349 444//347
f 446//349 495//398 494//397
f 494//397 449//352 446//349
f 449//352 494//397 493//396
f 493//396 451//354 449//352
f 451//354 493//396 492//395
f 492//395 452//355 451//354
f 452//355 492//395 491//394
f 491//394 455//358 452//355
f 455//358 491//394 490//393
f 490//393 456//359 455//358
f 456//359 490//393 489//392
f 489//392 459//362 456//359
f 459//362 489//392 488//391
f 488//391 461//364 459//362
f 461//364 488//391 487//390
f 487//390 462//365 461//364
f 462//365 487//390 486//389
f 486//389 464//367 462//365
f 464//367 486//389 485//388
f 464//367 484//387 463//366
f 484//387 464//367 485//388
f 463//366 483//386 460//363
f 483//386 463//366 484//387
f 460//363 482//385 458//361
f 482//385 460//363 483//386
f 458//361 481//384 457//360
f 481//384 458//361 482//385
f 457//360 480//383 454//357
f 480//383 457//360 481//384
f 454//357 479//382 453//356
f 479//382 454//357 480//383
f 453//356 478//381 450//353
f 478//381 453//356 479//382
f 450//353 477//380 448//351
f 477//380 450//353 478//381
f 448//351 476//379 447//350
f 476//379 448//351 477//380
f 447//350 475//378 445//348
f 475//378 447//350 476//379
f 445//348 474//377 442//345
f 474//377 445//348 475//378
f 442//345 465//368 441//344
f 465//368 442//345 474//377
f 439//342 465//368 370//273
f 465//368 439//342 441//344
f 431//334 416//319 473//376
f 416//319 431//334 433//336
f 510//413 372//275 468//371
f 372//275 510//413 466//369
f 415//318 510//413 468//371
f 510//413 415//318 509//412
