# SSTK version 0.8.0
# 7
mtllib original-7.mtl
o #ID118
v 0.022812 0.458094 0.440835
v 0.009258 0.457803 0.468503
v 0.009258 0.457803 0.440835
v 0.022812 0.458094 0.468394
v 0.022812 0.458094 0.468394
v 0.022812 0.458094 0.440835
v 0.009258 0.457803 0.468503
v 0.009258 0.457803 0.440835
v 0.005267 0.457803 0.440835
v 0.005267 0.457803 0.468503
v 0.005267 0.457803 0.440835
v 0.005267 0.457803 0.468503
v 0.040241 0.457989 0.440835
v 0.040241 0.457989 0.468433
v 0.040241 0.457989 0.468433
v 0.040241 0.457989 0.440835
v 0.057663 0.457403 0.440835
v 0.057663 0.457403 0.468654
v 0.057663 0.457403 0.468654
v 0.057663 0.457403 0.440835
v 0.075069 0.456337 0.440835
v 0.075069 0.456337 0.469053
v 0.075069 0.456337 0.469053
v 0.075069 0.456337 0.440835
v 0.092450 0.454791 0.440835
v 0.092450 0.454791 0.469634
v 0.092450 0.454791 0.469634
v 0.092450 0.454791 0.440835
v 0.109797 0.452767 0.440835
v 0.109797 0.452767 0.470394
v 0.109797 0.452767 0.470394
v 0.109797 0.452767 0.440835
v 0.127099 0.450265 0.440835
v 0.127099 0.450265 0.471334
v 0.127099 0.450265 0.471334
v 0.127099 0.450265 0.440835
v 0.144348 0.447286 0.440835
v 0.144348 0.447286 0.472452
v 0.144348 0.447286 0.472452
v 0.144348 0.447286 0.440835
v 0.161534 0.443833 0.440835
v 0.161534 0.443833 0.473749
v 0.161534 0.443833 0.473749
v 0.161534 0.443833 0.440835
v 0.178648 0.439907 0.440835
v 0.178648 0.439907 0.475223
v 0.178648 0.439907 0.475223
v 0.178648 0.439907 0.440835
v 0.195682 0.435511 0.440835
v 0.178851 0.439855 0.475242
v 0.195682 0.435511 0.476662
v 0.195682 0.435511 0.476662
v 0.195682 0.435511 0.440835
v 0.178851 0.439855 0.475242
v 0.212667 0.430634 0.440835
v 0.212667 0.430634 0.478255
v 0.212667 0.430634 0.478255
v 0.212667 0.430634 0.440835
v 0.235708 0.423974 0.440835
v 0.235708 0.423974 0.480430
v 0.235708 0.423974 0.480430
v 0.235708 0.423974 0.440835
v 0.258900 0.417858 0.440835
v 0.258900 0.417858 0.482427
v 0.258900 0.417858 0.482427
v 0.258900 0.417858 0.440835
v 0.282190 0.412299 0.440835
v 0.282190 0.412299 0.484242
v 0.282190 0.412299 0.484242
v 0.282190 0.412299 0.440835
v 0.305570 0.407301 0.440835
v 0.305570 0.407301 0.485875
v 0.305570 0.407301 0.485875
v 0.305570 0.407301 0.440835
v 0.329029 0.402864 0.440835
v 0.329029 0.402864 0.487324
v 0.329029 0.402864 0.487324
v 0.329029 0.402864 0.440835
v 0.352559 0.398991 0.440835
v 0.352559 0.398991 0.488588
v 0.352559 0.398991 0.488588
v 0.352559 0.398991 0.440835
v 0.376150 0.395684 0.440835
v 0.376150 0.395684 0.489669
v 0.376150 0.395684 0.489669
v 0.376150 0.395684 0.440835
v 0.399792 0.392943 0.440835
v 0.399792 0.392943 0.490564
v 0.399792 0.392943 0.490564
v 0.399792 0.392943 0.440835
v 0.423475 0.390771 0.440835
v 0.423475 0.390771 0.491274
v 0.423475 0.390771 0.491274
v 0.423475 0.390771 0.440835
v 0.447190 0.389167 0.440835
v 0.447190 0.389167 0.491798
v 0.447190 0.389167 0.491798
v 0.447190 0.389167 0.440835
v 0.470928 0.388133 0.440835
v 0.470928 0.388133 0.492136
v 0.470928 0.388133 0.492136
v 0.470928 0.388133 0.440835
v 0.490713 0.387745 0.440835
v 0.490713 0.387745 0.492262
v 0.490713 0.387745 0.492262
v 0.490713 0.387745 0.440835
vn 0.007730148169745894 -0.9999701219582883 0
vn 0.010729410410095735 -0.9999424382194467 0
vn 0.01075714043344075 -0.9999421402909745 0
vn 0.007755535196877573 -0.9999699253846637 0
vn 0 -1 0
vn -0.01983606091239373 -0.9998032459876693 0
vn -0.019901189039096823 -0.9998019517258556 0
vn -0.047378350730154346 -0.9988770153938326 0
vn -0.04753366174360235 -0.9988696366399596 0
vn -0.07486355897533073 -0.9971937863512524 0
vn -0.07510827879489826 -0.9971753840004616 0
vn -0.1022589018769596 -0.9947578182587551 0
vn -0.10259180416114981 -0.9947235403462411 0
vn -0.12953179593391084 -0.9915752688737934 0
vn -0.12995129714186093 -0.9915203781925754 0
vn -0.15665069506101514 -0.987654068860601 0
vn -0.15715460206052004 -0.9875740129484978 0
vn -0.1835845058696135 -0.9830039314288677 0
vn -0.1841704054138135 -0.9828943288928427 0
vn -0.2103029908637348 -0.9776362575282117 0
vn -0.21096810962351942 -0.9774929445893095 0
vn -0.23677719425391006 -0.9715639764221634 0
vn -0.2375182917105524 -0.9713830660984888 0
vn -0.26297901461594675 -0.9648015536221041 0
vn -0.24992669021637873 -0.9682647620963423 0
vn -0.2636877013557635 -0.9646081049595808 0
vn -0.27682221510922683 -0.9609211524480148 0
vn -0.27687039202759334 -0.9609072723309396 0
vn -0.26635570146528526 -0.9638748053025018 0
vn -0.26572859437288215 -0.9640478795851439 0
vn -0.24359679753994032 -0.9698765902053134 0
vn -0.24301750099808989 -0.9700219039839478 0
vn -0.22062620787889298 -0.9753584348315134 0
vn -0.22009669109373256 -0.9754780605270372 0
vn -0.19746220031208014 -0.9803105015493367 0
vn -0.19698430829598937 -0.9804066412898019 0
vn -0.17412350387087958 -0.9847238218910559 0
vn -0.17369899834269964 -0.984798790603818 0
vn -0.15062959565808312 -0.9885902715037621 0
vn -0.15026000228678824 -0.988646515046088 0
vn -0.12700070344887876 -0.99190262693648 0
vn -0.1266873005026585 -0.9919427039357411 0
vn -0.10325719888565194 -0.9946546892657215 0
vn -0.10300120325304173 -0.9946812314145802 0
vn -0.0794200630200336 -0.9968412379059637 0
vn -0.0792224669023263 -0.996856961021946 0
vn -0.05551071951454409 -0.9984580912682202 0
vn -0.05537223892765411 -0.9984657806635834 0
vn -0.0315507484598439 -0.9995021512091025 0
vn -0.031471901165864485 -0.9995046370262652 0
vn -0.019559409930415068 -0.9998086964430615 0
vn -0.007755535196877573 0.9999699253846637 0
vn -0.007730148169745894 0.9999701219582883 0
vn -0.010729410410095735 0.9999424382194467 0
vn -0.01075714043344075 0.9999421402909745 0
vn 0 1 0
vn 0.019901189039096823 0.9998019517258556 0
vn 0.01983606091239373 0.9998032459876693 0
vn 0.04753366174360235 0.9988696366399596 0
vn 0.047378350730154346 0.9988770153938326 0
vn 0.07510827879489826 0.9971753840004616 0
vn 0.07486355897533073 0.9971937863512524 0
vn 0.10259180416114981 0.9947235403462411 0
vn 0.1022589018769596 0.9947578182587551 0
vn 0.12995129714186093 0.9915203781925754 0
vn 0.12953179593391084 0.9915752688737934 0
vn 0.15715460206052004 0.9875740129484978 0
vn 0.15665069506101514 0.987654068860601 0
vn 0.1841704054138135 0.9828943288928427 0
vn 0.1835845058696135 0.9830039314288677 0
vn 0.21096810962351942 0.9774929445893095 0
vn 0.2103029908637348 0.9776362575282117 0
vn 0.2375182917105524 0.9713830660984888 0
vn 0.23677719425391006 0.9715639764221634 0
vn 0.2636877013557635 0.9646081049595808 0
vn 0.26297901461594675 0.9648015536221041 0
vn 0.24992669021637873 0.9682647620963423 0
vn 0.27687039202759334 0.9609072723309396 0
vn 0.27682221510922683 0.9609211524480148 0
vn 0.26572859437288215 0.9640478795851439 0
vn 0.26635570146528526 0.9638748053025018 0
vn 0.24301750099808989 0.9700219039839478 0
vn 0.24359679753994032 0.9698765902053134 0
vn 0.22009669109373256 0.9754780605270372 0
vn 0.22062620787889298 0.9753584348315134 0
vn 0.19698430829598937 0.9804066412898019 0
vn 0.19746220031208014 0.9803105015493367 0
vn 0.17369899834269964 0.984798790603818 0
vn 0.17412350387087958 0.9847238218910559 0
vn 0.15026000228678824 0.988646515046088 0
vn 0.15062959565808312 0.9885902715037621 0
vn 0.1266873005026585 0.9919427039357411 0
vn 0.12700070344887876 0.99190262693648 0
vn 0.10300120325304173 0.9946812314145802 0
vn 0.10325719888565194 0.9946546892657215 0
vn 0.0792224669023263 0.996856961021946 0
vn 0.0794200630200336 0.9968412379059637 0
vn 0.05537223892765411 0.9984657806635834 0
vn 0.05551071951454409 0.9984580912682202 0
vn 0.031471901165864485 0.9995046370262652 0
vn 0.0315507484598439 0.9995021512091025 0
vn 0.019559409930415068 0.9998086964430615 0
usemtl material_0_0
f 5//52 6//53 7//54
f 8//55 7//54 6//53
f 8//55 11//56 7//54
f 12//56 7//54 11//56
f 15//57 16//58 5//52
f 6//53 5//52 16//58
f 19//59 20//60 15//57
f 16//58 15//57 20//60
f 23//61 24//62 19//59
f 20//60 19//59 24//62
f 27//63 28//64 23//61
f 24//62 23//61 28//64
f 31//65 32//66 27//63
f 28//64 27//63 32//66
f 35//67 36//68 31//65
f 32//66 31//65 36//68
f 39//69 40//70 35//67
f 36//68 35//67 40//70
f 43//71 44//72 39//69
f 40//70 39//69 44//72
f 47//73 48//74 43//71
f 44//72 43//71 48//74
f 52//75 53//76 54//77
f 54//77 53//76 47//73
f 48//74 47//73 53//76
f 57//78 58//79 52//75
f 53//76 52//75 58//79
f 61//80 62//81 57//78
f 58//79 57//78 62//81
f 65//82 66//83 61//80
f 62//81 61//80 66//83
f 69//84 70//85 65//82
f 66//83 65//82 70//85
f 73//86 74//87 69//84
f 70//85 69//84 74//87
f 77//88 78//89 73//86
f 74//87 73//86 78//89
f 81//90 82//91 77//88
f 78//89 77//88 82//91
f 85//92 86//93 81//90
f 82//91 81//90 86//93
f 89//94 90//95 85//92
f 86//93 85//92 90//95
f 93//96 94//97 89//94
f 90//95 89//94 94//97
f 97//98 98//99 93//96
f 94//97 93//96 98//99
f 101//100 102//101 97//98
f 98//99 97//98 102//101
f 105//102 106//102 101//100
f 102//101 101//100 106//102
usemtl material_1_0
f 1//1 2//2 3//3
f 2//2 1//1 4//4
f 9//5 2//2 10//5
f 2//2 9//5 3//3
f 13//6 4//4 1//1
f 4//4 13//6 14//7
f 17//8 14//7 13//6
f 14//7 17//8 18//9
f 21//10 18//9 17//8
f 18//9 21//10 22//11
f 25//12 22//11 21//10
f 22//11 25//12 26//13
f 29//14 26//13 25//12
f 26//13 29//14 30//15
f 33//16 30//15 29//14
f 30//15 33//16 34//17
f 37//18 34//17 33//16
f 34//17 37//18 38//19
f 41//20 38//19 37//18
f 38//19 41//20 42//21
f 45//22 42//21 41//20
f 42//21 45//22 46//23
f 49//24 46//23 45//22
f 46//23 49//24 50//25
f 50//25 49//24 51//26
f 55//27 51//26 49//24
f 51//26 55//27 56//28
f 59//29 56//28 55//27
f 56//28 59//29 60//30
f 63//31 60//30 59//29
f 60//30 63//31 64//32
f 67//33 64//32 63//31
f 64//32 67//33 68//34
f 71//35 68//34 67//33
f 68//34 71//35 72//36
f 75//37 72//36 71//35
f 72//36 75//37 76//38
f 79//39 76//38 75//37
f 76//38 79//39 80//40
f 83//41 80//40 79//39
f 80//40 83//41 84//42
f 87//43 84//42 83//41
f 84//42 87//43 88//44
f 91//45 88//44 87//43
f 88//44 91//45 92//46
f 95//47 92//46 91//45
f 92//46 95//47 96//48
f 99//49 96//48 95//47
f 96//48 99//49 100//50
f 103//51 100//50 99//49
f 100//50 103//51 104//51
