# SSTK version 0.8.0
# 75
mtllib original-75.mtl
o #ID571
v -0.011570 -0.493466 0.513962
v 0.040307 -0.493313 0.513962
v 0.022786 -0.493490 0.513962
v -0.014912 -0.493463 0.513962
v -0.029774 -0.493313 0.513962
v -0.047288 -0.492330 0.513962
v 0.057822 -0.492330 0.513962
v -0.064787 -0.490541 0.513962
v 0.075321 -0.490541 0.513962
v -0.082260 -0.487948 0.513962
v 0.092794 -0.487948 0.513962
v -0.099698 -0.484552 0.513962
v -0.029707 -0.485384 0.513962
v -0.012278 -0.485560 0.513962
v -0.047129 -0.484406 0.513962
v -0.117092 -0.480354 0.513962
v -0.064536 -0.482627 0.513962
v -0.081917 -0.480047 0.513962
v -0.134433 -0.475357 0.513962
v -0.099263 -0.476669 0.513962
v -0.116565 -0.472493 0.513962
v -0.151710 -0.469564 0.513962
v -0.133814 -0.467523 0.513962
v -0.155701 -0.468036 0.513962
v -0.168915 -0.462978 0.513962
v -0.151000 -0.461760 0.513962
v -0.186039 -0.455602 0.513962
v -0.168115 -0.455209 0.513962
v -0.203072 -0.447439 0.513962
v -0.185148 -0.447871 0.513962
v -0.202134 -0.439732 0.513962
v -0.226077 -0.436343 0.513962
v -0.225175 -0.428618 0.513962
v -0.249190 -0.426171 0.513962
v -0.248366 -0.418411 0.513962
v -0.272402 -0.416926 0.513962
v -0.271656 -0.409135 0.513962
v -0.295702 -0.408612 0.513962
v -0.295036 -0.400793 0.513962
v -0.319082 -0.401233 0.513962
v -0.342532 -0.394792 0.513962
v -0.318496 -0.393389 0.513962
v -0.366043 -0.389292 0.513962
v -0.342025 -0.386926 0.513962
v -0.389605 -0.384734 0.513962
v -0.365616 -0.381407 0.513962
v -0.413208 -0.381120 0.513962
v -0.389258 -0.376833 0.513962
v -0.436843 -0.378453 0.513962
v -0.460500 -0.376732 0.513962
v -0.412941 -0.373208 0.513962
v -0.484170 -0.375959 0.513962
v -0.484170 -0.368159 0.513962
v -0.436657 -0.370531 0.513962
v -0.460394 -0.368805 0.513962
v -0.480179 -0.368159 0.513962
v 0.040241 -0.485384 0.513962
v 0.110232 -0.484552 0.513962
v 0.022812 -0.485560 0.513962
v 0.057663 -0.484406 0.513962
v 0.127626 -0.480354 0.513962
v 0.075069 -0.482627 0.513962
v 0.092450 -0.480047 0.513962
v 0.144966 -0.475357 0.513962
v 0.109797 -0.476669 0.513962
v 0.127099 -0.472493 0.513962
v 0.162244 -0.469564 0.513962
v 0.144348 -0.467523 0.513962
v 0.166235 -0.468036 0.513962
v 0.179449 -0.462978 0.513962
v 0.161534 -0.461760 0.513962
v 0.196573 -0.455602 0.513962
v 0.178648 -0.455209 0.513962
v 0.213606 -0.447439 0.513962
v 0.195682 -0.447871 0.513962
v 0.212667 -0.439732 0.513962
v 0.236611 -0.436343 0.513962
v 0.235708 -0.428618 0.513962
v 0.259724 -0.426171 0.513962
v 0.258900 -0.418411 0.513962
v 0.282935 -0.416926 0.513962
v 0.282190 -0.409135 0.513962
v 0.306236 -0.408612 0.513962
v 0.305570 -0.400793 0.513962
v 0.329616 -0.401233 0.513962
v 0.353066 -0.394792 0.513962
v 0.329029 -0.393389 0.513962
v 0.376576 -0.389292 0.513962
v 0.352559 -0.386926 0.513962
v 0.400138 -0.384734 0.513962
v 0.376150 -0.381407 0.513962
v 0.423742 -0.381120 0.513962
v 0.399792 -0.376833 0.513962
v 0.447377 -0.378453 0.513962
v 0.471034 -0.376732 0.513962
v 0.423475 -0.373208 0.513962
v 0.494704 -0.375959 0.513962
v 0.494704 -0.368159 0.513962
v 0.447190 -0.370531 0.513962
v 0.470928 -0.368805 0.513962
v 0.490713 -0.368159 0.513962
v 0.490713 -0.368159 0.513962
v 0.470928 -0.368805 0.513962
v 0.494704 -0.368159 0.513962
v 0.447190 -0.370531 0.513962
v 0.423475 -0.373208 0.513962
v 0.494704 -0.375959 0.513962
v 0.471034 -0.376732 0.513962
v 0.399792 -0.376833 0.513962
v 0.447377 -0.378453 0.513962
v 0.423742 -0.381120 0.513962
v 0.376150 -0.381407 0.513962
v 0.400138 -0.384734 0.513962
v 0.352559 -0.386926 0.513962
v 0.376576 -0.389292 0.513962
v 0.329029 -0.393389 0.513962
v 0.353066 -0.394792 0.513962
v 0.305570 -0.400793 0.513962
v 0.329616 -0.401233 0.513962
v 0.306236 -0.408612 0.513962
v 0.282190 -0.409135 0.513962
v 0.282935 -0.416926 0.513962
v 0.258900 -0.418411 0.513962
v 0.259724 -0.426171 0.513962
v 0.235708 -0.428618 0.513962
v 0.236611 -0.436343 0.513962
v 0.212667 -0.439732 0.513962
v 0.213606 -0.447439 0.513962
v 0.195682 -0.447871 0.513962
v 0.178648 -0.455209 0.513962
v 0.196573 -0.455602 0.513962
v 0.161534 -0.461760 0.513962
v 0.179449 -0.462978 0.513962
v 0.144348 -0.467523 0.513962
v 0.166235 -0.468036 0.513962
v 0.162244 -0.469564 0.513962
v 0.127099 -0.472493 0.513962
v 0.144966 -0.475357 0.513962
v 0.109797 -0.476669 0.513962
v 0.092450 -0.480047 0.513962
v 0.127626 -0.480354 0.513962
v 0.075069 -0.482627 0.513962
v 0.057663 -0.484406 0.513962
v 0.110232 -0.484552 0.513962
v 0.040241 -0.485384 0.513962
v -0.012278 -0.485560 0.513962
v 0.092794 -0.487948 0.513962
v 0.022812 -0.485560 0.513962
v -0.480179 -0.368159 0.513962
v -0.484170 -0.368159 0.513962
v -0.460394 -0.368805 0.513962
v -0.436657 -0.370531 0.513962
v -0.412941 -0.373208 0.513962
v -0.484170 -0.375959 0.513962
v -0.460500 -0.376732 0.513962
v -0.389258 -0.376833 0.513962
v -0.436843 -0.378453 0.513962
v -0.413208 -0.381120 0.513962
v -0.365616 -0.381407 0.513962
v -0.389605 -0.384734 0.513962
v -0.342025 -0.386926 0.513962
v -0.366043 -0.389292 0.513962
v -0.318496 -0.393389 0.513962
v -0.342532 -0.394792 0.513962
v -0.295036 -0.400793 0.513962
v -0.319082 -0.401233 0.513962
v -0.295702 -0.408612 0.513962
v -0.271656 -0.409135 0.513962
v -0.272402 -0.416926 0.513962
v -0.248366 -0.418411 0.513962
v -0.249190 -0.426171 0.513962
v -0.225175 -0.428618 0.513962
v -0.226077 -0.436343 0.513962
v -0.202134 -0.439732 0.513962
v -0.203072 -0.447439 0.513962
v -0.185148 -0.447871 0.513962
v -0.168115 -0.455209 0.513962
v -0.186039 -0.455602 0.513962
v -0.151000 -0.461760 0.513962
v -0.168915 -0.462978 0.513962
v -0.133814 -0.467523 0.513962
v -0.155701 -0.468036 0.513962
v -0.151710 -0.469564 0.513962
v -0.116565 -0.472493 0.513962
v -0.134433 -0.475357 0.513962
v -0.099263 -0.476669 0.513962
v -0.081917 -0.480047 0.513962
v -0.117092 -0.480354 0.513962
v -0.064536 -0.482627 0.513962
v -0.047129 -0.484406 0.513962
v -0.099698 -0.484552 0.513962
v -0.029707 -0.485384 0.513962
v -0.082260 -0.487948 0.513962
v 0.075321 -0.490541 0.513962
v -0.064787 -0.490541 0.513962
v 0.057822 -0.492330 0.513962
v -0.047288 -0.492330 0.513962
v 0.040307 -0.493313 0.513962
v -0.029774 -0.493313 0.513962
v -0.014912 -0.493463 0.513962
v -0.011570 -0.493466 0.513962
v 0.022786 -0.493490 0.513962
vn 0 0 -1
vn 0 0 1
usemtl material_0_0
f 1//1 2//1 3//1
f 2//1 1//1 4//1
f 2//1 4//1 5//1
f 2//1 5//1 6//1
f 2//1 6//1 7//1
f 7//1 6//1 8//1
f 7//1 8//1 9//1
f 9//1 8//1 10//1
f 9//1 10//1 11//1
f 11//1 10//1 12//1
f 11//1 12//1 13//1
f 11//1 13//1 14//1
f 13//1 12//1 15//1
f 15//1 12//1 16//1
f 15//1 16//1 17//1
f 17//1 16//1 18//1
f 18//1 16//1 19//1
f 18//1 19//1 20//1
f 20//1 19//1 21//1
f 21//1 19//1 22//1
f 21//1 22//1 23//1
f 23//1 22//1 24//1
f 23//1 24//1 25//1
f 23//1 25//1 26//1
f 26//1 25//1 27//1
f 26//1 27//1 28//1
f 28//1 27//1 29//1
f 28//1 29//1 30//1
f 30//1 29//1 31//1
f 31//1 29//1 32//1
f 31//1 32//1 33//1
f 33//1 32//1 34//1
f 33//1 34//1 35//1
f 35//1 34//1 36//1
f 35//1 36//1 37//1
f 37//1 36//1 38//1
f 37//1 38//1 39//1
f 39//1 38//1 40//1
f 39//1 40//1 41//1
f 39//1 41//1 42//1
f 42//1 41//1 43//1
f 42//1 43//1 44//1
f 44//1 43//1 45//1
f 44//1 45//1 46//1
f 46//1 45//1 47//1
f 46//1 47//1 48//1
f 48//1 47//1 49//1
f 48//1 49//1 50//1
f 48//1 50//1 51//1
f 51//1 50//1 52//1
f 51//1 52//1 53//1
f 51//1 53//1 54//1
f 54//1 53//1 55//1
f 55//1 53//1 56//1
f 11//1 57//1 58//1
f 57//1 11//1 59//1
f 59//1 11//1 14//1
f 58//1 57//1 60//1
f 58//1 60//1 61//1
f 61//1 60//1 62//1
f 61//1 62//1 63//1
f 61//1 63//1 64//1
f 64//1 63//1 65//1
f 64//1 65//1 66//1
f 64//1 66//1 67//1
f 67//1 66//1 68//1
f 67//1 68//1 69//1
f 69//1 68//1 70//1
f 70//1 68//1 71//1
f 70//1 71//1 72//1
f 72//1 71//1 73//1
f 72//1 73//1 74//1
f 74//1 73//1 75//1
f 74//1 75//1 76//1
f 74//1 76//1 77//1
f 77//1 76//1 78//1
f 77//1 78//1 79//1
f 79//1 78//1 80//1
f 79//1 80//1 81//1
f 81//1 80//1 82//1
f 81//1 82//1 83//1
f 83//1 82//1 84//1
f 83//1 84//1 85//1
f 85//1 84//1 86//1
f 86//1 84//1 87//1
f 86//1 87//1 88//1
f 88//1 87//1 89//1
f 88//1 89//1 90//1
f 90//1 89//1 91//1
f 90//1 91//1 92//1
f 92//1 91//1 93//1
f 92//1 93//1 94//1
f 94//1 93//1 95//1
f 95//1 93//1 96//1
f 95//1 96//1 97//1
f 97//1 96//1 98//1
f 98//1 96//1 99//1
f 98//1 99//1 100//1
f 98//1 100//1 101//1
usemtl material_1_0
f 102//2 103//2 104//2
f 103//2 105//2 104//2
f 105//2 106//2 104//2
f 104//2 106//2 107//2
f 107//2 106//2 108//2
f 106//2 109//2 108//2
f 108//2 109//2 110//2
f 110//2 109//2 111//2
f 109//2 112//2 111//2
f 111//2 112//2 113//2
f 112//2 114//2 113//2
f 113//2 114//2 115//2
f 114//2 116//2 115//2
f 115//2 116//2 117//2
f 116//2 118//2 117//2
f 117//2 118//2 119//2
f 119//2 118//2 120//2
f 118//2 121//2 120//2
f 120//2 121//2 122//2
f 121//2 123//2 122//2
f 122//2 123//2 124//2
f 123//2 125//2 124//2
f 124//2 125//2 126//2
f 125//2 127//2 126//2
f 126//2 127//2 128//2
f 127//2 129//2 128//2
f 129//2 130//2 128//2
f 128//2 130//2 131//2
f 130//2 132//2 131//2
f 131//2 132//2 133//2
f 132//2 134//2 133//2
f 133//2 134//2 135//2
f 135//2 134//2 136//2
f 134//2 137//2 136//2
f 136//2 137//2 138//2
f 137//2 139//2 138//2
f 139//2 140//2 138//2
f 138//2 140//2 141//2
f 140//2 142//2 141//2
f 142//2 143//2 141//2
f 141//2 143//2 144//2
f 143//2 145//2 144//2
f 146//2 147//2 148//2
f 148//2 147//2 145//2
f 144//2 145//2 147//2
f 149//2 150//2 151//2
f 151//2 150//2 152//2
f 152//2 150//2 153//2
f 150//2 154//2 153//2
f 154//2 155//2 153//2
f 153//2 155//2 156//2
f 155//2 157//2 156//2
f 157//2 158//2 156//2
f 156//2 158//2 159//2
f 158//2 160//2 159//2
f 159//2 160//2 161//2
f 160//2 162//2 161//2
f 161//2 162//2 163//2
f 162//2 164//2 163//2
f 163//2 164//2 165//2
f 164//2 166//2 165//2
f 166//2 167//2 165//2
f 165//2 167//2 168//2
f 167//2 169//2 168//2
f 168//2 169//2 170//2
f 169//2 171//2 170//2
f 170//2 171//2 172//2
f 171//2 173//2 172//2
f 172//2 173//2 174//2
f 173//2 175//2 174//2
f 174//2 175//2 176//2
f 176//2 175//2 177//2
f 175//2 178//2 177//2
f 177//2 178//2 179//2
f 178//2 180//2 179//2
f 179//2 180//2 181//2
f 180//2 182//2 181//2
f 182//2 183//2 181//2
f 181//2 183//2 184//2
f 183//2 185//2 184//2
f 184//2 185//2 186//2
f 186//2 185//2 187//2
f 185//2 188//2 187//2
f 187//2 188//2 189//2
f 189//2 188//2 190//2
f 188//2 191//2 190//2
f 190//2 191//2 192//2
f 146//2 192//2 147//2
f 192//2 191//2 147//2
f 191//2 193//2 147//2
f 147//2 193//2 194//2
f 193//2 195//2 194//2
f 194//2 195//2 196//2
f 195//2 197//2 196//2
f 196//2 197//2 198//2
f 197//2 199//2 198//2
f 199//2 200//2 198//2
f 200//2 201//2 198//2
f 202//2 198//2 201//2
