# SSTK version 0.8.0
# 81
mtllib original-81.mtl
o #ID607
v -0.078870 -0.411448 0.475242
v 0.019530 -0.417639 0.475242
v -0.029865 -0.417639 0.475242
v -0.029566 -0.412887 0.475242
v -0.077978 -0.406771 0.475242
v -0.126714 -0.399164 0.475242
v -0.125242 -0.394636 0.475242
v -0.172640 -0.380980 0.475242
v -0.170613 -0.376672 0.475242
v -0.215926 -0.357184 0.475242
v -0.213374 -0.353164 0.475242
v -0.255887 -0.328150 0.475242
v -0.252852 -0.324482 0.475242
v -0.291895 -0.294337 0.475242
v -0.288424 -0.291078 0.475242
v -0.323380 -0.256277 0.475242
v -0.319528 -0.253479 0.475242
v -0.349847 -0.214572 0.475242
v -0.345675 -0.212278 0.475242
v -0.370879 -0.169878 0.475242
v -0.366452 -0.168125 0.475242
v -0.386143 -0.122900 0.475242
v -0.381531 -0.121716 0.475242
v -0.389254 -0.106590 0.475242
v -0.384587 -0.105699 0.475242
v -0.395399 -0.074380 0.475242
v -0.390675 -0.073783 0.475242
v -0.398500 -0.025082 0.475242
v -0.393739 -0.025082 0.475242
v -0.390675 0.023619 0.475242
v -0.395399 0.024216 0.475242
v -0.381531 0.071552 0.475242
v -0.386143 0.072736 0.475242
v -0.366452 0.117961 0.475242
v -0.370879 0.119713 0.475242
v -0.345675 0.162114 0.475242
v -0.349847 0.164407 0.475242
v -0.319528 0.203315 0.475242
v -0.323380 0.206113 0.475242
v -0.288424 0.240914 0.475242
v -0.291895 0.244173 0.475242
v -0.252852 0.274318 0.475242
v -0.255887 0.277986 0.475242
v -0.213374 0.303000 0.475242
v -0.215926 0.307020 0.475242
v -0.170613 0.326508 0.475242
v -0.172640 0.330816 0.475242
v -0.125242 0.344472 0.475242
v -0.126714 0.349000 0.475242
v -0.077978 0.356607 0.475242
v -0.078870 0.361284 0.475242
v -0.029566 0.362723 0.475242
v -0.029865 0.367475 0.475242
v 0.019530 0.367475 0.475242
v 0.019231 -0.412887 0.475242
v 0.068536 -0.411448 0.475242
v 0.067644 -0.406771 0.475242
v 0.116379 -0.399164 0.475242
v 0.114908 -0.394636 0.475242
v 0.162306 -0.380980 0.475242
v 0.160279 -0.376672 0.475242
v 0.205591 -0.357184 0.475242
v 0.203040 -0.353164 0.475242
v 0.245553 -0.328150 0.475242
v 0.242518 -0.324482 0.475242
v 0.281560 -0.294337 0.475242
v 0.278089 -0.291078 0.475242
v 0.313046 -0.256277 0.475242
v 0.309194 -0.253479 0.475242
v 0.339513 -0.214572 0.475242
v 0.335341 -0.212278 0.475242
v 0.360544 -0.169878 0.475242
v 0.356118 -0.168125 0.475242
v 0.375808 -0.122900 0.475242
v 0.371197 -0.121716 0.475242
v 0.378920 -0.106590 0.475242
v 0.374252 -0.105699 0.475242
v 0.385064 -0.074380 0.475242
v 0.380341 -0.073783 0.475242
v 0.388166 -0.025082 0.475242
v 0.383404 -0.025082 0.475242
v 0.385064 0.024216 0.475242
v 0.380341 0.023619 0.475242
v 0.371197 0.071552 0.475242
v 0.375808 0.072736 0.475242
v 0.356118 0.117961 0.475242
v 0.360544 0.119713 0.475242
v 0.335341 0.162114 0.475242
v 0.339513 0.164407 0.475242
v 0.309194 0.203315 0.475242
v 0.313046 0.206113 0.475242
v 0.278089 0.240914 0.475242
v 0.281560 0.244173 0.475242
v 0.242518 0.274318 0.475242
v 0.245553 0.277986 0.475242
v 0.203040 0.303000 0.475242
v 0.205591 0.307020 0.475242
v 0.160279 0.326508 0.475242
v 0.162306 0.330816 0.475242
v 0.114908 0.344472 0.475242
v 0.116379 0.349000 0.475242
v 0.067644 0.356607 0.475242
v 0.068536 0.361284 0.475242
v 0.019231 0.362723 0.475242
vn 0 0 -1
usemtl material_0_0
f 1//1 2//1 3//1
f 2//1 1//1 4//1
f 4//1 1//1 5//1
f 5//1 1//1 6//1
f 5//1 6//1 7//1
f 7//1 6//1 8//1
f 7//1 8//1 9//1
f 9//1 8//1 10//1
f 9//1 10//1 11//1
f 11//1 10//1 12//1
f 11//1 12//1 13//1
f 13//1 12//1 14//1
f 13//1 14//1 15//1
f 15//1 14//1 16//1
f 15//1 16//1 17//1
f 17//1 16//1 18//1
f 17//1 18//1 19//1
f 19//1 18//1 20//1
f 19//1 20//1 21//1
f 21//1 20//1 22//1
f 21//1 22//1 23//1
f 23//1 22//1 24//1
f 23//1 24//1 25//1
f 25//1 24//1 26//1
f 25//1 26//1 27//1
f 27//1 26//1 28//1
f 27//1 28//1 29//1
f 29//1 28//1 30//1
f 30//1 28//1 31//1
f 30//1 31//1 32//1
f 32//1 31//1 33//1
f 32//1 33//1 34//1
f 34//1 33//1 35//1
f 34//1 35//1 36//1
f 36//1 35//1 37//1
f 36//1 37//1 38//1
f 38//1 37//1 39//1
f 38//1 39//1 40//1
f 40//1 39//1 41//1
f 40//1 41//1 42//1
f 42//1 41//1 43//1
f 42//1 43//1 44//1
f 44//1 43//1 45//1
f 44//1 45//1 46//1
f 46//1 45//1 47//1
f 46//1 47//1 48//1
f 48//1 47//1 49//1
f 48//1 49//1 50//1
f 50//1 49//1 51//1
f 50//1 51//1 52//1
f 52//1 51//1 53//1
f 52//1 53//1 54//1
f 2//1 55//1 56//1
f 55//1 2//1 4//1
f 56//1 55//1 57//1
f 56//1 57//1 58//1
f 58//1 57//1 59//1
f 58//1 59//1 60//1
f 60//1 59//1 61//1
f 60//1 61//1 62//1
f 62//1 61//1 63//1
f 62//1 63//1 64//1
f 64//1 63//1 65//1
f 64//1 65//1 66//1
f 66//1 65//1 67//1
f 66//1 67//1 68//1
f 68//1 67//1 69//1
f 68//1 69//1 70//1
f 70//1 69//1 71//1
f 70//1 71//1 72//1
f 72//1 71//1 73//1
f 72//1 73//1 74//1
f 74//1 73//1 75//1
f 74//1 75//1 76//1
f 76//1 75//1 77//1
f 76//1 77//1 78//1
f 78//1 77//1 79//1
f 78//1 79//1 80//1
f 80//1 79//1 81//1
f 80//1 81//1 82//1
f 82//1 81//1 83//1
f 82//1 83//1 84//1
f 82//1 84//1 85//1
f 85//1 84//1 86//1
f 85//1 86//1 87//1
f 87//1 86//1 88//1
f 87//1 88//1 89//1
f 89//1 88//1 90//1
f 89//1 90//1 91//1
f 91//1 90//1 92//1
f 91//1 92//1 93//1
f 93//1 92//1 94//1
f 93//1 94//1 95//1
f 95//1 94//1 96//1
f 95//1 96//1 97//1
f 97//1 96//1 98//1
f 97//1 98//1 99//1
f 99//1 98//1 100//1
f 99//1 100//1 101//1
f 101//1 100//1 102//1
f 101//1 102//1 103//1
f 103//1 102//1 104//1
f 103//1 104//1 54//1
f 54//1 104//1 52//1
