# SSTK version 0.8.0
# 30
mtllib original-30.mtl
o #ID258
v 0.200289 0.474794 0.466736
v 0.198940 0.475583 0.466271
v 0.198829 0.474739 0.466587
v 0.200356 0.475305 0.466545
v 0.200356 0.474283 0.466928
v 0.198940 0.473894 0.466905
v 0.200618 0.474802 0.466756
v 0.200618 0.475250 0.466584
v 0.200524 0.475710 0.466393
v 0.199239 0.476305 0.466000
v 0.197531 0.475837 0.465939
v 0.197376 0.474661 0.466381
v 0.200524 0.473879 0.467080
v 0.199239 0.473172 0.467176
v 0.197531 0.473485 0.466823
v 0.200881 0.475305 0.466545
v 0.200948 0.474794 0.466736
v 0.200484 0.475879 0.466312
v 0.200618 0.475833 0.466346
v 0.197961 0.476875 0.465549
v 0.196133 0.476066 0.465552
v 0.195935 0.474561 0.466117
v 0.200618 0.473564 0.467185
v 0.199638 0.472652 0.467372
v 0.200618 0.473755 0.467127
v 0.197961 0.472446 0.467212
v 0.196133 0.473057 0.466681
v 0.200618 0.475664 0.466417
v 0.200713 0.475710 0.466393
v 0.202297 0.475583 0.466271
v 0.202408 0.474739 0.466587
v 0.200618 0.475664 0.466417
v 0.200576 0.475978 0.466281
v 0.200554 0.476029 0.466252
v 0.199638 0.476826 0.465804
v 0.198578 0.477679 0.465248
v 0.196694 0.477419 0.465044
v 0.194748 0.476271 0.465106
v 0.194507 0.474440 0.465794
v 0.200583 0.473224 0.467280
v 0.201998 0.473172 0.467176
v 0.201599 0.472652 0.467372
v 0.200713 0.473879 0.467080
v 0.200618 0.473930 0.467069
v 0.198578 0.471643 0.467514
v 0.196694 0.471704 0.467190
v 0.194748 0.472610 0.466481
v 0.201998 0.476305 0.466000
v 0.200881 0.474283 0.466928
v 0.202297 0.473894 0.466905
v 0.203705 0.475837 0.465939
v 0.203860 0.474661 0.466381
v 0.200618 0.476016 0.466264
v 0.200577 0.476053 0.466249
v 0.200537 0.476086 0.466231
v 0.200034 0.477129 0.465691
v 0.199271 0.478211 0.465048
v 0.197526 0.478504 0.464636
v 0.195437 0.477935 0.464481
v 0.193379 0.476451 0.464607
v 0.193095 0.474298 0.465414
v 0.200034 0.472348 0.467485
v 0.200654 0.473224 0.467280
v 0.203275 0.472446 0.467212
v 0.202659 0.471643 0.467514
v 0.199271 0.471111 0.467715
v 0.197526 0.470619 0.467596
v 0.195437 0.470946 0.467106
v 0.193379 0.472145 0.466223
v 0.200706 0.475865 0.466329
v 0.203275 0.476875 0.465549
v 0.203705 0.473485 0.466823
v 0.205104 0.476066 0.465552
v 0.205302 0.474561 0.466117
v 0.200618 0.476016 0.466264
v 0.200583 0.476334 0.466112
v 0.200358 0.477263 0.465640
v 0.199959 0.478496 0.464941
v 0.198515 0.479263 0.464351
v 0.196483 0.479298 0.463969
v 0.194195 0.478423 0.463866
v 0.192027 0.476605 0.464052
v 0.191702 0.474135 0.464980
v 0.200618 0.473102 0.467313
v 0.201203 0.472348 0.467485
v 0.201965 0.471111 0.467715
v 0.204543 0.471704 0.467190
v 0.203711 0.470619 0.467596
v 0.200618 0.473930 0.467069
v 0.200618 0.474351 0.466922
v 0.200358 0.472214 0.467536
v 0.199959 0.470826 0.467821
v 0.198515 0.469860 0.467881
v 0.196483 0.469583 0.467618
v 0.194195 0.470174 0.466964
v 0.192027 0.471664 0.465907
v 0.201599 0.476826 0.465804
v 0.202659 0.477679 0.465248
v 0.204543 0.477419 0.465044
v 0.205104 0.473057 0.466681
v 0.206489 0.476271 0.465106
v 0.206730 0.474440 0.465794
v 0.200574 0.476307 0.466124
v 0.200618 0.476447 0.466056
v 0.200618 0.477298 0.465627
v 0.200618 0.478583 0.464908
v 0.199562 0.479696 0.464188
v 0.197765 0.480282 0.463600
v 0.195453 0.480061 0.463250
v 0.192969 0.478881 0.463197
v 0.190696 0.476734 0.463443
v 0.190329 0.473950 0.464488
v 0.200618 0.473102 0.467313
v 0.200878 0.472214 0.467536
v 0.201278 0.470826 0.467821
v 0.202722 0.469860 0.467881
v 0.205799 0.470946 0.467106
v 0.204753 0.469583 0.467618
v 0.200618 0.472179 0.467549
v 0.200618 0.470739 0.467853
v 0.199562 0.469426 0.468044
v 0.197765 0.468599 0.467987
v 0.195453 0.468535 0.467579
v 0.192969 0.469388 0.466761
v 0.190696 0.471166 0.465534
v 0.200699 0.476086 0.466231
v 0.201203 0.477129 0.465691
v 0.201965 0.478211 0.465048
v 0.203711 0.478504 0.464636
v 0.205799 0.477935 0.464481
v 0.206489 0.472610 0.466481
v 0.207858 0.476451 0.464607
v 0.208142 0.474298 0.465414
v 0.200618 0.476282 0.466137
v 0.201278 0.478496 0.464941
v 0.200878 0.477263 0.465640
v 0.200618 0.479835 0.464136
v 0.199169 0.480864 0.463382
v 0.197024 0.481267 0.462798
v 0.194435 0.480791 0.462480
v 0.191762 0.479309 0.462476
v 0.189387 0.476838 0.462782
v 0.188980 0.473745 0.463943
v 0.201674 0.469426 0.468044
v 0.203471 0.468599 0.467987
v 0.207042 0.470174 0.466964
v 0.205784 0.468535 0.467579
v 0.200618 0.469288 0.468097
v 0.199169 0.468017 0.468206
v 0.197024 0.467329 0.468032
v 0.194435 0.467478 0.467479
v 0.191762 0.468592 0.466500
v 0.189387 0.470653 0.465104
v 0.200654 0.476334 0.466112
v 0.202722 0.479263 0.464351
v 0.200659 0.476184 0.466184
v 0.204753 0.479298 0.463969
v 0.207042 0.478423 0.463866
v 0.207858 0.472145 0.466223
v 0.209210 0.476605 0.464052
v 0.209535 0.474135 0.464980
v 0.201674 0.479696 0.464188
v 0.200618 0.481054 0.463310
v 0.198781 0.481995 0.462525
v 0.196293 0.482216 0.461944
v 0.193434 0.481487 0.461658
v 0.190575 0.479705 0.461705
v 0.188104 0.476915 0.462070
v 0.187658 0.473521 0.463344
v 0.202067 0.468017 0.468206
v 0.204213 0.467329 0.468032
v 0.208267 0.469388 0.466761
v 0.206801 0.467478 0.467479
v 0.200618 0.467827 0.468277
v 0.198781 0.466601 0.468305
v 0.196293 0.466052 0.468014
v 0.193434 0.466413 0.467319
v 0.190575 0.467785 0.466181
v 0.188104 0.470126 0.464619
v 0.200618 0.476447 0.466056
v 0.200663 0.476307 0.466124
v 0.203471 0.480282 0.463600
v 0.200663 0.476307 0.466124
v 0.205784 0.480061 0.463250
v 0.208267 0.478881 0.463197
v 0.209210 0.471664 0.465907
v 0.210541 0.476734 0.463443
v 0.210908 0.473950 0.464488
v 0.202067 0.480864 0.463382
v 0.200618 0.482237 0.462433
v 0.198398 0.483088 0.461617
v 0.195572 0.483128 0.461041
v 0.192449 0.482147 0.460788
v 0.189412 0.480071 0.460885
v 0.186849 0.476965 0.461307
v 0.186363 0.473276 0.462693
v 0.202456 0.466601 0.468305
v 0.204944 0.466052 0.468014
v 0.209475 0.468592 0.466500
v 0.207803 0.466413 0.467319
v 0.200618 0.466359 0.468395
v 0.198398 0.465181 0.468341
v 0.195572 0.464772 0.467934
v 0.192449 0.465344 0.467098
v 0.189412 0.466970 0.465804
v 0.186849 0.469586 0.464078
v 0.200618 0.476282 0.466137
v 0.204213 0.481267 0.462798
v 0.206801 0.480791 0.462480
v 0.209475 0.479309 0.462476
v 0.210541 0.471166 0.465534
v 0.211849 0.476838 0.462782
v 0.212256 0.473745 0.463943
v 0.202456 0.481995 0.462525
v 0.200618 0.483381 0.461507
v 0.198020 0.484142 0.460661
v 0.194864 0.484001 0.460092
v 0.191483 0.482770 0.459871
v 0.188273 0.480403 0.460017
v 0.202839 0.465181 0.468341
v 0.205664 0.464772 0.467934
v 0.210661 0.467785 0.466181
v 0.208788 0.465344 0.467098
v 0.200618 0.464888 0.468451
v 0.198020 0.463758 0.468316
v 0.194864 0.463490 0.467794
v 0.191483 0.464271 0.466818
v 0.188273 0.466148 0.465369
v 0.204944 0.482216 0.461944
v 0.207803 0.481487 0.461658
v 0.210661 0.479705 0.461705
v 0.211849 0.470653 0.465104
v 0.213132 0.476915 0.462070
v 0.213579 0.473521 0.463344
v 0.202839 0.483088 0.461617
v 0.200618 0.484484 0.460533
v 0.197649 0.485154 0.459660
v 0.194170 0.484832 0.459096
v 0.190538 0.483356 0.458908
v 0.203217 0.463758 0.468316
v 0.206372 0.463490 0.467794
v 0.211825 0.466970 0.465804
v 0.209753 0.464271 0.466818
v 0.200618 0.463416 0.468444
v 0.197649 0.462337 0.468228
v 0.194170 0.462209 0.467591
v 0.190538 0.463196 0.466477
v 0.205664 0.483128 0.461041
v 0.208788 0.482147 0.460788
v 0.211825 0.480071 0.460885
v 0.213132 0.470126 0.464619
v 0.214388 0.476965 0.461307
v 0.214873 0.473276 0.462693
v 0.203217 0.484142 0.460661
v 0.200618 0.485545 0.459512
v 0.197285 0.486122 0.458612
v 0.193491 0.485621 0.458057
v 0.203588 0.462337 0.468228
v 0.207067 0.462209 0.467591
v 0.212964 0.466148 0.465369
v 0.210698 0.463196 0.466477
v 0.200618 0.461946 0.468374
v 0.197285 0.460919 0.468077
v 0.193491 0.460931 0.467328
v 0.206372 0.484001 0.460092
v 0.209753 0.482770 0.459871
v 0.212964 0.480403 0.460017
v 0.214388 0.469586 0.464078
v 0.203588 0.485154 0.459660
v 0.200618 0.486561 0.458448
v 0.196929 0.487045 0.457522
v 0.203952 0.460919 0.468077
v 0.207746 0.460931 0.467328
v 0.200618 0.460480 0.468241
v 0.196929 0.459507 0.467863
v 0.207067 0.484832 0.459096
v 0.210698 0.483356 0.458908
v 0.203952 0.486122 0.458612
v 0.200618 0.487531 0.457340
v 0.204308 0.459507 0.467863
v 0.200618 0.459021 0.468045
v 0.207746 0.485621 0.458057
v 0.204308 0.487045 0.457522
vn -0.09521809719619509 0.35220288962898605 0.9310674725836621
vn -0.12691560431846596 0.37838621287507523 0.9169058311988952
vn -0.13086680191418806 0.34851840509777676 0.928121113575623
vn -0.09293752807529164 0.3694678923484304 0.9245842808521367
vn -0.10470550022795122 0.3248460007072123 0.9399531020463439
vn -0.1269155943331928 0.31865078577217715 0.9393370580584087
vn 0 0.3590851074070189 0.933304819251722
vn 0.016418050933420216 0.3629649206357498 0.9316581529678317
vn -0.08254117665872117 0.39444148403295115 0.9152064629523095
vn -0.11592280524778262 0.40669331841085615 0.9061801410224406
vn -0.1679213994203152 0.3857497986683452 0.9071931968682604
vn -0.17315350093725826 0.3462316018741081 0.9220312049908398
vn -0.08254118139808286 0.3054452051736319 0.9486254160678212
vn -0.11506040252499077 0.2901715063677889 0.950032420848381
vn -0.16792140279632461 0.3067142051075826 0.9368718156013331
vn 0.08567261856248054 0.3703290937861676 0.9249413844802079
vn 0.09521809719619509 0.35220288962898605 0.9310674725836621
vn -0.09451373942479659 0.40547589753230434 0.9092064944666387
vn -0.04768777942772832 0.40150379518179996 0.9146149890242687
vn -0.15222530573926404 0.42342711596423127 0.8930492336701269
vn -0.20861460562658007 0.392406710583668 0.8958219241613657
vn -0.21511760476788705 0.3433114076091865 0.9142547202636288
vn 0 0.2870413020384336 0.9579182068026897
vn -0.09575962205433722 0.26463570567724626 0.9595822205859781
vn -0.005920368924847322 0.2938464962699364 0.9558342878667179
vn -0.15222529778706892 0.26903969608891326 0.9510231861747764
vn -0.20861460464267112 0.2942180065477553 0.9326927207568668
vn 0.06137847026442732 0.3730609016072 0.92577440398837
vn 0.08860322593144837 0.38055138252554627 0.9205053577315213
vn 0.12691560431846596 0.37838621287507523 0.9169058311988952
vn 0.13086680191418806 0.34851840509777676 0.928121113575623
vn -0.05346643871109864 0.3867351906770764 0.9206395778063843
vn -0.08627136189677342 0.4169118091662772 0.9048435198940078
vn -0.12608380133898667 0.31948320339285236 0.9391663099737727
vn -0.09727319448805495 0.4331897754534816 0.8960382492263659
vn -0.12622539679449535 0.4571104883916402 0.8804073776419802
vn -0.18910719696727654 0.4392117929563339 0.8782547859153754
vn -0.24892008991743472 0.398344883864949 0.8828137642414263
vn -0.2566817047018006 0.33976360622366386 0.9048067165739149
vn -0.04471775001924938 0.26846800011556554 0.962250100414214
vn 0.11506040252499077 0.2901715063677889 0.950032420848381
vn 0.09575962205433722 0.26463570567724626 0.9595822205859781
vn 0.08490438198156963 0.30952950722405886 0.9470917221040205
vn -0.05346644153433789 0.31482290903454 0.947643327194723
vn -0.12622540584664102 0.2353607109016846 0.9636765446365831
vn -0.18910719315972818 0.24741859105052308 0.9502749656272247
vn -0.24892010732055378 0.28118550826945476 0.9268082272567353
vn 0.1160351972523121 0.40673159036868534 0.9061485785426013
vn 0.09175205906966148 0.3260039966944165 0.9409053904595001
vn 0.1269155943331928 0.31865078577217715 0.9393370580584087
vn 0.1679213994203152 0.3857497986683452 0.9071931968682604
vn 0.17315350093725826 0.3462316018741081 0.9220312049908398
vn 0.0580185308926554 0.4057182062422562 0.9121549140341372
vn -0.12099199840596614 0.2940645961257855 0.9480964875091087
vn -0.09234382748381549 0.40978778883410255 0.9074946752725862
vn -0.06858488025368126 0.4531986016762875 0.8887672032873658
vn -0.09068322770583982 0.4842149877500307 0.8702369779842087
vn -0.15679909530903294 0.4810498856084042 0.8625572741948272
vn -0.22563850367428498 0.4541915073960294 0.8618569140344308
vn -0.2887641009637026 0.4035536013467934 0.8681934028974524
vn -0.29776959797824415 0.3355948977214228 0.8937053939320397
vn -0.06858488032187077 0.2438082011441985 0.9673953045400131
vn 0.04471775001924938 0.26846800011556554 0.962250100414214
vn 0.15222529778706892 0.26903969608891326 0.9510231861747764
vn 0.12622540584664102 0.2353607109016846 0.9636765446365831
vn -0.09068322730014441 0.20826119379956817 0.973860271005861
vn -0.1567991008044884 0.2055892010548153 0.9659954049562279
vn -0.2256384944820637 0.2253481944891627 0.947789776822024
vn -0.28876410492983423 0.2676409045692148 0.9192299156932633
vn 0.07547460125081001 0.40723420674892746 0.9101999150843748
vn 0.15222530573926404 0.42342711596423127 0.8930492336701269
vn 0.16792140279632461 0.3067142051075826 0.9368718156013331
vn 0.20861460562658007 0.392406710583668 0.8958219241613657
vn 0.21511760476788705 0.3433114076091865 0.9142547202636288
vn -0.11794430065136037 0.30365730167698063 0.9454530052213682
vn -0.06512717000418675 0.42914810002758785 0.900883100057914
vn -0.042051890905383485 0.47093171013922974 0.8811668189716533
vn -0.047503538171173386 0.5019863806741541 0.8635699667536401
vn -0.11264119841914555 0.514710992776327 0.849932088071692
vn -0.18708270721333872 0.5041080194368679 0.8431341325086814
vn -0.2617520992595478 0.4683389986751484 0.8438864976127886
vn -0.3280734030697418 0.40802380381782755 0.8519885079719501
vn -0.33830580258513 0.33081340252787733 0.8809720067318597
vn -0.03374701038140416 0.2488952028129798 0.9679423109395534
vn 0.06858488032187077 0.2438082011441985 0.9673953045400131
vn 0.09068322730014441 0.20826119379956817 0.973860271005861
vn 0.18910719315972818 0.24741859105052308 0.9502749656272247
vn 0.1567991008044884 0.2055892010548153 0.9659954049562279
vn 0.06137847001351459 0.3284972000723298 0.9425085002075259
vn -0.042051890815554764 0.225455404372484 0.9733455188770721
vn -0.04750353842943087 0.190493893701862 0.9805383675812931
vn -0.11264119941273554 0.17193779910358747 0.9786466948977424
vn -0.18708269693298687 0.17544569712376235 0.966549984154486
vn -0.2617520894655191 0.2028691918353214 0.9435729620249399
vn -0.3280733973251061 0.25360939793223614 0.9099725925806842
vn 0.0961977417101117 0.433444407705361 0.8960312159287884
vn 0.12622539679449535 0.4571104883916402 0.8804073776419802
vn 0.18910719696727654 0.4392117929563339 0.8782547859153754
vn 0.20861460464267112 0.2942180065477553 0.9326927207568668
vn 0.24892008991743472 0.398344883864949 0.8828137642414263
vn 0.2566817047018006 0.33976360622366386 0.9048067165739149
vn -0.07876518837491758 0.41570819142311344 0.9060809813057483
vn -0.033747009740650355 0.44972899654378073 0.8925272931408254
vn 0 0.4880635098935695 0.8728081176927547
vn 0 0.5081996088160814 0.8612393149404999
vn -0.05900327914542104 0.5367779922255306 0.8416578878097772
vn -0.13439150238499964 0.5442650096588832 0.8280788146956293
vn -0.2170210048881573 0.5262429118530373 0.8221741185185597
vn -0.2973817892362336 0.48162868256739705 0.8243772701615747
vn -0.36677601602007076 0.4117476179843436 0.83422973643755
vn -0.3782160051350293 0.3254282044183305 0.8666309117662264
vn 0.03374701038140416 0.2488952028129798 0.9679423109395534
vn 0.042051890815554764 0.225455404372484 0.9733455188770721
vn 0.04750353842943087 0.190493893701862 0.9805383675812931
vn 0.11264119941273554 0.17193779910358747 0.9786466948977424
vn 0.2256384944820637 0.2253481944891627 0.947789776822024
vn 0.18708269693298687 0.17544569712376235 0.966549984154486
vn 0 0.20705618986819715 0.9783290521277926
vn 0 0.18428240674449187 0.9828733359718625
vn -0.059003281537594904 0.14987880390576366 0.9869422257192024
vn -0.13439149993822966 0.13530449993780977 0.9816473995488054
vn -0.2170210111646972 0.14498570745882375 0.9653398496621367
vn -0.297381787848912 0.18002309264421498 0.9376330616880983
vn -0.36677598602105793 0.2391170908865243 0.8990541657343267
vn 0.09599200689274406 0.3635677882313306 0.9266088700057223
vn 0.06858488025368126 0.4531986016762875 0.8887672032873658
vn 0.09068322770583982 0.4842149877500307 0.8702369779842087
vn 0.15679909530903294 0.4810498856084042 0.8625572741948272
vn 0.22563850367428498 0.4541915073960294 0.8618569140344308
vn 0.24892010732055378 0.28118550826945476 0.9268082272567353
vn 0.2887641009637026 0.4035536013467934 0.8681934028974524
vn 0.29776959797824415 0.3355948977214228 0.8937053939320397
vn -0.08477500342980089 0.4064291164431833 0.9097409368060176
vn 0.047503538171173386 0.5019863806741541 0.8635699667536401
vn 0.042051890905383485 0.47093171013922974 0.8811668189716533
vn 0 0.5444923185103078 0.8387658285142936
vn -0.07039450809925257 0.5705882845933404 0.8182136779071184
vn -0.1558945091229945 0.572823333521797 0.8047175470923178
vn -0.2465591980972016 0.5474142957753793 0.7997162938282616
vn -0.3324626015833848 0.49403660235289615 0.8033657038261057
vn -0.4048011145348842 0.4147186148909841 0.8149506292618094
vn -0.4174272138589072 0.3194495106059713 0.8507094282442128
vn 0.059003281537594904 0.14987880390576366 0.9869422257192024
vn 0.13439149993822966 0.13530449993780977 0.9816473995488054
vn 0.2617520894655191 0.2028691918353214 0.9435729620249399
vn 0.2170210111646972 0.14498570745882375 0.9653398496621367
vn 0 0.14216769803111579 0.9898425862916452
vn -0.07039451143767274 0.10899410222599507 0.9915467202504381
vn -0.15589449477327763 0.09842817669996821 0.9828574670474374
vn -0.24655920898300768 0.11426510416307409 0.9623679350624038
vn -0.3324625921433089 0.1568518962933064 0.9299817780228522
vn -0.40480109460679664 0.2241906970130859 0.8864956881891339
vn 0.06512717000418675 0.42914810002758785 0.900883100057914
vn 0.11264119841914555 0.514710992776327 0.849932088071692
vn 0.058565969164777805 0.4437593936714493 0.8942301872471863
vn 0.18708270721333872 0.5041080194368679 0.8431341325086814
vn 0.2617520992595478 0.4683389986751484 0.8438864976127886
vn 0.28876410492983423 0.2676409045692148 0.9192299156932633
vn 0.3280734030697418 0.40802380381782755 0.8519885079719501
vn 0.33830580258513 0.33081340252787733 0.8809720067318597
vn 0.05900327914542104 0.5367779922255306 0.8416578878097772
vn 0 0.5797900907637059 0.8147658870204456
vn -0.08165648343712721 0.6033559253967714 0.793280433391173
vn -0.17711089837213742 0.6003341944822053 0.7798913928318586
vn -0.2756435014232729 0.5675840029306943 0.77580220400582
vn -0.3669303952952882 0.5055404935180556 0.780891089987563
vn -0.44207949193420454 0.4169317923930273 0.7941873855099522
vn -0.4558678331949702 0.31288872278364693 0.8332377606739513
vn 0.07039451143767274 0.10899410222599507 0.9915467202504381
vn 0.15589449477327763 0.09842817669996821 0.9828574670474374
vn 0.297381787848912 0.18002309264421498 0.9376330616880983
vn 0.24655920898300768 0.11426510416307409 0.9623679350624038
vn 0 0.09979728894453446 0.9950077894767061
vn -0.0816564839210047 0.06791415326112127 0.9943439477466957
vn -0.1771109097733752 0.06137630338688117 0.9822752542041405
vn -0.27564348868823835 0.08334030657990928 0.9576403607006879
vn -0.3669303926242571 0.13339849731852932 0.9206339814941479
vn -0.4420794797171575 0.20885809041747913 0.872321059977444
vn 0.033747009740650355 0.44972899654378073 0.8925272931408254
vn 0.07876518837491758 0.41570819142311344 0.9060809813057483
vn 0.13439150238499964 0.5442650096588832 0.8280788146956293
vn 0.06499522709508769 0.43626428050149907 0.8974681598883424
vn 0.2170210048881573 0.5262429118530373 0.8221741185185597
vn 0.2973817892362336 0.48162868256739705 0.8243772701615747
vn 0.3280733973251061 0.25360939793223614 0.9099725925806842
vn 0.36677601602007076 0.4117476179843436 0.83422973643755
vn 0.3782160051350293 0.3254282044183305 0.8666309117662264
vn 0.07039450809925257 0.5705882845933404 0.8182136779071184
vn 0 0.6140288096837255 0.7892836124476342
vn -0.09276871198390421 0.6350214135802427 0.766904016400617
vn -0.1980022104212991 0.626747532987124 0.7536462396660871
vn -0.3042207145235672 0.5867153280099251 0.7504764358279186
vn -0.40072230195518427 0.5161196025182249 0.7569955036934949
vn -0.4591546127233833 0.41770231157472104 0.7840292217258067
vn -0.47348598204498576 0.3096383882582337 0.8245817687311179
vn 0.0816564839210047 0.06791415326112127 0.9943439477466957
vn 0.1771109097733752 0.06137630338688117 0.9822752542041405
vn 0.3324625921433089 0.1568518962933064 0.9299817780228522
vn 0.27564348868823835 0.08334030657990928 0.9576403607006879
vn 0 0.05724841796217091 0.9983599644621314
vn -0.09276870594954055 0.026714008833614966 0.9953292565420174
vn -0.19800219737559638 0.024216559679023412 0.9799023870119654
vn -0.30422068940097907 0.052267908178990664 0.9511665668614441
vn -0.4007222851548886 0.10970579593585159 0.909607766302776
vn -0.4591545960473586 0.20159179826459278 0.8651807925520739
vn 0.08477500342980089 0.4064291164431833 0.9097409368060176
vn 0.1558945091229945 0.572823333521797 0.8047175470923178
vn 0.2465591980972016 0.5474142957753793 0.7997162938282616
vn 0.3324626015833848 0.49403660235289615 0.8033657038261057
vn 0.36677598602105793 0.2391170908865243 0.8990541657343267
vn 0.4048011145348842 0.4147186148909841 0.8149506292618094
vn 0.4174272138589072 0.3194495106059713 0.8507094282442128
vn 0.08165648343712721 0.6033559253967714 0.793280433391173
vn 0 0.6471465903073879 0.7623655885817002
vn -0.10371099373517736 0.6655274597977866 0.7391327553515453
vn -0.21853019310726393 0.6520156794345487 0.7260303771000259
vn -0.33223889317646776 0.6047738875791357 0.7237857851348662
vn -0.41617412580105273 0.5207146322821262 0.7454229462131008
vn 0.09276870594954055 0.026714008833614966 0.9953292565420174
vn 0.19800219737559638 0.024216559679023412 0.9799023870119654
vn 0.3669303926242571 0.13339849731852932 0.9206339814941479
vn 0.30422068940097907 0.052267908178990664 0.9511665668614441
vn 0 0.014598580511668529 0.9998934350454776
vn -0.10371100181336079 -0.014531270254075829 0.9945013173886056
vn -0.21853020278479676 -0.012983180165448827 0.9757438124341999
vn -0.33223890605853257 0.021104800384855744 0.9429591171953027
vn -0.41617409701488234 0.09862943929255433 0.9039199935163972
vn 0.17711089837213742 0.6003341944822053 0.7798913928318586
vn 0.2756435014232729 0.5675840029306943 0.77580220400582
vn 0.3669303952952882 0.5055404935180556 0.780891089987563
vn 0.40480109460679664 0.2241906970130859 0.8864956881891339
vn 0.44207949193420454 0.4169317923930273 0.7941873855099522
vn 0.4558678331949702 0.31288872278364693 0.8332377606739513
vn 0.09276871198390421 0.6350214135802427 0.766904016400617
vn 0 0.679083205201801 0.7340613056229355
vn -0.11446349696584573 0.6948186815820141 0.710017681179125
vn -0.23865770086522722 0.6760928024511 0.6970947025272403
vn -0.3450193050890451 0.6127696090383701 0.7109677104867952
vn 0.10371100181336079 -0.014531270254075829 0.9945013173886056
vn 0.21853020278479676 -0.012983180165448827 0.9757438124341999
vn 0.4007222851548886 0.10970579593585159 0.909607766302776
vn 0.33223890605853257 0.021104800384855744 0.9429591171953027
vn 0 -0.028074590870350344 0.9996058309891267
vn -0.11446350003260171 -0.05574658001587807 0.9918621002825041
vn -0.23865769966681197 -0.05015505992997915 0.9698076986460595
vn -0.3450192819802789 0.006648321652770208 0.9385720509801121
vn 0.1980022104212991 0.626747532987124 0.7536462396660871
vn 0.3042207145235672 0.5867153280099251 0.7504764358279186
vn 0.40072230195518427 0.5161196025182249 0.7569955036934949
vn 0.4420794797171575 0.20885809041747913 0.872321059977444
vn 0.4591546127233833 0.41770231157472104 0.7840292217258067
vn 0.47348598204498576 0.3096383882582337 0.8245817687311179
vn 0.10371099373517736 0.6655274597977866 0.7391327553515453
vn 0 0.7097809054968768 0.704422505455379
vn -0.125006602082085 0.7228422120395154 0.679612011319482
vn -0.24781470371228664 0.6868063102884204 0.6832898102357431
vn 0.11446350003260171 -0.05574658001587807 0.9918621002825041
vn 0.23865769966681197 -0.05015505992997915 0.9698076986460595
vn 0.41617409701488234 0.09862943929255433 0.9039199935163972
vn 0.3450192819802789 0.006648321652770208 0.9385720509801121
vn 0 -0.07069342927366853 0.997498089751318
vn -0.12500659740051018 -0.09685688798587858 0.9874168794668429
vn -0.2478146948806327 -0.06730695860956998 0.9664665800346892
vn 0.21853019310726393 0.6520156794345487 0.7260303771000259
vn 0.33223889317646776 0.6047738875791357 0.7237857851348662
vn 0.41617412580105273 0.5207146322821262 0.7454229462131008
vn 0.4591545960473586 0.20159179826459278 0.8651807925520739
vn 0.11446349696584573 0.6948186815820141 0.710017681179125
vn 0 0.739184113488495 0.6735034122899659
vn -0.12979339750875787 0.7353258858862247 0.6651687872328137
vn 0.12500659740051018 -0.09685688798587858 0.9874168794668429
vn 0.2478146948806327 -0.06730695860956998 0.9664665800346892
vn 0 -0.11318040615251444 0.9935744540109473
vn -0.12979340348323057 -0.11576170310666582 0.9847603264277474
vn 0.23865770086522722 0.6760928024511 0.6970947025272403
vn 0.3450193050890451 0.6127696090383701 0.7109677104867952
vn 0.125006602082085 0.7228422120395154 0.679612011319482
vn 0 0.752284311706879 0.6588386102526984
vn 0.12979340348323057 -0.11576170310666582 0.9847603264277474
vn 0 -0.13269519890389478 0.9911568918127222
vn 0.24781470371228664 0.6868063102884204 0.6832898102357431
vn 0.12979339750875787 0.7353258858862247 0.6651687872328137
usemtl material_0_0
f 1//1 2//2 3//3
f 2//2 1//1 4//4
f 5//5 3//3 6//6
f 3//3 5//5 1//1
f 7//7 4//4 1//1
f 4//4 7//7 8//8
f 9//9 2//2 4//4
f 2//2 9//9 10//10
f 3//3 11//11 12//12
f 11//11 3//3 2//2
f 13//13 6//6 14//14
f 6//6 13//13 5//5
f 6//6 12//12 15//15
f 12//12 6//6 3//3
f 16//16 7//7 17//17
f 7//7 16//16 8//8
f 9//9 18//18 10//10
f 18//18 9//9 19//19
f 10//10 11//11 2//2
f 11//11 10//10 20//20
f 12//12 21//21 22//22
f 21//21 12//12 11//11
f 23//23 14//14 24//24
f 14//14 23//23 13//13
f 13//13 23//23 25//25
f 14//14 15//15 26//26
f 15//15 14//14 6//6
f 15//15 22//22 27//27
f 22//22 15//15 12//12
f 16//16 28//28 8//8
f 28//28 16//16 29//29
f 30//30 17//17 31//31
f 17//17 30//30 16//16
f 19//19 9//9 32//32
f 33//33 18//18 19//19
f 10//10 18//18 34//34
f 35//35 20//20 10//10
f 20//20 35//35 36//36
f 20//20 21//21 11//11
f 21//21 20//20 37//37
f 22//22 38//38 39//39
f 38//38 22//22 21//21
f 23//23 24//24 40//40
f 41//41 23//23 42//42
f 23//23 41//41 43//43
f 23//23 43//43 25//25
f 44//44 13//13 25//25
f 24//24 26//26 45//45
f 26//26 24//24 14//14
f 26//26 27//27 46//46
f 27//27 26//26 15//15
f 27//27 39//39 47//47
f 39//39 27//27 22//22
f 48//48 29//29 16//16
f 48//48 16//16 30//30
f 31//31 49//49 50//50
f 49//49 31//31 17//17
f 51//51 31//31 52//52
f 31//31 51//51 30//30
f 34//34 18//18 33//33
f 53//53 33//33 19//19
f 10//10 34//34 54//54
f 35//35 10//10 55//55
f 56//56 36//36 35//35
f 36//36 56//56 57//57
f 36//36 37//37 20//20
f 37//37 36//36 58//58
f 37//37 38//38 21//21
f 38//38 37//37 59//59
f 39//39 60//60 61//61
f 60//60 39//39 38//38
f 40//40 24//24 62//62
f 23//23 40//40 63//63
f 23//23 63//63 42//42
f 64//64 42//42 65//65
f 42//42 64//64 41//41
f 50//50 43//43 41//41
f 43//43 50//50 49//49
f 62//62 45//45 66//66
f 45//45 62//62 24//24
f 45//45 46//46 67//67
f 46//46 45//45 26//26
f 46//46 47//47 68//68
f 47//47 46//46 27//27
f 47//47 61//61 69//69
f 61//61 47//47 39//39
f 48//48 70//70 29//29
f 51//51 48//48 30//30
f 48//48 51//51 71//71
f 52//52 50//50 72//72
f 50//50 52//52 31//31
f 73//73 52//52 74//74
f 52//52 73//73 51//51
f 53//53 19//19 70//70
f 54//54 34//34 75//75
f 10//10 54//54 55//55
f 56//56 35//35 76//76
f 77//77 57//57 56//56
f 57//57 77//77 78//78
f 57//57 58//58 36//36
f 58//58 57//57 79//79
f 58//58 59//59 37//37
f 59//59 58//58 80//80
f 59//59 60//60 38//38
f 60//60 59//59 81//81
f 61//61 82//82 83//83
f 82//82 61//61 60//60
f 40//40 62//62 84//84
f 63//63 85//85 42//42
f 72//72 41//41 64//64
f 41//41 72//72 50//50
f 65//65 85//85 86//86
f 85//85 65//65 42//42
f 87//87 65//65 88//88
f 65//65 87//87 64//64
f 49//49 89//89 43//43
f 89//89 49//49 90//89
f 91//90 66//66 92//91
f 66//66 91//90 62//62
f 66//66 67//67 93//92
f 67//67 66//66 45//45
f 67//67 68//68 94//93
f 68//68 67//67 46//46
f 68//68 69//69 95//94
f 69//69 68//68 47//47
f 69//69 83//83 96//95
f 83//83 69//69 61//61
f 48//48 53//53 70//70
f 71//71 97//96 48//48
f 97//96 71//71 98//97
f 73//73 71//71 51//51
f 71//71 73//73 99//98
f 74//74 72//72 100//99
f 72//72 74//74 52//52
f 101//100 74//74 102//101
f 74//74 101//100 73//73
f 35//35 103//102 76//76
f 56//56 76//76 104//103
f 77//77 56//56 104//103
f 105//104 78//78 77//77
f 78//78 105//104 106//105
f 78//78 79//79 57//57
f 79//79 78//78 107//106
f 79//79 80//80 58//58
f 80//80 79//79 108//107
f 80//80 81//81 59//59
f 81//81 80//80 109//108
f 81//81 82//82 60//60
f 82//82 81//81 110//109
f 83//83 111//110 112//111
f 111//110 83//83 82//82
f 84//84 62//62 91//90
f 63//63 113//112 85//85
f 100//99 64//64 87//87
f 64//64 100//99 72//72
f 86//86 114//113 115//114
f 114//113 86//86 85//85
f 88//88 86//86 116//115
f 86//86 88//88 65//65
f 117//116 88//88 118//117
f 88//88 117//116 87//87
f 119//118 92//91 120//119
f 92//91 119//118 91//90
f 92//91 93//92 121//120
f 93//92 92//91 66//66
f 93//92 94//93 122//121
f 94//93 93//92 67//67
f 94//93 95//94 123//122
f 95//94 94//93 68//68
f 95//94 96//95 124//123
f 96//95 95//94 69//69
f 96//95 112//111 125//124
f 112//111 96//95 83//83
f 48//48 126//125 53//53
f 98//97 127//126 97//96
f 127//126 98//97 128//127
f 97//96 126//125 48//48
f 99//98 98//97 71//71
f 98//97 99//98 129//128
f 101//100 99//98 73//73
f 99//98 101//100 130//129
f 102//101 100//99 131//130
f 100//99 102//101 74//74
f 132//131 102//101 133//132
f 102//101 132//131 101//100
f 76//76 103//102 134//133
f 135//134 105//104 136//135
f 105//104 135//134 106//105
f 106//105 107//106 78//78
f 107//106 106//105 137//136
f 107//106 108//107 79//79
f 108//107 107//106 138//137
f 108//107 109//108 80//80
f 109//108 108//107 139//138
f 109//108 110//109 81//81
f 110//109 109//108 140//139
f 110//109 111//110 82//82
f 111//110 110//109 141//140
f 112//111 142//141 143//142
f 142//141 112//111 111//110
f 113//112 114//113 85//85
f 131//130 87//87 117//116
f 87//87 131//130 100//99
f 115//114 119//118 120//119
f 119//118 115//114 114//113
f 116//115 115//114 144//143
f 115//114 116//115 86//86
f 118//117 116//115 145//144
f 116//115 118//117 88//88
f 146//145 118//117 147//146
f 118//117 146//145 117//116
f 120//119 121//120 148//147
f 121//120 120//119 92//91
f 121//120 122//121 149//148
f 122//121 121//120 93//92
f 122//121 123//122 150//149
f 123//122 122//121 94//93
f 123//122 124//123 151//150
f 124//123 123//122 95//94
f 124//123 125//124 152//151
f 125//124 124//123 96//95
f 125//124 143//142 153//152
f 143//142 125//124 112//111
f 128//127 136//135 127//126
f 136//135 128//127 135//134
f 127//126 154//153 97//96
f 129//128 128//127 98//97
f 128//127 129//128 155//154
f 97//96 156//155 126//125
f 130//129 129//128 99//98
f 129//128 130//129 157//156
f 132//131 130//129 101//100
f 130//129 132//131 158//157
f 133//132 131//130 159//158
f 131//130 133//132 102//101
f 160//159 133//132 161//160
f 133//132 160//159 132//131
f 162//161 106//105 135//134
f 106//105 162//161 137//136
f 137//136 138//137 107//106
f 138//137 137//136 163//162
f 138//137 139//138 108//107
f 139//138 138//137 164//163
f 139//138 140//139 109//108
f 140//139 139//138 165//164
f 140//139 141//140 110//109
f 141//140 140//139 166//165
f 141//140 142//141 111//110
f 142//141 141//140 167//166
f 143//142 168//167 169//168
f 168//167 143//142 142//141
f 159//158 117//116 146//145
f 117//116 159//158 131//130
f 144//143 120//119 148//147
f 120//119 144//143 115//114
f 145//144 144//143 170//169
f 144//143 145//144 116//115
f 147//146 145//144 171//170
f 145//144 147//146 118//117
f 172//171 147//146 173//172
f 147//146 172//171 146//145
f 148//147 149//148 174//173
f 149//148 148//147 121//120
f 149//148 150//149 175//174
f 150//149 149//148 122//121
f 150//149 151//150 176//175
f 151//150 150//149 123//122
f 151//150 152//151 177//176
f 152//151 151//150 124//123
f 152//151 153//152 178//177
f 153//152 152//151 125//124
f 153//152 169//168 179//178
f 169//168 153//152 143//142
f 136//135 180//179 127//126
f 155//154 135//134 128//127
f 135//134 155//154 162//161
f 127//126 180//179 154//153
f 97//96 154//153 181//180
f 157//156 155//154 129//128
f 155//154 157//156 182//181
f 97//96 183//182 156//155
f 158//157 157//156 130//129
f 157//156 158//157 184//183
f 160//159 158//157 132//131
f 158//157 160//159 185//184
f 161//160 159//158 186//185
f 159//158 161//160 133//132
f 187//186 161//160 188//187
f 161//160 187//186 160//159
f 189//188 137//136 162//161
f 137//136 189//188 163//162
f 163//162 164//163 138//137
f 164//163 163//162 190//189
f 164//163 165//164 139//138
f 165//164 164//163 191//190
f 165//164 166//165 140//139
f 166//165 165//164 192//191
f 166//165 167//166 141//140
f 167//166 166//165 193//192
f 167//166 168//167 142//141
f 168//167 167//166 194//193
f 169//168 195//194 196//195
f 195//194 169//168 168//167
f 186//185 146//145 172//171
f 146//145 186//185 159//158
f 170//169 148//147 174//173
f 148//147 170//169 144//143
f 171//170 170//169 197//196
f 170//169 171//170 145//144
f 173//172 171//170 198//197
f 171//170 173//172 147//146
f 199//198 173//172 200//199
f 173//172 199//198 172//171
f 174//173 175//174 201//200
f 175//174 174//173 149//148
f 175//174 176//175 202//201
f 176//175 175//174 150//149
f 176//175 177//176 203//202
f 177//176 176//175 151//150
f 177//176 178//177 204//203
f 178//177 177//176 152//151
f 178//177 179//178 205//204
f 179//178 178//177 153//152
f 179//178 196//195 206//205
f 196//195 179//178 169//168
f 182//181 162//161 155//154
f 162//161 182//181 189//188
f 154//153 207//206 181//180
f 184//183 182//181 157//156
f 182//181 184//183 208//207
f 185//184 184//183 158//157
f 184//183 185//184 209//208
f 187//186 185//184 160//159
f 185//184 187//186 210//209
f 188//187 186//185 211//210
f 186//185 188//187 161//160
f 212//211 188//187 213//212
f 188//187 212//211 187//186
f 214//213 163//162 189//188
f 163//162 214//213 190//189
f 190//189 191//190 164//163
f 191//190 190//189 215//214
f 191//190 192//191 165//164
f 192//191 191//190 216//215
f 192//191 193//192 166//165
f 193//192 192//191 217//216
f 193//192 194//193 167//166
f 194//193 193//192 218//217
f 194//193 195//194 168//167
f 195//194 194//193 219//218
f 211//210 172//171 199//198
f 172//171 211//210 186//185
f 197//196 174//173 201//200
f 174//173 197//196 170//169
f 198//197 197//196 220//219
f 197//196 198//197 171//170
f 200//199 198//197 221//220
f 198//197 200//199 173//172
f 222//221 200//199 223//222
f 200//199 222//221 199//198
f 201//200 202//201 224//223
f 202//201 201//200 175//174
f 202//201 203//202 225//224
f 203//202 202//201 176//175
f 203//202 204//203 226//225
f 204//203 203//202 177//176
f 204//203 205//204 227//226
f 205//204 204//203 178//177
f 205//204 206//205 228//227
f 206//205 205//204 179//178
f 208//207 189//188 182//181
f 189//188 208//207 214//213
f 209//208 208//207 184//183
f 208//207 209//208 229//228
f 210//209 209//208 185//184
f 209//208 210//209 230//229
f 212//211 210//209 187//186
f 210//209 212//211 231//230
f 213//212 211//210 232//231
f 211//210 213//212 188//187
f 233//232 213//212 234//233
f 213//212 233//232 212//211
f 235//234 190//189 214//213
f 190//189 235//234 215//214
f 215//214 216//215 191//190
f 216//215 215//214 236//235
f 216//215 217//216 192//191
f 217//216 216//215 237//236
f 217//216 218//217 193//192
f 218//217 217//216 238//237
f 218//217 219//218 194//193
f 219//218 218//217 239//238
f 232//231 199//198 222//221
f 199//198 232//231 211//210
f 220//219 201//200 224//223
f 201//200 220//219 197//196
f 221//220 220//219 240//239
f 220//219 221//220 198//197
f 223//222 221//220 241//240
f 221//220 223//222 200//199
f 242//241 223//222 243//242
f 223//222 242//241 222//221
f 224//223 225//224 244//243
f 225//224 224//223 202//201
f 225//224 226//225 245//244
f 226//225 225//224 203//202
f 226//225 227//226 246//245
f 227//226 226//225 204//203
f 227//226 228//227 247//246
f 228//227 227//226 205//204
f 229//228 214//213 208//207
f 214//213 229//228 235//234
f 230//229 229//228 209//208
f 229//228 230//229 248//247
f 231//230 230//229 210//209
f 230//229 231//230 249//248
f 233//232 231//230 212//211
f 231//230 233//232 250//249
f 234//233 232//231 251//250
f 232//231 234//233 213//212
f 252//251 234//233 253//252
f 234//233 252//251 233//232
f 254//253 215//214 235//234
f 215//214 254//253 236//235
f 236//235 237//236 216//215
f 237//236 236//235 255//254
f 237//236 238//237 217//216
f 238//237 237//236 256//255
f 238//237 239//238 218//217
f 239//238 238//237 257//256
f 251//250 222//221 242//241
f 222//221 251//250 232//231
f 240//239 224//223 244//243
f 224//223 240//239 220//219
f 241//240 240//239 258//257
f 240//239 241//240 221//220
f 243//242 241//240 259//258
f 241//240 243//242 223//222
f 260//259 243//242 261//260
f 243//242 260//259 242//241
f 244//243 245//244 262//261
f 245//244 244//243 225//224
f 245//244 246//245 263//262
f 246//245 245//244 226//225
f 246//245 247//246 264//263
f 247//246 246//245 227//226
f 248//247 235//234 229//228
f 235//234 248//247 254//253
f 249//248 248//247 230//229
f 248//247 249//248 265//264
f 250//249 249//248 231//230
f 249//248 250//249 266//265
f 252//251 250//249 233//232
f 250//249 252//251 267//266
f 253//252 251//250 268//267
f 251//250 253//252 234//233
f 269//268 236//235 254//253
f 236//235 269//268 255//254
f 237//236 270//269 256//255
f 270//269 237//236 255//254
f 238//237 271//270 257//256
f 271//270 238//237 256//255
f 268//267 242//241 260//259
f 242//241 268//267 251//250
f 258//257 244//243 262//261
f 244//243 258//257 240//239
f 259//258 258//257 272//271
f 258//257 259//258 241//240
f 261//260 259//258 273//272
f 259//258 261//260 243//242
f 262//261 263//262 274//273
f 263//262 262//261 245//244
f 263//262 264//263 275//274
f 264//263 263//262 246//245
f 265//264 254//253 248//247
f 254//253 265//264 269//268
f 266//265 265//264 249//248
f 265//264 266//265 276//275
f 267//266 266//265 250//249
f 266//265 267//266 277//276
f 255//254 278//277 270//269
f 278//277 255//254 269//268
f 256//255 279//278 271//270
f 279//278 256//255 270//269
f 272//271 262//261 274//273
f 262//261 272//271 258//257
f 273//272 272//271 280//279
f 272//271 273//272 259//258
f 274//273 275//274 281//280
f 275//274 274//273 263//262
f 276//275 269//268 265//264
f 269//268 276//275 278//277
f 277//276 276//275 266//265
f 276//275 277//276 282//281
f 278//277 279//278 270//269
f 279//278 278//277 283//282
f 280//279 274//273 281//280
f 274//273 280//279 272//271
f 276//275 283//282 278//277
f 283//282 276//275 282//281
