# SSTK version 0.8.0
# 72
mtllib original-72.mtl
o #ID553
v -0.484170 0.392420 0.490736
v -0.484170 0.387745 0.440835
v -0.484170 0.387745 0.492262
v -0.484170 0.392420 0.440835
v -0.484170 0.392420 0.440835
v -0.484170 0.392420 0.490736
v -0.484170 0.387745 0.440835
v -0.484170 0.387745 0.492262
v -0.480179 0.387745 0.440835
v -0.484170 0.387745 0.492262
v -0.484170 0.387745 0.440835
v -0.480179 0.387745 0.492262
v -0.480179 0.387745 0.492262
v -0.480179 0.387745 0.440835
v -0.484170 0.387745 0.492262
v -0.484170 0.387745 0.440835
vn -1 0 0
vn 1 0 0
vn 0 -1 0
vn 0 1 0
usemtl material_0_0
f 1//1 2//1 3//1
f 2//1 1//1 4//1
f 5//2 6//2 7//2
f 8//2 7//2 6//2
f 9//3 10//3 11//3
f 10//3 9//3 12//3
f 13//4 14//4 15//4
f 16//4 15//4 14//4
